{
  "title" : "",
  "description" : "",
  "author" : "",
  "targetLoudness" : -18.0,
  "shouldApplyLoudnessNormalization" : true,
  "videoFormatFrameRate" : 30,
  "audioFormatSampleRate" : 44100,
  "width" : 1920.0,
  "height" : 1080.0,
  "version" : "3.0",
  "editRate" : 30,
  "authoringClientName" :  {
    "name" : "Camtasia",
    "platform" : "Windows",
    "version" : "19.0"
  },
  "sourceBin" : [
    {
      "id" : 1,
      "src" : "D:\\Code\\K8S\\video\\rec\\Rec 01-04-21_002.trec",
      "rect" : [0, 0, 1920, 1080],
      "lastMod" : "20210104T194419",
      "sourceTracks" : [
        {
          "range" : [0, 4026],
          "type" : 0,
          "editRate" : 30,
          "trackRect" : [0, 0, 1920, 1080],
          "sampleRate" : 25,
          "bitDepth" : 0,
          "numChannels" : 0,
          "integratedLUFS" : 100.0,
          "peakLevel" : -1.0,
          "metaData" : "2b7b6a00-7a1f-11e2-83d0-0017f200be7f;2b7b6aef-7a1f-11e2-83d0-0017f200be7f;2b7b6af0-7a1f-11e2-83d0-0017f200be7f;2b7b6af1-7a1f-11e2-83d0-0017f200be7f;2b7b6af2-7a1f-11e2-83d0-0017f200be7f;2b7b6af3-7a1f-11e2-83d0-0017f200be7f;2b7b6af5-7a1f-11e2-83d0-0017f200be7f;2b7b6af6-7a1f-11e2-83d0-0017f200be7f;2b7b6af7-7a1f-11e2-83d0-0017f200be7f;2b7b6af8-7a1f-11e2-83d0-0017f200be7f;2b7b6af9-7a1f-11e2-83d0-0017f200be7f;2b7b6afa-7a1f-11e2-83d0-0017f200be7f;"
        },
        {
          "range" : [0, 5889024],
          "type" : 2,
          "editRate" : 44100,
          "trackRect" : [0, 0, 0, 0],
          "sampleRate" : 44100,
          "bitDepth" : 16,
          "numChannels" : 2,
          "integratedLUFS" : -14.3903463171407,
          "peakLevel" : 1.0,
          "metaData" : ""
        }
      ],
      "metadata" : {
        "timeAdded" : "20210104T194420.367736"
      }
    },
    {
      "id" : 2,
      "src" : "D:\\Code\\K8S\\video\\2\\Narration_2-1 What Minikube 1.m4a",
      "rect" : [0, 0, 0, 0],
      "lastMod" : "20210105T184551",
      "sourceTracks" : [
        {
          "range" : [0, 22291112],
          "type" : 2,
          "editRate" : 10000000,
          "trackRect" : [0, 0, 0, 0],
          "sampleRate" : 44100,
          "bitDepth" : 16,
          "numChannels" : 2,
          "integratedLUFS" : -11.1617457653335,
          "peakLevel" : 1.00428235530853,
          "metaData" : ""
        }
      ],
      "metadata" : {
        "timeAdded" : "20210105T184552.542673"
      }
    },
    {
      "id" : 3,
      "src" : "C:\\Users\\lianduan\\Pictures\\What is Minikube.png",
      "rect" : [0, 0, 341, 58],
      "lastMod" : "20210105T184930",
      "sourceTracks" : [
        {
          "range" : [0, 1],
          "type" : 1,
          "editRate" : 10000000,
          "trackRect" : [0, 0, 341, 58],
          "sampleRate" : 0,
          "bitDepth" : 24,
          "numChannels" : 0,
          "integratedLUFS" : 100.0,
          "peakLevel" : -1.0,
          "metaData" : ""
        }
      ],
      "metadata" : {
        "timeAdded" : "20210105T184952.881965"
      }
    },
    {
      "id" : 4,
      "src" : "C:\\ProgramData\\TechSmith\\Camtasia Studio 19\\Library 4.0\\User Libraries\\K8s\\end.asset\\wave1.png",
      "rect" : [0, 0, 1907, 383],
      "lastMod" : "20210105T163238",
      "sourceTracks" : [
        {
          "range" : [0, 1],
          "type" : 1,
          "editRate" : 10000000,
          "trackRect" : [0, 0, 1907, 383],
          "sampleRate" : 0,
          "bitDepth" : 24,
          "numChannels" : 0,
          "integratedLUFS" : 100.0,
          "peakLevel" : -1.0,
          "metaData" : ""
        }
      ],
      "metadata" : {
        "assetLibraryId" : "160cb380-8ff3-4175-9097-02d3f450e2f8",
        "timeAdded" : "20210105T201710.610000"
      }
    },
    {
      "id" : 5,
      "src" : "C:\\ProgramData\\TechSmith\\Camtasia Studio 19\\Library 4.0\\User Libraries\\K8s\\end.asset\\wave2.png",
      "rect" : [0, 0, 1906, 341],
      "lastMod" : "20210105T163731",
      "sourceTracks" : [
        {
          "range" : [0, 1],
          "type" : 1,
          "editRate" : 10000000,
          "trackRect" : [0, 0, 1906, 341],
          "sampleRate" : 0,
          "bitDepth" : 24,
          "numChannels" : 0,
          "integratedLUFS" : 100.0,
          "peakLevel" : -1.0,
          "metaData" : ""
        }
      ],
      "metadata" : {
        "assetLibraryId" : "160cb380-8ff3-4175-9097-02d3f450e2f8",
        "timeAdded" : "20210105T201710.610000"
      }
    },
    {
      "id" : 6,
      "src" : "C:\\ProgramData\\TechSmith\\Camtasia Studio 19\\Library 4.0\\User Libraries\\K8s\\end.asset\\wave3.png",
      "rect" : [0, 0, 1903, 380],
      "lastMod" : "20210105T163725",
      "sourceTracks" : [
        {
          "range" : [0, 1],
          "type" : 1,
          "editRate" : 10000000,
          "trackRect" : [0, 0, 1903, 380],
          "sampleRate" : 0,
          "bitDepth" : 24,
          "numChannels" : 0,
          "integratedLUFS" : 100.0,
          "peakLevel" : -1.0,
          "metaData" : ""
        }
      ],
      "metadata" : {
        "assetLibraryId" : "160cb380-8ff3-4175-9097-02d3f450e2f8",
        "timeAdded" : "20210105T201710.610000"
      }
    },
    {
      "id" : 7,
      "src" : "C:\\ProgramData\\TechSmith\\Camtasia Studio 19\\Library 4.0\\User Libraries\\K8s\\end.asset\\control-plane-128.png",
      "rect" : [0, 0, 128, 128],
      "lastMod" : "20201224T160827",
      "sourceTracks" : [
        {
          "range" : [0, 1],
          "type" : 1,
          "editRate" : 10000000,
          "trackRect" : [0, 0, 128, 128],
          "sampleRate" : 0,
          "bitDepth" : 32,
          "numChannels" : 0,
          "integratedLUFS" : 100.0,
          "peakLevel" : -1.0,
          "metaData" : ""
        }
      ],
      "metadata" : {
        "assetLibraryId" : "160cb380-8ff3-4175-9097-02d3f450e2f8",
        "timeAdded" : "20210105T201710.610000"
      }
    },
    {
      "id" : 8,
      "src" : "C:\\ProgramData\\TechSmith\\Camtasia Studio 19\\Library 4.0\\User Libraries\\K8s\\end.asset\\etcd-128.png",
      "rect" : [0, 0, 128, 128],
      "lastMod" : "20201224T160827",
      "sourceTracks" : [
        {
          "range" : [0, 1],
          "type" : 1,
          "editRate" : 10000000,
          "trackRect" : [0, 0, 128, 128],
          "sampleRate" : 0,
          "bitDepth" : 32,
          "numChannels" : 0,
          "integratedLUFS" : 100.0,
          "peakLevel" : -1.0,
          "metaData" : ""
        }
      ],
      "metadata" : {
        "assetLibraryId" : "160cb380-8ff3-4175-9097-02d3f450e2f8",
        "timeAdded" : "20210105T201710.610000"
      }
    },
    {
      "id" : 9,
      "src" : "C:\\ProgramData\\TechSmith\\Camtasia Studio 19\\Library 4.0\\User Libraries\\K8s\\end.asset\\node-128.png",
      "rect" : [0, 0, 128, 128],
      "lastMod" : "20201224T160827",
      "sourceTracks" : [
        {
          "range" : [0, 1],
          "type" : 1,
          "editRate" : 10000000,
          "trackRect" : [0, 0, 128, 128],
          "sampleRate" : 0,
          "bitDepth" : 32,
          "numChannels" : 0,
          "integratedLUFS" : 100.0,
          "peakLevel" : -1.0,
          "metaData" : ""
        }
      ],
      "metadata" : {
        "assetLibraryId" : "160cb380-8ff3-4175-9097-02d3f450e2f8",
        "timeAdded" : "20210105T201710.610000"
      }
    },
    {
      "id" : 10,
      "src" : "C:\\ProgramData\\TechSmith\\Camtasia Studio 19\\Library 4.0\\User Libraries\\K8s\\end.asset\\ns-128.png",
      "rect" : [0, 0, 128, 128],
      "lastMod" : "20201224T160827",
      "sourceTracks" : [
        {
          "range" : [0, 1],
          "type" : 1,
          "editRate" : 10000000,
          "trackRect" : [0, 0, 128, 128],
          "sampleRate" : 0,
          "bitDepth" : 32,
          "numChannels" : 0,
          "integratedLUFS" : 100.0,
          "peakLevel" : -1.0,
          "metaData" : ""
        }
      ],
      "metadata" : {
        "assetLibraryId" : "160cb380-8ff3-4175-9097-02d3f450e2f8",
        "timeAdded" : "20210105T201710.610000"
      }
    },
    {
      "id" : 11,
      "src" : "C:\\ProgramData\\TechSmith\\Camtasia Studio 19\\Library 4.0\\User Libraries\\K8s\\end.asset\\pod-128.png",
      "rect" : [0, 0, 128, 128],
      "lastMod" : "20201224T160827",
      "sourceTracks" : [
        {
          "range" : [0, 1],
          "type" : 1,
          "editRate" : 10000000,
          "trackRect" : [0, 0, 128, 128],
          "sampleRate" : 0,
          "bitDepth" : 32,
          "numChannels" : 0,
          "integratedLUFS" : 100.0,
          "peakLevel" : -1.0,
          "metaData" : ""
        }
      ],
      "metadata" : {
        "assetLibraryId" : "160cb380-8ff3-4175-9097-02d3f450e2f8",
        "timeAdded" : "20210105T201710.610000"
      }
    },
    {
      "id" : 12,
      "src" : "C:\\ProgramData\\TechSmith\\Camtasia Studio 19\\Library 4.0\\User Libraries\\K8s\\end.asset\\secret-128.png",
      "rect" : [0, 0, 128, 128],
      "lastMod" : "20201224T160827",
      "sourceTracks" : [
        {
          "range" : [0, 1],
          "type" : 1,
          "editRate" : 10000000,
          "trackRect" : [0, 0, 128, 128],
          "sampleRate" : 0,
          "bitDepth" : 32,
          "numChannels" : 0,
          "integratedLUFS" : 100.0,
          "peakLevel" : -1.0,
          "metaData" : ""
        }
      ],
      "metadata" : {
        "assetLibraryId" : "160cb380-8ff3-4175-9097-02d3f450e2f8",
        "timeAdded" : "20210105T201710.610000"
      }
    },
    {
      "id" : 13,
      "src" : "C:\\ProgramData\\TechSmith\\Camtasia Studio 19\\Library 4.0\\User Libraries\\K8s\\end.asset\\svc-128.png",
      "rect" : [0, 0, 128, 128],
      "lastMod" : "20201224T160827",
      "sourceTracks" : [
        {
          "range" : [0, 1],
          "type" : 1,
          "editRate" : 10000000,
          "trackRect" : [0, 0, 128, 128],
          "sampleRate" : 0,
          "bitDepth" : 32,
          "numChannels" : 0,
          "integratedLUFS" : 100.0,
          "peakLevel" : -1.0,
          "metaData" : ""
        }
      ],
      "metadata" : {
        "assetLibraryId" : "160cb380-8ff3-4175-9097-02d3f450e2f8",
        "timeAdded" : "20210105T201710.610000"
      }
    },
    {
      "id" : 14,
      "src" : "C:\\ProgramData\\TechSmith\\Camtasia Studio 19\\Library 4.0\\User Libraries\\K8s\\end.asset\\rs-128.png",
      "rect" : [0, 0, 128, 128],
      "lastMod" : "20201224T160827",
      "sourceTracks" : [
        {
          "range" : [0, 1],
          "type" : 1,
          "editRate" : 10000000,
          "trackRect" : [0, 0, 128, 128],
          "sampleRate" : 0,
          "bitDepth" : 32,
          "numChannels" : 0,
          "integratedLUFS" : 100.0,
          "peakLevel" : -1.0,
          "metaData" : ""
        }
      ],
      "metadata" : {
        "assetLibraryId" : "160cb380-8ff3-4175-9097-02d3f450e2f8",
        "timeAdded" : "20210105T201710.610000"
      }
    },
    {
      "id" : 15,
      "src" : "C:\\ProgramData\\TechSmith\\Camtasia Studio 19\\Library 4.0\\User Libraries\\K8s\\end.asset\\vol-128.png",
      "rect" : [0, 0, 128, 128],
      "lastMod" : "20201224T160827",
      "sourceTracks" : [
        {
          "range" : [0, 1],
          "type" : 1,
          "editRate" : 10000000,
          "trackRect" : [0, 0, 128, 128],
          "sampleRate" : 0,
          "bitDepth" : 32,
          "numChannels" : 0,
          "integratedLUFS" : 100.0,
          "peakLevel" : -1.0,
          "metaData" : ""
        }
      ],
      "metadata" : {
        "assetLibraryId" : "160cb380-8ff3-4175-9097-02d3f450e2f8",
        "timeAdded" : "20210105T201710.610000"
      }
    },
    {
      "id" : 16,
      "src" : "C:\\ProgramData\\TechSmith\\Camtasia Studio 19\\Library 4.0\\User Libraries\\K8s\\end.asset\\deploy-128.png",
      "rect" : [0, 0, 128, 128],
      "lastMod" : "20201224T160827",
      "sourceTracks" : [
        {
          "range" : [0, 1],
          "type" : 1,
          "editRate" : 10000000,
          "trackRect" : [0, 0, 128, 128],
          "sampleRate" : 0,
          "bitDepth" : 32,
          "numChannels" : 0,
          "integratedLUFS" : 100.0,
          "peakLevel" : -1.0,
          "metaData" : ""
        }
      ],
      "metadata" : {
        "assetLibraryId" : "160cb380-8ff3-4175-9097-02d3f450e2f8",
        "timeAdded" : "20210105T201710.610000"
      }
    },
    {
      "id" : 17,
      "src" : "C:\\ProgramData\\TechSmith\\Camtasia Studio 19\\Library 4.0\\User Libraries\\K8s\\end.asset\\cronjob-128.png",
      "rect" : [0, 0, 128, 128],
      "lastMod" : "20201224T160827",
      "sourceTracks" : [
        {
          "range" : [0, 1],
          "type" : 1,
          "editRate" : 10000000,
          "trackRect" : [0, 0, 128, 128],
          "sampleRate" : 0,
          "bitDepth" : 32,
          "numChannels" : 0,
          "integratedLUFS" : 100.0,
          "peakLevel" : -1.0,
          "metaData" : ""
        }
      ],
      "metadata" : {
        "assetLibraryId" : "160cb380-8ff3-4175-9097-02d3f450e2f8",
        "timeAdded" : "20210105T201710.610000"
      }
    },
    {
      "id" : 18,
      "src" : "C:\\ProgramData\\TechSmith\\Camtasia Studio 19\\Library 4.0\\User Libraries\\K8s\\end.asset\\k8sfavicon.png",
      "rect" : [0, 0, 512, 512],
      "lastMod" : "20210105T165021",
      "sourceTracks" : [
        {
          "range" : [0, 1],
          "type" : 1,
          "editRate" : 10000000,
          "trackRect" : [0, 0, 512, 512],
          "sampleRate" : 0,
          "bitDepth" : 32,
          "numChannels" : 0,
          "integratedLUFS" : 100.0,
          "peakLevel" : -1.0,
          "metaData" : ""
        }
      ],
      "metadata" : {
        "assetLibraryId" : "160cb380-8ff3-4175-9097-02d3f450e2f8",
        "timeAdded" : "20210105T201710.610000"
      }
    },
    {
      "id" : 19,
      "src" : "C:\\ProgramData\\TechSmith\\Camtasia Studio 19\\Library 4.0\\User Libraries\\K8s\\end.asset\\wave.mp3",
      "rect" : [0, 0, 0, 0],
      "lastMod" : "20210105T195352",
      "sourceTracks" : [
        {
          "range" : [0, 185467500],
          "type" : 2,
          "editRate" : 10000000,
          "trackRect" : [0, 0, 0, 0],
          "sampleRate" : 44100,
          "bitDepth" : 0,
          "numChannels" : 2,
          "integratedLUFS" : -16.6955131625049,
          "peakLevel" : 0.940275430679321,
          "metaData" : ""
        }
      ],
      "metadata" : {
        "assetLibraryId" : "160cb380-8ff3-4175-9097-02d3f450e2f8",
        "timeAdded" : "20210105T201710.610000"
      }
    },
    {
      "id" : 20,
      "src" : "C:\\ProgramData\\TechSmith\\Camtasia Studio 19\\Library 4.0\\User Libraries\\K8s\\start.asset\\wave1.png",
      "rect" : [0, 0, 1907, 383],
      "lastMod" : "20210105T163238",
      "sourceTracks" : [
        {
          "range" : [0, 1],
          "type" : 1,
          "editRate" : 10000000,
          "trackRect" : [0, 0, 1907, 383],
          "sampleRate" : 0,
          "bitDepth" : 24,
          "numChannels" : 0,
          "integratedLUFS" : 100.0,
          "peakLevel" : -1.0,
          "metaData" : ""
        }
      ],
      "metadata" : {
        "assetLibraryId" : "75d65985-041c-43c4-a44b-f79aada87cf9",
        "timeAdded" : "20210105T202515.160503"
      }
    },
    {
      "id" : 21,
      "src" : "C:\\ProgramData\\TechSmith\\Camtasia Studio 19\\Library 4.0\\User Libraries\\K8s\\start.asset\\wave2.png",
      "rect" : [0, 0, 1906, 341],
      "lastMod" : "20210105T163731",
      "sourceTracks" : [
        {
          "range" : [0, 1],
          "type" : 1,
          "editRate" : 10000000,
          "trackRect" : [0, 0, 1906, 341],
          "sampleRate" : 0,
          "bitDepth" : 24,
          "numChannels" : 0,
          "integratedLUFS" : 100.0,
          "peakLevel" : -1.0,
          "metaData" : ""
        }
      ],
      "metadata" : {
        "assetLibraryId" : "75d65985-041c-43c4-a44b-f79aada87cf9",
        "timeAdded" : "20210105T202515.160503"
      }
    },
    {
      "id" : 22,
      "src" : "C:\\ProgramData\\TechSmith\\Camtasia Studio 19\\Library 4.0\\User Libraries\\K8s\\start.asset\\wave3.png",
      "rect" : [0, 0, 1903, 380],
      "lastMod" : "20210105T163725",
      "sourceTracks" : [
        {
          "range" : [0, 1],
          "type" : 1,
          "editRate" : 10000000,
          "trackRect" : [0, 0, 1903, 380],
          "sampleRate" : 0,
          "bitDepth" : 24,
          "numChannels" : 0,
          "integratedLUFS" : 100.0,
          "peakLevel" : -1.0,
          "metaData" : ""
        }
      ],
      "metadata" : {
        "assetLibraryId" : "75d65985-041c-43c4-a44b-f79aada87cf9",
        "timeAdded" : "20210105T202515.160503"
      }
    },
    {
      "id" : 23,
      "src" : "C:\\ProgramData\\TechSmith\\Camtasia Studio 19\\Library 4.0\\User Libraries\\K8s\\start.asset\\control-plane-128.png",
      "rect" : [0, 0, 128, 128],
      "lastMod" : "20201224T160827",
      "sourceTracks" : [
        {
          "range" : [0, 1],
          "type" : 1,
          "editRate" : 10000000,
          "trackRect" : [0, 0, 128, 128],
          "sampleRate" : 0,
          "bitDepth" : 32,
          "numChannels" : 0,
          "integratedLUFS" : 100.0,
          "peakLevel" : -1.0,
          "metaData" : ""
        }
      ],
      "metadata" : {
        "assetLibraryId" : "75d65985-041c-43c4-a44b-f79aada87cf9",
        "timeAdded" : "20210105T202515.160503"
      }
    },
    {
      "id" : 24,
      "src" : "C:\\ProgramData\\TechSmith\\Camtasia Studio 19\\Library 4.0\\User Libraries\\K8s\\start.asset\\etcd-128.png",
      "rect" : [0, 0, 128, 128],
      "lastMod" : "20201224T160827",
      "sourceTracks" : [
        {
          "range" : [0, 1],
          "type" : 1,
          "editRate" : 10000000,
          "trackRect" : [0, 0, 128, 128],
          "sampleRate" : 0,
          "bitDepth" : 32,
          "numChannels" : 0,
          "integratedLUFS" : 100.0,
          "peakLevel" : -1.0,
          "metaData" : ""
        }
      ],
      "metadata" : {
        "assetLibraryId" : "75d65985-041c-43c4-a44b-f79aada87cf9",
        "timeAdded" : "20210105T202515.160503"
      }
    },
    {
      "id" : 25,
      "src" : "C:\\ProgramData\\TechSmith\\Camtasia Studio 19\\Library 4.0\\User Libraries\\K8s\\start.asset\\node-128.png",
      "rect" : [0, 0, 128, 128],
      "lastMod" : "20201224T160827",
      "sourceTracks" : [
        {
          "range" : [0, 1],
          "type" : 1,
          "editRate" : 10000000,
          "trackRect" : [0, 0, 128, 128],
          "sampleRate" : 0,
          "bitDepth" : 32,
          "numChannels" : 0,
          "integratedLUFS" : 100.0,
          "peakLevel" : -1.0,
          "metaData" : ""
        }
      ],
      "metadata" : {
        "assetLibraryId" : "75d65985-041c-43c4-a44b-f79aada87cf9",
        "timeAdded" : "20210105T202515.160503"
      }
    },
    {
      "id" : 26,
      "src" : "C:\\ProgramData\\TechSmith\\Camtasia Studio 19\\Library 4.0\\User Libraries\\K8s\\start.asset\\ns-128.png",
      "rect" : [0, 0, 128, 128],
      "lastMod" : "20201224T160827",
      "sourceTracks" : [
        {
          "range" : [0, 1],
          "type" : 1,
          "editRate" : 10000000,
          "trackRect" : [0, 0, 128, 128],
          "sampleRate" : 0,
          "bitDepth" : 32,
          "numChannels" : 0,
          "integratedLUFS" : 100.0,
          "peakLevel" : -1.0,
          "metaData" : ""
        }
      ],
      "metadata" : {
        "assetLibraryId" : "75d65985-041c-43c4-a44b-f79aada87cf9",
        "timeAdded" : "20210105T202515.160503"
      }
    },
    {
      "id" : 27,
      "src" : "C:\\ProgramData\\TechSmith\\Camtasia Studio 19\\Library 4.0\\User Libraries\\K8s\\start.asset\\pod-128.png",
      "rect" : [0, 0, 128, 128],
      "lastMod" : "20201224T160827",
      "sourceTracks" : [
        {
          "range" : [0, 1],
          "type" : 1,
          "editRate" : 10000000,
          "trackRect" : [0, 0, 128, 128],
          "sampleRate" : 0,
          "bitDepth" : 32,
          "numChannels" : 0,
          "integratedLUFS" : 100.0,
          "peakLevel" : -1.0,
          "metaData" : ""
        }
      ],
      "metadata" : {
        "assetLibraryId" : "75d65985-041c-43c4-a44b-f79aada87cf9",
        "timeAdded" : "20210105T202515.160503"
      }
    },
    {
      "id" : 28,
      "src" : "C:\\ProgramData\\TechSmith\\Camtasia Studio 19\\Library 4.0\\User Libraries\\K8s\\start.asset\\secret-128.png",
      "rect" : [0, 0, 128, 128],
      "lastMod" : "20201224T160827",
      "sourceTracks" : [
        {
          "range" : [0, 1],
          "type" : 1,
          "editRate" : 10000000,
          "trackRect" : [0, 0, 128, 128],
          "sampleRate" : 0,
          "bitDepth" : 32,
          "numChannels" : 0,
          "integratedLUFS" : 100.0,
          "peakLevel" : -1.0,
          "metaData" : ""
        }
      ],
      "metadata" : {
        "assetLibraryId" : "75d65985-041c-43c4-a44b-f79aada87cf9",
        "timeAdded" : "20210105T202515.160503"
      }
    },
    {
      "id" : 29,
      "src" : "C:\\ProgramData\\TechSmith\\Camtasia Studio 19\\Library 4.0\\User Libraries\\K8s\\start.asset\\svc-128.png",
      "rect" : [0, 0, 128, 128],
      "lastMod" : "20201224T160827",
      "sourceTracks" : [
        {
          "range" : [0, 1],
          "type" : 1,
          "editRate" : 10000000,
          "trackRect" : [0, 0, 128, 128],
          "sampleRate" : 0,
          "bitDepth" : 32,
          "numChannels" : 0,
          "integratedLUFS" : 100.0,
          "peakLevel" : -1.0,
          "metaData" : ""
        }
      ],
      "metadata" : {
        "assetLibraryId" : "75d65985-041c-43c4-a44b-f79aada87cf9",
        "timeAdded" : "20210105T202515.160503"
      }
    },
    {
      "id" : 30,
      "src" : "C:\\ProgramData\\TechSmith\\Camtasia Studio 19\\Library 4.0\\User Libraries\\K8s\\start.asset\\rs-128.png",
      "rect" : [0, 0, 128, 128],
      "lastMod" : "20201224T160827",
      "sourceTracks" : [
        {
          "range" : [0, 1],
          "type" : 1,
          "editRate" : 10000000,
          "trackRect" : [0, 0, 128, 128],
          "sampleRate" : 0,
          "bitDepth" : 32,
          "numChannels" : 0,
          "integratedLUFS" : 100.0,
          "peakLevel" : -1.0,
          "metaData" : ""
        }
      ],
      "metadata" : {
        "assetLibraryId" : "75d65985-041c-43c4-a44b-f79aada87cf9",
        "timeAdded" : "20210105T202515.160503"
      }
    },
    {
      "id" : 31,
      "src" : "C:\\ProgramData\\TechSmith\\Camtasia Studio 19\\Library 4.0\\User Libraries\\K8s\\start.asset\\vol-128.png",
      "rect" : [0, 0, 128, 128],
      "lastMod" : "20201224T160827",
      "sourceTracks" : [
        {
          "range" : [0, 1],
          "type" : 1,
          "editRate" : 10000000,
          "trackRect" : [0, 0, 128, 128],
          "sampleRate" : 0,
          "bitDepth" : 32,
          "numChannels" : 0,
          "integratedLUFS" : 100.0,
          "peakLevel" : -1.0,
          "metaData" : ""
        }
      ],
      "metadata" : {
        "assetLibraryId" : "75d65985-041c-43c4-a44b-f79aada87cf9",
        "timeAdded" : "20210105T202515.160503"
      }
    },
    {
      "id" : 32,
      "src" : "C:\\ProgramData\\TechSmith\\Camtasia Studio 19\\Library 4.0\\User Libraries\\K8s\\start.asset\\deploy-128.png",
      "rect" : [0, 0, 128, 128],
      "lastMod" : "20201224T160827",
      "sourceTracks" : [
        {
          "range" : [0, 1],
          "type" : 1,
          "editRate" : 10000000,
          "trackRect" : [0, 0, 128, 128],
          "sampleRate" : 0,
          "bitDepth" : 32,
          "numChannels" : 0,
          "integratedLUFS" : 100.0,
          "peakLevel" : -1.0,
          "metaData" : ""
        }
      ],
      "metadata" : {
        "assetLibraryId" : "75d65985-041c-43c4-a44b-f79aada87cf9",
        "timeAdded" : "20210105T202515.160503"
      }
    },
    {
      "id" : 33,
      "src" : "C:\\ProgramData\\TechSmith\\Camtasia Studio 19\\Library 4.0\\User Libraries\\K8s\\start.asset\\cronjob-128.png",
      "rect" : [0, 0, 128, 128],
      "lastMod" : "20201224T160827",
      "sourceTracks" : [
        {
          "range" : [0, 1],
          "type" : 1,
          "editRate" : 10000000,
          "trackRect" : [0, 0, 128, 128],
          "sampleRate" : 0,
          "bitDepth" : 32,
          "numChannels" : 0,
          "integratedLUFS" : 100.0,
          "peakLevel" : -1.0,
          "metaData" : ""
        }
      ],
      "metadata" : {
        "assetLibraryId" : "75d65985-041c-43c4-a44b-f79aada87cf9",
        "timeAdded" : "20210105T202515.160503"
      }
    },
    {
      "id" : 34,
      "src" : "C:\\ProgramData\\TechSmith\\Camtasia Studio 19\\Library 4.0\\User Libraries\\K8s\\start.asset\\k8sfavicon.png",
      "rect" : [0, 0, 512, 512],
      "lastMod" : "20210105T165021",
      "sourceTracks" : [
        {
          "range" : [0, 1],
          "type" : 1,
          "editRate" : 10000000,
          "trackRect" : [0, 0, 512, 512],
          "sampleRate" : 0,
          "bitDepth" : 32,
          "numChannels" : 0,
          "integratedLUFS" : 100.0,
          "peakLevel" : -1.0,
          "metaData" : ""
        }
      ],
      "metadata" : {
        "assetLibraryId" : "75d65985-041c-43c4-a44b-f79aada87cf9",
        "timeAdded" : "20210105T202515.160503"
      }
    },
    {
      "id" : 35,
      "src" : "C:\\ProgramData\\TechSmith\\Camtasia Studio 19\\Library 4.0\\User Libraries\\K8s\\start.asset\\wave.mp3",
      "rect" : [0, 0, 0, 0],
      "lastMod" : "20210105T195352",
      "sourceTracks" : [
        {
          "range" : [0, 185467500],
          "type" : 2,
          "editRate" : 10000000,
          "trackRect" : [0, 0, 0, 0],
          "sampleRate" : 44100,
          "bitDepth" : 0,
          "numChannels" : 2,
          "integratedLUFS" : -16.6955131625049,
          "peakLevel" : 0.940275430679321,
          "metaData" : ""
        }
      ],
      "metadata" : {
        "assetLibraryId" : "75d65985-041c-43c4-a44b-f79aada87cf9",
        "timeAdded" : "20210105T202515.160503"
      }
    }
  ],
  "timeline" : {
    "id" : 36,
    "sceneTrack" : {
      "scenes" : [
        {
          "duration" : 104.233333333333,
          "title" : "",
          "type" : "",
          "csml" : {
            "tracks" : [
              {
                "trackIndex" : 0,
                "medias" : [
                  {
                    "id" : 37,
                    "_type" : "Group",
                    "parameters" : {
                      "translation0" : {
                        "type" : "double",
                        "defaultValue" : 0.0,
                        "keyframes" : [
                          {
                            "endTime" : 82,
                            "time" : 21,
                            "value" : 419.00000000032,
                            "duration" : 61
                          }
                        ]
                      },
                      "translation1" : {
                        "type" : "double",
                        "defaultValue" : 0.0,
                        "keyframes" : [
                          {
                            "endTime" : 82,
                            "time" : 21,
                            "value" : -235.68750000018,
                            "duration" : 61
                          }
                        ]
                      },
                      "scale0" : {
                        "type" : "double",
                        "defaultValue" : 1.0,
                        "keyframes" : [
                          {
                            "endTime" : 82,
                            "time" : 21,
                            "value" : 1.43645833333367,
                            "duration" : 61
                          }
                        ]
                      },
                      "scale1" : {
                        "type" : "double",
                        "defaultValue" : 1.0,
                        "keyframes" : [
                          {
                            "endTime" : 82,
                            "time" : 21,
                            "value" : 1.43645833333367,
                            "duration" : 61
                          }
                        ]
                      },
                      "volume" : 1.0
                    },
                    "tracks" : [
                      {
                        "trackIndex" : 0,
                        "medias" : [
                          {
                            "id" : 38,
                            "_type" : "StitchedMedia",
                            "minMediaStart" : 0,
                            "attributes" : {
                              "ident" : "Rec 01-04-21_002",
                              "gain" : 1.0,
                              "mixToMono" : false
                            },
                            "parameters" : {
                              "volume" : 1.0,
                              "cursorOpacity" : 1.0,
                              "cursorScale" : 1.0
                            },
                            "medias" : [
                                {
                                  "id" : 39,
                                  "_type" : "UnifiedMedia",
                                  "video" : 
                                      {
                                        "id" : 40,
                                        "_type" : "ScreenVMFile",
                                        "src" : 1,
                                        "trackNumber" : 0,
                                        "attributes" : {
                                          "ident" : "Rec 01-04-21_002"
                                        },
                                        "parameters" : {
                                          "cursorScale" : {
                                            "type" : "double",
                                            "defaultValue" : 0.0,
                                            "interp" : "linr"
                                          },
                                          "cursorOpacity" : {
                                            "type" : "double",
                                            "defaultValue" : 0.0,
                                            "interp" : "linr"
                                          }
                                        },
                                        "effects" : [

                                        ],
                                        "start" : 0,
                                        "duration" : 126,
                                        "mediaStart" : 0,
                                        "mediaDuration" : 126,
                                        "scalar" : 1,
                                        "animationTracks" : {

                                        }
                                      },
                                  "audio" : 
                                      {
                                        "id" : 41,
                                        "_type" : "AMFile",
                                        "src" : 1,
                                        "trackNumber" : 1,
                                        "attributes" : {
                                          "ident" : "",
                                          "gain" : 1.0,
                                          "mixToMono" : false
                                        },
                                          "channelNumber" : "0,1",
                                        "effects" : [

                                        ],
                                        "start" : 0,
                                        "duration" : 126,
                                        "mediaStart" : 0,
                                        "mediaDuration" : 126,
                                        "scalar" : 1,
                                        "animationTracks" : {

                                        }
                                      }
,
                                  "start" : 0,
                                  "duration" : 126,
                                  "mediaStart" : 0,
                                  "mediaDuration" : 4006,
                                  "scalar" : 1,
                                  "metadata" : {
                                    "AutoAppliedSmartFocus" : "False",
                                    "clipSpeedAttribute" : false
                                  }
                                },
                                {
                                  "id" : 42,
                                  "_type" : "UnifiedMedia",
                                  "video" : 
                                      {
                                        "id" : 43,
                                        "_type" : "ScreenVMFile",
                                        "src" : 1,
                                        "trackNumber" : 0,
                                        "attributes" : {
                                          "ident" : "Rec 01-04-21_002"
                                        },
                                        "parameters" : {
                                          "cursorScale" : {
                                            "type" : "double",
                                            "defaultValue" : 0.0,
                                            "interp" : "linr"
                                          },
                                          "cursorOpacity" : {
                                            "type" : "double",
                                            "defaultValue" : 0.0,
                                            "interp" : "linr"
                                          }
                                        },
                                        "effects" : [

                                        ],
                                        "start" : 126,
                                        "duration" : 4,
                                        "mediaStart" : 182,
                                        "mediaDuration" : 4,
                                        "scalar" : 1,
                                        "animationTracks" : {

                                        }
                                      },
                                  "audio" : 
                                      {
                                        "id" : 44,
                                        "_type" : "AMFile",
                                        "src" : 1,
                                        "trackNumber" : 1,
                                        "attributes" : {
                                          "ident" : "",
                                          "gain" : 1.0,
                                          "mixToMono" : false
                                        },
                                          "channelNumber" : "0,1",
                                        "effects" : [

                                        ],
                                        "start" : 126,
                                        "duration" : 4,
                                        "mediaStart" : 182,
                                        "mediaDuration" : 4,
                                        "scalar" : 1,
                                        "animationTracks" : {

                                        }
                                      }
,
                                  "start" : 126,
                                  "duration" : 4,
                                  "mediaStart" : 0,
                                  "mediaDuration" : 4006,
                                  "scalar" : 1,
                                  "metadata" : {
                                    "AutoAppliedSmartFocus" : "False",
                                    "clipSpeedAttribute" : false
                                  }
                                },
                                {
                                  "id" : 45,
                                  "_type" : "UnifiedMedia",
                                  "video" : 
                                      {
                                        "id" : 46,
                                        "_type" : "ScreenVMFile",
                                        "src" : 1,
                                        "trackNumber" : 0,
                                        "attributes" : {
                                          "ident" : "Rec 01-04-21_002"
                                        },
                                        "parameters" : {
                                          "cursorScale" : {
                                            "type" : "double",
                                            "defaultValue" : 0.0,
                                            "interp" : "linr"
                                          },
                                          "cursorOpacity" : {
                                            "type" : "double",
                                            "defaultValue" : 0.0,
                                            "interp" : "linr"
                                          }
                                        },
                                        "effects" : [

                                        ],
                                        "start" : 130,
                                        "duration" : 129,
                                        "mediaStart" : 206,
                                        "mediaDuration" : 129,
                                        "scalar" : 1,
                                        "animationTracks" : {

                                        }
                                      },
                                  "audio" : 
                                      {
                                        "id" : 47,
                                        "_type" : "AMFile",
                                        "src" : 1,
                                        "trackNumber" : 1,
                                        "attributes" : {
                                          "ident" : "",
                                          "gain" : 1.0,
                                          "mixToMono" : false
                                        },
                                          "channelNumber" : "0,1",
                                        "effects" : [

                                        ],
                                        "start" : 130,
                                        "duration" : 129,
                                        "mediaStart" : 206,
                                        "mediaDuration" : 129,
                                        "scalar" : 1,
                                        "animationTracks" : {

                                        }
                                      }
,
                                  "start" : 130,
                                  "duration" : 129,
                                  "mediaStart" : 0,
                                  "mediaDuration" : 4006,
                                  "scalar" : 1,
                                  "metadata" : {
                                    "AutoAppliedSmartFocus" : "False",
                                    "clipSpeedAttribute" : false
                                  }
                                },
                                {
                                  "id" : 48,
                                  "_type" : "UnifiedMedia",
                                  "video" : 
                                      {
                                        "id" : 49,
                                        "_type" : "ScreenVMFile",
                                        "src" : 1,
                                        "trackNumber" : 0,
                                        "attributes" : {
                                          "ident" : "Rec 01-04-21_002"
                                        },
                                        "parameters" : {
                                          "cursorScale" : {
                                            "type" : "double",
                                            "defaultValue" : 0.0,
                                            "interp" : "linr"
                                          },
                                          "cursorOpacity" : {
                                            "type" : "double",
                                            "defaultValue" : 0.0,
                                            "interp" : "linr"
                                          }
                                        },
                                        "effects" : [

                                        ],
                                        "start" : 259,
                                        "duration" : 250,
                                        "mediaStart" : 445,
                                        "mediaDuration" : 250,
                                        "scalar" : 1,
                                        "animationTracks" : {

                                        }
                                      },
                                  "audio" : 
                                      {
                                        "id" : 50,
                                        "_type" : "AMFile",
                                        "src" : 1,
                                        "trackNumber" : 1,
                                        "attributes" : {
                                          "ident" : "",
                                          "gain" : 1.0,
                                          "mixToMono" : false
                                        },
                                          "channelNumber" : "0,1",
                                        "effects" : [

                                        ],
                                        "start" : 259,
                                        "duration" : 250,
                                        "mediaStart" : 445,
                                        "mediaDuration" : 250,
                                        "scalar" : 1,
                                        "animationTracks" : {

                                        }
                                      }
,
                                  "start" : 259,
                                  "duration" : 250,
                                  "mediaStart" : 0,
                                  "mediaDuration" : 4006,
                                  "scalar" : 1,
                                  "metadata" : {
                                    "AutoAppliedSmartFocus" : "False",
                                    "clipSpeedAttribute" : false
                                  }
                                },
                                {
                                  "id" : 51,
                                  "_type" : "UnifiedMedia",
                                  "video" : 
                                      {
                                        "id" : 52,
                                        "_type" : "ScreenVMFile",
                                        "src" : 1,
                                        "trackNumber" : 0,
                                        "attributes" : {
                                          "ident" : "Rec 01-04-21_002"
                                        },
                                        "parameters" : {
                                          "cursorScale" : {
                                            "type" : "double",
                                            "defaultValue" : 0.0,
                                            "interp" : "linr"
                                          },
                                          "cursorOpacity" : {
                                            "type" : "double",
                                            "defaultValue" : 0.0,
                                            "interp" : "linr"
                                          }
                                        },
                                        "effects" : [

                                        ],
                                        "start" : 509,
                                        "duration" : 4,
                                        "mediaStart" : 751,
                                        "mediaDuration" : 4,
                                        "scalar" : 1,
                                        "animationTracks" : {

                                        }
                                      },
                                  "audio" : 
                                      {
                                        "id" : 53,
                                        "_type" : "AMFile",
                                        "src" : 1,
                                        "trackNumber" : 1,
                                        "attributes" : {
                                          "ident" : "",
                                          "gain" : 1.0,
                                          "mixToMono" : false
                                        },
                                          "channelNumber" : "0,1",
                                        "effects" : [

                                        ],
                                        "start" : 509,
                                        "duration" : 4,
                                        "mediaStart" : 751,
                                        "mediaDuration" : 4,
                                        "scalar" : 1,
                                        "animationTracks" : {

                                        }
                                      }
,
                                  "start" : 509,
                                  "duration" : 4,
                                  "mediaStart" : 0,
                                  "mediaDuration" : 4006,
                                  "scalar" : 1,
                                  "metadata" : {
                                    "AutoAppliedSmartFocus" : "False",
                                    "clipSpeedAttribute" : false
                                  }
                                },
                                {
                                  "id" : 54,
                                  "_type" : "UnifiedMedia",
                                  "video" : 
                                      {
                                        "id" : 55,
                                        "_type" : "ScreenVMFile",
                                        "src" : 1,
                                        "trackNumber" : 0,
                                        "attributes" : {
                                          "ident" : "Rec 01-04-21_002"
                                        },
                                        "parameters" : {
                                          "cursorScale" : {
                                            "type" : "double",
                                            "defaultValue" : 0.0,
                                            "interp" : "linr"
                                          },
                                          "cursorOpacity" : {
                                            "type" : "double",
                                            "defaultValue" : 0.0,
                                            "interp" : "linr"
                                          }
                                        },
                                        "effects" : [

                                        ],
                                        "start" : 513,
                                        "duration" : 84,
                                        "mediaStart" : 782,
                                        "mediaDuration" : 84,
                                        "scalar" : 1,
                                        "animationTracks" : {

                                        }
                                      },
                                  "audio" : 
                                      {
                                        "id" : 56,
                                        "_type" : "AMFile",
                                        "src" : 1,
                                        "trackNumber" : 1,
                                        "attributes" : {
                                          "ident" : "",
                                          "gain" : 1.0,
                                          "mixToMono" : false
                                        },
                                          "channelNumber" : "0,1",
                                        "effects" : [

                                        ],
                                        "start" : 513,
                                        "duration" : 84,
                                        "mediaStart" : 782,
                                        "mediaDuration" : 84,
                                        "scalar" : 1,
                                        "animationTracks" : {

                                        }
                                      }
,
                                  "start" : 513,
                                  "duration" : 84,
                                  "mediaStart" : 0,
                                  "mediaDuration" : 4006,
                                  "scalar" : 1,
                                  "metadata" : {
                                    "AutoAppliedSmartFocus" : "False",
                                    "clipSpeedAttribute" : false
                                  }
                                },
                                {
                                  "id" : 57,
                                  "_type" : "UnifiedMedia",
                                  "video" : 
                                      {
                                        "id" : 58,
                                        "_type" : "ScreenVMFile",
                                        "src" : 1,
                                        "trackNumber" : 0,
                                        "attributes" : {
                                          "ident" : "Rec 01-04-21_002"
                                        },
                                        "parameters" : {
                                          "cursorScale" : {
                                            "type" : "double",
                                            "defaultValue" : 0.0,
                                            "interp" : "linr"
                                          },
                                          "cursorOpacity" : {
                                            "type" : "double",
                                            "defaultValue" : 0.0,
                                            "interp" : "linr"
                                          }
                                        },
                                        "effects" : [

                                        ],
                                        "start" : 597,
                                        "duration" : 454,
                                        "mediaStart" : 889,
                                        "mediaDuration" : 454,
                                        "scalar" : 1,
                                        "animationTracks" : {

                                        }
                                      },
                                  "audio" : 
                                      {
                                        "id" : 59,
                                        "_type" : "AMFile",
                                        "src" : 1,
                                        "trackNumber" : 1,
                                        "attributes" : {
                                          "ident" : "",
                                          "gain" : 1.0,
                                          "mixToMono" : false
                                        },
                                          "channelNumber" : "0,1",
                                        "effects" : [

                                        ],
                                        "start" : 597,
                                        "duration" : 454,
                                        "mediaStart" : 889,
                                        "mediaDuration" : 454,
                                        "scalar" : 1,
                                        "animationTracks" : {

                                        }
                                      }
,
                                  "start" : 597,
                                  "duration" : 454,
                                  "mediaStart" : 0,
                                  "mediaDuration" : 4006,
                                  "scalar" : 1,
                                  "metadata" : {
                                    "AutoAppliedSmartFocus" : "False",
                                    "clipSpeedAttribute" : false
                                  }
                                },
                                {
                                  "id" : 60,
                                  "_type" : "UnifiedMedia",
                                  "video" : 
                                      {
                                        "id" : 61,
                                        "_type" : "ScreenVMFile",
                                        "src" : 1,
                                        "trackNumber" : 0,
                                        "attributes" : {
                                          "ident" : "Rec 01-04-21_002"
                                        },
                                        "parameters" : {
                                          "cursorScale" : {
                                            "type" : "double",
                                            "defaultValue" : 0.0,
                                            "interp" : "linr"
                                          },
                                          "cursorOpacity" : {
                                            "type" : "double",
                                            "defaultValue" : 0.0,
                                            "interp" : "linr"
                                          }
                                        },
                                        "effects" : [

                                        ],
                                        "start" : 1051,
                                        "duration" : 212,
                                        "mediaStart" : 1382,
                                        "mediaDuration" : 212,
                                        "scalar" : 1,
                                        "animationTracks" : {

                                        }
                                      },
                                  "audio" : 
                                      {
                                        "id" : 62,
                                        "_type" : "AMFile",
                                        "src" : 1,
                                        "trackNumber" : 1,
                                        "attributes" : {
                                          "ident" : "",
                                          "gain" : 1.0,
                                          "mixToMono" : false
                                        },
                                          "channelNumber" : "0,1",
                                        "effects" : [

                                        ],
                                        "start" : 1051,
                                        "duration" : 212,
                                        "mediaStart" : 1382,
                                        "mediaDuration" : 212,
                                        "scalar" : 1,
                                        "animationTracks" : {

                                        }
                                      }
,
                                  "start" : 1051,
                                  "duration" : 212,
                                  "mediaStart" : 0,
                                  "mediaDuration" : 4006,
                                  "scalar" : 1,
                                  "metadata" : {
                                    "AutoAppliedSmartFocus" : "False",
                                    "clipSpeedAttribute" : false
                                  }
                                },
                                {
                                  "id" : 63,
                                  "_type" : "UnifiedMedia",
                                  "video" : 
                                      {
                                        "id" : 64,
                                        "_type" : "ScreenVMFile",
                                        "src" : 1,
                                        "trackNumber" : 0,
                                        "attributes" : {
                                          "ident" : "Rec 01-04-21_002"
                                        },
                                        "parameters" : {
                                          "cursorScale" : {
                                            "type" : "double",
                                            "defaultValue" : 0.0,
                                            "interp" : "linr"
                                          },
                                          "cursorOpacity" : {
                                            "type" : "double",
                                            "defaultValue" : 0.0,
                                            "interp" : "linr"
                                          }
                                        },
                                        "effects" : [

                                        ],
                                        "start" : 1263,
                                        "duration" : 123,
                                        "mediaStart" : 1762,
                                        "mediaDuration" : 123,
                                        "scalar" : 1,
                                        "animationTracks" : {

                                        }
                                      },
                                  "audio" : 
                                      {
                                        "id" : 65,
                                        "_type" : "AMFile",
                                        "src" : 1,
                                        "trackNumber" : 1,
                                        "attributes" : {
                                          "ident" : "",
                                          "gain" : 1.0,
                                          "mixToMono" : false
                                        },
                                          "channelNumber" : "0,1",
                                        "effects" : [

                                        ],
                                        "start" : 1263,
                                        "duration" : 123,
                                        "mediaStart" : 1762,
                                        "mediaDuration" : 123,
                                        "scalar" : 1,
                                        "animationTracks" : {

                                        }
                                      }
,
                                  "start" : 1263,
                                  "duration" : 123,
                                  "mediaStart" : 0,
                                  "mediaDuration" : 4006,
                                  "scalar" : 1,
                                  "metadata" : {
                                    "AutoAppliedSmartFocus" : "False",
                                    "clipSpeedAttribute" : false
                                  }
                                },
                                {
                                  "id" : 66,
                                  "_type" : "UnifiedMedia",
                                  "video" : 
                                      {
                                        "id" : 67,
                                        "_type" : "ScreenVMFile",
                                        "src" : 1,
                                        "trackNumber" : 0,
                                        "attributes" : {
                                          "ident" : "Rec 01-04-21_002"
                                        },
                                        "parameters" : {
                                          "cursorScale" : {
                                            "type" : "double",
                                            "defaultValue" : 0.0,
                                            "interp" : "linr"
                                          },
                                          "cursorOpacity" : {
                                            "type" : "double",
                                            "defaultValue" : 0.0,
                                            "interp" : "linr"
                                          }
                                        },
                                        "effects" : [

                                        ],
                                        "start" : 1386,
                                        "duration" : 116,
                                        "mediaStart" : 1903,
                                        "mediaDuration" : 116,
                                        "scalar" : 1,
                                        "animationTracks" : {

                                        }
                                      },
                                  "audio" : 
                                      {
                                        "id" : 68,
                                        "_type" : "AMFile",
                                        "src" : 1,
                                        "trackNumber" : 1,
                                        "attributes" : {
                                          "ident" : "",
                                          "gain" : 1.0,
                                          "mixToMono" : false
                                        },
                                          "channelNumber" : "0,1",
                                        "effects" : [

                                        ],
                                        "start" : 1386,
                                        "duration" : 116,
                                        "mediaStart" : 1903,
                                        "mediaDuration" : 116,
                                        "scalar" : 1,
                                        "animationTracks" : {

                                        }
                                      }
,
                                  "start" : 1386,
                                  "duration" : 116,
                                  "mediaStart" : 0,
                                  "mediaDuration" : 4006,
                                  "scalar" : 1,
                                  "metadata" : {
                                    "AutoAppliedSmartFocus" : "False",
                                    "clipSpeedAttribute" : false
                                  }
                                },
                                {
                                  "id" : 69,
                                  "_type" : "UnifiedMedia",
                                  "video" : 
                                      {
                                        "id" : 70,
                                        "_type" : "ScreenVMFile",
                                        "src" : 1,
                                        "trackNumber" : 0,
                                        "attributes" : {
                                          "ident" : "Rec 01-04-21_002"
                                        },
                                        "parameters" : {
                                          "cursorScale" : {
                                            "type" : "double",
                                            "defaultValue" : 0.0,
                                            "interp" : "linr"
                                          },
                                          "cursorOpacity" : {
                                            "type" : "double",
                                            "defaultValue" : 0.0,
                                            "interp" : "linr"
                                          }
                                        },
                                        "effects" : [

                                        ],
                                        "start" : 1502,
                                        "duration" : 75,
                                        "mediaStart" : 2066,
                                        "mediaDuration" : 75,
                                        "scalar" : 1,
                                        "animationTracks" : {

                                        }
                                      },
                                  "audio" : 
                                      {
                                        "id" : 71,
                                        "_type" : "AMFile",
                                        "src" : 1,
                                        "trackNumber" : 1,
                                        "attributes" : {
                                          "ident" : "",
                                          "gain" : 1.0,
                                          "mixToMono" : false
                                        },
                                          "channelNumber" : "0,1",
                                        "effects" : [

                                        ],
                                        "start" : 1502,
                                        "duration" : 75,
                                        "mediaStart" : 2066,
                                        "mediaDuration" : 75,
                                        "scalar" : 1,
                                        "animationTracks" : {

                                        }
                                      }
,
                                  "start" : 1502,
                                  "duration" : 75,
                                  "mediaStart" : 0,
                                  "mediaDuration" : 4006,
                                  "scalar" : 1,
                                  "metadata" : {
                                    "AutoAppliedSmartFocus" : "False",
                                    "clipSpeedAttribute" : false
                                  }
                                },
                                {
                                  "id" : 72,
                                  "_type" : "UnifiedMedia",
                                  "video" : 
                                      {
                                        "id" : 73,
                                        "_type" : "ScreenVMFile",
                                        "src" : 1,
                                        "trackNumber" : 0,
                                        "attributes" : {
                                          "ident" : "Rec 01-04-21_002"
                                        },
                                        "parameters" : {
                                          "cursorScale" : {
                                            "type" : "double",
                                            "defaultValue" : 0.0,
                                            "interp" : "linr"
                                          },
                                          "cursorOpacity" : {
                                            "type" : "double",
                                            "defaultValue" : 0.0,
                                            "interp" : "linr"
                                          }
                                        },
                                        "effects" : [

                                        ],
                                        "start" : 1577,
                                        "duration" : 54,
                                        "mediaStart" : 2159,
                                        "mediaDuration" : 54,
                                        "scalar" : 1,
                                        "animationTracks" : {

                                        }
                                      },
                                  "audio" : 
                                      {
                                        "id" : 74,
                                        "_type" : "AMFile",
                                        "src" : 1,
                                        "trackNumber" : 1,
                                        "attributes" : {
                                          "ident" : "",
                                          "gain" : 1.0,
                                          "mixToMono" : false
                                        },
                                          "channelNumber" : "0,1",
                                        "effects" : [

                                        ],
                                        "start" : 1577,
                                        "duration" : 54,
                                        "mediaStart" : 2159,
                                        "mediaDuration" : 54,
                                        "scalar" : 1,
                                        "animationTracks" : {

                                        }
                                      }
,
                                  "start" : 1577,
                                  "duration" : 54,
                                  "mediaStart" : 0,
                                  "mediaDuration" : 4006,
                                  "scalar" : 1,
                                  "metadata" : {
                                    "AutoAppliedSmartFocus" : "False",
                                    "clipSpeedAttribute" : false
                                  }
                                },
                                {
                                  "id" : 75,
                                  "_type" : "UnifiedMedia",
                                  "video" : 
                                      {
                                        "id" : 76,
                                        "_type" : "ScreenVMFile",
                                        "src" : 1,
                                        "trackNumber" : 0,
                                        "attributes" : {
                                          "ident" : "Rec 01-04-21_002"
                                        },
                                        "parameters" : {
                                          "cursorScale" : {
                                            "type" : "double",
                                            "defaultValue" : 0.0,
                                            "interp" : "linr"
                                          },
                                          "cursorOpacity" : {
                                            "type" : "double",
                                            "defaultValue" : 0.0,
                                            "interp" : "linr"
                                          }
                                        },
                                        "effects" : [

                                        ],
                                        "start" : 1631,
                                        "duration" : 139,
                                        "mediaStart" : 2315,
                                        "mediaDuration" : 139,
                                        "scalar" : 1,
                                        "animationTracks" : {

                                        }
                                      },
                                  "audio" : 
                                      {
                                        "id" : 77,
                                        "_type" : "AMFile",
                                        "src" : 1,
                                        "trackNumber" : 1,
                                        "attributes" : {
                                          "ident" : "",
                                          "gain" : 1.0,
                                          "mixToMono" : false
                                        },
                                          "channelNumber" : "0,1",
                                        "effects" : [

                                        ],
                                        "start" : 1631,
                                        "duration" : 139,
                                        "mediaStart" : 2315,
                                        "mediaDuration" : 139,
                                        "scalar" : 1,
                                        "animationTracks" : {

                                        }
                                      }
,
                                  "start" : 1631,
                                  "duration" : 139,
                                  "mediaStart" : 0,
                                  "mediaDuration" : 4006,
                                  "scalar" : 1,
                                  "metadata" : {
                                    "AutoAppliedSmartFocus" : "False",
                                    "clipSpeedAttribute" : false
                                  }
                                },
                                {
                                  "id" : 78,
                                  "_type" : "UnifiedMedia",
                                  "video" : 
                                      {
                                        "id" : 79,
                                        "_type" : "ScreenVMFile",
                                        "src" : 1,
                                        "trackNumber" : 0,
                                        "attributes" : {
                                          "ident" : "Rec 01-04-21_002"
                                        },
                                        "parameters" : {
                                          "cursorScale" : {
                                            "type" : "double",
                                            "defaultValue" : 0.0,
                                            "interp" : "linr"
                                          },
                                          "cursorOpacity" : {
                                            "type" : "double",
                                            "defaultValue" : 0.0,
                                            "interp" : "linr"
                                          }
                                        },
                                        "effects" : [

                                        ],
                                        "start" : 1770,
                                        "duration" : 295,
                                        "mediaStart" : 2566,
                                        "mediaDuration" : 295,
                                        "scalar" : 1,
                                        "animationTracks" : {

                                        }
                                      },
                                  "audio" : 
                                      {
                                        "id" : 80,
                                        "_type" : "AMFile",
                                        "src" : 1,
                                        "trackNumber" : 1,
                                        "attributes" : {
                                          "ident" : "",
                                          "gain" : 1.0,
                                          "mixToMono" : false
                                        },
                                          "channelNumber" : "0,1",
                                        "effects" : [

                                        ],
                                        "start" : 1770,
                                        "duration" : 295,
                                        "mediaStart" : 2566,
                                        "mediaDuration" : 295,
                                        "scalar" : 1,
                                        "animationTracks" : {

                                        }
                                      }
,
                                  "start" : 1770,
                                  "duration" : 295,
                                  "mediaStart" : 0,
                                  "mediaDuration" : 4006,
                                  "scalar" : 1,
                                  "metadata" : {
                                    "AutoAppliedSmartFocus" : "False",
                                    "clipSpeedAttribute" : false
                                  }
                                },
                                {
                                  "id" : 81,
                                  "_type" : "UnifiedMedia",
                                  "video" : 
                                      {
                                        "id" : 82,
                                        "_type" : "ScreenVMFile",
                                        "src" : 1,
                                        "trackNumber" : 0,
                                        "attributes" : {
                                          "ident" : "Rec 01-04-21_002"
                                        },
                                        "parameters" : {
                                          "cursorScale" : {
                                            "type" : "double",
                                            "defaultValue" : 0.0,
                                            "interp" : "linr"
                                          },
                                          "cursorOpacity" : {
                                            "type" : "double",
                                            "defaultValue" : 0.0,
                                            "interp" : "linr"
                                          }
                                        },
                                        "effects" : [

                                        ],
                                        "start" : 2065,
                                        "duration" : 59,
                                        "mediaStart" : 2911,
                                        "mediaDuration" : 59,
                                        "scalar" : 1,
                                        "animationTracks" : {

                                        }
                                      },
                                  "audio" : 
                                      {
                                        "id" : 83,
                                        "_type" : "AMFile",
                                        "src" : 1,
                                        "trackNumber" : 1,
                                        "attributes" : {
                                          "ident" : "",
                                          "gain" : 1.0,
                                          "mixToMono" : false
                                        },
                                          "channelNumber" : "0,1",
                                        "effects" : [

                                        ],
                                        "start" : 2065,
                                        "duration" : 59,
                                        "mediaStart" : 2911,
                                        "mediaDuration" : 59,
                                        "scalar" : 1,
                                        "animationTracks" : {

                                        }
                                      }
,
                                  "start" : 2065,
                                  "duration" : 59,
                                  "mediaStart" : 0,
                                  "mediaDuration" : 4006,
                                  "scalar" : 1,
                                  "metadata" : {
                                    "AutoAppliedSmartFocus" : "False",
                                    "clipSpeedAttribute" : false
                                  }
                                },
                                {
                                  "id" : 84,
                                  "_type" : "UnifiedMedia",
                                  "video" : 
                                      {
                                        "id" : 85,
                                        "_type" : "ScreenVMFile",
                                        "src" : 1,
                                        "trackNumber" : 0,
                                        "attributes" : {
                                          "ident" : "Rec 01-04-21_002"
                                        },
                                        "parameters" : {
                                          "cursorScale" : {
                                            "type" : "double",
                                            "defaultValue" : 0.0,
                                            "interp" : "linr"
                                          },
                                          "cursorOpacity" : {
                                            "type" : "double",
                                            "defaultValue" : 0.0,
                                            "interp" : "linr"
                                          }
                                        },
                                        "effects" : [

                                        ],
                                        "start" : 2124,
                                        "duration" : 1025,
                                        "mediaStart" : 2981,
                                        "mediaDuration" : 1025,
                                        "scalar" : 1,
                                        "animationTracks" : {

                                        }
                                      },
                                  "audio" : 
                                      {
                                        "id" : 86,
                                        "_type" : "AMFile",
                                        "src" : 1,
                                        "trackNumber" : 1,
                                        "attributes" : {
                                          "ident" : "",
                                          "gain" : 1.0,
                                          "mixToMono" : false
                                        },
                                          "channelNumber" : "0,1",
                                        "effects" : [

                                        ],
                                        "start" : 2124,
                                        "duration" : 1025,
                                        "mediaStart" : 2981,
                                        "mediaDuration" : 1025,
                                        "scalar" : 1,
                                        "animationTracks" : {

                                        }
                                      }
,
                                  "start" : 2124,
                                  "duration" : 1025,
                                  "mediaStart" : 0,
                                  "mediaDuration" : 4006,
                                  "scalar" : 1,
                                  "metadata" : {
                                    "AutoAppliedSmartFocus" : "False",
                                    "clipSpeedAttribute" : false
                                  }
                                }
                            ],
                            "effects" : [

                            ],
                            "start" : 0,
                            "duration" : 2164,
                            "mediaStart" : 57,
                            "mediaDuration" : 2164,
                            "scalar" : 1,
                            "metadata" : {
                              "AutoAppliedSmartFocus" : "False",
                              "clipSpeedAttribute" : false
                            },
                            "animationTracks" : {

                            }
                          },
                          {
                            "id" : 87,
                            "_type" : "Group",
                            "parameters" : {
                              "volume" : 1.0
                            },
                            "tracks" : [
                              {
                                "trackIndex" : 0,
                                "medias" : [
                                  {
                                    "id" : 88,
                                    "_type" : "StitchedMedia",
                                    "minMediaStart" : 0,
                                    "attributes" : {
                                      "ident" : "Rec 01-04-21_002",
                                      "gain" : 1.0,
                                      "mixToMono" : false
                                    },
                                    "parameters" : {
                                      "cursorOpacity" : 1.0,
                                      "cursorScale" : 1.0
                                    },
                                    "medias" : [
                                        {
                                          "id" : 89,
                                          "_type" : "ScreenVMFile",
                                          "src" : 1,
                                          "trackNumber" : 0,
                                          "attributes" : {
                                            "ident" : "Rec 01-04-21_002"
                                          },
                                          "parameters" : {
                                            "cursorScale" : {
                                              "type" : "double",
                                              "defaultValue" : 0.0,
                                              "interp" : "linr"
                                            },
                                            "cursorOpacity" : {
                                              "type" : "double",
                                              "defaultValue" : 0.0,
                                              "interp" : "linr"
                                            }
                                          },
                                          "effects" : [

                                          ],
                                          "start" : 0,
                                          "duration" : 126,
                                          "mediaStart" : 0,
                                          "mediaDuration" : 126,
                                          "scalar" : 1,
                                          "metadata" : {
                                            "AutoAppliedSmartFocus" : "False"
                                          },
                                          "animationTracks" : {

                                          }
                                        },
                                        {
                                          "id" : 90,
                                          "_type" : "ScreenVMFile",
                                          "src" : 1,
                                          "trackNumber" : 0,
                                          "attributes" : {
                                            "ident" : "Rec 01-04-21_002"
                                          },
                                          "parameters" : {
                                            "cursorScale" : {
                                              "type" : "double",
                                              "defaultValue" : 0.0,
                                              "interp" : "linr"
                                            },
                                            "cursorOpacity" : {
                                              "type" : "double",
                                              "defaultValue" : 0.0,
                                              "interp" : "linr"
                                            }
                                          },
                                          "effects" : [

                                          ],
                                          "start" : 126,
                                          "duration" : 4,
                                          "mediaStart" : 182,
                                          "mediaDuration" : 4,
                                          "scalar" : 1,
                                          "metadata" : {
                                            "AutoAppliedSmartFocus" : "False"
                                          },
                                          "animationTracks" : {

                                          }
                                        },
                                        {
                                          "id" : 91,
                                          "_type" : "ScreenVMFile",
                                          "src" : 1,
                                          "trackNumber" : 0,
                                          "attributes" : {
                                            "ident" : "Rec 01-04-21_002"
                                          },
                                          "parameters" : {
                                            "cursorScale" : {
                                              "type" : "double",
                                              "defaultValue" : 0.0,
                                              "interp" : "linr"
                                            },
                                            "cursorOpacity" : {
                                              "type" : "double",
                                              "defaultValue" : 0.0,
                                              "interp" : "linr"
                                            }
                                          },
                                          "effects" : [

                                          ],
                                          "start" : 130,
                                          "duration" : 129,
                                          "mediaStart" : 206,
                                          "mediaDuration" : 129,
                                          "scalar" : 1,
                                          "metadata" : {
                                            "AutoAppliedSmartFocus" : "False"
                                          },
                                          "animationTracks" : {

                                          }
                                        },
                                        {
                                          "id" : 92,
                                          "_type" : "ScreenVMFile",
                                          "src" : 1,
                                          "trackNumber" : 0,
                                          "attributes" : {
                                            "ident" : "Rec 01-04-21_002"
                                          },
                                          "parameters" : {
                                            "cursorScale" : {
                                              "type" : "double",
                                              "defaultValue" : 0.0,
                                              "interp" : "linr"
                                            },
                                            "cursorOpacity" : {
                                              "type" : "double",
                                              "defaultValue" : 0.0,
                                              "interp" : "linr"
                                            }
                                          },
                                          "effects" : [

                                          ],
                                          "start" : 259,
                                          "duration" : 250,
                                          "mediaStart" : 445,
                                          "mediaDuration" : 250,
                                          "scalar" : 1,
                                          "metadata" : {
                                            "AutoAppliedSmartFocus" : "False"
                                          },
                                          "animationTracks" : {

                                          }
                                        },
                                        {
                                          "id" : 93,
                                          "_type" : "ScreenVMFile",
                                          "src" : 1,
                                          "trackNumber" : 0,
                                          "attributes" : {
                                            "ident" : "Rec 01-04-21_002"
                                          },
                                          "parameters" : {
                                            "cursorScale" : {
                                              "type" : "double",
                                              "defaultValue" : 0.0,
                                              "interp" : "linr"
                                            },
                                            "cursorOpacity" : {
                                              "type" : "double",
                                              "defaultValue" : 0.0,
                                              "interp" : "linr"
                                            }
                                          },
                                          "effects" : [

                                          ],
                                          "start" : 509,
                                          "duration" : 4,
                                          "mediaStart" : 751,
                                          "mediaDuration" : 4,
                                          "scalar" : 1,
                                          "metadata" : {
                                            "AutoAppliedSmartFocus" : "False"
                                          },
                                          "animationTracks" : {

                                          }
                                        },
                                        {
                                          "id" : 94,
                                          "_type" : "ScreenVMFile",
                                          "src" : 1,
                                          "trackNumber" : 0,
                                          "attributes" : {
                                            "ident" : "Rec 01-04-21_002"
                                          },
                                          "parameters" : {
                                            "cursorScale" : {
                                              "type" : "double",
                                              "defaultValue" : 0.0,
                                              "interp" : "linr"
                                            },
                                            "cursorOpacity" : {
                                              "type" : "double",
                                              "defaultValue" : 0.0,
                                              "interp" : "linr"
                                            }
                                          },
                                          "effects" : [

                                          ],
                                          "start" : 513,
                                          "duration" : 84,
                                          "mediaStart" : 782,
                                          "mediaDuration" : 84,
                                          "scalar" : 1,
                                          "metadata" : {
                                            "AutoAppliedSmartFocus" : "False"
                                          },
                                          "animationTracks" : {

                                          }
                                        },
                                        {
                                          "id" : 95,
                                          "_type" : "ScreenVMFile",
                                          "src" : 1,
                                          "trackNumber" : 0,
                                          "attributes" : {
                                            "ident" : "Rec 01-04-21_002"
                                          },
                                          "parameters" : {
                                            "cursorScale" : {
                                              "type" : "double",
                                              "defaultValue" : 0.0,
                                              "interp" : "linr"
                                            },
                                            "cursorOpacity" : {
                                              "type" : "double",
                                              "defaultValue" : 0.0,
                                              "interp" : "linr"
                                            }
                                          },
                                          "effects" : [

                                          ],
                                          "start" : 597,
                                          "duration" : 454,
                                          "mediaStart" : 889,
                                          "mediaDuration" : 454,
                                          "scalar" : 1,
                                          "metadata" : {
                                            "AutoAppliedSmartFocus" : "False"
                                          },
                                          "animationTracks" : {

                                          }
                                        },
                                        {
                                          "id" : 96,
                                          "_type" : "ScreenVMFile",
                                          "src" : 1,
                                          "trackNumber" : 0,
                                          "attributes" : {
                                            "ident" : "Rec 01-04-21_002"
                                          },
                                          "parameters" : {
                                            "cursorScale" : {
                                              "type" : "double",
                                              "defaultValue" : 0.0,
                                              "interp" : "linr"
                                            },
                                            "cursorOpacity" : {
                                              "type" : "double",
                                              "defaultValue" : 0.0,
                                              "interp" : "linr"
                                            }
                                          },
                                          "effects" : [

                                          ],
                                          "start" : 1051,
                                          "duration" : 212,
                                          "mediaStart" : 1382,
                                          "mediaDuration" : 212,
                                          "scalar" : 1,
                                          "metadata" : {
                                            "AutoAppliedSmartFocus" : "False"
                                          },
                                          "animationTracks" : {

                                          }
                                        },
                                        {
                                          "id" : 97,
                                          "_type" : "ScreenVMFile",
                                          "src" : 1,
                                          "trackNumber" : 0,
                                          "attributes" : {
                                            "ident" : "Rec 01-04-21_002"
                                          },
                                          "parameters" : {
                                            "cursorScale" : {
                                              "type" : "double",
                                              "defaultValue" : 0.0,
                                              "interp" : "linr"
                                            },
                                            "cursorOpacity" : {
                                              "type" : "double",
                                              "defaultValue" : 0.0,
                                              "interp" : "linr"
                                            }
                                          },
                                          "effects" : [

                                          ],
                                          "start" : 1263,
                                          "duration" : 123,
                                          "mediaStart" : 1762,
                                          "mediaDuration" : 123,
                                          "scalar" : 1,
                                          "metadata" : {
                                            "AutoAppliedSmartFocus" : "False"
                                          },
                                          "animationTracks" : {

                                          }
                                        },
                                        {
                                          "id" : 98,
                                          "_type" : "ScreenVMFile",
                                          "src" : 1,
                                          "trackNumber" : 0,
                                          "attributes" : {
                                            "ident" : "Rec 01-04-21_002"
                                          },
                                          "parameters" : {
                                            "cursorScale" : {
                                              "type" : "double",
                                              "defaultValue" : 0.0,
                                              "interp" : "linr"
                                            },
                                            "cursorOpacity" : {
                                              "type" : "double",
                                              "defaultValue" : 0.0,
                                              "interp" : "linr"
                                            }
                                          },
                                          "effects" : [

                                          ],
                                          "start" : 1386,
                                          "duration" : 116,
                                          "mediaStart" : 1903,
                                          "mediaDuration" : 116,
                                          "scalar" : 1,
                                          "metadata" : {
                                            "AutoAppliedSmartFocus" : "False"
                                          },
                                          "animationTracks" : {

                                          }
                                        },
                                        {
                                          "id" : 99,
                                          "_type" : "ScreenVMFile",
                                          "src" : 1,
                                          "trackNumber" : 0,
                                          "attributes" : {
                                            "ident" : "Rec 01-04-21_002"
                                          },
                                          "parameters" : {
                                            "cursorScale" : {
                                              "type" : "double",
                                              "defaultValue" : 0.0,
                                              "interp" : "linr"
                                            },
                                            "cursorOpacity" : {
                                              "type" : "double",
                                              "defaultValue" : 0.0,
                                              "interp" : "linr"
                                            }
                                          },
                                          "effects" : [

                                          ],
                                          "start" : 1502,
                                          "duration" : 75,
                                          "mediaStart" : 2066,
                                          "mediaDuration" : 75,
                                          "scalar" : 1,
                                          "metadata" : {
                                            "AutoAppliedSmartFocus" : "False"
                                          },
                                          "animationTracks" : {

                                          }
                                        },
                                        {
                                          "id" : 100,
                                          "_type" : "ScreenVMFile",
                                          "src" : 1,
                                          "trackNumber" : 0,
                                          "attributes" : {
                                            "ident" : "Rec 01-04-21_002"
                                          },
                                          "parameters" : {
                                            "cursorScale" : {
                                              "type" : "double",
                                              "defaultValue" : 0.0,
                                              "interp" : "linr"
                                            },
                                            "cursorOpacity" : {
                                              "type" : "double",
                                              "defaultValue" : 0.0,
                                              "interp" : "linr"
                                            }
                                          },
                                          "effects" : [

                                          ],
                                          "start" : 1577,
                                          "duration" : 54,
                                          "mediaStart" : 2159,
                                          "mediaDuration" : 54,
                                          "scalar" : 1,
                                          "metadata" : {
                                            "AutoAppliedSmartFocus" : "False"
                                          },
                                          "animationTracks" : {

                                          }
                                        },
                                        {
                                          "id" : 101,
                                          "_type" : "ScreenVMFile",
                                          "src" : 1,
                                          "trackNumber" : 0,
                                          "attributes" : {
                                            "ident" : "Rec 01-04-21_002"
                                          },
                                          "parameters" : {
                                            "cursorScale" : {
                                              "type" : "double",
                                              "defaultValue" : 0.0,
                                              "interp" : "linr"
                                            },
                                            "cursorOpacity" : {
                                              "type" : "double",
                                              "defaultValue" : 0.0,
                                              "interp" : "linr"
                                            }
                                          },
                                          "effects" : [

                                          ],
                                          "start" : 1631,
                                          "duration" : 139,
                                          "mediaStart" : 2315,
                                          "mediaDuration" : 139,
                                          "scalar" : 1,
                                          "metadata" : {
                                            "AutoAppliedSmartFocus" : "False"
                                          },
                                          "animationTracks" : {

                                          }
                                        },
                                        {
                                          "id" : 102,
                                          "_type" : "ScreenVMFile",
                                          "src" : 1,
                                          "trackNumber" : 0,
                                          "attributes" : {
                                            "ident" : "Rec 01-04-21_002"
                                          },
                                          "parameters" : {
                                            "cursorScale" : {
                                              "type" : "double",
                                              "defaultValue" : 0.0,
                                              "interp" : "linr"
                                            },
                                            "cursorOpacity" : {
                                              "type" : "double",
                                              "defaultValue" : 0.0,
                                              "interp" : "linr"
                                            }
                                          },
                                          "effects" : [

                                          ],
                                          "start" : 1770,
                                          "duration" : 295,
                                          "mediaStart" : 2566,
                                          "mediaDuration" : 295,
                                          "scalar" : 1,
                                          "metadata" : {
                                            "AutoAppliedSmartFocus" : "False"
                                          },
                                          "animationTracks" : {

                                          }
                                        },
                                        {
                                          "id" : 103,
                                          "_type" : "ScreenVMFile",
                                          "src" : 1,
                                          "trackNumber" : 0,
                                          "attributes" : {
                                            "ident" : "Rec 01-04-21_002"
                                          },
                                          "parameters" : {
                                            "cursorScale" : {
                                              "type" : "double",
                                              "defaultValue" : 0.0,
                                              "interp" : "linr"
                                            },
                                            "cursorOpacity" : {
                                              "type" : "double",
                                              "defaultValue" : 0.0,
                                              "interp" : "linr"
                                            }
                                          },
                                          "effects" : [

                                          ],
                                          "start" : 2065,
                                          "duration" : 59,
                                          "mediaStart" : 2911,
                                          "mediaDuration" : 59,
                                          "scalar" : 1,
                                          "metadata" : {
                                            "AutoAppliedSmartFocus" : "False"
                                          },
                                          "animationTracks" : {

                                          }
                                        },
                                        {
                                          "id" : 104,
                                          "_type" : "ScreenVMFile",
                                          "src" : 1,
                                          "trackNumber" : 0,
                                          "attributes" : {
                                            "ident" : "Rec 01-04-21_002"
                                          },
                                          "parameters" : {
                                            "cursorScale" : {
                                              "type" : "double",
                                              "defaultValue" : 0.0,
                                              "interp" : "linr"
                                            },
                                            "cursorOpacity" : {
                                              "type" : "double",
                                              "defaultValue" : 0.0,
                                              "interp" : "linr"
                                            }
                                          },
                                          "effects" : [

                                          ],
                                          "start" : 2124,
                                          "duration" : 1025,
                                          "mediaStart" : 2981,
                                          "mediaDuration" : 1025,
                                          "scalar" : 1,
                                          "metadata" : {
                                            "AutoAppliedSmartFocus" : "False"
                                          },
                                          "animationTracks" : {

                                          }
                                        }
                                    ],
                                    "effects" : [

                                    ],
                                    "start" : 0,
                                    "duration" : 29,
                                    "mediaStart" : 2221,
                                    "mediaDuration" : 29,
                                    "scalar" : 1,
                                    "metadata" : {
                                      "AutoAppliedSmartFocus" : "False",
                                      "clipSpeedAttribute" : false
                                    },
                                    "animationTracks" : {

                                    }
                                  }
                                ],
                                  "ident" : "",
                                  "audioMuted" : false,
                                  "videoHidden" : false,
                                  "magnetic" : false,
                                  "matte" : 0,
                                  "metadata" : {
                                    "IsLocked" : "False",
                                    "WinTrackHeight" : "0"
                                  }
                              },
                              {
                                "trackIndex" : 1,
                                "medias" : [
                                  {
                                    "id" : 105,
                                    "_type" : "AMFile",
                                    "src" : 2,
                                    "trackNumber" : 0,
                                    "attributes" : {
                                      "ident" : "Narration_2-1 What Minikube 1",
                                      "gain" : 1.0,
                                      "mixToMono" : false
                                    },
                                      "channelNumber" : "0,1",
                                    "effects" : [

                                    ],
                                    "start" : 0,
                                    "duration" : 29,
                                    "mediaStart" : 24,
                                    "mediaDuration" : 29,
                                    "scalar" : 1,
                                    "metadata" : {
                                      "clipSpeedAttribute" : false
                                    },
                                    "animationTracks" : {

                                    }
                                  }
                                ],
                                  "ident" : "",
                                  "audioMuted" : false,
                                  "videoHidden" : false,
                                  "magnetic" : false,
                                  "matte" : 0,
                                  "metadata" : {
                                    "IsLocked" : "False",
                                    "WinTrackHeight" : "3.60779904407134e-314"
                                  }
                              }
                            ],
                            "attributes" : {
                              "ident" : "Group 1",
                              "gain" : 1.0,
                              "mixToMono" : false
                            },
                            "effects" : [

                            ],
                            "start" : 2164,
                            "duration" : 29,
                            "mediaStart" : 0.0,
                            "mediaDuration" : 29.0,
                            "scalar" : 1,
                            "metadata" : {
                              "IsGroupExpanded" : "False"
                            },
                            "animationTracks" : {

                            }
                          },
                          {
                            "id" : 106,
                            "_type" : "StitchedMedia",
                            "minMediaStart" : 0,
                            "attributes" : {
                              "ident" : "Rec 01-04-21_002",
                              "gain" : 1.0,
                              "mixToMono" : false
                            },
                            "parameters" : {
                              "volume" : 1.0,
                              "cursorOpacity" : 1.0,
                              "cursorScale" : 1.0
                            },
                            "medias" : [
                                {
                                  "id" : 107,
                                  "_type" : "UnifiedMedia",
                                  "video" : 
                                      {
                                        "id" : 108,
                                        "_type" : "ScreenVMFile",
                                        "src" : 1,
                                        "trackNumber" : 0,
                                        "attributes" : {
                                          "ident" : "Rec 01-04-21_002"
                                        },
                                        "parameters" : {
                                          "cursorScale" : {
                                            "type" : "double",
                                            "defaultValue" : 0.0,
                                            "interp" : "linr"
                                          },
                                          "cursorOpacity" : {
                                            "type" : "double",
                                            "defaultValue" : 0.0,
                                            "interp" : "linr"
                                          }
                                        },
                                        "effects" : [

                                        ],
                                        "start" : 0,
                                        "duration" : 126,
                                        "mediaStart" : 0,
                                        "mediaDuration" : 126,
                                        "scalar" : 1,
                                        "animationTracks" : {

                                        }
                                      },
                                  "audio" : 
                                      {
                                        "id" : 109,
                                        "_type" : "AMFile",
                                        "src" : 1,
                                        "trackNumber" : 1,
                                        "attributes" : {
                                          "ident" : "",
                                          "gain" : 1.0,
                                          "mixToMono" : false
                                        },
                                          "channelNumber" : "0,1",
                                        "effects" : [

                                        ],
                                        "start" : 0,
                                        "duration" : 126,
                                        "mediaStart" : 0,
                                        "mediaDuration" : 126,
                                        "scalar" : 1,
                                        "animationTracks" : {

                                        }
                                      }
,
                                  "start" : 0,
                                  "duration" : 126,
                                  "mediaStart" : 0,
                                  "mediaDuration" : 4006,
                                  "scalar" : 1,
                                  "metadata" : {
                                    "AutoAppliedSmartFocus" : "False",
                                    "clipSpeedAttribute" : false
                                  }
                                },
                                {
                                  "id" : 110,
                                  "_type" : "UnifiedMedia",
                                  "video" : 
                                      {
                                        "id" : 111,
                                        "_type" : "ScreenVMFile",
                                        "src" : 1,
                                        "trackNumber" : 0,
                                        "attributes" : {
                                          "ident" : "Rec 01-04-21_002"
                                        },
                                        "parameters" : {
                                          "cursorScale" : {
                                            "type" : "double",
                                            "defaultValue" : 0.0,
                                            "interp" : "linr"
                                          },
                                          "cursorOpacity" : {
                                            "type" : "double",
                                            "defaultValue" : 0.0,
                                            "interp" : "linr"
                                          }
                                        },
                                        "effects" : [

                                        ],
                                        "start" : 126,
                                        "duration" : 4,
                                        "mediaStart" : 182,
                                        "mediaDuration" : 4,
                                        "scalar" : 1,
                                        "animationTracks" : {

                                        }
                                      },
                                  "audio" : 
                                      {
                                        "id" : 112,
                                        "_type" : "AMFile",
                                        "src" : 1,
                                        "trackNumber" : 1,
                                        "attributes" : {
                                          "ident" : "",
                                          "gain" : 1.0,
                                          "mixToMono" : false
                                        },
                                          "channelNumber" : "0,1",
                                        "effects" : [

                                        ],
                                        "start" : 126,
                                        "duration" : 4,
                                        "mediaStart" : 182,
                                        "mediaDuration" : 4,
                                        "scalar" : 1,
                                        "animationTracks" : {

                                        }
                                      }
,
                                  "start" : 126,
                                  "duration" : 4,
                                  "mediaStart" : 0,
                                  "mediaDuration" : 4006,
                                  "scalar" : 1,
                                  "metadata" : {
                                    "AutoAppliedSmartFocus" : "False",
                                    "clipSpeedAttribute" : false
                                  }
                                },
                                {
                                  "id" : 113,
                                  "_type" : "UnifiedMedia",
                                  "video" : 
                                      {
                                        "id" : 114,
                                        "_type" : "ScreenVMFile",
                                        "src" : 1,
                                        "trackNumber" : 0,
                                        "attributes" : {
                                          "ident" : "Rec 01-04-21_002"
                                        },
                                        "parameters" : {
                                          "cursorScale" : {
                                            "type" : "double",
                                            "defaultValue" : 0.0,
                                            "interp" : "linr"
                                          },
                                          "cursorOpacity" : {
                                            "type" : "double",
                                            "defaultValue" : 0.0,
                                            "interp" : "linr"
                                          }
                                        },
                                        "effects" : [

                                        ],
                                        "start" : 130,
                                        "duration" : 129,
                                        "mediaStart" : 206,
                                        "mediaDuration" : 129,
                                        "scalar" : 1,
                                        "animationTracks" : {

                                        }
                                      },
                                  "audio" : 
                                      {
                                        "id" : 115,
                                        "_type" : "AMFile",
                                        "src" : 1,
                                        "trackNumber" : 1,
                                        "attributes" : {
                                          "ident" : "",
                                          "gain" : 1.0,
                                          "mixToMono" : false
                                        },
                                          "channelNumber" : "0,1",
                                        "effects" : [

                                        ],
                                        "start" : 130,
                                        "duration" : 129,
                                        "mediaStart" : 206,
                                        "mediaDuration" : 129,
                                        "scalar" : 1,
                                        "animationTracks" : {

                                        }
                                      }
,
                                  "start" : 130,
                                  "duration" : 129,
                                  "mediaStart" : 0,
                                  "mediaDuration" : 4006,
                                  "scalar" : 1,
                                  "metadata" : {
                                    "AutoAppliedSmartFocus" : "False",
                                    "clipSpeedAttribute" : false
                                  }
                                },
                                {
                                  "id" : 116,
                                  "_type" : "UnifiedMedia",
                                  "video" : 
                                      {
                                        "id" : 117,
                                        "_type" : "ScreenVMFile",
                                        "src" : 1,
                                        "trackNumber" : 0,
                                        "attributes" : {
                                          "ident" : "Rec 01-04-21_002"
                                        },
                                        "parameters" : {
                                          "cursorScale" : {
                                            "type" : "double",
                                            "defaultValue" : 0.0,
                                            "interp" : "linr"
                                          },
                                          "cursorOpacity" : {
                                            "type" : "double",
                                            "defaultValue" : 0.0,
                                            "interp" : "linr"
                                          }
                                        },
                                        "effects" : [

                                        ],
                                        "start" : 259,
                                        "duration" : 250,
                                        "mediaStart" : 445,
                                        "mediaDuration" : 250,
                                        "scalar" : 1,
                                        "animationTracks" : {

                                        }
                                      },
                                  "audio" : 
                                      {
                                        "id" : 118,
                                        "_type" : "AMFile",
                                        "src" : 1,
                                        "trackNumber" : 1,
                                        "attributes" : {
                                          "ident" : "",
                                          "gain" : 1.0,
                                          "mixToMono" : false
                                        },
                                          "channelNumber" : "0,1",
                                        "effects" : [

                                        ],
                                        "start" : 259,
                                        "duration" : 250,
                                        "mediaStart" : 445,
                                        "mediaDuration" : 250,
                                        "scalar" : 1,
                                        "animationTracks" : {

                                        }
                                      }
,
                                  "start" : 259,
                                  "duration" : 250,
                                  "mediaStart" : 0,
                                  "mediaDuration" : 4006,
                                  "scalar" : 1,
                                  "metadata" : {
                                    "AutoAppliedSmartFocus" : "False",
                                    "clipSpeedAttribute" : false
                                  }
                                },
                                {
                                  "id" : 119,
                                  "_type" : "UnifiedMedia",
                                  "video" : 
                                      {
                                        "id" : 120,
                                        "_type" : "ScreenVMFile",
                                        "src" : 1,
                                        "trackNumber" : 0,
                                        "attributes" : {
                                          "ident" : "Rec 01-04-21_002"
                                        },
                                        "parameters" : {
                                          "cursorScale" : {
                                            "type" : "double",
                                            "defaultValue" : 0.0,
                                            "interp" : "linr"
                                          },
                                          "cursorOpacity" : {
                                            "type" : "double",
                                            "defaultValue" : 0.0,
                                            "interp" : "linr"
                                          }
                                        },
                                        "effects" : [

                                        ],
                                        "start" : 509,
                                        "duration" : 4,
                                        "mediaStart" : 751,
                                        "mediaDuration" : 4,
                                        "scalar" : 1,
                                        "animationTracks" : {

                                        }
                                      },
                                  "audio" : 
                                      {
                                        "id" : 121,
                                        "_type" : "AMFile",
                                        "src" : 1,
                                        "trackNumber" : 1,
                                        "attributes" : {
                                          "ident" : "",
                                          "gain" : 1.0,
                                          "mixToMono" : false
                                        },
                                          "channelNumber" : "0,1",
                                        "effects" : [

                                        ],
                                        "start" : 509,
                                        "duration" : 4,
                                        "mediaStart" : 751,
                                        "mediaDuration" : 4,
                                        "scalar" : 1,
                                        "animationTracks" : {

                                        }
                                      }
,
                                  "start" : 509,
                                  "duration" : 4,
                                  "mediaStart" : 0,
                                  "mediaDuration" : 4006,
                                  "scalar" : 1,
                                  "metadata" : {
                                    "AutoAppliedSmartFocus" : "False",
                                    "clipSpeedAttribute" : false
                                  }
                                },
                                {
                                  "id" : 122,
                                  "_type" : "UnifiedMedia",
                                  "video" : 
                                      {
                                        "id" : 123,
                                        "_type" : "ScreenVMFile",
                                        "src" : 1,
                                        "trackNumber" : 0,
                                        "attributes" : {
                                          "ident" : "Rec 01-04-21_002"
                                        },
                                        "parameters" : {
                                          "cursorScale" : {
                                            "type" : "double",
                                            "defaultValue" : 0.0,
                                            "interp" : "linr"
                                          },
                                          "cursorOpacity" : {
                                            "type" : "double",
                                            "defaultValue" : 0.0,
                                            "interp" : "linr"
                                          }
                                        },
                                        "effects" : [

                                        ],
                                        "start" : 513,
                                        "duration" : 84,
                                        "mediaStart" : 782,
                                        "mediaDuration" : 84,
                                        "scalar" : 1,
                                        "animationTracks" : {

                                        }
                                      },
                                  "audio" : 
                                      {
                                        "id" : 124,
                                        "_type" : "AMFile",
                                        "src" : 1,
                                        "trackNumber" : 1,
                                        "attributes" : {
                                          "ident" : "",
                                          "gain" : 1.0,
                                          "mixToMono" : false
                                        },
                                          "channelNumber" : "0,1",
                                        "effects" : [

                                        ],
                                        "start" : 513,
                                        "duration" : 84,
                                        "mediaStart" : 782,
                                        "mediaDuration" : 84,
                                        "scalar" : 1,
                                        "animationTracks" : {

                                        }
                                      }
,
                                  "start" : 513,
                                  "duration" : 84,
                                  "mediaStart" : 0,
                                  "mediaDuration" : 4006,
                                  "scalar" : 1,
                                  "metadata" : {
                                    "AutoAppliedSmartFocus" : "False",
                                    "clipSpeedAttribute" : false
                                  }
                                },
                                {
                                  "id" : 125,
                                  "_type" : "UnifiedMedia",
                                  "video" : 
                                      {
                                        "id" : 126,
                                        "_type" : "ScreenVMFile",
                                        "src" : 1,
                                        "trackNumber" : 0,
                                        "attributes" : {
                                          "ident" : "Rec 01-04-21_002"
                                        },
                                        "parameters" : {
                                          "cursorScale" : {
                                            "type" : "double",
                                            "defaultValue" : 0.0,
                                            "interp" : "linr"
                                          },
                                          "cursorOpacity" : {
                                            "type" : "double",
                                            "defaultValue" : 0.0,
                                            "interp" : "linr"
                                          }
                                        },
                                        "effects" : [

                                        ],
                                        "start" : 597,
                                        "duration" : 454,
                                        "mediaStart" : 889,
                                        "mediaDuration" : 454,
                                        "scalar" : 1,
                                        "animationTracks" : {

                                        }
                                      },
                                  "audio" : 
                                      {
                                        "id" : 127,
                                        "_type" : "AMFile",
                                        "src" : 1,
                                        "trackNumber" : 1,
                                        "attributes" : {
                                          "ident" : "",
                                          "gain" : 1.0,
                                          "mixToMono" : false
                                        },
                                          "channelNumber" : "0,1",
                                        "effects" : [

                                        ],
                                        "start" : 597,
                                        "duration" : 454,
                                        "mediaStart" : 889,
                                        "mediaDuration" : 454,
                                        "scalar" : 1,
                                        "animationTracks" : {

                                        }
                                      }
,
                                  "start" : 597,
                                  "duration" : 454,
                                  "mediaStart" : 0,
                                  "mediaDuration" : 4006,
                                  "scalar" : 1,
                                  "metadata" : {
                                    "AutoAppliedSmartFocus" : "False",
                                    "clipSpeedAttribute" : false
                                  }
                                },
                                {
                                  "id" : 128,
                                  "_type" : "UnifiedMedia",
                                  "video" : 
                                      {
                                        "id" : 129,
                                        "_type" : "ScreenVMFile",
                                        "src" : 1,
                                        "trackNumber" : 0,
                                        "attributes" : {
                                          "ident" : "Rec 01-04-21_002"
                                        },
                                        "parameters" : {
                                          "cursorScale" : {
                                            "type" : "double",
                                            "defaultValue" : 0.0,
                                            "interp" : "linr"
                                          },
                                          "cursorOpacity" : {
                                            "type" : "double",
                                            "defaultValue" : 0.0,
                                            "interp" : "linr"
                                          }
                                        },
                                        "effects" : [

                                        ],
                                        "start" : 1051,
                                        "duration" : 212,
                                        "mediaStart" : 1382,
                                        "mediaDuration" : 212,
                                        "scalar" : 1,
                                        "animationTracks" : {

                                        }
                                      },
                                  "audio" : 
                                      {
                                        "id" : 130,
                                        "_type" : "AMFile",
                                        "src" : 1,
                                        "trackNumber" : 1,
                                        "attributes" : {
                                          "ident" : "",
                                          "gain" : 1.0,
                                          "mixToMono" : false
                                        },
                                          "channelNumber" : "0,1",
                                        "effects" : [

                                        ],
                                        "start" : 1051,
                                        "duration" : 212,
                                        "mediaStart" : 1382,
                                        "mediaDuration" : 212,
                                        "scalar" : 1,
                                        "animationTracks" : {

                                        }
                                      }
,
                                  "start" : 1051,
                                  "duration" : 212,
                                  "mediaStart" : 0,
                                  "mediaDuration" : 4006,
                                  "scalar" : 1,
                                  "metadata" : {
                                    "AutoAppliedSmartFocus" : "False",
                                    "clipSpeedAttribute" : false
                                  }
                                },
                                {
                                  "id" : 131,
                                  "_type" : "UnifiedMedia",
                                  "video" : 
                                      {
                                        "id" : 132,
                                        "_type" : "ScreenVMFile",
                                        "src" : 1,
                                        "trackNumber" : 0,
                                        "attributes" : {
                                          "ident" : "Rec 01-04-21_002"
                                        },
                                        "parameters" : {
                                          "cursorScale" : {
                                            "type" : "double",
                                            "defaultValue" : 0.0,
                                            "interp" : "linr"
                                          },
                                          "cursorOpacity" : {
                                            "type" : "double",
                                            "defaultValue" : 0.0,
                                            "interp" : "linr"
                                          }
                                        },
                                        "effects" : [

                                        ],
                                        "start" : 1263,
                                        "duration" : 123,
                                        "mediaStart" : 1762,
                                        "mediaDuration" : 123,
                                        "scalar" : 1,
                                        "animationTracks" : {

                                        }
                                      },
                                  "audio" : 
                                      {
                                        "id" : 133,
                                        "_type" : "AMFile",
                                        "src" : 1,
                                        "trackNumber" : 1,
                                        "attributes" : {
                                          "ident" : "",
                                          "gain" : 1.0,
                                          "mixToMono" : false
                                        },
                                          "channelNumber" : "0,1",
                                        "effects" : [

                                        ],
                                        "start" : 1263,
                                        "duration" : 123,
                                        "mediaStart" : 1762,
                                        "mediaDuration" : 123,
                                        "scalar" : 1,
                                        "animationTracks" : {

                                        }
                                      }
,
                                  "start" : 1263,
                                  "duration" : 123,
                                  "mediaStart" : 0,
                                  "mediaDuration" : 4006,
                                  "scalar" : 1,
                                  "metadata" : {
                                    "AutoAppliedSmartFocus" : "False",
                                    "clipSpeedAttribute" : false
                                  }
                                },
                                {
                                  "id" : 134,
                                  "_type" : "UnifiedMedia",
                                  "video" : 
                                      {
                                        "id" : 135,
                                        "_type" : "ScreenVMFile",
                                        "src" : 1,
                                        "trackNumber" : 0,
                                        "attributes" : {
                                          "ident" : "Rec 01-04-21_002"
                                        },
                                        "parameters" : {
                                          "cursorScale" : {
                                            "type" : "double",
                                            "defaultValue" : 0.0,
                                            "interp" : "linr"
                                          },
                                          "cursorOpacity" : {
                                            "type" : "double",
                                            "defaultValue" : 0.0,
                                            "interp" : "linr"
                                          }
                                        },
                                        "effects" : [

                                        ],
                                        "start" : 1386,
                                        "duration" : 116,
                                        "mediaStart" : 1903,
                                        "mediaDuration" : 116,
                                        "scalar" : 1,
                                        "animationTracks" : {

                                        }
                                      },
                                  "audio" : 
                                      {
                                        "id" : 136,
                                        "_type" : "AMFile",
                                        "src" : 1,
                                        "trackNumber" : 1,
                                        "attributes" : {
                                          "ident" : "",
                                          "gain" : 1.0,
                                          "mixToMono" : false
                                        },
                                          "channelNumber" : "0,1",
                                        "effects" : [

                                        ],
                                        "start" : 1386,
                                        "duration" : 116,
                                        "mediaStart" : 1903,
                                        "mediaDuration" : 116,
                                        "scalar" : 1,
                                        "animationTracks" : {

                                        }
                                      }
,
                                  "start" : 1386,
                                  "duration" : 116,
                                  "mediaStart" : 0,
                                  "mediaDuration" : 4006,
                                  "scalar" : 1,
                                  "metadata" : {
                                    "AutoAppliedSmartFocus" : "False",
                                    "clipSpeedAttribute" : false
                                  }
                                },
                                {
                                  "id" : 137,
                                  "_type" : "UnifiedMedia",
                                  "video" : 
                                      {
                                        "id" : 138,
                                        "_type" : "ScreenVMFile",
                                        "src" : 1,
                                        "trackNumber" : 0,
                                        "attributes" : {
                                          "ident" : "Rec 01-04-21_002"
                                        },
                                        "parameters" : {
                                          "cursorScale" : {
                                            "type" : "double",
                                            "defaultValue" : 0.0,
                                            "interp" : "linr"
                                          },
                                          "cursorOpacity" : {
                                            "type" : "double",
                                            "defaultValue" : 0.0,
                                            "interp" : "linr"
                                          }
                                        },
                                        "effects" : [

                                        ],
                                        "start" : 1502,
                                        "duration" : 75,
                                        "mediaStart" : 2066,
                                        "mediaDuration" : 75,
                                        "scalar" : 1,
                                        "animationTracks" : {

                                        }
                                      },
                                  "audio" : 
                                      {
                                        "id" : 139,
                                        "_type" : "AMFile",
                                        "src" : 1,
                                        "trackNumber" : 1,
                                        "attributes" : {
                                          "ident" : "",
                                          "gain" : 1.0,
                                          "mixToMono" : false
                                        },
                                          "channelNumber" : "0,1",
                                        "effects" : [

                                        ],
                                        "start" : 1502,
                                        "duration" : 75,
                                        "mediaStart" : 2066,
                                        "mediaDuration" : 75,
                                        "scalar" : 1,
                                        "animationTracks" : {

                                        }
                                      }
,
                                  "start" : 1502,
                                  "duration" : 75,
                                  "mediaStart" : 0,
                                  "mediaDuration" : 4006,
                                  "scalar" : 1,
                                  "metadata" : {
                                    "AutoAppliedSmartFocus" : "False",
                                    "clipSpeedAttribute" : false
                                  }
                                },
                                {
                                  "id" : 140,
                                  "_type" : "UnifiedMedia",
                                  "video" : 
                                      {
                                        "id" : 141,
                                        "_type" : "ScreenVMFile",
                                        "src" : 1,
                                        "trackNumber" : 0,
                                        "attributes" : {
                                          "ident" : "Rec 01-04-21_002"
                                        },
                                        "parameters" : {
                                          "cursorScale" : {
                                            "type" : "double",
                                            "defaultValue" : 0.0,
                                            "interp" : "linr"
                                          },
                                          "cursorOpacity" : {
                                            "type" : "double",
                                            "defaultValue" : 0.0,
                                            "interp" : "linr"
                                          }
                                        },
                                        "effects" : [

                                        ],
                                        "start" : 1577,
                                        "duration" : 54,
                                        "mediaStart" : 2159,
                                        "mediaDuration" : 54,
                                        "scalar" : 1,
                                        "animationTracks" : {

                                        }
                                      },
                                  "audio" : 
                                      {
                                        "id" : 142,
                                        "_type" : "AMFile",
                                        "src" : 1,
                                        "trackNumber" : 1,
                                        "attributes" : {
                                          "ident" : "",
                                          "gain" : 1.0,
                                          "mixToMono" : false
                                        },
                                          "channelNumber" : "0,1",
                                        "effects" : [

                                        ],
                                        "start" : 1577,
                                        "duration" : 54,
                                        "mediaStart" : 2159,
                                        "mediaDuration" : 54,
                                        "scalar" : 1,
                                        "animationTracks" : {

                                        }
                                      }
,
                                  "start" : 1577,
                                  "duration" : 54,
                                  "mediaStart" : 0,
                                  "mediaDuration" : 4006,
                                  "scalar" : 1,
                                  "metadata" : {
                                    "AutoAppliedSmartFocus" : "False",
                                    "clipSpeedAttribute" : false
                                  }
                                },
                                {
                                  "id" : 143,
                                  "_type" : "UnifiedMedia",
                                  "video" : 
                                      {
                                        "id" : 144,
                                        "_type" : "ScreenVMFile",
                                        "src" : 1,
                                        "trackNumber" : 0,
                                        "attributes" : {
                                          "ident" : "Rec 01-04-21_002"
                                        },
                                        "parameters" : {
                                          "cursorScale" : {
                                            "type" : "double",
                                            "defaultValue" : 0.0,
                                            "interp" : "linr"
                                          },
                                          "cursorOpacity" : {
                                            "type" : "double",
                                            "defaultValue" : 0.0,
                                            "interp" : "linr"
                                          }
                                        },
                                        "effects" : [

                                        ],
                                        "start" : 1631,
                                        "duration" : 139,
                                        "mediaStart" : 2315,
                                        "mediaDuration" : 139,
                                        "scalar" : 1,
                                        "animationTracks" : {

                                        }
                                      },
                                  "audio" : 
                                      {
                                        "id" : 145,
                                        "_type" : "AMFile",
                                        "src" : 1,
                                        "trackNumber" : 1,
                                        "attributes" : {
                                          "ident" : "",
                                          "gain" : 1.0,
                                          "mixToMono" : false
                                        },
                                          "channelNumber" : "0,1",
                                        "effects" : [

                                        ],
                                        "start" : 1631,
                                        "duration" : 139,
                                        "mediaStart" : 2315,
                                        "mediaDuration" : 139,
                                        "scalar" : 1,
                                        "animationTracks" : {

                                        }
                                      }
,
                                  "start" : 1631,
                                  "duration" : 139,
                                  "mediaStart" : 0,
                                  "mediaDuration" : 4006,
                                  "scalar" : 1,
                                  "metadata" : {
                                    "AutoAppliedSmartFocus" : "False",
                                    "clipSpeedAttribute" : false
                                  }
                                },
                                {
                                  "id" : 146,
                                  "_type" : "UnifiedMedia",
                                  "video" : 
                                      {
                                        "id" : 147,
                                        "_type" : "ScreenVMFile",
                                        "src" : 1,
                                        "trackNumber" : 0,
                                        "attributes" : {
                                          "ident" : "Rec 01-04-21_002"
                                        },
                                        "parameters" : {
                                          "cursorScale" : {
                                            "type" : "double",
                                            "defaultValue" : 0.0,
                                            "interp" : "linr"
                                          },
                                          "cursorOpacity" : {
                                            "type" : "double",
                                            "defaultValue" : 0.0,
                                            "interp" : "linr"
                                          }
                                        },
                                        "effects" : [

                                        ],
                                        "start" : 1770,
                                        "duration" : 295,
                                        "mediaStart" : 2566,
                                        "mediaDuration" : 295,
                                        "scalar" : 1,
                                        "animationTracks" : {

                                        }
                                      },
                                  "audio" : 
                                      {
                                        "id" : 148,
                                        "_type" : "AMFile",
                                        "src" : 1,
                                        "trackNumber" : 1,
                                        "attributes" : {
                                          "ident" : "",
                                          "gain" : 1.0,
                                          "mixToMono" : false
                                        },
                                          "channelNumber" : "0,1",
                                        "effects" : [

                                        ],
                                        "start" : 1770,
                                        "duration" : 295,
                                        "mediaStart" : 2566,
                                        "mediaDuration" : 295,
                                        "scalar" : 1,
                                        "animationTracks" : {

                                        }
                                      }
,
                                  "start" : 1770,
                                  "duration" : 295,
                                  "mediaStart" : 0,
                                  "mediaDuration" : 4006,
                                  "scalar" : 1,
                                  "metadata" : {
                                    "AutoAppliedSmartFocus" : "False",
                                    "clipSpeedAttribute" : false
                                  }
                                },
                                {
                                  "id" : 149,
                                  "_type" : "UnifiedMedia",
                                  "video" : 
                                      {
                                        "id" : 150,
                                        "_type" : "ScreenVMFile",
                                        "src" : 1,
                                        "trackNumber" : 0,
                                        "attributes" : {
                                          "ident" : "Rec 01-04-21_002"
                                        },
                                        "parameters" : {
                                          "cursorScale" : {
                                            "type" : "double",
                                            "defaultValue" : 0.0,
                                            "interp" : "linr"
                                          },
                                          "cursorOpacity" : {
                                            "type" : "double",
                                            "defaultValue" : 0.0,
                                            "interp" : "linr"
                                          }
                                        },
                                        "effects" : [

                                        ],
                                        "start" : 2065,
                                        "duration" : 59,
                                        "mediaStart" : 2911,
                                        "mediaDuration" : 59,
                                        "scalar" : 1,
                                        "animationTracks" : {

                                        }
                                      },
                                  "audio" : 
                                      {
                                        "id" : 151,
                                        "_type" : "AMFile",
                                        "src" : 1,
                                        "trackNumber" : 1,
                                        "attributes" : {
                                          "ident" : "",
                                          "gain" : 1.0,
                                          "mixToMono" : false
                                        },
                                          "channelNumber" : "0,1",
                                        "effects" : [

                                        ],
                                        "start" : 2065,
                                        "duration" : 59,
                                        "mediaStart" : 2911,
                                        "mediaDuration" : 59,
                                        "scalar" : 1,
                                        "animationTracks" : {

                                        }
                                      }
,
                                  "start" : 2065,
                                  "duration" : 59,
                                  "mediaStart" : 0,
                                  "mediaDuration" : 4006,
                                  "scalar" : 1,
                                  "metadata" : {
                                    "AutoAppliedSmartFocus" : "False",
                                    "clipSpeedAttribute" : false
                                  }
                                },
                                {
                                  "id" : 152,
                                  "_type" : "UnifiedMedia",
                                  "video" : 
                                      {
                                        "id" : 153,
                                        "_type" : "ScreenVMFile",
                                        "src" : 1,
                                        "trackNumber" : 0,
                                        "attributes" : {
                                          "ident" : "Rec 01-04-21_002"
                                        },
                                        "parameters" : {
                                          "cursorScale" : {
                                            "type" : "double",
                                            "defaultValue" : 0.0,
                                            "interp" : "linr"
                                          },
                                          "cursorOpacity" : {
                                            "type" : "double",
                                            "defaultValue" : 0.0,
                                            "interp" : "linr"
                                          }
                                        },
                                        "effects" : [

                                        ],
                                        "start" : 2124,
                                        "duration" : 180,
                                        "mediaStart" : 2981,
                                        "mediaDuration" : 180,
                                        "scalar" : 1,
                                        "animationTracks" : {

                                        }
                                      },
                                  "audio" : 
                                      {
                                        "id" : 154,
                                        "_type" : "AMFile",
                                        "src" : 1,
                                        "trackNumber" : 1,
                                        "attributes" : {
                                          "ident" : "",
                                          "gain" : 1.0,
                                          "mixToMono" : false
                                        },
                                          "channelNumber" : "0,1",
                                        "effects" : [

                                        ],
                                        "start" : 2124,
                                        "duration" : 180,
                                        "mediaStart" : 2981,
                                        "mediaDuration" : 180,
                                        "scalar" : 1,
                                        "animationTracks" : {

                                        }
                                      }
,
                                  "start" : 2124,
                                  "duration" : 180,
                                  "mediaStart" : 0,
                                  "mediaDuration" : 4006,
                                  "scalar" : 1,
                                  "metadata" : {
                                    "AutoAppliedSmartFocus" : "False",
                                    "clipSpeedAttribute" : false
                                  }
                                },
                                {
                                  "id" : 155,
                                  "_type" : "UnifiedMedia",
                                  "video" : 
                                      {
                                        "id" : 156,
                                        "_type" : "ScreenVMFile",
                                        "src" : 1,
                                        "trackNumber" : 0,
                                        "attributes" : {
                                          "ident" : "Rec 01-04-21_002"
                                        },
                                        "parameters" : {
                                          "cursorScale" : {
                                            "type" : "double",
                                            "defaultValue" : 0.0,
                                            "interp" : "linr"
                                          },
                                          "cursorOpacity" : {
                                            "type" : "double",
                                            "defaultValue" : 0.0,
                                            "interp" : "linr"
                                          }
                                        },
                                        "effects" : [

                                        ],
                                        "start" : 2304,
                                        "duration" : 513,
                                        "mediaStart" : 3269,
                                        "mediaDuration" : 513,
                                        "scalar" : 1,
                                        "animationTracks" : {

                                        }
                                      },
                                  "audio" : 
                                      {
                                        "id" : 157,
                                        "_type" : "AMFile",
                                        "src" : 1,
                                        "trackNumber" : 1,
                                        "attributes" : {
                                          "ident" : "",
                                          "gain" : 1.0,
                                          "mixToMono" : false
                                        },
                                          "channelNumber" : "0,1",
                                        "effects" : [

                                        ],
                                        "start" : 2304,
                                        "duration" : 513,
                                        "mediaStart" : 3269,
                                        "mediaDuration" : 513,
                                        "scalar" : 1,
                                        "animationTracks" : {

                                        }
                                      }
,
                                  "start" : 2304,
                                  "duration" : 513,
                                  "mediaStart" : 0,
                                  "mediaDuration" : 4006,
                                  "scalar" : 1,
                                  "metadata" : {
                                    "AutoAppliedSmartFocus" : "False",
                                    "clipSpeedAttribute" : false
                                  }
                                },
                                {
                                  "id" : 158,
                                  "_type" : "UnifiedMedia",
                                  "video" : 
                                      {
                                        "id" : 159,
                                        "_type" : "ScreenVMFile",
                                        "src" : 1,
                                        "trackNumber" : 0,
                                        "attributes" : {
                                          "ident" : "Rec 01-04-21_002"
                                        },
                                        "parameters" : {
                                          "cursorScale" : {
                                            "type" : "double",
                                            "defaultValue" : 0.0,
                                            "interp" : "linr"
                                          },
                                          "cursorOpacity" : {
                                            "type" : "double",
                                            "defaultValue" : 0.0,
                                            "interp" : "linr"
                                          }
                                        },
                                        "effects" : [

                                        ],
                                        "start" : 2817,
                                        "duration" : 124,
                                        "mediaStart" : 3882,
                                        "mediaDuration" : 124,
                                        "scalar" : 1,
                                        "animationTracks" : {

                                        }
                                      },
                                  "audio" : 
                                      {
                                        "id" : 160,
                                        "_type" : "AMFile",
                                        "src" : 1,
                                        "trackNumber" : 1,
                                        "attributes" : {
                                          "ident" : "",
                                          "gain" : 1.0,
                                          "mixToMono" : false
                                        },
                                          "channelNumber" : "0,1",
                                        "effects" : [

                                        ],
                                        "start" : 2817,
                                        "duration" : 124,
                                        "mediaStart" : 3882,
                                        "mediaDuration" : 124,
                                        "scalar" : 1,
                                        "animationTracks" : {

                                        }
                                      }
,
                                  "start" : 2817,
                                  "duration" : 124,
                                  "mediaStart" : 0,
                                  "mediaDuration" : 4006,
                                  "scalar" : 1,
                                  "metadata" : {
                                    "AutoAppliedSmartFocus" : "False",
                                    "clipSpeedAttribute" : false
                                  }
                                }
                            ],
                            "effects" : [

                            ],
                            "start" : 2193,
                            "duration" : 691,
                            "mediaStart" : 2250,
                            "mediaDuration" : 691,
                            "scalar" : 1,
                            "metadata" : {
                              "AutoAppliedSmartFocus" : "False",
                              "clipSpeedAttribute" : false
                            },
                            "animationTracks" : {

                            }
                          }
                        ],
                          "ident" : "",
                          "audioMuted" : false,
                          "videoHidden" : false,
                          "magnetic" : false,
                          "matte" : 0,
                          "metadata" : {
                            "IsLocked" : "False",
                            "WinTrackHeight" : "0"
                          }
                      },
                      {
                        "trackIndex" : 1,
                        "medias" : [
                          {
                            "id" : 161,
                            "_type" : "IMFile",
                            "src" : 3,
                            "trackNumber" : 0,
                            "trimStartSum" : 0,
                            "attributes" : {
                              "ident" : "What is Minikube"
                            },
                            "parameters" : {
                              "translation0" : -654.50000000007,
                              "translation1" : 400.000000000043
                            },
                            "effects" : [

                            ],
                            "start" : 0,
                            "duration" : 2884,
                            "mediaStart" : 0,
                            "mediaDuration" : 1,
                            "scalar" : 1,
                            "metadata" : {
                              "clipSpeedAttribute" : false,
                              "default-translation0" : -0.5,
                              "default-translation1" : 0.0
                            },
                            "animationTracks" : {

                            }
                          }
                        ],
                          "ident" : "",
                          "audioMuted" : false,
                          "videoHidden" : false,
                          "magnetic" : false,
                          "matte" : 0,
                          "metadata" : {
                            "IsLocked" : "False",
                            "WinTrackHeight" : "5.09807408857898e-312"
                          }
                      }
                    ],
                    "attributes" : {
                      "ident" : "Group 1",
                      "gain" : 1.0,
                      "mixToMono" : false
                    },
                    "effects" : [

                    ],
                    "start" : 149,
                    "duration" : 2884,
                    "mediaStart" : 0.0,
                    "mediaDuration" : 2884.0,
                    "scalar" : 1,
                    "metadata" : {
                      "IsGroupExpanded" : "False",
                      "default-scale0" : 1.0,
                      "default-scale1" : 1.0,
                      "default-translation0" : 0.0,
                      "default-translation1" : 0.0
                    },
                    "animationTracks" : {
                      "visual" : [
                        {
                          "endTime" : 82,
                          "duration" : 61,
                          "range" : [ 21, 61]
                        }
                      ]
                    }
                  }
                ]
              },
              {
                "trackIndex" : 1,
                "medias" : [
                  {
                    "id" : 162,
                    "_type" : "Group",
                    "parameters" : {
                      "volume" : 1.0
                    },
                    "tracks" : [
                      {
                        "trackIndex" : 0,
                        "medias" : [
                          {
                            "id" : 163,
                            "_type" : "Callout",
                            "def" : {
                              "kind" : "remix",
                              "shape" : "text",
                              "style" : "basic",
                              "height" : 250.0,
                              "line-spacing" : 0.0,
                              "width" : 998.63013698628,
                              "word-wrap" : 1.0,
                              "horizontal-alignment" : "center",
                              "resize-behavior" : "resizeText",
                              "text" : "Run Your First Docker",
                              "vertical-alignment" : "center",
                              "font" : {
                                "color-blue" : 1.0,
                                "color-green" : 1.0,
                                "color-red" : 1.0,
                                "size" : 96.0,
                                "tracking" : 0.0,
                                "name" : "Montserrat",
                                "weight" : "Regular"
                              },
                              "textAttributes" : {
                                "type" : "textAttributeList",
                                "keyframes" : [
                                  {
                                    "endTime" : 0,
                                    "time" : 0,
                                    "value" : [{"name":"fontItalic","rangeEnd":21,"rangeStart":0,"value":0,"valueType":"int"},{"name":"fontName","rangeEnd":21,"rangeStart":0,"value":"Montserrat","valueType":"string"},{"name":"fontWeight","rangeEnd":21,"rangeStart":0,"value":700,"valueType":"int"},{"name":"kerning","rangeEnd":21,"rangeStart":0,"value":0,"valueType":"double"},{"name":"fgColor","rangeEnd":21,"rangeStart":0,"value":"(50,108,229,255)","valueType":"color"},{"name":"underline","rangeEnd":21,"rangeStart":0,"value":0,"valueType":"int"},{"name":"fontSize","rangeEnd":21,"rangeStart":0,"value":96,"valueType":"double"},{"name":"strikethrough","rangeEnd":21,"rangeStart":0,"value":0,"valueType":"int"}],
                                    "duration" : 0
                                  }
                                ]
                              }
                            },
                            "attributes" : {
                              "autoRotateText" : true
                            },
                            "parameters" : {
                              "translation0" : -22.4178082191042,
                              "translation1" : 1.319122588261e-11
                            },
                            "effects" : [
                                {
                                  "_type" : "GenericBehaviorEffect",
                                  "effectName" : "pulsating",
                                  "start" : -102,
                                  "duration" : 200                                ,
                                  "in" : {
                                    "attributes" : {
                                      "name" : "grow",
                                      "type" : 1,
                                      "characterOrder" : 6,
                                      "offsetBetweenCharacters" : 1,
                                      "suggestedDurationPerCharacter" : 18,
                                      "overlapProportion" : "3/4",
                                      "movement" : 30,
                                      "springDamping" : 5.0,
                                      "springStiffness" : 50.0,
                                      "bounceBounciness" : 0.45
                                    }
                                  
                                  },
                                  "center" : {
                                    "attributes" : {
                                      "name" : "pulsate",
                                      "type" : 1,
                                      "characterOrder" : 6,
                                      "offsetBetweenCharacters" : "21/10",
                                      "secondsPerLoop" : 1,
                                      "numberOfLoops" : -1,
                                      "delayBetweenLoops" : 0,
                                      "offsetBetweenCharacters" : "21/10"
                                    },
                                    "parameters" : {
                                      "movement" : {
                                        "type" : "int",
                                        "valueBounds" : {
                                          "minValue" : 0,
                                          "maxValue" : 31,
                                          "defaultValue" : 27
                                        },
                                        "uiHints" : {
                                          "userInterfaceType" : 4,
                                          "unitType" : 0
                                        },
                                        "keyframes" : [
                                          {
                                            "endTime" : 0,
                                            "time" : 0,
                                            "value" : 27,
                                            "duration" : 0
                                          }
                                        ]
                                      },
                                      "scale" : {
                                        "type" : "double",
                                        "defaultValue" : 1.08,
                                        "valueBounds" : {
                                          "minValue" : 0.01,
                                          "maxValue" : 2.0,
                                          "defaultValue" : 1.08
                                        },
                                        "uiHints" : {
                                          "userInterfaceType" : 1,
                                          "unitType" : 1
                                        }
                                      }
                                    }
                                  
                                  },
                                  "out" : {
                                    "attributes" : {
                                      "name" : "shrink",
                                      "type" : 1,
                                      "characterOrder" : 6,
                                      "offsetBetweenCharacters" : 1,
                                      "suggestedDurationPerCharacter" : "29/2",
                                      "overlapProportion" : "1/10",
                                      "movement" : 11,
                                      "springDamping" : 5.0,
                                      "springStiffness" : 50.0,
                                      "bounceBounciness" : 0.45
                                    }
                                  
                                  }
                                }
                            ],
                            "start" : 0,
                            "duration" : 103,
                            "mediaStart" : -102,
                            "mediaDuration" : 103,
                            "scalar" : 1,
                            "metadata" : {
                              "clipSpeedAttribute" : false
                            },
                            "animationTracks" : {

                            }
                          },
                          {
                            "id" : 164,
                            "_type" : "Callout",
                            "def" : {
                              "kind" : "remix",
                              "shape" : "text",
                              "style" : "basic",
                              "height" : 250.0,
                              "line-spacing" : 0.0,
                              "width" : 998.63013698628,
                              "word-wrap" : 1.0,
                              "horizontal-alignment" : "center",
                              "resize-behavior" : "resizeText",
                              "text" : "Run Your First Docker",
                              "vertical-alignment" : "center",
                              "font" : {
                                "color-blue" : 1.0,
                                "color-green" : 1.0,
                                "color-red" : 1.0,
                                "size" : 96.0,
                                "tracking" : 0.0,
                                "name" : "Montserrat",
                                "weight" : "Regular"
                              },
                              "textAttributes" : {
                                "type" : "textAttributeList",
                                "keyframes" : [
                                  {
                                    "endTime" : 0,
                                    "time" : 0,
                                    "value" : [{"name":"strikethrough","rangeEnd":21,"rangeStart":0,"value":0,"valueType":"int"},{"name":"fontName","rangeEnd":21,"rangeStart":0,"value":"Montserrat","valueType":"string"},{"name":"fontSize","rangeEnd":21,"rangeStart":0,"value":96,"valueType":"double"},{"name":"fontWeight","rangeEnd":21,"rangeStart":0,"value":700,"valueType":"int"},{"name":"fgColor","rangeEnd":21,"rangeStart":0,"value":"(50,108,229,255)","valueType":"color"},{"name":"underline","rangeEnd":21,"rangeStart":0,"value":0,"valueType":"int"},{"name":"kerning","rangeEnd":21,"rangeStart":0,"value":0,"valueType":"double"},{"name":"fontItalic","rangeEnd":21,"rangeStart":0,"value":0,"valueType":"int"}],
                                    "duration" : 0
                                  }
                                ]
                              }
                            },
                            "attributes" : {
                              "autoRotateText" : true
                            },
                            "parameters" : {
                              "translation0" : -74.4178082188969,
                              "translation1" : 4.13429290734252e-11
                            },
                            "effects" : [
                                {
                                  "_type" : "GenericBehaviorEffect",
                                  "effectName" : "pulsating",
                                  "start" : -102,
                                  "duration" : 200                                ,
                                  "in" : {
                                    "attributes" : {
                                      "name" : "grow",
                                      "type" : 1,
                                      "characterOrder" : 6,
                                      "offsetBetweenCharacters" : 1,
                                      "suggestedDurationPerCharacter" : 18,
                                      "overlapProportion" : "3/4",
                                      "movement" : 30,
                                      "springDamping" : 5.0,
                                      "springStiffness" : 50.0,
                                      "bounceBounciness" : 0.45
                                    }
                                  
                                  },
                                  "center" : {
                                    "attributes" : {
                                      "name" : "pulsate",
                                      "type" : 1,
                                      "characterOrder" : 6,
                                      "offsetBetweenCharacters" : "21/10",
                                      "secondsPerLoop" : 1,
                                      "numberOfLoops" : -1,
                                      "delayBetweenLoops" : 0,
                                      "offsetBetweenCharacters" : "21/10"
                                    },
                                    "parameters" : {
                                      "movement" : {
                                        "type" : "int",
                                        "valueBounds" : {
                                          "minValue" : 0,
                                          "maxValue" : 31,
                                          "defaultValue" : 27
                                        },
                                        "uiHints" : {
                                          "userInterfaceType" : 4,
                                          "unitType" : 0
                                        },
                                        "keyframes" : [
                                          {
                                            "endTime" : 0,
                                            "time" : 0,
                                            "value" : 27,
                                            "duration" : 0
                                          }
                                        ]
                                      },
                                      "scale" : {
                                        "type" : "double",
                                        "defaultValue" : 1.08,
                                        "valueBounds" : {
                                          "minValue" : 0.01,
                                          "maxValue" : 2.0,
                                          "defaultValue" : 1.08
                                        },
                                        "uiHints" : {
                                          "userInterfaceType" : 1,
                                          "unitType" : 1
                                        }
                                      }
                                    }
                                  
                                  },
                                  "out" : {
                                    "attributes" : {
                                      "name" : "shrink",
                                      "type" : 1,
                                      "characterOrder" : 6,
                                      "offsetBetweenCharacters" : 1,
                                      "suggestedDurationPerCharacter" : "29/2",
                                      "overlapProportion" : "1/10",
                                      "movement" : 11,
                                      "springDamping" : 5.0,
                                      "springStiffness" : 50.0,
                                      "bounceBounciness" : 0.45
                                    }
                                  
                                  }
                                }
                            ],
                            "start" : 103,
                            "duration" : 97,
                            "mediaStart" : 1,
                            "mediaDuration" : 97,
                            "scalar" : 1,
                            "metadata" : {
                              "clipSpeedAttribute" : false
                            },
                            "animationTracks" : {

                            }
                          }
                        ],
                          "ident" : "",
                          "audioMuted" : false,
                          "videoHidden" : false,
                          "magnetic" : false,
                          "matte" : 0,
                          "metadata" : {
                            "IsLocked" : "False",
                            "WinTrackHeight" : "0"
                          }
                      },
                      {
                        "trackIndex" : 1,
                        "medias" : [
                          {
                            "id" : 165,
                            "_type" : "Group",
                            "parameters" : {
                              "translation0" : 0.559750733332294,
                              "translation1" : -34.4850472193567,
                              "volume" : 1.0
                            },
                            "tracks" : [
                              {
                                "trackIndex" : 0,
                                "medias" : [
                                  {
                                    "id" : 166,
                                    "_type" : "Group",
                                    "parameters" : {
                                      "translation0" : 4.44089209850063e-16,
                                      "translation1" : -34.4850472193565,
                                      "volume" : 1.0
                                    },
                                    "tracks" : [
                                      {
                                        "trackIndex" : 0,
                                        "medias" : [
                                          {
                                            "id" : 167,
                                            "_type" : "Group",
                                            "parameters" : {
                                              "translation0" : 0.55975073333218,
                                              "translation1" : -289.15133998951,
                                              "volume" : 1.0
                                            },
                                            "tracks" : [
                                              {
                                                "trackIndex" : 0,
                                                "medias" : [
                                                  {
                                                    "id" : 168,
                                                    "_type" : "IMFile",
                                                    "src" : 20,
                                                    "trackNumber" : 0,
                                                    "trimStartSum" : 0,
                                                    "attributes" : {
                                                      "ident" : "wave1"
                                                    },
                                                    "parameters" : {
                                                      "translation0" : -2.11950146613311,
                                                      "translation1" : 8.96940103546206,
                                                      "scale0" : 1.02884111169424,
                                                      "scale1" : 1.02884111169424
                                                    },
                                                    "effects" : [

                                                    ],
                                                    "start" : 0,
                                                    "duration" : 6,
                                                    "mediaStart" : 0,
                                                    "mediaDuration" : 1,
                                                    "scalar" : 1,
                                                    "metadata" : {
                                                      "clipSpeedAttribute" : false
                                                    },
                                                    "animationTracks" : {

                                                    }
                                                  },
                                                  {
                                                    "id" : 169,
                                                    "_type" : "IMFile",
                                                    "src" : 21,
                                                    "trackNumber" : 0,
                                                    "trimStartSum" : 0,
                                                    "attributes" : {
                                                      "ident" : "wave2"
                                                    },
                                                    "parameters" : {
                                                      "translation0" : 0.880498533167186,
                                                      "translation1" : -88.087642172052,
                                                      "scale0" : 1.03068101042332,
                                                      "scale1" : 1.03068101042332
                                                    },
                                                    "effects" : [

                                                    ],
                                                    "start" : 6,
                                                    "duration" : 6,
                                                    "mediaStart" : 0,
                                                    "mediaDuration" : 1,
                                                    "scalar" : 1,
                                                    "metadata" : {
                                                      "clipSpeedAttribute" : false
                                                    },
                                                    "animationTracks" : {

                                                    }
                                                  },
                                                  {
                                                    "id" : 170,
                                                    "_type" : "IMFile",
                                                    "src" : 22,
                                                    "trackNumber" : 0,
                                                    "trimStartSum" : 0,
                                                    "attributes" : {
                                                      "ident" : "wave3"
                                                    },
                                                    "parameters" : {
                                                      "translation0" : -1.11950146655987,
                                                      "translation1" : 8.12143442823202,
                                                      "scale0" : 1.00893326326855,
                                                      "scale1" : 1.00893326326855
                                                    },
                                                    "effects" : [

                                                    ],
                                                    "start" : 12,
                                                    "duration" : 7,
                                                    "mediaStart" : 0,
                                                    "mediaDuration" : 1,
                                                    "scalar" : 1,
                                                    "metadata" : {
                                                      "clipSpeedAttribute" : false
                                                    },
                                                    "animationTracks" : {

                                                    }
                                                  },
                                                  {
                                                    "id" : 171,
                                                    "_type" : "IMFile",
                                                    "src" : 20,
                                                    "trackNumber" : 0,
                                                    "trimStartSum" : 0,
                                                    "attributes" : {
                                                      "ident" : "wave1"
                                                    },
                                                    "parameters" : {
                                                      "translation0" : -2.11950146613311,
                                                      "translation1" : 8.96940103546206,
                                                      "scale0" : 1.02884111169424,
                                                      "scale1" : 1.02884111169424
                                                    },
                                                    "effects" : [

                                                    ],
                                                    "start" : 19,
                                                    "duration" : 6,
                                                    "mediaStart" : 0,
                                                    "mediaDuration" : 1,
                                                    "scalar" : 1,
                                                    "metadata" : {
                                                      "clipSpeedAttribute" : false
                                                    },
                                                    "animationTracks" : {

                                                    }
                                                  },
                                                  {
                                                    "id" : 172,
                                                    "_type" : "IMFile",
                                                    "src" : 21,
                                                    "trackNumber" : 0,
                                                    "trimStartSum" : 0,
                                                    "attributes" : {
                                                      "ident" : "wave2"
                                                    },
                                                    "parameters" : {
                                                      "translation0" : 0.880498533167186,
                                                      "translation1" : -88.087642172052,
                                                      "scale0" : 1.03068101042332,
                                                      "scale1" : 1.03068101042332
                                                    },
                                                    "effects" : [

                                                    ],
                                                    "start" : 25,
                                                    "duration" : 6,
                                                    "mediaStart" : 0,
                                                    "mediaDuration" : 1,
                                                    "scalar" : 1,
                                                    "metadata" : {
                                                      "clipSpeedAttribute" : false
                                                    },
                                                    "animationTracks" : {

                                                    }
                                                  },
                                                  {
                                                    "id" : 173,
                                                    "_type" : "IMFile",
                                                    "src" : 22,
                                                    "trackNumber" : 0,
                                                    "trimStartSum" : 0,
                                                    "attributes" : {
                                                      "ident" : "wave3"
                                                    },
                                                    "parameters" : {
                                                      "translation0" : -1.11950146655987,
                                                      "translation1" : 8.12143442823202,
                                                      "scale0" : 1.00893326326855,
                                                      "scale1" : 1.00893326326855
                                                    },
                                                    "effects" : [

                                                    ],
                                                    "start" : 31,
                                                    "duration" : 7,
                                                    "mediaStart" : 0,
                                                    "mediaDuration" : 1,
                                                    "scalar" : 1,
                                                    "metadata" : {
                                                      "clipSpeedAttribute" : false
                                                    },
                                                    "animationTracks" : {

                                                    }
                                                  },
                                                  {
                                                    "id" : 174,
                                                    "_type" : "IMFile",
                                                    "src" : 20,
                                                    "trackNumber" : 0,
                                                    "trimStartSum" : 0,
                                                    "attributes" : {
                                                      "ident" : "wave1"
                                                    },
                                                    "parameters" : {
                                                      "translation0" : -2.11950146613311,
                                                      "translation1" : 8.96940103546206,
                                                      "scale0" : 1.02884111169424,
                                                      "scale1" : 1.02884111169424
                                                    },
                                                    "effects" : [

                                                    ],
                                                    "start" : 38,
                                                    "duration" : 6,
                                                    "mediaStart" : 0,
                                                    "mediaDuration" : 1,
                                                    "scalar" : 1,
                                                    "metadata" : {
                                                      "clipSpeedAttribute" : false
                                                    },
                                                    "animationTracks" : {

                                                    }
                                                  },
                                                  {
                                                    "id" : 175,
                                                    "_type" : "IMFile",
                                                    "src" : 21,
                                                    "trackNumber" : 0,
                                                    "trimStartSum" : 0,
                                                    "attributes" : {
                                                      "ident" : "wave2"
                                                    },
                                                    "parameters" : {
                                                      "translation0" : 0.880498533167186,
                                                      "translation1" : -88.087642172052,
                                                      "scale0" : 1.03068101042332,
                                                      "scale1" : 1.03068101042332
                                                    },
                                                    "effects" : [

                                                    ],
                                                    "start" : 44,
                                                    "duration" : 6,
                                                    "mediaStart" : 0,
                                                    "mediaDuration" : 1,
                                                    "scalar" : 1,
                                                    "metadata" : {
                                                      "clipSpeedAttribute" : false
                                                    },
                                                    "animationTracks" : {

                                                    }
                                                  },
                                                  {
                                                    "id" : 176,
                                                    "_type" : "IMFile",
                                                    "src" : 22,
                                                    "trackNumber" : 0,
                                                    "trimStartSum" : 0,
                                                    "attributes" : {
                                                      "ident" : "wave3"
                                                    },
                                                    "parameters" : {
                                                      "translation0" : -1.11950146655987,
                                                      "translation1" : 8.12143442823202,
                                                      "scale0" : 1.00893326326855,
                                                      "scale1" : 1.00893326326855
                                                    },
                                                    "effects" : [

                                                    ],
                                                    "start" : 50,
                                                    "duration" : 7,
                                                    "mediaStart" : 0,
                                                    "mediaDuration" : 1,
                                                    "scalar" : 1,
                                                    "metadata" : {
                                                      "clipSpeedAttribute" : false
                                                    },
                                                    "animationTracks" : {

                                                    }
                                                  },
                                                  {
                                                    "id" : 177,
                                                    "_type" : "IMFile",
                                                    "src" : 20,
                                                    "trackNumber" : 0,
                                                    "trimStartSum" : 0,
                                                    "attributes" : {
                                                      "ident" : "wave1"
                                                    },
                                                    "parameters" : {
                                                      "translation0" : -2.11950146613311,
                                                      "translation1" : 8.96940103546206,
                                                      "scale0" : 1.02884111169424,
                                                      "scale1" : 1.02884111169424
                                                    },
                                                    "effects" : [

                                                    ],
                                                    "start" : 57,
                                                    "duration" : 6,
                                                    "mediaStart" : 0,
                                                    "mediaDuration" : 1,
                                                    "scalar" : 1,
                                                    "metadata" : {
                                                      "clipSpeedAttribute" : false
                                                    },
                                                    "animationTracks" : {

                                                    }
                                                  },
                                                  {
                                                    "id" : 178,
                                                    "_type" : "IMFile",
                                                    "src" : 21,
                                                    "trackNumber" : 0,
                                                    "trimStartSum" : 0,
                                                    "attributes" : {
                                                      "ident" : "wave2"
                                                    },
                                                    "parameters" : {
                                                      "translation0" : 0.880498533167186,
                                                      "translation1" : -88.087642172052,
                                                      "scale0" : 1.03068101042332,
                                                      "scale1" : 1.03068101042332
                                                    },
                                                    "effects" : [

                                                    ],
                                                    "start" : 63,
                                                    "duration" : 6,
                                                    "mediaStart" : 0,
                                                    "mediaDuration" : 1,
                                                    "scalar" : 1,
                                                    "metadata" : {
                                                      "clipSpeedAttribute" : false
                                                    },
                                                    "animationTracks" : {

                                                    }
                                                  },
                                                  {
                                                    "id" : 179,
                                                    "_type" : "IMFile",
                                                    "src" : 22,
                                                    "trackNumber" : 0,
                                                    "trimStartSum" : 0,
                                                    "attributes" : {
                                                      "ident" : "wave3"
                                                    },
                                                    "parameters" : {
                                                      "translation0" : -1.11950146655987,
                                                      "translation1" : 8.12143442823202,
                                                      "scale0" : 1.00893326326855,
                                                      "scale1" : 1.00893326326855
                                                    },
                                                    "effects" : [

                                                    ],
                                                    "start" : 69,
                                                    "duration" : 7,
                                                    "mediaStart" : 0,
                                                    "mediaDuration" : 1,
                                                    "scalar" : 1,
                                                    "metadata" : {
                                                      "clipSpeedAttribute" : false
                                                    },
                                                    "animationTracks" : {

                                                    }
                                                  },
                                                  {
                                                    "id" : 180,
                                                    "_type" : "IMFile",
                                                    "src" : 20,
                                                    "trackNumber" : 0,
                                                    "trimStartSum" : 0,
                                                    "attributes" : {
                                                      "ident" : "wave1"
                                                    },
                                                    "parameters" : {
                                                      "translation0" : -2.11950146613311,
                                                      "translation1" : 8.96940103546206,
                                                      "scale0" : 1.02884111169424,
                                                      "scale1" : 1.02884111169424
                                                    },
                                                    "effects" : [

                                                    ],
                                                    "start" : 76,
                                                    "duration" : 6,
                                                    "mediaStart" : 0,
                                                    "mediaDuration" : 1,
                                                    "scalar" : 1,
                                                    "metadata" : {
                                                      "clipSpeedAttribute" : false
                                                    },
                                                    "animationTracks" : {

                                                    }
                                                  },
                                                  {
                                                    "id" : 181,
                                                    "_type" : "IMFile",
                                                    "src" : 21,
                                                    "trackNumber" : 0,
                                                    "trimStartSum" : 0,
                                                    "attributes" : {
                                                      "ident" : "wave2"
                                                    },
                                                    "parameters" : {
                                                      "translation0" : 0.880498533167186,
                                                      "translation1" : -88.087642172052,
                                                      "scale0" : 1.03068101042332,
                                                      "scale1" : 1.03068101042332
                                                    },
                                                    "effects" : [

                                                    ],
                                                    "start" : 82,
                                                    "duration" : 6,
                                                    "mediaStart" : 0,
                                                    "mediaDuration" : 1,
                                                    "scalar" : 1,
                                                    "metadata" : {
                                                      "clipSpeedAttribute" : false
                                                    },
                                                    "animationTracks" : {

                                                    }
                                                  },
                                                  {
                                                    "id" : 182,
                                                    "_type" : "IMFile",
                                                    "src" : 22,
                                                    "trackNumber" : 0,
                                                    "trimStartSum" : 0,
                                                    "attributes" : {
                                                      "ident" : "wave3"
                                                    },
                                                    "parameters" : {
                                                      "translation0" : -1.11950146655987,
                                                      "translation1" : 8.12143442823202,
                                                      "scale0" : 1.00893326326855,
                                                      "scale1" : 1.00893326326855
                                                    },
                                                    "effects" : [

                                                    ],
                                                    "start" : 88,
                                                    "duration" : 7,
                                                    "mediaStart" : 0,
                                                    "mediaDuration" : 1,
                                                    "scalar" : 1,
                                                    "metadata" : {
                                                      "clipSpeedAttribute" : false
                                                    },
                                                    "animationTracks" : {

                                                    }
                                                  },
                                                  {
                                                    "id" : 183,
                                                    "_type" : "IMFile",
                                                    "src" : 20,
                                                    "trackNumber" : 0,
                                                    "trimStartSum" : 0,
                                                    "attributes" : {
                                                      "ident" : "wave1"
                                                    },
                                                    "parameters" : {
                                                      "translation0" : -2.11950146613311,
                                                      "translation1" : 8.96940103546206,
                                                      "scale0" : 1.02884111169424,
                                                      "scale1" : 1.02884111169424
                                                    },
                                                    "effects" : [

                                                    ],
                                                    "start" : 95,
                                                    "duration" : 6,
                                                    "mediaStart" : 0,
                                                    "mediaDuration" : 1,
                                                    "scalar" : 1,
                                                    "metadata" : {
                                                      "clipSpeedAttribute" : false
                                                    },
                                                    "animationTracks" : {

                                                    }
                                                  },
                                                  {
                                                    "id" : 184,
                                                    "_type" : "IMFile",
                                                    "src" : 21,
                                                    "trackNumber" : 0,
                                                    "trimStartSum" : 0,
                                                    "attributes" : {
                                                      "ident" : "wave2"
                                                    },
                                                    "parameters" : {
                                                      "translation0" : 0.880498533167186,
                                                      "translation1" : -88.087642172052,
                                                      "scale0" : 1.03068101042332,
                                                      "scale1" : 1.03068101042332
                                                    },
                                                    "effects" : [

                                                    ],
                                                    "start" : 101,
                                                    "duration" : 6,
                                                    "mediaStart" : 0,
                                                    "mediaDuration" : 1,
                                                    "scalar" : 1,
                                                    "metadata" : {
                                                      "clipSpeedAttribute" : false
                                                    },
                                                    "animationTracks" : {

                                                    }
                                                  },
                                                  {
                                                    "id" : 185,
                                                    "_type" : "IMFile",
                                                    "src" : 22,
                                                    "trackNumber" : 0,
                                                    "trimStartSum" : 0,
                                                    "attributes" : {
                                                      "ident" : "wave3"
                                                    },
                                                    "parameters" : {
                                                      "translation0" : -1.11950146655987,
                                                      "translation1" : 8.12143442823202,
                                                      "scale0" : 1.00893326326855,
                                                      "scale1" : 1.00893326326855
                                                    },
                                                    "effects" : [

                                                    ],
                                                    "start" : 107,
                                                    "duration" : 7,
                                                    "mediaStart" : 0,
                                                    "mediaDuration" : 1,
                                                    "scalar" : 1,
                                                    "metadata" : {
                                                      "clipSpeedAttribute" : false
                                                    },
                                                    "animationTracks" : {

                                                    }
                                                  },
                                                  {
                                                    "id" : 186,
                                                    "_type" : "IMFile",
                                                    "src" : 20,
                                                    "trackNumber" : 0,
                                                    "trimStartSum" : 0,
                                                    "attributes" : {
                                                      "ident" : "wave1"
                                                    },
                                                    "parameters" : {
                                                      "translation0" : -2.11950146613311,
                                                      "translation1" : 8.96940103546206,
                                                      "scale0" : 1.02884111169424,
                                                      "scale1" : 1.02884111169424
                                                    },
                                                    "effects" : [

                                                    ],
                                                    "start" : 114,
                                                    "duration" : 6,
                                                    "mediaStart" : 0,
                                                    "mediaDuration" : 1,
                                                    "scalar" : 1,
                                                    "metadata" : {
                                                      "clipSpeedAttribute" : false
                                                    },
                                                    "animationTracks" : {

                                                    }
                                                  },
                                                  {
                                                    "id" : 187,
                                                    "_type" : "IMFile",
                                                    "src" : 21,
                                                    "trackNumber" : 0,
                                                    "trimStartSum" : 0,
                                                    "attributes" : {
                                                      "ident" : "wave2"
                                                    },
                                                    "parameters" : {
                                                      "translation0" : 0.880498533167186,
                                                      "translation1" : -88.087642172052,
                                                      "scale0" : 1.03068101042332,
                                                      "scale1" : 1.03068101042332
                                                    },
                                                    "effects" : [

                                                    ],
                                                    "start" : 120,
                                                    "duration" : 6,
                                                    "mediaStart" : 0,
                                                    "mediaDuration" : 1,
                                                    "scalar" : 1,
                                                    "metadata" : {
                                                      "clipSpeedAttribute" : false
                                                    },
                                                    "animationTracks" : {

                                                    }
                                                  },
                                                  {
                                                    "id" : 188,
                                                    "_type" : "IMFile",
                                                    "src" : 22,
                                                    "trackNumber" : 0,
                                                    "trimStartSum" : 0,
                                                    "attributes" : {
                                                      "ident" : "wave3"
                                                    },
                                                    "parameters" : {
                                                      "translation0" : -1.11950146655987,
                                                      "translation1" : 8.12143442823202,
                                                      "scale0" : 1.00893326326855,
                                                      "scale1" : 1.00893326326855
                                                    },
                                                    "effects" : [

                                                    ],
                                                    "start" : 126,
                                                    "duration" : 7,
                                                    "mediaStart" : 0,
                                                    "mediaDuration" : 1,
                                                    "scalar" : 1,
                                                    "metadata" : {
                                                      "clipSpeedAttribute" : false
                                                    },
                                                    "animationTracks" : {

                                                    }
                                                  },
                                                  {
                                                    "id" : 189,
                                                    "_type" : "IMFile",
                                                    "src" : 20,
                                                    "trackNumber" : 0,
                                                    "trimStartSum" : 0,
                                                    "attributes" : {
                                                      "ident" : "wave1"
                                                    },
                                                    "parameters" : {
                                                      "translation0" : -2.11950146613311,
                                                      "translation1" : 8.96940103546206,
                                                      "scale0" : 1.02884111169424,
                                                      "scale1" : 1.02884111169424
                                                    },
                                                    "effects" : [

                                                    ],
                                                    "start" : 133,
                                                    "duration" : 6,
                                                    "mediaStart" : 0,
                                                    "mediaDuration" : 1,
                                                    "scalar" : 1,
                                                    "metadata" : {
                                                      "clipSpeedAttribute" : false
                                                    },
                                                    "animationTracks" : {

                                                    }
                                                  },
                                                  {
                                                    "id" : 190,
                                                    "_type" : "IMFile",
                                                    "src" : 21,
                                                    "trackNumber" : 0,
                                                    "trimStartSum" : 0,
                                                    "attributes" : {
                                                      "ident" : "wave2"
                                                    },
                                                    "parameters" : {
                                                      "translation0" : 0.880498533167186,
                                                      "translation1" : -88.087642172052,
                                                      "scale0" : 1.03068101042332,
                                                      "scale1" : 1.03068101042332
                                                    },
                                                    "effects" : [

                                                    ],
                                                    "start" : 139,
                                                    "duration" : 6,
                                                    "mediaStart" : 0,
                                                    "mediaDuration" : 1,
                                                    "scalar" : 1,
                                                    "metadata" : {
                                                      "clipSpeedAttribute" : false
                                                    },
                                                    "animationTracks" : {

                                                    }
                                                  },
                                                  {
                                                    "id" : 191,
                                                    "_type" : "IMFile",
                                                    "src" : 22,
                                                    "trackNumber" : 0,
                                                    "trimStartSum" : 0,
                                                    "attributes" : {
                                                      "ident" : "wave3"
                                                    },
                                                    "parameters" : {
                                                      "translation0" : -1.11950146655987,
                                                      "translation1" : 8.12143442823202,
                                                      "scale0" : 1.00893326326855,
                                                      "scale1" : 1.00893326326855
                                                    },
                                                    "effects" : [

                                                    ],
                                                    "start" : 145,
                                                    "duration" : 7,
                                                    "mediaStart" : 0,
                                                    "mediaDuration" : 1,
                                                    "scalar" : 1,
                                                    "metadata" : {
                                                      "clipSpeedAttribute" : false
                                                    },
                                                    "animationTracks" : {

                                                    }
                                                  },
                                                  {
                                                    "id" : 192,
                                                    "_type" : "IMFile",
                                                    "src" : 20,
                                                    "trackNumber" : 0,
                                                    "trimStartSum" : 0,
                                                    "attributes" : {
                                                      "ident" : "wave1"
                                                    },
                                                    "parameters" : {
                                                      "translation0" : -2.11950146613311,
                                                      "translation1" : 8.96940103546206,
                                                      "scale0" : 1.02884111169424,
                                                      "scale1" : 1.02884111169424
                                                    },
                                                    "effects" : [

                                                    ],
                                                    "start" : 152,
                                                    "duration" : 6,
                                                    "mediaStart" : 0,
                                                    "mediaDuration" : 1,
                                                    "scalar" : 1,
                                                    "metadata" : {
                                                      "clipSpeedAttribute" : false
                                                    },
                                                    "animationTracks" : {

                                                    }
                                                  },
                                                  {
                                                    "id" : 193,
                                                    "_type" : "IMFile",
                                                    "src" : 21,
                                                    "trackNumber" : 0,
                                                    "trimStartSum" : 0,
                                                    "attributes" : {
                                                      "ident" : "wave2"
                                                    },
                                                    "parameters" : {
                                                      "translation0" : 0.880498533167186,
                                                      "translation1" : -88.087642172052,
                                                      "scale0" : 1.03068101042332,
                                                      "scale1" : 1.03068101042332
                                                    },
                                                    "effects" : [

                                                    ],
                                                    "start" : 158,
                                                    "duration" : 6,
                                                    "mediaStart" : 0,
                                                    "mediaDuration" : 1,
                                                    "scalar" : 1,
                                                    "metadata" : {
                                                      "clipSpeedAttribute" : false
                                                    },
                                                    "animationTracks" : {

                                                    }
                                                  },
                                                  {
                                                    "id" : 194,
                                                    "_type" : "IMFile",
                                                    "src" : 22,
                                                    "trackNumber" : 0,
                                                    "trimStartSum" : 0,
                                                    "attributes" : {
                                                      "ident" : "wave3"
                                                    },
                                                    "parameters" : {
                                                      "translation0" : -1.11950146655987,
                                                      "translation1" : 8.12143442823202,
                                                      "scale0" : 1.00893326326855,
                                                      "scale1" : 1.00893326326855
                                                    },
                                                    "effects" : [

                                                    ],
                                                    "start" : 164,
                                                    "duration" : 7,
                                                    "mediaStart" : 0,
                                                    "mediaDuration" : 1,
                                                    "scalar" : 1,
                                                    "metadata" : {
                                                      "clipSpeedAttribute" : false
                                                    },
                                                    "animationTracks" : {

                                                    }
                                                  },
                                                  {
                                                    "id" : 195,
                                                    "_type" : "IMFile",
                                                    "src" : 20,
                                                    "trackNumber" : 0,
                                                    "trimStartSum" : 0,
                                                    "attributes" : {
                                                      "ident" : "wave1"
                                                    },
                                                    "parameters" : {
                                                      "translation0" : -2.11950146613311,
                                                      "translation1" : 8.96940103546206,
                                                      "scale0" : 1.02884111169424,
                                                      "scale1" : 1.02884111169424
                                                    },
                                                    "effects" : [

                                                    ],
                                                    "start" : 171,
                                                    "duration" : 6,
                                                    "mediaStart" : 0,
                                                    "mediaDuration" : 1,
                                                    "scalar" : 1,
                                                    "metadata" : {
                                                      "clipSpeedAttribute" : false
                                                    },
                                                    "animationTracks" : {

                                                    }
                                                  },
                                                  {
                                                    "id" : 196,
                                                    "_type" : "IMFile",
                                                    "src" : 21,
                                                    "trackNumber" : 0,
                                                    "trimStartSum" : 0,
                                                    "attributes" : {
                                                      "ident" : "wave2"
                                                    },
                                                    "parameters" : {
                                                      "translation0" : 0.880498533167186,
                                                      "translation1" : -88.087642172052,
                                                      "scale0" : 1.03068101042332,
                                                      "scale1" : 1.03068101042332
                                                    },
                                                    "effects" : [

                                                    ],
                                                    "start" : 177,
                                                    "duration" : 6,
                                                    "mediaStart" : 0,
                                                    "mediaDuration" : 1,
                                                    "scalar" : 1,
                                                    "metadata" : {
                                                      "clipSpeedAttribute" : false
                                                    },
                                                    "animationTracks" : {

                                                    }
                                                  },
                                                  {
                                                    "id" : 197,
                                                    "_type" : "IMFile",
                                                    "src" : 22,
                                                    "trackNumber" : 0,
                                                    "trimStartSum" : 0,
                                                    "attributes" : {
                                                      "ident" : "wave3"
                                                    },
                                                    "parameters" : {
                                                      "translation0" : -1.11950146655987,
                                                      "translation1" : 8.12143442823202,
                                                      "scale0" : 1.00893326326855,
                                                      "scale1" : 1.00893326326855
                                                    },
                                                    "effects" : [

                                                    ],
                                                    "start" : 183,
                                                    "duration" : 7,
                                                    "mediaStart" : 0,
                                                    "mediaDuration" : 1,
                                                    "scalar" : 1,
                                                    "metadata" : {
                                                      "clipSpeedAttribute" : false
                                                    },
                                                    "animationTracks" : {

                                                    }
                                                  },
                                                  {
                                                    "id" : 198,
                                                    "_type" : "IMFile",
                                                    "src" : 20,
                                                    "trackNumber" : 0,
                                                    "trimStartSum" : 0,
                                                    "attributes" : {
                                                      "ident" : "wave1"
                                                    },
                                                    "parameters" : {
                                                      "translation0" : -2.11950146613311,
                                                      "translation1" : 8.96940103546206,
                                                      "scale0" : 1.02884111169424,
                                                      "scale1" : 1.02884111169424
                                                    },
                                                    "effects" : [

                                                    ],
                                                    "start" : 190,
                                                    "duration" : 6,
                                                    "mediaStart" : 0,
                                                    "mediaDuration" : 1,
                                                    "scalar" : 1,
                                                    "metadata" : {
                                                      "clipSpeedAttribute" : false
                                                    },
                                                    "animationTracks" : {

                                                    }
                                                  },
                                                  {
                                                    "id" : 199,
                                                    "_type" : "IMFile",
                                                    "src" : 21,
                                                    "trackNumber" : 0,
                                                    "trimStartSum" : 0,
                                                    "attributes" : {
                                                      "ident" : "wave2"
                                                    },
                                                    "parameters" : {
                                                      "translation0" : 0.880498533167186,
                                                      "translation1" : -88.087642172052,
                                                      "scale0" : 1.03068101042332,
                                                      "scale1" : 1.03068101042332
                                                    },
                                                    "effects" : [

                                                    ],
                                                    "start" : 196,
                                                    "duration" : 4,
                                                    "mediaStart" : 0,
                                                    "mediaDuration" : 1,
                                                    "scalar" : 1,
                                                    "metadata" : {
                                                      "clipSpeedAttribute" : false
                                                    },
                                                    "animationTracks" : {

                                                    }
                                                  }
                                                ],
                                                  "ident" : "",
                                                  "audioMuted" : false,
                                                  "videoHidden" : false,
                                                  "magnetic" : false,
                                                  "matte" : 0,
                                                  "metadata" : {
                                                    "IsLocked" : "False",
                                                    "WinTrackHeight" : "0"
                                                  }
                                              },
                                              {
                                                "trackIndex" : 1,
                                                "medias" : [
                                                  {
                                                    "id" : 200,
                                                    "_type" : "IMFile",
                                                    "src" : 23,
                                                    "trackNumber" : 0,
                                                    "trimStartSum" : 0,
                                                    "attributes" : {
                                                      "ident" : "control-plane-128"
                                                    },
                                                    "parameters" : {
                                                      "translation0" : -785.119501466663,
                                                      "translation1" : 199.818754449228
                                                    },
                                                    "effects" : [

                                                    ],
                                                    "start" : 0,
                                                    "duration" : 19,
                                                    "mediaStart" : 0,
                                                    "mediaDuration" : 1,
                                                    "scalar" : 1,
                                                    "metadata" : {
                                                      "clipSpeedAttribute" : false
                                                    },
                                                    "animationTracks" : {

                                                    }
                                                  },
                                                  {
                                                    "id" : 201,
                                                    "_type" : "IMFile",
                                                    "src" : 24,
                                                    "trackNumber" : 0,
                                                    "trimStartSum" : 0,
                                                    "attributes" : {
                                                      "ident" : "etcd-128"
                                                    },
                                                    "parameters" : {
                                                      "translation0" : -655.119501466745,
                                                      "translation1" : 120.373795393553
                                                    },
                                                    "effects" : [

                                                    ],
                                                    "start" : 19,
                                                    "duration" : 22,
                                                    "mediaStart" : 0,
                                                    "mediaDuration" : 1,
                                                    "scalar" : 1,
                                                    "metadata" : {
                                                      "clipSpeedAttribute" : false
                                                    },
                                                    "animationTracks" : {

                                                    }
                                                  },
                                                  {
                                                    "id" : 202,
                                                    "_type" : "IMFile",
                                                    "src" : 25,
                                                    "trackNumber" : 0,
                                                    "trimStartSum" : 0,
                                                    "attributes" : {
                                                      "ident" : "node-128"
                                                    },
                                                    "parameters" : {
                                                      "translation0" : -315.119501466444,
                                                      "translation1" : 135.818754449343
                                                    },
                                                    "effects" : [

                                                    ],
                                                    "start" : 41,
                                                    "duration" : 18,
                                                    "mediaStart" : 0,
                                                    "mediaDuration" : 1,
                                                    "scalar" : 1,
                                                    "metadata" : {
                                                      "clipSpeedAttribute" : false
                                                    },
                                                    "animationTracks" : {

                                                    }
                                                  },
                                                  {
                                                    "id" : 203,
                                                    "_type" : "IMFile",
                                                    "src" : 26,
                                                    "trackNumber" : 0,
                                                    "trimStartSum" : 0,
                                                    "attributes" : {
                                                      "ident" : "ns-128"
                                                    },
                                                    "parameters" : {
                                                      "translation0" : -345.11950146672,
                                                      "translation1" : 158.121434428201
                                                    },
                                                    "effects" : [

                                                    ],
                                                    "start" : 59,
                                                    "duration" : 23,
                                                    "mediaStart" : 0,
                                                    "mediaDuration" : 1,
                                                    "scalar" : 1,
                                                    "metadata" : {
                                                      "clipSpeedAttribute" : false
                                                    },
                                                    "animationTracks" : {

                                                    }
                                                  },
                                                  {
                                                    "id" : 204,
                                                    "_type" : "IMFile",
                                                    "src" : 27,
                                                    "trackNumber" : 0,
                                                    "trimStartSum" : 0,
                                                    "attributes" : {
                                                      "ident" : "pod-128"
                                                    },
                                                    "parameters" : {
                                                      "translation0" : -91.1195014666742,
                                                      "translation1" : 100.121434428219
                                                    },
                                                    "effects" : [

                                                    ],
                                                    "start" : 82,
                                                    "duration" : 16,
                                                    "mediaStart" : 0,
                                                    "mediaDuration" : 1,
                                                    "scalar" : 1,
                                                    "metadata" : {
                                                      "clipSpeedAttribute" : false
                                                    },
                                                    "animationTracks" : {

                                                    }
                                                  },
                                                  {
                                                    "id" : 205,
                                                    "_type" : "IMFile",
                                                    "src" : 28,
                                                    "trackNumber" : 0,
                                                    "trimStartSum" : 0,
                                                    "attributes" : {
                                                      "ident" : "secret-128"
                                                    },
                                                    "parameters" : {
                                                      "translation0" : -1.11950146666447,
                                                      "translation1" : 140.121434428194
                                                    },
                                                    "effects" : [

                                                    ],
                                                    "start" : 98,
                                                    "duration" : 17,
                                                    "mediaStart" : 0,
                                                    "mediaDuration" : 1,
                                                    "scalar" : 1,
                                                    "metadata" : {
                                                      "clipSpeedAttribute" : false
                                                    },
                                                    "animationTracks" : {

                                                    }
                                                  },
                                                  {
                                                    "id" : 206,
                                                    "_type" : "IMFile",
                                                    "src" : 29,
                                                    "trackNumber" : 0,
                                                    "trimStartSum" : 0,
                                                    "attributes" : {
                                                      "ident" : "svc-128"
                                                    },
                                                    "parameters" : {
                                                      "translation0" : 258.880498533338,
                                                      "translation1" : 112.121434428216
                                                    },
                                                    "effects" : [

                                                    ],
                                                    "start" : 115,
                                                    "duration" : 14,
                                                    "mediaStart" : 0,
                                                    "mediaDuration" : 1,
                                                    "scalar" : 1,
                                                    "metadata" : {
                                                      "clipSpeedAttribute" : false
                                                    },
                                                    "animationTracks" : {

                                                    }
                                                  },
                                                  {
                                                    "id" : 207,
                                                    "_type" : "IMFile",
                                                    "src" : 29,
                                                    "trackNumber" : 0,
                                                    "trimStartSum" : 0,
                                                    "attributes" : {
                                                      "ident" : "svc-128"
                                                    },
                                                    "parameters" : {
                                                      "translation0" : 346.880498533407,
                                                      "translation1" : 120.121434428205
                                                    },
                                                    "effects" : [

                                                    ],
                                                    "start" : 129,
                                                    "duration" : 14,
                                                    "mediaStart" : 0,
                                                    "mediaDuration" : 1,
                                                    "scalar" : 1,
                                                    "metadata" : {
                                                      "clipSpeedAttribute" : false
                                                    },
                                                    "animationTracks" : {

                                                    }
                                                  },
                                                  {
                                                    "id" : 208,
                                                    "_type" : "IMFile",
                                                    "src" : 30,
                                                    "trackNumber" : 0,
                                                    "trimStartSum" : 0,
                                                    "attributes" : {
                                                      "ident" : "rs-128"
                                                    },
                                                    "parameters" : {
                                                      "translation0" : 480.880498533387,
                                                      "translation1" : 158.1214344282
                                                    },
                                                    "effects" : [

                                                    ],
                                                    "start" : 143,
                                                    "duration" : 13,
                                                    "mediaStart" : 0,
                                                    "mediaDuration" : 1,
                                                    "scalar" : 1,
                                                    "metadata" : {
                                                      "clipSpeedAttribute" : false
                                                    },
                                                    "animationTracks" : {

                                                    }
                                                  },
                                                  {
                                                    "id" : 209,
                                                    "_type" : "IMFile",
                                                    "src" : 31,
                                                    "trackNumber" : 0,
                                                    "trimStartSum" : 0,
                                                    "attributes" : {
                                                      "ident" : "vol-128"
                                                    },
                                                    "parameters" : {
                                                      "translation0" : 560.880498533409,
                                                      "translation1" : 136.121434428193
                                                    },
                                                    "effects" : [

                                                    ],
                                                    "start" : 156,
                                                    "duration" : 14,
                                                    "mediaStart" : 0,
                                                    "mediaDuration" : 1,
                                                    "scalar" : 1,
                                                    "metadata" : {
                                                      "clipSpeedAttribute" : false
                                                    },
                                                    "animationTracks" : {

                                                    }
                                                  },
                                                  {
                                                    "id" : 210,
                                                    "_type" : "IMFile",
                                                    "src" : 32,
                                                    "trackNumber" : 0,
                                                    "trimStartSum" : 0,
                                                    "attributes" : {
                                                      "ident" : "deploy-128"
                                                    },
                                                    "parameters" : {
                                                      "translation0" : 716.880498533367,
                                                      "translation1" : 84.1214344281821
                                                    },
                                                    "effects" : [

                                                    ],
                                                    "start" : 170,
                                                    "duration" : 13,
                                                    "mediaStart" : 0,
                                                    "mediaDuration" : 1,
                                                    "scalar" : 1,
                                                    "metadata" : {
                                                      "clipSpeedAttribute" : false
                                                    },
                                                    "animationTracks" : {

                                                    }
                                                  },
                                                  {
                                                    "id" : 211,
                                                    "_type" : "IMFile",
                                                    "src" : 33,
                                                    "trackNumber" : 0,
                                                    "trimStartSum" : 0,
                                                    "attributes" : {
                                                      "ident" : "cronjob-128"
                                                    },
                                                    "parameters" : {
                                                      "translation0" : 870.880498533812,
                                                      "translation1" : 135.81875444932
                                                    },
                                                    "effects" : [

                                                    ],
                                                    "start" : 183,
                                                    "duration" : 17,
                                                    "mediaStart" : 0,
                                                    "mediaDuration" : 1,
                                                    "scalar" : 1,
                                                    "metadata" : {
                                                      "clipSpeedAttribute" : false
                                                    },
                                                    "animationTracks" : {

                                                    }
                                                  }
                                                ],
                                                  "ident" : "",
                                                  "audioMuted" : false,
                                                  "videoHidden" : false,
                                                  "magnetic" : false,
                                                  "matte" : 0,
                                                  "metadata" : {
                                                    "IsLocked" : "False",
                                                    "WinTrackHeight" : "3.6077993365582e-314"
                                                  }
                                              }
                                            ],
                                            "attributes" : {
                                              "ident" : "Group 1",
                                              "gain" : 1.0,
                                              "mixToMono" : false
                                            },
                                            "effects" : [

                                            ],
                                            "start" : 0,
                                            "duration" : 200,
                                            "mediaStart" : 0.0,
                                            "mediaDuration" : 200.0,
                                            "scalar" : 1,
                                            "metadata" : {
                                              "IsGroupExpanded" : "False"
                                            },
                                            "animationTracks" : {

                                            }
                                          }
                                        ],
                                          "ident" : "",
                                          "audioMuted" : false,
                                          "videoHidden" : false,
                                          "magnetic" : false,
                                          "matte" : 0,
                                          "metadata" : {
                                            "IsLocked" : "False",
                                            "WinTrackHeight" : "0"
                                          }
                                      },
                                      {
                                        "trackIndex" : 1,
                                        "medias" : [
                                          {
                                            "id" : 212,
                                            "_type" : "IMFile",
                                            "src" : 34,
                                            "trackNumber" : 0,
                                            "trimStartSum" : 0,
                                            "attributes" : {
                                              "ident" : "k8sfavicon"
                                            },
                                            "parameters" : {
                                              "translation0" : -822.559750733209,
                                              "translation1" : 466.970094438544,
                                              "scale0" : 0.335937500000757,
                                              "scale1" : 0.335937500000757
                                            },
                                            "effects" : [

                                            ],
                                            "start" : 0,
                                            "duration" : 200,
                                            "mediaStart" : 0,
                                            "mediaDuration" : 1,
                                            "scalar" : 1,
                                            "metadata" : {
                                              "clipSpeedAttribute" : false
                                            },
                                            "animationTracks" : {

                                            }
                                          }
                                        ],
                                          "ident" : "",
                                          "audioMuted" : false,
                                          "videoHidden" : false,
                                          "magnetic" : false,
                                          "matte" : 0,
                                          "metadata" : {
                                            "IsLocked" : "False",
                                            "WinTrackHeight" : "3.6077993365582e-314"
                                          }
                                      }
                                    ],
                                    "attributes" : {
                                      "ident" : "Group 2",
                                      "gain" : 1.0,
                                      "mixToMono" : false
                                    },
                                    "effects" : [

                                    ],
                                    "start" : 0,
                                    "duration" : 200,
                                    "mediaStart" : 0.0,
                                    "mediaDuration" : 200.0,
                                    "scalar" : 1,
                                    "metadata" : {
                                      "IsGroupExpanded" : "False"
                                    },
                                    "animationTracks" : {

                                    }
                                  }
                                ],
                                  "ident" : "",
                                  "audioMuted" : false,
                                  "videoHidden" : false,
                                  "magnetic" : false,
                                  "matte" : 0,
                                  "metadata" : {
                                    "IsLocked" : "False",
                                    "WinTrackHeight" : "0"
                                  }
                              },
                              {
                                "trackIndex" : 1,
                                "medias" : [
                                  {
                                    "id" : 213,
                                    "_type" : "AMFile",
                                    "src" : 35,
                                    "trackNumber" : 0,
                                    "attributes" : {
                                      "ident" : "wave",
                                      "gain" : 1.0,
                                      "mixToMono" : false
                                    },
                                      "channelNumber" : "0,1",
                                    "parameters" : {
                                      "volume" : {
                                        "type" : "double",
                                        "keyframes" : [
                                          {
                                            "endTime" : -1,
                                            "time" : -1,
                                            "value" : 1.0,
                                            "duration" : 0
                                          },
                                          {
                                            "endTime" : 0,
                                            "time" : 0,
                                            "value" : 0.0,
                                            "duration" : 0
                                          },
                                          {
                                            "endTime" : 51,
                                            "time" : 51,
                                            "value" : 0.5,
                                            "duration" : 0
                                          }
                                        ]
                                      }
                                    },
                                    "effects" : [

                                    ],
                                    "start" : 0,
                                    "duration" : 103,
                                    "mediaStart" : 0,
                                    "mediaDuration" : 103,
                                    "scalar" : 1,
                                    "metadata" : {
                                      "clipSpeedAttribute" : false
                                    },
                                    "animationTracks" : {

                                    }
                                  },
                                  {
                                    "id" : 214,
                                    "_type" : "AMFile",
                                    "src" : 35,
                                    "trackNumber" : 0,
                                    "attributes" : {
                                      "ident" : "wave",
                                      "gain" : 1.0,
                                      "mixToMono" : false
                                    },
                                      "channelNumber" : "0,1",
                                    "parameters" : {
                                      "volume" : {
                                        "type" : "double",
                                        "keyframes" : [
                                          {
                                            "endTime" : 0,
                                            "time" : 0,
                                            "value" : 0.823930776854464,
                                            "duration" : 0
                                          },
                                          {
                                            "endTime" : 115,
                                            "time" : 115,
                                            "value" : 0.400853853777541,
                                            "duration" : 0
                                          },
                                          {
                                            "endTime" : 200,
                                            "time" : 200,
                                            "value" : 0.0,
                                            "duration" : 0
                                          },
                                          {
                                            "endTime" : 201,
                                            "time" : 201,
                                            "value" : 1.0,
                                            "duration" : 0
                                          }
                                        ]
                                      }
                                    },
                                    "effects" : [

                                    ],
                                    "start" : 103,
                                    "duration" : 97,
                                    "mediaStart" : 103,
                                    "mediaDuration" : 97,
                                    "scalar" : 1,
                                    "metadata" : {
                                      "clipSpeedAttribute" : false
                                    },
                                    "animationTracks" : {

                                    }
                                  }
                                ],
                                  "ident" : "",
                                  "audioMuted" : false,
                                  "videoHidden" : false,
                                  "magnetic" : false,
                                  "matte" : 0,
                                  "metadata" : {
                                    "IsLocked" : "False",
                                    "WinTrackHeight" : "2.26715762571713e-312"
                                  }
                              }
                            ],
                            "attributes" : {
                              "ident" : "Group 1",
                              "gain" : 1.0,
                              "mixToMono" : false
                            },
                            "effects" : [

                            ],
                            "start" : 0,
                            "duration" : 200,
                            "mediaStart" : 0.0,
                            "mediaDuration" : 200.0,
                            "scalar" : 1,
                            "metadata" : {
                              "IsGroupExpanded" : "False"
                            },
                            "animationTracks" : {

                            }
                          }
                        ],
                          "ident" : "",
                          "audioMuted" : false,
                          "videoHidden" : false,
                          "magnetic" : false,
                          "matte" : 0,
                          "metadata" : {
                            "IsLocked" : "False",
                            "WinTrackHeight" : "4.44062837159895e-312"
                          }
                      }
                    ],
                    "attributes" : {
                      "ident" : "start",
                      "gain" : 1.0,
                      "mixToMono" : false
                    },
                    "effects" : [

                    ],
                    "start" : 0,
                    "duration" : 200,
                    "mediaStart" : 0.0,
                    "mediaDuration" : 200.0,
                    "scalar" : 1,
                    "metadata" : {
                      "IsGroupExpanded" : "False"
                    },
                    "animationTracks" : {

                    }
                  },
                  {
                    "id" : 215,
                    "_type" : "Group",
                    "parameters" : {
                      "volume" : 1.0
                    },
                    "tracks" : [
                      {
                        "trackIndex" : 0,
                        "medias" : [
                          {
                            "id" : 216,
                            "_type" : "Callout",
                            "def" : {
                              "kind" : "remix",
                              "shape" : "text",
                              "style" : "basic",
                              "height" : 294.0,
                              "line-spacing" : 0.0,
                              "width" : 1174.38904109587,
                              "word-wrap" : 1.0,
                              "horizontal-alignment" : "center",
                              "resize-behavior" : "resizeText",
                              "text" : "Thanks",
                              "vertical-alignment" : "center",
                              "font" : {
                                "color-blue" : 1.0,
                                "color-green" : 1.0,
                                "color-red" : 1.0,
                                "size" : 96.0,
                                "tracking" : 0.0,
                                "name" : "Montserrat",
                                "weight" : "Regular"
                              },
                              "textAttributes" : {
                                "type" : "textAttributeList",
                                "keyframes" : [
                                  {
                                    "endTime" : 0,
                                    "time" : 0,
                                    "value" : [{"name":"fontWeight","rangeEnd":6,"rangeStart":0,"value":700,"valueType":"int"},{"name":"fontName","rangeEnd":6,"rangeStart":0,"value":"Montserrat","valueType":"string"},{"name":"fontItalic","rangeEnd":6,"rangeStart":0,"value":0,"valueType":"int"},{"name":"kerning","rangeEnd":6,"rangeStart":0,"value":0,"valueType":"double"},{"name":"strikethrough","rangeEnd":6,"rangeStart":0,"value":0,"valueType":"int"},{"name":"fgColor","rangeEnd":6,"rangeStart":0,"value":"(50,108,229,255)","valueType":"color"},{"name":"underline","rangeEnd":6,"rangeStart":0,"value":0,"valueType":"int"},{"name":"fontSize","rangeEnd":6,"rangeStart":0,"value":240,"valueType":"double"}],
                                    "duration" : 0
                                  }
                                ]
                              }
                            },
                            "attributes" : {
                              "autoRotateText" : true
                            },
                            "parameters" : {
                              "translation0" : -22.4178082191042,
                              "translation1" : 1.319122588261e-11
                            },
                            "effects" : [
                                {
                                  "_type" : "GenericBehaviorEffect",
                                  "effectName" : "pulsating",
                                  "start" : -102,
                                  "duration" : 200                                ,
                                  "in" : {
                                    "attributes" : {
                                      "name" : "grow",
                                      "type" : 1,
                                      "characterOrder" : 6,
                                      "offsetBetweenCharacters" : 1,
                                      "suggestedDurationPerCharacter" : 18,
                                      "overlapProportion" : "3/4",
                                      "movement" : 30,
                                      "springDamping" : 5.0,
                                      "springStiffness" : 50.0,
                                      "bounceBounciness" : 0.45
                                    }
                                  
                                  },
                                  "center" : {
                                    "attributes" : {
                                      "name" : "pulsate",
                                      "type" : 1,
                                      "characterOrder" : 6,
                                      "offsetBetweenCharacters" : "21/10",
                                      "secondsPerLoop" : 1,
                                      "numberOfLoops" : -1,
                                      "delayBetweenLoops" : 0,
                                      "offsetBetweenCharacters" : "21/10"
                                    },
                                    "parameters" : {
                                      "movement" : {
                                        "type" : "int",
                                        "valueBounds" : {
                                          "minValue" : 0,
                                          "maxValue" : 31,
                                          "defaultValue" : 27
                                        },
                                        "uiHints" : {
                                          "userInterfaceType" : 4,
                                          "unitType" : 0
                                        },
                                        "keyframes" : [
                                          {
                                            "endTime" : 0,
                                            "time" : 0,
                                            "value" : 27,
                                            "duration" : 0
                                          }
                                        ]
                                      },
                                      "scale" : {
                                        "type" : "double",
                                        "defaultValue" : 1.08,
                                        "valueBounds" : {
                                          "minValue" : 0.01,
                                          "maxValue" : 2.0,
                                          "defaultValue" : 1.08
                                        },
                                        "uiHints" : {
                                          "userInterfaceType" : 1,
                                          "unitType" : 1
                                        }
                                      }
                                    }
                                  
                                  },
                                  "out" : {
                                    "attributes" : {
                                      "name" : "shrink",
                                      "type" : 1,
                                      "characterOrder" : 6,
                                      "offsetBetweenCharacters" : 1,
                                      "suggestedDurationPerCharacter" : "29/2",
                                      "overlapProportion" : "1/10",
                                      "movement" : 11,
                                      "springDamping" : 5.0,
                                      "springStiffness" : 50.0,
                                      "bounceBounciness" : 0.45
                                    }
                                  
                                  }
                                }
                            ],
                            "start" : 0,
                            "duration" : 103,
                            "mediaStart" : -102,
                            "mediaDuration" : 103,
                            "scalar" : 1,
                            "metadata" : {
                              "clipSpeedAttribute" : false
                            },
                            "animationTracks" : {

                            }
                          },
                          {
                            "id" : 217,
                            "_type" : "Callout",
                            "def" : {
                              "kind" : "remix",
                              "shape" : "text",
                              "style" : "basic",
                              "height" : 294.0,
                              "line-spacing" : 0.0,
                              "width" : 1174.38904109587,
                              "word-wrap" : 1.0,
                              "horizontal-alignment" : "center",
                              "resize-behavior" : "resizeText",
                              "text" : "Thanks",
                              "vertical-alignment" : "center",
                              "font" : {
                                "color-blue" : 1.0,
                                "color-green" : 1.0,
                                "color-red" : 1.0,
                                "size" : 96.0,
                                "tracking" : 0.0,
                                "name" : "Montserrat",
                                "weight" : "Regular"
                              },
                              "textAttributes" : {
                                "type" : "textAttributeList",
                                "keyframes" : [
                                  {
                                    "endTime" : 0,
                                    "time" : 0,
                                    "value" : [{"name":"fontName","rangeEnd":6,"rangeStart":0,"value":"Montserrat","valueType":"string"},{"name":"kerning","rangeEnd":6,"rangeStart":0,"value":0,"valueType":"double"},{"name":"strikethrough","rangeEnd":6,"rangeStart":0,"value":0,"valueType":"int"},{"name":"fontSize","rangeEnd":6,"rangeStart":0,"value":240,"valueType":"double"},{"name":"fontItalic","rangeEnd":6,"rangeStart":0,"value":0,"valueType":"int"},{"name":"fontWeight","rangeEnd":6,"rangeStart":0,"value":700,"valueType":"int"},{"name":"fgColor","rangeEnd":6,"rangeStart":0,"value":"(50,108,229,255)","valueType":"color"},{"name":"underline","rangeEnd":6,"rangeStart":0,"value":0,"valueType":"int"}],
                                    "duration" : 0
                                  }
                                ]
                              }
                            },
                            "attributes" : {
                              "autoRotateText" : true
                            },
                            "parameters" : {
                              "translation0" : -74.4178082188969,
                              "translation1" : 4.13429290734252e-11
                            },
                            "effects" : [
                                {
                                  "_type" : "GenericBehaviorEffect",
                                  "effectName" : "pulsating",
                                  "start" : -102,
                                  "duration" : 200                                ,
                                  "in" : {
                                    "attributes" : {
                                      "name" : "grow",
                                      "type" : 1,
                                      "characterOrder" : 6,
                                      "offsetBetweenCharacters" : 1,
                                      "suggestedDurationPerCharacter" : 18,
                                      "overlapProportion" : "3/4",
                                      "movement" : 30,
                                      "springDamping" : 5.0,
                                      "springStiffness" : 50.0,
                                      "bounceBounciness" : 0.45
                                    }
                                  
                                  },
                                  "center" : {
                                    "attributes" : {
                                      "name" : "pulsate",
                                      "type" : 1,
                                      "characterOrder" : 6,
                                      "offsetBetweenCharacters" : "21/10",
                                      "secondsPerLoop" : 1,
                                      "numberOfLoops" : -1,
                                      "delayBetweenLoops" : 0,
                                      "offsetBetweenCharacters" : "21/10"
                                    },
                                    "parameters" : {
                                      "movement" : {
                                        "type" : "int",
                                        "valueBounds" : {
                                          "minValue" : 0,
                                          "maxValue" : 31,
                                          "defaultValue" : 27
                                        },
                                        "uiHints" : {
                                          "userInterfaceType" : 4,
                                          "unitType" : 0
                                        },
                                        "keyframes" : [
                                          {
                                            "endTime" : 0,
                                            "time" : 0,
                                            "value" : 27,
                                            "duration" : 0
                                          }
                                        ]
                                      },
                                      "scale" : {
                                        "type" : "double",
                                        "defaultValue" : 1.08,
                                        "valueBounds" : {
                                          "minValue" : 0.01,
                                          "maxValue" : 2.0,
                                          "defaultValue" : 1.08
                                        },
                                        "uiHints" : {
                                          "userInterfaceType" : 1,
                                          "unitType" : 1
                                        }
                                      }
                                    }
                                  
                                  },
                                  "out" : {
                                    "attributes" : {
                                      "name" : "shrink",
                                      "type" : 1,
                                      "characterOrder" : 6,
                                      "offsetBetweenCharacters" : 1,
                                      "suggestedDurationPerCharacter" : "29/2",
                                      "overlapProportion" : "1/10",
                                      "movement" : 11,
                                      "springDamping" : 5.0,
                                      "springStiffness" : 50.0,
                                      "bounceBounciness" : 0.45
                                    }
                                  
                                  }
                                }
                            ],
                            "start" : 103,
                            "duration" : 97,
                            "mediaStart" : 1,
                            "mediaDuration" : 97,
                            "scalar" : 1,
                            "metadata" : {
                              "clipSpeedAttribute" : false
                            },
                            "animationTracks" : {

                            }
                          }
                        ],
                          "ident" : "",
                          "audioMuted" : false,
                          "videoHidden" : false,
                          "magnetic" : false,
                          "matte" : 0,
                          "metadata" : {
                            "IsLocked" : "False",
                            "WinTrackHeight" : "0"
                          }
                      },
                      {
                        "trackIndex" : 1,
                        "medias" : [
                          {
                            "id" : 218,
                            "_type" : "Group",
                            "parameters" : {
                              "translation0" : 0.559750733332294,
                              "translation1" : -34.4850472193567,
                              "volume" : 1.0
                            },
                            "tracks" : [
                              {
                                "trackIndex" : 0,
                                "medias" : [
                                  {
                                    "id" : 219,
                                    "_type" : "Group",
                                    "parameters" : {
                                      "translation0" : 4.44089209850063e-16,
                                      "translation1" : -34.4850472193565,
                                      "volume" : 1.0
                                    },
                                    "tracks" : [
                                      {
                                        "trackIndex" : 0,
                                        "medias" : [
                                          {
                                            "id" : 220,
                                            "_type" : "Group",
                                            "parameters" : {
                                              "translation0" : 0.55975073333218,
                                              "translation1" : -289.15133998951,
                                              "volume" : 1.0
                                            },
                                            "tracks" : [
                                              {
                                                "trackIndex" : 0,
                                                "medias" : [
                                                  {
                                                    "id" : 221,
                                                    "_type" : "IMFile",
                                                    "src" : 4,
                                                    "trackNumber" : 0,
                                                    "trimStartSum" : 0,
                                                    "attributes" : {
                                                      "ident" : "wave1"
                                                    },
                                                    "parameters" : {
                                                      "translation0" : -2.11950146613311,
                                                      "translation1" : 8.96940103546206,
                                                      "scale0" : 1.02884111169424,
                                                      "scale1" : 1.02884111169424
                                                    },
                                                    "effects" : [

                                                    ],
                                                    "start" : 0,
                                                    "duration" : 6,
                                                    "mediaStart" : 0,
                                                    "mediaDuration" : 1,
                                                    "scalar" : 1,
                                                    "metadata" : {
                                                      "clipSpeedAttribute" : false
                                                    },
                                                    "animationTracks" : {

                                                    }
                                                  },
                                                  {
                                                    "id" : 222,
                                                    "_type" : "IMFile",
                                                    "src" : 5,
                                                    "trackNumber" : 0,
                                                    "trimStartSum" : 0,
                                                    "attributes" : {
                                                      "ident" : "wave2"
                                                    },
                                                    "parameters" : {
                                                      "translation0" : 0.880498533167186,
                                                      "translation1" : -88.087642172052,
                                                      "scale0" : 1.03068101042332,
                                                      "scale1" : 1.03068101042332
                                                    },
                                                    "effects" : [

                                                    ],
                                                    "start" : 6,
                                                    "duration" : 6,
                                                    "mediaStart" : 0,
                                                    "mediaDuration" : 1,
                                                    "scalar" : 1,
                                                    "metadata" : {
                                                      "clipSpeedAttribute" : false
                                                    },
                                                    "animationTracks" : {

                                                    }
                                                  },
                                                  {
                                                    "id" : 223,
                                                    "_type" : "IMFile",
                                                    "src" : 6,
                                                    "trackNumber" : 0,
                                                    "trimStartSum" : 0,
                                                    "attributes" : {
                                                      "ident" : "wave3"
                                                    },
                                                    "parameters" : {
                                                      "translation0" : -1.11950146655987,
                                                      "translation1" : 8.12143442823202,
                                                      "scale0" : 1.00893326326855,
                                                      "scale1" : 1.00893326326855
                                                    },
                                                    "effects" : [

                                                    ],
                                                    "start" : 12,
                                                    "duration" : 7,
                                                    "mediaStart" : 0,
                                                    "mediaDuration" : 1,
                                                    "scalar" : 1,
                                                    "metadata" : {
                                                      "clipSpeedAttribute" : false
                                                    },
                                                    "animationTracks" : {

                                                    }
                                                  },
                                                  {
                                                    "id" : 224,
                                                    "_type" : "IMFile",
                                                    "src" : 4,
                                                    "trackNumber" : 0,
                                                    "trimStartSum" : 0,
                                                    "attributes" : {
                                                      "ident" : "wave1"
                                                    },
                                                    "parameters" : {
                                                      "translation0" : -2.11950146613311,
                                                      "translation1" : 8.96940103546206,
                                                      "scale0" : 1.02884111169424,
                                                      "scale1" : 1.02884111169424
                                                    },
                                                    "effects" : [

                                                    ],
                                                    "start" : 19,
                                                    "duration" : 6,
                                                    "mediaStart" : 0,
                                                    "mediaDuration" : 1,
                                                    "scalar" : 1,
                                                    "metadata" : {
                                                      "clipSpeedAttribute" : false
                                                    },
                                                    "animationTracks" : {

                                                    }
                                                  },
                                                  {
                                                    "id" : 225,
                                                    "_type" : "IMFile",
                                                    "src" : 5,
                                                    "trackNumber" : 0,
                                                    "trimStartSum" : 0,
                                                    "attributes" : {
                                                      "ident" : "wave2"
                                                    },
                                                    "parameters" : {
                                                      "translation0" : 0.880498533167186,
                                                      "translation1" : -88.087642172052,
                                                      "scale0" : 1.03068101042332,
                                                      "scale1" : 1.03068101042332
                                                    },
                                                    "effects" : [

                                                    ],
                                                    "start" : 25,
                                                    "duration" : 6,
                                                    "mediaStart" : 0,
                                                    "mediaDuration" : 1,
                                                    "scalar" : 1,
                                                    "metadata" : {
                                                      "clipSpeedAttribute" : false
                                                    },
                                                    "animationTracks" : {

                                                    }
                                                  },
                                                  {
                                                    "id" : 226,
                                                    "_type" : "IMFile",
                                                    "src" : 6,
                                                    "trackNumber" : 0,
                                                    "trimStartSum" : 0,
                                                    "attributes" : {
                                                      "ident" : "wave3"
                                                    },
                                                    "parameters" : {
                                                      "translation0" : -1.11950146655987,
                                                      "translation1" : 8.12143442823202,
                                                      "scale0" : 1.00893326326855,
                                                      "scale1" : 1.00893326326855
                                                    },
                                                    "effects" : [

                                                    ],
                                                    "start" : 31,
                                                    "duration" : 7,
                                                    "mediaStart" : 0,
                                                    "mediaDuration" : 1,
                                                    "scalar" : 1,
                                                    "metadata" : {
                                                      "clipSpeedAttribute" : false
                                                    },
                                                    "animationTracks" : {

                                                    }
                                                  },
                                                  {
                                                    "id" : 227,
                                                    "_type" : "IMFile",
                                                    "src" : 4,
                                                    "trackNumber" : 0,
                                                    "trimStartSum" : 0,
                                                    "attributes" : {
                                                      "ident" : "wave1"
                                                    },
                                                    "parameters" : {
                                                      "translation0" : -2.11950146613311,
                                                      "translation1" : 8.96940103546206,
                                                      "scale0" : 1.02884111169424,
                                                      "scale1" : 1.02884111169424
                                                    },
                                                    "effects" : [

                                                    ],
                                                    "start" : 38,
                                                    "duration" : 6,
                                                    "mediaStart" : 0,
                                                    "mediaDuration" : 1,
                                                    "scalar" : 1,
                                                    "metadata" : {
                                                      "clipSpeedAttribute" : false
                                                    },
                                                    "animationTracks" : {

                                                    }
                                                  },
                                                  {
                                                    "id" : 228,
                                                    "_type" : "IMFile",
                                                    "src" : 5,
                                                    "trackNumber" : 0,
                                                    "trimStartSum" : 0,
                                                    "attributes" : {
                                                      "ident" : "wave2"
                                                    },
                                                    "parameters" : {
                                                      "translation0" : 0.880498533167186,
                                                      "translation1" : -88.087642172052,
                                                      "scale0" : 1.03068101042332,
                                                      "scale1" : 1.03068101042332
                                                    },
                                                    "effects" : [

                                                    ],
                                                    "start" : 44,
                                                    "duration" : 6,
                                                    "mediaStart" : 0,
                                                    "mediaDuration" : 1,
                                                    "scalar" : 1,
                                                    "metadata" : {
                                                      "clipSpeedAttribute" : false
                                                    },
                                                    "animationTracks" : {

                                                    }
                                                  },
                                                  {
                                                    "id" : 229,
                                                    "_type" : "IMFile",
                                                    "src" : 6,
                                                    "trackNumber" : 0,
                                                    "trimStartSum" : 0,
                                                    "attributes" : {
                                                      "ident" : "wave3"
                                                    },
                                                    "parameters" : {
                                                      "translation0" : -1.11950146655987,
                                                      "translation1" : 8.12143442823202,
                                                      "scale0" : 1.00893326326855,
                                                      "scale1" : 1.00893326326855
                                                    },
                                                    "effects" : [

                                                    ],
                                                    "start" : 50,
                                                    "duration" : 7,
                                                    "mediaStart" : 0,
                                                    "mediaDuration" : 1,
                                                    "scalar" : 1,
                                                    "metadata" : {
                                                      "clipSpeedAttribute" : false
                                                    },
                                                    "animationTracks" : {

                                                    }
                                                  },
                                                  {
                                                    "id" : 230,
                                                    "_type" : "IMFile",
                                                    "src" : 4,
                                                    "trackNumber" : 0,
                                                    "trimStartSum" : 0,
                                                    "attributes" : {
                                                      "ident" : "wave1"
                                                    },
                                                    "parameters" : {
                                                      "translation0" : -2.11950146613311,
                                                      "translation1" : 8.96940103546206,
                                                      "scale0" : 1.02884111169424,
                                                      "scale1" : 1.02884111169424
                                                    },
                                                    "effects" : [

                                                    ],
                                                    "start" : 57,
                                                    "duration" : 6,
                                                    "mediaStart" : 0,
                                                    "mediaDuration" : 1,
                                                    "scalar" : 1,
                                                    "metadata" : {
                                                      "clipSpeedAttribute" : false
                                                    },
                                                    "animationTracks" : {

                                                    }
                                                  },
                                                  {
                                                    "id" : 231,
                                                    "_type" : "IMFile",
                                                    "src" : 5,
                                                    "trackNumber" : 0,
                                                    "trimStartSum" : 0,
                                                    "attributes" : {
                                                      "ident" : "wave2"
                                                    },
                                                    "parameters" : {
                                                      "translation0" : 0.880498533167186,
                                                      "translation1" : -88.087642172052,
                                                      "scale0" : 1.03068101042332,
                                                      "scale1" : 1.03068101042332
                                                    },
                                                    "effects" : [

                                                    ],
                                                    "start" : 63,
                                                    "duration" : 6,
                                                    "mediaStart" : 0,
                                                    "mediaDuration" : 1,
                                                    "scalar" : 1,
                                                    "metadata" : {
                                                      "clipSpeedAttribute" : false
                                                    },
                                                    "animationTracks" : {

                                                    }
                                                  },
                                                  {
                                                    "id" : 232,
                                                    "_type" : "IMFile",
                                                    "src" : 6,
                                                    "trackNumber" : 0,
                                                    "trimStartSum" : 0,
                                                    "attributes" : {
                                                      "ident" : "wave3"
                                                    },
                                                    "parameters" : {
                                                      "translation0" : -1.11950146655987,
                                                      "translation1" : 8.12143442823202,
                                                      "scale0" : 1.00893326326855,
                                                      "scale1" : 1.00893326326855
                                                    },
                                                    "effects" : [

                                                    ],
                                                    "start" : 69,
                                                    "duration" : 7,
                                                    "mediaStart" : 0,
                                                    "mediaDuration" : 1,
                                                    "scalar" : 1,
                                                    "metadata" : {
                                                      "clipSpeedAttribute" : false
                                                    },
                                                    "animationTracks" : {

                                                    }
                                                  },
                                                  {
                                                    "id" : 233,
                                                    "_type" : "IMFile",
                                                    "src" : 4,
                                                    "trackNumber" : 0,
                                                    "trimStartSum" : 0,
                                                    "attributes" : {
                                                      "ident" : "wave1"
                                                    },
                                                    "parameters" : {
                                                      "translation0" : -2.11950146613311,
                                                      "translation1" : 8.96940103546206,
                                                      "scale0" : 1.02884111169424,
                                                      "scale1" : 1.02884111169424
                                                    },
                                                    "effects" : [

                                                    ],
                                                    "start" : 76,
                                                    "duration" : 6,
                                                    "mediaStart" : 0,
                                                    "mediaDuration" : 1,
                                                    "scalar" : 1,
                                                    "metadata" : {
                                                      "clipSpeedAttribute" : false
                                                    },
                                                    "animationTracks" : {

                                                    }
                                                  },
                                                  {
                                                    "id" : 234,
                                                    "_type" : "IMFile",
                                                    "src" : 5,
                                                    "trackNumber" : 0,
                                                    "trimStartSum" : 0,
                                                    "attributes" : {
                                                      "ident" : "wave2"
                                                    },
                                                    "parameters" : {
                                                      "translation0" : 0.880498533167186,
                                                      "translation1" : -88.087642172052,
                                                      "scale0" : 1.03068101042332,
                                                      "scale1" : 1.03068101042332
                                                    },
                                                    "effects" : [

                                                    ],
                                                    "start" : 82,
                                                    "duration" : 6,
                                                    "mediaStart" : 0,
                                                    "mediaDuration" : 1,
                                                    "scalar" : 1,
                                                    "metadata" : {
                                                      "clipSpeedAttribute" : false
                                                    },
                                                    "animationTracks" : {

                                                    }
                                                  },
                                                  {
                                                    "id" : 235,
                                                    "_type" : "IMFile",
                                                    "src" : 6,
                                                    "trackNumber" : 0,
                                                    "trimStartSum" : 0,
                                                    "attributes" : {
                                                      "ident" : "wave3"
                                                    },
                                                    "parameters" : {
                                                      "translation0" : -1.11950146655987,
                                                      "translation1" : 8.12143442823202,
                                                      "scale0" : 1.00893326326855,
                                                      "scale1" : 1.00893326326855
                                                    },
                                                    "effects" : [

                                                    ],
                                                    "start" : 88,
                                                    "duration" : 7,
                                                    "mediaStart" : 0,
                                                    "mediaDuration" : 1,
                                                    "scalar" : 1,
                                                    "metadata" : {
                                                      "clipSpeedAttribute" : false
                                                    },
                                                    "animationTracks" : {

                                                    }
                                                  },
                                                  {
                                                    "id" : 236,
                                                    "_type" : "IMFile",
                                                    "src" : 4,
                                                    "trackNumber" : 0,
                                                    "trimStartSum" : 0,
                                                    "attributes" : {
                                                      "ident" : "wave1"
                                                    },
                                                    "parameters" : {
                                                      "translation0" : -2.11950146613311,
                                                      "translation1" : 8.96940103546206,
                                                      "scale0" : 1.02884111169424,
                                                      "scale1" : 1.02884111169424
                                                    },
                                                    "effects" : [

                                                    ],
                                                    "start" : 95,
                                                    "duration" : 6,
                                                    "mediaStart" : 0,
                                                    "mediaDuration" : 1,
                                                    "scalar" : 1,
                                                    "metadata" : {
                                                      "clipSpeedAttribute" : false
                                                    },
                                                    "animationTracks" : {

                                                    }
                                                  },
                                                  {
                                                    "id" : 237,
                                                    "_type" : "IMFile",
                                                    "src" : 5,
                                                    "trackNumber" : 0,
                                                    "trimStartSum" : 0,
                                                    "attributes" : {
                                                      "ident" : "wave2"
                                                    },
                                                    "parameters" : {
                                                      "translation0" : 0.880498533167186,
                                                      "translation1" : -88.087642172052,
                                                      "scale0" : 1.03068101042332,
                                                      "scale1" : 1.03068101042332
                                                    },
                                                    "effects" : [

                                                    ],
                                                    "start" : 101,
                                                    "duration" : 6,
                                                    "mediaStart" : 0,
                                                    "mediaDuration" : 1,
                                                    "scalar" : 1,
                                                    "metadata" : {
                                                      "clipSpeedAttribute" : false
                                                    },
                                                    "animationTracks" : {

                                                    }
                                                  },
                                                  {
                                                    "id" : 238,
                                                    "_type" : "IMFile",
                                                    "src" : 6,
                                                    "trackNumber" : 0,
                                                    "trimStartSum" : 0,
                                                    "attributes" : {
                                                      "ident" : "wave3"
                                                    },
                                                    "parameters" : {
                                                      "translation0" : -1.11950146655987,
                                                      "translation1" : 8.12143442823202,
                                                      "scale0" : 1.00893326326855,
                                                      "scale1" : 1.00893326326855
                                                    },
                                                    "effects" : [

                                                    ],
                                                    "start" : 107,
                                                    "duration" : 7,
                                                    "mediaStart" : 0,
                                                    "mediaDuration" : 1,
                                                    "scalar" : 1,
                                                    "metadata" : {
                                                      "clipSpeedAttribute" : false
                                                    },
                                                    "animationTracks" : {

                                                    }
                                                  },
                                                  {
                                                    "id" : 239,
                                                    "_type" : "IMFile",
                                                    "src" : 4,
                                                    "trackNumber" : 0,
                                                    "trimStartSum" : 0,
                                                    "attributes" : {
                                                      "ident" : "wave1"
                                                    },
                                                    "parameters" : {
                                                      "translation0" : -2.11950146613311,
                                                      "translation1" : 8.96940103546206,
                                                      "scale0" : 1.02884111169424,
                                                      "scale1" : 1.02884111169424
                                                    },
                                                    "effects" : [

                                                    ],
                                                    "start" : 114,
                                                    "duration" : 6,
                                                    "mediaStart" : 0,
                                                    "mediaDuration" : 1,
                                                    "scalar" : 1,
                                                    "metadata" : {
                                                      "clipSpeedAttribute" : false
                                                    },
                                                    "animationTracks" : {

                                                    }
                                                  },
                                                  {
                                                    "id" : 240,
                                                    "_type" : "IMFile",
                                                    "src" : 5,
                                                    "trackNumber" : 0,
                                                    "trimStartSum" : 0,
                                                    "attributes" : {
                                                      "ident" : "wave2"
                                                    },
                                                    "parameters" : {
                                                      "translation0" : 0.880498533167186,
                                                      "translation1" : -88.087642172052,
                                                      "scale0" : 1.03068101042332,
                                                      "scale1" : 1.03068101042332
                                                    },
                                                    "effects" : [

                                                    ],
                                                    "start" : 120,
                                                    "duration" : 6,
                                                    "mediaStart" : 0,
                                                    "mediaDuration" : 1,
                                                    "scalar" : 1,
                                                    "metadata" : {
                                                      "clipSpeedAttribute" : false
                                                    },
                                                    "animationTracks" : {

                                                    }
                                                  },
                                                  {
                                                    "id" : 241,
                                                    "_type" : "IMFile",
                                                    "src" : 6,
                                                    "trackNumber" : 0,
                                                    "trimStartSum" : 0,
                                                    "attributes" : {
                                                      "ident" : "wave3"
                                                    },
                                                    "parameters" : {
                                                      "translation0" : -1.11950146655987,
                                                      "translation1" : 8.12143442823202,
                                                      "scale0" : 1.00893326326855,
                                                      "scale1" : 1.00893326326855
                                                    },
                                                    "effects" : [

                                                    ],
                                                    "start" : 126,
                                                    "duration" : 7,
                                                    "mediaStart" : 0,
                                                    "mediaDuration" : 1,
                                                    "scalar" : 1,
                                                    "metadata" : {
                                                      "clipSpeedAttribute" : false
                                                    },
                                                    "animationTracks" : {

                                                    }
                                                  },
                                                  {
                                                    "id" : 242,
                                                    "_type" : "IMFile",
                                                    "src" : 4,
                                                    "trackNumber" : 0,
                                                    "trimStartSum" : 0,
                                                    "attributes" : {
                                                      "ident" : "wave1"
                                                    },
                                                    "parameters" : {
                                                      "translation0" : -2.11950146613311,
                                                      "translation1" : 8.96940103546206,
                                                      "scale0" : 1.02884111169424,
                                                      "scale1" : 1.02884111169424
                                                    },
                                                    "effects" : [

                                                    ],
                                                    "start" : 133,
                                                    "duration" : 6,
                                                    "mediaStart" : 0,
                                                    "mediaDuration" : 1,
                                                    "scalar" : 1,
                                                    "metadata" : {
                                                      "clipSpeedAttribute" : false
                                                    },
                                                    "animationTracks" : {

                                                    }
                                                  },
                                                  {
                                                    "id" : 243,
                                                    "_type" : "IMFile",
                                                    "src" : 5,
                                                    "trackNumber" : 0,
                                                    "trimStartSum" : 0,
                                                    "attributes" : {
                                                      "ident" : "wave2"
                                                    },
                                                    "parameters" : {
                                                      "translation0" : 0.880498533167186,
                                                      "translation1" : -88.087642172052,
                                                      "scale0" : 1.03068101042332,
                                                      "scale1" : 1.03068101042332
                                                    },
                                                    "effects" : [

                                                    ],
                                                    "start" : 139,
                                                    "duration" : 6,
                                                    "mediaStart" : 0,
                                                    "mediaDuration" : 1,
                                                    "scalar" : 1,
                                                    "metadata" : {
                                                      "clipSpeedAttribute" : false
                                                    },
                                                    "animationTracks" : {

                                                    }
                                                  },
                                                  {
                                                    "id" : 244,
                                                    "_type" : "IMFile",
                                                    "src" : 6,
                                                    "trackNumber" : 0,
                                                    "trimStartSum" : 0,
                                                    "attributes" : {
                                                      "ident" : "wave3"
                                                    },
                                                    "parameters" : {
                                                      "translation0" : -1.11950146655987,
                                                      "translation1" : 8.12143442823202,
                                                      "scale0" : 1.00893326326855,
                                                      "scale1" : 1.00893326326855
                                                    },
                                                    "effects" : [

                                                    ],
                                                    "start" : 145,
                                                    "duration" : 7,
                                                    "mediaStart" : 0,
                                                    "mediaDuration" : 1,
                                                    "scalar" : 1,
                                                    "metadata" : {
                                                      "clipSpeedAttribute" : false
                                                    },
                                                    "animationTracks" : {

                                                    }
                                                  },
                                                  {
                                                    "id" : 245,
                                                    "_type" : "IMFile",
                                                    "src" : 4,
                                                    "trackNumber" : 0,
                                                    "trimStartSum" : 0,
                                                    "attributes" : {
                                                      "ident" : "wave1"
                                                    },
                                                    "parameters" : {
                                                      "translation0" : -2.11950146613311,
                                                      "translation1" : 8.96940103546206,
                                                      "scale0" : 1.02884111169424,
                                                      "scale1" : 1.02884111169424
                                                    },
                                                    "effects" : [

                                                    ],
                                                    "start" : 152,
                                                    "duration" : 6,
                                                    "mediaStart" : 0,
                                                    "mediaDuration" : 1,
                                                    "scalar" : 1,
                                                    "metadata" : {
                                                      "clipSpeedAttribute" : false
                                                    },
                                                    "animationTracks" : {

                                                    }
                                                  },
                                                  {
                                                    "id" : 246,
                                                    "_type" : "IMFile",
                                                    "src" : 5,
                                                    "trackNumber" : 0,
                                                    "trimStartSum" : 0,
                                                    "attributes" : {
                                                      "ident" : "wave2"
                                                    },
                                                    "parameters" : {
                                                      "translation0" : 0.880498533167186,
                                                      "translation1" : -88.087642172052,
                                                      "scale0" : 1.03068101042332,
                                                      "scale1" : 1.03068101042332
                                                    },
                                                    "effects" : [

                                                    ],
                                                    "start" : 158,
                                                    "duration" : 6,
                                                    "mediaStart" : 0,
                                                    "mediaDuration" : 1,
                                                    "scalar" : 1,
                                                    "metadata" : {
                                                      "clipSpeedAttribute" : false
                                                    },
                                                    "animationTracks" : {

                                                    }
                                                  },
                                                  {
                                                    "id" : 247,
                                                    "_type" : "IMFile",
                                                    "src" : 6,
                                                    "trackNumber" : 0,
                                                    "trimStartSum" : 0,
                                                    "attributes" : {
                                                      "ident" : "wave3"
                                                    },
                                                    "parameters" : {
                                                      "translation0" : -1.11950146655987,
                                                      "translation1" : 8.12143442823202,
                                                      "scale0" : 1.00893326326855,
                                                      "scale1" : 1.00893326326855
                                                    },
                                                    "effects" : [

                                                    ],
                                                    "start" : 164,
                                                    "duration" : 7,
                                                    "mediaStart" : 0,
                                                    "mediaDuration" : 1,
                                                    "scalar" : 1,
                                                    "metadata" : {
                                                      "clipSpeedAttribute" : false
                                                    },
                                                    "animationTracks" : {

                                                    }
                                                  },
                                                  {
                                                    "id" : 248,
                                                    "_type" : "IMFile",
                                                    "src" : 4,
                                                    "trackNumber" : 0,
                                                    "trimStartSum" : 0,
                                                    "attributes" : {
                                                      "ident" : "wave1"
                                                    },
                                                    "parameters" : {
                                                      "translation0" : -2.11950146613311,
                                                      "translation1" : 8.96940103546206,
                                                      "scale0" : 1.02884111169424,
                                                      "scale1" : 1.02884111169424
                                                    },
                                                    "effects" : [

                                                    ],
                                                    "start" : 171,
                                                    "duration" : 6,
                                                    "mediaStart" : 0,
                                                    "mediaDuration" : 1,
                                                    "scalar" : 1,
                                                    "metadata" : {
                                                      "clipSpeedAttribute" : false
                                                    },
                                                    "animationTracks" : {

                                                    }
                                                  },
                                                  {
                                                    "id" : 249,
                                                    "_type" : "IMFile",
                                                    "src" : 5,
                                                    "trackNumber" : 0,
                                                    "trimStartSum" : 0,
                                                    "attributes" : {
                                                      "ident" : "wave2"
                                                    },
                                                    "parameters" : {
                                                      "translation0" : 0.880498533167186,
                                                      "translation1" : -88.087642172052,
                                                      "scale0" : 1.03068101042332,
                                                      "scale1" : 1.03068101042332
                                                    },
                                                    "effects" : [

                                                    ],
                                                    "start" : 177,
                                                    "duration" : 6,
                                                    "mediaStart" : 0,
                                                    "mediaDuration" : 1,
                                                    "scalar" : 1,
                                                    "metadata" : {
                                                      "clipSpeedAttribute" : false
                                                    },
                                                    "animationTracks" : {

                                                    }
                                                  },
                                                  {
                                                    "id" : 250,
                                                    "_type" : "IMFile",
                                                    "src" : 6,
                                                    "trackNumber" : 0,
                                                    "trimStartSum" : 0,
                                                    "attributes" : {
                                                      "ident" : "wave3"
                                                    },
                                                    "parameters" : {
                                                      "translation0" : -1.11950146655987,
                                                      "translation1" : 8.12143442823202,
                                                      "scale0" : 1.00893326326855,
                                                      "scale1" : 1.00893326326855
                                                    },
                                                    "effects" : [

                                                    ],
                                                    "start" : 183,
                                                    "duration" : 7,
                                                    "mediaStart" : 0,
                                                    "mediaDuration" : 1,
                                                    "scalar" : 1,
                                                    "metadata" : {
                                                      "clipSpeedAttribute" : false
                                                    },
                                                    "animationTracks" : {

                                                    }
                                                  },
                                                  {
                                                    "id" : 251,
                                                    "_type" : "IMFile",
                                                    "src" : 4,
                                                    "trackNumber" : 0,
                                                    "trimStartSum" : 0,
                                                    "attributes" : {
                                                      "ident" : "wave1"
                                                    },
                                                    "parameters" : {
                                                      "translation0" : -2.11950146613311,
                                                      "translation1" : 8.96940103546206,
                                                      "scale0" : 1.02884111169424,
                                                      "scale1" : 1.02884111169424
                                                    },
                                                    "effects" : [

                                                    ],
                                                    "start" : 190,
                                                    "duration" : 6,
                                                    "mediaStart" : 0,
                                                    "mediaDuration" : 1,
                                                    "scalar" : 1,
                                                    "metadata" : {
                                                      "clipSpeedAttribute" : false
                                                    },
                                                    "animationTracks" : {

                                                    }
                                                  },
                                                  {
                                                    "id" : 252,
                                                    "_type" : "IMFile",
                                                    "src" : 5,
                                                    "trackNumber" : 0,
                                                    "trimStartSum" : 0,
                                                    "attributes" : {
                                                      "ident" : "wave2"
                                                    },
                                                    "parameters" : {
                                                      "translation0" : 0.880498533167186,
                                                      "translation1" : -88.087642172052,
                                                      "scale0" : 1.03068101042332,
                                                      "scale1" : 1.03068101042332
                                                    },
                                                    "effects" : [

                                                    ],
                                                    "start" : 196,
                                                    "duration" : 4,
                                                    "mediaStart" : 0,
                                                    "mediaDuration" : 1,
                                                    "scalar" : 1,
                                                    "metadata" : {
                                                      "clipSpeedAttribute" : false
                                                    },
                                                    "animationTracks" : {

                                                    }
                                                  }
                                                ],
                                                  "ident" : "",
                                                  "audioMuted" : false,
                                                  "videoHidden" : false,
                                                  "magnetic" : false,
                                                  "matte" : 0,
                                                  "metadata" : {
                                                    "IsLocked" : "False",
                                                    "WinTrackHeight" : "0"
                                                  }
                                              },
                                              {
                                                "trackIndex" : 1,
                                                "medias" : [
                                                  {
                                                    "id" : 253,
                                                    "_type" : "IMFile",
                                                    "src" : 7,
                                                    "trackNumber" : 0,
                                                    "trimStartSum" : 0,
                                                    "attributes" : {
                                                      "ident" : "control-plane-128"
                                                    },
                                                    "parameters" : {
                                                      "translation0" : -785.119501466663,
                                                      "translation1" : 199.818754449228
                                                    },
                                                    "effects" : [

                                                    ],
                                                    "start" : 0,
                                                    "duration" : 19,
                                                    "mediaStart" : 0,
                                                    "mediaDuration" : 1,
                                                    "scalar" : 1,
                                                    "metadata" : {
                                                      "clipSpeedAttribute" : false
                                                    },
                                                    "animationTracks" : {

                                                    }
                                                  },
                                                  {
                                                    "id" : 254,
                                                    "_type" : "IMFile",
                                                    "src" : 8,
                                                    "trackNumber" : 0,
                                                    "trimStartSum" : 0,
                                                    "attributes" : {
                                                      "ident" : "etcd-128"
                                                    },
                                                    "parameters" : {
                                                      "translation0" : -655.119501466745,
                                                      "translation1" : 120.373795393553
                                                    },
                                                    "effects" : [

                                                    ],
                                                    "start" : 19,
                                                    "duration" : 22,
                                                    "mediaStart" : 0,
                                                    "mediaDuration" : 1,
                                                    "scalar" : 1,
                                                    "metadata" : {
                                                      "clipSpeedAttribute" : false
                                                    },
                                                    "animationTracks" : {

                                                    }
                                                  },
                                                  {
                                                    "id" : 255,
                                                    "_type" : "IMFile",
                                                    "src" : 9,
                                                    "trackNumber" : 0,
                                                    "trimStartSum" : 0,
                                                    "attributes" : {
                                                      "ident" : "node-128"
                                                    },
                                                    "parameters" : {
                                                      "translation0" : -315.119501466444,
                                                      "translation1" : 135.818754449343
                                                    },
                                                    "effects" : [

                                                    ],
                                                    "start" : 41,
                                                    "duration" : 18,
                                                    "mediaStart" : 0,
                                                    "mediaDuration" : 1,
                                                    "scalar" : 1,
                                                    "metadata" : {
                                                      "clipSpeedAttribute" : false
                                                    },
                                                    "animationTracks" : {

                                                    }
                                                  },
                                                  {
                                                    "id" : 256,
                                                    "_type" : "IMFile",
                                                    "src" : 10,
                                                    "trackNumber" : 0,
                                                    "trimStartSum" : 0,
                                                    "attributes" : {
                                                      "ident" : "ns-128"
                                                    },
                                                    "parameters" : {
                                                      "translation0" : -345.11950146672,
                                                      "translation1" : 158.121434428201
                                                    },
                                                    "effects" : [

                                                    ],
                                                    "start" : 59,
                                                    "duration" : 23,
                                                    "mediaStart" : 0,
                                                    "mediaDuration" : 1,
                                                    "scalar" : 1,
                                                    "metadata" : {
                                                      "clipSpeedAttribute" : false
                                                    },
                                                    "animationTracks" : {

                                                    }
                                                  },
                                                  {
                                                    "id" : 257,
                                                    "_type" : "IMFile",
                                                    "src" : 11,
                                                    "trackNumber" : 0,
                                                    "trimStartSum" : 0,
                                                    "attributes" : {
                                                      "ident" : "pod-128"
                                                    },
                                                    "parameters" : {
                                                      "translation0" : -91.1195014666742,
                                                      "translation1" : 100.121434428219
                                                    },
                                                    "effects" : [

                                                    ],
                                                    "start" : 82,
                                                    "duration" : 16,
                                                    "mediaStart" : 0,
                                                    "mediaDuration" : 1,
                                                    "scalar" : 1,
                                                    "metadata" : {
                                                      "clipSpeedAttribute" : false
                                                    },
                                                    "animationTracks" : {

                                                    }
                                                  },
                                                  {
                                                    "id" : 258,
                                                    "_type" : "IMFile",
                                                    "src" : 12,
                                                    "trackNumber" : 0,
                                                    "trimStartSum" : 0,
                                                    "attributes" : {
                                                      "ident" : "secret-128"
                                                    },
                                                    "parameters" : {
                                                      "translation0" : -1.11950146666447,
                                                      "translation1" : 140.121434428194
                                                    },
                                                    "effects" : [

                                                    ],
                                                    "start" : 98,
                                                    "duration" : 17,
                                                    "mediaStart" : 0,
                                                    "mediaDuration" : 1,
                                                    "scalar" : 1,
                                                    "metadata" : {
                                                      "clipSpeedAttribute" : false
                                                    },
                                                    "animationTracks" : {

                                                    }
                                                  },
                                                  {
                                                    "id" : 259,
                                                    "_type" : "IMFile",
                                                    "src" : 13,
                                                    "trackNumber" : 0,
                                                    "trimStartSum" : 0,
                                                    "attributes" : {
                                                      "ident" : "svc-128"
                                                    },
                                                    "parameters" : {
                                                      "translation0" : 258.880498533338,
                                                      "translation1" : 112.121434428216
                                                    },
                                                    "effects" : [

                                                    ],
                                                    "start" : 115,
                                                    "duration" : 14,
                                                    "mediaStart" : 0,
                                                    "mediaDuration" : 1,
                                                    "scalar" : 1,
                                                    "metadata" : {
                                                      "clipSpeedAttribute" : false
                                                    },
                                                    "animationTracks" : {

                                                    }
                                                  },
                                                  {
                                                    "id" : 260,
                                                    "_type" : "IMFile",
                                                    "src" : 13,
                                                    "trackNumber" : 0,
                                                    "trimStartSum" : 0,
                                                    "attributes" : {
                                                      "ident" : "svc-128"
                                                    },
                                                    "parameters" : {
                                                      "translation0" : 346.880498533407,
                                                      "translation1" : 120.121434428205
                                                    },
                                                    "effects" : [

                                                    ],
                                                    "start" : 129,
                                                    "duration" : 14,
                                                    "mediaStart" : 0,
                                                    "mediaDuration" : 1,
                                                    "scalar" : 1,
                                                    "metadata" : {
                                                      "clipSpeedAttribute" : false
                                                    },
                                                    "animationTracks" : {

                                                    }
                                                  },
                                                  {
                                                    "id" : 261,
                                                    "_type" : "IMFile",
                                                    "src" : 14,
                                                    "trackNumber" : 0,
                                                    "trimStartSum" : 0,
                                                    "attributes" : {
                                                      "ident" : "rs-128"
                                                    },
                                                    "parameters" : {
                                                      "translation0" : 480.880498533387,
                                                      "translation1" : 158.1214344282
                                                    },
                                                    "effects" : [

                                                    ],
                                                    "start" : 143,
                                                    "duration" : 13,
                                                    "mediaStart" : 0,
                                                    "mediaDuration" : 1,
                                                    "scalar" : 1,
                                                    "metadata" : {
                                                      "clipSpeedAttribute" : false
                                                    },
                                                    "animationTracks" : {

                                                    }
                                                  },
                                                  {
                                                    "id" : 262,
                                                    "_type" : "IMFile",
                                                    "src" : 15,
                                                    "trackNumber" : 0,
                                                    "trimStartSum" : 0,
                                                    "attributes" : {
                                                      "ident" : "vol-128"
                                                    },
                                                    "parameters" : {
                                                      "translation0" : 560.880498533409,
                                                      "translation1" : 136.121434428193
                                                    },
                                                    "effects" : [

                                                    ],
                                                    "start" : 156,
                                                    "duration" : 14,
                                                    "mediaStart" : 0,
                                                    "mediaDuration" : 1,
                                                    "scalar" : 1,
                                                    "metadata" : {
                                                      "clipSpeedAttribute" : false
                                                    },
                                                    "animationTracks" : {

                                                    }
                                                  },
                                                  {
                                                    "id" : 263,
                                                    "_type" : "IMFile",
                                                    "src" : 16,
                                                    "trackNumber" : 0,
                                                    "trimStartSum" : 0,
                                                    "attributes" : {
                                                      "ident" : "deploy-128"
                                                    },
                                                    "parameters" : {
                                                      "translation0" : 716.880498533367,
                                                      "translation1" : 84.1214344281821
                                                    },
                                                    "effects" : [

                                                    ],
                                                    "start" : 170,
                                                    "duration" : 13,
                                                    "mediaStart" : 0,
                                                    "mediaDuration" : 1,
                                                    "scalar" : 1,
                                                    "metadata" : {
                                                      "clipSpeedAttribute" : false
                                                    },
                                                    "animationTracks" : {

                                                    }
                                                  },
                                                  {
                                                    "id" : 264,
                                                    "_type" : "IMFile",
                                                    "src" : 17,
                                                    "trackNumber" : 0,
                                                    "trimStartSum" : 0,
                                                    "attributes" : {
                                                      "ident" : "cronjob-128"
                                                    },
                                                    "parameters" : {
                                                      "translation0" : 870.880498533812,
                                                      "translation1" : 135.81875444932
                                                    },
                                                    "effects" : [

                                                    ],
                                                    "start" : 183,
                                                    "duration" : 17,
                                                    "mediaStart" : 0,
                                                    "mediaDuration" : 1,
                                                    "scalar" : 1,
                                                    "metadata" : {
                                                      "clipSpeedAttribute" : false
                                                    },
                                                    "animationTracks" : {

                                                    }
                                                  }
                                                ],
                                                  "ident" : "",
                                                  "audioMuted" : false,
                                                  "videoHidden" : false,
                                                  "magnetic" : false,
                                                  "matte" : 0,
                                                  "metadata" : {
                                                    "IsLocked" : "False",
                                                    "WinTrackHeight" : "3.6077993365582e-314"
                                                  }
                                              }
                                            ],
                                            "attributes" : {
                                              "ident" : "Group 1",
                                              "gain" : 1.0,
                                              "mixToMono" : false
                                            },
                                            "effects" : [

                                            ],
                                            "start" : 0,
                                            "duration" : 200,
                                            "mediaStart" : 0.0,
                                            "mediaDuration" : 200.0,
                                            "scalar" : 1,
                                            "metadata" : {
                                              "IsGroupExpanded" : "False"
                                            },
                                            "animationTracks" : {

                                            }
                                          }
                                        ],
                                          "ident" : "",
                                          "audioMuted" : false,
                                          "videoHidden" : false,
                                          "magnetic" : false,
                                          "matte" : 0,
                                          "metadata" : {
                                            "IsLocked" : "False",
                                            "WinTrackHeight" : "0"
                                          }
                                      },
                                      {
                                        "trackIndex" : 1,
                                        "medias" : [
                                          {
                                            "id" : 265,
                                            "_type" : "IMFile",
                                            "src" : 18,
                                            "trackNumber" : 0,
                                            "trimStartSum" : 0,
                                            "attributes" : {
                                              "ident" : "k8sfavicon"
                                            },
                                            "parameters" : {
                                              "translation0" : -822.559750733209,
                                              "translation1" : 466.970094438544,
                                              "scale0" : 0.335937500000757,
                                              "scale1" : 0.335937500000757
                                            },
                                            "effects" : [

                                            ],
                                            "start" : 0,
                                            "duration" : 200,
                                            "mediaStart" : 0,
                                            "mediaDuration" : 1,
                                            "scalar" : 1,
                                            "metadata" : {
                                              "clipSpeedAttribute" : false
                                            },
                                            "animationTracks" : {

                                            }
                                          }
                                        ],
                                          "ident" : "",
                                          "audioMuted" : false,
                                          "videoHidden" : false,
                                          "magnetic" : false,
                                          "matte" : 0,
                                          "metadata" : {
                                            "IsLocked" : "False",
                                            "WinTrackHeight" : "3.6077993365582e-314"
                                          }
                                      }
                                    ],
                                    "attributes" : {
                                      "ident" : "Group 2",
                                      "gain" : 1.0,
                                      "mixToMono" : false
                                    },
                                    "effects" : [

                                    ],
                                    "start" : 0,
                                    "duration" : 200,
                                    "mediaStart" : 0.0,
                                    "mediaDuration" : 200.0,
                                    "scalar" : 1,
                                    "metadata" : {
                                      "IsGroupExpanded" : "False"
                                    },
                                    "animationTracks" : {

                                    }
                                  }
                                ],
                                  "ident" : "",
                                  "audioMuted" : false,
                                  "videoHidden" : false,
                                  "magnetic" : false,
                                  "matte" : 0,
                                  "metadata" : {
                                    "IsLocked" : "False",
                                    "WinTrackHeight" : "0"
                                  }
                              },
                              {
                                "trackIndex" : 1,
                                "medias" : [
                                  {
                                    "id" : 266,
                                    "_type" : "AMFile",
                                    "src" : 19,
                                    "trackNumber" : 0,
                                    "attributes" : {
                                      "ident" : "wave",
                                      "gain" : 1.0,
                                      "mixToMono" : false
                                    },
                                      "channelNumber" : "0,1",
                                    "parameters" : {
                                      "volume" : {
                                        "type" : "double",
                                        "keyframes" : [
                                          {
                                            "endTime" : -1,
                                            "time" : -1,
                                            "value" : 1.0,
                                            "duration" : 0
                                          },
                                          {
                                            "endTime" : 0,
                                            "time" : 0,
                                            "value" : 0.0,
                                            "duration" : 0
                                          },
                                          {
                                            "endTime" : 82,
                                            "time" : 82,
                                            "value" : 0.384615384615384,
                                            "duration" : 0
                                          }
                                        ]
                                      }
                                    },
                                    "effects" : [

                                    ],
                                    "start" : 0,
                                    "duration" : 103,
                                    "mediaStart" : 0,
                                    "mediaDuration" : 103,
                                    "scalar" : 1,
                                    "metadata" : {
                                      "clipSpeedAttribute" : false
                                    },
                                    "animationTracks" : {

                                    }
                                  },
                                  {
                                    "id" : 267,
                                    "_type" : "AMFile",
                                    "src" : 19,
                                    "trackNumber" : 0,
                                    "attributes" : {
                                      "ident" : "wave",
                                      "gain" : 1.0,
                                      "mixToMono" : false
                                    },
                                      "channelNumber" : "0,1",
                                    "parameters" : {
                                      "volume" : {
                                        "type" : "double",
                                        "keyframes" : [
                                          {
                                            "endTime" : 0,
                                            "time" : 0,
                                            "value" : 0.770507364975449,
                                            "duration" : 0
                                          },
                                          {
                                            "endTime" : 134,
                                            "time" : 134,
                                            "value" : 0.232045826513911,
                                            "duration" : 0
                                          },
                                          {
                                            "endTime" : 200,
                                            "time" : 200,
                                            "value" : 0.0,
                                            "duration" : 0
                                          },
                                          {
                                            "endTime" : 201,
                                            "time" : 201,
                                            "value" : 1.0,
                                            "duration" : 0
                                          }
                                        ]
                                      }
                                    },
                                    "effects" : [

                                    ],
                                    "start" : 103,
                                    "duration" : 97,
                                    "mediaStart" : 103,
                                    "mediaDuration" : 97,
                                    "scalar" : 1,
                                    "metadata" : {
                                      "clipSpeedAttribute" : false
                                    },
                                    "animationTracks" : {

                                    }
                                  }
                                ],
                                  "ident" : "",
                                  "audioMuted" : false,
                                  "videoHidden" : false,
                                  "magnetic" : false,
                                  "matte" : 0,
                                  "metadata" : {
                                    "IsLocked" : "False",
                                    "WinTrackHeight" : "2.26715762571713e-312"
                                  }
                              }
                            ],
                            "attributes" : {
                              "ident" : "Group 1",
                              "gain" : 1.0,
                              "mixToMono" : false
                            },
                            "effects" : [

                            ],
                            "start" : 0,
                            "duration" : 200,
                            "mediaStart" : 0.0,
                            "mediaDuration" : 200.0,
                            "scalar" : 1,
                            "metadata" : {
                              "IsGroupExpanded" : "False"
                            },
                            "animationTracks" : {

                            }
                          }
                        ],
                          "ident" : "",
                          "audioMuted" : false,
                          "videoHidden" : false,
                          "magnetic" : false,
                          "matte" : 0,
                          "metadata" : {
                            "IsLocked" : "False",
                            "WinTrackHeight" : "4.44062837618387e-312"
                          }
                      }
                    ],
                    "attributes" : {
                      "ident" : "end",
                      "gain" : 1.0,
                      "mixToMono" : false
                    },
                    "effects" : [

                    ],
                    "start" : 2927,
                    "duration" : 200,
                    "mediaStart" : 0.0,
                    "mediaDuration" : 200.0,
                    "scalar" : 1,
                    "metadata" : {
                      "IsGroupExpanded" : "False"
                    },
                    "animationTracks" : {

                    }
                  }
                ]
              },
              {
                "trackIndex" : 2,
                "medias" : [
                ]
              },
              {
                "trackIndex" : 3,
                "medias" : [
                ]
              },
              {
                "trackIndex" : 4,
                "medias" : [
                ]
              }
            ]
          }
        }
      ]
    },
    "trackAttributes" : [
      {
        "ident" : "",
        "audioMuted" : false,
        "videoHidden" : false,
        "magnetic" : false,
        "matte" : 0,
        "metadata" : {
          "IsLocked" : "False",
          "WinTrackHeight" : "56"
        }
      },
      {
        "ident" : "",
        "audioMuted" : false,
        "videoHidden" : false,
        "magnetic" : false,
        "matte" : 0,
        "metadata" : {
          "IsLocked" : "False",
          "WinTrackHeight" : "56"
        }
      },
      {
        "ident" : "",
        "audioMuted" : false,
        "videoHidden" : false,
        "magnetic" : false,
        "matte" : 0,
        "metadata" : {
          "IsLocked" : "False",
          "WinTrackHeight" : "56"
        }
      },
      {
        "ident" : "",
        "audioMuted" : false,
        "videoHidden" : false,
        "magnetic" : false,
        "matte" : 0,
        "metadata" : {
          "IsLocked" : "False",
          "WinTrackHeight" : "56"
        }
      },
      {
        "ident" : "",
        "audioMuted" : false,
        "videoHidden" : false,
        "magnetic" : false,
        "matte" : 0,
        "metadata" : {
          "IsLocked" : "False",
          "WinTrackHeight" : "56"
        }
      }
    ],
    "captionAttributes" : {
      "enabled" : true,
      "fontName" : "Arial",
      "fontSize" : 64,
      "backgroundColor" : [ 0, 0, 0, 191],
      "foregroundColor" : [ 255, 255, 255, 255],
      "lang" : "en",
      "alignment" : 0,
      "defaultFontSize" : true,
      "opacity" : 0.5,
      "backgroundEnabled" : true,
      "backgroundOnlyAroundText" : true
    },
    "backgroundColor" : [ 30, 30, 30, 255]
  },
  "metadata" : {
    "AutoSaveFile" : "C:\\Users\\lianduan\\AppData\\Local\\TechSmith\\Camtasia Studio\\19.0\\Auto-Saves\\2-1 What is Minikube24250d.autosave.tscproj",
    "CanvasZoom" : 50,
    "Date" : "2021-01-04 02:40:26 PM",
    "Fit" : 0,
    "IsAutoSave" : "0",
    "Language" : "ENU",
    "ProfileName" : "",
    "ProjectDimensionsChanged" : "1",
    "Title" : "2-1 What Minikube",
    "audioNarrationNotes" : "",
    "calloutStyle" : "Basic",
    "canvasDetached" : "False",
    "canvasPositionHeight" : "0",
    "canvasPositionLeft" : "0",
    "canvasPositionTop" : "0",
    "canvasPositionWidth" : "0"
  }
}
