{
  "title" : "",
  "description" : "",
  "author" : "",
  "targetLoudness" : -18.0,
  "shouldApplyLoudnessNormalization" : true,
  "videoFormatFrameRate" : 30,
  "audioFormatSampleRate" : 44100,
  "width" : 1920.0,
  "height" : 1080.0,
  "version" : "3.0",
  "editRate" : 30,
  "authoringClientName" :  {
    "name" : "Camtasia",
    "platform" : "Windows",
    "version" : "19.0"
  },
  "sourceBin" : [
    {
      "id" : 1,
      "src" : "D:\\Code\\K8S\\video\\rec\\Rec 01-07-21.trec",
      "rect" : [0, 0, 1920, 1080],
      "lastMod" : "20210107T182732",
      "sourceTracks" : [
        {
          "range" : [0, 10893],
          "type" : 0,
          "editRate" : 30,
          "trackRect" : [0, 0, 1920, 1080],
          "sampleRate" : 24,
          "bitDepth" : 0,
          "numChannels" : 0,
          "integratedLUFS" : 100.0,
          "peakLevel" : -1.0,
          "metaData" : "2b7b6a00-7a1f-11e2-83d0-0017f200be7f;2b7b6aef-7a1f-11e2-83d0-0017f200be7f;2b7b6af0-7a1f-11e2-83d0-0017f200be7f;2b7b6af1-7a1f-11e2-83d0-0017f200be7f;2b7b6af2-7a1f-11e2-83d0-0017f200be7f;2b7b6af3-7a1f-11e2-83d0-0017f200be7f;2b7b6af5-7a1f-11e2-83d0-0017f200be7f;2b7b6af6-7a1f-11e2-83d0-0017f200be7f;2b7b6af7-7a1f-11e2-83d0-0017f200be7f;2b7b6af8-7a1f-11e2-83d0-0017f200be7f;2b7b6af9-7a1f-11e2-83d0-0017f200be7f;2b7b6afa-7a1f-11e2-83d0-0017f200be7f;"
        },
        {
          "range" : [0, 16010240],
          "type" : 2,
          "editRate" : 44100,
          "trackRect" : [0, 0, 0, 0],
          "sampleRate" : 44100,
          "bitDepth" : 16,
          "numChannels" : 2,
          "integratedLUFS" : -42.416405000985,
          "peakLevel" : 0.069305419921875,
          "metaData" : ""
        }
      ],
      "metadata" : {
        "timeAdded" : "20210107T182733.077925"
      }
    },
    {
      "id" : 2,
      "src" : "D:\\Code\\K8S\\video\\2\\Narration_2-2 Install Minikube on Oracle Linux 8 1.m4a",
      "rect" : [0, 0, 0, 0],
      "lastMod" : "20210107T200303",
      "sourceTracks" : [
        {
          "range" : [0, 54334668],
          "type" : 2,
          "editRate" : 10000000,
          "trackRect" : [0, 0, 0, 0],
          "sampleRate" : 44100,
          "bitDepth" : 16,
          "numChannels" : 2,
          "integratedLUFS" : -39.6044142501166,
          "peakLevel" : 0.0794998407363892,
          "metaData" : ""
        }
      ],
      "metadata" : {
        "timeAdded" : "20210107T200304.312603"
      }
    },
    {
      "id" : 3,
      "src" : "D:\\Code\\K8S\\video\\2\\Narration_2-2 Install Minikube on Oracle Linux 8 2.m4a",
      "rect" : [0, 0, 0, 0],
      "lastMod" : "20210107T200648",
      "sourceTracks" : [
        {
          "range" : [0, 133050336],
          "type" : 2,
          "editRate" : 10000000,
          "trackRect" : [0, 0, 0, 0],
          "sampleRate" : 44100,
          "bitDepth" : 16,
          "numChannels" : 2,
          "integratedLUFS" : -43.6461199574067,
          "peakLevel" : 0.0434059165418148,
          "metaData" : ""
        }
      ],
      "metadata" : {
        "timeAdded" : "20210107T200649.621626"
      }
    },
    {
      "id" : 4,
      "src" : "D:\\Code\\K8S\\video\\rec\\Rec 01-07-21_002.trec",
      "rect" : [0, 0, 1920, 1080],
      "lastMod" : "20210107T201242",
      "sourceTracks" : [
        {
          "range" : [0, 1364],
          "type" : 0,
          "editRate" : 30,
          "trackRect" : [0, 0, 1920, 1080],
          "sampleRate" : 25,
          "bitDepth" : 0,
          "numChannels" : 0,
          "integratedLUFS" : 100.0,
          "peakLevel" : -1.0,
          "metaData" : "2b7b6a00-7a1f-11e2-83d0-0017f200be7f;2b7b6aef-7a1f-11e2-83d0-0017f200be7f;2b7b6af0-7a1f-11e2-83d0-0017f200be7f;2b7b6af1-7a1f-11e2-83d0-0017f200be7f;2b7b6af2-7a1f-11e2-83d0-0017f200be7f;2b7b6af3-7a1f-11e2-83d0-0017f200be7f;2b7b6af5-7a1f-11e2-83d0-0017f200be7f;2b7b6af6-7a1f-11e2-83d0-0017f200be7f;2b7b6af7-7a1f-11e2-83d0-0017f200be7f;2b7b6af8-7a1f-11e2-83d0-0017f200be7f;2b7b6af9-7a1f-11e2-83d0-0017f200be7f;2b7b6afa-7a1f-11e2-83d0-0017f200be7f;"
        },
        {
          "range" : [0, 2008064],
          "type" : 2,
          "editRate" : 44100,
          "trackRect" : [0, 0, 0, 0],
          "sampleRate" : 44100,
          "bitDepth" : 16,
          "numChannels" : 2,
          "integratedLUFS" : -41.6081367463959,
          "peakLevel" : 0.057952880859375,
          "metaData" : ""
        }
      ],
      "metadata" : {
        "timeAdded" : "20210107T201242.755775"
      }
    },
    {
      "id" : 5,
      "src" : "C:\\ProgramData\\TechSmith\\Camtasia Studio 19\\Library 4.0\\User Libraries\\K8s\\start.asset\\wave1.png",
      "rect" : [0, 0, 1907, 383],
      "lastMod" : "20210105T163238",
      "sourceTracks" : [
        {
          "range" : [0, 1],
          "type" : 1,
          "editRate" : 10000000,
          "trackRect" : [0, 0, 1907, 383],
          "sampleRate" : 0,
          "bitDepth" : 24,
          "numChannels" : 0,
          "integratedLUFS" : 100.0,
          "peakLevel" : -1.0,
          "metaData" : ""
        }
      ],
      "metadata" : {
        "assetLibraryId" : "75d65985-041c-43c4-a44b-f79aada87cf9",
        "timeAdded" : "20210107T202036.189665"
      }
    },
    {
      "id" : 6,
      "src" : "C:\\ProgramData\\TechSmith\\Camtasia Studio 19\\Library 4.0\\User Libraries\\K8s\\start.asset\\wave2.png",
      "rect" : [0, 0, 1906, 341],
      "lastMod" : "20210105T163731",
      "sourceTracks" : [
        {
          "range" : [0, 1],
          "type" : 1,
          "editRate" : 10000000,
          "trackRect" : [0, 0, 1906, 341],
          "sampleRate" : 0,
          "bitDepth" : 24,
          "numChannels" : 0,
          "integratedLUFS" : 100.0,
          "peakLevel" : -1.0,
          "metaData" : ""
        }
      ],
      "metadata" : {
        "assetLibraryId" : "75d65985-041c-43c4-a44b-f79aada87cf9",
        "timeAdded" : "20210107T202036.189665"
      }
    },
    {
      "id" : 7,
      "src" : "C:\\ProgramData\\TechSmith\\Camtasia Studio 19\\Library 4.0\\User Libraries\\K8s\\start.asset\\wave3.png",
      "rect" : [0, 0, 1903, 380],
      "lastMod" : "20210105T163725",
      "sourceTracks" : [
        {
          "range" : [0, 1],
          "type" : 1,
          "editRate" : 10000000,
          "trackRect" : [0, 0, 1903, 380],
          "sampleRate" : 0,
          "bitDepth" : 24,
          "numChannels" : 0,
          "integratedLUFS" : 100.0,
          "peakLevel" : -1.0,
          "metaData" : ""
        }
      ],
      "metadata" : {
        "assetLibraryId" : "75d65985-041c-43c4-a44b-f79aada87cf9",
        "timeAdded" : "20210107T202036.189665"
      }
    },
    {
      "id" : 8,
      "src" : "C:\\ProgramData\\TechSmith\\Camtasia Studio 19\\Library 4.0\\User Libraries\\K8s\\start.asset\\control-plane-128.png",
      "rect" : [0, 0, 128, 128],
      "lastMod" : "20201224T160827",
      "sourceTracks" : [
        {
          "range" : [0, 1],
          "type" : 1,
          "editRate" : 10000000,
          "trackRect" : [0, 0, 128, 128],
          "sampleRate" : 0,
          "bitDepth" : 32,
          "numChannels" : 0,
          "integratedLUFS" : 100.0,
          "peakLevel" : -1.0,
          "metaData" : ""
        }
      ],
      "metadata" : {
        "assetLibraryId" : "75d65985-041c-43c4-a44b-f79aada87cf9",
        "timeAdded" : "20210107T202036.189665"
      }
    },
    {
      "id" : 9,
      "src" : "C:\\ProgramData\\TechSmith\\Camtasia Studio 19\\Library 4.0\\User Libraries\\K8s\\start.asset\\etcd-128.png",
      "rect" : [0, 0, 128, 128],
      "lastMod" : "20201224T160827",
      "sourceTracks" : [
        {
          "range" : [0, 1],
          "type" : 1,
          "editRate" : 10000000,
          "trackRect" : [0, 0, 128, 128],
          "sampleRate" : 0,
          "bitDepth" : 32,
          "numChannels" : 0,
          "integratedLUFS" : 100.0,
          "peakLevel" : -1.0,
          "metaData" : ""
        }
      ],
      "metadata" : {
        "assetLibraryId" : "75d65985-041c-43c4-a44b-f79aada87cf9",
        "timeAdded" : "20210107T202036.189665"
      }
    },
    {
      "id" : 10,
      "src" : "C:\\ProgramData\\TechSmith\\Camtasia Studio 19\\Library 4.0\\User Libraries\\K8s\\start.asset\\node-128.png",
      "rect" : [0, 0, 128, 128],
      "lastMod" : "20201224T160827",
      "sourceTracks" : [
        {
          "range" : [0, 1],
          "type" : 1,
          "editRate" : 10000000,
          "trackRect" : [0, 0, 128, 128],
          "sampleRate" : 0,
          "bitDepth" : 32,
          "numChannels" : 0,
          "integratedLUFS" : 100.0,
          "peakLevel" : -1.0,
          "metaData" : ""
        }
      ],
      "metadata" : {
        "assetLibraryId" : "75d65985-041c-43c4-a44b-f79aada87cf9",
        "timeAdded" : "20210107T202036.189665"
      }
    },
    {
      "id" : 11,
      "src" : "C:\\ProgramData\\TechSmith\\Camtasia Studio 19\\Library 4.0\\User Libraries\\K8s\\start.asset\\ns-128.png",
      "rect" : [0, 0, 128, 128],
      "lastMod" : "20201224T160827",
      "sourceTracks" : [
        {
          "range" : [0, 1],
          "type" : 1,
          "editRate" : 10000000,
          "trackRect" : [0, 0, 128, 128],
          "sampleRate" : 0,
          "bitDepth" : 32,
          "numChannels" : 0,
          "integratedLUFS" : 100.0,
          "peakLevel" : -1.0,
          "metaData" : ""
        }
      ],
      "metadata" : {
        "assetLibraryId" : "75d65985-041c-43c4-a44b-f79aada87cf9",
        "timeAdded" : "20210107T202036.189665"
      }
    },
    {
      "id" : 12,
      "src" : "C:\\ProgramData\\TechSmith\\Camtasia Studio 19\\Library 4.0\\User Libraries\\K8s\\start.asset\\pod-128.png",
      "rect" : [0, 0, 128, 128],
      "lastMod" : "20201224T160827",
      "sourceTracks" : [
        {
          "range" : [0, 1],
          "type" : 1,
          "editRate" : 10000000,
          "trackRect" : [0, 0, 128, 128],
          "sampleRate" : 0,
          "bitDepth" : 32,
          "numChannels" : 0,
          "integratedLUFS" : 100.0,
          "peakLevel" : -1.0,
          "metaData" : ""
        }
      ],
      "metadata" : {
        "assetLibraryId" : "75d65985-041c-43c4-a44b-f79aada87cf9",
        "timeAdded" : "20210107T202036.189665"
      }
    },
    {
      "id" : 13,
      "src" : "C:\\ProgramData\\TechSmith\\Camtasia Studio 19\\Library 4.0\\User Libraries\\K8s\\start.asset\\secret-128.png",
      "rect" : [0, 0, 128, 128],
      "lastMod" : "20201224T160827",
      "sourceTracks" : [
        {
          "range" : [0, 1],
          "type" : 1,
          "editRate" : 10000000,
          "trackRect" : [0, 0, 128, 128],
          "sampleRate" : 0,
          "bitDepth" : 32,
          "numChannels" : 0,
          "integratedLUFS" : 100.0,
          "peakLevel" : -1.0,
          "metaData" : ""
        }
      ],
      "metadata" : {
        "assetLibraryId" : "75d65985-041c-43c4-a44b-f79aada87cf9",
        "timeAdded" : "20210107T202036.189665"
      }
    },
    {
      "id" : 14,
      "src" : "C:\\ProgramData\\TechSmith\\Camtasia Studio 19\\Library 4.0\\User Libraries\\K8s\\start.asset\\svc-128.png",
      "rect" : [0, 0, 128, 128],
      "lastMod" : "20201224T160827",
      "sourceTracks" : [
        {
          "range" : [0, 1],
          "type" : 1,
          "editRate" : 10000000,
          "trackRect" : [0, 0, 128, 128],
          "sampleRate" : 0,
          "bitDepth" : 32,
          "numChannels" : 0,
          "integratedLUFS" : 100.0,
          "peakLevel" : -1.0,
          "metaData" : ""
        }
      ],
      "metadata" : {
        "assetLibraryId" : "75d65985-041c-43c4-a44b-f79aada87cf9",
        "timeAdded" : "20210107T202036.189665"
      }
    },
    {
      "id" : 15,
      "src" : "C:\\ProgramData\\TechSmith\\Camtasia Studio 19\\Library 4.0\\User Libraries\\K8s\\start.asset\\rs-128.png",
      "rect" : [0, 0, 128, 128],
      "lastMod" : "20201224T160827",
      "sourceTracks" : [
        {
          "range" : [0, 1],
          "type" : 1,
          "editRate" : 10000000,
          "trackRect" : [0, 0, 128, 128],
          "sampleRate" : 0,
          "bitDepth" : 32,
          "numChannels" : 0,
          "integratedLUFS" : 100.0,
          "peakLevel" : -1.0,
          "metaData" : ""
        }
      ],
      "metadata" : {
        "assetLibraryId" : "75d65985-041c-43c4-a44b-f79aada87cf9",
        "timeAdded" : "20210107T202036.189665"
      }
    },
    {
      "id" : 16,
      "src" : "C:\\ProgramData\\TechSmith\\Camtasia Studio 19\\Library 4.0\\User Libraries\\K8s\\start.asset\\vol-128.png",
      "rect" : [0, 0, 128, 128],
      "lastMod" : "20201224T160827",
      "sourceTracks" : [
        {
          "range" : [0, 1],
          "type" : 1,
          "editRate" : 10000000,
          "trackRect" : [0, 0, 128, 128],
          "sampleRate" : 0,
          "bitDepth" : 32,
          "numChannels" : 0,
          "integratedLUFS" : 100.0,
          "peakLevel" : -1.0,
          "metaData" : ""
        }
      ],
      "metadata" : {
        "assetLibraryId" : "75d65985-041c-43c4-a44b-f79aada87cf9",
        "timeAdded" : "20210107T202036.189665"
      }
    },
    {
      "id" : 17,
      "src" : "C:\\ProgramData\\TechSmith\\Camtasia Studio 19\\Library 4.0\\User Libraries\\K8s\\start.asset\\deploy-128.png",
      "rect" : [0, 0, 128, 128],
      "lastMod" : "20201224T160827",
      "sourceTracks" : [
        {
          "range" : [0, 1],
          "type" : 1,
          "editRate" : 10000000,
          "trackRect" : [0, 0, 128, 128],
          "sampleRate" : 0,
          "bitDepth" : 32,
          "numChannels" : 0,
          "integratedLUFS" : 100.0,
          "peakLevel" : -1.0,
          "metaData" : ""
        }
      ],
      "metadata" : {
        "assetLibraryId" : "75d65985-041c-43c4-a44b-f79aada87cf9",
        "timeAdded" : "20210107T202036.189665"
      }
    },
    {
      "id" : 18,
      "src" : "C:\\ProgramData\\TechSmith\\Camtasia Studio 19\\Library 4.0\\User Libraries\\K8s\\start.asset\\cronjob-128.png",
      "rect" : [0, 0, 128, 128],
      "lastMod" : "20201224T160827",
      "sourceTracks" : [
        {
          "range" : [0, 1],
          "type" : 1,
          "editRate" : 10000000,
          "trackRect" : [0, 0, 128, 128],
          "sampleRate" : 0,
          "bitDepth" : 32,
          "numChannels" : 0,
          "integratedLUFS" : 100.0,
          "peakLevel" : -1.0,
          "metaData" : ""
        }
      ],
      "metadata" : {
        "assetLibraryId" : "75d65985-041c-43c4-a44b-f79aada87cf9",
        "timeAdded" : "20210107T202036.189665"
      }
    },
    {
      "id" : 19,
      "src" : "C:\\ProgramData\\TechSmith\\Camtasia Studio 19\\Library 4.0\\User Libraries\\K8s\\start.asset\\k8sfavicon.png",
      "rect" : [0, 0, 512, 512],
      "lastMod" : "20210105T165021",
      "sourceTracks" : [
        {
          "range" : [0, 1],
          "type" : 1,
          "editRate" : 10000000,
          "trackRect" : [0, 0, 512, 512],
          "sampleRate" : 0,
          "bitDepth" : 32,
          "numChannels" : 0,
          "integratedLUFS" : 100.0,
          "peakLevel" : -1.0,
          "metaData" : ""
        }
      ],
      "metadata" : {
        "assetLibraryId" : "75d65985-041c-43c4-a44b-f79aada87cf9",
        "timeAdded" : "20210107T202036.189665"
      }
    },
    {
      "id" : 20,
      "src" : "C:\\ProgramData\\TechSmith\\Camtasia Studio 19\\Library 4.0\\User Libraries\\K8s\\start.asset\\wave.mp3",
      "rect" : [0, 0, 0, 0],
      "lastMod" : "20210105T195352",
      "sourceTracks" : [
        {
          "range" : [0, 185467500],
          "type" : 2,
          "editRate" : 10000000,
          "trackRect" : [0, 0, 0, 0],
          "sampleRate" : 44100,
          "bitDepth" : 0,
          "numChannels" : 2,
          "integratedLUFS" : -16.6955131625049,
          "peakLevel" : 0.940275430679321,
          "metaData" : ""
        }
      ],
      "metadata" : {
        "assetLibraryId" : "75d65985-041c-43c4-a44b-f79aada87cf9",
        "timeAdded" : "20210107T202036.189665"
      }
    },
    {
      "id" : 21,
      "src" : "C:\\ProgramData\\TechSmith\\Camtasia Studio 19\\Library 4.0\\User Libraries\\K8s\\end.asset\\wave1.png",
      "rect" : [0, 0, 1907, 383],
      "lastMod" : "20210105T163238",
      "sourceTracks" : [
        {
          "range" : [0, 1],
          "type" : 1,
          "editRate" : 10000000,
          "trackRect" : [0, 0, 1907, 383],
          "sampleRate" : 0,
          "bitDepth" : 24,
          "numChannels" : 0,
          "integratedLUFS" : 100.0,
          "peakLevel" : -1.0,
          "metaData" : ""
        }
      ],
      "metadata" : {
        "assetLibraryId" : "c49e4026-371e-4445-9c95-bf86c5e3c498",
        "timeAdded" : "20210107T202104.009375"
      }
    },
    {
      "id" : 22,
      "src" : "C:\\ProgramData\\TechSmith\\Camtasia Studio 19\\Library 4.0\\User Libraries\\K8s\\end.asset\\wave2.png",
      "rect" : [0, 0, 1906, 341],
      "lastMod" : "20210105T163731",
      "sourceTracks" : [
        {
          "range" : [0, 1],
          "type" : 1,
          "editRate" : 10000000,
          "trackRect" : [0, 0, 1906, 341],
          "sampleRate" : 0,
          "bitDepth" : 24,
          "numChannels" : 0,
          "integratedLUFS" : 100.0,
          "peakLevel" : -1.0,
          "metaData" : ""
        }
      ],
      "metadata" : {
        "assetLibraryId" : "c49e4026-371e-4445-9c95-bf86c5e3c498",
        "timeAdded" : "20210107T202104.009375"
      }
    },
    {
      "id" : 23,
      "src" : "C:\\ProgramData\\TechSmith\\Camtasia Studio 19\\Library 4.0\\User Libraries\\K8s\\end.asset\\wave3.png",
      "rect" : [0, 0, 1903, 380],
      "lastMod" : "20210105T163725",
      "sourceTracks" : [
        {
          "range" : [0, 1],
          "type" : 1,
          "editRate" : 10000000,
          "trackRect" : [0, 0, 1903, 380],
          "sampleRate" : 0,
          "bitDepth" : 24,
          "numChannels" : 0,
          "integratedLUFS" : 100.0,
          "peakLevel" : -1.0,
          "metaData" : ""
        }
      ],
      "metadata" : {
        "assetLibraryId" : "c49e4026-371e-4445-9c95-bf86c5e3c498",
        "timeAdded" : "20210107T202104.009375"
      }
    },
    {
      "id" : 24,
      "src" : "C:\\ProgramData\\TechSmith\\Camtasia Studio 19\\Library 4.0\\User Libraries\\K8s\\end.asset\\control-plane-128.png",
      "rect" : [0, 0, 128, 128],
      "lastMod" : "20201224T160827",
      "sourceTracks" : [
        {
          "range" : [0, 1],
          "type" : 1,
          "editRate" : 10000000,
          "trackRect" : [0, 0, 128, 128],
          "sampleRate" : 0,
          "bitDepth" : 32,
          "numChannels" : 0,
          "integratedLUFS" : 100.0,
          "peakLevel" : -1.0,
          "metaData" : ""
        }
      ],
      "metadata" : {
        "assetLibraryId" : "c49e4026-371e-4445-9c95-bf86c5e3c498",
        "timeAdded" : "20210107T202104.009375"
      }
    },
    {
      "id" : 25,
      "src" : "C:\\ProgramData\\TechSmith\\Camtasia Studio 19\\Library 4.0\\User Libraries\\K8s\\end.asset\\etcd-128.png",
      "rect" : [0, 0, 128, 128],
      "lastMod" : "20201224T160827",
      "sourceTracks" : [
        {
          "range" : [0, 1],
          "type" : 1,
          "editRate" : 10000000,
          "trackRect" : [0, 0, 128, 128],
          "sampleRate" : 0,
          "bitDepth" : 32,
          "numChannels" : 0,
          "integratedLUFS" : 100.0,
          "peakLevel" : -1.0,
          "metaData" : ""
        }
      ],
      "metadata" : {
        "assetLibraryId" : "c49e4026-371e-4445-9c95-bf86c5e3c498",
        "timeAdded" : "20210107T202104.009375"
      }
    },
    {
      "id" : 26,
      "src" : "C:\\ProgramData\\TechSmith\\Camtasia Studio 19\\Library 4.0\\User Libraries\\K8s\\end.asset\\node-128.png",
      "rect" : [0, 0, 128, 128],
      "lastMod" : "20201224T160827",
      "sourceTracks" : [
        {
          "range" : [0, 1],
          "type" : 1,
          "editRate" : 10000000,
          "trackRect" : [0, 0, 128, 128],
          "sampleRate" : 0,
          "bitDepth" : 32,
          "numChannels" : 0,
          "integratedLUFS" : 100.0,
          "peakLevel" : -1.0,
          "metaData" : ""
        }
      ],
      "metadata" : {
        "assetLibraryId" : "c49e4026-371e-4445-9c95-bf86c5e3c498",
        "timeAdded" : "20210107T202104.009375"
      }
    },
    {
      "id" : 27,
      "src" : "C:\\ProgramData\\TechSmith\\Camtasia Studio 19\\Library 4.0\\User Libraries\\K8s\\end.asset\\ns-128.png",
      "rect" : [0, 0, 128, 128],
      "lastMod" : "20201224T160827",
      "sourceTracks" : [
        {
          "range" : [0, 1],
          "type" : 1,
          "editRate" : 10000000,
          "trackRect" : [0, 0, 128, 128],
          "sampleRate" : 0,
          "bitDepth" : 32,
          "numChannels" : 0,
          "integratedLUFS" : 100.0,
          "peakLevel" : -1.0,
          "metaData" : ""
        }
      ],
      "metadata" : {
        "assetLibraryId" : "c49e4026-371e-4445-9c95-bf86c5e3c498",
        "timeAdded" : "20210107T202104.009375"
      }
    },
    {
      "id" : 28,
      "src" : "C:\\ProgramData\\TechSmith\\Camtasia Studio 19\\Library 4.0\\User Libraries\\K8s\\end.asset\\pod-128.png",
      "rect" : [0, 0, 128, 128],
      "lastMod" : "20201224T160827",
      "sourceTracks" : [
        {
          "range" : [0, 1],
          "type" : 1,
          "editRate" : 10000000,
          "trackRect" : [0, 0, 128, 128],
          "sampleRate" : 0,
          "bitDepth" : 32,
          "numChannels" : 0,
          "integratedLUFS" : 100.0,
          "peakLevel" : -1.0,
          "metaData" : ""
        }
      ],
      "metadata" : {
        "assetLibraryId" : "c49e4026-371e-4445-9c95-bf86c5e3c498",
        "timeAdded" : "20210107T202104.009375"
      }
    },
    {
      "id" : 29,
      "src" : "C:\\ProgramData\\TechSmith\\Camtasia Studio 19\\Library 4.0\\User Libraries\\K8s\\end.asset\\secret-128.png",
      "rect" : [0, 0, 128, 128],
      "lastMod" : "20201224T160827",
      "sourceTracks" : [
        {
          "range" : [0, 1],
          "type" : 1,
          "editRate" : 10000000,
          "trackRect" : [0, 0, 128, 128],
          "sampleRate" : 0,
          "bitDepth" : 32,
          "numChannels" : 0,
          "integratedLUFS" : 100.0,
          "peakLevel" : -1.0,
          "metaData" : ""
        }
      ],
      "metadata" : {
        "assetLibraryId" : "c49e4026-371e-4445-9c95-bf86c5e3c498",
        "timeAdded" : "20210107T202104.009375"
      }
    },
    {
      "id" : 30,
      "src" : "C:\\ProgramData\\TechSmith\\Camtasia Studio 19\\Library 4.0\\User Libraries\\K8s\\end.asset\\svc-128.png",
      "rect" : [0, 0, 128, 128],
      "lastMod" : "20201224T160827",
      "sourceTracks" : [
        {
          "range" : [0, 1],
          "type" : 1,
          "editRate" : 10000000,
          "trackRect" : [0, 0, 128, 128],
          "sampleRate" : 0,
          "bitDepth" : 32,
          "numChannels" : 0,
          "integratedLUFS" : 100.0,
          "peakLevel" : -1.0,
          "metaData" : ""
        }
      ],
      "metadata" : {
        "assetLibraryId" : "c49e4026-371e-4445-9c95-bf86c5e3c498",
        "timeAdded" : "20210107T202104.009375"
      }
    },
    {
      "id" : 31,
      "src" : "C:\\ProgramData\\TechSmith\\Camtasia Studio 19\\Library 4.0\\User Libraries\\K8s\\end.asset\\rs-128.png",
      "rect" : [0, 0, 128, 128],
      "lastMod" : "20201224T160827",
      "sourceTracks" : [
        {
          "range" : [0, 1],
          "type" : 1,
          "editRate" : 10000000,
          "trackRect" : [0, 0, 128, 128],
          "sampleRate" : 0,
          "bitDepth" : 32,
          "numChannels" : 0,
          "integratedLUFS" : 100.0,
          "peakLevel" : -1.0,
          "metaData" : ""
        }
      ],
      "metadata" : {
        "assetLibraryId" : "c49e4026-371e-4445-9c95-bf86c5e3c498",
        "timeAdded" : "20210107T202104.009375"
      }
    },
    {
      "id" : 32,
      "src" : "C:\\ProgramData\\TechSmith\\Camtasia Studio 19\\Library 4.0\\User Libraries\\K8s\\end.asset\\vol-128.png",
      "rect" : [0, 0, 128, 128],
      "lastMod" : "20201224T160827",
      "sourceTracks" : [
        {
          "range" : [0, 1],
          "type" : 1,
          "editRate" : 10000000,
          "trackRect" : [0, 0, 128, 128],
          "sampleRate" : 0,
          "bitDepth" : 32,
          "numChannels" : 0,
          "integratedLUFS" : 100.0,
          "peakLevel" : -1.0,
          "metaData" : ""
        }
      ],
      "metadata" : {
        "assetLibraryId" : "c49e4026-371e-4445-9c95-bf86c5e3c498",
        "timeAdded" : "20210107T202104.009375"
      }
    },
    {
      "id" : 33,
      "src" : "C:\\ProgramData\\TechSmith\\Camtasia Studio 19\\Library 4.0\\User Libraries\\K8s\\end.asset\\deploy-128.png",
      "rect" : [0, 0, 128, 128],
      "lastMod" : "20201224T160827",
      "sourceTracks" : [
        {
          "range" : [0, 1],
          "type" : 1,
          "editRate" : 10000000,
          "trackRect" : [0, 0, 128, 128],
          "sampleRate" : 0,
          "bitDepth" : 32,
          "numChannels" : 0,
          "integratedLUFS" : 100.0,
          "peakLevel" : -1.0,
          "metaData" : ""
        }
      ],
      "metadata" : {
        "assetLibraryId" : "c49e4026-371e-4445-9c95-bf86c5e3c498",
        "timeAdded" : "20210107T202104.010376"
      }
    },
    {
      "id" : 34,
      "src" : "C:\\ProgramData\\TechSmith\\Camtasia Studio 19\\Library 4.0\\User Libraries\\K8s\\end.asset\\cronjob-128.png",
      "rect" : [0, 0, 128, 128],
      "lastMod" : "20201224T160827",
      "sourceTracks" : [
        {
          "range" : [0, 1],
          "type" : 1,
          "editRate" : 10000000,
          "trackRect" : [0, 0, 128, 128],
          "sampleRate" : 0,
          "bitDepth" : 32,
          "numChannels" : 0,
          "integratedLUFS" : 100.0,
          "peakLevel" : -1.0,
          "metaData" : ""
        }
      ],
      "metadata" : {
        "assetLibraryId" : "c49e4026-371e-4445-9c95-bf86c5e3c498",
        "timeAdded" : "20210107T202104.010376"
      }
    },
    {
      "id" : 35,
      "src" : "C:\\ProgramData\\TechSmith\\Camtasia Studio 19\\Library 4.0\\User Libraries\\K8s\\end.asset\\k8sfavicon.png",
      "rect" : [0, 0, 512, 512],
      "lastMod" : "20210105T165021",
      "sourceTracks" : [
        {
          "range" : [0, 1],
          "type" : 1,
          "editRate" : 10000000,
          "trackRect" : [0, 0, 512, 512],
          "sampleRate" : 0,
          "bitDepth" : 32,
          "numChannels" : 0,
          "integratedLUFS" : 100.0,
          "peakLevel" : -1.0,
          "metaData" : ""
        }
      ],
      "metadata" : {
        "assetLibraryId" : "c49e4026-371e-4445-9c95-bf86c5e3c498",
        "timeAdded" : "20210107T202104.010376"
      }
    },
    {
      "id" : 36,
      "src" : "C:\\ProgramData\\TechSmith\\Camtasia Studio 19\\Library 4.0\\User Libraries\\K8s\\end.asset\\wave.mp3",
      "rect" : [0, 0, 0, 0],
      "lastMod" : "20210105T195352",
      "sourceTracks" : [
        {
          "range" : [0, 185467500],
          "type" : 2,
          "editRate" : 10000000,
          "trackRect" : [0, 0, 0, 0],
          "sampleRate" : 44100,
          "bitDepth" : 0,
          "numChannels" : 2,
          "integratedLUFS" : -16.6955131625049,
          "peakLevel" : 0.940275430679321,
          "metaData" : ""
        }
      ],
      "metadata" : {
        "assetLibraryId" : "c49e4026-371e-4445-9c95-bf86c5e3c498",
        "timeAdded" : "20210107T202104.010376"
      }
    }
  ],
  "timeline" : {
    "id" : 37,
    "sceneTrack" : {
      "scenes" : [
        {
          "duration" : 130.0,
          "title" : "",
          "type" : "",
          "csml" : {
            "tracks" : [
              {
                "trackIndex" : 0,
                "medias" : [
                  {
                    "id" : 38,
                    "_type" : "StitchedMedia",
                    "minMediaStart" : 0,
                    "attributes" : {
                      "ident" : "Rec 01-07-21",
                      "gain" : 1.0,
                      "mixToMono" : false
                    },
                    "parameters" : {
                      "volume" : 0.961538461538462,
                      "cursorOpacity" : 1.0,
                      "cursorScale" : 1.0
                    },
                    "medias" : [
                        {
                          "id" : 39,
                          "_type" : "UnifiedMedia",
                          "video" : 
                              {
                                "id" : 40,
                                "_type" : "ScreenVMFile",
                                "src" : 1,
                                "trackNumber" : 0,
                                "attributes" : {
                                  "ident" : "Rec 01-07-21"
                                },
                                "parameters" : {
                                  "cursorScale" : {
                                    "type" : "double",
                                    "defaultValue" : 0.0,
                                    "interp" : "linr"
                                  },
                                  "cursorOpacity" : {
                                    "type" : "double",
                                    "defaultValue" : 0.0,
                                    "interp" : "linr"
                                  }
                                },
                                "effects" : [

                                ],
                                "start" : 0,
                                "duration" : 381,
                                "mediaStart" : 0,
                                "mediaDuration" : 381,
                                "scalar" : 1,
                                "animationTracks" : {

                                }
                              },
                          "audio" : 
                              {
                                "id" : 41,
                                "_type" : "AMFile",
                                "src" : 1,
                                "trackNumber" : 1,
                                "attributes" : {
                                  "ident" : "",
                                  "gain" : 1.0,
                                  "mixToMono" : false
                                },
                                  "channelNumber" : "0,1",
                                "effects" : [

                                ],
                                "start" : 0,
                                "duration" : 381,
                                "mediaStart" : 0,
                                "mediaDuration" : 381,
                                "scalar" : 1,
                                "animationTracks" : {

                                }
                              }
,
                          "start" : 0,
                          "duration" : 381,
                          "mediaStart" : 0,
                          "mediaDuration" : 10891,
                          "scalar" : 1,
                          "metadata" : {
                            "AutoAppliedSmartFocus" : "False",
                            "clipSpeedAttribute" : false
                          }
                        },
                        {
                          "id" : 42,
                          "_type" : "UnifiedMedia",
                          "video" : 
                              {
                                "id" : 43,
                                "_type" : "ScreenVMFile",
                                "src" : 1,
                                "trackNumber" : 0,
                                "attributes" : {
                                  "ident" : "Rec 01-07-21"
                                },
                                "parameters" : {
                                  "cursorScale" : {
                                    "type" : "double",
                                    "defaultValue" : 0.0,
                                    "interp" : "linr"
                                  },
                                  "cursorOpacity" : {
                                    "type" : "double",
                                    "defaultValue" : 0.0,
                                    "interp" : "linr"
                                  }
                                },
                                "effects" : [

                                ],
                                "start" : 381,
                                "duration" : 140,
                                "mediaStart" : 590,
                                "mediaDuration" : 140,
                                "scalar" : 1,
                                "animationTracks" : {

                                }
                              },
                          "audio" : 
                              {
                                "id" : 44,
                                "_type" : "AMFile",
                                "src" : 1,
                                "trackNumber" : 1,
                                "attributes" : {
                                  "ident" : "",
                                  "gain" : 1.0,
                                  "mixToMono" : false
                                },
                                  "channelNumber" : "0,1",
                                "effects" : [

                                ],
                                "start" : 381,
                                "duration" : 140,
                                "mediaStart" : 590,
                                "mediaDuration" : 140,
                                "scalar" : 1,
                                "animationTracks" : {

                                }
                              }
,
                          "start" : 381,
                          "duration" : 140,
                          "mediaStart" : 0,
                          "mediaDuration" : 10891,
                          "scalar" : 1,
                          "metadata" : {
                            "AutoAppliedSmartFocus" : "False",
                            "clipSpeedAttribute" : false
                          }
                        },
                        {
                          "id" : 45,
                          "_type" : "UnifiedMedia",
                          "video" : 
                              {
                                "id" : 46,
                                "_type" : "ScreenVMFile",
                                "src" : 1,
                                "trackNumber" : 0,
                                "attributes" : {
                                  "ident" : "Rec 01-07-21"
                                },
                                "parameters" : {
                                  "cursorScale" : {
                                    "type" : "double",
                                    "defaultValue" : 0.0,
                                    "interp" : "linr"
                                  },
                                  "cursorOpacity" : {
                                    "type" : "double",
                                    "defaultValue" : 0.0,
                                    "interp" : "linr"
                                  }
                                },
                                "effects" : [

                                ],
                                "start" : 521,
                                "duration" : 221,
                                "mediaStart" : 827,
                                "mediaDuration" : 221,
                                "scalar" : 1,
                                "animationTracks" : {

                                }
                              },
                          "audio" : 
                              {
                                "id" : 47,
                                "_type" : "AMFile",
                                "src" : 1,
                                "trackNumber" : 1,
                                "attributes" : {
                                  "ident" : "",
                                  "gain" : 1.0,
                                  "mixToMono" : false
                                },
                                  "channelNumber" : "0,1",
                                "effects" : [

                                ],
                                "start" : 521,
                                "duration" : 221,
                                "mediaStart" : 827,
                                "mediaDuration" : 221,
                                "scalar" : 1,
                                "animationTracks" : {

                                }
                              }
,
                          "start" : 521,
                          "duration" : 221,
                          "mediaStart" : 0,
                          "mediaDuration" : 10891,
                          "scalar" : 1,
                          "metadata" : {
                            "AutoAppliedSmartFocus" : "False",
                            "clipSpeedAttribute" : false
                          }
                        },
                        {
                          "id" : 48,
                          "_type" : "UnifiedMedia",
                          "video" : 
                              {
                                "id" : 49,
                                "_type" : "ScreenVMFile",
                                "src" : 1,
                                "trackNumber" : 0,
                                "attributes" : {
                                  "ident" : "Rec 01-07-21"
                                },
                                "parameters" : {
                                  "cursorScale" : {
                                    "type" : "double",
                                    "defaultValue" : 0.0,
                                    "interp" : "linr"
                                  },
                                  "cursorOpacity" : {
                                    "type" : "double",
                                    "defaultValue" : 0.0,
                                    "interp" : "linr"
                                  }
                                },
                                "effects" : [

                                ],
                                "start" : 742,
                                "duration" : 9693,
                                "mediaStart" : 1198,
                                "mediaDuration" : 9693,
                                "scalar" : 1,
                                "animationTracks" : {

                                }
                              },
                          "audio" : 
                              {
                                "id" : 50,
                                "_type" : "AMFile",
                                "src" : 1,
                                "trackNumber" : 1,
                                "attributes" : {
                                  "ident" : "",
                                  "gain" : 1.0,
                                  "mixToMono" : false
                                },
                                  "channelNumber" : "0,1",
                                "effects" : [

                                ],
                                "start" : 742,
                                "duration" : 9693,
                                "mediaStart" : 1198,
                                "mediaDuration" : 9693,
                                "scalar" : 1,
                                "animationTracks" : {

                                }
                              }
,
                          "start" : 742,
                          "duration" : 9693,
                          "mediaStart" : 0,
                          "mediaDuration" : 10891,
                          "scalar" : 1,
                          "metadata" : {
                            "AutoAppliedSmartFocus" : "False",
                            "clipSpeedAttribute" : false
                          }
                        }
                    ],
                    "effects" : [

                    ],
                    "start" : 135,
                    "duration" : 782,
                    "mediaStart" : 146,
                    "mediaDuration" : 782,
                    "scalar" : 1,
                    "metadata" : {
                      "AutoAppliedSmartFocus" : "False",
                      "clipSpeedAttribute" : false
                    },
                    "animationTracks" : {

                    }
                  },
                  {
                    "id" : 51,
                    "_type" : "StitchedMedia",
                    "minMediaStart" : 0,
                    "attributes" : {
                      "ident" : "Rec 01-07-21",
                      "gain" : 0.3,
                      "mixToMono" : false
                    },
                    "parameters" : {
                      "volume" : 1.0,
                      "cursorOpacity" : 1.0,
                      "cursorScale" : 1.0
                    },
                    "medias" : [
                        {
                          "id" : 52,
                          "_type" : "UnifiedMedia",
                          "video" : 
                              {
                                "id" : 53,
                                "_type" : "ScreenVMFile",
                                "src" : 1,
                                "trackNumber" : 0,
                                "attributes" : {
                                  "ident" : "Rec 01-07-21"
                                },
                                "parameters" : {
                                  "cursorScale" : {
                                    "type" : "double",
                                    "defaultValue" : 0.0,
                                    "interp" : "linr"
                                  },
                                  "cursorOpacity" : {
                                    "type" : "double",
                                    "defaultValue" : 0.0,
                                    "interp" : "linr"
                                  }
                                },
                                "effects" : [

                                ],
                                "start" : 0,
                                "duration" : 381,
                                "mediaStart" : 0,
                                "mediaDuration" : 381,
                                "scalar" : 1,
                                "animationTracks" : {

                                }
                              },
                          "audio" : 
                              {
                                "id" : 54,
                                "_type" : "AMFile",
                                "src" : 1,
                                "trackNumber" : 1,
                                "attributes" : {
                                  "ident" : "",
                                  "gain" : 1.0,
                                  "mixToMono" : false
                                },
                                  "channelNumber" : "0,1",
                                "effects" : [

                                ],
                                "start" : 0,
                                "duration" : 381,
                                "mediaStart" : 0,
                                "mediaDuration" : 381,
                                "scalar" : 1,
                                "animationTracks" : {

                                }
                              }
,
                          "start" : 0,
                          "duration" : 381,
                          "mediaStart" : 0,
                          "mediaDuration" : 10891,
                          "scalar" : 1,
                          "metadata" : {
                            "AutoAppliedSmartFocus" : "False",
                            "clipSpeedAttribute" : false
                          }
                        },
                        {
                          "id" : 55,
                          "_type" : "UnifiedMedia",
                          "video" : 
                              {
                                "id" : 56,
                                "_type" : "ScreenVMFile",
                                "src" : 1,
                                "trackNumber" : 0,
                                "attributes" : {
                                  "ident" : "Rec 01-07-21"
                                },
                                "parameters" : {
                                  "cursorScale" : {
                                    "type" : "double",
                                    "defaultValue" : 0.0,
                                    "interp" : "linr"
                                  },
                                  "cursorOpacity" : {
                                    "type" : "double",
                                    "defaultValue" : 0.0,
                                    "interp" : "linr"
                                  }
                                },
                                "effects" : [

                                ],
                                "start" : 381,
                                "duration" : 140,
                                "mediaStart" : 590,
                                "mediaDuration" : 140,
                                "scalar" : 1,
                                "animationTracks" : {

                                }
                              },
                          "audio" : 
                              {
                                "id" : 57,
                                "_type" : "AMFile",
                                "src" : 1,
                                "trackNumber" : 1,
                                "attributes" : {
                                  "ident" : "",
                                  "gain" : 1.0,
                                  "mixToMono" : false
                                },
                                  "channelNumber" : "0,1",
                                "effects" : [

                                ],
                                "start" : 381,
                                "duration" : 140,
                                "mediaStart" : 590,
                                "mediaDuration" : 140,
                                "scalar" : 1,
                                "animationTracks" : {

                                }
                              }
,
                          "start" : 381,
                          "duration" : 140,
                          "mediaStart" : 0,
                          "mediaDuration" : 10891,
                          "scalar" : 1,
                          "metadata" : {
                            "AutoAppliedSmartFocus" : "False",
                            "clipSpeedAttribute" : false
                          }
                        },
                        {
                          "id" : 58,
                          "_type" : "UnifiedMedia",
                          "video" : 
                              {
                                "id" : 59,
                                "_type" : "ScreenVMFile",
                                "src" : 1,
                                "trackNumber" : 0,
                                "attributes" : {
                                  "ident" : "Rec 01-07-21"
                                },
                                "parameters" : {
                                  "cursorScale" : {
                                    "type" : "double",
                                    "defaultValue" : 0.0,
                                    "interp" : "linr"
                                  },
                                  "cursorOpacity" : {
                                    "type" : "double",
                                    "defaultValue" : 0.0,
                                    "interp" : "linr"
                                  }
                                },
                                "effects" : [

                                ],
                                "start" : 521,
                                "duration" : 221,
                                "mediaStart" : 827,
                                "mediaDuration" : 221,
                                "scalar" : 1,
                                "animationTracks" : {

                                }
                              },
                          "audio" : 
                              {
                                "id" : 60,
                                "_type" : "AMFile",
                                "src" : 1,
                                "trackNumber" : 1,
                                "attributes" : {
                                  "ident" : "",
                                  "gain" : 1.0,
                                  "mixToMono" : false
                                },
                                  "channelNumber" : "0,1",
                                "effects" : [

                                ],
                                "start" : 521,
                                "duration" : 221,
                                "mediaStart" : 827,
                                "mediaDuration" : 221,
                                "scalar" : 1,
                                "animationTracks" : {

                                }
                              }
,
                          "start" : 521,
                          "duration" : 221,
                          "mediaStart" : 0,
                          "mediaDuration" : 10891,
                          "scalar" : 1,
                          "metadata" : {
                            "AutoAppliedSmartFocus" : "False",
                            "clipSpeedAttribute" : false
                          }
                        },
                        {
                          "id" : 61,
                          "_type" : "UnifiedMedia",
                          "video" : 
                              {
                                "id" : 62,
                                "_type" : "ScreenVMFile",
                                "src" : 1,
                                "trackNumber" : 0,
                                "attributes" : {
                                  "ident" : "Rec 01-07-21"
                                },
                                "parameters" : {
                                  "cursorScale" : {
                                    "type" : "double",
                                    "defaultValue" : 0.0,
                                    "interp" : "linr"
                                  },
                                  "cursorOpacity" : {
                                    "type" : "double",
                                    "defaultValue" : 0.0,
                                    "interp" : "linr"
                                  }
                                },
                                "effects" : [

                                ],
                                "start" : 742,
                                "duration" : 608,
                                "mediaStart" : 1198,
                                "mediaDuration" : 608,
                                "scalar" : 1,
                                "animationTracks" : {

                                }
                              },
                          "audio" : 
                              {
                                "id" : 63,
                                "_type" : "AMFile",
                                "src" : 1,
                                "trackNumber" : 1,
                                "attributes" : {
                                  "ident" : "",
                                  "gain" : 1.0,
                                  "mixToMono" : false
                                },
                                  "channelNumber" : "0,1",
                                "effects" : [

                                ],
                                "start" : 742,
                                "duration" : 608,
                                "mediaStart" : 1198,
                                "mediaDuration" : 608,
                                "scalar" : 1,
                                "animationTracks" : {

                                }
                              }
,
                          "start" : 742,
                          "duration" : 608,
                          "mediaStart" : 0,
                          "mediaDuration" : 10891,
                          "scalar" : 1,
                          "metadata" : {
                            "AutoAppliedSmartFocus" : "False",
                            "clipSpeedAttribute" : false
                          }
                        },
                        {
                          "id" : 64,
                          "_type" : "UnifiedMedia",
                          "video" : 
                              {
                                "id" : 65,
                                "_type" : "ScreenVMFile",
                                "src" : 1,
                                "trackNumber" : 0,
                                "attributes" : {
                                  "ident" : "Rec 01-07-21"
                                },
                                "parameters" : {
                                  "cursorScale" : {
                                    "type" : "double",
                                    "defaultValue" : 0.0,
                                    "interp" : "linr"
                                  },
                                  "cursorOpacity" : {
                                    "type" : "double",
                                    "defaultValue" : 0.0,
                                    "interp" : "linr"
                                  }
                                },
                                "effects" : [

                                ],
                                "start" : 1350,
                                "duration" : 8454,
                                "mediaStart" : 2437,
                                "mediaDuration" : 8454,
                                "scalar" : 1,
                                "animationTracks" : {

                                }
                              },
                          "audio" : 
                              {
                                "id" : 66,
                                "_type" : "AMFile",
                                "src" : 1,
                                "trackNumber" : 1,
                                "attributes" : {
                                  "ident" : "",
                                  "gain" : 1.0,
                                  "mixToMono" : false
                                },
                                  "channelNumber" : "0,1",
                                "effects" : [

                                ],
                                "start" : 1350,
                                "duration" : 8454,
                                "mediaStart" : 2437,
                                "mediaDuration" : 8454,
                                "scalar" : 1,
                                "animationTracks" : {

                                }
                              }
,
                          "start" : 1350,
                          "duration" : 8454,
                          "mediaStart" : 0,
                          "mediaDuration" : 10891,
                          "scalar" : 1,
                          "metadata" : {
                            "AutoAppliedSmartFocus" : "False",
                            "clipSpeedAttribute" : false
                          }
                        }
                    ],
                    "effects" : [

                    ],
                    "start" : 917,
                    "duration" : 175,
                    "mediaStart" : 928,
                    "mediaDuration" : 525,
                    "scalar" : "1/3",
                    "metadata" : {
                      "AutoAppliedSmartFocus" : "False",
                      "clipSpeedAttribute" : true
                    },
                    "animationTracks" : {

                    }
                  },
                  {
                    "id" : 67,
                    "_type" : "StitchedMedia",
                    "minMediaStart" : 0,
                    "attributes" : {
                      "ident" : "Rec 01-07-21",
                      "gain" : 1.0,
                      "mixToMono" : false
                    },
                    "parameters" : {
                      "volume" : 1.0,
                      "cursorOpacity" : {
                        "type" : "double",
                        "defaultValue" : 1.0,
                        "interp" : "linr"
                      },
                      "cursorScale" : {
                        "type" : "double",
                        "defaultValue" : 1.0,
                        "interp" : "linr"
                      }
                    },
                    "medias" : [
                        {
                          "id" : 68,
                          "_type" : "UnifiedMedia",
                          "video" : 
                              {
                                "id" : 69,
                                "_type" : "ScreenVMFile",
                                "src" : 1,
                                "trackNumber" : 0,
                                "attributes" : {
                                  "ident" : "Rec 01-07-21"
                                },
                                "parameters" : {
                                  "cursorScale" : {
                                    "type" : "double",
                                    "defaultValue" : 0.0,
                                    "interp" : "linr"
                                  },
                                  "cursorOpacity" : {
                                    "type" : "double",
                                    "defaultValue" : 0.0,
                                    "interp" : "linr"
                                  }
                                },
                                "effects" : [

                                ],
                                "start" : 0,
                                "duration" : 381,
                                "mediaStart" : 0,
                                "mediaDuration" : 381,
                                "scalar" : 1,
                                "animationTracks" : {

                                }
                              },
                          "audio" : 
                              {
                                "id" : 70,
                                "_type" : "AMFile",
                                "src" : 1,
                                "trackNumber" : 1,
                                "attributes" : {
                                  "ident" : "",
                                  "gain" : 1.0,
                                  "mixToMono" : false
                                },
                                  "channelNumber" : "0,1",
                                "effects" : [

                                ],
                                "start" : 0,
                                "duration" : 381,
                                "mediaStart" : 0,
                                "mediaDuration" : 381,
                                "scalar" : 1,
                                "animationTracks" : {

                                }
                              }
,
                          "start" : 0,
                          "duration" : 381,
                          "mediaStart" : 0,
                          "mediaDuration" : 10891,
                          "scalar" : 1,
                          "metadata" : {
                            "AutoAppliedSmartFocus" : "False",
                            "clipSpeedAttribute" : false
                          }
                        },
                        {
                          "id" : 71,
                          "_type" : "UnifiedMedia",
                          "video" : 
                              {
                                "id" : 72,
                                "_type" : "ScreenVMFile",
                                "src" : 1,
                                "trackNumber" : 0,
                                "attributes" : {
                                  "ident" : "Rec 01-07-21"
                                },
                                "parameters" : {
                                  "cursorScale" : {
                                    "type" : "double",
                                    "defaultValue" : 0.0,
                                    "interp" : "linr"
                                  },
                                  "cursorOpacity" : {
                                    "type" : "double",
                                    "defaultValue" : 0.0,
                                    "interp" : "linr"
                                  }
                                },
                                "effects" : [

                                ],
                                "start" : 381,
                                "duration" : 140,
                                "mediaStart" : 590,
                                "mediaDuration" : 140,
                                "scalar" : 1,
                                "animationTracks" : {

                                }
                              },
                          "audio" : 
                              {
                                "id" : 73,
                                "_type" : "AMFile",
                                "src" : 1,
                                "trackNumber" : 1,
                                "attributes" : {
                                  "ident" : "",
                                  "gain" : 1.0,
                                  "mixToMono" : false
                                },
                                  "channelNumber" : "0,1",
                                "effects" : [

                                ],
                                "start" : 381,
                                "duration" : 140,
                                "mediaStart" : 590,
                                "mediaDuration" : 140,
                                "scalar" : 1,
                                "animationTracks" : {

                                }
                              }
,
                          "start" : 381,
                          "duration" : 140,
                          "mediaStart" : 0,
                          "mediaDuration" : 10891,
                          "scalar" : 1,
                          "metadata" : {
                            "AutoAppliedSmartFocus" : "False",
                            "clipSpeedAttribute" : false
                          }
                        },
                        {
                          "id" : 74,
                          "_type" : "UnifiedMedia",
                          "video" : 
                              {
                                "id" : 75,
                                "_type" : "ScreenVMFile",
                                "src" : 1,
                                "trackNumber" : 0,
                                "attributes" : {
                                  "ident" : "Rec 01-07-21"
                                },
                                "parameters" : {
                                  "cursorScale" : {
                                    "type" : "double",
                                    "defaultValue" : 0.0,
                                    "interp" : "linr"
                                  },
                                  "cursorOpacity" : {
                                    "type" : "double",
                                    "defaultValue" : 0.0,
                                    "interp" : "linr"
                                  }
                                },
                                "effects" : [

                                ],
                                "start" : 521,
                                "duration" : 221,
                                "mediaStart" : 827,
                                "mediaDuration" : 221,
                                "scalar" : 1,
                                "animationTracks" : {

                                }
                              },
                          "audio" : 
                              {
                                "id" : 76,
                                "_type" : "AMFile",
                                "src" : 1,
                                "trackNumber" : 1,
                                "attributes" : {
                                  "ident" : "",
                                  "gain" : 1.0,
                                  "mixToMono" : false
                                },
                                  "channelNumber" : "0,1",
                                "effects" : [

                                ],
                                "start" : 521,
                                "duration" : 221,
                                "mediaStart" : 827,
                                "mediaDuration" : 221,
                                "scalar" : 1,
                                "animationTracks" : {

                                }
                              }
,
                          "start" : 521,
                          "duration" : 221,
                          "mediaStart" : 0,
                          "mediaDuration" : 10891,
                          "scalar" : 1,
                          "metadata" : {
                            "AutoAppliedSmartFocus" : "False",
                            "clipSpeedAttribute" : false
                          }
                        },
                        {
                          "id" : 77,
                          "_type" : "UnifiedMedia",
                          "video" : 
                              {
                                "id" : 78,
                                "_type" : "ScreenVMFile",
                                "src" : 1,
                                "trackNumber" : 0,
                                "attributes" : {
                                  "ident" : "Rec 01-07-21"
                                },
                                "parameters" : {
                                  "cursorScale" : {
                                    "type" : "double",
                                    "defaultValue" : 0.0,
                                    "interp" : "linr"
                                  },
                                  "cursorOpacity" : {
                                    "type" : "double",
                                    "defaultValue" : 0.0,
                                    "interp" : "linr"
                                  }
                                },
                                "effects" : [

                                ],
                                "start" : 742,
                                "duration" : 9693,
                                "mediaStart" : 1198,
                                "mediaDuration" : 9693,
                                "scalar" : 1,
                                "animationTracks" : {

                                }
                              },
                          "audio" : 
                              {
                                "id" : 79,
                                "_type" : "AMFile",
                                "src" : 1,
                                "trackNumber" : 1,
                                "attributes" : {
                                  "ident" : "",
                                  "gain" : 1.0,
                                  "mixToMono" : false
                                },
                                  "channelNumber" : "0,1",
                                "effects" : [

                                ],
                                "start" : 742,
                                "duration" : 9693,
                                "mediaStart" : 1198,
                                "mediaDuration" : 9693,
                                "scalar" : 1,
                                "animationTracks" : {

                                }
                              }
,
                          "start" : 742,
                          "duration" : 9693,
                          "mediaStart" : 0,
                          "mediaDuration" : 10891,
                          "scalar" : 1,
                          "metadata" : {
                            "AutoAppliedSmartFocus" : "False",
                            "clipSpeedAttribute" : false
                          }
                        }
                    ],
                    "effects" : [

                    ],
                    "start" : 1092,
                    "duration" : 197,
                    "mediaStart" : 2084,
                    "mediaDuration" : 197,
                    "scalar" : 1,
                    "metadata" : {
                      "AutoAppliedSmartFocus" : "False",
                      "clipSpeedAttribute" : false
                    },
                    "animationTracks" : {

                    }
                  },
                  {
                    "id" : 80,
                    "_type" : "StitchedMedia",
                    "minMediaStart" : 0,
                    "attributes" : {
                      "ident" : "Rec 01-07-21",
                      "gain" : 1.0,
                      "mixToMono" : false
                    },
                    "parameters" : {
                      "volume" : 1.0,
                      "cursorOpacity" : {
                        "type" : "double",
                        "defaultValue" : 1.0,
                        "interp" : "linr"
                      },
                      "cursorScale" : {
                        "type" : "double",
                        "defaultValue" : 1.0,
                        "interp" : "linr"
                      }
                    },
                    "medias" : [
                        {
                          "id" : 81,
                          "_type" : "UnifiedMedia",
                          "video" : 
                              {
                                "id" : 82,
                                "_type" : "ScreenVMFile",
                                "src" : 1,
                                "trackNumber" : 0,
                                "attributes" : {
                                  "ident" : "Rec 01-07-21"
                                },
                                "parameters" : {
                                  "cursorScale" : {
                                    "type" : "double",
                                    "defaultValue" : 0.0,
                                    "interp" : "linr"
                                  },
                                  "cursorOpacity" : {
                                    "type" : "double",
                                    "defaultValue" : 0.0,
                                    "interp" : "linr"
                                  }
                                },
                                "effects" : [

                                ],
                                "start" : 0,
                                "duration" : 381,
                                "mediaStart" : 0,
                                "mediaDuration" : 381,
                                "scalar" : 1,
                                "animationTracks" : {

                                }
                              },
                          "audio" : 
                              {
                                "id" : 83,
                                "_type" : "AMFile",
                                "src" : 1,
                                "trackNumber" : 1,
                                "attributes" : {
                                  "ident" : "",
                                  "gain" : 1.0,
                                  "mixToMono" : false
                                },
                                  "channelNumber" : "0,1",
                                "effects" : [

                                ],
                                "start" : 0,
                                "duration" : 381,
                                "mediaStart" : 0,
                                "mediaDuration" : 381,
                                "scalar" : 1,
                                "animationTracks" : {

                                }
                              }
,
                          "start" : 0,
                          "duration" : 381,
                          "mediaStart" : 0,
                          "mediaDuration" : 10891,
                          "scalar" : 1,
                          "metadata" : {
                            "AutoAppliedSmartFocus" : "False",
                            "clipSpeedAttribute" : false
                          }
                        },
                        {
                          "id" : 84,
                          "_type" : "UnifiedMedia",
                          "video" : 
                              {
                                "id" : 85,
                                "_type" : "ScreenVMFile",
                                "src" : 1,
                                "trackNumber" : 0,
                                "attributes" : {
                                  "ident" : "Rec 01-07-21"
                                },
                                "parameters" : {
                                  "cursorScale" : {
                                    "type" : "double",
                                    "defaultValue" : 0.0,
                                    "interp" : "linr"
                                  },
                                  "cursorOpacity" : {
                                    "type" : "double",
                                    "defaultValue" : 0.0,
                                    "interp" : "linr"
                                  }
                                },
                                "effects" : [

                                ],
                                "start" : 381,
                                "duration" : 140,
                                "mediaStart" : 590,
                                "mediaDuration" : 140,
                                "scalar" : 1,
                                "animationTracks" : {

                                }
                              },
                          "audio" : 
                              {
                                "id" : 86,
                                "_type" : "AMFile",
                                "src" : 1,
                                "trackNumber" : 1,
                                "attributes" : {
                                  "ident" : "",
                                  "gain" : 1.0,
                                  "mixToMono" : false
                                },
                                  "channelNumber" : "0,1",
                                "effects" : [

                                ],
                                "start" : 381,
                                "duration" : 140,
                                "mediaStart" : 590,
                                "mediaDuration" : 140,
                                "scalar" : 1,
                                "animationTracks" : {

                                }
                              }
,
                          "start" : 381,
                          "duration" : 140,
                          "mediaStart" : 0,
                          "mediaDuration" : 10891,
                          "scalar" : 1,
                          "metadata" : {
                            "AutoAppliedSmartFocus" : "False",
                            "clipSpeedAttribute" : false
                          }
                        },
                        {
                          "id" : 87,
                          "_type" : "UnifiedMedia",
                          "video" : 
                              {
                                "id" : 88,
                                "_type" : "ScreenVMFile",
                                "src" : 1,
                                "trackNumber" : 0,
                                "attributes" : {
                                  "ident" : "Rec 01-07-21"
                                },
                                "parameters" : {
                                  "cursorScale" : {
                                    "type" : "double",
                                    "defaultValue" : 0.0,
                                    "interp" : "linr"
                                  },
                                  "cursorOpacity" : {
                                    "type" : "double",
                                    "defaultValue" : 0.0,
                                    "interp" : "linr"
                                  }
                                },
                                "effects" : [

                                ],
                                "start" : 521,
                                "duration" : 221,
                                "mediaStart" : 827,
                                "mediaDuration" : 221,
                                "scalar" : 1,
                                "animationTracks" : {

                                }
                              },
                          "audio" : 
                              {
                                "id" : 89,
                                "_type" : "AMFile",
                                "src" : 1,
                                "trackNumber" : 1,
                                "attributes" : {
                                  "ident" : "",
                                  "gain" : 1.0,
                                  "mixToMono" : false
                                },
                                  "channelNumber" : "0,1",
                                "effects" : [

                                ],
                                "start" : 521,
                                "duration" : 221,
                                "mediaStart" : 827,
                                "mediaDuration" : 221,
                                "scalar" : 1,
                                "animationTracks" : {

                                }
                              }
,
                          "start" : 521,
                          "duration" : 221,
                          "mediaStart" : 0,
                          "mediaDuration" : 10891,
                          "scalar" : 1,
                          "metadata" : {
                            "AutoAppliedSmartFocus" : "False",
                            "clipSpeedAttribute" : false
                          }
                        },
                        {
                          "id" : 90,
                          "_type" : "UnifiedMedia",
                          "video" : 
                              {
                                "id" : 91,
                                "_type" : "ScreenVMFile",
                                "src" : 1,
                                "trackNumber" : 0,
                                "attributes" : {
                                  "ident" : "Rec 01-07-21"
                                },
                                "parameters" : {
                                  "cursorScale" : {
                                    "type" : "double",
                                    "defaultValue" : 0.0,
                                    "interp" : "linr"
                                  },
                                  "cursorOpacity" : {
                                    "type" : "double",
                                    "defaultValue" : 0.0,
                                    "interp" : "linr"
                                  }
                                },
                                "effects" : [

                                ],
                                "start" : 742,
                                "duration" : 9693,
                                "mediaStart" : 1198,
                                "mediaDuration" : 9693,
                                "scalar" : 1,
                                "animationTracks" : {

                                }
                              },
                          "audio" : 
                              {
                                "id" : 92,
                                "_type" : "AMFile",
                                "src" : 1,
                                "trackNumber" : 1,
                                "attributes" : {
                                  "ident" : "",
                                  "gain" : 1.0,
                                  "mixToMono" : false
                                },
                                  "channelNumber" : "0,1",
                                "effects" : [

                                ],
                                "start" : 742,
                                "duration" : 9693,
                                "mediaStart" : 1198,
                                "mediaDuration" : 9693,
                                "scalar" : 1,
                                "animationTracks" : {

                                }
                              }
,
                          "start" : 742,
                          "duration" : 9693,
                          "mediaStart" : 0,
                          "mediaDuration" : 10891,
                          "scalar" : 1,
                          "metadata" : {
                            "AutoAppliedSmartFocus" : "False",
                            "clipSpeedAttribute" : false
                          }
                        }
                    ],
                    "effects" : [

                    ],
                    "start" : 1289,
                    "duration" : 167,
                    "mediaStart" : 2281,
                    "mediaDuration" : 167,
                    "scalar" : 1,
                    "metadata" : {
                      "AutoAppliedSmartFocus" : "False",
                      "clipSpeedAttribute" : false
                    },
                    "animationTracks" : {

                    }
                  },
                  {
                    "id" : 93,
                    "_type" : "StitchedMedia",
                    "minMediaStart" : 0,
                    "attributes" : {
                      "ident" : "Rec 01-07-21",
                      "gain" : 0.3,
                      "mixToMono" : false
                    },
                    "parameters" : {
                      "volume" : 1.0,
                      "cursorOpacity" : {
                        "type" : "double",
                        "defaultValue" : 1.0,
                        "interp" : "linr"
                      },
                      "cursorScale" : {
                        "type" : "double",
                        "defaultValue" : 1.0,
                        "interp" : "linr"
                      }
                    },
                    "medias" : [
                        {
                          "id" : 94,
                          "_type" : "UnifiedMedia",
                          "video" : 
                              {
                                "id" : 95,
                                "_type" : "ScreenVMFile",
                                "src" : 1,
                                "trackNumber" : 0,
                                "attributes" : {
                                  "ident" : "Rec 01-07-21"
                                },
                                "parameters" : {
                                  "cursorScale" : {
                                    "type" : "double",
                                    "defaultValue" : 0.0,
                                    "interp" : "linr"
                                  },
                                  "cursorOpacity" : {
                                    "type" : "double",
                                    "defaultValue" : 0.0,
                                    "interp" : "linr"
                                  }
                                },
                                "effects" : [

                                ],
                                "start" : 0,
                                "duration" : 381,
                                "mediaStart" : 0,
                                "mediaDuration" : 381,
                                "scalar" : 1,
                                "animationTracks" : {

                                }
                              },
                          "audio" : 
                              {
                                "id" : 96,
                                "_type" : "AMFile",
                                "src" : 1,
                                "trackNumber" : 1,
                                "attributes" : {
                                  "ident" : "",
                                  "gain" : 1.0,
                                  "mixToMono" : false
                                },
                                  "channelNumber" : "0,1",
                                "effects" : [

                                ],
                                "start" : 0,
                                "duration" : 381,
                                "mediaStart" : 0,
                                "mediaDuration" : 381,
                                "scalar" : 1,
                                "animationTracks" : {

                                }
                              }
,
                          "start" : 0,
                          "duration" : 381,
                          "mediaStart" : 0,
                          "mediaDuration" : 10891,
                          "scalar" : 1,
                          "metadata" : {
                            "AutoAppliedSmartFocus" : "False",
                            "clipSpeedAttribute" : false
                          }
                        },
                        {
                          "id" : 97,
                          "_type" : "UnifiedMedia",
                          "video" : 
                              {
                                "id" : 98,
                                "_type" : "ScreenVMFile",
                                "src" : 1,
                                "trackNumber" : 0,
                                "attributes" : {
                                  "ident" : "Rec 01-07-21"
                                },
                                "parameters" : {
                                  "cursorScale" : {
                                    "type" : "double",
                                    "defaultValue" : 0.0,
                                    "interp" : "linr"
                                  },
                                  "cursorOpacity" : {
                                    "type" : "double",
                                    "defaultValue" : 0.0,
                                    "interp" : "linr"
                                  }
                                },
                                "effects" : [

                                ],
                                "start" : 381,
                                "duration" : 140,
                                "mediaStart" : 590,
                                "mediaDuration" : 140,
                                "scalar" : 1,
                                "animationTracks" : {

                                }
                              },
                          "audio" : 
                              {
                                "id" : 99,
                                "_type" : "AMFile",
                                "src" : 1,
                                "trackNumber" : 1,
                                "attributes" : {
                                  "ident" : "",
                                  "gain" : 1.0,
                                  "mixToMono" : false
                                },
                                  "channelNumber" : "0,1",
                                "effects" : [

                                ],
                                "start" : 381,
                                "duration" : 140,
                                "mediaStart" : 590,
                                "mediaDuration" : 140,
                                "scalar" : 1,
                                "animationTracks" : {

                                }
                              }
,
                          "start" : 381,
                          "duration" : 140,
                          "mediaStart" : 0,
                          "mediaDuration" : 10891,
                          "scalar" : 1,
                          "metadata" : {
                            "AutoAppliedSmartFocus" : "False",
                            "clipSpeedAttribute" : false
                          }
                        },
                        {
                          "id" : 100,
                          "_type" : "UnifiedMedia",
                          "video" : 
                              {
                                "id" : 101,
                                "_type" : "ScreenVMFile",
                                "src" : 1,
                                "trackNumber" : 0,
                                "attributes" : {
                                  "ident" : "Rec 01-07-21"
                                },
                                "parameters" : {
                                  "cursorScale" : {
                                    "type" : "double",
                                    "defaultValue" : 0.0,
                                    "interp" : "linr"
                                  },
                                  "cursorOpacity" : {
                                    "type" : "double",
                                    "defaultValue" : 0.0,
                                    "interp" : "linr"
                                  }
                                },
                                "effects" : [

                                ],
                                "start" : 521,
                                "duration" : 221,
                                "mediaStart" : 827,
                                "mediaDuration" : 221,
                                "scalar" : 1,
                                "animationTracks" : {

                                }
                              },
                          "audio" : 
                              {
                                "id" : 102,
                                "_type" : "AMFile",
                                "src" : 1,
                                "trackNumber" : 1,
                                "attributes" : {
                                  "ident" : "",
                                  "gain" : 1.0,
                                  "mixToMono" : false
                                },
                                  "channelNumber" : "0,1",
                                "effects" : [

                                ],
                                "start" : 521,
                                "duration" : 221,
                                "mediaStart" : 827,
                                "mediaDuration" : 221,
                                "scalar" : 1,
                                "animationTracks" : {

                                }
                              }
,
                          "start" : 521,
                          "duration" : 221,
                          "mediaStart" : 0,
                          "mediaDuration" : 10891,
                          "scalar" : 1,
                          "metadata" : {
                            "AutoAppliedSmartFocus" : "False",
                            "clipSpeedAttribute" : false
                          }
                        },
                        {
                          "id" : 103,
                          "_type" : "UnifiedMedia",
                          "video" : 
                              {
                                "id" : 104,
                                "_type" : "ScreenVMFile",
                                "src" : 1,
                                "trackNumber" : 0,
                                "attributes" : {
                                  "ident" : "Rec 01-07-21"
                                },
                                "parameters" : {
                                  "cursorScale" : {
                                    "type" : "double",
                                    "defaultValue" : 0.0,
                                    "interp" : "linr"
                                  },
                                  "cursorOpacity" : {
                                    "type" : "double",
                                    "defaultValue" : 0.0,
                                    "interp" : "linr"
                                  }
                                },
                                "effects" : [

                                ],
                                "start" : 742,
                                "duration" : 9693,
                                "mediaStart" : 1198,
                                "mediaDuration" : 9693,
                                "scalar" : 1,
                                "animationTracks" : {

                                }
                              },
                          "audio" : 
                              {
                                "id" : 105,
                                "_type" : "AMFile",
                                "src" : 1,
                                "trackNumber" : 1,
                                "attributes" : {
                                  "ident" : "",
                                  "gain" : 1.0,
                                  "mixToMono" : false
                                },
                                  "channelNumber" : "0,1",
                                "effects" : [

                                ],
                                "start" : 742,
                                "duration" : 9693,
                                "mediaStart" : 1198,
                                "mediaDuration" : 9693,
                                "scalar" : 1,
                                "animationTracks" : {

                                }
                              }
,
                          "start" : 742,
                          "duration" : 9693,
                          "mediaStart" : 0,
                          "mediaDuration" : 10891,
                          "scalar" : 1,
                          "metadata" : {
                            "AutoAppliedSmartFocus" : "False",
                            "clipSpeedAttribute" : false
                          }
                        }
                    ],
                    "effects" : [

                    ],
                    "start" : 1456,
                    "duration" : 123,
                    "mediaStart" : 2448,
                    "mediaDuration" : 369,
                    "scalar" : "1/3",
                    "metadata" : {
                      "AutoAppliedSmartFocus" : "False",
                      "clipSpeedAttribute" : true
                    },
                    "animationTracks" : {

                    }
                  },
                  {
                    "id" : 106,
                    "_type" : "StitchedMedia",
                    "minMediaStart" : 0,
                    "attributes" : {
                      "ident" : "Rec 01-07-21",
                      "gain" : 1.0,
                      "mixToMono" : false
                    },
                    "parameters" : {
                      "volume" : 1.0,
                      "cursorOpacity" : 1.0,
                      "cursorScale" : 1.0
                    },
                    "medias" : [
                        {
                          "id" : 107,
                          "_type" : "UnifiedMedia",
                          "video" : 
                              {
                                "id" : 108,
                                "_type" : "ScreenVMFile",
                                "src" : 1,
                                "trackNumber" : 0,
                                "attributes" : {
                                  "ident" : "Rec 01-07-21"
                                },
                                "parameters" : {
                                  "cursorScale" : {
                                    "type" : "double",
                                    "defaultValue" : 0.0,
                                    "interp" : "linr"
                                  },
                                  "cursorOpacity" : {
                                    "type" : "double",
                                    "defaultValue" : 0.0,
                                    "interp" : "linr"
                                  }
                                },
                                "effects" : [

                                ],
                                "start" : 0,
                                "duration" : 381,
                                "mediaStart" : 0,
                                "mediaDuration" : 381,
                                "scalar" : 1,
                                "animationTracks" : {

                                }
                              },
                          "audio" : 
                              {
                                "id" : 109,
                                "_type" : "AMFile",
                                "src" : 1,
                                "trackNumber" : 1,
                                "attributes" : {
                                  "ident" : "",
                                  "gain" : 1.0,
                                  "mixToMono" : false
                                },
                                  "channelNumber" : "0,1",
                                "effects" : [

                                ],
                                "start" : 0,
                                "duration" : 381,
                                "mediaStart" : 0,
                                "mediaDuration" : 381,
                                "scalar" : 1,
                                "animationTracks" : {

                                }
                              }
,
                          "start" : 0,
                          "duration" : 381,
                          "mediaStart" : 0,
                          "mediaDuration" : 10891,
                          "scalar" : 1,
                          "metadata" : {
                            "AutoAppliedSmartFocus" : "False",
                            "clipSpeedAttribute" : false
                          }
                        },
                        {
                          "id" : 110,
                          "_type" : "UnifiedMedia",
                          "video" : 
                              {
                                "id" : 111,
                                "_type" : "ScreenVMFile",
                                "src" : 1,
                                "trackNumber" : 0,
                                "attributes" : {
                                  "ident" : "Rec 01-07-21"
                                },
                                "parameters" : {
                                  "cursorScale" : {
                                    "type" : "double",
                                    "defaultValue" : 0.0,
                                    "interp" : "linr"
                                  },
                                  "cursorOpacity" : {
                                    "type" : "double",
                                    "defaultValue" : 0.0,
                                    "interp" : "linr"
                                  }
                                },
                                "effects" : [

                                ],
                                "start" : 381,
                                "duration" : 140,
                                "mediaStart" : 590,
                                "mediaDuration" : 140,
                                "scalar" : 1,
                                "animationTracks" : {

                                }
                              },
                          "audio" : 
                              {
                                "id" : 112,
                                "_type" : "AMFile",
                                "src" : 1,
                                "trackNumber" : 1,
                                "attributes" : {
                                  "ident" : "",
                                  "gain" : 1.0,
                                  "mixToMono" : false
                                },
                                  "channelNumber" : "0,1",
                                "effects" : [

                                ],
                                "start" : 381,
                                "duration" : 140,
                                "mediaStart" : 590,
                                "mediaDuration" : 140,
                                "scalar" : 1,
                                "animationTracks" : {

                                }
                              }
,
                          "start" : 381,
                          "duration" : 140,
                          "mediaStart" : 0,
                          "mediaDuration" : 10891,
                          "scalar" : 1,
                          "metadata" : {
                            "AutoAppliedSmartFocus" : "False",
                            "clipSpeedAttribute" : false
                          }
                        },
                        {
                          "id" : 113,
                          "_type" : "UnifiedMedia",
                          "video" : 
                              {
                                "id" : 114,
                                "_type" : "ScreenVMFile",
                                "src" : 1,
                                "trackNumber" : 0,
                                "attributes" : {
                                  "ident" : "Rec 01-07-21"
                                },
                                "parameters" : {
                                  "cursorScale" : {
                                    "type" : "double",
                                    "defaultValue" : 0.0,
                                    "interp" : "linr"
                                  },
                                  "cursorOpacity" : {
                                    "type" : "double",
                                    "defaultValue" : 0.0,
                                    "interp" : "linr"
                                  }
                                },
                                "effects" : [

                                ],
                                "start" : 521,
                                "duration" : 221,
                                "mediaStart" : 827,
                                "mediaDuration" : 221,
                                "scalar" : 1,
                                "animationTracks" : {

                                }
                              },
                          "audio" : 
                              {
                                "id" : 115,
                                "_type" : "AMFile",
                                "src" : 1,
                                "trackNumber" : 1,
                                "attributes" : {
                                  "ident" : "",
                                  "gain" : 1.0,
                                  "mixToMono" : false
                                },
                                  "channelNumber" : "0,1",
                                "effects" : [

                                ],
                                "start" : 521,
                                "duration" : 221,
                                "mediaStart" : 827,
                                "mediaDuration" : 221,
                                "scalar" : 1,
                                "animationTracks" : {

                                }
                              }
,
                          "start" : 521,
                          "duration" : 221,
                          "mediaStart" : 0,
                          "mediaDuration" : 10891,
                          "scalar" : 1,
                          "metadata" : {
                            "AutoAppliedSmartFocus" : "False",
                            "clipSpeedAttribute" : false
                          }
                        },
                        {
                          "id" : 116,
                          "_type" : "UnifiedMedia",
                          "video" : 
                              {
                                "id" : 117,
                                "_type" : "ScreenVMFile",
                                "src" : 1,
                                "trackNumber" : 0,
                                "attributes" : {
                                  "ident" : "Rec 01-07-21"
                                },
                                "parameters" : {
                                  "cursorScale" : {
                                    "type" : "double",
                                    "defaultValue" : 0.0,
                                    "interp" : "linr"
                                  },
                                  "cursorOpacity" : {
                                    "type" : "double",
                                    "defaultValue" : 0.0,
                                    "interp" : "linr"
                                  }
                                },
                                "effects" : [

                                ],
                                "start" : 742,
                                "duration" : 2129,
                                "mediaStart" : 1198,
                                "mediaDuration" : 2129,
                                "scalar" : 1,
                                "animationTracks" : {

                                }
                              },
                          "audio" : 
                              {
                                "id" : 118,
                                "_type" : "AMFile",
                                "src" : 1,
                                "trackNumber" : 1,
                                "attributes" : {
                                  "ident" : "",
                                  "gain" : 1.0,
                                  "mixToMono" : false
                                },
                                  "channelNumber" : "0,1",
                                "effects" : [

                                ],
                                "start" : 742,
                                "duration" : 2129,
                                "mediaStart" : 1198,
                                "mediaDuration" : 2129,
                                "scalar" : 1,
                                "animationTracks" : {

                                }
                              }
,
                          "start" : 742,
                          "duration" : 2129,
                          "mediaStart" : 0,
                          "mediaDuration" : 10891,
                          "scalar" : 1,
                          "metadata" : {
                            "AutoAppliedSmartFocus" : "False",
                            "clipSpeedAttribute" : false
                          }
                        },
                        {
                          "id" : 119,
                          "_type" : "UnifiedMedia",
                          "video" : 
                              {
                                "id" : 120,
                                "_type" : "ScreenVMFile",
                                "src" : 1,
                                "trackNumber" : 0,
                                "attributes" : {
                                  "ident" : "Rec 01-07-21"
                                },
                                "parameters" : {
                                  "cursorScale" : {
                                    "type" : "double",
                                    "defaultValue" : 0.0,
                                    "interp" : "linr"
                                  },
                                  "cursorOpacity" : {
                                    "type" : "double",
                                    "defaultValue" : 0.0,
                                    "interp" : "linr"
                                  }
                                },
                                "effects" : [

                                ],
                                "start" : 2871,
                                "duration" : 54,
                                "mediaStart" : 3436,
                                "mediaDuration" : 54,
                                "scalar" : 1,
                                "animationTracks" : {

                                }
                              },
                          "audio" : 
                              {
                                "id" : 121,
                                "_type" : "AMFile",
                                "src" : 1,
                                "trackNumber" : 1,
                                "attributes" : {
                                  "ident" : "",
                                  "gain" : 1.0,
                                  "mixToMono" : false
                                },
                                  "channelNumber" : "0,1",
                                "effects" : [

                                ],
                                "start" : 2871,
                                "duration" : 54,
                                "mediaStart" : 3436,
                                "mediaDuration" : 54,
                                "scalar" : 1,
                                "animationTracks" : {

                                }
                              }
,
                          "start" : 2871,
                          "duration" : 54,
                          "mediaStart" : 0,
                          "mediaDuration" : 10891,
                          "scalar" : 1,
                          "metadata" : {
                            "AutoAppliedSmartFocus" : "False",
                            "clipSpeedAttribute" : false
                          }
                        },
                        {
                          "id" : 122,
                          "_type" : "UnifiedMedia",
                          "video" : 
                              {
                                "id" : 123,
                                "_type" : "ScreenVMFile",
                                "src" : 1,
                                "trackNumber" : 0,
                                "attributes" : {
                                  "ident" : "Rec 01-07-21"
                                },
                                "parameters" : {
                                  "cursorScale" : {
                                    "type" : "double",
                                    "defaultValue" : 0.0,
                                    "interp" : "linr"
                                  },
                                  "cursorOpacity" : {
                                    "type" : "double",
                                    "defaultValue" : 0.0,
                                    "interp" : "linr"
                                  }
                                },
                                "effects" : [

                                ],
                                "start" : 2925,
                                "duration" : 7378,
                                "mediaStart" : 3513,
                                "mediaDuration" : 7378,
                                "scalar" : 1,
                                "animationTracks" : {

                                }
                              },
                          "audio" : 
                              {
                                "id" : 124,
                                "_type" : "AMFile",
                                "src" : 1,
                                "trackNumber" : 1,
                                "attributes" : {
                                  "ident" : "",
                                  "gain" : 1.0,
                                  "mixToMono" : false
                                },
                                  "channelNumber" : "0,1",
                                "effects" : [

                                ],
                                "start" : 2925,
                                "duration" : 7378,
                                "mediaStart" : 3513,
                                "mediaDuration" : 7378,
                                "scalar" : 1,
                                "animationTracks" : {

                                }
                              }
,
                          "start" : 2925,
                          "duration" : 7378,
                          "mediaStart" : 0,
                          "mediaDuration" : 10891,
                          "scalar" : 1,
                          "metadata" : {
                            "AutoAppliedSmartFocus" : "False",
                            "clipSpeedAttribute" : false
                          }
                        }
                    ],
                    "effects" : [

                    ],
                    "start" : 1579,
                    "duration" : 160,
                    "mediaStart" : 2817,
                    "mediaDuration" : 160,
                    "scalar" : 1,
                    "metadata" : {
                      "AutoAppliedSmartFocus" : "False",
                      "clipSpeedAttribute" : false
                    },
                    "animationTracks" : {

                    }
                  },
                  {
                    "id" : 125,
                    "_type" : "StitchedMedia",
                    "minMediaStart" : 0,
                    "attributes" : {
                      "ident" : "Rec 01-07-21",
                      "gain" : 0.3,
                      "mixToMono" : false
                    },
                    "parameters" : {
                      "volume" : 1.0,
                      "cursorOpacity" : {
                        "type" : "double",
                        "defaultValue" : 1.0,
                        "interp" : "linr"
                      },
                      "cursorScale" : {
                        "type" : "double",
                        "defaultValue" : 1.0,
                        "interp" : "linr"
                      }
                    },
                    "medias" : [
                        {
                          "id" : 126,
                          "_type" : "UnifiedMedia",
                          "video" : 
                              {
                                "id" : 127,
                                "_type" : "ScreenVMFile",
                                "src" : 1,
                                "trackNumber" : 0,
                                "attributes" : {
                                  "ident" : "Rec 01-07-21"
                                },
                                "parameters" : {
                                  "cursorScale" : {
                                    "type" : "double",
                                    "defaultValue" : 0.0,
                                    "interp" : "linr"
                                  },
                                  "cursorOpacity" : {
                                    "type" : "double",
                                    "defaultValue" : 0.0,
                                    "interp" : "linr"
                                  }
                                },
                                "effects" : [

                                ],
                                "start" : 0,
                                "duration" : 381,
                                "mediaStart" : 0,
                                "mediaDuration" : 381,
                                "scalar" : 1,
                                "animationTracks" : {

                                }
                              },
                          "audio" : 
                              {
                                "id" : 128,
                                "_type" : "AMFile",
                                "src" : 1,
                                "trackNumber" : 1,
                                "attributes" : {
                                  "ident" : "",
                                  "gain" : 1.0,
                                  "mixToMono" : false
                                },
                                  "channelNumber" : "0,1",
                                "effects" : [

                                ],
                                "start" : 0,
                                "duration" : 381,
                                "mediaStart" : 0,
                                "mediaDuration" : 381,
                                "scalar" : 1,
                                "animationTracks" : {

                                }
                              }
,
                          "start" : 0,
                          "duration" : 381,
                          "mediaStart" : 0,
                          "mediaDuration" : 10891,
                          "scalar" : 1,
                          "metadata" : {
                            "AutoAppliedSmartFocus" : "False",
                            "clipSpeedAttribute" : false
                          }
                        },
                        {
                          "id" : 129,
                          "_type" : "UnifiedMedia",
                          "video" : 
                              {
                                "id" : 130,
                                "_type" : "ScreenVMFile",
                                "src" : 1,
                                "trackNumber" : 0,
                                "attributes" : {
                                  "ident" : "Rec 01-07-21"
                                },
                                "parameters" : {
                                  "cursorScale" : {
                                    "type" : "double",
                                    "defaultValue" : 0.0,
                                    "interp" : "linr"
                                  },
                                  "cursorOpacity" : {
                                    "type" : "double",
                                    "defaultValue" : 0.0,
                                    "interp" : "linr"
                                  }
                                },
                                "effects" : [

                                ],
                                "start" : 381,
                                "duration" : 140,
                                "mediaStart" : 590,
                                "mediaDuration" : 140,
                                "scalar" : 1,
                                "animationTracks" : {

                                }
                              },
                          "audio" : 
                              {
                                "id" : 131,
                                "_type" : "AMFile",
                                "src" : 1,
                                "trackNumber" : 1,
                                "attributes" : {
                                  "ident" : "",
                                  "gain" : 1.0,
                                  "mixToMono" : false
                                },
                                  "channelNumber" : "0,1",
                                "effects" : [

                                ],
                                "start" : 381,
                                "duration" : 140,
                                "mediaStart" : 590,
                                "mediaDuration" : 140,
                                "scalar" : 1,
                                "animationTracks" : {

                                }
                              }
,
                          "start" : 381,
                          "duration" : 140,
                          "mediaStart" : 0,
                          "mediaDuration" : 10891,
                          "scalar" : 1,
                          "metadata" : {
                            "AutoAppliedSmartFocus" : "False",
                            "clipSpeedAttribute" : false
                          }
                        },
                        {
                          "id" : 132,
                          "_type" : "UnifiedMedia",
                          "video" : 
                              {
                                "id" : 133,
                                "_type" : "ScreenVMFile",
                                "src" : 1,
                                "trackNumber" : 0,
                                "attributes" : {
                                  "ident" : "Rec 01-07-21"
                                },
                                "parameters" : {
                                  "cursorScale" : {
                                    "type" : "double",
                                    "defaultValue" : 0.0,
                                    "interp" : "linr"
                                  },
                                  "cursorOpacity" : {
                                    "type" : "double",
                                    "defaultValue" : 0.0,
                                    "interp" : "linr"
                                  }
                                },
                                "effects" : [

                                ],
                                "start" : 521,
                                "duration" : 221,
                                "mediaStart" : 827,
                                "mediaDuration" : 221,
                                "scalar" : 1,
                                "animationTracks" : {

                                }
                              },
                          "audio" : 
                              {
                                "id" : 134,
                                "_type" : "AMFile",
                                "src" : 1,
                                "trackNumber" : 1,
                                "attributes" : {
                                  "ident" : "",
                                  "gain" : 1.0,
                                  "mixToMono" : false
                                },
                                  "channelNumber" : "0,1",
                                "effects" : [

                                ],
                                "start" : 521,
                                "duration" : 221,
                                "mediaStart" : 827,
                                "mediaDuration" : 221,
                                "scalar" : 1,
                                "animationTracks" : {

                                }
                              }
,
                          "start" : 521,
                          "duration" : 221,
                          "mediaStart" : 0,
                          "mediaDuration" : 10891,
                          "scalar" : 1,
                          "metadata" : {
                            "AutoAppliedSmartFocus" : "False",
                            "clipSpeedAttribute" : false
                          }
                        },
                        {
                          "id" : 135,
                          "_type" : "UnifiedMedia",
                          "video" : 
                              {
                                "id" : 136,
                                "_type" : "ScreenVMFile",
                                "src" : 1,
                                "trackNumber" : 0,
                                "attributes" : {
                                  "ident" : "Rec 01-07-21"
                                },
                                "parameters" : {
                                  "cursorScale" : {
                                    "type" : "double",
                                    "defaultValue" : 0.0,
                                    "interp" : "linr"
                                  },
                                  "cursorOpacity" : {
                                    "type" : "double",
                                    "defaultValue" : 0.0,
                                    "interp" : "linr"
                                  }
                                },
                                "effects" : [

                                ],
                                "start" : 742,
                                "duration" : 9693,
                                "mediaStart" : 1198,
                                "mediaDuration" : 9693,
                                "scalar" : 1,
                                "animationTracks" : {

                                }
                              },
                          "audio" : 
                              {
                                "id" : 137,
                                "_type" : "AMFile",
                                "src" : 1,
                                "trackNumber" : 1,
                                "attributes" : {
                                  "ident" : "",
                                  "gain" : 1.0,
                                  "mixToMono" : false
                                },
                                  "channelNumber" : "0,1",
                                "effects" : [

                                ],
                                "start" : 742,
                                "duration" : 9693,
                                "mediaStart" : 1198,
                                "mediaDuration" : 9693,
                                "scalar" : 1,
                                "animationTracks" : {

                                }
                              }
,
                          "start" : 742,
                          "duration" : 9693,
                          "mediaStart" : 0,
                          "mediaDuration" : 10891,
                          "scalar" : 1,
                          "metadata" : {
                            "AutoAppliedSmartFocus" : "False",
                            "clipSpeedAttribute" : false
                          }
                        }
                    ],
                    "effects" : [

                    ],
                    "start" : 1739,
                    "duration" : 91,
                    "mediaStart" : 3109,
                    "mediaDuration" : 274,
                    "scalar" : "91/274",
                    "metadata" : {
                      "AutoAppliedSmartFocus" : "False",
                      "clipSpeedAttribute" : true
                    },
                    "animationTracks" : {

                    }
                  },
                  {
                    "id" : 138,
                    "_type" : "StitchedMedia",
                    "minMediaStart" : 0,
                    "attributes" : {
                      "ident" : "Rec 01-07-21",
                      "gain" : 1.0,
                      "mixToMono" : false
                    },
                    "parameters" : {
                      "volume" : 1.0,
                      "cursorOpacity" : {
                        "type" : "double",
                        "defaultValue" : 1.0,
                        "interp" : "linr"
                      },
                      "cursorScale" : {
                        "type" : "double",
                        "defaultValue" : 1.0,
                        "interp" : "linr"
                      }
                    },
                    "medias" : [
                        {
                          "id" : 139,
                          "_type" : "UnifiedMedia",
                          "video" : 
                              {
                                "id" : 140,
                                "_type" : "ScreenVMFile",
                                "src" : 1,
                                "trackNumber" : 0,
                                "attributes" : {
                                  "ident" : "Rec 01-07-21"
                                },
                                "parameters" : {
                                  "cursorScale" : {
                                    "type" : "double",
                                    "defaultValue" : 0.0,
                                    "interp" : "linr"
                                  },
                                  "cursorOpacity" : {
                                    "type" : "double",
                                    "defaultValue" : 0.0,
                                    "interp" : "linr"
                                  }
                                },
                                "effects" : [

                                ],
                                "start" : 0,
                                "duration" : 381,
                                "mediaStart" : 0,
                                "mediaDuration" : 381,
                                "scalar" : 1,
                                "animationTracks" : {

                                }
                              },
                          "audio" : 
                              {
                                "id" : 141,
                                "_type" : "AMFile",
                                "src" : 1,
                                "trackNumber" : 1,
                                "attributes" : {
                                  "ident" : "",
                                  "gain" : 1.0,
                                  "mixToMono" : false
                                },
                                  "channelNumber" : "0,1",
                                "effects" : [

                                ],
                                "start" : 0,
                                "duration" : 381,
                                "mediaStart" : 0,
                                "mediaDuration" : 381,
                                "scalar" : 1,
                                "animationTracks" : {

                                }
                              }
,
                          "start" : 0,
                          "duration" : 381,
                          "mediaStart" : 0,
                          "mediaDuration" : 10891,
                          "scalar" : 1,
                          "metadata" : {
                            "AutoAppliedSmartFocus" : "False",
                            "clipSpeedAttribute" : false
                          }
                        },
                        {
                          "id" : 142,
                          "_type" : "UnifiedMedia",
                          "video" : 
                              {
                                "id" : 143,
                                "_type" : "ScreenVMFile",
                                "src" : 1,
                                "trackNumber" : 0,
                                "attributes" : {
                                  "ident" : "Rec 01-07-21"
                                },
                                "parameters" : {
                                  "cursorScale" : {
                                    "type" : "double",
                                    "defaultValue" : 0.0,
                                    "interp" : "linr"
                                  },
                                  "cursorOpacity" : {
                                    "type" : "double",
                                    "defaultValue" : 0.0,
                                    "interp" : "linr"
                                  }
                                },
                                "effects" : [

                                ],
                                "start" : 381,
                                "duration" : 140,
                                "mediaStart" : 590,
                                "mediaDuration" : 140,
                                "scalar" : 1,
                                "animationTracks" : {

                                }
                              },
                          "audio" : 
                              {
                                "id" : 144,
                                "_type" : "AMFile",
                                "src" : 1,
                                "trackNumber" : 1,
                                "attributes" : {
                                  "ident" : "",
                                  "gain" : 1.0,
                                  "mixToMono" : false
                                },
                                  "channelNumber" : "0,1",
                                "effects" : [

                                ],
                                "start" : 381,
                                "duration" : 140,
                                "mediaStart" : 590,
                                "mediaDuration" : 140,
                                "scalar" : 1,
                                "animationTracks" : {

                                }
                              }
,
                          "start" : 381,
                          "duration" : 140,
                          "mediaStart" : 0,
                          "mediaDuration" : 10891,
                          "scalar" : 1,
                          "metadata" : {
                            "AutoAppliedSmartFocus" : "False",
                            "clipSpeedAttribute" : false
                          }
                        },
                        {
                          "id" : 145,
                          "_type" : "UnifiedMedia",
                          "video" : 
                              {
                                "id" : 146,
                                "_type" : "ScreenVMFile",
                                "src" : 1,
                                "trackNumber" : 0,
                                "attributes" : {
                                  "ident" : "Rec 01-07-21"
                                },
                                "parameters" : {
                                  "cursorScale" : {
                                    "type" : "double",
                                    "defaultValue" : 0.0,
                                    "interp" : "linr"
                                  },
                                  "cursorOpacity" : {
                                    "type" : "double",
                                    "defaultValue" : 0.0,
                                    "interp" : "linr"
                                  }
                                },
                                "effects" : [

                                ],
                                "start" : 521,
                                "duration" : 221,
                                "mediaStart" : 827,
                                "mediaDuration" : 221,
                                "scalar" : 1,
                                "animationTracks" : {

                                }
                              },
                          "audio" : 
                              {
                                "id" : 147,
                                "_type" : "AMFile",
                                "src" : 1,
                                "trackNumber" : 1,
                                "attributes" : {
                                  "ident" : "",
                                  "gain" : 1.0,
                                  "mixToMono" : false
                                },
                                  "channelNumber" : "0,1",
                                "effects" : [

                                ],
                                "start" : 521,
                                "duration" : 221,
                                "mediaStart" : 827,
                                "mediaDuration" : 221,
                                "scalar" : 1,
                                "animationTracks" : {

                                }
                              }
,
                          "start" : 521,
                          "duration" : 221,
                          "mediaStart" : 0,
                          "mediaDuration" : 10891,
                          "scalar" : 1,
                          "metadata" : {
                            "AutoAppliedSmartFocus" : "False",
                            "clipSpeedAttribute" : false
                          }
                        },
                        {
                          "id" : 148,
                          "_type" : "UnifiedMedia",
                          "video" : 
                              {
                                "id" : 149,
                                "_type" : "ScreenVMFile",
                                "src" : 1,
                                "trackNumber" : 0,
                                "attributes" : {
                                  "ident" : "Rec 01-07-21"
                                },
                                "parameters" : {
                                  "cursorScale" : {
                                    "type" : "double",
                                    "defaultValue" : 0.0,
                                    "interp" : "linr"
                                  },
                                  "cursorOpacity" : {
                                    "type" : "double",
                                    "defaultValue" : 0.0,
                                    "interp" : "linr"
                                  }
                                },
                                "effects" : [

                                ],
                                "start" : 742,
                                "duration" : 9693,
                                "mediaStart" : 1198,
                                "mediaDuration" : 9693,
                                "scalar" : 1,
                                "animationTracks" : {

                                }
                              },
                          "audio" : 
                              {
                                "id" : 150,
                                "_type" : "AMFile",
                                "src" : 1,
                                "trackNumber" : 1,
                                "attributes" : {
                                  "ident" : "",
                                  "gain" : 1.0,
                                  "mixToMono" : false
                                },
                                  "channelNumber" : "0,1",
                                "effects" : [

                                ],
                                "start" : 742,
                                "duration" : 9693,
                                "mediaStart" : 1198,
                                "mediaDuration" : 9693,
                                "scalar" : 1,
                                "animationTracks" : {

                                }
                              }
,
                          "start" : 742,
                          "duration" : 9693,
                          "mediaStart" : 0,
                          "mediaDuration" : 10891,
                          "scalar" : 1,
                          "metadata" : {
                            "AutoAppliedSmartFocus" : "False",
                            "clipSpeedAttribute" : false
                          }
                        }
                    ],
                    "effects" : [

                    ],
                    "start" : 1830,
                    "duration" : 99,
                    "mediaStart" : 3383,
                    "mediaDuration" : 99,
                    "scalar" : 1,
                    "metadata" : {
                      "AutoAppliedSmartFocus" : "False",
                      "clipSpeedAttribute" : false
                    },
                    "animationTracks" : {

                    }
                  },
                  {
                    "id" : 151,
                    "_type" : "StitchedMedia",
                    "minMediaStart" : 0,
                    "attributes" : {
                      "ident" : "Rec 01-07-21",
                      "gain" : 0.3,
                      "mixToMono" : false
                    },
                    "parameters" : {
                      "volume" : 1.0,
                      "cursorOpacity" : {
                        "type" : "double",
                        "defaultValue" : 1.0,
                        "interp" : "linr"
                      },
                      "cursorScale" : {
                        "type" : "double",
                        "defaultValue" : 1.0,
                        "interp" : "linr"
                      }
                    },
                    "medias" : [
                        {
                          "id" : 152,
                          "_type" : "UnifiedMedia",
                          "video" : 
                              {
                                "id" : 153,
                                "_type" : "ScreenVMFile",
                                "src" : 1,
                                "trackNumber" : 0,
                                "attributes" : {
                                  "ident" : "Rec 01-07-21"
                                },
                                "parameters" : {
                                  "cursorScale" : {
                                    "type" : "double",
                                    "defaultValue" : 0.0,
                                    "interp" : "linr"
                                  },
                                  "cursorOpacity" : {
                                    "type" : "double",
                                    "defaultValue" : 0.0,
                                    "interp" : "linr"
                                  }
                                },
                                "effects" : [

                                ],
                                "start" : 0,
                                "duration" : 381,
                                "mediaStart" : 0,
                                "mediaDuration" : 381,
                                "scalar" : 1,
                                "animationTracks" : {

                                }
                              },
                          "audio" : 
                              {
                                "id" : 154,
                                "_type" : "AMFile",
                                "src" : 1,
                                "trackNumber" : 1,
                                "attributes" : {
                                  "ident" : "",
                                  "gain" : 1.0,
                                  "mixToMono" : false
                                },
                                  "channelNumber" : "0,1",
                                "effects" : [

                                ],
                                "start" : 0,
                                "duration" : 381,
                                "mediaStart" : 0,
                                "mediaDuration" : 381,
                                "scalar" : 1,
                                "animationTracks" : {

                                }
                              }
,
                          "start" : 0,
                          "duration" : 381,
                          "mediaStart" : 0,
                          "mediaDuration" : 10891,
                          "scalar" : 1,
                          "metadata" : {
                            "AutoAppliedSmartFocus" : "False",
                            "clipSpeedAttribute" : false
                          }
                        },
                        {
                          "id" : 155,
                          "_type" : "UnifiedMedia",
                          "video" : 
                              {
                                "id" : 156,
                                "_type" : "ScreenVMFile",
                                "src" : 1,
                                "trackNumber" : 0,
                                "attributes" : {
                                  "ident" : "Rec 01-07-21"
                                },
                                "parameters" : {
                                  "cursorScale" : {
                                    "type" : "double",
                                    "defaultValue" : 0.0,
                                    "interp" : "linr"
                                  },
                                  "cursorOpacity" : {
                                    "type" : "double",
                                    "defaultValue" : 0.0,
                                    "interp" : "linr"
                                  }
                                },
                                "effects" : [

                                ],
                                "start" : 381,
                                "duration" : 140,
                                "mediaStart" : 590,
                                "mediaDuration" : 140,
                                "scalar" : 1,
                                "animationTracks" : {

                                }
                              },
                          "audio" : 
                              {
                                "id" : 157,
                                "_type" : "AMFile",
                                "src" : 1,
                                "trackNumber" : 1,
                                "attributes" : {
                                  "ident" : "",
                                  "gain" : 1.0,
                                  "mixToMono" : false
                                },
                                  "channelNumber" : "0,1",
                                "effects" : [

                                ],
                                "start" : 381,
                                "duration" : 140,
                                "mediaStart" : 590,
                                "mediaDuration" : 140,
                                "scalar" : 1,
                                "animationTracks" : {

                                }
                              }
,
                          "start" : 381,
                          "duration" : 140,
                          "mediaStart" : 0,
                          "mediaDuration" : 10891,
                          "scalar" : 1,
                          "metadata" : {
                            "AutoAppliedSmartFocus" : "False",
                            "clipSpeedAttribute" : false
                          }
                        },
                        {
                          "id" : 158,
                          "_type" : "UnifiedMedia",
                          "video" : 
                              {
                                "id" : 159,
                                "_type" : "ScreenVMFile",
                                "src" : 1,
                                "trackNumber" : 0,
                                "attributes" : {
                                  "ident" : "Rec 01-07-21"
                                },
                                "parameters" : {
                                  "cursorScale" : {
                                    "type" : "double",
                                    "defaultValue" : 0.0,
                                    "interp" : "linr"
                                  },
                                  "cursorOpacity" : {
                                    "type" : "double",
                                    "defaultValue" : 0.0,
                                    "interp" : "linr"
                                  }
                                },
                                "effects" : [

                                ],
                                "start" : 521,
                                "duration" : 221,
                                "mediaStart" : 827,
                                "mediaDuration" : 221,
                                "scalar" : 1,
                                "animationTracks" : {

                                }
                              },
                          "audio" : 
                              {
                                "id" : 160,
                                "_type" : "AMFile",
                                "src" : 1,
                                "trackNumber" : 1,
                                "attributes" : {
                                  "ident" : "",
                                  "gain" : 1.0,
                                  "mixToMono" : false
                                },
                                  "channelNumber" : "0,1",
                                "effects" : [

                                ],
                                "start" : 521,
                                "duration" : 221,
                                "mediaStart" : 827,
                                "mediaDuration" : 221,
                                "scalar" : 1,
                                "animationTracks" : {

                                }
                              }
,
                          "start" : 521,
                          "duration" : 221,
                          "mediaStart" : 0,
                          "mediaDuration" : 10891,
                          "scalar" : 1,
                          "metadata" : {
                            "AutoAppliedSmartFocus" : "False",
                            "clipSpeedAttribute" : false
                          }
                        },
                        {
                          "id" : 161,
                          "_type" : "UnifiedMedia",
                          "video" : 
                              {
                                "id" : 162,
                                "_type" : "ScreenVMFile",
                                "src" : 1,
                                "trackNumber" : 0,
                                "attributes" : {
                                  "ident" : "Rec 01-07-21"
                                },
                                "parameters" : {
                                  "cursorScale" : {
                                    "type" : "double",
                                    "defaultValue" : 0.0,
                                    "interp" : "linr"
                                  },
                                  "cursorOpacity" : {
                                    "type" : "double",
                                    "defaultValue" : 0.0,
                                    "interp" : "linr"
                                  }
                                },
                                "effects" : [

                                ],
                                "start" : 742,
                                "duration" : 9693,
                                "mediaStart" : 1198,
                                "mediaDuration" : 9693,
                                "scalar" : 1,
                                "animationTracks" : {

                                }
                              },
                          "audio" : 
                              {
                                "id" : 163,
                                "_type" : "AMFile",
                                "src" : 1,
                                "trackNumber" : 1,
                                "attributes" : {
                                  "ident" : "",
                                  "gain" : 1.0,
                                  "mixToMono" : false
                                },
                                  "channelNumber" : "0,1",
                                "effects" : [

                                ],
                                "start" : 742,
                                "duration" : 9693,
                                "mediaStart" : 1198,
                                "mediaDuration" : 9693,
                                "scalar" : 1,
                                "animationTracks" : {

                                }
                              }
,
                          "start" : 742,
                          "duration" : 9693,
                          "mediaStart" : 0,
                          "mediaDuration" : 10891,
                          "scalar" : 1,
                          "metadata" : {
                            "AutoAppliedSmartFocus" : "False",
                            "clipSpeedAttribute" : false
                          }
                        }
                    ],
                    "effects" : [

                    ],
                    "start" : 1929,
                    "duration" : 97,
                    "mediaStart" : 3482,
                    "mediaDuration" : 292,
                    "scalar" : "97/292",
                    "metadata" : {
                      "AutoAppliedSmartFocus" : "False",
                      "clipSpeedAttribute" : true
                    },
                    "animationTracks" : {

                    }
                  },
                  {
                    "id" : 164,
                    "_type" : "StitchedMedia",
                    "minMediaStart" : 0,
                    "attributes" : {
                      "ident" : "Rec 01-07-21",
                      "gain" : 1.0,
                      "mixToMono" : false
                    },
                    "parameters" : {
                      "volume" : 1.0,
                      "cursorOpacity" : 1.0,
                      "cursorScale" : 1.0
                    },
                    "medias" : [
                        {
                          "id" : 165,
                          "_type" : "UnifiedMedia",
                          "video" : 
                              {
                                "id" : 166,
                                "_type" : "ScreenVMFile",
                                "src" : 1,
                                "trackNumber" : 0,
                                "attributes" : {
                                  "ident" : "Rec 01-07-21"
                                },
                                "parameters" : {
                                  "cursorScale" : {
                                    "type" : "double",
                                    "defaultValue" : 0.0,
                                    "interp" : "linr"
                                  },
                                  "cursorOpacity" : {
                                    "type" : "double",
                                    "defaultValue" : 0.0,
                                    "interp" : "linr"
                                  }
                                },
                                "effects" : [

                                ],
                                "start" : 0,
                                "duration" : 381,
                                "mediaStart" : 0,
                                "mediaDuration" : 381,
                                "scalar" : 1,
                                "animationTracks" : {

                                }
                              },
                          "audio" : 
                              {
                                "id" : 167,
                                "_type" : "AMFile",
                                "src" : 1,
                                "trackNumber" : 1,
                                "attributes" : {
                                  "ident" : "",
                                  "gain" : 1.0,
                                  "mixToMono" : false
                                },
                                  "channelNumber" : "0,1",
                                "effects" : [

                                ],
                                "start" : 0,
                                "duration" : 381,
                                "mediaStart" : 0,
                                "mediaDuration" : 381,
                                "scalar" : 1,
                                "animationTracks" : {

                                }
                              }
,
                          "start" : 0,
                          "duration" : 381,
                          "mediaStart" : 0,
                          "mediaDuration" : 10891,
                          "scalar" : 1,
                          "metadata" : {
                            "AutoAppliedSmartFocus" : "False",
                            "clipSpeedAttribute" : false
                          }
                        },
                        {
                          "id" : 168,
                          "_type" : "UnifiedMedia",
                          "video" : 
                              {
                                "id" : 169,
                                "_type" : "ScreenVMFile",
                                "src" : 1,
                                "trackNumber" : 0,
                                "attributes" : {
                                  "ident" : "Rec 01-07-21"
                                },
                                "parameters" : {
                                  "cursorScale" : {
                                    "type" : "double",
                                    "defaultValue" : 0.0,
                                    "interp" : "linr"
                                  },
                                  "cursorOpacity" : {
                                    "type" : "double",
                                    "defaultValue" : 0.0,
                                    "interp" : "linr"
                                  }
                                },
                                "effects" : [

                                ],
                                "start" : 381,
                                "duration" : 140,
                                "mediaStart" : 590,
                                "mediaDuration" : 140,
                                "scalar" : 1,
                                "animationTracks" : {

                                }
                              },
                          "audio" : 
                              {
                                "id" : 170,
                                "_type" : "AMFile",
                                "src" : 1,
                                "trackNumber" : 1,
                                "attributes" : {
                                  "ident" : "",
                                  "gain" : 1.0,
                                  "mixToMono" : false
                                },
                                  "channelNumber" : "0,1",
                                "effects" : [

                                ],
                                "start" : 381,
                                "duration" : 140,
                                "mediaStart" : 590,
                                "mediaDuration" : 140,
                                "scalar" : 1,
                                "animationTracks" : {

                                }
                              }
,
                          "start" : 381,
                          "duration" : 140,
                          "mediaStart" : 0,
                          "mediaDuration" : 10891,
                          "scalar" : 1,
                          "metadata" : {
                            "AutoAppliedSmartFocus" : "False",
                            "clipSpeedAttribute" : false
                          }
                        },
                        {
                          "id" : 171,
                          "_type" : "UnifiedMedia",
                          "video" : 
                              {
                                "id" : 172,
                                "_type" : "ScreenVMFile",
                                "src" : 1,
                                "trackNumber" : 0,
                                "attributes" : {
                                  "ident" : "Rec 01-07-21"
                                },
                                "parameters" : {
                                  "cursorScale" : {
                                    "type" : "double",
                                    "defaultValue" : 0.0,
                                    "interp" : "linr"
                                  },
                                  "cursorOpacity" : {
                                    "type" : "double",
                                    "defaultValue" : 0.0,
                                    "interp" : "linr"
                                  }
                                },
                                "effects" : [

                                ],
                                "start" : 521,
                                "duration" : 221,
                                "mediaStart" : 827,
                                "mediaDuration" : 221,
                                "scalar" : 1,
                                "animationTracks" : {

                                }
                              },
                          "audio" : 
                              {
                                "id" : 173,
                                "_type" : "AMFile",
                                "src" : 1,
                                "trackNumber" : 1,
                                "attributes" : {
                                  "ident" : "",
                                  "gain" : 1.0,
                                  "mixToMono" : false
                                },
                                  "channelNumber" : "0,1",
                                "effects" : [

                                ],
                                "start" : 521,
                                "duration" : 221,
                                "mediaStart" : 827,
                                "mediaDuration" : 221,
                                "scalar" : 1,
                                "animationTracks" : {

                                }
                              }
,
                          "start" : 521,
                          "duration" : 221,
                          "mediaStart" : 0,
                          "mediaDuration" : 10891,
                          "scalar" : 1,
                          "metadata" : {
                            "AutoAppliedSmartFocus" : "False",
                            "clipSpeedAttribute" : false
                          }
                        },
                        {
                          "id" : 174,
                          "_type" : "UnifiedMedia",
                          "video" : 
                              {
                                "id" : 175,
                                "_type" : "ScreenVMFile",
                                "src" : 1,
                                "trackNumber" : 0,
                                "attributes" : {
                                  "ident" : "Rec 01-07-21"
                                },
                                "parameters" : {
                                  "cursorScale" : {
                                    "type" : "double",
                                    "defaultValue" : 0.0,
                                    "interp" : "linr"
                                  },
                                  "cursorOpacity" : {
                                    "type" : "double",
                                    "defaultValue" : 0.0,
                                    "interp" : "linr"
                                  }
                                },
                                "effects" : [

                                ],
                                "start" : 742,
                                "duration" : 3144,
                                "mediaStart" : 1198,
                                "mediaDuration" : 3144,
                                "scalar" : 1,
                                "animationTracks" : {

                                }
                              },
                          "audio" : 
                              {
                                "id" : 176,
                                "_type" : "AMFile",
                                "src" : 1,
                                "trackNumber" : 1,
                                "attributes" : {
                                  "ident" : "",
                                  "gain" : 1.0,
                                  "mixToMono" : false
                                },
                                  "channelNumber" : "0,1",
                                "effects" : [

                                ],
                                "start" : 742,
                                "duration" : 3144,
                                "mediaStart" : 1198,
                                "mediaDuration" : 3144,
                                "scalar" : 1,
                                "animationTracks" : {

                                }
                              }
,
                          "start" : 742,
                          "duration" : 3144,
                          "mediaStart" : 0,
                          "mediaDuration" : 10891,
                          "scalar" : 1,
                          "metadata" : {
                            "AutoAppliedSmartFocus" : "False",
                            "clipSpeedAttribute" : false
                          }
                        },
                        {
                          "id" : 177,
                          "_type" : "UnifiedMedia",
                          "video" : 
                              {
                                "id" : 178,
                                "_type" : "ScreenVMFile",
                                "src" : 1,
                                "trackNumber" : 0,
                                "attributes" : {
                                  "ident" : "Rec 01-07-21"
                                },
                                "parameters" : {
                                  "cursorScale" : {
                                    "type" : "double",
                                    "defaultValue" : 0.0,
                                    "interp" : "linr"
                                  },
                                  "cursorOpacity" : {
                                    "type" : "double",
                                    "defaultValue" : 0.0,
                                    "interp" : "linr"
                                  }
                                },
                                "effects" : [

                                ],
                                "start" : 3886,
                                "duration" : 120,
                                "mediaStart" : 4463,
                                "mediaDuration" : 120,
                                "scalar" : 1,
                                "animationTracks" : {

                                }
                              },
                          "audio" : 
                              {
                                "id" : 179,
                                "_type" : "AMFile",
                                "src" : 1,
                                "trackNumber" : 1,
                                "attributes" : {
                                  "ident" : "",
                                  "gain" : 1.0,
                                  "mixToMono" : false
                                },
                                  "channelNumber" : "0,1",
                                "effects" : [

                                ],
                                "start" : 3886,
                                "duration" : 120,
                                "mediaStart" : 4463,
                                "mediaDuration" : 120,
                                "scalar" : 1,
                                "animationTracks" : {

                                }
                              }
,
                          "start" : 3886,
                          "duration" : 120,
                          "mediaStart" : 0,
                          "mediaDuration" : 10891,
                          "scalar" : 1,
                          "metadata" : {
                            "AutoAppliedSmartFocus" : "False",
                            "clipSpeedAttribute" : false
                          }
                        },
                        {
                          "id" : 180,
                          "_type" : "UnifiedMedia",
                          "video" : 
                              {
                                "id" : 181,
                                "_type" : "ScreenVMFile",
                                "src" : 1,
                                "trackNumber" : 0,
                                "attributes" : {
                                  "ident" : "Rec 01-07-21"
                                },
                                "parameters" : {
                                  "cursorScale" : {
                                    "type" : "double",
                                    "defaultValue" : 0.0,
                                    "interp" : "linr"
                                  },
                                  "cursorOpacity" : {
                                    "type" : "double",
                                    "defaultValue" : 0.0,
                                    "interp" : "linr"
                                  }
                                },
                                "effects" : [

                                ],
                                "start" : 4006,
                                "duration" : 6022,
                                "mediaStart" : 4869,
                                "mediaDuration" : 6022,
                                "scalar" : 1,
                                "animationTracks" : {

                                }
                              },
                          "audio" : 
                              {
                                "id" : 182,
                                "_type" : "AMFile",
                                "src" : 1,
                                "trackNumber" : 1,
                                "attributes" : {
                                  "ident" : "",
                                  "gain" : 1.0,
                                  "mixToMono" : false
                                },
                                  "channelNumber" : "0,1",
                                "effects" : [

                                ],
                                "start" : 4006,
                                "duration" : 6022,
                                "mediaStart" : 4869,
                                "mediaDuration" : 6022,
                                "scalar" : 1,
                                "animationTracks" : {

                                }
                              }
,
                          "start" : 4006,
                          "duration" : 6022,
                          "mediaStart" : 0,
                          "mediaDuration" : 10891,
                          "scalar" : 1,
                          "metadata" : {
                            "AutoAppliedSmartFocus" : "False",
                            "clipSpeedAttribute" : false
                          }
                        }
                    ],
                    "effects" : [

                    ],
                    "start" : 2026,
                    "duration" : 315,
                    "mediaStart" : 3774,
                    "mediaDuration" : 315,
                    "scalar" : 1,
                    "metadata" : {
                      "AutoAppliedSmartFocus" : "False",
                      "clipSpeedAttribute" : false
                    },
                    "animationTracks" : {

                    }
                  },
                  {
                    "id" : 183,
                    "_type" : "StitchedMedia",
                    "minMediaStart" : 0,
                    "attributes" : {
                      "ident" : "Rec 01-07-21",
                      "gain" : 0.3,
                      "mixToMono" : false
                    },
                    "parameters" : {
                      "volume" : 1.0,
                      "cursorOpacity" : {
                        "type" : "double",
                        "defaultValue" : 1.0,
                        "interp" : "linr"
                      },
                      "cursorScale" : {
                        "type" : "double",
                        "defaultValue" : 1.0,
                        "interp" : "linr"
                      }
                    },
                    "medias" : [
                        {
                          "id" : 184,
                          "_type" : "UnifiedMedia",
                          "video" : 
                              {
                                "id" : 185,
                                "_type" : "ScreenVMFile",
                                "src" : 1,
                                "trackNumber" : 0,
                                "attributes" : {
                                  "ident" : "Rec 01-07-21"
                                },
                                "parameters" : {
                                  "cursorScale" : {
                                    "type" : "double",
                                    "defaultValue" : 0.0,
                                    "interp" : "linr"
                                  },
                                  "cursorOpacity" : {
                                    "type" : "double",
                                    "defaultValue" : 0.0,
                                    "interp" : "linr"
                                  }
                                },
                                "effects" : [

                                ],
                                "start" : 0,
                                "duration" : 381,
                                "mediaStart" : 0,
                                "mediaDuration" : 381,
                                "scalar" : 1,
                                "animationTracks" : {

                                }
                              },
                          "audio" : 
                              {
                                "id" : 186,
                                "_type" : "AMFile",
                                "src" : 1,
                                "trackNumber" : 1,
                                "attributes" : {
                                  "ident" : "",
                                  "gain" : 1.0,
                                  "mixToMono" : false
                                },
                                  "channelNumber" : "0,1",
                                "effects" : [

                                ],
                                "start" : 0,
                                "duration" : 381,
                                "mediaStart" : 0,
                                "mediaDuration" : 381,
                                "scalar" : 1,
                                "animationTracks" : {

                                }
                              }
,
                          "start" : 0,
                          "duration" : 381,
                          "mediaStart" : 0,
                          "mediaDuration" : 10891,
                          "scalar" : 1,
                          "metadata" : {
                            "AutoAppliedSmartFocus" : "False",
                            "clipSpeedAttribute" : false
                          }
                        },
                        {
                          "id" : 187,
                          "_type" : "UnifiedMedia",
                          "video" : 
                              {
                                "id" : 188,
                                "_type" : "ScreenVMFile",
                                "src" : 1,
                                "trackNumber" : 0,
                                "attributes" : {
                                  "ident" : "Rec 01-07-21"
                                },
                                "parameters" : {
                                  "cursorScale" : {
                                    "type" : "double",
                                    "defaultValue" : 0.0,
                                    "interp" : "linr"
                                  },
                                  "cursorOpacity" : {
                                    "type" : "double",
                                    "defaultValue" : 0.0,
                                    "interp" : "linr"
                                  }
                                },
                                "effects" : [

                                ],
                                "start" : 381,
                                "duration" : 140,
                                "mediaStart" : 590,
                                "mediaDuration" : 140,
                                "scalar" : 1,
                                "animationTracks" : {

                                }
                              },
                          "audio" : 
                              {
                                "id" : 189,
                                "_type" : "AMFile",
                                "src" : 1,
                                "trackNumber" : 1,
                                "attributes" : {
                                  "ident" : "",
                                  "gain" : 1.0,
                                  "mixToMono" : false
                                },
                                  "channelNumber" : "0,1",
                                "effects" : [

                                ],
                                "start" : 381,
                                "duration" : 140,
                                "mediaStart" : 590,
                                "mediaDuration" : 140,
                                "scalar" : 1,
                                "animationTracks" : {

                                }
                              }
,
                          "start" : 381,
                          "duration" : 140,
                          "mediaStart" : 0,
                          "mediaDuration" : 10891,
                          "scalar" : 1,
                          "metadata" : {
                            "AutoAppliedSmartFocus" : "False",
                            "clipSpeedAttribute" : false
                          }
                        },
                        {
                          "id" : 190,
                          "_type" : "UnifiedMedia",
                          "video" : 
                              {
                                "id" : 191,
                                "_type" : "ScreenVMFile",
                                "src" : 1,
                                "trackNumber" : 0,
                                "attributes" : {
                                  "ident" : "Rec 01-07-21"
                                },
                                "parameters" : {
                                  "cursorScale" : {
                                    "type" : "double",
                                    "defaultValue" : 0.0,
                                    "interp" : "linr"
                                  },
                                  "cursorOpacity" : {
                                    "type" : "double",
                                    "defaultValue" : 0.0,
                                    "interp" : "linr"
                                  }
                                },
                                "effects" : [

                                ],
                                "start" : 521,
                                "duration" : 221,
                                "mediaStart" : 827,
                                "mediaDuration" : 221,
                                "scalar" : 1,
                                "animationTracks" : {

                                }
                              },
                          "audio" : 
                              {
                                "id" : 192,
                                "_type" : "AMFile",
                                "src" : 1,
                                "trackNumber" : 1,
                                "attributes" : {
                                  "ident" : "",
                                  "gain" : 1.0,
                                  "mixToMono" : false
                                },
                                  "channelNumber" : "0,1",
                                "effects" : [

                                ],
                                "start" : 521,
                                "duration" : 221,
                                "mediaStart" : 827,
                                "mediaDuration" : 221,
                                "scalar" : 1,
                                "animationTracks" : {

                                }
                              }
,
                          "start" : 521,
                          "duration" : 221,
                          "mediaStart" : 0,
                          "mediaDuration" : 10891,
                          "scalar" : 1,
                          "metadata" : {
                            "AutoAppliedSmartFocus" : "False",
                            "clipSpeedAttribute" : false
                          }
                        },
                        {
                          "id" : 193,
                          "_type" : "UnifiedMedia",
                          "video" : 
                              {
                                "id" : 194,
                                "_type" : "ScreenVMFile",
                                "src" : 1,
                                "trackNumber" : 0,
                                "attributes" : {
                                  "ident" : "Rec 01-07-21"
                                },
                                "parameters" : {
                                  "cursorScale" : {
                                    "type" : "double",
                                    "defaultValue" : 0.0,
                                    "interp" : "linr"
                                  },
                                  "cursorOpacity" : {
                                    "type" : "double",
                                    "defaultValue" : 0.0,
                                    "interp" : "linr"
                                  }
                                },
                                "effects" : [

                                ],
                                "start" : 742,
                                "duration" : 3144,
                                "mediaStart" : 1198,
                                "mediaDuration" : 3144,
                                "scalar" : 1,
                                "animationTracks" : {

                                }
                              },
                          "audio" : 
                              {
                                "id" : 195,
                                "_type" : "AMFile",
                                "src" : 1,
                                "trackNumber" : 1,
                                "attributes" : {
                                  "ident" : "",
                                  "gain" : 1.0,
                                  "mixToMono" : false
                                },
                                  "channelNumber" : "0,1",
                                "effects" : [

                                ],
                                "start" : 742,
                                "duration" : 3144,
                                "mediaStart" : 1198,
                                "mediaDuration" : 3144,
                                "scalar" : 1,
                                "animationTracks" : {

                                }
                              }
,
                          "start" : 742,
                          "duration" : 3144,
                          "mediaStart" : 0,
                          "mediaDuration" : 10891,
                          "scalar" : 1,
                          "metadata" : {
                            "AutoAppliedSmartFocus" : "False",
                            "clipSpeedAttribute" : false
                          }
                        },
                        {
                          "id" : 196,
                          "_type" : "UnifiedMedia",
                          "video" : 
                              {
                                "id" : 197,
                                "_type" : "ScreenVMFile",
                                "src" : 1,
                                "trackNumber" : 0,
                                "attributes" : {
                                  "ident" : "Rec 01-07-21"
                                },
                                "parameters" : {
                                  "cursorScale" : {
                                    "type" : "double",
                                    "defaultValue" : 0.0,
                                    "interp" : "linr"
                                  },
                                  "cursorOpacity" : {
                                    "type" : "double",
                                    "defaultValue" : 0.0,
                                    "interp" : "linr"
                                  }
                                },
                                "effects" : [

                                ],
                                "start" : 3886,
                                "duration" : 120,
                                "mediaStart" : 4463,
                                "mediaDuration" : 120,
                                "scalar" : 1,
                                "animationTracks" : {

                                }
                              },
                          "audio" : 
                              {
                                "id" : 198,
                                "_type" : "AMFile",
                                "src" : 1,
                                "trackNumber" : 1,
                                "attributes" : {
                                  "ident" : "",
                                  "gain" : 1.0,
                                  "mixToMono" : false
                                },
                                  "channelNumber" : "0,1",
                                "effects" : [

                                ],
                                "start" : 3886,
                                "duration" : 120,
                                "mediaStart" : 4463,
                                "mediaDuration" : 120,
                                "scalar" : 1,
                                "animationTracks" : {

                                }
                              }
,
                          "start" : 3886,
                          "duration" : 120,
                          "mediaStart" : 0,
                          "mediaDuration" : 10891,
                          "scalar" : 1,
                          "metadata" : {
                            "AutoAppliedSmartFocus" : "False",
                            "clipSpeedAttribute" : false
                          }
                        },
                        {
                          "id" : 199,
                          "_type" : "UnifiedMedia",
                          "video" : 
                              {
                                "id" : 200,
                                "_type" : "ScreenVMFile",
                                "src" : 1,
                                "trackNumber" : 0,
                                "attributes" : {
                                  "ident" : "Rec 01-07-21"
                                },
                                "parameters" : {
                                  "cursorScale" : {
                                    "type" : "double",
                                    "defaultValue" : 0.0,
                                    "interp" : "linr"
                                  },
                                  "cursorOpacity" : {
                                    "type" : "double",
                                    "defaultValue" : 0.0,
                                    "interp" : "linr"
                                  }
                                },
                                "effects" : [

                                ],
                                "start" : 4006,
                                "duration" : 6022,
                                "mediaStart" : 4869,
                                "mediaDuration" : 6022,
                                "scalar" : 1,
                                "animationTracks" : {

                                }
                              },
                          "audio" : 
                              {
                                "id" : 201,
                                "_type" : "AMFile",
                                "src" : 1,
                                "trackNumber" : 1,
                                "attributes" : {
                                  "ident" : "",
                                  "gain" : 1.0,
                                  "mixToMono" : false
                                },
                                  "channelNumber" : "0,1",
                                "effects" : [

                                ],
                                "start" : 4006,
                                "duration" : 6022,
                                "mediaStart" : 4869,
                                "mediaDuration" : 6022,
                                "scalar" : 1,
                                "animationTracks" : {

                                }
                              }
,
                          "start" : 4006,
                          "duration" : 6022,
                          "mediaStart" : 0,
                          "mediaDuration" : 10891,
                          "scalar" : 1,
                          "metadata" : {
                            "AutoAppliedSmartFocus" : "False",
                            "clipSpeedAttribute" : false
                          }
                        }
                    ],
                    "effects" : [

                    ],
                    "start" : 2341,
                    "duration" : 98,
                    "mediaStart" : 4089,
                    "mediaDuration" : 295,
                    "scalar" : "98/295",
                    "metadata" : {
                      "AutoAppliedSmartFocus" : "False",
                      "clipSpeedAttribute" : true
                    },
                    "animationTracks" : {

                    }
                  },
                  {
                    "id" : 202,
                    "_type" : "StitchedMedia",
                    "minMediaStart" : 0,
                    "attributes" : {
                      "ident" : "Rec 01-07-21",
                      "gain" : 1.0,
                      "mixToMono" : false
                    },
                    "parameters" : {
                      "volume" : 1.0,
                      "cursorOpacity" : 1.0,
                      "cursorScale" : 1.0
                    },
                    "medias" : [
                        {
                          "id" : 203,
                          "_type" : "UnifiedMedia",
                          "video" : 
                              {
                                "id" : 204,
                                "_type" : "ScreenVMFile",
                                "src" : 1,
                                "trackNumber" : 0,
                                "attributes" : {
                                  "ident" : "Rec 01-07-21"
                                },
                                "parameters" : {
                                  "cursorScale" : {
                                    "type" : "double",
                                    "defaultValue" : 0.0,
                                    "interp" : "linr"
                                  },
                                  "cursorOpacity" : {
                                    "type" : "double",
                                    "defaultValue" : 0.0,
                                    "interp" : "linr"
                                  }
                                },
                                "effects" : [

                                ],
                                "start" : 0,
                                "duration" : 381,
                                "mediaStart" : 0,
                                "mediaDuration" : 381,
                                "scalar" : 1,
                                "animationTracks" : {

                                }
                              },
                          "audio" : 
                              {
                                "id" : 205,
                                "_type" : "AMFile",
                                "src" : 1,
                                "trackNumber" : 1,
                                "attributes" : {
                                  "ident" : "",
                                  "gain" : 1.0,
                                  "mixToMono" : false
                                },
                                  "channelNumber" : "0,1",
                                "effects" : [

                                ],
                                "start" : 0,
                                "duration" : 381,
                                "mediaStart" : 0,
                                "mediaDuration" : 381,
                                "scalar" : 1,
                                "animationTracks" : {

                                }
                              }
,
                          "start" : 0,
                          "duration" : 381,
                          "mediaStart" : 0,
                          "mediaDuration" : 10891,
                          "scalar" : 1,
                          "metadata" : {
                            "AutoAppliedSmartFocus" : "False",
                            "clipSpeedAttribute" : false
                          }
                        },
                        {
                          "id" : 206,
                          "_type" : "UnifiedMedia",
                          "video" : 
                              {
                                "id" : 207,
                                "_type" : "ScreenVMFile",
                                "src" : 1,
                                "trackNumber" : 0,
                                "attributes" : {
                                  "ident" : "Rec 01-07-21"
                                },
                                "parameters" : {
                                  "cursorScale" : {
                                    "type" : "double",
                                    "defaultValue" : 0.0,
                                    "interp" : "linr"
                                  },
                                  "cursorOpacity" : {
                                    "type" : "double",
                                    "defaultValue" : 0.0,
                                    "interp" : "linr"
                                  }
                                },
                                "effects" : [

                                ],
                                "start" : 381,
                                "duration" : 140,
                                "mediaStart" : 590,
                                "mediaDuration" : 140,
                                "scalar" : 1,
                                "animationTracks" : {

                                }
                              },
                          "audio" : 
                              {
                                "id" : 208,
                                "_type" : "AMFile",
                                "src" : 1,
                                "trackNumber" : 1,
                                "attributes" : {
                                  "ident" : "",
                                  "gain" : 1.0,
                                  "mixToMono" : false
                                },
                                  "channelNumber" : "0,1",
                                "effects" : [

                                ],
                                "start" : 381,
                                "duration" : 140,
                                "mediaStart" : 590,
                                "mediaDuration" : 140,
                                "scalar" : 1,
                                "animationTracks" : {

                                }
                              }
,
                          "start" : 381,
                          "duration" : 140,
                          "mediaStart" : 0,
                          "mediaDuration" : 10891,
                          "scalar" : 1,
                          "metadata" : {
                            "AutoAppliedSmartFocus" : "False",
                            "clipSpeedAttribute" : false
                          }
                        },
                        {
                          "id" : 209,
                          "_type" : "UnifiedMedia",
                          "video" : 
                              {
                                "id" : 210,
                                "_type" : "ScreenVMFile",
                                "src" : 1,
                                "trackNumber" : 0,
                                "attributes" : {
                                  "ident" : "Rec 01-07-21"
                                },
                                "parameters" : {
                                  "cursorScale" : {
                                    "type" : "double",
                                    "defaultValue" : 0.0,
                                    "interp" : "linr"
                                  },
                                  "cursorOpacity" : {
                                    "type" : "double",
                                    "defaultValue" : 0.0,
                                    "interp" : "linr"
                                  }
                                },
                                "effects" : [

                                ],
                                "start" : 521,
                                "duration" : 221,
                                "mediaStart" : 827,
                                "mediaDuration" : 221,
                                "scalar" : 1,
                                "animationTracks" : {

                                }
                              },
                          "audio" : 
                              {
                                "id" : 211,
                                "_type" : "AMFile",
                                "src" : 1,
                                "trackNumber" : 1,
                                "attributes" : {
                                  "ident" : "",
                                  "gain" : 1.0,
                                  "mixToMono" : false
                                },
                                  "channelNumber" : "0,1",
                                "effects" : [

                                ],
                                "start" : 521,
                                "duration" : 221,
                                "mediaStart" : 827,
                                "mediaDuration" : 221,
                                "scalar" : 1,
                                "animationTracks" : {

                                }
                              }
,
                          "start" : 521,
                          "duration" : 221,
                          "mediaStart" : 0,
                          "mediaDuration" : 10891,
                          "scalar" : 1,
                          "metadata" : {
                            "AutoAppliedSmartFocus" : "False",
                            "clipSpeedAttribute" : false
                          }
                        },
                        {
                          "id" : 212,
                          "_type" : "UnifiedMedia",
                          "video" : 
                              {
                                "id" : 213,
                                "_type" : "ScreenVMFile",
                                "src" : 1,
                                "trackNumber" : 0,
                                "attributes" : {
                                  "ident" : "Rec 01-07-21"
                                },
                                "parameters" : {
                                  "cursorScale" : {
                                    "type" : "double",
                                    "defaultValue" : 0.0,
                                    "interp" : "linr"
                                  },
                                  "cursorOpacity" : {
                                    "type" : "double",
                                    "defaultValue" : 0.0,
                                    "interp" : "linr"
                                  }
                                },
                                "effects" : [

                                ],
                                "start" : 742,
                                "duration" : 3144,
                                "mediaStart" : 1198,
                                "mediaDuration" : 3144,
                                "scalar" : 1,
                                "animationTracks" : {

                                }
                              },
                          "audio" : 
                              {
                                "id" : 214,
                                "_type" : "AMFile",
                                "src" : 1,
                                "trackNumber" : 1,
                                "attributes" : {
                                  "ident" : "",
                                  "gain" : 1.0,
                                  "mixToMono" : false
                                },
                                  "channelNumber" : "0,1",
                                "effects" : [

                                ],
                                "start" : 742,
                                "duration" : 3144,
                                "mediaStart" : 1198,
                                "mediaDuration" : 3144,
                                "scalar" : 1,
                                "animationTracks" : {

                                }
                              }
,
                          "start" : 742,
                          "duration" : 3144,
                          "mediaStart" : 0,
                          "mediaDuration" : 10891,
                          "scalar" : 1,
                          "metadata" : {
                            "AutoAppliedSmartFocus" : "False",
                            "clipSpeedAttribute" : false
                          }
                        },
                        {
                          "id" : 215,
                          "_type" : "UnifiedMedia",
                          "video" : 
                              {
                                "id" : 216,
                                "_type" : "ScreenVMFile",
                                "src" : 1,
                                "trackNumber" : 0,
                                "attributes" : {
                                  "ident" : "Rec 01-07-21"
                                },
                                "parameters" : {
                                  "cursorScale" : {
                                    "type" : "double",
                                    "defaultValue" : 0.0,
                                    "interp" : "linr"
                                  },
                                  "cursorOpacity" : {
                                    "type" : "double",
                                    "defaultValue" : 0.0,
                                    "interp" : "linr"
                                  }
                                },
                                "effects" : [

                                ],
                                "start" : 3886,
                                "duration" : 120,
                                "mediaStart" : 4463,
                                "mediaDuration" : 120,
                                "scalar" : 1,
                                "animationTracks" : {

                                }
                              },
                          "audio" : 
                              {
                                "id" : 217,
                                "_type" : "AMFile",
                                "src" : 1,
                                "trackNumber" : 1,
                                "attributes" : {
                                  "ident" : "",
                                  "gain" : 1.0,
                                  "mixToMono" : false
                                },
                                  "channelNumber" : "0,1",
                                "effects" : [

                                ],
                                "start" : 3886,
                                "duration" : 120,
                                "mediaStart" : 4463,
                                "mediaDuration" : 120,
                                "scalar" : 1,
                                "animationTracks" : {

                                }
                              }
,
                          "start" : 3886,
                          "duration" : 120,
                          "mediaStart" : 0,
                          "mediaDuration" : 10891,
                          "scalar" : 1,
                          "metadata" : {
                            "AutoAppliedSmartFocus" : "False",
                            "clipSpeedAttribute" : false
                          }
                        },
                        {
                          "id" : 218,
                          "_type" : "UnifiedMedia",
                          "video" : 
                              {
                                "id" : 219,
                                "_type" : "ScreenVMFile",
                                "src" : 1,
                                "trackNumber" : 0,
                                "attributes" : {
                                  "ident" : "Rec 01-07-21"
                                },
                                "parameters" : {
                                  "cursorScale" : {
                                    "type" : "double",
                                    "defaultValue" : 0.0,
                                    "interp" : "linr"
                                  },
                                  "cursorOpacity" : {
                                    "type" : "double",
                                    "defaultValue" : 0.0,
                                    "interp" : "linr"
                                  }
                                },
                                "effects" : [

                                ],
                                "start" : 4006,
                                "duration" : 6022,
                                "mediaStart" : 4869,
                                "mediaDuration" : 6022,
                                "scalar" : 1,
                                "animationTracks" : {

                                }
                              },
                          "audio" : 
                              {
                                "id" : 220,
                                "_type" : "AMFile",
                                "src" : 1,
                                "trackNumber" : 1,
                                "attributes" : {
                                  "ident" : "",
                                  "gain" : 1.0,
                                  "mixToMono" : false
                                },
                                  "channelNumber" : "0,1",
                                "effects" : [

                                ],
                                "start" : 4006,
                                "duration" : 6022,
                                "mediaStart" : 4869,
                                "mediaDuration" : 6022,
                                "scalar" : 1,
                                "animationTracks" : {

                                }
                              }
,
                          "start" : 4006,
                          "duration" : 6022,
                          "mediaStart" : 0,
                          "mediaDuration" : 10891,
                          "scalar" : 1,
                          "metadata" : {
                            "AutoAppliedSmartFocus" : "False",
                            "clipSpeedAttribute" : false
                          }
                        }
                    ],
                    "effects" : [

                    ],
                    "start" : 2439,
                    "duration" : 46,
                    "mediaStart" : 4384,
                    "mediaDuration" : 46,
                    "scalar" : 1,
                    "metadata" : {
                      "AutoAppliedSmartFocus" : "False",
                      "clipSpeedAttribute" : false
                    },
                    "animationTracks" : {

                    }
                  },
                  {
                    "id" : 221,
                    "_type" : "Group",
                    "parameters" : {
                      "volume" : 1.0
                    },
                    "tracks" : [
                      {
                        "trackIndex" : 0,
                        "medias" : [
                          {
                            "id" : 222,
                            "_type" : "ScreenVMFile",
                            "src" : 1,
                            "trackNumber" : 0,
                            "attributes" : {
                              "ident" : "Rec 01-07-21"
                            },
                            "parameters" : {
                              "cursorScale" : {
                                "type" : "double",
                                "defaultValue" : 1.0,
                                "interp" : "linr"
                              },
                              "cursorOpacity" : {
                                "type" : "double",
                                "defaultValue" : 1.0,
                                "interp" : "linr"
                              }
                            },
                            "effects" : [

                            ],
                            "start" : 0,
                            "duration" : 162,
                            "mediaStart" : 5557,
                            "mediaDuration" : 162,
                            "scalar" : 1,
                            "metadata" : {
                              "AutoAppliedSmartFocus" : "False",
                              "clipSpeedAttribute" : false
                            },
                            "animationTracks" : {

                            }
                          }
                        ],
                          "ident" : "",
                          "audioMuted" : false,
                          "videoHidden" : false,
                          "magnetic" : false,
                          "matte" : 0,
                          "metadata" : {
                            "IsLocked" : "False",
                            "WinTrackHeight" : "0"
                          }
                      },
                      {
                        "trackIndex" : 1,
                        "medias" : [
                          {
                            "id" : 223,
                            "_type" : "AMFile",
                            "src" : 2,
                            "trackNumber" : 0,
                            "attributes" : {
                              "ident" : "Narration_2-2 Install Minikube on Oracle Linux 8 1",
                              "gain" : 1.0,
                              "mixToMono" : false
                            },
                              "channelNumber" : "0,1",
                            "effects" : [

                            ],
                            "start" : 0,
                            "duration" : 162,
                            "mediaStart" : 0,
                            "mediaDuration" : 162,
                            "scalar" : 1,
                            "metadata" : {
                              "clipSpeedAttribute" : false
                            },
                            "animationTracks" : {

                            }
                          }
                        ],
                          "ident" : "",
                          "audioMuted" : false,
                          "videoHidden" : false,
                          "magnetic" : false,
                          "matte" : 0,
                          "metadata" : {
                            "IsLocked" : "False",
                            "WinTrackHeight" : "1.21506009201686e-312"
                          }
                      }
                    ],
                    "attributes" : {
                      "ident" : "Group 1",
                      "gain" : 1.0,
                      "mixToMono" : false
                    },
                    "effects" : [

                    ],
                    "start" : 2485,
                    "duration" : 162,
                    "mediaStart" : 0.0,
                    "mediaDuration" : 162.0,
                    "scalar" : 1,
                    "metadata" : {
                      "IsGroupExpanded" : "False"
                    },
                    "animationTracks" : {

                    }
                  },
                  {
                    "id" : 224,
                    "_type" : "Group",
                    "parameters" : {
                      "volume" : 1.0
                    },
                    "tracks" : [
                      {
                        "trackIndex" : 0,
                        "medias" : [
                          {
                            "id" : 225,
                            "_type" : "StitchedMedia",
                            "minMediaStart" : 0,
                            "attributes" : {
                              "ident" : "Rec 01-07-21",
                              "gain" : 1.0,
                              "mixToMono" : false
                            },
                            "parameters" : {
                              "cursorOpacity" : 1.0,
                              "cursorScale" : 1.0
                            },
                            "medias" : [
                                {
                                  "id" : 226,
                                  "_type" : "ScreenVMFile",
                                  "src" : 1,
                                  "trackNumber" : 0,
                                  "attributes" : {
                                    "ident" : "Rec 01-07-21"
                                  },
                                  "parameters" : {
                                    "cursorScale" : {
                                      "type" : "double",
                                      "defaultValue" : 0.0,
                                      "interp" : "linr"
                                    },
                                    "cursorOpacity" : {
                                      "type" : "double",
                                      "defaultValue" : 0.0,
                                      "interp" : "linr"
                                    }
                                  },
                                  "effects" : [

                                  ],
                                  "start" : 0,
                                  "duration" : 5793,
                                  "mediaStart" : 0,
                                  "mediaDuration" : 5793,
                                  "scalar" : 1,
                                  "metadata" : {
                                    "AutoAppliedSmartFocus" : "False",
                                    "clipSpeedAttribute" : false
                                  },
                                  "animationTracks" : {

                                  }
                                },
                                {
                                  "id" : 227,
                                  "_type" : "ScreenVMFile",
                                  "src" : 1,
                                  "trackNumber" : 0,
                                  "attributes" : {
                                    "ident" : "Rec 01-07-21"
                                  },
                                  "parameters" : {
                                    "cursorScale" : {
                                      "type" : "double",
                                      "defaultValue" : 0.0,
                                      "interp" : "linr"
                                    },
                                    "cursorOpacity" : {
                                      "type" : "double",
                                      "defaultValue" : 0.0,
                                      "interp" : "linr"
                                    }
                                  },
                                  "effects" : [

                                  ],
                                  "start" : 5793,
                                  "duration" : 217,
                                  "mediaStart" : 5821,
                                  "mediaDuration" : 217,
                                  "scalar" : 1,
                                  "metadata" : {
                                    "AutoAppliedSmartFocus" : "False",
                                    "clipSpeedAttribute" : false
                                  },
                                  "animationTracks" : {

                                  }
                                },
                                {
                                  "id" : 228,
                                  "_type" : "ScreenVMFile",
                                  "src" : 1,
                                  "trackNumber" : 0,
                                  "attributes" : {
                                    "ident" : "Rec 01-07-21"
                                  },
                                  "parameters" : {
                                    "cursorScale" : {
                                      "type" : "double",
                                      "defaultValue" : 0.0,
                                      "interp" : "linr"
                                    },
                                    "cursorOpacity" : {
                                      "type" : "double",
                                      "defaultValue" : 0.0,
                                      "interp" : "linr"
                                    }
                                  },
                                  "effects" : [

                                  ],
                                  "start" : 6010,
                                  "duration" : 4804,
                                  "mediaStart" : 6089,
                                  "mediaDuration" : 4804,
                                  "scalar" : 1,
                                  "metadata" : {
                                    "AutoAppliedSmartFocus" : "False",
                                    "clipSpeedAttribute" : false
                                  },
                                  "animationTracks" : {

                                  }
                                }
                            ],
                            "effects" : [

                            ],
                            "start" : 0,
                            "duration" : 319,
                            "mediaStart" : 5784,
                            "mediaDuration" : 319,
                            "scalar" : 1,
                            "metadata" : {
                              "AutoAppliedSmartFocus" : "False",
                              "clipSpeedAttribute" : false
                            },
                            "animationTracks" : {

                            }
                          }
                        ],
                          "ident" : "",
                          "audioMuted" : false,
                          "videoHidden" : false,
                          "magnetic" : false,
                          "matte" : 0,
                          "metadata" : {
                            "IsLocked" : "False",
                            "WinTrackHeight" : "0"
                          }
                      },
                      {
                        "trackIndex" : 1,
                        "medias" : [
                          {
                            "id" : 229,
                            "_type" : "StitchedMedia",
                            "minMediaStart" : 0,
                            "attributes" : {
                              "ident" : "Narration_2-2 Install Minikube on Oracle Linux 8 2",
                              "gain" : 1.0,
                              "mixToMono" : false
                            },
                            "parameters" : {
                              "volume" : 1.0,
                              "cursorOpacity" : 1.0,
                              "cursorScale" : 1.0
                            },
                            "medias" : [
                                {
                                  "id" : 230,
                                  "_type" : "AMFile",
                                  "src" : 3,
                                  "trackNumber" : 0,
                                  "attributes" : {
                                    "ident" : "Narration_2-2 Install Minikube on Oracle Linux 8 2",
                                    "gain" : 1.0,
                                    "mixToMono" : false
                                  },
                                    "channelNumber" : "0,1",
                                  "effects" : [

                                  ],
                                  "start" : 0,
                                  "duration" : 9,
                                  "mediaStart" : 0,
                                  "mediaDuration" : 9,
                                  "scalar" : 1,
                                  "metadata" : {
                                    "clipSpeedAttribute" : false
                                  },
                                  "animationTracks" : {

                                  }
                                },
                                {
                                  "id" : 231,
                                  "_type" : "AMFile",
                                  "src" : 3,
                                  "trackNumber" : 0,
                                  "attributes" : {
                                    "ident" : "Narration_2-2 Install Minikube on Oracle Linux 8 2",
                                    "gain" : 1.0,
                                    "mixToMono" : false
                                  },
                                    "channelNumber" : "0,1",
                                  "effects" : [

                                  ],
                                  "start" : 9,
                                  "duration" : 217,
                                  "mediaStart" : 37,
                                  "mediaDuration" : 217,
                                  "scalar" : 1,
                                  "metadata" : {
                                    "clipSpeedAttribute" : false
                                  },
                                  "animationTracks" : {

                                  }
                                },
                                {
                                  "id" : 232,
                                  "_type" : "AMFile",
                                  "src" : 3,
                                  "trackNumber" : 0,
                                  "attributes" : {
                                    "ident" : "Narration_2-2 Install Minikube on Oracle Linux 8 2",
                                    "gain" : 1.0,
                                    "mixToMono" : false
                                  },
                                    "channelNumber" : "0,1",
                                  "effects" : [

                                  ],
                                  "start" : 226,
                                  "duration" : 94,
                                  "mediaStart" : 305,
                                  "mediaDuration" : 94,
                                  "scalar" : 1,
                                  "metadata" : {
                                    "clipSpeedAttribute" : false
                                  },
                                  "animationTracks" : {

                                  }
                                }
                            ],
                            "effects" : [

                            ],
                            "start" : 0,
                            "duration" : 320,
                            "mediaStart" : 0,
                            "mediaDuration" : 320,
                            "scalar" : 1,
                            "metadata" : {
                              "clipSpeedAttribute" : false
                            },
                            "animationTracks" : {

                            }
                          }
                        ],
                          "ident" : "",
                          "audioMuted" : false,
                          "videoHidden" : false,
                          "magnetic" : false,
                          "matte" : 0,
                          "metadata" : {
                            "IsLocked" : "False",
                            "WinTrackHeight" : "1.21506009154255e-312"
                          }
                      }
                    ],
                    "attributes" : {
                      "ident" : "Group 2",
                      "gain" : 1.0,
                      "mixToMono" : false
                    },
                    "effects" : [

                    ],
                    "start" : 2647,
                    "duration" : 320,
                    "mediaStart" : 0.0,
                    "mediaDuration" : 320.0,
                    "scalar" : 1,
                    "metadata" : {
                      "IsGroupExpanded" : "False"
                    },
                    "animationTracks" : {

                    }
                  },
                  {
                    "id" : 233,
                    "_type" : "UnifiedMedia",
                    "video" : 
                        {
                          "id" : 234,
                          "_type" : "ScreenVMFile",
                          "src" : 1,
                          "trackNumber" : 0,
                          "attributes" : {
                            "ident" : "Rec 01-07-21"
                          },
                          "parameters" : {
                            "cursorScale" : {
                              "type" : "double",
                              "defaultValue" : 1.0,
                              "interp" : "linr"
                            },
                            "cursorOpacity" : {
                              "type" : "double",
                              "defaultValue" : 1.0,
                              "interp" : "linr"
                            }
                          },
                          "effects" : [

                          ],
                          "start" : 2967,
                          "duration" : 94,
                          "mediaStart" : 6819,
                          "mediaDuration" : 282,
                          "scalar" : "1/3",
                          "animationTracks" : {

                          }
                        },
                    "audio" : 
                        {
                          "id" : 235,
                          "_type" : "AMFile",
                          "src" : 1,
                          "trackNumber" : 1,
                          "attributes" : {
                            "ident" : "",
                            "gain" : 0.3,
                            "mixToMono" : false
                          },
                            "channelNumber" : "0,1",
                          "effects" : [

                          ],
                          "start" : 2967,
                          "duration" : 94,
                          "mediaStart" : 6819,
                          "mediaDuration" : 282,
                          "scalar" : "1/3",
                          "animationTracks" : {

                          }
                        }
,
                    "start" : 2967,
                    "duration" : 94,
                    "mediaStart" : 0,
                    "mediaDuration" : 10891,
                    "scalar" : "1/3",
                    "metadata" : {
                      "AutoAppliedSmartFocus" : "False",
                      "clipSpeedAttribute" : true
                    }
                  },
                  {
                    "id" : 236,
                    "_type" : "StitchedMedia",
                    "minMediaStart" : 0,
                    "attributes" : {
                      "ident" : "Rec 01-07-21_002",
                      "gain" : 1.0,
                      "mixToMono" : false
                    },
                    "parameters" : {
                      "volume" : 1.0,
                      "cursorOpacity" : 1.0,
                      "cursorScale" : 1.0
                    },
                    "medias" : [
                        {
                          "id" : 237,
                          "_type" : "UnifiedMedia",
                          "video" : 
                              {
                                "id" : 238,
                                "_type" : "ScreenVMFile",
                                "src" : 4,
                                "trackNumber" : 0,
                                "attributes" : {
                                  "ident" : "Rec 01-07-21_002"
                                },
                                "parameters" : {
                                  "cursorScale" : {
                                    "type" : "double",
                                    "defaultValue" : 0.0,
                                    "interp" : "linr"
                                  },
                                  "cursorOpacity" : {
                                    "type" : "double",
                                    "defaultValue" : 0.0,
                                    "interp" : "linr"
                                  }
                                },
                                "effects" : [

                                ],
                                "start" : 0,
                                "duration" : 155,
                                "mediaStart" : 0,
                                "mediaDuration" : 155,
                                "scalar" : 1,
                                "animationTracks" : {

                                }
                              },
                          "audio" : 
                              {
                                "id" : 239,
                                "_type" : "AMFile",
                                "src" : 4,
                                "trackNumber" : 1,
                                "attributes" : {
                                  "ident" : "",
                                  "gain" : 1.0,
                                  "mixToMono" : false
                                },
                                  "channelNumber" : "0,1",
                                "effects" : [

                                ],
                                "start" : 0,
                                "duration" : 155,
                                "mediaStart" : 0,
                                "mediaDuration" : 155,
                                "scalar" : 1,
                                "animationTracks" : {

                                }
                              }
,
                          "start" : 0,
                          "duration" : 155,
                          "mediaStart" : 0,
                          "mediaDuration" : 1364,
                          "scalar" : 1,
                          "metadata" : {
                            "AutoAppliedSmartFocus" : "False",
                            "clipSpeedAttribute" : false
                          }
                        },
                        {
                          "id" : 240,
                          "_type" : "UnifiedMedia",
                          "video" : 
                              {
                                "id" : 241,
                                "_type" : "ScreenVMFile",
                                "src" : 4,
                                "trackNumber" : 0,
                                "attributes" : {
                                  "ident" : "Rec 01-07-21_002"
                                },
                                "parameters" : {
                                  "cursorScale" : {
                                    "type" : "double",
                                    "defaultValue" : 0.0,
                                    "interp" : "linr"
                                  },
                                  "cursorOpacity" : {
                                    "type" : "double",
                                    "defaultValue" : 0.0,
                                    "interp" : "linr"
                                  }
                                },
                                "effects" : [

                                ],
                                "start" : 155,
                                "duration" : 57,
                                "mediaStart" : 212,
                                "mediaDuration" : 57,
                                "scalar" : 1,
                                "animationTracks" : {

                                }
                              },
                          "audio" : 
                              {
                                "id" : 242,
                                "_type" : "AMFile",
                                "src" : 4,
                                "trackNumber" : 1,
                                "attributes" : {
                                  "ident" : "",
                                  "gain" : 1.0,
                                  "mixToMono" : false
                                },
                                  "channelNumber" : "0,1",
                                "effects" : [

                                ],
                                "start" : 155,
                                "duration" : 57,
                                "mediaStart" : 212,
                                "mediaDuration" : 57,
                                "scalar" : 1,
                                "animationTracks" : {

                                }
                              }
,
                          "start" : 155,
                          "duration" : 57,
                          "mediaStart" : 0,
                          "mediaDuration" : 1364,
                          "scalar" : 1,
                          "metadata" : {
                            "AutoAppliedSmartFocus" : "False",
                            "clipSpeedAttribute" : false
                          }
                        },
                        {
                          "id" : 243,
                          "_type" : "UnifiedMedia",
                          "video" : 
                              {
                                "id" : 244,
                                "_type" : "ScreenVMFile",
                                "src" : 4,
                                "trackNumber" : 0,
                                "attributes" : {
                                  "ident" : "Rec 01-07-21_002"
                                },
                                "parameters" : {
                                  "cursorScale" : {
                                    "type" : "double",
                                    "defaultValue" : 0.0,
                                    "interp" : "linr"
                                  },
                                  "cursorOpacity" : {
                                    "type" : "double",
                                    "defaultValue" : 0.0,
                                    "interp" : "linr"
                                  }
                                },
                                "effects" : [

                                ],
                                "start" : 212,
                                "duration" : 187,
                                "mediaStart" : 608,
                                "mediaDuration" : 187,
                                "scalar" : 1,
                                "animationTracks" : {

                                }
                              },
                          "audio" : 
                              {
                                "id" : 245,
                                "_type" : "AMFile",
                                "src" : 4,
                                "trackNumber" : 1,
                                "attributes" : {
                                  "ident" : "",
                                  "gain" : 1.0,
                                  "mixToMono" : false
                                },
                                  "channelNumber" : "0,1",
                                "effects" : [

                                ],
                                "start" : 212,
                                "duration" : 187,
                                "mediaStart" : 608,
                                "mediaDuration" : 187,
                                "scalar" : 1,
                                "animationTracks" : {

                                }
                              }
,
                          "start" : 212,
                          "duration" : 187,
                          "mediaStart" : 0,
                          "mediaDuration" : 1364,
                          "scalar" : 1,
                          "metadata" : {
                            "AutoAppliedSmartFocus" : "False",
                            "clipSpeedAttribute" : false
                          }
                        },
                        {
                          "id" : 246,
                          "_type" : "UnifiedMedia",
                          "video" : 
                              {
                                "id" : 247,
                                "_type" : "ScreenVMFile",
                                "src" : 4,
                                "trackNumber" : 0,
                                "attributes" : {
                                  "ident" : "Rec 01-07-21_002"
                                },
                                "parameters" : {
                                  "cursorScale" : {
                                    "type" : "double",
                                    "defaultValue" : 0.0,
                                    "interp" : "linr"
                                  },
                                  "cursorOpacity" : {
                                    "type" : "double",
                                    "defaultValue" : 0.0,
                                    "interp" : "linr"
                                  }
                                },
                                "effects" : [

                                ],
                                "start" : 399,
                                "duration" : 7,
                                "mediaStart" : 971,
                                "mediaDuration" : 7,
                                "scalar" : 1,
                                "animationTracks" : {

                                }
                              },
                          "audio" : 
                              {
                                "id" : 248,
                                "_type" : "AMFile",
                                "src" : 4,
                                "trackNumber" : 1,
                                "attributes" : {
                                  "ident" : "",
                                  "gain" : 1.0,
                                  "mixToMono" : false
                                },
                                  "channelNumber" : "0,1",
                                "effects" : [

                                ],
                                "start" : 399,
                                "duration" : 7,
                                "mediaStart" : 971,
                                "mediaDuration" : 7,
                                "scalar" : 1,
                                "animationTracks" : {

                                }
                              }
,
                          "start" : 399,
                          "duration" : 7,
                          "mediaStart" : 0,
                          "mediaDuration" : 1364,
                          "scalar" : 1,
                          "metadata" : {
                            "AutoAppliedSmartFocus" : "False",
                            "clipSpeedAttribute" : false
                          }
                        },
                        {
                          "id" : 249,
                          "_type" : "UnifiedMedia",
                          "video" : 
                              {
                                "id" : 250,
                                "_type" : "ScreenVMFile",
                                "src" : 4,
                                "trackNumber" : 0,
                                "attributes" : {
                                  "ident" : "Rec 01-07-21_002"
                                },
                                "parameters" : {
                                  "cursorScale" : {
                                    "type" : "double",
                                    "defaultValue" : 0.0,
                                    "interp" : "linr"
                                  },
                                  "cursorOpacity" : {
                                    "type" : "double",
                                    "defaultValue" : 0.0,
                                    "interp" : "linr"
                                  }
                                },
                                "effects" : [

                                ],
                                "start" : 406,
                                "duration" : 378,
                                "mediaStart" : 986,
                                "mediaDuration" : 378,
                                "scalar" : 1,
                                "animationTracks" : {

                                }
                              },
                          "audio" : 
                              {
                                "id" : 251,
                                "_type" : "AMFile",
                                "src" : 4,
                                "trackNumber" : 1,
                                "attributes" : {
                                  "ident" : "",
                                  "gain" : 1.0,
                                  "mixToMono" : false
                                },
                                  "channelNumber" : "0,1",
                                "effects" : [

                                ],
                                "start" : 406,
                                "duration" : 378,
                                "mediaStart" : 986,
                                "mediaDuration" : 378,
                                "scalar" : 1,
                                "animationTracks" : {

                                }
                              }
,
                          "start" : 406,
                          "duration" : 378,
                          "mediaStart" : 0,
                          "mediaDuration" : 1364,
                          "scalar" : 1,
                          "metadata" : {
                            "AutoAppliedSmartFocus" : "False",
                            "clipSpeedAttribute" : false
                          }
                        }
                    ],
                    "effects" : [

                    ],
                    "start" : 3061,
                    "duration" : 702,
                    "mediaStart" : 82,
                    "mediaDuration" : 702,
                    "scalar" : 1,
                    "metadata" : {
                      "AutoAppliedSmartFocus" : "False",
                      "clipSpeedAttribute" : false
                    },
                    "animationTracks" : {

                    }
                  }
                ]
              },
              {
                "trackIndex" : 1,
                "medias" : [
                  {
                    "id" : 252,
                    "_type" : "Group",
                    "parameters" : {
                      "volume" : 1.0
                    },
                    "tracks" : [
                      {
                        "trackIndex" : 0,
                        "medias" : [
                          {
                            "id" : 253,
                            "_type" : "Callout",
                            "def" : {
                              "kind" : "remix",
                              "shape" : "text",
                              "style" : "basic",
                              "height" : {
                                "type" : "double",
                                "defaultValue" : 250.0,
                                "interp" : "linr"
                              },
                              "line-spacing" : {
                                "type" : "double",
                                "defaultValue" : 0.0,
                                "interp" : "linr"
                              },
                              "width" : {
                                "type" : "double",
                                "defaultValue" : 998.63013698628,
                                "interp" : "linr"
                              },
                              "word-wrap" : {
                                "type" : "double",
                                "defaultValue" : 1.0,
                                "interp" : "linr"
                              },
                              "horizontal-alignment" : "center",
                              "resize-behavior" : "resizeText",
                              "text" : "Install Minikube on Oracle Linux 8",
                              "vertical-alignment" : "center",
                              "font" : {
                                "color-blue" : {
                                  "type" : "double",
                                  "defaultValue" : 1.0,
                                  "interp" : "linr"
                                },
                                "color-green" : {
                                  "type" : "double",
                                  "defaultValue" : 1.0,
                                  "interp" : "linr"
                                },
                                "color-red" : {
                                  "type" : "double",
                                  "defaultValue" : 1.0,
                                  "interp" : "linr"
                                },
                                "size" : {
                                  "type" : "double",
                                  "defaultValue" : 96.0,
                                  "interp" : "linr"
                                },
                                "tracking" : {
                                  "type" : "double",
                                  "defaultValue" : 0.0,
                                  "interp" : "linr"
                                },
                                "name" : "Montserrat",
                                "weight" : "Regular"
                              },
                              "textAttributes" : {
                                "type" : "textAttributeList",
                                "keyframes" : [
                                  {
                                    "endTime" : 0,
                                    "time" : 0,
                                    "value" : [{"name":"fontName","rangeEnd":34,"rangeStart":0,"value":"Montserrat","valueType":"string"},{"name":"strikethrough","rangeEnd":34,"rangeStart":0,"value":0,"valueType":"int"},{"name":"kerning","rangeEnd":34,"rangeStart":0,"value":0,"valueType":"double"},{"name":"fgColor","rangeEnd":34,"rangeStart":0,"value":"(50,108,229,255)","valueType":"color"},{"name":"underline","rangeEnd":34,"rangeStart":0,"value":0,"valueType":"int"},{"name":"fontSize","rangeEnd":34,"rangeStart":0,"value":96,"valueType":"double"},{"name":"fontItalic","rangeEnd":34,"rangeStart":0,"value":0,"valueType":"int"},{"name":"fontWeight","rangeEnd":34,"rangeStart":0,"value":700,"valueType":"int"}],
                                    "duration" : 0
                                  }
                                ]
                              }
                            },
                            "attributes" : {
                              "autoRotateText" : true
                            },
                            "parameters" : {
                              "translation0" : {
                                "type" : "double",
                                "defaultValue" : -22.4178082191042,
                                "interp" : "eioe"
                              },
                              "translation1" : {
                                "type" : "double",
                                "defaultValue" : 1.319122588261e-11,
                                "interp" : "eioe"
                              }
                            },
                            "effects" : [
                                {
                                  "_type" : "GenericBehaviorEffect",
                                  "effectName" : "pulsating",
                                  "start" : -102,
                                  "duration" : 200                                ,
                                  "in" : {
                                    "attributes" : {
                                      "name" : "grow",
                                      "type" : 1,
                                      "characterOrder" : 6,
                                      "offsetBetweenCharacters" : 1,
                                      "suggestedDurationPerCharacter" : 18,
                                      "overlapProportion" : "3/4",
                                      "movement" : 30,
                                      "springDamping" : 5.0,
                                      "springStiffness" : 50.0,
                                      "bounceBounciness" : 0.45
                                    }
                                  
                                  },
                                  "center" : {
                                    "attributes" : {
                                      "name" : "pulsate",
                                      "type" : 1,
                                      "characterOrder" : 6,
                                      "offsetBetweenCharacters" : "21/10",
                                      "secondsPerLoop" : 1,
                                      "numberOfLoops" : -1,
                                      "delayBetweenLoops" : 0,
                                      "offsetBetweenCharacters" : "21/10"
                                    },
                                    "parameters" : {
                                      "movement" : {
                                        "type" : "int",
                                        "valueBounds" : {
                                          "minValue" : 0,
                                          "maxValue" : 31,
                                          "defaultValue" : 27
                                        },
                                        "uiHints" : {
                                          "userInterfaceType" : 4,
                                          "unitType" : 0
                                        },
                                        "keyframes" : [
                                          {
                                            "endTime" : 0,
                                            "time" : 0,
                                            "value" : 27,
                                            "duration" : 0
                                          }
                                        ]
                                      },
                                      "scale" : {
                                        "type" : "double",
                                        "defaultValue" : 1.08,
                                        "interp" : "linr",
                                        "valueBounds" : {
                                          "minValue" : 0.01,
                                          "maxValue" : 2.0,
                                          "defaultValue" : 1.08
                                        },
                                        "uiHints" : {
                                          "userInterfaceType" : 1,
                                          "unitType" : 1
                                        }
                                      }
                                    }
                                  
                                  },
                                  "out" : {
                                    "attributes" : {
                                      "name" : "shrink",
                                      "type" : 1,
                                      "characterOrder" : 6,
                                      "offsetBetweenCharacters" : 1,
                                      "suggestedDurationPerCharacter" : "29/2",
                                      "overlapProportion" : "1/10",
                                      "movement" : 11,
                                      "springDamping" : 5.0,
                                      "springStiffness" : 50.0,
                                      "bounceBounciness" : 0.45
                                    }
                                  
                                  }
                                }
                            ],
                            "start" : 0,
                            "duration" : 103,
                            "mediaStart" : -102,
                            "mediaDuration" : 103,
                            "scalar" : 1,
                            "metadata" : {
                              "clipSpeedAttribute" : false,
                              "default-HAlign" : "center",
                              "default-LineSpace" : 0.0,
                              "default-VAlign" : "center",
                              "default-text-attributes" : "[{\"name\":\"fontItalic\",\"rangeEnd\":21,\"rangeStart\":0,\"value\":0,\"valueType\":\"int\"},{\"name\":\"fontName\",\"rangeEnd\":21,\"rangeStart\":0,\"value\":\"Montserrat\",\"valueType\":\"string\"},{\"name\":\"fontWeight\",\"rangeEnd\":21,\"rangeStart\":0,\"value\":700,\"valueType\":\"int\"},{\"name\":\"kerning\",\"rangeEnd\":21,\"rangeStart\":0,\"value\":0,\"valueType\":\"double\"},{\"name\":\"fgColor\",\"rangeEnd\":21,\"rangeStart\":0,\"value\":\"(50,108,229,255)\",\"valueType\":\"color\"},{\"name\":\"underline\",\"rangeEnd\":21,\"rangeStart\":0,\"value\":0,\"valueType\":\"int\"},{\"name\":\"fontSize\",\"rangeEnd\":21,\"rangeStart\":0,\"value\":96,\"valueType\":\"double\"},{\"name\":\"strikethrough\",\"rangeEnd\":21,\"rangeStart\":0,\"value\":0,\"valueType\":\"int\"}]"
                            },
                            "animationTracks" : {

                            }
                          },
                          {
                            "id" : 254,
                            "_type" : "Callout",
                            "def" : {
                              "kind" : "remix",
                              "shape" : "text",
                              "style" : "basic",
                              "height" : {
                                "type" : "double",
                                "defaultValue" : 250.0,
                                "interp" : "linr"
                              },
                              "line-spacing" : {
                                "type" : "double",
                                "defaultValue" : 0.0,
                                "interp" : "linr"
                              },
                              "width" : {
                                "type" : "double",
                                "defaultValue" : 998.63013698628,
                                "interp" : "linr"
                              },
                              "word-wrap" : {
                                "type" : "double",
                                "defaultValue" : 1.0,
                                "interp" : "linr"
                              },
                              "horizontal-alignment" : "center",
                              "resize-behavior" : "resizeText",
                              "text" : "Install Minikube on Oracle Linux 8",
                              "vertical-alignment" : "center",
                              "font" : {
                                "color-blue" : {
                                  "type" : "double",
                                  "defaultValue" : 1.0,
                                  "interp" : "linr"
                                },
                                "color-green" : {
                                  "type" : "double",
                                  "defaultValue" : 1.0,
                                  "interp" : "linr"
                                },
                                "color-red" : {
                                  "type" : "double",
                                  "defaultValue" : 1.0,
                                  "interp" : "linr"
                                },
                                "size" : {
                                  "type" : "double",
                                  "defaultValue" : 96.0,
                                  "interp" : "linr"
                                },
                                "tracking" : {
                                  "type" : "double",
                                  "defaultValue" : 0.0,
                                  "interp" : "linr"
                                },
                                "name" : "Montserrat",
                                "weight" : "Regular"
                              },
                              "textAttributes" : {
                                "type" : "textAttributeList",
                                "keyframes" : [
                                  {
                                    "endTime" : 0,
                                    "time" : 0,
                                    "value" : [{"name":"strikethrough","rangeEnd":34,"rangeStart":0,"value":0,"valueType":"int"},{"name":"underline","rangeEnd":34,"rangeStart":0,"value":0,"valueType":"int"},{"name":"fontName","rangeEnd":34,"rangeStart":0,"value":"Montserrat","valueType":"string"},{"name":"kerning","rangeEnd":34,"rangeStart":0,"value":0,"valueType":"double"},{"name":"fgColor","rangeEnd":34,"rangeStart":0,"value":"(50,108,229,255)","valueType":"color"},{"name":"fontSize","rangeEnd":34,"rangeStart":0,"value":96,"valueType":"double"},{"name":"fontItalic","rangeEnd":34,"rangeStart":0,"value":0,"valueType":"int"},{"name":"fontWeight","rangeEnd":34,"rangeStart":0,"value":700,"valueType":"int"}],
                                    "duration" : 0
                                  }
                                ]
                              }
                            },
                            "attributes" : {
                              "autoRotateText" : true
                            },
                            "parameters" : {
                              "translation0" : {
                                "type" : "double",
                                "defaultValue" : -74.4178082188969,
                                "interp" : "eioe"
                              },
                              "translation1" : {
                                "type" : "double",
                                "defaultValue" : 4.13429290734252e-11,
                                "interp" : "eioe"
                              }
                            },
                            "effects" : [
                                {
                                  "_type" : "GenericBehaviorEffect",
                                  "effectName" : "pulsating",
                                  "start" : -102,
                                  "duration" : 200                                ,
                                  "in" : {
                                    "attributes" : {
                                      "name" : "grow",
                                      "type" : 1,
                                      "characterOrder" : 6,
                                      "offsetBetweenCharacters" : 1,
                                      "suggestedDurationPerCharacter" : 18,
                                      "overlapProportion" : "3/4",
                                      "movement" : 30,
                                      "springDamping" : 5.0,
                                      "springStiffness" : 50.0,
                                      "bounceBounciness" : 0.45
                                    }
                                  
                                  },
                                  "center" : {
                                    "attributes" : {
                                      "name" : "pulsate",
                                      "type" : 1,
                                      "characterOrder" : 6,
                                      "offsetBetweenCharacters" : "21/10",
                                      "secondsPerLoop" : 1,
                                      "numberOfLoops" : -1,
                                      "delayBetweenLoops" : 0,
                                      "offsetBetweenCharacters" : "21/10"
                                    },
                                    "parameters" : {
                                      "movement" : {
                                        "type" : "int",
                                        "valueBounds" : {
                                          "minValue" : 0,
                                          "maxValue" : 31,
                                          "defaultValue" : 27
                                        },
                                        "uiHints" : {
                                          "userInterfaceType" : 4,
                                          "unitType" : 0
                                        },
                                        "keyframes" : [
                                          {
                                            "endTime" : 0,
                                            "time" : 0,
                                            "value" : 27,
                                            "duration" : 0
                                          }
                                        ]
                                      },
                                      "scale" : {
                                        "type" : "double",
                                        "defaultValue" : 1.08,
                                        "interp" : "linr",
                                        "valueBounds" : {
                                          "minValue" : 0.01,
                                          "maxValue" : 2.0,
                                          "defaultValue" : 1.08
                                        },
                                        "uiHints" : {
                                          "userInterfaceType" : 1,
                                          "unitType" : 1
                                        }
                                      }
                                    }
                                  
                                  },
                                  "out" : {
                                    "attributes" : {
                                      "name" : "shrink",
                                      "type" : 1,
                                      "characterOrder" : 6,
                                      "offsetBetweenCharacters" : 1,
                                      "suggestedDurationPerCharacter" : "29/2",
                                      "overlapProportion" : "1/10",
                                      "movement" : 11,
                                      "springDamping" : 5.0,
                                      "springStiffness" : 50.0,
                                      "bounceBounciness" : 0.45
                                    }
                                  
                                  }
                                }
                            ],
                            "start" : 103,
                            "duration" : 97,
                            "mediaStart" : 1,
                            "mediaDuration" : 97,
                            "scalar" : 1,
                            "metadata" : {
                              "clipSpeedAttribute" : false,
                              "default-HAlign" : "center",
                              "default-LineSpace" : 0.0,
                              "default-VAlign" : "center",
                              "default-text-attributes" : "[{\"name\":\"strikethrough\",\"rangeEnd\":21,\"rangeStart\":0,\"value\":0,\"valueType\":\"int\"},{\"name\":\"fontName\",\"rangeEnd\":21,\"rangeStart\":0,\"value\":\"Montserrat\",\"valueType\":\"string\"},{\"name\":\"fontSize\",\"rangeEnd\":21,\"rangeStart\":0,\"value\":96,\"valueType\":\"double\"},{\"name\":\"fontWeight\",\"rangeEnd\":21,\"rangeStart\":0,\"value\":700,\"valueType\":\"int\"},{\"name\":\"fgColor\",\"rangeEnd\":21,\"rangeStart\":0,\"value\":\"(50,108,229,255)\",\"valueType\":\"color\"},{\"name\":\"underline\",\"rangeEnd\":21,\"rangeStart\":0,\"value\":0,\"valueType\":\"int\"},{\"name\":\"kerning\",\"rangeEnd\":21,\"rangeStart\":0,\"value\":0,\"valueType\":\"double\"},{\"name\":\"fontItalic\",\"rangeEnd\":21,\"rangeStart\":0,\"value\":0,\"valueType\":\"int\"}]"
                            },
                            "animationTracks" : {

                            }
                          }
                        ],
                          "ident" : "",
                          "audioMuted" : false,
                          "videoHidden" : false,
                          "magnetic" : false,
                          "matte" : 0,
                          "metadata" : {
                            "IsLocked" : "False",
                            "WinTrackHeight" : "0"
                          }
                      },
                      {
                        "trackIndex" : 1,
                        "medias" : [
                          {
                            "id" : 255,
                            "_type" : "Group",
                            "parameters" : {
                              "translation0" : {
                                "type" : "double",
                                "defaultValue" : 0.559750733332294,
                                "interp" : "eioe"
                              },
                              "translation1" : {
                                "type" : "double",
                                "defaultValue" : -34.4850472193567,
                                "interp" : "eioe"
                              },
                              "volume" : 1.0
                            },
                            "tracks" : [
                              {
                                "trackIndex" : 0,
                                "medias" : [
                                  {
                                    "id" : 256,
                                    "_type" : "Group",
                                    "parameters" : {
                                      "translation0" : {
                                        "type" : "double",
                                        "defaultValue" : 4.44089209850063e-16,
                                        "interp" : "eioe"
                                      },
                                      "translation1" : {
                                        "type" : "double",
                                        "defaultValue" : -34.4850472193565,
                                        "interp" : "eioe"
                                      },
                                      "volume" : 1.0
                                    },
                                    "tracks" : [
                                      {
                                        "trackIndex" : 0,
                                        "medias" : [
                                          {
                                            "id" : 257,
                                            "_type" : "Group",
                                            "parameters" : {
                                              "translation0" : {
                                                "type" : "double",
                                                "defaultValue" : 0.55975073333218,
                                                "interp" : "eioe"
                                              },
                                              "translation1" : {
                                                "type" : "double",
                                                "defaultValue" : -289.15133998951,
                                                "interp" : "eioe"
                                              },
                                              "volume" : 1.0
                                            },
                                            "tracks" : [
                                              {
                                                "trackIndex" : 0,
                                                "medias" : [
                                                  {
                                                    "id" : 258,
                                                    "_type" : "IMFile",
                                                    "src" : 5,
                                                    "trackNumber" : 0,
                                                    "trimStartSum" : 0,
                                                    "attributes" : {
                                                      "ident" : "wave1"
                                                    },
                                                    "parameters" : {
                                                      "translation0" : {
                                                        "type" : "double",
                                                        "defaultValue" : -2.11950146613311,
                                                        "interp" : "eioe"
                                                      },
                                                      "translation1" : {
                                                        "type" : "double",
                                                        "defaultValue" : 8.96940103546206,
                                                        "interp" : "eioe"
                                                      },
                                                      "scale0" : {
                                                        "type" : "double",
                                                        "defaultValue" : 1.02884111169424,
                                                        "interp" : "eioe"
                                                      },
                                                      "scale1" : {
                                                        "type" : "double",
                                                        "defaultValue" : 1.02884111169424,
                                                        "interp" : "eioe"
                                                      }
                                                    },
                                                    "effects" : [

                                                    ],
                                                    "start" : 0,
                                                    "duration" : 6,
                                                    "mediaStart" : 0,
                                                    "mediaDuration" : 6,
                                                    "scalar" : 1,
                                                    "metadata" : {
                                                      "clipSpeedAttribute" : false
                                                    },
                                                    "animationTracks" : {

                                                    }
                                                  },
                                                  {
                                                    "id" : 259,
                                                    "_type" : "IMFile",
                                                    "src" : 6,
                                                    "trackNumber" : 0,
                                                    "trimStartSum" : 0,
                                                    "attributes" : {
                                                      "ident" : "wave2"
                                                    },
                                                    "parameters" : {
                                                      "translation0" : {
                                                        "type" : "double",
                                                        "defaultValue" : 0.880498533167186,
                                                        "interp" : "eioe"
                                                      },
                                                      "translation1" : {
                                                        "type" : "double",
                                                        "defaultValue" : -88.087642172052,
                                                        "interp" : "eioe"
                                                      },
                                                      "scale0" : {
                                                        "type" : "double",
                                                        "defaultValue" : 1.03068101042332,
                                                        "interp" : "eioe"
                                                      },
                                                      "scale1" : {
                                                        "type" : "double",
                                                        "defaultValue" : 1.03068101042332,
                                                        "interp" : "eioe"
                                                      }
                                                    },
                                                    "effects" : [

                                                    ],
                                                    "start" : 6,
                                                    "duration" : 6,
                                                    "mediaStart" : 0,
                                                    "mediaDuration" : 6,
                                                    "scalar" : 1,
                                                    "metadata" : {
                                                      "clipSpeedAttribute" : false
                                                    },
                                                    "animationTracks" : {

                                                    }
                                                  },
                                                  {
                                                    "id" : 260,
                                                    "_type" : "IMFile",
                                                    "src" : 7,
                                                    "trackNumber" : 0,
                                                    "trimStartSum" : 0,
                                                    "attributes" : {
                                                      "ident" : "wave3"
                                                    },
                                                    "parameters" : {
                                                      "translation0" : {
                                                        "type" : "double",
                                                        "defaultValue" : -1.11950146655987,
                                                        "interp" : "eioe"
                                                      },
                                                      "translation1" : {
                                                        "type" : "double",
                                                        "defaultValue" : 8.12143442823202,
                                                        "interp" : "eioe"
                                                      },
                                                      "scale0" : {
                                                        "type" : "double",
                                                        "defaultValue" : 1.00893326326855,
                                                        "interp" : "eioe"
                                                      },
                                                      "scale1" : {
                                                        "type" : "double",
                                                        "defaultValue" : 1.00893326326855,
                                                        "interp" : "eioe"
                                                      }
                                                    },
                                                    "effects" : [

                                                    ],
                                                    "start" : 12,
                                                    "duration" : 7,
                                                    "mediaStart" : 0,
                                                    "mediaDuration" : 7,
                                                    "scalar" : 1,
                                                    "metadata" : {
                                                      "clipSpeedAttribute" : false
                                                    },
                                                    "animationTracks" : {

                                                    }
                                                  },
                                                  {
                                                    "id" : 261,
                                                    "_type" : "IMFile",
                                                    "src" : 5,
                                                    "trackNumber" : 0,
                                                    "trimStartSum" : 0,
                                                    "attributes" : {
                                                      "ident" : "wave1"
                                                    },
                                                    "parameters" : {
                                                      "translation0" : {
                                                        "type" : "double",
                                                        "defaultValue" : -2.11950146613311,
                                                        "interp" : "eioe"
                                                      },
                                                      "translation1" : {
                                                        "type" : "double",
                                                        "defaultValue" : 8.96940103546206,
                                                        "interp" : "eioe"
                                                      },
                                                      "scale0" : {
                                                        "type" : "double",
                                                        "defaultValue" : 1.02884111169424,
                                                        "interp" : "eioe"
                                                      },
                                                      "scale1" : {
                                                        "type" : "double",
                                                        "defaultValue" : 1.02884111169424,
                                                        "interp" : "eioe"
                                                      }
                                                    },
                                                    "effects" : [

                                                    ],
                                                    "start" : 19,
                                                    "duration" : 6,
                                                    "mediaStart" : 0,
                                                    "mediaDuration" : 6,
                                                    "scalar" : 1,
                                                    "metadata" : {
                                                      "clipSpeedAttribute" : false
                                                    },
                                                    "animationTracks" : {

                                                    }
                                                  },
                                                  {
                                                    "id" : 262,
                                                    "_type" : "IMFile",
                                                    "src" : 6,
                                                    "trackNumber" : 0,
                                                    "trimStartSum" : 0,
                                                    "attributes" : {
                                                      "ident" : "wave2"
                                                    },
                                                    "parameters" : {
                                                      "translation0" : {
                                                        "type" : "double",
                                                        "defaultValue" : 0.880498533167186,
                                                        "interp" : "eioe"
                                                      },
                                                      "translation1" : {
                                                        "type" : "double",
                                                        "defaultValue" : -88.087642172052,
                                                        "interp" : "eioe"
                                                      },
                                                      "scale0" : {
                                                        "type" : "double",
                                                        "defaultValue" : 1.03068101042332,
                                                        "interp" : "eioe"
                                                      },
                                                      "scale1" : {
                                                        "type" : "double",
                                                        "defaultValue" : 1.03068101042332,
                                                        "interp" : "eioe"
                                                      }
                                                    },
                                                    "effects" : [

                                                    ],
                                                    "start" : 25,
                                                    "duration" : 6,
                                                    "mediaStart" : 0,
                                                    "mediaDuration" : 6,
                                                    "scalar" : 1,
                                                    "metadata" : {
                                                      "clipSpeedAttribute" : false
                                                    },
                                                    "animationTracks" : {

                                                    }
                                                  },
                                                  {
                                                    "id" : 263,
                                                    "_type" : "IMFile",
                                                    "src" : 7,
                                                    "trackNumber" : 0,
                                                    "trimStartSum" : 0,
                                                    "attributes" : {
                                                      "ident" : "wave3"
                                                    },
                                                    "parameters" : {
                                                      "translation0" : {
                                                        "type" : "double",
                                                        "defaultValue" : -1.11950146655987,
                                                        "interp" : "eioe"
                                                      },
                                                      "translation1" : {
                                                        "type" : "double",
                                                        "defaultValue" : 8.12143442823202,
                                                        "interp" : "eioe"
                                                      },
                                                      "scale0" : {
                                                        "type" : "double",
                                                        "defaultValue" : 1.00893326326855,
                                                        "interp" : "eioe"
                                                      },
                                                      "scale1" : {
                                                        "type" : "double",
                                                        "defaultValue" : 1.00893326326855,
                                                        "interp" : "eioe"
                                                      }
                                                    },
                                                    "effects" : [

                                                    ],
                                                    "start" : 31,
                                                    "duration" : 7,
                                                    "mediaStart" : 0,
                                                    "mediaDuration" : 7,
                                                    "scalar" : 1,
                                                    "metadata" : {
                                                      "clipSpeedAttribute" : false
                                                    },
                                                    "animationTracks" : {

                                                    }
                                                  },
                                                  {
                                                    "id" : 264,
                                                    "_type" : "IMFile",
                                                    "src" : 5,
                                                    "trackNumber" : 0,
                                                    "trimStartSum" : 0,
                                                    "attributes" : {
                                                      "ident" : "wave1"
                                                    },
                                                    "parameters" : {
                                                      "translation0" : {
                                                        "type" : "double",
                                                        "defaultValue" : -2.11950146613311,
                                                        "interp" : "eioe"
                                                      },
                                                      "translation1" : {
                                                        "type" : "double",
                                                        "defaultValue" : 8.96940103546206,
                                                        "interp" : "eioe"
                                                      },
                                                      "scale0" : {
                                                        "type" : "double",
                                                        "defaultValue" : 1.02884111169424,
                                                        "interp" : "eioe"
                                                      },
                                                      "scale1" : {
                                                        "type" : "double",
                                                        "defaultValue" : 1.02884111169424,
                                                        "interp" : "eioe"
                                                      }
                                                    },
                                                    "effects" : [

                                                    ],
                                                    "start" : 38,
                                                    "duration" : 6,
                                                    "mediaStart" : 0,
                                                    "mediaDuration" : 6,
                                                    "scalar" : 1,
                                                    "metadata" : {
                                                      "clipSpeedAttribute" : false
                                                    },
                                                    "animationTracks" : {

                                                    }
                                                  },
                                                  {
                                                    "id" : 265,
                                                    "_type" : "IMFile",
                                                    "src" : 6,
                                                    "trackNumber" : 0,
                                                    "trimStartSum" : 0,
                                                    "attributes" : {
                                                      "ident" : "wave2"
                                                    },
                                                    "parameters" : {
                                                      "translation0" : {
                                                        "type" : "double",
                                                        "defaultValue" : 0.880498533167186,
                                                        "interp" : "eioe"
                                                      },
                                                      "translation1" : {
                                                        "type" : "double",
                                                        "defaultValue" : -88.087642172052,
                                                        "interp" : "eioe"
                                                      },
                                                      "scale0" : {
                                                        "type" : "double",
                                                        "defaultValue" : 1.03068101042332,
                                                        "interp" : "eioe"
                                                      },
                                                      "scale1" : {
                                                        "type" : "double",
                                                        "defaultValue" : 1.03068101042332,
                                                        "interp" : "eioe"
                                                      }
                                                    },
                                                    "effects" : [

                                                    ],
                                                    "start" : 44,
                                                    "duration" : 6,
                                                    "mediaStart" : 0,
                                                    "mediaDuration" : 6,
                                                    "scalar" : 1,
                                                    "metadata" : {
                                                      "clipSpeedAttribute" : false
                                                    },
                                                    "animationTracks" : {

                                                    }
                                                  },
                                                  {
                                                    "id" : 266,
                                                    "_type" : "IMFile",
                                                    "src" : 7,
                                                    "trackNumber" : 0,
                                                    "trimStartSum" : 0,
                                                    "attributes" : {
                                                      "ident" : "wave3"
                                                    },
                                                    "parameters" : {
                                                      "translation0" : {
                                                        "type" : "double",
                                                        "defaultValue" : -1.11950146655987,
                                                        "interp" : "eioe"
                                                      },
                                                      "translation1" : {
                                                        "type" : "double",
                                                        "defaultValue" : 8.12143442823202,
                                                        "interp" : "eioe"
                                                      },
                                                      "scale0" : {
                                                        "type" : "double",
                                                        "defaultValue" : 1.00893326326855,
                                                        "interp" : "eioe"
                                                      },
                                                      "scale1" : {
                                                        "type" : "double",
                                                        "defaultValue" : 1.00893326326855,
                                                        "interp" : "eioe"
                                                      }
                                                    },
                                                    "effects" : [

                                                    ],
                                                    "start" : 50,
                                                    "duration" : 7,
                                                    "mediaStart" : 0,
                                                    "mediaDuration" : 7,
                                                    "scalar" : 1,
                                                    "metadata" : {
                                                      "clipSpeedAttribute" : false
                                                    },
                                                    "animationTracks" : {

                                                    }
                                                  },
                                                  {
                                                    "id" : 267,
                                                    "_type" : "IMFile",
                                                    "src" : 5,
                                                    "trackNumber" : 0,
                                                    "trimStartSum" : 0,
                                                    "attributes" : {
                                                      "ident" : "wave1"
                                                    },
                                                    "parameters" : {
                                                      "translation0" : {
                                                        "type" : "double",
                                                        "defaultValue" : -2.11950146613311,
                                                        "interp" : "eioe"
                                                      },
                                                      "translation1" : {
                                                        "type" : "double",
                                                        "defaultValue" : 8.96940103546206,
                                                        "interp" : "eioe"
                                                      },
                                                      "scale0" : {
                                                        "type" : "double",
                                                        "defaultValue" : 1.02884111169424,
                                                        "interp" : "eioe"
                                                      },
                                                      "scale1" : {
                                                        "type" : "double",
                                                        "defaultValue" : 1.02884111169424,
                                                        "interp" : "eioe"
                                                      }
                                                    },
                                                    "effects" : [

                                                    ],
                                                    "start" : 57,
                                                    "duration" : 6,
                                                    "mediaStart" : 0,
                                                    "mediaDuration" : 6,
                                                    "scalar" : 1,
                                                    "metadata" : {
                                                      "clipSpeedAttribute" : false
                                                    },
                                                    "animationTracks" : {

                                                    }
                                                  },
                                                  {
                                                    "id" : 268,
                                                    "_type" : "IMFile",
                                                    "src" : 6,
                                                    "trackNumber" : 0,
                                                    "trimStartSum" : 0,
                                                    "attributes" : {
                                                      "ident" : "wave2"
                                                    },
                                                    "parameters" : {
                                                      "translation0" : {
                                                        "type" : "double",
                                                        "defaultValue" : 0.880498533167186,
                                                        "interp" : "eioe"
                                                      },
                                                      "translation1" : {
                                                        "type" : "double",
                                                        "defaultValue" : -88.087642172052,
                                                        "interp" : "eioe"
                                                      },
                                                      "scale0" : {
                                                        "type" : "double",
                                                        "defaultValue" : 1.03068101042332,
                                                        "interp" : "eioe"
                                                      },
                                                      "scale1" : {
                                                        "type" : "double",
                                                        "defaultValue" : 1.03068101042332,
                                                        "interp" : "eioe"
                                                      }
                                                    },
                                                    "effects" : [

                                                    ],
                                                    "start" : 63,
                                                    "duration" : 6,
                                                    "mediaStart" : 0,
                                                    "mediaDuration" : 6,
                                                    "scalar" : 1,
                                                    "metadata" : {
                                                      "clipSpeedAttribute" : false
                                                    },
                                                    "animationTracks" : {

                                                    }
                                                  },
                                                  {
                                                    "id" : 269,
                                                    "_type" : "IMFile",
                                                    "src" : 7,
                                                    "trackNumber" : 0,
                                                    "trimStartSum" : 0,
                                                    "attributes" : {
                                                      "ident" : "wave3"
                                                    },
                                                    "parameters" : {
                                                      "translation0" : {
                                                        "type" : "double",
                                                        "defaultValue" : -1.11950146655987,
                                                        "interp" : "eioe"
                                                      },
                                                      "translation1" : {
                                                        "type" : "double",
                                                        "defaultValue" : 8.12143442823202,
                                                        "interp" : "eioe"
                                                      },
                                                      "scale0" : {
                                                        "type" : "double",
                                                        "defaultValue" : 1.00893326326855,
                                                        "interp" : "eioe"
                                                      },
                                                      "scale1" : {
                                                        "type" : "double",
                                                        "defaultValue" : 1.00893326326855,
                                                        "interp" : "eioe"
                                                      }
                                                    },
                                                    "effects" : [

                                                    ],
                                                    "start" : 69,
                                                    "duration" : 7,
                                                    "mediaStart" : 0,
                                                    "mediaDuration" : 7,
                                                    "scalar" : 1,
                                                    "metadata" : {
                                                      "clipSpeedAttribute" : false
                                                    },
                                                    "animationTracks" : {

                                                    }
                                                  },
                                                  {
                                                    "id" : 270,
                                                    "_type" : "IMFile",
                                                    "src" : 5,
                                                    "trackNumber" : 0,
                                                    "trimStartSum" : 0,
                                                    "attributes" : {
                                                      "ident" : "wave1"
                                                    },
                                                    "parameters" : {
                                                      "translation0" : {
                                                        "type" : "double",
                                                        "defaultValue" : -2.11950146613311,
                                                        "interp" : "eioe"
                                                      },
                                                      "translation1" : {
                                                        "type" : "double",
                                                        "defaultValue" : 8.96940103546206,
                                                        "interp" : "eioe"
                                                      },
                                                      "scale0" : {
                                                        "type" : "double",
                                                        "defaultValue" : 1.02884111169424,
                                                        "interp" : "eioe"
                                                      },
                                                      "scale1" : {
                                                        "type" : "double",
                                                        "defaultValue" : 1.02884111169424,
                                                        "interp" : "eioe"
                                                      }
                                                    },
                                                    "effects" : [

                                                    ],
                                                    "start" : 76,
                                                    "duration" : 6,
                                                    "mediaStart" : 0,
                                                    "mediaDuration" : 6,
                                                    "scalar" : 1,
                                                    "metadata" : {
                                                      "clipSpeedAttribute" : false
                                                    },
                                                    "animationTracks" : {

                                                    }
                                                  },
                                                  {
                                                    "id" : 271,
                                                    "_type" : "IMFile",
                                                    "src" : 6,
                                                    "trackNumber" : 0,
                                                    "trimStartSum" : 0,
                                                    "attributes" : {
                                                      "ident" : "wave2"
                                                    },
                                                    "parameters" : {
                                                      "translation0" : {
                                                        "type" : "double",
                                                        "defaultValue" : 0.880498533167186,
                                                        "interp" : "eioe"
                                                      },
                                                      "translation1" : {
                                                        "type" : "double",
                                                        "defaultValue" : -88.087642172052,
                                                        "interp" : "eioe"
                                                      },
                                                      "scale0" : {
                                                        "type" : "double",
                                                        "defaultValue" : 1.03068101042332,
                                                        "interp" : "eioe"
                                                      },
                                                      "scale1" : {
                                                        "type" : "double",
                                                        "defaultValue" : 1.03068101042332,
                                                        "interp" : "eioe"
                                                      }
                                                    },
                                                    "effects" : [

                                                    ],
                                                    "start" : 82,
                                                    "duration" : 6,
                                                    "mediaStart" : 0,
                                                    "mediaDuration" : 6,
                                                    "scalar" : 1,
                                                    "metadata" : {
                                                      "clipSpeedAttribute" : false
                                                    },
                                                    "animationTracks" : {

                                                    }
                                                  },
                                                  {
                                                    "id" : 272,
                                                    "_type" : "IMFile",
                                                    "src" : 7,
                                                    "trackNumber" : 0,
                                                    "trimStartSum" : 0,
                                                    "attributes" : {
                                                      "ident" : "wave3"
                                                    },
                                                    "parameters" : {
                                                      "translation0" : {
                                                        "type" : "double",
                                                        "defaultValue" : -1.11950146655987,
                                                        "interp" : "eioe"
                                                      },
                                                      "translation1" : {
                                                        "type" : "double",
                                                        "defaultValue" : 8.12143442823202,
                                                        "interp" : "eioe"
                                                      },
                                                      "scale0" : {
                                                        "type" : "double",
                                                        "defaultValue" : 1.00893326326855,
                                                        "interp" : "eioe"
                                                      },
                                                      "scale1" : {
                                                        "type" : "double",
                                                        "defaultValue" : 1.00893326326855,
                                                        "interp" : "eioe"
                                                      }
                                                    },
                                                    "effects" : [

                                                    ],
                                                    "start" : 88,
                                                    "duration" : 7,
                                                    "mediaStart" : 0,
                                                    "mediaDuration" : 7,
                                                    "scalar" : 1,
                                                    "metadata" : {
                                                      "clipSpeedAttribute" : false
                                                    },
                                                    "animationTracks" : {

                                                    }
                                                  },
                                                  {
                                                    "id" : 273,
                                                    "_type" : "IMFile",
                                                    "src" : 5,
                                                    "trackNumber" : 0,
                                                    "trimStartSum" : 0,
                                                    "attributes" : {
                                                      "ident" : "wave1"
                                                    },
                                                    "parameters" : {
                                                      "translation0" : {
                                                        "type" : "double",
                                                        "defaultValue" : -2.11950146613311,
                                                        "interp" : "eioe"
                                                      },
                                                      "translation1" : {
                                                        "type" : "double",
                                                        "defaultValue" : 8.96940103546206,
                                                        "interp" : "eioe"
                                                      },
                                                      "scale0" : {
                                                        "type" : "double",
                                                        "defaultValue" : 1.02884111169424,
                                                        "interp" : "eioe"
                                                      },
                                                      "scale1" : {
                                                        "type" : "double",
                                                        "defaultValue" : 1.02884111169424,
                                                        "interp" : "eioe"
                                                      }
                                                    },
                                                    "effects" : [

                                                    ],
                                                    "start" : 95,
                                                    "duration" : 6,
                                                    "mediaStart" : 0,
                                                    "mediaDuration" : 6,
                                                    "scalar" : 1,
                                                    "metadata" : {
                                                      "clipSpeedAttribute" : false
                                                    },
                                                    "animationTracks" : {

                                                    }
                                                  },
                                                  {
                                                    "id" : 274,
                                                    "_type" : "IMFile",
                                                    "src" : 6,
                                                    "trackNumber" : 0,
                                                    "trimStartSum" : 0,
                                                    "attributes" : {
                                                      "ident" : "wave2"
                                                    },
                                                    "parameters" : {
                                                      "translation0" : {
                                                        "type" : "double",
                                                        "defaultValue" : 0.880498533167186,
                                                        "interp" : "eioe"
                                                      },
                                                      "translation1" : {
                                                        "type" : "double",
                                                        "defaultValue" : -88.087642172052,
                                                        "interp" : "eioe"
                                                      },
                                                      "scale0" : {
                                                        "type" : "double",
                                                        "defaultValue" : 1.03068101042332,
                                                        "interp" : "eioe"
                                                      },
                                                      "scale1" : {
                                                        "type" : "double",
                                                        "defaultValue" : 1.03068101042332,
                                                        "interp" : "eioe"
                                                      }
                                                    },
                                                    "effects" : [

                                                    ],
                                                    "start" : 101,
                                                    "duration" : 6,
                                                    "mediaStart" : 0,
                                                    "mediaDuration" : 6,
                                                    "scalar" : 1,
                                                    "metadata" : {
                                                      "clipSpeedAttribute" : false
                                                    },
                                                    "animationTracks" : {

                                                    }
                                                  },
                                                  {
                                                    "id" : 275,
                                                    "_type" : "IMFile",
                                                    "src" : 7,
                                                    "trackNumber" : 0,
                                                    "trimStartSum" : 0,
                                                    "attributes" : {
                                                      "ident" : "wave3"
                                                    },
                                                    "parameters" : {
                                                      "translation0" : {
                                                        "type" : "double",
                                                        "defaultValue" : -1.11950146655987,
                                                        "interp" : "eioe"
                                                      },
                                                      "translation1" : {
                                                        "type" : "double",
                                                        "defaultValue" : 8.12143442823202,
                                                        "interp" : "eioe"
                                                      },
                                                      "scale0" : {
                                                        "type" : "double",
                                                        "defaultValue" : 1.00893326326855,
                                                        "interp" : "eioe"
                                                      },
                                                      "scale1" : {
                                                        "type" : "double",
                                                        "defaultValue" : 1.00893326326855,
                                                        "interp" : "eioe"
                                                      }
                                                    },
                                                    "effects" : [

                                                    ],
                                                    "start" : 107,
                                                    "duration" : 7,
                                                    "mediaStart" : 0,
                                                    "mediaDuration" : 7,
                                                    "scalar" : 1,
                                                    "metadata" : {
                                                      "clipSpeedAttribute" : false
                                                    },
                                                    "animationTracks" : {

                                                    }
                                                  },
                                                  {
                                                    "id" : 276,
                                                    "_type" : "IMFile",
                                                    "src" : 5,
                                                    "trackNumber" : 0,
                                                    "trimStartSum" : 0,
                                                    "attributes" : {
                                                      "ident" : "wave1"
                                                    },
                                                    "parameters" : {
                                                      "translation0" : {
                                                        "type" : "double",
                                                        "defaultValue" : -2.11950146613311,
                                                        "interp" : "eioe"
                                                      },
                                                      "translation1" : {
                                                        "type" : "double",
                                                        "defaultValue" : 8.96940103546206,
                                                        "interp" : "eioe"
                                                      },
                                                      "scale0" : {
                                                        "type" : "double",
                                                        "defaultValue" : 1.02884111169424,
                                                        "interp" : "eioe"
                                                      },
                                                      "scale1" : {
                                                        "type" : "double",
                                                        "defaultValue" : 1.02884111169424,
                                                        "interp" : "eioe"
                                                      }
                                                    },
                                                    "effects" : [

                                                    ],
                                                    "start" : 114,
                                                    "duration" : 6,
                                                    "mediaStart" : 0,
                                                    "mediaDuration" : 6,
                                                    "scalar" : 1,
                                                    "metadata" : {
                                                      "clipSpeedAttribute" : false
                                                    },
                                                    "animationTracks" : {

                                                    }
                                                  },
                                                  {
                                                    "id" : 277,
                                                    "_type" : "IMFile",
                                                    "src" : 6,
                                                    "trackNumber" : 0,
                                                    "trimStartSum" : 0,
                                                    "attributes" : {
                                                      "ident" : "wave2"
                                                    },
                                                    "parameters" : {
                                                      "translation0" : {
                                                        "type" : "double",
                                                        "defaultValue" : 0.880498533167186,
                                                        "interp" : "eioe"
                                                      },
                                                      "translation1" : {
                                                        "type" : "double",
                                                        "defaultValue" : -88.087642172052,
                                                        "interp" : "eioe"
                                                      },
                                                      "scale0" : {
                                                        "type" : "double",
                                                        "defaultValue" : 1.03068101042332,
                                                        "interp" : "eioe"
                                                      },
                                                      "scale1" : {
                                                        "type" : "double",
                                                        "defaultValue" : 1.03068101042332,
                                                        "interp" : "eioe"
                                                      }
                                                    },
                                                    "effects" : [

                                                    ],
                                                    "start" : 120,
                                                    "duration" : 6,
                                                    "mediaStart" : 0,
                                                    "mediaDuration" : 6,
                                                    "scalar" : 1,
                                                    "metadata" : {
                                                      "clipSpeedAttribute" : false
                                                    },
                                                    "animationTracks" : {

                                                    }
                                                  },
                                                  {
                                                    "id" : 278,
                                                    "_type" : "IMFile",
                                                    "src" : 7,
                                                    "trackNumber" : 0,
                                                    "trimStartSum" : 0,
                                                    "attributes" : {
                                                      "ident" : "wave3"
                                                    },
                                                    "parameters" : {
                                                      "translation0" : {
                                                        "type" : "double",
                                                        "defaultValue" : -1.11950146655987,
                                                        "interp" : "eioe"
                                                      },
                                                      "translation1" : {
                                                        "type" : "double",
                                                        "defaultValue" : 8.12143442823202,
                                                        "interp" : "eioe"
                                                      },
                                                      "scale0" : {
                                                        "type" : "double",
                                                        "defaultValue" : 1.00893326326855,
                                                        "interp" : "eioe"
                                                      },
                                                      "scale1" : {
                                                        "type" : "double",
                                                        "defaultValue" : 1.00893326326855,
                                                        "interp" : "eioe"
                                                      }
                                                    },
                                                    "effects" : [

                                                    ],
                                                    "start" : 126,
                                                    "duration" : 7,
                                                    "mediaStart" : 0,
                                                    "mediaDuration" : 7,
                                                    "scalar" : 1,
                                                    "metadata" : {
                                                      "clipSpeedAttribute" : false
                                                    },
                                                    "animationTracks" : {

                                                    }
                                                  },
                                                  {
                                                    "id" : 279,
                                                    "_type" : "IMFile",
                                                    "src" : 5,
                                                    "trackNumber" : 0,
                                                    "trimStartSum" : 0,
                                                    "attributes" : {
                                                      "ident" : "wave1"
                                                    },
                                                    "parameters" : {
                                                      "translation0" : {
                                                        "type" : "double",
                                                        "defaultValue" : -2.11950146613311,
                                                        "interp" : "eioe"
                                                      },
                                                      "translation1" : {
                                                        "type" : "double",
                                                        "defaultValue" : 8.96940103546206,
                                                        "interp" : "eioe"
                                                      },
                                                      "scale0" : {
                                                        "type" : "double",
                                                        "defaultValue" : 1.02884111169424,
                                                        "interp" : "eioe"
                                                      },
                                                      "scale1" : {
                                                        "type" : "double",
                                                        "defaultValue" : 1.02884111169424,
                                                        "interp" : "eioe"
                                                      }
                                                    },
                                                    "effects" : [

                                                    ],
                                                    "start" : 133,
                                                    "duration" : 6,
                                                    "mediaStart" : 0,
                                                    "mediaDuration" : 6,
                                                    "scalar" : 1,
                                                    "metadata" : {
                                                      "clipSpeedAttribute" : false
                                                    },
                                                    "animationTracks" : {

                                                    }
                                                  },
                                                  {
                                                    "id" : 280,
                                                    "_type" : "IMFile",
                                                    "src" : 6,
                                                    "trackNumber" : 0,
                                                    "trimStartSum" : 0,
                                                    "attributes" : {
                                                      "ident" : "wave2"
                                                    },
                                                    "parameters" : {
                                                      "translation0" : {
                                                        "type" : "double",
                                                        "defaultValue" : 0.880498533167186,
                                                        "interp" : "eioe"
                                                      },
                                                      "translation1" : {
                                                        "type" : "double",
                                                        "defaultValue" : -88.087642172052,
                                                        "interp" : "eioe"
                                                      },
                                                      "scale0" : {
                                                        "type" : "double",
                                                        "defaultValue" : 1.03068101042332,
                                                        "interp" : "eioe"
                                                      },
                                                      "scale1" : {
                                                        "type" : "double",
                                                        "defaultValue" : 1.03068101042332,
                                                        "interp" : "eioe"
                                                      }
                                                    },
                                                    "effects" : [

                                                    ],
                                                    "start" : 139,
                                                    "duration" : 6,
                                                    "mediaStart" : 0,
                                                    "mediaDuration" : 6,
                                                    "scalar" : 1,
                                                    "metadata" : {
                                                      "clipSpeedAttribute" : false
                                                    },
                                                    "animationTracks" : {

                                                    }
                                                  },
                                                  {
                                                    "id" : 281,
                                                    "_type" : "IMFile",
                                                    "src" : 7,
                                                    "trackNumber" : 0,
                                                    "trimStartSum" : 0,
                                                    "attributes" : {
                                                      "ident" : "wave3"
                                                    },
                                                    "parameters" : {
                                                      "translation0" : {
                                                        "type" : "double",
                                                        "defaultValue" : -1.11950146655987,
                                                        "interp" : "eioe"
                                                      },
                                                      "translation1" : {
                                                        "type" : "double",
                                                        "defaultValue" : 8.12143442823202,
                                                        "interp" : "eioe"
                                                      },
                                                      "scale0" : {
                                                        "type" : "double",
                                                        "defaultValue" : 1.00893326326855,
                                                        "interp" : "eioe"
                                                      },
                                                      "scale1" : {
                                                        "type" : "double",
                                                        "defaultValue" : 1.00893326326855,
                                                        "interp" : "eioe"
                                                      }
                                                    },
                                                    "effects" : [

                                                    ],
                                                    "start" : 145,
                                                    "duration" : 7,
                                                    "mediaStart" : 0,
                                                    "mediaDuration" : 7,
                                                    "scalar" : 1,
                                                    "metadata" : {
                                                      "clipSpeedAttribute" : false
                                                    },
                                                    "animationTracks" : {

                                                    }
                                                  },
                                                  {
                                                    "id" : 282,
                                                    "_type" : "IMFile",
                                                    "src" : 5,
                                                    "trackNumber" : 0,
                                                    "trimStartSum" : 0,
                                                    "attributes" : {
                                                      "ident" : "wave1"
                                                    },
                                                    "parameters" : {
                                                      "translation0" : {
                                                        "type" : "double",
                                                        "defaultValue" : -2.11950146613311,
                                                        "interp" : "eioe"
                                                      },
                                                      "translation1" : {
                                                        "type" : "double",
                                                        "defaultValue" : 8.96940103546206,
                                                        "interp" : "eioe"
                                                      },
                                                      "scale0" : {
                                                        "type" : "double",
                                                        "defaultValue" : 1.02884111169424,
                                                        "interp" : "eioe"
                                                      },
                                                      "scale1" : {
                                                        "type" : "double",
                                                        "defaultValue" : 1.02884111169424,
                                                        "interp" : "eioe"
                                                      }
                                                    },
                                                    "effects" : [

                                                    ],
                                                    "start" : 152,
                                                    "duration" : 6,
                                                    "mediaStart" : 0,
                                                    "mediaDuration" : 6,
                                                    "scalar" : 1,
                                                    "metadata" : {
                                                      "clipSpeedAttribute" : false
                                                    },
                                                    "animationTracks" : {

                                                    }
                                                  },
                                                  {
                                                    "id" : 283,
                                                    "_type" : "IMFile",
                                                    "src" : 6,
                                                    "trackNumber" : 0,
                                                    "trimStartSum" : 0,
                                                    "attributes" : {
                                                      "ident" : "wave2"
                                                    },
                                                    "parameters" : {
                                                      "translation0" : {
                                                        "type" : "double",
                                                        "defaultValue" : 0.880498533167186,
                                                        "interp" : "eioe"
                                                      },
                                                      "translation1" : {
                                                        "type" : "double",
                                                        "defaultValue" : -88.087642172052,
                                                        "interp" : "eioe"
                                                      },
                                                      "scale0" : {
                                                        "type" : "double",
                                                        "defaultValue" : 1.03068101042332,
                                                        "interp" : "eioe"
                                                      },
                                                      "scale1" : {
                                                        "type" : "double",
                                                        "defaultValue" : 1.03068101042332,
                                                        "interp" : "eioe"
                                                      }
                                                    },
                                                    "effects" : [

                                                    ],
                                                    "start" : 158,
                                                    "duration" : 6,
                                                    "mediaStart" : 0,
                                                    "mediaDuration" : 6,
                                                    "scalar" : 1,
                                                    "metadata" : {
                                                      "clipSpeedAttribute" : false
                                                    },
                                                    "animationTracks" : {

                                                    }
                                                  },
                                                  {
                                                    "id" : 284,
                                                    "_type" : "IMFile",
                                                    "src" : 7,
                                                    "trackNumber" : 0,
                                                    "trimStartSum" : 0,
                                                    "attributes" : {
                                                      "ident" : "wave3"
                                                    },
                                                    "parameters" : {
                                                      "translation0" : {
                                                        "type" : "double",
                                                        "defaultValue" : -1.11950146655987,
                                                        "interp" : "eioe"
                                                      },
                                                      "translation1" : {
                                                        "type" : "double",
                                                        "defaultValue" : 8.12143442823202,
                                                        "interp" : "eioe"
                                                      },
                                                      "scale0" : {
                                                        "type" : "double",
                                                        "defaultValue" : 1.00893326326855,
                                                        "interp" : "eioe"
                                                      },
                                                      "scale1" : {
                                                        "type" : "double",
                                                        "defaultValue" : 1.00893326326855,
                                                        "interp" : "eioe"
                                                      }
                                                    },
                                                    "effects" : [

                                                    ],
                                                    "start" : 164,
                                                    "duration" : 7,
                                                    "mediaStart" : 0,
                                                    "mediaDuration" : 7,
                                                    "scalar" : 1,
                                                    "metadata" : {
                                                      "clipSpeedAttribute" : false
                                                    },
                                                    "animationTracks" : {

                                                    }
                                                  },
                                                  {
                                                    "id" : 285,
                                                    "_type" : "IMFile",
                                                    "src" : 5,
                                                    "trackNumber" : 0,
                                                    "trimStartSum" : 0,
                                                    "attributes" : {
                                                      "ident" : "wave1"
                                                    },
                                                    "parameters" : {
                                                      "translation0" : {
                                                        "type" : "double",
                                                        "defaultValue" : -2.11950146613311,
                                                        "interp" : "eioe"
                                                      },
                                                      "translation1" : {
                                                        "type" : "double",
                                                        "defaultValue" : 8.96940103546206,
                                                        "interp" : "eioe"
                                                      },
                                                      "scale0" : {
                                                        "type" : "double",
                                                        "defaultValue" : 1.02884111169424,
                                                        "interp" : "eioe"
                                                      },
                                                      "scale1" : {
                                                        "type" : "double",
                                                        "defaultValue" : 1.02884111169424,
                                                        "interp" : "eioe"
                                                      }
                                                    },
                                                    "effects" : [

                                                    ],
                                                    "start" : 171,
                                                    "duration" : 6,
                                                    "mediaStart" : 0,
                                                    "mediaDuration" : 6,
                                                    "scalar" : 1,
                                                    "metadata" : {
                                                      "clipSpeedAttribute" : false
                                                    },
                                                    "animationTracks" : {

                                                    }
                                                  },
                                                  {
                                                    "id" : 286,
                                                    "_type" : "IMFile",
                                                    "src" : 6,
                                                    "trackNumber" : 0,
                                                    "trimStartSum" : 0,
                                                    "attributes" : {
                                                      "ident" : "wave2"
                                                    },
                                                    "parameters" : {
                                                      "translation0" : {
                                                        "type" : "double",
                                                        "defaultValue" : 0.880498533167186,
                                                        "interp" : "eioe"
                                                      },
                                                      "translation1" : {
                                                        "type" : "double",
                                                        "defaultValue" : -88.087642172052,
                                                        "interp" : "eioe"
                                                      },
                                                      "scale0" : {
                                                        "type" : "double",
                                                        "defaultValue" : 1.03068101042332,
                                                        "interp" : "eioe"
                                                      },
                                                      "scale1" : {
                                                        "type" : "double",
                                                        "defaultValue" : 1.03068101042332,
                                                        "interp" : "eioe"
                                                      }
                                                    },
                                                    "effects" : [

                                                    ],
                                                    "start" : 177,
                                                    "duration" : 6,
                                                    "mediaStart" : 0,
                                                    "mediaDuration" : 6,
                                                    "scalar" : 1,
                                                    "metadata" : {
                                                      "clipSpeedAttribute" : false
                                                    },
                                                    "animationTracks" : {

                                                    }
                                                  },
                                                  {
                                                    "id" : 287,
                                                    "_type" : "IMFile",
                                                    "src" : 7,
                                                    "trackNumber" : 0,
                                                    "trimStartSum" : 0,
                                                    "attributes" : {
                                                      "ident" : "wave3"
                                                    },
                                                    "parameters" : {
                                                      "translation0" : {
                                                        "type" : "double",
                                                        "defaultValue" : -1.11950146655987,
                                                        "interp" : "eioe"
                                                      },
                                                      "translation1" : {
                                                        "type" : "double",
                                                        "defaultValue" : 8.12143442823202,
                                                        "interp" : "eioe"
                                                      },
                                                      "scale0" : {
                                                        "type" : "double",
                                                        "defaultValue" : 1.00893326326855,
                                                        "interp" : "eioe"
                                                      },
                                                      "scale1" : {
                                                        "type" : "double",
                                                        "defaultValue" : 1.00893326326855,
                                                        "interp" : "eioe"
                                                      }
                                                    },
                                                    "effects" : [

                                                    ],
                                                    "start" : 183,
                                                    "duration" : 7,
                                                    "mediaStart" : 0,
                                                    "mediaDuration" : 7,
                                                    "scalar" : 1,
                                                    "metadata" : {
                                                      "clipSpeedAttribute" : false
                                                    },
                                                    "animationTracks" : {

                                                    }
                                                  },
                                                  {
                                                    "id" : 288,
                                                    "_type" : "IMFile",
                                                    "src" : 5,
                                                    "trackNumber" : 0,
                                                    "trimStartSum" : 0,
                                                    "attributes" : {
                                                      "ident" : "wave1"
                                                    },
                                                    "parameters" : {
                                                      "translation0" : {
                                                        "type" : "double",
                                                        "defaultValue" : -2.11950146613311,
                                                        "interp" : "eioe"
                                                      },
                                                      "translation1" : {
                                                        "type" : "double",
                                                        "defaultValue" : 8.96940103546206,
                                                        "interp" : "eioe"
                                                      },
                                                      "scale0" : {
                                                        "type" : "double",
                                                        "defaultValue" : 1.02884111169424,
                                                        "interp" : "eioe"
                                                      },
                                                      "scale1" : {
                                                        "type" : "double",
                                                        "defaultValue" : 1.02884111169424,
                                                        "interp" : "eioe"
                                                      }
                                                    },
                                                    "effects" : [

                                                    ],
                                                    "start" : 190,
                                                    "duration" : 6,
                                                    "mediaStart" : 0,
                                                    "mediaDuration" : 6,
                                                    "scalar" : 1,
                                                    "metadata" : {
                                                      "clipSpeedAttribute" : false
                                                    },
                                                    "animationTracks" : {

                                                    }
                                                  },
                                                  {
                                                    "id" : 289,
                                                    "_type" : "IMFile",
                                                    "src" : 6,
                                                    "trackNumber" : 0,
                                                    "trimStartSum" : 0,
                                                    "attributes" : {
                                                      "ident" : "wave2"
                                                    },
                                                    "parameters" : {
                                                      "translation0" : {
                                                        "type" : "double",
                                                        "defaultValue" : 0.880498533167186,
                                                        "interp" : "eioe"
                                                      },
                                                      "translation1" : {
                                                        "type" : "double",
                                                        "defaultValue" : -88.087642172052,
                                                        "interp" : "eioe"
                                                      },
                                                      "scale0" : {
                                                        "type" : "double",
                                                        "defaultValue" : 1.03068101042332,
                                                        "interp" : "eioe"
                                                      },
                                                      "scale1" : {
                                                        "type" : "double",
                                                        "defaultValue" : 1.03068101042332,
                                                        "interp" : "eioe"
                                                      }
                                                    },
                                                    "effects" : [

                                                    ],
                                                    "start" : 196,
                                                    "duration" : 4,
                                                    "mediaStart" : 0,
                                                    "mediaDuration" : 4,
                                                    "scalar" : 1,
                                                    "metadata" : {
                                                      "clipSpeedAttribute" : false
                                                    },
                                                    "animationTracks" : {

                                                    }
                                                  }
                                                ],
                                                  "ident" : "",
                                                  "audioMuted" : false,
                                                  "videoHidden" : false,
                                                  "magnetic" : false,
                                                  "matte" : 0,
                                                  "metadata" : {
                                                    "IsLocked" : "False",
                                                    "WinTrackHeight" : "0"
                                                  }
                                              },
                                              {
                                                "trackIndex" : 1,
                                                "medias" : [
                                                  {
                                                    "id" : 290,
                                                    "_type" : "IMFile",
                                                    "src" : 8,
                                                    "trackNumber" : 0,
                                                    "trimStartSum" : 0,
                                                    "attributes" : {
                                                      "ident" : "control-plane-128"
                                                    },
                                                    "parameters" : {
                                                      "translation0" : {
                                                        "type" : "double",
                                                        "defaultValue" : -785.119501466663,
                                                        "interp" : "eioe"
                                                      },
                                                      "translation1" : {
                                                        "type" : "double",
                                                        "defaultValue" : 199.818754449228,
                                                        "interp" : "eioe"
                                                      }
                                                    },
                                                    "effects" : [

                                                    ],
                                                    "start" : 0,
                                                    "duration" : 19,
                                                    "mediaStart" : 0,
                                                    "mediaDuration" : 19,
                                                    "scalar" : 1,
                                                    "metadata" : {
                                                      "clipSpeedAttribute" : false
                                                    },
                                                    "animationTracks" : {

                                                    }
                                                  },
                                                  {
                                                    "id" : 291,
                                                    "_type" : "IMFile",
                                                    "src" : 9,
                                                    "trackNumber" : 0,
                                                    "trimStartSum" : 0,
                                                    "attributes" : {
                                                      "ident" : "etcd-128"
                                                    },
                                                    "parameters" : {
                                                      "translation0" : {
                                                        "type" : "double",
                                                        "defaultValue" : -655.119501466745,
                                                        "interp" : "eioe"
                                                      },
                                                      "translation1" : {
                                                        "type" : "double",
                                                        "defaultValue" : 120.373795393553,
                                                        "interp" : "eioe"
                                                      }
                                                    },
                                                    "effects" : [

                                                    ],
                                                    "start" : 19,
                                                    "duration" : 22,
                                                    "mediaStart" : 0,
                                                    "mediaDuration" : 22,
                                                    "scalar" : 1,
                                                    "metadata" : {
                                                      "clipSpeedAttribute" : false
                                                    },
                                                    "animationTracks" : {

                                                    }
                                                  },
                                                  {
                                                    "id" : 292,
                                                    "_type" : "IMFile",
                                                    "src" : 10,
                                                    "trackNumber" : 0,
                                                    "trimStartSum" : 0,
                                                    "attributes" : {
                                                      "ident" : "node-128"
                                                    },
                                                    "parameters" : {
                                                      "translation0" : {
                                                        "type" : "double",
                                                        "defaultValue" : -315.119501466444,
                                                        "interp" : "eioe"
                                                      },
                                                      "translation1" : {
                                                        "type" : "double",
                                                        "defaultValue" : 135.818754449343,
                                                        "interp" : "eioe"
                                                      }
                                                    },
                                                    "effects" : [

                                                    ],
                                                    "start" : 41,
                                                    "duration" : 18,
                                                    "mediaStart" : 0,
                                                    "mediaDuration" : 18,
                                                    "scalar" : 1,
                                                    "metadata" : {
                                                      "clipSpeedAttribute" : false
                                                    },
                                                    "animationTracks" : {

                                                    }
                                                  },
                                                  {
                                                    "id" : 293,
                                                    "_type" : "IMFile",
                                                    "src" : 11,
                                                    "trackNumber" : 0,
                                                    "trimStartSum" : 0,
                                                    "attributes" : {
                                                      "ident" : "ns-128"
                                                    },
                                                    "parameters" : {
                                                      "translation0" : {
                                                        "type" : "double",
                                                        "defaultValue" : -345.11950146672,
                                                        "interp" : "eioe"
                                                      },
                                                      "translation1" : {
                                                        "type" : "double",
                                                        "defaultValue" : 158.121434428201,
                                                        "interp" : "eioe"
                                                      }
                                                    },
                                                    "effects" : [

                                                    ],
                                                    "start" : 59,
                                                    "duration" : 23,
                                                    "mediaStart" : 0,
                                                    "mediaDuration" : 23,
                                                    "scalar" : 1,
                                                    "metadata" : {
                                                      "clipSpeedAttribute" : false
                                                    },
                                                    "animationTracks" : {

                                                    }
                                                  },
                                                  {
                                                    "id" : 294,
                                                    "_type" : "IMFile",
                                                    "src" : 12,
                                                    "trackNumber" : 0,
                                                    "trimStartSum" : 0,
                                                    "attributes" : {
                                                      "ident" : "pod-128"
                                                    },
                                                    "parameters" : {
                                                      "translation0" : {
                                                        "type" : "double",
                                                        "defaultValue" : -91.1195014666742,
                                                        "interp" : "eioe"
                                                      },
                                                      "translation1" : {
                                                        "type" : "double",
                                                        "defaultValue" : 100.121434428219,
                                                        "interp" : "eioe"
                                                      }
                                                    },
                                                    "effects" : [

                                                    ],
                                                    "start" : 82,
                                                    "duration" : 16,
                                                    "mediaStart" : 0,
                                                    "mediaDuration" : 16,
                                                    "scalar" : 1,
                                                    "metadata" : {
                                                      "clipSpeedAttribute" : false
                                                    },
                                                    "animationTracks" : {

                                                    }
                                                  },
                                                  {
                                                    "id" : 295,
                                                    "_type" : "IMFile",
                                                    "src" : 13,
                                                    "trackNumber" : 0,
                                                    "trimStartSum" : 0,
                                                    "attributes" : {
                                                      "ident" : "secret-128"
                                                    },
                                                    "parameters" : {
                                                      "translation0" : {
                                                        "type" : "double",
                                                        "defaultValue" : -1.11950146666447,
                                                        "interp" : "eioe"
                                                      },
                                                      "translation1" : {
                                                        "type" : "double",
                                                        "defaultValue" : 140.121434428194,
                                                        "interp" : "eioe"
                                                      }
                                                    },
                                                    "effects" : [

                                                    ],
                                                    "start" : 98,
                                                    "duration" : 17,
                                                    "mediaStart" : 0,
                                                    "mediaDuration" : 17,
                                                    "scalar" : 1,
                                                    "metadata" : {
                                                      "clipSpeedAttribute" : false
                                                    },
                                                    "animationTracks" : {

                                                    }
                                                  },
                                                  {
                                                    "id" : 296,
                                                    "_type" : "IMFile",
                                                    "src" : 14,
                                                    "trackNumber" : 0,
                                                    "trimStartSum" : 0,
                                                    "attributes" : {
                                                      "ident" : "svc-128"
                                                    },
                                                    "parameters" : {
                                                      "translation0" : {
                                                        "type" : "double",
                                                        "defaultValue" : 258.880498533338,
                                                        "interp" : "eioe"
                                                      },
                                                      "translation1" : {
                                                        "type" : "double",
                                                        "defaultValue" : 112.121434428216,
                                                        "interp" : "eioe"
                                                      }
                                                    },
                                                    "effects" : [

                                                    ],
                                                    "start" : 115,
                                                    "duration" : 14,
                                                    "mediaStart" : 0,
                                                    "mediaDuration" : 14,
                                                    "scalar" : 1,
                                                    "metadata" : {
                                                      "clipSpeedAttribute" : false
                                                    },
                                                    "animationTracks" : {

                                                    }
                                                  },
                                                  {
                                                    "id" : 297,
                                                    "_type" : "IMFile",
                                                    "src" : 14,
                                                    "trackNumber" : 0,
                                                    "trimStartSum" : 0,
                                                    "attributes" : {
                                                      "ident" : "svc-128"
                                                    },
                                                    "parameters" : {
                                                      "translation0" : {
                                                        "type" : "double",
                                                        "defaultValue" : 346.880498533407,
                                                        "interp" : "eioe"
                                                      },
                                                      "translation1" : {
                                                        "type" : "double",
                                                        "defaultValue" : 120.121434428205,
                                                        "interp" : "eioe"
                                                      }
                                                    },
                                                    "effects" : [

                                                    ],
                                                    "start" : 129,
                                                    "duration" : 14,
                                                    "mediaStart" : 0,
                                                    "mediaDuration" : 14,
                                                    "scalar" : 1,
                                                    "metadata" : {
                                                      "clipSpeedAttribute" : false
                                                    },
                                                    "animationTracks" : {

                                                    }
                                                  },
                                                  {
                                                    "id" : 298,
                                                    "_type" : "IMFile",
                                                    "src" : 15,
                                                    "trackNumber" : 0,
                                                    "trimStartSum" : 0,
                                                    "attributes" : {
                                                      "ident" : "rs-128"
                                                    },
                                                    "parameters" : {
                                                      "translation0" : {
                                                        "type" : "double",
                                                        "defaultValue" : 480.880498533387,
                                                        "interp" : "eioe"
                                                      },
                                                      "translation1" : {
                                                        "type" : "double",
                                                        "defaultValue" : 158.1214344282,
                                                        "interp" : "eioe"
                                                      }
                                                    },
                                                    "effects" : [

                                                    ],
                                                    "start" : 143,
                                                    "duration" : 13,
                                                    "mediaStart" : 0,
                                                    "mediaDuration" : 13,
                                                    "scalar" : 1,
                                                    "metadata" : {
                                                      "clipSpeedAttribute" : false
                                                    },
                                                    "animationTracks" : {

                                                    }
                                                  },
                                                  {
                                                    "id" : 299,
                                                    "_type" : "IMFile",
                                                    "src" : 16,
                                                    "trackNumber" : 0,
                                                    "trimStartSum" : 0,
                                                    "attributes" : {
                                                      "ident" : "vol-128"
                                                    },
                                                    "parameters" : {
                                                      "translation0" : {
                                                        "type" : "double",
                                                        "defaultValue" : 560.880498533409,
                                                        "interp" : "eioe"
                                                      },
                                                      "translation1" : {
                                                        "type" : "double",
                                                        "defaultValue" : 136.121434428193,
                                                        "interp" : "eioe"
                                                      }
                                                    },
                                                    "effects" : [

                                                    ],
                                                    "start" : 156,
                                                    "duration" : 14,
                                                    "mediaStart" : 0,
                                                    "mediaDuration" : 14,
                                                    "scalar" : 1,
                                                    "metadata" : {
                                                      "clipSpeedAttribute" : false
                                                    },
                                                    "animationTracks" : {

                                                    }
                                                  },
                                                  {
                                                    "id" : 300,
                                                    "_type" : "IMFile",
                                                    "src" : 17,
                                                    "trackNumber" : 0,
                                                    "trimStartSum" : 0,
                                                    "attributes" : {
                                                      "ident" : "deploy-128"
                                                    },
                                                    "parameters" : {
                                                      "translation0" : {
                                                        "type" : "double",
                                                        "defaultValue" : 716.880498533367,
                                                        "interp" : "eioe"
                                                      },
                                                      "translation1" : {
                                                        "type" : "double",
                                                        "defaultValue" : 84.1214344281821,
                                                        "interp" : "eioe"
                                                      }
                                                    },
                                                    "effects" : [

                                                    ],
                                                    "start" : 170,
                                                    "duration" : 13,
                                                    "mediaStart" : 0,
                                                    "mediaDuration" : 13,
                                                    "scalar" : 1,
                                                    "metadata" : {
                                                      "clipSpeedAttribute" : false
                                                    },
                                                    "animationTracks" : {

                                                    }
                                                  },
                                                  {
                                                    "id" : 301,
                                                    "_type" : "IMFile",
                                                    "src" : 18,
                                                    "trackNumber" : 0,
                                                    "trimStartSum" : 0,
                                                    "attributes" : {
                                                      "ident" : "cronjob-128"
                                                    },
                                                    "parameters" : {
                                                      "translation0" : {
                                                        "type" : "double",
                                                        "defaultValue" : 870.880498533812,
                                                        "interp" : "eioe"
                                                      },
                                                      "translation1" : {
                                                        "type" : "double",
                                                        "defaultValue" : 135.81875444932,
                                                        "interp" : "eioe"
                                                      }
                                                    },
                                                    "effects" : [

                                                    ],
                                                    "start" : 183,
                                                    "duration" : 17,
                                                    "mediaStart" : 0,
                                                    "mediaDuration" : 17,
                                                    "scalar" : 1,
                                                    "metadata" : {
                                                      "clipSpeedAttribute" : false
                                                    },
                                                    "animationTracks" : {

                                                    }
                                                  }
                                                ],
                                                  "ident" : "",
                                                  "audioMuted" : false,
                                                  "videoHidden" : false,
                                                  "magnetic" : false,
                                                  "matte" : 0,
                                                  "metadata" : {
                                                    "IsLocked" : "False",
                                                    "WinTrackHeight" : "3.6077993365582e-314"
                                                  }
                                              }
                                            ],
                                            "attributes" : {
                                              "ident" : "Group 1",
                                              "gain" : 1.0,
                                              "mixToMono" : false
                                            },
                                            "effects" : [

                                            ],
                                            "start" : 0,
                                            "duration" : 200,
                                            "mediaStart" : 0.0,
                                            "mediaDuration" : 200.0,
                                            "scalar" : 1,
                                            "metadata" : {
                                              "IsGroupExpanded" : "False"
                                            },
                                            "animationTracks" : {

                                            }
                                          }
                                        ],
                                          "ident" : "",
                                          "audioMuted" : false,
                                          "videoHidden" : false,
                                          "magnetic" : false,
                                          "matte" : 0,
                                          "metadata" : {
                                            "IsLocked" : "False",
                                            "WinTrackHeight" : "0"
                                          }
                                      },
                                      {
                                        "trackIndex" : 1,
                                        "medias" : [
                                          {
                                            "id" : 302,
                                            "_type" : "IMFile",
                                            "src" : 19,
                                            "trackNumber" : 0,
                                            "trimStartSum" : 0,
                                            "attributes" : {
                                              "ident" : "k8sfavicon"
                                            },
                                            "parameters" : {
                                              "translation0" : {
                                                "type" : "double",
                                                "defaultValue" : -822.559750733209,
                                                "interp" : "eioe"
                                              },
                                              "translation1" : {
                                                "type" : "double",
                                                "defaultValue" : 466.970094438544,
                                                "interp" : "eioe"
                                              },
                                              "scale0" : {
                                                "type" : "double",
                                                "defaultValue" : 0.335937500000757,
                                                "interp" : "eioe"
                                              },
                                              "scale1" : {
                                                "type" : "double",
                                                "defaultValue" : 0.335937500000757,
                                                "interp" : "eioe"
                                              }
                                            },
                                            "effects" : [

                                            ],
                                            "start" : 0,
                                            "duration" : 200,
                                            "mediaStart" : 0,
                                            "mediaDuration" : 200,
                                            "scalar" : 1,
                                            "metadata" : {
                                              "clipSpeedAttribute" : false
                                            },
                                            "animationTracks" : {

                                            }
                                          }
                                        ],
                                          "ident" : "",
                                          "audioMuted" : false,
                                          "videoHidden" : false,
                                          "magnetic" : false,
                                          "matte" : 0,
                                          "metadata" : {
                                            "IsLocked" : "False",
                                            "WinTrackHeight" : "3.6077993365582e-314"
                                          }
                                      }
                                    ],
                                    "attributes" : {
                                      "ident" : "Group 2",
                                      "gain" : 1.0,
                                      "mixToMono" : false
                                    },
                                    "effects" : [

                                    ],
                                    "start" : 0,
                                    "duration" : 200,
                                    "mediaStart" : 0.0,
                                    "mediaDuration" : 200.0,
                                    "scalar" : 1,
                                    "metadata" : {
                                      "IsGroupExpanded" : "False"
                                    },
                                    "animationTracks" : {

                                    }
                                  }
                                ],
                                  "ident" : "",
                                  "audioMuted" : false,
                                  "videoHidden" : false,
                                  "magnetic" : false,
                                  "matte" : 0,
                                  "metadata" : {
                                    "IsLocked" : "False",
                                    "WinTrackHeight" : "0"
                                  }
                              },
                              {
                                "trackIndex" : 1,
                                "medias" : [
                                  {
                                    "id" : 303,
                                    "_type" : "AMFile",
                                    "src" : 20,
                                    "trackNumber" : 0,
                                    "attributes" : {
                                      "ident" : "wave",
                                      "gain" : 1.0,
                                      "mixToMono" : false
                                    },
                                      "channelNumber" : "0,1",
                                    "parameters" : {
                                      "volume" : {
                                        "type" : "double",
                                        "keyframes" : [
                                          {
                                            "endTime" : -1,
                                            "time" : -1,
                                            "value" : 1.0,
                                            "duration" : 0
                                          },
                                          {
                                            "endTime" : 0,
                                            "time" : 0,
                                            "value" : 0.0,
                                            "duration" : 0
                                          },
                                          {
                                            "endTime" : 51,
                                            "time" : 51,
                                            "value" : 0.5,
                                            "duration" : 0
                                          }
                                        ]
                                      }
                                    },
                                    "effects" : [

                                    ],
                                    "start" : 0,
                                    "duration" : 103,
                                    "mediaStart" : 0,
                                    "mediaDuration" : 103,
                                    "scalar" : 1,
                                    "metadata" : {
                                      "clipSpeedAttribute" : false
                                    },
                                    "animationTracks" : {

                                    }
                                  },
                                  {
                                    "id" : 304,
                                    "_type" : "AMFile",
                                    "src" : 20,
                                    "trackNumber" : 0,
                                    "attributes" : {
                                      "ident" : "wave",
                                      "gain" : 1.0,
                                      "mixToMono" : false
                                    },
                                      "channelNumber" : "0,1",
                                    "parameters" : {
                                      "volume" : {
                                        "type" : "double",
                                        "keyframes" : [
                                          {
                                            "endTime" : 0,
                                            "time" : 0,
                                            "value" : 0.823930776854464,
                                            "duration" : 0
                                          },
                                          {
                                            "endTime" : 115,
                                            "time" : 115,
                                            "value" : 0.400853853777541,
                                            "duration" : 0
                                          },
                                          {
                                            "endTime" : 200,
                                            "time" : 200,
                                            "value" : 0.0,
                                            "duration" : 0
                                          },
                                          {
                                            "endTime" : 201,
                                            "time" : 201,
                                            "value" : 1.0,
                                            "duration" : 0
                                          }
                                        ]
                                      }
                                    },
                                    "effects" : [

                                    ],
                                    "start" : 103,
                                    "duration" : 97,
                                    "mediaStart" : 103,
                                    "mediaDuration" : 97,
                                    "scalar" : 1,
                                    "metadata" : {
                                      "clipSpeedAttribute" : false
                                    },
                                    "animationTracks" : {

                                    }
                                  }
                                ],
                                  "ident" : "",
                                  "audioMuted" : false,
                                  "videoHidden" : false,
                                  "magnetic" : false,
                                  "matte" : 0,
                                  "metadata" : {
                                    "IsLocked" : "False",
                                    "WinTrackHeight" : "2.26715762571713e-312"
                                  }
                              }
                            ],
                            "attributes" : {
                              "ident" : "Group 1",
                              "gain" : 1.0,
                              "mixToMono" : false
                            },
                            "effects" : [

                            ],
                            "start" : 0,
                            "duration" : 200,
                            "mediaStart" : 0.0,
                            "mediaDuration" : 200.0,
                            "scalar" : 1,
                            "metadata" : {
                              "IsGroupExpanded" : "False"
                            },
                            "animationTracks" : {

                            }
                          }
                        ],
                          "ident" : "",
                          "audioMuted" : false,
                          "videoHidden" : false,
                          "magnetic" : false,
                          "matte" : 0,
                          "metadata" : {
                            "IsLocked" : "False",
                            "WinTrackHeight" : "1.21506007083132e-312"
                          }
                      }
                    ],
                    "attributes" : {
                      "ident" : "start",
                      "gain" : 1.0,
                      "mixToMono" : false
                    },
                    "effects" : [

                    ],
                    "start" : 0,
                    "duration" : 200,
                    "mediaStart" : 0.0,
                    "mediaDuration" : 200.0,
                    "scalar" : 1,
                    "metadata" : {
                      "IsGroupExpanded" : "False"
                    },
                    "animationTracks" : {

                    }
                  },
                  {
                    "id" : 305,
                    "_type" : "Group",
                    "parameters" : {
                      "volume" : 1.0
                    },
                    "tracks" : [
                      {
                        "trackIndex" : 0,
                        "medias" : [
                          {
                            "id" : 306,
                            "_type" : "Callout",
                            "def" : {
                              "kind" : "remix",
                              "shape" : "text",
                              "style" : "basic",
                              "height" : {
                                "type" : "double",
                                "defaultValue" : 294.0,
                                "interp" : "linr"
                              },
                              "line-spacing" : {
                                "type" : "double",
                                "defaultValue" : 0.0,
                                "interp" : "linr"
                              },
                              "width" : {
                                "type" : "double",
                                "defaultValue" : 1174.38904109587,
                                "interp" : "linr"
                              },
                              "word-wrap" : {
                                "type" : "double",
                                "defaultValue" : 1.0,
                                "interp" : "linr"
                              },
                              "horizontal-alignment" : "center",
                              "resize-behavior" : "resizeText",
                              "text" : "Thanks",
                              "vertical-alignment" : "center",
                              "font" : {
                                "color-blue" : {
                                  "type" : "double",
                                  "defaultValue" : 1.0,
                                  "interp" : "linr"
                                },
                                "color-green" : {
                                  "type" : "double",
                                  "defaultValue" : 1.0,
                                  "interp" : "linr"
                                },
                                "color-red" : {
                                  "type" : "double",
                                  "defaultValue" : 1.0,
                                  "interp" : "linr"
                                },
                                "size" : {
                                  "type" : "double",
                                  "defaultValue" : 96.0,
                                  "interp" : "linr"
                                },
                                "tracking" : {
                                  "type" : "double",
                                  "defaultValue" : 0.0,
                                  "interp" : "linr"
                                },
                                "name" : "Montserrat",
                                "weight" : "Regular"
                              },
                              "textAttributes" : {
                                "type" : "textAttributeList",
                                "keyframes" : [
                                  {
                                    "endTime" : 0,
                                    "time" : 0,
                                    "value" : [{"name":"fontWeight","rangeEnd":6,"rangeStart":0,"value":700,"valueType":"int"},{"name":"fontName","rangeEnd":6,"rangeStart":0,"value":"Montserrat","valueType":"string"},{"name":"fontItalic","rangeEnd":6,"rangeStart":0,"value":0,"valueType":"int"},{"name":"kerning","rangeEnd":6,"rangeStart":0,"value":0,"valueType":"double"},{"name":"strikethrough","rangeEnd":6,"rangeStart":0,"value":0,"valueType":"int"},{"name":"fgColor","rangeEnd":6,"rangeStart":0,"value":"(50,108,229,255)","valueType":"color"},{"name":"underline","rangeEnd":6,"rangeStart":0,"value":0,"valueType":"int"},{"name":"fontSize","rangeEnd":6,"rangeStart":0,"value":240,"valueType":"double"}],
                                    "duration" : 0
                                  }
                                ]
                              }
                            },
                            "attributes" : {
                              "autoRotateText" : true
                            },
                            "parameters" : {
                              "translation0" : {
                                "type" : "double",
                                "defaultValue" : -22.4178082191042,
                                "interp" : "eioe"
                              },
                              "translation1" : {
                                "type" : "double",
                                "defaultValue" : 1.319122588261e-11,
                                "interp" : "eioe"
                              }
                            },
                            "effects" : [
                                {
                                  "_type" : "GenericBehaviorEffect",
                                  "effectName" : "pulsating",
                                  "start" : -102,
                                  "duration" : 200                                ,
                                  "in" : {
                                    "attributes" : {
                                      "name" : "grow",
                                      "type" : 1,
                                      "characterOrder" : 6,
                                      "offsetBetweenCharacters" : 1,
                                      "suggestedDurationPerCharacter" : 18,
                                      "overlapProportion" : "3/4",
                                      "movement" : 30,
                                      "springDamping" : 5.0,
                                      "springStiffness" : 50.0,
                                      "bounceBounciness" : 0.45
                                    }
                                  
                                  },
                                  "center" : {
                                    "attributes" : {
                                      "name" : "pulsate",
                                      "type" : 1,
                                      "characterOrder" : 6,
                                      "offsetBetweenCharacters" : "21/10",
                                      "secondsPerLoop" : 1,
                                      "numberOfLoops" : -1,
                                      "delayBetweenLoops" : 0,
                                      "offsetBetweenCharacters" : "21/10"
                                    },
                                    "parameters" : {
                                      "movement" : {
                                        "type" : "int",
                                        "valueBounds" : {
                                          "minValue" : 0,
                                          "maxValue" : 31,
                                          "defaultValue" : 27
                                        },
                                        "uiHints" : {
                                          "userInterfaceType" : 4,
                                          "unitType" : 0
                                        },
                                        "keyframes" : [
                                          {
                                            "endTime" : 0,
                                            "time" : 0,
                                            "value" : 27,
                                            "duration" : 0
                                          }
                                        ]
                                      },
                                      "scale" : {
                                        "type" : "double",
                                        "defaultValue" : 1.08,
                                        "interp" : "linr",
                                        "valueBounds" : {
                                          "minValue" : 0.01,
                                          "maxValue" : 2.0,
                                          "defaultValue" : 1.08
                                        },
                                        "uiHints" : {
                                          "userInterfaceType" : 1,
                                          "unitType" : 1
                                        }
                                      }
                                    }
                                  
                                  },
                                  "out" : {
                                    "attributes" : {
                                      "name" : "shrink",
                                      "type" : 1,
                                      "characterOrder" : 6,
                                      "offsetBetweenCharacters" : 1,
                                      "suggestedDurationPerCharacter" : "29/2",
                                      "overlapProportion" : "1/10",
                                      "movement" : 11,
                                      "springDamping" : 5.0,
                                      "springStiffness" : 50.0,
                                      "bounceBounciness" : 0.45
                                    }
                                  
                                  }
                                }
                            ],
                            "start" : 0,
                            "duration" : 103,
                            "mediaStart" : -102,
                            "mediaDuration" : 103,
                            "scalar" : 1,
                            "metadata" : {
                              "clipSpeedAttribute" : false
                            },
                            "animationTracks" : {

                            }
                          },
                          {
                            "id" : 307,
                            "_type" : "Callout",
                            "def" : {
                              "kind" : "remix",
                              "shape" : "text",
                              "style" : "basic",
                              "height" : {
                                "type" : "double",
                                "defaultValue" : 294.0,
                                "interp" : "linr"
                              },
                              "line-spacing" : {
                                "type" : "double",
                                "defaultValue" : 0.0,
                                "interp" : "linr"
                              },
                              "width" : {
                                "type" : "double",
                                "defaultValue" : 1174.38904109587,
                                "interp" : "linr"
                              },
                              "word-wrap" : {
                                "type" : "double",
                                "defaultValue" : 1.0,
                                "interp" : "linr"
                              },
                              "horizontal-alignment" : "center",
                              "resize-behavior" : "resizeText",
                              "text" : "Thanks",
                              "vertical-alignment" : "center",
                              "font" : {
                                "color-blue" : {
                                  "type" : "double",
                                  "defaultValue" : 1.0,
                                  "interp" : "linr"
                                },
                                "color-green" : {
                                  "type" : "double",
                                  "defaultValue" : 1.0,
                                  "interp" : "linr"
                                },
                                "color-red" : {
                                  "type" : "double",
                                  "defaultValue" : 1.0,
                                  "interp" : "linr"
                                },
                                "size" : {
                                  "type" : "double",
                                  "defaultValue" : 96.0,
                                  "interp" : "linr"
                                },
                                "tracking" : {
                                  "type" : "double",
                                  "defaultValue" : 0.0,
                                  "interp" : "linr"
                                },
                                "name" : "Montserrat",
                                "weight" : "Regular"
                              },
                              "textAttributes" : {
                                "type" : "textAttributeList",
                                "keyframes" : [
                                  {
                                    "endTime" : 0,
                                    "time" : 0,
                                    "value" : [{"name":"fontName","rangeEnd":6,"rangeStart":0,"value":"Montserrat","valueType":"string"},{"name":"kerning","rangeEnd":6,"rangeStart":0,"value":0,"valueType":"double"},{"name":"strikethrough","rangeEnd":6,"rangeStart":0,"value":0,"valueType":"int"},{"name":"fontSize","rangeEnd":6,"rangeStart":0,"value":240,"valueType":"double"},{"name":"fontItalic","rangeEnd":6,"rangeStart":0,"value":0,"valueType":"int"},{"name":"fontWeight","rangeEnd":6,"rangeStart":0,"value":700,"valueType":"int"},{"name":"fgColor","rangeEnd":6,"rangeStart":0,"value":"(50,108,229,255)","valueType":"color"},{"name":"underline","rangeEnd":6,"rangeStart":0,"value":0,"valueType":"int"}],
                                    "duration" : 0
                                  }
                                ]
                              }
                            },
                            "attributes" : {
                              "autoRotateText" : true
                            },
                            "parameters" : {
                              "translation0" : {
                                "type" : "double",
                                "defaultValue" : -74.4178082188969,
                                "interp" : "eioe"
                              },
                              "translation1" : {
                                "type" : "double",
                                "defaultValue" : 4.13429290734252e-11,
                                "interp" : "eioe"
                              }
                            },
                            "effects" : [
                                {
                                  "_type" : "GenericBehaviorEffect",
                                  "effectName" : "pulsating",
                                  "start" : -102,
                                  "duration" : 200                                ,
                                  "in" : {
                                    "attributes" : {
                                      "name" : "grow",
                                      "type" : 1,
                                      "characterOrder" : 6,
                                      "offsetBetweenCharacters" : 1,
                                      "suggestedDurationPerCharacter" : 18,
                                      "overlapProportion" : "3/4",
                                      "movement" : 30,
                                      "springDamping" : 5.0,
                                      "springStiffness" : 50.0,
                                      "bounceBounciness" : 0.45
                                    }
                                  
                                  },
                                  "center" : {
                                    "attributes" : {
                                      "name" : "pulsate",
                                      "type" : 1,
                                      "characterOrder" : 6,
                                      "offsetBetweenCharacters" : "21/10",
                                      "secondsPerLoop" : 1,
                                      "numberOfLoops" : -1,
                                      "delayBetweenLoops" : 0,
                                      "offsetBetweenCharacters" : "21/10"
                                    },
                                    "parameters" : {
                                      "movement" : {
                                        "type" : "int",
                                        "valueBounds" : {
                                          "minValue" : 0,
                                          "maxValue" : 31,
                                          "defaultValue" : 27
                                        },
                                        "uiHints" : {
                                          "userInterfaceType" : 4,
                                          "unitType" : 0
                                        },
                                        "keyframes" : [
                                          {
                                            "endTime" : 0,
                                            "time" : 0,
                                            "value" : 27,
                                            "duration" : 0
                                          }
                                        ]
                                      },
                                      "scale" : {
                                        "type" : "double",
                                        "defaultValue" : 1.08,
                                        "interp" : "linr",
                                        "valueBounds" : {
                                          "minValue" : 0.01,
                                          "maxValue" : 2.0,
                                          "defaultValue" : 1.08
                                        },
                                        "uiHints" : {
                                          "userInterfaceType" : 1,
                                          "unitType" : 1
                                        }
                                      }
                                    }
                                  
                                  },
                                  "out" : {
                                    "attributes" : {
                                      "name" : "shrink",
                                      "type" : 1,
                                      "characterOrder" : 6,
                                      "offsetBetweenCharacters" : 1,
                                      "suggestedDurationPerCharacter" : "29/2",
                                      "overlapProportion" : "1/10",
                                      "movement" : 11,
                                      "springDamping" : 5.0,
                                      "springStiffness" : 50.0,
                                      "bounceBounciness" : 0.45
                                    }
                                  
                                  }
                                }
                            ],
                            "start" : 103,
                            "duration" : 97,
                            "mediaStart" : 1,
                            "mediaDuration" : 97,
                            "scalar" : 1,
                            "metadata" : {
                              "clipSpeedAttribute" : false
                            },
                            "animationTracks" : {

                            }
                          }
                        ],
                          "ident" : "",
                          "audioMuted" : false,
                          "videoHidden" : false,
                          "magnetic" : false,
                          "matte" : 0,
                          "metadata" : {
                            "IsLocked" : "False",
                            "WinTrackHeight" : "0"
                          }
                      },
                      {
                        "trackIndex" : 1,
                        "medias" : [
                          {
                            "id" : 308,
                            "_type" : "Group",
                            "parameters" : {
                              "translation0" : {
                                "type" : "double",
                                "defaultValue" : 0.559750733332294,
                                "interp" : "eioe"
                              },
                              "translation1" : {
                                "type" : "double",
                                "defaultValue" : -34.4850472193567,
                                "interp" : "eioe"
                              },
                              "volume" : 1.0
                            },
                            "tracks" : [
                              {
                                "trackIndex" : 0,
                                "medias" : [
                                  {
                                    "id" : 309,
                                    "_type" : "Group",
                                    "parameters" : {
                                      "translation0" : {
                                        "type" : "double",
                                        "defaultValue" : 4.44089209850063e-16,
                                        "interp" : "eioe"
                                      },
                                      "translation1" : {
                                        "type" : "double",
                                        "defaultValue" : -34.4850472193565,
                                        "interp" : "eioe"
                                      },
                                      "volume" : 1.0
                                    },
                                    "tracks" : [
                                      {
                                        "trackIndex" : 0,
                                        "medias" : [
                                          {
                                            "id" : 310,
                                            "_type" : "Group",
                                            "parameters" : {
                                              "translation0" : {
                                                "type" : "double",
                                                "defaultValue" : 0.55975073333218,
                                                "interp" : "eioe"
                                              },
                                              "translation1" : {
                                                "type" : "double",
                                                "defaultValue" : -289.15133998951,
                                                "interp" : "eioe"
                                              },
                                              "volume" : 1.0
                                            },
                                            "tracks" : [
                                              {
                                                "trackIndex" : 0,
                                                "medias" : [
                                                  {
                                                    "id" : 311,
                                                    "_type" : "IMFile",
                                                    "src" : 21,
                                                    "trackNumber" : 0,
                                                    "trimStartSum" : 0,
                                                    "attributes" : {
                                                      "ident" : "wave1"
                                                    },
                                                    "parameters" : {
                                                      "translation0" : {
                                                        "type" : "double",
                                                        "defaultValue" : -2.11950146613311,
                                                        "interp" : "eioe"
                                                      },
                                                      "translation1" : {
                                                        "type" : "double",
                                                        "defaultValue" : 8.96940103546206,
                                                        "interp" : "eioe"
                                                      },
                                                      "scale0" : {
                                                        "type" : "double",
                                                        "defaultValue" : 1.02884111169424,
                                                        "interp" : "eioe"
                                                      },
                                                      "scale1" : {
                                                        "type" : "double",
                                                        "defaultValue" : 1.02884111169424,
                                                        "interp" : "eioe"
                                                      }
                                                    },
                                                    "effects" : [

                                                    ],
                                                    "start" : 0,
                                                    "duration" : 6,
                                                    "mediaStart" : 0,
                                                    "mediaDuration" : 6,
                                                    "scalar" : 1,
                                                    "metadata" : {
                                                      "clipSpeedAttribute" : false
                                                    },
                                                    "animationTracks" : {

                                                    }
                                                  },
                                                  {
                                                    "id" : 312,
                                                    "_type" : "IMFile",
                                                    "src" : 22,
                                                    "trackNumber" : 0,
                                                    "trimStartSum" : 0,
                                                    "attributes" : {
                                                      "ident" : "wave2"
                                                    },
                                                    "parameters" : {
                                                      "translation0" : {
                                                        "type" : "double",
                                                        "defaultValue" : 0.880498533167186,
                                                        "interp" : "eioe"
                                                      },
                                                      "translation1" : {
                                                        "type" : "double",
                                                        "defaultValue" : -88.087642172052,
                                                        "interp" : "eioe"
                                                      },
                                                      "scale0" : {
                                                        "type" : "double",
                                                        "defaultValue" : 1.03068101042332,
                                                        "interp" : "eioe"
                                                      },
                                                      "scale1" : {
                                                        "type" : "double",
                                                        "defaultValue" : 1.03068101042332,
                                                        "interp" : "eioe"
                                                      }
                                                    },
                                                    "effects" : [

                                                    ],
                                                    "start" : 6,
                                                    "duration" : 6,
                                                    "mediaStart" : 0,
                                                    "mediaDuration" : 6,
                                                    "scalar" : 1,
                                                    "metadata" : {
                                                      "clipSpeedAttribute" : false
                                                    },
                                                    "animationTracks" : {

                                                    }
                                                  },
                                                  {
                                                    "id" : 313,
                                                    "_type" : "IMFile",
                                                    "src" : 23,
                                                    "trackNumber" : 0,
                                                    "trimStartSum" : 0,
                                                    "attributes" : {
                                                      "ident" : "wave3"
                                                    },
                                                    "parameters" : {
                                                      "translation0" : {
                                                        "type" : "double",
                                                        "defaultValue" : -1.11950146655987,
                                                        "interp" : "eioe"
                                                      },
                                                      "translation1" : {
                                                        "type" : "double",
                                                        "defaultValue" : 8.12143442823202,
                                                        "interp" : "eioe"
                                                      },
                                                      "scale0" : {
                                                        "type" : "double",
                                                        "defaultValue" : 1.00893326326855,
                                                        "interp" : "eioe"
                                                      },
                                                      "scale1" : {
                                                        "type" : "double",
                                                        "defaultValue" : 1.00893326326855,
                                                        "interp" : "eioe"
                                                      }
                                                    },
                                                    "effects" : [

                                                    ],
                                                    "start" : 12,
                                                    "duration" : 7,
                                                    "mediaStart" : 0,
                                                    "mediaDuration" : 7,
                                                    "scalar" : 1,
                                                    "metadata" : {
                                                      "clipSpeedAttribute" : false
                                                    },
                                                    "animationTracks" : {

                                                    }
                                                  },
                                                  {
                                                    "id" : 314,
                                                    "_type" : "IMFile",
                                                    "src" : 21,
                                                    "trackNumber" : 0,
                                                    "trimStartSum" : 0,
                                                    "attributes" : {
                                                      "ident" : "wave1"
                                                    },
                                                    "parameters" : {
                                                      "translation0" : {
                                                        "type" : "double",
                                                        "defaultValue" : -2.11950146613311,
                                                        "interp" : "eioe"
                                                      },
                                                      "translation1" : {
                                                        "type" : "double",
                                                        "defaultValue" : 8.96940103546206,
                                                        "interp" : "eioe"
                                                      },
                                                      "scale0" : {
                                                        "type" : "double",
                                                        "defaultValue" : 1.02884111169424,
                                                        "interp" : "eioe"
                                                      },
                                                      "scale1" : {
                                                        "type" : "double",
                                                        "defaultValue" : 1.02884111169424,
                                                        "interp" : "eioe"
                                                      }
                                                    },
                                                    "effects" : [

                                                    ],
                                                    "start" : 19,
                                                    "duration" : 6,
                                                    "mediaStart" : 0,
                                                    "mediaDuration" : 6,
                                                    "scalar" : 1,
                                                    "metadata" : {
                                                      "clipSpeedAttribute" : false
                                                    },
                                                    "animationTracks" : {

                                                    }
                                                  },
                                                  {
                                                    "id" : 315,
                                                    "_type" : "IMFile",
                                                    "src" : 22,
                                                    "trackNumber" : 0,
                                                    "trimStartSum" : 0,
                                                    "attributes" : {
                                                      "ident" : "wave2"
                                                    },
                                                    "parameters" : {
                                                      "translation0" : {
                                                        "type" : "double",
                                                        "defaultValue" : 0.880498533167186,
                                                        "interp" : "eioe"
                                                      },
                                                      "translation1" : {
                                                        "type" : "double",
                                                        "defaultValue" : -88.087642172052,
                                                        "interp" : "eioe"
                                                      },
                                                      "scale0" : {
                                                        "type" : "double",
                                                        "defaultValue" : 1.03068101042332,
                                                        "interp" : "eioe"
                                                      },
                                                      "scale1" : {
                                                        "type" : "double",
                                                        "defaultValue" : 1.03068101042332,
                                                        "interp" : "eioe"
                                                      }
                                                    },
                                                    "effects" : [

                                                    ],
                                                    "start" : 25,
                                                    "duration" : 6,
                                                    "mediaStart" : 0,
                                                    "mediaDuration" : 6,
                                                    "scalar" : 1,
                                                    "metadata" : {
                                                      "clipSpeedAttribute" : false
                                                    },
                                                    "animationTracks" : {

                                                    }
                                                  },
                                                  {
                                                    "id" : 316,
                                                    "_type" : "IMFile",
                                                    "src" : 23,
                                                    "trackNumber" : 0,
                                                    "trimStartSum" : 0,
                                                    "attributes" : {
                                                      "ident" : "wave3"
                                                    },
                                                    "parameters" : {
                                                      "translation0" : {
                                                        "type" : "double",
                                                        "defaultValue" : -1.11950146655987,
                                                        "interp" : "eioe"
                                                      },
                                                      "translation1" : {
                                                        "type" : "double",
                                                        "defaultValue" : 8.12143442823202,
                                                        "interp" : "eioe"
                                                      },
                                                      "scale0" : {
                                                        "type" : "double",
                                                        "defaultValue" : 1.00893326326855,
                                                        "interp" : "eioe"
                                                      },
                                                      "scale1" : {
                                                        "type" : "double",
                                                        "defaultValue" : 1.00893326326855,
                                                        "interp" : "eioe"
                                                      }
                                                    },
                                                    "effects" : [

                                                    ],
                                                    "start" : 31,
                                                    "duration" : 7,
                                                    "mediaStart" : 0,
                                                    "mediaDuration" : 7,
                                                    "scalar" : 1,
                                                    "metadata" : {
                                                      "clipSpeedAttribute" : false
                                                    },
                                                    "animationTracks" : {

                                                    }
                                                  },
                                                  {
                                                    "id" : 317,
                                                    "_type" : "IMFile",
                                                    "src" : 21,
                                                    "trackNumber" : 0,
                                                    "trimStartSum" : 0,
                                                    "attributes" : {
                                                      "ident" : "wave1"
                                                    },
                                                    "parameters" : {
                                                      "translation0" : {
                                                        "type" : "double",
                                                        "defaultValue" : -2.11950146613311,
                                                        "interp" : "eioe"
                                                      },
                                                      "translation1" : {
                                                        "type" : "double",
                                                        "defaultValue" : 8.96940103546206,
                                                        "interp" : "eioe"
                                                      },
                                                      "scale0" : {
                                                        "type" : "double",
                                                        "defaultValue" : 1.02884111169424,
                                                        "interp" : "eioe"
                                                      },
                                                      "scale1" : {
                                                        "type" : "double",
                                                        "defaultValue" : 1.02884111169424,
                                                        "interp" : "eioe"
                                                      }
                                                    },
                                                    "effects" : [

                                                    ],
                                                    "start" : 38,
                                                    "duration" : 6,
                                                    "mediaStart" : 0,
                                                    "mediaDuration" : 6,
                                                    "scalar" : 1,
                                                    "metadata" : {
                                                      "clipSpeedAttribute" : false
                                                    },
                                                    "animationTracks" : {

                                                    }
                                                  },
                                                  {
                                                    "id" : 318,
                                                    "_type" : "IMFile",
                                                    "src" : 22,
                                                    "trackNumber" : 0,
                                                    "trimStartSum" : 0,
                                                    "attributes" : {
                                                      "ident" : "wave2"
                                                    },
                                                    "parameters" : {
                                                      "translation0" : {
                                                        "type" : "double",
                                                        "defaultValue" : 0.880498533167186,
                                                        "interp" : "eioe"
                                                      },
                                                      "translation1" : {
                                                        "type" : "double",
                                                        "defaultValue" : -88.087642172052,
                                                        "interp" : "eioe"
                                                      },
                                                      "scale0" : {
                                                        "type" : "double",
                                                        "defaultValue" : 1.03068101042332,
                                                        "interp" : "eioe"
                                                      },
                                                      "scale1" : {
                                                        "type" : "double",
                                                        "defaultValue" : 1.03068101042332,
                                                        "interp" : "eioe"
                                                      }
                                                    },
                                                    "effects" : [

                                                    ],
                                                    "start" : 44,
                                                    "duration" : 6,
                                                    "mediaStart" : 0,
                                                    "mediaDuration" : 6,
                                                    "scalar" : 1,
                                                    "metadata" : {
                                                      "clipSpeedAttribute" : false
                                                    },
                                                    "animationTracks" : {

                                                    }
                                                  },
                                                  {
                                                    "id" : 319,
                                                    "_type" : "IMFile",
                                                    "src" : 23,
                                                    "trackNumber" : 0,
                                                    "trimStartSum" : 0,
                                                    "attributes" : {
                                                      "ident" : "wave3"
                                                    },
                                                    "parameters" : {
                                                      "translation0" : {
                                                        "type" : "double",
                                                        "defaultValue" : -1.11950146655987,
                                                        "interp" : "eioe"
                                                      },
                                                      "translation1" : {
                                                        "type" : "double",
                                                        "defaultValue" : 8.12143442823202,
                                                        "interp" : "eioe"
                                                      },
                                                      "scale0" : {
                                                        "type" : "double",
                                                        "defaultValue" : 1.00893326326855,
                                                        "interp" : "eioe"
                                                      },
                                                      "scale1" : {
                                                        "type" : "double",
                                                        "defaultValue" : 1.00893326326855,
                                                        "interp" : "eioe"
                                                      }
                                                    },
                                                    "effects" : [

                                                    ],
                                                    "start" : 50,
                                                    "duration" : 7,
                                                    "mediaStart" : 0,
                                                    "mediaDuration" : 7,
                                                    "scalar" : 1,
                                                    "metadata" : {
                                                      "clipSpeedAttribute" : false
                                                    },
                                                    "animationTracks" : {

                                                    }
                                                  },
                                                  {
                                                    "id" : 320,
                                                    "_type" : "IMFile",
                                                    "src" : 21,
                                                    "trackNumber" : 0,
                                                    "trimStartSum" : 0,
                                                    "attributes" : {
                                                      "ident" : "wave1"
                                                    },
                                                    "parameters" : {
                                                      "translation0" : {
                                                        "type" : "double",
                                                        "defaultValue" : -2.11950146613311,
                                                        "interp" : "eioe"
                                                      },
                                                      "translation1" : {
                                                        "type" : "double",
                                                        "defaultValue" : 8.96940103546206,
                                                        "interp" : "eioe"
                                                      },
                                                      "scale0" : {
                                                        "type" : "double",
                                                        "defaultValue" : 1.02884111169424,
                                                        "interp" : "eioe"
                                                      },
                                                      "scale1" : {
                                                        "type" : "double",
                                                        "defaultValue" : 1.02884111169424,
                                                        "interp" : "eioe"
                                                      }
                                                    },
                                                    "effects" : [

                                                    ],
                                                    "start" : 57,
                                                    "duration" : 6,
                                                    "mediaStart" : 0,
                                                    "mediaDuration" : 6,
                                                    "scalar" : 1,
                                                    "metadata" : {
                                                      "clipSpeedAttribute" : false
                                                    },
                                                    "animationTracks" : {

                                                    }
                                                  },
                                                  {
                                                    "id" : 321,
                                                    "_type" : "IMFile",
                                                    "src" : 22,
                                                    "trackNumber" : 0,
                                                    "trimStartSum" : 0,
                                                    "attributes" : {
                                                      "ident" : "wave2"
                                                    },
                                                    "parameters" : {
                                                      "translation0" : {
                                                        "type" : "double",
                                                        "defaultValue" : 0.880498533167186,
                                                        "interp" : "eioe"
                                                      },
                                                      "translation1" : {
                                                        "type" : "double",
                                                        "defaultValue" : -88.087642172052,
                                                        "interp" : "eioe"
                                                      },
                                                      "scale0" : {
                                                        "type" : "double",
                                                        "defaultValue" : 1.03068101042332,
                                                        "interp" : "eioe"
                                                      },
                                                      "scale1" : {
                                                        "type" : "double",
                                                        "defaultValue" : 1.03068101042332,
                                                        "interp" : "eioe"
                                                      }
                                                    },
                                                    "effects" : [

                                                    ],
                                                    "start" : 63,
                                                    "duration" : 6,
                                                    "mediaStart" : 0,
                                                    "mediaDuration" : 6,
                                                    "scalar" : 1,
                                                    "metadata" : {
                                                      "clipSpeedAttribute" : false
                                                    },
                                                    "animationTracks" : {

                                                    }
                                                  },
                                                  {
                                                    "id" : 322,
                                                    "_type" : "IMFile",
                                                    "src" : 23,
                                                    "trackNumber" : 0,
                                                    "trimStartSum" : 0,
                                                    "attributes" : {
                                                      "ident" : "wave3"
                                                    },
                                                    "parameters" : {
                                                      "translation0" : {
                                                        "type" : "double",
                                                        "defaultValue" : -1.11950146655987,
                                                        "interp" : "eioe"
                                                      },
                                                      "translation1" : {
                                                        "type" : "double",
                                                        "defaultValue" : 8.12143442823202,
                                                        "interp" : "eioe"
                                                      },
                                                      "scale0" : {
                                                        "type" : "double",
                                                        "defaultValue" : 1.00893326326855,
                                                        "interp" : "eioe"
                                                      },
                                                      "scale1" : {
                                                        "type" : "double",
                                                        "defaultValue" : 1.00893326326855,
                                                        "interp" : "eioe"
                                                      }
                                                    },
                                                    "effects" : [

                                                    ],
                                                    "start" : 69,
                                                    "duration" : 7,
                                                    "mediaStart" : 0,
                                                    "mediaDuration" : 7,
                                                    "scalar" : 1,
                                                    "metadata" : {
                                                      "clipSpeedAttribute" : false
                                                    },
                                                    "animationTracks" : {

                                                    }
                                                  },
                                                  {
                                                    "id" : 323,
                                                    "_type" : "IMFile",
                                                    "src" : 21,
                                                    "trackNumber" : 0,
                                                    "trimStartSum" : 0,
                                                    "attributes" : {
                                                      "ident" : "wave1"
                                                    },
                                                    "parameters" : {
                                                      "translation0" : {
                                                        "type" : "double",
                                                        "defaultValue" : -2.11950146613311,
                                                        "interp" : "eioe"
                                                      },
                                                      "translation1" : {
                                                        "type" : "double",
                                                        "defaultValue" : 8.96940103546206,
                                                        "interp" : "eioe"
                                                      },
                                                      "scale0" : {
                                                        "type" : "double",
                                                        "defaultValue" : 1.02884111169424,
                                                        "interp" : "eioe"
                                                      },
                                                      "scale1" : {
                                                        "type" : "double",
                                                        "defaultValue" : 1.02884111169424,
                                                        "interp" : "eioe"
                                                      }
                                                    },
                                                    "effects" : [

                                                    ],
                                                    "start" : 76,
                                                    "duration" : 6,
                                                    "mediaStart" : 0,
                                                    "mediaDuration" : 6,
                                                    "scalar" : 1,
                                                    "metadata" : {
                                                      "clipSpeedAttribute" : false
                                                    },
                                                    "animationTracks" : {

                                                    }
                                                  },
                                                  {
                                                    "id" : 324,
                                                    "_type" : "IMFile",
                                                    "src" : 22,
                                                    "trackNumber" : 0,
                                                    "trimStartSum" : 0,
                                                    "attributes" : {
                                                      "ident" : "wave2"
                                                    },
                                                    "parameters" : {
                                                      "translation0" : {
                                                        "type" : "double",
                                                        "defaultValue" : 0.880498533167186,
                                                        "interp" : "eioe"
                                                      },
                                                      "translation1" : {
                                                        "type" : "double",
                                                        "defaultValue" : -88.087642172052,
                                                        "interp" : "eioe"
                                                      },
                                                      "scale0" : {
                                                        "type" : "double",
                                                        "defaultValue" : 1.03068101042332,
                                                        "interp" : "eioe"
                                                      },
                                                      "scale1" : {
                                                        "type" : "double",
                                                        "defaultValue" : 1.03068101042332,
                                                        "interp" : "eioe"
                                                      }
                                                    },
                                                    "effects" : [

                                                    ],
                                                    "start" : 82,
                                                    "duration" : 6,
                                                    "mediaStart" : 0,
                                                    "mediaDuration" : 6,
                                                    "scalar" : 1,
                                                    "metadata" : {
                                                      "clipSpeedAttribute" : false
                                                    },
                                                    "animationTracks" : {

                                                    }
                                                  },
                                                  {
                                                    "id" : 325,
                                                    "_type" : "IMFile",
                                                    "src" : 23,
                                                    "trackNumber" : 0,
                                                    "trimStartSum" : 0,
                                                    "attributes" : {
                                                      "ident" : "wave3"
                                                    },
                                                    "parameters" : {
                                                      "translation0" : {
                                                        "type" : "double",
                                                        "defaultValue" : -1.11950146655987,
                                                        "interp" : "eioe"
                                                      },
                                                      "translation1" : {
                                                        "type" : "double",
                                                        "defaultValue" : 8.12143442823202,
                                                        "interp" : "eioe"
                                                      },
                                                      "scale0" : {
                                                        "type" : "double",
                                                        "defaultValue" : 1.00893326326855,
                                                        "interp" : "eioe"
                                                      },
                                                      "scale1" : {
                                                        "type" : "double",
                                                        "defaultValue" : 1.00893326326855,
                                                        "interp" : "eioe"
                                                      }
                                                    },
                                                    "effects" : [

                                                    ],
                                                    "start" : 88,
                                                    "duration" : 7,
                                                    "mediaStart" : 0,
                                                    "mediaDuration" : 7,
                                                    "scalar" : 1,
                                                    "metadata" : {
                                                      "clipSpeedAttribute" : false
                                                    },
                                                    "animationTracks" : {

                                                    }
                                                  },
                                                  {
                                                    "id" : 326,
                                                    "_type" : "IMFile",
                                                    "src" : 21,
                                                    "trackNumber" : 0,
                                                    "trimStartSum" : 0,
                                                    "attributes" : {
                                                      "ident" : "wave1"
                                                    },
                                                    "parameters" : {
                                                      "translation0" : {
                                                        "type" : "double",
                                                        "defaultValue" : -2.11950146613311,
                                                        "interp" : "eioe"
                                                      },
                                                      "translation1" : {
                                                        "type" : "double",
                                                        "defaultValue" : 8.96940103546206,
                                                        "interp" : "eioe"
                                                      },
                                                      "scale0" : {
                                                        "type" : "double",
                                                        "defaultValue" : 1.02884111169424,
                                                        "interp" : "eioe"
                                                      },
                                                      "scale1" : {
                                                        "type" : "double",
                                                        "defaultValue" : 1.02884111169424,
                                                        "interp" : "eioe"
                                                      }
                                                    },
                                                    "effects" : [

                                                    ],
                                                    "start" : 95,
                                                    "duration" : 6,
                                                    "mediaStart" : 0,
                                                    "mediaDuration" : 6,
                                                    "scalar" : 1,
                                                    "metadata" : {
                                                      "clipSpeedAttribute" : false
                                                    },
                                                    "animationTracks" : {

                                                    }
                                                  },
                                                  {
                                                    "id" : 327,
                                                    "_type" : "IMFile",
                                                    "src" : 22,
                                                    "trackNumber" : 0,
                                                    "trimStartSum" : 0,
                                                    "attributes" : {
                                                      "ident" : "wave2"
                                                    },
                                                    "parameters" : {
                                                      "translation0" : {
                                                        "type" : "double",
                                                        "defaultValue" : 0.880498533167186,
                                                        "interp" : "eioe"
                                                      },
                                                      "translation1" : {
                                                        "type" : "double",
                                                        "defaultValue" : -88.087642172052,
                                                        "interp" : "eioe"
                                                      },
                                                      "scale0" : {
                                                        "type" : "double",
                                                        "defaultValue" : 1.03068101042332,
                                                        "interp" : "eioe"
                                                      },
                                                      "scale1" : {
                                                        "type" : "double",
                                                        "defaultValue" : 1.03068101042332,
                                                        "interp" : "eioe"
                                                      }
                                                    },
                                                    "effects" : [

                                                    ],
                                                    "start" : 101,
                                                    "duration" : 6,
                                                    "mediaStart" : 0,
                                                    "mediaDuration" : 6,
                                                    "scalar" : 1,
                                                    "metadata" : {
                                                      "clipSpeedAttribute" : false
                                                    },
                                                    "animationTracks" : {

                                                    }
                                                  },
                                                  {
                                                    "id" : 328,
                                                    "_type" : "IMFile",
                                                    "src" : 23,
                                                    "trackNumber" : 0,
                                                    "trimStartSum" : 0,
                                                    "attributes" : {
                                                      "ident" : "wave3"
                                                    },
                                                    "parameters" : {
                                                      "translation0" : {
                                                        "type" : "double",
                                                        "defaultValue" : -1.11950146655987,
                                                        "interp" : "eioe"
                                                      },
                                                      "translation1" : {
                                                        "type" : "double",
                                                        "defaultValue" : 8.12143442823202,
                                                        "interp" : "eioe"
                                                      },
                                                      "scale0" : {
                                                        "type" : "double",
                                                        "defaultValue" : 1.00893326326855,
                                                        "interp" : "eioe"
                                                      },
                                                      "scale1" : {
                                                        "type" : "double",
                                                        "defaultValue" : 1.00893326326855,
                                                        "interp" : "eioe"
                                                      }
                                                    },
                                                    "effects" : [

                                                    ],
                                                    "start" : 107,
                                                    "duration" : 7,
                                                    "mediaStart" : 0,
                                                    "mediaDuration" : 7,
                                                    "scalar" : 1,
                                                    "metadata" : {
                                                      "clipSpeedAttribute" : false
                                                    },
                                                    "animationTracks" : {

                                                    }
                                                  },
                                                  {
                                                    "id" : 329,
                                                    "_type" : "IMFile",
                                                    "src" : 21,
                                                    "trackNumber" : 0,
                                                    "trimStartSum" : 0,
                                                    "attributes" : {
                                                      "ident" : "wave1"
                                                    },
                                                    "parameters" : {
                                                      "translation0" : {
                                                        "type" : "double",
                                                        "defaultValue" : -2.11950146613311,
                                                        "interp" : "eioe"
                                                      },
                                                      "translation1" : {
                                                        "type" : "double",
                                                        "defaultValue" : 8.96940103546206,
                                                        "interp" : "eioe"
                                                      },
                                                      "scale0" : {
                                                        "type" : "double",
                                                        "defaultValue" : 1.02884111169424,
                                                        "interp" : "eioe"
                                                      },
                                                      "scale1" : {
                                                        "type" : "double",
                                                        "defaultValue" : 1.02884111169424,
                                                        "interp" : "eioe"
                                                      }
                                                    },
                                                    "effects" : [

                                                    ],
                                                    "start" : 114,
                                                    "duration" : 6,
                                                    "mediaStart" : 0,
                                                    "mediaDuration" : 6,
                                                    "scalar" : 1,
                                                    "metadata" : {
                                                      "clipSpeedAttribute" : false
                                                    },
                                                    "animationTracks" : {

                                                    }
                                                  },
                                                  {
                                                    "id" : 330,
                                                    "_type" : "IMFile",
                                                    "src" : 22,
                                                    "trackNumber" : 0,
                                                    "trimStartSum" : 0,
                                                    "attributes" : {
                                                      "ident" : "wave2"
                                                    },
                                                    "parameters" : {
                                                      "translation0" : {
                                                        "type" : "double",
                                                        "defaultValue" : 0.880498533167186,
                                                        "interp" : "eioe"
                                                      },
                                                      "translation1" : {
                                                        "type" : "double",
                                                        "defaultValue" : -88.087642172052,
                                                        "interp" : "eioe"
                                                      },
                                                      "scale0" : {
                                                        "type" : "double",
                                                        "defaultValue" : 1.03068101042332,
                                                        "interp" : "eioe"
                                                      },
                                                      "scale1" : {
                                                        "type" : "double",
                                                        "defaultValue" : 1.03068101042332,
                                                        "interp" : "eioe"
                                                      }
                                                    },
                                                    "effects" : [

                                                    ],
                                                    "start" : 120,
                                                    "duration" : 6,
                                                    "mediaStart" : 0,
                                                    "mediaDuration" : 6,
                                                    "scalar" : 1,
                                                    "metadata" : {
                                                      "clipSpeedAttribute" : false
                                                    },
                                                    "animationTracks" : {

                                                    }
                                                  },
                                                  {
                                                    "id" : 331,
                                                    "_type" : "IMFile",
                                                    "src" : 23,
                                                    "trackNumber" : 0,
                                                    "trimStartSum" : 0,
                                                    "attributes" : {
                                                      "ident" : "wave3"
                                                    },
                                                    "parameters" : {
                                                      "translation0" : {
                                                        "type" : "double",
                                                        "defaultValue" : -1.11950146655987,
                                                        "interp" : "eioe"
                                                      },
                                                      "translation1" : {
                                                        "type" : "double",
                                                        "defaultValue" : 8.12143442823202,
                                                        "interp" : "eioe"
                                                      },
                                                      "scale0" : {
                                                        "type" : "double",
                                                        "defaultValue" : 1.00893326326855,
                                                        "interp" : "eioe"
                                                      },
                                                      "scale1" : {
                                                        "type" : "double",
                                                        "defaultValue" : 1.00893326326855,
                                                        "interp" : "eioe"
                                                      }
                                                    },
                                                    "effects" : [

                                                    ],
                                                    "start" : 126,
                                                    "duration" : 7,
                                                    "mediaStart" : 0,
                                                    "mediaDuration" : 7,
                                                    "scalar" : 1,
                                                    "metadata" : {
                                                      "clipSpeedAttribute" : false
                                                    },
                                                    "animationTracks" : {

                                                    }
                                                  },
                                                  {
                                                    "id" : 332,
                                                    "_type" : "IMFile",
                                                    "src" : 21,
                                                    "trackNumber" : 0,
                                                    "trimStartSum" : 0,
                                                    "attributes" : {
                                                      "ident" : "wave1"
                                                    },
                                                    "parameters" : {
                                                      "translation0" : {
                                                        "type" : "double",
                                                        "defaultValue" : -2.11950146613311,
                                                        "interp" : "eioe"
                                                      },
                                                      "translation1" : {
                                                        "type" : "double",
                                                        "defaultValue" : 8.96940103546206,
                                                        "interp" : "eioe"
                                                      },
                                                      "scale0" : {
                                                        "type" : "double",
                                                        "defaultValue" : 1.02884111169424,
                                                        "interp" : "eioe"
                                                      },
                                                      "scale1" : {
                                                        "type" : "double",
                                                        "defaultValue" : 1.02884111169424,
                                                        "interp" : "eioe"
                                                      }
                                                    },
                                                    "effects" : [

                                                    ],
                                                    "start" : 133,
                                                    "duration" : 6,
                                                    "mediaStart" : 0,
                                                    "mediaDuration" : 6,
                                                    "scalar" : 1,
                                                    "metadata" : {
                                                      "clipSpeedAttribute" : false
                                                    },
                                                    "animationTracks" : {

                                                    }
                                                  },
                                                  {
                                                    "id" : 333,
                                                    "_type" : "IMFile",
                                                    "src" : 22,
                                                    "trackNumber" : 0,
                                                    "trimStartSum" : 0,
                                                    "attributes" : {
                                                      "ident" : "wave2"
                                                    },
                                                    "parameters" : {
                                                      "translation0" : {
                                                        "type" : "double",
                                                        "defaultValue" : 0.880498533167186,
                                                        "interp" : "eioe"
                                                      },
                                                      "translation1" : {
                                                        "type" : "double",
                                                        "defaultValue" : -88.087642172052,
                                                        "interp" : "eioe"
                                                      },
                                                      "scale0" : {
                                                        "type" : "double",
                                                        "defaultValue" : 1.03068101042332,
                                                        "interp" : "eioe"
                                                      },
                                                      "scale1" : {
                                                        "type" : "double",
                                                        "defaultValue" : 1.03068101042332,
                                                        "interp" : "eioe"
                                                      }
                                                    },
                                                    "effects" : [

                                                    ],
                                                    "start" : 139,
                                                    "duration" : 6,
                                                    "mediaStart" : 0,
                                                    "mediaDuration" : 6,
                                                    "scalar" : 1,
                                                    "metadata" : {
                                                      "clipSpeedAttribute" : false
                                                    },
                                                    "animationTracks" : {

                                                    }
                                                  },
                                                  {
                                                    "id" : 334,
                                                    "_type" : "IMFile",
                                                    "src" : 23,
                                                    "trackNumber" : 0,
                                                    "trimStartSum" : 0,
                                                    "attributes" : {
                                                      "ident" : "wave3"
                                                    },
                                                    "parameters" : {
                                                      "translation0" : {
                                                        "type" : "double",
                                                        "defaultValue" : -1.11950146655987,
                                                        "interp" : "eioe"
                                                      },
                                                      "translation1" : {
                                                        "type" : "double",
                                                        "defaultValue" : 8.12143442823202,
                                                        "interp" : "eioe"
                                                      },
                                                      "scale0" : {
                                                        "type" : "double",
                                                        "defaultValue" : 1.00893326326855,
                                                        "interp" : "eioe"
                                                      },
                                                      "scale1" : {
                                                        "type" : "double",
                                                        "defaultValue" : 1.00893326326855,
                                                        "interp" : "eioe"
                                                      }
                                                    },
                                                    "effects" : [

                                                    ],
                                                    "start" : 145,
                                                    "duration" : 7,
                                                    "mediaStart" : 0,
                                                    "mediaDuration" : 7,
                                                    "scalar" : 1,
                                                    "metadata" : {
                                                      "clipSpeedAttribute" : false
                                                    },
                                                    "animationTracks" : {

                                                    }
                                                  },
                                                  {
                                                    "id" : 335,
                                                    "_type" : "IMFile",
                                                    "src" : 21,
                                                    "trackNumber" : 0,
                                                    "trimStartSum" : 0,
                                                    "attributes" : {
                                                      "ident" : "wave1"
                                                    },
                                                    "parameters" : {
                                                      "translation0" : {
                                                        "type" : "double",
                                                        "defaultValue" : -2.11950146613311,
                                                        "interp" : "eioe"
                                                      },
                                                      "translation1" : {
                                                        "type" : "double",
                                                        "defaultValue" : 8.96940103546206,
                                                        "interp" : "eioe"
                                                      },
                                                      "scale0" : {
                                                        "type" : "double",
                                                        "defaultValue" : 1.02884111169424,
                                                        "interp" : "eioe"
                                                      },
                                                      "scale1" : {
                                                        "type" : "double",
                                                        "defaultValue" : 1.02884111169424,
                                                        "interp" : "eioe"
                                                      }
                                                    },
                                                    "effects" : [

                                                    ],
                                                    "start" : 152,
                                                    "duration" : 6,
                                                    "mediaStart" : 0,
                                                    "mediaDuration" : 6,
                                                    "scalar" : 1,
                                                    "metadata" : {
                                                      "clipSpeedAttribute" : false
                                                    },
                                                    "animationTracks" : {

                                                    }
                                                  },
                                                  {
                                                    "id" : 336,
                                                    "_type" : "IMFile",
                                                    "src" : 22,
                                                    "trackNumber" : 0,
                                                    "trimStartSum" : 0,
                                                    "attributes" : {
                                                      "ident" : "wave2"
                                                    },
                                                    "parameters" : {
                                                      "translation0" : {
                                                        "type" : "double",
                                                        "defaultValue" : 0.880498533167186,
                                                        "interp" : "eioe"
                                                      },
                                                      "translation1" : {
                                                        "type" : "double",
                                                        "defaultValue" : -88.087642172052,
                                                        "interp" : "eioe"
                                                      },
                                                      "scale0" : {
                                                        "type" : "double",
                                                        "defaultValue" : 1.03068101042332,
                                                        "interp" : "eioe"
                                                      },
                                                      "scale1" : {
                                                        "type" : "double",
                                                        "defaultValue" : 1.03068101042332,
                                                        "interp" : "eioe"
                                                      }
                                                    },
                                                    "effects" : [

                                                    ],
                                                    "start" : 158,
                                                    "duration" : 6,
                                                    "mediaStart" : 0,
                                                    "mediaDuration" : 6,
                                                    "scalar" : 1,
                                                    "metadata" : {
                                                      "clipSpeedAttribute" : false
                                                    },
                                                    "animationTracks" : {

                                                    }
                                                  },
                                                  {
                                                    "id" : 337,
                                                    "_type" : "IMFile",
                                                    "src" : 23,
                                                    "trackNumber" : 0,
                                                    "trimStartSum" : 0,
                                                    "attributes" : {
                                                      "ident" : "wave3"
                                                    },
                                                    "parameters" : {
                                                      "translation0" : {
                                                        "type" : "double",
                                                        "defaultValue" : -1.11950146655987,
                                                        "interp" : "eioe"
                                                      },
                                                      "translation1" : {
                                                        "type" : "double",
                                                        "defaultValue" : 8.12143442823202,
                                                        "interp" : "eioe"
                                                      },
                                                      "scale0" : {
                                                        "type" : "double",
                                                        "defaultValue" : 1.00893326326855,
                                                        "interp" : "eioe"
                                                      },
                                                      "scale1" : {
                                                        "type" : "double",
                                                        "defaultValue" : 1.00893326326855,
                                                        "interp" : "eioe"
                                                      }
                                                    },
                                                    "effects" : [

                                                    ],
                                                    "start" : 164,
                                                    "duration" : 7,
                                                    "mediaStart" : 0,
                                                    "mediaDuration" : 7,
                                                    "scalar" : 1,
                                                    "metadata" : {
                                                      "clipSpeedAttribute" : false
                                                    },
                                                    "animationTracks" : {

                                                    }
                                                  },
                                                  {
                                                    "id" : 338,
                                                    "_type" : "IMFile",
                                                    "src" : 21,
                                                    "trackNumber" : 0,
                                                    "trimStartSum" : 0,
                                                    "attributes" : {
                                                      "ident" : "wave1"
                                                    },
                                                    "parameters" : {
                                                      "translation0" : {
                                                        "type" : "double",
                                                        "defaultValue" : -2.11950146613311,
                                                        "interp" : "eioe"
                                                      },
                                                      "translation1" : {
                                                        "type" : "double",
                                                        "defaultValue" : 8.96940103546206,
                                                        "interp" : "eioe"
                                                      },
                                                      "scale0" : {
                                                        "type" : "double",
                                                        "defaultValue" : 1.02884111169424,
                                                        "interp" : "eioe"
                                                      },
                                                      "scale1" : {
                                                        "type" : "double",
                                                        "defaultValue" : 1.02884111169424,
                                                        "interp" : "eioe"
                                                      }
                                                    },
                                                    "effects" : [

                                                    ],
                                                    "start" : 171,
                                                    "duration" : 6,
                                                    "mediaStart" : 0,
                                                    "mediaDuration" : 6,
                                                    "scalar" : 1,
                                                    "metadata" : {
                                                      "clipSpeedAttribute" : false
                                                    },
                                                    "animationTracks" : {

                                                    }
                                                  },
                                                  {
                                                    "id" : 339,
                                                    "_type" : "IMFile",
                                                    "src" : 22,
                                                    "trackNumber" : 0,
                                                    "trimStartSum" : 0,
                                                    "attributes" : {
                                                      "ident" : "wave2"
                                                    },
                                                    "parameters" : {
                                                      "translation0" : {
                                                        "type" : "double",
                                                        "defaultValue" : 0.880498533167186,
                                                        "interp" : "eioe"
                                                      },
                                                      "translation1" : {
                                                        "type" : "double",
                                                        "defaultValue" : -88.087642172052,
                                                        "interp" : "eioe"
                                                      },
                                                      "scale0" : {
                                                        "type" : "double",
                                                        "defaultValue" : 1.03068101042332,
                                                        "interp" : "eioe"
                                                      },
                                                      "scale1" : {
                                                        "type" : "double",
                                                        "defaultValue" : 1.03068101042332,
                                                        "interp" : "eioe"
                                                      }
                                                    },
                                                    "effects" : [

                                                    ],
                                                    "start" : 177,
                                                    "duration" : 6,
                                                    "mediaStart" : 0,
                                                    "mediaDuration" : 6,
                                                    "scalar" : 1,
                                                    "metadata" : {
                                                      "clipSpeedAttribute" : false
                                                    },
                                                    "animationTracks" : {

                                                    }
                                                  },
                                                  {
                                                    "id" : 340,
                                                    "_type" : "IMFile",
                                                    "src" : 23,
                                                    "trackNumber" : 0,
                                                    "trimStartSum" : 0,
                                                    "attributes" : {
                                                      "ident" : "wave3"
                                                    },
                                                    "parameters" : {
                                                      "translation0" : {
                                                        "type" : "double",
                                                        "defaultValue" : -1.11950146655987,
                                                        "interp" : "eioe"
                                                      },
                                                      "translation1" : {
                                                        "type" : "double",
                                                        "defaultValue" : 8.12143442823202,
                                                        "interp" : "eioe"
                                                      },
                                                      "scale0" : {
                                                        "type" : "double",
                                                        "defaultValue" : 1.00893326326855,
                                                        "interp" : "eioe"
                                                      },
                                                      "scale1" : {
                                                        "type" : "double",
                                                        "defaultValue" : 1.00893326326855,
                                                        "interp" : "eioe"
                                                      }
                                                    },
                                                    "effects" : [

                                                    ],
                                                    "start" : 183,
                                                    "duration" : 7,
                                                    "mediaStart" : 0,
                                                    "mediaDuration" : 7,
                                                    "scalar" : 1,
                                                    "metadata" : {
                                                      "clipSpeedAttribute" : false
                                                    },
                                                    "animationTracks" : {

                                                    }
                                                  },
                                                  {
                                                    "id" : 341,
                                                    "_type" : "IMFile",
                                                    "src" : 21,
                                                    "trackNumber" : 0,
                                                    "trimStartSum" : 0,
                                                    "attributes" : {
                                                      "ident" : "wave1"
                                                    },
                                                    "parameters" : {
                                                      "translation0" : {
                                                        "type" : "double",
                                                        "defaultValue" : -2.11950146613311,
                                                        "interp" : "eioe"
                                                      },
                                                      "translation1" : {
                                                        "type" : "double",
                                                        "defaultValue" : 8.96940103546206,
                                                        "interp" : "eioe"
                                                      },
                                                      "scale0" : {
                                                        "type" : "double",
                                                        "defaultValue" : 1.02884111169424,
                                                        "interp" : "eioe"
                                                      },
                                                      "scale1" : {
                                                        "type" : "double",
                                                        "defaultValue" : 1.02884111169424,
                                                        "interp" : "eioe"
                                                      }
                                                    },
                                                    "effects" : [

                                                    ],
                                                    "start" : 190,
                                                    "duration" : 6,
                                                    "mediaStart" : 0,
                                                    "mediaDuration" : 6,
                                                    "scalar" : 1,
                                                    "metadata" : {
                                                      "clipSpeedAttribute" : false
                                                    },
                                                    "animationTracks" : {

                                                    }
                                                  },
                                                  {
                                                    "id" : 342,
                                                    "_type" : "IMFile",
                                                    "src" : 22,
                                                    "trackNumber" : 0,
                                                    "trimStartSum" : 0,
                                                    "attributes" : {
                                                      "ident" : "wave2"
                                                    },
                                                    "parameters" : {
                                                      "translation0" : {
                                                        "type" : "double",
                                                        "defaultValue" : 0.880498533167186,
                                                        "interp" : "eioe"
                                                      },
                                                      "translation1" : {
                                                        "type" : "double",
                                                        "defaultValue" : -88.087642172052,
                                                        "interp" : "eioe"
                                                      },
                                                      "scale0" : {
                                                        "type" : "double",
                                                        "defaultValue" : 1.03068101042332,
                                                        "interp" : "eioe"
                                                      },
                                                      "scale1" : {
                                                        "type" : "double",
                                                        "defaultValue" : 1.03068101042332,
                                                        "interp" : "eioe"
                                                      }
                                                    },
                                                    "effects" : [

                                                    ],
                                                    "start" : 196,
                                                    "duration" : 4,
                                                    "mediaStart" : 0,
                                                    "mediaDuration" : 4,
                                                    "scalar" : 1,
                                                    "metadata" : {
                                                      "clipSpeedAttribute" : false
                                                    },
                                                    "animationTracks" : {

                                                    }
                                                  }
                                                ],
                                                  "ident" : "",
                                                  "audioMuted" : false,
                                                  "videoHidden" : false,
                                                  "magnetic" : false,
                                                  "matte" : 0,
                                                  "metadata" : {
                                                    "IsLocked" : "False",
                                                    "WinTrackHeight" : "0"
                                                  }
                                              },
                                              {
                                                "trackIndex" : 1,
                                                "medias" : [
                                                  {
                                                    "id" : 343,
                                                    "_type" : "IMFile",
                                                    "src" : 24,
                                                    "trackNumber" : 0,
                                                    "trimStartSum" : 0,
                                                    "attributes" : {
                                                      "ident" : "control-plane-128"
                                                    },
                                                    "parameters" : {
                                                      "translation0" : {
                                                        "type" : "double",
                                                        "defaultValue" : -785.119501466663,
                                                        "interp" : "eioe"
                                                      },
                                                      "translation1" : {
                                                        "type" : "double",
                                                        "defaultValue" : 199.818754449228,
                                                        "interp" : "eioe"
                                                      }
                                                    },
                                                    "effects" : [

                                                    ],
                                                    "start" : 0,
                                                    "duration" : 19,
                                                    "mediaStart" : 0,
                                                    "mediaDuration" : 19,
                                                    "scalar" : 1,
                                                    "metadata" : {
                                                      "clipSpeedAttribute" : false
                                                    },
                                                    "animationTracks" : {

                                                    }
                                                  },
                                                  {
                                                    "id" : 344,
                                                    "_type" : "IMFile",
                                                    "src" : 25,
                                                    "trackNumber" : 0,
                                                    "trimStartSum" : 0,
                                                    "attributes" : {
                                                      "ident" : "etcd-128"
                                                    },
                                                    "parameters" : {
                                                      "translation0" : {
                                                        "type" : "double",
                                                        "defaultValue" : -655.119501466745,
                                                        "interp" : "eioe"
                                                      },
                                                      "translation1" : {
                                                        "type" : "double",
                                                        "defaultValue" : 120.373795393553,
                                                        "interp" : "eioe"
                                                      }
                                                    },
                                                    "effects" : [

                                                    ],
                                                    "start" : 19,
                                                    "duration" : 22,
                                                    "mediaStart" : 0,
                                                    "mediaDuration" : 22,
                                                    "scalar" : 1,
                                                    "metadata" : {
                                                      "clipSpeedAttribute" : false
                                                    },
                                                    "animationTracks" : {

                                                    }
                                                  },
                                                  {
                                                    "id" : 345,
                                                    "_type" : "IMFile",
                                                    "src" : 26,
                                                    "trackNumber" : 0,
                                                    "trimStartSum" : 0,
                                                    "attributes" : {
                                                      "ident" : "node-128"
                                                    },
                                                    "parameters" : {
                                                      "translation0" : {
                                                        "type" : "double",
                                                        "defaultValue" : -315.119501466444,
                                                        "interp" : "eioe"
                                                      },
                                                      "translation1" : {
                                                        "type" : "double",
                                                        "defaultValue" : 135.818754449343,
                                                        "interp" : "eioe"
                                                      }
                                                    },
                                                    "effects" : [

                                                    ],
                                                    "start" : 41,
                                                    "duration" : 18,
                                                    "mediaStart" : 0,
                                                    "mediaDuration" : 18,
                                                    "scalar" : 1,
                                                    "metadata" : {
                                                      "clipSpeedAttribute" : false
                                                    },
                                                    "animationTracks" : {

                                                    }
                                                  },
                                                  {
                                                    "id" : 346,
                                                    "_type" : "IMFile",
                                                    "src" : 27,
                                                    "trackNumber" : 0,
                                                    "trimStartSum" : 0,
                                                    "attributes" : {
                                                      "ident" : "ns-128"
                                                    },
                                                    "parameters" : {
                                                      "translation0" : {
                                                        "type" : "double",
                                                        "defaultValue" : -345.11950146672,
                                                        "interp" : "eioe"
                                                      },
                                                      "translation1" : {
                                                        "type" : "double",
                                                        "defaultValue" : 158.121434428201,
                                                        "interp" : "eioe"
                                                      }
                                                    },
                                                    "effects" : [

                                                    ],
                                                    "start" : 59,
                                                    "duration" : 23,
                                                    "mediaStart" : 0,
                                                    "mediaDuration" : 23,
                                                    "scalar" : 1,
                                                    "metadata" : {
                                                      "clipSpeedAttribute" : false
                                                    },
                                                    "animationTracks" : {

                                                    }
                                                  },
                                                  {
                                                    "id" : 347,
                                                    "_type" : "IMFile",
                                                    "src" : 28,
                                                    "trackNumber" : 0,
                                                    "trimStartSum" : 0,
                                                    "attributes" : {
                                                      "ident" : "pod-128"
                                                    },
                                                    "parameters" : {
                                                      "translation0" : {
                                                        "type" : "double",
                                                        "defaultValue" : -91.1195014666742,
                                                        "interp" : "eioe"
                                                      },
                                                      "translation1" : {
                                                        "type" : "double",
                                                        "defaultValue" : 100.121434428219,
                                                        "interp" : "eioe"
                                                      }
                                                    },
                                                    "effects" : [

                                                    ],
                                                    "start" : 82,
                                                    "duration" : 16,
                                                    "mediaStart" : 0,
                                                    "mediaDuration" : 16,
                                                    "scalar" : 1,
                                                    "metadata" : {
                                                      "clipSpeedAttribute" : false
                                                    },
                                                    "animationTracks" : {

                                                    }
                                                  },
                                                  {
                                                    "id" : 348,
                                                    "_type" : "IMFile",
                                                    "src" : 29,
                                                    "trackNumber" : 0,
                                                    "trimStartSum" : 0,
                                                    "attributes" : {
                                                      "ident" : "secret-128"
                                                    },
                                                    "parameters" : {
                                                      "translation0" : {
                                                        "type" : "double",
                                                        "defaultValue" : -1.11950146666447,
                                                        "interp" : "eioe"
                                                      },
                                                      "translation1" : {
                                                        "type" : "double",
                                                        "defaultValue" : 140.121434428194,
                                                        "interp" : "eioe"
                                                      }
                                                    },
                                                    "effects" : [

                                                    ],
                                                    "start" : 98,
                                                    "duration" : 17,
                                                    "mediaStart" : 0,
                                                    "mediaDuration" : 17,
                                                    "scalar" : 1,
                                                    "metadata" : {
                                                      "clipSpeedAttribute" : false
                                                    },
                                                    "animationTracks" : {

                                                    }
                                                  },
                                                  {
                                                    "id" : 349,
                                                    "_type" : "IMFile",
                                                    "src" : 30,
                                                    "trackNumber" : 0,
                                                    "trimStartSum" : 0,
                                                    "attributes" : {
                                                      "ident" : "svc-128"
                                                    },
                                                    "parameters" : {
                                                      "translation0" : {
                                                        "type" : "double",
                                                        "defaultValue" : 258.880498533338,
                                                        "interp" : "eioe"
                                                      },
                                                      "translation1" : {
                                                        "type" : "double",
                                                        "defaultValue" : 112.121434428216,
                                                        "interp" : "eioe"
                                                      }
                                                    },
                                                    "effects" : [

                                                    ],
                                                    "start" : 115,
                                                    "duration" : 14,
                                                    "mediaStart" : 0,
                                                    "mediaDuration" : 14,
                                                    "scalar" : 1,
                                                    "metadata" : {
                                                      "clipSpeedAttribute" : false
                                                    },
                                                    "animationTracks" : {

                                                    }
                                                  },
                                                  {
                                                    "id" : 350,
                                                    "_type" : "IMFile",
                                                    "src" : 30,
                                                    "trackNumber" : 0,
                                                    "trimStartSum" : 0,
                                                    "attributes" : {
                                                      "ident" : "svc-128"
                                                    },
                                                    "parameters" : {
                                                      "translation0" : {
                                                        "type" : "double",
                                                        "defaultValue" : 346.880498533407,
                                                        "interp" : "eioe"
                                                      },
                                                      "translation1" : {
                                                        "type" : "double",
                                                        "defaultValue" : 120.121434428205,
                                                        "interp" : "eioe"
                                                      }
                                                    },
                                                    "effects" : [

                                                    ],
                                                    "start" : 129,
                                                    "duration" : 14,
                                                    "mediaStart" : 0,
                                                    "mediaDuration" : 14,
                                                    "scalar" : 1,
                                                    "metadata" : {
                                                      "clipSpeedAttribute" : false
                                                    },
                                                    "animationTracks" : {

                                                    }
                                                  },
                                                  {
                                                    "id" : 351,
                                                    "_type" : "IMFile",
                                                    "src" : 31,
                                                    "trackNumber" : 0,
                                                    "trimStartSum" : 0,
                                                    "attributes" : {
                                                      "ident" : "rs-128"
                                                    },
                                                    "parameters" : {
                                                      "translation0" : {
                                                        "type" : "double",
                                                        "defaultValue" : 480.880498533387,
                                                        "interp" : "eioe"
                                                      },
                                                      "translation1" : {
                                                        "type" : "double",
                                                        "defaultValue" : 158.1214344282,
                                                        "interp" : "eioe"
                                                      }
                                                    },
                                                    "effects" : [

                                                    ],
                                                    "start" : 143,
                                                    "duration" : 13,
                                                    "mediaStart" : 0,
                                                    "mediaDuration" : 13,
                                                    "scalar" : 1,
                                                    "metadata" : {
                                                      "clipSpeedAttribute" : false
                                                    },
                                                    "animationTracks" : {

                                                    }
                                                  },
                                                  {
                                                    "id" : 352,
                                                    "_type" : "IMFile",
                                                    "src" : 32,
                                                    "trackNumber" : 0,
                                                    "trimStartSum" : 0,
                                                    "attributes" : {
                                                      "ident" : "vol-128"
                                                    },
                                                    "parameters" : {
                                                      "translation0" : {
                                                        "type" : "double",
                                                        "defaultValue" : 560.880498533409,
                                                        "interp" : "eioe"
                                                      },
                                                      "translation1" : {
                                                        "type" : "double",
                                                        "defaultValue" : 136.121434428193,
                                                        "interp" : "eioe"
                                                      }
                                                    },
                                                    "effects" : [

                                                    ],
                                                    "start" : 156,
                                                    "duration" : 14,
                                                    "mediaStart" : 0,
                                                    "mediaDuration" : 14,
                                                    "scalar" : 1,
                                                    "metadata" : {
                                                      "clipSpeedAttribute" : false
                                                    },
                                                    "animationTracks" : {

                                                    }
                                                  },
                                                  {
                                                    "id" : 353,
                                                    "_type" : "IMFile",
                                                    "src" : 33,
                                                    "trackNumber" : 0,
                                                    "trimStartSum" : 0,
                                                    "attributes" : {
                                                      "ident" : "deploy-128"
                                                    },
                                                    "parameters" : {
                                                      "translation0" : {
                                                        "type" : "double",
                                                        "defaultValue" : 716.880498533367,
                                                        "interp" : "eioe"
                                                      },
                                                      "translation1" : {
                                                        "type" : "double",
                                                        "defaultValue" : 84.1214344281821,
                                                        "interp" : "eioe"
                                                      }
                                                    },
                                                    "effects" : [

                                                    ],
                                                    "start" : 170,
                                                    "duration" : 13,
                                                    "mediaStart" : 0,
                                                    "mediaDuration" : 13,
                                                    "scalar" : 1,
                                                    "metadata" : {
                                                      "clipSpeedAttribute" : false
                                                    },
                                                    "animationTracks" : {

                                                    }
                                                  },
                                                  {
                                                    "id" : 354,
                                                    "_type" : "IMFile",
                                                    "src" : 34,
                                                    "trackNumber" : 0,
                                                    "trimStartSum" : 0,
                                                    "attributes" : {
                                                      "ident" : "cronjob-128"
                                                    },
                                                    "parameters" : {
                                                      "translation0" : {
                                                        "type" : "double",
                                                        "defaultValue" : 870.880498533812,
                                                        "interp" : "eioe"
                                                      },
                                                      "translation1" : {
                                                        "type" : "double",
                                                        "defaultValue" : 135.81875444932,
                                                        "interp" : "eioe"
                                                      }
                                                    },
                                                    "effects" : [

                                                    ],
                                                    "start" : 183,
                                                    "duration" : 17,
                                                    "mediaStart" : 0,
                                                    "mediaDuration" : 17,
                                                    "scalar" : 1,
                                                    "metadata" : {
                                                      "clipSpeedAttribute" : false
                                                    },
                                                    "animationTracks" : {

                                                    }
                                                  }
                                                ],
                                                  "ident" : "",
                                                  "audioMuted" : false,
                                                  "videoHidden" : false,
                                                  "magnetic" : false,
                                                  "matte" : 0,
                                                  "metadata" : {
                                                    "IsLocked" : "False",
                                                    "WinTrackHeight" : "3.6077993365582e-314"
                                                  }
                                              }
                                            ],
                                            "attributes" : {
                                              "ident" : "Group 1",
                                              "gain" : 1.0,
                                              "mixToMono" : false
                                            },
                                            "effects" : [

                                            ],
                                            "start" : 0,
                                            "duration" : 200,
                                            "mediaStart" : 0.0,
                                            "mediaDuration" : 200.0,
                                            "scalar" : 1,
                                            "metadata" : {
                                              "IsGroupExpanded" : "False"
                                            },
                                            "animationTracks" : {

                                            }
                                          }
                                        ],
                                          "ident" : "",
                                          "audioMuted" : false,
                                          "videoHidden" : false,
                                          "magnetic" : false,
                                          "matte" : 0,
                                          "metadata" : {
                                            "IsLocked" : "False",
                                            "WinTrackHeight" : "0"
                                          }
                                      },
                                      {
                                        "trackIndex" : 1,
                                        "medias" : [
                                          {
                                            "id" : 355,
                                            "_type" : "IMFile",
                                            "src" : 35,
                                            "trackNumber" : 0,
                                            "trimStartSum" : 0,
                                            "attributes" : {
                                              "ident" : "k8sfavicon"
                                            },
                                            "parameters" : {
                                              "translation0" : {
                                                "type" : "double",
                                                "defaultValue" : -822.559750733209,
                                                "interp" : "eioe"
                                              },
                                              "translation1" : {
                                                "type" : "double",
                                                "defaultValue" : 466.970094438544,
                                                "interp" : "eioe"
                                              },
                                              "scale0" : {
                                                "type" : "double",
                                                "defaultValue" : 0.335937500000757,
                                                "interp" : "eioe"
                                              },
                                              "scale1" : {
                                                "type" : "double",
                                                "defaultValue" : 0.335937500000757,
                                                "interp" : "eioe"
                                              }
                                            },
                                            "effects" : [

                                            ],
                                            "start" : 0,
                                            "duration" : 200,
                                            "mediaStart" : 0,
                                            "mediaDuration" : 200,
                                            "scalar" : 1,
                                            "metadata" : {
                                              "clipSpeedAttribute" : false
                                            },
                                            "animationTracks" : {

                                            }
                                          }
                                        ],
                                          "ident" : "",
                                          "audioMuted" : false,
                                          "videoHidden" : false,
                                          "magnetic" : false,
                                          "matte" : 0,
                                          "metadata" : {
                                            "IsLocked" : "False",
                                            "WinTrackHeight" : "3.6077993365582e-314"
                                          }
                                      }
                                    ],
                                    "attributes" : {
                                      "ident" : "Group 2",
                                      "gain" : 1.0,
                                      "mixToMono" : false
                                    },
                                    "effects" : [

                                    ],
                                    "start" : 0,
                                    "duration" : 200,
                                    "mediaStart" : 0.0,
                                    "mediaDuration" : 200.0,
                                    "scalar" : 1,
                                    "metadata" : {
                                      "IsGroupExpanded" : "False"
                                    },
                                    "animationTracks" : {

                                    }
                                  }
                                ],
                                  "ident" : "",
                                  "audioMuted" : false,
                                  "videoHidden" : false,
                                  "magnetic" : false,
                                  "matte" : 0,
                                  "metadata" : {
                                    "IsLocked" : "False",
                                    "WinTrackHeight" : "0"
                                  }
                              },
                              {
                                "trackIndex" : 1,
                                "medias" : [
                                  {
                                    "id" : 356,
                                    "_type" : "AMFile",
                                    "src" : 36,
                                    "trackNumber" : 0,
                                    "attributes" : {
                                      "ident" : "wave",
                                      "gain" : 1.0,
                                      "mixToMono" : false
                                    },
                                      "channelNumber" : "0,1",
                                    "parameters" : {
                                      "volume" : {
                                        "type" : "double",
                                        "keyframes" : [
                                          {
                                            "endTime" : -1,
                                            "time" : -1,
                                            "value" : 1.0,
                                            "duration" : 0
                                          },
                                          {
                                            "endTime" : 0,
                                            "time" : 0,
                                            "value" : 0.0,
                                            "duration" : 0
                                          },
                                          {
                                            "endTime" : 82,
                                            "time" : 82,
                                            "value" : 0.384615384615384,
                                            "duration" : 0
                                          }
                                        ]
                                      }
                                    },
                                    "effects" : [

                                    ],
                                    "start" : 0,
                                    "duration" : 103,
                                    "mediaStart" : 0,
                                    "mediaDuration" : 103,
                                    "scalar" : 1,
                                    "metadata" : {
                                      "clipSpeedAttribute" : false
                                    },
                                    "animationTracks" : {

                                    }
                                  },
                                  {
                                    "id" : 357,
                                    "_type" : "AMFile",
                                    "src" : 36,
                                    "trackNumber" : 0,
                                    "attributes" : {
                                      "ident" : "wave",
                                      "gain" : 1.0,
                                      "mixToMono" : false
                                    },
                                      "channelNumber" : "0,1",
                                    "parameters" : {
                                      "volume" : {
                                        "type" : "double",
                                        "keyframes" : [
                                          {
                                            "endTime" : 0,
                                            "time" : 0,
                                            "value" : 0.770507364975449,
                                            "duration" : 0
                                          },
                                          {
                                            "endTime" : 134,
                                            "time" : 134,
                                            "value" : 0.232045826513911,
                                            "duration" : 0
                                          },
                                          {
                                            "endTime" : 200,
                                            "time" : 200,
                                            "value" : 0.0,
                                            "duration" : 0
                                          },
                                          {
                                            "endTime" : 201,
                                            "time" : 201,
                                            "value" : 1.0,
                                            "duration" : 0
                                          }
                                        ]
                                      }
                                    },
                                    "effects" : [

                                    ],
                                    "start" : 103,
                                    "duration" : 97,
                                    "mediaStart" : 103,
                                    "mediaDuration" : 97,
                                    "scalar" : 1,
                                    "metadata" : {
                                      "clipSpeedAttribute" : false
                                    },
                                    "animationTracks" : {

                                    }
                                  }
                                ],
                                  "ident" : "",
                                  "audioMuted" : false,
                                  "videoHidden" : false,
                                  "magnetic" : false,
                                  "matte" : 0,
                                  "metadata" : {
                                    "IsLocked" : "False",
                                    "WinTrackHeight" : "2.26715762571713e-312"
                                  }
                              }
                            ],
                            "attributes" : {
                              "ident" : "Group 1",
                              "gain" : 1.0,
                              "mixToMono" : false
                            },
                            "effects" : [

                            ],
                            "start" : 0,
                            "duration" : 200,
                            "mediaStart" : 0.0,
                            "mediaDuration" : 200.0,
                            "scalar" : 1,
                            "metadata" : {
                              "IsGroupExpanded" : "False"
                            },
                            "animationTracks" : {

                            }
                          }
                        ],
                          "ident" : "",
                          "audioMuted" : false,
                          "videoHidden" : false,
                          "magnetic" : false,
                          "matte" : 0,
                          "metadata" : {
                            "IsLocked" : "False",
                            "WinTrackHeight" : "1.21506007083132e-312"
                          }
                      }
                    ],
                    "attributes" : {
                      "ident" : "end",
                      "gain" : 1.0,
                      "mixToMono" : false
                    },
                    "effects" : [

                    ],
                    "start" : 3700,
                    "duration" : 200,
                    "mediaStart" : 0.0,
                    "mediaDuration" : 200.0,
                    "scalar" : 1,
                    "metadata" : {
                      "IsGroupExpanded" : "False"
                    },
                    "animationTracks" : {

                    }
                  }
                ]
              },
              {
                "trackIndex" : 2,
                "medias" : [
                ]
              }
            ]
          }
        }
      ]
    },
    "trackAttributes" : [
      {
        "ident" : "",
        "audioMuted" : false,
        "videoHidden" : false,
        "magnetic" : false,
        "matte" : 0,
        "metadata" : {
          "IsLocked" : "False",
          "WinTrackHeight" : "56"
        }
      },
      {
        "ident" : "",
        "audioMuted" : false,
        "videoHidden" : false,
        "magnetic" : false,
        "matte" : 0,
        "metadata" : {
          "IsLocked" : "False",
          "WinTrackHeight" : "56"
        }
      },
      {
        "ident" : "",
        "audioMuted" : false,
        "videoHidden" : false,
        "magnetic" : false,
        "matte" : 0,
        "metadata" : {
          "IsLocked" : "False",
          "WinTrackHeight" : "56"
        }
      }
    ],
    "captionAttributes" : {
      "enabled" : true,
      "fontName" : "Arial",
      "fontSize" : 64,
      "backgroundColor" : [ 0, 0, 0, 191],
      "foregroundColor" : [ 255, 255, 255, 255],
      "lang" : "en",
      "alignment" : 0,
      "defaultFontSize" : true,
      "opacity" : 0.5,
      "backgroundEnabled" : true,
      "backgroundOnlyAroundText" : true
    },
    "backgroundColor" : [ 30, 30, 30, 255]
  },
  "metadata" : {
    "AutoSaveFile" : "C:\\Users\\lianduan\\AppData\\Local\\TechSmith\\Camtasia Studio\\19.0\\Auto-Saves\\2-2 Install Minikube on Oracle Linux 8403a516.autosave.tscproj",
    "CanvasZoom" : 50,
    "Date" : "2021-01-07 01:10:59 PM",
    "IsAutoSave" : "0",
    "Language" : "ENU",
    "ProfileName" : "",
    "ProjectDimensionsChanged" : "1",
    "Title" : "2-2 Install Minikube on Oracle Linux 8",
    "audioNarrationNotes" : "",
    "calloutStyle" : "Basic",
    "canvasDetached" : "False",
    "canvasPositionHeight" : "0",
    "canvasPositionLeft" : "0",
    "canvasPositionTop" : "0",
    "canvasPositionWidth" : "0"
  }
}
