{
  "title" : "",
  "description" : "",
  "author" : "",
  "targetLoudness" : -18.0,
  "shouldApplyLoudnessNormalization" : true,
  "videoFormatFrameRate" : 30,
  "audioFormatSampleRate" : 44100,
  "width" : 1920.0,
  "height" : 1080.0,
  "version" : "3.0",
  "editRate" : 30,
  "authoringClientName" :  {
    "name" : "Camtasia",
    "platform" : "Windows",
    "version" : "19.0"
  },
  "sourceBin" : [
    {
      "id" : 1,
      "src" : "D:\\Code\\K8S\\video\\rec\\Rec 01-08-21.trec",
      "rect" : [0, 0, 1920, 1080],
      "lastMod" : "20210108T204748",
      "sourceTracks" : [
        {
          "range" : [0, 15132],
          "type" : 0,
          "editRate" : 30,
          "trackRect" : [0, 0, 1920, 1080],
          "sampleRate" : 26,
          "bitDepth" : 0,
          "numChannels" : 0,
          "integratedLUFS" : 100.0,
          "peakLevel" : -1.0,
          "metaData" : "2b7b6a00-7a1f-11e2-83d0-0017f200be7f;2b7b6aef-7a1f-11e2-83d0-0017f200be7f;2b7b6af0-7a1f-11e2-83d0-0017f200be7f;2b7b6af1-7a1f-11e2-83d0-0017f200be7f;2b7b6af2-7a1f-11e2-83d0-0017f200be7f;2b7b6af3-7a1f-11e2-83d0-0017f200be7f;2b7b6af5-7a1f-11e2-83d0-0017f200be7f;2b7b6af6-7a1f-11e2-83d0-0017f200be7f;2b7b6af7-7a1f-11e2-83d0-0017f200be7f;2b7b6af8-7a1f-11e2-83d0-0017f200be7f;2b7b6af9-7a1f-11e2-83d0-0017f200be7f;2b7b6afa-7a1f-11e2-83d0-0017f200be7f;"
        },
        {
          "range" : [0, 22227968],
          "type" : 2,
          "editRate" : 44100,
          "trackRect" : [0, 0, 0, 0],
          "sampleRate" : 44100,
          "bitDepth" : 16,
          "numChannels" : 2,
          "integratedLUFS" : -44.2120282086918,
          "peakLevel" : 0.056976318359375,
          "metaData" : ""
        }
      ],
      "metadata" : {
        "timeAdded" : "20210108T204748.840768"
      }
    },
    {
      "id" : 2,
      "src" : "D:\\Code\\K8S\\video\\2\\Narration_2-4 Install K8s Plugin in VS Code 1.m4a",
      "rect" : [0, 0, 0, 0],
      "lastMod" : "20210109T115032",
      "sourceTracks" : [
        {
          "range" : [0, 123065760],
          "type" : 2,
          "editRate" : 10000000,
          "trackRect" : [0, 0, 0, 0],
          "sampleRate" : 44100,
          "bitDepth" : 16,
          "numChannels" : 2,
          "integratedLUFS" : -42.8162540475279,
          "peakLevel" : 0.0430293865501881,
          "metaData" : ""
        }
      ],
      "metadata" : {
        "timeAdded" : "20210109T115035.424127"
      }
    },
    {
      "id" : 3,
      "src" : "D:\\Code\\K8S\\video\\2\\Narration_2-4 Install K8s Plugin in VS Code 2.m4a",
      "rect" : [0, 0, 0, 0],
      "lastMod" : "20210109T120025",
      "sourceTracks" : [
        {
          "range" : [0, 34597732],
          "type" : 2,
          "editRate" : 10000000,
          "trackRect" : [0, 0, 0, 0],
          "sampleRate" : 44100,
          "bitDepth" : 16,
          "numChannels" : 2,
          "integratedLUFS" : -40.0483948868615,
          "peakLevel" : 0.0629133358597755,
          "metaData" : ""
        }
      ],
      "metadata" : {
        "timeAdded" : "20210109T120031.965676"
      }
    },
    {
      "id" : 4,
      "src" : "D:\\Code\\K8S\\video\\2\\Narration_2-4 Install K8s Plugin in VS Code 3.m4a",
      "rect" : [0, 0, 0, 0],
      "lastMod" : "20210109T120439",
      "sourceTracks" : [
        {
          "range" : [0, 108204992],
          "type" : 2,
          "editRate" : 10000000,
          "trackRect" : [0, 0, 0, 0],
          "sampleRate" : 44100,
          "bitDepth" : 16,
          "numChannels" : 2,
          "integratedLUFS" : -41.455819482413,
          "peakLevel" : 0.0511420890688896,
          "metaData" : ""
        }
      ],
      "metadata" : {
        "timeAdded" : "20210109T120447.862466"
      }
    },
    {
      "id" : 5,
      "src" : "D:\\Code\\K8S\\video\\2\\Narration_2-4 Install K8s Plugin in VS Code 4.m4a",
      "rect" : [0, 0, 0, 0],
      "lastMod" : "20210109T120648",
      "sourceTracks" : [
        {
          "range" : [0, 45046668],
          "type" : 2,
          "editRate" : 10000000,
          "trackRect" : [0, 0, 0, 0],
          "sampleRate" : 44100,
          "bitDepth" : 16,
          "numChannels" : 2,
          "integratedLUFS" : -41.3620310210945,
          "peakLevel" : 0.0465351901948452,
          "metaData" : ""
        }
      ],
      "metadata" : {
        "timeAdded" : "20210109T120655.709078"
      }
    },
    {
      "id" : 6,
      "src" : "D:\\Code\\K8S\\video\\2\\Narration_2-4 Install K8s Plugin in VS Code 5.m4a",
      "rect" : [0, 0, 0, 0],
      "lastMod" : "20210109T121013",
      "sourceTracks" : [
        {
          "range" : [0, 47136508],
          "type" : 2,
          "editRate" : 10000000,
          "trackRect" : [0, 0, 0, 0],
          "sampleRate" : 44100,
          "bitDepth" : 16,
          "numChannels" : 2,
          "integratedLUFS" : -41.2664290456638,
          "peakLevel" : 0.0413328893482685,
          "metaData" : ""
        }
      ],
      "metadata" : {
        "timeAdded" : "20210109T121019.734114"
      }
    },
    {
      "id" : 7,
      "src" : "D:\\Code\\K8S\\video\\2\\Narration_2-4 Install K8s Plugin in VS Code 6.m4a",
      "rect" : [0, 0, 0, 0],
      "lastMod" : "20210109T121831",
      "sourceTracks" : [
        {
          "range" : [0, 102632200],
          "type" : 2,
          "editRate" : 10000000,
          "trackRect" : [0, 0, 0, 0],
          "sampleRate" : 44100,
          "bitDepth" : 16,
          "numChannels" : 2,
          "integratedLUFS" : -44.0395075849554,
          "peakLevel" : 0.0378959439694881,
          "metaData" : ""
        }
      ],
      "metadata" : {
        "timeAdded" : "20210109T121838.732685"
      }
    },
    {
      "id" : 8,
      "src" : "C:\\ProgramData\\TechSmith\\Camtasia Studio 19\\Library 4.0\\User Libraries\\K8s\\start.asset\\wave1.png",
      "rect" : [0, 0, 1907, 383],
      "lastMod" : "20210105T163238",
      "sourceTracks" : [
        {
          "range" : [0, 1],
          "type" : 1,
          "editRate" : 10000000,
          "trackRect" : [0, 0, 1907, 383],
          "sampleRate" : 0,
          "bitDepth" : 24,
          "numChannels" : 0,
          "integratedLUFS" : 100.0,
          "peakLevel" : -1.0,
          "metaData" : ""
        }
      ],
      "metadata" : {
        "assetLibraryId" : "75d65985-041c-43c4-a44b-f79aada87cf9",
        "timeAdded" : "20210109T122329.432406"
      }
    },
    {
      "id" : 9,
      "src" : "C:\\ProgramData\\TechSmith\\Camtasia Studio 19\\Library 4.0\\User Libraries\\K8s\\start.asset\\wave2.png",
      "rect" : [0, 0, 1906, 341],
      "lastMod" : "20210105T163731",
      "sourceTracks" : [
        {
          "range" : [0, 1],
          "type" : 1,
          "editRate" : 10000000,
          "trackRect" : [0, 0, 1906, 341],
          "sampleRate" : 0,
          "bitDepth" : 24,
          "numChannels" : 0,
          "integratedLUFS" : 100.0,
          "peakLevel" : -1.0,
          "metaData" : ""
        }
      ],
      "metadata" : {
        "assetLibraryId" : "75d65985-041c-43c4-a44b-f79aada87cf9",
        "timeAdded" : "20210109T122329.432406"
      }
    },
    {
      "id" : 10,
      "src" : "C:\\ProgramData\\TechSmith\\Camtasia Studio 19\\Library 4.0\\User Libraries\\K8s\\start.asset\\wave3.png",
      "rect" : [0, 0, 1903, 380],
      "lastMod" : "20210105T163725",
      "sourceTracks" : [
        {
          "range" : [0, 1],
          "type" : 1,
          "editRate" : 10000000,
          "trackRect" : [0, 0, 1903, 380],
          "sampleRate" : 0,
          "bitDepth" : 24,
          "numChannels" : 0,
          "integratedLUFS" : 100.0,
          "peakLevel" : -1.0,
          "metaData" : ""
        }
      ],
      "metadata" : {
        "assetLibraryId" : "75d65985-041c-43c4-a44b-f79aada87cf9",
        "timeAdded" : "20210109T122329.432406"
      }
    },
    {
      "id" : 11,
      "src" : "C:\\ProgramData\\TechSmith\\Camtasia Studio 19\\Library 4.0\\User Libraries\\K8s\\start.asset\\control-plane-128.png",
      "rect" : [0, 0, 128, 128],
      "lastMod" : "20201224T160827",
      "sourceTracks" : [
        {
          "range" : [0, 1],
          "type" : 1,
          "editRate" : 10000000,
          "trackRect" : [0, 0, 128, 128],
          "sampleRate" : 0,
          "bitDepth" : 32,
          "numChannels" : 0,
          "integratedLUFS" : 100.0,
          "peakLevel" : -1.0,
          "metaData" : ""
        }
      ],
      "metadata" : {
        "assetLibraryId" : "75d65985-041c-43c4-a44b-f79aada87cf9",
        "timeAdded" : "20210109T122329.432406"
      }
    },
    {
      "id" : 12,
      "src" : "C:\\ProgramData\\TechSmith\\Camtasia Studio 19\\Library 4.0\\User Libraries\\K8s\\start.asset\\etcd-128.png",
      "rect" : [0, 0, 128, 128],
      "lastMod" : "20201224T160827",
      "sourceTracks" : [
        {
          "range" : [0, 1],
          "type" : 1,
          "editRate" : 10000000,
          "trackRect" : [0, 0, 128, 128],
          "sampleRate" : 0,
          "bitDepth" : 32,
          "numChannels" : 0,
          "integratedLUFS" : 100.0,
          "peakLevel" : -1.0,
          "metaData" : ""
        }
      ],
      "metadata" : {
        "assetLibraryId" : "75d65985-041c-43c4-a44b-f79aada87cf9",
        "timeAdded" : "20210109T122329.432406"
      }
    },
    {
      "id" : 13,
      "src" : "C:\\ProgramData\\TechSmith\\Camtasia Studio 19\\Library 4.0\\User Libraries\\K8s\\start.asset\\node-128.png",
      "rect" : [0, 0, 128, 128],
      "lastMod" : "20201224T160827",
      "sourceTracks" : [
        {
          "range" : [0, 1],
          "type" : 1,
          "editRate" : 10000000,
          "trackRect" : [0, 0, 128, 128],
          "sampleRate" : 0,
          "bitDepth" : 32,
          "numChannels" : 0,
          "integratedLUFS" : 100.0,
          "peakLevel" : -1.0,
          "metaData" : ""
        }
      ],
      "metadata" : {
        "assetLibraryId" : "75d65985-041c-43c4-a44b-f79aada87cf9",
        "timeAdded" : "20210109T122329.432406"
      }
    },
    {
      "id" : 14,
      "src" : "C:\\ProgramData\\TechSmith\\Camtasia Studio 19\\Library 4.0\\User Libraries\\K8s\\start.asset\\ns-128.png",
      "rect" : [0, 0, 128, 128],
      "lastMod" : "20201224T160827",
      "sourceTracks" : [
        {
          "range" : [0, 1],
          "type" : 1,
          "editRate" : 10000000,
          "trackRect" : [0, 0, 128, 128],
          "sampleRate" : 0,
          "bitDepth" : 32,
          "numChannels" : 0,
          "integratedLUFS" : 100.0,
          "peakLevel" : -1.0,
          "metaData" : ""
        }
      ],
      "metadata" : {
        "assetLibraryId" : "75d65985-041c-43c4-a44b-f79aada87cf9",
        "timeAdded" : "20210109T122329.432406"
      }
    },
    {
      "id" : 15,
      "src" : "C:\\ProgramData\\TechSmith\\Camtasia Studio 19\\Library 4.0\\User Libraries\\K8s\\start.asset\\pod-128.png",
      "rect" : [0, 0, 128, 128],
      "lastMod" : "20201224T160827",
      "sourceTracks" : [
        {
          "range" : [0, 1],
          "type" : 1,
          "editRate" : 10000000,
          "trackRect" : [0, 0, 128, 128],
          "sampleRate" : 0,
          "bitDepth" : 32,
          "numChannels" : 0,
          "integratedLUFS" : 100.0,
          "peakLevel" : -1.0,
          "metaData" : ""
        }
      ],
      "metadata" : {
        "assetLibraryId" : "75d65985-041c-43c4-a44b-f79aada87cf9",
        "timeAdded" : "20210109T122329.432406"
      }
    },
    {
      "id" : 16,
      "src" : "C:\\ProgramData\\TechSmith\\Camtasia Studio 19\\Library 4.0\\User Libraries\\K8s\\start.asset\\secret-128.png",
      "rect" : [0, 0, 128, 128],
      "lastMod" : "20201224T160827",
      "sourceTracks" : [
        {
          "range" : [0, 1],
          "type" : 1,
          "editRate" : 10000000,
          "trackRect" : [0, 0, 128, 128],
          "sampleRate" : 0,
          "bitDepth" : 32,
          "numChannels" : 0,
          "integratedLUFS" : 100.0,
          "peakLevel" : -1.0,
          "metaData" : ""
        }
      ],
      "metadata" : {
        "assetLibraryId" : "75d65985-041c-43c4-a44b-f79aada87cf9",
        "timeAdded" : "20210109T122329.432406"
      }
    },
    {
      "id" : 17,
      "src" : "C:\\ProgramData\\TechSmith\\Camtasia Studio 19\\Library 4.0\\User Libraries\\K8s\\start.asset\\svc-128.png",
      "rect" : [0, 0, 128, 128],
      "lastMod" : "20201224T160827",
      "sourceTracks" : [
        {
          "range" : [0, 1],
          "type" : 1,
          "editRate" : 10000000,
          "trackRect" : [0, 0, 128, 128],
          "sampleRate" : 0,
          "bitDepth" : 32,
          "numChannels" : 0,
          "integratedLUFS" : 100.0,
          "peakLevel" : -1.0,
          "metaData" : ""
        }
      ],
      "metadata" : {
        "assetLibraryId" : "75d65985-041c-43c4-a44b-f79aada87cf9",
        "timeAdded" : "20210109T122329.433407"
      }
    },
    {
      "id" : 18,
      "src" : "C:\\ProgramData\\TechSmith\\Camtasia Studio 19\\Library 4.0\\User Libraries\\K8s\\start.asset\\rs-128.png",
      "rect" : [0, 0, 128, 128],
      "lastMod" : "20201224T160827",
      "sourceTracks" : [
        {
          "range" : [0, 1],
          "type" : 1,
          "editRate" : 10000000,
          "trackRect" : [0, 0, 128, 128],
          "sampleRate" : 0,
          "bitDepth" : 32,
          "numChannels" : 0,
          "integratedLUFS" : 100.0,
          "peakLevel" : -1.0,
          "metaData" : ""
        }
      ],
      "metadata" : {
        "assetLibraryId" : "75d65985-041c-43c4-a44b-f79aada87cf9",
        "timeAdded" : "20210109T122329.433407"
      }
    },
    {
      "id" : 19,
      "src" : "C:\\ProgramData\\TechSmith\\Camtasia Studio 19\\Library 4.0\\User Libraries\\K8s\\start.asset\\vol-128.png",
      "rect" : [0, 0, 128, 128],
      "lastMod" : "20201224T160827",
      "sourceTracks" : [
        {
          "range" : [0, 1],
          "type" : 1,
          "editRate" : 10000000,
          "trackRect" : [0, 0, 128, 128],
          "sampleRate" : 0,
          "bitDepth" : 32,
          "numChannels" : 0,
          "integratedLUFS" : 100.0,
          "peakLevel" : -1.0,
          "metaData" : ""
        }
      ],
      "metadata" : {
        "assetLibraryId" : "75d65985-041c-43c4-a44b-f79aada87cf9",
        "timeAdded" : "20210109T122329.433407"
      }
    },
    {
      "id" : 20,
      "src" : "C:\\ProgramData\\TechSmith\\Camtasia Studio 19\\Library 4.0\\User Libraries\\K8s\\start.asset\\deploy-128.png",
      "rect" : [0, 0, 128, 128],
      "lastMod" : "20201224T160827",
      "sourceTracks" : [
        {
          "range" : [0, 1],
          "type" : 1,
          "editRate" : 10000000,
          "trackRect" : [0, 0, 128, 128],
          "sampleRate" : 0,
          "bitDepth" : 32,
          "numChannels" : 0,
          "integratedLUFS" : 100.0,
          "peakLevel" : -1.0,
          "metaData" : ""
        }
      ],
      "metadata" : {
        "assetLibraryId" : "75d65985-041c-43c4-a44b-f79aada87cf9",
        "timeAdded" : "20210109T122329.433407"
      }
    },
    {
      "id" : 21,
      "src" : "C:\\ProgramData\\TechSmith\\Camtasia Studio 19\\Library 4.0\\User Libraries\\K8s\\start.asset\\cronjob-128.png",
      "rect" : [0, 0, 128, 128],
      "lastMod" : "20201224T160827",
      "sourceTracks" : [
        {
          "range" : [0, 1],
          "type" : 1,
          "editRate" : 10000000,
          "trackRect" : [0, 0, 128, 128],
          "sampleRate" : 0,
          "bitDepth" : 32,
          "numChannels" : 0,
          "integratedLUFS" : 100.0,
          "peakLevel" : -1.0,
          "metaData" : ""
        }
      ],
      "metadata" : {
        "assetLibraryId" : "75d65985-041c-43c4-a44b-f79aada87cf9",
        "timeAdded" : "20210109T122329.433407"
      }
    },
    {
      "id" : 22,
      "src" : "C:\\ProgramData\\TechSmith\\Camtasia Studio 19\\Library 4.0\\User Libraries\\K8s\\start.asset\\k8sfavicon.png",
      "rect" : [0, 0, 512, 512],
      "lastMod" : "20210105T165021",
      "sourceTracks" : [
        {
          "range" : [0, 1],
          "type" : 1,
          "editRate" : 10000000,
          "trackRect" : [0, 0, 512, 512],
          "sampleRate" : 0,
          "bitDepth" : 32,
          "numChannels" : 0,
          "integratedLUFS" : 100.0,
          "peakLevel" : -1.0,
          "metaData" : ""
        }
      ],
      "metadata" : {
        "assetLibraryId" : "75d65985-041c-43c4-a44b-f79aada87cf9",
        "timeAdded" : "20210109T122329.433407"
      }
    },
    {
      "id" : 23,
      "src" : "C:\\ProgramData\\TechSmith\\Camtasia Studio 19\\Library 4.0\\User Libraries\\K8s\\start.asset\\wave.mp3",
      "rect" : [0, 0, 0, 0],
      "lastMod" : "20210105T195352",
      "sourceTracks" : [
        {
          "range" : [0, 185467500],
          "type" : 2,
          "editRate" : 10000000,
          "trackRect" : [0, 0, 0, 0],
          "sampleRate" : 44100,
          "bitDepth" : 0,
          "numChannels" : 2,
          "integratedLUFS" : -16.6955131625049,
          "peakLevel" : 0.940275430679321,
          "metaData" : ""
        }
      ],
      "metadata" : {
        "assetLibraryId" : "75d65985-041c-43c4-a44b-f79aada87cf9",
        "timeAdded" : "20210109T122329.433407"
      }
    },
    {
      "id" : 24,
      "src" : "C:\\ProgramData\\TechSmith\\Camtasia Studio 19\\Library 4.0\\User Libraries\\K8s\\end.asset\\wave1.png",
      "rect" : [0, 0, 1907, 383],
      "lastMod" : "20210105T163238",
      "sourceTracks" : [
        {
          "range" : [0, 1],
          "type" : 1,
          "editRate" : 10000000,
          "trackRect" : [0, 0, 1907, 383],
          "sampleRate" : 0,
          "bitDepth" : 24,
          "numChannels" : 0,
          "integratedLUFS" : 100.0,
          "peakLevel" : -1.0,
          "metaData" : ""
        }
      ],
      "metadata" : {
        "assetLibraryId" : "c49e4026-371e-4445-9c95-bf86c5e3c498",
        "timeAdded" : "20210109T122512.324000"
      }
    },
    {
      "id" : 25,
      "src" : "C:\\ProgramData\\TechSmith\\Camtasia Studio 19\\Library 4.0\\User Libraries\\K8s\\end.asset\\wave2.png",
      "rect" : [0, 0, 1906, 341],
      "lastMod" : "20210105T163731",
      "sourceTracks" : [
        {
          "range" : [0, 1],
          "type" : 1,
          "editRate" : 10000000,
          "trackRect" : [0, 0, 1906, 341],
          "sampleRate" : 0,
          "bitDepth" : 24,
          "numChannels" : 0,
          "integratedLUFS" : 100.0,
          "peakLevel" : -1.0,
          "metaData" : ""
        }
      ],
      "metadata" : {
        "assetLibraryId" : "c49e4026-371e-4445-9c95-bf86c5e3c498",
        "timeAdded" : "20210109T122512.324000"
      }
    },
    {
      "id" : 26,
      "src" : "C:\\ProgramData\\TechSmith\\Camtasia Studio 19\\Library 4.0\\User Libraries\\K8s\\end.asset\\wave3.png",
      "rect" : [0, 0, 1903, 380],
      "lastMod" : "20210105T163725",
      "sourceTracks" : [
        {
          "range" : [0, 1],
          "type" : 1,
          "editRate" : 10000000,
          "trackRect" : [0, 0, 1903, 380],
          "sampleRate" : 0,
          "bitDepth" : 24,
          "numChannels" : 0,
          "integratedLUFS" : 100.0,
          "peakLevel" : -1.0,
          "metaData" : ""
        }
      ],
      "metadata" : {
        "assetLibraryId" : "c49e4026-371e-4445-9c95-bf86c5e3c498",
        "timeAdded" : "20210109T122512.324000"
      }
    },
    {
      "id" : 27,
      "src" : "C:\\ProgramData\\TechSmith\\Camtasia Studio 19\\Library 4.0\\User Libraries\\K8s\\end.asset\\control-plane-128.png",
      "rect" : [0, 0, 128, 128],
      "lastMod" : "20201224T160827",
      "sourceTracks" : [
        {
          "range" : [0, 1],
          "type" : 1,
          "editRate" : 10000000,
          "trackRect" : [0, 0, 128, 128],
          "sampleRate" : 0,
          "bitDepth" : 32,
          "numChannels" : 0,
          "integratedLUFS" : 100.0,
          "peakLevel" : -1.0,
          "metaData" : ""
        }
      ],
      "metadata" : {
        "assetLibraryId" : "c49e4026-371e-4445-9c95-bf86c5e3c498",
        "timeAdded" : "20210109T122512.324000"
      }
    },
    {
      "id" : 28,
      "src" : "C:\\ProgramData\\TechSmith\\Camtasia Studio 19\\Library 4.0\\User Libraries\\K8s\\end.asset\\etcd-128.png",
      "rect" : [0, 0, 128, 128],
      "lastMod" : "20201224T160827",
      "sourceTracks" : [
        {
          "range" : [0, 1],
          "type" : 1,
          "editRate" : 10000000,
          "trackRect" : [0, 0, 128, 128],
          "sampleRate" : 0,
          "bitDepth" : 32,
          "numChannels" : 0,
          "integratedLUFS" : 100.0,
          "peakLevel" : -1.0,
          "metaData" : ""
        }
      ],
      "metadata" : {
        "assetLibraryId" : "c49e4026-371e-4445-9c95-bf86c5e3c498",
        "timeAdded" : "20210109T122512.324000"
      }
    },
    {
      "id" : 29,
      "src" : "C:\\ProgramData\\TechSmith\\Camtasia Studio 19\\Library 4.0\\User Libraries\\K8s\\end.asset\\node-128.png",
      "rect" : [0, 0, 128, 128],
      "lastMod" : "20201224T160827",
      "sourceTracks" : [
        {
          "range" : [0, 1],
          "type" : 1,
          "editRate" : 10000000,
          "trackRect" : [0, 0, 128, 128],
          "sampleRate" : 0,
          "bitDepth" : 32,
          "numChannels" : 0,
          "integratedLUFS" : 100.0,
          "peakLevel" : -1.0,
          "metaData" : ""
        }
      ],
      "metadata" : {
        "assetLibraryId" : "c49e4026-371e-4445-9c95-bf86c5e3c498",
        "timeAdded" : "20210109T122512.324000"
      }
    },
    {
      "id" : 30,
      "src" : "C:\\ProgramData\\TechSmith\\Camtasia Studio 19\\Library 4.0\\User Libraries\\K8s\\end.asset\\ns-128.png",
      "rect" : [0, 0, 128, 128],
      "lastMod" : "20201224T160827",
      "sourceTracks" : [
        {
          "range" : [0, 1],
          "type" : 1,
          "editRate" : 10000000,
          "trackRect" : [0, 0, 128, 128],
          "sampleRate" : 0,
          "bitDepth" : 32,
          "numChannels" : 0,
          "integratedLUFS" : 100.0,
          "peakLevel" : -1.0,
          "metaData" : ""
        }
      ],
      "metadata" : {
        "assetLibraryId" : "c49e4026-371e-4445-9c95-bf86c5e3c498",
        "timeAdded" : "20210109T122512.324000"
      }
    },
    {
      "id" : 31,
      "src" : "C:\\ProgramData\\TechSmith\\Camtasia Studio 19\\Library 4.0\\User Libraries\\K8s\\end.asset\\pod-128.png",
      "rect" : [0, 0, 128, 128],
      "lastMod" : "20201224T160827",
      "sourceTracks" : [
        {
          "range" : [0, 1],
          "type" : 1,
          "editRate" : 10000000,
          "trackRect" : [0, 0, 128, 128],
          "sampleRate" : 0,
          "bitDepth" : 32,
          "numChannels" : 0,
          "integratedLUFS" : 100.0,
          "peakLevel" : -1.0,
          "metaData" : ""
        }
      ],
      "metadata" : {
        "assetLibraryId" : "c49e4026-371e-4445-9c95-bf86c5e3c498",
        "timeAdded" : "20210109T122512.324000"
      }
    },
    {
      "id" : 32,
      "src" : "C:\\ProgramData\\TechSmith\\Camtasia Studio 19\\Library 4.0\\User Libraries\\K8s\\end.asset\\secret-128.png",
      "rect" : [0, 0, 128, 128],
      "lastMod" : "20201224T160827",
      "sourceTracks" : [
        {
          "range" : [0, 1],
          "type" : 1,
          "editRate" : 10000000,
          "trackRect" : [0, 0, 128, 128],
          "sampleRate" : 0,
          "bitDepth" : 32,
          "numChannels" : 0,
          "integratedLUFS" : 100.0,
          "peakLevel" : -1.0,
          "metaData" : ""
        }
      ],
      "metadata" : {
        "assetLibraryId" : "c49e4026-371e-4445-9c95-bf86c5e3c498",
        "timeAdded" : "20210109T122512.324000"
      }
    },
    {
      "id" : 33,
      "src" : "C:\\ProgramData\\TechSmith\\Camtasia Studio 19\\Library 4.0\\User Libraries\\K8s\\end.asset\\svc-128.png",
      "rect" : [0, 0, 128, 128],
      "lastMod" : "20201224T160827",
      "sourceTracks" : [
        {
          "range" : [0, 1],
          "type" : 1,
          "editRate" : 10000000,
          "trackRect" : [0, 0, 128, 128],
          "sampleRate" : 0,
          "bitDepth" : 32,
          "numChannels" : 0,
          "integratedLUFS" : 100.0,
          "peakLevel" : -1.0,
          "metaData" : ""
        }
      ],
      "metadata" : {
        "assetLibraryId" : "c49e4026-371e-4445-9c95-bf86c5e3c498",
        "timeAdded" : "20210109T122512.324000"
      }
    },
    {
      "id" : 34,
      "src" : "C:\\ProgramData\\TechSmith\\Camtasia Studio 19\\Library 4.0\\User Libraries\\K8s\\end.asset\\rs-128.png",
      "rect" : [0, 0, 128, 128],
      "lastMod" : "20201224T160827",
      "sourceTracks" : [
        {
          "range" : [0, 1],
          "type" : 1,
          "editRate" : 10000000,
          "trackRect" : [0, 0, 128, 128],
          "sampleRate" : 0,
          "bitDepth" : 32,
          "numChannels" : 0,
          "integratedLUFS" : 100.0,
          "peakLevel" : -1.0,
          "metaData" : ""
        }
      ],
      "metadata" : {
        "assetLibraryId" : "c49e4026-371e-4445-9c95-bf86c5e3c498",
        "timeAdded" : "20210109T122512.324000"
      }
    },
    {
      "id" : 35,
      "src" : "C:\\ProgramData\\TechSmith\\Camtasia Studio 19\\Library 4.0\\User Libraries\\K8s\\end.asset\\vol-128.png",
      "rect" : [0, 0, 128, 128],
      "lastMod" : "20201224T160827",
      "sourceTracks" : [
        {
          "range" : [0, 1],
          "type" : 1,
          "editRate" : 10000000,
          "trackRect" : [0, 0, 128, 128],
          "sampleRate" : 0,
          "bitDepth" : 32,
          "numChannels" : 0,
          "integratedLUFS" : 100.0,
          "peakLevel" : -1.0,
          "metaData" : ""
        }
      ],
      "metadata" : {
        "assetLibraryId" : "c49e4026-371e-4445-9c95-bf86c5e3c498",
        "timeAdded" : "20210109T122512.324000"
      }
    },
    {
      "id" : 36,
      "src" : "C:\\ProgramData\\TechSmith\\Camtasia Studio 19\\Library 4.0\\User Libraries\\K8s\\end.asset\\deploy-128.png",
      "rect" : [0, 0, 128, 128],
      "lastMod" : "20201224T160827",
      "sourceTracks" : [
        {
          "range" : [0, 1],
          "type" : 1,
          "editRate" : 10000000,
          "trackRect" : [0, 0, 128, 128],
          "sampleRate" : 0,
          "bitDepth" : 32,
          "numChannels" : 0,
          "integratedLUFS" : 100.0,
          "peakLevel" : -1.0,
          "metaData" : ""
        }
      ],
      "metadata" : {
        "assetLibraryId" : "c49e4026-371e-4445-9c95-bf86c5e3c498",
        "timeAdded" : "20210109T122512.324000"
      }
    },
    {
      "id" : 37,
      "src" : "C:\\ProgramData\\TechSmith\\Camtasia Studio 19\\Library 4.0\\User Libraries\\K8s\\end.asset\\cronjob-128.png",
      "rect" : [0, 0, 128, 128],
      "lastMod" : "20201224T160827",
      "sourceTracks" : [
        {
          "range" : [0, 1],
          "type" : 1,
          "editRate" : 10000000,
          "trackRect" : [0, 0, 128, 128],
          "sampleRate" : 0,
          "bitDepth" : 32,
          "numChannels" : 0,
          "integratedLUFS" : 100.0,
          "peakLevel" : -1.0,
          "metaData" : ""
        }
      ],
      "metadata" : {
        "assetLibraryId" : "c49e4026-371e-4445-9c95-bf86c5e3c498",
        "timeAdded" : "20210109T122512.324000"
      }
    },
    {
      "id" : 38,
      "src" : "C:\\ProgramData\\TechSmith\\Camtasia Studio 19\\Library 4.0\\User Libraries\\K8s\\end.asset\\k8sfavicon.png",
      "rect" : [0, 0, 512, 512],
      "lastMod" : "20210105T165021",
      "sourceTracks" : [
        {
          "range" : [0, 1],
          "type" : 1,
          "editRate" : 10000000,
          "trackRect" : [0, 0, 512, 512],
          "sampleRate" : 0,
          "bitDepth" : 32,
          "numChannels" : 0,
          "integratedLUFS" : 100.0,
          "peakLevel" : -1.0,
          "metaData" : ""
        }
      ],
      "metadata" : {
        "assetLibraryId" : "c49e4026-371e-4445-9c95-bf86c5e3c498",
        "timeAdded" : "20210109T122512.324000"
      }
    },
    {
      "id" : 39,
      "src" : "C:\\ProgramData\\TechSmith\\Camtasia Studio 19\\Library 4.0\\User Libraries\\K8s\\end.asset\\wave.mp3",
      "rect" : [0, 0, 0, 0],
      "lastMod" : "20210105T195352",
      "sourceTracks" : [
        {
          "range" : [0, 185467500],
          "type" : 2,
          "editRate" : 10000000,
          "trackRect" : [0, 0, 0, 0],
          "sampleRate" : 44100,
          "bitDepth" : 0,
          "numChannels" : 2,
          "integratedLUFS" : -16.6955131625049,
          "peakLevel" : 0.940275430679321,
          "metaData" : ""
        }
      ],
      "metadata" : {
        "assetLibraryId" : "c49e4026-371e-4445-9c95-bf86c5e3c498",
        "timeAdded" : "20210109T122512.324000"
      }
    }
  ],
  "timeline" : {
    "id" : 40,
    "sceneTrack" : {
      "scenes" : [
        {
          "duration" : 203.8,
          "title" : "",
          "type" : "",
          "csml" : {
            "tracks" : [
              {
                "trackIndex" : 0,
                "medias" : [
                  {
                    "id" : 41,
                    "_type" : "StitchedMedia",
                    "minMediaStart" : 0,
                    "attributes" : {
                      "ident" : "Rec 01-08-21",
                      "gain" : 1.0,
                      "mixToMono" : false
                    },
                    "parameters" : {
                      "volume" : 1.0,
                      "cursorOpacity" : 1.0,
                      "cursorScale" : 1.0
                    },
                    "medias" : [
                        {
                          "id" : 42,
                          "_type" : "UnifiedMedia",
                          "video" : 
                              {
                                "id" : 43,
                                "_type" : "ScreenVMFile",
                                "src" : 1,
                                "trackNumber" : 0,
                                "attributes" : {
                                  "ident" : "Rec 01-08-21"
                                },
                                "parameters" : {
                                  "cursorScale" : {
                                    "type" : "double",
                                    "defaultValue" : 0.0,
                                    "interp" : "linr"
                                  },
                                  "cursorOpacity" : {
                                    "type" : "double",
                                    "defaultValue" : 0.0,
                                    "interp" : "linr"
                                  }
                                },
                                "effects" : [

                                ],
                                "start" : 0,
                                "duration" : 173,
                                "mediaStart" : 0,
                                "mediaDuration" : 173,
                                "scalar" : 1,
                                "animationTracks" : {

                                }
                              },
                          "audio" : 
                              {
                                "id" : 44,
                                "_type" : "AMFile",
                                "src" : 1,
                                "trackNumber" : 1,
                                "attributes" : {
                                  "ident" : "",
                                  "gain" : 1.0,
                                  "mixToMono" : false
                                },
                                  "channelNumber" : "0,1",
                                "effects" : [

                                ],
                                "start" : 0,
                                "duration" : 173,
                                "mediaStart" : 0,
                                "mediaDuration" : 173,
                                "scalar" : 1,
                                "animationTracks" : {

                                }
                              }
,
                          "start" : 0,
                          "duration" : 173,
                          "mediaStart" : 0,
                          "mediaDuration" : 15121,
                          "scalar" : 1,
                          "metadata" : {
                            "AutoAppliedSmartFocus" : "False",
                            "clipSpeedAttribute" : false
                          }
                        },
                        {
                          "id" : 45,
                          "_type" : "UnifiedMedia",
                          "video" : 
                              {
                                "id" : 46,
                                "_type" : "ScreenVMFile",
                                "src" : 1,
                                "trackNumber" : 0,
                                "attributes" : {
                                  "ident" : "Rec 01-08-21"
                                },
                                "parameters" : {
                                  "cursorScale" : {
                                    "type" : "double",
                                    "defaultValue" : 0.0,
                                    "interp" : "linr"
                                  },
                                  "cursorOpacity" : {
                                    "type" : "double",
                                    "defaultValue" : 0.0,
                                    "interp" : "linr"
                                  }
                                },
                                "effects" : [

                                ],
                                "start" : 173,
                                "duration" : 94,
                                "mediaStart" : 202,
                                "mediaDuration" : 94,
                                "scalar" : 1,
                                "animationTracks" : {

                                }
                              },
                          "audio" : 
                              {
                                "id" : 47,
                                "_type" : "AMFile",
                                "src" : 1,
                                "trackNumber" : 1,
                                "attributes" : {
                                  "ident" : "",
                                  "gain" : 1.0,
                                  "mixToMono" : false
                                },
                                  "channelNumber" : "0,1",
                                "effects" : [

                                ],
                                "start" : 173,
                                "duration" : 94,
                                "mediaStart" : 202,
                                "mediaDuration" : 94,
                                "scalar" : 1,
                                "animationTracks" : {

                                }
                              }
,
                          "start" : 173,
                          "duration" : 94,
                          "mediaStart" : 0,
                          "mediaDuration" : 15121,
                          "scalar" : 1,
                          "metadata" : {
                            "AutoAppliedSmartFocus" : "False",
                            "clipSpeedAttribute" : false
                          }
                        },
                        {
                          "id" : 48,
                          "_type" : "UnifiedMedia",
                          "video" : 
                              {
                                "id" : 49,
                                "_type" : "ScreenVMFile",
                                "src" : 1,
                                "trackNumber" : 0,
                                "attributes" : {
                                  "ident" : "Rec 01-08-21"
                                },
                                "parameters" : {
                                  "cursorScale" : {
                                    "type" : "double",
                                    "defaultValue" : 0.0,
                                    "interp" : "linr"
                                  },
                                  "cursorOpacity" : {
                                    "type" : "double",
                                    "defaultValue" : 0.0,
                                    "interp" : "linr"
                                  }
                                },
                                "effects" : [

                                ],
                                "start" : 267,
                                "duration" : 31,
                                "mediaStart" : 306,
                                "mediaDuration" : 31,
                                "scalar" : 1,
                                "animationTracks" : {

                                }
                              },
                          "audio" : 
                              {
                                "id" : 50,
                                "_type" : "AMFile",
                                "src" : 1,
                                "trackNumber" : 1,
                                "attributes" : {
                                  "ident" : "",
                                  "gain" : 1.0,
                                  "mixToMono" : false
                                },
                                  "channelNumber" : "0,1",
                                "effects" : [

                                ],
                                "start" : 267,
                                "duration" : 31,
                                "mediaStart" : 306,
                                "mediaDuration" : 31,
                                "scalar" : 1,
                                "animationTracks" : {

                                }
                              }
,
                          "start" : 267,
                          "duration" : 31,
                          "mediaStart" : 0,
                          "mediaDuration" : 15121,
                          "scalar" : 1,
                          "metadata" : {
                            "AutoAppliedSmartFocus" : "False",
                            "clipSpeedAttribute" : false
                          }
                        },
                        {
                          "id" : 51,
                          "_type" : "UnifiedMedia",
                          "video" : 
                              {
                                "id" : 52,
                                "_type" : "ScreenVMFile",
                                "src" : 1,
                                "trackNumber" : 0,
                                "attributes" : {
                                  "ident" : "Rec 01-08-21"
                                },
                                "parameters" : {
                                  "cursorScale" : {
                                    "type" : "double",
                                    "defaultValue" : 0.0,
                                    "interp" : "linr"
                                  },
                                  "cursorOpacity" : {
                                    "type" : "double",
                                    "defaultValue" : 0.0,
                                    "interp" : "linr"
                                  }
                                },
                                "effects" : [

                                ],
                                "start" : 298,
                                "duration" : 162,
                                "mediaStart" : 363,
                                "mediaDuration" : 162,
                                "scalar" : 1,
                                "animationTracks" : {

                                }
                              },
                          "audio" : 
                              {
                                "id" : 53,
                                "_type" : "AMFile",
                                "src" : 1,
                                "trackNumber" : 1,
                                "attributes" : {
                                  "ident" : "",
                                  "gain" : 1.0,
                                  "mixToMono" : false
                                },
                                  "channelNumber" : "0,1",
                                "effects" : [

                                ],
                                "start" : 298,
                                "duration" : 162,
                                "mediaStart" : 363,
                                "mediaDuration" : 162,
                                "scalar" : 1,
                                "animationTracks" : {

                                }
                              }
,
                          "start" : 298,
                          "duration" : 162,
                          "mediaStart" : 0,
                          "mediaDuration" : 15121,
                          "scalar" : 1,
                          "metadata" : {
                            "AutoAppliedSmartFocus" : "False",
                            "clipSpeedAttribute" : false
                          }
                        },
                        {
                          "id" : 54,
                          "_type" : "UnifiedMedia",
                          "video" : 
                              {
                                "id" : 55,
                                "_type" : "ScreenVMFile",
                                "src" : 1,
                                "trackNumber" : 0,
                                "attributes" : {
                                  "ident" : "Rec 01-08-21"
                                },
                                "parameters" : {
                                  "cursorScale" : {
                                    "type" : "double",
                                    "defaultValue" : 0.0,
                                    "interp" : "linr"
                                  },
                                  "cursorOpacity" : {
                                    "type" : "double",
                                    "defaultValue" : 0.0,
                                    "interp" : "linr"
                                  }
                                },
                                "effects" : [

                                ],
                                "start" : 460,
                                "duration" : 52,
                                "mediaStart" : 695,
                                "mediaDuration" : 52,
                                "scalar" : 1,
                                "animationTracks" : {

                                }
                              },
                          "audio" : 
                              {
                                "id" : 56,
                                "_type" : "AMFile",
                                "src" : 1,
                                "trackNumber" : 1,
                                "attributes" : {
                                  "ident" : "",
                                  "gain" : 1.0,
                                  "mixToMono" : false
                                },
                                  "channelNumber" : "0,1",
                                "effects" : [

                                ],
                                "start" : 460,
                                "duration" : 52,
                                "mediaStart" : 695,
                                "mediaDuration" : 52,
                                "scalar" : 1,
                                "animationTracks" : {

                                }
                              }
,
                          "start" : 460,
                          "duration" : 52,
                          "mediaStart" : 0,
                          "mediaDuration" : 15121,
                          "scalar" : 1,
                          "metadata" : {
                            "AutoAppliedSmartFocus" : "False",
                            "clipSpeedAttribute" : false
                          }
                        },
                        {
                          "id" : 57,
                          "_type" : "UnifiedMedia",
                          "video" : 
                              {
                                "id" : 58,
                                "_type" : "ScreenVMFile",
                                "src" : 1,
                                "trackNumber" : 0,
                                "attributes" : {
                                  "ident" : "Rec 01-08-21"
                                },
                                "parameters" : {
                                  "cursorScale" : {
                                    "type" : "double",
                                    "defaultValue" : 0.0,
                                    "interp" : "linr"
                                  },
                                  "cursorOpacity" : {
                                    "type" : "double",
                                    "defaultValue" : 0.0,
                                    "interp" : "linr"
                                  }
                                },
                                "effects" : [

                                ],
                                "start" : 512,
                                "duration" : 14337,
                                "mediaStart" : 784,
                                "mediaDuration" : 14337,
                                "scalar" : 1,
                                "animationTracks" : {

                                }
                              },
                          "audio" : 
                              {
                                "id" : 59,
                                "_type" : "AMFile",
                                "src" : 1,
                                "trackNumber" : 1,
                                "attributes" : {
                                  "ident" : "",
                                  "gain" : 1.0,
                                  "mixToMono" : false
                                },
                                  "channelNumber" : "0,1",
                                "effects" : [

                                ],
                                "start" : 512,
                                "duration" : 14337,
                                "mediaStart" : 784,
                                "mediaDuration" : 14337,
                                "scalar" : 1,
                                "animationTracks" : {

                                }
                              }
,
                          "start" : 512,
                          "duration" : 14337,
                          "mediaStart" : 0,
                          "mediaDuration" : 15121,
                          "scalar" : 1,
                          "metadata" : {
                            "AutoAppliedSmartFocus" : "False",
                            "clipSpeedAttribute" : false
                          }
                        }
                    ],
                    "effects" : [

                    ],
                    "start" : 200,
                    "duration" : 586,
                    "mediaStart" : 43,
                    "mediaDuration" : 586,
                    "scalar" : 1,
                    "metadata" : {
                      "AutoAppliedSmartFocus" : "False",
                      "clipSpeedAttribute" : false
                    },
                    "animationTracks" : {

                    }
                  },
                  {
                    "id" : 60,
                    "_type" : "Group",
                    "parameters" : {
                      "volume" : 1.0
                    },
                    "tracks" : [
                      {
                        "trackIndex" : 0,
                        "medias" : [
                          {
                            "id" : 61,
                            "_type" : "StitchedMedia",
                            "minMediaStart" : 0,
                            "attributes" : {
                              "ident" : "Rec 01-08-21",
                              "gain" : 1.0,
                              "mixToMono" : false
                            },
                            "parameters" : {
                              "volume" : 1.0,
                              "cursorOpacity" : 1.0,
                              "cursorScale" : 1.0
                            },
                            "medias" : [
                                {
                                  "id" : 62,
                                  "_type" : "UnifiedMedia",
                                  "video" : 
                                      {
                                        "id" : 63,
                                        "_type" : "ScreenVMFile",
                                        "src" : 1,
                                        "trackNumber" : 0,
                                        "attributes" : {
                                          "ident" : "Rec 01-08-21"
                                        },
                                        "parameters" : {
                                          "cursorScale" : {
                                            "type" : "double",
                                            "defaultValue" : 0.0,
                                            "interp" : "linr"
                                          },
                                          "cursorOpacity" : {
                                            "type" : "double",
                                            "defaultValue" : 0.0,
                                            "interp" : "linr"
                                          }
                                        },
                                        "effects" : [

                                        ],
                                        "start" : 0,
                                        "duration" : 173,
                                        "mediaStart" : 0,
                                        "mediaDuration" : 173,
                                        "scalar" : 1,
                                        "animationTracks" : {

                                        }
                                      },
                                  "audio" : 
                                      {
                                        "id" : 64,
                                        "_type" : "AMFile",
                                        "src" : 1,
                                        "trackNumber" : 1,
                                        "attributes" : {
                                          "ident" : "",
                                          "gain" : 1.0,
                                          "mixToMono" : false
                                        },
                                          "channelNumber" : "0,1",
                                        "effects" : [

                                        ],
                                        "start" : 0,
                                        "duration" : 173,
                                        "mediaStart" : 0,
                                        "mediaDuration" : 173,
                                        "scalar" : 1,
                                        "animationTracks" : {

                                        }
                                      }
,
                                  "start" : 0,
                                  "duration" : 173,
                                  "mediaStart" : 0,
                                  "mediaDuration" : 15121,
                                  "scalar" : 1,
                                  "metadata" : {
                                    "AutoAppliedSmartFocus" : "False",
                                    "clipSpeedAttribute" : false
                                  }
                                },
                                {
                                  "id" : 65,
                                  "_type" : "UnifiedMedia",
                                  "video" : 
                                      {
                                        "id" : 66,
                                        "_type" : "ScreenVMFile",
                                        "src" : 1,
                                        "trackNumber" : 0,
                                        "attributes" : {
                                          "ident" : "Rec 01-08-21"
                                        },
                                        "parameters" : {
                                          "cursorScale" : {
                                            "type" : "double",
                                            "defaultValue" : 0.0,
                                            "interp" : "linr"
                                          },
                                          "cursorOpacity" : {
                                            "type" : "double",
                                            "defaultValue" : 0.0,
                                            "interp" : "linr"
                                          }
                                        },
                                        "effects" : [

                                        ],
                                        "start" : 173,
                                        "duration" : 94,
                                        "mediaStart" : 202,
                                        "mediaDuration" : 94,
                                        "scalar" : 1,
                                        "animationTracks" : {

                                        }
                                      },
                                  "audio" : 
                                      {
                                        "id" : 67,
                                        "_type" : "AMFile",
                                        "src" : 1,
                                        "trackNumber" : 1,
                                        "attributes" : {
                                          "ident" : "",
                                          "gain" : 1.0,
                                          "mixToMono" : false
                                        },
                                          "channelNumber" : "0,1",
                                        "effects" : [

                                        ],
                                        "start" : 173,
                                        "duration" : 94,
                                        "mediaStart" : 202,
                                        "mediaDuration" : 94,
                                        "scalar" : 1,
                                        "animationTracks" : {

                                        }
                                      }
,
                                  "start" : 173,
                                  "duration" : 94,
                                  "mediaStart" : 0,
                                  "mediaDuration" : 15121,
                                  "scalar" : 1,
                                  "metadata" : {
                                    "AutoAppliedSmartFocus" : "False",
                                    "clipSpeedAttribute" : false
                                  }
                                },
                                {
                                  "id" : 68,
                                  "_type" : "UnifiedMedia",
                                  "video" : 
                                      {
                                        "id" : 69,
                                        "_type" : "ScreenVMFile",
                                        "src" : 1,
                                        "trackNumber" : 0,
                                        "attributes" : {
                                          "ident" : "Rec 01-08-21"
                                        },
                                        "parameters" : {
                                          "cursorScale" : {
                                            "type" : "double",
                                            "defaultValue" : 0.0,
                                            "interp" : "linr"
                                          },
                                          "cursorOpacity" : {
                                            "type" : "double",
                                            "defaultValue" : 0.0,
                                            "interp" : "linr"
                                          }
                                        },
                                        "effects" : [

                                        ],
                                        "start" : 267,
                                        "duration" : 31,
                                        "mediaStart" : 306,
                                        "mediaDuration" : 31,
                                        "scalar" : 1,
                                        "animationTracks" : {

                                        }
                                      },
                                  "audio" : 
                                      {
                                        "id" : 70,
                                        "_type" : "AMFile",
                                        "src" : 1,
                                        "trackNumber" : 1,
                                        "attributes" : {
                                          "ident" : "",
                                          "gain" : 1.0,
                                          "mixToMono" : false
                                        },
                                          "channelNumber" : "0,1",
                                        "effects" : [

                                        ],
                                        "start" : 267,
                                        "duration" : 31,
                                        "mediaStart" : 306,
                                        "mediaDuration" : 31,
                                        "scalar" : 1,
                                        "animationTracks" : {

                                        }
                                      }
,
                                  "start" : 267,
                                  "duration" : 31,
                                  "mediaStart" : 0,
                                  "mediaDuration" : 15121,
                                  "scalar" : 1,
                                  "metadata" : {
                                    "AutoAppliedSmartFocus" : "False",
                                    "clipSpeedAttribute" : false
                                  }
                                },
                                {
                                  "id" : 71,
                                  "_type" : "UnifiedMedia",
                                  "video" : 
                                      {
                                        "id" : 72,
                                        "_type" : "ScreenVMFile",
                                        "src" : 1,
                                        "trackNumber" : 0,
                                        "attributes" : {
                                          "ident" : "Rec 01-08-21"
                                        },
                                        "parameters" : {
                                          "cursorScale" : {
                                            "type" : "double",
                                            "defaultValue" : 0.0,
                                            "interp" : "linr"
                                          },
                                          "cursorOpacity" : {
                                            "type" : "double",
                                            "defaultValue" : 0.0,
                                            "interp" : "linr"
                                          }
                                        },
                                        "effects" : [

                                        ],
                                        "start" : 298,
                                        "duration" : 162,
                                        "mediaStart" : 363,
                                        "mediaDuration" : 162,
                                        "scalar" : 1,
                                        "animationTracks" : {

                                        }
                                      },
                                  "audio" : 
                                      {
                                        "id" : 73,
                                        "_type" : "AMFile",
                                        "src" : 1,
                                        "trackNumber" : 1,
                                        "attributes" : {
                                          "ident" : "",
                                          "gain" : 1.0,
                                          "mixToMono" : false
                                        },
                                          "channelNumber" : "0,1",
                                        "effects" : [

                                        ],
                                        "start" : 298,
                                        "duration" : 162,
                                        "mediaStart" : 363,
                                        "mediaDuration" : 162,
                                        "scalar" : 1,
                                        "animationTracks" : {

                                        }
                                      }
,
                                  "start" : 298,
                                  "duration" : 162,
                                  "mediaStart" : 0,
                                  "mediaDuration" : 15121,
                                  "scalar" : 1,
                                  "metadata" : {
                                    "AutoAppliedSmartFocus" : "False",
                                    "clipSpeedAttribute" : false
                                  }
                                },
                                {
                                  "id" : 74,
                                  "_type" : "UnifiedMedia",
                                  "video" : 
                                      {
                                        "id" : 75,
                                        "_type" : "ScreenVMFile",
                                        "src" : 1,
                                        "trackNumber" : 0,
                                        "attributes" : {
                                          "ident" : "Rec 01-08-21"
                                        },
                                        "parameters" : {
                                          "cursorScale" : {
                                            "type" : "double",
                                            "defaultValue" : 0.0,
                                            "interp" : "linr"
                                          },
                                          "cursorOpacity" : {
                                            "type" : "double",
                                            "defaultValue" : 0.0,
                                            "interp" : "linr"
                                          }
                                        },
                                        "effects" : [

                                        ],
                                        "start" : 460,
                                        "duration" : 52,
                                        "mediaStart" : 695,
                                        "mediaDuration" : 52,
                                        "scalar" : 1,
                                        "animationTracks" : {

                                        }
                                      },
                                  "audio" : 
                                      {
                                        "id" : 76,
                                        "_type" : "AMFile",
                                        "src" : 1,
                                        "trackNumber" : 1,
                                        "attributes" : {
                                          "ident" : "",
                                          "gain" : 1.0,
                                          "mixToMono" : false
                                        },
                                          "channelNumber" : "0,1",
                                        "effects" : [

                                        ],
                                        "start" : 460,
                                        "duration" : 52,
                                        "mediaStart" : 695,
                                        "mediaDuration" : 52,
                                        "scalar" : 1,
                                        "animationTracks" : {

                                        }
                                      }
,
                                  "start" : 460,
                                  "duration" : 52,
                                  "mediaStart" : 0,
                                  "mediaDuration" : 15121,
                                  "scalar" : 1,
                                  "metadata" : {
                                    "AutoAppliedSmartFocus" : "False",
                                    "clipSpeedAttribute" : false
                                  }
                                },
                                {
                                  "id" : 77,
                                  "_type" : "UnifiedMedia",
                                  "video" : 
                                      {
                                        "id" : 78,
                                        "_type" : "ScreenVMFile",
                                        "src" : 1,
                                        "trackNumber" : 0,
                                        "attributes" : {
                                          "ident" : "Rec 01-08-21"
                                        },
                                        "parameters" : {
                                          "cursorScale" : {
                                            "type" : "double",
                                            "defaultValue" : 0.0,
                                            "interp" : "linr"
                                          },
                                          "cursorOpacity" : {
                                            "type" : "double",
                                            "defaultValue" : 0.0,
                                            "interp" : "linr"
                                          }
                                        },
                                        "effects" : [

                                        ],
                                        "start" : 512,
                                        "duration" : 276,
                                        "mediaStart" : 784,
                                        "mediaDuration" : 276,
                                        "scalar" : 1,
                                        "animationTracks" : {

                                        }
                                      },
                                  "audio" : 
                                      {
                                        "id" : 79,
                                        "_type" : "AMFile",
                                        "src" : 1,
                                        "trackNumber" : 1,
                                        "attributes" : {
                                          "ident" : "",
                                          "gain" : 1.0,
                                          "mixToMono" : false
                                        },
                                          "channelNumber" : "0,1",
                                        "effects" : [

                                        ],
                                        "start" : 512,
                                        "duration" : 276,
                                        "mediaStart" : 784,
                                        "mediaDuration" : 276,
                                        "scalar" : 1,
                                        "animationTracks" : {

                                        }
                                      }
,
                                  "start" : 512,
                                  "duration" : 276,
                                  "mediaStart" : 0,
                                  "mediaDuration" : 15121,
                                  "scalar" : 1,
                                  "metadata" : {
                                    "AutoAppliedSmartFocus" : "False",
                                    "clipSpeedAttribute" : false
                                  }
                                },
                                {
                                  "id" : 80,
                                  "_type" : "UnifiedMedia",
                                  "video" : 
                                      {
                                        "id" : 81,
                                        "_type" : "ScreenVMFile",
                                        "src" : 1,
                                        "trackNumber" : 0,
                                        "attributes" : {
                                          "ident" : "Rec 01-08-21"
                                        },
                                        "parameters" : {
                                          "cursorScale" : {
                                            "type" : "double",
                                            "defaultValue" : 0.0,
                                            "interp" : "linr"
                                          },
                                          "cursorOpacity" : {
                                            "type" : "double",
                                            "defaultValue" : 0.0,
                                            "interp" : "linr"
                                          }
                                        },
                                        "effects" : [

                                        ],
                                        "start" : 788,
                                        "duration" : 23,
                                        "mediaStart" : 1081,
                                        "mediaDuration" : 23,
                                        "scalar" : 1,
                                        "animationTracks" : {

                                        }
                                      },
                                  "audio" : 
                                      {
                                        "id" : 82,
                                        "_type" : "AMFile",
                                        "src" : 1,
                                        "trackNumber" : 1,
                                        "attributes" : {
                                          "ident" : "",
                                          "gain" : 1.0,
                                          "mixToMono" : false
                                        },
                                          "channelNumber" : "0,1",
                                        "effects" : [

                                        ],
                                        "start" : 788,
                                        "duration" : 23,
                                        "mediaStart" : 1081,
                                        "mediaDuration" : 23,
                                        "scalar" : 1,
                                        "animationTracks" : {

                                        }
                                      }
,
                                  "start" : 788,
                                  "duration" : 23,
                                  "mediaStart" : 0,
                                  "mediaDuration" : 15121,
                                  "scalar" : 1,
                                  "metadata" : {
                                    "AutoAppliedSmartFocus" : "False",
                                    "clipSpeedAttribute" : false
                                  }
                                },
                                {
                                  "id" : 83,
                                  "_type" : "UnifiedMedia",
                                  "video" : 
                                      {
                                        "id" : 84,
                                        "_type" : "ScreenVMFile",
                                        "src" : 1,
                                        "trackNumber" : 0,
                                        "attributes" : {
                                          "ident" : "Rec 01-08-21"
                                        },
                                        "parameters" : {
                                          "cursorScale" : {
                                            "type" : "double",
                                            "defaultValue" : 0.0,
                                            "interp" : "linr"
                                          },
                                          "cursorOpacity" : {
                                            "type" : "double",
                                            "defaultValue" : 0.0,
                                            "interp" : "linr"
                                          }
                                        },
                                        "effects" : [

                                        ],
                                        "start" : 811,
                                        "duration" : 1,
                                        "mediaStart" : 1149,
                                        "mediaDuration" : 1,
                                        "scalar" : 1,
                                        "animationTracks" : {

                                        }
                                      },
                                  "audio" : 
                                      {
                                        "id" : 85,
                                        "_type" : "AMFile",
                                        "src" : 1,
                                        "trackNumber" : 1,
                                        "attributes" : {
                                          "ident" : "",
                                          "gain" : 1.0,
                                          "mixToMono" : false
                                        },
                                          "channelNumber" : "0,1",
                                        "effects" : [

                                        ],
                                        "start" : 811,
                                        "duration" : 1,
                                        "mediaStart" : 1149,
                                        "mediaDuration" : 1,
                                        "scalar" : 1,
                                        "animationTracks" : {

                                        }
                                      }
,
                                  "start" : 811,
                                  "duration" : 1,
                                  "mediaStart" : 0,
                                  "mediaDuration" : 15121,
                                  "scalar" : 1,
                                  "metadata" : {
                                    "AutoAppliedSmartFocus" : "False",
                                    "clipSpeedAttribute" : false
                                  }
                                },
                                {
                                  "id" : 86,
                                  "_type" : "UnifiedMedia",
                                  "video" : 
                                      {
                                        "id" : 87,
                                        "_type" : "ScreenVMFile",
                                        "src" : 1,
                                        "trackNumber" : 0,
                                        "attributes" : {
                                          "ident" : "Rec 01-08-21"
                                        },
                                        "parameters" : {
                                          "cursorScale" : {
                                            "type" : "double",
                                            "defaultValue" : 0.0,
                                            "interp" : "linr"
                                          },
                                          "cursorOpacity" : {
                                            "type" : "double",
                                            "defaultValue" : 0.0,
                                            "interp" : "linr"
                                          }
                                        },
                                        "effects" : [

                                        ],
                                        "start" : 812,
                                        "duration" : 29,
                                        "mediaStart" : 1153,
                                        "mediaDuration" : 29,
                                        "scalar" : 1,
                                        "animationTracks" : {

                                        }
                                      },
                                  "audio" : 
                                      {
                                        "id" : 88,
                                        "_type" : "AMFile",
                                        "src" : 1,
                                        "trackNumber" : 1,
                                        "attributes" : {
                                          "ident" : "",
                                          "gain" : 1.0,
                                          "mixToMono" : false
                                        },
                                          "channelNumber" : "0,1",
                                        "effects" : [

                                        ],
                                        "start" : 812,
                                        "duration" : 29,
                                        "mediaStart" : 1153,
                                        "mediaDuration" : 29,
                                        "scalar" : 1,
                                        "animationTracks" : {

                                        }
                                      }
,
                                  "start" : 812,
                                  "duration" : 29,
                                  "mediaStart" : 0,
                                  "mediaDuration" : 15121,
                                  "scalar" : 1,
                                  "metadata" : {
                                    "AutoAppliedSmartFocus" : "False",
                                    "clipSpeedAttribute" : false
                                  }
                                },
                                {
                                  "id" : 89,
                                  "_type" : "UnifiedMedia",
                                  "video" : 
                                      {
                                        "id" : 90,
                                        "_type" : "ScreenVMFile",
                                        "src" : 1,
                                        "trackNumber" : 0,
                                        "attributes" : {
                                          "ident" : "Rec 01-08-21"
                                        },
                                        "parameters" : {
                                          "cursorScale" : {
                                            "type" : "double",
                                            "defaultValue" : 0.0,
                                            "interp" : "linr"
                                          },
                                          "cursorOpacity" : {
                                            "type" : "double",
                                            "defaultValue" : 0.0,
                                            "interp" : "linr"
                                          }
                                        },
                                        "effects" : [

                                        ],
                                        "start" : 841,
                                        "duration" : 13900,
                                        "mediaStart" : 1221,
                                        "mediaDuration" : 13900,
                                        "scalar" : 1,
                                        "animationTracks" : {

                                        }
                                      },
                                  "audio" : 
                                      {
                                        "id" : 91,
                                        "_type" : "AMFile",
                                        "src" : 1,
                                        "trackNumber" : 1,
                                        "attributes" : {
                                          "ident" : "",
                                          "gain" : 1.0,
                                          "mixToMono" : false
                                        },
                                          "channelNumber" : "0,1",
                                        "effects" : [

                                        ],
                                        "start" : 841,
                                        "duration" : 13900,
                                        "mediaStart" : 1221,
                                        "mediaDuration" : 13900,
                                        "scalar" : 1,
                                        "animationTracks" : {

                                        }
                                      }
,
                                  "start" : 841,
                                  "duration" : 13900,
                                  "mediaStart" : 0,
                                  "mediaDuration" : 15121,
                                  "scalar" : 1,
                                  "metadata" : {
                                    "AutoAppliedSmartFocus" : "False",
                                    "clipSpeedAttribute" : false
                                  }
                                }
                            ],
                            "effects" : [

                            ],
                            "start" : 0,
                            "duration" : 261,
                            "mediaStart" : 629,
                            "mediaDuration" : 261,
                            "scalar" : 1,
                            "metadata" : {
                              "AutoAppliedSmartFocus" : "False",
                              "clipSpeedAttribute" : false
                            },
                            "animationTracks" : {

                            }
                          }
                        ],
                          "ident" : "",
                          "audioMuted" : false,
                          "videoHidden" : false,
                          "magnetic" : false,
                          "matte" : 0,
                          "metadata" : {
                            "IsLocked" : "False",
                            "WinTrackHeight" : "0"
                          }
                      },
                      {
                        "trackIndex" : 1,
                        "medias" : [
                          {
                            "id" : 92,
                            "_type" : "StitchedMedia",
                            "minMediaStart" : 0,
                            "attributes" : {
                              "ident" : "Narration_2-4 Install K8s Plugin in VS Code 1",
                              "gain" : 1.0,
                              "mixToMono" : false
                            },
                            "parameters" : {
                              "volume" : 1.0,
                              "cursorOpacity" : 1.0,
                              "cursorScale" : 1.0
                            },
                            "medias" : [
                                {
                                  "id" : 93,
                                  "_type" : "AMFile",
                                  "src" : 2,
                                  "trackNumber" : 0,
                                  "attributes" : {
                                    "ident" : "Narration_2-4 Install K8s Plugin in VS Code 1",
                                    "gain" : 1.0,
                                    "mixToMono" : false
                                  },
                                    "channelNumber" : "0,1",
                                  "effects" : [

                                  ],
                                  "start" : 0,
                                  "duration" : 159,
                                  "mediaStart" : 0,
                                  "mediaDuration" : 159,
                                  "scalar" : 1,
                                  "metadata" : {
                                    "clipSpeedAttribute" : false
                                  },
                                  "animationTracks" : {

                                  }
                                },
                                {
                                  "id" : 94,
                                  "_type" : "AMFile",
                                  "src" : 2,
                                  "trackNumber" : 0,
                                  "attributes" : {
                                    "ident" : "Narration_2-4 Install K8s Plugin in VS Code 1",
                                    "gain" : 1.0,
                                    "mixToMono" : false
                                  },
                                    "channelNumber" : "0,1",
                                  "effects" : [

                                  ],
                                  "start" : 159,
                                  "duration" : 23,
                                  "mediaStart" : 180,
                                  "mediaDuration" : 23,
                                  "scalar" : 1,
                                  "metadata" : {
                                    "clipSpeedAttribute" : false
                                  },
                                  "animationTracks" : {

                                  }
                                },
                                {
                                  "id" : 95,
                                  "_type" : "AMFile",
                                  "src" : 2,
                                  "trackNumber" : 0,
                                  "attributes" : {
                                    "ident" : "Narration_2-4 Install K8s Plugin in VS Code 1",
                                    "gain" : 1.0,
                                    "mixToMono" : false
                                  },
                                    "channelNumber" : "0,1",
                                  "effects" : [

                                  ],
                                  "start" : 182,
                                  "duration" : 1,
                                  "mediaStart" : 248,
                                  "mediaDuration" : 1,
                                  "scalar" : 1,
                                  "metadata" : {
                                    "clipSpeedAttribute" : false
                                  },
                                  "animationTracks" : {

                                  }
                                },
                                {
                                  "id" : 96,
                                  "_type" : "AMFile",
                                  "src" : 2,
                                  "trackNumber" : 0,
                                  "attributes" : {
                                    "ident" : "Narration_2-4 Install K8s Plugin in VS Code 1",
                                    "gain" : 1.0,
                                    "mixToMono" : false
                                  },
                                    "channelNumber" : "0,1",
                                  "effects" : [

                                  ],
                                  "start" : 183,
                                  "duration" : 29,
                                  "mediaStart" : 252,
                                  "mediaDuration" : 29,
                                  "scalar" : 1,
                                  "metadata" : {
                                    "clipSpeedAttribute" : false
                                  },
                                  "animationTracks" : {

                                  }
                                },
                                {
                                  "id" : 97,
                                  "_type" : "AMFile",
                                  "src" : 2,
                                  "trackNumber" : 0,
                                  "attributes" : {
                                    "ident" : "Narration_2-4 Install K8s Plugin in VS Code 1",
                                    "gain" : 1.0,
                                    "mixToMono" : false
                                  },
                                    "channelNumber" : "0,1",
                                  "effects" : [

                                  ],
                                  "start" : 212,
                                  "duration" : 49,
                                  "mediaStart" : 320,
                                  "mediaDuration" : 49,
                                  "scalar" : 1,
                                  "metadata" : {
                                    "clipSpeedAttribute" : false
                                  },
                                  "animationTracks" : {

                                  }
                                }
                            ],
                            "effects" : [

                            ],
                            "start" : 0,
                            "duration" : 261,
                            "mediaStart" : 0,
                            "mediaDuration" : 261,
                            "scalar" : 1,
                            "metadata" : {
                              "clipSpeedAttribute" : false
                            },
                            "animationTracks" : {

                            }
                          }
                        ],
                          "ident" : "",
                          "audioMuted" : false,
                          "videoHidden" : false,
                          "magnetic" : false,
                          "matte" : 0,
                          "metadata" : {
                            "IsLocked" : "False",
                            "WinTrackHeight" : "4.71866372913302e-312"
                          }
                      }
                    ],
                    "attributes" : {
                      "ident" : "Group 1",
                      "gain" : 1.0,
                      "mixToMono" : false
                    },
                    "effects" : [

                    ],
                    "start" : 786,
                    "duration" : 261,
                    "mediaStart" : 0.0,
                    "mediaDuration" : 261.0,
                    "scalar" : 1,
                    "metadata" : {
                      "IsGroupExpanded" : "False"
                    },
                    "animationTracks" : {

                    }
                  },
                  {
                    "id" : 98,
                    "_type" : "StitchedMedia",
                    "minMediaStart" : 0,
                    "attributes" : {
                      "ident" : "Rec 01-08-21",
                      "gain" : 1.0,
                      "mixToMono" : false
                    },
                    "parameters" : {
                      "volume" : 1.0,
                      "cursorOpacity" : 1.0,
                      "cursorScale" : 1.0
                    },
                    "medias" : [
                        {
                          "id" : 99,
                          "_type" : "UnifiedMedia",
                          "video" : 
                              {
                                "id" : 100,
                                "_type" : "ScreenVMFile",
                                "src" : 1,
                                "trackNumber" : 0,
                                "attributes" : {
                                  "ident" : "Rec 01-08-21"
                                },
                                "parameters" : {
                                  "cursorScale" : {
                                    "type" : "double",
                                    "defaultValue" : 0.0,
                                    "interp" : "linr"
                                  },
                                  "cursorOpacity" : {
                                    "type" : "double",
                                    "defaultValue" : 0.0,
                                    "interp" : "linr"
                                  }
                                },
                                "effects" : [

                                ],
                                "start" : 0,
                                "duration" : 173,
                                "mediaStart" : 0,
                                "mediaDuration" : 173,
                                "scalar" : 1,
                                "animationTracks" : {

                                }
                              },
                          "audio" : 
                              {
                                "id" : 101,
                                "_type" : "AMFile",
                                "src" : 1,
                                "trackNumber" : 1,
                                "attributes" : {
                                  "ident" : "",
                                  "gain" : 1.0,
                                  "mixToMono" : false
                                },
                                  "channelNumber" : "0,1",
                                "effects" : [

                                ],
                                "start" : 0,
                                "duration" : 173,
                                "mediaStart" : 0,
                                "mediaDuration" : 173,
                                "scalar" : 1,
                                "animationTracks" : {

                                }
                              }
,
                          "start" : 0,
                          "duration" : 173,
                          "mediaStart" : 0,
                          "mediaDuration" : 15121,
                          "scalar" : 1,
                          "metadata" : {
                            "AutoAppliedSmartFocus" : "False",
                            "clipSpeedAttribute" : false
                          }
                        },
                        {
                          "id" : 102,
                          "_type" : "UnifiedMedia",
                          "video" : 
                              {
                                "id" : 103,
                                "_type" : "ScreenVMFile",
                                "src" : 1,
                                "trackNumber" : 0,
                                "attributes" : {
                                  "ident" : "Rec 01-08-21"
                                },
                                "parameters" : {
                                  "cursorScale" : {
                                    "type" : "double",
                                    "defaultValue" : 0.0,
                                    "interp" : "linr"
                                  },
                                  "cursorOpacity" : {
                                    "type" : "double",
                                    "defaultValue" : 0.0,
                                    "interp" : "linr"
                                  }
                                },
                                "effects" : [

                                ],
                                "start" : 173,
                                "duration" : 94,
                                "mediaStart" : 202,
                                "mediaDuration" : 94,
                                "scalar" : 1,
                                "animationTracks" : {

                                }
                              },
                          "audio" : 
                              {
                                "id" : 104,
                                "_type" : "AMFile",
                                "src" : 1,
                                "trackNumber" : 1,
                                "attributes" : {
                                  "ident" : "",
                                  "gain" : 1.0,
                                  "mixToMono" : false
                                },
                                  "channelNumber" : "0,1",
                                "effects" : [

                                ],
                                "start" : 173,
                                "duration" : 94,
                                "mediaStart" : 202,
                                "mediaDuration" : 94,
                                "scalar" : 1,
                                "animationTracks" : {

                                }
                              }
,
                          "start" : 173,
                          "duration" : 94,
                          "mediaStart" : 0,
                          "mediaDuration" : 15121,
                          "scalar" : 1,
                          "metadata" : {
                            "AutoAppliedSmartFocus" : "False",
                            "clipSpeedAttribute" : false
                          }
                        },
                        {
                          "id" : 105,
                          "_type" : "UnifiedMedia",
                          "video" : 
                              {
                                "id" : 106,
                                "_type" : "ScreenVMFile",
                                "src" : 1,
                                "trackNumber" : 0,
                                "attributes" : {
                                  "ident" : "Rec 01-08-21"
                                },
                                "parameters" : {
                                  "cursorScale" : {
                                    "type" : "double",
                                    "defaultValue" : 0.0,
                                    "interp" : "linr"
                                  },
                                  "cursorOpacity" : {
                                    "type" : "double",
                                    "defaultValue" : 0.0,
                                    "interp" : "linr"
                                  }
                                },
                                "effects" : [

                                ],
                                "start" : 267,
                                "duration" : 31,
                                "mediaStart" : 306,
                                "mediaDuration" : 31,
                                "scalar" : 1,
                                "animationTracks" : {

                                }
                              },
                          "audio" : 
                              {
                                "id" : 107,
                                "_type" : "AMFile",
                                "src" : 1,
                                "trackNumber" : 1,
                                "attributes" : {
                                  "ident" : "",
                                  "gain" : 1.0,
                                  "mixToMono" : false
                                },
                                  "channelNumber" : "0,1",
                                "effects" : [

                                ],
                                "start" : 267,
                                "duration" : 31,
                                "mediaStart" : 306,
                                "mediaDuration" : 31,
                                "scalar" : 1,
                                "animationTracks" : {

                                }
                              }
,
                          "start" : 267,
                          "duration" : 31,
                          "mediaStart" : 0,
                          "mediaDuration" : 15121,
                          "scalar" : 1,
                          "metadata" : {
                            "AutoAppliedSmartFocus" : "False",
                            "clipSpeedAttribute" : false
                          }
                        },
                        {
                          "id" : 108,
                          "_type" : "UnifiedMedia",
                          "video" : 
                              {
                                "id" : 109,
                                "_type" : "ScreenVMFile",
                                "src" : 1,
                                "trackNumber" : 0,
                                "attributes" : {
                                  "ident" : "Rec 01-08-21"
                                },
                                "parameters" : {
                                  "cursorScale" : {
                                    "type" : "double",
                                    "defaultValue" : 0.0,
                                    "interp" : "linr"
                                  },
                                  "cursorOpacity" : {
                                    "type" : "double",
                                    "defaultValue" : 0.0,
                                    "interp" : "linr"
                                  }
                                },
                                "effects" : [

                                ],
                                "start" : 298,
                                "duration" : 162,
                                "mediaStart" : 363,
                                "mediaDuration" : 162,
                                "scalar" : 1,
                                "animationTracks" : {

                                }
                              },
                          "audio" : 
                              {
                                "id" : 110,
                                "_type" : "AMFile",
                                "src" : 1,
                                "trackNumber" : 1,
                                "attributes" : {
                                  "ident" : "",
                                  "gain" : 1.0,
                                  "mixToMono" : false
                                },
                                  "channelNumber" : "0,1",
                                "effects" : [

                                ],
                                "start" : 298,
                                "duration" : 162,
                                "mediaStart" : 363,
                                "mediaDuration" : 162,
                                "scalar" : 1,
                                "animationTracks" : {

                                }
                              }
,
                          "start" : 298,
                          "duration" : 162,
                          "mediaStart" : 0,
                          "mediaDuration" : 15121,
                          "scalar" : 1,
                          "metadata" : {
                            "AutoAppliedSmartFocus" : "False",
                            "clipSpeedAttribute" : false
                          }
                        },
                        {
                          "id" : 111,
                          "_type" : "UnifiedMedia",
                          "video" : 
                              {
                                "id" : 112,
                                "_type" : "ScreenVMFile",
                                "src" : 1,
                                "trackNumber" : 0,
                                "attributes" : {
                                  "ident" : "Rec 01-08-21"
                                },
                                "parameters" : {
                                  "cursorScale" : {
                                    "type" : "double",
                                    "defaultValue" : 0.0,
                                    "interp" : "linr"
                                  },
                                  "cursorOpacity" : {
                                    "type" : "double",
                                    "defaultValue" : 0.0,
                                    "interp" : "linr"
                                  }
                                },
                                "effects" : [

                                ],
                                "start" : 460,
                                "duration" : 52,
                                "mediaStart" : 695,
                                "mediaDuration" : 52,
                                "scalar" : 1,
                                "animationTracks" : {

                                }
                              },
                          "audio" : 
                              {
                                "id" : 113,
                                "_type" : "AMFile",
                                "src" : 1,
                                "trackNumber" : 1,
                                "attributes" : {
                                  "ident" : "",
                                  "gain" : 1.0,
                                  "mixToMono" : false
                                },
                                  "channelNumber" : "0,1",
                                "effects" : [

                                ],
                                "start" : 460,
                                "duration" : 52,
                                "mediaStart" : 695,
                                "mediaDuration" : 52,
                                "scalar" : 1,
                                "animationTracks" : {

                                }
                              }
,
                          "start" : 460,
                          "duration" : 52,
                          "mediaStart" : 0,
                          "mediaDuration" : 15121,
                          "scalar" : 1,
                          "metadata" : {
                            "AutoAppliedSmartFocus" : "False",
                            "clipSpeedAttribute" : false
                          }
                        },
                        {
                          "id" : 114,
                          "_type" : "UnifiedMedia",
                          "video" : 
                              {
                                "id" : 115,
                                "_type" : "ScreenVMFile",
                                "src" : 1,
                                "trackNumber" : 0,
                                "attributes" : {
                                  "ident" : "Rec 01-08-21"
                                },
                                "parameters" : {
                                  "cursorScale" : {
                                    "type" : "double",
                                    "defaultValue" : 0.0,
                                    "interp" : "linr"
                                  },
                                  "cursorOpacity" : {
                                    "type" : "double",
                                    "defaultValue" : 0.0,
                                    "interp" : "linr"
                                  }
                                },
                                "effects" : [

                                ],
                                "start" : 512,
                                "duration" : 276,
                                "mediaStart" : 784,
                                "mediaDuration" : 276,
                                "scalar" : 1,
                                "animationTracks" : {

                                }
                              },
                          "audio" : 
                              {
                                "id" : 116,
                                "_type" : "AMFile",
                                "src" : 1,
                                "trackNumber" : 1,
                                "attributes" : {
                                  "ident" : "",
                                  "gain" : 1.0,
                                  "mixToMono" : false
                                },
                                  "channelNumber" : "0,1",
                                "effects" : [

                                ],
                                "start" : 512,
                                "duration" : 276,
                                "mediaStart" : 784,
                                "mediaDuration" : 276,
                                "scalar" : 1,
                                "animationTracks" : {

                                }
                              }
,
                          "start" : 512,
                          "duration" : 276,
                          "mediaStart" : 0,
                          "mediaDuration" : 15121,
                          "scalar" : 1,
                          "metadata" : {
                            "AutoAppliedSmartFocus" : "False",
                            "clipSpeedAttribute" : false
                          }
                        },
                        {
                          "id" : 117,
                          "_type" : "UnifiedMedia",
                          "video" : 
                              {
                                "id" : 118,
                                "_type" : "ScreenVMFile",
                                "src" : 1,
                                "trackNumber" : 0,
                                "attributes" : {
                                  "ident" : "Rec 01-08-21"
                                },
                                "parameters" : {
                                  "cursorScale" : {
                                    "type" : "double",
                                    "defaultValue" : 0.0,
                                    "interp" : "linr"
                                  },
                                  "cursorOpacity" : {
                                    "type" : "double",
                                    "defaultValue" : 0.0,
                                    "interp" : "linr"
                                  }
                                },
                                "effects" : [

                                ],
                                "start" : 788,
                                "duration" : 23,
                                "mediaStart" : 1081,
                                "mediaDuration" : 23,
                                "scalar" : 1,
                                "animationTracks" : {

                                }
                              },
                          "audio" : 
                              {
                                "id" : 119,
                                "_type" : "AMFile",
                                "src" : 1,
                                "trackNumber" : 1,
                                "attributes" : {
                                  "ident" : "",
                                  "gain" : 1.0,
                                  "mixToMono" : false
                                },
                                  "channelNumber" : "0,1",
                                "effects" : [

                                ],
                                "start" : 788,
                                "duration" : 23,
                                "mediaStart" : 1081,
                                "mediaDuration" : 23,
                                "scalar" : 1,
                                "animationTracks" : {

                                }
                              }
,
                          "start" : 788,
                          "duration" : 23,
                          "mediaStart" : 0,
                          "mediaDuration" : 15121,
                          "scalar" : 1,
                          "metadata" : {
                            "AutoAppliedSmartFocus" : "False",
                            "clipSpeedAttribute" : false
                          }
                        },
                        {
                          "id" : 120,
                          "_type" : "UnifiedMedia",
                          "video" : 
                              {
                                "id" : 121,
                                "_type" : "ScreenVMFile",
                                "src" : 1,
                                "trackNumber" : 0,
                                "attributes" : {
                                  "ident" : "Rec 01-08-21"
                                },
                                "parameters" : {
                                  "cursorScale" : {
                                    "type" : "double",
                                    "defaultValue" : 0.0,
                                    "interp" : "linr"
                                  },
                                  "cursorOpacity" : {
                                    "type" : "double",
                                    "defaultValue" : 0.0,
                                    "interp" : "linr"
                                  }
                                },
                                "effects" : [

                                ],
                                "start" : 811,
                                "duration" : 1,
                                "mediaStart" : 1149,
                                "mediaDuration" : 1,
                                "scalar" : 1,
                                "animationTracks" : {

                                }
                              },
                          "audio" : 
                              {
                                "id" : 122,
                                "_type" : "AMFile",
                                "src" : 1,
                                "trackNumber" : 1,
                                "attributes" : {
                                  "ident" : "",
                                  "gain" : 1.0,
                                  "mixToMono" : false
                                },
                                  "channelNumber" : "0,1",
                                "effects" : [

                                ],
                                "start" : 811,
                                "duration" : 1,
                                "mediaStart" : 1149,
                                "mediaDuration" : 1,
                                "scalar" : 1,
                                "animationTracks" : {

                                }
                              }
,
                          "start" : 811,
                          "duration" : 1,
                          "mediaStart" : 0,
                          "mediaDuration" : 15121,
                          "scalar" : 1,
                          "metadata" : {
                            "AutoAppliedSmartFocus" : "False",
                            "clipSpeedAttribute" : false
                          }
                        },
                        {
                          "id" : 123,
                          "_type" : "UnifiedMedia",
                          "video" : 
                              {
                                "id" : 124,
                                "_type" : "ScreenVMFile",
                                "src" : 1,
                                "trackNumber" : 0,
                                "attributes" : {
                                  "ident" : "Rec 01-08-21"
                                },
                                "parameters" : {
                                  "cursorScale" : {
                                    "type" : "double",
                                    "defaultValue" : 0.0,
                                    "interp" : "linr"
                                  },
                                  "cursorOpacity" : {
                                    "type" : "double",
                                    "defaultValue" : 0.0,
                                    "interp" : "linr"
                                  }
                                },
                                "effects" : [

                                ],
                                "start" : 812,
                                "duration" : 29,
                                "mediaStart" : 1153,
                                "mediaDuration" : 29,
                                "scalar" : 1,
                                "animationTracks" : {

                                }
                              },
                          "audio" : 
                              {
                                "id" : 125,
                                "_type" : "AMFile",
                                "src" : 1,
                                "trackNumber" : 1,
                                "attributes" : {
                                  "ident" : "",
                                  "gain" : 1.0,
                                  "mixToMono" : false
                                },
                                  "channelNumber" : "0,1",
                                "effects" : [

                                ],
                                "start" : 812,
                                "duration" : 29,
                                "mediaStart" : 1153,
                                "mediaDuration" : 29,
                                "scalar" : 1,
                                "animationTracks" : {

                                }
                              }
,
                          "start" : 812,
                          "duration" : 29,
                          "mediaStart" : 0,
                          "mediaDuration" : 15121,
                          "scalar" : 1,
                          "metadata" : {
                            "AutoAppliedSmartFocus" : "False",
                            "clipSpeedAttribute" : false
                          }
                        },
                        {
                          "id" : 126,
                          "_type" : "UnifiedMedia",
                          "video" : 
                              {
                                "id" : 127,
                                "_type" : "ScreenVMFile",
                                "src" : 1,
                                "trackNumber" : 0,
                                "attributes" : {
                                  "ident" : "Rec 01-08-21"
                                },
                                "parameters" : {
                                  "cursorScale" : {
                                    "type" : "double",
                                    "defaultValue" : 0.0,
                                    "interp" : "linr"
                                  },
                                  "cursorOpacity" : {
                                    "type" : "double",
                                    "defaultValue" : 0.0,
                                    "interp" : "linr"
                                  }
                                },
                                "effects" : [

                                ],
                                "start" : 841,
                                "duration" : 66,
                                "mediaStart" : 1221,
                                "mediaDuration" : 66,
                                "scalar" : 1,
                                "animationTracks" : {

                                }
                              },
                          "audio" : 
                              {
                                "id" : 128,
                                "_type" : "AMFile",
                                "src" : 1,
                                "trackNumber" : 1,
                                "attributes" : {
                                  "ident" : "",
                                  "gain" : 1.0,
                                  "mixToMono" : false
                                },
                                  "channelNumber" : "0,1",
                                "effects" : [

                                ],
                                "start" : 841,
                                "duration" : 66,
                                "mediaStart" : 1221,
                                "mediaDuration" : 66,
                                "scalar" : 1,
                                "animationTracks" : {

                                }
                              }
,
                          "start" : 841,
                          "duration" : 66,
                          "mediaStart" : 0,
                          "mediaDuration" : 15121,
                          "scalar" : 1,
                          "metadata" : {
                            "AutoAppliedSmartFocus" : "False",
                            "clipSpeedAttribute" : false
                          }
                        },
                        {
                          "id" : 129,
                          "_type" : "UnifiedMedia",
                          "video" : 
                              {
                                "id" : 130,
                                "_type" : "ScreenVMFile",
                                "src" : 1,
                                "trackNumber" : 0,
                                "attributes" : {
                                  "ident" : "Rec 01-08-21"
                                },
                                "parameters" : {
                                  "cursorScale" : {
                                    "type" : "double",
                                    "defaultValue" : 0.0,
                                    "interp" : "linr"
                                  },
                                  "cursorOpacity" : {
                                    "type" : "double",
                                    "defaultValue" : 0.0,
                                    "interp" : "linr"
                                  }
                                },
                                "effects" : [

                                ],
                                "start" : 907,
                                "duration" : 13360,
                                "mediaStart" : 1761,
                                "mediaDuration" : 13360,
                                "scalar" : 1,
                                "animationTracks" : {

                                }
                              },
                          "audio" : 
                              {
                                "id" : 131,
                                "_type" : "AMFile",
                                "src" : 1,
                                "trackNumber" : 1,
                                "attributes" : {
                                  "ident" : "",
                                  "gain" : 1.0,
                                  "mixToMono" : false
                                },
                                  "channelNumber" : "0,1",
                                "effects" : [

                                ],
                                "start" : 907,
                                "duration" : 13360,
                                "mediaStart" : 1761,
                                "mediaDuration" : 13360,
                                "scalar" : 1,
                                "animationTracks" : {

                                }
                              }
,
                          "start" : 907,
                          "duration" : 13360,
                          "mediaStart" : 0,
                          "mediaDuration" : 15121,
                          "scalar" : 1,
                          "metadata" : {
                            "AutoAppliedSmartFocus" : "False",
                            "clipSpeedAttribute" : false
                          }
                        }
                    ],
                    "effects" : [

                    ],
                    "start" : 1047,
                    "duration" : 396,
                    "mediaStart" : 890,
                    "mediaDuration" : 396,
                    "scalar" : 1,
                    "metadata" : {
                      "AutoAppliedSmartFocus" : "False",
                      "clipSpeedAttribute" : false
                    },
                    "animationTracks" : {

                    }
                  },
                  {
                    "id" : 132,
                    "_type" : "StitchedMedia",
                    "minMediaStart" : 0,
                    "attributes" : {
                      "ident" : "Rec 01-08-21",
                      "gain" : 0.3,
                      "mixToMono" : false
                    },
                    "parameters" : {
                      "volume" : 1.0,
                      "cursorOpacity" : 1.0,
                      "cursorScale" : 1.0
                    },
                    "medias" : [
                        {
                          "id" : 133,
                          "_type" : "UnifiedMedia",
                          "video" : 
                              {
                                "id" : 134,
                                "_type" : "ScreenVMFile",
                                "src" : 1,
                                "trackNumber" : 0,
                                "attributes" : {
                                  "ident" : "Rec 01-08-21"
                                },
                                "parameters" : {
                                  "cursorScale" : {
                                    "type" : "double",
                                    "defaultValue" : 0.0,
                                    "interp" : "linr"
                                  },
                                  "cursorOpacity" : {
                                    "type" : "double",
                                    "defaultValue" : 0.0,
                                    "interp" : "linr"
                                  }
                                },
                                "effects" : [

                                ],
                                "start" : 0,
                                "duration" : 173,
                                "mediaStart" : 0,
                                "mediaDuration" : 173,
                                "scalar" : 1,
                                "animationTracks" : {

                                }
                              },
                          "audio" : 
                              {
                                "id" : 135,
                                "_type" : "AMFile",
                                "src" : 1,
                                "trackNumber" : 1,
                                "attributes" : {
                                  "ident" : "",
                                  "gain" : 1.0,
                                  "mixToMono" : false
                                },
                                  "channelNumber" : "0,1",
                                "effects" : [

                                ],
                                "start" : 0,
                                "duration" : 173,
                                "mediaStart" : 0,
                                "mediaDuration" : 173,
                                "scalar" : 1,
                                "animationTracks" : {

                                }
                              }
,
                          "start" : 0,
                          "duration" : 173,
                          "mediaStart" : 0,
                          "mediaDuration" : 15121,
                          "scalar" : 1,
                          "metadata" : {
                            "AutoAppliedSmartFocus" : "False",
                            "clipSpeedAttribute" : false
                          }
                        },
                        {
                          "id" : 136,
                          "_type" : "UnifiedMedia",
                          "video" : 
                              {
                                "id" : 137,
                                "_type" : "ScreenVMFile",
                                "src" : 1,
                                "trackNumber" : 0,
                                "attributes" : {
                                  "ident" : "Rec 01-08-21"
                                },
                                "parameters" : {
                                  "cursorScale" : {
                                    "type" : "double",
                                    "defaultValue" : 0.0,
                                    "interp" : "linr"
                                  },
                                  "cursorOpacity" : {
                                    "type" : "double",
                                    "defaultValue" : 0.0,
                                    "interp" : "linr"
                                  }
                                },
                                "effects" : [

                                ],
                                "start" : 173,
                                "duration" : 94,
                                "mediaStart" : 202,
                                "mediaDuration" : 94,
                                "scalar" : 1,
                                "animationTracks" : {

                                }
                              },
                          "audio" : 
                              {
                                "id" : 138,
                                "_type" : "AMFile",
                                "src" : 1,
                                "trackNumber" : 1,
                                "attributes" : {
                                  "ident" : "",
                                  "gain" : 1.0,
                                  "mixToMono" : false
                                },
                                  "channelNumber" : "0,1",
                                "effects" : [

                                ],
                                "start" : 173,
                                "duration" : 94,
                                "mediaStart" : 202,
                                "mediaDuration" : 94,
                                "scalar" : 1,
                                "animationTracks" : {

                                }
                              }
,
                          "start" : 173,
                          "duration" : 94,
                          "mediaStart" : 0,
                          "mediaDuration" : 15121,
                          "scalar" : 1,
                          "metadata" : {
                            "AutoAppliedSmartFocus" : "False",
                            "clipSpeedAttribute" : false
                          }
                        },
                        {
                          "id" : 139,
                          "_type" : "UnifiedMedia",
                          "video" : 
                              {
                                "id" : 140,
                                "_type" : "ScreenVMFile",
                                "src" : 1,
                                "trackNumber" : 0,
                                "attributes" : {
                                  "ident" : "Rec 01-08-21"
                                },
                                "parameters" : {
                                  "cursorScale" : {
                                    "type" : "double",
                                    "defaultValue" : 0.0,
                                    "interp" : "linr"
                                  },
                                  "cursorOpacity" : {
                                    "type" : "double",
                                    "defaultValue" : 0.0,
                                    "interp" : "linr"
                                  }
                                },
                                "effects" : [

                                ],
                                "start" : 267,
                                "duration" : 31,
                                "mediaStart" : 306,
                                "mediaDuration" : 31,
                                "scalar" : 1,
                                "animationTracks" : {

                                }
                              },
                          "audio" : 
                              {
                                "id" : 141,
                                "_type" : "AMFile",
                                "src" : 1,
                                "trackNumber" : 1,
                                "attributes" : {
                                  "ident" : "",
                                  "gain" : 1.0,
                                  "mixToMono" : false
                                },
                                  "channelNumber" : "0,1",
                                "effects" : [

                                ],
                                "start" : 267,
                                "duration" : 31,
                                "mediaStart" : 306,
                                "mediaDuration" : 31,
                                "scalar" : 1,
                                "animationTracks" : {

                                }
                              }
,
                          "start" : 267,
                          "duration" : 31,
                          "mediaStart" : 0,
                          "mediaDuration" : 15121,
                          "scalar" : 1,
                          "metadata" : {
                            "AutoAppliedSmartFocus" : "False",
                            "clipSpeedAttribute" : false
                          }
                        },
                        {
                          "id" : 142,
                          "_type" : "UnifiedMedia",
                          "video" : 
                              {
                                "id" : 143,
                                "_type" : "ScreenVMFile",
                                "src" : 1,
                                "trackNumber" : 0,
                                "attributes" : {
                                  "ident" : "Rec 01-08-21"
                                },
                                "parameters" : {
                                  "cursorScale" : {
                                    "type" : "double",
                                    "defaultValue" : 0.0,
                                    "interp" : "linr"
                                  },
                                  "cursorOpacity" : {
                                    "type" : "double",
                                    "defaultValue" : 0.0,
                                    "interp" : "linr"
                                  }
                                },
                                "effects" : [

                                ],
                                "start" : 298,
                                "duration" : 162,
                                "mediaStart" : 363,
                                "mediaDuration" : 162,
                                "scalar" : 1,
                                "animationTracks" : {

                                }
                              },
                          "audio" : 
                              {
                                "id" : 144,
                                "_type" : "AMFile",
                                "src" : 1,
                                "trackNumber" : 1,
                                "attributes" : {
                                  "ident" : "",
                                  "gain" : 1.0,
                                  "mixToMono" : false
                                },
                                  "channelNumber" : "0,1",
                                "effects" : [

                                ],
                                "start" : 298,
                                "duration" : 162,
                                "mediaStart" : 363,
                                "mediaDuration" : 162,
                                "scalar" : 1,
                                "animationTracks" : {

                                }
                              }
,
                          "start" : 298,
                          "duration" : 162,
                          "mediaStart" : 0,
                          "mediaDuration" : 15121,
                          "scalar" : 1,
                          "metadata" : {
                            "AutoAppliedSmartFocus" : "False",
                            "clipSpeedAttribute" : false
                          }
                        },
                        {
                          "id" : 145,
                          "_type" : "UnifiedMedia",
                          "video" : 
                              {
                                "id" : 146,
                                "_type" : "ScreenVMFile",
                                "src" : 1,
                                "trackNumber" : 0,
                                "attributes" : {
                                  "ident" : "Rec 01-08-21"
                                },
                                "parameters" : {
                                  "cursorScale" : {
                                    "type" : "double",
                                    "defaultValue" : 0.0,
                                    "interp" : "linr"
                                  },
                                  "cursorOpacity" : {
                                    "type" : "double",
                                    "defaultValue" : 0.0,
                                    "interp" : "linr"
                                  }
                                },
                                "effects" : [

                                ],
                                "start" : 460,
                                "duration" : 52,
                                "mediaStart" : 695,
                                "mediaDuration" : 52,
                                "scalar" : 1,
                                "animationTracks" : {

                                }
                              },
                          "audio" : 
                              {
                                "id" : 147,
                                "_type" : "AMFile",
                                "src" : 1,
                                "trackNumber" : 1,
                                "attributes" : {
                                  "ident" : "",
                                  "gain" : 1.0,
                                  "mixToMono" : false
                                },
                                  "channelNumber" : "0,1",
                                "effects" : [

                                ],
                                "start" : 460,
                                "duration" : 52,
                                "mediaStart" : 695,
                                "mediaDuration" : 52,
                                "scalar" : 1,
                                "animationTracks" : {

                                }
                              }
,
                          "start" : 460,
                          "duration" : 52,
                          "mediaStart" : 0,
                          "mediaDuration" : 15121,
                          "scalar" : 1,
                          "metadata" : {
                            "AutoAppliedSmartFocus" : "False",
                            "clipSpeedAttribute" : false
                          }
                        },
                        {
                          "id" : 148,
                          "_type" : "UnifiedMedia",
                          "video" : 
                              {
                                "id" : 149,
                                "_type" : "ScreenVMFile",
                                "src" : 1,
                                "trackNumber" : 0,
                                "attributes" : {
                                  "ident" : "Rec 01-08-21"
                                },
                                "parameters" : {
                                  "cursorScale" : {
                                    "type" : "double",
                                    "defaultValue" : 0.0,
                                    "interp" : "linr"
                                  },
                                  "cursorOpacity" : {
                                    "type" : "double",
                                    "defaultValue" : 0.0,
                                    "interp" : "linr"
                                  }
                                },
                                "effects" : [

                                ],
                                "start" : 512,
                                "duration" : 276,
                                "mediaStart" : 784,
                                "mediaDuration" : 276,
                                "scalar" : 1,
                                "animationTracks" : {

                                }
                              },
                          "audio" : 
                              {
                                "id" : 150,
                                "_type" : "AMFile",
                                "src" : 1,
                                "trackNumber" : 1,
                                "attributes" : {
                                  "ident" : "",
                                  "gain" : 1.0,
                                  "mixToMono" : false
                                },
                                  "channelNumber" : "0,1",
                                "effects" : [

                                ],
                                "start" : 512,
                                "duration" : 276,
                                "mediaStart" : 784,
                                "mediaDuration" : 276,
                                "scalar" : 1,
                                "animationTracks" : {

                                }
                              }
,
                          "start" : 512,
                          "duration" : 276,
                          "mediaStart" : 0,
                          "mediaDuration" : 15121,
                          "scalar" : 1,
                          "metadata" : {
                            "AutoAppliedSmartFocus" : "False",
                            "clipSpeedAttribute" : false
                          }
                        },
                        {
                          "id" : 151,
                          "_type" : "UnifiedMedia",
                          "video" : 
                              {
                                "id" : 152,
                                "_type" : "ScreenVMFile",
                                "src" : 1,
                                "trackNumber" : 0,
                                "attributes" : {
                                  "ident" : "Rec 01-08-21"
                                },
                                "parameters" : {
                                  "cursorScale" : {
                                    "type" : "double",
                                    "defaultValue" : 0.0,
                                    "interp" : "linr"
                                  },
                                  "cursorOpacity" : {
                                    "type" : "double",
                                    "defaultValue" : 0.0,
                                    "interp" : "linr"
                                  }
                                },
                                "effects" : [

                                ],
                                "start" : 788,
                                "duration" : 23,
                                "mediaStart" : 1081,
                                "mediaDuration" : 23,
                                "scalar" : 1,
                                "animationTracks" : {

                                }
                              },
                          "audio" : 
                              {
                                "id" : 153,
                                "_type" : "AMFile",
                                "src" : 1,
                                "trackNumber" : 1,
                                "attributes" : {
                                  "ident" : "",
                                  "gain" : 1.0,
                                  "mixToMono" : false
                                },
                                  "channelNumber" : "0,1",
                                "effects" : [

                                ],
                                "start" : 788,
                                "duration" : 23,
                                "mediaStart" : 1081,
                                "mediaDuration" : 23,
                                "scalar" : 1,
                                "animationTracks" : {

                                }
                              }
,
                          "start" : 788,
                          "duration" : 23,
                          "mediaStart" : 0,
                          "mediaDuration" : 15121,
                          "scalar" : 1,
                          "metadata" : {
                            "AutoAppliedSmartFocus" : "False",
                            "clipSpeedAttribute" : false
                          }
                        },
                        {
                          "id" : 154,
                          "_type" : "UnifiedMedia",
                          "video" : 
                              {
                                "id" : 155,
                                "_type" : "ScreenVMFile",
                                "src" : 1,
                                "trackNumber" : 0,
                                "attributes" : {
                                  "ident" : "Rec 01-08-21"
                                },
                                "parameters" : {
                                  "cursorScale" : {
                                    "type" : "double",
                                    "defaultValue" : 0.0,
                                    "interp" : "linr"
                                  },
                                  "cursorOpacity" : {
                                    "type" : "double",
                                    "defaultValue" : 0.0,
                                    "interp" : "linr"
                                  }
                                },
                                "effects" : [

                                ],
                                "start" : 811,
                                "duration" : 1,
                                "mediaStart" : 1149,
                                "mediaDuration" : 1,
                                "scalar" : 1,
                                "animationTracks" : {

                                }
                              },
                          "audio" : 
                              {
                                "id" : 156,
                                "_type" : "AMFile",
                                "src" : 1,
                                "trackNumber" : 1,
                                "attributes" : {
                                  "ident" : "",
                                  "gain" : 1.0,
                                  "mixToMono" : false
                                },
                                  "channelNumber" : "0,1",
                                "effects" : [

                                ],
                                "start" : 811,
                                "duration" : 1,
                                "mediaStart" : 1149,
                                "mediaDuration" : 1,
                                "scalar" : 1,
                                "animationTracks" : {

                                }
                              }
,
                          "start" : 811,
                          "duration" : 1,
                          "mediaStart" : 0,
                          "mediaDuration" : 15121,
                          "scalar" : 1,
                          "metadata" : {
                            "AutoAppliedSmartFocus" : "False",
                            "clipSpeedAttribute" : false
                          }
                        },
                        {
                          "id" : 157,
                          "_type" : "UnifiedMedia",
                          "video" : 
                              {
                                "id" : 158,
                                "_type" : "ScreenVMFile",
                                "src" : 1,
                                "trackNumber" : 0,
                                "attributes" : {
                                  "ident" : "Rec 01-08-21"
                                },
                                "parameters" : {
                                  "cursorScale" : {
                                    "type" : "double",
                                    "defaultValue" : 0.0,
                                    "interp" : "linr"
                                  },
                                  "cursorOpacity" : {
                                    "type" : "double",
                                    "defaultValue" : 0.0,
                                    "interp" : "linr"
                                  }
                                },
                                "effects" : [

                                ],
                                "start" : 812,
                                "duration" : 29,
                                "mediaStart" : 1153,
                                "mediaDuration" : 29,
                                "scalar" : 1,
                                "animationTracks" : {

                                }
                              },
                          "audio" : 
                              {
                                "id" : 159,
                                "_type" : "AMFile",
                                "src" : 1,
                                "trackNumber" : 1,
                                "attributes" : {
                                  "ident" : "",
                                  "gain" : 1.0,
                                  "mixToMono" : false
                                },
                                  "channelNumber" : "0,1",
                                "effects" : [

                                ],
                                "start" : 812,
                                "duration" : 29,
                                "mediaStart" : 1153,
                                "mediaDuration" : 29,
                                "scalar" : 1,
                                "animationTracks" : {

                                }
                              }
,
                          "start" : 812,
                          "duration" : 29,
                          "mediaStart" : 0,
                          "mediaDuration" : 15121,
                          "scalar" : 1,
                          "metadata" : {
                            "AutoAppliedSmartFocus" : "False",
                            "clipSpeedAttribute" : false
                          }
                        },
                        {
                          "id" : 160,
                          "_type" : "UnifiedMedia",
                          "video" : 
                              {
                                "id" : 161,
                                "_type" : "ScreenVMFile",
                                "src" : 1,
                                "trackNumber" : 0,
                                "attributes" : {
                                  "ident" : "Rec 01-08-21"
                                },
                                "parameters" : {
                                  "cursorScale" : {
                                    "type" : "double",
                                    "defaultValue" : 0.0,
                                    "interp" : "linr"
                                  },
                                  "cursorOpacity" : {
                                    "type" : "double",
                                    "defaultValue" : 0.0,
                                    "interp" : "linr"
                                  }
                                },
                                "effects" : [

                                ],
                                "start" : 841,
                                "duration" : 66,
                                "mediaStart" : 1221,
                                "mediaDuration" : 66,
                                "scalar" : 1,
                                "animationTracks" : {

                                }
                              },
                          "audio" : 
                              {
                                "id" : 162,
                                "_type" : "AMFile",
                                "src" : 1,
                                "trackNumber" : 1,
                                "attributes" : {
                                  "ident" : "",
                                  "gain" : 1.0,
                                  "mixToMono" : false
                                },
                                  "channelNumber" : "0,1",
                                "effects" : [

                                ],
                                "start" : 841,
                                "duration" : 66,
                                "mediaStart" : 1221,
                                "mediaDuration" : 66,
                                "scalar" : 1,
                                "animationTracks" : {

                                }
                              }
,
                          "start" : 841,
                          "duration" : 66,
                          "mediaStart" : 0,
                          "mediaDuration" : 15121,
                          "scalar" : 1,
                          "metadata" : {
                            "AutoAppliedSmartFocus" : "False",
                            "clipSpeedAttribute" : false
                          }
                        },
                        {
                          "id" : 163,
                          "_type" : "UnifiedMedia",
                          "video" : 
                              {
                                "id" : 164,
                                "_type" : "ScreenVMFile",
                                "src" : 1,
                                "trackNumber" : 0,
                                "attributes" : {
                                  "ident" : "Rec 01-08-21"
                                },
                                "parameters" : {
                                  "cursorScale" : {
                                    "type" : "double",
                                    "defaultValue" : 0.0,
                                    "interp" : "linr"
                                  },
                                  "cursorOpacity" : {
                                    "type" : "double",
                                    "defaultValue" : 0.0,
                                    "interp" : "linr"
                                  }
                                },
                                "effects" : [

                                ],
                                "start" : 907,
                                "duration" : 13360,
                                "mediaStart" : 1761,
                                "mediaDuration" : 13360,
                                "scalar" : 1,
                                "animationTracks" : {

                                }
                              },
                          "audio" : 
                              {
                                "id" : 165,
                                "_type" : "AMFile",
                                "src" : 1,
                                "trackNumber" : 1,
                                "attributes" : {
                                  "ident" : "",
                                  "gain" : 1.0,
                                  "mixToMono" : false
                                },
                                  "channelNumber" : "0,1",
                                "effects" : [

                                ],
                                "start" : 907,
                                "duration" : 13360,
                                "mediaStart" : 1761,
                                "mediaDuration" : 13360,
                                "scalar" : 1,
                                "animationTracks" : {

                                }
                              }
,
                          "start" : 907,
                          "duration" : 13360,
                          "mediaStart" : 0,
                          "mediaDuration" : 15121,
                          "scalar" : 1,
                          "metadata" : {
                            "AutoAppliedSmartFocus" : "False",
                            "clipSpeedAttribute" : false
                          }
                        }
                    ],
                    "effects" : [

                    ],
                    "start" : 1443,
                    "duration" : 164,
                    "mediaStart" : 1286,
                    "mediaDuration" : 492,
                    "scalar" : "1/3",
                    "metadata" : {
                      "AutoAppliedSmartFocus" : "False",
                      "clipSpeedAttribute" : true
                    },
                    "animationTracks" : {

                    }
                  },
                  {
                    "id" : 166,
                    "_type" : "StitchedMedia",
                    "minMediaStart" : 0,
                    "attributes" : {
                      "ident" : "Rec 01-08-21",
                      "gain" : 1.0,
                      "mixToMono" : false
                    },
                    "parameters" : {
                      "volume" : 1.0,
                      "cursorOpacity" : 1.0,
                      "cursorScale" : 1.0
                    },
                    "medias" : [
                        {
                          "id" : 167,
                          "_type" : "UnifiedMedia",
                          "video" : 
                              {
                                "id" : 168,
                                "_type" : "ScreenVMFile",
                                "src" : 1,
                                "trackNumber" : 0,
                                "attributes" : {
                                  "ident" : "Rec 01-08-21"
                                },
                                "parameters" : {
                                  "cursorScale" : {
                                    "type" : "double",
                                    "defaultValue" : 0.0,
                                    "interp" : "linr"
                                  },
                                  "cursorOpacity" : {
                                    "type" : "double",
                                    "defaultValue" : 0.0,
                                    "interp" : "linr"
                                  }
                                },
                                "effects" : [

                                ],
                                "start" : 0,
                                "duration" : 173,
                                "mediaStart" : 0,
                                "mediaDuration" : 173,
                                "scalar" : 1,
                                "animationTracks" : {

                                }
                              },
                          "audio" : 
                              {
                                "id" : 169,
                                "_type" : "AMFile",
                                "src" : 1,
                                "trackNumber" : 1,
                                "attributes" : {
                                  "ident" : "",
                                  "gain" : 1.0,
                                  "mixToMono" : false
                                },
                                  "channelNumber" : "0,1",
                                "effects" : [

                                ],
                                "start" : 0,
                                "duration" : 173,
                                "mediaStart" : 0,
                                "mediaDuration" : 173,
                                "scalar" : 1,
                                "animationTracks" : {

                                }
                              }
,
                          "start" : 0,
                          "duration" : 173,
                          "mediaStart" : 0,
                          "mediaDuration" : 15121,
                          "scalar" : 1,
                          "metadata" : {
                            "AutoAppliedSmartFocus" : "False",
                            "clipSpeedAttribute" : false
                          }
                        },
                        {
                          "id" : 170,
                          "_type" : "UnifiedMedia",
                          "video" : 
                              {
                                "id" : 171,
                                "_type" : "ScreenVMFile",
                                "src" : 1,
                                "trackNumber" : 0,
                                "attributes" : {
                                  "ident" : "Rec 01-08-21"
                                },
                                "parameters" : {
                                  "cursorScale" : {
                                    "type" : "double",
                                    "defaultValue" : 0.0,
                                    "interp" : "linr"
                                  },
                                  "cursorOpacity" : {
                                    "type" : "double",
                                    "defaultValue" : 0.0,
                                    "interp" : "linr"
                                  }
                                },
                                "effects" : [

                                ],
                                "start" : 173,
                                "duration" : 94,
                                "mediaStart" : 202,
                                "mediaDuration" : 94,
                                "scalar" : 1,
                                "animationTracks" : {

                                }
                              },
                          "audio" : 
                              {
                                "id" : 172,
                                "_type" : "AMFile",
                                "src" : 1,
                                "trackNumber" : 1,
                                "attributes" : {
                                  "ident" : "",
                                  "gain" : 1.0,
                                  "mixToMono" : false
                                },
                                  "channelNumber" : "0,1",
                                "effects" : [

                                ],
                                "start" : 173,
                                "duration" : 94,
                                "mediaStart" : 202,
                                "mediaDuration" : 94,
                                "scalar" : 1,
                                "animationTracks" : {

                                }
                              }
,
                          "start" : 173,
                          "duration" : 94,
                          "mediaStart" : 0,
                          "mediaDuration" : 15121,
                          "scalar" : 1,
                          "metadata" : {
                            "AutoAppliedSmartFocus" : "False",
                            "clipSpeedAttribute" : false
                          }
                        },
                        {
                          "id" : 173,
                          "_type" : "UnifiedMedia",
                          "video" : 
                              {
                                "id" : 174,
                                "_type" : "ScreenVMFile",
                                "src" : 1,
                                "trackNumber" : 0,
                                "attributes" : {
                                  "ident" : "Rec 01-08-21"
                                },
                                "parameters" : {
                                  "cursorScale" : {
                                    "type" : "double",
                                    "defaultValue" : 0.0,
                                    "interp" : "linr"
                                  },
                                  "cursorOpacity" : {
                                    "type" : "double",
                                    "defaultValue" : 0.0,
                                    "interp" : "linr"
                                  }
                                },
                                "effects" : [

                                ],
                                "start" : 267,
                                "duration" : 31,
                                "mediaStart" : 306,
                                "mediaDuration" : 31,
                                "scalar" : 1,
                                "animationTracks" : {

                                }
                              },
                          "audio" : 
                              {
                                "id" : 175,
                                "_type" : "AMFile",
                                "src" : 1,
                                "trackNumber" : 1,
                                "attributes" : {
                                  "ident" : "",
                                  "gain" : 1.0,
                                  "mixToMono" : false
                                },
                                  "channelNumber" : "0,1",
                                "effects" : [

                                ],
                                "start" : 267,
                                "duration" : 31,
                                "mediaStart" : 306,
                                "mediaDuration" : 31,
                                "scalar" : 1,
                                "animationTracks" : {

                                }
                              }
,
                          "start" : 267,
                          "duration" : 31,
                          "mediaStart" : 0,
                          "mediaDuration" : 15121,
                          "scalar" : 1,
                          "metadata" : {
                            "AutoAppliedSmartFocus" : "False",
                            "clipSpeedAttribute" : false
                          }
                        },
                        {
                          "id" : 176,
                          "_type" : "UnifiedMedia",
                          "video" : 
                              {
                                "id" : 177,
                                "_type" : "ScreenVMFile",
                                "src" : 1,
                                "trackNumber" : 0,
                                "attributes" : {
                                  "ident" : "Rec 01-08-21"
                                },
                                "parameters" : {
                                  "cursorScale" : {
                                    "type" : "double",
                                    "defaultValue" : 0.0,
                                    "interp" : "linr"
                                  },
                                  "cursorOpacity" : {
                                    "type" : "double",
                                    "defaultValue" : 0.0,
                                    "interp" : "linr"
                                  }
                                },
                                "effects" : [

                                ],
                                "start" : 298,
                                "duration" : 162,
                                "mediaStart" : 363,
                                "mediaDuration" : 162,
                                "scalar" : 1,
                                "animationTracks" : {

                                }
                              },
                          "audio" : 
                              {
                                "id" : 178,
                                "_type" : "AMFile",
                                "src" : 1,
                                "trackNumber" : 1,
                                "attributes" : {
                                  "ident" : "",
                                  "gain" : 1.0,
                                  "mixToMono" : false
                                },
                                  "channelNumber" : "0,1",
                                "effects" : [

                                ],
                                "start" : 298,
                                "duration" : 162,
                                "mediaStart" : 363,
                                "mediaDuration" : 162,
                                "scalar" : 1,
                                "animationTracks" : {

                                }
                              }
,
                          "start" : 298,
                          "duration" : 162,
                          "mediaStart" : 0,
                          "mediaDuration" : 15121,
                          "scalar" : 1,
                          "metadata" : {
                            "AutoAppliedSmartFocus" : "False",
                            "clipSpeedAttribute" : false
                          }
                        },
                        {
                          "id" : 179,
                          "_type" : "UnifiedMedia",
                          "video" : 
                              {
                                "id" : 180,
                                "_type" : "ScreenVMFile",
                                "src" : 1,
                                "trackNumber" : 0,
                                "attributes" : {
                                  "ident" : "Rec 01-08-21"
                                },
                                "parameters" : {
                                  "cursorScale" : {
                                    "type" : "double",
                                    "defaultValue" : 0.0,
                                    "interp" : "linr"
                                  },
                                  "cursorOpacity" : {
                                    "type" : "double",
                                    "defaultValue" : 0.0,
                                    "interp" : "linr"
                                  }
                                },
                                "effects" : [

                                ],
                                "start" : 460,
                                "duration" : 52,
                                "mediaStart" : 695,
                                "mediaDuration" : 52,
                                "scalar" : 1,
                                "animationTracks" : {

                                }
                              },
                          "audio" : 
                              {
                                "id" : 181,
                                "_type" : "AMFile",
                                "src" : 1,
                                "trackNumber" : 1,
                                "attributes" : {
                                  "ident" : "",
                                  "gain" : 1.0,
                                  "mixToMono" : false
                                },
                                  "channelNumber" : "0,1",
                                "effects" : [

                                ],
                                "start" : 460,
                                "duration" : 52,
                                "mediaStart" : 695,
                                "mediaDuration" : 52,
                                "scalar" : 1,
                                "animationTracks" : {

                                }
                              }
,
                          "start" : 460,
                          "duration" : 52,
                          "mediaStart" : 0,
                          "mediaDuration" : 15121,
                          "scalar" : 1,
                          "metadata" : {
                            "AutoAppliedSmartFocus" : "False",
                            "clipSpeedAttribute" : false
                          }
                        },
                        {
                          "id" : 182,
                          "_type" : "UnifiedMedia",
                          "video" : 
                              {
                                "id" : 183,
                                "_type" : "ScreenVMFile",
                                "src" : 1,
                                "trackNumber" : 0,
                                "attributes" : {
                                  "ident" : "Rec 01-08-21"
                                },
                                "parameters" : {
                                  "cursorScale" : {
                                    "type" : "double",
                                    "defaultValue" : 0.0,
                                    "interp" : "linr"
                                  },
                                  "cursorOpacity" : {
                                    "type" : "double",
                                    "defaultValue" : 0.0,
                                    "interp" : "linr"
                                  }
                                },
                                "effects" : [

                                ],
                                "start" : 512,
                                "duration" : 276,
                                "mediaStart" : 784,
                                "mediaDuration" : 276,
                                "scalar" : 1,
                                "animationTracks" : {

                                }
                              },
                          "audio" : 
                              {
                                "id" : 184,
                                "_type" : "AMFile",
                                "src" : 1,
                                "trackNumber" : 1,
                                "attributes" : {
                                  "ident" : "",
                                  "gain" : 1.0,
                                  "mixToMono" : false
                                },
                                  "channelNumber" : "0,1",
                                "effects" : [

                                ],
                                "start" : 512,
                                "duration" : 276,
                                "mediaStart" : 784,
                                "mediaDuration" : 276,
                                "scalar" : 1,
                                "animationTracks" : {

                                }
                              }
,
                          "start" : 512,
                          "duration" : 276,
                          "mediaStart" : 0,
                          "mediaDuration" : 15121,
                          "scalar" : 1,
                          "metadata" : {
                            "AutoAppliedSmartFocus" : "False",
                            "clipSpeedAttribute" : false
                          }
                        },
                        {
                          "id" : 185,
                          "_type" : "UnifiedMedia",
                          "video" : 
                              {
                                "id" : 186,
                                "_type" : "ScreenVMFile",
                                "src" : 1,
                                "trackNumber" : 0,
                                "attributes" : {
                                  "ident" : "Rec 01-08-21"
                                },
                                "parameters" : {
                                  "cursorScale" : {
                                    "type" : "double",
                                    "defaultValue" : 0.0,
                                    "interp" : "linr"
                                  },
                                  "cursorOpacity" : {
                                    "type" : "double",
                                    "defaultValue" : 0.0,
                                    "interp" : "linr"
                                  }
                                },
                                "effects" : [

                                ],
                                "start" : 788,
                                "duration" : 23,
                                "mediaStart" : 1081,
                                "mediaDuration" : 23,
                                "scalar" : 1,
                                "animationTracks" : {

                                }
                              },
                          "audio" : 
                              {
                                "id" : 187,
                                "_type" : "AMFile",
                                "src" : 1,
                                "trackNumber" : 1,
                                "attributes" : {
                                  "ident" : "",
                                  "gain" : 1.0,
                                  "mixToMono" : false
                                },
                                  "channelNumber" : "0,1",
                                "effects" : [

                                ],
                                "start" : 788,
                                "duration" : 23,
                                "mediaStart" : 1081,
                                "mediaDuration" : 23,
                                "scalar" : 1,
                                "animationTracks" : {

                                }
                              }
,
                          "start" : 788,
                          "duration" : 23,
                          "mediaStart" : 0,
                          "mediaDuration" : 15121,
                          "scalar" : 1,
                          "metadata" : {
                            "AutoAppliedSmartFocus" : "False",
                            "clipSpeedAttribute" : false
                          }
                        },
                        {
                          "id" : 188,
                          "_type" : "UnifiedMedia",
                          "video" : 
                              {
                                "id" : 189,
                                "_type" : "ScreenVMFile",
                                "src" : 1,
                                "trackNumber" : 0,
                                "attributes" : {
                                  "ident" : "Rec 01-08-21"
                                },
                                "parameters" : {
                                  "cursorScale" : {
                                    "type" : "double",
                                    "defaultValue" : 0.0,
                                    "interp" : "linr"
                                  },
                                  "cursorOpacity" : {
                                    "type" : "double",
                                    "defaultValue" : 0.0,
                                    "interp" : "linr"
                                  }
                                },
                                "effects" : [

                                ],
                                "start" : 811,
                                "duration" : 1,
                                "mediaStart" : 1149,
                                "mediaDuration" : 1,
                                "scalar" : 1,
                                "animationTracks" : {

                                }
                              },
                          "audio" : 
                              {
                                "id" : 190,
                                "_type" : "AMFile",
                                "src" : 1,
                                "trackNumber" : 1,
                                "attributes" : {
                                  "ident" : "",
                                  "gain" : 1.0,
                                  "mixToMono" : false
                                },
                                  "channelNumber" : "0,1",
                                "effects" : [

                                ],
                                "start" : 811,
                                "duration" : 1,
                                "mediaStart" : 1149,
                                "mediaDuration" : 1,
                                "scalar" : 1,
                                "animationTracks" : {

                                }
                              }
,
                          "start" : 811,
                          "duration" : 1,
                          "mediaStart" : 0,
                          "mediaDuration" : 15121,
                          "scalar" : 1,
                          "metadata" : {
                            "AutoAppliedSmartFocus" : "False",
                            "clipSpeedAttribute" : false
                          }
                        },
                        {
                          "id" : 191,
                          "_type" : "UnifiedMedia",
                          "video" : 
                              {
                                "id" : 192,
                                "_type" : "ScreenVMFile",
                                "src" : 1,
                                "trackNumber" : 0,
                                "attributes" : {
                                  "ident" : "Rec 01-08-21"
                                },
                                "parameters" : {
                                  "cursorScale" : {
                                    "type" : "double",
                                    "defaultValue" : 0.0,
                                    "interp" : "linr"
                                  },
                                  "cursorOpacity" : {
                                    "type" : "double",
                                    "defaultValue" : 0.0,
                                    "interp" : "linr"
                                  }
                                },
                                "effects" : [

                                ],
                                "start" : 812,
                                "duration" : 29,
                                "mediaStart" : 1153,
                                "mediaDuration" : 29,
                                "scalar" : 1,
                                "animationTracks" : {

                                }
                              },
                          "audio" : 
                              {
                                "id" : 193,
                                "_type" : "AMFile",
                                "src" : 1,
                                "trackNumber" : 1,
                                "attributes" : {
                                  "ident" : "",
                                  "gain" : 1.0,
                                  "mixToMono" : false
                                },
                                  "channelNumber" : "0,1",
                                "effects" : [

                                ],
                                "start" : 812,
                                "duration" : 29,
                                "mediaStart" : 1153,
                                "mediaDuration" : 29,
                                "scalar" : 1,
                                "animationTracks" : {

                                }
                              }
,
                          "start" : 812,
                          "duration" : 29,
                          "mediaStart" : 0,
                          "mediaDuration" : 15121,
                          "scalar" : 1,
                          "metadata" : {
                            "AutoAppliedSmartFocus" : "False",
                            "clipSpeedAttribute" : false
                          }
                        },
                        {
                          "id" : 194,
                          "_type" : "UnifiedMedia",
                          "video" : 
                              {
                                "id" : 195,
                                "_type" : "ScreenVMFile",
                                "src" : 1,
                                "trackNumber" : 0,
                                "attributes" : {
                                  "ident" : "Rec 01-08-21"
                                },
                                "parameters" : {
                                  "cursorScale" : {
                                    "type" : "double",
                                    "defaultValue" : 0.0,
                                    "interp" : "linr"
                                  },
                                  "cursorOpacity" : {
                                    "type" : "double",
                                    "defaultValue" : 0.0,
                                    "interp" : "linr"
                                  }
                                },
                                "effects" : [

                                ],
                                "start" : 841,
                                "duration" : 66,
                                "mediaStart" : 1221,
                                "mediaDuration" : 66,
                                "scalar" : 1,
                                "animationTracks" : {

                                }
                              },
                          "audio" : 
                              {
                                "id" : 196,
                                "_type" : "AMFile",
                                "src" : 1,
                                "trackNumber" : 1,
                                "attributes" : {
                                  "ident" : "",
                                  "gain" : 1.0,
                                  "mixToMono" : false
                                },
                                  "channelNumber" : "0,1",
                                "effects" : [

                                ],
                                "start" : 841,
                                "duration" : 66,
                                "mediaStart" : 1221,
                                "mediaDuration" : 66,
                                "scalar" : 1,
                                "animationTracks" : {

                                }
                              }
,
                          "start" : 841,
                          "duration" : 66,
                          "mediaStart" : 0,
                          "mediaDuration" : 15121,
                          "scalar" : 1,
                          "metadata" : {
                            "AutoAppliedSmartFocus" : "False",
                            "clipSpeedAttribute" : false
                          }
                        },
                        {
                          "id" : 197,
                          "_type" : "UnifiedMedia",
                          "video" : 
                              {
                                "id" : 198,
                                "_type" : "ScreenVMFile",
                                "src" : 1,
                                "trackNumber" : 0,
                                "attributes" : {
                                  "ident" : "Rec 01-08-21"
                                },
                                "parameters" : {
                                  "cursorScale" : {
                                    "type" : "double",
                                    "defaultValue" : 0.0,
                                    "interp" : "linr"
                                  },
                                  "cursorOpacity" : {
                                    "type" : "double",
                                    "defaultValue" : 0.0,
                                    "interp" : "linr"
                                  }
                                },
                                "effects" : [

                                ],
                                "start" : 907,
                                "duration" : 927,
                                "mediaStart" : 1761,
                                "mediaDuration" : 927,
                                "scalar" : 1,
                                "animationTracks" : {

                                }
                              },
                          "audio" : 
                              {
                                "id" : 199,
                                "_type" : "AMFile",
                                "src" : 1,
                                "trackNumber" : 1,
                                "attributes" : {
                                  "ident" : "",
                                  "gain" : 1.0,
                                  "mixToMono" : false
                                },
                                  "channelNumber" : "0,1",
                                "effects" : [

                                ],
                                "start" : 907,
                                "duration" : 927,
                                "mediaStart" : 1761,
                                "mediaDuration" : 927,
                                "scalar" : 1,
                                "animationTracks" : {

                                }
                              }
,
                          "start" : 907,
                          "duration" : 927,
                          "mediaStart" : 0,
                          "mediaDuration" : 15121,
                          "scalar" : 1,
                          "metadata" : {
                            "AutoAppliedSmartFocus" : "False",
                            "clipSpeedAttribute" : false
                          }
                        },
                        {
                          "id" : 200,
                          "_type" : "UnifiedMedia",
                          "video" : 
                              {
                                "id" : 201,
                                "_type" : "ScreenVMFile",
                                "src" : 1,
                                "trackNumber" : 0,
                                "attributes" : {
                                  "ident" : "Rec 01-08-21"
                                },
                                "parameters" : {
                                  "cursorScale" : {
                                    "type" : "double",
                                    "defaultValue" : 0.0,
                                    "interp" : "linr"
                                  },
                                  "cursorOpacity" : {
                                    "type" : "double",
                                    "defaultValue" : 0.0,
                                    "interp" : "linr"
                                  }
                                },
                                "effects" : [

                                ],
                                "start" : 1834,
                                "duration" : 152,
                                "mediaStart" : 6040,
                                "mediaDuration" : 152,
                                "scalar" : 1,
                                "animationTracks" : {

                                }
                              },
                          "audio" : 
                              {
                                "id" : 202,
                                "_type" : "AMFile",
                                "src" : 1,
                                "trackNumber" : 1,
                                "attributes" : {
                                  "ident" : "",
                                  "gain" : 1.0,
                                  "mixToMono" : false
                                },
                                  "channelNumber" : "0,1",
                                "effects" : [

                                ],
                                "start" : 1834,
                                "duration" : 152,
                                "mediaStart" : 6040,
                                "mediaDuration" : 152,
                                "scalar" : 1,
                                "animationTracks" : {

                                }
                              }
,
                          "start" : 1834,
                          "duration" : 152,
                          "mediaStart" : 0,
                          "mediaDuration" : 15121,
                          "scalar" : 1,
                          "metadata" : {
                            "AutoAppliedSmartFocus" : "False",
                            "clipSpeedAttribute" : false
                          }
                        },
                        {
                          "id" : 203,
                          "_type" : "UnifiedMedia",
                          "video" : 
                              {
                                "id" : 204,
                                "_type" : "ScreenVMFile",
                                "src" : 1,
                                "trackNumber" : 0,
                                "attributes" : {
                                  "ident" : "Rec 01-08-21"
                                },
                                "parameters" : {
                                  "cursorScale" : {
                                    "type" : "double",
                                    "defaultValue" : 0.0,
                                    "interp" : "linr"
                                  },
                                  "cursorOpacity" : {
                                    "type" : "double",
                                    "defaultValue" : 0.0,
                                    "interp" : "linr"
                                  }
                                },
                                "effects" : [

                                ],
                                "start" : 1986,
                                "duration" : 3,
                                "mediaStart" : 6242,
                                "mediaDuration" : 3,
                                "scalar" : 1,
                                "animationTracks" : {

                                }
                              },
                          "audio" : 
                              {
                                "id" : 205,
                                "_type" : "AMFile",
                                "src" : 1,
                                "trackNumber" : 1,
                                "attributes" : {
                                  "ident" : "",
                                  "gain" : 1.0,
                                  "mixToMono" : false
                                },
                                  "channelNumber" : "0,1",
                                "effects" : [

                                ],
                                "start" : 1986,
                                "duration" : 3,
                                "mediaStart" : 6242,
                                "mediaDuration" : 3,
                                "scalar" : 1,
                                "animationTracks" : {

                                }
                              }
,
                          "start" : 1986,
                          "duration" : 3,
                          "mediaStart" : 0,
                          "mediaDuration" : 15121,
                          "scalar" : 1,
                          "metadata" : {
                            "AutoAppliedSmartFocus" : "False",
                            "clipSpeedAttribute" : false
                          }
                        },
                        {
                          "id" : 206,
                          "_type" : "UnifiedMedia",
                          "video" : 
                              {
                                "id" : 207,
                                "_type" : "ScreenVMFile",
                                "src" : 1,
                                "trackNumber" : 0,
                                "attributes" : {
                                  "ident" : "Rec 01-08-21"
                                },
                                "parameters" : {
                                  "cursorScale" : {
                                    "type" : "double",
                                    "defaultValue" : 0.0,
                                    "interp" : "linr"
                                  },
                                  "cursorOpacity" : {
                                    "type" : "double",
                                    "defaultValue" : 0.0,
                                    "interp" : "linr"
                                  }
                                },
                                "effects" : [

                                ],
                                "start" : 1989,
                                "duration" : 8838,
                                "mediaStart" : 6283,
                                "mediaDuration" : 8838,
                                "scalar" : 1,
                                "animationTracks" : {

                                }
                              },
                          "audio" : 
                              {
                                "id" : 208,
                                "_type" : "AMFile",
                                "src" : 1,
                                "trackNumber" : 1,
                                "attributes" : {
                                  "ident" : "",
                                  "gain" : 1.0,
                                  "mixToMono" : false
                                },
                                  "channelNumber" : "0,1",
                                "effects" : [

                                ],
                                "start" : 1989,
                                "duration" : 8838,
                                "mediaStart" : 6283,
                                "mediaDuration" : 8838,
                                "scalar" : 1,
                                "animationTracks" : {

                                }
                              }
,
                          "start" : 1989,
                          "duration" : 8838,
                          "mediaStart" : 0,
                          "mediaDuration" : 15121,
                          "scalar" : 1,
                          "metadata" : {
                            "AutoAppliedSmartFocus" : "False",
                            "clipSpeedAttribute" : false
                          }
                        }
                    ],
                    "effects" : [

                    ],
                    "start" : 1607,
                    "duration" : 339,
                    "mediaStart" : 1778,
                    "mediaDuration" : 339,
                    "scalar" : 1,
                    "metadata" : {
                      "AutoAppliedSmartFocus" : "False",
                      "clipSpeedAttribute" : false
                    },
                    "animationTracks" : {

                    }
                  },
                  {
                    "id" : 209,
                    "_type" : "Group",
                    "parameters" : {
                      "volume" : 1.0
                    },
                    "tracks" : [
                      {
                        "trackIndex" : 0,
                        "medias" : [
                          {
                            "id" : 210,
                            "_type" : "StitchedMedia",
                            "minMediaStart" : 0,
                            "attributes" : {
                              "ident" : "Rec 01-08-21",
                              "gain" : 1.0,
                              "mixToMono" : false
                            },
                            "parameters" : {
                              "cursorOpacity" : 1.0,
                              "cursorScale" : 1.0
                            },
                            "medias" : [
                                {
                                  "id" : 211,
                                  "_type" : "ScreenVMFile",
                                  "src" : 1,
                                  "trackNumber" : 0,
                                  "attributes" : {
                                    "ident" : "Rec 01-08-21"
                                  },
                                  "parameters" : {
                                    "cursorScale" : {
                                      "type" : "double",
                                      "defaultValue" : 0.0,
                                      "interp" : "linr"
                                    },
                                    "cursorOpacity" : {
                                      "type" : "double",
                                      "defaultValue" : 0.0,
                                      "interp" : "linr"
                                    }
                                  },
                                  "effects" : [

                                  ],
                                  "start" : 0,
                                  "duration" : 173,
                                  "mediaStart" : 0,
                                  "mediaDuration" : 173,
                                  "scalar" : 1,
                                  "metadata" : {
                                    "AutoAppliedSmartFocus" : "False"
                                  },
                                  "animationTracks" : {

                                  }
                                },
                                {
                                  "id" : 212,
                                  "_type" : "ScreenVMFile",
                                  "src" : 1,
                                  "trackNumber" : 0,
                                  "attributes" : {
                                    "ident" : "Rec 01-08-21"
                                  },
                                  "parameters" : {
                                    "cursorScale" : {
                                      "type" : "double",
                                      "defaultValue" : 0.0,
                                      "interp" : "linr"
                                    },
                                    "cursorOpacity" : {
                                      "type" : "double",
                                      "defaultValue" : 0.0,
                                      "interp" : "linr"
                                    }
                                  },
                                  "effects" : [

                                  ],
                                  "start" : 173,
                                  "duration" : 94,
                                  "mediaStart" : 202,
                                  "mediaDuration" : 94,
                                  "scalar" : 1,
                                  "metadata" : {
                                    "AutoAppliedSmartFocus" : "False"
                                  },
                                  "animationTracks" : {

                                  }
                                },
                                {
                                  "id" : 213,
                                  "_type" : "ScreenVMFile",
                                  "src" : 1,
                                  "trackNumber" : 0,
                                  "attributes" : {
                                    "ident" : "Rec 01-08-21"
                                  },
                                  "parameters" : {
                                    "cursorScale" : {
                                      "type" : "double",
                                      "defaultValue" : 0.0,
                                      "interp" : "linr"
                                    },
                                    "cursorOpacity" : {
                                      "type" : "double",
                                      "defaultValue" : 0.0,
                                      "interp" : "linr"
                                    }
                                  },
                                  "effects" : [

                                  ],
                                  "start" : 267,
                                  "duration" : 31,
                                  "mediaStart" : 306,
                                  "mediaDuration" : 31,
                                  "scalar" : 1,
                                  "metadata" : {
                                    "AutoAppliedSmartFocus" : "False"
                                  },
                                  "animationTracks" : {

                                  }
                                },
                                {
                                  "id" : 214,
                                  "_type" : "ScreenVMFile",
                                  "src" : 1,
                                  "trackNumber" : 0,
                                  "attributes" : {
                                    "ident" : "Rec 01-08-21"
                                  },
                                  "parameters" : {
                                    "cursorScale" : {
                                      "type" : "double",
                                      "defaultValue" : 0.0,
                                      "interp" : "linr"
                                    },
                                    "cursorOpacity" : {
                                      "type" : "double",
                                      "defaultValue" : 0.0,
                                      "interp" : "linr"
                                    }
                                  },
                                  "effects" : [

                                  ],
                                  "start" : 298,
                                  "duration" : 162,
                                  "mediaStart" : 363,
                                  "mediaDuration" : 162,
                                  "scalar" : 1,
                                  "metadata" : {
                                    "AutoAppliedSmartFocus" : "False"
                                  },
                                  "animationTracks" : {

                                  }
                                },
                                {
                                  "id" : 215,
                                  "_type" : "ScreenVMFile",
                                  "src" : 1,
                                  "trackNumber" : 0,
                                  "attributes" : {
                                    "ident" : "Rec 01-08-21"
                                  },
                                  "parameters" : {
                                    "cursorScale" : {
                                      "type" : "double",
                                      "defaultValue" : 0.0,
                                      "interp" : "linr"
                                    },
                                    "cursorOpacity" : {
                                      "type" : "double",
                                      "defaultValue" : 0.0,
                                      "interp" : "linr"
                                    }
                                  },
                                  "effects" : [

                                  ],
                                  "start" : 460,
                                  "duration" : 52,
                                  "mediaStart" : 695,
                                  "mediaDuration" : 52,
                                  "scalar" : 1,
                                  "metadata" : {
                                    "AutoAppliedSmartFocus" : "False"
                                  },
                                  "animationTracks" : {

                                  }
                                },
                                {
                                  "id" : 216,
                                  "_type" : "ScreenVMFile",
                                  "src" : 1,
                                  "trackNumber" : 0,
                                  "attributes" : {
                                    "ident" : "Rec 01-08-21"
                                  },
                                  "parameters" : {
                                    "cursorScale" : {
                                      "type" : "double",
                                      "defaultValue" : 0.0,
                                      "interp" : "linr"
                                    },
                                    "cursorOpacity" : {
                                      "type" : "double",
                                      "defaultValue" : 0.0,
                                      "interp" : "linr"
                                    }
                                  },
                                  "effects" : [

                                  ],
                                  "start" : 512,
                                  "duration" : 276,
                                  "mediaStart" : 784,
                                  "mediaDuration" : 276,
                                  "scalar" : 1,
                                  "metadata" : {
                                    "AutoAppliedSmartFocus" : "False"
                                  },
                                  "animationTracks" : {

                                  }
                                },
                                {
                                  "id" : 217,
                                  "_type" : "ScreenVMFile",
                                  "src" : 1,
                                  "trackNumber" : 0,
                                  "attributes" : {
                                    "ident" : "Rec 01-08-21"
                                  },
                                  "parameters" : {
                                    "cursorScale" : {
                                      "type" : "double",
                                      "defaultValue" : 0.0,
                                      "interp" : "linr"
                                    },
                                    "cursorOpacity" : {
                                      "type" : "double",
                                      "defaultValue" : 0.0,
                                      "interp" : "linr"
                                    }
                                  },
                                  "effects" : [

                                  ],
                                  "start" : 788,
                                  "duration" : 23,
                                  "mediaStart" : 1081,
                                  "mediaDuration" : 23,
                                  "scalar" : 1,
                                  "metadata" : {
                                    "AutoAppliedSmartFocus" : "False"
                                  },
                                  "animationTracks" : {

                                  }
                                },
                                {
                                  "id" : 218,
                                  "_type" : "ScreenVMFile",
                                  "src" : 1,
                                  "trackNumber" : 0,
                                  "attributes" : {
                                    "ident" : "Rec 01-08-21"
                                  },
                                  "parameters" : {
                                    "cursorScale" : {
                                      "type" : "double",
                                      "defaultValue" : 0.0,
                                      "interp" : "linr"
                                    },
                                    "cursorOpacity" : {
                                      "type" : "double",
                                      "defaultValue" : 0.0,
                                      "interp" : "linr"
                                    }
                                  },
                                  "effects" : [

                                  ],
                                  "start" : 811,
                                  "duration" : 1,
                                  "mediaStart" : 1149,
                                  "mediaDuration" : 1,
                                  "scalar" : 1,
                                  "metadata" : {
                                    "AutoAppliedSmartFocus" : "False"
                                  },
                                  "animationTracks" : {

                                  }
                                },
                                {
                                  "id" : 219,
                                  "_type" : "ScreenVMFile",
                                  "src" : 1,
                                  "trackNumber" : 0,
                                  "attributes" : {
                                    "ident" : "Rec 01-08-21"
                                  },
                                  "parameters" : {
                                    "cursorScale" : {
                                      "type" : "double",
                                      "defaultValue" : 0.0,
                                      "interp" : "linr"
                                    },
                                    "cursorOpacity" : {
                                      "type" : "double",
                                      "defaultValue" : 0.0,
                                      "interp" : "linr"
                                    }
                                  },
                                  "effects" : [

                                  ],
                                  "start" : 812,
                                  "duration" : 29,
                                  "mediaStart" : 1153,
                                  "mediaDuration" : 29,
                                  "scalar" : 1,
                                  "metadata" : {
                                    "AutoAppliedSmartFocus" : "False"
                                  },
                                  "animationTracks" : {

                                  }
                                },
                                {
                                  "id" : 220,
                                  "_type" : "ScreenVMFile",
                                  "src" : 1,
                                  "trackNumber" : 0,
                                  "attributes" : {
                                    "ident" : "Rec 01-08-21"
                                  },
                                  "parameters" : {
                                    "cursorScale" : {
                                      "type" : "double",
                                      "defaultValue" : 0.0,
                                      "interp" : "linr"
                                    },
                                    "cursorOpacity" : {
                                      "type" : "double",
                                      "defaultValue" : 0.0,
                                      "interp" : "linr"
                                    }
                                  },
                                  "effects" : [

                                  ],
                                  "start" : 841,
                                  "duration" : 66,
                                  "mediaStart" : 1221,
                                  "mediaDuration" : 66,
                                  "scalar" : 1,
                                  "metadata" : {
                                    "AutoAppliedSmartFocus" : "False"
                                  },
                                  "animationTracks" : {

                                  }
                                },
                                {
                                  "id" : 221,
                                  "_type" : "ScreenVMFile",
                                  "src" : 1,
                                  "trackNumber" : 0,
                                  "attributes" : {
                                    "ident" : "Rec 01-08-21"
                                  },
                                  "parameters" : {
                                    "cursorScale" : {
                                      "type" : "double",
                                      "defaultValue" : 0.0,
                                      "interp" : "linr"
                                    },
                                    "cursorOpacity" : {
                                      "type" : "double",
                                      "defaultValue" : 0.0,
                                      "interp" : "linr"
                                    }
                                  },
                                  "effects" : [

                                  ],
                                  "start" : 907,
                                  "duration" : 927,
                                  "mediaStart" : 1761,
                                  "mediaDuration" : 927,
                                  "scalar" : 1,
                                  "metadata" : {
                                    "AutoAppliedSmartFocus" : "False"
                                  },
                                  "animationTracks" : {

                                  }
                                },
                                {
                                  "id" : 222,
                                  "_type" : "ScreenVMFile",
                                  "src" : 1,
                                  "trackNumber" : 0,
                                  "attributes" : {
                                    "ident" : "Rec 01-08-21"
                                  },
                                  "parameters" : {
                                    "cursorScale" : {
                                      "type" : "double",
                                      "defaultValue" : 0.0,
                                      "interp" : "linr"
                                    },
                                    "cursorOpacity" : {
                                      "type" : "double",
                                      "defaultValue" : 0.0,
                                      "interp" : "linr"
                                    }
                                  },
                                  "effects" : [

                                  ],
                                  "start" : 1834,
                                  "duration" : 152,
                                  "mediaStart" : 6040,
                                  "mediaDuration" : 152,
                                  "scalar" : 1,
                                  "metadata" : {
                                    "AutoAppliedSmartFocus" : "False"
                                  },
                                  "animationTracks" : {

                                  }
                                },
                                {
                                  "id" : 223,
                                  "_type" : "ScreenVMFile",
                                  "src" : 1,
                                  "trackNumber" : 0,
                                  "attributes" : {
                                    "ident" : "Rec 01-08-21"
                                  },
                                  "parameters" : {
                                    "cursorScale" : {
                                      "type" : "double",
                                      "defaultValue" : 0.0,
                                      "interp" : "linr"
                                    },
                                    "cursorOpacity" : {
                                      "type" : "double",
                                      "defaultValue" : 0.0,
                                      "interp" : "linr"
                                    }
                                  },
                                  "effects" : [

                                  ],
                                  "start" : 1986,
                                  "duration" : 3,
                                  "mediaStart" : 6242,
                                  "mediaDuration" : 3,
                                  "scalar" : 1,
                                  "metadata" : {
                                    "AutoAppliedSmartFocus" : "False"
                                  },
                                  "animationTracks" : {

                                  }
                                },
                                {
                                  "id" : 224,
                                  "_type" : "ScreenVMFile",
                                  "src" : 1,
                                  "trackNumber" : 0,
                                  "attributes" : {
                                    "ident" : "Rec 01-08-21"
                                  },
                                  "parameters" : {
                                    "cursorScale" : {
                                      "type" : "double",
                                      "defaultValue" : 0.0,
                                      "interp" : "linr"
                                    },
                                    "cursorOpacity" : {
                                      "type" : "double",
                                      "defaultValue" : 0.0,
                                      "interp" : "linr"
                                    }
                                  },
                                  "effects" : [

                                  ],
                                  "start" : 1989,
                                  "duration" : 8849,
                                  "mediaStart" : 6283,
                                  "mediaDuration" : 8849,
                                  "scalar" : 1,
                                  "metadata" : {
                                    "AutoAppliedSmartFocus" : "False"
                                  },
                                  "animationTracks" : {

                                  }
                                }
                            ],
                            "effects" : [

                            ],
                            "start" : 0,
                            "duration" : 104,
                            "mediaStart" : 2117,
                            "mediaDuration" : 104,
                            "scalar" : 1,
                            "metadata" : {
                              "AutoAppliedSmartFocus" : "False",
                              "clipSpeedAttribute" : false
                            },
                            "animationTracks" : {

                            }
                          }
                        ],
                          "ident" : "",
                          "audioMuted" : false,
                          "videoHidden" : false,
                          "magnetic" : false,
                          "matte" : 0,
                          "metadata" : {
                            "IsLocked" : "False",
                            "WinTrackHeight" : "0"
                          }
                      },
                      {
                        "trackIndex" : 1,
                        "medias" : [
                          {
                            "id" : 225,
                            "_type" : "AMFile",
                            "src" : 3,
                            "trackNumber" : 0,
                            "attributes" : {
                              "ident" : "Narration_2-4 Install K8s Plugin in VS Code 2",
                              "gain" : 1.0,
                              "mixToMono" : false
                            },
                              "channelNumber" : "0,1",
                            "effects" : [

                            ],
                            "start" : 0,
                            "duration" : 104,
                            "mediaStart" : 0,
                            "mediaDuration" : 104,
                            "scalar" : 1,
                            "metadata" : {
                              "clipSpeedAttribute" : false
                            },
                            "animationTracks" : {

                            }
                          }
                        ],
                          "ident" : "",
                          "audioMuted" : false,
                          "videoHidden" : false,
                          "magnetic" : false,
                          "matte" : 0,
                          "metadata" : {
                            "IsLocked" : "False",
                            "WinTrackHeight" : "4.71866372723581e-312"
                          }
                      }
                    ],
                    "attributes" : {
                      "ident" : "Group 2",
                      "gain" : 1.0,
                      "mixToMono" : false
                    },
                    "effects" : [

                    ],
                    "start" : 1946,
                    "duration" : 104,
                    "mediaStart" : 0.0,
                    "mediaDuration" : 104.0,
                    "scalar" : 1,
                    "metadata" : {
                      "IsGroupExpanded" : "False"
                    },
                    "animationTracks" : {

                    }
                  },
                  {
                    "id" : 226,
                    "_type" : "StitchedMedia",
                    "minMediaStart" : 0,
                    "attributes" : {
                      "ident" : "Rec 01-08-21",
                      "gain" : 1.0,
                      "mixToMono" : false
                    },
                    "parameters" : {
                      "volume" : 1.0,
                      "cursorOpacity" : 1.0,
                      "cursorScale" : 1.0
                    },
                    "medias" : [
                        {
                          "id" : 227,
                          "_type" : "UnifiedMedia",
                          "video" : 
                              {
                                "id" : 228,
                                "_type" : "ScreenVMFile",
                                "src" : 1,
                                "trackNumber" : 0,
                                "attributes" : {
                                  "ident" : "Rec 01-08-21"
                                },
                                "parameters" : {
                                  "cursorScale" : {
                                    "type" : "double",
                                    "defaultValue" : 0.0,
                                    "interp" : "linr"
                                  },
                                  "cursorOpacity" : {
                                    "type" : "double",
                                    "defaultValue" : 0.0,
                                    "interp" : "linr"
                                  }
                                },
                                "effects" : [

                                ],
                                "start" : 0,
                                "duration" : 7849,
                                "mediaStart" : 0,
                                "mediaDuration" : 7849,
                                "scalar" : 1,
                                "animationTracks" : {

                                }
                              },
                          "audio" : 
                              {
                                "id" : 229,
                                "_type" : "AMFile",
                                "src" : 1,
                                "trackNumber" : 1,
                                "attributes" : {
                                  "ident" : "",
                                  "gain" : 1.0,
                                  "mixToMono" : false
                                },
                                  "channelNumber" : "0,1",
                                "effects" : [

                                ],
                                "start" : 0,
                                "duration" : 7849,
                                "mediaStart" : 0,
                                "mediaDuration" : 7849,
                                "scalar" : 1,
                                "animationTracks" : {

                                }
                              }
,
                          "start" : 0,
                          "duration" : 7849,
                          "mediaStart" : 0,
                          "mediaDuration" : 15121,
                          "scalar" : 1,
                          "metadata" : {
                            "AutoAppliedSmartFocus" : "False",
                            "clipSpeedAttribute" : false
                          }
                        },
                        {
                          "id" : 230,
                          "_type" : "UnifiedMedia",
                          "video" : 
                              {
                                "id" : 231,
                                "_type" : "ScreenVMFile",
                                "src" : 1,
                                "trackNumber" : 0,
                                "attributes" : {
                                  "ident" : "Rec 01-08-21"
                                },
                                "parameters" : {
                                  "cursorScale" : {
                                    "type" : "double",
                                    "defaultValue" : 0.0,
                                    "interp" : "linr"
                                  },
                                  "cursorOpacity" : {
                                    "type" : "double",
                                    "defaultValue" : 0.0,
                                    "interp" : "linr"
                                  }
                                },
                                "effects" : [

                                ],
                                "start" : 7849,
                                "duration" : 102,
                                "mediaStart" : 7909,
                                "mediaDuration" : 102,
                                "scalar" : 1,
                                "animationTracks" : {

                                }
                              },
                          "audio" : 
                              {
                                "id" : 232,
                                "_type" : "AMFile",
                                "src" : 1,
                                "trackNumber" : 1,
                                "attributes" : {
                                  "ident" : "",
                                  "gain" : 1.0,
                                  "mixToMono" : false
                                },
                                  "channelNumber" : "0,1",
                                "effects" : [

                                ],
                                "start" : 7849,
                                "duration" : 102,
                                "mediaStart" : 7909,
                                "mediaDuration" : 102,
                                "scalar" : 1,
                                "animationTracks" : {

                                }
                              }
,
                          "start" : 7849,
                          "duration" : 102,
                          "mediaStart" : 0,
                          "mediaDuration" : 15121,
                          "scalar" : 1,
                          "metadata" : {
                            "AutoAppliedSmartFocus" : "False",
                            "clipSpeedAttribute" : false
                          }
                        },
                        {
                          "id" : 233,
                          "_type" : "UnifiedMedia",
                          "video" : 
                              {
                                "id" : 234,
                                "_type" : "ScreenVMFile",
                                "src" : 1,
                                "trackNumber" : 0,
                                "attributes" : {
                                  "ident" : "Rec 01-08-21"
                                },
                                "parameters" : {
                                  "cursorScale" : {
                                    "type" : "double",
                                    "defaultValue" : 0.0,
                                    "interp" : "linr"
                                  },
                                  "cursorOpacity" : {
                                    "type" : "double",
                                    "defaultValue" : 0.0,
                                    "interp" : "linr"
                                  }
                                },
                                "effects" : [

                                ],
                                "start" : 7951,
                                "duration" : 7092,
                                "mediaStart" : 8029,
                                "mediaDuration" : 7092,
                                "scalar" : 1,
                                "animationTracks" : {

                                }
                              },
                          "audio" : 
                              {
                                "id" : 235,
                                "_type" : "AMFile",
                                "src" : 1,
                                "trackNumber" : 1,
                                "attributes" : {
                                  "ident" : "",
                                  "gain" : 1.0,
                                  "mixToMono" : false
                                },
                                  "channelNumber" : "0,1",
                                "effects" : [

                                ],
                                "start" : 7951,
                                "duration" : 7092,
                                "mediaStart" : 8029,
                                "mediaDuration" : 7092,
                                "scalar" : 1,
                                "animationTracks" : {

                                }
                              }
,
                          "start" : 7951,
                          "duration" : 7092,
                          "mediaStart" : 0,
                          "mediaDuration" : 15121,
                          "scalar" : 1,
                          "metadata" : {
                            "AutoAppliedSmartFocus" : "False",
                            "clipSpeedAttribute" : false
                          }
                        }
                    ],
                    "effects" : [

                    ],
                    "start" : 2050,
                    "duration" : 505,
                    "mediaStart" : 7478,
                    "mediaDuration" : 505,
                    "scalar" : 1,
                    "metadata" : {
                      "AutoAppliedSmartFocus" : "False",
                      "clipSpeedAttribute" : false
                    },
                    "animationTracks" : {

                    }
                  },
                  {
                    "id" : 236,
                    "_type" : "Group",
                    "parameters" : {
                      "volume" : 1.0
                    },
                    "tracks" : [
                      {
                        "trackIndex" : 0,
                        "medias" : [
                          {
                            "id" : 237,
                            "_type" : "StitchedMedia",
                            "minMediaStart" : 0,
                            "attributes" : {
                              "ident" : "Rec 01-08-21",
                              "gain" : 1.0,
                              "mixToMono" : false
                            },
                            "parameters" : {
                              "cursorOpacity" : 1.0,
                              "cursorScale" : 1.0
                            },
                            "medias" : [
                                {
                                  "id" : 238,
                                  "_type" : "ScreenVMFile",
                                  "src" : 1,
                                  "trackNumber" : 0,
                                  "attributes" : {
                                    "ident" : "Rec 01-08-21"
                                  },
                                  "parameters" : {
                                    "cursorScale" : {
                                      "type" : "double",
                                      "defaultValue" : 0.0,
                                      "interp" : "linr"
                                    },
                                    "cursorOpacity" : {
                                      "type" : "double",
                                      "defaultValue" : 0.0,
                                      "interp" : "linr"
                                    }
                                  },
                                  "effects" : [

                                  ],
                                  "start" : 0,
                                  "duration" : 7849,
                                  "mediaStart" : 0,
                                  "mediaDuration" : 7849,
                                  "scalar" : 1,
                                  "metadata" : {
                                    "AutoAppliedSmartFocus" : "False"
                                  },
                                  "animationTracks" : {

                                  }
                                },
                                {
                                  "id" : 239,
                                  "_type" : "ScreenVMFile",
                                  "src" : 1,
                                  "trackNumber" : 0,
                                  "attributes" : {
                                    "ident" : "Rec 01-08-21"
                                  },
                                  "parameters" : {
                                    "cursorScale" : {
                                      "type" : "double",
                                      "defaultValue" : 0.0,
                                      "interp" : "linr"
                                    },
                                    "cursorOpacity" : {
                                      "type" : "double",
                                      "defaultValue" : 0.0,
                                      "interp" : "linr"
                                    }
                                  },
                                  "effects" : [

                                  ],
                                  "start" : 7849,
                                  "duration" : 102,
                                  "mediaStart" : 7909,
                                  "mediaDuration" : 102,
                                  "scalar" : 1,
                                  "metadata" : {
                                    "AutoAppliedSmartFocus" : "False"
                                  },
                                  "animationTracks" : {

                                  }
                                },
                                {
                                  "id" : 240,
                                  "_type" : "ScreenVMFile",
                                  "src" : 1,
                                  "trackNumber" : 0,
                                  "attributes" : {
                                    "ident" : "Rec 01-08-21"
                                  },
                                  "parameters" : {
                                    "cursorScale" : {
                                      "type" : "double",
                                      "defaultValue" : 0.0,
                                      "interp" : "linr"
                                    },
                                    "cursorOpacity" : {
                                      "type" : "double",
                                      "defaultValue" : 0.0,
                                      "interp" : "linr"
                                    }
                                  },
                                  "effects" : [

                                  ],
                                  "start" : 7951,
                                  "duration" : 7103,
                                  "mediaStart" : 8029,
                                  "mediaDuration" : 7103,
                                  "scalar" : 1,
                                  "metadata" : {
                                    "AutoAppliedSmartFocus" : "False"
                                  },
                                  "animationTracks" : {

                                  }
                                }
                            ],
                            "effects" : [

                            ],
                            "start" : 0,
                            "duration" : 324,
                            "mediaStart" : 7983,
                            "mediaDuration" : 324,
                            "scalar" : 1,
                            "metadata" : {
                              "AutoAppliedSmartFocus" : "False",
                              "clipSpeedAttribute" : false
                            },
                            "animationTracks" : {

                            }
                          }
                        ],
                          "ident" : "",
                          "audioMuted" : false,
                          "videoHidden" : false,
                          "magnetic" : false,
                          "matte" : 0,
                          "metadata" : {
                            "IsLocked" : "False",
                            "WinTrackHeight" : "0"
                          }
                      },
                      {
                        "trackIndex" : 1,
                        "medias" : [
                          {
                            "id" : 241,
                            "_type" : "AMFile",
                            "src" : 4,
                            "trackNumber" : 0,
                            "attributes" : {
                              "ident" : "Narration_2-4 Install K8s Plugin in VS Code 3",
                              "gain" : 1.0,
                              "mixToMono" : false
                            },
                              "channelNumber" : "0,1",
                            "parameters" : {
                              "volume" : 2.71428571428571
                            },
                            "effects" : [

                            ],
                            "start" : 0,
                            "duration" : 324,
                            "mediaStart" : 0,
                            "mediaDuration" : 324,
                            "scalar" : 1,
                            "metadata" : {
                              "clipSpeedAttribute" : false
                            },
                            "animationTracks" : {

                            }
                          }
                        ],
                          "ident" : "",
                          "audioMuted" : false,
                          "videoHidden" : false,
                          "magnetic" : false,
                          "matte" : 0,
                          "metadata" : {
                            "IsLocked" : "False",
                            "WinTrackHeight" : "4.7186637262872e-312"
                          }
                      }
                    ],
                    "attributes" : {
                      "ident" : "Group 3",
                      "gain" : 1.0,
                      "mixToMono" : false
                    },
                    "effects" : [

                    ],
                    "start" : 2555,
                    "duration" : 324,
                    "mediaStart" : 0.0,
                    "mediaDuration" : 324.0,
                    "scalar" : 1,
                    "metadata" : {
                      "IsGroupExpanded" : "False"
                    },
                    "animationTracks" : {

                    }
                  },
                  {
                    "id" : 242,
                    "_type" : "UnifiedMedia",
                    "video" : 
                        {
                          "id" : 243,
                          "_type" : "ScreenVMFile",
                          "src" : 1,
                          "trackNumber" : 0,
                          "attributes" : {
                            "ident" : "Rec 01-08-21"
                          },
                          "parameters" : {
                            "cursorScale" : {
                              "type" : "double",
                              "defaultValue" : 1.0,
                              "interp" : "linr"
                            },
                            "cursorOpacity" : {
                              "type" : "double",
                              "defaultValue" : 1.0,
                              "interp" : "linr"
                            }
                          },
                          "effects" : [

                          ],
                          "start" : 2879,
                          "duration" : 82,
                          "mediaStart" : 8522,
                          "mediaDuration" : 82,
                          "scalar" : 1,
                          "animationTracks" : {

                          }
                        },
                    "audio" : 
                        {
                          "id" : 244,
                          "_type" : "AMFile",
                          "src" : 1,
                          "trackNumber" : 1,
                          "attributes" : {
                            "ident" : "",
                            "gain" : 1.0,
                            "mixToMono" : false
                          },
                            "channelNumber" : "0,1",
                          "effects" : [

                          ],
                          "start" : 2879,
                          "duration" : 82,
                          "mediaStart" : 8522,
                          "mediaDuration" : 82,
                          "scalar" : 1,
                          "animationTracks" : {

                          }
                        }
,
                    "start" : 2879,
                    "duration" : 82,
                    "mediaStart" : 0,
                    "mediaDuration" : 15121,
                    "scalar" : 1,
                    "metadata" : {
                      "AutoAppliedSmartFocus" : "False",
                      "clipSpeedAttribute" : false
                    }
                  },
                  {
                    "id" : 245,
                    "_type" : "Group",
                    "parameters" : {
                      "volume" : 1.0
                    },
                    "tracks" : [
                      {
                        "trackIndex" : 0,
                        "medias" : [
                          {
                            "id" : 246,
                            "_type" : "ScreenVMFile",
                            "src" : 1,
                            "trackNumber" : 0,
                            "attributes" : {
                              "ident" : "Rec 01-08-21"
                            },
                            "parameters" : {
                              "cursorScale" : {
                                "type" : "double",
                                "defaultValue" : 1.0,
                                "interp" : "linr"
                              },
                              "cursorOpacity" : {
                                "type" : "double",
                                "defaultValue" : 1.0,
                                "interp" : "linr"
                              }
                            },
                            "effects" : [

                            ],
                            "start" : 0,
                            "duration" : 135,
                            "mediaStart" : 8604,
                            "mediaDuration" : 135,
                            "scalar" : 1,
                            "metadata" : {
                              "AutoAppliedSmartFocus" : "False",
                              "clipSpeedAttribute" : false
                            },
                            "animationTracks" : {

                            }
                          }
                        ],
                          "ident" : "",
                          "audioMuted" : false,
                          "videoHidden" : false,
                          "magnetic" : false,
                          "matte" : 0,
                          "metadata" : {
                            "IsLocked" : "False",
                            "WinTrackHeight" : "0"
                          }
                      },
                      {
                        "trackIndex" : 1,
                        "medias" : [
                          {
                            "id" : 247,
                            "_type" : "AMFile",
                            "src" : 5,
                            "trackNumber" : 0,
                            "attributes" : {
                              "ident" : "Narration_2-4 Install K8s Plugin in VS Code 4",
                              "gain" : 1.0,
                              "mixToMono" : false
                            },
                              "channelNumber" : "0,1",
                            "effects" : [

                            ],
                            "start" : 0,
                            "duration" : 135,
                            "mediaStart" : 0,
                            "mediaDuration" : 135,
                            "scalar" : 1,
                            "metadata" : {
                              "clipSpeedAttribute" : false
                            },
                            "animationTracks" : {

                            }
                          }
                        ],
                          "ident" : "",
                          "audioMuted" : false,
                          "videoHidden" : false,
                          "magnetic" : false,
                          "matte" : 0,
                          "metadata" : {
                            "IsLocked" : "False",
                            "WinTrackHeight" : "4.7186637258129e-312"
                          }
                      }
                    ],
                    "attributes" : {
                      "ident" : "Group 4",
                      "gain" : 1.0,
                      "mixToMono" : false
                    },
                    "effects" : [

                    ],
                    "start" : 2961,
                    "duration" : 135,
                    "mediaStart" : 0.0,
                    "mediaDuration" : 135.0,
                    "scalar" : 1,
                    "metadata" : {
                      "IsGroupExpanded" : "False"
                    },
                    "animationTracks" : {

                    }
                  },
                  {
                    "id" : 248,
                    "_type" : "StitchedMedia",
                    "minMediaStart" : 0,
                    "attributes" : {
                      "ident" : "Rec 01-08-21",
                      "gain" : 1.0,
                      "mixToMono" : false
                    },
                    "parameters" : {
                      "volume" : 1.0,
                      "cursorOpacity" : 1.0,
                      "cursorScale" : 1.0
                    },
                    "medias" : [
                        {
                          "id" : 249,
                          "_type" : "UnifiedMedia",
                          "video" : 
                              {
                                "id" : 250,
                                "_type" : "ScreenVMFile",
                                "src" : 1,
                                "trackNumber" : 0,
                                "attributes" : {
                                  "ident" : "Rec 01-08-21"
                                },
                                "parameters" : {
                                  "cursorScale" : {
                                    "type" : "double",
                                    "defaultValue" : 0.0,
                                    "interp" : "linr"
                                  },
                                  "cursorOpacity" : {
                                    "type" : "double",
                                    "defaultValue" : 0.0,
                                    "interp" : "linr"
                                  }
                                },
                                "effects" : [

                                ],
                                "start" : 0,
                                "duration" : 8898,
                                "mediaStart" : 0,
                                "mediaDuration" : 8898,
                                "scalar" : 1,
                                "animationTracks" : {

                                }
                              },
                          "audio" : 
                              {
                                "id" : 251,
                                "_type" : "AMFile",
                                "src" : 1,
                                "trackNumber" : 1,
                                "attributes" : {
                                  "ident" : "",
                                  "gain" : 1.0,
                                  "mixToMono" : false
                                },
                                  "channelNumber" : "0,1",
                                "effects" : [

                                ],
                                "start" : 0,
                                "duration" : 8898,
                                "mediaStart" : 0,
                                "mediaDuration" : 8898,
                                "scalar" : 1,
                                "animationTracks" : {

                                }
                              }
,
                          "start" : 0,
                          "duration" : 8898,
                          "mediaStart" : 0,
                          "mediaDuration" : 15121,
                          "scalar" : 1,
                          "metadata" : {
                            "AutoAppliedSmartFocus" : "False",
                            "clipSpeedAttribute" : false
                          }
                        },
                        {
                          "id" : 252,
                          "_type" : "UnifiedMedia",
                          "video" : 
                              {
                                "id" : 253,
                                "_type" : "ScreenVMFile",
                                "src" : 1,
                                "trackNumber" : 0,
                                "attributes" : {
                                  "ident" : "Rec 01-08-21"
                                },
                                "parameters" : {
                                  "cursorScale" : {
                                    "type" : "double",
                                    "defaultValue" : 0.0,
                                    "interp" : "linr"
                                  },
                                  "cursorOpacity" : {
                                    "type" : "double",
                                    "defaultValue" : 0.0,
                                    "interp" : "linr"
                                  }
                                },
                                "effects" : [

                                ],
                                "start" : 8898,
                                "duration" : 19,
                                "mediaStart" : 8912,
                                "mediaDuration" : 19,
                                "scalar" : 1,
                                "animationTracks" : {

                                }
                              },
                          "audio" : 
                              {
                                "id" : 254,
                                "_type" : "AMFile",
                                "src" : 1,
                                "trackNumber" : 1,
                                "attributes" : {
                                  "ident" : "",
                                  "gain" : 1.0,
                                  "mixToMono" : false
                                },
                                  "channelNumber" : "0,1",
                                "effects" : [

                                ],
                                "start" : 8898,
                                "duration" : 19,
                                "mediaStart" : 8912,
                                "mediaDuration" : 19,
                                "scalar" : 1,
                                "animationTracks" : {

                                }
                              }
,
                          "start" : 8898,
                          "duration" : 19,
                          "mediaStart" : 0,
                          "mediaDuration" : 15121,
                          "scalar" : 1,
                          "metadata" : {
                            "AutoAppliedSmartFocus" : "False",
                            "clipSpeedAttribute" : false
                          }
                        },
                        {
                          "id" : 255,
                          "_type" : "UnifiedMedia",
                          "video" : 
                              {
                                "id" : 256,
                                "_type" : "ScreenVMFile",
                                "src" : 1,
                                "trackNumber" : 0,
                                "attributes" : {
                                  "ident" : "Rec 01-08-21"
                                },
                                "parameters" : {
                                  "cursorScale" : {
                                    "type" : "double",
                                    "defaultValue" : 0.0,
                                    "interp" : "linr"
                                  },
                                  "cursorOpacity" : {
                                    "type" : "double",
                                    "defaultValue" : 0.0,
                                    "interp" : "linr"
                                  }
                                },
                                "effects" : [

                                ],
                                "start" : 8917,
                                "duration" : 157,
                                "mediaStart" : 8951,
                                "mediaDuration" : 157,
                                "scalar" : 1,
                                "animationTracks" : {

                                }
                              },
                          "audio" : 
                              {
                                "id" : 257,
                                "_type" : "AMFile",
                                "src" : 1,
                                "trackNumber" : 1,
                                "attributes" : {
                                  "ident" : "",
                                  "gain" : 1.0,
                                  "mixToMono" : false
                                },
                                  "channelNumber" : "0,1",
                                "effects" : [

                                ],
                                "start" : 8917,
                                "duration" : 157,
                                "mediaStart" : 8951,
                                "mediaDuration" : 157,
                                "scalar" : 1,
                                "animationTracks" : {

                                }
                              }
,
                          "start" : 8917,
                          "duration" : 157,
                          "mediaStart" : 0,
                          "mediaDuration" : 15121,
                          "scalar" : 1,
                          "metadata" : {
                            "AutoAppliedSmartFocus" : "False",
                            "clipSpeedAttribute" : false
                          }
                        },
                        {
                          "id" : 258,
                          "_type" : "UnifiedMedia",
                          "video" : 
                              {
                                "id" : 259,
                                "_type" : "ScreenVMFile",
                                "src" : 1,
                                "trackNumber" : 0,
                                "attributes" : {
                                  "ident" : "Rec 01-08-21"
                                },
                                "parameters" : {
                                  "cursorScale" : {
                                    "type" : "double",
                                    "defaultValue" : 0.0,
                                    "interp" : "linr"
                                  },
                                  "cursorOpacity" : {
                                    "type" : "double",
                                    "defaultValue" : 0.0,
                                    "interp" : "linr"
                                  }
                                },
                                "effects" : [

                                ],
                                "start" : 9074,
                                "duration" : 226,
                                "mediaStart" : 9157,
                                "mediaDuration" : 226,
                                "scalar" : 1,
                                "animationTracks" : {

                                }
                              },
                          "audio" : 
                              {
                                "id" : 260,
                                "_type" : "AMFile",
                                "src" : 1,
                                "trackNumber" : 1,
                                "attributes" : {
                                  "ident" : "",
                                  "gain" : 1.0,
                                  "mixToMono" : false
                                },
                                  "channelNumber" : "0,1",
                                "effects" : [

                                ],
                                "start" : 9074,
                                "duration" : 226,
                                "mediaStart" : 9157,
                                "mediaDuration" : 226,
                                "scalar" : 1,
                                "animationTracks" : {

                                }
                              }
,
                          "start" : 9074,
                          "duration" : 226,
                          "mediaStart" : 0,
                          "mediaDuration" : 15121,
                          "scalar" : 1,
                          "metadata" : {
                            "AutoAppliedSmartFocus" : "False",
                            "clipSpeedAttribute" : false
                          }
                        },
                        {
                          "id" : 261,
                          "_type" : "UnifiedMedia",
                          "video" : 
                              {
                                "id" : 262,
                                "_type" : "ScreenVMFile",
                                "src" : 1,
                                "trackNumber" : 0,
                                "attributes" : {
                                  "ident" : "Rec 01-08-21"
                                },
                                "parameters" : {
                                  "cursorScale" : {
                                    "type" : "double",
                                    "defaultValue" : 0.0,
                                    "interp" : "linr"
                                  },
                                  "cursorOpacity" : {
                                    "type" : "double",
                                    "defaultValue" : 0.0,
                                    "interp" : "linr"
                                  }
                                },
                                "effects" : [

                                ],
                                "start" : 9300,
                                "duration" : 224,
                                "mediaStart" : 9486,
                                "mediaDuration" : 224,
                                "scalar" : 1,
                                "animationTracks" : {

                                }
                              },
                          "audio" : 
                              {
                                "id" : 263,
                                "_type" : "AMFile",
                                "src" : 1,
                                "trackNumber" : 1,
                                "attributes" : {
                                  "ident" : "",
                                  "gain" : 1.0,
                                  "mixToMono" : false
                                },
                                  "channelNumber" : "0,1",
                                "effects" : [

                                ],
                                "start" : 9300,
                                "duration" : 224,
                                "mediaStart" : 9486,
                                "mediaDuration" : 224,
                                "scalar" : 1,
                                "animationTracks" : {

                                }
                              }
,
                          "start" : 9300,
                          "duration" : 224,
                          "mediaStart" : 0,
                          "mediaDuration" : 15121,
                          "scalar" : 1,
                          "metadata" : {
                            "AutoAppliedSmartFocus" : "False",
                            "clipSpeedAttribute" : false
                          }
                        },
                        {
                          "id" : 264,
                          "_type" : "UnifiedMedia",
                          "video" : 
                              {
                                "id" : 265,
                                "_type" : "ScreenVMFile",
                                "src" : 1,
                                "trackNumber" : 0,
                                "attributes" : {
                                  "ident" : "Rec 01-08-21"
                                },
                                "parameters" : {
                                  "cursorScale" : {
                                    "type" : "double",
                                    "defaultValue" : 0.0,
                                    "interp" : "linr"
                                  },
                                  "cursorOpacity" : {
                                    "type" : "double",
                                    "defaultValue" : 0.0,
                                    "interp" : "linr"
                                  }
                                },
                                "effects" : [

                                ],
                                "start" : 9524,
                                "duration" : 5209,
                                "mediaStart" : 9912,
                                "mediaDuration" : 5209,
                                "scalar" : 1,
                                "animationTracks" : {

                                }
                              },
                          "audio" : 
                              {
                                "id" : 266,
                                "_type" : "AMFile",
                                "src" : 1,
                                "trackNumber" : 1,
                                "attributes" : {
                                  "ident" : "",
                                  "gain" : 1.0,
                                  "mixToMono" : false
                                },
                                  "channelNumber" : "0,1",
                                "effects" : [

                                ],
                                "start" : 9524,
                                "duration" : 5209,
                                "mediaStart" : 9912,
                                "mediaDuration" : 5209,
                                "scalar" : 1,
                                "animationTracks" : {

                                }
                              }
,
                          "start" : 9524,
                          "duration" : 5209,
                          "mediaStart" : 0,
                          "mediaDuration" : 15121,
                          "scalar" : 1,
                          "metadata" : {
                            "AutoAppliedSmartFocus" : "False",
                            "clipSpeedAttribute" : false
                          }
                        }
                    ],
                    "effects" : [

                    ],
                    "start" : 3096,
                    "duration" : 455,
                    "mediaStart" : 8883,
                    "mediaDuration" : 455,
                    "scalar" : 1,
                    "metadata" : {
                      "AutoAppliedSmartFocus" : "False",
                      "clipSpeedAttribute" : false
                    },
                    "animationTracks" : {

                    }
                  },
                  {
                    "id" : 267,
                    "_type" : "Group",
                    "parameters" : {
                      "volume" : 1.0
                    },
                    "tracks" : [
                      {
                        "trackIndex" : 0,
                        "medias" : [
                          {
                            "id" : 268,
                            "_type" : "StitchedMedia",
                            "minMediaStart" : 0,
                            "attributes" : {
                              "ident" : "Rec 01-08-21",
                              "gain" : 1.0,
                              "mixToMono" : false
                            },
                            "parameters" : {
                              "cursorOpacity" : 1.0,
                              "cursorScale" : 1.0
                            },
                            "medias" : [
                                {
                                  "id" : 269,
                                  "_type" : "ScreenVMFile",
                                  "src" : 1,
                                  "trackNumber" : 0,
                                  "attributes" : {
                                    "ident" : "Rec 01-08-21"
                                  },
                                  "parameters" : {
                                    "cursorScale" : {
                                      "type" : "double",
                                      "defaultValue" : 0.0,
                                      "interp" : "linr"
                                    },
                                    "cursorOpacity" : {
                                      "type" : "double",
                                      "defaultValue" : 0.0,
                                      "interp" : "linr"
                                    }
                                  },
                                  "effects" : [

                                  ],
                                  "start" : 0,
                                  "duration" : 8898,
                                  "mediaStart" : 0,
                                  "mediaDuration" : 8898,
                                  "scalar" : 1,
                                  "metadata" : {
                                    "AutoAppliedSmartFocus" : "False"
                                  },
                                  "animationTracks" : {

                                  }
                                },
                                {
                                  "id" : 270,
                                  "_type" : "ScreenVMFile",
                                  "src" : 1,
                                  "trackNumber" : 0,
                                  "attributes" : {
                                    "ident" : "Rec 01-08-21"
                                  },
                                  "parameters" : {
                                    "cursorScale" : {
                                      "type" : "double",
                                      "defaultValue" : 0.0,
                                      "interp" : "linr"
                                    },
                                    "cursorOpacity" : {
                                      "type" : "double",
                                      "defaultValue" : 0.0,
                                      "interp" : "linr"
                                    }
                                  },
                                  "effects" : [

                                  ],
                                  "start" : 8898,
                                  "duration" : 19,
                                  "mediaStart" : 8912,
                                  "mediaDuration" : 19,
                                  "scalar" : 1,
                                  "metadata" : {
                                    "AutoAppliedSmartFocus" : "False"
                                  },
                                  "animationTracks" : {

                                  }
                                },
                                {
                                  "id" : 271,
                                  "_type" : "ScreenVMFile",
                                  "src" : 1,
                                  "trackNumber" : 0,
                                  "attributes" : {
                                    "ident" : "Rec 01-08-21"
                                  },
                                  "parameters" : {
                                    "cursorScale" : {
                                      "type" : "double",
                                      "defaultValue" : 0.0,
                                      "interp" : "linr"
                                    },
                                    "cursorOpacity" : {
                                      "type" : "double",
                                      "defaultValue" : 0.0,
                                      "interp" : "linr"
                                    }
                                  },
                                  "effects" : [

                                  ],
                                  "start" : 8917,
                                  "duration" : 157,
                                  "mediaStart" : 8951,
                                  "mediaDuration" : 157,
                                  "scalar" : 1,
                                  "metadata" : {
                                    "AutoAppliedSmartFocus" : "False"
                                  },
                                  "animationTracks" : {

                                  }
                                },
                                {
                                  "id" : 272,
                                  "_type" : "ScreenVMFile",
                                  "src" : 1,
                                  "trackNumber" : 0,
                                  "attributes" : {
                                    "ident" : "Rec 01-08-21"
                                  },
                                  "parameters" : {
                                    "cursorScale" : {
                                      "type" : "double",
                                      "defaultValue" : 0.0,
                                      "interp" : "linr"
                                    },
                                    "cursorOpacity" : {
                                      "type" : "double",
                                      "defaultValue" : 0.0,
                                      "interp" : "linr"
                                    }
                                  },
                                  "effects" : [

                                  ],
                                  "start" : 9074,
                                  "duration" : 553,
                                  "mediaStart" : 9157,
                                  "mediaDuration" : 553,
                                  "scalar" : 1,
                                  "metadata" : {
                                    "AutoAppliedSmartFocus" : "False"
                                  },
                                  "animationTracks" : {

                                  }
                                },
                                {
                                  "id" : 273,
                                  "_type" : "ScreenVMFile",
                                  "src" : 1,
                                  "trackNumber" : 0,
                                  "attributes" : {
                                    "ident" : "Rec 01-08-21"
                                  },
                                  "parameters" : {
                                    "cursorScale" : {
                                      "type" : "double",
                                      "defaultValue" : 0.0,
                                      "interp" : "linr"
                                    },
                                    "cursorOpacity" : {
                                      "type" : "double",
                                      "defaultValue" : 0.0,
                                      "interp" : "linr"
                                    }
                                  },
                                  "effects" : [

                                  ],
                                  "start" : 9627,
                                  "duration" : 5209,
                                  "mediaStart" : 9912,
                                  "mediaDuration" : 5209,
                                  "scalar" : 1,
                                  "metadata" : {
                                    "AutoAppliedSmartFocus" : "False"
                                  },
                                  "animationTracks" : {

                                  }
                                }
                            ],
                            "effects" : [

                            ],
                            "start" : 0,
                            "duration" : 141,
                            "mediaStart" : 9441,
                            "mediaDuration" : 141,
                            "scalar" : 1,
                            "metadata" : {
                              "AutoAppliedSmartFocus" : "False",
                              "clipSpeedAttribute" : false
                            },
                            "animationTracks" : {

                            }
                          }
                        ],
                          "ident" : "",
                          "audioMuted" : false,
                          "videoHidden" : false,
                          "magnetic" : false,
                          "matte" : 0,
                          "metadata" : {
                            "IsLocked" : "False",
                            "WinTrackHeight" : "0"
                          }
                      },
                      {
                        "trackIndex" : 1,
                        "medias" : [
                          {
                            "id" : 274,
                            "_type" : "AMFile",
                            "src" : 6,
                            "trackNumber" : 0,
                            "attributes" : {
                              "ident" : "Narration_2-4 Install K8s Plugin in VS Code 5",
                              "gain" : 1.0,
                              "mixToMono" : false
                            },
                              "channelNumber" : "0,1",
                            "effects" : [

                            ],
                            "start" : 0,
                            "duration" : 141,
                            "mediaStart" : 0,
                            "mediaDuration" : 141,
                            "scalar" : 1,
                            "metadata" : {
                              "clipSpeedAttribute" : false
                            },
                            "animationTracks" : {

                            }
                          }
                        ],
                          "ident" : "",
                          "audioMuted" : false,
                          "videoHidden" : false,
                          "magnetic" : false,
                          "matte" : 0,
                          "metadata" : {
                            "IsLocked" : "False",
                            "WinTrackHeight" : "4.71866372486429e-312"
                          }
                      }
                    ],
                    "attributes" : {
                      "ident" : "Group 5",
                      "gain" : 1.0,
                      "mixToMono" : false
                    },
                    "effects" : [

                    ],
                    "start" : 3551,
                    "duration" : 141,
                    "mediaStart" : 0.0,
                    "mediaDuration" : 141.0,
                    "scalar" : 1,
                    "metadata" : {
                      "IsGroupExpanded" : "False"
                    },
                    "animationTracks" : {

                    }
                  },
                  {
                    "id" : 275,
                    "_type" : "StitchedMedia",
                    "minMediaStart" : 0,
                    "attributes" : {
                      "ident" : "Rec 01-08-21",
                      "gain" : 1.0,
                      "mixToMono" : false
                    },
                    "parameters" : {
                      "volume" : 1.0,
                      "cursorOpacity" : 1.0,
                      "cursorScale" : 1.0
                    },
                    "medias" : [
                        {
                          "id" : 276,
                          "_type" : "UnifiedMedia",
                          "video" : 
                              {
                                "id" : 277,
                                "_type" : "ScreenVMFile",
                                "src" : 1,
                                "trackNumber" : 0,
                                "attributes" : {
                                  "ident" : "Rec 01-08-21"
                                },
                                "parameters" : {
                                  "cursorScale" : {
                                    "type" : "double",
                                    "defaultValue" : 0.0,
                                    "interp" : "linr"
                                  },
                                  "cursorOpacity" : {
                                    "type" : "double",
                                    "defaultValue" : 0.0,
                                    "interp" : "linr"
                                  }
                                },
                                "effects" : [

                                ],
                                "start" : 0,
                                "duration" : 8898,
                                "mediaStart" : 0,
                                "mediaDuration" : 8898,
                                "scalar" : 1,
                                "animationTracks" : {

                                }
                              },
                          "audio" : 
                              {
                                "id" : 278,
                                "_type" : "AMFile",
                                "src" : 1,
                                "trackNumber" : 1,
                                "attributes" : {
                                  "ident" : "",
                                  "gain" : 1.0,
                                  "mixToMono" : false
                                },
                                  "channelNumber" : "0,1",
                                "effects" : [

                                ],
                                "start" : 0,
                                "duration" : 8898,
                                "mediaStart" : 0,
                                "mediaDuration" : 8898,
                                "scalar" : 1,
                                "animationTracks" : {

                                }
                              }
,
                          "start" : 0,
                          "duration" : 8898,
                          "mediaStart" : 0,
                          "mediaDuration" : 15121,
                          "scalar" : 1,
                          "metadata" : {
                            "AutoAppliedSmartFocus" : "False",
                            "clipSpeedAttribute" : false
                          }
                        },
                        {
                          "id" : 279,
                          "_type" : "UnifiedMedia",
                          "video" : 
                              {
                                "id" : 280,
                                "_type" : "ScreenVMFile",
                                "src" : 1,
                                "trackNumber" : 0,
                                "attributes" : {
                                  "ident" : "Rec 01-08-21"
                                },
                                "parameters" : {
                                  "cursorScale" : {
                                    "type" : "double",
                                    "defaultValue" : 0.0,
                                    "interp" : "linr"
                                  },
                                  "cursorOpacity" : {
                                    "type" : "double",
                                    "defaultValue" : 0.0,
                                    "interp" : "linr"
                                  }
                                },
                                "effects" : [

                                ],
                                "start" : 8898,
                                "duration" : 19,
                                "mediaStart" : 8912,
                                "mediaDuration" : 19,
                                "scalar" : 1,
                                "animationTracks" : {

                                }
                              },
                          "audio" : 
                              {
                                "id" : 281,
                                "_type" : "AMFile",
                                "src" : 1,
                                "trackNumber" : 1,
                                "attributes" : {
                                  "ident" : "",
                                  "gain" : 1.0,
                                  "mixToMono" : false
                                },
                                  "channelNumber" : "0,1",
                                "effects" : [

                                ],
                                "start" : 8898,
                                "duration" : 19,
                                "mediaStart" : 8912,
                                "mediaDuration" : 19,
                                "scalar" : 1,
                                "animationTracks" : {

                                }
                              }
,
                          "start" : 8898,
                          "duration" : 19,
                          "mediaStart" : 0,
                          "mediaDuration" : 15121,
                          "scalar" : 1,
                          "metadata" : {
                            "AutoAppliedSmartFocus" : "False",
                            "clipSpeedAttribute" : false
                          }
                        },
                        {
                          "id" : 282,
                          "_type" : "UnifiedMedia",
                          "video" : 
                              {
                                "id" : 283,
                                "_type" : "ScreenVMFile",
                                "src" : 1,
                                "trackNumber" : 0,
                                "attributes" : {
                                  "ident" : "Rec 01-08-21"
                                },
                                "parameters" : {
                                  "cursorScale" : {
                                    "type" : "double",
                                    "defaultValue" : 0.0,
                                    "interp" : "linr"
                                  },
                                  "cursorOpacity" : {
                                    "type" : "double",
                                    "defaultValue" : 0.0,
                                    "interp" : "linr"
                                  }
                                },
                                "effects" : [

                                ],
                                "start" : 8917,
                                "duration" : 157,
                                "mediaStart" : 8951,
                                "mediaDuration" : 157,
                                "scalar" : 1,
                                "animationTracks" : {

                                }
                              },
                          "audio" : 
                              {
                                "id" : 284,
                                "_type" : "AMFile",
                                "src" : 1,
                                "trackNumber" : 1,
                                "attributes" : {
                                  "ident" : "",
                                  "gain" : 1.0,
                                  "mixToMono" : false
                                },
                                  "channelNumber" : "0,1",
                                "effects" : [

                                ],
                                "start" : 8917,
                                "duration" : 157,
                                "mediaStart" : 8951,
                                "mediaDuration" : 157,
                                "scalar" : 1,
                                "animationTracks" : {

                                }
                              }
,
                          "start" : 8917,
                          "duration" : 157,
                          "mediaStart" : 0,
                          "mediaDuration" : 15121,
                          "scalar" : 1,
                          "metadata" : {
                            "AutoAppliedSmartFocus" : "False",
                            "clipSpeedAttribute" : false
                          }
                        },
                        {
                          "id" : 285,
                          "_type" : "UnifiedMedia",
                          "video" : 
                              {
                                "id" : 286,
                                "_type" : "ScreenVMFile",
                                "src" : 1,
                                "trackNumber" : 0,
                                "attributes" : {
                                  "ident" : "Rec 01-08-21"
                                },
                                "parameters" : {
                                  "cursorScale" : {
                                    "type" : "double",
                                    "defaultValue" : 0.0,
                                    "interp" : "linr"
                                  },
                                  "cursorOpacity" : {
                                    "type" : "double",
                                    "defaultValue" : 0.0,
                                    "interp" : "linr"
                                  }
                                },
                                "effects" : [

                                ],
                                "start" : 9074,
                                "duration" : 553,
                                "mediaStart" : 9157,
                                "mediaDuration" : 553,
                                "scalar" : 1,
                                "animationTracks" : {

                                }
                              },
                          "audio" : 
                              {
                                "id" : 287,
                                "_type" : "AMFile",
                                "src" : 1,
                                "trackNumber" : 1,
                                "attributes" : {
                                  "ident" : "",
                                  "gain" : 1.0,
                                  "mixToMono" : false
                                },
                                  "channelNumber" : "0,1",
                                "effects" : [

                                ],
                                "start" : 9074,
                                "duration" : 553,
                                "mediaStart" : 9157,
                                "mediaDuration" : 553,
                                "scalar" : 1,
                                "animationTracks" : {

                                }
                              }
,
                          "start" : 9074,
                          "duration" : 553,
                          "mediaStart" : 0,
                          "mediaDuration" : 15121,
                          "scalar" : 1,
                          "metadata" : {
                            "AutoAppliedSmartFocus" : "False",
                            "clipSpeedAttribute" : false
                          }
                        },
                        {
                          "id" : 288,
                          "_type" : "UnifiedMedia",
                          "video" : 
                              {
                                "id" : 289,
                                "_type" : "ScreenVMFile",
                                "src" : 1,
                                "trackNumber" : 0,
                                "attributes" : {
                                  "ident" : "Rec 01-08-21"
                                },
                                "parameters" : {
                                  "cursorScale" : {
                                    "type" : "double",
                                    "defaultValue" : 0.0,
                                    "interp" : "linr"
                                  },
                                  "cursorOpacity" : {
                                    "type" : "double",
                                    "defaultValue" : 0.0,
                                    "interp" : "linr"
                                  }
                                },
                                "effects" : [

                                ],
                                "start" : 9627,
                                "duration" : 951,
                                "mediaStart" : 9912,
                                "mediaDuration" : 951,
                                "scalar" : 1,
                                "animationTracks" : {

                                }
                              },
                          "audio" : 
                              {
                                "id" : 290,
                                "_type" : "AMFile",
                                "src" : 1,
                                "trackNumber" : 1,
                                "attributes" : {
                                  "ident" : "",
                                  "gain" : 1.0,
                                  "mixToMono" : false
                                },
                                  "channelNumber" : "0,1",
                                "effects" : [

                                ],
                                "start" : 9627,
                                "duration" : 951,
                                "mediaStart" : 9912,
                                "mediaDuration" : 951,
                                "scalar" : 1,
                                "animationTracks" : {

                                }
                              }
,
                          "start" : 9627,
                          "duration" : 951,
                          "mediaStart" : 0,
                          "mediaDuration" : 15121,
                          "scalar" : 1,
                          "metadata" : {
                            "AutoAppliedSmartFocus" : "False",
                            "clipSpeedAttribute" : false
                          }
                        },
                        {
                          "id" : 291,
                          "_type" : "UnifiedMedia",
                          "video" : 
                              {
                                "id" : 292,
                                "_type" : "ScreenVMFile",
                                "src" : 1,
                                "trackNumber" : 0,
                                "attributes" : {
                                  "ident" : "Rec 01-08-21"
                                },
                                "parameters" : {
                                  "cursorScale" : {
                                    "type" : "double",
                                    "defaultValue" : 0.0,
                                    "interp" : "linr"
                                  },
                                  "cursorOpacity" : {
                                    "type" : "double",
                                    "defaultValue" : 0.0,
                                    "interp" : "linr"
                                  }
                                },
                                "effects" : [

                                ],
                                "start" : 10578,
                                "duration" : 212,
                                "mediaStart" : 11917,
                                "mediaDuration" : 212,
                                "scalar" : 1,
                                "animationTracks" : {

                                }
                              },
                          "audio" : 
                              {
                                "id" : 293,
                                "_type" : "AMFile",
                                "src" : 1,
                                "trackNumber" : 1,
                                "attributes" : {
                                  "ident" : "",
                                  "gain" : 1.0,
                                  "mixToMono" : false
                                },
                                  "channelNumber" : "0,1",
                                "effects" : [

                                ],
                                "start" : 10578,
                                "duration" : 212,
                                "mediaStart" : 11917,
                                "mediaDuration" : 212,
                                "scalar" : 1,
                                "animationTracks" : {

                                }
                              }
,
                          "start" : 10578,
                          "duration" : 212,
                          "mediaStart" : 0,
                          "mediaDuration" : 15121,
                          "scalar" : 1,
                          "metadata" : {
                            "AutoAppliedSmartFocus" : "False",
                            "clipSpeedAttribute" : false
                          }
                        },
                        {
                          "id" : 294,
                          "_type" : "UnifiedMedia",
                          "video" : 
                              {
                                "id" : 295,
                                "_type" : "ScreenVMFile",
                                "src" : 1,
                                "trackNumber" : 0,
                                "attributes" : {
                                  "ident" : "Rec 01-08-21"
                                },
                                "parameters" : {
                                  "cursorScale" : {
                                    "type" : "double",
                                    "defaultValue" : 0.0,
                                    "interp" : "linr"
                                  },
                                  "cursorOpacity" : {
                                    "type" : "double",
                                    "defaultValue" : 0.0,
                                    "interp" : "linr"
                                  }
                                },
                                "effects" : [

                                ],
                                "start" : 10790,
                                "duration" : 392,
                                "mediaStart" : 12655,
                                "mediaDuration" : 392,
                                "scalar" : 1,
                                "animationTracks" : {

                                }
                              },
                          "audio" : 
                              {
                                "id" : 296,
                                "_type" : "AMFile",
                                "src" : 1,
                                "trackNumber" : 1,
                                "attributes" : {
                                  "ident" : "",
                                  "gain" : 1.0,
                                  "mixToMono" : false
                                },
                                  "channelNumber" : "0,1",
                                "effects" : [

                                ],
                                "start" : 10790,
                                "duration" : 392,
                                "mediaStart" : 12655,
                                "mediaDuration" : 392,
                                "scalar" : 1,
                                "animationTracks" : {

                                }
                              }
,
                          "start" : 10790,
                          "duration" : 392,
                          "mediaStart" : 0,
                          "mediaDuration" : 15121,
                          "scalar" : 1,
                          "metadata" : {
                            "AutoAppliedSmartFocus" : "False",
                            "clipSpeedAttribute" : false
                          }
                        },
                        {
                          "id" : 297,
                          "_type" : "UnifiedMedia",
                          "video" : 
                              {
                                "id" : 298,
                                "_type" : "ScreenVMFile",
                                "src" : 1,
                                "trackNumber" : 0,
                                "attributes" : {
                                  "ident" : "Rec 01-08-21"
                                },
                                "parameters" : {
                                  "cursorScale" : {
                                    "type" : "double",
                                    "defaultValue" : 0.0,
                                    "interp" : "linr"
                                  },
                                  "cursorOpacity" : {
                                    "type" : "double",
                                    "defaultValue" : 0.0,
                                    "interp" : "linr"
                                  }
                                },
                                "effects" : [

                                ],
                                "start" : 11182,
                                "duration" : 281,
                                "mediaStart" : 13277,
                                "mediaDuration" : 281,
                                "scalar" : 1,
                                "animationTracks" : {

                                }
                              },
                          "audio" : 
                              {
                                "id" : 299,
                                "_type" : "AMFile",
                                "src" : 1,
                                "trackNumber" : 1,
                                "attributes" : {
                                  "ident" : "",
                                  "gain" : 1.0,
                                  "mixToMono" : false
                                },
                                  "channelNumber" : "0,1",
                                "effects" : [

                                ],
                                "start" : 11182,
                                "duration" : 281,
                                "mediaStart" : 13277,
                                "mediaDuration" : 281,
                                "scalar" : 1,
                                "animationTracks" : {

                                }
                              }
,
                          "start" : 11182,
                          "duration" : 281,
                          "mediaStart" : 0,
                          "mediaDuration" : 15121,
                          "scalar" : 1,
                          "metadata" : {
                            "AutoAppliedSmartFocus" : "False",
                            "clipSpeedAttribute" : false
                          }
                        },
                        {
                          "id" : 300,
                          "_type" : "UnifiedMedia",
                          "video" : 
                              {
                                "id" : 301,
                                "_type" : "ScreenVMFile",
                                "src" : 1,
                                "trackNumber" : 0,
                                "attributes" : {
                                  "ident" : "Rec 01-08-21"
                                },
                                "parameters" : {
                                  "cursorScale" : {
                                    "type" : "double",
                                    "defaultValue" : 0.0,
                                    "interp" : "linr"
                                  },
                                  "cursorOpacity" : {
                                    "type" : "double",
                                    "defaultValue" : 0.0,
                                    "interp" : "linr"
                                  }
                                },
                                "effects" : [

                                ],
                                "start" : 11463,
                                "duration" : 167,
                                "mediaStart" : 13810,
                                "mediaDuration" : 167,
                                "scalar" : 1,
                                "animationTracks" : {

                                }
                              },
                          "audio" : 
                              {
                                "id" : 302,
                                "_type" : "AMFile",
                                "src" : 1,
                                "trackNumber" : 1,
                                "attributes" : {
                                  "ident" : "",
                                  "gain" : 1.0,
                                  "mixToMono" : false
                                },
                                  "channelNumber" : "0,1",
                                "effects" : [

                                ],
                                "start" : 11463,
                                "duration" : 167,
                                "mediaStart" : 13810,
                                "mediaDuration" : 167,
                                "scalar" : 1,
                                "animationTracks" : {

                                }
                              }
,
                          "start" : 11463,
                          "duration" : 167,
                          "mediaStart" : 0,
                          "mediaDuration" : 15121,
                          "scalar" : 1,
                          "metadata" : {
                            "AutoAppliedSmartFocus" : "False",
                            "clipSpeedAttribute" : false
                          }
                        },
                        {
                          "id" : 303,
                          "_type" : "UnifiedMedia",
                          "video" : 
                              {
                                "id" : 304,
                                "_type" : "ScreenVMFile",
                                "src" : 1,
                                "trackNumber" : 0,
                                "attributes" : {
                                  "ident" : "Rec 01-08-21"
                                },
                                "parameters" : {
                                  "cursorScale" : {
                                    "type" : "double",
                                    "defaultValue" : 0.0,
                                    "interp" : "linr"
                                  },
                                  "cursorOpacity" : {
                                    "type" : "double",
                                    "defaultValue" : 0.0,
                                    "interp" : "linr"
                                  }
                                },
                                "effects" : [

                                ],
                                "start" : 11630,
                                "duration" : 789,
                                "mediaStart" : 14332,
                                "mediaDuration" : 789,
                                "scalar" : 1,
                                "animationTracks" : {

                                }
                              },
                          "audio" : 
                              {
                                "id" : 305,
                                "_type" : "AMFile",
                                "src" : 1,
                                "trackNumber" : 1,
                                "attributes" : {
                                  "ident" : "",
                                  "gain" : 1.0,
                                  "mixToMono" : false
                                },
                                  "channelNumber" : "0,1",
                                "effects" : [

                                ],
                                "start" : 11630,
                                "duration" : 789,
                                "mediaStart" : 14332,
                                "mediaDuration" : 789,
                                "scalar" : 1,
                                "animationTracks" : {

                                }
                              }
,
                          "start" : 11630,
                          "duration" : 789,
                          "mediaStart" : 0,
                          "mediaDuration" : 15121,
                          "scalar" : 1,
                          "metadata" : {
                            "AutoAppliedSmartFocus" : "False",
                            "clipSpeedAttribute" : false
                          }
                        }
                    ],
                    "effects" : [

                    ],
                    "start" : 3692,
                    "duration" : 1615,
                    "mediaStart" : 10024,
                    "mediaDuration" : 1615,
                    "scalar" : 1,
                    "metadata" : {
                      "AutoAppliedSmartFocus" : "False",
                      "clipSpeedAttribute" : false
                    },
                    "animationTracks" : {

                    }
                  },
                  {
                    "id" : 306,
                    "_type" : "Group",
                    "parameters" : {
                      "volume" : 1.0
                    },
                    "tracks" : [
                      {
                        "trackIndex" : 0,
                        "medias" : [
                          {
                            "id" : 307,
                            "_type" : "StitchedMedia",
                            "minMediaStart" : 0,
                            "attributes" : {
                              "ident" : "Rec 01-08-21",
                              "gain" : 1.0,
                              "mixToMono" : false
                            },
                            "parameters" : {
                              "cursorOpacity" : 1.0,
                              "cursorScale" : 1.0
                            },
                            "medias" : [
                                {
                                  "id" : 308,
                                  "_type" : "ScreenVMFile",
                                  "src" : 1,
                                  "trackNumber" : 0,
                                  "attributes" : {
                                    "ident" : "Rec 01-08-21"
                                  },
                                  "parameters" : {
                                    "cursorScale" : {
                                      "type" : "double",
                                      "defaultValue" : 0.0,
                                      "interp" : "linr"
                                    },
                                    "cursorOpacity" : {
                                      "type" : "double",
                                      "defaultValue" : 0.0,
                                      "interp" : "linr"
                                    }
                                  },
                                  "effects" : [

                                  ],
                                  "start" : 0,
                                  "duration" : 8898,
                                  "mediaStart" : 0,
                                  "mediaDuration" : 8898,
                                  "scalar" : 1,
                                  "metadata" : {
                                    "AutoAppliedSmartFocus" : "False"
                                  },
                                  "animationTracks" : {

                                  }
                                },
                                {
                                  "id" : 309,
                                  "_type" : "ScreenVMFile",
                                  "src" : 1,
                                  "trackNumber" : 0,
                                  "attributes" : {
                                    "ident" : "Rec 01-08-21"
                                  },
                                  "parameters" : {
                                    "cursorScale" : {
                                      "type" : "double",
                                      "defaultValue" : 0.0,
                                      "interp" : "linr"
                                    },
                                    "cursorOpacity" : {
                                      "type" : "double",
                                      "defaultValue" : 0.0,
                                      "interp" : "linr"
                                    }
                                  },
                                  "effects" : [

                                  ],
                                  "start" : 8898,
                                  "duration" : 19,
                                  "mediaStart" : 8912,
                                  "mediaDuration" : 19,
                                  "scalar" : 1,
                                  "metadata" : {
                                    "AutoAppliedSmartFocus" : "False"
                                  },
                                  "animationTracks" : {

                                  }
                                },
                                {
                                  "id" : 310,
                                  "_type" : "ScreenVMFile",
                                  "src" : 1,
                                  "trackNumber" : 0,
                                  "attributes" : {
                                    "ident" : "Rec 01-08-21"
                                  },
                                  "parameters" : {
                                    "cursorScale" : {
                                      "type" : "double",
                                      "defaultValue" : 0.0,
                                      "interp" : "linr"
                                    },
                                    "cursorOpacity" : {
                                      "type" : "double",
                                      "defaultValue" : 0.0,
                                      "interp" : "linr"
                                    }
                                  },
                                  "effects" : [

                                  ],
                                  "start" : 8917,
                                  "duration" : 157,
                                  "mediaStart" : 8951,
                                  "mediaDuration" : 157,
                                  "scalar" : 1,
                                  "metadata" : {
                                    "AutoAppliedSmartFocus" : "False"
                                  },
                                  "animationTracks" : {

                                  }
                                },
                                {
                                  "id" : 311,
                                  "_type" : "ScreenVMFile",
                                  "src" : 1,
                                  "trackNumber" : 0,
                                  "attributes" : {
                                    "ident" : "Rec 01-08-21"
                                  },
                                  "parameters" : {
                                    "cursorScale" : {
                                      "type" : "double",
                                      "defaultValue" : 0.0,
                                      "interp" : "linr"
                                    },
                                    "cursorOpacity" : {
                                      "type" : "double",
                                      "defaultValue" : 0.0,
                                      "interp" : "linr"
                                    }
                                  },
                                  "effects" : [

                                  ],
                                  "start" : 9074,
                                  "duration" : 553,
                                  "mediaStart" : 9157,
                                  "mediaDuration" : 553,
                                  "scalar" : 1,
                                  "metadata" : {
                                    "AutoAppliedSmartFocus" : "False"
                                  },
                                  "animationTracks" : {

                                  }
                                },
                                {
                                  "id" : 312,
                                  "_type" : "ScreenVMFile",
                                  "src" : 1,
                                  "trackNumber" : 0,
                                  "attributes" : {
                                    "ident" : "Rec 01-08-21"
                                  },
                                  "parameters" : {
                                    "cursorScale" : {
                                      "type" : "double",
                                      "defaultValue" : 0.0,
                                      "interp" : "linr"
                                    },
                                    "cursorOpacity" : {
                                      "type" : "double",
                                      "defaultValue" : 0.0,
                                      "interp" : "linr"
                                    }
                                  },
                                  "effects" : [

                                  ],
                                  "start" : 9627,
                                  "duration" : 951,
                                  "mediaStart" : 9912,
                                  "mediaDuration" : 951,
                                  "scalar" : 1,
                                  "metadata" : {
                                    "AutoAppliedSmartFocus" : "False"
                                  },
                                  "animationTracks" : {

                                  }
                                },
                                {
                                  "id" : 313,
                                  "_type" : "ScreenVMFile",
                                  "src" : 1,
                                  "trackNumber" : 0,
                                  "attributes" : {
                                    "ident" : "Rec 01-08-21"
                                  },
                                  "parameters" : {
                                    "cursorScale" : {
                                      "type" : "double",
                                      "defaultValue" : 0.0,
                                      "interp" : "linr"
                                    },
                                    "cursorOpacity" : {
                                      "type" : "double",
                                      "defaultValue" : 0.0,
                                      "interp" : "linr"
                                    }
                                  },
                                  "effects" : [

                                  ],
                                  "start" : 10578,
                                  "duration" : 212,
                                  "mediaStart" : 11917,
                                  "mediaDuration" : 212,
                                  "scalar" : 1,
                                  "metadata" : {
                                    "AutoAppliedSmartFocus" : "False"
                                  },
                                  "animationTracks" : {

                                  }
                                },
                                {
                                  "id" : 314,
                                  "_type" : "ScreenVMFile",
                                  "src" : 1,
                                  "trackNumber" : 0,
                                  "attributes" : {
                                    "ident" : "Rec 01-08-21"
                                  },
                                  "parameters" : {
                                    "cursorScale" : {
                                      "type" : "double",
                                      "defaultValue" : 0.0,
                                      "interp" : "linr"
                                    },
                                    "cursorOpacity" : {
                                      "type" : "double",
                                      "defaultValue" : 0.0,
                                      "interp" : "linr"
                                    }
                                  },
                                  "effects" : [

                                  ],
                                  "start" : 10790,
                                  "duration" : 392,
                                  "mediaStart" : 12655,
                                  "mediaDuration" : 392,
                                  "scalar" : 1,
                                  "metadata" : {
                                    "AutoAppliedSmartFocus" : "False"
                                  },
                                  "animationTracks" : {

                                  }
                                },
                                {
                                  "id" : 315,
                                  "_type" : "ScreenVMFile",
                                  "src" : 1,
                                  "trackNumber" : 0,
                                  "attributes" : {
                                    "ident" : "Rec 01-08-21"
                                  },
                                  "parameters" : {
                                    "cursorScale" : {
                                      "type" : "double",
                                      "defaultValue" : 0.0,
                                      "interp" : "linr"
                                    },
                                    "cursorOpacity" : {
                                      "type" : "double",
                                      "defaultValue" : 0.0,
                                      "interp" : "linr"
                                    }
                                  },
                                  "effects" : [

                                  ],
                                  "start" : 11182,
                                  "duration" : 281,
                                  "mediaStart" : 13277,
                                  "mediaDuration" : 281,
                                  "scalar" : 1,
                                  "metadata" : {
                                    "AutoAppliedSmartFocus" : "False"
                                  },
                                  "animationTracks" : {

                                  }
                                },
                                {
                                  "id" : 316,
                                  "_type" : "ScreenVMFile",
                                  "src" : 1,
                                  "trackNumber" : 0,
                                  "attributes" : {
                                    "ident" : "Rec 01-08-21"
                                  },
                                  "parameters" : {
                                    "cursorScale" : {
                                      "type" : "double",
                                      "defaultValue" : 0.0,
                                      "interp" : "linr"
                                    },
                                    "cursorOpacity" : {
                                      "type" : "double",
                                      "defaultValue" : 0.0,
                                      "interp" : "linr"
                                    }
                                  },
                                  "effects" : [

                                  ],
                                  "start" : 11463,
                                  "duration" : 167,
                                  "mediaStart" : 13810,
                                  "mediaDuration" : 167,
                                  "scalar" : 1,
                                  "metadata" : {
                                    "AutoAppliedSmartFocus" : "False"
                                  },
                                  "animationTracks" : {

                                  }
                                },
                                {
                                  "id" : 317,
                                  "_type" : "ScreenVMFile",
                                  "src" : 1,
                                  "trackNumber" : 0,
                                  "attributes" : {
                                    "ident" : "Rec 01-08-21"
                                  },
                                  "parameters" : {
                                    "cursorScale" : {
                                      "type" : "double",
                                      "defaultValue" : 0.0,
                                      "interp" : "linr"
                                    },
                                    "cursorOpacity" : {
                                      "type" : "double",
                                      "defaultValue" : 0.0,
                                      "interp" : "linr"
                                    }
                                  },
                                  "effects" : [

                                  ],
                                  "start" : 11630,
                                  "duration" : 789,
                                  "mediaStart" : 14332,
                                  "mediaDuration" : 789,
                                  "scalar" : 1,
                                  "metadata" : {
                                    "AutoAppliedSmartFocus" : "False"
                                  },
                                  "animationTracks" : {

                                  }
                                }
                            ],
                            "effects" : [

                            ],
                            "start" : 0,
                            "duration" : 308,
                            "mediaStart" : 11639,
                            "mediaDuration" : 308,
                            "scalar" : 1,
                            "metadata" : {
                              "AutoAppliedSmartFocus" : "False",
                              "clipSpeedAttribute" : false
                            },
                            "animationTracks" : {

                            }
                          }
                        ],
                          "ident" : "",
                          "audioMuted" : false,
                          "videoHidden" : false,
                          "magnetic" : false,
                          "matte" : 0,
                          "metadata" : {
                            "IsLocked" : "False",
                            "WinTrackHeight" : "0"
                          }
                      },
                      {
                        "trackIndex" : 1,
                        "medias" : [
                          {
                            "id" : 318,
                            "_type" : "AMFile",
                            "src" : 7,
                            "trackNumber" : 0,
                            "attributes" : {
                              "ident" : "Narration_2-4 Install K8s Plugin in VS Code 6",
                              "gain" : 1.0,
                              "mixToMono" : false
                            },
                              "channelNumber" : "0,1",
                            "effects" : [

                            ],
                            "start" : 0,
                            "duration" : 308,
                            "mediaStart" : 0,
                            "mediaDuration" : 308,
                            "scalar" : 1,
                            "metadata" : {
                              "clipSpeedAttribute" : false
                            },
                            "animationTracks" : {

                            }
                          }
                        ],
                          "ident" : "",
                          "audioMuted" : false,
                          "videoHidden" : false,
                          "magnetic" : false,
                          "matte" : 0,
                          "metadata" : {
                            "IsLocked" : "False",
                            "WinTrackHeight" : "4.71866372438999e-312"
                          }
                      }
                    ],
                    "attributes" : {
                      "ident" : "Group 6",
                      "gain" : 1.0,
                      "mixToMono" : false
                    },
                    "effects" : [

                    ],
                    "start" : 5307,
                    "duration" : 308,
                    "mediaStart" : 0.0,
                    "mediaDuration" : 308.0,
                    "scalar" : 1,
                    "metadata" : {
                      "IsGroupExpanded" : "False"
                    },
                    "animationTracks" : {

                    }
                  },
                  {
                    "id" : 319,
                    "_type" : "StitchedMedia",
                    "minMediaStart" : 0,
                    "attributes" : {
                      "ident" : "Rec 01-08-21",
                      "gain" : 1.0,
                      "mixToMono" : false
                    },
                    "parameters" : {
                      "volume" : 1.0,
                      "cursorOpacity" : 1.0,
                      "cursorScale" : 1.0
                    },
                    "medias" : [
                        {
                          "id" : 320,
                          "_type" : "UnifiedMedia",
                          "video" : 
                              {
                                "id" : 321,
                                "_type" : "ScreenVMFile",
                                "src" : 1,
                                "trackNumber" : 0,
                                "attributes" : {
                                  "ident" : "Rec 01-08-21"
                                },
                                "parameters" : {
                                  "cursorScale" : {
                                    "type" : "double",
                                    "defaultValue" : 0.0,
                                    "interp" : "linr"
                                  },
                                  "cursorOpacity" : {
                                    "type" : "double",
                                    "defaultValue" : 0.0,
                                    "interp" : "linr"
                                  }
                                },
                                "effects" : [

                                ],
                                "start" : 0,
                                "duration" : 8898,
                                "mediaStart" : 0,
                                "mediaDuration" : 8898,
                                "scalar" : 1,
                                "animationTracks" : {

                                }
                              },
                          "audio" : 
                              {
                                "id" : 322,
                                "_type" : "AMFile",
                                "src" : 1,
                                "trackNumber" : 1,
                                "attributes" : {
                                  "ident" : "",
                                  "gain" : 1.0,
                                  "mixToMono" : false
                                },
                                  "channelNumber" : "0,1",
                                "effects" : [

                                ],
                                "start" : 0,
                                "duration" : 8898,
                                "mediaStart" : 0,
                                "mediaDuration" : 8898,
                                "scalar" : 1,
                                "animationTracks" : {

                                }
                              }
,
                          "start" : 0,
                          "duration" : 8898,
                          "mediaStart" : 0,
                          "mediaDuration" : 15121,
                          "scalar" : 1,
                          "metadata" : {
                            "AutoAppliedSmartFocus" : "False",
                            "clipSpeedAttribute" : false
                          }
                        },
                        {
                          "id" : 323,
                          "_type" : "UnifiedMedia",
                          "video" : 
                              {
                                "id" : 324,
                                "_type" : "ScreenVMFile",
                                "src" : 1,
                                "trackNumber" : 0,
                                "attributes" : {
                                  "ident" : "Rec 01-08-21"
                                },
                                "parameters" : {
                                  "cursorScale" : {
                                    "type" : "double",
                                    "defaultValue" : 0.0,
                                    "interp" : "linr"
                                  },
                                  "cursorOpacity" : {
                                    "type" : "double",
                                    "defaultValue" : 0.0,
                                    "interp" : "linr"
                                  }
                                },
                                "effects" : [

                                ],
                                "start" : 8898,
                                "duration" : 19,
                                "mediaStart" : 8912,
                                "mediaDuration" : 19,
                                "scalar" : 1,
                                "animationTracks" : {

                                }
                              },
                          "audio" : 
                              {
                                "id" : 325,
                                "_type" : "AMFile",
                                "src" : 1,
                                "trackNumber" : 1,
                                "attributes" : {
                                  "ident" : "",
                                  "gain" : 1.0,
                                  "mixToMono" : false
                                },
                                  "channelNumber" : "0,1",
                                "effects" : [

                                ],
                                "start" : 8898,
                                "duration" : 19,
                                "mediaStart" : 8912,
                                "mediaDuration" : 19,
                                "scalar" : 1,
                                "animationTracks" : {

                                }
                              }
,
                          "start" : 8898,
                          "duration" : 19,
                          "mediaStart" : 0,
                          "mediaDuration" : 15121,
                          "scalar" : 1,
                          "metadata" : {
                            "AutoAppliedSmartFocus" : "False",
                            "clipSpeedAttribute" : false
                          }
                        },
                        {
                          "id" : 326,
                          "_type" : "UnifiedMedia",
                          "video" : 
                              {
                                "id" : 327,
                                "_type" : "ScreenVMFile",
                                "src" : 1,
                                "trackNumber" : 0,
                                "attributes" : {
                                  "ident" : "Rec 01-08-21"
                                },
                                "parameters" : {
                                  "cursorScale" : {
                                    "type" : "double",
                                    "defaultValue" : 0.0,
                                    "interp" : "linr"
                                  },
                                  "cursorOpacity" : {
                                    "type" : "double",
                                    "defaultValue" : 0.0,
                                    "interp" : "linr"
                                  }
                                },
                                "effects" : [

                                ],
                                "start" : 8917,
                                "duration" : 157,
                                "mediaStart" : 8951,
                                "mediaDuration" : 157,
                                "scalar" : 1,
                                "animationTracks" : {

                                }
                              },
                          "audio" : 
                              {
                                "id" : 328,
                                "_type" : "AMFile",
                                "src" : 1,
                                "trackNumber" : 1,
                                "attributes" : {
                                  "ident" : "",
                                  "gain" : 1.0,
                                  "mixToMono" : false
                                },
                                  "channelNumber" : "0,1",
                                "effects" : [

                                ],
                                "start" : 8917,
                                "duration" : 157,
                                "mediaStart" : 8951,
                                "mediaDuration" : 157,
                                "scalar" : 1,
                                "animationTracks" : {

                                }
                              }
,
                          "start" : 8917,
                          "duration" : 157,
                          "mediaStart" : 0,
                          "mediaDuration" : 15121,
                          "scalar" : 1,
                          "metadata" : {
                            "AutoAppliedSmartFocus" : "False",
                            "clipSpeedAttribute" : false
                          }
                        },
                        {
                          "id" : 329,
                          "_type" : "UnifiedMedia",
                          "video" : 
                              {
                                "id" : 330,
                                "_type" : "ScreenVMFile",
                                "src" : 1,
                                "trackNumber" : 0,
                                "attributes" : {
                                  "ident" : "Rec 01-08-21"
                                },
                                "parameters" : {
                                  "cursorScale" : {
                                    "type" : "double",
                                    "defaultValue" : 0.0,
                                    "interp" : "linr"
                                  },
                                  "cursorOpacity" : {
                                    "type" : "double",
                                    "defaultValue" : 0.0,
                                    "interp" : "linr"
                                  }
                                },
                                "effects" : [

                                ],
                                "start" : 9074,
                                "duration" : 553,
                                "mediaStart" : 9157,
                                "mediaDuration" : 553,
                                "scalar" : 1,
                                "animationTracks" : {

                                }
                              },
                          "audio" : 
                              {
                                "id" : 331,
                                "_type" : "AMFile",
                                "src" : 1,
                                "trackNumber" : 1,
                                "attributes" : {
                                  "ident" : "",
                                  "gain" : 1.0,
                                  "mixToMono" : false
                                },
                                  "channelNumber" : "0,1",
                                "effects" : [

                                ],
                                "start" : 9074,
                                "duration" : 553,
                                "mediaStart" : 9157,
                                "mediaDuration" : 553,
                                "scalar" : 1,
                                "animationTracks" : {

                                }
                              }
,
                          "start" : 9074,
                          "duration" : 553,
                          "mediaStart" : 0,
                          "mediaDuration" : 15121,
                          "scalar" : 1,
                          "metadata" : {
                            "AutoAppliedSmartFocus" : "False",
                            "clipSpeedAttribute" : false
                          }
                        },
                        {
                          "id" : 332,
                          "_type" : "UnifiedMedia",
                          "video" : 
                              {
                                "id" : 333,
                                "_type" : "ScreenVMFile",
                                "src" : 1,
                                "trackNumber" : 0,
                                "attributes" : {
                                  "ident" : "Rec 01-08-21"
                                },
                                "parameters" : {
                                  "cursorScale" : {
                                    "type" : "double",
                                    "defaultValue" : 0.0,
                                    "interp" : "linr"
                                  },
                                  "cursorOpacity" : {
                                    "type" : "double",
                                    "defaultValue" : 0.0,
                                    "interp" : "linr"
                                  }
                                },
                                "effects" : [

                                ],
                                "start" : 9627,
                                "duration" : 951,
                                "mediaStart" : 9912,
                                "mediaDuration" : 951,
                                "scalar" : 1,
                                "animationTracks" : {

                                }
                              },
                          "audio" : 
                              {
                                "id" : 334,
                                "_type" : "AMFile",
                                "src" : 1,
                                "trackNumber" : 1,
                                "attributes" : {
                                  "ident" : "",
                                  "gain" : 1.0,
                                  "mixToMono" : false
                                },
                                  "channelNumber" : "0,1",
                                "effects" : [

                                ],
                                "start" : 9627,
                                "duration" : 951,
                                "mediaStart" : 9912,
                                "mediaDuration" : 951,
                                "scalar" : 1,
                                "animationTracks" : {

                                }
                              }
,
                          "start" : 9627,
                          "duration" : 951,
                          "mediaStart" : 0,
                          "mediaDuration" : 15121,
                          "scalar" : 1,
                          "metadata" : {
                            "AutoAppliedSmartFocus" : "False",
                            "clipSpeedAttribute" : false
                          }
                        },
                        {
                          "id" : 335,
                          "_type" : "UnifiedMedia",
                          "video" : 
                              {
                                "id" : 336,
                                "_type" : "ScreenVMFile",
                                "src" : 1,
                                "trackNumber" : 0,
                                "attributes" : {
                                  "ident" : "Rec 01-08-21"
                                },
                                "parameters" : {
                                  "cursorScale" : {
                                    "type" : "double",
                                    "defaultValue" : 0.0,
                                    "interp" : "linr"
                                  },
                                  "cursorOpacity" : {
                                    "type" : "double",
                                    "defaultValue" : 0.0,
                                    "interp" : "linr"
                                  }
                                },
                                "effects" : [

                                ],
                                "start" : 10578,
                                "duration" : 212,
                                "mediaStart" : 11917,
                                "mediaDuration" : 212,
                                "scalar" : 1,
                                "animationTracks" : {

                                }
                              },
                          "audio" : 
                              {
                                "id" : 337,
                                "_type" : "AMFile",
                                "src" : 1,
                                "trackNumber" : 1,
                                "attributes" : {
                                  "ident" : "",
                                  "gain" : 1.0,
                                  "mixToMono" : false
                                },
                                  "channelNumber" : "0,1",
                                "effects" : [

                                ],
                                "start" : 10578,
                                "duration" : 212,
                                "mediaStart" : 11917,
                                "mediaDuration" : 212,
                                "scalar" : 1,
                                "animationTracks" : {

                                }
                              }
,
                          "start" : 10578,
                          "duration" : 212,
                          "mediaStart" : 0,
                          "mediaDuration" : 15121,
                          "scalar" : 1,
                          "metadata" : {
                            "AutoAppliedSmartFocus" : "False",
                            "clipSpeedAttribute" : false
                          }
                        },
                        {
                          "id" : 338,
                          "_type" : "UnifiedMedia",
                          "video" : 
                              {
                                "id" : 339,
                                "_type" : "ScreenVMFile",
                                "src" : 1,
                                "trackNumber" : 0,
                                "attributes" : {
                                  "ident" : "Rec 01-08-21"
                                },
                                "parameters" : {
                                  "cursorScale" : {
                                    "type" : "double",
                                    "defaultValue" : 0.0,
                                    "interp" : "linr"
                                  },
                                  "cursorOpacity" : {
                                    "type" : "double",
                                    "defaultValue" : 0.0,
                                    "interp" : "linr"
                                  }
                                },
                                "effects" : [

                                ],
                                "start" : 10790,
                                "duration" : 392,
                                "mediaStart" : 12655,
                                "mediaDuration" : 392,
                                "scalar" : 1,
                                "animationTracks" : {

                                }
                              },
                          "audio" : 
                              {
                                "id" : 340,
                                "_type" : "AMFile",
                                "src" : 1,
                                "trackNumber" : 1,
                                "attributes" : {
                                  "ident" : "",
                                  "gain" : 1.0,
                                  "mixToMono" : false
                                },
                                  "channelNumber" : "0,1",
                                "effects" : [

                                ],
                                "start" : 10790,
                                "duration" : 392,
                                "mediaStart" : 12655,
                                "mediaDuration" : 392,
                                "scalar" : 1,
                                "animationTracks" : {

                                }
                              }
,
                          "start" : 10790,
                          "duration" : 392,
                          "mediaStart" : 0,
                          "mediaDuration" : 15121,
                          "scalar" : 1,
                          "metadata" : {
                            "AutoAppliedSmartFocus" : "False",
                            "clipSpeedAttribute" : false
                          }
                        },
                        {
                          "id" : 341,
                          "_type" : "UnifiedMedia",
                          "video" : 
                              {
                                "id" : 342,
                                "_type" : "ScreenVMFile",
                                "src" : 1,
                                "trackNumber" : 0,
                                "attributes" : {
                                  "ident" : "Rec 01-08-21"
                                },
                                "parameters" : {
                                  "cursorScale" : {
                                    "type" : "double",
                                    "defaultValue" : 0.0,
                                    "interp" : "linr"
                                  },
                                  "cursorOpacity" : {
                                    "type" : "double",
                                    "defaultValue" : 0.0,
                                    "interp" : "linr"
                                  }
                                },
                                "effects" : [

                                ],
                                "start" : 11182,
                                "duration" : 281,
                                "mediaStart" : 13277,
                                "mediaDuration" : 281,
                                "scalar" : 1,
                                "animationTracks" : {

                                }
                              },
                          "audio" : 
                              {
                                "id" : 343,
                                "_type" : "AMFile",
                                "src" : 1,
                                "trackNumber" : 1,
                                "attributes" : {
                                  "ident" : "",
                                  "gain" : 1.0,
                                  "mixToMono" : false
                                },
                                  "channelNumber" : "0,1",
                                "effects" : [

                                ],
                                "start" : 11182,
                                "duration" : 281,
                                "mediaStart" : 13277,
                                "mediaDuration" : 281,
                                "scalar" : 1,
                                "animationTracks" : {

                                }
                              }
,
                          "start" : 11182,
                          "duration" : 281,
                          "mediaStart" : 0,
                          "mediaDuration" : 15121,
                          "scalar" : 1,
                          "metadata" : {
                            "AutoAppliedSmartFocus" : "False",
                            "clipSpeedAttribute" : false
                          }
                        },
                        {
                          "id" : 344,
                          "_type" : "UnifiedMedia",
                          "video" : 
                              {
                                "id" : 345,
                                "_type" : "ScreenVMFile",
                                "src" : 1,
                                "trackNumber" : 0,
                                "attributes" : {
                                  "ident" : "Rec 01-08-21"
                                },
                                "parameters" : {
                                  "cursorScale" : {
                                    "type" : "double",
                                    "defaultValue" : 0.0,
                                    "interp" : "linr"
                                  },
                                  "cursorOpacity" : {
                                    "type" : "double",
                                    "defaultValue" : 0.0,
                                    "interp" : "linr"
                                  }
                                },
                                "effects" : [

                                ],
                                "start" : 11463,
                                "duration" : 167,
                                "mediaStart" : 13810,
                                "mediaDuration" : 167,
                                "scalar" : 1,
                                "animationTracks" : {

                                }
                              },
                          "audio" : 
                              {
                                "id" : 346,
                                "_type" : "AMFile",
                                "src" : 1,
                                "trackNumber" : 1,
                                "attributes" : {
                                  "ident" : "",
                                  "gain" : 1.0,
                                  "mixToMono" : false
                                },
                                  "channelNumber" : "0,1",
                                "effects" : [

                                ],
                                "start" : 11463,
                                "duration" : 167,
                                "mediaStart" : 13810,
                                "mediaDuration" : 167,
                                "scalar" : 1,
                                "animationTracks" : {

                                }
                              }
,
                          "start" : 11463,
                          "duration" : 167,
                          "mediaStart" : 0,
                          "mediaDuration" : 15121,
                          "scalar" : 1,
                          "metadata" : {
                            "AutoAppliedSmartFocus" : "False",
                            "clipSpeedAttribute" : false
                          }
                        },
                        {
                          "id" : 347,
                          "_type" : "UnifiedMedia",
                          "video" : 
                              {
                                "id" : 348,
                                "_type" : "ScreenVMFile",
                                "src" : 1,
                                "trackNumber" : 0,
                                "attributes" : {
                                  "ident" : "Rec 01-08-21"
                                },
                                "parameters" : {
                                  "cursorScale" : {
                                    "type" : "double",
                                    "defaultValue" : 0.0,
                                    "interp" : "linr"
                                  },
                                  "cursorOpacity" : {
                                    "type" : "double",
                                    "defaultValue" : 0.0,
                                    "interp" : "linr"
                                  }
                                },
                                "effects" : [

                                ],
                                "start" : 11630,
                                "duration" : 419,
                                "mediaStart" : 14332,
                                "mediaDuration" : 419,
                                "scalar" : 1,
                                "animationTracks" : {

                                }
                              },
                          "audio" : 
                              {
                                "id" : 349,
                                "_type" : "AMFile",
                                "src" : 1,
                                "trackNumber" : 1,
                                "attributes" : {
                                  "ident" : "",
                                  "gain" : 1.0,
                                  "mixToMono" : false
                                },
                                  "channelNumber" : "0,1",
                                "effects" : [

                                ],
                                "start" : 11630,
                                "duration" : 419,
                                "mediaStart" : 14332,
                                "mediaDuration" : 419,
                                "scalar" : 1,
                                "animationTracks" : {

                                }
                              }
,
                          "start" : 11630,
                          "duration" : 419,
                          "mediaStart" : 0,
                          "mediaDuration" : 15121,
                          "scalar" : 1,
                          "metadata" : {
                            "AutoAppliedSmartFocus" : "False",
                            "clipSpeedAttribute" : false
                          }
                        },
                        {
                          "id" : 350,
                          "_type" : "UnifiedMedia",
                          "video" : 
                              {
                                "id" : 351,
                                "_type" : "ScreenVMFile",
                                "src" : 1,
                                "trackNumber" : 0,
                                "attributes" : {
                                  "ident" : "Rec 01-08-21"
                                },
                                "parameters" : {
                                  "cursorScale" : {
                                    "type" : "double",
                                    "defaultValue" : 0.0,
                                    "interp" : "linr"
                                  },
                                  "cursorOpacity" : {
                                    "type" : "double",
                                    "defaultValue" : 0.0,
                                    "interp" : "linr"
                                  }
                                },
                                "effects" : [

                                ],
                                "start" : 12049,
                                "duration" : 142,
                                "mediaStart" : 14819,
                                "mediaDuration" : 142,
                                "scalar" : 1,
                                "animationTracks" : {

                                }
                              },
                          "audio" : 
                              {
                                "id" : 352,
                                "_type" : "AMFile",
                                "src" : 1,
                                "trackNumber" : 1,
                                "attributes" : {
                                  "ident" : "",
                                  "gain" : 1.0,
                                  "mixToMono" : false
                                },
                                  "channelNumber" : "0,1",
                                "effects" : [

                                ],
                                "start" : 12049,
                                "duration" : 142,
                                "mediaStart" : 14819,
                                "mediaDuration" : 142,
                                "scalar" : 1,
                                "animationTracks" : {

                                }
                              }
,
                          "start" : 12049,
                          "duration" : 142,
                          "mediaStart" : 0,
                          "mediaDuration" : 15121,
                          "scalar" : 1,
                          "metadata" : {
                            "AutoAppliedSmartFocus" : "False",
                            "clipSpeedAttribute" : false
                          }
                        },
                        {
                          "id" : 353,
                          "_type" : "UnifiedMedia",
                          "video" : 
                              {
                                "id" : 354,
                                "_type" : "ScreenVMFile",
                                "src" : 1,
                                "trackNumber" : 0,
                                "attributes" : {
                                  "ident" : "Rec 01-08-21"
                                },
                                "parameters" : {
                                  "cursorScale" : {
                                    "type" : "double",
                                    "defaultValue" : 0.0,
                                    "interp" : "linr"
                                  },
                                  "cursorOpacity" : {
                                    "type" : "double",
                                    "defaultValue" : 0.0,
                                    "interp" : "linr"
                                  }
                                },
                                "effects" : [

                                ],
                                "start" : 12191,
                                "duration" : 145,
                                "mediaStart" : 14976,
                                "mediaDuration" : 145,
                                "scalar" : 1,
                                "animationTracks" : {

                                }
                              },
                          "audio" : 
                              {
                                "id" : 355,
                                "_type" : "AMFile",
                                "src" : 1,
                                "trackNumber" : 1,
                                "attributes" : {
                                  "ident" : "",
                                  "gain" : 1.0,
                                  "mixToMono" : false
                                },
                                  "channelNumber" : "0,1",
                                "effects" : [

                                ],
                                "start" : 12191,
                                "duration" : 145,
                                "mediaStart" : 14976,
                                "mediaDuration" : 145,
                                "scalar" : 1,
                                "animationTracks" : {

                                }
                              }
,
                          "start" : 12191,
                          "duration" : 145,
                          "mediaStart" : 0,
                          "mediaDuration" : 15121,
                          "scalar" : 1,
                          "metadata" : {
                            "AutoAppliedSmartFocus" : "False",
                            "clipSpeedAttribute" : false
                          }
                        }
                    ],
                    "effects" : [

                    ],
                    "start" : 5615,
                    "duration" : 299,
                    "mediaStart" : 12037,
                    "mediaDuration" : 299,
                    "scalar" : 1,
                    "metadata" : {
                      "AutoAppliedSmartFocus" : "False",
                      "clipSpeedAttribute" : false
                    },
                    "animationTracks" : {

                    }
                  }
                ],
                "transitions" : [
                  {
                    "name" : "Fade",
                    "duration" : 98,
                    "trivial" : false,
                    "reverse" : false,
                    "useAudioPreRoll" : true,
                    "useVisualPreRoll" : true,
                    "rightMedia" : 41
                  }
                ]
              },
              {
                "trackIndex" : 1,
                "medias" : [
                  {
                    "id" : 356,
                    "_type" : "Group",
                    "parameters" : {
                      "volume" : 1.0
                    },
                    "tracks" : [
                      {
                        "trackIndex" : 0,
                        "medias" : [
                          {
                            "id" : 357,
                            "_type" : "Callout",
                            "def" : {
                              "kind" : "remix",
                              "shape" : "text",
                              "style" : "basic",
                              "height" : {
                                "type" : "double",
                                "defaultValue" : 250.0,
                                "interp" : "linr"
                              },
                              "line-spacing" : {
                                "type" : "double",
                                "defaultValue" : 0.0,
                                "interp" : "linr"
                              },
                              "width" : {
                                "type" : "double",
                                "defaultValue" : 998.63013698628,
                                "interp" : "linr"
                              },
                              "word-wrap" : {
                                "type" : "double",
                                "defaultValue" : 1.0,
                                "interp" : "linr"
                              },
                              "horizontal-alignment" : "center",
                              "resize-behavior" : "resizeText",
                              "text" : "Install K8S Plugin in VS Code",
                              "vertical-alignment" : "center",
                              "font" : {
                                "color-blue" : {
                                  "type" : "double",
                                  "defaultValue" : 1.0,
                                  "interp" : "linr"
                                },
                                "color-green" : {
                                  "type" : "double",
                                  "defaultValue" : 1.0,
                                  "interp" : "linr"
                                },
                                "color-red" : {
                                  "type" : "double",
                                  "defaultValue" : 1.0,
                                  "interp" : "linr"
                                },
                                "size" : {
                                  "type" : "double",
                                  "defaultValue" : 96.0,
                                  "interp" : "linr"
                                },
                                "tracking" : {
                                  "type" : "double",
                                  "defaultValue" : 0.0,
                                  "interp" : "linr"
                                },
                                "name" : "Montserrat",
                                "weight" : "Regular"
                              },
                              "textAttributes" : {
                                "type" : "textAttributeList",
                                "keyframes" : [
                                  {
                                    "endTime" : 0,
                                    "time" : 0,
                                    "value" : [{"name":"fontName","rangeEnd":29,"rangeStart":0,"value":"Montserrat","valueType":"string"},{"name":"fgColor","rangeEnd":29,"rangeStart":0,"value":"(50,108,229,255)","valueType":"color"},{"name":"fontSize","rangeEnd":29,"rangeStart":0,"value":96,"valueType":"double"},{"name":"underline","rangeEnd":29,"rangeStart":0,"value":0,"valueType":"int"},{"name":"kerning","rangeEnd":29,"rangeStart":0,"value":0,"valueType":"double"},{"name":"fontWeight","rangeEnd":29,"rangeStart":0,"value":700,"valueType":"int"},{"name":"strikethrough","rangeEnd":29,"rangeStart":0,"value":0,"valueType":"int"},{"name":"fontItalic","rangeEnd":29,"rangeStart":0,"value":0,"valueType":"int"}],
                                    "duration" : 0
                                  }
                                ]
                              }
                            },
                            "attributes" : {
                              "autoRotateText" : true
                            },
                            "parameters" : {
                              "translation0" : {
                                "type" : "double",
                                "defaultValue" : -22.4178082191042,
                                "interp" : "eioe"
                              },
                              "translation1" : {
                                "type" : "double",
                                "defaultValue" : 1.319122588261e-11,
                                "interp" : "eioe"
                              }
                            },
                            "effects" : [
                                {
                                  "_type" : "GenericBehaviorEffect",
                                  "effectName" : "pulsating",
                                  "start" : -102,
                                  "duration" : 200                                ,
                                  "in" : {
                                    "attributes" : {
                                      "name" : "grow",
                                      "type" : 1,
                                      "characterOrder" : 6,
                                      "offsetBetweenCharacters" : 1,
                                      "suggestedDurationPerCharacter" : 18,
                                      "overlapProportion" : "3/4",
                                      "movement" : 30,
                                      "springDamping" : 5.0,
                                      "springStiffness" : 50.0,
                                      "bounceBounciness" : 0.45
                                    }
                                  
                                  },
                                  "center" : {
                                    "attributes" : {
                                      "name" : "pulsate",
                                      "type" : 1,
                                      "characterOrder" : 6,
                                      "offsetBetweenCharacters" : "21/10",
                                      "secondsPerLoop" : 1,
                                      "numberOfLoops" : -1,
                                      "delayBetweenLoops" : 0,
                                      "offsetBetweenCharacters" : "21/10"
                                    },
                                    "parameters" : {
                                      "movement" : {
                                        "type" : "int",
                                        "valueBounds" : {
                                          "minValue" : 0,
                                          "maxValue" : 31,
                                          "defaultValue" : 27
                                        },
                                        "uiHints" : {
                                          "userInterfaceType" : 4,
                                          "unitType" : 0
                                        },
                                        "keyframes" : [
                                          {
                                            "endTime" : 0,
                                            "time" : 0,
                                            "value" : 27,
                                            "duration" : 0
                                          }
                                        ]
                                      },
                                      "scale" : {
                                        "type" : "double",
                                        "defaultValue" : 1.08,
                                        "interp" : "linr",
                                        "valueBounds" : {
                                          "minValue" : 0.01,
                                          "maxValue" : 2.0,
                                          "defaultValue" : 1.08
                                        },
                                        "uiHints" : {
                                          "userInterfaceType" : 1,
                                          "unitType" : 1
                                        }
                                      }
                                    }
                                  
                                  },
                                  "out" : {
                                    "attributes" : {
                                      "name" : "shrink",
                                      "type" : 1,
                                      "characterOrder" : 6,
                                      "offsetBetweenCharacters" : 1,
                                      "suggestedDurationPerCharacter" : "29/2",
                                      "overlapProportion" : "1/10",
                                      "movement" : 11,
                                      "springDamping" : 5.0,
                                      "springStiffness" : 50.0,
                                      "bounceBounciness" : 0.45
                                    }
                                  
                                  }
                                }
                            ],
                            "start" : 0,
                            "duration" : 103,
                            "mediaStart" : -102,
                            "mediaDuration" : 103,
                            "scalar" : 1,
                            "metadata" : {
                              "clipSpeedAttribute" : false,
                              "default-HAlign" : "center",
                              "default-LineSpace" : 0.0,
                              "default-VAlign" : "center",
                              "default-text-attributes" : "[{\"name\":\"fontItalic\",\"rangeEnd\":21,\"rangeStart\":0,\"value\":0,\"valueType\":\"int\"},{\"name\":\"fontName\",\"rangeEnd\":21,\"rangeStart\":0,\"value\":\"Montserrat\",\"valueType\":\"string\"},{\"name\":\"fontWeight\",\"rangeEnd\":21,\"rangeStart\":0,\"value\":700,\"valueType\":\"int\"},{\"name\":\"kerning\",\"rangeEnd\":21,\"rangeStart\":0,\"value\":0,\"valueType\":\"double\"},{\"name\":\"fgColor\",\"rangeEnd\":21,\"rangeStart\":0,\"value\":\"(50,108,229,255)\",\"valueType\":\"color\"},{\"name\":\"underline\",\"rangeEnd\":21,\"rangeStart\":0,\"value\":0,\"valueType\":\"int\"},{\"name\":\"fontSize\",\"rangeEnd\":21,\"rangeStart\":0,\"value\":96,\"valueType\":\"double\"},{\"name\":\"strikethrough\",\"rangeEnd\":21,\"rangeStart\":0,\"value\":0,\"valueType\":\"int\"}]"
                            },
                            "animationTracks" : {

                            }
                          },
                          {
                            "id" : 358,
                            "_type" : "Callout",
                            "def" : {
                              "kind" : "remix",
                              "shape" : "text",
                              "style" : "basic",
                              "height" : {
                                "type" : "double",
                                "defaultValue" : 250.0,
                                "interp" : "linr"
                              },
                              "line-spacing" : {
                                "type" : "double",
                                "defaultValue" : 0.0,
                                "interp" : "linr"
                              },
                              "width" : {
                                "type" : "double",
                                "defaultValue" : 998.63013698628,
                                "interp" : "linr"
                              },
                              "word-wrap" : {
                                "type" : "double",
                                "defaultValue" : 1.0,
                                "interp" : "linr"
                              },
                              "horizontal-alignment" : "center",
                              "resize-behavior" : "resizeText",
                              "text" : "Install K8S Plugin in VS Code",
                              "vertical-alignment" : "center",
                              "font" : {
                                "color-blue" : {
                                  "type" : "double",
                                  "defaultValue" : 1.0,
                                  "interp" : "linr"
                                },
                                "color-green" : {
                                  "type" : "double",
                                  "defaultValue" : 1.0,
                                  "interp" : "linr"
                                },
                                "color-red" : {
                                  "type" : "double",
                                  "defaultValue" : 1.0,
                                  "interp" : "linr"
                                },
                                "size" : {
                                  "type" : "double",
                                  "defaultValue" : 96.0,
                                  "interp" : "linr"
                                },
                                "tracking" : {
                                  "type" : "double",
                                  "defaultValue" : 0.0,
                                  "interp" : "linr"
                                },
                                "name" : "Montserrat",
                                "weight" : "Regular"
                              },
                              "textAttributes" : {
                                "type" : "textAttributeList",
                                "keyframes" : [
                                  {
                                    "endTime" : 0,
                                    "time" : 0,
                                    "value" : [{"name":"fontItalic","rangeEnd":29,"rangeStart":0,"value":0,"valueType":"int"},{"name":"strikethrough","rangeEnd":29,"rangeStart":0,"value":0,"valueType":"int"},{"name":"kerning","rangeEnd":29,"rangeStart":0,"value":0,"valueType":"double"},{"name":"fontSize","rangeEnd":29,"rangeStart":0,"value":96,"valueType":"double"},{"name":"fgColor","rangeEnd":29,"rangeStart":0,"value":"(50,108,229,255)","valueType":"color"},{"name":"fontWeight","rangeEnd":29,"rangeStart":0,"value":700,"valueType":"int"},{"name":"fontName","rangeEnd":29,"rangeStart":0,"value":"Montserrat","valueType":"string"},{"name":"underline","rangeEnd":29,"rangeStart":0,"value":0,"valueType":"int"}],
                                    "duration" : 0
                                  }
                                ]
                              }
                            },
                            "attributes" : {
                              "autoRotateText" : true
                            },
                            "parameters" : {
                              "translation0" : {
                                "type" : "double",
                                "defaultValue" : -22.4,
                                "interp" : "eioe"
                              },
                              "translation1" : {
                                "type" : "double",
                                "defaultValue" : 4.13429290734252e-11,
                                "interp" : "eioe"
                              }
                            },
                            "effects" : [
                                {
                                  "_type" : "GenericBehaviorEffect",
                                  "effectName" : "pulsating",
                                  "start" : -102,
                                  "duration" : 200                                ,
                                  "in" : {
                                    "attributes" : {
                                      "name" : "grow",
                                      "type" : 1,
                                      "characterOrder" : 6,
                                      "offsetBetweenCharacters" : 1,
                                      "suggestedDurationPerCharacter" : 18,
                                      "overlapProportion" : "3/4",
                                      "movement" : 30,
                                      "springDamping" : 5.0,
                                      "springStiffness" : 50.0,
                                      "bounceBounciness" : 0.45
                                    }
                                  
                                  },
                                  "center" : {
                                    "attributes" : {
                                      "name" : "pulsate",
                                      "type" : 1,
                                      "characterOrder" : 6,
                                      "offsetBetweenCharacters" : "21/10",
                                      "secondsPerLoop" : 1,
                                      "numberOfLoops" : -1,
                                      "delayBetweenLoops" : 0,
                                      "offsetBetweenCharacters" : "21/10"
                                    },
                                    "parameters" : {
                                      "movement" : {
                                        "type" : "int",
                                        "valueBounds" : {
                                          "minValue" : 0,
                                          "maxValue" : 31,
                                          "defaultValue" : 27
                                        },
                                        "uiHints" : {
                                          "userInterfaceType" : 4,
                                          "unitType" : 0
                                        },
                                        "keyframes" : [
                                          {
                                            "endTime" : 0,
                                            "time" : 0,
                                            "value" : 27,
                                            "duration" : 0
                                          }
                                        ]
                                      },
                                      "scale" : {
                                        "type" : "double",
                                        "defaultValue" : 1.08,
                                        "interp" : "linr",
                                        "valueBounds" : {
                                          "minValue" : 0.01,
                                          "maxValue" : 2.0,
                                          "defaultValue" : 1.08
                                        },
                                        "uiHints" : {
                                          "userInterfaceType" : 1,
                                          "unitType" : 1
                                        }
                                      }
                                    }
                                  
                                  },
                                  "out" : {
                                    "attributes" : {
                                      "name" : "shrink",
                                      "type" : 1,
                                      "characterOrder" : 6,
                                      "offsetBetweenCharacters" : 1,
                                      "suggestedDurationPerCharacter" : "29/2",
                                      "overlapProportion" : "1/10",
                                      "movement" : 11,
                                      "springDamping" : 5.0,
                                      "springStiffness" : 50.0,
                                      "bounceBounciness" : 0.45
                                    }
                                  
                                  }
                                }
                            ],
                            "start" : 103,
                            "duration" : 97,
                            "mediaStart" : 1,
                            "mediaDuration" : 97,
                            "scalar" : 1,
                            "metadata" : {
                              "clipSpeedAttribute" : false,
                              "default-HAlign" : "center",
                              "default-LineSpace" : 0.0,
                              "default-VAlign" : "center",
                              "default-text-attributes" : "[{\"name\":\"strikethrough\",\"rangeEnd\":21,\"rangeStart\":0,\"value\":0,\"valueType\":\"int\"},{\"name\":\"fontName\",\"rangeEnd\":21,\"rangeStart\":0,\"value\":\"Montserrat\",\"valueType\":\"string\"},{\"name\":\"fontSize\",\"rangeEnd\":21,\"rangeStart\":0,\"value\":96,\"valueType\":\"double\"},{\"name\":\"fontWeight\",\"rangeEnd\":21,\"rangeStart\":0,\"value\":700,\"valueType\":\"int\"},{\"name\":\"fgColor\",\"rangeEnd\":21,\"rangeStart\":0,\"value\":\"(50,108,229,255)\",\"valueType\":\"color\"},{\"name\":\"underline\",\"rangeEnd\":21,\"rangeStart\":0,\"value\":0,\"valueType\":\"int\"},{\"name\":\"kerning\",\"rangeEnd\":21,\"rangeStart\":0,\"value\":0,\"valueType\":\"double\"},{\"name\":\"fontItalic\",\"rangeEnd\":21,\"rangeStart\":0,\"value\":0,\"valueType\":\"int\"}]",
                              "default-translation0" : -74.4178082188969
                            },
                            "animationTracks" : {

                            }
                          }
                        ],
                          "ident" : "",
                          "audioMuted" : false,
                          "videoHidden" : false,
                          "magnetic" : false,
                          "matte" : 0,
                          "metadata" : {
                            "IsLocked" : "False",
                            "WinTrackHeight" : "0"
                          }
                      },
                      {
                        "trackIndex" : 1,
                        "medias" : [
                          {
                            "id" : 359,
                            "_type" : "Group",
                            "parameters" : {
                              "translation0" : {
                                "type" : "double",
                                "defaultValue" : 0.559750733332294,
                                "interp" : "eioe"
                              },
                              "translation1" : {
                                "type" : "double",
                                "defaultValue" : -34.4850472193567,
                                "interp" : "eioe"
                              },
                              "volume" : 1.0
                            },
                            "tracks" : [
                              {
                                "trackIndex" : 0,
                                "medias" : [
                                  {
                                    "id" : 360,
                                    "_type" : "Group",
                                    "parameters" : {
                                      "translation0" : {
                                        "type" : "double",
                                        "defaultValue" : 4.44089209850063e-16,
                                        "interp" : "eioe"
                                      },
                                      "translation1" : {
                                        "type" : "double",
                                        "defaultValue" : -34.4850472193565,
                                        "interp" : "eioe"
                                      },
                                      "volume" : 1.0
                                    },
                                    "tracks" : [
                                      {
                                        "trackIndex" : 0,
                                        "medias" : [
                                          {
                                            "id" : 361,
                                            "_type" : "Group",
                                            "parameters" : {
                                              "translation0" : {
                                                "type" : "double",
                                                "defaultValue" : 0.55975073333218,
                                                "interp" : "eioe"
                                              },
                                              "translation1" : {
                                                "type" : "double",
                                                "defaultValue" : -289.15133998951,
                                                "interp" : "eioe"
                                              },
                                              "volume" : 1.0
                                            },
                                            "tracks" : [
                                              {
                                                "trackIndex" : 0,
                                                "medias" : [
                                                  {
                                                    "id" : 362,
                                                    "_type" : "IMFile",
                                                    "src" : 8,
                                                    "trackNumber" : 0,
                                                    "trimStartSum" : 0,
                                                    "attributes" : {
                                                      "ident" : "wave1"
                                                    },
                                                    "parameters" : {
                                                      "translation0" : {
                                                        "type" : "double",
                                                        "defaultValue" : -2.11950146613311,
                                                        "interp" : "eioe"
                                                      },
                                                      "translation1" : {
                                                        "type" : "double",
                                                        "defaultValue" : 8.96940103546206,
                                                        "interp" : "eioe"
                                                      },
                                                      "scale0" : {
                                                        "type" : "double",
                                                        "defaultValue" : 1.02884111169424,
                                                        "interp" : "eioe"
                                                      },
                                                      "scale1" : {
                                                        "type" : "double",
                                                        "defaultValue" : 1.02884111169424,
                                                        "interp" : "eioe"
                                                      }
                                                    },
                                                    "effects" : [

                                                    ],
                                                    "start" : 0,
                                                    "duration" : 6,
                                                    "mediaStart" : 0,
                                                    "mediaDuration" : 6,
                                                    "scalar" : 1,
                                                    "metadata" : {
                                                      "clipSpeedAttribute" : false
                                                    },
                                                    "animationTracks" : {

                                                    }
                                                  },
                                                  {
                                                    "id" : 363,
                                                    "_type" : "IMFile",
                                                    "src" : 9,
                                                    "trackNumber" : 0,
                                                    "trimStartSum" : 0,
                                                    "attributes" : {
                                                      "ident" : "wave2"
                                                    },
                                                    "parameters" : {
                                                      "translation0" : {
                                                        "type" : "double",
                                                        "defaultValue" : 0.880498533167186,
                                                        "interp" : "eioe"
                                                      },
                                                      "translation1" : {
                                                        "type" : "double",
                                                        "defaultValue" : -88.087642172052,
                                                        "interp" : "eioe"
                                                      },
                                                      "scale0" : {
                                                        "type" : "double",
                                                        "defaultValue" : 1.03068101042332,
                                                        "interp" : "eioe"
                                                      },
                                                      "scale1" : {
                                                        "type" : "double",
                                                        "defaultValue" : 1.03068101042332,
                                                        "interp" : "eioe"
                                                      }
                                                    },
                                                    "effects" : [

                                                    ],
                                                    "start" : 6,
                                                    "duration" : 6,
                                                    "mediaStart" : 0,
                                                    "mediaDuration" : 6,
                                                    "scalar" : 1,
                                                    "metadata" : {
                                                      "clipSpeedAttribute" : false
                                                    },
                                                    "animationTracks" : {

                                                    }
                                                  },
                                                  {
                                                    "id" : 364,
                                                    "_type" : "IMFile",
                                                    "src" : 10,
                                                    "trackNumber" : 0,
                                                    "trimStartSum" : 0,
                                                    "attributes" : {
                                                      "ident" : "wave3"
                                                    },
                                                    "parameters" : {
                                                      "translation0" : {
                                                        "type" : "double",
                                                        "defaultValue" : -1.11950146655987,
                                                        "interp" : "eioe"
                                                      },
                                                      "translation1" : {
                                                        "type" : "double",
                                                        "defaultValue" : 8.12143442823202,
                                                        "interp" : "eioe"
                                                      },
                                                      "scale0" : {
                                                        "type" : "double",
                                                        "defaultValue" : 1.00893326326855,
                                                        "interp" : "eioe"
                                                      },
                                                      "scale1" : {
                                                        "type" : "double",
                                                        "defaultValue" : 1.00893326326855,
                                                        "interp" : "eioe"
                                                      }
                                                    },
                                                    "effects" : [

                                                    ],
                                                    "start" : 12,
                                                    "duration" : 7,
                                                    "mediaStart" : 0,
                                                    "mediaDuration" : 7,
                                                    "scalar" : 1,
                                                    "metadata" : {
                                                      "clipSpeedAttribute" : false
                                                    },
                                                    "animationTracks" : {

                                                    }
                                                  },
                                                  {
                                                    "id" : 365,
                                                    "_type" : "IMFile",
                                                    "src" : 8,
                                                    "trackNumber" : 0,
                                                    "trimStartSum" : 0,
                                                    "attributes" : {
                                                      "ident" : "wave1"
                                                    },
                                                    "parameters" : {
                                                      "translation0" : {
                                                        "type" : "double",
                                                        "defaultValue" : -2.11950146613311,
                                                        "interp" : "eioe"
                                                      },
                                                      "translation1" : {
                                                        "type" : "double",
                                                        "defaultValue" : 8.96940103546206,
                                                        "interp" : "eioe"
                                                      },
                                                      "scale0" : {
                                                        "type" : "double",
                                                        "defaultValue" : 1.02884111169424,
                                                        "interp" : "eioe"
                                                      },
                                                      "scale1" : {
                                                        "type" : "double",
                                                        "defaultValue" : 1.02884111169424,
                                                        "interp" : "eioe"
                                                      }
                                                    },
                                                    "effects" : [

                                                    ],
                                                    "start" : 19,
                                                    "duration" : 6,
                                                    "mediaStart" : 0,
                                                    "mediaDuration" : 6,
                                                    "scalar" : 1,
                                                    "metadata" : {
                                                      "clipSpeedAttribute" : false
                                                    },
                                                    "animationTracks" : {

                                                    }
                                                  },
                                                  {
                                                    "id" : 366,
                                                    "_type" : "IMFile",
                                                    "src" : 9,
                                                    "trackNumber" : 0,
                                                    "trimStartSum" : 0,
                                                    "attributes" : {
                                                      "ident" : "wave2"
                                                    },
                                                    "parameters" : {
                                                      "translation0" : {
                                                        "type" : "double",
                                                        "defaultValue" : 0.880498533167186,
                                                        "interp" : "eioe"
                                                      },
                                                      "translation1" : {
                                                        "type" : "double",
                                                        "defaultValue" : -88.087642172052,
                                                        "interp" : "eioe"
                                                      },
                                                      "scale0" : {
                                                        "type" : "double",
                                                        "defaultValue" : 1.03068101042332,
                                                        "interp" : "eioe"
                                                      },
                                                      "scale1" : {
                                                        "type" : "double",
                                                        "defaultValue" : 1.03068101042332,
                                                        "interp" : "eioe"
                                                      }
                                                    },
                                                    "effects" : [

                                                    ],
                                                    "start" : 25,
                                                    "duration" : 6,
                                                    "mediaStart" : 0,
                                                    "mediaDuration" : 6,
                                                    "scalar" : 1,
                                                    "metadata" : {
                                                      "clipSpeedAttribute" : false
                                                    },
                                                    "animationTracks" : {

                                                    }
                                                  },
                                                  {
                                                    "id" : 367,
                                                    "_type" : "IMFile",
                                                    "src" : 10,
                                                    "trackNumber" : 0,
                                                    "trimStartSum" : 0,
                                                    "attributes" : {
                                                      "ident" : "wave3"
                                                    },
                                                    "parameters" : {
                                                      "translation0" : {
                                                        "type" : "double",
                                                        "defaultValue" : -1.11950146655987,
                                                        "interp" : "eioe"
                                                      },
                                                      "translation1" : {
                                                        "type" : "double",
                                                        "defaultValue" : 8.12143442823202,
                                                        "interp" : "eioe"
                                                      },
                                                      "scale0" : {
                                                        "type" : "double",
                                                        "defaultValue" : 1.00893326326855,
                                                        "interp" : "eioe"
                                                      },
                                                      "scale1" : {
                                                        "type" : "double",
                                                        "defaultValue" : 1.00893326326855,
                                                        "interp" : "eioe"
                                                      }
                                                    },
                                                    "effects" : [

                                                    ],
                                                    "start" : 31,
                                                    "duration" : 7,
                                                    "mediaStart" : 0,
                                                    "mediaDuration" : 7,
                                                    "scalar" : 1,
                                                    "metadata" : {
                                                      "clipSpeedAttribute" : false
                                                    },
                                                    "animationTracks" : {

                                                    }
                                                  },
                                                  {
                                                    "id" : 368,
                                                    "_type" : "IMFile",
                                                    "src" : 8,
                                                    "trackNumber" : 0,
                                                    "trimStartSum" : 0,
                                                    "attributes" : {
                                                      "ident" : "wave1"
                                                    },
                                                    "parameters" : {
                                                      "translation0" : {
                                                        "type" : "double",
                                                        "defaultValue" : -2.11950146613311,
                                                        "interp" : "eioe"
                                                      },
                                                      "translation1" : {
                                                        "type" : "double",
                                                        "defaultValue" : 8.96940103546206,
                                                        "interp" : "eioe"
                                                      },
                                                      "scale0" : {
                                                        "type" : "double",
                                                        "defaultValue" : 1.02884111169424,
                                                        "interp" : "eioe"
                                                      },
                                                      "scale1" : {
                                                        "type" : "double",
                                                        "defaultValue" : 1.02884111169424,
                                                        "interp" : "eioe"
                                                      }
                                                    },
                                                    "effects" : [

                                                    ],
                                                    "start" : 38,
                                                    "duration" : 6,
                                                    "mediaStart" : 0,
                                                    "mediaDuration" : 6,
                                                    "scalar" : 1,
                                                    "metadata" : {
                                                      "clipSpeedAttribute" : false
                                                    },
                                                    "animationTracks" : {

                                                    }
                                                  },
                                                  {
                                                    "id" : 369,
                                                    "_type" : "IMFile",
                                                    "src" : 9,
                                                    "trackNumber" : 0,
                                                    "trimStartSum" : 0,
                                                    "attributes" : {
                                                      "ident" : "wave2"
                                                    },
                                                    "parameters" : {
                                                      "translation0" : {
                                                        "type" : "double",
                                                        "defaultValue" : 0.880498533167186,
                                                        "interp" : "eioe"
                                                      },
                                                      "translation1" : {
                                                        "type" : "double",
                                                        "defaultValue" : -88.087642172052,
                                                        "interp" : "eioe"
                                                      },
                                                      "scale0" : {
                                                        "type" : "double",
                                                        "defaultValue" : 1.03068101042332,
                                                        "interp" : "eioe"
                                                      },
                                                      "scale1" : {
                                                        "type" : "double",
                                                        "defaultValue" : 1.03068101042332,
                                                        "interp" : "eioe"
                                                      }
                                                    },
                                                    "effects" : [

                                                    ],
                                                    "start" : 44,
                                                    "duration" : 6,
                                                    "mediaStart" : 0,
                                                    "mediaDuration" : 6,
                                                    "scalar" : 1,
                                                    "metadata" : {
                                                      "clipSpeedAttribute" : false
                                                    },
                                                    "animationTracks" : {

                                                    }
                                                  },
                                                  {
                                                    "id" : 370,
                                                    "_type" : "IMFile",
                                                    "src" : 10,
                                                    "trackNumber" : 0,
                                                    "trimStartSum" : 0,
                                                    "attributes" : {
                                                      "ident" : "wave3"
                                                    },
                                                    "parameters" : {
                                                      "translation0" : {
                                                        "type" : "double",
                                                        "defaultValue" : -1.11950146655987,
                                                        "interp" : "eioe"
                                                      },
                                                      "translation1" : {
                                                        "type" : "double",
                                                        "defaultValue" : 8.12143442823202,
                                                        "interp" : "eioe"
                                                      },
                                                      "scale0" : {
                                                        "type" : "double",
                                                        "defaultValue" : 1.00893326326855,
                                                        "interp" : "eioe"
                                                      },
                                                      "scale1" : {
                                                        "type" : "double",
                                                        "defaultValue" : 1.00893326326855,
                                                        "interp" : "eioe"
                                                      }
                                                    },
                                                    "effects" : [

                                                    ],
                                                    "start" : 50,
                                                    "duration" : 7,
                                                    "mediaStart" : 0,
                                                    "mediaDuration" : 7,
                                                    "scalar" : 1,
                                                    "metadata" : {
                                                      "clipSpeedAttribute" : false
                                                    },
                                                    "animationTracks" : {

                                                    }
                                                  },
                                                  {
                                                    "id" : 371,
                                                    "_type" : "IMFile",
                                                    "src" : 8,
                                                    "trackNumber" : 0,
                                                    "trimStartSum" : 0,
                                                    "attributes" : {
                                                      "ident" : "wave1"
                                                    },
                                                    "parameters" : {
                                                      "translation0" : {
                                                        "type" : "double",
                                                        "defaultValue" : -2.11950146613311,
                                                        "interp" : "eioe"
                                                      },
                                                      "translation1" : {
                                                        "type" : "double",
                                                        "defaultValue" : 8.96940103546206,
                                                        "interp" : "eioe"
                                                      },
                                                      "scale0" : {
                                                        "type" : "double",
                                                        "defaultValue" : 1.02884111169424,
                                                        "interp" : "eioe"
                                                      },
                                                      "scale1" : {
                                                        "type" : "double",
                                                        "defaultValue" : 1.02884111169424,
                                                        "interp" : "eioe"
                                                      }
                                                    },
                                                    "effects" : [

                                                    ],
                                                    "start" : 57,
                                                    "duration" : 6,
                                                    "mediaStart" : 0,
                                                    "mediaDuration" : 6,
                                                    "scalar" : 1,
                                                    "metadata" : {
                                                      "clipSpeedAttribute" : false
                                                    },
                                                    "animationTracks" : {

                                                    }
                                                  },
                                                  {
                                                    "id" : 372,
                                                    "_type" : "IMFile",
                                                    "src" : 9,
                                                    "trackNumber" : 0,
                                                    "trimStartSum" : 0,
                                                    "attributes" : {
                                                      "ident" : "wave2"
                                                    },
                                                    "parameters" : {
                                                      "translation0" : {
                                                        "type" : "double",
                                                        "defaultValue" : 0.880498533167186,
                                                        "interp" : "eioe"
                                                      },
                                                      "translation1" : {
                                                        "type" : "double",
                                                        "defaultValue" : -88.087642172052,
                                                        "interp" : "eioe"
                                                      },
                                                      "scale0" : {
                                                        "type" : "double",
                                                        "defaultValue" : 1.03068101042332,
                                                        "interp" : "eioe"
                                                      },
                                                      "scale1" : {
                                                        "type" : "double",
                                                        "defaultValue" : 1.03068101042332,
                                                        "interp" : "eioe"
                                                      }
                                                    },
                                                    "effects" : [

                                                    ],
                                                    "start" : 63,
                                                    "duration" : 6,
                                                    "mediaStart" : 0,
                                                    "mediaDuration" : 6,
                                                    "scalar" : 1,
                                                    "metadata" : {
                                                      "clipSpeedAttribute" : false
                                                    },
                                                    "animationTracks" : {

                                                    }
                                                  },
                                                  {
                                                    "id" : 373,
                                                    "_type" : "IMFile",
                                                    "src" : 10,
                                                    "trackNumber" : 0,
                                                    "trimStartSum" : 0,
                                                    "attributes" : {
                                                      "ident" : "wave3"
                                                    },
                                                    "parameters" : {
                                                      "translation0" : {
                                                        "type" : "double",
                                                        "defaultValue" : -1.11950146655987,
                                                        "interp" : "eioe"
                                                      },
                                                      "translation1" : {
                                                        "type" : "double",
                                                        "defaultValue" : 8.12143442823202,
                                                        "interp" : "eioe"
                                                      },
                                                      "scale0" : {
                                                        "type" : "double",
                                                        "defaultValue" : 1.00893326326855,
                                                        "interp" : "eioe"
                                                      },
                                                      "scale1" : {
                                                        "type" : "double",
                                                        "defaultValue" : 1.00893326326855,
                                                        "interp" : "eioe"
                                                      }
                                                    },
                                                    "effects" : [

                                                    ],
                                                    "start" : 69,
                                                    "duration" : 7,
                                                    "mediaStart" : 0,
                                                    "mediaDuration" : 7,
                                                    "scalar" : 1,
                                                    "metadata" : {
                                                      "clipSpeedAttribute" : false
                                                    },
                                                    "animationTracks" : {

                                                    }
                                                  },
                                                  {
                                                    "id" : 374,
                                                    "_type" : "IMFile",
                                                    "src" : 8,
                                                    "trackNumber" : 0,
                                                    "trimStartSum" : 0,
                                                    "attributes" : {
                                                      "ident" : "wave1"
                                                    },
                                                    "parameters" : {
                                                      "translation0" : {
                                                        "type" : "double",
                                                        "defaultValue" : -2.11950146613311,
                                                        "interp" : "eioe"
                                                      },
                                                      "translation1" : {
                                                        "type" : "double",
                                                        "defaultValue" : 8.96940103546206,
                                                        "interp" : "eioe"
                                                      },
                                                      "scale0" : {
                                                        "type" : "double",
                                                        "defaultValue" : 1.02884111169424,
                                                        "interp" : "eioe"
                                                      },
                                                      "scale1" : {
                                                        "type" : "double",
                                                        "defaultValue" : 1.02884111169424,
                                                        "interp" : "eioe"
                                                      }
                                                    },
                                                    "effects" : [

                                                    ],
                                                    "start" : 76,
                                                    "duration" : 6,
                                                    "mediaStart" : 0,
                                                    "mediaDuration" : 6,
                                                    "scalar" : 1,
                                                    "metadata" : {
                                                      "clipSpeedAttribute" : false
                                                    },
                                                    "animationTracks" : {

                                                    }
                                                  },
                                                  {
                                                    "id" : 375,
                                                    "_type" : "IMFile",
                                                    "src" : 9,
                                                    "trackNumber" : 0,
                                                    "trimStartSum" : 0,
                                                    "attributes" : {
                                                      "ident" : "wave2"
                                                    },
                                                    "parameters" : {
                                                      "translation0" : {
                                                        "type" : "double",
                                                        "defaultValue" : 0.880498533167186,
                                                        "interp" : "eioe"
                                                      },
                                                      "translation1" : {
                                                        "type" : "double",
                                                        "defaultValue" : -88.087642172052,
                                                        "interp" : "eioe"
                                                      },
                                                      "scale0" : {
                                                        "type" : "double",
                                                        "defaultValue" : 1.03068101042332,
                                                        "interp" : "eioe"
                                                      },
                                                      "scale1" : {
                                                        "type" : "double",
                                                        "defaultValue" : 1.03068101042332,
                                                        "interp" : "eioe"
                                                      }
                                                    },
                                                    "effects" : [

                                                    ],
                                                    "start" : 82,
                                                    "duration" : 6,
                                                    "mediaStart" : 0,
                                                    "mediaDuration" : 6,
                                                    "scalar" : 1,
                                                    "metadata" : {
                                                      "clipSpeedAttribute" : false
                                                    },
                                                    "animationTracks" : {

                                                    }
                                                  },
                                                  {
                                                    "id" : 376,
                                                    "_type" : "IMFile",
                                                    "src" : 10,
                                                    "trackNumber" : 0,
                                                    "trimStartSum" : 0,
                                                    "attributes" : {
                                                      "ident" : "wave3"
                                                    },
                                                    "parameters" : {
                                                      "translation0" : {
                                                        "type" : "double",
                                                        "defaultValue" : -1.11950146655987,
                                                        "interp" : "eioe"
                                                      },
                                                      "translation1" : {
                                                        "type" : "double",
                                                        "defaultValue" : 8.12143442823202,
                                                        "interp" : "eioe"
                                                      },
                                                      "scale0" : {
                                                        "type" : "double",
                                                        "defaultValue" : 1.00893326326855,
                                                        "interp" : "eioe"
                                                      },
                                                      "scale1" : {
                                                        "type" : "double",
                                                        "defaultValue" : 1.00893326326855,
                                                        "interp" : "eioe"
                                                      }
                                                    },
                                                    "effects" : [

                                                    ],
                                                    "start" : 88,
                                                    "duration" : 7,
                                                    "mediaStart" : 0,
                                                    "mediaDuration" : 7,
                                                    "scalar" : 1,
                                                    "metadata" : {
                                                      "clipSpeedAttribute" : false
                                                    },
                                                    "animationTracks" : {

                                                    }
                                                  },
                                                  {
                                                    "id" : 377,
                                                    "_type" : "IMFile",
                                                    "src" : 8,
                                                    "trackNumber" : 0,
                                                    "trimStartSum" : 0,
                                                    "attributes" : {
                                                      "ident" : "wave1"
                                                    },
                                                    "parameters" : {
                                                      "translation0" : {
                                                        "type" : "double",
                                                        "defaultValue" : -2.11950146613311,
                                                        "interp" : "eioe"
                                                      },
                                                      "translation1" : {
                                                        "type" : "double",
                                                        "defaultValue" : 8.96940103546206,
                                                        "interp" : "eioe"
                                                      },
                                                      "scale0" : {
                                                        "type" : "double",
                                                        "defaultValue" : 1.02884111169424,
                                                        "interp" : "eioe"
                                                      },
                                                      "scale1" : {
                                                        "type" : "double",
                                                        "defaultValue" : 1.02884111169424,
                                                        "interp" : "eioe"
                                                      }
                                                    },
                                                    "effects" : [

                                                    ],
                                                    "start" : 95,
                                                    "duration" : 6,
                                                    "mediaStart" : 0,
                                                    "mediaDuration" : 6,
                                                    "scalar" : 1,
                                                    "metadata" : {
                                                      "clipSpeedAttribute" : false
                                                    },
                                                    "animationTracks" : {

                                                    }
                                                  },
                                                  {
                                                    "id" : 378,
                                                    "_type" : "IMFile",
                                                    "src" : 9,
                                                    "trackNumber" : 0,
                                                    "trimStartSum" : 0,
                                                    "attributes" : {
                                                      "ident" : "wave2"
                                                    },
                                                    "parameters" : {
                                                      "translation0" : {
                                                        "type" : "double",
                                                        "defaultValue" : 0.880498533167186,
                                                        "interp" : "eioe"
                                                      },
                                                      "translation1" : {
                                                        "type" : "double",
                                                        "defaultValue" : -88.087642172052,
                                                        "interp" : "eioe"
                                                      },
                                                      "scale0" : {
                                                        "type" : "double",
                                                        "defaultValue" : 1.03068101042332,
                                                        "interp" : "eioe"
                                                      },
                                                      "scale1" : {
                                                        "type" : "double",
                                                        "defaultValue" : 1.03068101042332,
                                                        "interp" : "eioe"
                                                      }
                                                    },
                                                    "effects" : [

                                                    ],
                                                    "start" : 101,
                                                    "duration" : 6,
                                                    "mediaStart" : 0,
                                                    "mediaDuration" : 6,
                                                    "scalar" : 1,
                                                    "metadata" : {
                                                      "clipSpeedAttribute" : false
                                                    },
                                                    "animationTracks" : {

                                                    }
                                                  },
                                                  {
                                                    "id" : 379,
                                                    "_type" : "IMFile",
                                                    "src" : 10,
                                                    "trackNumber" : 0,
                                                    "trimStartSum" : 0,
                                                    "attributes" : {
                                                      "ident" : "wave3"
                                                    },
                                                    "parameters" : {
                                                      "translation0" : {
                                                        "type" : "double",
                                                        "defaultValue" : -1.11950146655987,
                                                        "interp" : "eioe"
                                                      },
                                                      "translation1" : {
                                                        "type" : "double",
                                                        "defaultValue" : 8.12143442823202,
                                                        "interp" : "eioe"
                                                      },
                                                      "scale0" : {
                                                        "type" : "double",
                                                        "defaultValue" : 1.00893326326855,
                                                        "interp" : "eioe"
                                                      },
                                                      "scale1" : {
                                                        "type" : "double",
                                                        "defaultValue" : 1.00893326326855,
                                                        "interp" : "eioe"
                                                      }
                                                    },
                                                    "effects" : [

                                                    ],
                                                    "start" : 107,
                                                    "duration" : 7,
                                                    "mediaStart" : 0,
                                                    "mediaDuration" : 7,
                                                    "scalar" : 1,
                                                    "metadata" : {
                                                      "clipSpeedAttribute" : false
                                                    },
                                                    "animationTracks" : {

                                                    }
                                                  },
                                                  {
                                                    "id" : 380,
                                                    "_type" : "IMFile",
                                                    "src" : 8,
                                                    "trackNumber" : 0,
                                                    "trimStartSum" : 0,
                                                    "attributes" : {
                                                      "ident" : "wave1"
                                                    },
                                                    "parameters" : {
                                                      "translation0" : {
                                                        "type" : "double",
                                                        "defaultValue" : -2.11950146613311,
                                                        "interp" : "eioe"
                                                      },
                                                      "translation1" : {
                                                        "type" : "double",
                                                        "defaultValue" : 8.96940103546206,
                                                        "interp" : "eioe"
                                                      },
                                                      "scale0" : {
                                                        "type" : "double",
                                                        "defaultValue" : 1.02884111169424,
                                                        "interp" : "eioe"
                                                      },
                                                      "scale1" : {
                                                        "type" : "double",
                                                        "defaultValue" : 1.02884111169424,
                                                        "interp" : "eioe"
                                                      }
                                                    },
                                                    "effects" : [

                                                    ],
                                                    "start" : 114,
                                                    "duration" : 6,
                                                    "mediaStart" : 0,
                                                    "mediaDuration" : 6,
                                                    "scalar" : 1,
                                                    "metadata" : {
                                                      "clipSpeedAttribute" : false
                                                    },
                                                    "animationTracks" : {

                                                    }
                                                  },
                                                  {
                                                    "id" : 381,
                                                    "_type" : "IMFile",
                                                    "src" : 9,
                                                    "trackNumber" : 0,
                                                    "trimStartSum" : 0,
                                                    "attributes" : {
                                                      "ident" : "wave2"
                                                    },
                                                    "parameters" : {
                                                      "translation0" : {
                                                        "type" : "double",
                                                        "defaultValue" : 0.880498533167186,
                                                        "interp" : "eioe"
                                                      },
                                                      "translation1" : {
                                                        "type" : "double",
                                                        "defaultValue" : -88.087642172052,
                                                        "interp" : "eioe"
                                                      },
                                                      "scale0" : {
                                                        "type" : "double",
                                                        "defaultValue" : 1.03068101042332,
                                                        "interp" : "eioe"
                                                      },
                                                      "scale1" : {
                                                        "type" : "double",
                                                        "defaultValue" : 1.03068101042332,
                                                        "interp" : "eioe"
                                                      }
                                                    },
                                                    "effects" : [

                                                    ],
                                                    "start" : 120,
                                                    "duration" : 6,
                                                    "mediaStart" : 0,
                                                    "mediaDuration" : 6,
                                                    "scalar" : 1,
                                                    "metadata" : {
                                                      "clipSpeedAttribute" : false
                                                    },
                                                    "animationTracks" : {

                                                    }
                                                  },
                                                  {
                                                    "id" : 382,
                                                    "_type" : "IMFile",
                                                    "src" : 10,
                                                    "trackNumber" : 0,
                                                    "trimStartSum" : 0,
                                                    "attributes" : {
                                                      "ident" : "wave3"
                                                    },
                                                    "parameters" : {
                                                      "translation0" : {
                                                        "type" : "double",
                                                        "defaultValue" : -1.11950146655987,
                                                        "interp" : "eioe"
                                                      },
                                                      "translation1" : {
                                                        "type" : "double",
                                                        "defaultValue" : 8.12143442823202,
                                                        "interp" : "eioe"
                                                      },
                                                      "scale0" : {
                                                        "type" : "double",
                                                        "defaultValue" : 1.00893326326855,
                                                        "interp" : "eioe"
                                                      },
                                                      "scale1" : {
                                                        "type" : "double",
                                                        "defaultValue" : 1.00893326326855,
                                                        "interp" : "eioe"
                                                      }
                                                    },
                                                    "effects" : [

                                                    ],
                                                    "start" : 126,
                                                    "duration" : 7,
                                                    "mediaStart" : 0,
                                                    "mediaDuration" : 7,
                                                    "scalar" : 1,
                                                    "metadata" : {
                                                      "clipSpeedAttribute" : false
                                                    },
                                                    "animationTracks" : {

                                                    }
                                                  },
                                                  {
                                                    "id" : 383,
                                                    "_type" : "IMFile",
                                                    "src" : 8,
                                                    "trackNumber" : 0,
                                                    "trimStartSum" : 0,
                                                    "attributes" : {
                                                      "ident" : "wave1"
                                                    },
                                                    "parameters" : {
                                                      "translation0" : {
                                                        "type" : "double",
                                                        "defaultValue" : -2.11950146613311,
                                                        "interp" : "eioe"
                                                      },
                                                      "translation1" : {
                                                        "type" : "double",
                                                        "defaultValue" : 8.96940103546206,
                                                        "interp" : "eioe"
                                                      },
                                                      "scale0" : {
                                                        "type" : "double",
                                                        "defaultValue" : 1.02884111169424,
                                                        "interp" : "eioe"
                                                      },
                                                      "scale1" : {
                                                        "type" : "double",
                                                        "defaultValue" : 1.02884111169424,
                                                        "interp" : "eioe"
                                                      }
                                                    },
                                                    "effects" : [

                                                    ],
                                                    "start" : 133,
                                                    "duration" : 6,
                                                    "mediaStart" : 0,
                                                    "mediaDuration" : 6,
                                                    "scalar" : 1,
                                                    "metadata" : {
                                                      "clipSpeedAttribute" : false
                                                    },
                                                    "animationTracks" : {

                                                    }
                                                  },
                                                  {
                                                    "id" : 384,
                                                    "_type" : "IMFile",
                                                    "src" : 9,
                                                    "trackNumber" : 0,
                                                    "trimStartSum" : 0,
                                                    "attributes" : {
                                                      "ident" : "wave2"
                                                    },
                                                    "parameters" : {
                                                      "translation0" : {
                                                        "type" : "double",
                                                        "defaultValue" : 0.880498533167186,
                                                        "interp" : "eioe"
                                                      },
                                                      "translation1" : {
                                                        "type" : "double",
                                                        "defaultValue" : -88.087642172052,
                                                        "interp" : "eioe"
                                                      },
                                                      "scale0" : {
                                                        "type" : "double",
                                                        "defaultValue" : 1.03068101042332,
                                                        "interp" : "eioe"
                                                      },
                                                      "scale1" : {
                                                        "type" : "double",
                                                        "defaultValue" : 1.03068101042332,
                                                        "interp" : "eioe"
                                                      }
                                                    },
                                                    "effects" : [

                                                    ],
                                                    "start" : 139,
                                                    "duration" : 6,
                                                    "mediaStart" : 0,
                                                    "mediaDuration" : 6,
                                                    "scalar" : 1,
                                                    "metadata" : {
                                                      "clipSpeedAttribute" : false
                                                    },
                                                    "animationTracks" : {

                                                    }
                                                  },
                                                  {
                                                    "id" : 385,
                                                    "_type" : "IMFile",
                                                    "src" : 10,
                                                    "trackNumber" : 0,
                                                    "trimStartSum" : 0,
                                                    "attributes" : {
                                                      "ident" : "wave3"
                                                    },
                                                    "parameters" : {
                                                      "translation0" : {
                                                        "type" : "double",
                                                        "defaultValue" : -1.11950146655987,
                                                        "interp" : "eioe"
                                                      },
                                                      "translation1" : {
                                                        "type" : "double",
                                                        "defaultValue" : 8.12143442823202,
                                                        "interp" : "eioe"
                                                      },
                                                      "scale0" : {
                                                        "type" : "double",
                                                        "defaultValue" : 1.00893326326855,
                                                        "interp" : "eioe"
                                                      },
                                                      "scale1" : {
                                                        "type" : "double",
                                                        "defaultValue" : 1.00893326326855,
                                                        "interp" : "eioe"
                                                      }
                                                    },
                                                    "effects" : [

                                                    ],
                                                    "start" : 145,
                                                    "duration" : 7,
                                                    "mediaStart" : 0,
                                                    "mediaDuration" : 7,
                                                    "scalar" : 1,
                                                    "metadata" : {
                                                      "clipSpeedAttribute" : false
                                                    },
                                                    "animationTracks" : {

                                                    }
                                                  },
                                                  {
                                                    "id" : 386,
                                                    "_type" : "IMFile",
                                                    "src" : 8,
                                                    "trackNumber" : 0,
                                                    "trimStartSum" : 0,
                                                    "attributes" : {
                                                      "ident" : "wave1"
                                                    },
                                                    "parameters" : {
                                                      "translation0" : {
                                                        "type" : "double",
                                                        "defaultValue" : -2.11950146613311,
                                                        "interp" : "eioe"
                                                      },
                                                      "translation1" : {
                                                        "type" : "double",
                                                        "defaultValue" : 8.96940103546206,
                                                        "interp" : "eioe"
                                                      },
                                                      "scale0" : {
                                                        "type" : "double",
                                                        "defaultValue" : 1.02884111169424,
                                                        "interp" : "eioe"
                                                      },
                                                      "scale1" : {
                                                        "type" : "double",
                                                        "defaultValue" : 1.02884111169424,
                                                        "interp" : "eioe"
                                                      }
                                                    },
                                                    "effects" : [

                                                    ],
                                                    "start" : 152,
                                                    "duration" : 6,
                                                    "mediaStart" : 0,
                                                    "mediaDuration" : 6,
                                                    "scalar" : 1,
                                                    "metadata" : {
                                                      "clipSpeedAttribute" : false
                                                    },
                                                    "animationTracks" : {

                                                    }
                                                  },
                                                  {
                                                    "id" : 387,
                                                    "_type" : "IMFile",
                                                    "src" : 9,
                                                    "trackNumber" : 0,
                                                    "trimStartSum" : 0,
                                                    "attributes" : {
                                                      "ident" : "wave2"
                                                    },
                                                    "parameters" : {
                                                      "translation0" : {
                                                        "type" : "double",
                                                        "defaultValue" : 0.880498533167186,
                                                        "interp" : "eioe"
                                                      },
                                                      "translation1" : {
                                                        "type" : "double",
                                                        "defaultValue" : -88.087642172052,
                                                        "interp" : "eioe"
                                                      },
                                                      "scale0" : {
                                                        "type" : "double",
                                                        "defaultValue" : 1.03068101042332,
                                                        "interp" : "eioe"
                                                      },
                                                      "scale1" : {
                                                        "type" : "double",
                                                        "defaultValue" : 1.03068101042332,
                                                        "interp" : "eioe"
                                                      }
                                                    },
                                                    "effects" : [

                                                    ],
                                                    "start" : 158,
                                                    "duration" : 6,
                                                    "mediaStart" : 0,
                                                    "mediaDuration" : 6,
                                                    "scalar" : 1,
                                                    "metadata" : {
                                                      "clipSpeedAttribute" : false
                                                    },
                                                    "animationTracks" : {

                                                    }
                                                  },
                                                  {
                                                    "id" : 388,
                                                    "_type" : "IMFile",
                                                    "src" : 10,
                                                    "trackNumber" : 0,
                                                    "trimStartSum" : 0,
                                                    "attributes" : {
                                                      "ident" : "wave3"
                                                    },
                                                    "parameters" : {
                                                      "translation0" : {
                                                        "type" : "double",
                                                        "defaultValue" : -1.11950146655987,
                                                        "interp" : "eioe"
                                                      },
                                                      "translation1" : {
                                                        "type" : "double",
                                                        "defaultValue" : 8.12143442823202,
                                                        "interp" : "eioe"
                                                      },
                                                      "scale0" : {
                                                        "type" : "double",
                                                        "defaultValue" : 1.00893326326855,
                                                        "interp" : "eioe"
                                                      },
                                                      "scale1" : {
                                                        "type" : "double",
                                                        "defaultValue" : 1.00893326326855,
                                                        "interp" : "eioe"
                                                      }
                                                    },
                                                    "effects" : [

                                                    ],
                                                    "start" : 164,
                                                    "duration" : 7,
                                                    "mediaStart" : 0,
                                                    "mediaDuration" : 7,
                                                    "scalar" : 1,
                                                    "metadata" : {
                                                      "clipSpeedAttribute" : false
                                                    },
                                                    "animationTracks" : {

                                                    }
                                                  },
                                                  {
                                                    "id" : 389,
                                                    "_type" : "IMFile",
                                                    "src" : 8,
                                                    "trackNumber" : 0,
                                                    "trimStartSum" : 0,
                                                    "attributes" : {
                                                      "ident" : "wave1"
                                                    },
                                                    "parameters" : {
                                                      "translation0" : {
                                                        "type" : "double",
                                                        "defaultValue" : -2.11950146613311,
                                                        "interp" : "eioe"
                                                      },
                                                      "translation1" : {
                                                        "type" : "double",
                                                        "defaultValue" : 8.96940103546206,
                                                        "interp" : "eioe"
                                                      },
                                                      "scale0" : {
                                                        "type" : "double",
                                                        "defaultValue" : 1.02884111169424,
                                                        "interp" : "eioe"
                                                      },
                                                      "scale1" : {
                                                        "type" : "double",
                                                        "defaultValue" : 1.02884111169424,
                                                        "interp" : "eioe"
                                                      }
                                                    },
                                                    "effects" : [

                                                    ],
                                                    "start" : 171,
                                                    "duration" : 6,
                                                    "mediaStart" : 0,
                                                    "mediaDuration" : 6,
                                                    "scalar" : 1,
                                                    "metadata" : {
                                                      "clipSpeedAttribute" : false
                                                    },
                                                    "animationTracks" : {

                                                    }
                                                  },
                                                  {
                                                    "id" : 390,
                                                    "_type" : "IMFile",
                                                    "src" : 9,
                                                    "trackNumber" : 0,
                                                    "trimStartSum" : 0,
                                                    "attributes" : {
                                                      "ident" : "wave2"
                                                    },
                                                    "parameters" : {
                                                      "translation0" : {
                                                        "type" : "double",
                                                        "defaultValue" : 0.880498533167186,
                                                        "interp" : "eioe"
                                                      },
                                                      "translation1" : {
                                                        "type" : "double",
                                                        "defaultValue" : -88.087642172052,
                                                        "interp" : "eioe"
                                                      },
                                                      "scale0" : {
                                                        "type" : "double",
                                                        "defaultValue" : 1.03068101042332,
                                                        "interp" : "eioe"
                                                      },
                                                      "scale1" : {
                                                        "type" : "double",
                                                        "defaultValue" : 1.03068101042332,
                                                        "interp" : "eioe"
                                                      }
                                                    },
                                                    "effects" : [

                                                    ],
                                                    "start" : 177,
                                                    "duration" : 6,
                                                    "mediaStart" : 0,
                                                    "mediaDuration" : 6,
                                                    "scalar" : 1,
                                                    "metadata" : {
                                                      "clipSpeedAttribute" : false
                                                    },
                                                    "animationTracks" : {

                                                    }
                                                  },
                                                  {
                                                    "id" : 391,
                                                    "_type" : "IMFile",
                                                    "src" : 10,
                                                    "trackNumber" : 0,
                                                    "trimStartSum" : 0,
                                                    "attributes" : {
                                                      "ident" : "wave3"
                                                    },
                                                    "parameters" : {
                                                      "translation0" : {
                                                        "type" : "double",
                                                        "defaultValue" : -1.11950146655987,
                                                        "interp" : "eioe"
                                                      },
                                                      "translation1" : {
                                                        "type" : "double",
                                                        "defaultValue" : 8.12143442823202,
                                                        "interp" : "eioe"
                                                      },
                                                      "scale0" : {
                                                        "type" : "double",
                                                        "defaultValue" : 1.00893326326855,
                                                        "interp" : "eioe"
                                                      },
                                                      "scale1" : {
                                                        "type" : "double",
                                                        "defaultValue" : 1.00893326326855,
                                                        "interp" : "eioe"
                                                      }
                                                    },
                                                    "effects" : [

                                                    ],
                                                    "start" : 183,
                                                    "duration" : 7,
                                                    "mediaStart" : 0,
                                                    "mediaDuration" : 7,
                                                    "scalar" : 1,
                                                    "metadata" : {
                                                      "clipSpeedAttribute" : false
                                                    },
                                                    "animationTracks" : {

                                                    }
                                                  },
                                                  {
                                                    "id" : 392,
                                                    "_type" : "IMFile",
                                                    "src" : 8,
                                                    "trackNumber" : 0,
                                                    "trimStartSum" : 0,
                                                    "attributes" : {
                                                      "ident" : "wave1"
                                                    },
                                                    "parameters" : {
                                                      "translation0" : {
                                                        "type" : "double",
                                                        "defaultValue" : -2.11950146613311,
                                                        "interp" : "eioe"
                                                      },
                                                      "translation1" : {
                                                        "type" : "double",
                                                        "defaultValue" : 8.96940103546206,
                                                        "interp" : "eioe"
                                                      },
                                                      "scale0" : {
                                                        "type" : "double",
                                                        "defaultValue" : 1.02884111169424,
                                                        "interp" : "eioe"
                                                      },
                                                      "scale1" : {
                                                        "type" : "double",
                                                        "defaultValue" : 1.02884111169424,
                                                        "interp" : "eioe"
                                                      }
                                                    },
                                                    "effects" : [

                                                    ],
                                                    "start" : 190,
                                                    "duration" : 6,
                                                    "mediaStart" : 0,
                                                    "mediaDuration" : 6,
                                                    "scalar" : 1,
                                                    "metadata" : {
                                                      "clipSpeedAttribute" : false
                                                    },
                                                    "animationTracks" : {

                                                    }
                                                  },
                                                  {
                                                    "id" : 393,
                                                    "_type" : "IMFile",
                                                    "src" : 9,
                                                    "trackNumber" : 0,
                                                    "trimStartSum" : 0,
                                                    "attributes" : {
                                                      "ident" : "wave2"
                                                    },
                                                    "parameters" : {
                                                      "translation0" : {
                                                        "type" : "double",
                                                        "defaultValue" : 0.880498533167186,
                                                        "interp" : "eioe"
                                                      },
                                                      "translation1" : {
                                                        "type" : "double",
                                                        "defaultValue" : -88.087642172052,
                                                        "interp" : "eioe"
                                                      },
                                                      "scale0" : {
                                                        "type" : "double",
                                                        "defaultValue" : 1.03068101042332,
                                                        "interp" : "eioe"
                                                      },
                                                      "scale1" : {
                                                        "type" : "double",
                                                        "defaultValue" : 1.03068101042332,
                                                        "interp" : "eioe"
                                                      }
                                                    },
                                                    "effects" : [

                                                    ],
                                                    "start" : 196,
                                                    "duration" : 4,
                                                    "mediaStart" : 0,
                                                    "mediaDuration" : 4,
                                                    "scalar" : 1,
                                                    "metadata" : {
                                                      "clipSpeedAttribute" : false
                                                    },
                                                    "animationTracks" : {

                                                    }
                                                  }
                                                ],
                                                  "ident" : "",
                                                  "audioMuted" : false,
                                                  "videoHidden" : false,
                                                  "magnetic" : false,
                                                  "matte" : 0,
                                                  "metadata" : {
                                                    "IsLocked" : "False",
                                                    "WinTrackHeight" : "0"
                                                  }
                                              },
                                              {
                                                "trackIndex" : 1,
                                                "medias" : [
                                                  {
                                                    "id" : 394,
                                                    "_type" : "IMFile",
                                                    "src" : 11,
                                                    "trackNumber" : 0,
                                                    "trimStartSum" : 0,
                                                    "attributes" : {
                                                      "ident" : "control-plane-128"
                                                    },
                                                    "parameters" : {
                                                      "translation0" : {
                                                        "type" : "double",
                                                        "defaultValue" : -785.119501466663,
                                                        "interp" : "eioe"
                                                      },
                                                      "translation1" : {
                                                        "type" : "double",
                                                        "defaultValue" : 199.818754449228,
                                                        "interp" : "eioe"
                                                      }
                                                    },
                                                    "effects" : [

                                                    ],
                                                    "start" : 0,
                                                    "duration" : 19,
                                                    "mediaStart" : 0,
                                                    "mediaDuration" : 19,
                                                    "scalar" : 1,
                                                    "metadata" : {
                                                      "clipSpeedAttribute" : false
                                                    },
                                                    "animationTracks" : {

                                                    }
                                                  },
                                                  {
                                                    "id" : 395,
                                                    "_type" : "IMFile",
                                                    "src" : 12,
                                                    "trackNumber" : 0,
                                                    "trimStartSum" : 0,
                                                    "attributes" : {
                                                      "ident" : "etcd-128"
                                                    },
                                                    "parameters" : {
                                                      "translation0" : {
                                                        "type" : "double",
                                                        "defaultValue" : -655.119501466745,
                                                        "interp" : "eioe"
                                                      },
                                                      "translation1" : {
                                                        "type" : "double",
                                                        "defaultValue" : 120.373795393553,
                                                        "interp" : "eioe"
                                                      }
                                                    },
                                                    "effects" : [

                                                    ],
                                                    "start" : 19,
                                                    "duration" : 22,
                                                    "mediaStart" : 0,
                                                    "mediaDuration" : 22,
                                                    "scalar" : 1,
                                                    "metadata" : {
                                                      "clipSpeedAttribute" : false
                                                    },
                                                    "animationTracks" : {

                                                    }
                                                  },
                                                  {
                                                    "id" : 396,
                                                    "_type" : "IMFile",
                                                    "src" : 13,
                                                    "trackNumber" : 0,
                                                    "trimStartSum" : 0,
                                                    "attributes" : {
                                                      "ident" : "node-128"
                                                    },
                                                    "parameters" : {
                                                      "translation0" : {
                                                        "type" : "double",
                                                        "defaultValue" : -315.119501466444,
                                                        "interp" : "eioe"
                                                      },
                                                      "translation1" : {
                                                        "type" : "double",
                                                        "defaultValue" : 135.818754449343,
                                                        "interp" : "eioe"
                                                      }
                                                    },
                                                    "effects" : [

                                                    ],
                                                    "start" : 41,
                                                    "duration" : 18,
                                                    "mediaStart" : 0,
                                                    "mediaDuration" : 18,
                                                    "scalar" : 1,
                                                    "metadata" : {
                                                      "clipSpeedAttribute" : false
                                                    },
                                                    "animationTracks" : {

                                                    }
                                                  },
                                                  {
                                                    "id" : 397,
                                                    "_type" : "IMFile",
                                                    "src" : 14,
                                                    "trackNumber" : 0,
                                                    "trimStartSum" : 0,
                                                    "attributes" : {
                                                      "ident" : "ns-128"
                                                    },
                                                    "parameters" : {
                                                      "translation0" : {
                                                        "type" : "double",
                                                        "defaultValue" : -345.11950146672,
                                                        "interp" : "eioe"
                                                      },
                                                      "translation1" : {
                                                        "type" : "double",
                                                        "defaultValue" : 158.121434428201,
                                                        "interp" : "eioe"
                                                      }
                                                    },
                                                    "effects" : [

                                                    ],
                                                    "start" : 59,
                                                    "duration" : 23,
                                                    "mediaStart" : 0,
                                                    "mediaDuration" : 23,
                                                    "scalar" : 1,
                                                    "metadata" : {
                                                      "clipSpeedAttribute" : false
                                                    },
                                                    "animationTracks" : {

                                                    }
                                                  },
                                                  {
                                                    "id" : 398,
                                                    "_type" : "IMFile",
                                                    "src" : 15,
                                                    "trackNumber" : 0,
                                                    "trimStartSum" : 0,
                                                    "attributes" : {
                                                      "ident" : "pod-128"
                                                    },
                                                    "parameters" : {
                                                      "translation0" : {
                                                        "type" : "double",
                                                        "defaultValue" : -91.1195014666742,
                                                        "interp" : "eioe"
                                                      },
                                                      "translation1" : {
                                                        "type" : "double",
                                                        "defaultValue" : 100.121434428219,
                                                        "interp" : "eioe"
                                                      }
                                                    },
                                                    "effects" : [

                                                    ],
                                                    "start" : 82,
                                                    "duration" : 16,
                                                    "mediaStart" : 0,
                                                    "mediaDuration" : 16,
                                                    "scalar" : 1,
                                                    "metadata" : {
                                                      "clipSpeedAttribute" : false
                                                    },
                                                    "animationTracks" : {

                                                    }
                                                  },
                                                  {
                                                    "id" : 399,
                                                    "_type" : "IMFile",
                                                    "src" : 16,
                                                    "trackNumber" : 0,
                                                    "trimStartSum" : 0,
                                                    "attributes" : {
                                                      "ident" : "secret-128"
                                                    },
                                                    "parameters" : {
                                                      "translation0" : {
                                                        "type" : "double",
                                                        "defaultValue" : -1.11950146666447,
                                                        "interp" : "eioe"
                                                      },
                                                      "translation1" : {
                                                        "type" : "double",
                                                        "defaultValue" : 140.121434428194,
                                                        "interp" : "eioe"
                                                      }
                                                    },
                                                    "effects" : [

                                                    ],
                                                    "start" : 98,
                                                    "duration" : 17,
                                                    "mediaStart" : 0,
                                                    "mediaDuration" : 17,
                                                    "scalar" : 1,
                                                    "metadata" : {
                                                      "clipSpeedAttribute" : false
                                                    },
                                                    "animationTracks" : {

                                                    }
                                                  },
                                                  {
                                                    "id" : 400,
                                                    "_type" : "IMFile",
                                                    "src" : 17,
                                                    "trackNumber" : 0,
                                                    "trimStartSum" : 0,
                                                    "attributes" : {
                                                      "ident" : "svc-128"
                                                    },
                                                    "parameters" : {
                                                      "translation0" : {
                                                        "type" : "double",
                                                        "defaultValue" : 258.880498533338,
                                                        "interp" : "eioe"
                                                      },
                                                      "translation1" : {
                                                        "type" : "double",
                                                        "defaultValue" : 112.121434428216,
                                                        "interp" : "eioe"
                                                      }
                                                    },
                                                    "effects" : [

                                                    ],
                                                    "start" : 115,
                                                    "duration" : 14,
                                                    "mediaStart" : 0,
                                                    "mediaDuration" : 14,
                                                    "scalar" : 1,
                                                    "metadata" : {
                                                      "clipSpeedAttribute" : false
                                                    },
                                                    "animationTracks" : {

                                                    }
                                                  },
                                                  {
                                                    "id" : 401,
                                                    "_type" : "IMFile",
                                                    "src" : 17,
                                                    "trackNumber" : 0,
                                                    "trimStartSum" : 0,
                                                    "attributes" : {
                                                      "ident" : "svc-128"
                                                    },
                                                    "parameters" : {
                                                      "translation0" : {
                                                        "type" : "double",
                                                        "defaultValue" : 346.880498533407,
                                                        "interp" : "eioe"
                                                      },
                                                      "translation1" : {
                                                        "type" : "double",
                                                        "defaultValue" : 120.121434428205,
                                                        "interp" : "eioe"
                                                      }
                                                    },
                                                    "effects" : [

                                                    ],
                                                    "start" : 129,
                                                    "duration" : 14,
                                                    "mediaStart" : 0,
                                                    "mediaDuration" : 14,
                                                    "scalar" : 1,
                                                    "metadata" : {
                                                      "clipSpeedAttribute" : false
                                                    },
                                                    "animationTracks" : {

                                                    }
                                                  },
                                                  {
                                                    "id" : 402,
                                                    "_type" : "IMFile",
                                                    "src" : 18,
                                                    "trackNumber" : 0,
                                                    "trimStartSum" : 0,
                                                    "attributes" : {
                                                      "ident" : "rs-128"
                                                    },
                                                    "parameters" : {
                                                      "translation0" : {
                                                        "type" : "double",
                                                        "defaultValue" : 480.880498533387,
                                                        "interp" : "eioe"
                                                      },
                                                      "translation1" : {
                                                        "type" : "double",
                                                        "defaultValue" : 158.1214344282,
                                                        "interp" : "eioe"
                                                      }
                                                    },
                                                    "effects" : [

                                                    ],
                                                    "start" : 143,
                                                    "duration" : 13,
                                                    "mediaStart" : 0,
                                                    "mediaDuration" : 13,
                                                    "scalar" : 1,
                                                    "metadata" : {
                                                      "clipSpeedAttribute" : false
                                                    },
                                                    "animationTracks" : {

                                                    }
                                                  },
                                                  {
                                                    "id" : 403,
                                                    "_type" : "IMFile",
                                                    "src" : 19,
                                                    "trackNumber" : 0,
                                                    "trimStartSum" : 0,
                                                    "attributes" : {
                                                      "ident" : "vol-128"
                                                    },
                                                    "parameters" : {
                                                      "translation0" : {
                                                        "type" : "double",
                                                        "defaultValue" : 560.880498533409,
                                                        "interp" : "eioe"
                                                      },
                                                      "translation1" : {
                                                        "type" : "double",
                                                        "defaultValue" : 136.121434428193,
                                                        "interp" : "eioe"
                                                      }
                                                    },
                                                    "effects" : [

                                                    ],
                                                    "start" : 156,
                                                    "duration" : 14,
                                                    "mediaStart" : 0,
                                                    "mediaDuration" : 14,
                                                    "scalar" : 1,
                                                    "metadata" : {
                                                      "clipSpeedAttribute" : false
                                                    },
                                                    "animationTracks" : {

                                                    }
                                                  },
                                                  {
                                                    "id" : 404,
                                                    "_type" : "IMFile",
                                                    "src" : 20,
                                                    "trackNumber" : 0,
                                                    "trimStartSum" : 0,
                                                    "attributes" : {
                                                      "ident" : "deploy-128"
                                                    },
                                                    "parameters" : {
                                                      "translation0" : {
                                                        "type" : "double",
                                                        "defaultValue" : 716.880498533367,
                                                        "interp" : "eioe"
                                                      },
                                                      "translation1" : {
                                                        "type" : "double",
                                                        "defaultValue" : 84.1214344281821,
                                                        "interp" : "eioe"
                                                      }
                                                    },
                                                    "effects" : [

                                                    ],
                                                    "start" : 170,
                                                    "duration" : 13,
                                                    "mediaStart" : 0,
                                                    "mediaDuration" : 13,
                                                    "scalar" : 1,
                                                    "metadata" : {
                                                      "clipSpeedAttribute" : false
                                                    },
                                                    "animationTracks" : {

                                                    }
                                                  },
                                                  {
                                                    "id" : 405,
                                                    "_type" : "IMFile",
                                                    "src" : 21,
                                                    "trackNumber" : 0,
                                                    "trimStartSum" : 0,
                                                    "attributes" : {
                                                      "ident" : "cronjob-128"
                                                    },
                                                    "parameters" : {
                                                      "translation0" : {
                                                        "type" : "double",
                                                        "defaultValue" : 870.880498533812,
                                                        "interp" : "eioe"
                                                      },
                                                      "translation1" : {
                                                        "type" : "double",
                                                        "defaultValue" : 135.81875444932,
                                                        "interp" : "eioe"
                                                      }
                                                    },
                                                    "effects" : [

                                                    ],
                                                    "start" : 183,
                                                    "duration" : 17,
                                                    "mediaStart" : 0,
                                                    "mediaDuration" : 17,
                                                    "scalar" : 1,
                                                    "metadata" : {
                                                      "clipSpeedAttribute" : false
                                                    },
                                                    "animationTracks" : {

                                                    }
                                                  }
                                                ],
                                                  "ident" : "",
                                                  "audioMuted" : false,
                                                  "videoHidden" : false,
                                                  "magnetic" : false,
                                                  "matte" : 0,
                                                  "metadata" : {
                                                    "IsLocked" : "False",
                                                    "WinTrackHeight" : "3.6077993365582e-314"
                                                  }
                                              }
                                            ],
                                            "attributes" : {
                                              "ident" : "Group 1",
                                              "gain" : 1.0,
                                              "mixToMono" : false
                                            },
                                            "effects" : [

                                            ],
                                            "start" : 0,
                                            "duration" : 200,
                                            "mediaStart" : 0.0,
                                            "mediaDuration" : 200.0,
                                            "scalar" : 1,
                                            "metadata" : {
                                              "IsGroupExpanded" : "False"
                                            },
                                            "animationTracks" : {

                                            }
                                          }
                                        ],
                                          "ident" : "",
                                          "audioMuted" : false,
                                          "videoHidden" : false,
                                          "magnetic" : false,
                                          "matte" : 0,
                                          "metadata" : {
                                            "IsLocked" : "False",
                                            "WinTrackHeight" : "0"
                                          }
                                      },
                                      {
                                        "trackIndex" : 1,
                                        "medias" : [
                                          {
                                            "id" : 406,
                                            "_type" : "IMFile",
                                            "src" : 22,
                                            "trackNumber" : 0,
                                            "trimStartSum" : 0,
                                            "attributes" : {
                                              "ident" : "k8sfavicon"
                                            },
                                            "parameters" : {
                                              "translation0" : {
                                                "type" : "double",
                                                "defaultValue" : -822.559750733209,
                                                "interp" : "eioe"
                                              },
                                              "translation1" : {
                                                "type" : "double",
                                                "defaultValue" : 466.970094438544,
                                                "interp" : "eioe"
                                              },
                                              "scale0" : {
                                                "type" : "double",
                                                "defaultValue" : 0.335937500000757,
                                                "interp" : "eioe"
                                              },
                                              "scale1" : {
                                                "type" : "double",
                                                "defaultValue" : 0.335937500000757,
                                                "interp" : "eioe"
                                              }
                                            },
                                            "effects" : [

                                            ],
                                            "start" : 0,
                                            "duration" : 200,
                                            "mediaStart" : 0,
                                            "mediaDuration" : 200,
                                            "scalar" : 1,
                                            "metadata" : {
                                              "clipSpeedAttribute" : false
                                            },
                                            "animationTracks" : {

                                            }
                                          }
                                        ],
                                          "ident" : "",
                                          "audioMuted" : false,
                                          "videoHidden" : false,
                                          "magnetic" : false,
                                          "matte" : 0,
                                          "metadata" : {
                                            "IsLocked" : "False",
                                            "WinTrackHeight" : "3.6077993365582e-314"
                                          }
                                      }
                                    ],
                                    "attributes" : {
                                      "ident" : "Group 2",
                                      "gain" : 1.0,
                                      "mixToMono" : false
                                    },
                                    "effects" : [

                                    ],
                                    "start" : 0,
                                    "duration" : 200,
                                    "mediaStart" : 0.0,
                                    "mediaDuration" : 200.0,
                                    "scalar" : 1,
                                    "metadata" : {
                                      "IsGroupExpanded" : "False"
                                    },
                                    "animationTracks" : {

                                    }
                                  }
                                ],
                                  "ident" : "",
                                  "audioMuted" : false,
                                  "videoHidden" : false,
                                  "magnetic" : false,
                                  "matte" : 0,
                                  "metadata" : {
                                    "IsLocked" : "False",
                                    "WinTrackHeight" : "0"
                                  }
                              },
                              {
                                "trackIndex" : 1,
                                "medias" : [
                                  {
                                    "id" : 407,
                                    "_type" : "AMFile",
                                    "src" : 23,
                                    "trackNumber" : 0,
                                    "attributes" : {
                                      "ident" : "wave",
                                      "gain" : 1.0,
                                      "mixToMono" : false
                                    },
                                      "channelNumber" : "0,1",
                                    "parameters" : {
                                      "volume" : {
                                        "type" : "double",
                                        "keyframes" : [
                                          {
                                            "endTime" : -1,
                                            "time" : -1,
                                            "value" : 1.0,
                                            "duration" : 0
                                          },
                                          {
                                            "endTime" : 0,
                                            "time" : 0,
                                            "value" : 0.0,
                                            "duration" : 0
                                          },
                                          {
                                            "endTime" : 51,
                                            "time" : 51,
                                            "value" : 0.5,
                                            "duration" : 0
                                          }
                                        ]
                                      }
                                    },
                                    "effects" : [

                                    ],
                                    "start" : 0,
                                    "duration" : 103,
                                    "mediaStart" : 0,
                                    "mediaDuration" : 103,
                                    "scalar" : 1,
                                    "metadata" : {
                                      "clipSpeedAttribute" : false
                                    },
                                    "animationTracks" : {

                                    }
                                  },
                                  {
                                    "id" : 408,
                                    "_type" : "AMFile",
                                    "src" : 23,
                                    "trackNumber" : 0,
                                    "attributes" : {
                                      "ident" : "wave",
                                      "gain" : 1.0,
                                      "mixToMono" : false
                                    },
                                      "channelNumber" : "0,1",
                                    "parameters" : {
                                      "volume" : {
                                        "type" : "double",
                                        "keyframes" : [
                                          {
                                            "endTime" : 0,
                                            "time" : 0,
                                            "value" : 0.823930776854464,
                                            "duration" : 0
                                          },
                                          {
                                            "endTime" : 115,
                                            "time" : 115,
                                            "value" : 0.400853853777541,
                                            "duration" : 0
                                          },
                                          {
                                            "endTime" : 200,
                                            "time" : 200,
                                            "value" : 0.0,
                                            "duration" : 0
                                          },
                                          {
                                            "endTime" : 201,
                                            "time" : 201,
                                            "value" : 1.0,
                                            "duration" : 0
                                          }
                                        ]
                                      }
                                    },
                                    "effects" : [

                                    ],
                                    "start" : 103,
                                    "duration" : 97,
                                    "mediaStart" : 103,
                                    "mediaDuration" : 97,
                                    "scalar" : 1,
                                    "metadata" : {
                                      "clipSpeedAttribute" : false
                                    },
                                    "animationTracks" : {

                                    }
                                  }
                                ],
                                  "ident" : "",
                                  "audioMuted" : false,
                                  "videoHidden" : false,
                                  "magnetic" : false,
                                  "matte" : 0,
                                  "metadata" : {
                                    "IsLocked" : "False",
                                    "WinTrackHeight" : "2.26715762571713e-312"
                                  }
                              }
                            ],
                            "attributes" : {
                              "ident" : "Group 1",
                              "gain" : 1.0,
                              "mixToMono" : false
                            },
                            "effects" : [

                            ],
                            "start" : 0,
                            "duration" : 200,
                            "mediaStart" : 0.0,
                            "mediaDuration" : 200.0,
                            "scalar" : 1,
                            "metadata" : {
                              "IsGroupExpanded" : "False"
                            },
                            "animationTracks" : {

                            }
                          }
                        ],
                          "ident" : "",
                          "audioMuted" : false,
                          "videoHidden" : false,
                          "magnetic" : false,
                          "matte" : 0,
                          "metadata" : {
                            "IsLocked" : "False",
                            "WinTrackHeight" : "5.19772911896728e-312"
                          }
                      }
                    ],
                    "attributes" : {
                      "ident" : "start",
                      "gain" : 1.0,
                      "mixToMono" : false
                    },
                    "effects" : [

                    ],
                    "start" : 0,
                    "duration" : 200,
                    "mediaStart" : 0.0,
                    "mediaDuration" : 200.0,
                    "scalar" : 1,
                    "metadata" : {
                      "IsGroupExpanded" : "True"
                    },
                    "animationTracks" : {

                    }
                  },
                  {
                    "id" : 409,
                    "_type" : "Group",
                    "parameters" : {
                      "volume" : 1.0
                    },
                    "tracks" : [
                      {
                        "trackIndex" : 0,
                        "medias" : [
                          {
                            "id" : 410,
                            "_type" : "Callout",
                            "def" : {
                              "kind" : "remix",
                              "shape" : "text",
                              "style" : "basic",
                              "height" : {
                                "type" : "double",
                                "defaultValue" : 294.0,
                                "interp" : "linr"
                              },
                              "line-spacing" : {
                                "type" : "double",
                                "defaultValue" : 0.0,
                                "interp" : "linr"
                              },
                              "width" : {
                                "type" : "double",
                                "defaultValue" : 1174.38904109587,
                                "interp" : "linr"
                              },
                              "word-wrap" : {
                                "type" : "double",
                                "defaultValue" : 1.0,
                                "interp" : "linr"
                              },
                              "horizontal-alignment" : "center",
                              "resize-behavior" : "resizeText",
                              "text" : "Thanks",
                              "vertical-alignment" : "center",
                              "font" : {
                                "color-blue" : {
                                  "type" : "double",
                                  "defaultValue" : 1.0,
                                  "interp" : "linr"
                                },
                                "color-green" : {
                                  "type" : "double",
                                  "defaultValue" : 1.0,
                                  "interp" : "linr"
                                },
                                "color-red" : {
                                  "type" : "double",
                                  "defaultValue" : 1.0,
                                  "interp" : "linr"
                                },
                                "size" : {
                                  "type" : "double",
                                  "defaultValue" : 96.0,
                                  "interp" : "linr"
                                },
                                "tracking" : {
                                  "type" : "double",
                                  "defaultValue" : 0.0,
                                  "interp" : "linr"
                                },
                                "name" : "Montserrat",
                                "weight" : "Regular"
                              },
                              "textAttributes" : {
                                "type" : "textAttributeList",
                                "keyframes" : [
                                  {
                                    "endTime" : 0,
                                    "time" : 0,
                                    "value" : [{"name":"fontWeight","rangeEnd":6,"rangeStart":0,"value":700,"valueType":"int"},{"name":"fontName","rangeEnd":6,"rangeStart":0,"value":"Montserrat","valueType":"string"},{"name":"fontItalic","rangeEnd":6,"rangeStart":0,"value":0,"valueType":"int"},{"name":"kerning","rangeEnd":6,"rangeStart":0,"value":0,"valueType":"double"},{"name":"strikethrough","rangeEnd":6,"rangeStart":0,"value":0,"valueType":"int"},{"name":"fgColor","rangeEnd":6,"rangeStart":0,"value":"(50,108,229,255)","valueType":"color"},{"name":"underline","rangeEnd":6,"rangeStart":0,"value":0,"valueType":"int"},{"name":"fontSize","rangeEnd":6,"rangeStart":0,"value":240,"valueType":"double"}],
                                    "duration" : 0
                                  }
                                ]
                              }
                            },
                            "attributes" : {
                              "autoRotateText" : true
                            },
                            "parameters" : {
                              "translation0" : {
                                "type" : "double",
                                "defaultValue" : -22.4178082191042,
                                "interp" : "eioe"
                              },
                              "translation1" : {
                                "type" : "double",
                                "defaultValue" : 1.319122588261e-11,
                                "interp" : "eioe"
                              }
                            },
                            "effects" : [
                                {
                                  "_type" : "GenericBehaviorEffect",
                                  "effectName" : "pulsating",
                                  "start" : -102,
                                  "duration" : 200                                ,
                                  "in" : {
                                    "attributes" : {
                                      "name" : "grow",
                                      "type" : 1,
                                      "characterOrder" : 6,
                                      "offsetBetweenCharacters" : 1,
                                      "suggestedDurationPerCharacter" : 18,
                                      "overlapProportion" : "3/4",
                                      "movement" : 30,
                                      "springDamping" : 5.0,
                                      "springStiffness" : 50.0,
                                      "bounceBounciness" : 0.45
                                    }
                                  
                                  },
                                  "center" : {
                                    "attributes" : {
                                      "name" : "pulsate",
                                      "type" : 1,
                                      "characterOrder" : 6,
                                      "offsetBetweenCharacters" : "21/10",
                                      "secondsPerLoop" : 1,
                                      "numberOfLoops" : -1,
                                      "delayBetweenLoops" : 0,
                                      "offsetBetweenCharacters" : "21/10"
                                    },
                                    "parameters" : {
                                      "movement" : {
                                        "type" : "int",
                                        "valueBounds" : {
                                          "minValue" : 0,
                                          "maxValue" : 31,
                                          "defaultValue" : 27
                                        },
                                        "uiHints" : {
                                          "userInterfaceType" : 4,
                                          "unitType" : 0
                                        },
                                        "keyframes" : [
                                          {
                                            "endTime" : 0,
                                            "time" : 0,
                                            "value" : 27,
                                            "duration" : 0
                                          }
                                        ]
                                      },
                                      "scale" : {
                                        "type" : "double",
                                        "defaultValue" : 1.08,
                                        "interp" : "linr",
                                        "valueBounds" : {
                                          "minValue" : 0.01,
                                          "maxValue" : 2.0,
                                          "defaultValue" : 1.08
                                        },
                                        "uiHints" : {
                                          "userInterfaceType" : 1,
                                          "unitType" : 1
                                        }
                                      }
                                    }
                                  
                                  },
                                  "out" : {
                                    "attributes" : {
                                      "name" : "shrink",
                                      "type" : 1,
                                      "characterOrder" : 6,
                                      "offsetBetweenCharacters" : 1,
                                      "suggestedDurationPerCharacter" : "29/2",
                                      "overlapProportion" : "1/10",
                                      "movement" : 11,
                                      "springDamping" : 5.0,
                                      "springStiffness" : 50.0,
                                      "bounceBounciness" : 0.45
                                    }
                                  
                                  }
                                }
                            ],
                            "start" : 0,
                            "duration" : 103,
                            "mediaStart" : -102,
                            "mediaDuration" : 103,
                            "scalar" : 1,
                            "metadata" : {
                              "clipSpeedAttribute" : false
                            },
                            "animationTracks" : {

                            }
                          },
                          {
                            "id" : 411,
                            "_type" : "Callout",
                            "def" : {
                              "kind" : "remix",
                              "shape" : "text",
                              "style" : "basic",
                              "height" : {
                                "type" : "double",
                                "defaultValue" : 294.0,
                                "interp" : "linr"
                              },
                              "line-spacing" : {
                                "type" : "double",
                                "defaultValue" : 0.0,
                                "interp" : "linr"
                              },
                              "width" : {
                                "type" : "double",
                                "defaultValue" : 1174.38904109587,
                                "interp" : "linr"
                              },
                              "word-wrap" : {
                                "type" : "double",
                                "defaultValue" : 1.0,
                                "interp" : "linr"
                              },
                              "horizontal-alignment" : "center",
                              "resize-behavior" : "resizeText",
                              "text" : "Thanks",
                              "vertical-alignment" : "center",
                              "font" : {
                                "color-blue" : {
                                  "type" : "double",
                                  "defaultValue" : 1.0,
                                  "interp" : "linr"
                                },
                                "color-green" : {
                                  "type" : "double",
                                  "defaultValue" : 1.0,
                                  "interp" : "linr"
                                },
                                "color-red" : {
                                  "type" : "double",
                                  "defaultValue" : 1.0,
                                  "interp" : "linr"
                                },
                                "size" : {
                                  "type" : "double",
                                  "defaultValue" : 96.0,
                                  "interp" : "linr"
                                },
                                "tracking" : {
                                  "type" : "double",
                                  "defaultValue" : 0.0,
                                  "interp" : "linr"
                                },
                                "name" : "Montserrat",
                                "weight" : "Regular"
                              },
                              "textAttributes" : {
                                "type" : "textAttributeList",
                                "keyframes" : [
                                  {
                                    "endTime" : 0,
                                    "time" : 0,
                                    "value" : [{"name":"fontName","rangeEnd":6,"rangeStart":0,"value":"Montserrat","valueType":"string"},{"name":"kerning","rangeEnd":6,"rangeStart":0,"value":0,"valueType":"double"},{"name":"strikethrough","rangeEnd":6,"rangeStart":0,"value":0,"valueType":"int"},{"name":"fontSize","rangeEnd":6,"rangeStart":0,"value":240,"valueType":"double"},{"name":"fontItalic","rangeEnd":6,"rangeStart":0,"value":0,"valueType":"int"},{"name":"fontWeight","rangeEnd":6,"rangeStart":0,"value":700,"valueType":"int"},{"name":"fgColor","rangeEnd":6,"rangeStart":0,"value":"(50,108,229,255)","valueType":"color"},{"name":"underline","rangeEnd":6,"rangeStart":0,"value":0,"valueType":"int"}],
                                    "duration" : 0
                                  }
                                ]
                              }
                            },
                            "attributes" : {
                              "autoRotateText" : true
                            },
                            "parameters" : {
                              "translation0" : {
                                "type" : "double",
                                "defaultValue" : -74.4178082188969,
                                "interp" : "eioe"
                              },
                              "translation1" : {
                                "type" : "double",
                                "defaultValue" : 4.13429290734252e-11,
                                "interp" : "eioe"
                              }
                            },
                            "effects" : [
                                {
                                  "_type" : "GenericBehaviorEffect",
                                  "effectName" : "pulsating",
                                  "start" : -102,
                                  "duration" : 200                                ,
                                  "in" : {
                                    "attributes" : {
                                      "name" : "grow",
                                      "type" : 1,
                                      "characterOrder" : 6,
                                      "offsetBetweenCharacters" : 1,
                                      "suggestedDurationPerCharacter" : 18,
                                      "overlapProportion" : "3/4",
                                      "movement" : 30,
                                      "springDamping" : 5.0,
                                      "springStiffness" : 50.0,
                                      "bounceBounciness" : 0.45
                                    }
                                  
                                  },
                                  "center" : {
                                    "attributes" : {
                                      "name" : "pulsate",
                                      "type" : 1,
                                      "characterOrder" : 6,
                                      "offsetBetweenCharacters" : "21/10",
                                      "secondsPerLoop" : 1,
                                      "numberOfLoops" : -1,
                                      "delayBetweenLoops" : 0,
                                      "offsetBetweenCharacters" : "21/10"
                                    },
                                    "parameters" : {
                                      "movement" : {
                                        "type" : "int",
                                        "valueBounds" : {
                                          "minValue" : 0,
                                          "maxValue" : 31,
                                          "defaultValue" : 27
                                        },
                                        "uiHints" : {
                                          "userInterfaceType" : 4,
                                          "unitType" : 0
                                        },
                                        "keyframes" : [
                                          {
                                            "endTime" : 0,
                                            "time" : 0,
                                            "value" : 27,
                                            "duration" : 0
                                          }
                                        ]
                                      },
                                      "scale" : {
                                        "type" : "double",
                                        "defaultValue" : 1.08,
                                        "interp" : "linr",
                                        "valueBounds" : {
                                          "minValue" : 0.01,
                                          "maxValue" : 2.0,
                                          "defaultValue" : 1.08
                                        },
                                        "uiHints" : {
                                          "userInterfaceType" : 1,
                                          "unitType" : 1
                                        }
                                      }
                                    }
                                  
                                  },
                                  "out" : {
                                    "attributes" : {
                                      "name" : "shrink",
                                      "type" : 1,
                                      "characterOrder" : 6,
                                      "offsetBetweenCharacters" : 1,
                                      "suggestedDurationPerCharacter" : "29/2",
                                      "overlapProportion" : "1/10",
                                      "movement" : 11,
                                      "springDamping" : 5.0,
                                      "springStiffness" : 50.0,
                                      "bounceBounciness" : 0.45
                                    }
                                  
                                  }
                                }
                            ],
                            "start" : 103,
                            "duration" : 97,
                            "mediaStart" : 1,
                            "mediaDuration" : 97,
                            "scalar" : 1,
                            "metadata" : {
                              "clipSpeedAttribute" : false
                            },
                            "animationTracks" : {

                            }
                          }
                        ],
                          "ident" : "",
                          "audioMuted" : false,
                          "videoHidden" : false,
                          "magnetic" : false,
                          "matte" : 0,
                          "metadata" : {
                            "IsLocked" : "False",
                            "WinTrackHeight" : "0"
                          }
                      },
                      {
                        "trackIndex" : 1,
                        "medias" : [
                          {
                            "id" : 412,
                            "_type" : "Group",
                            "parameters" : {
                              "translation0" : {
                                "type" : "double",
                                "defaultValue" : 0.559750733332294,
                                "interp" : "eioe"
                              },
                              "translation1" : {
                                "type" : "double",
                                "defaultValue" : -34.4850472193567,
                                "interp" : "eioe"
                              },
                              "volume" : 1.0
                            },
                            "tracks" : [
                              {
                                "trackIndex" : 0,
                                "medias" : [
                                  {
                                    "id" : 413,
                                    "_type" : "Group",
                                    "parameters" : {
                                      "translation0" : {
                                        "type" : "double",
                                        "defaultValue" : 4.44089209850063e-16,
                                        "interp" : "eioe"
                                      },
                                      "translation1" : {
                                        "type" : "double",
                                        "defaultValue" : -34.4850472193565,
                                        "interp" : "eioe"
                                      },
                                      "volume" : 1.0
                                    },
                                    "tracks" : [
                                      {
                                        "trackIndex" : 0,
                                        "medias" : [
                                          {
                                            "id" : 414,
                                            "_type" : "Group",
                                            "parameters" : {
                                              "translation0" : {
                                                "type" : "double",
                                                "defaultValue" : 0.55975073333218,
                                                "interp" : "eioe"
                                              },
                                              "translation1" : {
                                                "type" : "double",
                                                "defaultValue" : -289.15133998951,
                                                "interp" : "eioe"
                                              },
                                              "volume" : 1.0
                                            },
                                            "tracks" : [
                                              {
                                                "trackIndex" : 0,
                                                "medias" : [
                                                  {
                                                    "id" : 415,
                                                    "_type" : "IMFile",
                                                    "src" : 24,
                                                    "trackNumber" : 0,
                                                    "trimStartSum" : 0,
                                                    "attributes" : {
                                                      "ident" : "wave1"
                                                    },
                                                    "parameters" : {
                                                      "translation0" : {
                                                        "type" : "double",
                                                        "defaultValue" : -2.11950146613311,
                                                        "interp" : "eioe"
                                                      },
                                                      "translation1" : {
                                                        "type" : "double",
                                                        "defaultValue" : 8.96940103546206,
                                                        "interp" : "eioe"
                                                      },
                                                      "scale0" : {
                                                        "type" : "double",
                                                        "defaultValue" : 1.02884111169424,
                                                        "interp" : "eioe"
                                                      },
                                                      "scale1" : {
                                                        "type" : "double",
                                                        "defaultValue" : 1.02884111169424,
                                                        "interp" : "eioe"
                                                      }
                                                    },
                                                    "effects" : [

                                                    ],
                                                    "start" : 0,
                                                    "duration" : 6,
                                                    "mediaStart" : 0,
                                                    "mediaDuration" : 1,
                                                    "scalar" : 1,
                                                    "metadata" : {
                                                      "clipSpeedAttribute" : false
                                                    },
                                                    "animationTracks" : {

                                                    }
                                                  },
                                                  {
                                                    "id" : 416,
                                                    "_type" : "IMFile",
                                                    "src" : 25,
                                                    "trackNumber" : 0,
                                                    "trimStartSum" : 0,
                                                    "attributes" : {
                                                      "ident" : "wave2"
                                                    },
                                                    "parameters" : {
                                                      "translation0" : {
                                                        "type" : "double",
                                                        "defaultValue" : 0.880498533167186,
                                                        "interp" : "eioe"
                                                      },
                                                      "translation1" : {
                                                        "type" : "double",
                                                        "defaultValue" : -88.087642172052,
                                                        "interp" : "eioe"
                                                      },
                                                      "scale0" : {
                                                        "type" : "double",
                                                        "defaultValue" : 1.03068101042332,
                                                        "interp" : "eioe"
                                                      },
                                                      "scale1" : {
                                                        "type" : "double",
                                                        "defaultValue" : 1.03068101042332,
                                                        "interp" : "eioe"
                                                      }
                                                    },
                                                    "effects" : [

                                                    ],
                                                    "start" : 6,
                                                    "duration" : 6,
                                                    "mediaStart" : 0,
                                                    "mediaDuration" : 1,
                                                    "scalar" : 1,
                                                    "metadata" : {
                                                      "clipSpeedAttribute" : false
                                                    },
                                                    "animationTracks" : {

                                                    }
                                                  },
                                                  {
                                                    "id" : 417,
                                                    "_type" : "IMFile",
                                                    "src" : 26,
                                                    "trackNumber" : 0,
                                                    "trimStartSum" : 0,
                                                    "attributes" : {
                                                      "ident" : "wave3"
                                                    },
                                                    "parameters" : {
                                                      "translation0" : {
                                                        "type" : "double",
                                                        "defaultValue" : -1.11950146655987,
                                                        "interp" : "eioe"
                                                      },
                                                      "translation1" : {
                                                        "type" : "double",
                                                        "defaultValue" : 8.12143442823202,
                                                        "interp" : "eioe"
                                                      },
                                                      "scale0" : {
                                                        "type" : "double",
                                                        "defaultValue" : 1.00893326326855,
                                                        "interp" : "eioe"
                                                      },
                                                      "scale1" : {
                                                        "type" : "double",
                                                        "defaultValue" : 1.00893326326855,
                                                        "interp" : "eioe"
                                                      }
                                                    },
                                                    "effects" : [

                                                    ],
                                                    "start" : 12,
                                                    "duration" : 7,
                                                    "mediaStart" : 0,
                                                    "mediaDuration" : 1,
                                                    "scalar" : 1,
                                                    "metadata" : {
                                                      "clipSpeedAttribute" : false
                                                    },
                                                    "animationTracks" : {

                                                    }
                                                  },
                                                  {
                                                    "id" : 418,
                                                    "_type" : "IMFile",
                                                    "src" : 24,
                                                    "trackNumber" : 0,
                                                    "trimStartSum" : 0,
                                                    "attributes" : {
                                                      "ident" : "wave1"
                                                    },
                                                    "parameters" : {
                                                      "translation0" : {
                                                        "type" : "double",
                                                        "defaultValue" : -2.11950146613311,
                                                        "interp" : "eioe"
                                                      },
                                                      "translation1" : {
                                                        "type" : "double",
                                                        "defaultValue" : 8.96940103546206,
                                                        "interp" : "eioe"
                                                      },
                                                      "scale0" : {
                                                        "type" : "double",
                                                        "defaultValue" : 1.02884111169424,
                                                        "interp" : "eioe"
                                                      },
                                                      "scale1" : {
                                                        "type" : "double",
                                                        "defaultValue" : 1.02884111169424,
                                                        "interp" : "eioe"
                                                      }
                                                    },
                                                    "effects" : [

                                                    ],
                                                    "start" : 19,
                                                    "duration" : 6,
                                                    "mediaStart" : 0,
                                                    "mediaDuration" : 1,
                                                    "scalar" : 1,
                                                    "metadata" : {
                                                      "clipSpeedAttribute" : false
                                                    },
                                                    "animationTracks" : {

                                                    }
                                                  },
                                                  {
                                                    "id" : 419,
                                                    "_type" : "IMFile",
                                                    "src" : 25,
                                                    "trackNumber" : 0,
                                                    "trimStartSum" : 0,
                                                    "attributes" : {
                                                      "ident" : "wave2"
                                                    },
                                                    "parameters" : {
                                                      "translation0" : {
                                                        "type" : "double",
                                                        "defaultValue" : 0.880498533167186,
                                                        "interp" : "eioe"
                                                      },
                                                      "translation1" : {
                                                        "type" : "double",
                                                        "defaultValue" : -88.087642172052,
                                                        "interp" : "eioe"
                                                      },
                                                      "scale0" : {
                                                        "type" : "double",
                                                        "defaultValue" : 1.03068101042332,
                                                        "interp" : "eioe"
                                                      },
                                                      "scale1" : {
                                                        "type" : "double",
                                                        "defaultValue" : 1.03068101042332,
                                                        "interp" : "eioe"
                                                      }
                                                    },
                                                    "effects" : [

                                                    ],
                                                    "start" : 25,
                                                    "duration" : 6,
                                                    "mediaStart" : 0,
                                                    "mediaDuration" : 1,
                                                    "scalar" : 1,
                                                    "metadata" : {
                                                      "clipSpeedAttribute" : false
                                                    },
                                                    "animationTracks" : {

                                                    }
                                                  },
                                                  {
                                                    "id" : 420,
                                                    "_type" : "IMFile",
                                                    "src" : 26,
                                                    "trackNumber" : 0,
                                                    "trimStartSum" : 0,
                                                    "attributes" : {
                                                      "ident" : "wave3"
                                                    },
                                                    "parameters" : {
                                                      "translation0" : {
                                                        "type" : "double",
                                                        "defaultValue" : -1.11950146655987,
                                                        "interp" : "eioe"
                                                      },
                                                      "translation1" : {
                                                        "type" : "double",
                                                        "defaultValue" : 8.12143442823202,
                                                        "interp" : "eioe"
                                                      },
                                                      "scale0" : {
                                                        "type" : "double",
                                                        "defaultValue" : 1.00893326326855,
                                                        "interp" : "eioe"
                                                      },
                                                      "scale1" : {
                                                        "type" : "double",
                                                        "defaultValue" : 1.00893326326855,
                                                        "interp" : "eioe"
                                                      }
                                                    },
                                                    "effects" : [

                                                    ],
                                                    "start" : 31,
                                                    "duration" : 7,
                                                    "mediaStart" : 0,
                                                    "mediaDuration" : 1,
                                                    "scalar" : 1,
                                                    "metadata" : {
                                                      "clipSpeedAttribute" : false
                                                    },
                                                    "animationTracks" : {

                                                    }
                                                  },
                                                  {
                                                    "id" : 421,
                                                    "_type" : "IMFile",
                                                    "src" : 24,
                                                    "trackNumber" : 0,
                                                    "trimStartSum" : 0,
                                                    "attributes" : {
                                                      "ident" : "wave1"
                                                    },
                                                    "parameters" : {
                                                      "translation0" : {
                                                        "type" : "double",
                                                        "defaultValue" : -2.11950146613311,
                                                        "interp" : "eioe"
                                                      },
                                                      "translation1" : {
                                                        "type" : "double",
                                                        "defaultValue" : 8.96940103546206,
                                                        "interp" : "eioe"
                                                      },
                                                      "scale0" : {
                                                        "type" : "double",
                                                        "defaultValue" : 1.02884111169424,
                                                        "interp" : "eioe"
                                                      },
                                                      "scale1" : {
                                                        "type" : "double",
                                                        "defaultValue" : 1.02884111169424,
                                                        "interp" : "eioe"
                                                      }
                                                    },
                                                    "effects" : [

                                                    ],
                                                    "start" : 38,
                                                    "duration" : 6,
                                                    "mediaStart" : 0,
                                                    "mediaDuration" : 1,
                                                    "scalar" : 1,
                                                    "metadata" : {
                                                      "clipSpeedAttribute" : false
                                                    },
                                                    "animationTracks" : {

                                                    }
                                                  },
                                                  {
                                                    "id" : 422,
                                                    "_type" : "IMFile",
                                                    "src" : 25,
                                                    "trackNumber" : 0,
                                                    "trimStartSum" : 0,
                                                    "attributes" : {
                                                      "ident" : "wave2"
                                                    },
                                                    "parameters" : {
                                                      "translation0" : {
                                                        "type" : "double",
                                                        "defaultValue" : 0.880498533167186,
                                                        "interp" : "eioe"
                                                      },
                                                      "translation1" : {
                                                        "type" : "double",
                                                        "defaultValue" : -88.087642172052,
                                                        "interp" : "eioe"
                                                      },
                                                      "scale0" : {
                                                        "type" : "double",
                                                        "defaultValue" : 1.03068101042332,
                                                        "interp" : "eioe"
                                                      },
                                                      "scale1" : {
                                                        "type" : "double",
                                                        "defaultValue" : 1.03068101042332,
                                                        "interp" : "eioe"
                                                      }
                                                    },
                                                    "effects" : [

                                                    ],
                                                    "start" : 44,
                                                    "duration" : 6,
                                                    "mediaStart" : 0,
                                                    "mediaDuration" : 1,
                                                    "scalar" : 1,
                                                    "metadata" : {
                                                      "clipSpeedAttribute" : false
                                                    },
                                                    "animationTracks" : {

                                                    }
                                                  },
                                                  {
                                                    "id" : 423,
                                                    "_type" : "IMFile",
                                                    "src" : 26,
                                                    "trackNumber" : 0,
                                                    "trimStartSum" : 0,
                                                    "attributes" : {
                                                      "ident" : "wave3"
                                                    },
                                                    "parameters" : {
                                                      "translation0" : {
                                                        "type" : "double",
                                                        "defaultValue" : -1.11950146655987,
                                                        "interp" : "eioe"
                                                      },
                                                      "translation1" : {
                                                        "type" : "double",
                                                        "defaultValue" : 8.12143442823202,
                                                        "interp" : "eioe"
                                                      },
                                                      "scale0" : {
                                                        "type" : "double",
                                                        "defaultValue" : 1.00893326326855,
                                                        "interp" : "eioe"
                                                      },
                                                      "scale1" : {
                                                        "type" : "double",
                                                        "defaultValue" : 1.00893326326855,
                                                        "interp" : "eioe"
                                                      }
                                                    },
                                                    "effects" : [

                                                    ],
                                                    "start" : 50,
                                                    "duration" : 7,
                                                    "mediaStart" : 0,
                                                    "mediaDuration" : 1,
                                                    "scalar" : 1,
                                                    "metadata" : {
                                                      "clipSpeedAttribute" : false
                                                    },
                                                    "animationTracks" : {

                                                    }
                                                  },
                                                  {
                                                    "id" : 424,
                                                    "_type" : "IMFile",
                                                    "src" : 24,
                                                    "trackNumber" : 0,
                                                    "trimStartSum" : 0,
                                                    "attributes" : {
                                                      "ident" : "wave1"
                                                    },
                                                    "parameters" : {
                                                      "translation0" : {
                                                        "type" : "double",
                                                        "defaultValue" : -2.11950146613311,
                                                        "interp" : "eioe"
                                                      },
                                                      "translation1" : {
                                                        "type" : "double",
                                                        "defaultValue" : 8.96940103546206,
                                                        "interp" : "eioe"
                                                      },
                                                      "scale0" : {
                                                        "type" : "double",
                                                        "defaultValue" : 1.02884111169424,
                                                        "interp" : "eioe"
                                                      },
                                                      "scale1" : {
                                                        "type" : "double",
                                                        "defaultValue" : 1.02884111169424,
                                                        "interp" : "eioe"
                                                      }
                                                    },
                                                    "effects" : [

                                                    ],
                                                    "start" : 57,
                                                    "duration" : 6,
                                                    "mediaStart" : 0,
                                                    "mediaDuration" : 1,
                                                    "scalar" : 1,
                                                    "metadata" : {
                                                      "clipSpeedAttribute" : false
                                                    },
                                                    "animationTracks" : {

                                                    }
                                                  },
                                                  {
                                                    "id" : 425,
                                                    "_type" : "IMFile",
                                                    "src" : 25,
                                                    "trackNumber" : 0,
                                                    "trimStartSum" : 0,
                                                    "attributes" : {
                                                      "ident" : "wave2"
                                                    },
                                                    "parameters" : {
                                                      "translation0" : {
                                                        "type" : "double",
                                                        "defaultValue" : 0.880498533167186,
                                                        "interp" : "eioe"
                                                      },
                                                      "translation1" : {
                                                        "type" : "double",
                                                        "defaultValue" : -88.087642172052,
                                                        "interp" : "eioe"
                                                      },
                                                      "scale0" : {
                                                        "type" : "double",
                                                        "defaultValue" : 1.03068101042332,
                                                        "interp" : "eioe"
                                                      },
                                                      "scale1" : {
                                                        "type" : "double",
                                                        "defaultValue" : 1.03068101042332,
                                                        "interp" : "eioe"
                                                      }
                                                    },
                                                    "effects" : [

                                                    ],
                                                    "start" : 63,
                                                    "duration" : 6,
                                                    "mediaStart" : 0,
                                                    "mediaDuration" : 1,
                                                    "scalar" : 1,
                                                    "metadata" : {
                                                      "clipSpeedAttribute" : false
                                                    },
                                                    "animationTracks" : {

                                                    }
                                                  },
                                                  {
                                                    "id" : 426,
                                                    "_type" : "IMFile",
                                                    "src" : 26,
                                                    "trackNumber" : 0,
                                                    "trimStartSum" : 0,
                                                    "attributes" : {
                                                      "ident" : "wave3"
                                                    },
                                                    "parameters" : {
                                                      "translation0" : {
                                                        "type" : "double",
                                                        "defaultValue" : -1.11950146655987,
                                                        "interp" : "eioe"
                                                      },
                                                      "translation1" : {
                                                        "type" : "double",
                                                        "defaultValue" : 8.12143442823202,
                                                        "interp" : "eioe"
                                                      },
                                                      "scale0" : {
                                                        "type" : "double",
                                                        "defaultValue" : 1.00893326326855,
                                                        "interp" : "eioe"
                                                      },
                                                      "scale1" : {
                                                        "type" : "double",
                                                        "defaultValue" : 1.00893326326855,
                                                        "interp" : "eioe"
                                                      }
                                                    },
                                                    "effects" : [

                                                    ],
                                                    "start" : 69,
                                                    "duration" : 7,
                                                    "mediaStart" : 0,
                                                    "mediaDuration" : 1,
                                                    "scalar" : 1,
                                                    "metadata" : {
                                                      "clipSpeedAttribute" : false
                                                    },
                                                    "animationTracks" : {

                                                    }
                                                  },
                                                  {
                                                    "id" : 427,
                                                    "_type" : "IMFile",
                                                    "src" : 24,
                                                    "trackNumber" : 0,
                                                    "trimStartSum" : 0,
                                                    "attributes" : {
                                                      "ident" : "wave1"
                                                    },
                                                    "parameters" : {
                                                      "translation0" : {
                                                        "type" : "double",
                                                        "defaultValue" : -2.11950146613311,
                                                        "interp" : "eioe"
                                                      },
                                                      "translation1" : {
                                                        "type" : "double",
                                                        "defaultValue" : 8.96940103546206,
                                                        "interp" : "eioe"
                                                      },
                                                      "scale0" : {
                                                        "type" : "double",
                                                        "defaultValue" : 1.02884111169424,
                                                        "interp" : "eioe"
                                                      },
                                                      "scale1" : {
                                                        "type" : "double",
                                                        "defaultValue" : 1.02884111169424,
                                                        "interp" : "eioe"
                                                      }
                                                    },
                                                    "effects" : [

                                                    ],
                                                    "start" : 76,
                                                    "duration" : 6,
                                                    "mediaStart" : 0,
                                                    "mediaDuration" : 1,
                                                    "scalar" : 1,
                                                    "metadata" : {
                                                      "clipSpeedAttribute" : false
                                                    },
                                                    "animationTracks" : {

                                                    }
                                                  },
                                                  {
                                                    "id" : 428,
                                                    "_type" : "IMFile",
                                                    "src" : 25,
                                                    "trackNumber" : 0,
                                                    "trimStartSum" : 0,
                                                    "attributes" : {
                                                      "ident" : "wave2"
                                                    },
                                                    "parameters" : {
                                                      "translation0" : {
                                                        "type" : "double",
                                                        "defaultValue" : 0.880498533167186,
                                                        "interp" : "eioe"
                                                      },
                                                      "translation1" : {
                                                        "type" : "double",
                                                        "defaultValue" : -88.087642172052,
                                                        "interp" : "eioe"
                                                      },
                                                      "scale0" : {
                                                        "type" : "double",
                                                        "defaultValue" : 1.03068101042332,
                                                        "interp" : "eioe"
                                                      },
                                                      "scale1" : {
                                                        "type" : "double",
                                                        "defaultValue" : 1.03068101042332,
                                                        "interp" : "eioe"
                                                      }
                                                    },
                                                    "effects" : [

                                                    ],
                                                    "start" : 82,
                                                    "duration" : 6,
                                                    "mediaStart" : 0,
                                                    "mediaDuration" : 1,
                                                    "scalar" : 1,
                                                    "metadata" : {
                                                      "clipSpeedAttribute" : false
                                                    },
                                                    "animationTracks" : {

                                                    }
                                                  },
                                                  {
                                                    "id" : 429,
                                                    "_type" : "IMFile",
                                                    "src" : 26,
                                                    "trackNumber" : 0,
                                                    "trimStartSum" : 0,
                                                    "attributes" : {
                                                      "ident" : "wave3"
                                                    },
                                                    "parameters" : {
                                                      "translation0" : {
                                                        "type" : "double",
                                                        "defaultValue" : -1.11950146655987,
                                                        "interp" : "eioe"
                                                      },
                                                      "translation1" : {
                                                        "type" : "double",
                                                        "defaultValue" : 8.12143442823202,
                                                        "interp" : "eioe"
                                                      },
                                                      "scale0" : {
                                                        "type" : "double",
                                                        "defaultValue" : 1.00893326326855,
                                                        "interp" : "eioe"
                                                      },
                                                      "scale1" : {
                                                        "type" : "double",
                                                        "defaultValue" : 1.00893326326855,
                                                        "interp" : "eioe"
                                                      }
                                                    },
                                                    "effects" : [

                                                    ],
                                                    "start" : 88,
                                                    "duration" : 7,
                                                    "mediaStart" : 0,
                                                    "mediaDuration" : 1,
                                                    "scalar" : 1,
                                                    "metadata" : {
                                                      "clipSpeedAttribute" : false
                                                    },
                                                    "animationTracks" : {

                                                    }
                                                  },
                                                  {
                                                    "id" : 430,
                                                    "_type" : "IMFile",
                                                    "src" : 24,
                                                    "trackNumber" : 0,
                                                    "trimStartSum" : 0,
                                                    "attributes" : {
                                                      "ident" : "wave1"
                                                    },
                                                    "parameters" : {
                                                      "translation0" : {
                                                        "type" : "double",
                                                        "defaultValue" : -2.11950146613311,
                                                        "interp" : "eioe"
                                                      },
                                                      "translation1" : {
                                                        "type" : "double",
                                                        "defaultValue" : 8.96940103546206,
                                                        "interp" : "eioe"
                                                      },
                                                      "scale0" : {
                                                        "type" : "double",
                                                        "defaultValue" : 1.02884111169424,
                                                        "interp" : "eioe"
                                                      },
                                                      "scale1" : {
                                                        "type" : "double",
                                                        "defaultValue" : 1.02884111169424,
                                                        "interp" : "eioe"
                                                      }
                                                    },
                                                    "effects" : [

                                                    ],
                                                    "start" : 95,
                                                    "duration" : 6,
                                                    "mediaStart" : 0,
                                                    "mediaDuration" : 1,
                                                    "scalar" : 1,
                                                    "metadata" : {
                                                      "clipSpeedAttribute" : false
                                                    },
                                                    "animationTracks" : {

                                                    }
                                                  },
                                                  {
                                                    "id" : 431,
                                                    "_type" : "IMFile",
                                                    "src" : 25,
                                                    "trackNumber" : 0,
                                                    "trimStartSum" : 0,
                                                    "attributes" : {
                                                      "ident" : "wave2"
                                                    },
                                                    "parameters" : {
                                                      "translation0" : {
                                                        "type" : "double",
                                                        "defaultValue" : 0.880498533167186,
                                                        "interp" : "eioe"
                                                      },
                                                      "translation1" : {
                                                        "type" : "double",
                                                        "defaultValue" : -88.087642172052,
                                                        "interp" : "eioe"
                                                      },
                                                      "scale0" : {
                                                        "type" : "double",
                                                        "defaultValue" : 1.03068101042332,
                                                        "interp" : "eioe"
                                                      },
                                                      "scale1" : {
                                                        "type" : "double",
                                                        "defaultValue" : 1.03068101042332,
                                                        "interp" : "eioe"
                                                      }
                                                    },
                                                    "effects" : [

                                                    ],
                                                    "start" : 101,
                                                    "duration" : 6,
                                                    "mediaStart" : 0,
                                                    "mediaDuration" : 1,
                                                    "scalar" : 1,
                                                    "metadata" : {
                                                      "clipSpeedAttribute" : false
                                                    },
                                                    "animationTracks" : {

                                                    }
                                                  },
                                                  {
                                                    "id" : 432,
                                                    "_type" : "IMFile",
                                                    "src" : 26,
                                                    "trackNumber" : 0,
                                                    "trimStartSum" : 0,
                                                    "attributes" : {
                                                      "ident" : "wave3"
                                                    },
                                                    "parameters" : {
                                                      "translation0" : {
                                                        "type" : "double",
                                                        "defaultValue" : -1.11950146655987,
                                                        "interp" : "eioe"
                                                      },
                                                      "translation1" : {
                                                        "type" : "double",
                                                        "defaultValue" : 8.12143442823202,
                                                        "interp" : "eioe"
                                                      },
                                                      "scale0" : {
                                                        "type" : "double",
                                                        "defaultValue" : 1.00893326326855,
                                                        "interp" : "eioe"
                                                      },
                                                      "scale1" : {
                                                        "type" : "double",
                                                        "defaultValue" : 1.00893326326855,
                                                        "interp" : "eioe"
                                                      }
                                                    },
                                                    "effects" : [

                                                    ],
                                                    "start" : 107,
                                                    "duration" : 7,
                                                    "mediaStart" : 0,
                                                    "mediaDuration" : 1,
                                                    "scalar" : 1,
                                                    "metadata" : {
                                                      "clipSpeedAttribute" : false
                                                    },
                                                    "animationTracks" : {

                                                    }
                                                  },
                                                  {
                                                    "id" : 433,
                                                    "_type" : "IMFile",
                                                    "src" : 24,
                                                    "trackNumber" : 0,
                                                    "trimStartSum" : 0,
                                                    "attributes" : {
                                                      "ident" : "wave1"
                                                    },
                                                    "parameters" : {
                                                      "translation0" : {
                                                        "type" : "double",
                                                        "defaultValue" : -2.11950146613311,
                                                        "interp" : "eioe"
                                                      },
                                                      "translation1" : {
                                                        "type" : "double",
                                                        "defaultValue" : 8.96940103546206,
                                                        "interp" : "eioe"
                                                      },
                                                      "scale0" : {
                                                        "type" : "double",
                                                        "defaultValue" : 1.02884111169424,
                                                        "interp" : "eioe"
                                                      },
                                                      "scale1" : {
                                                        "type" : "double",
                                                        "defaultValue" : 1.02884111169424,
                                                        "interp" : "eioe"
                                                      }
                                                    },
                                                    "effects" : [

                                                    ],
                                                    "start" : 114,
                                                    "duration" : 6,
                                                    "mediaStart" : 0,
                                                    "mediaDuration" : 1,
                                                    "scalar" : 1,
                                                    "metadata" : {
                                                      "clipSpeedAttribute" : false
                                                    },
                                                    "animationTracks" : {

                                                    }
                                                  },
                                                  {
                                                    "id" : 434,
                                                    "_type" : "IMFile",
                                                    "src" : 25,
                                                    "trackNumber" : 0,
                                                    "trimStartSum" : 0,
                                                    "attributes" : {
                                                      "ident" : "wave2"
                                                    },
                                                    "parameters" : {
                                                      "translation0" : {
                                                        "type" : "double",
                                                        "defaultValue" : 0.880498533167186,
                                                        "interp" : "eioe"
                                                      },
                                                      "translation1" : {
                                                        "type" : "double",
                                                        "defaultValue" : -88.087642172052,
                                                        "interp" : "eioe"
                                                      },
                                                      "scale0" : {
                                                        "type" : "double",
                                                        "defaultValue" : 1.03068101042332,
                                                        "interp" : "eioe"
                                                      },
                                                      "scale1" : {
                                                        "type" : "double",
                                                        "defaultValue" : 1.03068101042332,
                                                        "interp" : "eioe"
                                                      }
                                                    },
                                                    "effects" : [

                                                    ],
                                                    "start" : 120,
                                                    "duration" : 6,
                                                    "mediaStart" : 0,
                                                    "mediaDuration" : 1,
                                                    "scalar" : 1,
                                                    "metadata" : {
                                                      "clipSpeedAttribute" : false
                                                    },
                                                    "animationTracks" : {

                                                    }
                                                  },
                                                  {
                                                    "id" : 435,
                                                    "_type" : "IMFile",
                                                    "src" : 26,
                                                    "trackNumber" : 0,
                                                    "trimStartSum" : 0,
                                                    "attributes" : {
                                                      "ident" : "wave3"
                                                    },
                                                    "parameters" : {
                                                      "translation0" : {
                                                        "type" : "double",
                                                        "defaultValue" : -1.11950146655987,
                                                        "interp" : "eioe"
                                                      },
                                                      "translation1" : {
                                                        "type" : "double",
                                                        "defaultValue" : 8.12143442823202,
                                                        "interp" : "eioe"
                                                      },
                                                      "scale0" : {
                                                        "type" : "double",
                                                        "defaultValue" : 1.00893326326855,
                                                        "interp" : "eioe"
                                                      },
                                                      "scale1" : {
                                                        "type" : "double",
                                                        "defaultValue" : 1.00893326326855,
                                                        "interp" : "eioe"
                                                      }
                                                    },
                                                    "effects" : [

                                                    ],
                                                    "start" : 126,
                                                    "duration" : 7,
                                                    "mediaStart" : 0,
                                                    "mediaDuration" : 1,
                                                    "scalar" : 1,
                                                    "metadata" : {
                                                      "clipSpeedAttribute" : false
                                                    },
                                                    "animationTracks" : {

                                                    }
                                                  },
                                                  {
                                                    "id" : 436,
                                                    "_type" : "IMFile",
                                                    "src" : 24,
                                                    "trackNumber" : 0,
                                                    "trimStartSum" : 0,
                                                    "attributes" : {
                                                      "ident" : "wave1"
                                                    },
                                                    "parameters" : {
                                                      "translation0" : {
                                                        "type" : "double",
                                                        "defaultValue" : -2.11950146613311,
                                                        "interp" : "eioe"
                                                      },
                                                      "translation1" : {
                                                        "type" : "double",
                                                        "defaultValue" : 8.96940103546206,
                                                        "interp" : "eioe"
                                                      },
                                                      "scale0" : {
                                                        "type" : "double",
                                                        "defaultValue" : 1.02884111169424,
                                                        "interp" : "eioe"
                                                      },
                                                      "scale1" : {
                                                        "type" : "double",
                                                        "defaultValue" : 1.02884111169424,
                                                        "interp" : "eioe"
                                                      }
                                                    },
                                                    "effects" : [

                                                    ],
                                                    "start" : 133,
                                                    "duration" : 6,
                                                    "mediaStart" : 0,
                                                    "mediaDuration" : 1,
                                                    "scalar" : 1,
                                                    "metadata" : {
                                                      "clipSpeedAttribute" : false
                                                    },
                                                    "animationTracks" : {

                                                    }
                                                  },
                                                  {
                                                    "id" : 437,
                                                    "_type" : "IMFile",
                                                    "src" : 25,
                                                    "trackNumber" : 0,
                                                    "trimStartSum" : 0,
                                                    "attributes" : {
                                                      "ident" : "wave2"
                                                    },
                                                    "parameters" : {
                                                      "translation0" : {
                                                        "type" : "double",
                                                        "defaultValue" : 0.880498533167186,
                                                        "interp" : "eioe"
                                                      },
                                                      "translation1" : {
                                                        "type" : "double",
                                                        "defaultValue" : -88.087642172052,
                                                        "interp" : "eioe"
                                                      },
                                                      "scale0" : {
                                                        "type" : "double",
                                                        "defaultValue" : 1.03068101042332,
                                                        "interp" : "eioe"
                                                      },
                                                      "scale1" : {
                                                        "type" : "double",
                                                        "defaultValue" : 1.03068101042332,
                                                        "interp" : "eioe"
                                                      }
                                                    },
                                                    "effects" : [

                                                    ],
                                                    "start" : 139,
                                                    "duration" : 6,
                                                    "mediaStart" : 0,
                                                    "mediaDuration" : 1,
                                                    "scalar" : 1,
                                                    "metadata" : {
                                                      "clipSpeedAttribute" : false
                                                    },
                                                    "animationTracks" : {

                                                    }
                                                  },
                                                  {
                                                    "id" : 438,
                                                    "_type" : "IMFile",
                                                    "src" : 26,
                                                    "trackNumber" : 0,
                                                    "trimStartSum" : 0,
                                                    "attributes" : {
                                                      "ident" : "wave3"
                                                    },
                                                    "parameters" : {
                                                      "translation0" : {
                                                        "type" : "double",
                                                        "defaultValue" : -1.11950146655987,
                                                        "interp" : "eioe"
                                                      },
                                                      "translation1" : {
                                                        "type" : "double",
                                                        "defaultValue" : 8.12143442823202,
                                                        "interp" : "eioe"
                                                      },
                                                      "scale0" : {
                                                        "type" : "double",
                                                        "defaultValue" : 1.00893326326855,
                                                        "interp" : "eioe"
                                                      },
                                                      "scale1" : {
                                                        "type" : "double",
                                                        "defaultValue" : 1.00893326326855,
                                                        "interp" : "eioe"
                                                      }
                                                    },
                                                    "effects" : [

                                                    ],
                                                    "start" : 145,
                                                    "duration" : 7,
                                                    "mediaStart" : 0,
                                                    "mediaDuration" : 1,
                                                    "scalar" : 1,
                                                    "metadata" : {
                                                      "clipSpeedAttribute" : false
                                                    },
                                                    "animationTracks" : {

                                                    }
                                                  },
                                                  {
                                                    "id" : 439,
                                                    "_type" : "IMFile",
                                                    "src" : 24,
                                                    "trackNumber" : 0,
                                                    "trimStartSum" : 0,
                                                    "attributes" : {
                                                      "ident" : "wave1"
                                                    },
                                                    "parameters" : {
                                                      "translation0" : {
                                                        "type" : "double",
                                                        "defaultValue" : -2.11950146613311,
                                                        "interp" : "eioe"
                                                      },
                                                      "translation1" : {
                                                        "type" : "double",
                                                        "defaultValue" : 8.96940103546206,
                                                        "interp" : "eioe"
                                                      },
                                                      "scale0" : {
                                                        "type" : "double",
                                                        "defaultValue" : 1.02884111169424,
                                                        "interp" : "eioe"
                                                      },
                                                      "scale1" : {
                                                        "type" : "double",
                                                        "defaultValue" : 1.02884111169424,
                                                        "interp" : "eioe"
                                                      }
                                                    },
                                                    "effects" : [

                                                    ],
                                                    "start" : 152,
                                                    "duration" : 6,
                                                    "mediaStart" : 0,
                                                    "mediaDuration" : 1,
                                                    "scalar" : 1,
                                                    "metadata" : {
                                                      "clipSpeedAttribute" : false
                                                    },
                                                    "animationTracks" : {

                                                    }
                                                  },
                                                  {
                                                    "id" : 440,
                                                    "_type" : "IMFile",
                                                    "src" : 25,
                                                    "trackNumber" : 0,
                                                    "trimStartSum" : 0,
                                                    "attributes" : {
                                                      "ident" : "wave2"
                                                    },
                                                    "parameters" : {
                                                      "translation0" : {
                                                        "type" : "double",
                                                        "defaultValue" : 0.880498533167186,
                                                        "interp" : "eioe"
                                                      },
                                                      "translation1" : {
                                                        "type" : "double",
                                                        "defaultValue" : -88.087642172052,
                                                        "interp" : "eioe"
                                                      },
                                                      "scale0" : {
                                                        "type" : "double",
                                                        "defaultValue" : 1.03068101042332,
                                                        "interp" : "eioe"
                                                      },
                                                      "scale1" : {
                                                        "type" : "double",
                                                        "defaultValue" : 1.03068101042332,
                                                        "interp" : "eioe"
                                                      }
                                                    },
                                                    "effects" : [

                                                    ],
                                                    "start" : 158,
                                                    "duration" : 6,
                                                    "mediaStart" : 0,
                                                    "mediaDuration" : 1,
                                                    "scalar" : 1,
                                                    "metadata" : {
                                                      "clipSpeedAttribute" : false
                                                    },
                                                    "animationTracks" : {

                                                    }
                                                  },
                                                  {
                                                    "id" : 441,
                                                    "_type" : "IMFile",
                                                    "src" : 26,
                                                    "trackNumber" : 0,
                                                    "trimStartSum" : 0,
                                                    "attributes" : {
                                                      "ident" : "wave3"
                                                    },
                                                    "parameters" : {
                                                      "translation0" : {
                                                        "type" : "double",
                                                        "defaultValue" : -1.11950146655987,
                                                        "interp" : "eioe"
                                                      },
                                                      "translation1" : {
                                                        "type" : "double",
                                                        "defaultValue" : 8.12143442823202,
                                                        "interp" : "eioe"
                                                      },
                                                      "scale0" : {
                                                        "type" : "double",
                                                        "defaultValue" : 1.00893326326855,
                                                        "interp" : "eioe"
                                                      },
                                                      "scale1" : {
                                                        "type" : "double",
                                                        "defaultValue" : 1.00893326326855,
                                                        "interp" : "eioe"
                                                      }
                                                    },
                                                    "effects" : [

                                                    ],
                                                    "start" : 164,
                                                    "duration" : 7,
                                                    "mediaStart" : 0,
                                                    "mediaDuration" : 1,
                                                    "scalar" : 1,
                                                    "metadata" : {
                                                      "clipSpeedAttribute" : false
                                                    },
                                                    "animationTracks" : {

                                                    }
                                                  },
                                                  {
                                                    "id" : 442,
                                                    "_type" : "IMFile",
                                                    "src" : 24,
                                                    "trackNumber" : 0,
                                                    "trimStartSum" : 0,
                                                    "attributes" : {
                                                      "ident" : "wave1"
                                                    },
                                                    "parameters" : {
                                                      "translation0" : {
                                                        "type" : "double",
                                                        "defaultValue" : -2.11950146613311,
                                                        "interp" : "eioe"
                                                      },
                                                      "translation1" : {
                                                        "type" : "double",
                                                        "defaultValue" : 8.96940103546206,
                                                        "interp" : "eioe"
                                                      },
                                                      "scale0" : {
                                                        "type" : "double",
                                                        "defaultValue" : 1.02884111169424,
                                                        "interp" : "eioe"
                                                      },
                                                      "scale1" : {
                                                        "type" : "double",
                                                        "defaultValue" : 1.02884111169424,
                                                        "interp" : "eioe"
                                                      }
                                                    },
                                                    "effects" : [

                                                    ],
                                                    "start" : 171,
                                                    "duration" : 6,
                                                    "mediaStart" : 0,
                                                    "mediaDuration" : 1,
                                                    "scalar" : 1,
                                                    "metadata" : {
                                                      "clipSpeedAttribute" : false
                                                    },
                                                    "animationTracks" : {

                                                    }
                                                  },
                                                  {
                                                    "id" : 443,
                                                    "_type" : "IMFile",
                                                    "src" : 25,
                                                    "trackNumber" : 0,
                                                    "trimStartSum" : 0,
                                                    "attributes" : {
                                                      "ident" : "wave2"
                                                    },
                                                    "parameters" : {
                                                      "translation0" : {
                                                        "type" : "double",
                                                        "defaultValue" : 0.880498533167186,
                                                        "interp" : "eioe"
                                                      },
                                                      "translation1" : {
                                                        "type" : "double",
                                                        "defaultValue" : -88.087642172052,
                                                        "interp" : "eioe"
                                                      },
                                                      "scale0" : {
                                                        "type" : "double",
                                                        "defaultValue" : 1.03068101042332,
                                                        "interp" : "eioe"
                                                      },
                                                      "scale1" : {
                                                        "type" : "double",
                                                        "defaultValue" : 1.03068101042332,
                                                        "interp" : "eioe"
                                                      }
                                                    },
                                                    "effects" : [

                                                    ],
                                                    "start" : 177,
                                                    "duration" : 6,
                                                    "mediaStart" : 0,
                                                    "mediaDuration" : 1,
                                                    "scalar" : 1,
                                                    "metadata" : {
                                                      "clipSpeedAttribute" : false
                                                    },
                                                    "animationTracks" : {

                                                    }
                                                  },
                                                  {
                                                    "id" : 444,
                                                    "_type" : "IMFile",
                                                    "src" : 26,
                                                    "trackNumber" : 0,
                                                    "trimStartSum" : 0,
                                                    "attributes" : {
                                                      "ident" : "wave3"
                                                    },
                                                    "parameters" : {
                                                      "translation0" : {
                                                        "type" : "double",
                                                        "defaultValue" : -1.11950146655987,
                                                        "interp" : "eioe"
                                                      },
                                                      "translation1" : {
                                                        "type" : "double",
                                                        "defaultValue" : 8.12143442823202,
                                                        "interp" : "eioe"
                                                      },
                                                      "scale0" : {
                                                        "type" : "double",
                                                        "defaultValue" : 1.00893326326855,
                                                        "interp" : "eioe"
                                                      },
                                                      "scale1" : {
                                                        "type" : "double",
                                                        "defaultValue" : 1.00893326326855,
                                                        "interp" : "eioe"
                                                      }
                                                    },
                                                    "effects" : [

                                                    ],
                                                    "start" : 183,
                                                    "duration" : 7,
                                                    "mediaStart" : 0,
                                                    "mediaDuration" : 1,
                                                    "scalar" : 1,
                                                    "metadata" : {
                                                      "clipSpeedAttribute" : false
                                                    },
                                                    "animationTracks" : {

                                                    }
                                                  },
                                                  {
                                                    "id" : 445,
                                                    "_type" : "IMFile",
                                                    "src" : 24,
                                                    "trackNumber" : 0,
                                                    "trimStartSum" : 0,
                                                    "attributes" : {
                                                      "ident" : "wave1"
                                                    },
                                                    "parameters" : {
                                                      "translation0" : {
                                                        "type" : "double",
                                                        "defaultValue" : -2.11950146613311,
                                                        "interp" : "eioe"
                                                      },
                                                      "translation1" : {
                                                        "type" : "double",
                                                        "defaultValue" : 8.96940103546206,
                                                        "interp" : "eioe"
                                                      },
                                                      "scale0" : {
                                                        "type" : "double",
                                                        "defaultValue" : 1.02884111169424,
                                                        "interp" : "eioe"
                                                      },
                                                      "scale1" : {
                                                        "type" : "double",
                                                        "defaultValue" : 1.02884111169424,
                                                        "interp" : "eioe"
                                                      }
                                                    },
                                                    "effects" : [

                                                    ],
                                                    "start" : 190,
                                                    "duration" : 6,
                                                    "mediaStart" : 0,
                                                    "mediaDuration" : 1,
                                                    "scalar" : 1,
                                                    "metadata" : {
                                                      "clipSpeedAttribute" : false
                                                    },
                                                    "animationTracks" : {

                                                    }
                                                  },
                                                  {
                                                    "id" : 446,
                                                    "_type" : "IMFile",
                                                    "src" : 25,
                                                    "trackNumber" : 0,
                                                    "trimStartSum" : 0,
                                                    "attributes" : {
                                                      "ident" : "wave2"
                                                    },
                                                    "parameters" : {
                                                      "translation0" : {
                                                        "type" : "double",
                                                        "defaultValue" : 0.880498533167186,
                                                        "interp" : "eioe"
                                                      },
                                                      "translation1" : {
                                                        "type" : "double",
                                                        "defaultValue" : -88.087642172052,
                                                        "interp" : "eioe"
                                                      },
                                                      "scale0" : {
                                                        "type" : "double",
                                                        "defaultValue" : 1.03068101042332,
                                                        "interp" : "eioe"
                                                      },
                                                      "scale1" : {
                                                        "type" : "double",
                                                        "defaultValue" : 1.03068101042332,
                                                        "interp" : "eioe"
                                                      }
                                                    },
                                                    "effects" : [

                                                    ],
                                                    "start" : 196,
                                                    "duration" : 4,
                                                    "mediaStart" : 0,
                                                    "mediaDuration" : 1,
                                                    "scalar" : 1,
                                                    "metadata" : {
                                                      "clipSpeedAttribute" : false
                                                    },
                                                    "animationTracks" : {

                                                    }
                                                  }
                                                ],
                                                  "ident" : "",
                                                  "audioMuted" : false,
                                                  "videoHidden" : false,
                                                  "magnetic" : false,
                                                  "matte" : 0,
                                                  "metadata" : {
                                                    "IsLocked" : "False",
                                                    "WinTrackHeight" : "0"
                                                  }
                                              },
                                              {
                                                "trackIndex" : 1,
                                                "medias" : [
                                                  {
                                                    "id" : 447,
                                                    "_type" : "IMFile",
                                                    "src" : 27,
                                                    "trackNumber" : 0,
                                                    "trimStartSum" : 0,
                                                    "attributes" : {
                                                      "ident" : "control-plane-128"
                                                    },
                                                    "parameters" : {
                                                      "translation0" : {
                                                        "type" : "double",
                                                        "defaultValue" : -785.119501466663,
                                                        "interp" : "eioe"
                                                      },
                                                      "translation1" : {
                                                        "type" : "double",
                                                        "defaultValue" : 199.818754449228,
                                                        "interp" : "eioe"
                                                      }
                                                    },
                                                    "effects" : [

                                                    ],
                                                    "start" : 0,
                                                    "duration" : 19,
                                                    "mediaStart" : 0,
                                                    "mediaDuration" : 1,
                                                    "scalar" : 1,
                                                    "metadata" : {
                                                      "clipSpeedAttribute" : false
                                                    },
                                                    "animationTracks" : {

                                                    }
                                                  },
                                                  {
                                                    "id" : 448,
                                                    "_type" : "IMFile",
                                                    "src" : 28,
                                                    "trackNumber" : 0,
                                                    "trimStartSum" : 0,
                                                    "attributes" : {
                                                      "ident" : "etcd-128"
                                                    },
                                                    "parameters" : {
                                                      "translation0" : {
                                                        "type" : "double",
                                                        "defaultValue" : -655.119501466745,
                                                        "interp" : "eioe"
                                                      },
                                                      "translation1" : {
                                                        "type" : "double",
                                                        "defaultValue" : 120.373795393553,
                                                        "interp" : "eioe"
                                                      }
                                                    },
                                                    "effects" : [

                                                    ],
                                                    "start" : 19,
                                                    "duration" : 22,
                                                    "mediaStart" : 0,
                                                    "mediaDuration" : 1,
                                                    "scalar" : 1,
                                                    "metadata" : {
                                                      "clipSpeedAttribute" : false
                                                    },
                                                    "animationTracks" : {

                                                    }
                                                  },
                                                  {
                                                    "id" : 449,
                                                    "_type" : "IMFile",
                                                    "src" : 29,
                                                    "trackNumber" : 0,
                                                    "trimStartSum" : 0,
                                                    "attributes" : {
                                                      "ident" : "node-128"
                                                    },
                                                    "parameters" : {
                                                      "translation0" : {
                                                        "type" : "double",
                                                        "defaultValue" : -315.119501466444,
                                                        "interp" : "eioe"
                                                      },
                                                      "translation1" : {
                                                        "type" : "double",
                                                        "defaultValue" : 135.818754449343,
                                                        "interp" : "eioe"
                                                      }
                                                    },
                                                    "effects" : [

                                                    ],
                                                    "start" : 41,
                                                    "duration" : 18,
                                                    "mediaStart" : 0,
                                                    "mediaDuration" : 1,
                                                    "scalar" : 1,
                                                    "metadata" : {
                                                      "clipSpeedAttribute" : false
                                                    },
                                                    "animationTracks" : {

                                                    }
                                                  },
                                                  {
                                                    "id" : 450,
                                                    "_type" : "IMFile",
                                                    "src" : 30,
                                                    "trackNumber" : 0,
                                                    "trimStartSum" : 0,
                                                    "attributes" : {
                                                      "ident" : "ns-128"
                                                    },
                                                    "parameters" : {
                                                      "translation0" : {
                                                        "type" : "double",
                                                        "defaultValue" : -345.11950146672,
                                                        "interp" : "eioe"
                                                      },
                                                      "translation1" : {
                                                        "type" : "double",
                                                        "defaultValue" : 158.121434428201,
                                                        "interp" : "eioe"
                                                      }
                                                    },
                                                    "effects" : [

                                                    ],
                                                    "start" : 59,
                                                    "duration" : 23,
                                                    "mediaStart" : 0,
                                                    "mediaDuration" : 1,
                                                    "scalar" : 1,
                                                    "metadata" : {
                                                      "clipSpeedAttribute" : false
                                                    },
                                                    "animationTracks" : {

                                                    }
                                                  },
                                                  {
                                                    "id" : 451,
                                                    "_type" : "IMFile",
                                                    "src" : 31,
                                                    "trackNumber" : 0,
                                                    "trimStartSum" : 0,
                                                    "attributes" : {
                                                      "ident" : "pod-128"
                                                    },
                                                    "parameters" : {
                                                      "translation0" : {
                                                        "type" : "double",
                                                        "defaultValue" : -91.1195014666742,
                                                        "interp" : "eioe"
                                                      },
                                                      "translation1" : {
                                                        "type" : "double",
                                                        "defaultValue" : 100.121434428219,
                                                        "interp" : "eioe"
                                                      }
                                                    },
                                                    "effects" : [

                                                    ],
                                                    "start" : 82,
                                                    "duration" : 16,
                                                    "mediaStart" : 0,
                                                    "mediaDuration" : 1,
                                                    "scalar" : 1,
                                                    "metadata" : {
                                                      "clipSpeedAttribute" : false
                                                    },
                                                    "animationTracks" : {

                                                    }
                                                  },
                                                  {
                                                    "id" : 452,
                                                    "_type" : "IMFile",
                                                    "src" : 32,
                                                    "trackNumber" : 0,
                                                    "trimStartSum" : 0,
                                                    "attributes" : {
                                                      "ident" : "secret-128"
                                                    },
                                                    "parameters" : {
                                                      "translation0" : {
                                                        "type" : "double",
                                                        "defaultValue" : -1.11950146666447,
                                                        "interp" : "eioe"
                                                      },
                                                      "translation1" : {
                                                        "type" : "double",
                                                        "defaultValue" : 140.121434428194,
                                                        "interp" : "eioe"
                                                      }
                                                    },
                                                    "effects" : [

                                                    ],
                                                    "start" : 98,
                                                    "duration" : 17,
                                                    "mediaStart" : 0,
                                                    "mediaDuration" : 1,
                                                    "scalar" : 1,
                                                    "metadata" : {
                                                      "clipSpeedAttribute" : false
                                                    },
                                                    "animationTracks" : {

                                                    }
                                                  },
                                                  {
                                                    "id" : 453,
                                                    "_type" : "IMFile",
                                                    "src" : 33,
                                                    "trackNumber" : 0,
                                                    "trimStartSum" : 0,
                                                    "attributes" : {
                                                      "ident" : "svc-128"
                                                    },
                                                    "parameters" : {
                                                      "translation0" : {
                                                        "type" : "double",
                                                        "defaultValue" : 258.880498533338,
                                                        "interp" : "eioe"
                                                      },
                                                      "translation1" : {
                                                        "type" : "double",
                                                        "defaultValue" : 112.121434428216,
                                                        "interp" : "eioe"
                                                      }
                                                    },
                                                    "effects" : [

                                                    ],
                                                    "start" : 115,
                                                    "duration" : 14,
                                                    "mediaStart" : 0,
                                                    "mediaDuration" : 1,
                                                    "scalar" : 1,
                                                    "metadata" : {
                                                      "clipSpeedAttribute" : false
                                                    },
                                                    "animationTracks" : {

                                                    }
                                                  },
                                                  {
                                                    "id" : 454,
                                                    "_type" : "IMFile",
                                                    "src" : 33,
                                                    "trackNumber" : 0,
                                                    "trimStartSum" : 0,
                                                    "attributes" : {
                                                      "ident" : "svc-128"
                                                    },
                                                    "parameters" : {
                                                      "translation0" : {
                                                        "type" : "double",
                                                        "defaultValue" : 346.880498533407,
                                                        "interp" : "eioe"
                                                      },
                                                      "translation1" : {
                                                        "type" : "double",
                                                        "defaultValue" : 120.121434428205,
                                                        "interp" : "eioe"
                                                      }
                                                    },
                                                    "effects" : [

                                                    ],
                                                    "start" : 129,
                                                    "duration" : 14,
                                                    "mediaStart" : 0,
                                                    "mediaDuration" : 1,
                                                    "scalar" : 1,
                                                    "metadata" : {
                                                      "clipSpeedAttribute" : false
                                                    },
                                                    "animationTracks" : {

                                                    }
                                                  },
                                                  {
                                                    "id" : 455,
                                                    "_type" : "IMFile",
                                                    "src" : 34,
                                                    "trackNumber" : 0,
                                                    "trimStartSum" : 0,
                                                    "attributes" : {
                                                      "ident" : "rs-128"
                                                    },
                                                    "parameters" : {
                                                      "translation0" : {
                                                        "type" : "double",
                                                        "defaultValue" : 480.880498533387,
                                                        "interp" : "eioe"
                                                      },
                                                      "translation1" : {
                                                        "type" : "double",
                                                        "defaultValue" : 158.1214344282,
                                                        "interp" : "eioe"
                                                      }
                                                    },
                                                    "effects" : [

                                                    ],
                                                    "start" : 143,
                                                    "duration" : 13,
                                                    "mediaStart" : 0,
                                                    "mediaDuration" : 1,
                                                    "scalar" : 1,
                                                    "metadata" : {
                                                      "clipSpeedAttribute" : false
                                                    },
                                                    "animationTracks" : {

                                                    }
                                                  },
                                                  {
                                                    "id" : 456,
                                                    "_type" : "IMFile",
                                                    "src" : 35,
                                                    "trackNumber" : 0,
                                                    "trimStartSum" : 0,
                                                    "attributes" : {
                                                      "ident" : "vol-128"
                                                    },
                                                    "parameters" : {
                                                      "translation0" : {
                                                        "type" : "double",
                                                        "defaultValue" : 560.880498533409,
                                                        "interp" : "eioe"
                                                      },
                                                      "translation1" : {
                                                        "type" : "double",
                                                        "defaultValue" : 136.121434428193,
                                                        "interp" : "eioe"
                                                      }
                                                    },
                                                    "effects" : [

                                                    ],
                                                    "start" : 156,
                                                    "duration" : 14,
                                                    "mediaStart" : 0,
                                                    "mediaDuration" : 1,
                                                    "scalar" : 1,
                                                    "metadata" : {
                                                      "clipSpeedAttribute" : false
                                                    },
                                                    "animationTracks" : {

                                                    }
                                                  },
                                                  {
                                                    "id" : 457,
                                                    "_type" : "IMFile",
                                                    "src" : 36,
                                                    "trackNumber" : 0,
                                                    "trimStartSum" : 0,
                                                    "attributes" : {
                                                      "ident" : "deploy-128"
                                                    },
                                                    "parameters" : {
                                                      "translation0" : {
                                                        "type" : "double",
                                                        "defaultValue" : 716.880498533367,
                                                        "interp" : "eioe"
                                                      },
                                                      "translation1" : {
                                                        "type" : "double",
                                                        "defaultValue" : 84.1214344281821,
                                                        "interp" : "eioe"
                                                      }
                                                    },
                                                    "effects" : [

                                                    ],
                                                    "start" : 170,
                                                    "duration" : 13,
                                                    "mediaStart" : 0,
                                                    "mediaDuration" : 1,
                                                    "scalar" : 1,
                                                    "metadata" : {
                                                      "clipSpeedAttribute" : false
                                                    },
                                                    "animationTracks" : {

                                                    }
                                                  },
                                                  {
                                                    "id" : 458,
                                                    "_type" : "IMFile",
                                                    "src" : 37,
                                                    "trackNumber" : 0,
                                                    "trimStartSum" : 0,
                                                    "attributes" : {
                                                      "ident" : "cronjob-128"
                                                    },
                                                    "parameters" : {
                                                      "translation0" : {
                                                        "type" : "double",
                                                        "defaultValue" : 870.880498533812,
                                                        "interp" : "eioe"
                                                      },
                                                      "translation1" : {
                                                        "type" : "double",
                                                        "defaultValue" : 135.81875444932,
                                                        "interp" : "eioe"
                                                      }
                                                    },
                                                    "effects" : [

                                                    ],
                                                    "start" : 183,
                                                    "duration" : 17,
                                                    "mediaStart" : 0,
                                                    "mediaDuration" : 1,
                                                    "scalar" : 1,
                                                    "metadata" : {
                                                      "clipSpeedAttribute" : false
                                                    },
                                                    "animationTracks" : {

                                                    }
                                                  }
                                                ],
                                                  "ident" : "",
                                                  "audioMuted" : false,
                                                  "videoHidden" : false,
                                                  "magnetic" : false,
                                                  "matte" : 0,
                                                  "metadata" : {
                                                    "IsLocked" : "False",
                                                    "WinTrackHeight" : "3.6077993365582e-314"
                                                  }
                                              }
                                            ],
                                            "attributes" : {
                                              "ident" : "Group 1",
                                              "gain" : 1.0,
                                              "mixToMono" : false
                                            },
                                            "effects" : [

                                            ],
                                            "start" : 0,
                                            "duration" : 200,
                                            "mediaStart" : 0.0,
                                            "mediaDuration" : 200.0,
                                            "scalar" : 1,
                                            "metadata" : {
                                              "IsGroupExpanded" : "False"
                                            },
                                            "animationTracks" : {

                                            }
                                          }
                                        ],
                                          "ident" : "",
                                          "audioMuted" : false,
                                          "videoHidden" : false,
                                          "magnetic" : false,
                                          "matte" : 0,
                                          "metadata" : {
                                            "IsLocked" : "False",
                                            "WinTrackHeight" : "0"
                                          }
                                      },
                                      {
                                        "trackIndex" : 1,
                                        "medias" : [
                                          {
                                            "id" : 459,
                                            "_type" : "IMFile",
                                            "src" : 38,
                                            "trackNumber" : 0,
                                            "trimStartSum" : 0,
                                            "attributes" : {
                                              "ident" : "k8sfavicon"
                                            },
                                            "parameters" : {
                                              "translation0" : {
                                                "type" : "double",
                                                "defaultValue" : -822.559750733209,
                                                "interp" : "eioe"
                                              },
                                              "translation1" : {
                                                "type" : "double",
                                                "defaultValue" : 466.970094438544,
                                                "interp" : "eioe"
                                              },
                                              "scale0" : {
                                                "type" : "double",
                                                "defaultValue" : 0.335937500000757,
                                                "interp" : "eioe"
                                              },
                                              "scale1" : {
                                                "type" : "double",
                                                "defaultValue" : 0.335937500000757,
                                                "interp" : "eioe"
                                              }
                                            },
                                            "effects" : [

                                            ],
                                            "start" : 0,
                                            "duration" : 200,
                                            "mediaStart" : 0,
                                            "mediaDuration" : 1,
                                            "scalar" : 1,
                                            "metadata" : {
                                              "clipSpeedAttribute" : false
                                            },
                                            "animationTracks" : {

                                            }
                                          }
                                        ],
                                          "ident" : "",
                                          "audioMuted" : false,
                                          "videoHidden" : false,
                                          "magnetic" : false,
                                          "matte" : 0,
                                          "metadata" : {
                                            "IsLocked" : "False",
                                            "WinTrackHeight" : "3.6077993365582e-314"
                                          }
                                      }
                                    ],
                                    "attributes" : {
                                      "ident" : "Group 2",
                                      "gain" : 1.0,
                                      "mixToMono" : false
                                    },
                                    "effects" : [

                                    ],
                                    "start" : 0,
                                    "duration" : 200,
                                    "mediaStart" : 0.0,
                                    "mediaDuration" : 200.0,
                                    "scalar" : 1,
                                    "metadata" : {
                                      "IsGroupExpanded" : "False"
                                    },
                                    "animationTracks" : {

                                    }
                                  }
                                ],
                                  "ident" : "",
                                  "audioMuted" : false,
                                  "videoHidden" : false,
                                  "magnetic" : false,
                                  "matte" : 0,
                                  "metadata" : {
                                    "IsLocked" : "False",
                                    "WinTrackHeight" : "0"
                                  }
                              },
                              {
                                "trackIndex" : 1,
                                "medias" : [
                                  {
                                    "id" : 460,
                                    "_type" : "AMFile",
                                    "src" : 39,
                                    "trackNumber" : 0,
                                    "attributes" : {
                                      "ident" : "wave",
                                      "gain" : 1.0,
                                      "mixToMono" : false
                                    },
                                      "channelNumber" : "0,1",
                                    "parameters" : {
                                      "volume" : {
                                        "type" : "double",
                                        "keyframes" : [
                                          {
                                            "endTime" : -1,
                                            "time" : -1,
                                            "value" : 1.0,
                                            "duration" : 0
                                          },
                                          {
                                            "endTime" : 0,
                                            "time" : 0,
                                            "value" : 0.0,
                                            "duration" : 0
                                          },
                                          {
                                            "endTime" : 82,
                                            "time" : 82,
                                            "value" : 0.384615384615384,
                                            "duration" : 0
                                          }
                                        ]
                                      }
                                    },
                                    "effects" : [

                                    ],
                                    "start" : 0,
                                    "duration" : 103,
                                    "mediaStart" : 0,
                                    "mediaDuration" : 103,
                                    "scalar" : 1,
                                    "metadata" : {
                                      "clipSpeedAttribute" : false
                                    },
                                    "animationTracks" : {

                                    }
                                  },
                                  {
                                    "id" : 461,
                                    "_type" : "AMFile",
                                    "src" : 39,
                                    "trackNumber" : 0,
                                    "attributes" : {
                                      "ident" : "wave",
                                      "gain" : 1.0,
                                      "mixToMono" : false
                                    },
                                      "channelNumber" : "0,1",
                                    "parameters" : {
                                      "volume" : {
                                        "type" : "double",
                                        "keyframes" : [
                                          {
                                            "endTime" : 0,
                                            "time" : 0,
                                            "value" : 0.770507364975449,
                                            "duration" : 0
                                          },
                                          {
                                            "endTime" : 134,
                                            "time" : 134,
                                            "value" : 0.232045826513911,
                                            "duration" : 0
                                          },
                                          {
                                            "endTime" : 200,
                                            "time" : 200,
                                            "value" : 0.0,
                                            "duration" : 0
                                          },
                                          {
                                            "endTime" : 201,
                                            "time" : 201,
                                            "value" : 1.0,
                                            "duration" : 0
                                          }
                                        ]
                                      }
                                    },
                                    "effects" : [

                                    ],
                                    "start" : 103,
                                    "duration" : 97,
                                    "mediaStart" : 103,
                                    "mediaDuration" : 97,
                                    "scalar" : 1,
                                    "metadata" : {
                                      "clipSpeedAttribute" : false
                                    },
                                    "animationTracks" : {

                                    }
                                  }
                                ],
                                  "ident" : "",
                                  "audioMuted" : false,
                                  "videoHidden" : false,
                                  "magnetic" : false,
                                  "matte" : 0,
                                  "metadata" : {
                                    "IsLocked" : "False",
                                    "WinTrackHeight" : "2.26715762571713e-312"
                                  }
                              }
                            ],
                            "attributes" : {
                              "ident" : "Group 1",
                              "gain" : 1.0,
                              "mixToMono" : false
                            },
                            "effects" : [

                            ],
                            "start" : 0,
                            "duration" : 200,
                            "mediaStart" : 0.0,
                            "mediaDuration" : 200.0,
                            "scalar" : 1,
                            "metadata" : {
                              "IsGroupExpanded" : "False"
                            },
                            "animationTracks" : {

                            }
                          }
                        ],
                          "ident" : "",
                          "audioMuted" : false,
                          "videoHidden" : false,
                          "magnetic" : false,
                          "matte" : 0,
                          "metadata" : {
                            "IsLocked" : "False",
                            "WinTrackHeight" : "5.19772911770247e-312"
                          }
                      }
                    ],
                    "attributes" : {
                      "ident" : "end",
                      "gain" : 1.0,
                      "mixToMono" : false
                    },
                    "effects" : [

                    ],
                    "start" : 5914,
                    "duration" : 200,
                    "mediaStart" : 0.0,
                    "mediaDuration" : 200.0,
                    "scalar" : 1,
                    "metadata" : {
                      "IsGroupExpanded" : "False"
                    },
                    "animationTracks" : {

                    }
                  }
                ]
              },
              {
                "trackIndex" : 2,
                "medias" : [
                ]
              }
            ]
          }
        }
      ]
    },
    "trackAttributes" : [
      {
        "ident" : "",
        "audioMuted" : false,
        "videoHidden" : false,
        "magnetic" : false,
        "matte" : 0,
        "metadata" : {
          "IsLocked" : "False",
          "WinTrackHeight" : "56"
        }
      },
      {
        "ident" : "",
        "audioMuted" : false,
        "videoHidden" : false,
        "magnetic" : false,
        "matte" : 0,
        "metadata" : {
          "IsLocked" : "False",
          "WinTrackHeight" : "56"
        }
      },
      {
        "ident" : "",
        "audioMuted" : false,
        "videoHidden" : false,
        "magnetic" : false,
        "matte" : 0,
        "metadata" : {
          "IsLocked" : "False",
          "WinTrackHeight" : "56"
        }
      }
    ],
    "captionAttributes" : {
      "enabled" : true,
      "fontName" : "Arial",
      "fontSize" : 64,
      "backgroundColor" : [ 0, 0, 0, 191],
      "foregroundColor" : [ 255, 255, 255, 255],
      "lang" : "en",
      "alignment" : 0,
      "defaultFontSize" : true,
      "opacity" : 0.5,
      "backgroundEnabled" : true,
      "backgroundOnlyAroundText" : true
    },
    "backgroundColor" : [ 30, 30, 30, 255]
  },
  "metadata" : {
    "AutoSaveFile" : "C:\\Users\\lianduan\\AppData\\Local\\TechSmith\\Camtasia Studio\\19.0\\Auto-Saves\\2-4 Install K8S Plugin in VS Codec9bb044.autosave.tscproj",
    "CanvasZoom" : 50,
    "Date" : "2021-01-08 03:03:11 PM",
    "Fit" : 0,
    "IsAutoSave" : "0",
    "Language" : "ENU",
    "ProfileName" : "",
    "ProjectDimensionsChanged" : "1",
    "Title" : "2-4 Install K8s Plugin in VS Code",
    "audioNarrationNotes" : "",
    "calloutStyle" : "Basic",
    "canvasDetached" : "False",
    "canvasPositionHeight" : "0",
    "canvasPositionLeft" : "0",
    "canvasPositionTop" : "0",
    "canvasPositionWidth" : "0"
  }
}
