{
  "title" : "",
  "description" : "",
  "author" : "",
  "targetLoudness" : -18.0,
  "shouldApplyLoudnessNormalization" : true,
  "videoFormatFrameRate" : 30,
  "audioFormatSampleRate" : 44100,
  "width" : 1920.0,
  "height" : 1080.0,
  "version" : "3.0",
  "editRate" : 30,
  "authoringClientName" :  {
    "name" : "Camtasia",
    "platform" : "Windows",
    "version" : "19.0"
  },
  "sourceBin" : [
    {
      "id" : 1,
      "src" : "C:\\Users\\lianduan\\Pictures\\wave1.png",
      "rect" : [0, 0, 1907, 383],
      "lastMod" : "20210105T163238",
      "sourceTracks" : [
        {
          "range" : [0, 1],
          "type" : 1,
          "editRate" : 10000000,
          "trackRect" : [0, 0, 1907, 383],
          "sampleRate" : 0,
          "bitDepth" : 24,
          "numChannels" : 0,
          "integratedLUFS" : 100.0,
          "peakLevel" : -1.0,
          "metaData" : ""
        }
      ],
      "metadata" : {
        "timeAdded" : "20210105T020933.813247"
      }
    },
    {
      "id" : 2,
      "src" : "C:\\Users\\lianduan\\Pictures\\wave2.png",
      "rect" : [0, 0, 1906, 341],
      "lastMod" : "20210105T163731",
      "sourceTracks" : [
        {
          "range" : [0, 1],
          "type" : 1,
          "editRate" : 10000000,
          "trackRect" : [0, 0, 1906, 341],
          "sampleRate" : 0,
          "bitDepth" : 24,
          "numChannels" : 0,
          "integratedLUFS" : 100.0,
          "peakLevel" : -1.0,
          "metaData" : ""
        }
      ],
      "metadata" : {
        "timeAdded" : "20210105T020940.105201"
      }
    },
    {
      "id" : 3,
      "src" : "C:\\Users\\lianduan\\Pictures\\wave3.png",
      "rect" : [0, 0, 1903, 380],
      "lastMod" : "20210105T163725",
      "sourceTracks" : [
        {
          "range" : [0, 1],
          "type" : 1,
          "editRate" : 10000000,
          "trackRect" : [0, 0, 1903, 380],
          "sampleRate" : 0,
          "bitDepth" : 24,
          "numChannels" : 0,
          "integratedLUFS" : 100.0,
          "peakLevel" : -1.0,
          "metaData" : ""
        }
      ],
      "metadata" : {
        "timeAdded" : "20210105T020943.627110"
      }
    },
    {
      "id" : 4,
      "src" : "C:\\Users\\lianduan\\Downloads\\community-master\\icons\\png\\infrastructure_components\\labeled\\control-plane-128.png",
      "rect" : [0, 0, 128, 128],
      "lastMod" : "20201224T160827",
      "sourceTracks" : [
        {
          "range" : [0, 1],
          "type" : 1,
          "editRate" : 10000000,
          "trackRect" : [0, 0, 128, 128],
          "sampleRate" : 0,
          "bitDepth" : 32,
          "numChannels" : 0,
          "integratedLUFS" : 100.0,
          "peakLevel" : -1.0,
          "metaData" : ""
        }
      ],
      "metadata" : {
        "timeAdded" : "20210105T021447.766528"
      }
    },
    {
      "id" : 5,
      "src" : "C:\\Users\\lianduan\\Downloads\\community-master\\icons\\png\\infrastructure_components\\labeled\\etcd-128.png",
      "rect" : [0, 0, 128, 128],
      "lastMod" : "20201224T160827",
      "sourceTracks" : [
        {
          "range" : [0, 1],
          "type" : 1,
          "editRate" : 10000000,
          "trackRect" : [0, 0, 128, 128],
          "sampleRate" : 0,
          "bitDepth" : 32,
          "numChannels" : 0,
          "integratedLUFS" : 100.0,
          "peakLevel" : -1.0,
          "metaData" : ""
        }
      ],
      "metadata" : {
        "timeAdded" : "20210105T021513.835446"
      }
    },
    {
      "id" : 6,
      "src" : "C:\\Users\\lianduan\\Downloads\\community-master\\icons\\png\\infrastructure_components\\labeled\\node-128.png",
      "rect" : [0, 0, 128, 128],
      "lastMod" : "20201224T160827",
      "sourceTracks" : [
        {
          "range" : [0, 1],
          "type" : 1,
          "editRate" : 10000000,
          "trackRect" : [0, 0, 128, 128],
          "sampleRate" : 0,
          "bitDepth" : 32,
          "numChannels" : 0,
          "integratedLUFS" : 100.0,
          "peakLevel" : -1.0,
          "metaData" : ""
        }
      ],
      "metadata" : {
        "timeAdded" : "20210105T021531.992818"
      }
    },
    {
      "id" : 7,
      "src" : "C:\\Users\\lianduan\\Downloads\\community-master\\icons\\png\\resources\\labeled\\svc-128.png",
      "rect" : [0, 0, 128, 128],
      "lastMod" : "20201224T160827",
      "sourceTracks" : [
        {
          "range" : [0, 1],
          "type" : 1,
          "editRate" : 10000000,
          "trackRect" : [0, 0, 128, 128],
          "sampleRate" : 0,
          "bitDepth" : 32,
          "numChannels" : 0,
          "integratedLUFS" : 100.0,
          "peakLevel" : -1.0,
          "metaData" : ""
        }
      ],
      "metadata" : {
        "timeAdded" : "20210105T021643.565607"
      }
    },
    {
      "id" : 8,
      "src" : "C:\\Users\\lianduan\\Downloads\\community-master\\icons\\png\\resources\\labeled\\ns-128.png",
      "rect" : [0, 0, 128, 128],
      "lastMod" : "20201224T160827",
      "sourceTracks" : [
        {
          "range" : [0, 1],
          "type" : 1,
          "editRate" : 10000000,
          "trackRect" : [0, 0, 128, 128],
          "sampleRate" : 0,
          "bitDepth" : 32,
          "numChannels" : 0,
          "integratedLUFS" : 100.0,
          "peakLevel" : -1.0,
          "metaData" : ""
        }
      ],
      "metadata" : {
        "timeAdded" : "20210105T021952.265209"
      }
    },
    {
      "id" : 9,
      "src" : "C:\\Users\\lianduan\\Downloads\\community-master\\icons\\png\\resources\\labeled\\pod-128.png",
      "rect" : [0, 0, 128, 128],
      "lastMod" : "20201224T160827",
      "sourceTracks" : [
        {
          "range" : [0, 1],
          "type" : 1,
          "editRate" : 10000000,
          "trackRect" : [0, 0, 128, 128],
          "sampleRate" : 0,
          "bitDepth" : 32,
          "numChannels" : 0,
          "integratedLUFS" : 100.0,
          "peakLevel" : -1.0,
          "metaData" : ""
        }
      ],
      "metadata" : {
        "timeAdded" : "20210105T022001.268764"
      }
    },
    {
      "id" : 10,
      "src" : "C:\\Users\\lianduan\\Downloads\\community-master\\icons\\png\\resources\\labeled\\secret-128.png",
      "rect" : [0, 0, 128, 128],
      "lastMod" : "20201224T160827",
      "sourceTracks" : [
        {
          "range" : [0, 1],
          "type" : 1,
          "editRate" : 10000000,
          "trackRect" : [0, 0, 128, 128],
          "sampleRate" : 0,
          "bitDepth" : 32,
          "numChannels" : 0,
          "integratedLUFS" : 100.0,
          "peakLevel" : -1.0,
          "metaData" : ""
        }
      ],
      "metadata" : {
        "timeAdded" : "20210105T022106.992783"
      }
    },
    {
      "id" : 11,
      "src" : "C:\\Users\\lianduan\\Downloads\\community-master\\icons\\png\\resources\\labeled\\rs-128.png",
      "rect" : [0, 0, 128, 128],
      "lastMod" : "20201224T160827",
      "sourceTracks" : [
        {
          "range" : [0, 1],
          "type" : 1,
          "editRate" : 10000000,
          "trackRect" : [0, 0, 128, 128],
          "sampleRate" : 0,
          "bitDepth" : 32,
          "numChannels" : 0,
          "integratedLUFS" : 100.0,
          "peakLevel" : -1.0,
          "metaData" : ""
        }
      ],
      "metadata" : {
        "timeAdded" : "20210105T022252.536962"
      }
    },
    {
      "id" : 12,
      "src" : "C:\\Users\\lianduan\\Downloads\\community-master\\icons\\png\\resources\\labeled\\vol-128.png",
      "rect" : [0, 0, 128, 128],
      "lastMod" : "20201224T160827",
      "sourceTracks" : [
        {
          "range" : [0, 1],
          "type" : 1,
          "editRate" : 10000000,
          "trackRect" : [0, 0, 128, 128],
          "sampleRate" : 0,
          "bitDepth" : 32,
          "numChannels" : 0,
          "integratedLUFS" : 100.0,
          "peakLevel" : -1.0,
          "metaData" : ""
        }
      ],
      "metadata" : {
        "timeAdded" : "20210105T022328.094803"
      }
    },
    {
      "id" : 13,
      "src" : "C:\\Users\\lianduan\\Downloads\\community-master\\icons\\png\\resources\\labeled\\deploy-128.png",
      "rect" : [0, 0, 128, 128],
      "lastMod" : "20201224T160827",
      "sourceTracks" : [
        {
          "range" : [0, 1],
          "type" : 1,
          "editRate" : 10000000,
          "trackRect" : [0, 0, 128, 128],
          "sampleRate" : 0,
          "bitDepth" : 32,
          "numChannels" : 0,
          "integratedLUFS" : 100.0,
          "peakLevel" : -1.0,
          "metaData" : ""
        }
      ],
      "metadata" : {
        "timeAdded" : "20210105T022409.419270"
      }
    },
    {
      "id" : 14,
      "src" : "C:\\Users\\lianduan\\Downloads\\community-master\\icons\\png\\resources\\labeled\\cronjob-128.png",
      "rect" : [0, 0, 128, 128],
      "lastMod" : "20201224T160827",
      "sourceTracks" : [
        {
          "range" : [0, 1],
          "type" : 1,
          "editRate" : 10000000,
          "trackRect" : [0, 0, 128, 128],
          "sampleRate" : 0,
          "bitDepth" : 32,
          "numChannels" : 0,
          "integratedLUFS" : 100.0,
          "peakLevel" : -1.0,
          "metaData" : ""
        }
      ],
      "metadata" : {
        "timeAdded" : "20210105T022442.203038"
      }
    },
    {
      "id" : 15,
      "src" : "C:\\Users\\lianduan\\Pictures\\k8sfavicon.png",
      "rect" : [0, 0, 512, 512],
      "lastMod" : "20210105T165021",
      "sourceTracks" : [
        {
          "range" : [0, 1],
          "type" : 1,
          "editRate" : 10000000,
          "trackRect" : [0, 0, 512, 512],
          "sampleRate" : 0,
          "bitDepth" : 32,
          "numChannels" : 0,
          "integratedLUFS" : 100.0,
          "peakLevel" : -1.0,
          "metaData" : ""
        }
      ],
      "metadata" : {
        "timeAdded" : "20210105T165032.539149"
      }
    },
    {
      "id" : 16,
      "src" : "C:\\Users\\lianduan\\Videos\\4K Video Downloader\\wave.mp3",
      "rect" : [0, 0, 0, 0],
      "lastMod" : "20210105T195352",
      "sourceTracks" : [
        {
          "range" : [0, 185467500],
          "type" : 2,
          "editRate" : 10000000,
          "trackRect" : [0, 0, 0, 0],
          "sampleRate" : 44100,
          "bitDepth" : 0,
          "numChannels" : 2,
          "integratedLUFS" : -16.6955131625049,
          "peakLevel" : 0.940275430679321,
          "metaData" : ""
        }
      ],
      "metadata" : {
        "timeAdded" : "20210105T195921.787553"
      }
    }
  ],
  "timeline" : {
    "id" : 17,
    "sceneTrack" : {
      "scenes" : [
        {
          "duration" : 6.66666666666667,
          "title" : "",
          "type" : "",
          "csml" : {
            "tracks" : [
              {
                "trackIndex" : 0,
                "medias" : [
                  {
                    "id" : 18,
                    "_type" : "Callout",
                    "def" : {
                      "kind" : "remix",
                      "shape" : "text",
                      "style" : "basic",
                      "height" : 294.0,
                      "line-spacing" : 0.0,
                      "width" : 1174.38904109587,
                      "word-wrap" : 1.0,
                      "horizontal-alignment" : "center",
                      "resize-behavior" : "resizeText",
                      "text" : "Thanks",
                      "vertical-alignment" : "center",
                      "font" : {
                        "color-blue" : 1.0,
                        "color-green" : 1.0,
                        "color-red" : 1.0,
                        "size" : 96.0,
                        "tracking" : 0.0,
                        "name" : "Montserrat",
                        "weight" : "Regular"
                      },
                      "textAttributes" : {
                        "type" : "textAttributeList",
                        "keyframes" : [
                          {
                            "endTime" : 0,
                            "time" : 0,
                            "value" : [{"name":"fontWeight","rangeEnd":6,"rangeStart":0,"value":700,"valueType":"int"},{"name":"fontName","rangeEnd":6,"rangeStart":0,"value":"Montserrat","valueType":"string"},{"name":"fontItalic","rangeEnd":6,"rangeStart":0,"value":0,"valueType":"int"},{"name":"kerning","rangeEnd":6,"rangeStart":0,"value":0,"valueType":"double"},{"name":"strikethrough","rangeEnd":6,"rangeStart":0,"value":0,"valueType":"int"},{"name":"fgColor","rangeEnd":6,"rangeStart":0,"value":"(50,108,229,255)","valueType":"color"},{"name":"underline","rangeEnd":6,"rangeStart":0,"value":0,"valueType":"int"},{"name":"fontSize","rangeEnd":6,"rangeStart":0,"value":240,"valueType":"double"}],
                            "duration" : 0
                          }
                        ]
                      }
                    },
                    "attributes" : {
                      "autoRotateText" : true
                    },
                    "parameters" : {
                      "translation0" : -22.4178082191042,
                      "translation1" : 1.319122588261e-11
                    },
                    "effects" : [
                        {
                          "_type" : "GenericBehaviorEffect",
                          "effectName" : "pulsating",
                          "start" : -102,
                          "duration" : 200                        ,
                          "in" : {
                            "attributes" : {
                              "name" : "grow",
                              "type" : 1,
                              "characterOrder" : 6,
                              "offsetBetweenCharacters" : 1,
                              "suggestedDurationPerCharacter" : 18,
                              "overlapProportion" : "3/4",
                              "movement" : 30,
                              "springDamping" : 5.0,
                              "springStiffness" : 50.0,
                              "bounceBounciness" : 0.45
                            }
                          
                          },
                          "center" : {
                            "attributes" : {
                              "name" : "pulsate",
                              "type" : 1,
                              "characterOrder" : 6,
                              "offsetBetweenCharacters" : "21/10",
                              "secondsPerLoop" : 1,
                              "numberOfLoops" : -1,
                              "delayBetweenLoops" : 0,
                              "offsetBetweenCharacters" : "21/10"
                            },
                            "parameters" : {
                              "movement" : {
                                "type" : "int",
                                "valueBounds" : {
                                  "minValue" : 0,
                                  "maxValue" : 31,
                                  "defaultValue" : 27
                                },
                                "uiHints" : {
                                  "userInterfaceType" : 4,
                                  "unitType" : 0
                                },
                                "keyframes" : [
                                  {
                                    "endTime" : 0,
                                    "time" : 0,
                                    "value" : 27,
                                    "duration" : 0
                                  }
                                ]
                              },
                              "scale" : {
                                "type" : "double",
                                "defaultValue" : 1.08,
                                "valueBounds" : {
                                  "minValue" : 0.01,
                                  "maxValue" : 2.0,
                                  "defaultValue" : 1.08
                                },
                                "uiHints" : {
                                  "userInterfaceType" : 1,
                                  "unitType" : 1
                                }
                              }
                            }
                          
                          },
                          "out" : {
                            "attributes" : {
                              "name" : "shrink",
                              "type" : 1,
                              "characterOrder" : 6,
                              "offsetBetweenCharacters" : 1,
                              "suggestedDurationPerCharacter" : "29/2",
                              "overlapProportion" : "1/10",
                              "movement" : 11,
                              "springDamping" : 5.0,
                              "springStiffness" : 50.0,
                              "bounceBounciness" : 0.45
                            }
                          
                          }
                        }
                    ],
                    "start" : 0,
                    "duration" : 103,
                    "mediaStart" : -102,
                    "mediaDuration" : 103,
                    "scalar" : 1,
                    "metadata" : {
                      "clipSpeedAttribute" : false,
                      "default-HAlign" : "center",
                      "default-LineSpace" : 0.0,
                      "default-VAlign" : "center",
                      "default-text-attributes" : "[{\"name\":\"fontWeight\",\"rangeEnd\":21,\"rangeStart\":0,\"value\":700,\"valueType\":\"int\"},{\"name\":\"fontItalic\",\"rangeEnd\":21,\"rangeStart\":0,\"value\":0,\"valueType\":\"int\"},{\"name\":\"fgColor\",\"rangeEnd\":21,\"rangeStart\":0,\"value\":\"(216,222,227,255)\",\"valueType\":\"color\"},{\"name\":\"fontSize\",\"rangeEnd\":21,\"rangeStart\":0,\"value\":96,\"valueType\":\"double\"},{\"name\":\"strikethrough\",\"rangeEnd\":21,\"rangeStart\":0,\"value\":0,\"valueType\":\"int\"},{\"name\":\"fontName\",\"rangeEnd\":21,\"rangeStart\":0,\"value\":\"Montserrat\",\"valueType\":\"string\"},{\"name\":\"underline\",\"rangeEnd\":21,\"rangeStart\":0,\"value\":0,\"valueType\":\"int\"},{\"name\":\"kerning\",\"rangeEnd\":21,\"rangeStart\":0,\"value\":0,\"valueType\":\"double\"}]"
                    },
                    "animationTracks" : {

                    }
                  },
                  {
                    "id" : 19,
                    "_type" : "Callout",
                    "def" : {
                      "kind" : "remix",
                      "shape" : "text",
                      "style" : "basic",
                      "height" : 294.0,
                      "line-spacing" : 0.0,
                      "width" : 1174.38904109587,
                      "word-wrap" : 1.0,
                      "horizontal-alignment" : "center",
                      "resize-behavior" : "resizeText",
                      "text" : "Thanks",
                      "vertical-alignment" : "center",
                      "font" : {
                        "color-blue" : 1.0,
                        "color-green" : 1.0,
                        "color-red" : 1.0,
                        "size" : 96.0,
                        "tracking" : 0.0,
                        "name" : "Montserrat",
                        "weight" : "Regular"
                      },
                      "textAttributes" : {
                        "type" : "textAttributeList",
                        "keyframes" : [
                          {
                            "endTime" : 0,
                            "time" : 0,
                            "value" : [{"name":"fontName","rangeEnd":6,"rangeStart":0,"value":"Montserrat","valueType":"string"},{"name":"kerning","rangeEnd":6,"rangeStart":0,"value":0,"valueType":"double"},{"name":"strikethrough","rangeEnd":6,"rangeStart":0,"value":0,"valueType":"int"},{"name":"fontSize","rangeEnd":6,"rangeStart":0,"value":240,"valueType":"double"},{"name":"fontItalic","rangeEnd":6,"rangeStart":0,"value":0,"valueType":"int"},{"name":"fontWeight","rangeEnd":6,"rangeStart":0,"value":700,"valueType":"int"},{"name":"fgColor","rangeEnd":6,"rangeStart":0,"value":"(50,108,229,255)","valueType":"color"},{"name":"underline","rangeEnd":6,"rangeStart":0,"value":0,"valueType":"int"}],
                            "duration" : 0
                          }
                        ]
                      }
                    },
                    "attributes" : {
                      "autoRotateText" : true
                    },
                    "parameters" : {
                      "translation0" : -74.4178082188969,
                      "translation1" : 4.13429290734252e-11
                    },
                    "effects" : [
                        {
                          "_type" : "GenericBehaviorEffect",
                          "effectName" : "pulsating",
                          "start" : -102,
                          "duration" : 200                        ,
                          "in" : {
                            "attributes" : {
                              "name" : "grow",
                              "type" : 1,
                              "characterOrder" : 6,
                              "offsetBetweenCharacters" : 1,
                              "suggestedDurationPerCharacter" : 18,
                              "overlapProportion" : "3/4",
                              "movement" : 30,
                              "springDamping" : 5.0,
                              "springStiffness" : 50.0,
                              "bounceBounciness" : 0.45
                            }
                          
                          },
                          "center" : {
                            "attributes" : {
                              "name" : "pulsate",
                              "type" : 1,
                              "characterOrder" : 6,
                              "offsetBetweenCharacters" : "21/10",
                              "secondsPerLoop" : 1,
                              "numberOfLoops" : -1,
                              "delayBetweenLoops" : 0,
                              "offsetBetweenCharacters" : "21/10"
                            },
                            "parameters" : {
                              "movement" : {
                                "type" : "int",
                                "valueBounds" : {
                                  "minValue" : 0,
                                  "maxValue" : 31,
                                  "defaultValue" : 27
                                },
                                "uiHints" : {
                                  "userInterfaceType" : 4,
                                  "unitType" : 0
                                },
                                "keyframes" : [
                                  {
                                    "endTime" : 0,
                                    "time" : 0,
                                    "value" : 27,
                                    "duration" : 0
                                  }
                                ]
                              },
                              "scale" : {
                                "type" : "double",
                                "defaultValue" : 1.08,
                                "valueBounds" : {
                                  "minValue" : 0.01,
                                  "maxValue" : 2.0,
                                  "defaultValue" : 1.08
                                },
                                "uiHints" : {
                                  "userInterfaceType" : 1,
                                  "unitType" : 1
                                }
                              }
                            }
                          
                          },
                          "out" : {
                            "attributes" : {
                              "name" : "shrink",
                              "type" : 1,
                              "characterOrder" : 6,
                              "offsetBetweenCharacters" : 1,
                              "suggestedDurationPerCharacter" : "29/2",
                              "overlapProportion" : "1/10",
                              "movement" : 11,
                              "springDamping" : 5.0,
                              "springStiffness" : 50.0,
                              "bounceBounciness" : 0.45
                            }
                          
                          }
                        }
                    ],
                    "start" : 103,
                    "duration" : 97,
                    "mediaStart" : 1,
                    "mediaDuration" : 97,
                    "scalar" : 1,
                    "metadata" : {
                      "clipSpeedAttribute" : false,
                      "default-HAlign" : "center",
                      "default-LineSpace" : 0.0,
                      "default-VAlign" : "center",
                      "default-text-attributes" : "[{\"name\":\"fontWeight\",\"rangeEnd\":21,\"rangeStart\":0,\"value\":700,\"valueType\":\"int\"},{\"name\":\"fontItalic\",\"rangeEnd\":21,\"rangeStart\":0,\"value\":0,\"valueType\":\"int\"},{\"name\":\"fgColor\",\"rangeEnd\":21,\"rangeStart\":0,\"value\":\"(216,222,227,255)\",\"valueType\":\"color\"},{\"name\":\"fontSize\",\"rangeEnd\":21,\"rangeStart\":0,\"value\":96,\"valueType\":\"double\"},{\"name\":\"strikethrough\",\"rangeEnd\":21,\"rangeStart\":0,\"value\":0,\"valueType\":\"int\"},{\"name\":\"fontName\",\"rangeEnd\":21,\"rangeStart\":0,\"value\":\"Montserrat\",\"valueType\":\"string\"},{\"name\":\"underline\",\"rangeEnd\":21,\"rangeStart\":0,\"value\":0,\"valueType\":\"int\"},{\"name\":\"kerning\",\"rangeEnd\":21,\"rangeStart\":0,\"value\":0,\"valueType\":\"double\"}]",
                      "default-translation0" : -22.4178082191042,
                      "default-translation1" : 1.319122588261e-11
                    },
                    "animationTracks" : {

                    }
                  }
                ]
              },
              {
                "trackIndex" : 1,
                "medias" : [
                  {
                    "id" : 20,
                    "_type" : "Group",
                    "parameters" : {
                      "translation0" : 0.559750733332294,
                      "translation1" : -34.4850472193567,
                      "volume" : 1.0
                    },
                    "tracks" : [
                      {
                        "trackIndex" : 0,
                        "medias" : [
                          {
                            "id" : 21,
                            "_type" : "Group",
                            "parameters" : {
                              "translation0" : 4.44089209850063e-16,
                              "translation1" : -34.4850472193565,
                              "volume" : 1.0
                            },
                            "tracks" : [
                              {
                                "trackIndex" : 0,
                                "medias" : [
                                  {
                                    "id" : 22,
                                    "_type" : "Group",
                                    "parameters" : {
                                      "translation0" : 0.55975073333218,
                                      "translation1" : -289.15133998951,
                                      "volume" : 1.0
                                    },
                                    "tracks" : [
                                      {
                                        "trackIndex" : 0,
                                        "medias" : [
                                          {
                                            "id" : 23,
                                            "_type" : "IMFile",
                                            "src" : 1,
                                            "trackNumber" : 0,
                                            "trimStartSum" : 0,
                                            "attributes" : {
                                              "ident" : "wave1"
                                            },
                                            "parameters" : {
                                              "translation0" : -2.11950146613311,
                                              "translation1" : 8.96940103546206,
                                              "scale0" : 1.02884111169424,
                                              "scale1" : 1.02884111169424
                                            },
                                            "effects" : [

                                            ],
                                            "start" : 0,
                                            "duration" : 6,
                                            "mediaStart" : 0,
                                            "mediaDuration" : 1,
                                            "scalar" : 1,
                                            "metadata" : {
                                              "clipSpeedAttribute" : false,
                                              "default-scale0" : 1.0,
                                              "default-scale1" : 1.0,
                                              "default-translation0" : -0.5,
                                              "default-translation1" : -0.5
                                            },
                                            "animationTracks" : {

                                            }
                                          },
                                          {
                                            "id" : 24,
                                            "_type" : "IMFile",
                                            "src" : 2,
                                            "trackNumber" : 0,
                                            "trimStartSum" : 0,
                                            "attributes" : {
                                              "ident" : "wave2"
                                            },
                                            "parameters" : {
                                              "translation0" : 0.880498533167186,
                                              "translation1" : -88.087642172052,
                                              "scale0" : 1.03068101042332,
                                              "scale1" : 1.03068101042332
                                            },
                                            "effects" : [

                                            ],
                                            "start" : 6,
                                            "duration" : 6,
                                            "mediaStart" : 0,
                                            "mediaDuration" : 1,
                                            "scalar" : 1,
                                            "metadata" : {
                                              "clipSpeedAttribute" : false,
                                              "default-scale0" : 1.0,
                                              "default-scale1" : 1.0,
                                              "default-translation0" : 0.0,
                                              "default-translation1" : -0.5
                                            },
                                            "animationTracks" : {

                                            }
                                          },
                                          {
                                            "id" : 25,
                                            "_type" : "IMFile",
                                            "src" : 3,
                                            "trackNumber" : 0,
                                            "trimStartSum" : 0,
                                            "attributes" : {
                                              "ident" : "wave3"
                                            },
                                            "parameters" : {
                                              "translation0" : -1.11950146655987,
                                              "translation1" : 8.12143442823202,
                                              "scale0" : 1.00893326326855,
                                              "scale1" : 1.00893326326855
                                            },
                                            "effects" : [

                                            ],
                                            "start" : 12,
                                            "duration" : 7,
                                            "mediaStart" : 0,
                                            "mediaDuration" : 1,
                                            "scalar" : 1,
                                            "metadata" : {
                                              "clipSpeedAttribute" : false,
                                              "default-scale0" : 1.0,
                                              "default-scale1" : 1.0,
                                              "default-translation0" : -0.5,
                                              "default-translation1" : 0.0
                                            },
                                            "animationTracks" : {

                                            }
                                          },
                                          {
                                            "id" : 26,
                                            "_type" : "IMFile",
                                            "src" : 1,
                                            "trackNumber" : 0,
                                            "trimStartSum" : 0,
                                            "attributes" : {
                                              "ident" : "wave1"
                                            },
                                            "parameters" : {
                                              "translation0" : -2.11950146613311,
                                              "translation1" : 8.96940103546206,
                                              "scale0" : 1.02884111169424,
                                              "scale1" : 1.02884111169424
                                            },
                                            "effects" : [

                                            ],
                                            "start" : 19,
                                            "duration" : 6,
                                            "mediaStart" : 0,
                                            "mediaDuration" : 1,
                                            "scalar" : 1,
                                            "metadata" : {
                                              "clipSpeedAttribute" : false,
                                              "default-scale0" : 1.0,
                                              "default-scale1" : 1.0,
                                              "default-translation0" : -0.5,
                                              "default-translation1" : -0.5
                                            },
                                            "animationTracks" : {

                                            }
                                          },
                                          {
                                            "id" : 27,
                                            "_type" : "IMFile",
                                            "src" : 2,
                                            "trackNumber" : 0,
                                            "trimStartSum" : 0,
                                            "attributes" : {
                                              "ident" : "wave2"
                                            },
                                            "parameters" : {
                                              "translation0" : 0.880498533167186,
                                              "translation1" : -88.087642172052,
                                              "scale0" : 1.03068101042332,
                                              "scale1" : 1.03068101042332
                                            },
                                            "effects" : [

                                            ],
                                            "start" : 25,
                                            "duration" : 6,
                                            "mediaStart" : 0,
                                            "mediaDuration" : 1,
                                            "scalar" : 1,
                                            "metadata" : {
                                              "clipSpeedAttribute" : false,
                                              "default-scale0" : 1.0,
                                              "default-scale1" : 1.0,
                                              "default-translation0" : 0.0,
                                              "default-translation1" : -0.5
                                            },
                                            "animationTracks" : {

                                            }
                                          },
                                          {
                                            "id" : 28,
                                            "_type" : "IMFile",
                                            "src" : 3,
                                            "trackNumber" : 0,
                                            "trimStartSum" : 0,
                                            "attributes" : {
                                              "ident" : "wave3"
                                            },
                                            "parameters" : {
                                              "translation0" : -1.11950146655987,
                                              "translation1" : 8.12143442823202,
                                              "scale0" : 1.00893326326855,
                                              "scale1" : 1.00893326326855
                                            },
                                            "effects" : [

                                            ],
                                            "start" : 31,
                                            "duration" : 7,
                                            "mediaStart" : 0,
                                            "mediaDuration" : 1,
                                            "scalar" : 1,
                                            "metadata" : {
                                              "clipSpeedAttribute" : false,
                                              "default-scale0" : 1.0,
                                              "default-scale1" : 1.0,
                                              "default-translation0" : -0.5,
                                              "default-translation1" : 0.0
                                            },
                                            "animationTracks" : {

                                            }
                                          },
                                          {
                                            "id" : 29,
                                            "_type" : "IMFile",
                                            "src" : 1,
                                            "trackNumber" : 0,
                                            "trimStartSum" : 0,
                                            "attributes" : {
                                              "ident" : "wave1"
                                            },
                                            "parameters" : {
                                              "translation0" : -2.11950146613311,
                                              "translation1" : 8.96940103546206,
                                              "scale0" : 1.02884111169424,
                                              "scale1" : 1.02884111169424
                                            },
                                            "effects" : [

                                            ],
                                            "start" : 38,
                                            "duration" : 6,
                                            "mediaStart" : 0,
                                            "mediaDuration" : 1,
                                            "scalar" : 1,
                                            "metadata" : {
                                              "clipSpeedAttribute" : false,
                                              "default-scale0" : 1.0,
                                              "default-scale1" : 1.0,
                                              "default-translation0" : -0.5,
                                              "default-translation1" : -0.5
                                            },
                                            "animationTracks" : {

                                            }
                                          },
                                          {
                                            "id" : 30,
                                            "_type" : "IMFile",
                                            "src" : 2,
                                            "trackNumber" : 0,
                                            "trimStartSum" : 0,
                                            "attributes" : {
                                              "ident" : "wave2"
                                            },
                                            "parameters" : {
                                              "translation0" : 0.880498533167186,
                                              "translation1" : -88.087642172052,
                                              "scale0" : 1.03068101042332,
                                              "scale1" : 1.03068101042332
                                            },
                                            "effects" : [

                                            ],
                                            "start" : 44,
                                            "duration" : 6,
                                            "mediaStart" : 0,
                                            "mediaDuration" : 1,
                                            "scalar" : 1,
                                            "metadata" : {
                                              "clipSpeedAttribute" : false,
                                              "default-scale0" : 1.0,
                                              "default-scale1" : 1.0,
                                              "default-translation0" : 0.0,
                                              "default-translation1" : -0.5
                                            },
                                            "animationTracks" : {

                                            }
                                          },
                                          {
                                            "id" : 31,
                                            "_type" : "IMFile",
                                            "src" : 3,
                                            "trackNumber" : 0,
                                            "trimStartSum" : 0,
                                            "attributes" : {
                                              "ident" : "wave3"
                                            },
                                            "parameters" : {
                                              "translation0" : -1.11950146655987,
                                              "translation1" : 8.12143442823202,
                                              "scale0" : 1.00893326326855,
                                              "scale1" : 1.00893326326855
                                            },
                                            "effects" : [

                                            ],
                                            "start" : 50,
                                            "duration" : 7,
                                            "mediaStart" : 0,
                                            "mediaDuration" : 1,
                                            "scalar" : 1,
                                            "metadata" : {
                                              "clipSpeedAttribute" : false,
                                              "default-scale0" : 1.0,
                                              "default-scale1" : 1.0,
                                              "default-translation0" : -0.5,
                                              "default-translation1" : 0.0
                                            },
                                            "animationTracks" : {

                                            }
                                          },
                                          {
                                            "id" : 32,
                                            "_type" : "IMFile",
                                            "src" : 1,
                                            "trackNumber" : 0,
                                            "trimStartSum" : 0,
                                            "attributes" : {
                                              "ident" : "wave1"
                                            },
                                            "parameters" : {
                                              "translation0" : -2.11950146613311,
                                              "translation1" : 8.96940103546206,
                                              "scale0" : 1.02884111169424,
                                              "scale1" : 1.02884111169424
                                            },
                                            "effects" : [

                                            ],
                                            "start" : 57,
                                            "duration" : 6,
                                            "mediaStart" : 0,
                                            "mediaDuration" : 1,
                                            "scalar" : 1,
                                            "metadata" : {
                                              "clipSpeedAttribute" : false,
                                              "default-scale0" : 1.0,
                                              "default-scale1" : 1.0,
                                              "default-translation0" : -0.5,
                                              "default-translation1" : -0.5
                                            },
                                            "animationTracks" : {

                                            }
                                          },
                                          {
                                            "id" : 33,
                                            "_type" : "IMFile",
                                            "src" : 2,
                                            "trackNumber" : 0,
                                            "trimStartSum" : 0,
                                            "attributes" : {
                                              "ident" : "wave2"
                                            },
                                            "parameters" : {
                                              "translation0" : 0.880498533167186,
                                              "translation1" : -88.087642172052,
                                              "scale0" : 1.03068101042332,
                                              "scale1" : 1.03068101042332
                                            },
                                            "effects" : [

                                            ],
                                            "start" : 63,
                                            "duration" : 6,
                                            "mediaStart" : 0,
                                            "mediaDuration" : 1,
                                            "scalar" : 1,
                                            "metadata" : {
                                              "clipSpeedAttribute" : false,
                                              "default-scale0" : 1.0,
                                              "default-scale1" : 1.0,
                                              "default-translation0" : 0.0,
                                              "default-translation1" : -0.5
                                            },
                                            "animationTracks" : {

                                            }
                                          },
                                          {
                                            "id" : 34,
                                            "_type" : "IMFile",
                                            "src" : 3,
                                            "trackNumber" : 0,
                                            "trimStartSum" : 0,
                                            "attributes" : {
                                              "ident" : "wave3"
                                            },
                                            "parameters" : {
                                              "translation0" : -1.11950146655987,
                                              "translation1" : 8.12143442823202,
                                              "scale0" : 1.00893326326855,
                                              "scale1" : 1.00893326326855
                                            },
                                            "effects" : [

                                            ],
                                            "start" : 69,
                                            "duration" : 7,
                                            "mediaStart" : 0,
                                            "mediaDuration" : 1,
                                            "scalar" : 1,
                                            "metadata" : {
                                              "clipSpeedAttribute" : false,
                                              "default-scale0" : 1.0,
                                              "default-scale1" : 1.0,
                                              "default-translation0" : -0.5,
                                              "default-translation1" : 0.0
                                            },
                                            "animationTracks" : {

                                            }
                                          },
                                          {
                                            "id" : 35,
                                            "_type" : "IMFile",
                                            "src" : 1,
                                            "trackNumber" : 0,
                                            "trimStartSum" : 0,
                                            "attributes" : {
                                              "ident" : "wave1"
                                            },
                                            "parameters" : {
                                              "translation0" : -2.11950146613311,
                                              "translation1" : 8.96940103546206,
                                              "scale0" : 1.02884111169424,
                                              "scale1" : 1.02884111169424
                                            },
                                            "effects" : [

                                            ],
                                            "start" : 76,
                                            "duration" : 6,
                                            "mediaStart" : 0,
                                            "mediaDuration" : 1,
                                            "scalar" : 1,
                                            "metadata" : {
                                              "clipSpeedAttribute" : false,
                                              "default-scale0" : 1.0,
                                              "default-scale1" : 1.0,
                                              "default-translation0" : -0.5,
                                              "default-translation1" : -0.5
                                            },
                                            "animationTracks" : {

                                            }
                                          },
                                          {
                                            "id" : 36,
                                            "_type" : "IMFile",
                                            "src" : 2,
                                            "trackNumber" : 0,
                                            "trimStartSum" : 0,
                                            "attributes" : {
                                              "ident" : "wave2"
                                            },
                                            "parameters" : {
                                              "translation0" : 0.880498533167186,
                                              "translation1" : -88.087642172052,
                                              "scale0" : 1.03068101042332,
                                              "scale1" : 1.03068101042332
                                            },
                                            "effects" : [

                                            ],
                                            "start" : 82,
                                            "duration" : 6,
                                            "mediaStart" : 0,
                                            "mediaDuration" : 1,
                                            "scalar" : 1,
                                            "metadata" : {
                                              "clipSpeedAttribute" : false,
                                              "default-scale0" : 1.0,
                                              "default-scale1" : 1.0,
                                              "default-translation0" : 0.0,
                                              "default-translation1" : -0.5
                                            },
                                            "animationTracks" : {

                                            }
                                          },
                                          {
                                            "id" : 37,
                                            "_type" : "IMFile",
                                            "src" : 3,
                                            "trackNumber" : 0,
                                            "trimStartSum" : 0,
                                            "attributes" : {
                                              "ident" : "wave3"
                                            },
                                            "parameters" : {
                                              "translation0" : -1.11950146655987,
                                              "translation1" : 8.12143442823202,
                                              "scale0" : 1.00893326326855,
                                              "scale1" : 1.00893326326855
                                            },
                                            "effects" : [

                                            ],
                                            "start" : 88,
                                            "duration" : 7,
                                            "mediaStart" : 0,
                                            "mediaDuration" : 1,
                                            "scalar" : 1,
                                            "metadata" : {
                                              "clipSpeedAttribute" : false,
                                              "default-scale0" : 1.0,
                                              "default-scale1" : 1.0,
                                              "default-translation0" : -0.5,
                                              "default-translation1" : 0.0
                                            },
                                            "animationTracks" : {

                                            }
                                          },
                                          {
                                            "id" : 38,
                                            "_type" : "IMFile",
                                            "src" : 1,
                                            "trackNumber" : 0,
                                            "trimStartSum" : 0,
                                            "attributes" : {
                                              "ident" : "wave1"
                                            },
                                            "parameters" : {
                                              "translation0" : -2.11950146613311,
                                              "translation1" : 8.96940103546206,
                                              "scale0" : 1.02884111169424,
                                              "scale1" : 1.02884111169424
                                            },
                                            "effects" : [

                                            ],
                                            "start" : 95,
                                            "duration" : 6,
                                            "mediaStart" : 0,
                                            "mediaDuration" : 1,
                                            "scalar" : 1,
                                            "metadata" : {
                                              "clipSpeedAttribute" : false,
                                              "default-scale0" : 1.0,
                                              "default-scale1" : 1.0,
                                              "default-translation0" : -0.5,
                                              "default-translation1" : -0.5
                                            },
                                            "animationTracks" : {

                                            }
                                          },
                                          {
                                            "id" : 39,
                                            "_type" : "IMFile",
                                            "src" : 2,
                                            "trackNumber" : 0,
                                            "trimStartSum" : 0,
                                            "attributes" : {
                                              "ident" : "wave2"
                                            },
                                            "parameters" : {
                                              "translation0" : 0.880498533167186,
                                              "translation1" : -88.087642172052,
                                              "scale0" : 1.03068101042332,
                                              "scale1" : 1.03068101042332
                                            },
                                            "effects" : [

                                            ],
                                            "start" : 101,
                                            "duration" : 6,
                                            "mediaStart" : 0,
                                            "mediaDuration" : 1,
                                            "scalar" : 1,
                                            "metadata" : {
                                              "clipSpeedAttribute" : false,
                                              "default-scale0" : 1.0,
                                              "default-scale1" : 1.0,
                                              "default-translation0" : 0.0,
                                              "default-translation1" : -0.5
                                            },
                                            "animationTracks" : {

                                            }
                                          },
                                          {
                                            "id" : 40,
                                            "_type" : "IMFile",
                                            "src" : 3,
                                            "trackNumber" : 0,
                                            "trimStartSum" : 0,
                                            "attributes" : {
                                              "ident" : "wave3"
                                            },
                                            "parameters" : {
                                              "translation0" : -1.11950146655987,
                                              "translation1" : 8.12143442823202,
                                              "scale0" : 1.00893326326855,
                                              "scale1" : 1.00893326326855
                                            },
                                            "effects" : [

                                            ],
                                            "start" : 107,
                                            "duration" : 7,
                                            "mediaStart" : 0,
                                            "mediaDuration" : 1,
                                            "scalar" : 1,
                                            "metadata" : {
                                              "clipSpeedAttribute" : false,
                                              "default-scale0" : 1.0,
                                              "default-scale1" : 1.0,
                                              "default-translation0" : -0.5,
                                              "default-translation1" : 0.0
                                            },
                                            "animationTracks" : {

                                            }
                                          },
                                          {
                                            "id" : 41,
                                            "_type" : "IMFile",
                                            "src" : 1,
                                            "trackNumber" : 0,
                                            "trimStartSum" : 0,
                                            "attributes" : {
                                              "ident" : "wave1"
                                            },
                                            "parameters" : {
                                              "translation0" : -2.11950146613311,
                                              "translation1" : 8.96940103546206,
                                              "scale0" : 1.02884111169424,
                                              "scale1" : 1.02884111169424
                                            },
                                            "effects" : [

                                            ],
                                            "start" : 114,
                                            "duration" : 6,
                                            "mediaStart" : 0,
                                            "mediaDuration" : 1,
                                            "scalar" : 1,
                                            "metadata" : {
                                              "clipSpeedAttribute" : false,
                                              "default-scale0" : 1.0,
                                              "default-scale1" : 1.0,
                                              "default-translation0" : -0.5,
                                              "default-translation1" : -0.5
                                            },
                                            "animationTracks" : {

                                            }
                                          },
                                          {
                                            "id" : 42,
                                            "_type" : "IMFile",
                                            "src" : 2,
                                            "trackNumber" : 0,
                                            "trimStartSum" : 0,
                                            "attributes" : {
                                              "ident" : "wave2"
                                            },
                                            "parameters" : {
                                              "translation0" : 0.880498533167186,
                                              "translation1" : -88.087642172052,
                                              "scale0" : 1.03068101042332,
                                              "scale1" : 1.03068101042332
                                            },
                                            "effects" : [

                                            ],
                                            "start" : 120,
                                            "duration" : 6,
                                            "mediaStart" : 0,
                                            "mediaDuration" : 1,
                                            "scalar" : 1,
                                            "metadata" : {
                                              "clipSpeedAttribute" : false,
                                              "default-scale0" : 1.0,
                                              "default-scale1" : 1.0,
                                              "default-translation0" : 0.0,
                                              "default-translation1" : -0.5
                                            },
                                            "animationTracks" : {

                                            }
                                          },
                                          {
                                            "id" : 43,
                                            "_type" : "IMFile",
                                            "src" : 3,
                                            "trackNumber" : 0,
                                            "trimStartSum" : 0,
                                            "attributes" : {
                                              "ident" : "wave3"
                                            },
                                            "parameters" : {
                                              "translation0" : -1.11950146655987,
                                              "translation1" : 8.12143442823202,
                                              "scale0" : 1.00893326326855,
                                              "scale1" : 1.00893326326855
                                            },
                                            "effects" : [

                                            ],
                                            "start" : 126,
                                            "duration" : 7,
                                            "mediaStart" : 0,
                                            "mediaDuration" : 1,
                                            "scalar" : 1,
                                            "metadata" : {
                                              "clipSpeedAttribute" : false,
                                              "default-scale0" : 1.0,
                                              "default-scale1" : 1.0,
                                              "default-translation0" : -0.5,
                                              "default-translation1" : 0.0
                                            },
                                            "animationTracks" : {

                                            }
                                          },
                                          {
                                            "id" : 44,
                                            "_type" : "IMFile",
                                            "src" : 1,
                                            "trackNumber" : 0,
                                            "trimStartSum" : 0,
                                            "attributes" : {
                                              "ident" : "wave1"
                                            },
                                            "parameters" : {
                                              "translation0" : -2.11950146613311,
                                              "translation1" : 8.96940103546206,
                                              "scale0" : 1.02884111169424,
                                              "scale1" : 1.02884111169424
                                            },
                                            "effects" : [

                                            ],
                                            "start" : 133,
                                            "duration" : 6,
                                            "mediaStart" : 0,
                                            "mediaDuration" : 1,
                                            "scalar" : 1,
                                            "metadata" : {
                                              "clipSpeedAttribute" : false,
                                              "default-scale0" : 1.0,
                                              "default-scale1" : 1.0,
                                              "default-translation0" : -0.5,
                                              "default-translation1" : -0.5
                                            },
                                            "animationTracks" : {

                                            }
                                          },
                                          {
                                            "id" : 45,
                                            "_type" : "IMFile",
                                            "src" : 2,
                                            "trackNumber" : 0,
                                            "trimStartSum" : 0,
                                            "attributes" : {
                                              "ident" : "wave2"
                                            },
                                            "parameters" : {
                                              "translation0" : 0.880498533167186,
                                              "translation1" : -88.087642172052,
                                              "scale0" : 1.03068101042332,
                                              "scale1" : 1.03068101042332
                                            },
                                            "effects" : [

                                            ],
                                            "start" : 139,
                                            "duration" : 6,
                                            "mediaStart" : 0,
                                            "mediaDuration" : 1,
                                            "scalar" : 1,
                                            "metadata" : {
                                              "clipSpeedAttribute" : false,
                                              "default-scale0" : 1.0,
                                              "default-scale1" : 1.0,
                                              "default-translation0" : 0.0,
                                              "default-translation1" : -0.5
                                            },
                                            "animationTracks" : {

                                            }
                                          },
                                          {
                                            "id" : 46,
                                            "_type" : "IMFile",
                                            "src" : 3,
                                            "trackNumber" : 0,
                                            "trimStartSum" : 0,
                                            "attributes" : {
                                              "ident" : "wave3"
                                            },
                                            "parameters" : {
                                              "translation0" : -1.11950146655987,
                                              "translation1" : 8.12143442823202,
                                              "scale0" : 1.00893326326855,
                                              "scale1" : 1.00893326326855
                                            },
                                            "effects" : [

                                            ],
                                            "start" : 145,
                                            "duration" : 7,
                                            "mediaStart" : 0,
                                            "mediaDuration" : 1,
                                            "scalar" : 1,
                                            "metadata" : {
                                              "clipSpeedAttribute" : false,
                                              "default-scale0" : 1.0,
                                              "default-scale1" : 1.0,
                                              "default-translation0" : -0.5,
                                              "default-translation1" : 0.0
                                            },
                                            "animationTracks" : {

                                            }
                                          },
                                          {
                                            "id" : 47,
                                            "_type" : "IMFile",
                                            "src" : 1,
                                            "trackNumber" : 0,
                                            "trimStartSum" : 0,
                                            "attributes" : {
                                              "ident" : "wave1"
                                            },
                                            "parameters" : {
                                              "translation0" : -2.11950146613311,
                                              "translation1" : 8.96940103546206,
                                              "scale0" : 1.02884111169424,
                                              "scale1" : 1.02884111169424
                                            },
                                            "effects" : [

                                            ],
                                            "start" : 152,
                                            "duration" : 6,
                                            "mediaStart" : 0,
                                            "mediaDuration" : 1,
                                            "scalar" : 1,
                                            "metadata" : {
                                              "clipSpeedAttribute" : false,
                                              "default-scale0" : 1.0,
                                              "default-scale1" : 1.0,
                                              "default-translation0" : -0.5,
                                              "default-translation1" : -0.5
                                            },
                                            "animationTracks" : {

                                            }
                                          },
                                          {
                                            "id" : 48,
                                            "_type" : "IMFile",
                                            "src" : 2,
                                            "trackNumber" : 0,
                                            "trimStartSum" : 0,
                                            "attributes" : {
                                              "ident" : "wave2"
                                            },
                                            "parameters" : {
                                              "translation0" : 0.880498533167186,
                                              "translation1" : -88.087642172052,
                                              "scale0" : 1.03068101042332,
                                              "scale1" : 1.03068101042332
                                            },
                                            "effects" : [

                                            ],
                                            "start" : 158,
                                            "duration" : 6,
                                            "mediaStart" : 0,
                                            "mediaDuration" : 1,
                                            "scalar" : 1,
                                            "metadata" : {
                                              "clipSpeedAttribute" : false,
                                              "default-scale0" : 1.0,
                                              "default-scale1" : 1.0,
                                              "default-translation0" : 0.0,
                                              "default-translation1" : -0.5
                                            },
                                            "animationTracks" : {

                                            }
                                          },
                                          {
                                            "id" : 49,
                                            "_type" : "IMFile",
                                            "src" : 3,
                                            "trackNumber" : 0,
                                            "trimStartSum" : 0,
                                            "attributes" : {
                                              "ident" : "wave3"
                                            },
                                            "parameters" : {
                                              "translation0" : -1.11950146655987,
                                              "translation1" : 8.12143442823202,
                                              "scale0" : 1.00893326326855,
                                              "scale1" : 1.00893326326855
                                            },
                                            "effects" : [

                                            ],
                                            "start" : 164,
                                            "duration" : 7,
                                            "mediaStart" : 0,
                                            "mediaDuration" : 1,
                                            "scalar" : 1,
                                            "metadata" : {
                                              "clipSpeedAttribute" : false,
                                              "default-scale0" : 1.0,
                                              "default-scale1" : 1.0,
                                              "default-translation0" : -0.5,
                                              "default-translation1" : 0.0
                                            },
                                            "animationTracks" : {

                                            }
                                          },
                                          {
                                            "id" : 50,
                                            "_type" : "IMFile",
                                            "src" : 1,
                                            "trackNumber" : 0,
                                            "trimStartSum" : 0,
                                            "attributes" : {
                                              "ident" : "wave1"
                                            },
                                            "parameters" : {
                                              "translation0" : -2.11950146613311,
                                              "translation1" : 8.96940103546206,
                                              "scale0" : 1.02884111169424,
                                              "scale1" : 1.02884111169424
                                            },
                                            "effects" : [

                                            ],
                                            "start" : 171,
                                            "duration" : 6,
                                            "mediaStart" : 0,
                                            "mediaDuration" : 1,
                                            "scalar" : 1,
                                            "metadata" : {
                                              "clipSpeedAttribute" : false,
                                              "default-scale0" : 1.0,
                                              "default-scale1" : 1.0,
                                              "default-translation0" : -0.5,
                                              "default-translation1" : -0.5
                                            },
                                            "animationTracks" : {

                                            }
                                          },
                                          {
                                            "id" : 51,
                                            "_type" : "IMFile",
                                            "src" : 2,
                                            "trackNumber" : 0,
                                            "trimStartSum" : 0,
                                            "attributes" : {
                                              "ident" : "wave2"
                                            },
                                            "parameters" : {
                                              "translation0" : 0.880498533167186,
                                              "translation1" : -88.087642172052,
                                              "scale0" : 1.03068101042332,
                                              "scale1" : 1.03068101042332
                                            },
                                            "effects" : [

                                            ],
                                            "start" : 177,
                                            "duration" : 6,
                                            "mediaStart" : 0,
                                            "mediaDuration" : 1,
                                            "scalar" : 1,
                                            "metadata" : {
                                              "clipSpeedAttribute" : false,
                                              "default-scale0" : 1.0,
                                              "default-scale1" : 1.0,
                                              "default-translation0" : 0.0,
                                              "default-translation1" : -0.5
                                            },
                                            "animationTracks" : {

                                            }
                                          },
                                          {
                                            "id" : 52,
                                            "_type" : "IMFile",
                                            "src" : 3,
                                            "trackNumber" : 0,
                                            "trimStartSum" : 0,
                                            "attributes" : {
                                              "ident" : "wave3"
                                            },
                                            "parameters" : {
                                              "translation0" : -1.11950146655987,
                                              "translation1" : 8.12143442823202,
                                              "scale0" : 1.00893326326855,
                                              "scale1" : 1.00893326326855
                                            },
                                            "effects" : [

                                            ],
                                            "start" : 183,
                                            "duration" : 7,
                                            "mediaStart" : 0,
                                            "mediaDuration" : 1,
                                            "scalar" : 1,
                                            "metadata" : {
                                              "clipSpeedAttribute" : false,
                                              "default-scale0" : 1.0,
                                              "default-scale1" : 1.0,
                                              "default-translation0" : -0.5,
                                              "default-translation1" : 0.0
                                            },
                                            "animationTracks" : {

                                            }
                                          },
                                          {
                                            "id" : 53,
                                            "_type" : "IMFile",
                                            "src" : 1,
                                            "trackNumber" : 0,
                                            "trimStartSum" : 0,
                                            "attributes" : {
                                              "ident" : "wave1"
                                            },
                                            "parameters" : {
                                              "translation0" : -2.11950146613311,
                                              "translation1" : 8.96940103546206,
                                              "scale0" : 1.02884111169424,
                                              "scale1" : 1.02884111169424
                                            },
                                            "effects" : [

                                            ],
                                            "start" : 190,
                                            "duration" : 6,
                                            "mediaStart" : 0,
                                            "mediaDuration" : 1,
                                            "scalar" : 1,
                                            "metadata" : {
                                              "clipSpeedAttribute" : false,
                                              "default-scale0" : 1.0,
                                              "default-scale1" : 1.0,
                                              "default-translation0" : -0.5,
                                              "default-translation1" : -0.5
                                            },
                                            "animationTracks" : {

                                            }
                                          },
                                          {
                                            "id" : 54,
                                            "_type" : "IMFile",
                                            "src" : 2,
                                            "trackNumber" : 0,
                                            "trimStartSum" : 0,
                                            "attributes" : {
                                              "ident" : "wave2"
                                            },
                                            "parameters" : {
                                              "translation0" : 0.880498533167186,
                                              "translation1" : -88.087642172052,
                                              "scale0" : 1.03068101042332,
                                              "scale1" : 1.03068101042332
                                            },
                                            "effects" : [

                                            ],
                                            "start" : 196,
                                            "duration" : 4,
                                            "mediaStart" : 0,
                                            "mediaDuration" : 1,
                                            "scalar" : 1,
                                            "metadata" : {
                                              "clipSpeedAttribute" : false,
                                              "default-scale0" : 1.0,
                                              "default-scale1" : 1.0,
                                              "default-translation0" : 0.0,
                                              "default-translation1" : -0.5
                                            },
                                            "animationTracks" : {

                                            }
                                          }
                                        ],
                                          "ident" : "",
                                          "audioMuted" : false,
                                          "videoHidden" : false,
                                          "magnetic" : false,
                                          "matte" : 0,
                                          "metadata" : {
                                            "IsLocked" : "False",
                                            "WinTrackHeight" : "0"
                                          }
                                      },
                                      {
                                        "trackIndex" : 1,
                                        "medias" : [
                                          {
                                            "id" : 55,
                                            "_type" : "IMFile",
                                            "src" : 4,
                                            "trackNumber" : 0,
                                            "trimStartSum" : 0,
                                            "attributes" : {
                                              "ident" : "control-plane-128"
                                            },
                                            "parameters" : {
                                              "translation0" : -785.119501466663,
                                              "translation1" : 199.818754449228
                                            },
                                            "effects" : [

                                            ],
                                            "start" : 0,
                                            "duration" : 19,
                                            "mediaStart" : 0,
                                            "mediaDuration" : 1,
                                            "scalar" : 1,
                                            "metadata" : {
                                              "clipSpeedAttribute" : false,
                                              "default-translation0" : 0.0,
                                              "default-translation1" : 0.0
                                            },
                                            "animationTracks" : {

                                            }
                                          },
                                          {
                                            "id" : 56,
                                            "_type" : "IMFile",
                                            "src" : 5,
                                            "trackNumber" : 0,
                                            "trimStartSum" : 0,
                                            "attributes" : {
                                              "ident" : "etcd-128"
                                            },
                                            "parameters" : {
                                              "translation0" : -655.119501466745,
                                              "translation1" : 120.373795393553
                                            },
                                            "effects" : [

                                            ],
                                            "start" : 19,
                                            "duration" : 22,
                                            "mediaStart" : 0,
                                            "mediaDuration" : 1,
                                            "scalar" : 1,
                                            "metadata" : {
                                              "clipSpeedAttribute" : false,
                                              "default-translation0" : 0.0,
                                              "default-translation1" : 0.0
                                            },
                                            "animationTracks" : {

                                            }
                                          },
                                          {
                                            "id" : 57,
                                            "_type" : "IMFile",
                                            "src" : 6,
                                            "trackNumber" : 0,
                                            "trimStartSum" : 0,
                                            "attributes" : {
                                              "ident" : "node-128"
                                            },
                                            "parameters" : {
                                              "translation0" : -315.119501466444,
                                              "translation1" : 135.818754449343
                                            },
                                            "effects" : [

                                            ],
                                            "start" : 41,
                                            "duration" : 18,
                                            "mediaStart" : 0,
                                            "mediaDuration" : 1,
                                            "scalar" : 1,
                                            "metadata" : {
                                              "clipSpeedAttribute" : false,
                                              "default-translation0" : 0.0,
                                              "default-translation1" : 0.0
                                            },
                                            "animationTracks" : {

                                            }
                                          },
                                          {
                                            "id" : 58,
                                            "_type" : "IMFile",
                                            "src" : 8,
                                            "trackNumber" : 0,
                                            "trimStartSum" : 0,
                                            "attributes" : {
                                              "ident" : "ns-128"
                                            },
                                            "parameters" : {
                                              "translation0" : -345.11950146672,
                                              "translation1" : 158.121434428201
                                            },
                                            "effects" : [

                                            ],
                                            "start" : 59,
                                            "duration" : 23,
                                            "mediaStart" : 0,
                                            "mediaDuration" : 1,
                                            "scalar" : 1,
                                            "metadata" : {
                                              "clipSpeedAttribute" : false,
                                              "default-translation0" : 0.0,
                                              "default-translation1" : 0.0
                                            },
                                            "animationTracks" : {

                                            }
                                          },
                                          {
                                            "id" : 59,
                                            "_type" : "IMFile",
                                            "src" : 9,
                                            "trackNumber" : 0,
                                            "trimStartSum" : 0,
                                            "attributes" : {
                                              "ident" : "pod-128"
                                            },
                                            "parameters" : {
                                              "translation0" : -91.1195014666742,
                                              "translation1" : 100.121434428219
                                            },
                                            "effects" : [

                                            ],
                                            "start" : 82,
                                            "duration" : 16,
                                            "mediaStart" : 0,
                                            "mediaDuration" : 1,
                                            "scalar" : 1,
                                            "metadata" : {
                                              "clipSpeedAttribute" : false,
                                              "default-translation0" : 0.0,
                                              "default-translation1" : 0.0
                                            },
                                            "animationTracks" : {

                                            }
                                          },
                                          {
                                            "id" : 60,
                                            "_type" : "IMFile",
                                            "src" : 10,
                                            "trackNumber" : 0,
                                            "trimStartSum" : 0,
                                            "attributes" : {
                                              "ident" : "secret-128"
                                            },
                                            "parameters" : {
                                              "translation0" : -1.11950146666447,
                                              "translation1" : 140.121434428194
                                            },
                                            "effects" : [

                                            ],
                                            "start" : 98,
                                            "duration" : 17,
                                            "mediaStart" : 0,
                                            "mediaDuration" : 1,
                                            "scalar" : 1,
                                            "metadata" : {
                                              "clipSpeedAttribute" : false,
                                              "default-translation1" : 0.0
                                            },
                                            "animationTracks" : {

                                            }
                                          },
                                          {
                                            "id" : 61,
                                            "_type" : "IMFile",
                                            "src" : 7,
                                            "trackNumber" : 0,
                                            "trimStartSum" : 0,
                                            "attributes" : {
                                              "ident" : "svc-128"
                                            },
                                            "parameters" : {
                                              "translation0" : 258.880498533338,
                                              "translation1" : 112.121434428216
                                            },
                                            "effects" : [

                                            ],
                                            "start" : 115,
                                            "duration" : 14,
                                            "mediaStart" : 0,
                                            "mediaDuration" : 1,
                                            "scalar" : 1,
                                            "metadata" : {
                                              "clipSpeedAttribute" : false,
                                              "default-translation0" : 0.0,
                                              "default-translation1" : 0.0
                                            },
                                            "animationTracks" : {

                                            }
                                          },
                                          {
                                            "id" : 62,
                                            "_type" : "IMFile",
                                            "src" : 7,
                                            "trackNumber" : 0,
                                            "trimStartSum" : 0,
                                            "attributes" : {
                                              "ident" : "svc-128"
                                            },
                                            "parameters" : {
                                              "translation0" : 346.880498533407,
                                              "translation1" : 120.121434428205
                                            },
                                            "effects" : [

                                            ],
                                            "start" : 129,
                                            "duration" : 14,
                                            "mediaStart" : 0,
                                            "mediaDuration" : 1,
                                            "scalar" : 1,
                                            "metadata" : {
                                              "clipSpeedAttribute" : false,
                                              "default-translation0" : 0.0,
                                              "default-translation1" : 0.0
                                            },
                                            "animationTracks" : {

                                            }
                                          },
                                          {
                                            "id" : 63,
                                            "_type" : "IMFile",
                                            "src" : 11,
                                            "trackNumber" : 0,
                                            "trimStartSum" : 0,
                                            "attributes" : {
                                              "ident" : "rs-128"
                                            },
                                            "parameters" : {
                                              "translation0" : 480.880498533387,
                                              "translation1" : 158.1214344282
                                            },
                                            "effects" : [

                                            ],
                                            "start" : 143,
                                            "duration" : 13,
                                            "mediaStart" : 0,
                                            "mediaDuration" : 1,
                                            "scalar" : 1,
                                            "metadata" : {
                                              "clipSpeedAttribute" : false,
                                              "default-translation0" : 0.0,
                                              "default-translation1" : 0.0
                                            },
                                            "animationTracks" : {

                                            }
                                          },
                                          {
                                            "id" : 64,
                                            "_type" : "IMFile",
                                            "src" : 12,
                                            "trackNumber" : 0,
                                            "trimStartSum" : 0,
                                            "attributes" : {
                                              "ident" : "vol-128"
                                            },
                                            "parameters" : {
                                              "translation0" : 560.880498533409,
                                              "translation1" : 136.121434428193
                                            },
                                            "effects" : [

                                            ],
                                            "start" : 156,
                                            "duration" : 14,
                                            "mediaStart" : 0,
                                            "mediaDuration" : 1,
                                            "scalar" : 1,
                                            "metadata" : {
                                              "clipSpeedAttribute" : false,
                                              "default-translation0" : 0.0,
                                              "default-translation1" : 0.0
                                            },
                                            "animationTracks" : {

                                            }
                                          },
                                          {
                                            "id" : 65,
                                            "_type" : "IMFile",
                                            "src" : 13,
                                            "trackNumber" : 0,
                                            "trimStartSum" : 0,
                                            "attributes" : {
                                              "ident" : "deploy-128"
                                            },
                                            "parameters" : {
                                              "translation0" : 716.880498533367,
                                              "translation1" : 84.1214344281821
                                            },
                                            "effects" : [

                                            ],
                                            "start" : 170,
                                            "duration" : 13,
                                            "mediaStart" : 0,
                                            "mediaDuration" : 1,
                                            "scalar" : 1,
                                            "metadata" : {
                                              "clipSpeedAttribute" : false,
                                              "default-translation0" : 0.0,
                                              "default-translation1" : 0.0
                                            },
                                            "animationTracks" : {

                                            }
                                          },
                                          {
                                            "id" : 66,
                                            "_type" : "IMFile",
                                            "src" : 14,
                                            "trackNumber" : 0,
                                            "trimStartSum" : 0,
                                            "attributes" : {
                                              "ident" : "cronjob-128"
                                            },
                                            "parameters" : {
                                              "translation0" : 870.880498533812,
                                              "translation1" : 135.81875444932
                                            },
                                            "effects" : [

                                            ],
                                            "start" : 183,
                                            "duration" : 17,
                                            "mediaStart" : 0,
                                            "mediaDuration" : 1,
                                            "scalar" : 1,
                                            "metadata" : {
                                              "clipSpeedAttribute" : false,
                                              "default-translation0" : 0.0,
                                              "default-translation1" : 0.0
                                            },
                                            "animationTracks" : {

                                            }
                                          }
                                        ],
                                          "ident" : "",
                                          "audioMuted" : false,
                                          "videoHidden" : false,
                                          "magnetic" : false,
                                          "matte" : 0,
                                          "metadata" : {
                                            "IsLocked" : "False",
                                            "WinTrackHeight" : "3.6077993365582e-314"
                                          }
                                      }
                                    ],
                                    "attributes" : {
                                      "ident" : "Group 1",
                                      "gain" : 1.0,
                                      "mixToMono" : false
                                    },
                                    "effects" : [

                                    ],
                                    "start" : 0,
                                    "duration" : 200,
                                    "mediaStart" : 0.0,
                                    "mediaDuration" : 200.0,
                                    "scalar" : 1,
                                    "metadata" : {
                                      "IsGroupExpanded" : "False"
                                    },
                                    "animationTracks" : {

                                    }
                                  }
                                ],
                                  "ident" : "",
                                  "audioMuted" : false,
                                  "videoHidden" : false,
                                  "magnetic" : false,
                                  "matte" : 0,
                                  "metadata" : {
                                    "IsLocked" : "False",
                                    "WinTrackHeight" : "0"
                                  }
                              },
                              {
                                "trackIndex" : 1,
                                "medias" : [
                                  {
                                    "id" : 67,
                                    "_type" : "IMFile",
                                    "src" : 15,
                                    "trackNumber" : 0,
                                    "trimStartSum" : 0,
                                    "attributes" : {
                                      "ident" : "k8sfavicon"
                                    },
                                    "parameters" : {
                                      "translation0" : -822.559750733209,
                                      "translation1" : 466.970094438544,
                                      "scale0" : 0.335937500000757,
                                      "scale1" : 0.335937500000757
                                    },
                                    "effects" : [

                                    ],
                                    "start" : 0,
                                    "duration" : 200,
                                    "mediaStart" : 0,
                                    "mediaDuration" : 1,
                                    "scalar" : 1,
                                    "metadata" : {
                                      "clipSpeedAttribute" : false,
                                      "default-scale0" : 1.0,
                                      "default-scale1" : 1.0,
                                      "default-translation0" : 0.0,
                                      "default-translation1" : 0.0
                                    },
                                    "animationTracks" : {

                                    }
                                  }
                                ],
                                  "ident" : "",
                                  "audioMuted" : false,
                                  "videoHidden" : false,
                                  "magnetic" : false,
                                  "matte" : 0,
                                  "metadata" : {
                                    "IsLocked" : "False",
                                    "WinTrackHeight" : "3.6077993365582e-314"
                                  }
                              }
                            ],
                            "attributes" : {
                              "ident" : "Group 2",
                              "gain" : 1.0,
                              "mixToMono" : false
                            },
                            "effects" : [

                            ],
                            "start" : 0,
                            "duration" : 200,
                            "mediaStart" : 0.0,
                            "mediaDuration" : 200.0,
                            "scalar" : 1,
                            "metadata" : {
                              "IsGroupExpanded" : "False"
                            },
                            "animationTracks" : {

                            }
                          }
                        ],
                          "ident" : "",
                          "audioMuted" : false,
                          "videoHidden" : false,
                          "magnetic" : false,
                          "matte" : 0,
                          "metadata" : {
                            "IsLocked" : "False",
                            "WinTrackHeight" : "0"
                          }
                      },
                      {
                        "trackIndex" : 1,
                        "medias" : [
                          {
                            "id" : 68,
                            "_type" : "AMFile",
                            "src" : 16,
                            "trackNumber" : 0,
                            "attributes" : {
                              "ident" : "wave",
                              "gain" : 1.0,
                              "mixToMono" : false
                            },
                              "channelNumber" : "0,1",
                            "parameters" : {
                              "volume" : {
                                "type" : "double",
                                "keyframes" : [
                                  {
                                    "endTime" : -1,
                                    "time" : -1,
                                    "value" : 1.0,
                                    "duration" : 0
                                  },
                                  {
                                    "endTime" : 0,
                                    "time" : 0,
                                    "value" : 0.0,
                                    "duration" : 0
                                  },
                                  {
                                    "endTime" : 82,
                                    "time" : 82,
                                    "value" : 0.384615384615384,
                                    "duration" : 0
                                  }
                                ]
                              }
                            },
                            "effects" : [

                            ],
                            "start" : 0,
                            "duration" : 103,
                            "mediaStart" : 0,
                            "mediaDuration" : 103,
                            "scalar" : 1,
                            "metadata" : {
                              "clipSpeedAttribute" : false
                            },
                            "animationTracks" : {

                            }
                          },
                          {
                            "id" : 69,
                            "_type" : "AMFile",
                            "src" : 16,
                            "trackNumber" : 0,
                            "attributes" : {
                              "ident" : "wave",
                              "gain" : 1.0,
                              "mixToMono" : false
                            },
                              "channelNumber" : "0,1",
                            "parameters" : {
                              "volume" : {
                                "type" : "double",
                                "keyframes" : [
                                  {
                                    "endTime" : 0,
                                    "time" : 0,
                                    "value" : 0.770507364975449,
                                    "duration" : 0
                                  },
                                  {
                                    "endTime" : 134,
                                    "time" : 134,
                                    "value" : 0.232045826513911,
                                    "duration" : 0
                                  },
                                  {
                                    "endTime" : 200,
                                    "time" : 200,
                                    "value" : 0.0,
                                    "duration" : 0
                                  },
                                  {
                                    "endTime" : 201,
                                    "time" : 201,
                                    "value" : 1.0,
                                    "duration" : 0
                                  }
                                ]
                              }
                            },
                            "effects" : [

                            ],
                            "start" : 103,
                            "duration" : 97,
                            "mediaStart" : 103,
                            "mediaDuration" : 97,
                            "scalar" : 1,
                            "metadata" : {
                              "clipSpeedAttribute" : false
                            },
                            "animationTracks" : {

                            }
                          }
                        ],
                          "ident" : "",
                          "audioMuted" : false,
                          "videoHidden" : false,
                          "magnetic" : false,
                          "matte" : 0,
                          "metadata" : {
                            "IsLocked" : "False",
                            "WinTrackHeight" : "2.26715762571713e-312"
                          }
                      }
                    ],
                    "attributes" : {
                      "ident" : "Group 1",
                      "gain" : 1.0,
                      "mixToMono" : false
                    },
                    "effects" : [

                    ],
                    "start" : 0,
                    "duration" : 200,
                    "mediaStart" : 0.0,
                    "mediaDuration" : 200.0,
                    "scalar" : 1,
                    "metadata" : {
                      "IsGroupExpanded" : "False"
                    },
                    "animationTracks" : {

                    }
                  }
                ]
              },
              {
                "trackIndex" : 2,
                "medias" : [
                ]
              },
              {
                "trackIndex" : 3,
                "medias" : [
                ]
              },
              {
                "trackIndex" : 4,
                "medias" : [
                ]
              }
            ]
          }
        }
      ]
    },
    "trackAttributes" : [
      {
        "ident" : "",
        "audioMuted" : false,
        "videoHidden" : false,
        "magnetic" : false,
        "matte" : 0,
        "metadata" : {
          "IsLocked" : "False",
          "WinTrackHeight" : "56"
        }
      },
      {
        "ident" : "",
        "audioMuted" : false,
        "videoHidden" : false,
        "magnetic" : false,
        "matte" : 0,
        "metadata" : {
          "IsLocked" : "False",
          "WinTrackHeight" : "56"
        }
      },
      {
        "ident" : "",
        "audioMuted" : false,
        "videoHidden" : false,
        "magnetic" : false,
        "matte" : 0,
        "metadata" : {
          "IsLocked" : "False",
          "WinTrackHeight" : "56"
        }
      },
      {
        "ident" : "",
        "audioMuted" : false,
        "videoHidden" : false,
        "magnetic" : false,
        "matte" : 0,
        "metadata" : {
          "IsLocked" : "False",
          "WinTrackHeight" : "56"
        }
      },
      {
        "ident" : "",
        "audioMuted" : false,
        "videoHidden" : false,
        "magnetic" : false,
        "matte" : 0,
        "metadata" : {
          "IsLocked" : "False",
          "WinTrackHeight" : "56"
        }
      }
    ],
    "captionAttributes" : {
      "enabled" : true,
      "fontName" : "Arial",
      "fontSize" : 64,
      "backgroundColor" : [ 0, 0, 0, 191],
      "foregroundColor" : [ 255, 255, 255, 255],
      "lang" : "en",
      "alignment" : 0,
      "defaultFontSize" : true,
      "opacity" : 0.5,
      "backgroundEnabled" : true,
      "backgroundOnlyAroundText" : true
    },
    "backgroundColor" : [ 30, 30, 30, 255]
  },
  "metadata" : {
    "AutoSaveFile" : "",
    "CanvasZoom" : 50,
    "Date" : "2021-01-04 08:12:47 PM",
    "Fit" : 0,
    "IsAutoSave" : "0",
    "Language" : "ENU",
    "ProfileName" : "",
    "ProjectDimensionsChanged" : "1",
    "Title" : "K8sEnd",
    "audioNarrationNotes" : "",
    "calloutStyle" : "Basic",
    "canvasDetached" : "False",
    "canvasPositionHeight" : "0",
    "canvasPositionLeft" : "0",
    "canvasPositionTop" : "0",
    "canvasPositionWidth" : "0"
  }
}
