{
  "title" : "",
  "description" : "",
  "author" : "",
  "targetLoudness" : -18.0,
  "shouldApplyLoudnessNormalization" : true,
  "videoFormatFrameRate" : 30,
  "audioFormatSampleRate" : 44100,
  "width" : 1920.0,
  "height" : 1080.0,
  "version" : "3.0",
  "editRate" : 30,
  "authoringClientName" :  {
    "name" : "Camtasia",
    "platform" : "Windows",
    "version" : "19.0"
  },
  "sourceBin" : [
    {
      "id" : 1,
      "src" : "D:\\Code\\K8S\\video\\rec\\Rec 01-10-21.trec",
      "rect" : [0, 0, 1920, 1080],
      "lastMod" : "20210110T210539",
      "sourceTracks" : [
        {
          "range" : [0, 25747],
          "type" : 0,
          "editRate" : 30,
          "trackRect" : [0, 0, 1920, 1080],
          "sampleRate" : 24,
          "bitDepth" : 0,
          "numChannels" : 0,
          "integratedLUFS" : 100.0,
          "peakLevel" : -1.0,
          "metaData" : "2b7b6a00-7a1f-11e2-83d0-0017f200be7f;2b7b6aef-7a1f-11e2-83d0-0017f200be7f;2b7b6af0-7a1f-11e2-83d0-0017f200be7f;2b7b6af1-7a1f-11e2-83d0-0017f200be7f;2b7b6af2-7a1f-11e2-83d0-0017f200be7f;2b7b6af3-7a1f-11e2-83d0-0017f200be7f;2b7b6af5-7a1f-11e2-83d0-0017f200be7f;2b7b6af6-7a1f-11e2-83d0-0017f200be7f;2b7b6af7-7a1f-11e2-83d0-0017f200be7f;2b7b6af8-7a1f-11e2-83d0-0017f200be7f;2b7b6af9-7a1f-11e2-83d0-0017f200be7f;2b7b6afa-7a1f-11e2-83d0-0017f200be7f;"
        },
        {
          "range" : [0, 37861376],
          "type" : 2,
          "editRate" : 44100,
          "trackRect" : [0, 0, 0, 0],
          "sampleRate" : 44100,
          "bitDepth" : 16,
          "numChannels" : 2,
          "integratedLUFS" : -16.9238078981771,
          "peakLevel" : 1.0,
          "metaData" : ""
        }
      ],
      "metadata" : {
        "timeAdded" : "20210110T210539.853184"
      }
    },
    {
      "id" : 2,
      "src" : "D:\\Code\\K8S\\video\\3\\Narration_3-1 Pod 1.m4a",
      "rect" : [0, 0, 0, 0],
      "lastMod" : "20210111T131103",
      "sourceTracks" : [
        {
          "range" : [0, 64551444],
          "type" : 2,
          "editRate" : 10000000,
          "trackRect" : [0, 0, 0, 0],
          "sampleRate" : 44100,
          "bitDepth" : 16,
          "numChannels" : 2,
          "integratedLUFS" : -14.9657185314328,
          "peakLevel" : 1.0035572052002,
          "metaData" : ""
        }
      ],
      "metadata" : {
        "timeAdded" : "20210111T131110.653236"
      }
    },
    {
      "id" : 3,
      "src" : "D:\\Code\\K8S\\video\\3\\Narration_3-1 Pod 2.m4a",
      "rect" : [0, 0, 0, 0],
      "lastMod" : "20210115T204526",
      "sourceTracks" : [
        {
          "range" : [0, 51780444],
          "type" : 2,
          "editRate" : 10000000,
          "trackRect" : [0, 0, 0, 0],
          "sampleRate" : 44100,
          "bitDepth" : 16,
          "numChannels" : 2,
          "integratedLUFS" : -18.2222119967704,
          "peakLevel" : 0.838444650173187,
          "metaData" : ""
        }
      ],
      "metadata" : {
        "timeAdded" : "20210115T204533.840808"
      }
    },
    {
      "id" : 4,
      "src" : "D:\\Code\\K8S\\video\\3\\Narration_3-1 Pod 3.m4a",
      "rect" : [0, 0, 0, 0],
      "lastMod" : "20210115T205836",
      "sourceTracks" : [
        {
          "range" : [0, 29489334],
          "type" : 2,
          "editRate" : 10000000,
          "trackRect" : [0, 0, 0, 0],
          "sampleRate" : 44100,
          "bitDepth" : 16,
          "numChannels" : 2,
          "integratedLUFS" : -15.4770962884531,
          "peakLevel" : 0.688247919082642,
          "metaData" : ""
        }
      ],
      "metadata" : {
        "timeAdded" : "20210115T205842.835160"
      }
    },
    {
      "id" : 5,
      "src" : "D:\\Code\\K8S\\video\\3\\Narration_3-1 Pod 4.m4a",
      "rect" : [0, 0, 0, 0],
      "lastMod" : "20210116T001517",
      "sourceTracks" : [
        {
          "range" : [0, 54334668],
          "type" : 2,
          "editRate" : 10000000,
          "trackRect" : [0, 0, 0, 0],
          "sampleRate" : 44100,
          "bitDepth" : 16,
          "numChannels" : 2,
          "integratedLUFS" : -17.9015134655539,
          "peakLevel" : 0.812274992465973,
          "metaData" : ""
        }
      ],
      "metadata" : {
        "timeAdded" : "20210116T001525.887109"
      }
    },
    {
      "id" : 6,
      "src" : "D:\\Code\\K8S\\video\\3\\Narration_3-1 Pod 5.m4a",
      "rect" : [0, 0, 0, 0],
      "lastMod" : "20210116T002101",
      "sourceTracks" : [
        {
          "range" : [0, 20201334],
          "type" : 2,
          "editRate" : 10000000,
          "trackRect" : [0, 0, 0, 0],
          "sampleRate" : 44100,
          "bitDepth" : 16,
          "numChannels" : 2,
          "integratedLUFS" : -18.0203605363283,
          "peakLevel" : 0.645074844360352,
          "metaData" : ""
        }
      ],
      "metadata" : {
        "timeAdded" : "20210116T002108.290582"
      }
    },
    {
      "id" : 7,
      "src" : "D:\\Code\\K8S\\video\\3\\Narration_3-1 Pod 6.m4a",
      "rect" : [0, 0, 0, 0],
      "lastMod" : "20210116T002417",
      "sourceTracks" : [
        {
          "range" : [0, 133050336],
          "type" : 2,
          "editRate" : 10000000,
          "trackRect" : [0, 0, 0, 0],
          "sampleRate" : 44100,
          "bitDepth" : 16,
          "numChannels" : 2,
          "integratedLUFS" : -19.5054977158503,
          "peakLevel" : 0.736418306827545,
          "metaData" : ""
        }
      ],
      "metadata" : {
        "timeAdded" : "20210116T002425.082062"
      }
    },
    {
      "id" : 8,
      "src" : "D:\\Code\\K8S\\video\\3\\Narration_3-1 Pod 7.m4a",
      "rect" : [0, 0, 0, 0],
      "lastMod" : "20210116T002519",
      "sourceTracks" : [
        {
          "range" : [0, 119118336],
          "type" : 2,
          "editRate" : 10000000,
          "trackRect" : [0, 0, 0, 0],
          "sampleRate" : 44100,
          "bitDepth" : 16,
          "numChannels" : 2,
          "integratedLUFS" : -18.2248413368777,
          "peakLevel" : 0.894289910793304,
          "metaData" : ""
        }
      ],
      "metadata" : {
        "timeAdded" : "20210116T002528.559194"
      }
    },
    {
      "id" : 9,
      "src" : "C:\\ProgramData\\TechSmith\\Camtasia Studio 19\\Library 4.0\\User Libraries\\K8s\\start.asset\\wave1.png",
      "rect" : [0, 0, 1907, 383],
      "lastMod" : "20210105T163238",
      "sourceTracks" : [
        {
          "range" : [0, 1],
          "type" : 1,
          "editRate" : 10000000,
          "trackRect" : [0, 0, 1907, 383],
          "sampleRate" : 0,
          "bitDepth" : 24,
          "numChannels" : 0,
          "integratedLUFS" : 100.0,
          "peakLevel" : -1.0,
          "metaData" : ""
        }
      ],
      "metadata" : {
        "assetLibraryId" : "75d65985-041c-43c4-a44b-f79aada87cf9",
        "timeAdded" : "20210116T003741.830821"
      }
    },
    {
      "id" : 10,
      "src" : "C:\\ProgramData\\TechSmith\\Camtasia Studio 19\\Library 4.0\\User Libraries\\K8s\\start.asset\\wave2.png",
      "rect" : [0, 0, 1906, 341],
      "lastMod" : "20210105T163731",
      "sourceTracks" : [
        {
          "range" : [0, 1],
          "type" : 1,
          "editRate" : 10000000,
          "trackRect" : [0, 0, 1906, 341],
          "sampleRate" : 0,
          "bitDepth" : 24,
          "numChannels" : 0,
          "integratedLUFS" : 100.0,
          "peakLevel" : -1.0,
          "metaData" : ""
        }
      ],
      "metadata" : {
        "assetLibraryId" : "75d65985-041c-43c4-a44b-f79aada87cf9",
        "timeAdded" : "20210116T003741.830821"
      }
    },
    {
      "id" : 11,
      "src" : "C:\\ProgramData\\TechSmith\\Camtasia Studio 19\\Library 4.0\\User Libraries\\K8s\\start.asset\\wave3.png",
      "rect" : [0, 0, 1903, 380],
      "lastMod" : "20210105T163725",
      "sourceTracks" : [
        {
          "range" : [0, 1],
          "type" : 1,
          "editRate" : 10000000,
          "trackRect" : [0, 0, 1903, 380],
          "sampleRate" : 0,
          "bitDepth" : 24,
          "numChannels" : 0,
          "integratedLUFS" : 100.0,
          "peakLevel" : -1.0,
          "metaData" : ""
        }
      ],
      "metadata" : {
        "assetLibraryId" : "75d65985-041c-43c4-a44b-f79aada87cf9",
        "timeAdded" : "20210116T003741.830821"
      }
    },
    {
      "id" : 12,
      "src" : "C:\\ProgramData\\TechSmith\\Camtasia Studio 19\\Library 4.0\\User Libraries\\K8s\\start.asset\\control-plane-128.png",
      "rect" : [0, 0, 128, 128],
      "lastMod" : "20201224T160827",
      "sourceTracks" : [
        {
          "range" : [0, 1],
          "type" : 1,
          "editRate" : 10000000,
          "trackRect" : [0, 0, 128, 128],
          "sampleRate" : 0,
          "bitDepth" : 32,
          "numChannels" : 0,
          "integratedLUFS" : 100.0,
          "peakLevel" : -1.0,
          "metaData" : ""
        }
      ],
      "metadata" : {
        "assetLibraryId" : "75d65985-041c-43c4-a44b-f79aada87cf9",
        "timeAdded" : "20210116T003741.830821"
      }
    },
    {
      "id" : 13,
      "src" : "C:\\ProgramData\\TechSmith\\Camtasia Studio 19\\Library 4.0\\User Libraries\\K8s\\start.asset\\etcd-128.png",
      "rect" : [0, 0, 128, 128],
      "lastMod" : "20201224T160827",
      "sourceTracks" : [
        {
          "range" : [0, 1],
          "type" : 1,
          "editRate" : 10000000,
          "trackRect" : [0, 0, 128, 128],
          "sampleRate" : 0,
          "bitDepth" : 32,
          "numChannels" : 0,
          "integratedLUFS" : 100.0,
          "peakLevel" : -1.0,
          "metaData" : ""
        }
      ],
      "metadata" : {
        "assetLibraryId" : "75d65985-041c-43c4-a44b-f79aada87cf9",
        "timeAdded" : "20210116T003741.830821"
      }
    },
    {
      "id" : 14,
      "src" : "C:\\ProgramData\\TechSmith\\Camtasia Studio 19\\Library 4.0\\User Libraries\\K8s\\start.asset\\node-128.png",
      "rect" : [0, 0, 128, 128],
      "lastMod" : "20201224T160827",
      "sourceTracks" : [
        {
          "range" : [0, 1],
          "type" : 1,
          "editRate" : 10000000,
          "trackRect" : [0, 0, 128, 128],
          "sampleRate" : 0,
          "bitDepth" : 32,
          "numChannels" : 0,
          "integratedLUFS" : 100.0,
          "peakLevel" : -1.0,
          "metaData" : ""
        }
      ],
      "metadata" : {
        "assetLibraryId" : "75d65985-041c-43c4-a44b-f79aada87cf9",
        "timeAdded" : "20210116T003741.830821"
      }
    },
    {
      "id" : 15,
      "src" : "C:\\ProgramData\\TechSmith\\Camtasia Studio 19\\Library 4.0\\User Libraries\\K8s\\start.asset\\ns-128.png",
      "rect" : [0, 0, 128, 128],
      "lastMod" : "20201224T160827",
      "sourceTracks" : [
        {
          "range" : [0, 1],
          "type" : 1,
          "editRate" : 10000000,
          "trackRect" : [0, 0, 128, 128],
          "sampleRate" : 0,
          "bitDepth" : 32,
          "numChannels" : 0,
          "integratedLUFS" : 100.0,
          "peakLevel" : -1.0,
          "metaData" : ""
        }
      ],
      "metadata" : {
        "assetLibraryId" : "75d65985-041c-43c4-a44b-f79aada87cf9",
        "timeAdded" : "20210116T003741.830821"
      }
    },
    {
      "id" : 16,
      "src" : "C:\\ProgramData\\TechSmith\\Camtasia Studio 19\\Library 4.0\\User Libraries\\K8s\\start.asset\\pod-128.png",
      "rect" : [0, 0, 128, 128],
      "lastMod" : "20201224T160827",
      "sourceTracks" : [
        {
          "range" : [0, 1],
          "type" : 1,
          "editRate" : 10000000,
          "trackRect" : [0, 0, 128, 128],
          "sampleRate" : 0,
          "bitDepth" : 32,
          "numChannels" : 0,
          "integratedLUFS" : 100.0,
          "peakLevel" : -1.0,
          "metaData" : ""
        }
      ],
      "metadata" : {
        "assetLibraryId" : "75d65985-041c-43c4-a44b-f79aada87cf9",
        "timeAdded" : "20210116T003741.831821"
      }
    },
    {
      "id" : 17,
      "src" : "C:\\ProgramData\\TechSmith\\Camtasia Studio 19\\Library 4.0\\User Libraries\\K8s\\start.asset\\secret-128.png",
      "rect" : [0, 0, 128, 128],
      "lastMod" : "20201224T160827",
      "sourceTracks" : [
        {
          "range" : [0, 1],
          "type" : 1,
          "editRate" : 10000000,
          "trackRect" : [0, 0, 128, 128],
          "sampleRate" : 0,
          "bitDepth" : 32,
          "numChannels" : 0,
          "integratedLUFS" : 100.0,
          "peakLevel" : -1.0,
          "metaData" : ""
        }
      ],
      "metadata" : {
        "assetLibraryId" : "75d65985-041c-43c4-a44b-f79aada87cf9",
        "timeAdded" : "20210116T003741.831821"
      }
    },
    {
      "id" : 18,
      "src" : "C:\\ProgramData\\TechSmith\\Camtasia Studio 19\\Library 4.0\\User Libraries\\K8s\\start.asset\\svc-128.png",
      "rect" : [0, 0, 128, 128],
      "lastMod" : "20201224T160827",
      "sourceTracks" : [
        {
          "range" : [0, 1],
          "type" : 1,
          "editRate" : 10000000,
          "trackRect" : [0, 0, 128, 128],
          "sampleRate" : 0,
          "bitDepth" : 32,
          "numChannels" : 0,
          "integratedLUFS" : 100.0,
          "peakLevel" : -1.0,
          "metaData" : ""
        }
      ],
      "metadata" : {
        "assetLibraryId" : "75d65985-041c-43c4-a44b-f79aada87cf9",
        "timeAdded" : "20210116T003741.831821"
      }
    },
    {
      "id" : 19,
      "src" : "C:\\ProgramData\\TechSmith\\Camtasia Studio 19\\Library 4.0\\User Libraries\\K8s\\start.asset\\rs-128.png",
      "rect" : [0, 0, 128, 128],
      "lastMod" : "20201224T160827",
      "sourceTracks" : [
        {
          "range" : [0, 1],
          "type" : 1,
          "editRate" : 10000000,
          "trackRect" : [0, 0, 128, 128],
          "sampleRate" : 0,
          "bitDepth" : 32,
          "numChannels" : 0,
          "integratedLUFS" : 100.0,
          "peakLevel" : -1.0,
          "metaData" : ""
        }
      ],
      "metadata" : {
        "assetLibraryId" : "75d65985-041c-43c4-a44b-f79aada87cf9",
        "timeAdded" : "20210116T003741.831821"
      }
    },
    {
      "id" : 20,
      "src" : "C:\\ProgramData\\TechSmith\\Camtasia Studio 19\\Library 4.0\\User Libraries\\K8s\\start.asset\\vol-128.png",
      "rect" : [0, 0, 128, 128],
      "lastMod" : "20201224T160827",
      "sourceTracks" : [
        {
          "range" : [0, 1],
          "type" : 1,
          "editRate" : 10000000,
          "trackRect" : [0, 0, 128, 128],
          "sampleRate" : 0,
          "bitDepth" : 32,
          "numChannels" : 0,
          "integratedLUFS" : 100.0,
          "peakLevel" : -1.0,
          "metaData" : ""
        }
      ],
      "metadata" : {
        "assetLibraryId" : "75d65985-041c-43c4-a44b-f79aada87cf9",
        "timeAdded" : "20210116T003741.831821"
      }
    },
    {
      "id" : 21,
      "src" : "C:\\ProgramData\\TechSmith\\Camtasia Studio 19\\Library 4.0\\User Libraries\\K8s\\start.asset\\deploy-128.png",
      "rect" : [0, 0, 128, 128],
      "lastMod" : "20201224T160827",
      "sourceTracks" : [
        {
          "range" : [0, 1],
          "type" : 1,
          "editRate" : 10000000,
          "trackRect" : [0, 0, 128, 128],
          "sampleRate" : 0,
          "bitDepth" : 32,
          "numChannels" : 0,
          "integratedLUFS" : 100.0,
          "peakLevel" : -1.0,
          "metaData" : ""
        }
      ],
      "metadata" : {
        "assetLibraryId" : "75d65985-041c-43c4-a44b-f79aada87cf9",
        "timeAdded" : "20210116T003741.831821"
      }
    },
    {
      "id" : 22,
      "src" : "C:\\ProgramData\\TechSmith\\Camtasia Studio 19\\Library 4.0\\User Libraries\\K8s\\start.asset\\cronjob-128.png",
      "rect" : [0, 0, 128, 128],
      "lastMod" : "20201224T160827",
      "sourceTracks" : [
        {
          "range" : [0, 1],
          "type" : 1,
          "editRate" : 10000000,
          "trackRect" : [0, 0, 128, 128],
          "sampleRate" : 0,
          "bitDepth" : 32,
          "numChannels" : 0,
          "integratedLUFS" : 100.0,
          "peakLevel" : -1.0,
          "metaData" : ""
        }
      ],
      "metadata" : {
        "assetLibraryId" : "75d65985-041c-43c4-a44b-f79aada87cf9",
        "timeAdded" : "20210116T003741.831821"
      }
    },
    {
      "id" : 23,
      "src" : "C:\\ProgramData\\TechSmith\\Camtasia Studio 19\\Library 4.0\\User Libraries\\K8s\\start.asset\\k8sfavicon.png",
      "rect" : [0, 0, 512, 512],
      "lastMod" : "20210105T165021",
      "sourceTracks" : [
        {
          "range" : [0, 1],
          "type" : 1,
          "editRate" : 10000000,
          "trackRect" : [0, 0, 512, 512],
          "sampleRate" : 0,
          "bitDepth" : 32,
          "numChannels" : 0,
          "integratedLUFS" : 100.0,
          "peakLevel" : -1.0,
          "metaData" : ""
        }
      ],
      "metadata" : {
        "assetLibraryId" : "75d65985-041c-43c4-a44b-f79aada87cf9",
        "timeAdded" : "20210116T003741.831821"
      }
    },
    {
      "id" : 24,
      "src" : "C:\\ProgramData\\TechSmith\\Camtasia Studio 19\\Library 4.0\\User Libraries\\K8s\\start.asset\\wave.mp3",
      "rect" : [0, 0, 0, 0],
      "lastMod" : "20210105T195352",
      "sourceTracks" : [
        {
          "range" : [0, 185467500],
          "type" : 2,
          "editRate" : 10000000,
          "trackRect" : [0, 0, 0, 0],
          "sampleRate" : 44100,
          "bitDepth" : 0,
          "numChannels" : 2,
          "integratedLUFS" : -16.6955131625049,
          "peakLevel" : 0.940275430679321,
          "metaData" : ""
        }
      ],
      "metadata" : {
        "assetLibraryId" : "75d65985-041c-43c4-a44b-f79aada87cf9",
        "timeAdded" : "20210116T003741.831821"
      }
    },
    {
      "id" : 25,
      "src" : "D:\\Code\\K8S\\video\\3\\Narration_3-1 Pod 8.m4a",
      "rect" : [0, 0, 0, 0],
      "lastMod" : "20210116T004237",
      "sourceTracks" : [
        {
          "range" : [0, 29721542],
          "type" : 2,
          "editRate" : 10000000,
          "trackRect" : [0, 0, 0, 0],
          "sampleRate" : 44100,
          "bitDepth" : 16,
          "numChannels" : 2,
          "integratedLUFS" : -15.4756412355278,
          "peakLevel" : 0.81543356180191,
          "metaData" : ""
        }
      ],
      "metadata" : {
        "timeAdded" : "20210116T004244.980342"
      }
    },
    {
      "id" : 26,
      "src" : "C:\\ProgramData\\TechSmith\\Camtasia Studio 19\\Library 4.0\\User Libraries\\K8s\\end.asset\\wave1.png",
      "rect" : [0, 0, 1907, 383],
      "lastMod" : "20210105T163238",
      "sourceTracks" : [
        {
          "range" : [0, 1],
          "type" : 1,
          "editRate" : 10000000,
          "trackRect" : [0, 0, 1907, 383],
          "sampleRate" : 0,
          "bitDepth" : 24,
          "numChannels" : 0,
          "integratedLUFS" : 100.0,
          "peakLevel" : -1.0,
          "metaData" : ""
        }
      ],
      "metadata" : {
        "assetLibraryId" : "c49e4026-371e-4445-9c95-bf86c5e3c498",
        "timeAdded" : "20210116T004429.787118"
      }
    },
    {
      "id" : 27,
      "src" : "C:\\ProgramData\\TechSmith\\Camtasia Studio 19\\Library 4.0\\User Libraries\\K8s\\end.asset\\wave2.png",
      "rect" : [0, 0, 1906, 341],
      "lastMod" : "20210105T163731",
      "sourceTracks" : [
        {
          "range" : [0, 1],
          "type" : 1,
          "editRate" : 10000000,
          "trackRect" : [0, 0, 1906, 341],
          "sampleRate" : 0,
          "bitDepth" : 24,
          "numChannels" : 0,
          "integratedLUFS" : 100.0,
          "peakLevel" : -1.0,
          "metaData" : ""
        }
      ],
      "metadata" : {
        "assetLibraryId" : "c49e4026-371e-4445-9c95-bf86c5e3c498",
        "timeAdded" : "20210116T004429.787118"
      }
    },
    {
      "id" : 28,
      "src" : "C:\\ProgramData\\TechSmith\\Camtasia Studio 19\\Library 4.0\\User Libraries\\K8s\\end.asset\\wave3.png",
      "rect" : [0, 0, 1903, 380],
      "lastMod" : "20210105T163725",
      "sourceTracks" : [
        {
          "range" : [0, 1],
          "type" : 1,
          "editRate" : 10000000,
          "trackRect" : [0, 0, 1903, 380],
          "sampleRate" : 0,
          "bitDepth" : 24,
          "numChannels" : 0,
          "integratedLUFS" : 100.0,
          "peakLevel" : -1.0,
          "metaData" : ""
        }
      ],
      "metadata" : {
        "assetLibraryId" : "c49e4026-371e-4445-9c95-bf86c5e3c498",
        "timeAdded" : "20210116T004429.787118"
      }
    },
    {
      "id" : 29,
      "src" : "C:\\ProgramData\\TechSmith\\Camtasia Studio 19\\Library 4.0\\User Libraries\\K8s\\end.asset\\control-plane-128.png",
      "rect" : [0, 0, 128, 128],
      "lastMod" : "20201224T160827",
      "sourceTracks" : [
        {
          "range" : [0, 1],
          "type" : 1,
          "editRate" : 10000000,
          "trackRect" : [0, 0, 128, 128],
          "sampleRate" : 0,
          "bitDepth" : 32,
          "numChannels" : 0,
          "integratedLUFS" : 100.0,
          "peakLevel" : -1.0,
          "metaData" : ""
        }
      ],
      "metadata" : {
        "assetLibraryId" : "c49e4026-371e-4445-9c95-bf86c5e3c498",
        "timeAdded" : "20210116T004429.787118"
      }
    },
    {
      "id" : 30,
      "src" : "C:\\ProgramData\\TechSmith\\Camtasia Studio 19\\Library 4.0\\User Libraries\\K8s\\end.asset\\etcd-128.png",
      "rect" : [0, 0, 128, 128],
      "lastMod" : "20201224T160827",
      "sourceTracks" : [
        {
          "range" : [0, 1],
          "type" : 1,
          "editRate" : 10000000,
          "trackRect" : [0, 0, 128, 128],
          "sampleRate" : 0,
          "bitDepth" : 32,
          "numChannels" : 0,
          "integratedLUFS" : 100.0,
          "peakLevel" : -1.0,
          "metaData" : ""
        }
      ],
      "metadata" : {
        "assetLibraryId" : "c49e4026-371e-4445-9c95-bf86c5e3c498",
        "timeAdded" : "20210116T004429.787118"
      }
    },
    {
      "id" : 31,
      "src" : "C:\\ProgramData\\TechSmith\\Camtasia Studio 19\\Library 4.0\\User Libraries\\K8s\\end.asset\\node-128.png",
      "rect" : [0, 0, 128, 128],
      "lastMod" : "20201224T160827",
      "sourceTracks" : [
        {
          "range" : [0, 1],
          "type" : 1,
          "editRate" : 10000000,
          "trackRect" : [0, 0, 128, 128],
          "sampleRate" : 0,
          "bitDepth" : 32,
          "numChannels" : 0,
          "integratedLUFS" : 100.0,
          "peakLevel" : -1.0,
          "metaData" : ""
        }
      ],
      "metadata" : {
        "assetLibraryId" : "c49e4026-371e-4445-9c95-bf86c5e3c498",
        "timeAdded" : "20210116T004429.787118"
      }
    },
    {
      "id" : 32,
      "src" : "C:\\ProgramData\\TechSmith\\Camtasia Studio 19\\Library 4.0\\User Libraries\\K8s\\end.asset\\ns-128.png",
      "rect" : [0, 0, 128, 128],
      "lastMod" : "20201224T160827",
      "sourceTracks" : [
        {
          "range" : [0, 1],
          "type" : 1,
          "editRate" : 10000000,
          "trackRect" : [0, 0, 128, 128],
          "sampleRate" : 0,
          "bitDepth" : 32,
          "numChannels" : 0,
          "integratedLUFS" : 100.0,
          "peakLevel" : -1.0,
          "metaData" : ""
        }
      ],
      "metadata" : {
        "assetLibraryId" : "c49e4026-371e-4445-9c95-bf86c5e3c498",
        "timeAdded" : "20210116T004429.787118"
      }
    },
    {
      "id" : 33,
      "src" : "C:\\ProgramData\\TechSmith\\Camtasia Studio 19\\Library 4.0\\User Libraries\\K8s\\end.asset\\pod-128.png",
      "rect" : [0, 0, 128, 128],
      "lastMod" : "20201224T160827",
      "sourceTracks" : [
        {
          "range" : [0, 1],
          "type" : 1,
          "editRate" : 10000000,
          "trackRect" : [0, 0, 128, 128],
          "sampleRate" : 0,
          "bitDepth" : 32,
          "numChannels" : 0,
          "integratedLUFS" : 100.0,
          "peakLevel" : -1.0,
          "metaData" : ""
        }
      ],
      "metadata" : {
        "assetLibraryId" : "c49e4026-371e-4445-9c95-bf86c5e3c498",
        "timeAdded" : "20210116T004429.787118"
      }
    },
    {
      "id" : 34,
      "src" : "C:\\ProgramData\\TechSmith\\Camtasia Studio 19\\Library 4.0\\User Libraries\\K8s\\end.asset\\secret-128.png",
      "rect" : [0, 0, 128, 128],
      "lastMod" : "20201224T160827",
      "sourceTracks" : [
        {
          "range" : [0, 1],
          "type" : 1,
          "editRate" : 10000000,
          "trackRect" : [0, 0, 128, 128],
          "sampleRate" : 0,
          "bitDepth" : 32,
          "numChannels" : 0,
          "integratedLUFS" : 100.0,
          "peakLevel" : -1.0,
          "metaData" : ""
        }
      ],
      "metadata" : {
        "assetLibraryId" : "c49e4026-371e-4445-9c95-bf86c5e3c498",
        "timeAdded" : "20210116T004429.787118"
      }
    },
    {
      "id" : 35,
      "src" : "C:\\ProgramData\\TechSmith\\Camtasia Studio 19\\Library 4.0\\User Libraries\\K8s\\end.asset\\svc-128.png",
      "rect" : [0, 0, 128, 128],
      "lastMod" : "20201224T160827",
      "sourceTracks" : [
        {
          "range" : [0, 1],
          "type" : 1,
          "editRate" : 10000000,
          "trackRect" : [0, 0, 128, 128],
          "sampleRate" : 0,
          "bitDepth" : 32,
          "numChannels" : 0,
          "integratedLUFS" : 100.0,
          "peakLevel" : -1.0,
          "metaData" : ""
        }
      ],
      "metadata" : {
        "assetLibraryId" : "c49e4026-371e-4445-9c95-bf86c5e3c498",
        "timeAdded" : "20210116T004429.787118"
      }
    },
    {
      "id" : 36,
      "src" : "C:\\ProgramData\\TechSmith\\Camtasia Studio 19\\Library 4.0\\User Libraries\\K8s\\end.asset\\rs-128.png",
      "rect" : [0, 0, 128, 128],
      "lastMod" : "20201224T160827",
      "sourceTracks" : [
        {
          "range" : [0, 1],
          "type" : 1,
          "editRate" : 10000000,
          "trackRect" : [0, 0, 128, 128],
          "sampleRate" : 0,
          "bitDepth" : 32,
          "numChannels" : 0,
          "integratedLUFS" : 100.0,
          "peakLevel" : -1.0,
          "metaData" : ""
        }
      ],
      "metadata" : {
        "assetLibraryId" : "c49e4026-371e-4445-9c95-bf86c5e3c498",
        "timeAdded" : "20210116T004429.787118"
      }
    },
    {
      "id" : 37,
      "src" : "C:\\ProgramData\\TechSmith\\Camtasia Studio 19\\Library 4.0\\User Libraries\\K8s\\end.asset\\vol-128.png",
      "rect" : [0, 0, 128, 128],
      "lastMod" : "20201224T160827",
      "sourceTracks" : [
        {
          "range" : [0, 1],
          "type" : 1,
          "editRate" : 10000000,
          "trackRect" : [0, 0, 128, 128],
          "sampleRate" : 0,
          "bitDepth" : 32,
          "numChannels" : 0,
          "integratedLUFS" : 100.0,
          "peakLevel" : -1.0,
          "metaData" : ""
        }
      ],
      "metadata" : {
        "assetLibraryId" : "c49e4026-371e-4445-9c95-bf86c5e3c498",
        "timeAdded" : "20210116T004429.787118"
      }
    },
    {
      "id" : 38,
      "src" : "C:\\ProgramData\\TechSmith\\Camtasia Studio 19\\Library 4.0\\User Libraries\\K8s\\end.asset\\deploy-128.png",
      "rect" : [0, 0, 128, 128],
      "lastMod" : "20201224T160827",
      "sourceTracks" : [
        {
          "range" : [0, 1],
          "type" : 1,
          "editRate" : 10000000,
          "trackRect" : [0, 0, 128, 128],
          "sampleRate" : 0,
          "bitDepth" : 32,
          "numChannels" : 0,
          "integratedLUFS" : 100.0,
          "peakLevel" : -1.0,
          "metaData" : ""
        }
      ],
      "metadata" : {
        "assetLibraryId" : "c49e4026-371e-4445-9c95-bf86c5e3c498",
        "timeAdded" : "20210116T004429.787118"
      }
    },
    {
      "id" : 39,
      "src" : "C:\\ProgramData\\TechSmith\\Camtasia Studio 19\\Library 4.0\\User Libraries\\K8s\\end.asset\\cronjob-128.png",
      "rect" : [0, 0, 128, 128],
      "lastMod" : "20201224T160827",
      "sourceTracks" : [
        {
          "range" : [0, 1],
          "type" : 1,
          "editRate" : 10000000,
          "trackRect" : [0, 0, 128, 128],
          "sampleRate" : 0,
          "bitDepth" : 32,
          "numChannels" : 0,
          "integratedLUFS" : 100.0,
          "peakLevel" : -1.0,
          "metaData" : ""
        }
      ],
      "metadata" : {
        "assetLibraryId" : "c49e4026-371e-4445-9c95-bf86c5e3c498",
        "timeAdded" : "20210116T004429.787118"
      }
    },
    {
      "id" : 40,
      "src" : "C:\\ProgramData\\TechSmith\\Camtasia Studio 19\\Library 4.0\\User Libraries\\K8s\\end.asset\\k8sfavicon.png",
      "rect" : [0, 0, 512, 512],
      "lastMod" : "20210105T165021",
      "sourceTracks" : [
        {
          "range" : [0, 1],
          "type" : 1,
          "editRate" : 10000000,
          "trackRect" : [0, 0, 512, 512],
          "sampleRate" : 0,
          "bitDepth" : 32,
          "numChannels" : 0,
          "integratedLUFS" : 100.0,
          "peakLevel" : -1.0,
          "metaData" : ""
        }
      ],
      "metadata" : {
        "assetLibraryId" : "c49e4026-371e-4445-9c95-bf86c5e3c498",
        "timeAdded" : "20210116T004429.787118"
      }
    },
    {
      "id" : 41,
      "src" : "C:\\ProgramData\\TechSmith\\Camtasia Studio 19\\Library 4.0\\User Libraries\\K8s\\end.asset\\wave.mp3",
      "rect" : [0, 0, 0, 0],
      "lastMod" : "20210105T195352",
      "sourceTracks" : [
        {
          "range" : [0, 185467500],
          "type" : 2,
          "editRate" : 10000000,
          "trackRect" : [0, 0, 0, 0],
          "sampleRate" : 44100,
          "bitDepth" : 0,
          "numChannels" : 2,
          "integratedLUFS" : -16.6955131625049,
          "peakLevel" : 0.940275430679321,
          "metaData" : ""
        }
      ],
      "metadata" : {
        "assetLibraryId" : "c49e4026-371e-4445-9c95-bf86c5e3c498",
        "timeAdded" : "20210116T004429.787118"
      }
    }
  ],
  "timeline" : {
    "id" : 42,
    "sceneTrack" : {
      "scenes" : [
        {
          "duration" : 448.9,
          "title" : "",
          "type" : "",
          "csml" : {
            "tracks" : [
              {
                "trackIndex" : 0,
                "medias" : [
                  {
                    "id" : 43,
                    "_type" : "Group",
                    "parameters" : {
                      "volume" : 1.0
                    },
                    "tracks" : [
                      {
                        "trackIndex" : 0,
                        "medias" : [
                          {
                            "id" : 44,
                            "_type" : "StitchedMedia",
                            "minMediaStart" : 0,
                            "attributes" : {
                              "ident" : "Rec 01-10-21",
                              "gain" : 1.0,
                              "mixToMono" : false
                            },
                            "parameters" : {
                              "cursorOpacity" : 1.0,
                              "cursorScale" : 1.0
                            },
                            "medias" : [
                                {
                                  "id" : 45,
                                  "_type" : "ScreenVMFile",
                                  "src" : 1,
                                  "trackNumber" : 0,
                                  "attributes" : {
                                    "ident" : "Rec 01-10-21"
                                  },
                                  "parameters" : {
                                    "cursorScale" : {
                                      "type" : "double",
                                      "defaultValue" : 0.0,
                                      "interp" : "linr"
                                    },
                                    "cursorOpacity" : {
                                      "type" : "double",
                                      "defaultValue" : 0.0,
                                      "interp" : "linr"
                                    }
                                  },
                                  "effects" : [

                                  ],
                                  "start" : 0,
                                  "duration" : 14,
                                  "mediaStart" : 0,
                                  "mediaDuration" : 14,
                                  "scalar" : 1,
                                  "metadata" : {
                                    "AutoAppliedSmartFocus" : "False"
                                  },
                                  "animationTracks" : {

                                  }
                                },
                                {
                                  "id" : 46,
                                  "_type" : "ScreenVMFile",
                                  "src" : 1,
                                  "trackNumber" : 0,
                                  "attributes" : {
                                    "ident" : "Rec 01-10-21"
                                  },
                                  "parameters" : {
                                    "cursorScale" : {
                                      "type" : "double",
                                      "defaultValue" : 0.0,
                                      "interp" : "linr"
                                    },
                                    "cursorOpacity" : {
                                      "type" : "double",
                                      "defaultValue" : 0.0,
                                      "interp" : "linr"
                                    }
                                  },
                                  "effects" : [

                                  ],
                                  "start" : 14,
                                  "duration" : 18,
                                  "mediaStart" : 114,
                                  "mediaDuration" : 18,
                                  "scalar" : 1,
                                  "metadata" : {
                                    "AutoAppliedSmartFocus" : "False"
                                  },
                                  "animationTracks" : {

                                  }
                                },
                                {
                                  "id" : 47,
                                  "_type" : "ScreenVMFile",
                                  "src" : 1,
                                  "trackNumber" : 0,
                                  "attributes" : {
                                    "ident" : "Rec 01-10-21"
                                  },
                                  "parameters" : {
                                    "cursorScale" : {
                                      "type" : "double",
                                      "defaultValue" : 0.0,
                                      "interp" : "linr"
                                    },
                                    "cursorOpacity" : {
                                      "type" : "double",
                                      "defaultValue" : 0.0,
                                      "interp" : "linr"
                                    }
                                  },
                                  "effects" : [

                                  ],
                                  "start" : 32,
                                  "duration" : 258,
                                  "mediaStart" : 139,
                                  "mediaDuration" : 258,
                                  "scalar" : 1,
                                  "metadata" : {
                                    "AutoAppliedSmartFocus" : "False"
                                  },
                                  "animationTracks" : {

                                  }
                                },
                                {
                                  "id" : 48,
                                  "_type" : "ScreenVMFile",
                                  "src" : 1,
                                  "trackNumber" : 0,
                                  "attributes" : {
                                    "ident" : "Rec 01-10-21"
                                  },
                                  "parameters" : {
                                    "cursorScale" : {
                                      "type" : "double",
                                      "defaultValue" : 0.0,
                                      "interp" : "linr"
                                    },
                                    "cursorOpacity" : {
                                      "type" : "double",
                                      "defaultValue" : 0.0,
                                      "interp" : "linr"
                                    }
                                  },
                                  "effects" : [

                                  ],
                                  "start" : 290,
                                  "duration" : 38,
                                  "mediaStart" : 449,
                                  "mediaDuration" : 38,
                                  "scalar" : 1,
                                  "metadata" : {
                                    "AutoAppliedSmartFocus" : "False"
                                  },
                                  "animationTracks" : {

                                  }
                                },
                                {
                                  "id" : 49,
                                  "_type" : "ScreenVMFile",
                                  "src" : 1,
                                  "trackNumber" : 0,
                                  "attributes" : {
                                    "ident" : "Rec 01-10-21"
                                  },
                                  "parameters" : {
                                    "cursorScale" : {
                                      "type" : "double",
                                      "defaultValue" : 0.0,
                                      "interp" : "linr"
                                    },
                                    "cursorOpacity" : {
                                      "type" : "double",
                                      "defaultValue" : 0.0,
                                      "interp" : "linr"
                                    }
                                  },
                                  "effects" : [

                                  ],
                                  "start" : 328,
                                  "duration" : 180,
                                  "mediaStart" : 577,
                                  "mediaDuration" : 180,
                                  "scalar" : 1,
                                  "metadata" : {
                                    "AutoAppliedSmartFocus" : "False"
                                  },
                                  "animationTracks" : {

                                  }
                                },
                                {
                                  "id" : 50,
                                  "_type" : "ScreenVMFile",
                                  "src" : 1,
                                  "trackNumber" : 0,
                                  "attributes" : {
                                    "ident" : "Rec 01-10-21"
                                  },
                                  "parameters" : {
                                    "cursorScale" : {
                                      "type" : "double",
                                      "defaultValue" : 0.0,
                                      "interp" : "linr"
                                    },
                                    "cursorOpacity" : {
                                      "type" : "double",
                                      "defaultValue" : 0.0,
                                      "interp" : "linr"
                                    }
                                  },
                                  "effects" : [

                                  ],
                                  "start" : 508,
                                  "duration" : 144,
                                  "mediaStart" : 812,
                                  "mediaDuration" : 144,
                                  "scalar" : 1,
                                  "metadata" : {
                                    "AutoAppliedSmartFocus" : "False"
                                  },
                                  "animationTracks" : {

                                  }
                                },
                                {
                                  "id" : 51,
                                  "_type" : "ScreenVMFile",
                                  "src" : 1,
                                  "trackNumber" : 0,
                                  "attributes" : {
                                    "ident" : "Rec 01-10-21"
                                  },
                                  "parameters" : {
                                    "cursorScale" : {
                                      "type" : "double",
                                      "defaultValue" : 0.0,
                                      "interp" : "linr"
                                    },
                                    "cursorOpacity" : {
                                      "type" : "double",
                                      "defaultValue" : 0.0,
                                      "interp" : "linr"
                                    }
                                  },
                                  "effects" : [

                                  ],
                                  "start" : 652,
                                  "duration" : 129,
                                  "mediaStart" : 1874,
                                  "mediaDuration" : 129,
                                  "scalar" : 1,
                                  "metadata" : {
                                    "AutoAppliedSmartFocus" : "False"
                                  },
                                  "animationTracks" : {

                                  }
                                },
                                {
                                  "id" : 52,
                                  "_type" : "ScreenVMFile",
                                  "src" : 1,
                                  "trackNumber" : 0,
                                  "attributes" : {
                                    "ident" : "Rec 01-10-21"
                                  },
                                  "parameters" : {
                                    "cursorScale" : {
                                      "type" : "double",
                                      "defaultValue" : 0.0,
                                      "interp" : "linr"
                                    },
                                    "cursorOpacity" : {
                                      "type" : "double",
                                      "defaultValue" : 0.0,
                                      "interp" : "linr"
                                    }
                                  },
                                  "effects" : [

                                  ],
                                  "start" : 781,
                                  "duration" : 48,
                                  "mediaStart" : 2178,
                                  "mediaDuration" : 48,
                                  "scalar" : 1,
                                  "metadata" : {
                                    "AutoAppliedSmartFocus" : "False"
                                  },
                                  "animationTracks" : {

                                  }
                                },
                                {
                                  "id" : 53,
                                  "_type" : "ScreenVMFile",
                                  "src" : 1,
                                  "trackNumber" : 0,
                                  "attributes" : {
                                    "ident" : "Rec 01-10-21"
                                  },
                                  "parameters" : {
                                    "cursorScale" : {
                                      "type" : "double",
                                      "defaultValue" : 0.0,
                                      "interp" : "linr"
                                    },
                                    "cursorOpacity" : {
                                      "type" : "double",
                                      "defaultValue" : 0.0,
                                      "interp" : "linr"
                                    }
                                  },
                                  "effects" : [

                                  ],
                                  "start" : 829,
                                  "duration" : 86,
                                  "mediaStart" : 2257,
                                  "mediaDuration" : 86,
                                  "scalar" : 1,
                                  "metadata" : {
                                    "AutoAppliedSmartFocus" : "False"
                                  },
                                  "animationTracks" : {

                                  }
                                },
                                {
                                  "id" : 54,
                                  "_type" : "ScreenVMFile",
                                  "src" : 1,
                                  "trackNumber" : 0,
                                  "attributes" : {
                                    "ident" : "Rec 01-10-21"
                                  },
                                  "parameters" : {
                                    "cursorScale" : {
                                      "type" : "double",
                                      "defaultValue" : 0.0,
                                      "interp" : "linr"
                                    },
                                    "cursorOpacity" : {
                                      "type" : "double",
                                      "defaultValue" : 0.0,
                                      "interp" : "linr"
                                    }
                                  },
                                  "effects" : [

                                  ],
                                  "start" : 915,
                                  "duration" : 121,
                                  "mediaStart" : 2359,
                                  "mediaDuration" : 121,
                                  "scalar" : 1,
                                  "metadata" : {
                                    "AutoAppliedSmartFocus" : "False"
                                  },
                                  "animationTracks" : {

                                  }
                                },
                                {
                                  "id" : 55,
                                  "_type" : "ScreenVMFile",
                                  "src" : 1,
                                  "trackNumber" : 0,
                                  "attributes" : {
                                    "ident" : "Rec 01-10-21"
                                  },
                                  "parameters" : {
                                    "cursorScale" : {
                                      "type" : "double",
                                      "defaultValue" : 0.0,
                                      "interp" : "linr"
                                    },
                                    "cursorOpacity" : {
                                      "type" : "double",
                                      "defaultValue" : 0.0,
                                      "interp" : "linr"
                                    }
                                  },
                                  "effects" : [

                                  ],
                                  "start" : 1036,
                                  "duration" : 103,
                                  "mediaStart" : 2511,
                                  "mediaDuration" : 103,
                                  "scalar" : 1,
                                  "metadata" : {
                                    "AutoAppliedSmartFocus" : "False"
                                  },
                                  "animationTracks" : {

                                  }
                                },
                                {
                                  "id" : 56,
                                  "_type" : "ScreenVMFile",
                                  "src" : 1,
                                  "trackNumber" : 0,
                                  "attributes" : {
                                    "ident" : "Rec 01-10-21"
                                  },
                                  "parameters" : {
                                    "cursorScale" : {
                                      "type" : "double",
                                      "defaultValue" : 0.0,
                                      "interp" : "linr"
                                    },
                                    "cursorOpacity" : {
                                      "type" : "double",
                                      "defaultValue" : 0.0,
                                      "interp" : "linr"
                                    }
                                  },
                                  "effects" : [

                                  ],
                                  "start" : 1139,
                                  "duration" : 26,
                                  "mediaStart" : 2629,
                                  "mediaDuration" : 26,
                                  "scalar" : 1,
                                  "metadata" : {
                                    "AutoAppliedSmartFocus" : "False"
                                  },
                                  "animationTracks" : {

                                  }
                                },
                                {
                                  "id" : 57,
                                  "_type" : "ScreenVMFile",
                                  "src" : 1,
                                  "trackNumber" : 0,
                                  "attributes" : {
                                    "ident" : "Rec 01-10-21"
                                  },
                                  "parameters" : {
                                    "cursorScale" : {
                                      "type" : "double",
                                      "defaultValue" : 0.0,
                                      "interp" : "linr"
                                    },
                                    "cursorOpacity" : {
                                      "type" : "double",
                                      "defaultValue" : 0.0,
                                      "interp" : "linr"
                                    }
                                  },
                                  "effects" : [

                                  ],
                                  "start" : 1165,
                                  "duration" : 22,
                                  "mediaStart" : 2688,
                                  "mediaDuration" : 22,
                                  "scalar" : 1,
                                  "metadata" : {
                                    "AutoAppliedSmartFocus" : "False"
                                  },
                                  "animationTracks" : {

                                  }
                                },
                                {
                                  "id" : 58,
                                  "_type" : "ScreenVMFile",
                                  "src" : 1,
                                  "trackNumber" : 0,
                                  "attributes" : {
                                    "ident" : "Rec 01-10-21"
                                  },
                                  "parameters" : {
                                    "cursorScale" : {
                                      "type" : "double",
                                      "defaultValue" : 0.0,
                                      "interp" : "linr"
                                    },
                                    "cursorOpacity" : {
                                      "type" : "double",
                                      "defaultValue" : 0.0,
                                      "interp" : "linr"
                                    }
                                  },
                                  "effects" : [

                                  ],
                                  "start" : 1187,
                                  "duration" : 30,
                                  "mediaStart" : 2740,
                                  "mediaDuration" : 30,
                                  "scalar" : 1,
                                  "metadata" : {
                                    "AutoAppliedSmartFocus" : "False"
                                  },
                                  "animationTracks" : {

                                  }
                                },
                                {
                                  "id" : 59,
                                  "_type" : "ScreenVMFile",
                                  "src" : 1,
                                  "trackNumber" : 0,
                                  "attributes" : {
                                    "ident" : "Rec 01-10-21"
                                  },
                                  "parameters" : {
                                    "cursorScale" : {
                                      "type" : "double",
                                      "defaultValue" : 0.0,
                                      "interp" : "linr"
                                    },
                                    "cursorOpacity" : {
                                      "type" : "double",
                                      "defaultValue" : 0.0,
                                      "interp" : "linr"
                                    }
                                  },
                                  "effects" : [

                                  ],
                                  "start" : 1217,
                                  "duration" : 244,
                                  "mediaStart" : 2861,
                                  "mediaDuration" : 244,
                                  "scalar" : 1,
                                  "metadata" : {
                                    "AutoAppliedSmartFocus" : "False"
                                  },
                                  "animationTracks" : {

                                  }
                                },
                                {
                                  "id" : 60,
                                  "_type" : "ScreenVMFile",
                                  "src" : 1,
                                  "trackNumber" : 0,
                                  "attributes" : {
                                    "ident" : "Rec 01-10-21"
                                  },
                                  "parameters" : {
                                    "cursorScale" : {
                                      "type" : "double",
                                      "defaultValue" : 0.0,
                                      "interp" : "linr"
                                    },
                                    "cursorOpacity" : {
                                      "type" : "double",
                                      "defaultValue" : 0.0,
                                      "interp" : "linr"
                                    }
                                  },
                                  "effects" : [

                                  ],
                                  "start" : 1461,
                                  "duration" : 44,
                                  "mediaStart" : 3140,
                                  "mediaDuration" : 44,
                                  "scalar" : 1,
                                  "metadata" : {
                                    "AutoAppliedSmartFocus" : "False"
                                  },
                                  "animationTracks" : {

                                  }
                                },
                                {
                                  "id" : 61,
                                  "_type" : "ScreenVMFile",
                                  "src" : 1,
                                  "trackNumber" : 0,
                                  "attributes" : {
                                    "ident" : "Rec 01-10-21"
                                  },
                                  "parameters" : {
                                    "cursorScale" : {
                                      "type" : "double",
                                      "defaultValue" : 0.0,
                                      "interp" : "linr"
                                    },
                                    "cursorOpacity" : {
                                      "type" : "double",
                                      "defaultValue" : 0.0,
                                      "interp" : "linr"
                                    }
                                  },
                                  "effects" : [

                                  ],
                                  "start" : 1505,
                                  "duration" : 112,
                                  "mediaStart" : 3212,
                                  "mediaDuration" : 112,
                                  "scalar" : 1,
                                  "metadata" : {
                                    "AutoAppliedSmartFocus" : "False"
                                  },
                                  "animationTracks" : {

                                  }
                                },
                                {
                                  "id" : 62,
                                  "_type" : "ScreenVMFile",
                                  "src" : 1,
                                  "trackNumber" : 0,
                                  "attributes" : {
                                    "ident" : "Rec 01-10-21"
                                  },
                                  "parameters" : {
                                    "cursorScale" : {
                                      "type" : "double",
                                      "defaultValue" : 0.0,
                                      "interp" : "linr"
                                    },
                                    "cursorOpacity" : {
                                      "type" : "double",
                                      "defaultValue" : 0.0,
                                      "interp" : "linr"
                                    }
                                  },
                                  "effects" : [

                                  ],
                                  "start" : 1617,
                                  "duration" : 54,
                                  "mediaStart" : 3344,
                                  "mediaDuration" : 54,
                                  "scalar" : 1,
                                  "metadata" : {
                                    "AutoAppliedSmartFocus" : "False"
                                  },
                                  "animationTracks" : {

                                  }
                                },
                                {
                                  "id" : 63,
                                  "_type" : "ScreenVMFile",
                                  "src" : 1,
                                  "trackNumber" : 0,
                                  "attributes" : {
                                    "ident" : "Rec 01-10-21"
                                  },
                                  "parameters" : {
                                    "cursorScale" : {
                                      "type" : "double",
                                      "defaultValue" : 0.0,
                                      "interp" : "linr"
                                    },
                                    "cursorOpacity" : {
                                      "type" : "double",
                                      "defaultValue" : 0.0,
                                      "interp" : "linr"
                                    }
                                  },
                                  "effects" : [

                                  ],
                                  "start" : 1671,
                                  "duration" : 39,
                                  "mediaStart" : 3481,
                                  "mediaDuration" : 39,
                                  "scalar" : 1,
                                  "metadata" : {
                                    "AutoAppliedSmartFocus" : "False"
                                  },
                                  "animationTracks" : {

                                  }
                                },
                                {
                                  "id" : 64,
                                  "_type" : "ScreenVMFile",
                                  "src" : 1,
                                  "trackNumber" : 0,
                                  "attributes" : {
                                    "ident" : "Rec 01-10-21"
                                  },
                                  "parameters" : {
                                    "cursorScale" : {
                                      "type" : "double",
                                      "defaultValue" : 0.0,
                                      "interp" : "linr"
                                    },
                                    "cursorOpacity" : {
                                      "type" : "double",
                                      "defaultValue" : 0.0,
                                      "interp" : "linr"
                                    }
                                  },
                                  "effects" : [

                                  ],
                                  "start" : 1710,
                                  "duration" : 22206,
                                  "mediaStart" : 3541,
                                  "mediaDuration" : 22206,
                                  "scalar" : 1,
                                  "metadata" : {
                                    "AutoAppliedSmartFocus" : "False"
                                  },
                                  "animationTracks" : {

                                  }
                                }
                            ],
                            "effects" : [

                            ],
                            "start" : 0,
                            "duration" : 54,
                            "mediaStart" : 0,
                            "mediaDuration" : 54,
                            "scalar" : 1,
                            "metadata" : {
                              "AutoAppliedSmartFocus" : "False",
                              "clipSpeedAttribute" : false
                            },
                            "animationTracks" : {

                            }
                          },
                          {
                            "id" : 65,
                            "_type" : "StitchedMedia",
                            "minMediaStart" : 0,
                            "attributes" : {
                              "ident" : "Rec 01-10-21",
                              "gain" : 1.0,
                              "mixToMono" : false
                            },
                            "parameters" : {
                              "volume" : 1.0,
                              "cursorOpacity" : {
                                "type" : "double",
                                "defaultValue" : 1.0,
                                "interp" : "linr"
                              },
                              "cursorScale" : {
                                "type" : "double",
                                "defaultValue" : 1.0,
                                "interp" : "linr"
                              }
                            },
                            "medias" : [
                                {
                                  "id" : 66,
                                  "_type" : "UnifiedMedia",
                                  "video" : 
                                      {
                                        "id" : 67,
                                        "_type" : "ScreenVMFile",
                                        "src" : 1,
                                        "trackNumber" : 0,
                                        "attributes" : {
                                          "ident" : "Rec 01-10-21"
                                        },
                                        "parameters" : {
                                          "cursorScale" : {
                                            "type" : "double",
                                            "defaultValue" : 0.0,
                                            "interp" : "linr"
                                          },
                                          "cursorOpacity" : {
                                            "type" : "double",
                                            "defaultValue" : 0.0,
                                            "interp" : "linr"
                                          }
                                        },
                                        "effects" : [

                                        ],
                                        "start" : 0,
                                        "duration" : 14,
                                        "mediaStart" : 0,
                                        "mediaDuration" : 14,
                                        "scalar" : 1,
                                        "animationTracks" : {

                                        }
                                      },
                                  "audio" : 
                                      {
                                        "id" : 68,
                                        "_type" : "AMFile",
                                        "src" : 1,
                                        "trackNumber" : 1,
                                        "attributes" : {
                                          "ident" : "",
                                          "gain" : 1.0,
                                          "mixToMono" : false
                                        },
                                          "channelNumber" : "0,1",
                                        "effects" : [

                                        ],
                                        "start" : 0,
                                        "duration" : 14,
                                        "mediaStart" : 0,
                                        "mediaDuration" : 14,
                                        "scalar" : 1,
                                        "animationTracks" : {

                                        }
                                      }
,
                                  "start" : 0,
                                  "duration" : 14,
                                  "mediaStart" : 0,
                                  "mediaDuration" : 25747,
                                  "scalar" : 1,
                                  "metadata" : {
                                    "AutoAppliedSmartFocus" : "False",
                                    "clipSpeedAttribute" : false
                                  }
                                },
                                {
                                  "id" : 69,
                                  "_type" : "UnifiedMedia",
                                  "video" : 
                                      {
                                        "id" : 70,
                                        "_type" : "ScreenVMFile",
                                        "src" : 1,
                                        "trackNumber" : 0,
                                        "attributes" : {
                                          "ident" : "Rec 01-10-21"
                                        },
                                        "parameters" : {
                                          "cursorScale" : {
                                            "type" : "double",
                                            "defaultValue" : 0.0,
                                            "interp" : "linr"
                                          },
                                          "cursorOpacity" : {
                                            "type" : "double",
                                            "defaultValue" : 0.0,
                                            "interp" : "linr"
                                          }
                                        },
                                        "effects" : [

                                        ],
                                        "start" : 14,
                                        "duration" : 18,
                                        "mediaStart" : 114,
                                        "mediaDuration" : 18,
                                        "scalar" : 1,
                                        "animationTracks" : {

                                        }
                                      },
                                  "audio" : 
                                      {
                                        "id" : 71,
                                        "_type" : "AMFile",
                                        "src" : 1,
                                        "trackNumber" : 1,
                                        "attributes" : {
                                          "ident" : "",
                                          "gain" : 1.0,
                                          "mixToMono" : false
                                        },
                                          "channelNumber" : "0,1",
                                        "effects" : [

                                        ],
                                        "start" : 14,
                                        "duration" : 18,
                                        "mediaStart" : 114,
                                        "mediaDuration" : 18,
                                        "scalar" : 1,
                                        "animationTracks" : {

                                        }
                                      }
,
                                  "start" : 14,
                                  "duration" : 18,
                                  "mediaStart" : 0,
                                  "mediaDuration" : 25747,
                                  "scalar" : 1,
                                  "metadata" : {
                                    "AutoAppliedSmartFocus" : "False",
                                    "clipSpeedAttribute" : false
                                  }
                                },
                                {
                                  "id" : 72,
                                  "_type" : "UnifiedMedia",
                                  "video" : 
                                      {
                                        "id" : 73,
                                        "_type" : "ScreenVMFile",
                                        "src" : 1,
                                        "trackNumber" : 0,
                                        "attributes" : {
                                          "ident" : "Rec 01-10-21"
                                        },
                                        "parameters" : {
                                          "cursorScale" : {
                                            "type" : "double",
                                            "defaultValue" : 0.0,
                                            "interp" : "linr"
                                          },
                                          "cursorOpacity" : {
                                            "type" : "double",
                                            "defaultValue" : 0.0,
                                            "interp" : "linr"
                                          }
                                        },
                                        "effects" : [

                                        ],
                                        "start" : 32,
                                        "duration" : 258,
                                        "mediaStart" : 139,
                                        "mediaDuration" : 258,
                                        "scalar" : 1,
                                        "animationTracks" : {

                                        }
                                      },
                                  "audio" : 
                                      {
                                        "id" : 74,
                                        "_type" : "AMFile",
                                        "src" : 1,
                                        "trackNumber" : 1,
                                        "attributes" : {
                                          "ident" : "",
                                          "gain" : 1.0,
                                          "mixToMono" : false
                                        },
                                          "channelNumber" : "0,1",
                                        "effects" : [

                                        ],
                                        "start" : 32,
                                        "duration" : 258,
                                        "mediaStart" : 139,
                                        "mediaDuration" : 258,
                                        "scalar" : 1,
                                        "animationTracks" : {

                                        }
                                      }
,
                                  "start" : 32,
                                  "duration" : 258,
                                  "mediaStart" : 0,
                                  "mediaDuration" : 25747,
                                  "scalar" : 1,
                                  "metadata" : {
                                    "AutoAppliedSmartFocus" : "False",
                                    "clipSpeedAttribute" : false
                                  }
                                },
                                {
                                  "id" : 75,
                                  "_type" : "UnifiedMedia",
                                  "video" : 
                                      {
                                        "id" : 76,
                                        "_type" : "ScreenVMFile",
                                        "src" : 1,
                                        "trackNumber" : 0,
                                        "attributes" : {
                                          "ident" : "Rec 01-10-21"
                                        },
                                        "parameters" : {
                                          "cursorScale" : {
                                            "type" : "double",
                                            "defaultValue" : 0.0,
                                            "interp" : "linr"
                                          },
                                          "cursorOpacity" : {
                                            "type" : "double",
                                            "defaultValue" : 0.0,
                                            "interp" : "linr"
                                          }
                                        },
                                        "effects" : [

                                        ],
                                        "start" : 290,
                                        "duration" : 38,
                                        "mediaStart" : 449,
                                        "mediaDuration" : 38,
                                        "scalar" : 1,
                                        "animationTracks" : {

                                        }
                                      },
                                  "audio" : 
                                      {
                                        "id" : 77,
                                        "_type" : "AMFile",
                                        "src" : 1,
                                        "trackNumber" : 1,
                                        "attributes" : {
                                          "ident" : "",
                                          "gain" : 1.0,
                                          "mixToMono" : false
                                        },
                                          "channelNumber" : "0,1",
                                        "effects" : [

                                        ],
                                        "start" : 290,
                                        "duration" : 38,
                                        "mediaStart" : 449,
                                        "mediaDuration" : 38,
                                        "scalar" : 1,
                                        "animationTracks" : {

                                        }
                                      }
,
                                  "start" : 290,
                                  "duration" : 38,
                                  "mediaStart" : 0,
                                  "mediaDuration" : 25747,
                                  "scalar" : 1,
                                  "metadata" : {
                                    "AutoAppliedSmartFocus" : "False",
                                    "clipSpeedAttribute" : false
                                  }
                                },
                                {
                                  "id" : 78,
                                  "_type" : "UnifiedMedia",
                                  "video" : 
                                      {
                                        "id" : 79,
                                        "_type" : "ScreenVMFile",
                                        "src" : 1,
                                        "trackNumber" : 0,
                                        "attributes" : {
                                          "ident" : "Rec 01-10-21"
                                        },
                                        "parameters" : {
                                          "cursorScale" : {
                                            "type" : "double",
                                            "defaultValue" : 0.0,
                                            "interp" : "linr"
                                          },
                                          "cursorOpacity" : {
                                            "type" : "double",
                                            "defaultValue" : 0.0,
                                            "interp" : "linr"
                                          }
                                        },
                                        "effects" : [

                                        ],
                                        "start" : 328,
                                        "duration" : 180,
                                        "mediaStart" : 577,
                                        "mediaDuration" : 180,
                                        "scalar" : 1,
                                        "animationTracks" : {

                                        }
                                      },
                                  "audio" : 
                                      {
                                        "id" : 80,
                                        "_type" : "AMFile",
                                        "src" : 1,
                                        "trackNumber" : 1,
                                        "attributes" : {
                                          "ident" : "",
                                          "gain" : 1.0,
                                          "mixToMono" : false
                                        },
                                          "channelNumber" : "0,1",
                                        "effects" : [

                                        ],
                                        "start" : 328,
                                        "duration" : 180,
                                        "mediaStart" : 577,
                                        "mediaDuration" : 180,
                                        "scalar" : 1,
                                        "animationTracks" : {

                                        }
                                      }
,
                                  "start" : 328,
                                  "duration" : 180,
                                  "mediaStart" : 0,
                                  "mediaDuration" : 25747,
                                  "scalar" : 1,
                                  "metadata" : {
                                    "AutoAppliedSmartFocus" : "False",
                                    "clipSpeedAttribute" : false
                                  }
                                },
                                {
                                  "id" : 81,
                                  "_type" : "UnifiedMedia",
                                  "video" : 
                                      {
                                        "id" : 82,
                                        "_type" : "ScreenVMFile",
                                        "src" : 1,
                                        "trackNumber" : 0,
                                        "attributes" : {
                                          "ident" : "Rec 01-10-21"
                                        },
                                        "parameters" : {
                                          "cursorScale" : {
                                            "type" : "double",
                                            "defaultValue" : 0.0,
                                            "interp" : "linr"
                                          },
                                          "cursorOpacity" : {
                                            "type" : "double",
                                            "defaultValue" : 0.0,
                                            "interp" : "linr"
                                          }
                                        },
                                        "effects" : [

                                        ],
                                        "start" : 508,
                                        "duration" : 144,
                                        "mediaStart" : 812,
                                        "mediaDuration" : 144,
                                        "scalar" : 1,
                                        "animationTracks" : {

                                        }
                                      },
                                  "audio" : 
                                      {
                                        "id" : 83,
                                        "_type" : "AMFile",
                                        "src" : 1,
                                        "trackNumber" : 1,
                                        "attributes" : {
                                          "ident" : "",
                                          "gain" : 1.0,
                                          "mixToMono" : false
                                        },
                                          "channelNumber" : "0,1",
                                        "effects" : [

                                        ],
                                        "start" : 508,
                                        "duration" : 144,
                                        "mediaStart" : 812,
                                        "mediaDuration" : 144,
                                        "scalar" : 1,
                                        "animationTracks" : {

                                        }
                                      }
,
                                  "start" : 508,
                                  "duration" : 144,
                                  "mediaStart" : 0,
                                  "mediaDuration" : 25747,
                                  "scalar" : 1,
                                  "metadata" : {
                                    "AutoAppliedSmartFocus" : "False",
                                    "clipSpeedAttribute" : false
                                  }
                                },
                                {
                                  "id" : 84,
                                  "_type" : "UnifiedMedia",
                                  "video" : 
                                      {
                                        "id" : 85,
                                        "_type" : "ScreenVMFile",
                                        "src" : 1,
                                        "trackNumber" : 0,
                                        "attributes" : {
                                          "ident" : "Rec 01-10-21"
                                        },
                                        "parameters" : {
                                          "cursorScale" : {
                                            "type" : "double",
                                            "defaultValue" : 0.0,
                                            "interp" : "linr"
                                          },
                                          "cursorOpacity" : {
                                            "type" : "double",
                                            "defaultValue" : 0.0,
                                            "interp" : "linr"
                                          }
                                        },
                                        "effects" : [

                                        ],
                                        "start" : 652,
                                        "duration" : 129,
                                        "mediaStart" : 1874,
                                        "mediaDuration" : 129,
                                        "scalar" : 1,
                                        "animationTracks" : {

                                        }
                                      },
                                  "audio" : 
                                      {
                                        "id" : 86,
                                        "_type" : "AMFile",
                                        "src" : 1,
                                        "trackNumber" : 1,
                                        "attributes" : {
                                          "ident" : "",
                                          "gain" : 1.0,
                                          "mixToMono" : false
                                        },
                                          "channelNumber" : "0,1",
                                        "effects" : [

                                        ],
                                        "start" : 652,
                                        "duration" : 129,
                                        "mediaStart" : 1874,
                                        "mediaDuration" : 129,
                                        "scalar" : 1,
                                        "animationTracks" : {

                                        }
                                      }
,
                                  "start" : 652,
                                  "duration" : 129,
                                  "mediaStart" : 0,
                                  "mediaDuration" : 25747,
                                  "scalar" : 1,
                                  "metadata" : {
                                    "AutoAppliedSmartFocus" : "False",
                                    "clipSpeedAttribute" : false
                                  }
                                },
                                {
                                  "id" : 87,
                                  "_type" : "UnifiedMedia",
                                  "video" : 
                                      {
                                        "id" : 88,
                                        "_type" : "ScreenVMFile",
                                        "src" : 1,
                                        "trackNumber" : 0,
                                        "attributes" : {
                                          "ident" : "Rec 01-10-21"
                                        },
                                        "parameters" : {
                                          "cursorScale" : {
                                            "type" : "double",
                                            "defaultValue" : 0.0,
                                            "interp" : "linr"
                                          },
                                          "cursorOpacity" : {
                                            "type" : "double",
                                            "defaultValue" : 0.0,
                                            "interp" : "linr"
                                          }
                                        },
                                        "effects" : [

                                        ],
                                        "start" : 781,
                                        "duration" : 48,
                                        "mediaStart" : 2178,
                                        "mediaDuration" : 48,
                                        "scalar" : 1,
                                        "animationTracks" : {

                                        }
                                      },
                                  "audio" : 
                                      {
                                        "id" : 89,
                                        "_type" : "AMFile",
                                        "src" : 1,
                                        "trackNumber" : 1,
                                        "attributes" : {
                                          "ident" : "",
                                          "gain" : 1.0,
                                          "mixToMono" : false
                                        },
                                          "channelNumber" : "0,1",
                                        "effects" : [

                                        ],
                                        "start" : 781,
                                        "duration" : 48,
                                        "mediaStart" : 2178,
                                        "mediaDuration" : 48,
                                        "scalar" : 1,
                                        "animationTracks" : {

                                        }
                                      }
,
                                  "start" : 781,
                                  "duration" : 48,
                                  "mediaStart" : 0,
                                  "mediaDuration" : 25747,
                                  "scalar" : 1,
                                  "metadata" : {
                                    "AutoAppliedSmartFocus" : "False",
                                    "clipSpeedAttribute" : false
                                  }
                                },
                                {
                                  "id" : 90,
                                  "_type" : "UnifiedMedia",
                                  "video" : 
                                      {
                                        "id" : 91,
                                        "_type" : "ScreenVMFile",
                                        "src" : 1,
                                        "trackNumber" : 0,
                                        "attributes" : {
                                          "ident" : "Rec 01-10-21"
                                        },
                                        "parameters" : {
                                          "cursorScale" : {
                                            "type" : "double",
                                            "defaultValue" : 0.0,
                                            "interp" : "linr"
                                          },
                                          "cursorOpacity" : {
                                            "type" : "double",
                                            "defaultValue" : 0.0,
                                            "interp" : "linr"
                                          }
                                        },
                                        "effects" : [

                                        ],
                                        "start" : 829,
                                        "duration" : 86,
                                        "mediaStart" : 2257,
                                        "mediaDuration" : 86,
                                        "scalar" : 1,
                                        "animationTracks" : {

                                        }
                                      },
                                  "audio" : 
                                      {
                                        "id" : 92,
                                        "_type" : "AMFile",
                                        "src" : 1,
                                        "trackNumber" : 1,
                                        "attributes" : {
                                          "ident" : "",
                                          "gain" : 1.0,
                                          "mixToMono" : false
                                        },
                                          "channelNumber" : "0,1",
                                        "effects" : [

                                        ],
                                        "start" : 829,
                                        "duration" : 86,
                                        "mediaStart" : 2257,
                                        "mediaDuration" : 86,
                                        "scalar" : 1,
                                        "animationTracks" : {

                                        }
                                      }
,
                                  "start" : 829,
                                  "duration" : 86,
                                  "mediaStart" : 0,
                                  "mediaDuration" : 25747,
                                  "scalar" : 1,
                                  "metadata" : {
                                    "AutoAppliedSmartFocus" : "False",
                                    "clipSpeedAttribute" : false
                                  }
                                },
                                {
                                  "id" : 93,
                                  "_type" : "UnifiedMedia",
                                  "video" : 
                                      {
                                        "id" : 94,
                                        "_type" : "ScreenVMFile",
                                        "src" : 1,
                                        "trackNumber" : 0,
                                        "attributes" : {
                                          "ident" : "Rec 01-10-21"
                                        },
                                        "parameters" : {
                                          "cursorScale" : {
                                            "type" : "double",
                                            "defaultValue" : 0.0,
                                            "interp" : "linr"
                                          },
                                          "cursorOpacity" : {
                                            "type" : "double",
                                            "defaultValue" : 0.0,
                                            "interp" : "linr"
                                          }
                                        },
                                        "effects" : [

                                        ],
                                        "start" : 915,
                                        "duration" : 121,
                                        "mediaStart" : 2359,
                                        "mediaDuration" : 121,
                                        "scalar" : 1,
                                        "animationTracks" : {

                                        }
                                      },
                                  "audio" : 
                                      {
                                        "id" : 95,
                                        "_type" : "AMFile",
                                        "src" : 1,
                                        "trackNumber" : 1,
                                        "attributes" : {
                                          "ident" : "",
                                          "gain" : 1.0,
                                          "mixToMono" : false
                                        },
                                          "channelNumber" : "0,1",
                                        "effects" : [

                                        ],
                                        "start" : 915,
                                        "duration" : 121,
                                        "mediaStart" : 2359,
                                        "mediaDuration" : 121,
                                        "scalar" : 1,
                                        "animationTracks" : {

                                        }
                                      }
,
                                  "start" : 915,
                                  "duration" : 121,
                                  "mediaStart" : 0,
                                  "mediaDuration" : 25747,
                                  "scalar" : 1,
                                  "metadata" : {
                                    "AutoAppliedSmartFocus" : "False",
                                    "clipSpeedAttribute" : false
                                  }
                                },
                                {
                                  "id" : 96,
                                  "_type" : "UnifiedMedia",
                                  "video" : 
                                      {
                                        "id" : 97,
                                        "_type" : "ScreenVMFile",
                                        "src" : 1,
                                        "trackNumber" : 0,
                                        "attributes" : {
                                          "ident" : "Rec 01-10-21"
                                        },
                                        "parameters" : {
                                          "cursorScale" : {
                                            "type" : "double",
                                            "defaultValue" : 0.0,
                                            "interp" : "linr"
                                          },
                                          "cursorOpacity" : {
                                            "type" : "double",
                                            "defaultValue" : 0.0,
                                            "interp" : "linr"
                                          }
                                        },
                                        "effects" : [

                                        ],
                                        "start" : 1036,
                                        "duration" : 103,
                                        "mediaStart" : 2511,
                                        "mediaDuration" : 103,
                                        "scalar" : 1,
                                        "animationTracks" : {

                                        }
                                      },
                                  "audio" : 
                                      {
                                        "id" : 98,
                                        "_type" : "AMFile",
                                        "src" : 1,
                                        "trackNumber" : 1,
                                        "attributes" : {
                                          "ident" : "",
                                          "gain" : 1.0,
                                          "mixToMono" : false
                                        },
                                          "channelNumber" : "0,1",
                                        "effects" : [

                                        ],
                                        "start" : 1036,
                                        "duration" : 103,
                                        "mediaStart" : 2511,
                                        "mediaDuration" : 103,
                                        "scalar" : 1,
                                        "animationTracks" : {

                                        }
                                      }
,
                                  "start" : 1036,
                                  "duration" : 103,
                                  "mediaStart" : 0,
                                  "mediaDuration" : 25747,
                                  "scalar" : 1,
                                  "metadata" : {
                                    "AutoAppliedSmartFocus" : "False",
                                    "clipSpeedAttribute" : false
                                  }
                                },
                                {
                                  "id" : 99,
                                  "_type" : "UnifiedMedia",
                                  "video" : 
                                      {
                                        "id" : 100,
                                        "_type" : "ScreenVMFile",
                                        "src" : 1,
                                        "trackNumber" : 0,
                                        "attributes" : {
                                          "ident" : "Rec 01-10-21"
                                        },
                                        "parameters" : {
                                          "cursorScale" : {
                                            "type" : "double",
                                            "defaultValue" : 0.0,
                                            "interp" : "linr"
                                          },
                                          "cursorOpacity" : {
                                            "type" : "double",
                                            "defaultValue" : 0.0,
                                            "interp" : "linr"
                                          }
                                        },
                                        "effects" : [

                                        ],
                                        "start" : 1139,
                                        "duration" : 26,
                                        "mediaStart" : 2629,
                                        "mediaDuration" : 26,
                                        "scalar" : 1,
                                        "animationTracks" : {

                                        }
                                      },
                                  "audio" : 
                                      {
                                        "id" : 101,
                                        "_type" : "AMFile",
                                        "src" : 1,
                                        "trackNumber" : 1,
                                        "attributes" : {
                                          "ident" : "",
                                          "gain" : 1.0,
                                          "mixToMono" : false
                                        },
                                          "channelNumber" : "0,1",
                                        "effects" : [

                                        ],
                                        "start" : 1139,
                                        "duration" : 26,
                                        "mediaStart" : 2629,
                                        "mediaDuration" : 26,
                                        "scalar" : 1,
                                        "animationTracks" : {

                                        }
                                      }
,
                                  "start" : 1139,
                                  "duration" : 26,
                                  "mediaStart" : 0,
                                  "mediaDuration" : 25747,
                                  "scalar" : 1,
                                  "metadata" : {
                                    "AutoAppliedSmartFocus" : "False",
                                    "clipSpeedAttribute" : false
                                  }
                                },
                                {
                                  "id" : 102,
                                  "_type" : "UnifiedMedia",
                                  "video" : 
                                      {
                                        "id" : 103,
                                        "_type" : "ScreenVMFile",
                                        "src" : 1,
                                        "trackNumber" : 0,
                                        "attributes" : {
                                          "ident" : "Rec 01-10-21"
                                        },
                                        "parameters" : {
                                          "cursorScale" : {
                                            "type" : "double",
                                            "defaultValue" : 0.0,
                                            "interp" : "linr"
                                          },
                                          "cursorOpacity" : {
                                            "type" : "double",
                                            "defaultValue" : 0.0,
                                            "interp" : "linr"
                                          }
                                        },
                                        "effects" : [

                                        ],
                                        "start" : 1165,
                                        "duration" : 22,
                                        "mediaStart" : 2688,
                                        "mediaDuration" : 22,
                                        "scalar" : 1,
                                        "animationTracks" : {

                                        }
                                      },
                                  "audio" : 
                                      {
                                        "id" : 104,
                                        "_type" : "AMFile",
                                        "src" : 1,
                                        "trackNumber" : 1,
                                        "attributes" : {
                                          "ident" : "",
                                          "gain" : 1.0,
                                          "mixToMono" : false
                                        },
                                          "channelNumber" : "0,1",
                                        "effects" : [

                                        ],
                                        "start" : 1165,
                                        "duration" : 22,
                                        "mediaStart" : 2688,
                                        "mediaDuration" : 22,
                                        "scalar" : 1,
                                        "animationTracks" : {

                                        }
                                      }
,
                                  "start" : 1165,
                                  "duration" : 22,
                                  "mediaStart" : 0,
                                  "mediaDuration" : 25747,
                                  "scalar" : 1,
                                  "metadata" : {
                                    "AutoAppliedSmartFocus" : "False",
                                    "clipSpeedAttribute" : false
                                  }
                                },
                                {
                                  "id" : 105,
                                  "_type" : "UnifiedMedia",
                                  "video" : 
                                      {
                                        "id" : 106,
                                        "_type" : "ScreenVMFile",
                                        "src" : 1,
                                        "trackNumber" : 0,
                                        "attributes" : {
                                          "ident" : "Rec 01-10-21"
                                        },
                                        "parameters" : {
                                          "cursorScale" : {
                                            "type" : "double",
                                            "defaultValue" : 0.0,
                                            "interp" : "linr"
                                          },
                                          "cursorOpacity" : {
                                            "type" : "double",
                                            "defaultValue" : 0.0,
                                            "interp" : "linr"
                                          }
                                        },
                                        "effects" : [

                                        ],
                                        "start" : 1187,
                                        "duration" : 30,
                                        "mediaStart" : 2740,
                                        "mediaDuration" : 30,
                                        "scalar" : 1,
                                        "animationTracks" : {

                                        }
                                      },
                                  "audio" : 
                                      {
                                        "id" : 107,
                                        "_type" : "AMFile",
                                        "src" : 1,
                                        "trackNumber" : 1,
                                        "attributes" : {
                                          "ident" : "",
                                          "gain" : 1.0,
                                          "mixToMono" : false
                                        },
                                          "channelNumber" : "0,1",
                                        "effects" : [

                                        ],
                                        "start" : 1187,
                                        "duration" : 30,
                                        "mediaStart" : 2740,
                                        "mediaDuration" : 30,
                                        "scalar" : 1,
                                        "animationTracks" : {

                                        }
                                      }
,
                                  "start" : 1187,
                                  "duration" : 30,
                                  "mediaStart" : 0,
                                  "mediaDuration" : 25747,
                                  "scalar" : 1,
                                  "metadata" : {
                                    "AutoAppliedSmartFocus" : "False",
                                    "clipSpeedAttribute" : false
                                  }
                                },
                                {
                                  "id" : 108,
                                  "_type" : "UnifiedMedia",
                                  "video" : 
                                      {
                                        "id" : 109,
                                        "_type" : "ScreenVMFile",
                                        "src" : 1,
                                        "trackNumber" : 0,
                                        "attributes" : {
                                          "ident" : "Rec 01-10-21"
                                        },
                                        "parameters" : {
                                          "cursorScale" : {
                                            "type" : "double",
                                            "defaultValue" : 0.0,
                                            "interp" : "linr"
                                          },
                                          "cursorOpacity" : {
                                            "type" : "double",
                                            "defaultValue" : 0.0,
                                            "interp" : "linr"
                                          }
                                        },
                                        "effects" : [

                                        ],
                                        "start" : 1217,
                                        "duration" : 244,
                                        "mediaStart" : 2861,
                                        "mediaDuration" : 244,
                                        "scalar" : 1,
                                        "animationTracks" : {

                                        }
                                      },
                                  "audio" : 
                                      {
                                        "id" : 110,
                                        "_type" : "AMFile",
                                        "src" : 1,
                                        "trackNumber" : 1,
                                        "attributes" : {
                                          "ident" : "",
                                          "gain" : 1.0,
                                          "mixToMono" : false
                                        },
                                          "channelNumber" : "0,1",
                                        "effects" : [

                                        ],
                                        "start" : 1217,
                                        "duration" : 244,
                                        "mediaStart" : 2861,
                                        "mediaDuration" : 244,
                                        "scalar" : 1,
                                        "animationTracks" : {

                                        }
                                      }
,
                                  "start" : 1217,
                                  "duration" : 244,
                                  "mediaStart" : 0,
                                  "mediaDuration" : 25747,
                                  "scalar" : 1,
                                  "metadata" : {
                                    "AutoAppliedSmartFocus" : "False",
                                    "clipSpeedAttribute" : false
                                  }
                                },
                                {
                                  "id" : 111,
                                  "_type" : "UnifiedMedia",
                                  "video" : 
                                      {
                                        "id" : 112,
                                        "_type" : "ScreenVMFile",
                                        "src" : 1,
                                        "trackNumber" : 0,
                                        "attributes" : {
                                          "ident" : "Rec 01-10-21"
                                        },
                                        "parameters" : {
                                          "cursorScale" : {
                                            "type" : "double",
                                            "defaultValue" : 0.0,
                                            "interp" : "linr"
                                          },
                                          "cursorOpacity" : {
                                            "type" : "double",
                                            "defaultValue" : 0.0,
                                            "interp" : "linr"
                                          }
                                        },
                                        "effects" : [

                                        ],
                                        "start" : 1461,
                                        "duration" : 44,
                                        "mediaStart" : 3140,
                                        "mediaDuration" : 44,
                                        "scalar" : 1,
                                        "animationTracks" : {

                                        }
                                      },
                                  "audio" : 
                                      {
                                        "id" : 113,
                                        "_type" : "AMFile",
                                        "src" : 1,
                                        "trackNumber" : 1,
                                        "attributes" : {
                                          "ident" : "",
                                          "gain" : 1.0,
                                          "mixToMono" : false
                                        },
                                          "channelNumber" : "0,1",
                                        "effects" : [

                                        ],
                                        "start" : 1461,
                                        "duration" : 44,
                                        "mediaStart" : 3140,
                                        "mediaDuration" : 44,
                                        "scalar" : 1,
                                        "animationTracks" : {

                                        }
                                      }
,
                                  "start" : 1461,
                                  "duration" : 44,
                                  "mediaStart" : 0,
                                  "mediaDuration" : 25747,
                                  "scalar" : 1,
                                  "metadata" : {
                                    "AutoAppliedSmartFocus" : "False",
                                    "clipSpeedAttribute" : false
                                  }
                                },
                                {
                                  "id" : 114,
                                  "_type" : "UnifiedMedia",
                                  "video" : 
                                      {
                                        "id" : 115,
                                        "_type" : "ScreenVMFile",
                                        "src" : 1,
                                        "trackNumber" : 0,
                                        "attributes" : {
                                          "ident" : "Rec 01-10-21"
                                        },
                                        "parameters" : {
                                          "cursorScale" : {
                                            "type" : "double",
                                            "defaultValue" : 0.0,
                                            "interp" : "linr"
                                          },
                                          "cursorOpacity" : {
                                            "type" : "double",
                                            "defaultValue" : 0.0,
                                            "interp" : "linr"
                                          }
                                        },
                                        "effects" : [

                                        ],
                                        "start" : 1505,
                                        "duration" : 112,
                                        "mediaStart" : 3212,
                                        "mediaDuration" : 112,
                                        "scalar" : 1,
                                        "animationTracks" : {

                                        }
                                      },
                                  "audio" : 
                                      {
                                        "id" : 116,
                                        "_type" : "AMFile",
                                        "src" : 1,
                                        "trackNumber" : 1,
                                        "attributes" : {
                                          "ident" : "",
                                          "gain" : 1.0,
                                          "mixToMono" : false
                                        },
                                          "channelNumber" : "0,1",
                                        "effects" : [

                                        ],
                                        "start" : 1505,
                                        "duration" : 112,
                                        "mediaStart" : 3212,
                                        "mediaDuration" : 112,
                                        "scalar" : 1,
                                        "animationTracks" : {

                                        }
                                      }
,
                                  "start" : 1505,
                                  "duration" : 112,
                                  "mediaStart" : 0,
                                  "mediaDuration" : 25747,
                                  "scalar" : 1,
                                  "metadata" : {
                                    "AutoAppliedSmartFocus" : "False",
                                    "clipSpeedAttribute" : false
                                  }
                                },
                                {
                                  "id" : 117,
                                  "_type" : "UnifiedMedia",
                                  "video" : 
                                      {
                                        "id" : 118,
                                        "_type" : "ScreenVMFile",
                                        "src" : 1,
                                        "trackNumber" : 0,
                                        "attributes" : {
                                          "ident" : "Rec 01-10-21"
                                        },
                                        "parameters" : {
                                          "cursorScale" : {
                                            "type" : "double",
                                            "defaultValue" : 0.0,
                                            "interp" : "linr"
                                          },
                                          "cursorOpacity" : {
                                            "type" : "double",
                                            "defaultValue" : 0.0,
                                            "interp" : "linr"
                                          }
                                        },
                                        "effects" : [

                                        ],
                                        "start" : 1617,
                                        "duration" : 54,
                                        "mediaStart" : 3344,
                                        "mediaDuration" : 54,
                                        "scalar" : 1,
                                        "animationTracks" : {

                                        }
                                      },
                                  "audio" : 
                                      {
                                        "id" : 119,
                                        "_type" : "AMFile",
                                        "src" : 1,
                                        "trackNumber" : 1,
                                        "attributes" : {
                                          "ident" : "",
                                          "gain" : 1.0,
                                          "mixToMono" : false
                                        },
                                          "channelNumber" : "0,1",
                                        "effects" : [

                                        ],
                                        "start" : 1617,
                                        "duration" : 54,
                                        "mediaStart" : 3344,
                                        "mediaDuration" : 54,
                                        "scalar" : 1,
                                        "animationTracks" : {

                                        }
                                      }
,
                                  "start" : 1617,
                                  "duration" : 54,
                                  "mediaStart" : 0,
                                  "mediaDuration" : 25747,
                                  "scalar" : 1,
                                  "metadata" : {
                                    "AutoAppliedSmartFocus" : "False",
                                    "clipSpeedAttribute" : false
                                  }
                                },
                                {
                                  "id" : 120,
                                  "_type" : "UnifiedMedia",
                                  "video" : 
                                      {
                                        "id" : 121,
                                        "_type" : "ScreenVMFile",
                                        "src" : 1,
                                        "trackNumber" : 0,
                                        "attributes" : {
                                          "ident" : "Rec 01-10-21"
                                        },
                                        "parameters" : {
                                          "cursorScale" : {
                                            "type" : "double",
                                            "defaultValue" : 0.0,
                                            "interp" : "linr"
                                          },
                                          "cursorOpacity" : {
                                            "type" : "double",
                                            "defaultValue" : 0.0,
                                            "interp" : "linr"
                                          }
                                        },
                                        "effects" : [

                                        ],
                                        "start" : 1671,
                                        "duration" : 39,
                                        "mediaStart" : 3481,
                                        "mediaDuration" : 39,
                                        "scalar" : 1,
                                        "animationTracks" : {

                                        }
                                      },
                                  "audio" : 
                                      {
                                        "id" : 122,
                                        "_type" : "AMFile",
                                        "src" : 1,
                                        "trackNumber" : 1,
                                        "attributes" : {
                                          "ident" : "",
                                          "gain" : 1.0,
                                          "mixToMono" : false
                                        },
                                          "channelNumber" : "0,1",
                                        "effects" : [

                                        ],
                                        "start" : 1671,
                                        "duration" : 39,
                                        "mediaStart" : 3481,
                                        "mediaDuration" : 39,
                                        "scalar" : 1,
                                        "animationTracks" : {

                                        }
                                      }
,
                                  "start" : 1671,
                                  "duration" : 39,
                                  "mediaStart" : 0,
                                  "mediaDuration" : 25747,
                                  "scalar" : 1,
                                  "metadata" : {
                                    "AutoAppliedSmartFocus" : "False",
                                    "clipSpeedAttribute" : false
                                  }
                                },
                                {
                                  "id" : 123,
                                  "_type" : "UnifiedMedia",
                                  "video" : 
                                      {
                                        "id" : 124,
                                        "_type" : "ScreenVMFile",
                                        "src" : 1,
                                        "trackNumber" : 0,
                                        "attributes" : {
                                          "ident" : "Rec 01-10-21"
                                        },
                                        "parameters" : {
                                          "cursorScale" : {
                                            "type" : "double",
                                            "defaultValue" : 0.0,
                                            "interp" : "linr"
                                          },
                                          "cursorOpacity" : {
                                            "type" : "double",
                                            "defaultValue" : 0.0,
                                            "interp" : "linr"
                                          }
                                        },
                                        "effects" : [

                                        ],
                                        "start" : 1710,
                                        "duration" : 22206,
                                        "mediaStart" : 3541,
                                        "mediaDuration" : 22206,
                                        "scalar" : 1,
                                        "animationTracks" : {

                                        }
                                      },
                                  "audio" : 
                                      {
                                        "id" : 125,
                                        "_type" : "AMFile",
                                        "src" : 1,
                                        "trackNumber" : 1,
                                        "attributes" : {
                                          "ident" : "",
                                          "gain" : 1.0,
                                          "mixToMono" : false
                                        },
                                          "channelNumber" : "0,1",
                                        "effects" : [

                                        ],
                                        "start" : 1710,
                                        "duration" : 22206,
                                        "mediaStart" : 3541,
                                        "mediaDuration" : 22206,
                                        "scalar" : 1,
                                        "animationTracks" : {

                                        }
                                      }
,
                                  "start" : 1710,
                                  "duration" : 22206,
                                  "mediaStart" : 0,
                                  "mediaDuration" : 25747,
                                  "scalar" : 1,
                                  "metadata" : {
                                    "AutoAppliedSmartFocus" : "False",
                                    "clipSpeedAttribute" : false
                                  }
                                }
                            ],
                            "effects" : [

                            ],
                            "start" : 54,
                            "duration" : 3,
                            "mediaStart" : 54,
                            "mediaDuration" : 3,
                            "scalar" : 1,
                            "metadata" : {
                              "AutoAppliedSmartFocus" : "False",
                              "clipSpeedAttribute" : false
                            },
                            "animationTracks" : {

                            }
                          }
                        ],
                          "ident" : "",
                          "audioMuted" : false,
                          "videoHidden" : false,
                          "magnetic" : false,
                          "matte" : 0,
                          "metadata" : {
                            "IsLocked" : "False",
                            "WinTrackHeight" : "0"
                          }
                      },
                      {
                        "trackIndex" : 1,
                        "medias" : [
                          {
                            "id" : 126,
                            "_type" : "AMFile",
                            "src" : 25,
                            "trackNumber" : 0,
                            "attributes" : {
                              "ident" : "Narration_3-1 Pod 8",
                              "gain" : 1.0,
                              "mixToMono" : false
                            },
                              "channelNumber" : "0,1",
                            "effects" : [

                            ],
                            "start" : 0,
                            "duration" : 57,
                            "mediaStart" : 20,
                            "mediaDuration" : 57,
                            "scalar" : 1,
                            "metadata" : {
                              "clipSpeedAttribute" : false
                            },
                            "animationTracks" : {

                            }
                          }
                        ],
                          "ident" : "",
                          "audioMuted" : false,
                          "videoHidden" : false,
                          "magnetic" : false,
                          "matte" : 0,
                          "metadata" : {
                            "IsLocked" : "False",
                            "WinTrackHeight" : "4.48620777120174e-312"
                          }
                      }
                    ],
                    "attributes" : {
                      "ident" : "Group 7",
                      "gain" : 1.0,
                      "mixToMono" : false
                    },
                    "effects" : [

                    ],
                    "start" : 143,
                    "duration" : 57,
                    "mediaStart" : 0.0,
                    "mediaDuration" : 57.0,
                    "scalar" : 1,
                    "metadata" : {
                      "IsGroupExpanded" : "False"
                    },
                    "animationTracks" : {

                    }
                  },
                  {
                    "id" : 127,
                    "_type" : "StitchedMedia",
                    "minMediaStart" : 0,
                    "attributes" : {
                      "ident" : "Rec 01-10-21",
                      "gain" : 1.0,
                      "mixToMono" : false
                    },
                    "parameters" : {
                      "volume" : 1.0,
                      "cursorOpacity" : {
                        "type" : "double",
                        "defaultValue" : 1.0,
                        "interp" : "linr"
                      },
                      "cursorScale" : {
                        "type" : "double",
                        "defaultValue" : 1.0,
                        "interp" : "linr"
                      }
                    },
                    "medias" : [
                        {
                          "id" : 128,
                          "_type" : "UnifiedMedia",
                          "video" : 
                              {
                                "id" : 129,
                                "_type" : "ScreenVMFile",
                                "src" : 1,
                                "trackNumber" : 0,
                                "attributes" : {
                                  "ident" : "Rec 01-10-21"
                                },
                                "parameters" : {
                                  "cursorScale" : {
                                    "type" : "double",
                                    "defaultValue" : 0.0,
                                    "interp" : "linr"
                                  },
                                  "cursorOpacity" : {
                                    "type" : "double",
                                    "defaultValue" : 0.0,
                                    "interp" : "linr"
                                  }
                                },
                                "effects" : [

                                ],
                                "start" : 0,
                                "duration" : 14,
                                "mediaStart" : 0,
                                "mediaDuration" : 14,
                                "scalar" : 1,
                                "animationTracks" : {

                                }
                              },
                          "audio" : 
                              {
                                "id" : 130,
                                "_type" : "AMFile",
                                "src" : 1,
                                "trackNumber" : 1,
                                "attributes" : {
                                  "ident" : "",
                                  "gain" : 1.0,
                                  "mixToMono" : false
                                },
                                  "channelNumber" : "0,1",
                                "effects" : [

                                ],
                                "start" : 0,
                                "duration" : 14,
                                "mediaStart" : 0,
                                "mediaDuration" : 14,
                                "scalar" : 1,
                                "animationTracks" : {

                                }
                              }
,
                          "start" : 0,
                          "duration" : 14,
                          "mediaStart" : 0,
                          "mediaDuration" : 25747,
                          "scalar" : 1,
                          "metadata" : {
                            "AutoAppliedSmartFocus" : "False",
                            "clipSpeedAttribute" : false
                          }
                        },
                        {
                          "id" : 131,
                          "_type" : "UnifiedMedia",
                          "video" : 
                              {
                                "id" : 132,
                                "_type" : "ScreenVMFile",
                                "src" : 1,
                                "trackNumber" : 0,
                                "attributes" : {
                                  "ident" : "Rec 01-10-21"
                                },
                                "parameters" : {
                                  "cursorScale" : {
                                    "type" : "double",
                                    "defaultValue" : 0.0,
                                    "interp" : "linr"
                                  },
                                  "cursorOpacity" : {
                                    "type" : "double",
                                    "defaultValue" : 0.0,
                                    "interp" : "linr"
                                  }
                                },
                                "effects" : [

                                ],
                                "start" : 14,
                                "duration" : 18,
                                "mediaStart" : 114,
                                "mediaDuration" : 18,
                                "scalar" : 1,
                                "animationTracks" : {

                                }
                              },
                          "audio" : 
                              {
                                "id" : 133,
                                "_type" : "AMFile",
                                "src" : 1,
                                "trackNumber" : 1,
                                "attributes" : {
                                  "ident" : "",
                                  "gain" : 1.0,
                                  "mixToMono" : false
                                },
                                  "channelNumber" : "0,1",
                                "effects" : [

                                ],
                                "start" : 14,
                                "duration" : 18,
                                "mediaStart" : 114,
                                "mediaDuration" : 18,
                                "scalar" : 1,
                                "animationTracks" : {

                                }
                              }
,
                          "start" : 14,
                          "duration" : 18,
                          "mediaStart" : 0,
                          "mediaDuration" : 25747,
                          "scalar" : 1,
                          "metadata" : {
                            "AutoAppliedSmartFocus" : "False",
                            "clipSpeedAttribute" : false
                          }
                        },
                        {
                          "id" : 134,
                          "_type" : "UnifiedMedia",
                          "video" : 
                              {
                                "id" : 135,
                                "_type" : "ScreenVMFile",
                                "src" : 1,
                                "trackNumber" : 0,
                                "attributes" : {
                                  "ident" : "Rec 01-10-21"
                                },
                                "parameters" : {
                                  "cursorScale" : {
                                    "type" : "double",
                                    "defaultValue" : 0.0,
                                    "interp" : "linr"
                                  },
                                  "cursorOpacity" : {
                                    "type" : "double",
                                    "defaultValue" : 0.0,
                                    "interp" : "linr"
                                  }
                                },
                                "effects" : [

                                ],
                                "start" : 32,
                                "duration" : 258,
                                "mediaStart" : 139,
                                "mediaDuration" : 258,
                                "scalar" : 1,
                                "animationTracks" : {

                                }
                              },
                          "audio" : 
                              {
                                "id" : 136,
                                "_type" : "AMFile",
                                "src" : 1,
                                "trackNumber" : 1,
                                "attributes" : {
                                  "ident" : "",
                                  "gain" : 1.0,
                                  "mixToMono" : false
                                },
                                  "channelNumber" : "0,1",
                                "effects" : [

                                ],
                                "start" : 32,
                                "duration" : 258,
                                "mediaStart" : 139,
                                "mediaDuration" : 258,
                                "scalar" : 1,
                                "animationTracks" : {

                                }
                              }
,
                          "start" : 32,
                          "duration" : 258,
                          "mediaStart" : 0,
                          "mediaDuration" : 25747,
                          "scalar" : 1,
                          "metadata" : {
                            "AutoAppliedSmartFocus" : "False",
                            "clipSpeedAttribute" : false
                          }
                        },
                        {
                          "id" : 137,
                          "_type" : "UnifiedMedia",
                          "video" : 
                              {
                                "id" : 138,
                                "_type" : "ScreenVMFile",
                                "src" : 1,
                                "trackNumber" : 0,
                                "attributes" : {
                                  "ident" : "Rec 01-10-21"
                                },
                                "parameters" : {
                                  "cursorScale" : {
                                    "type" : "double",
                                    "defaultValue" : 0.0,
                                    "interp" : "linr"
                                  },
                                  "cursorOpacity" : {
                                    "type" : "double",
                                    "defaultValue" : 0.0,
                                    "interp" : "linr"
                                  }
                                },
                                "effects" : [

                                ],
                                "start" : 290,
                                "duration" : 38,
                                "mediaStart" : 449,
                                "mediaDuration" : 38,
                                "scalar" : 1,
                                "animationTracks" : {

                                }
                              },
                          "audio" : 
                              {
                                "id" : 139,
                                "_type" : "AMFile",
                                "src" : 1,
                                "trackNumber" : 1,
                                "attributes" : {
                                  "ident" : "",
                                  "gain" : 1.0,
                                  "mixToMono" : false
                                },
                                  "channelNumber" : "0,1",
                                "effects" : [

                                ],
                                "start" : 290,
                                "duration" : 38,
                                "mediaStart" : 449,
                                "mediaDuration" : 38,
                                "scalar" : 1,
                                "animationTracks" : {

                                }
                              }
,
                          "start" : 290,
                          "duration" : 38,
                          "mediaStart" : 0,
                          "mediaDuration" : 25747,
                          "scalar" : 1,
                          "metadata" : {
                            "AutoAppliedSmartFocus" : "False",
                            "clipSpeedAttribute" : false
                          }
                        },
                        {
                          "id" : 140,
                          "_type" : "UnifiedMedia",
                          "video" : 
                              {
                                "id" : 141,
                                "_type" : "ScreenVMFile",
                                "src" : 1,
                                "trackNumber" : 0,
                                "attributes" : {
                                  "ident" : "Rec 01-10-21"
                                },
                                "parameters" : {
                                  "cursorScale" : {
                                    "type" : "double",
                                    "defaultValue" : 0.0,
                                    "interp" : "linr"
                                  },
                                  "cursorOpacity" : {
                                    "type" : "double",
                                    "defaultValue" : 0.0,
                                    "interp" : "linr"
                                  }
                                },
                                "effects" : [

                                ],
                                "start" : 328,
                                "duration" : 180,
                                "mediaStart" : 577,
                                "mediaDuration" : 180,
                                "scalar" : 1,
                                "animationTracks" : {

                                }
                              },
                          "audio" : 
                              {
                                "id" : 142,
                                "_type" : "AMFile",
                                "src" : 1,
                                "trackNumber" : 1,
                                "attributes" : {
                                  "ident" : "",
                                  "gain" : 1.0,
                                  "mixToMono" : false
                                },
                                  "channelNumber" : "0,1",
                                "effects" : [

                                ],
                                "start" : 328,
                                "duration" : 180,
                                "mediaStart" : 577,
                                "mediaDuration" : 180,
                                "scalar" : 1,
                                "animationTracks" : {

                                }
                              }
,
                          "start" : 328,
                          "duration" : 180,
                          "mediaStart" : 0,
                          "mediaDuration" : 25747,
                          "scalar" : 1,
                          "metadata" : {
                            "AutoAppliedSmartFocus" : "False",
                            "clipSpeedAttribute" : false
                          }
                        },
                        {
                          "id" : 143,
                          "_type" : "UnifiedMedia",
                          "video" : 
                              {
                                "id" : 144,
                                "_type" : "ScreenVMFile",
                                "src" : 1,
                                "trackNumber" : 0,
                                "attributes" : {
                                  "ident" : "Rec 01-10-21"
                                },
                                "parameters" : {
                                  "cursorScale" : {
                                    "type" : "double",
                                    "defaultValue" : 0.0,
                                    "interp" : "linr"
                                  },
                                  "cursorOpacity" : {
                                    "type" : "double",
                                    "defaultValue" : 0.0,
                                    "interp" : "linr"
                                  }
                                },
                                "effects" : [

                                ],
                                "start" : 508,
                                "duration" : 144,
                                "mediaStart" : 812,
                                "mediaDuration" : 144,
                                "scalar" : 1,
                                "animationTracks" : {

                                }
                              },
                          "audio" : 
                              {
                                "id" : 145,
                                "_type" : "AMFile",
                                "src" : 1,
                                "trackNumber" : 1,
                                "attributes" : {
                                  "ident" : "",
                                  "gain" : 1.0,
                                  "mixToMono" : false
                                },
                                  "channelNumber" : "0,1",
                                "effects" : [

                                ],
                                "start" : 508,
                                "duration" : 144,
                                "mediaStart" : 812,
                                "mediaDuration" : 144,
                                "scalar" : 1,
                                "animationTracks" : {

                                }
                              }
,
                          "start" : 508,
                          "duration" : 144,
                          "mediaStart" : 0,
                          "mediaDuration" : 25747,
                          "scalar" : 1,
                          "metadata" : {
                            "AutoAppliedSmartFocus" : "False",
                            "clipSpeedAttribute" : false
                          }
                        },
                        {
                          "id" : 146,
                          "_type" : "UnifiedMedia",
                          "video" : 
                              {
                                "id" : 147,
                                "_type" : "ScreenVMFile",
                                "src" : 1,
                                "trackNumber" : 0,
                                "attributes" : {
                                  "ident" : "Rec 01-10-21"
                                },
                                "parameters" : {
                                  "cursorScale" : {
                                    "type" : "double",
                                    "defaultValue" : 0.0,
                                    "interp" : "linr"
                                  },
                                  "cursorOpacity" : {
                                    "type" : "double",
                                    "defaultValue" : 0.0,
                                    "interp" : "linr"
                                  }
                                },
                                "effects" : [

                                ],
                                "start" : 652,
                                "duration" : 129,
                                "mediaStart" : 1874,
                                "mediaDuration" : 129,
                                "scalar" : 1,
                                "animationTracks" : {

                                }
                              },
                          "audio" : 
                              {
                                "id" : 148,
                                "_type" : "AMFile",
                                "src" : 1,
                                "trackNumber" : 1,
                                "attributes" : {
                                  "ident" : "",
                                  "gain" : 1.0,
                                  "mixToMono" : false
                                },
                                  "channelNumber" : "0,1",
                                "effects" : [

                                ],
                                "start" : 652,
                                "duration" : 129,
                                "mediaStart" : 1874,
                                "mediaDuration" : 129,
                                "scalar" : 1,
                                "animationTracks" : {

                                }
                              }
,
                          "start" : 652,
                          "duration" : 129,
                          "mediaStart" : 0,
                          "mediaDuration" : 25747,
                          "scalar" : 1,
                          "metadata" : {
                            "AutoAppliedSmartFocus" : "False",
                            "clipSpeedAttribute" : false
                          }
                        },
                        {
                          "id" : 149,
                          "_type" : "UnifiedMedia",
                          "video" : 
                              {
                                "id" : 150,
                                "_type" : "ScreenVMFile",
                                "src" : 1,
                                "trackNumber" : 0,
                                "attributes" : {
                                  "ident" : "Rec 01-10-21"
                                },
                                "parameters" : {
                                  "cursorScale" : {
                                    "type" : "double",
                                    "defaultValue" : 0.0,
                                    "interp" : "linr"
                                  },
                                  "cursorOpacity" : {
                                    "type" : "double",
                                    "defaultValue" : 0.0,
                                    "interp" : "linr"
                                  }
                                },
                                "effects" : [

                                ],
                                "start" : 781,
                                "duration" : 48,
                                "mediaStart" : 2178,
                                "mediaDuration" : 48,
                                "scalar" : 1,
                                "animationTracks" : {

                                }
                              },
                          "audio" : 
                              {
                                "id" : 151,
                                "_type" : "AMFile",
                                "src" : 1,
                                "trackNumber" : 1,
                                "attributes" : {
                                  "ident" : "",
                                  "gain" : 1.0,
                                  "mixToMono" : false
                                },
                                  "channelNumber" : "0,1",
                                "effects" : [

                                ],
                                "start" : 781,
                                "duration" : 48,
                                "mediaStart" : 2178,
                                "mediaDuration" : 48,
                                "scalar" : 1,
                                "animationTracks" : {

                                }
                              }
,
                          "start" : 781,
                          "duration" : 48,
                          "mediaStart" : 0,
                          "mediaDuration" : 25747,
                          "scalar" : 1,
                          "metadata" : {
                            "AutoAppliedSmartFocus" : "False",
                            "clipSpeedAttribute" : false
                          }
                        },
                        {
                          "id" : 152,
                          "_type" : "UnifiedMedia",
                          "video" : 
                              {
                                "id" : 153,
                                "_type" : "ScreenVMFile",
                                "src" : 1,
                                "trackNumber" : 0,
                                "attributes" : {
                                  "ident" : "Rec 01-10-21"
                                },
                                "parameters" : {
                                  "cursorScale" : {
                                    "type" : "double",
                                    "defaultValue" : 0.0,
                                    "interp" : "linr"
                                  },
                                  "cursorOpacity" : {
                                    "type" : "double",
                                    "defaultValue" : 0.0,
                                    "interp" : "linr"
                                  }
                                },
                                "effects" : [

                                ],
                                "start" : 829,
                                "duration" : 86,
                                "mediaStart" : 2257,
                                "mediaDuration" : 86,
                                "scalar" : 1,
                                "animationTracks" : {

                                }
                              },
                          "audio" : 
                              {
                                "id" : 154,
                                "_type" : "AMFile",
                                "src" : 1,
                                "trackNumber" : 1,
                                "attributes" : {
                                  "ident" : "",
                                  "gain" : 1.0,
                                  "mixToMono" : false
                                },
                                  "channelNumber" : "0,1",
                                "effects" : [

                                ],
                                "start" : 829,
                                "duration" : 86,
                                "mediaStart" : 2257,
                                "mediaDuration" : 86,
                                "scalar" : 1,
                                "animationTracks" : {

                                }
                              }
,
                          "start" : 829,
                          "duration" : 86,
                          "mediaStart" : 0,
                          "mediaDuration" : 25747,
                          "scalar" : 1,
                          "metadata" : {
                            "AutoAppliedSmartFocus" : "False",
                            "clipSpeedAttribute" : false
                          }
                        },
                        {
                          "id" : 155,
                          "_type" : "UnifiedMedia",
                          "video" : 
                              {
                                "id" : 156,
                                "_type" : "ScreenVMFile",
                                "src" : 1,
                                "trackNumber" : 0,
                                "attributes" : {
                                  "ident" : "Rec 01-10-21"
                                },
                                "parameters" : {
                                  "cursorScale" : {
                                    "type" : "double",
                                    "defaultValue" : 0.0,
                                    "interp" : "linr"
                                  },
                                  "cursorOpacity" : {
                                    "type" : "double",
                                    "defaultValue" : 0.0,
                                    "interp" : "linr"
                                  }
                                },
                                "effects" : [

                                ],
                                "start" : 915,
                                "duration" : 121,
                                "mediaStart" : 2359,
                                "mediaDuration" : 121,
                                "scalar" : 1,
                                "animationTracks" : {

                                }
                              },
                          "audio" : 
                              {
                                "id" : 157,
                                "_type" : "AMFile",
                                "src" : 1,
                                "trackNumber" : 1,
                                "attributes" : {
                                  "ident" : "",
                                  "gain" : 1.0,
                                  "mixToMono" : false
                                },
                                  "channelNumber" : "0,1",
                                "effects" : [

                                ],
                                "start" : 915,
                                "duration" : 121,
                                "mediaStart" : 2359,
                                "mediaDuration" : 121,
                                "scalar" : 1,
                                "animationTracks" : {

                                }
                              }
,
                          "start" : 915,
                          "duration" : 121,
                          "mediaStart" : 0,
                          "mediaDuration" : 25747,
                          "scalar" : 1,
                          "metadata" : {
                            "AutoAppliedSmartFocus" : "False",
                            "clipSpeedAttribute" : false
                          }
                        },
                        {
                          "id" : 158,
                          "_type" : "UnifiedMedia",
                          "video" : 
                              {
                                "id" : 159,
                                "_type" : "ScreenVMFile",
                                "src" : 1,
                                "trackNumber" : 0,
                                "attributes" : {
                                  "ident" : "Rec 01-10-21"
                                },
                                "parameters" : {
                                  "cursorScale" : {
                                    "type" : "double",
                                    "defaultValue" : 0.0,
                                    "interp" : "linr"
                                  },
                                  "cursorOpacity" : {
                                    "type" : "double",
                                    "defaultValue" : 0.0,
                                    "interp" : "linr"
                                  }
                                },
                                "effects" : [

                                ],
                                "start" : 1036,
                                "duration" : 103,
                                "mediaStart" : 2511,
                                "mediaDuration" : 103,
                                "scalar" : 1,
                                "animationTracks" : {

                                }
                              },
                          "audio" : 
                              {
                                "id" : 160,
                                "_type" : "AMFile",
                                "src" : 1,
                                "trackNumber" : 1,
                                "attributes" : {
                                  "ident" : "",
                                  "gain" : 1.0,
                                  "mixToMono" : false
                                },
                                  "channelNumber" : "0,1",
                                "effects" : [

                                ],
                                "start" : 1036,
                                "duration" : 103,
                                "mediaStart" : 2511,
                                "mediaDuration" : 103,
                                "scalar" : 1,
                                "animationTracks" : {

                                }
                              }
,
                          "start" : 1036,
                          "duration" : 103,
                          "mediaStart" : 0,
                          "mediaDuration" : 25747,
                          "scalar" : 1,
                          "metadata" : {
                            "AutoAppliedSmartFocus" : "False",
                            "clipSpeedAttribute" : false
                          }
                        },
                        {
                          "id" : 161,
                          "_type" : "UnifiedMedia",
                          "video" : 
                              {
                                "id" : 162,
                                "_type" : "ScreenVMFile",
                                "src" : 1,
                                "trackNumber" : 0,
                                "attributes" : {
                                  "ident" : "Rec 01-10-21"
                                },
                                "parameters" : {
                                  "cursorScale" : {
                                    "type" : "double",
                                    "defaultValue" : 0.0,
                                    "interp" : "linr"
                                  },
                                  "cursorOpacity" : {
                                    "type" : "double",
                                    "defaultValue" : 0.0,
                                    "interp" : "linr"
                                  }
                                },
                                "effects" : [

                                ],
                                "start" : 1139,
                                "duration" : 26,
                                "mediaStart" : 2629,
                                "mediaDuration" : 26,
                                "scalar" : 1,
                                "animationTracks" : {

                                }
                              },
                          "audio" : 
                              {
                                "id" : 163,
                                "_type" : "AMFile",
                                "src" : 1,
                                "trackNumber" : 1,
                                "attributes" : {
                                  "ident" : "",
                                  "gain" : 1.0,
                                  "mixToMono" : false
                                },
                                  "channelNumber" : "0,1",
                                "effects" : [

                                ],
                                "start" : 1139,
                                "duration" : 26,
                                "mediaStart" : 2629,
                                "mediaDuration" : 26,
                                "scalar" : 1,
                                "animationTracks" : {

                                }
                              }
,
                          "start" : 1139,
                          "duration" : 26,
                          "mediaStart" : 0,
                          "mediaDuration" : 25747,
                          "scalar" : 1,
                          "metadata" : {
                            "AutoAppliedSmartFocus" : "False",
                            "clipSpeedAttribute" : false
                          }
                        },
                        {
                          "id" : 164,
                          "_type" : "UnifiedMedia",
                          "video" : 
                              {
                                "id" : 165,
                                "_type" : "ScreenVMFile",
                                "src" : 1,
                                "trackNumber" : 0,
                                "attributes" : {
                                  "ident" : "Rec 01-10-21"
                                },
                                "parameters" : {
                                  "cursorScale" : {
                                    "type" : "double",
                                    "defaultValue" : 0.0,
                                    "interp" : "linr"
                                  },
                                  "cursorOpacity" : {
                                    "type" : "double",
                                    "defaultValue" : 0.0,
                                    "interp" : "linr"
                                  }
                                },
                                "effects" : [

                                ],
                                "start" : 1165,
                                "duration" : 22,
                                "mediaStart" : 2688,
                                "mediaDuration" : 22,
                                "scalar" : 1,
                                "animationTracks" : {

                                }
                              },
                          "audio" : 
                              {
                                "id" : 166,
                                "_type" : "AMFile",
                                "src" : 1,
                                "trackNumber" : 1,
                                "attributes" : {
                                  "ident" : "",
                                  "gain" : 1.0,
                                  "mixToMono" : false
                                },
                                  "channelNumber" : "0,1",
                                "effects" : [

                                ],
                                "start" : 1165,
                                "duration" : 22,
                                "mediaStart" : 2688,
                                "mediaDuration" : 22,
                                "scalar" : 1,
                                "animationTracks" : {

                                }
                              }
,
                          "start" : 1165,
                          "duration" : 22,
                          "mediaStart" : 0,
                          "mediaDuration" : 25747,
                          "scalar" : 1,
                          "metadata" : {
                            "AutoAppliedSmartFocus" : "False",
                            "clipSpeedAttribute" : false
                          }
                        },
                        {
                          "id" : 167,
                          "_type" : "UnifiedMedia",
                          "video" : 
                              {
                                "id" : 168,
                                "_type" : "ScreenVMFile",
                                "src" : 1,
                                "trackNumber" : 0,
                                "attributes" : {
                                  "ident" : "Rec 01-10-21"
                                },
                                "parameters" : {
                                  "cursorScale" : {
                                    "type" : "double",
                                    "defaultValue" : 0.0,
                                    "interp" : "linr"
                                  },
                                  "cursorOpacity" : {
                                    "type" : "double",
                                    "defaultValue" : 0.0,
                                    "interp" : "linr"
                                  }
                                },
                                "effects" : [

                                ],
                                "start" : 1187,
                                "duration" : 30,
                                "mediaStart" : 2740,
                                "mediaDuration" : 30,
                                "scalar" : 1,
                                "animationTracks" : {

                                }
                              },
                          "audio" : 
                              {
                                "id" : 169,
                                "_type" : "AMFile",
                                "src" : 1,
                                "trackNumber" : 1,
                                "attributes" : {
                                  "ident" : "",
                                  "gain" : 1.0,
                                  "mixToMono" : false
                                },
                                  "channelNumber" : "0,1",
                                "effects" : [

                                ],
                                "start" : 1187,
                                "duration" : 30,
                                "mediaStart" : 2740,
                                "mediaDuration" : 30,
                                "scalar" : 1,
                                "animationTracks" : {

                                }
                              }
,
                          "start" : 1187,
                          "duration" : 30,
                          "mediaStart" : 0,
                          "mediaDuration" : 25747,
                          "scalar" : 1,
                          "metadata" : {
                            "AutoAppliedSmartFocus" : "False",
                            "clipSpeedAttribute" : false
                          }
                        },
                        {
                          "id" : 170,
                          "_type" : "UnifiedMedia",
                          "video" : 
                              {
                                "id" : 171,
                                "_type" : "ScreenVMFile",
                                "src" : 1,
                                "trackNumber" : 0,
                                "attributes" : {
                                  "ident" : "Rec 01-10-21"
                                },
                                "parameters" : {
                                  "cursorScale" : {
                                    "type" : "double",
                                    "defaultValue" : 0.0,
                                    "interp" : "linr"
                                  },
                                  "cursorOpacity" : {
                                    "type" : "double",
                                    "defaultValue" : 0.0,
                                    "interp" : "linr"
                                  }
                                },
                                "effects" : [

                                ],
                                "start" : 1217,
                                "duration" : 244,
                                "mediaStart" : 2861,
                                "mediaDuration" : 244,
                                "scalar" : 1,
                                "animationTracks" : {

                                }
                              },
                          "audio" : 
                              {
                                "id" : 172,
                                "_type" : "AMFile",
                                "src" : 1,
                                "trackNumber" : 1,
                                "attributes" : {
                                  "ident" : "",
                                  "gain" : 1.0,
                                  "mixToMono" : false
                                },
                                  "channelNumber" : "0,1",
                                "effects" : [

                                ],
                                "start" : 1217,
                                "duration" : 244,
                                "mediaStart" : 2861,
                                "mediaDuration" : 244,
                                "scalar" : 1,
                                "animationTracks" : {

                                }
                              }
,
                          "start" : 1217,
                          "duration" : 244,
                          "mediaStart" : 0,
                          "mediaDuration" : 25747,
                          "scalar" : 1,
                          "metadata" : {
                            "AutoAppliedSmartFocus" : "False",
                            "clipSpeedAttribute" : false
                          }
                        },
                        {
                          "id" : 173,
                          "_type" : "UnifiedMedia",
                          "video" : 
                              {
                                "id" : 174,
                                "_type" : "ScreenVMFile",
                                "src" : 1,
                                "trackNumber" : 0,
                                "attributes" : {
                                  "ident" : "Rec 01-10-21"
                                },
                                "parameters" : {
                                  "cursorScale" : {
                                    "type" : "double",
                                    "defaultValue" : 0.0,
                                    "interp" : "linr"
                                  },
                                  "cursorOpacity" : {
                                    "type" : "double",
                                    "defaultValue" : 0.0,
                                    "interp" : "linr"
                                  }
                                },
                                "effects" : [

                                ],
                                "start" : 1461,
                                "duration" : 44,
                                "mediaStart" : 3140,
                                "mediaDuration" : 44,
                                "scalar" : 1,
                                "animationTracks" : {

                                }
                              },
                          "audio" : 
                              {
                                "id" : 175,
                                "_type" : "AMFile",
                                "src" : 1,
                                "trackNumber" : 1,
                                "attributes" : {
                                  "ident" : "",
                                  "gain" : 1.0,
                                  "mixToMono" : false
                                },
                                  "channelNumber" : "0,1",
                                "effects" : [

                                ],
                                "start" : 1461,
                                "duration" : 44,
                                "mediaStart" : 3140,
                                "mediaDuration" : 44,
                                "scalar" : 1,
                                "animationTracks" : {

                                }
                              }
,
                          "start" : 1461,
                          "duration" : 44,
                          "mediaStart" : 0,
                          "mediaDuration" : 25747,
                          "scalar" : 1,
                          "metadata" : {
                            "AutoAppliedSmartFocus" : "False",
                            "clipSpeedAttribute" : false
                          }
                        },
                        {
                          "id" : 176,
                          "_type" : "UnifiedMedia",
                          "video" : 
                              {
                                "id" : 177,
                                "_type" : "ScreenVMFile",
                                "src" : 1,
                                "trackNumber" : 0,
                                "attributes" : {
                                  "ident" : "Rec 01-10-21"
                                },
                                "parameters" : {
                                  "cursorScale" : {
                                    "type" : "double",
                                    "defaultValue" : 0.0,
                                    "interp" : "linr"
                                  },
                                  "cursorOpacity" : {
                                    "type" : "double",
                                    "defaultValue" : 0.0,
                                    "interp" : "linr"
                                  }
                                },
                                "effects" : [

                                ],
                                "start" : 1505,
                                "duration" : 112,
                                "mediaStart" : 3212,
                                "mediaDuration" : 112,
                                "scalar" : 1,
                                "animationTracks" : {

                                }
                              },
                          "audio" : 
                              {
                                "id" : 178,
                                "_type" : "AMFile",
                                "src" : 1,
                                "trackNumber" : 1,
                                "attributes" : {
                                  "ident" : "",
                                  "gain" : 1.0,
                                  "mixToMono" : false
                                },
                                  "channelNumber" : "0,1",
                                "effects" : [

                                ],
                                "start" : 1505,
                                "duration" : 112,
                                "mediaStart" : 3212,
                                "mediaDuration" : 112,
                                "scalar" : 1,
                                "animationTracks" : {

                                }
                              }
,
                          "start" : 1505,
                          "duration" : 112,
                          "mediaStart" : 0,
                          "mediaDuration" : 25747,
                          "scalar" : 1,
                          "metadata" : {
                            "AutoAppliedSmartFocus" : "False",
                            "clipSpeedAttribute" : false
                          }
                        },
                        {
                          "id" : 179,
                          "_type" : "UnifiedMedia",
                          "video" : 
                              {
                                "id" : 180,
                                "_type" : "ScreenVMFile",
                                "src" : 1,
                                "trackNumber" : 0,
                                "attributes" : {
                                  "ident" : "Rec 01-10-21"
                                },
                                "parameters" : {
                                  "cursorScale" : {
                                    "type" : "double",
                                    "defaultValue" : 0.0,
                                    "interp" : "linr"
                                  },
                                  "cursorOpacity" : {
                                    "type" : "double",
                                    "defaultValue" : 0.0,
                                    "interp" : "linr"
                                  }
                                },
                                "effects" : [

                                ],
                                "start" : 1617,
                                "duration" : 54,
                                "mediaStart" : 3344,
                                "mediaDuration" : 54,
                                "scalar" : 1,
                                "animationTracks" : {

                                }
                              },
                          "audio" : 
                              {
                                "id" : 181,
                                "_type" : "AMFile",
                                "src" : 1,
                                "trackNumber" : 1,
                                "attributes" : {
                                  "ident" : "",
                                  "gain" : 1.0,
                                  "mixToMono" : false
                                },
                                  "channelNumber" : "0,1",
                                "effects" : [

                                ],
                                "start" : 1617,
                                "duration" : 54,
                                "mediaStart" : 3344,
                                "mediaDuration" : 54,
                                "scalar" : 1,
                                "animationTracks" : {

                                }
                              }
,
                          "start" : 1617,
                          "duration" : 54,
                          "mediaStart" : 0,
                          "mediaDuration" : 25747,
                          "scalar" : 1,
                          "metadata" : {
                            "AutoAppliedSmartFocus" : "False",
                            "clipSpeedAttribute" : false
                          }
                        },
                        {
                          "id" : 182,
                          "_type" : "UnifiedMedia",
                          "video" : 
                              {
                                "id" : 183,
                                "_type" : "ScreenVMFile",
                                "src" : 1,
                                "trackNumber" : 0,
                                "attributes" : {
                                  "ident" : "Rec 01-10-21"
                                },
                                "parameters" : {
                                  "cursorScale" : {
                                    "type" : "double",
                                    "defaultValue" : 0.0,
                                    "interp" : "linr"
                                  },
                                  "cursorOpacity" : {
                                    "type" : "double",
                                    "defaultValue" : 0.0,
                                    "interp" : "linr"
                                  }
                                },
                                "effects" : [

                                ],
                                "start" : 1671,
                                "duration" : 39,
                                "mediaStart" : 3481,
                                "mediaDuration" : 39,
                                "scalar" : 1,
                                "animationTracks" : {

                                }
                              },
                          "audio" : 
                              {
                                "id" : 184,
                                "_type" : "AMFile",
                                "src" : 1,
                                "trackNumber" : 1,
                                "attributes" : {
                                  "ident" : "",
                                  "gain" : 1.0,
                                  "mixToMono" : false
                                },
                                  "channelNumber" : "0,1",
                                "effects" : [

                                ],
                                "start" : 1671,
                                "duration" : 39,
                                "mediaStart" : 3481,
                                "mediaDuration" : 39,
                                "scalar" : 1,
                                "animationTracks" : {

                                }
                              }
,
                          "start" : 1671,
                          "duration" : 39,
                          "mediaStart" : 0,
                          "mediaDuration" : 25747,
                          "scalar" : 1,
                          "metadata" : {
                            "AutoAppliedSmartFocus" : "False",
                            "clipSpeedAttribute" : false
                          }
                        },
                        {
                          "id" : 185,
                          "_type" : "UnifiedMedia",
                          "video" : 
                              {
                                "id" : 186,
                                "_type" : "ScreenVMFile",
                                "src" : 1,
                                "trackNumber" : 0,
                                "attributes" : {
                                  "ident" : "Rec 01-10-21"
                                },
                                "parameters" : {
                                  "cursorScale" : {
                                    "type" : "double",
                                    "defaultValue" : 0.0,
                                    "interp" : "linr"
                                  },
                                  "cursorOpacity" : {
                                    "type" : "double",
                                    "defaultValue" : 0.0,
                                    "interp" : "linr"
                                  }
                                },
                                "effects" : [

                                ],
                                "start" : 1710,
                                "duration" : 22206,
                                "mediaStart" : 3541,
                                "mediaDuration" : 22206,
                                "scalar" : 1,
                                "animationTracks" : {

                                }
                              },
                          "audio" : 
                              {
                                "id" : 187,
                                "_type" : "AMFile",
                                "src" : 1,
                                "trackNumber" : 1,
                                "attributes" : {
                                  "ident" : "",
                                  "gain" : 1.0,
                                  "mixToMono" : false
                                },
                                  "channelNumber" : "0,1",
                                "effects" : [

                                ],
                                "start" : 1710,
                                "duration" : 22206,
                                "mediaStart" : 3541,
                                "mediaDuration" : 22206,
                                "scalar" : 1,
                                "animationTracks" : {

                                }
                              }
,
                          "start" : 1710,
                          "duration" : 22206,
                          "mediaStart" : 0,
                          "mediaDuration" : 25747,
                          "scalar" : 1,
                          "metadata" : {
                            "AutoAppliedSmartFocus" : "False",
                            "clipSpeedAttribute" : false
                          }
                        }
                    ],
                    "effects" : [

                    ],
                    "start" : 200,
                    "duration" : 1709,
                    "mediaStart" : 57,
                    "mediaDuration" : 1709,
                    "scalar" : 1,
                    "metadata" : {
                      "AutoAppliedSmartFocus" : "False",
                      "clipSpeedAttribute" : false
                    },
                    "animationTracks" : {

                    }
                  },
                  {
                    "id" : 188,
                    "_type" : "Group",
                    "parameters" : {
                      "volume" : 1.0
                    },
                    "tracks" : [
                      {
                        "trackIndex" : 0,
                        "medias" : [
                          {
                            "id" : 189,
                            "_type" : "StitchedMedia",
                            "minMediaStart" : 0,
                            "attributes" : {
                              "ident" : "Rec 01-10-21",
                              "gain" : 1.0,
                              "mixToMono" : false
                            },
                            "parameters" : {
                              "cursorOpacity" : 1.0,
                              "cursorScale" : 1.0
                            },
                            "medias" : [
                                {
                                  "id" : 190,
                                  "_type" : "ScreenVMFile",
                                  "src" : 1,
                                  "trackNumber" : 0,
                                  "attributes" : {
                                    "ident" : "Rec 01-10-21"
                                  },
                                  "parameters" : {
                                    "cursorScale" : {
                                      "type" : "double",
                                      "defaultValue" : 0.0,
                                      "interp" : "linr"
                                    },
                                    "cursorOpacity" : {
                                      "type" : "double",
                                      "defaultValue" : 0.0,
                                      "interp" : "linr"
                                    }
                                  },
                                  "effects" : [

                                  ],
                                  "start" : 0,
                                  "duration" : 14,
                                  "mediaStart" : 0,
                                  "mediaDuration" : 14,
                                  "scalar" : 1,
                                  "metadata" : {
                                    "AutoAppliedSmartFocus" : "False"
                                  },
                                  "animationTracks" : {

                                  }
                                },
                                {
                                  "id" : 191,
                                  "_type" : "ScreenVMFile",
                                  "src" : 1,
                                  "trackNumber" : 0,
                                  "attributes" : {
                                    "ident" : "Rec 01-10-21"
                                  },
                                  "parameters" : {
                                    "cursorScale" : {
                                      "type" : "double",
                                      "defaultValue" : 0.0,
                                      "interp" : "linr"
                                    },
                                    "cursorOpacity" : {
                                      "type" : "double",
                                      "defaultValue" : 0.0,
                                      "interp" : "linr"
                                    }
                                  },
                                  "effects" : [

                                  ],
                                  "start" : 14,
                                  "duration" : 18,
                                  "mediaStart" : 114,
                                  "mediaDuration" : 18,
                                  "scalar" : 1,
                                  "metadata" : {
                                    "AutoAppliedSmartFocus" : "False"
                                  },
                                  "animationTracks" : {

                                  }
                                },
                                {
                                  "id" : 192,
                                  "_type" : "ScreenVMFile",
                                  "src" : 1,
                                  "trackNumber" : 0,
                                  "attributes" : {
                                    "ident" : "Rec 01-10-21"
                                  },
                                  "parameters" : {
                                    "cursorScale" : {
                                      "type" : "double",
                                      "defaultValue" : 0.0,
                                      "interp" : "linr"
                                    },
                                    "cursorOpacity" : {
                                      "type" : "double",
                                      "defaultValue" : 0.0,
                                      "interp" : "linr"
                                    }
                                  },
                                  "effects" : [

                                  ],
                                  "start" : 32,
                                  "duration" : 258,
                                  "mediaStart" : 139,
                                  "mediaDuration" : 258,
                                  "scalar" : 1,
                                  "metadata" : {
                                    "AutoAppliedSmartFocus" : "False"
                                  },
                                  "animationTracks" : {

                                  }
                                },
                                {
                                  "id" : 193,
                                  "_type" : "ScreenVMFile",
                                  "src" : 1,
                                  "trackNumber" : 0,
                                  "attributes" : {
                                    "ident" : "Rec 01-10-21"
                                  },
                                  "parameters" : {
                                    "cursorScale" : {
                                      "type" : "double",
                                      "defaultValue" : 0.0,
                                      "interp" : "linr"
                                    },
                                    "cursorOpacity" : {
                                      "type" : "double",
                                      "defaultValue" : 0.0,
                                      "interp" : "linr"
                                    }
                                  },
                                  "effects" : [

                                  ],
                                  "start" : 290,
                                  "duration" : 38,
                                  "mediaStart" : 449,
                                  "mediaDuration" : 38,
                                  "scalar" : 1,
                                  "metadata" : {
                                    "AutoAppliedSmartFocus" : "False"
                                  },
                                  "animationTracks" : {

                                  }
                                },
                                {
                                  "id" : 194,
                                  "_type" : "ScreenVMFile",
                                  "src" : 1,
                                  "trackNumber" : 0,
                                  "attributes" : {
                                    "ident" : "Rec 01-10-21"
                                  },
                                  "parameters" : {
                                    "cursorScale" : {
                                      "type" : "double",
                                      "defaultValue" : 0.0,
                                      "interp" : "linr"
                                    },
                                    "cursorOpacity" : {
                                      "type" : "double",
                                      "defaultValue" : 0.0,
                                      "interp" : "linr"
                                    }
                                  },
                                  "effects" : [

                                  ],
                                  "start" : 328,
                                  "duration" : 180,
                                  "mediaStart" : 577,
                                  "mediaDuration" : 180,
                                  "scalar" : 1,
                                  "metadata" : {
                                    "AutoAppliedSmartFocus" : "False"
                                  },
                                  "animationTracks" : {

                                  }
                                },
                                {
                                  "id" : 195,
                                  "_type" : "ScreenVMFile",
                                  "src" : 1,
                                  "trackNumber" : 0,
                                  "attributes" : {
                                    "ident" : "Rec 01-10-21"
                                  },
                                  "parameters" : {
                                    "cursorScale" : {
                                      "type" : "double",
                                      "defaultValue" : 0.0,
                                      "interp" : "linr"
                                    },
                                    "cursorOpacity" : {
                                      "type" : "double",
                                      "defaultValue" : 0.0,
                                      "interp" : "linr"
                                    }
                                  },
                                  "effects" : [

                                  ],
                                  "start" : 508,
                                  "duration" : 144,
                                  "mediaStart" : 812,
                                  "mediaDuration" : 144,
                                  "scalar" : 1,
                                  "metadata" : {
                                    "AutoAppliedSmartFocus" : "False"
                                  },
                                  "animationTracks" : {

                                  }
                                },
                                {
                                  "id" : 196,
                                  "_type" : "ScreenVMFile",
                                  "src" : 1,
                                  "trackNumber" : 0,
                                  "attributes" : {
                                    "ident" : "Rec 01-10-21"
                                  },
                                  "parameters" : {
                                    "cursorScale" : {
                                      "type" : "double",
                                      "defaultValue" : 0.0,
                                      "interp" : "linr"
                                    },
                                    "cursorOpacity" : {
                                      "type" : "double",
                                      "defaultValue" : 0.0,
                                      "interp" : "linr"
                                    }
                                  },
                                  "effects" : [

                                  ],
                                  "start" : 652,
                                  "duration" : 129,
                                  "mediaStart" : 1874,
                                  "mediaDuration" : 129,
                                  "scalar" : 1,
                                  "metadata" : {
                                    "AutoAppliedSmartFocus" : "False"
                                  },
                                  "animationTracks" : {

                                  }
                                },
                                {
                                  "id" : 197,
                                  "_type" : "ScreenVMFile",
                                  "src" : 1,
                                  "trackNumber" : 0,
                                  "attributes" : {
                                    "ident" : "Rec 01-10-21"
                                  },
                                  "parameters" : {
                                    "cursorScale" : {
                                      "type" : "double",
                                      "defaultValue" : 0.0,
                                      "interp" : "linr"
                                    },
                                    "cursorOpacity" : {
                                      "type" : "double",
                                      "defaultValue" : 0.0,
                                      "interp" : "linr"
                                    }
                                  },
                                  "effects" : [

                                  ],
                                  "start" : 781,
                                  "duration" : 48,
                                  "mediaStart" : 2178,
                                  "mediaDuration" : 48,
                                  "scalar" : 1,
                                  "metadata" : {
                                    "AutoAppliedSmartFocus" : "False"
                                  },
                                  "animationTracks" : {

                                  }
                                },
                                {
                                  "id" : 198,
                                  "_type" : "ScreenVMFile",
                                  "src" : 1,
                                  "trackNumber" : 0,
                                  "attributes" : {
                                    "ident" : "Rec 01-10-21"
                                  },
                                  "parameters" : {
                                    "cursorScale" : {
                                      "type" : "double",
                                      "defaultValue" : 0.0,
                                      "interp" : "linr"
                                    },
                                    "cursorOpacity" : {
                                      "type" : "double",
                                      "defaultValue" : 0.0,
                                      "interp" : "linr"
                                    }
                                  },
                                  "effects" : [

                                  ],
                                  "start" : 829,
                                  "duration" : 86,
                                  "mediaStart" : 2257,
                                  "mediaDuration" : 86,
                                  "scalar" : 1,
                                  "metadata" : {
                                    "AutoAppliedSmartFocus" : "False"
                                  },
                                  "animationTracks" : {

                                  }
                                },
                                {
                                  "id" : 199,
                                  "_type" : "ScreenVMFile",
                                  "src" : 1,
                                  "trackNumber" : 0,
                                  "attributes" : {
                                    "ident" : "Rec 01-10-21"
                                  },
                                  "parameters" : {
                                    "cursorScale" : {
                                      "type" : "double",
                                      "defaultValue" : 0.0,
                                      "interp" : "linr"
                                    },
                                    "cursorOpacity" : {
                                      "type" : "double",
                                      "defaultValue" : 0.0,
                                      "interp" : "linr"
                                    }
                                  },
                                  "effects" : [

                                  ],
                                  "start" : 915,
                                  "duration" : 121,
                                  "mediaStart" : 2359,
                                  "mediaDuration" : 121,
                                  "scalar" : 1,
                                  "metadata" : {
                                    "AutoAppliedSmartFocus" : "False"
                                  },
                                  "animationTracks" : {

                                  }
                                },
                                {
                                  "id" : 200,
                                  "_type" : "ScreenVMFile",
                                  "src" : 1,
                                  "trackNumber" : 0,
                                  "attributes" : {
                                    "ident" : "Rec 01-10-21"
                                  },
                                  "parameters" : {
                                    "cursorScale" : {
                                      "type" : "double",
                                      "defaultValue" : 0.0,
                                      "interp" : "linr"
                                    },
                                    "cursorOpacity" : {
                                      "type" : "double",
                                      "defaultValue" : 0.0,
                                      "interp" : "linr"
                                    }
                                  },
                                  "effects" : [

                                  ],
                                  "start" : 1036,
                                  "duration" : 103,
                                  "mediaStart" : 2511,
                                  "mediaDuration" : 103,
                                  "scalar" : 1,
                                  "metadata" : {
                                    "AutoAppliedSmartFocus" : "False"
                                  },
                                  "animationTracks" : {

                                  }
                                },
                                {
                                  "id" : 201,
                                  "_type" : "ScreenVMFile",
                                  "src" : 1,
                                  "trackNumber" : 0,
                                  "attributes" : {
                                    "ident" : "Rec 01-10-21"
                                  },
                                  "parameters" : {
                                    "cursorScale" : {
                                      "type" : "double",
                                      "defaultValue" : 0.0,
                                      "interp" : "linr"
                                    },
                                    "cursorOpacity" : {
                                      "type" : "double",
                                      "defaultValue" : 0.0,
                                      "interp" : "linr"
                                    }
                                  },
                                  "effects" : [

                                  ],
                                  "start" : 1139,
                                  "duration" : 26,
                                  "mediaStart" : 2629,
                                  "mediaDuration" : 26,
                                  "scalar" : 1,
                                  "metadata" : {
                                    "AutoAppliedSmartFocus" : "False"
                                  },
                                  "animationTracks" : {

                                  }
                                },
                                {
                                  "id" : 202,
                                  "_type" : "ScreenVMFile",
                                  "src" : 1,
                                  "trackNumber" : 0,
                                  "attributes" : {
                                    "ident" : "Rec 01-10-21"
                                  },
                                  "parameters" : {
                                    "cursorScale" : {
                                      "type" : "double",
                                      "defaultValue" : 0.0,
                                      "interp" : "linr"
                                    },
                                    "cursorOpacity" : {
                                      "type" : "double",
                                      "defaultValue" : 0.0,
                                      "interp" : "linr"
                                    }
                                  },
                                  "effects" : [

                                  ],
                                  "start" : 1165,
                                  "duration" : 22,
                                  "mediaStart" : 2688,
                                  "mediaDuration" : 22,
                                  "scalar" : 1,
                                  "metadata" : {
                                    "AutoAppliedSmartFocus" : "False"
                                  },
                                  "animationTracks" : {

                                  }
                                },
                                {
                                  "id" : 203,
                                  "_type" : "ScreenVMFile",
                                  "src" : 1,
                                  "trackNumber" : 0,
                                  "attributes" : {
                                    "ident" : "Rec 01-10-21"
                                  },
                                  "parameters" : {
                                    "cursorScale" : {
                                      "type" : "double",
                                      "defaultValue" : 0.0,
                                      "interp" : "linr"
                                    },
                                    "cursorOpacity" : {
                                      "type" : "double",
                                      "defaultValue" : 0.0,
                                      "interp" : "linr"
                                    }
                                  },
                                  "effects" : [

                                  ],
                                  "start" : 1187,
                                  "duration" : 30,
                                  "mediaStart" : 2740,
                                  "mediaDuration" : 30,
                                  "scalar" : 1,
                                  "metadata" : {
                                    "AutoAppliedSmartFocus" : "False"
                                  },
                                  "animationTracks" : {

                                  }
                                },
                                {
                                  "id" : 204,
                                  "_type" : "ScreenVMFile",
                                  "src" : 1,
                                  "trackNumber" : 0,
                                  "attributes" : {
                                    "ident" : "Rec 01-10-21"
                                  },
                                  "parameters" : {
                                    "cursorScale" : {
                                      "type" : "double",
                                      "defaultValue" : 0.0,
                                      "interp" : "linr"
                                    },
                                    "cursorOpacity" : {
                                      "type" : "double",
                                      "defaultValue" : 0.0,
                                      "interp" : "linr"
                                    }
                                  },
                                  "effects" : [

                                  ],
                                  "start" : 1217,
                                  "duration" : 244,
                                  "mediaStart" : 2861,
                                  "mediaDuration" : 244,
                                  "scalar" : 1,
                                  "metadata" : {
                                    "AutoAppliedSmartFocus" : "False"
                                  },
                                  "animationTracks" : {

                                  }
                                },
                                {
                                  "id" : 205,
                                  "_type" : "ScreenVMFile",
                                  "src" : 1,
                                  "trackNumber" : 0,
                                  "attributes" : {
                                    "ident" : "Rec 01-10-21"
                                  },
                                  "parameters" : {
                                    "cursorScale" : {
                                      "type" : "double",
                                      "defaultValue" : 0.0,
                                      "interp" : "linr"
                                    },
                                    "cursorOpacity" : {
                                      "type" : "double",
                                      "defaultValue" : 0.0,
                                      "interp" : "linr"
                                    }
                                  },
                                  "effects" : [

                                  ],
                                  "start" : 1461,
                                  "duration" : 44,
                                  "mediaStart" : 3140,
                                  "mediaDuration" : 44,
                                  "scalar" : 1,
                                  "metadata" : {
                                    "AutoAppliedSmartFocus" : "False"
                                  },
                                  "animationTracks" : {

                                  }
                                },
                                {
                                  "id" : 206,
                                  "_type" : "ScreenVMFile",
                                  "src" : 1,
                                  "trackNumber" : 0,
                                  "attributes" : {
                                    "ident" : "Rec 01-10-21"
                                  },
                                  "parameters" : {
                                    "cursorScale" : {
                                      "type" : "double",
                                      "defaultValue" : 0.0,
                                      "interp" : "linr"
                                    },
                                    "cursorOpacity" : {
                                      "type" : "double",
                                      "defaultValue" : 0.0,
                                      "interp" : "linr"
                                    }
                                  },
                                  "effects" : [

                                  ],
                                  "start" : 1505,
                                  "duration" : 112,
                                  "mediaStart" : 3212,
                                  "mediaDuration" : 112,
                                  "scalar" : 1,
                                  "metadata" : {
                                    "AutoAppliedSmartFocus" : "False"
                                  },
                                  "animationTracks" : {

                                  }
                                },
                                {
                                  "id" : 207,
                                  "_type" : "ScreenVMFile",
                                  "src" : 1,
                                  "trackNumber" : 0,
                                  "attributes" : {
                                    "ident" : "Rec 01-10-21"
                                  },
                                  "parameters" : {
                                    "cursorScale" : {
                                      "type" : "double",
                                      "defaultValue" : 0.0,
                                      "interp" : "linr"
                                    },
                                    "cursorOpacity" : {
                                      "type" : "double",
                                      "defaultValue" : 0.0,
                                      "interp" : "linr"
                                    }
                                  },
                                  "effects" : [

                                  ],
                                  "start" : 1617,
                                  "duration" : 54,
                                  "mediaStart" : 3344,
                                  "mediaDuration" : 54,
                                  "scalar" : 1,
                                  "metadata" : {
                                    "AutoAppliedSmartFocus" : "False"
                                  },
                                  "animationTracks" : {

                                  }
                                },
                                {
                                  "id" : 208,
                                  "_type" : "ScreenVMFile",
                                  "src" : 1,
                                  "trackNumber" : 0,
                                  "attributes" : {
                                    "ident" : "Rec 01-10-21"
                                  },
                                  "parameters" : {
                                    "cursorScale" : {
                                      "type" : "double",
                                      "defaultValue" : 0.0,
                                      "interp" : "linr"
                                    },
                                    "cursorOpacity" : {
                                      "type" : "double",
                                      "defaultValue" : 0.0,
                                      "interp" : "linr"
                                    }
                                  },
                                  "effects" : [

                                  ],
                                  "start" : 1671,
                                  "duration" : 39,
                                  "mediaStart" : 3481,
                                  "mediaDuration" : 39,
                                  "scalar" : 1,
                                  "metadata" : {
                                    "AutoAppliedSmartFocus" : "False"
                                  },
                                  "animationTracks" : {

                                  }
                                },
                                {
                                  "id" : 209,
                                  "_type" : "ScreenVMFile",
                                  "src" : 1,
                                  "trackNumber" : 0,
                                  "attributes" : {
                                    "ident" : "Rec 01-10-21"
                                  },
                                  "parameters" : {
                                    "cursorScale" : {
                                      "type" : "double",
                                      "defaultValue" : 0.0,
                                      "interp" : "linr"
                                    },
                                    "cursorOpacity" : {
                                      "type" : "double",
                                      "defaultValue" : 0.0,
                                      "interp" : "linr"
                                    }
                                  },
                                  "effects" : [

                                  ],
                                  "start" : 1710,
                                  "duration" : 22206,
                                  "mediaStart" : 3541,
                                  "mediaDuration" : 22206,
                                  "scalar" : 1,
                                  "metadata" : {
                                    "AutoAppliedSmartFocus" : "False"
                                  },
                                  "animationTracks" : {

                                  }
                                }
                            ],
                            "effects" : [

                            ],
                            "start" : 0,
                            "duration" : 62,
                            "mediaStart" : 1772,
                            "mediaDuration" : 62,
                            "scalar" : 1,
                            "metadata" : {
                              "AutoAppliedSmartFocus" : "False",
                              "clipSpeedAttribute" : false
                            },
                            "animationTracks" : {

                            }
                          },
                          {
                            "id" : 210,
                            "_type" : "StitchedMedia",
                            "minMediaStart" : 0,
                            "attributes" : {
                              "ident" : "Rec 01-10-21",
                              "gain" : 1.0,
                              "mixToMono" : false
                            },
                            "parameters" : {
                              "volume" : 1.0,
                              "cursorOpacity" : 1.0,
                              "cursorScale" : 1.0
                            },
                            "medias" : [
                                {
                                  "id" : 211,
                                  "_type" : "UnifiedMedia",
                                  "video" : 
                                      {
                                        "id" : 212,
                                        "_type" : "ScreenVMFile",
                                        "src" : 1,
                                        "trackNumber" : 0,
                                        "attributes" : {
                                          "ident" : "Rec 01-10-21"
                                        },
                                        "parameters" : {
                                          "cursorScale" : {
                                            "type" : "double",
                                            "defaultValue" : 0.0,
                                            "interp" : "linr"
                                          },
                                          "cursorOpacity" : {
                                            "type" : "double",
                                            "defaultValue" : 0.0,
                                            "interp" : "linr"
                                          }
                                        },
                                        "effects" : [

                                        ],
                                        "start" : 0,
                                        "duration" : 14,
                                        "mediaStart" : 0,
                                        "mediaDuration" : 14,
                                        "scalar" : 1,
                                        "animationTracks" : {

                                        }
                                      },
                                  "audio" : 
                                      {
                                        "id" : 213,
                                        "_type" : "AMFile",
                                        "src" : 1,
                                        "trackNumber" : 1,
                                        "attributes" : {
                                          "ident" : "",
                                          "gain" : 1.0,
                                          "mixToMono" : false
                                        },
                                          "channelNumber" : "0,1",
                                        "effects" : [

                                        ],
                                        "start" : 0,
                                        "duration" : 14,
                                        "mediaStart" : 0,
                                        "mediaDuration" : 14,
                                        "scalar" : 1,
                                        "animationTracks" : {

                                        }
                                      }
,
                                  "start" : 0,
                                  "duration" : 14,
                                  "mediaStart" : 0,
                                  "mediaDuration" : 25747,
                                  "scalar" : 1,
                                  "metadata" : {
                                    "AutoAppliedSmartFocus" : "False",
                                    "clipSpeedAttribute" : false
                                  }
                                },
                                {
                                  "id" : 214,
                                  "_type" : "UnifiedMedia",
                                  "video" : 
                                      {
                                        "id" : 215,
                                        "_type" : "ScreenVMFile",
                                        "src" : 1,
                                        "trackNumber" : 0,
                                        "attributes" : {
                                          "ident" : "Rec 01-10-21"
                                        },
                                        "parameters" : {
                                          "cursorScale" : {
                                            "type" : "double",
                                            "defaultValue" : 0.0,
                                            "interp" : "linr"
                                          },
                                          "cursorOpacity" : {
                                            "type" : "double",
                                            "defaultValue" : 0.0,
                                            "interp" : "linr"
                                          }
                                        },
                                        "effects" : [

                                        ],
                                        "start" : 14,
                                        "duration" : 18,
                                        "mediaStart" : 114,
                                        "mediaDuration" : 18,
                                        "scalar" : 1,
                                        "animationTracks" : {

                                        }
                                      },
                                  "audio" : 
                                      {
                                        "id" : 216,
                                        "_type" : "AMFile",
                                        "src" : 1,
                                        "trackNumber" : 1,
                                        "attributes" : {
                                          "ident" : "",
                                          "gain" : 1.0,
                                          "mixToMono" : false
                                        },
                                          "channelNumber" : "0,1",
                                        "effects" : [

                                        ],
                                        "start" : 14,
                                        "duration" : 18,
                                        "mediaStart" : 114,
                                        "mediaDuration" : 18,
                                        "scalar" : 1,
                                        "animationTracks" : {

                                        }
                                      }
,
                                  "start" : 14,
                                  "duration" : 18,
                                  "mediaStart" : 0,
                                  "mediaDuration" : 25747,
                                  "scalar" : 1,
                                  "metadata" : {
                                    "AutoAppliedSmartFocus" : "False",
                                    "clipSpeedAttribute" : false
                                  }
                                },
                                {
                                  "id" : 217,
                                  "_type" : "UnifiedMedia",
                                  "video" : 
                                      {
                                        "id" : 218,
                                        "_type" : "ScreenVMFile",
                                        "src" : 1,
                                        "trackNumber" : 0,
                                        "attributes" : {
                                          "ident" : "Rec 01-10-21"
                                        },
                                        "parameters" : {
                                          "cursorScale" : {
                                            "type" : "double",
                                            "defaultValue" : 0.0,
                                            "interp" : "linr"
                                          },
                                          "cursorOpacity" : {
                                            "type" : "double",
                                            "defaultValue" : 0.0,
                                            "interp" : "linr"
                                          }
                                        },
                                        "effects" : [

                                        ],
                                        "start" : 32,
                                        "duration" : 258,
                                        "mediaStart" : 139,
                                        "mediaDuration" : 258,
                                        "scalar" : 1,
                                        "animationTracks" : {

                                        }
                                      },
                                  "audio" : 
                                      {
                                        "id" : 219,
                                        "_type" : "AMFile",
                                        "src" : 1,
                                        "trackNumber" : 1,
                                        "attributes" : {
                                          "ident" : "",
                                          "gain" : 1.0,
                                          "mixToMono" : false
                                        },
                                          "channelNumber" : "0,1",
                                        "effects" : [

                                        ],
                                        "start" : 32,
                                        "duration" : 258,
                                        "mediaStart" : 139,
                                        "mediaDuration" : 258,
                                        "scalar" : 1,
                                        "animationTracks" : {

                                        }
                                      }
,
                                  "start" : 32,
                                  "duration" : 258,
                                  "mediaStart" : 0,
                                  "mediaDuration" : 25747,
                                  "scalar" : 1,
                                  "metadata" : {
                                    "AutoAppliedSmartFocus" : "False",
                                    "clipSpeedAttribute" : false
                                  }
                                },
                                {
                                  "id" : 220,
                                  "_type" : "UnifiedMedia",
                                  "video" : 
                                      {
                                        "id" : 221,
                                        "_type" : "ScreenVMFile",
                                        "src" : 1,
                                        "trackNumber" : 0,
                                        "attributes" : {
                                          "ident" : "Rec 01-10-21"
                                        },
                                        "parameters" : {
                                          "cursorScale" : {
                                            "type" : "double",
                                            "defaultValue" : 0.0,
                                            "interp" : "linr"
                                          },
                                          "cursorOpacity" : {
                                            "type" : "double",
                                            "defaultValue" : 0.0,
                                            "interp" : "linr"
                                          }
                                        },
                                        "effects" : [

                                        ],
                                        "start" : 290,
                                        "duration" : 38,
                                        "mediaStart" : 449,
                                        "mediaDuration" : 38,
                                        "scalar" : 1,
                                        "animationTracks" : {

                                        }
                                      },
                                  "audio" : 
                                      {
                                        "id" : 222,
                                        "_type" : "AMFile",
                                        "src" : 1,
                                        "trackNumber" : 1,
                                        "attributes" : {
                                          "ident" : "",
                                          "gain" : 1.0,
                                          "mixToMono" : false
                                        },
                                          "channelNumber" : "0,1",
                                        "effects" : [

                                        ],
                                        "start" : 290,
                                        "duration" : 38,
                                        "mediaStart" : 449,
                                        "mediaDuration" : 38,
                                        "scalar" : 1,
                                        "animationTracks" : {

                                        }
                                      }
,
                                  "start" : 290,
                                  "duration" : 38,
                                  "mediaStart" : 0,
                                  "mediaDuration" : 25747,
                                  "scalar" : 1,
                                  "metadata" : {
                                    "AutoAppliedSmartFocus" : "False",
                                    "clipSpeedAttribute" : false
                                  }
                                },
                                {
                                  "id" : 223,
                                  "_type" : "UnifiedMedia",
                                  "video" : 
                                      {
                                        "id" : 224,
                                        "_type" : "ScreenVMFile",
                                        "src" : 1,
                                        "trackNumber" : 0,
                                        "attributes" : {
                                          "ident" : "Rec 01-10-21"
                                        },
                                        "parameters" : {
                                          "cursorScale" : {
                                            "type" : "double",
                                            "defaultValue" : 0.0,
                                            "interp" : "linr"
                                          },
                                          "cursorOpacity" : {
                                            "type" : "double",
                                            "defaultValue" : 0.0,
                                            "interp" : "linr"
                                          }
                                        },
                                        "effects" : [

                                        ],
                                        "start" : 328,
                                        "duration" : 180,
                                        "mediaStart" : 577,
                                        "mediaDuration" : 180,
                                        "scalar" : 1,
                                        "animationTracks" : {

                                        }
                                      },
                                  "audio" : 
                                      {
                                        "id" : 225,
                                        "_type" : "AMFile",
                                        "src" : 1,
                                        "trackNumber" : 1,
                                        "attributes" : {
                                          "ident" : "",
                                          "gain" : 1.0,
                                          "mixToMono" : false
                                        },
                                          "channelNumber" : "0,1",
                                        "effects" : [

                                        ],
                                        "start" : 328,
                                        "duration" : 180,
                                        "mediaStart" : 577,
                                        "mediaDuration" : 180,
                                        "scalar" : 1,
                                        "animationTracks" : {

                                        }
                                      }
,
                                  "start" : 328,
                                  "duration" : 180,
                                  "mediaStart" : 0,
                                  "mediaDuration" : 25747,
                                  "scalar" : 1,
                                  "metadata" : {
                                    "AutoAppliedSmartFocus" : "False",
                                    "clipSpeedAttribute" : false
                                  }
                                },
                                {
                                  "id" : 226,
                                  "_type" : "UnifiedMedia",
                                  "video" : 
                                      {
                                        "id" : 227,
                                        "_type" : "ScreenVMFile",
                                        "src" : 1,
                                        "trackNumber" : 0,
                                        "attributes" : {
                                          "ident" : "Rec 01-10-21"
                                        },
                                        "parameters" : {
                                          "cursorScale" : {
                                            "type" : "double",
                                            "defaultValue" : 0.0,
                                            "interp" : "linr"
                                          },
                                          "cursorOpacity" : {
                                            "type" : "double",
                                            "defaultValue" : 0.0,
                                            "interp" : "linr"
                                          }
                                        },
                                        "effects" : [

                                        ],
                                        "start" : 508,
                                        "duration" : 144,
                                        "mediaStart" : 812,
                                        "mediaDuration" : 144,
                                        "scalar" : 1,
                                        "animationTracks" : {

                                        }
                                      },
                                  "audio" : 
                                      {
                                        "id" : 228,
                                        "_type" : "AMFile",
                                        "src" : 1,
                                        "trackNumber" : 1,
                                        "attributes" : {
                                          "ident" : "",
                                          "gain" : 1.0,
                                          "mixToMono" : false
                                        },
                                          "channelNumber" : "0,1",
                                        "effects" : [

                                        ],
                                        "start" : 508,
                                        "duration" : 144,
                                        "mediaStart" : 812,
                                        "mediaDuration" : 144,
                                        "scalar" : 1,
                                        "animationTracks" : {

                                        }
                                      }
,
                                  "start" : 508,
                                  "duration" : 144,
                                  "mediaStart" : 0,
                                  "mediaDuration" : 25747,
                                  "scalar" : 1,
                                  "metadata" : {
                                    "AutoAppliedSmartFocus" : "False",
                                    "clipSpeedAttribute" : false
                                  }
                                },
                                {
                                  "id" : 229,
                                  "_type" : "UnifiedMedia",
                                  "video" : 
                                      {
                                        "id" : 230,
                                        "_type" : "ScreenVMFile",
                                        "src" : 1,
                                        "trackNumber" : 0,
                                        "attributes" : {
                                          "ident" : "Rec 01-10-21"
                                        },
                                        "parameters" : {
                                          "cursorScale" : {
                                            "type" : "double",
                                            "defaultValue" : 0.0,
                                            "interp" : "linr"
                                          },
                                          "cursorOpacity" : {
                                            "type" : "double",
                                            "defaultValue" : 0.0,
                                            "interp" : "linr"
                                          }
                                        },
                                        "effects" : [

                                        ],
                                        "start" : 652,
                                        "duration" : 129,
                                        "mediaStart" : 1874,
                                        "mediaDuration" : 129,
                                        "scalar" : 1,
                                        "animationTracks" : {

                                        }
                                      },
                                  "audio" : 
                                      {
                                        "id" : 231,
                                        "_type" : "AMFile",
                                        "src" : 1,
                                        "trackNumber" : 1,
                                        "attributes" : {
                                          "ident" : "",
                                          "gain" : 1.0,
                                          "mixToMono" : false
                                        },
                                          "channelNumber" : "0,1",
                                        "effects" : [

                                        ],
                                        "start" : 652,
                                        "duration" : 129,
                                        "mediaStart" : 1874,
                                        "mediaDuration" : 129,
                                        "scalar" : 1,
                                        "animationTracks" : {

                                        }
                                      }
,
                                  "start" : 652,
                                  "duration" : 129,
                                  "mediaStart" : 0,
                                  "mediaDuration" : 25747,
                                  "scalar" : 1,
                                  "metadata" : {
                                    "AutoAppliedSmartFocus" : "False",
                                    "clipSpeedAttribute" : false
                                  }
                                },
                                {
                                  "id" : 232,
                                  "_type" : "UnifiedMedia",
                                  "video" : 
                                      {
                                        "id" : 233,
                                        "_type" : "ScreenVMFile",
                                        "src" : 1,
                                        "trackNumber" : 0,
                                        "attributes" : {
                                          "ident" : "Rec 01-10-21"
                                        },
                                        "parameters" : {
                                          "cursorScale" : {
                                            "type" : "double",
                                            "defaultValue" : 0.0,
                                            "interp" : "linr"
                                          },
                                          "cursorOpacity" : {
                                            "type" : "double",
                                            "defaultValue" : 0.0,
                                            "interp" : "linr"
                                          }
                                        },
                                        "effects" : [

                                        ],
                                        "start" : 781,
                                        "duration" : 48,
                                        "mediaStart" : 2178,
                                        "mediaDuration" : 48,
                                        "scalar" : 1,
                                        "animationTracks" : {

                                        }
                                      },
                                  "audio" : 
                                      {
                                        "id" : 234,
                                        "_type" : "AMFile",
                                        "src" : 1,
                                        "trackNumber" : 1,
                                        "attributes" : {
                                          "ident" : "",
                                          "gain" : 1.0,
                                          "mixToMono" : false
                                        },
                                          "channelNumber" : "0,1",
                                        "effects" : [

                                        ],
                                        "start" : 781,
                                        "duration" : 48,
                                        "mediaStart" : 2178,
                                        "mediaDuration" : 48,
                                        "scalar" : 1,
                                        "animationTracks" : {

                                        }
                                      }
,
                                  "start" : 781,
                                  "duration" : 48,
                                  "mediaStart" : 0,
                                  "mediaDuration" : 25747,
                                  "scalar" : 1,
                                  "metadata" : {
                                    "AutoAppliedSmartFocus" : "False",
                                    "clipSpeedAttribute" : false
                                  }
                                },
                                {
                                  "id" : 235,
                                  "_type" : "UnifiedMedia",
                                  "video" : 
                                      {
                                        "id" : 236,
                                        "_type" : "ScreenVMFile",
                                        "src" : 1,
                                        "trackNumber" : 0,
                                        "attributes" : {
                                          "ident" : "Rec 01-10-21"
                                        },
                                        "parameters" : {
                                          "cursorScale" : {
                                            "type" : "double",
                                            "defaultValue" : 0.0,
                                            "interp" : "linr"
                                          },
                                          "cursorOpacity" : {
                                            "type" : "double",
                                            "defaultValue" : 0.0,
                                            "interp" : "linr"
                                          }
                                        },
                                        "effects" : [

                                        ],
                                        "start" : 829,
                                        "duration" : 86,
                                        "mediaStart" : 2257,
                                        "mediaDuration" : 86,
                                        "scalar" : 1,
                                        "animationTracks" : {

                                        }
                                      },
                                  "audio" : 
                                      {
                                        "id" : 237,
                                        "_type" : "AMFile",
                                        "src" : 1,
                                        "trackNumber" : 1,
                                        "attributes" : {
                                          "ident" : "",
                                          "gain" : 1.0,
                                          "mixToMono" : false
                                        },
                                          "channelNumber" : "0,1",
                                        "effects" : [

                                        ],
                                        "start" : 829,
                                        "duration" : 86,
                                        "mediaStart" : 2257,
                                        "mediaDuration" : 86,
                                        "scalar" : 1,
                                        "animationTracks" : {

                                        }
                                      }
,
                                  "start" : 829,
                                  "duration" : 86,
                                  "mediaStart" : 0,
                                  "mediaDuration" : 25747,
                                  "scalar" : 1,
                                  "metadata" : {
                                    "AutoAppliedSmartFocus" : "False",
                                    "clipSpeedAttribute" : false
                                  }
                                },
                                {
                                  "id" : 238,
                                  "_type" : "UnifiedMedia",
                                  "video" : 
                                      {
                                        "id" : 239,
                                        "_type" : "ScreenVMFile",
                                        "src" : 1,
                                        "trackNumber" : 0,
                                        "attributes" : {
                                          "ident" : "Rec 01-10-21"
                                        },
                                        "parameters" : {
                                          "cursorScale" : {
                                            "type" : "double",
                                            "defaultValue" : 0.0,
                                            "interp" : "linr"
                                          },
                                          "cursorOpacity" : {
                                            "type" : "double",
                                            "defaultValue" : 0.0,
                                            "interp" : "linr"
                                          }
                                        },
                                        "effects" : [

                                        ],
                                        "start" : 915,
                                        "duration" : 121,
                                        "mediaStart" : 2359,
                                        "mediaDuration" : 121,
                                        "scalar" : 1,
                                        "animationTracks" : {

                                        }
                                      },
                                  "audio" : 
                                      {
                                        "id" : 240,
                                        "_type" : "AMFile",
                                        "src" : 1,
                                        "trackNumber" : 1,
                                        "attributes" : {
                                          "ident" : "",
                                          "gain" : 1.0,
                                          "mixToMono" : false
                                        },
                                          "channelNumber" : "0,1",
                                        "effects" : [

                                        ],
                                        "start" : 915,
                                        "duration" : 121,
                                        "mediaStart" : 2359,
                                        "mediaDuration" : 121,
                                        "scalar" : 1,
                                        "animationTracks" : {

                                        }
                                      }
,
                                  "start" : 915,
                                  "duration" : 121,
                                  "mediaStart" : 0,
                                  "mediaDuration" : 25747,
                                  "scalar" : 1,
                                  "metadata" : {
                                    "AutoAppliedSmartFocus" : "False",
                                    "clipSpeedAttribute" : false
                                  }
                                },
                                {
                                  "id" : 241,
                                  "_type" : "UnifiedMedia",
                                  "video" : 
                                      {
                                        "id" : 242,
                                        "_type" : "ScreenVMFile",
                                        "src" : 1,
                                        "trackNumber" : 0,
                                        "attributes" : {
                                          "ident" : "Rec 01-10-21"
                                        },
                                        "parameters" : {
                                          "cursorScale" : {
                                            "type" : "double",
                                            "defaultValue" : 0.0,
                                            "interp" : "linr"
                                          },
                                          "cursorOpacity" : {
                                            "type" : "double",
                                            "defaultValue" : 0.0,
                                            "interp" : "linr"
                                          }
                                        },
                                        "effects" : [

                                        ],
                                        "start" : 1036,
                                        "duration" : 103,
                                        "mediaStart" : 2511,
                                        "mediaDuration" : 103,
                                        "scalar" : 1,
                                        "animationTracks" : {

                                        }
                                      },
                                  "audio" : 
                                      {
                                        "id" : 243,
                                        "_type" : "AMFile",
                                        "src" : 1,
                                        "trackNumber" : 1,
                                        "attributes" : {
                                          "ident" : "",
                                          "gain" : 1.0,
                                          "mixToMono" : false
                                        },
                                          "channelNumber" : "0,1",
                                        "effects" : [

                                        ],
                                        "start" : 1036,
                                        "duration" : 103,
                                        "mediaStart" : 2511,
                                        "mediaDuration" : 103,
                                        "scalar" : 1,
                                        "animationTracks" : {

                                        }
                                      }
,
                                  "start" : 1036,
                                  "duration" : 103,
                                  "mediaStart" : 0,
                                  "mediaDuration" : 25747,
                                  "scalar" : 1,
                                  "metadata" : {
                                    "AutoAppliedSmartFocus" : "False",
                                    "clipSpeedAttribute" : false
                                  }
                                },
                                {
                                  "id" : 244,
                                  "_type" : "UnifiedMedia",
                                  "video" : 
                                      {
                                        "id" : 245,
                                        "_type" : "ScreenVMFile",
                                        "src" : 1,
                                        "trackNumber" : 0,
                                        "attributes" : {
                                          "ident" : "Rec 01-10-21"
                                        },
                                        "parameters" : {
                                          "cursorScale" : {
                                            "type" : "double",
                                            "defaultValue" : 0.0,
                                            "interp" : "linr"
                                          },
                                          "cursorOpacity" : {
                                            "type" : "double",
                                            "defaultValue" : 0.0,
                                            "interp" : "linr"
                                          }
                                        },
                                        "effects" : [

                                        ],
                                        "start" : 1139,
                                        "duration" : 26,
                                        "mediaStart" : 2629,
                                        "mediaDuration" : 26,
                                        "scalar" : 1,
                                        "animationTracks" : {

                                        }
                                      },
                                  "audio" : 
                                      {
                                        "id" : 246,
                                        "_type" : "AMFile",
                                        "src" : 1,
                                        "trackNumber" : 1,
                                        "attributes" : {
                                          "ident" : "",
                                          "gain" : 1.0,
                                          "mixToMono" : false
                                        },
                                          "channelNumber" : "0,1",
                                        "effects" : [

                                        ],
                                        "start" : 1139,
                                        "duration" : 26,
                                        "mediaStart" : 2629,
                                        "mediaDuration" : 26,
                                        "scalar" : 1,
                                        "animationTracks" : {

                                        }
                                      }
,
                                  "start" : 1139,
                                  "duration" : 26,
                                  "mediaStart" : 0,
                                  "mediaDuration" : 25747,
                                  "scalar" : 1,
                                  "metadata" : {
                                    "AutoAppliedSmartFocus" : "False",
                                    "clipSpeedAttribute" : false
                                  }
                                },
                                {
                                  "id" : 247,
                                  "_type" : "UnifiedMedia",
                                  "video" : 
                                      {
                                        "id" : 248,
                                        "_type" : "ScreenVMFile",
                                        "src" : 1,
                                        "trackNumber" : 0,
                                        "attributes" : {
                                          "ident" : "Rec 01-10-21"
                                        },
                                        "parameters" : {
                                          "cursorScale" : {
                                            "type" : "double",
                                            "defaultValue" : 0.0,
                                            "interp" : "linr"
                                          },
                                          "cursorOpacity" : {
                                            "type" : "double",
                                            "defaultValue" : 0.0,
                                            "interp" : "linr"
                                          }
                                        },
                                        "effects" : [

                                        ],
                                        "start" : 1165,
                                        "duration" : 22,
                                        "mediaStart" : 2688,
                                        "mediaDuration" : 22,
                                        "scalar" : 1,
                                        "animationTracks" : {

                                        }
                                      },
                                  "audio" : 
                                      {
                                        "id" : 249,
                                        "_type" : "AMFile",
                                        "src" : 1,
                                        "trackNumber" : 1,
                                        "attributes" : {
                                          "ident" : "",
                                          "gain" : 1.0,
                                          "mixToMono" : false
                                        },
                                          "channelNumber" : "0,1",
                                        "effects" : [

                                        ],
                                        "start" : 1165,
                                        "duration" : 22,
                                        "mediaStart" : 2688,
                                        "mediaDuration" : 22,
                                        "scalar" : 1,
                                        "animationTracks" : {

                                        }
                                      }
,
                                  "start" : 1165,
                                  "duration" : 22,
                                  "mediaStart" : 0,
                                  "mediaDuration" : 25747,
                                  "scalar" : 1,
                                  "metadata" : {
                                    "AutoAppliedSmartFocus" : "False",
                                    "clipSpeedAttribute" : false
                                  }
                                },
                                {
                                  "id" : 250,
                                  "_type" : "UnifiedMedia",
                                  "video" : 
                                      {
                                        "id" : 251,
                                        "_type" : "ScreenVMFile",
                                        "src" : 1,
                                        "trackNumber" : 0,
                                        "attributes" : {
                                          "ident" : "Rec 01-10-21"
                                        },
                                        "parameters" : {
                                          "cursorScale" : {
                                            "type" : "double",
                                            "defaultValue" : 0.0,
                                            "interp" : "linr"
                                          },
                                          "cursorOpacity" : {
                                            "type" : "double",
                                            "defaultValue" : 0.0,
                                            "interp" : "linr"
                                          }
                                        },
                                        "effects" : [

                                        ],
                                        "start" : 1187,
                                        "duration" : 30,
                                        "mediaStart" : 2740,
                                        "mediaDuration" : 30,
                                        "scalar" : 1,
                                        "animationTracks" : {

                                        }
                                      },
                                  "audio" : 
                                      {
                                        "id" : 252,
                                        "_type" : "AMFile",
                                        "src" : 1,
                                        "trackNumber" : 1,
                                        "attributes" : {
                                          "ident" : "",
                                          "gain" : 1.0,
                                          "mixToMono" : false
                                        },
                                          "channelNumber" : "0,1",
                                        "effects" : [

                                        ],
                                        "start" : 1187,
                                        "duration" : 30,
                                        "mediaStart" : 2740,
                                        "mediaDuration" : 30,
                                        "scalar" : 1,
                                        "animationTracks" : {

                                        }
                                      }
,
                                  "start" : 1187,
                                  "duration" : 30,
                                  "mediaStart" : 0,
                                  "mediaDuration" : 25747,
                                  "scalar" : 1,
                                  "metadata" : {
                                    "AutoAppliedSmartFocus" : "False",
                                    "clipSpeedAttribute" : false
                                  }
                                },
                                {
                                  "id" : 253,
                                  "_type" : "UnifiedMedia",
                                  "video" : 
                                      {
                                        "id" : 254,
                                        "_type" : "ScreenVMFile",
                                        "src" : 1,
                                        "trackNumber" : 0,
                                        "attributes" : {
                                          "ident" : "Rec 01-10-21"
                                        },
                                        "parameters" : {
                                          "cursorScale" : {
                                            "type" : "double",
                                            "defaultValue" : 0.0,
                                            "interp" : "linr"
                                          },
                                          "cursorOpacity" : {
                                            "type" : "double",
                                            "defaultValue" : 0.0,
                                            "interp" : "linr"
                                          }
                                        },
                                        "effects" : [

                                        ],
                                        "start" : 1217,
                                        "duration" : 244,
                                        "mediaStart" : 2861,
                                        "mediaDuration" : 244,
                                        "scalar" : 1,
                                        "animationTracks" : {

                                        }
                                      },
                                  "audio" : 
                                      {
                                        "id" : 255,
                                        "_type" : "AMFile",
                                        "src" : 1,
                                        "trackNumber" : 1,
                                        "attributes" : {
                                          "ident" : "",
                                          "gain" : 1.0,
                                          "mixToMono" : false
                                        },
                                          "channelNumber" : "0,1",
                                        "effects" : [

                                        ],
                                        "start" : 1217,
                                        "duration" : 244,
                                        "mediaStart" : 2861,
                                        "mediaDuration" : 244,
                                        "scalar" : 1,
                                        "animationTracks" : {

                                        }
                                      }
,
                                  "start" : 1217,
                                  "duration" : 244,
                                  "mediaStart" : 0,
                                  "mediaDuration" : 25747,
                                  "scalar" : 1,
                                  "metadata" : {
                                    "AutoAppliedSmartFocus" : "False",
                                    "clipSpeedAttribute" : false
                                  }
                                },
                                {
                                  "id" : 256,
                                  "_type" : "UnifiedMedia",
                                  "video" : 
                                      {
                                        "id" : 257,
                                        "_type" : "ScreenVMFile",
                                        "src" : 1,
                                        "trackNumber" : 0,
                                        "attributes" : {
                                          "ident" : "Rec 01-10-21"
                                        },
                                        "parameters" : {
                                          "cursorScale" : {
                                            "type" : "double",
                                            "defaultValue" : 0.0,
                                            "interp" : "linr"
                                          },
                                          "cursorOpacity" : {
                                            "type" : "double",
                                            "defaultValue" : 0.0,
                                            "interp" : "linr"
                                          }
                                        },
                                        "effects" : [

                                        ],
                                        "start" : 1461,
                                        "duration" : 44,
                                        "mediaStart" : 3140,
                                        "mediaDuration" : 44,
                                        "scalar" : 1,
                                        "animationTracks" : {

                                        }
                                      },
                                  "audio" : 
                                      {
                                        "id" : 258,
                                        "_type" : "AMFile",
                                        "src" : 1,
                                        "trackNumber" : 1,
                                        "attributes" : {
                                          "ident" : "",
                                          "gain" : 1.0,
                                          "mixToMono" : false
                                        },
                                          "channelNumber" : "0,1",
                                        "effects" : [

                                        ],
                                        "start" : 1461,
                                        "duration" : 44,
                                        "mediaStart" : 3140,
                                        "mediaDuration" : 44,
                                        "scalar" : 1,
                                        "animationTracks" : {

                                        }
                                      }
,
                                  "start" : 1461,
                                  "duration" : 44,
                                  "mediaStart" : 0,
                                  "mediaDuration" : 25747,
                                  "scalar" : 1,
                                  "metadata" : {
                                    "AutoAppliedSmartFocus" : "False",
                                    "clipSpeedAttribute" : false
                                  }
                                },
                                {
                                  "id" : 259,
                                  "_type" : "UnifiedMedia",
                                  "video" : 
                                      {
                                        "id" : 260,
                                        "_type" : "ScreenVMFile",
                                        "src" : 1,
                                        "trackNumber" : 0,
                                        "attributes" : {
                                          "ident" : "Rec 01-10-21"
                                        },
                                        "parameters" : {
                                          "cursorScale" : {
                                            "type" : "double",
                                            "defaultValue" : 0.0,
                                            "interp" : "linr"
                                          },
                                          "cursorOpacity" : {
                                            "type" : "double",
                                            "defaultValue" : 0.0,
                                            "interp" : "linr"
                                          }
                                        },
                                        "effects" : [

                                        ],
                                        "start" : 1505,
                                        "duration" : 112,
                                        "mediaStart" : 3212,
                                        "mediaDuration" : 112,
                                        "scalar" : 1,
                                        "animationTracks" : {

                                        }
                                      },
                                  "audio" : 
                                      {
                                        "id" : 261,
                                        "_type" : "AMFile",
                                        "src" : 1,
                                        "trackNumber" : 1,
                                        "attributes" : {
                                          "ident" : "",
                                          "gain" : 1.0,
                                          "mixToMono" : false
                                        },
                                          "channelNumber" : "0,1",
                                        "effects" : [

                                        ],
                                        "start" : 1505,
                                        "duration" : 112,
                                        "mediaStart" : 3212,
                                        "mediaDuration" : 112,
                                        "scalar" : 1,
                                        "animationTracks" : {

                                        }
                                      }
,
                                  "start" : 1505,
                                  "duration" : 112,
                                  "mediaStart" : 0,
                                  "mediaDuration" : 25747,
                                  "scalar" : 1,
                                  "metadata" : {
                                    "AutoAppliedSmartFocus" : "False",
                                    "clipSpeedAttribute" : false
                                  }
                                },
                                {
                                  "id" : 262,
                                  "_type" : "UnifiedMedia",
                                  "video" : 
                                      {
                                        "id" : 263,
                                        "_type" : "ScreenVMFile",
                                        "src" : 1,
                                        "trackNumber" : 0,
                                        "attributes" : {
                                          "ident" : "Rec 01-10-21"
                                        },
                                        "parameters" : {
                                          "cursorScale" : {
                                            "type" : "double",
                                            "defaultValue" : 0.0,
                                            "interp" : "linr"
                                          },
                                          "cursorOpacity" : {
                                            "type" : "double",
                                            "defaultValue" : 0.0,
                                            "interp" : "linr"
                                          }
                                        },
                                        "effects" : [

                                        ],
                                        "start" : 1617,
                                        "duration" : 54,
                                        "mediaStart" : 3344,
                                        "mediaDuration" : 54,
                                        "scalar" : 1,
                                        "animationTracks" : {

                                        }
                                      },
                                  "audio" : 
                                      {
                                        "id" : 264,
                                        "_type" : "AMFile",
                                        "src" : 1,
                                        "trackNumber" : 1,
                                        "attributes" : {
                                          "ident" : "",
                                          "gain" : 1.0,
                                          "mixToMono" : false
                                        },
                                          "channelNumber" : "0,1",
                                        "effects" : [

                                        ],
                                        "start" : 1617,
                                        "duration" : 54,
                                        "mediaStart" : 3344,
                                        "mediaDuration" : 54,
                                        "scalar" : 1,
                                        "animationTracks" : {

                                        }
                                      }
,
                                  "start" : 1617,
                                  "duration" : 54,
                                  "mediaStart" : 0,
                                  "mediaDuration" : 25747,
                                  "scalar" : 1,
                                  "metadata" : {
                                    "AutoAppliedSmartFocus" : "False",
                                    "clipSpeedAttribute" : false
                                  }
                                },
                                {
                                  "id" : 265,
                                  "_type" : "UnifiedMedia",
                                  "video" : 
                                      {
                                        "id" : 266,
                                        "_type" : "ScreenVMFile",
                                        "src" : 1,
                                        "trackNumber" : 0,
                                        "attributes" : {
                                          "ident" : "Rec 01-10-21"
                                        },
                                        "parameters" : {
                                          "cursorScale" : {
                                            "type" : "double",
                                            "defaultValue" : 0.0,
                                            "interp" : "linr"
                                          },
                                          "cursorOpacity" : {
                                            "type" : "double",
                                            "defaultValue" : 0.0,
                                            "interp" : "linr"
                                          }
                                        },
                                        "effects" : [

                                        ],
                                        "start" : 1671,
                                        "duration" : 39,
                                        "mediaStart" : 3481,
                                        "mediaDuration" : 39,
                                        "scalar" : 1,
                                        "animationTracks" : {

                                        }
                                      },
                                  "audio" : 
                                      {
                                        "id" : 267,
                                        "_type" : "AMFile",
                                        "src" : 1,
                                        "trackNumber" : 1,
                                        "attributes" : {
                                          "ident" : "",
                                          "gain" : 1.0,
                                          "mixToMono" : false
                                        },
                                          "channelNumber" : "0,1",
                                        "effects" : [

                                        ],
                                        "start" : 1671,
                                        "duration" : 39,
                                        "mediaStart" : 3481,
                                        "mediaDuration" : 39,
                                        "scalar" : 1,
                                        "animationTracks" : {

                                        }
                                      }
,
                                  "start" : 1671,
                                  "duration" : 39,
                                  "mediaStart" : 0,
                                  "mediaDuration" : 25747,
                                  "scalar" : 1,
                                  "metadata" : {
                                    "AutoAppliedSmartFocus" : "False",
                                    "clipSpeedAttribute" : false
                                  }
                                },
                                {
                                  "id" : 268,
                                  "_type" : "UnifiedMedia",
                                  "video" : 
                                      {
                                        "id" : 269,
                                        "_type" : "ScreenVMFile",
                                        "src" : 1,
                                        "trackNumber" : 0,
                                        "attributes" : {
                                          "ident" : "Rec 01-10-21"
                                        },
                                        "parameters" : {
                                          "cursorScale" : {
                                            "type" : "double",
                                            "defaultValue" : 0.0,
                                            "interp" : "linr"
                                          },
                                          "cursorOpacity" : {
                                            "type" : "double",
                                            "defaultValue" : 0.0,
                                            "interp" : "linr"
                                          }
                                        },
                                        "effects" : [

                                        ],
                                        "start" : 1710,
                                        "duration" : 22206,
                                        "mediaStart" : 3541,
                                        "mediaDuration" : 22206,
                                        "scalar" : 1,
                                        "animationTracks" : {

                                        }
                                      },
                                  "audio" : 
                                      {
                                        "id" : 270,
                                        "_type" : "AMFile",
                                        "src" : 1,
                                        "trackNumber" : 1,
                                        "attributes" : {
                                          "ident" : "",
                                          "gain" : 1.0,
                                          "mixToMono" : false
                                        },
                                          "channelNumber" : "0,1",
                                        "effects" : [

                                        ],
                                        "start" : 1710,
                                        "duration" : 22206,
                                        "mediaStart" : 3541,
                                        "mediaDuration" : 22206,
                                        "scalar" : 1,
                                        "animationTracks" : {

                                        }
                                      }
,
                                  "start" : 1710,
                                  "duration" : 22206,
                                  "mediaStart" : 0,
                                  "mediaDuration" : 25747,
                                  "scalar" : 1,
                                  "metadata" : {
                                    "AutoAppliedSmartFocus" : "False",
                                    "clipSpeedAttribute" : false
                                  }
                                }
                            ],
                            "effects" : [

                            ],
                            "start" : 62,
                            "duration" : 77,
                            "mediaStart" : 1834,
                            "mediaDuration" : 77,
                            "scalar" : 1,
                            "metadata" : {
                              "AutoAppliedSmartFocus" : "False",
                              "clipSpeedAttribute" : false
                            },
                            "animationTracks" : {

                            }
                          }
                        ],
                          "ident" : "",
                          "audioMuted" : false,
                          "videoHidden" : false,
                          "magnetic" : false,
                          "matte" : 0,
                          "metadata" : {
                            "IsLocked" : "False",
                            "WinTrackHeight" : "0"
                          }
                      },
                      {
                        "trackIndex" : 1,
                        "medias" : [
                          {
                            "id" : 271,
                            "_type" : "StitchedMedia",
                            "minMediaStart" : 0,
                            "attributes" : {
                              "ident" : "Narration_3-1 Pod 1",
                              "gain" : 1.0,
                              "mixToMono" : false
                            },
                            "parameters" : {
                              "volume" : 1.0,
                              "cursorOpacity" : 1.0,
                              "cursorScale" : 1.0
                            },
                            "medias" : [
                                {
                                  "id" : 272,
                                  "_type" : "AMFile",
                                  "src" : 2,
                                  "trackNumber" : 0,
                                  "attributes" : {
                                    "ident" : "Narration_3-1 Pod 1",
                                    "gain" : 1.0,
                                    "mixToMono" : false
                                  },
                                    "channelNumber" : "0,1",
                                  "effects" : [

                                  ],
                                  "start" : 0,
                                  "duration" : 122,
                                  "mediaStart" : 0,
                                  "mediaDuration" : 122,
                                  "scalar" : 1,
                                  "metadata" : {
                                    "clipSpeedAttribute" : false
                                  },
                                  "animationTracks" : {

                                  }
                                },
                                {
                                  "id" : 273,
                                  "_type" : "AMFile",
                                  "src" : 2,
                                  "trackNumber" : 0,
                                  "attributes" : {
                                    "ident" : "Narration_3-1 Pod 1",
                                    "gain" : 1.0,
                                    "mixToMono" : false
                                  },
                                    "channelNumber" : "0,1",
                                  "effects" : [

                                  ],
                                  "start" : 122,
                                  "duration" : 28,
                                  "mediaStart" : 130,
                                  "mediaDuration" : 28,
                                  "scalar" : 1,
                                  "metadata" : {
                                    "clipSpeedAttribute" : false
                                  },
                                  "animationTracks" : {

                                  }
                                },
                                {
                                  "id" : 274,
                                  "_type" : "AMFile",
                                  "src" : 2,
                                  "trackNumber" : 0,
                                  "attributes" : {
                                    "ident" : "Narration_3-1 Pod 1",
                                    "gain" : 1.0,
                                    "mixToMono" : false
                                  },
                                    "channelNumber" : "0,1",
                                  "effects" : [

                                  ],
                                  "start" : 150,
                                  "duration" : 28,
                                  "mediaStart" : 166,
                                  "mediaDuration" : 28,
                                  "scalar" : 1,
                                  "metadata" : {
                                    "clipSpeedAttribute" : false
                                  },
                                  "animationTracks" : {

                                  }
                                }
                            ],
                            "effects" : [

                            ],
                            "start" : 0,
                            "duration" : 139,
                            "mediaStart" : 23,
                            "mediaDuration" : 139,
                            "scalar" : 1,
                            "metadata" : {
                              "clipSpeedAttribute" : false
                            },
                            "animationTracks" : {

                            }
                          }
                        ],
                          "ident" : "",
                          "audioMuted" : false,
                          "videoHidden" : false,
                          "magnetic" : false,
                          "matte" : 0,
                          "metadata" : {
                            "IsLocked" : "False",
                            "WinTrackHeight" : "4.48834221866436e-312"
                          }
                      }
                    ],
                    "attributes" : {
                      "ident" : "Group 1",
                      "gain" : 1.0,
                      "mixToMono" : false
                    },
                    "effects" : [

                    ],
                    "start" : 1909,
                    "duration" : 139,
                    "mediaStart" : 0.0,
                    "mediaDuration" : 139.0,
                    "scalar" : 1,
                    "metadata" : {
                      "IsGroupExpanded" : "False"
                    },
                    "animationTracks" : {

                    }
                  },
                  {
                    "id" : 275,
                    "_type" : "StitchedMedia",
                    "minMediaStart" : 0,
                    "attributes" : {
                      "ident" : "Rec 01-10-21",
                      "gain" : 1.0,
                      "mixToMono" : false
                    },
                    "parameters" : {
                      "volume" : 1.0,
                      "cursorOpacity" : 1.0,
                      "cursorScale" : 1.0
                    },
                    "medias" : [
                        {
                          "id" : 276,
                          "_type" : "UnifiedMedia",
                          "video" : 
                              {
                                "id" : 277,
                                "_type" : "ScreenVMFile",
                                "src" : 1,
                                "trackNumber" : 0,
                                "attributes" : {
                                  "ident" : "Rec 01-10-21"
                                },
                                "parameters" : {
                                  "cursorScale" : {
                                    "type" : "double",
                                    "defaultValue" : 0.0,
                                    "interp" : "linr"
                                  },
                                  "cursorOpacity" : {
                                    "type" : "double",
                                    "defaultValue" : 0.0,
                                    "interp" : "linr"
                                  }
                                },
                                "effects" : [

                                ],
                                "start" : 0,
                                "duration" : 14,
                                "mediaStart" : 0,
                                "mediaDuration" : 14,
                                "scalar" : 1,
                                "animationTracks" : {

                                }
                              },
                          "audio" : 
                              {
                                "id" : 278,
                                "_type" : "AMFile",
                                "src" : 1,
                                "trackNumber" : 1,
                                "attributes" : {
                                  "ident" : "",
                                  "gain" : 1.0,
                                  "mixToMono" : false
                                },
                                  "channelNumber" : "0,1",
                                "effects" : [

                                ],
                                "start" : 0,
                                "duration" : 14,
                                "mediaStart" : 0,
                                "mediaDuration" : 14,
                                "scalar" : 1,
                                "animationTracks" : {

                                }
                              }
,
                          "start" : 0,
                          "duration" : 14,
                          "mediaStart" : 0,
                          "mediaDuration" : 25747,
                          "scalar" : 1,
                          "metadata" : {
                            "AutoAppliedSmartFocus" : "False",
                            "clipSpeedAttribute" : false
                          }
                        },
                        {
                          "id" : 279,
                          "_type" : "UnifiedMedia",
                          "video" : 
                              {
                                "id" : 280,
                                "_type" : "ScreenVMFile",
                                "src" : 1,
                                "trackNumber" : 0,
                                "attributes" : {
                                  "ident" : "Rec 01-10-21"
                                },
                                "parameters" : {
                                  "cursorScale" : {
                                    "type" : "double",
                                    "defaultValue" : 0.0,
                                    "interp" : "linr"
                                  },
                                  "cursorOpacity" : {
                                    "type" : "double",
                                    "defaultValue" : 0.0,
                                    "interp" : "linr"
                                  }
                                },
                                "effects" : [

                                ],
                                "start" : 14,
                                "duration" : 18,
                                "mediaStart" : 114,
                                "mediaDuration" : 18,
                                "scalar" : 1,
                                "animationTracks" : {

                                }
                              },
                          "audio" : 
                              {
                                "id" : 281,
                                "_type" : "AMFile",
                                "src" : 1,
                                "trackNumber" : 1,
                                "attributes" : {
                                  "ident" : "",
                                  "gain" : 1.0,
                                  "mixToMono" : false
                                },
                                  "channelNumber" : "0,1",
                                "effects" : [

                                ],
                                "start" : 14,
                                "duration" : 18,
                                "mediaStart" : 114,
                                "mediaDuration" : 18,
                                "scalar" : 1,
                                "animationTracks" : {

                                }
                              }
,
                          "start" : 14,
                          "duration" : 18,
                          "mediaStart" : 0,
                          "mediaDuration" : 25747,
                          "scalar" : 1,
                          "metadata" : {
                            "AutoAppliedSmartFocus" : "False",
                            "clipSpeedAttribute" : false
                          }
                        },
                        {
                          "id" : 282,
                          "_type" : "UnifiedMedia",
                          "video" : 
                              {
                                "id" : 283,
                                "_type" : "ScreenVMFile",
                                "src" : 1,
                                "trackNumber" : 0,
                                "attributes" : {
                                  "ident" : "Rec 01-10-21"
                                },
                                "parameters" : {
                                  "cursorScale" : {
                                    "type" : "double",
                                    "defaultValue" : 0.0,
                                    "interp" : "linr"
                                  },
                                  "cursorOpacity" : {
                                    "type" : "double",
                                    "defaultValue" : 0.0,
                                    "interp" : "linr"
                                  }
                                },
                                "effects" : [

                                ],
                                "start" : 32,
                                "duration" : 258,
                                "mediaStart" : 139,
                                "mediaDuration" : 258,
                                "scalar" : 1,
                                "animationTracks" : {

                                }
                              },
                          "audio" : 
                              {
                                "id" : 284,
                                "_type" : "AMFile",
                                "src" : 1,
                                "trackNumber" : 1,
                                "attributes" : {
                                  "ident" : "",
                                  "gain" : 1.0,
                                  "mixToMono" : false
                                },
                                  "channelNumber" : "0,1",
                                "effects" : [

                                ],
                                "start" : 32,
                                "duration" : 258,
                                "mediaStart" : 139,
                                "mediaDuration" : 258,
                                "scalar" : 1,
                                "animationTracks" : {

                                }
                              }
,
                          "start" : 32,
                          "duration" : 258,
                          "mediaStart" : 0,
                          "mediaDuration" : 25747,
                          "scalar" : 1,
                          "metadata" : {
                            "AutoAppliedSmartFocus" : "False",
                            "clipSpeedAttribute" : false
                          }
                        },
                        {
                          "id" : 285,
                          "_type" : "UnifiedMedia",
                          "video" : 
                              {
                                "id" : 286,
                                "_type" : "ScreenVMFile",
                                "src" : 1,
                                "trackNumber" : 0,
                                "attributes" : {
                                  "ident" : "Rec 01-10-21"
                                },
                                "parameters" : {
                                  "cursorScale" : {
                                    "type" : "double",
                                    "defaultValue" : 0.0,
                                    "interp" : "linr"
                                  },
                                  "cursorOpacity" : {
                                    "type" : "double",
                                    "defaultValue" : 0.0,
                                    "interp" : "linr"
                                  }
                                },
                                "effects" : [

                                ],
                                "start" : 290,
                                "duration" : 38,
                                "mediaStart" : 449,
                                "mediaDuration" : 38,
                                "scalar" : 1,
                                "animationTracks" : {

                                }
                              },
                          "audio" : 
                              {
                                "id" : 287,
                                "_type" : "AMFile",
                                "src" : 1,
                                "trackNumber" : 1,
                                "attributes" : {
                                  "ident" : "",
                                  "gain" : 1.0,
                                  "mixToMono" : false
                                },
                                  "channelNumber" : "0,1",
                                "effects" : [

                                ],
                                "start" : 290,
                                "duration" : 38,
                                "mediaStart" : 449,
                                "mediaDuration" : 38,
                                "scalar" : 1,
                                "animationTracks" : {

                                }
                              }
,
                          "start" : 290,
                          "duration" : 38,
                          "mediaStart" : 0,
                          "mediaDuration" : 25747,
                          "scalar" : 1,
                          "metadata" : {
                            "AutoAppliedSmartFocus" : "False",
                            "clipSpeedAttribute" : false
                          }
                        },
                        {
                          "id" : 288,
                          "_type" : "UnifiedMedia",
                          "video" : 
                              {
                                "id" : 289,
                                "_type" : "ScreenVMFile",
                                "src" : 1,
                                "trackNumber" : 0,
                                "attributes" : {
                                  "ident" : "Rec 01-10-21"
                                },
                                "parameters" : {
                                  "cursorScale" : {
                                    "type" : "double",
                                    "defaultValue" : 0.0,
                                    "interp" : "linr"
                                  },
                                  "cursorOpacity" : {
                                    "type" : "double",
                                    "defaultValue" : 0.0,
                                    "interp" : "linr"
                                  }
                                },
                                "effects" : [

                                ],
                                "start" : 328,
                                "duration" : 180,
                                "mediaStart" : 577,
                                "mediaDuration" : 180,
                                "scalar" : 1,
                                "animationTracks" : {

                                }
                              },
                          "audio" : 
                              {
                                "id" : 290,
                                "_type" : "AMFile",
                                "src" : 1,
                                "trackNumber" : 1,
                                "attributes" : {
                                  "ident" : "",
                                  "gain" : 1.0,
                                  "mixToMono" : false
                                },
                                  "channelNumber" : "0,1",
                                "effects" : [

                                ],
                                "start" : 328,
                                "duration" : 180,
                                "mediaStart" : 577,
                                "mediaDuration" : 180,
                                "scalar" : 1,
                                "animationTracks" : {

                                }
                              }
,
                          "start" : 328,
                          "duration" : 180,
                          "mediaStart" : 0,
                          "mediaDuration" : 25747,
                          "scalar" : 1,
                          "metadata" : {
                            "AutoAppliedSmartFocus" : "False",
                            "clipSpeedAttribute" : false
                          }
                        },
                        {
                          "id" : 291,
                          "_type" : "UnifiedMedia",
                          "video" : 
                              {
                                "id" : 292,
                                "_type" : "ScreenVMFile",
                                "src" : 1,
                                "trackNumber" : 0,
                                "attributes" : {
                                  "ident" : "Rec 01-10-21"
                                },
                                "parameters" : {
                                  "cursorScale" : {
                                    "type" : "double",
                                    "defaultValue" : 0.0,
                                    "interp" : "linr"
                                  },
                                  "cursorOpacity" : {
                                    "type" : "double",
                                    "defaultValue" : 0.0,
                                    "interp" : "linr"
                                  }
                                },
                                "effects" : [

                                ],
                                "start" : 508,
                                "duration" : 144,
                                "mediaStart" : 812,
                                "mediaDuration" : 144,
                                "scalar" : 1,
                                "animationTracks" : {

                                }
                              },
                          "audio" : 
                              {
                                "id" : 293,
                                "_type" : "AMFile",
                                "src" : 1,
                                "trackNumber" : 1,
                                "attributes" : {
                                  "ident" : "",
                                  "gain" : 1.0,
                                  "mixToMono" : false
                                },
                                  "channelNumber" : "0,1",
                                "effects" : [

                                ],
                                "start" : 508,
                                "duration" : 144,
                                "mediaStart" : 812,
                                "mediaDuration" : 144,
                                "scalar" : 1,
                                "animationTracks" : {

                                }
                              }
,
                          "start" : 508,
                          "duration" : 144,
                          "mediaStart" : 0,
                          "mediaDuration" : 25747,
                          "scalar" : 1,
                          "metadata" : {
                            "AutoAppliedSmartFocus" : "False",
                            "clipSpeedAttribute" : false
                          }
                        },
                        {
                          "id" : 294,
                          "_type" : "UnifiedMedia",
                          "video" : 
                              {
                                "id" : 295,
                                "_type" : "ScreenVMFile",
                                "src" : 1,
                                "trackNumber" : 0,
                                "attributes" : {
                                  "ident" : "Rec 01-10-21"
                                },
                                "parameters" : {
                                  "cursorScale" : {
                                    "type" : "double",
                                    "defaultValue" : 0.0,
                                    "interp" : "linr"
                                  },
                                  "cursorOpacity" : {
                                    "type" : "double",
                                    "defaultValue" : 0.0,
                                    "interp" : "linr"
                                  }
                                },
                                "effects" : [

                                ],
                                "start" : 652,
                                "duration" : 129,
                                "mediaStart" : 1874,
                                "mediaDuration" : 129,
                                "scalar" : 1,
                                "animationTracks" : {

                                }
                              },
                          "audio" : 
                              {
                                "id" : 296,
                                "_type" : "AMFile",
                                "src" : 1,
                                "trackNumber" : 1,
                                "attributes" : {
                                  "ident" : "",
                                  "gain" : 1.0,
                                  "mixToMono" : false
                                },
                                  "channelNumber" : "0,1",
                                "effects" : [

                                ],
                                "start" : 652,
                                "duration" : 129,
                                "mediaStart" : 1874,
                                "mediaDuration" : 129,
                                "scalar" : 1,
                                "animationTracks" : {

                                }
                              }
,
                          "start" : 652,
                          "duration" : 129,
                          "mediaStart" : 0,
                          "mediaDuration" : 25747,
                          "scalar" : 1,
                          "metadata" : {
                            "AutoAppliedSmartFocus" : "False",
                            "clipSpeedAttribute" : false
                          }
                        },
                        {
                          "id" : 297,
                          "_type" : "UnifiedMedia",
                          "video" : 
                              {
                                "id" : 298,
                                "_type" : "ScreenVMFile",
                                "src" : 1,
                                "trackNumber" : 0,
                                "attributes" : {
                                  "ident" : "Rec 01-10-21"
                                },
                                "parameters" : {
                                  "cursorScale" : {
                                    "type" : "double",
                                    "defaultValue" : 0.0,
                                    "interp" : "linr"
                                  },
                                  "cursorOpacity" : {
                                    "type" : "double",
                                    "defaultValue" : 0.0,
                                    "interp" : "linr"
                                  }
                                },
                                "effects" : [

                                ],
                                "start" : 781,
                                "duration" : 48,
                                "mediaStart" : 2178,
                                "mediaDuration" : 48,
                                "scalar" : 1,
                                "animationTracks" : {

                                }
                              },
                          "audio" : 
                              {
                                "id" : 299,
                                "_type" : "AMFile",
                                "src" : 1,
                                "trackNumber" : 1,
                                "attributes" : {
                                  "ident" : "",
                                  "gain" : 1.0,
                                  "mixToMono" : false
                                },
                                  "channelNumber" : "0,1",
                                "effects" : [

                                ],
                                "start" : 781,
                                "duration" : 48,
                                "mediaStart" : 2178,
                                "mediaDuration" : 48,
                                "scalar" : 1,
                                "animationTracks" : {

                                }
                              }
,
                          "start" : 781,
                          "duration" : 48,
                          "mediaStart" : 0,
                          "mediaDuration" : 25747,
                          "scalar" : 1,
                          "metadata" : {
                            "AutoAppliedSmartFocus" : "False",
                            "clipSpeedAttribute" : false
                          }
                        },
                        {
                          "id" : 300,
                          "_type" : "UnifiedMedia",
                          "video" : 
                              {
                                "id" : 301,
                                "_type" : "ScreenVMFile",
                                "src" : 1,
                                "trackNumber" : 0,
                                "attributes" : {
                                  "ident" : "Rec 01-10-21"
                                },
                                "parameters" : {
                                  "cursorScale" : {
                                    "type" : "double",
                                    "defaultValue" : 0.0,
                                    "interp" : "linr"
                                  },
                                  "cursorOpacity" : {
                                    "type" : "double",
                                    "defaultValue" : 0.0,
                                    "interp" : "linr"
                                  }
                                },
                                "effects" : [

                                ],
                                "start" : 829,
                                "duration" : 86,
                                "mediaStart" : 2257,
                                "mediaDuration" : 86,
                                "scalar" : 1,
                                "animationTracks" : {

                                }
                              },
                          "audio" : 
                              {
                                "id" : 302,
                                "_type" : "AMFile",
                                "src" : 1,
                                "trackNumber" : 1,
                                "attributes" : {
                                  "ident" : "",
                                  "gain" : 1.0,
                                  "mixToMono" : false
                                },
                                  "channelNumber" : "0,1",
                                "effects" : [

                                ],
                                "start" : 829,
                                "duration" : 86,
                                "mediaStart" : 2257,
                                "mediaDuration" : 86,
                                "scalar" : 1,
                                "animationTracks" : {

                                }
                              }
,
                          "start" : 829,
                          "duration" : 86,
                          "mediaStart" : 0,
                          "mediaDuration" : 25747,
                          "scalar" : 1,
                          "metadata" : {
                            "AutoAppliedSmartFocus" : "False",
                            "clipSpeedAttribute" : false
                          }
                        },
                        {
                          "id" : 303,
                          "_type" : "UnifiedMedia",
                          "video" : 
                              {
                                "id" : 304,
                                "_type" : "ScreenVMFile",
                                "src" : 1,
                                "trackNumber" : 0,
                                "attributes" : {
                                  "ident" : "Rec 01-10-21"
                                },
                                "parameters" : {
                                  "cursorScale" : {
                                    "type" : "double",
                                    "defaultValue" : 0.0,
                                    "interp" : "linr"
                                  },
                                  "cursorOpacity" : {
                                    "type" : "double",
                                    "defaultValue" : 0.0,
                                    "interp" : "linr"
                                  }
                                },
                                "effects" : [

                                ],
                                "start" : 915,
                                "duration" : 121,
                                "mediaStart" : 2359,
                                "mediaDuration" : 121,
                                "scalar" : 1,
                                "animationTracks" : {

                                }
                              },
                          "audio" : 
                              {
                                "id" : 305,
                                "_type" : "AMFile",
                                "src" : 1,
                                "trackNumber" : 1,
                                "attributes" : {
                                  "ident" : "",
                                  "gain" : 1.0,
                                  "mixToMono" : false
                                },
                                  "channelNumber" : "0,1",
                                "effects" : [

                                ],
                                "start" : 915,
                                "duration" : 121,
                                "mediaStart" : 2359,
                                "mediaDuration" : 121,
                                "scalar" : 1,
                                "animationTracks" : {

                                }
                              }
,
                          "start" : 915,
                          "duration" : 121,
                          "mediaStart" : 0,
                          "mediaDuration" : 25747,
                          "scalar" : 1,
                          "metadata" : {
                            "AutoAppliedSmartFocus" : "False",
                            "clipSpeedAttribute" : false
                          }
                        },
                        {
                          "id" : 306,
                          "_type" : "UnifiedMedia",
                          "video" : 
                              {
                                "id" : 307,
                                "_type" : "ScreenVMFile",
                                "src" : 1,
                                "trackNumber" : 0,
                                "attributes" : {
                                  "ident" : "Rec 01-10-21"
                                },
                                "parameters" : {
                                  "cursorScale" : {
                                    "type" : "double",
                                    "defaultValue" : 0.0,
                                    "interp" : "linr"
                                  },
                                  "cursorOpacity" : {
                                    "type" : "double",
                                    "defaultValue" : 0.0,
                                    "interp" : "linr"
                                  }
                                },
                                "effects" : [

                                ],
                                "start" : 1036,
                                "duration" : 103,
                                "mediaStart" : 2511,
                                "mediaDuration" : 103,
                                "scalar" : 1,
                                "animationTracks" : {

                                }
                              },
                          "audio" : 
                              {
                                "id" : 308,
                                "_type" : "AMFile",
                                "src" : 1,
                                "trackNumber" : 1,
                                "attributes" : {
                                  "ident" : "",
                                  "gain" : 1.0,
                                  "mixToMono" : false
                                },
                                  "channelNumber" : "0,1",
                                "effects" : [

                                ],
                                "start" : 1036,
                                "duration" : 103,
                                "mediaStart" : 2511,
                                "mediaDuration" : 103,
                                "scalar" : 1,
                                "animationTracks" : {

                                }
                              }
,
                          "start" : 1036,
                          "duration" : 103,
                          "mediaStart" : 0,
                          "mediaDuration" : 25747,
                          "scalar" : 1,
                          "metadata" : {
                            "AutoAppliedSmartFocus" : "False",
                            "clipSpeedAttribute" : false
                          }
                        },
                        {
                          "id" : 309,
                          "_type" : "UnifiedMedia",
                          "video" : 
                              {
                                "id" : 310,
                                "_type" : "ScreenVMFile",
                                "src" : 1,
                                "trackNumber" : 0,
                                "attributes" : {
                                  "ident" : "Rec 01-10-21"
                                },
                                "parameters" : {
                                  "cursorScale" : {
                                    "type" : "double",
                                    "defaultValue" : 0.0,
                                    "interp" : "linr"
                                  },
                                  "cursorOpacity" : {
                                    "type" : "double",
                                    "defaultValue" : 0.0,
                                    "interp" : "linr"
                                  }
                                },
                                "effects" : [

                                ],
                                "start" : 1139,
                                "duration" : 26,
                                "mediaStart" : 2629,
                                "mediaDuration" : 26,
                                "scalar" : 1,
                                "animationTracks" : {

                                }
                              },
                          "audio" : 
                              {
                                "id" : 311,
                                "_type" : "AMFile",
                                "src" : 1,
                                "trackNumber" : 1,
                                "attributes" : {
                                  "ident" : "",
                                  "gain" : 1.0,
                                  "mixToMono" : false
                                },
                                  "channelNumber" : "0,1",
                                "effects" : [

                                ],
                                "start" : 1139,
                                "duration" : 26,
                                "mediaStart" : 2629,
                                "mediaDuration" : 26,
                                "scalar" : 1,
                                "animationTracks" : {

                                }
                              }
,
                          "start" : 1139,
                          "duration" : 26,
                          "mediaStart" : 0,
                          "mediaDuration" : 25747,
                          "scalar" : 1,
                          "metadata" : {
                            "AutoAppliedSmartFocus" : "False",
                            "clipSpeedAttribute" : false
                          }
                        },
                        {
                          "id" : 312,
                          "_type" : "UnifiedMedia",
                          "video" : 
                              {
                                "id" : 313,
                                "_type" : "ScreenVMFile",
                                "src" : 1,
                                "trackNumber" : 0,
                                "attributes" : {
                                  "ident" : "Rec 01-10-21"
                                },
                                "parameters" : {
                                  "cursorScale" : {
                                    "type" : "double",
                                    "defaultValue" : 0.0,
                                    "interp" : "linr"
                                  },
                                  "cursorOpacity" : {
                                    "type" : "double",
                                    "defaultValue" : 0.0,
                                    "interp" : "linr"
                                  }
                                },
                                "effects" : [

                                ],
                                "start" : 1165,
                                "duration" : 22,
                                "mediaStart" : 2688,
                                "mediaDuration" : 22,
                                "scalar" : 1,
                                "animationTracks" : {

                                }
                              },
                          "audio" : 
                              {
                                "id" : 314,
                                "_type" : "AMFile",
                                "src" : 1,
                                "trackNumber" : 1,
                                "attributes" : {
                                  "ident" : "",
                                  "gain" : 1.0,
                                  "mixToMono" : false
                                },
                                  "channelNumber" : "0,1",
                                "effects" : [

                                ],
                                "start" : 1165,
                                "duration" : 22,
                                "mediaStart" : 2688,
                                "mediaDuration" : 22,
                                "scalar" : 1,
                                "animationTracks" : {

                                }
                              }
,
                          "start" : 1165,
                          "duration" : 22,
                          "mediaStart" : 0,
                          "mediaDuration" : 25747,
                          "scalar" : 1,
                          "metadata" : {
                            "AutoAppliedSmartFocus" : "False",
                            "clipSpeedAttribute" : false
                          }
                        },
                        {
                          "id" : 315,
                          "_type" : "UnifiedMedia",
                          "video" : 
                              {
                                "id" : 316,
                                "_type" : "ScreenVMFile",
                                "src" : 1,
                                "trackNumber" : 0,
                                "attributes" : {
                                  "ident" : "Rec 01-10-21"
                                },
                                "parameters" : {
                                  "cursorScale" : {
                                    "type" : "double",
                                    "defaultValue" : 0.0,
                                    "interp" : "linr"
                                  },
                                  "cursorOpacity" : {
                                    "type" : "double",
                                    "defaultValue" : 0.0,
                                    "interp" : "linr"
                                  }
                                },
                                "effects" : [

                                ],
                                "start" : 1187,
                                "duration" : 30,
                                "mediaStart" : 2740,
                                "mediaDuration" : 30,
                                "scalar" : 1,
                                "animationTracks" : {

                                }
                              },
                          "audio" : 
                              {
                                "id" : 317,
                                "_type" : "AMFile",
                                "src" : 1,
                                "trackNumber" : 1,
                                "attributes" : {
                                  "ident" : "",
                                  "gain" : 1.0,
                                  "mixToMono" : false
                                },
                                  "channelNumber" : "0,1",
                                "effects" : [

                                ],
                                "start" : 1187,
                                "duration" : 30,
                                "mediaStart" : 2740,
                                "mediaDuration" : 30,
                                "scalar" : 1,
                                "animationTracks" : {

                                }
                              }
,
                          "start" : 1187,
                          "duration" : 30,
                          "mediaStart" : 0,
                          "mediaDuration" : 25747,
                          "scalar" : 1,
                          "metadata" : {
                            "AutoAppliedSmartFocus" : "False",
                            "clipSpeedAttribute" : false
                          }
                        },
                        {
                          "id" : 318,
                          "_type" : "UnifiedMedia",
                          "video" : 
                              {
                                "id" : 319,
                                "_type" : "ScreenVMFile",
                                "src" : 1,
                                "trackNumber" : 0,
                                "attributes" : {
                                  "ident" : "Rec 01-10-21"
                                },
                                "parameters" : {
                                  "cursorScale" : {
                                    "type" : "double",
                                    "defaultValue" : 0.0,
                                    "interp" : "linr"
                                  },
                                  "cursorOpacity" : {
                                    "type" : "double",
                                    "defaultValue" : 0.0,
                                    "interp" : "linr"
                                  }
                                },
                                "effects" : [

                                ],
                                "start" : 1217,
                                "duration" : 244,
                                "mediaStart" : 2861,
                                "mediaDuration" : 244,
                                "scalar" : 1,
                                "animationTracks" : {

                                }
                              },
                          "audio" : 
                              {
                                "id" : 320,
                                "_type" : "AMFile",
                                "src" : 1,
                                "trackNumber" : 1,
                                "attributes" : {
                                  "ident" : "",
                                  "gain" : 1.0,
                                  "mixToMono" : false
                                },
                                  "channelNumber" : "0,1",
                                "effects" : [

                                ],
                                "start" : 1217,
                                "duration" : 244,
                                "mediaStart" : 2861,
                                "mediaDuration" : 244,
                                "scalar" : 1,
                                "animationTracks" : {

                                }
                              }
,
                          "start" : 1217,
                          "duration" : 244,
                          "mediaStart" : 0,
                          "mediaDuration" : 25747,
                          "scalar" : 1,
                          "metadata" : {
                            "AutoAppliedSmartFocus" : "False",
                            "clipSpeedAttribute" : false
                          }
                        },
                        {
                          "id" : 321,
                          "_type" : "UnifiedMedia",
                          "video" : 
                              {
                                "id" : 322,
                                "_type" : "ScreenVMFile",
                                "src" : 1,
                                "trackNumber" : 0,
                                "attributes" : {
                                  "ident" : "Rec 01-10-21"
                                },
                                "parameters" : {
                                  "cursorScale" : {
                                    "type" : "double",
                                    "defaultValue" : 0.0,
                                    "interp" : "linr"
                                  },
                                  "cursorOpacity" : {
                                    "type" : "double",
                                    "defaultValue" : 0.0,
                                    "interp" : "linr"
                                  }
                                },
                                "effects" : [

                                ],
                                "start" : 1461,
                                "duration" : 44,
                                "mediaStart" : 3140,
                                "mediaDuration" : 44,
                                "scalar" : 1,
                                "animationTracks" : {

                                }
                              },
                          "audio" : 
                              {
                                "id" : 323,
                                "_type" : "AMFile",
                                "src" : 1,
                                "trackNumber" : 1,
                                "attributes" : {
                                  "ident" : "",
                                  "gain" : 1.0,
                                  "mixToMono" : false
                                },
                                  "channelNumber" : "0,1",
                                "effects" : [

                                ],
                                "start" : 1461,
                                "duration" : 44,
                                "mediaStart" : 3140,
                                "mediaDuration" : 44,
                                "scalar" : 1,
                                "animationTracks" : {

                                }
                              }
,
                          "start" : 1461,
                          "duration" : 44,
                          "mediaStart" : 0,
                          "mediaDuration" : 25747,
                          "scalar" : 1,
                          "metadata" : {
                            "AutoAppliedSmartFocus" : "False",
                            "clipSpeedAttribute" : false
                          }
                        },
                        {
                          "id" : 324,
                          "_type" : "UnifiedMedia",
                          "video" : 
                              {
                                "id" : 325,
                                "_type" : "ScreenVMFile",
                                "src" : 1,
                                "trackNumber" : 0,
                                "attributes" : {
                                  "ident" : "Rec 01-10-21"
                                },
                                "parameters" : {
                                  "cursorScale" : {
                                    "type" : "double",
                                    "defaultValue" : 0.0,
                                    "interp" : "linr"
                                  },
                                  "cursorOpacity" : {
                                    "type" : "double",
                                    "defaultValue" : 0.0,
                                    "interp" : "linr"
                                  }
                                },
                                "effects" : [

                                ],
                                "start" : 1505,
                                "duration" : 112,
                                "mediaStart" : 3212,
                                "mediaDuration" : 112,
                                "scalar" : 1,
                                "animationTracks" : {

                                }
                              },
                          "audio" : 
                              {
                                "id" : 326,
                                "_type" : "AMFile",
                                "src" : 1,
                                "trackNumber" : 1,
                                "attributes" : {
                                  "ident" : "",
                                  "gain" : 1.0,
                                  "mixToMono" : false
                                },
                                  "channelNumber" : "0,1",
                                "effects" : [

                                ],
                                "start" : 1505,
                                "duration" : 112,
                                "mediaStart" : 3212,
                                "mediaDuration" : 112,
                                "scalar" : 1,
                                "animationTracks" : {

                                }
                              }
,
                          "start" : 1505,
                          "duration" : 112,
                          "mediaStart" : 0,
                          "mediaDuration" : 25747,
                          "scalar" : 1,
                          "metadata" : {
                            "AutoAppliedSmartFocus" : "False",
                            "clipSpeedAttribute" : false
                          }
                        },
                        {
                          "id" : 327,
                          "_type" : "UnifiedMedia",
                          "video" : 
                              {
                                "id" : 328,
                                "_type" : "ScreenVMFile",
                                "src" : 1,
                                "trackNumber" : 0,
                                "attributes" : {
                                  "ident" : "Rec 01-10-21"
                                },
                                "parameters" : {
                                  "cursorScale" : {
                                    "type" : "double",
                                    "defaultValue" : 0.0,
                                    "interp" : "linr"
                                  },
                                  "cursorOpacity" : {
                                    "type" : "double",
                                    "defaultValue" : 0.0,
                                    "interp" : "linr"
                                  }
                                },
                                "effects" : [

                                ],
                                "start" : 1617,
                                "duration" : 54,
                                "mediaStart" : 3344,
                                "mediaDuration" : 54,
                                "scalar" : 1,
                                "animationTracks" : {

                                }
                              },
                          "audio" : 
                              {
                                "id" : 329,
                                "_type" : "AMFile",
                                "src" : 1,
                                "trackNumber" : 1,
                                "attributes" : {
                                  "ident" : "",
                                  "gain" : 1.0,
                                  "mixToMono" : false
                                },
                                  "channelNumber" : "0,1",
                                "effects" : [

                                ],
                                "start" : 1617,
                                "duration" : 54,
                                "mediaStart" : 3344,
                                "mediaDuration" : 54,
                                "scalar" : 1,
                                "animationTracks" : {

                                }
                              }
,
                          "start" : 1617,
                          "duration" : 54,
                          "mediaStart" : 0,
                          "mediaDuration" : 25747,
                          "scalar" : 1,
                          "metadata" : {
                            "AutoAppliedSmartFocus" : "False",
                            "clipSpeedAttribute" : false
                          }
                        },
                        {
                          "id" : 330,
                          "_type" : "UnifiedMedia",
                          "video" : 
                              {
                                "id" : 331,
                                "_type" : "ScreenVMFile",
                                "src" : 1,
                                "trackNumber" : 0,
                                "attributes" : {
                                  "ident" : "Rec 01-10-21"
                                },
                                "parameters" : {
                                  "cursorScale" : {
                                    "type" : "double",
                                    "defaultValue" : 0.0,
                                    "interp" : "linr"
                                  },
                                  "cursorOpacity" : {
                                    "type" : "double",
                                    "defaultValue" : 0.0,
                                    "interp" : "linr"
                                  }
                                },
                                "effects" : [

                                ],
                                "start" : 1671,
                                "duration" : 39,
                                "mediaStart" : 3481,
                                "mediaDuration" : 39,
                                "scalar" : 1,
                                "animationTracks" : {

                                }
                              },
                          "audio" : 
                              {
                                "id" : 332,
                                "_type" : "AMFile",
                                "src" : 1,
                                "trackNumber" : 1,
                                "attributes" : {
                                  "ident" : "",
                                  "gain" : 1.0,
                                  "mixToMono" : false
                                },
                                  "channelNumber" : "0,1",
                                "effects" : [

                                ],
                                "start" : 1671,
                                "duration" : 39,
                                "mediaStart" : 3481,
                                "mediaDuration" : 39,
                                "scalar" : 1,
                                "animationTracks" : {

                                }
                              }
,
                          "start" : 1671,
                          "duration" : 39,
                          "mediaStart" : 0,
                          "mediaDuration" : 25747,
                          "scalar" : 1,
                          "metadata" : {
                            "AutoAppliedSmartFocus" : "False",
                            "clipSpeedAttribute" : false
                          }
                        },
                        {
                          "id" : 333,
                          "_type" : "UnifiedMedia",
                          "video" : 
                              {
                                "id" : 334,
                                "_type" : "ScreenVMFile",
                                "src" : 1,
                                "trackNumber" : 0,
                                "attributes" : {
                                  "ident" : "Rec 01-10-21"
                                },
                                "parameters" : {
                                  "cursorScale" : {
                                    "type" : "double",
                                    "defaultValue" : 0.0,
                                    "interp" : "linr"
                                  },
                                  "cursorOpacity" : {
                                    "type" : "double",
                                    "defaultValue" : 0.0,
                                    "interp" : "linr"
                                  }
                                },
                                "effects" : [

                                ],
                                "start" : 1710,
                                "duration" : 411,
                                "mediaStart" : 3541,
                                "mediaDuration" : 411,
                                "scalar" : 1,
                                "animationTracks" : {

                                }
                              },
                          "audio" : 
                              {
                                "id" : 335,
                                "_type" : "AMFile",
                                "src" : 1,
                                "trackNumber" : 1,
                                "attributes" : {
                                  "ident" : "",
                                  "gain" : 1.0,
                                  "mixToMono" : false
                                },
                                  "channelNumber" : "0,1",
                                "effects" : [

                                ],
                                "start" : 1710,
                                "duration" : 411,
                                "mediaStart" : 3541,
                                "mediaDuration" : 411,
                                "scalar" : 1,
                                "animationTracks" : {

                                }
                              }
,
                          "start" : 1710,
                          "duration" : 411,
                          "mediaStart" : 0,
                          "mediaDuration" : 25747,
                          "scalar" : 1,
                          "metadata" : {
                            "AutoAppliedSmartFocus" : "False",
                            "clipSpeedAttribute" : false
                          }
                        },
                        {
                          "id" : 336,
                          "_type" : "UnifiedMedia",
                          "video" : 
                              {
                                "id" : 337,
                                "_type" : "ScreenVMFile",
                                "src" : 1,
                                "trackNumber" : 0,
                                "attributes" : {
                                  "ident" : "Rec 01-10-21"
                                },
                                "parameters" : {
                                  "cursorScale" : {
                                    "type" : "double",
                                    "defaultValue" : 0.0,
                                    "interp" : "linr"
                                  },
                                  "cursorOpacity" : {
                                    "type" : "double",
                                    "defaultValue" : 0.0,
                                    "interp" : "linr"
                                  }
                                },
                                "effects" : [

                                ],
                                "start" : 2121,
                                "duration" : 353,
                                "mediaStart" : 4093,
                                "mediaDuration" : 353,
                                "scalar" : 1,
                                "animationTracks" : {

                                }
                              },
                          "audio" : 
                              {
                                "id" : 338,
                                "_type" : "AMFile",
                                "src" : 1,
                                "trackNumber" : 1,
                                "attributes" : {
                                  "ident" : "",
                                  "gain" : 1.0,
                                  "mixToMono" : false
                                },
                                  "channelNumber" : "0,1",
                                "effects" : [

                                ],
                                "start" : 2121,
                                "duration" : 353,
                                "mediaStart" : 4093,
                                "mediaDuration" : 353,
                                "scalar" : 1,
                                "animationTracks" : {

                                }
                              }
,
                          "start" : 2121,
                          "duration" : 353,
                          "mediaStart" : 0,
                          "mediaDuration" : 25747,
                          "scalar" : 1,
                          "metadata" : {
                            "AutoAppliedSmartFocus" : "False",
                            "clipSpeedAttribute" : false
                          }
                        },
                        {
                          "id" : 339,
                          "_type" : "UnifiedMedia",
                          "video" : 
                              {
                                "id" : 340,
                                "_type" : "ScreenVMFile",
                                "src" : 1,
                                "trackNumber" : 0,
                                "attributes" : {
                                  "ident" : "Rec 01-10-21"
                                },
                                "parameters" : {
                                  "cursorScale" : {
                                    "type" : "double",
                                    "defaultValue" : 0.0,
                                    "interp" : "linr"
                                  },
                                  "cursorOpacity" : {
                                    "type" : "double",
                                    "defaultValue" : 0.0,
                                    "interp" : "linr"
                                  }
                                },
                                "effects" : [

                                ],
                                "start" : 2474,
                                "duration" : 259,
                                "mediaStart" : 4534,
                                "mediaDuration" : 259,
                                "scalar" : 1,
                                "animationTracks" : {

                                }
                              },
                          "audio" : 
                              {
                                "id" : 341,
                                "_type" : "AMFile",
                                "src" : 1,
                                "trackNumber" : 1,
                                "attributes" : {
                                  "ident" : "",
                                  "gain" : 1.0,
                                  "mixToMono" : false
                                },
                                  "channelNumber" : "0,1",
                                "effects" : [

                                ],
                                "start" : 2474,
                                "duration" : 259,
                                "mediaStart" : 4534,
                                "mediaDuration" : 259,
                                "scalar" : 1,
                                "animationTracks" : {

                                }
                              }
,
                          "start" : 2474,
                          "duration" : 259,
                          "mediaStart" : 0,
                          "mediaDuration" : 25747,
                          "scalar" : 1,
                          "metadata" : {
                            "AutoAppliedSmartFocus" : "False",
                            "clipSpeedAttribute" : false
                          }
                        },
                        {
                          "id" : 342,
                          "_type" : "UnifiedMedia",
                          "video" : 
                              {
                                "id" : 343,
                                "_type" : "ScreenVMFile",
                                "src" : 1,
                                "trackNumber" : 0,
                                "attributes" : {
                                  "ident" : "Rec 01-10-21"
                                },
                                "parameters" : {
                                  "cursorScale" : {
                                    "type" : "double",
                                    "defaultValue" : 0.0,
                                    "interp" : "linr"
                                  },
                                  "cursorOpacity" : {
                                    "type" : "double",
                                    "defaultValue" : 0.0,
                                    "interp" : "linr"
                                  }
                                },
                                "effects" : [

                                ],
                                "start" : 2733,
                                "duration" : 177,
                                "mediaStart" : 4810,
                                "mediaDuration" : 177,
                                "scalar" : 1,
                                "animationTracks" : {

                                }
                              },
                          "audio" : 
                              {
                                "id" : 344,
                                "_type" : "AMFile",
                                "src" : 1,
                                "trackNumber" : 1,
                                "attributes" : {
                                  "ident" : "",
                                  "gain" : 1.0,
                                  "mixToMono" : false
                                },
                                  "channelNumber" : "0,1",
                                "effects" : [

                                ],
                                "start" : 2733,
                                "duration" : 177,
                                "mediaStart" : 4810,
                                "mediaDuration" : 177,
                                "scalar" : 1,
                                "animationTracks" : {

                                }
                              }
,
                          "start" : 2733,
                          "duration" : 177,
                          "mediaStart" : 0,
                          "mediaDuration" : 25747,
                          "scalar" : 1,
                          "metadata" : {
                            "AutoAppliedSmartFocus" : "False",
                            "clipSpeedAttribute" : false
                          }
                        },
                        {
                          "id" : 345,
                          "_type" : "UnifiedMedia",
                          "video" : 
                              {
                                "id" : 346,
                                "_type" : "ScreenVMFile",
                                "src" : 1,
                                "trackNumber" : 0,
                                "attributes" : {
                                  "ident" : "Rec 01-10-21"
                                },
                                "parameters" : {
                                  "cursorScale" : {
                                    "type" : "double",
                                    "defaultValue" : 0.0,
                                    "interp" : "linr"
                                  },
                                  "cursorOpacity" : {
                                    "type" : "double",
                                    "defaultValue" : 0.0,
                                    "interp" : "linr"
                                  }
                                },
                                "effects" : [

                                ],
                                "start" : 2910,
                                "duration" : 83,
                                "mediaStart" : 5001,
                                "mediaDuration" : 83,
                                "scalar" : 1,
                                "animationTracks" : {

                                }
                              },
                          "audio" : 
                              {
                                "id" : 347,
                                "_type" : "AMFile",
                                "src" : 1,
                                "trackNumber" : 1,
                                "attributes" : {
                                  "ident" : "",
                                  "gain" : 1.0,
                                  "mixToMono" : false
                                },
                                  "channelNumber" : "0,1",
                                "effects" : [

                                ],
                                "start" : 2910,
                                "duration" : 83,
                                "mediaStart" : 5001,
                                "mediaDuration" : 83,
                                "scalar" : 1,
                                "animationTracks" : {

                                }
                              }
,
                          "start" : 2910,
                          "duration" : 83,
                          "mediaStart" : 0,
                          "mediaDuration" : 25747,
                          "scalar" : 1,
                          "metadata" : {
                            "AutoAppliedSmartFocus" : "False",
                            "clipSpeedAttribute" : false
                          }
                        },
                        {
                          "id" : 348,
                          "_type" : "UnifiedMedia",
                          "video" : 
                              {
                                "id" : 349,
                                "_type" : "ScreenVMFile",
                                "src" : 1,
                                "trackNumber" : 0,
                                "attributes" : {
                                  "ident" : "Rec 01-10-21"
                                },
                                "parameters" : {
                                  "cursorScale" : {
                                    "type" : "double",
                                    "defaultValue" : 0.0,
                                    "interp" : "linr"
                                  },
                                  "cursorOpacity" : {
                                    "type" : "double",
                                    "defaultValue" : 0.0,
                                    "interp" : "linr"
                                  }
                                },
                                "effects" : [

                                ],
                                "start" : 2993,
                                "duration" : 16,
                                "mediaStart" : 5318,
                                "mediaDuration" : 16,
                                "scalar" : 1,
                                "animationTracks" : {

                                }
                              },
                          "audio" : 
                              {
                                "id" : 350,
                                "_type" : "AMFile",
                                "src" : 1,
                                "trackNumber" : 1,
                                "attributes" : {
                                  "ident" : "",
                                  "gain" : 1.0,
                                  "mixToMono" : false
                                },
                                  "channelNumber" : "0,1",
                                "effects" : [

                                ],
                                "start" : 2993,
                                "duration" : 16,
                                "mediaStart" : 5318,
                                "mediaDuration" : 16,
                                "scalar" : 1,
                                "animationTracks" : {

                                }
                              }
,
                          "start" : 2993,
                          "duration" : 16,
                          "mediaStart" : 0,
                          "mediaDuration" : 25747,
                          "scalar" : 1,
                          "metadata" : {
                            "AutoAppliedSmartFocus" : "False",
                            "clipSpeedAttribute" : false
                          }
                        },
                        {
                          "id" : 351,
                          "_type" : "UnifiedMedia",
                          "video" : 
                              {
                                "id" : 352,
                                "_type" : "ScreenVMFile",
                                "src" : 1,
                                "trackNumber" : 0,
                                "attributes" : {
                                  "ident" : "Rec 01-10-21"
                                },
                                "parameters" : {
                                  "cursorScale" : {
                                    "type" : "double",
                                    "defaultValue" : 0.0,
                                    "interp" : "linr"
                                  },
                                  "cursorOpacity" : {
                                    "type" : "double",
                                    "defaultValue" : 0.0,
                                    "interp" : "linr"
                                  }
                                },
                                "effects" : [

                                ],
                                "start" : 3009,
                                "duration" : 20392,
                                "mediaStart" : 5355,
                                "mediaDuration" : 20392,
                                "scalar" : 1,
                                "animationTracks" : {

                                }
                              },
                          "audio" : 
                              {
                                "id" : 353,
                                "_type" : "AMFile",
                                "src" : 1,
                                "trackNumber" : 1,
                                "attributes" : {
                                  "ident" : "",
                                  "gain" : 1.0,
                                  "mixToMono" : false
                                },
                                  "channelNumber" : "0,1",
                                "effects" : [

                                ],
                                "start" : 3009,
                                "duration" : 20392,
                                "mediaStart" : 5355,
                                "mediaDuration" : 20392,
                                "scalar" : 1,
                                "animationTracks" : {

                                }
                              }
,
                          "start" : 3009,
                          "duration" : 20392,
                          "mediaStart" : 0,
                          "mediaDuration" : 25747,
                          "scalar" : 1,
                          "metadata" : {
                            "AutoAppliedSmartFocus" : "False",
                            "clipSpeedAttribute" : false
                          }
                        }
                    ],
                    "effects" : [

                    ],
                    "start" : 2048,
                    "duration" : 1198,
                    "mediaStart" : 1911,
                    "mediaDuration" : 1198,
                    "scalar" : 1,
                    "metadata" : {
                      "AutoAppliedSmartFocus" : "False",
                      "clipSpeedAttribute" : false
                    },
                    "animationTracks" : {

                    }
                  },
                  {
                    "id" : 354,
                    "_type" : "StitchedMedia",
                    "minMediaStart" : 0,
                    "attributes" : {
                      "ident" : "Rec 01-10-21",
                      "gain" : 1.0,
                      "mixToMono" : false
                    },
                    "parameters" : {
                      "volume" : 1.0,
                      "cursorOpacity" : 1.0,
                      "cursorScale" : 1.0
                    },
                    "medias" : [
                        {
                          "id" : 355,
                          "_type" : "UnifiedMedia",
                          "video" : 
                              {
                                "id" : 356,
                                "_type" : "ScreenVMFile",
                                "src" : 1,
                                "trackNumber" : 0,
                                "attributes" : {
                                  "ident" : "Rec 01-10-21"
                                },
                                "parameters" : {
                                  "cursorScale" : {
                                    "type" : "double",
                                    "defaultValue" : 0.0,
                                    "interp" : "linr"
                                  },
                                  "cursorOpacity" : {
                                    "type" : "double",
                                    "defaultValue" : 0.0,
                                    "interp" : "linr"
                                  }
                                },
                                "effects" : [

                                ],
                                "start" : 0,
                                "duration" : 5487,
                                "mediaStart" : 0,
                                "mediaDuration" : 5487,
                                "scalar" : 1,
                                "animationTracks" : {

                                }
                              },
                          "audio" : 
                              {
                                "id" : 357,
                                "_type" : "AMFile",
                                "src" : 1,
                                "trackNumber" : 1,
                                "attributes" : {
                                  "ident" : "",
                                  "gain" : 1.0,
                                  "mixToMono" : false
                                },
                                  "channelNumber" : "0,1",
                                "effects" : [

                                ],
                                "start" : 0,
                                "duration" : 5487,
                                "mediaStart" : 0,
                                "mediaDuration" : 5487,
                                "scalar" : 1,
                                "animationTracks" : {

                                }
                              }
,
                          "start" : 0,
                          "duration" : 5487,
                          "mediaStart" : 0,
                          "mediaDuration" : 25747,
                          "scalar" : 1,
                          "metadata" : {
                            "AutoAppliedSmartFocus" : "False",
                            "clipSpeedAttribute" : false
                          }
                        },
                        {
                          "id" : 358,
                          "_type" : "UnifiedMedia",
                          "video" : 
                              {
                                "id" : 359,
                                "_type" : "ScreenVMFile",
                                "src" : 1,
                                "trackNumber" : 0,
                                "attributes" : {
                                  "ident" : "Rec 01-10-21"
                                },
                                "parameters" : {
                                  "cursorScale" : {
                                    "type" : "double",
                                    "defaultValue" : 0.0,
                                    "interp" : "linr"
                                  },
                                  "cursorOpacity" : {
                                    "type" : "double",
                                    "defaultValue" : 0.0,
                                    "interp" : "linr"
                                  }
                                },
                                "effects" : [

                                ],
                                "start" : 5487,
                                "duration" : 166,
                                "mediaStart" : 5498,
                                "mediaDuration" : 166,
                                "scalar" : 1,
                                "animationTracks" : {

                                }
                              },
                          "audio" : 
                              {
                                "id" : 360,
                                "_type" : "AMFile",
                                "src" : 1,
                                "trackNumber" : 1,
                                "attributes" : {
                                  "ident" : "",
                                  "gain" : 1.0,
                                  "mixToMono" : false
                                },
                                  "channelNumber" : "0,1",
                                "effects" : [

                                ],
                                "start" : 5487,
                                "duration" : 166,
                                "mediaStart" : 5498,
                                "mediaDuration" : 166,
                                "scalar" : 1,
                                "animationTracks" : {

                                }
                              }
,
                          "start" : 5487,
                          "duration" : 166,
                          "mediaStart" : 0,
                          "mediaDuration" : 25747,
                          "scalar" : 1,
                          "metadata" : {
                            "AutoAppliedSmartFocus" : "False",
                            "clipSpeedAttribute" : false
                          }
                        },
                        {
                          "id" : 361,
                          "_type" : "UnifiedMedia",
                          "video" : 
                              {
                                "id" : 362,
                                "_type" : "ScreenVMFile",
                                "src" : 1,
                                "trackNumber" : 0,
                                "attributes" : {
                                  "ident" : "Rec 01-10-21"
                                },
                                "parameters" : {
                                  "cursorScale" : {
                                    "type" : "double",
                                    "defaultValue" : 0.0,
                                    "interp" : "linr"
                                  },
                                  "cursorOpacity" : {
                                    "type" : "double",
                                    "defaultValue" : 0.0,
                                    "interp" : "linr"
                                  }
                                },
                                "effects" : [

                                ],
                                "start" : 5653,
                                "duration" : 20039,
                                "mediaStart" : 5708,
                                "mediaDuration" : 20039,
                                "scalar" : 1,
                                "animationTracks" : {

                                }
                              },
                          "audio" : 
                              {
                                "id" : 363,
                                "_type" : "AMFile",
                                "src" : 1,
                                "trackNumber" : 1,
                                "attributes" : {
                                  "ident" : "",
                                  "gain" : 1.0,
                                  "mixToMono" : false
                                },
                                  "channelNumber" : "0,1",
                                "effects" : [

                                ],
                                "start" : 5653,
                                "duration" : 20039,
                                "mediaStart" : 5708,
                                "mediaDuration" : 20039,
                                "scalar" : 1,
                                "animationTracks" : {

                                }
                              }
,
                          "start" : 5653,
                          "duration" : 20039,
                          "mediaStart" : 0,
                          "mediaDuration" : 25747,
                          "scalar" : 1,
                          "metadata" : {
                            "AutoAppliedSmartFocus" : "False",
                            "clipSpeedAttribute" : false
                          }
                        }
                    ],
                    "effects" : [

                    ],
                    "start" : 3246,
                    "duration" : 127,
                    "mediaStart" : 5467,
                    "mediaDuration" : 127,
                    "scalar" : 1,
                    "metadata" : {
                      "AutoAppliedSmartFocus" : "False",
                      "clipSpeedAttribute" : false
                    },
                    "animationTracks" : {

                    }
                  },
                  {
                    "id" : 364,
                    "_type" : "StitchedMedia",
                    "minMediaStart" : 0,
                    "attributes" : {
                      "ident" : "Rec 01-10-21",
                      "gain" : 1.0,
                      "mixToMono" : false
                    },
                    "parameters" : {
                      "volume" : 1.0,
                      "cursorOpacity" : 1.0,
                      "cursorScale" : 1.0
                    },
                    "medias" : [
                        {
                          "id" : 365,
                          "_type" : "UnifiedMedia",
                          "video" : 
                              {
                                "id" : 366,
                                "_type" : "ScreenVMFile",
                                "src" : 1,
                                "trackNumber" : 0,
                                "attributes" : {
                                  "ident" : "Rec 01-10-21"
                                },
                                "parameters" : {
                                  "cursorScale" : {
                                    "type" : "double",
                                    "defaultValue" : 0.0,
                                    "interp" : "linr"
                                  },
                                  "cursorOpacity" : {
                                    "type" : "double",
                                    "defaultValue" : 0.0,
                                    "interp" : "linr"
                                  }
                                },
                                "effects" : [

                                ],
                                "start" : 0,
                                "duration" : 5487,
                                "mediaStart" : 0,
                                "mediaDuration" : 5487,
                                "scalar" : 1,
                                "animationTracks" : {

                                }
                              },
                          "audio" : 
                              {
                                "id" : 367,
                                "_type" : "AMFile",
                                "src" : 1,
                                "trackNumber" : 1,
                                "attributes" : {
                                  "ident" : "",
                                  "gain" : 1.0,
                                  "mixToMono" : false
                                },
                                  "channelNumber" : "0,1",
                                "effects" : [

                                ],
                                "start" : 0,
                                "duration" : 5487,
                                "mediaStart" : 0,
                                "mediaDuration" : 5487,
                                "scalar" : 1,
                                "animationTracks" : {

                                }
                              }
,
                          "start" : 0,
                          "duration" : 5487,
                          "mediaStart" : 0,
                          "mediaDuration" : 25747,
                          "scalar" : 1,
                          "metadata" : {
                            "AutoAppliedSmartFocus" : "False",
                            "clipSpeedAttribute" : false
                          }
                        },
                        {
                          "id" : 368,
                          "_type" : "UnifiedMedia",
                          "video" : 
                              {
                                "id" : 369,
                                "_type" : "ScreenVMFile",
                                "src" : 1,
                                "trackNumber" : 0,
                                "attributes" : {
                                  "ident" : "Rec 01-10-21"
                                },
                                "parameters" : {
                                  "cursorScale" : {
                                    "type" : "double",
                                    "defaultValue" : 0.0,
                                    "interp" : "linr"
                                  },
                                  "cursorOpacity" : {
                                    "type" : "double",
                                    "defaultValue" : 0.0,
                                    "interp" : "linr"
                                  }
                                },
                                "effects" : [

                                ],
                                "start" : 5487,
                                "duration" : 166,
                                "mediaStart" : 5498,
                                "mediaDuration" : 166,
                                "scalar" : 1,
                                "animationTracks" : {

                                }
                              },
                          "audio" : 
                              {
                                "id" : 370,
                                "_type" : "AMFile",
                                "src" : 1,
                                "trackNumber" : 1,
                                "attributes" : {
                                  "ident" : "",
                                  "gain" : 1.0,
                                  "mixToMono" : false
                                },
                                  "channelNumber" : "0,1",
                                "effects" : [

                                ],
                                "start" : 5487,
                                "duration" : 166,
                                "mediaStart" : 5498,
                                "mediaDuration" : 166,
                                "scalar" : 1,
                                "animationTracks" : {

                                }
                              }
,
                          "start" : 5487,
                          "duration" : 166,
                          "mediaStart" : 0,
                          "mediaDuration" : 25747,
                          "scalar" : 1,
                          "metadata" : {
                            "AutoAppliedSmartFocus" : "False",
                            "clipSpeedAttribute" : false
                          }
                        },
                        {
                          "id" : 371,
                          "_type" : "UnifiedMedia",
                          "video" : 
                              {
                                "id" : 372,
                                "_type" : "ScreenVMFile",
                                "src" : 1,
                                "trackNumber" : 0,
                                "attributes" : {
                                  "ident" : "Rec 01-10-21"
                                },
                                "parameters" : {
                                  "cursorScale" : {
                                    "type" : "double",
                                    "defaultValue" : 0.0,
                                    "interp" : "linr"
                                  },
                                  "cursorOpacity" : {
                                    "type" : "double",
                                    "defaultValue" : 0.0,
                                    "interp" : "linr"
                                  }
                                },
                                "effects" : [

                                ],
                                "start" : 5653,
                                "duration" : 739,
                                "mediaStart" : 5708,
                                "mediaDuration" : 739,
                                "scalar" : 1,
                                "animationTracks" : {

                                }
                              },
                          "audio" : 
                              {
                                "id" : 373,
                                "_type" : "AMFile",
                                "src" : 1,
                                "trackNumber" : 1,
                                "attributes" : {
                                  "ident" : "",
                                  "gain" : 1.0,
                                  "mixToMono" : false
                                },
                                  "channelNumber" : "0,1",
                                "effects" : [

                                ],
                                "start" : 5653,
                                "duration" : 739,
                                "mediaStart" : 5708,
                                "mediaDuration" : 739,
                                "scalar" : 1,
                                "animationTracks" : {

                                }
                              }
,
                          "start" : 5653,
                          "duration" : 739,
                          "mediaStart" : 0,
                          "mediaDuration" : 25747,
                          "scalar" : 1,
                          "metadata" : {
                            "AutoAppliedSmartFocus" : "False",
                            "clipSpeedAttribute" : false
                          }
                        },
                        {
                          "id" : 374,
                          "_type" : "UnifiedMedia",
                          "video" : 
                              {
                                "id" : 375,
                                "_type" : "ScreenVMFile",
                                "src" : 1,
                                "trackNumber" : 0,
                                "attributes" : {
                                  "ident" : "Rec 01-10-21"
                                },
                                "parameters" : {
                                  "cursorScale" : {
                                    "type" : "double",
                                    "defaultValue" : 0.0,
                                    "interp" : "linr"
                                  },
                                  "cursorOpacity" : {
                                    "type" : "double",
                                    "defaultValue" : 0.0,
                                    "interp" : "linr"
                                  }
                                },
                                "effects" : [

                                ],
                                "start" : 6392,
                                "duration" : 6,
                                "mediaStart" : 6482,
                                "mediaDuration" : 6,
                                "scalar" : 1,
                                "animationTracks" : {

                                }
                              },
                          "audio" : 
                              {
                                "id" : 376,
                                "_type" : "AMFile",
                                "src" : 1,
                                "trackNumber" : 1,
                                "attributes" : {
                                  "ident" : "",
                                  "gain" : 1.0,
                                  "mixToMono" : false
                                },
                                  "channelNumber" : "0,1",
                                "effects" : [

                                ],
                                "start" : 6392,
                                "duration" : 6,
                                "mediaStart" : 6482,
                                "mediaDuration" : 6,
                                "scalar" : 1,
                                "animationTracks" : {

                                }
                              }
,
                          "start" : 6392,
                          "duration" : 6,
                          "mediaStart" : 0,
                          "mediaDuration" : 25747,
                          "scalar" : 1,
                          "metadata" : {
                            "AutoAppliedSmartFocus" : "False",
                            "clipSpeedAttribute" : false
                          }
                        },
                        {
                          "id" : 377,
                          "_type" : "UnifiedMedia",
                          "video" : 
                              {
                                "id" : 378,
                                "_type" : "ScreenVMFile",
                                "src" : 1,
                                "trackNumber" : 0,
                                "attributes" : {
                                  "ident" : "Rec 01-10-21"
                                },
                                "parameters" : {
                                  "cursorScale" : {
                                    "type" : "double",
                                    "defaultValue" : 0.0,
                                    "interp" : "linr"
                                  },
                                  "cursorOpacity" : {
                                    "type" : "double",
                                    "defaultValue" : 0.0,
                                    "interp" : "linr"
                                  }
                                },
                                "effects" : [

                                ],
                                "start" : 6398,
                                "duration" : 340,
                                "mediaStart" : 6558,
                                "mediaDuration" : 340,
                                "scalar" : 1,
                                "animationTracks" : {

                                }
                              },
                          "audio" : 
                              {
                                "id" : 379,
                                "_type" : "AMFile",
                                "src" : 1,
                                "trackNumber" : 1,
                                "attributes" : {
                                  "ident" : "",
                                  "gain" : 1.0,
                                  "mixToMono" : false
                                },
                                  "channelNumber" : "0,1",
                                "effects" : [

                                ],
                                "start" : 6398,
                                "duration" : 340,
                                "mediaStart" : 6558,
                                "mediaDuration" : 340,
                                "scalar" : 1,
                                "animationTracks" : {

                                }
                              }
,
                          "start" : 6398,
                          "duration" : 340,
                          "mediaStart" : 0,
                          "mediaDuration" : 25747,
                          "scalar" : 1,
                          "metadata" : {
                            "AutoAppliedSmartFocus" : "False",
                            "clipSpeedAttribute" : false
                          }
                        },
                        {
                          "id" : 380,
                          "_type" : "UnifiedMedia",
                          "video" : 
                              {
                                "id" : 381,
                                "_type" : "ScreenVMFile",
                                "src" : 1,
                                "trackNumber" : 0,
                                "attributes" : {
                                  "ident" : "Rec 01-10-21"
                                },
                                "parameters" : {
                                  "cursorScale" : {
                                    "type" : "double",
                                    "defaultValue" : 0.0,
                                    "interp" : "linr"
                                  },
                                  "cursorOpacity" : {
                                    "type" : "double",
                                    "defaultValue" : 0.0,
                                    "interp" : "linr"
                                  }
                                },
                                "effects" : [

                                ],
                                "start" : 6738,
                                "duration" : 18764,
                                "mediaStart" : 6983,
                                "mediaDuration" : 18764,
                                "scalar" : 1,
                                "animationTracks" : {

                                }
                              },
                          "audio" : 
                              {
                                "id" : 382,
                                "_type" : "AMFile",
                                "src" : 1,
                                "trackNumber" : 1,
                                "attributes" : {
                                  "ident" : "",
                                  "gain" : 1.0,
                                  "mixToMono" : false
                                },
                                  "channelNumber" : "0,1",
                                "effects" : [

                                ],
                                "start" : 6738,
                                "duration" : 18764,
                                "mediaStart" : 6983,
                                "mediaDuration" : 18764,
                                "scalar" : 1,
                                "animationTracks" : {

                                }
                              }
,
                          "start" : 6738,
                          "duration" : 18764,
                          "mediaStart" : 0,
                          "mediaDuration" : 25747,
                          "scalar" : 1,
                          "metadata" : {
                            "AutoAppliedSmartFocus" : "False",
                            "clipSpeedAttribute" : false
                          }
                        }
                    ],
                    "effects" : [

                    ],
                    "start" : 3373,
                    "duration" : 205,
                    "mediaStart" : 5594,
                    "mediaDuration" : 205,
                    "scalar" : 1,
                    "metadata" : {
                      "AutoAppliedSmartFocus" : "False",
                      "clipSpeedAttribute" : false
                    },
                    "animationTracks" : {

                    }
                  },
                  {
                    "id" : 383,
                    "_type" : "StitchedMedia",
                    "minMediaStart" : 0,
                    "attributes" : {
                      "ident" : "Rec 01-10-21",
                      "gain" : 1.0,
                      "mixToMono" : false
                    },
                    "parameters" : {
                      "volume" : 1.0,
                      "cursorOpacity" : {
                        "type" : "double",
                        "defaultValue" : 1.0,
                        "interp" : "linr"
                      },
                      "cursorScale" : {
                        "type" : "double",
                        "defaultValue" : 1.0,
                        "interp" : "linr"
                      }
                    },
                    "medias" : [
                        {
                          "id" : 384,
                          "_type" : "UnifiedMedia",
                          "video" : 
                              {
                                "id" : 385,
                                "_type" : "ScreenVMFile",
                                "src" : 1,
                                "trackNumber" : 0,
                                "attributes" : {
                                  "ident" : "Rec 01-10-21"
                                },
                                "parameters" : {
                                  "cursorScale" : {
                                    "type" : "double",
                                    "defaultValue" : 0.0,
                                    "interp" : "linr"
                                  },
                                  "cursorOpacity" : {
                                    "type" : "double",
                                    "defaultValue" : 0.0,
                                    "interp" : "linr"
                                  }
                                },
                                "effects" : [

                                ],
                                "start" : 0,
                                "duration" : 5487,
                                "mediaStart" : 0,
                                "mediaDuration" : 5487,
                                "scalar" : 1,
                                "animationTracks" : {

                                }
                              },
                          "audio" : 
                              {
                                "id" : 386,
                                "_type" : "AMFile",
                                "src" : 1,
                                "trackNumber" : 1,
                                "attributes" : {
                                  "ident" : "",
                                  "gain" : 1.0,
                                  "mixToMono" : false
                                },
                                  "channelNumber" : "0,1",
                                "effects" : [

                                ],
                                "start" : 0,
                                "duration" : 5487,
                                "mediaStart" : 0,
                                "mediaDuration" : 5487,
                                "scalar" : 1,
                                "animationTracks" : {

                                }
                              }
,
                          "start" : 0,
                          "duration" : 5487,
                          "mediaStart" : 0,
                          "mediaDuration" : 25747,
                          "scalar" : 1,
                          "metadata" : {
                            "AutoAppliedSmartFocus" : "False",
                            "clipSpeedAttribute" : false
                          }
                        },
                        {
                          "id" : 387,
                          "_type" : "UnifiedMedia",
                          "video" : 
                              {
                                "id" : 388,
                                "_type" : "ScreenVMFile",
                                "src" : 1,
                                "trackNumber" : 0,
                                "attributes" : {
                                  "ident" : "Rec 01-10-21"
                                },
                                "parameters" : {
                                  "cursorScale" : {
                                    "type" : "double",
                                    "defaultValue" : 0.0,
                                    "interp" : "linr"
                                  },
                                  "cursorOpacity" : {
                                    "type" : "double",
                                    "defaultValue" : 0.0,
                                    "interp" : "linr"
                                  }
                                },
                                "effects" : [

                                ],
                                "start" : 5487,
                                "duration" : 166,
                                "mediaStart" : 5498,
                                "mediaDuration" : 166,
                                "scalar" : 1,
                                "animationTracks" : {

                                }
                              },
                          "audio" : 
                              {
                                "id" : 389,
                                "_type" : "AMFile",
                                "src" : 1,
                                "trackNumber" : 1,
                                "attributes" : {
                                  "ident" : "",
                                  "gain" : 1.0,
                                  "mixToMono" : false
                                },
                                  "channelNumber" : "0,1",
                                "effects" : [

                                ],
                                "start" : 5487,
                                "duration" : 166,
                                "mediaStart" : 5498,
                                "mediaDuration" : 166,
                                "scalar" : 1,
                                "animationTracks" : {

                                }
                              }
,
                          "start" : 5487,
                          "duration" : 166,
                          "mediaStart" : 0,
                          "mediaDuration" : 25747,
                          "scalar" : 1,
                          "metadata" : {
                            "AutoAppliedSmartFocus" : "False",
                            "clipSpeedAttribute" : false
                          }
                        },
                        {
                          "id" : 390,
                          "_type" : "UnifiedMedia",
                          "video" : 
                              {
                                "id" : 391,
                                "_type" : "ScreenVMFile",
                                "src" : 1,
                                "trackNumber" : 0,
                                "attributes" : {
                                  "ident" : "Rec 01-10-21"
                                },
                                "parameters" : {
                                  "cursorScale" : {
                                    "type" : "double",
                                    "defaultValue" : 0.0,
                                    "interp" : "linr"
                                  },
                                  "cursorOpacity" : {
                                    "type" : "double",
                                    "defaultValue" : 0.0,
                                    "interp" : "linr"
                                  }
                                },
                                "effects" : [

                                ],
                                "start" : 5653,
                                "duration" : 739,
                                "mediaStart" : 5708,
                                "mediaDuration" : 739,
                                "scalar" : 1,
                                "animationTracks" : {

                                }
                              },
                          "audio" : 
                              {
                                "id" : 392,
                                "_type" : "AMFile",
                                "src" : 1,
                                "trackNumber" : 1,
                                "attributes" : {
                                  "ident" : "",
                                  "gain" : 1.0,
                                  "mixToMono" : false
                                },
                                  "channelNumber" : "0,1",
                                "effects" : [

                                ],
                                "start" : 5653,
                                "duration" : 739,
                                "mediaStart" : 5708,
                                "mediaDuration" : 739,
                                "scalar" : 1,
                                "animationTracks" : {

                                }
                              }
,
                          "start" : 5653,
                          "duration" : 739,
                          "mediaStart" : 0,
                          "mediaDuration" : 25747,
                          "scalar" : 1,
                          "metadata" : {
                            "AutoAppliedSmartFocus" : "False",
                            "clipSpeedAttribute" : false
                          }
                        },
                        {
                          "id" : 393,
                          "_type" : "UnifiedMedia",
                          "video" : 
                              {
                                "id" : 394,
                                "_type" : "ScreenVMFile",
                                "src" : 1,
                                "trackNumber" : 0,
                                "attributes" : {
                                  "ident" : "Rec 01-10-21"
                                },
                                "parameters" : {
                                  "cursorScale" : {
                                    "type" : "double",
                                    "defaultValue" : 0.0,
                                    "interp" : "linr"
                                  },
                                  "cursorOpacity" : {
                                    "type" : "double",
                                    "defaultValue" : 0.0,
                                    "interp" : "linr"
                                  }
                                },
                                "effects" : [

                                ],
                                "start" : 6392,
                                "duration" : 6,
                                "mediaStart" : 6482,
                                "mediaDuration" : 6,
                                "scalar" : 1,
                                "animationTracks" : {

                                }
                              },
                          "audio" : 
                              {
                                "id" : 395,
                                "_type" : "AMFile",
                                "src" : 1,
                                "trackNumber" : 1,
                                "attributes" : {
                                  "ident" : "",
                                  "gain" : 1.0,
                                  "mixToMono" : false
                                },
                                  "channelNumber" : "0,1",
                                "effects" : [

                                ],
                                "start" : 6392,
                                "duration" : 6,
                                "mediaStart" : 6482,
                                "mediaDuration" : 6,
                                "scalar" : 1,
                                "animationTracks" : {

                                }
                              }
,
                          "start" : 6392,
                          "duration" : 6,
                          "mediaStart" : 0,
                          "mediaDuration" : 25747,
                          "scalar" : 1,
                          "metadata" : {
                            "AutoAppliedSmartFocus" : "False",
                            "clipSpeedAttribute" : false
                          }
                        },
                        {
                          "id" : 396,
                          "_type" : "UnifiedMedia",
                          "video" : 
                              {
                                "id" : 397,
                                "_type" : "ScreenVMFile",
                                "src" : 1,
                                "trackNumber" : 0,
                                "attributes" : {
                                  "ident" : "Rec 01-10-21"
                                },
                                "parameters" : {
                                  "cursorScale" : {
                                    "type" : "double",
                                    "defaultValue" : 0.0,
                                    "interp" : "linr"
                                  },
                                  "cursorOpacity" : {
                                    "type" : "double",
                                    "defaultValue" : 0.0,
                                    "interp" : "linr"
                                  }
                                },
                                "effects" : [

                                ],
                                "start" : 6398,
                                "duration" : 340,
                                "mediaStart" : 6558,
                                "mediaDuration" : 340,
                                "scalar" : 1,
                                "animationTracks" : {

                                }
                              },
                          "audio" : 
                              {
                                "id" : 398,
                                "_type" : "AMFile",
                                "src" : 1,
                                "trackNumber" : 1,
                                "attributes" : {
                                  "ident" : "",
                                  "gain" : 1.0,
                                  "mixToMono" : false
                                },
                                  "channelNumber" : "0,1",
                                "effects" : [

                                ],
                                "start" : 6398,
                                "duration" : 340,
                                "mediaStart" : 6558,
                                "mediaDuration" : 340,
                                "scalar" : 1,
                                "animationTracks" : {

                                }
                              }
,
                          "start" : 6398,
                          "duration" : 340,
                          "mediaStart" : 0,
                          "mediaDuration" : 25747,
                          "scalar" : 1,
                          "metadata" : {
                            "AutoAppliedSmartFocus" : "False",
                            "clipSpeedAttribute" : false
                          }
                        },
                        {
                          "id" : 399,
                          "_type" : "UnifiedMedia",
                          "video" : 
                              {
                                "id" : 400,
                                "_type" : "ScreenVMFile",
                                "src" : 1,
                                "trackNumber" : 0,
                                "attributes" : {
                                  "ident" : "Rec 01-10-21"
                                },
                                "parameters" : {
                                  "cursorScale" : {
                                    "type" : "double",
                                    "defaultValue" : 0.0,
                                    "interp" : "linr"
                                  },
                                  "cursorOpacity" : {
                                    "type" : "double",
                                    "defaultValue" : 0.0,
                                    "interp" : "linr"
                                  }
                                },
                                "effects" : [

                                ],
                                "start" : 6738,
                                "duration" : 18764,
                                "mediaStart" : 6983,
                                "mediaDuration" : 18764,
                                "scalar" : 1,
                                "animationTracks" : {

                                }
                              },
                          "audio" : 
                              {
                                "id" : 401,
                                "_type" : "AMFile",
                                "src" : 1,
                                "trackNumber" : 1,
                                "attributes" : {
                                  "ident" : "",
                                  "gain" : 1.0,
                                  "mixToMono" : false
                                },
                                  "channelNumber" : "0,1",
                                "effects" : [

                                ],
                                "start" : 6738,
                                "duration" : 18764,
                                "mediaStart" : 6983,
                                "mediaDuration" : 18764,
                                "scalar" : 1,
                                "animationTracks" : {

                                }
                              }
,
                          "start" : 6738,
                          "duration" : 18764,
                          "mediaStart" : 0,
                          "mediaDuration" : 25747,
                          "scalar" : 1,
                          "metadata" : {
                            "AutoAppliedSmartFocus" : "False",
                            "clipSpeedAttribute" : false
                          }
                        }
                    ],
                    "effects" : [
                        {
                          "effectName" : "CursorHilight",
                          "category" : "categoryCursorEffects",
                          "parameters" : {
                            "blur" : 0.1,
                            "color-alpha" : 0.75,
                            "color-blue" : 0.0,
                            "color-green" : 1.0,
                            "color-red" : 1.0,
                            "radius" : 20.0
                          }
                        }
                    ],
                    "start" : 3578,
                    "duration" : 968,
                    "mediaStart" : 5799,
                    "mediaDuration" : 968,
                    "scalar" : 1,
                    "metadata" : {
                      "AutoAppliedSmartFocus" : "False",
                      "clipSpeedAttribute" : false
                    },
                    "animationTracks" : {

                    }
                  },
                  {
                    "id" : 402,
                    "_type" : "StitchedMedia",
                    "minMediaStart" : 0,
                    "attributes" : {
                      "ident" : "Rec 01-10-21",
                      "gain" : 1.0,
                      "mixToMono" : false
                    },
                    "parameters" : {
                      "volume" : 1.0,
                      "cursorOpacity" : 1.0,
                      "cursorScale" : 1.0
                    },
                    "medias" : [
                        {
                          "id" : 403,
                          "_type" : "UnifiedMedia",
                          "video" : 
                              {
                                "id" : 404,
                                "_type" : "ScreenVMFile",
                                "src" : 1,
                                "trackNumber" : 0,
                                "attributes" : {
                                  "ident" : "Rec 01-10-21"
                                },
                                "parameters" : {
                                  "cursorScale" : {
                                    "type" : "double",
                                    "defaultValue" : 0.0,
                                    "interp" : "linr"
                                  },
                                  "cursorOpacity" : {
                                    "type" : "double",
                                    "defaultValue" : 0.0,
                                    "interp" : "linr"
                                  }
                                },
                                "effects" : [

                                ],
                                "start" : 0,
                                "duration" : 5487,
                                "mediaStart" : 0,
                                "mediaDuration" : 5487,
                                "scalar" : 1,
                                "animationTracks" : {

                                }
                              },
                          "audio" : 
                              {
                                "id" : 405,
                                "_type" : "AMFile",
                                "src" : 1,
                                "trackNumber" : 1,
                                "attributes" : {
                                  "ident" : "",
                                  "gain" : 1.0,
                                  "mixToMono" : false
                                },
                                  "channelNumber" : "0,1",
                                "effects" : [

                                ],
                                "start" : 0,
                                "duration" : 5487,
                                "mediaStart" : 0,
                                "mediaDuration" : 5487,
                                "scalar" : 1,
                                "animationTracks" : {

                                }
                              }
,
                          "start" : 0,
                          "duration" : 5487,
                          "mediaStart" : 0,
                          "mediaDuration" : 25747,
                          "scalar" : 1,
                          "metadata" : {
                            "AutoAppliedSmartFocus" : "False",
                            "clipSpeedAttribute" : false
                          }
                        },
                        {
                          "id" : 406,
                          "_type" : "UnifiedMedia",
                          "video" : 
                              {
                                "id" : 407,
                                "_type" : "ScreenVMFile",
                                "src" : 1,
                                "trackNumber" : 0,
                                "attributes" : {
                                  "ident" : "Rec 01-10-21"
                                },
                                "parameters" : {
                                  "cursorScale" : {
                                    "type" : "double",
                                    "defaultValue" : 0.0,
                                    "interp" : "linr"
                                  },
                                  "cursorOpacity" : {
                                    "type" : "double",
                                    "defaultValue" : 0.0,
                                    "interp" : "linr"
                                  }
                                },
                                "effects" : [

                                ],
                                "start" : 5487,
                                "duration" : 166,
                                "mediaStart" : 5498,
                                "mediaDuration" : 166,
                                "scalar" : 1,
                                "animationTracks" : {

                                }
                              },
                          "audio" : 
                              {
                                "id" : 408,
                                "_type" : "AMFile",
                                "src" : 1,
                                "trackNumber" : 1,
                                "attributes" : {
                                  "ident" : "",
                                  "gain" : 1.0,
                                  "mixToMono" : false
                                },
                                  "channelNumber" : "0,1",
                                "effects" : [

                                ],
                                "start" : 5487,
                                "duration" : 166,
                                "mediaStart" : 5498,
                                "mediaDuration" : 166,
                                "scalar" : 1,
                                "animationTracks" : {

                                }
                              }
,
                          "start" : 5487,
                          "duration" : 166,
                          "mediaStart" : 0,
                          "mediaDuration" : 25747,
                          "scalar" : 1,
                          "metadata" : {
                            "AutoAppliedSmartFocus" : "False",
                            "clipSpeedAttribute" : false
                          }
                        },
                        {
                          "id" : 409,
                          "_type" : "UnifiedMedia",
                          "video" : 
                              {
                                "id" : 410,
                                "_type" : "ScreenVMFile",
                                "src" : 1,
                                "trackNumber" : 0,
                                "attributes" : {
                                  "ident" : "Rec 01-10-21"
                                },
                                "parameters" : {
                                  "cursorScale" : {
                                    "type" : "double",
                                    "defaultValue" : 0.0,
                                    "interp" : "linr"
                                  },
                                  "cursorOpacity" : {
                                    "type" : "double",
                                    "defaultValue" : 0.0,
                                    "interp" : "linr"
                                  }
                                },
                                "effects" : [

                                ],
                                "start" : 5653,
                                "duration" : 739,
                                "mediaStart" : 5708,
                                "mediaDuration" : 739,
                                "scalar" : 1,
                                "animationTracks" : {

                                }
                              },
                          "audio" : 
                              {
                                "id" : 411,
                                "_type" : "AMFile",
                                "src" : 1,
                                "trackNumber" : 1,
                                "attributes" : {
                                  "ident" : "",
                                  "gain" : 1.0,
                                  "mixToMono" : false
                                },
                                  "channelNumber" : "0,1",
                                "effects" : [

                                ],
                                "start" : 5653,
                                "duration" : 739,
                                "mediaStart" : 5708,
                                "mediaDuration" : 739,
                                "scalar" : 1,
                                "animationTracks" : {

                                }
                              }
,
                          "start" : 5653,
                          "duration" : 739,
                          "mediaStart" : 0,
                          "mediaDuration" : 25747,
                          "scalar" : 1,
                          "metadata" : {
                            "AutoAppliedSmartFocus" : "False",
                            "clipSpeedAttribute" : false
                          }
                        },
                        {
                          "id" : 412,
                          "_type" : "UnifiedMedia",
                          "video" : 
                              {
                                "id" : 413,
                                "_type" : "ScreenVMFile",
                                "src" : 1,
                                "trackNumber" : 0,
                                "attributes" : {
                                  "ident" : "Rec 01-10-21"
                                },
                                "parameters" : {
                                  "cursorScale" : {
                                    "type" : "double",
                                    "defaultValue" : 0.0,
                                    "interp" : "linr"
                                  },
                                  "cursorOpacity" : {
                                    "type" : "double",
                                    "defaultValue" : 0.0,
                                    "interp" : "linr"
                                  }
                                },
                                "effects" : [

                                ],
                                "start" : 6392,
                                "duration" : 6,
                                "mediaStart" : 6482,
                                "mediaDuration" : 6,
                                "scalar" : 1,
                                "animationTracks" : {

                                }
                              },
                          "audio" : 
                              {
                                "id" : 414,
                                "_type" : "AMFile",
                                "src" : 1,
                                "trackNumber" : 1,
                                "attributes" : {
                                  "ident" : "",
                                  "gain" : 1.0,
                                  "mixToMono" : false
                                },
                                  "channelNumber" : "0,1",
                                "effects" : [

                                ],
                                "start" : 6392,
                                "duration" : 6,
                                "mediaStart" : 6482,
                                "mediaDuration" : 6,
                                "scalar" : 1,
                                "animationTracks" : {

                                }
                              }
,
                          "start" : 6392,
                          "duration" : 6,
                          "mediaStart" : 0,
                          "mediaDuration" : 25747,
                          "scalar" : 1,
                          "metadata" : {
                            "AutoAppliedSmartFocus" : "False",
                            "clipSpeedAttribute" : false
                          }
                        },
                        {
                          "id" : 415,
                          "_type" : "UnifiedMedia",
                          "video" : 
                              {
                                "id" : 416,
                                "_type" : "ScreenVMFile",
                                "src" : 1,
                                "trackNumber" : 0,
                                "attributes" : {
                                  "ident" : "Rec 01-10-21"
                                },
                                "parameters" : {
                                  "cursorScale" : {
                                    "type" : "double",
                                    "defaultValue" : 0.0,
                                    "interp" : "linr"
                                  },
                                  "cursorOpacity" : {
                                    "type" : "double",
                                    "defaultValue" : 0.0,
                                    "interp" : "linr"
                                  }
                                },
                                "effects" : [

                                ],
                                "start" : 6398,
                                "duration" : 340,
                                "mediaStart" : 6558,
                                "mediaDuration" : 340,
                                "scalar" : 1,
                                "animationTracks" : {

                                }
                              },
                          "audio" : 
                              {
                                "id" : 417,
                                "_type" : "AMFile",
                                "src" : 1,
                                "trackNumber" : 1,
                                "attributes" : {
                                  "ident" : "",
                                  "gain" : 1.0,
                                  "mixToMono" : false
                                },
                                  "channelNumber" : "0,1",
                                "effects" : [

                                ],
                                "start" : 6398,
                                "duration" : 340,
                                "mediaStart" : 6558,
                                "mediaDuration" : 340,
                                "scalar" : 1,
                                "animationTracks" : {

                                }
                              }
,
                          "start" : 6398,
                          "duration" : 340,
                          "mediaStart" : 0,
                          "mediaDuration" : 25747,
                          "scalar" : 1,
                          "metadata" : {
                            "AutoAppliedSmartFocus" : "False",
                            "clipSpeedAttribute" : false
                          }
                        },
                        {
                          "id" : 418,
                          "_type" : "UnifiedMedia",
                          "video" : 
                              {
                                "id" : 419,
                                "_type" : "ScreenVMFile",
                                "src" : 1,
                                "trackNumber" : 0,
                                "attributes" : {
                                  "ident" : "Rec 01-10-21"
                                },
                                "parameters" : {
                                  "cursorScale" : {
                                    "type" : "double",
                                    "defaultValue" : 0.0,
                                    "interp" : "linr"
                                  },
                                  "cursorOpacity" : {
                                    "type" : "double",
                                    "defaultValue" : 0.0,
                                    "interp" : "linr"
                                  }
                                },
                                "effects" : [

                                ],
                                "start" : 6738,
                                "duration" : 125,
                                "mediaStart" : 6983,
                                "mediaDuration" : 125,
                                "scalar" : 1,
                                "animationTracks" : {

                                }
                              },
                          "audio" : 
                              {
                                "id" : 420,
                                "_type" : "AMFile",
                                "src" : 1,
                                "trackNumber" : 1,
                                "attributes" : {
                                  "ident" : "",
                                  "gain" : 1.0,
                                  "mixToMono" : false
                                },
                                  "channelNumber" : "0,1",
                                "effects" : [

                                ],
                                "start" : 6738,
                                "duration" : 125,
                                "mediaStart" : 6983,
                                "mediaDuration" : 125,
                                "scalar" : 1,
                                "animationTracks" : {

                                }
                              }
,
                          "start" : 6738,
                          "duration" : 125,
                          "mediaStart" : 0,
                          "mediaDuration" : 25747,
                          "scalar" : 1,
                          "metadata" : {
                            "AutoAppliedSmartFocus" : "False",
                            "clipSpeedAttribute" : false
                          }
                        },
                        {
                          "id" : 421,
                          "_type" : "UnifiedMedia",
                          "video" : 
                              {
                                "id" : 422,
                                "_type" : "ScreenVMFile",
                                "src" : 1,
                                "trackNumber" : 0,
                                "attributes" : {
                                  "ident" : "Rec 01-10-21"
                                },
                                "parameters" : {
                                  "cursorScale" : {
                                    "type" : "double",
                                    "defaultValue" : 0.0,
                                    "interp" : "linr"
                                  },
                                  "cursorOpacity" : {
                                    "type" : "double",
                                    "defaultValue" : 0.0,
                                    "interp" : "linr"
                                  }
                                },
                                "effects" : [

                                ],
                                "start" : 6863,
                                "duration" : 297,
                                "mediaStart" : 7316,
                                "mediaDuration" : 297,
                                "scalar" : 1,
                                "animationTracks" : {

                                }
                              },
                          "audio" : 
                              {
                                "id" : 423,
                                "_type" : "AMFile",
                                "src" : 1,
                                "trackNumber" : 1,
                                "attributes" : {
                                  "ident" : "",
                                  "gain" : 1.0,
                                  "mixToMono" : false
                                },
                                  "channelNumber" : "0,1",
                                "effects" : [

                                ],
                                "start" : 6863,
                                "duration" : 297,
                                "mediaStart" : 7316,
                                "mediaDuration" : 297,
                                "scalar" : 1,
                                "animationTracks" : {

                                }
                              }
,
                          "start" : 6863,
                          "duration" : 297,
                          "mediaStart" : 0,
                          "mediaDuration" : 25747,
                          "scalar" : 1,
                          "metadata" : {
                            "AutoAppliedSmartFocus" : "False",
                            "clipSpeedAttribute" : false
                          }
                        },
                        {
                          "id" : 424,
                          "_type" : "UnifiedMedia",
                          "video" : 
                              {
                                "id" : 425,
                                "_type" : "ScreenVMFile",
                                "src" : 1,
                                "trackNumber" : 0,
                                "attributes" : {
                                  "ident" : "Rec 01-10-21"
                                },
                                "parameters" : {
                                  "cursorScale" : {
                                    "type" : "double",
                                    "defaultValue" : 0.0,
                                    "interp" : "linr"
                                  },
                                  "cursorOpacity" : {
                                    "type" : "double",
                                    "defaultValue" : 0.0,
                                    "interp" : "linr"
                                  }
                                },
                                "effects" : [

                                ],
                                "start" : 7160,
                                "duration" : 60,
                                "mediaStart" : 7641,
                                "mediaDuration" : 60,
                                "scalar" : 1,
                                "animationTracks" : {

                                }
                              },
                          "audio" : 
                              {
                                "id" : 426,
                                "_type" : "AMFile",
                                "src" : 1,
                                "trackNumber" : 1,
                                "attributes" : {
                                  "ident" : "",
                                  "gain" : 1.0,
                                  "mixToMono" : false
                                },
                                  "channelNumber" : "0,1",
                                "effects" : [

                                ],
                                "start" : 7160,
                                "duration" : 60,
                                "mediaStart" : 7641,
                                "mediaDuration" : 60,
                                "scalar" : 1,
                                "animationTracks" : {

                                }
                              }
,
                          "start" : 7160,
                          "duration" : 60,
                          "mediaStart" : 0,
                          "mediaDuration" : 25747,
                          "scalar" : 1,
                          "metadata" : {
                            "AutoAppliedSmartFocus" : "False",
                            "clipSpeedAttribute" : false
                          }
                        },
                        {
                          "id" : 427,
                          "_type" : "UnifiedMedia",
                          "video" : 
                              {
                                "id" : 428,
                                "_type" : "ScreenVMFile",
                                "src" : 1,
                                "trackNumber" : 0,
                                "attributes" : {
                                  "ident" : "Rec 01-10-21"
                                },
                                "parameters" : {
                                  "cursorScale" : {
                                    "type" : "double",
                                    "defaultValue" : 0.0,
                                    "interp" : "linr"
                                  },
                                  "cursorOpacity" : {
                                    "type" : "double",
                                    "defaultValue" : 0.0,
                                    "interp" : "linr"
                                  }
                                },
                                "effects" : [

                                ],
                                "start" : 7220,
                                "duration" : 36,
                                "mediaStart" : 7726,
                                "mediaDuration" : 36,
                                "scalar" : 1,
                                "animationTracks" : {

                                }
                              },
                          "audio" : 
                              {
                                "id" : 429,
                                "_type" : "AMFile",
                                "src" : 1,
                                "trackNumber" : 1,
                                "attributes" : {
                                  "ident" : "",
                                  "gain" : 1.0,
                                  "mixToMono" : false
                                },
                                  "channelNumber" : "0,1",
                                "effects" : [

                                ],
                                "start" : 7220,
                                "duration" : 36,
                                "mediaStart" : 7726,
                                "mediaDuration" : 36,
                                "scalar" : 1,
                                "animationTracks" : {

                                }
                              }
,
                          "start" : 7220,
                          "duration" : 36,
                          "mediaStart" : 0,
                          "mediaDuration" : 25747,
                          "scalar" : 1,
                          "metadata" : {
                            "AutoAppliedSmartFocus" : "False",
                            "clipSpeedAttribute" : false
                          }
                        },
                        {
                          "id" : 430,
                          "_type" : "UnifiedMedia",
                          "video" : 
                              {
                                "id" : 431,
                                "_type" : "ScreenVMFile",
                                "src" : 1,
                                "trackNumber" : 0,
                                "attributes" : {
                                  "ident" : "Rec 01-10-21"
                                },
                                "parameters" : {
                                  "cursorScale" : {
                                    "type" : "double",
                                    "defaultValue" : 0.0,
                                    "interp" : "linr"
                                  },
                                  "cursorOpacity" : {
                                    "type" : "double",
                                    "defaultValue" : 0.0,
                                    "interp" : "linr"
                                  }
                                },
                                "effects" : [

                                ],
                                "start" : 7256,
                                "duration" : 229,
                                "mediaStart" : 8018,
                                "mediaDuration" : 229,
                                "scalar" : 1,
                                "animationTracks" : {

                                }
                              },
                          "audio" : 
                              {
                                "id" : 432,
                                "_type" : "AMFile",
                                "src" : 1,
                                "trackNumber" : 1,
                                "attributes" : {
                                  "ident" : "",
                                  "gain" : 1.0,
                                  "mixToMono" : false
                                },
                                  "channelNumber" : "0,1",
                                "effects" : [

                                ],
                                "start" : 7256,
                                "duration" : 229,
                                "mediaStart" : 8018,
                                "mediaDuration" : 229,
                                "scalar" : 1,
                                "animationTracks" : {

                                }
                              }
,
                          "start" : 7256,
                          "duration" : 229,
                          "mediaStart" : 0,
                          "mediaDuration" : 25747,
                          "scalar" : 1,
                          "metadata" : {
                            "AutoAppliedSmartFocus" : "False",
                            "clipSpeedAttribute" : false
                          }
                        },
                        {
                          "id" : 433,
                          "_type" : "UnifiedMedia",
                          "video" : 
                              {
                                "id" : 434,
                                "_type" : "ScreenVMFile",
                                "src" : 1,
                                "trackNumber" : 0,
                                "attributes" : {
                                  "ident" : "Rec 01-10-21"
                                },
                                "parameters" : {
                                  "cursorScale" : {
                                    "type" : "double",
                                    "defaultValue" : 0.0,
                                    "interp" : "linr"
                                  },
                                  "cursorOpacity" : {
                                    "type" : "double",
                                    "defaultValue" : 0.0,
                                    "interp" : "linr"
                                  }
                                },
                                "effects" : [

                                ],
                                "start" : 7485,
                                "duration" : 115,
                                "mediaStart" : 8289,
                                "mediaDuration" : 115,
                                "scalar" : 1,
                                "animationTracks" : {

                                }
                              },
                          "audio" : 
                              {
                                "id" : 435,
                                "_type" : "AMFile",
                                "src" : 1,
                                "trackNumber" : 1,
                                "attributes" : {
                                  "ident" : "",
                                  "gain" : 1.0,
                                  "mixToMono" : false
                                },
                                  "channelNumber" : "0,1",
                                "effects" : [

                                ],
                                "start" : 7485,
                                "duration" : 115,
                                "mediaStart" : 8289,
                                "mediaDuration" : 115,
                                "scalar" : 1,
                                "animationTracks" : {

                                }
                              }
,
                          "start" : 7485,
                          "duration" : 115,
                          "mediaStart" : 0,
                          "mediaDuration" : 25747,
                          "scalar" : 1,
                          "metadata" : {
                            "AutoAppliedSmartFocus" : "False",
                            "clipSpeedAttribute" : false
                          }
                        },
                        {
                          "id" : 436,
                          "_type" : "UnifiedMedia",
                          "video" : 
                              {
                                "id" : 437,
                                "_type" : "ScreenVMFile",
                                "src" : 1,
                                "trackNumber" : 0,
                                "attributes" : {
                                  "ident" : "Rec 01-10-21"
                                },
                                "parameters" : {
                                  "cursorScale" : {
                                    "type" : "double",
                                    "defaultValue" : 0.0,
                                    "interp" : "linr"
                                  },
                                  "cursorOpacity" : {
                                    "type" : "double",
                                    "defaultValue" : 0.0,
                                    "interp" : "linr"
                                  }
                                },
                                "effects" : [

                                ],
                                "start" : 7600,
                                "duration" : 58,
                                "mediaStart" : 8711,
                                "mediaDuration" : 58,
                                "scalar" : 1,
                                "animationTracks" : {

                                }
                              },
                          "audio" : 
                              {
                                "id" : 438,
                                "_type" : "AMFile",
                                "src" : 1,
                                "trackNumber" : 1,
                                "attributes" : {
                                  "ident" : "",
                                  "gain" : 1.0,
                                  "mixToMono" : false
                                },
                                  "channelNumber" : "0,1",
                                "effects" : [

                                ],
                                "start" : 7600,
                                "duration" : 58,
                                "mediaStart" : 8711,
                                "mediaDuration" : 58,
                                "scalar" : 1,
                                "animationTracks" : {

                                }
                              }
,
                          "start" : 7600,
                          "duration" : 58,
                          "mediaStart" : 0,
                          "mediaDuration" : 25747,
                          "scalar" : 1,
                          "metadata" : {
                            "AutoAppliedSmartFocus" : "False",
                            "clipSpeedAttribute" : false
                          }
                        },
                        {
                          "id" : 439,
                          "_type" : "UnifiedMedia",
                          "video" : 
                              {
                                "id" : 440,
                                "_type" : "ScreenVMFile",
                                "src" : 1,
                                "trackNumber" : 0,
                                "attributes" : {
                                  "ident" : "Rec 01-10-21"
                                },
                                "parameters" : {
                                  "cursorScale" : {
                                    "type" : "double",
                                    "defaultValue" : 0.0,
                                    "interp" : "linr"
                                  },
                                  "cursorOpacity" : {
                                    "type" : "double",
                                    "defaultValue" : 0.0,
                                    "interp" : "linr"
                                  }
                                },
                                "effects" : [

                                ],
                                "start" : 7658,
                                "duration" : 45,
                                "mediaStart" : 8776,
                                "mediaDuration" : 45,
                                "scalar" : 1,
                                "animationTracks" : {

                                }
                              },
                          "audio" : 
                              {
                                "id" : 441,
                                "_type" : "AMFile",
                                "src" : 1,
                                "trackNumber" : 1,
                                "attributes" : {
                                  "ident" : "",
                                  "gain" : 1.0,
                                  "mixToMono" : false
                                },
                                  "channelNumber" : "0,1",
                                "effects" : [

                                ],
                                "start" : 7658,
                                "duration" : 45,
                                "mediaStart" : 8776,
                                "mediaDuration" : 45,
                                "scalar" : 1,
                                "animationTracks" : {

                                }
                              }
,
                          "start" : 7658,
                          "duration" : 45,
                          "mediaStart" : 0,
                          "mediaDuration" : 25747,
                          "scalar" : 1,
                          "metadata" : {
                            "AutoAppliedSmartFocus" : "False",
                            "clipSpeedAttribute" : false
                          }
                        },
                        {
                          "id" : 442,
                          "_type" : "UnifiedMedia",
                          "video" : 
                              {
                                "id" : 443,
                                "_type" : "ScreenVMFile",
                                "src" : 1,
                                "trackNumber" : 0,
                                "attributes" : {
                                  "ident" : "Rec 01-10-21"
                                },
                                "parameters" : {
                                  "cursorScale" : {
                                    "type" : "double",
                                    "defaultValue" : 0.0,
                                    "interp" : "linr"
                                  },
                                  "cursorOpacity" : {
                                    "type" : "double",
                                    "defaultValue" : 0.0,
                                    "interp" : "linr"
                                  }
                                },
                                "effects" : [

                                ],
                                "start" : 7703,
                                "duration" : 46,
                                "mediaStart" : 8841,
                                "mediaDuration" : 46,
                                "scalar" : 1,
                                "animationTracks" : {

                                }
                              },
                          "audio" : 
                              {
                                "id" : 444,
                                "_type" : "AMFile",
                                "src" : 1,
                                "trackNumber" : 1,
                                "attributes" : {
                                  "ident" : "",
                                  "gain" : 1.0,
                                  "mixToMono" : false
                                },
                                  "channelNumber" : "0,1",
                                "effects" : [

                                ],
                                "start" : 7703,
                                "duration" : 46,
                                "mediaStart" : 8841,
                                "mediaDuration" : 46,
                                "scalar" : 1,
                                "animationTracks" : {

                                }
                              }
,
                          "start" : 7703,
                          "duration" : 46,
                          "mediaStart" : 0,
                          "mediaDuration" : 25747,
                          "scalar" : 1,
                          "metadata" : {
                            "AutoAppliedSmartFocus" : "False",
                            "clipSpeedAttribute" : false
                          }
                        },
                        {
                          "id" : 445,
                          "_type" : "UnifiedMedia",
                          "video" : 
                              {
                                "id" : 446,
                                "_type" : "ScreenVMFile",
                                "src" : 1,
                                "trackNumber" : 0,
                                "attributes" : {
                                  "ident" : "Rec 01-10-21"
                                },
                                "parameters" : {
                                  "cursorScale" : {
                                    "type" : "double",
                                    "defaultValue" : 0.0,
                                    "interp" : "linr"
                                  },
                                  "cursorOpacity" : {
                                    "type" : "double",
                                    "defaultValue" : 0.0,
                                    "interp" : "linr"
                                  }
                                },
                                "effects" : [

                                ],
                                "start" : 7749,
                                "duration" : 16810,
                                "mediaStart" : 8937,
                                "mediaDuration" : 16810,
                                "scalar" : 1,
                                "animationTracks" : {

                                }
                              },
                          "audio" : 
                              {
                                "id" : 447,
                                "_type" : "AMFile",
                                "src" : 1,
                                "trackNumber" : 1,
                                "attributes" : {
                                  "ident" : "",
                                  "gain" : 1.0,
                                  "mixToMono" : false
                                },
                                  "channelNumber" : "0,1",
                                "effects" : [

                                ],
                                "start" : 7749,
                                "duration" : 16810,
                                "mediaStart" : 8937,
                                "mediaDuration" : 16810,
                                "scalar" : 1,
                                "animationTracks" : {

                                }
                              }
,
                          "start" : 7749,
                          "duration" : 16810,
                          "mediaStart" : 0,
                          "mediaDuration" : 25747,
                          "scalar" : 1,
                          "metadata" : {
                            "AutoAppliedSmartFocus" : "False",
                            "clipSpeedAttribute" : false
                          }
                        }
                    ],
                    "effects" : [

                    ],
                    "start" : 4546,
                    "duration" : 1099,
                    "mediaStart" : 6767,
                    "mediaDuration" : 1099,
                    "scalar" : 1,
                    "metadata" : {
                      "AutoAppliedSmartFocus" : "False",
                      "clipSpeedAttribute" : false
                    },
                    "animationTracks" : {

                    }
                  },
                  {
                    "id" : 448,
                    "_type" : "StitchedMedia",
                    "minMediaStart" : 0,
                    "attributes" : {
                      "ident" : "Rec 01-10-21",
                      "gain" : 0.3,
                      "mixToMono" : false
                    },
                    "parameters" : {
                      "volume" : 1.0,
                      "cursorOpacity" : {
                        "type" : "double",
                        "defaultValue" : 1.0,
                        "interp" : "linr"
                      },
                      "cursorScale" : {
                        "type" : "double",
                        "defaultValue" : 1.0,
                        "interp" : "linr"
                      }
                    },
                    "medias" : [
                        {
                          "id" : 449,
                          "_type" : "UnifiedMedia",
                          "video" : 
                              {
                                "id" : 450,
                                "_type" : "ScreenVMFile",
                                "src" : 1,
                                "trackNumber" : 0,
                                "attributes" : {
                                  "ident" : "Rec 01-10-21"
                                },
                                "parameters" : {
                                  "cursorScale" : {
                                    "type" : "double",
                                    "defaultValue" : 0.0,
                                    "interp" : "linr"
                                  },
                                  "cursorOpacity" : {
                                    "type" : "double",
                                    "defaultValue" : 0.0,
                                    "interp" : "linr"
                                  }
                                },
                                "effects" : [

                                ],
                                "start" : 0,
                                "duration" : 5487,
                                "mediaStart" : 0,
                                "mediaDuration" : 5487,
                                "scalar" : 1,
                                "animationTracks" : {

                                }
                              },
                          "audio" : 
                              {
                                "id" : 451,
                                "_type" : "AMFile",
                                "src" : 1,
                                "trackNumber" : 1,
                                "attributes" : {
                                  "ident" : "",
                                  "gain" : 1.0,
                                  "mixToMono" : false
                                },
                                  "channelNumber" : "0,1",
                                "effects" : [

                                ],
                                "start" : 0,
                                "duration" : 5487,
                                "mediaStart" : 0,
                                "mediaDuration" : 5487,
                                "scalar" : 1,
                                "animationTracks" : {

                                }
                              }
,
                          "start" : 0,
                          "duration" : 5487,
                          "mediaStart" : 0,
                          "mediaDuration" : 25747,
                          "scalar" : 1,
                          "metadata" : {
                            "AutoAppliedSmartFocus" : "False",
                            "clipSpeedAttribute" : false
                          }
                        },
                        {
                          "id" : 452,
                          "_type" : "UnifiedMedia",
                          "video" : 
                              {
                                "id" : 453,
                                "_type" : "ScreenVMFile",
                                "src" : 1,
                                "trackNumber" : 0,
                                "attributes" : {
                                  "ident" : "Rec 01-10-21"
                                },
                                "parameters" : {
                                  "cursorScale" : {
                                    "type" : "double",
                                    "defaultValue" : 0.0,
                                    "interp" : "linr"
                                  },
                                  "cursorOpacity" : {
                                    "type" : "double",
                                    "defaultValue" : 0.0,
                                    "interp" : "linr"
                                  }
                                },
                                "effects" : [

                                ],
                                "start" : 5487,
                                "duration" : 166,
                                "mediaStart" : 5498,
                                "mediaDuration" : 166,
                                "scalar" : 1,
                                "animationTracks" : {

                                }
                              },
                          "audio" : 
                              {
                                "id" : 454,
                                "_type" : "AMFile",
                                "src" : 1,
                                "trackNumber" : 1,
                                "attributes" : {
                                  "ident" : "",
                                  "gain" : 1.0,
                                  "mixToMono" : false
                                },
                                  "channelNumber" : "0,1",
                                "effects" : [

                                ],
                                "start" : 5487,
                                "duration" : 166,
                                "mediaStart" : 5498,
                                "mediaDuration" : 166,
                                "scalar" : 1,
                                "animationTracks" : {

                                }
                              }
,
                          "start" : 5487,
                          "duration" : 166,
                          "mediaStart" : 0,
                          "mediaDuration" : 25747,
                          "scalar" : 1,
                          "metadata" : {
                            "AutoAppliedSmartFocus" : "False",
                            "clipSpeedAttribute" : false
                          }
                        },
                        {
                          "id" : 455,
                          "_type" : "UnifiedMedia",
                          "video" : 
                              {
                                "id" : 456,
                                "_type" : "ScreenVMFile",
                                "src" : 1,
                                "trackNumber" : 0,
                                "attributes" : {
                                  "ident" : "Rec 01-10-21"
                                },
                                "parameters" : {
                                  "cursorScale" : {
                                    "type" : "double",
                                    "defaultValue" : 0.0,
                                    "interp" : "linr"
                                  },
                                  "cursorOpacity" : {
                                    "type" : "double",
                                    "defaultValue" : 0.0,
                                    "interp" : "linr"
                                  }
                                },
                                "effects" : [

                                ],
                                "start" : 5653,
                                "duration" : 739,
                                "mediaStart" : 5708,
                                "mediaDuration" : 739,
                                "scalar" : 1,
                                "animationTracks" : {

                                }
                              },
                          "audio" : 
                              {
                                "id" : 457,
                                "_type" : "AMFile",
                                "src" : 1,
                                "trackNumber" : 1,
                                "attributes" : {
                                  "ident" : "",
                                  "gain" : 1.0,
                                  "mixToMono" : false
                                },
                                  "channelNumber" : "0,1",
                                "effects" : [

                                ],
                                "start" : 5653,
                                "duration" : 739,
                                "mediaStart" : 5708,
                                "mediaDuration" : 739,
                                "scalar" : 1,
                                "animationTracks" : {

                                }
                              }
,
                          "start" : 5653,
                          "duration" : 739,
                          "mediaStart" : 0,
                          "mediaDuration" : 25747,
                          "scalar" : 1,
                          "metadata" : {
                            "AutoAppliedSmartFocus" : "False",
                            "clipSpeedAttribute" : false
                          }
                        },
                        {
                          "id" : 458,
                          "_type" : "UnifiedMedia",
                          "video" : 
                              {
                                "id" : 459,
                                "_type" : "ScreenVMFile",
                                "src" : 1,
                                "trackNumber" : 0,
                                "attributes" : {
                                  "ident" : "Rec 01-10-21"
                                },
                                "parameters" : {
                                  "cursorScale" : {
                                    "type" : "double",
                                    "defaultValue" : 0.0,
                                    "interp" : "linr"
                                  },
                                  "cursorOpacity" : {
                                    "type" : "double",
                                    "defaultValue" : 0.0,
                                    "interp" : "linr"
                                  }
                                },
                                "effects" : [

                                ],
                                "start" : 6392,
                                "duration" : 6,
                                "mediaStart" : 6482,
                                "mediaDuration" : 6,
                                "scalar" : 1,
                                "animationTracks" : {

                                }
                              },
                          "audio" : 
                              {
                                "id" : 460,
                                "_type" : "AMFile",
                                "src" : 1,
                                "trackNumber" : 1,
                                "attributes" : {
                                  "ident" : "",
                                  "gain" : 1.0,
                                  "mixToMono" : false
                                },
                                  "channelNumber" : "0,1",
                                "effects" : [

                                ],
                                "start" : 6392,
                                "duration" : 6,
                                "mediaStart" : 6482,
                                "mediaDuration" : 6,
                                "scalar" : 1,
                                "animationTracks" : {

                                }
                              }
,
                          "start" : 6392,
                          "duration" : 6,
                          "mediaStart" : 0,
                          "mediaDuration" : 25747,
                          "scalar" : 1,
                          "metadata" : {
                            "AutoAppliedSmartFocus" : "False",
                            "clipSpeedAttribute" : false
                          }
                        },
                        {
                          "id" : 461,
                          "_type" : "UnifiedMedia",
                          "video" : 
                              {
                                "id" : 462,
                                "_type" : "ScreenVMFile",
                                "src" : 1,
                                "trackNumber" : 0,
                                "attributes" : {
                                  "ident" : "Rec 01-10-21"
                                },
                                "parameters" : {
                                  "cursorScale" : {
                                    "type" : "double",
                                    "defaultValue" : 0.0,
                                    "interp" : "linr"
                                  },
                                  "cursorOpacity" : {
                                    "type" : "double",
                                    "defaultValue" : 0.0,
                                    "interp" : "linr"
                                  }
                                },
                                "effects" : [

                                ],
                                "start" : 6398,
                                "duration" : 340,
                                "mediaStart" : 6558,
                                "mediaDuration" : 340,
                                "scalar" : 1,
                                "animationTracks" : {

                                }
                              },
                          "audio" : 
                              {
                                "id" : 463,
                                "_type" : "AMFile",
                                "src" : 1,
                                "trackNumber" : 1,
                                "attributes" : {
                                  "ident" : "",
                                  "gain" : 1.0,
                                  "mixToMono" : false
                                },
                                  "channelNumber" : "0,1",
                                "effects" : [

                                ],
                                "start" : 6398,
                                "duration" : 340,
                                "mediaStart" : 6558,
                                "mediaDuration" : 340,
                                "scalar" : 1,
                                "animationTracks" : {

                                }
                              }
,
                          "start" : 6398,
                          "duration" : 340,
                          "mediaStart" : 0,
                          "mediaDuration" : 25747,
                          "scalar" : 1,
                          "metadata" : {
                            "AutoAppliedSmartFocus" : "False",
                            "clipSpeedAttribute" : false
                          }
                        },
                        {
                          "id" : 464,
                          "_type" : "UnifiedMedia",
                          "video" : 
                              {
                                "id" : 465,
                                "_type" : "ScreenVMFile",
                                "src" : 1,
                                "trackNumber" : 0,
                                "attributes" : {
                                  "ident" : "Rec 01-10-21"
                                },
                                "parameters" : {
                                  "cursorScale" : {
                                    "type" : "double",
                                    "defaultValue" : 0.0,
                                    "interp" : "linr"
                                  },
                                  "cursorOpacity" : {
                                    "type" : "double",
                                    "defaultValue" : 0.0,
                                    "interp" : "linr"
                                  }
                                },
                                "effects" : [

                                ],
                                "start" : 6738,
                                "duration" : 125,
                                "mediaStart" : 6983,
                                "mediaDuration" : 125,
                                "scalar" : 1,
                                "animationTracks" : {

                                }
                              },
                          "audio" : 
                              {
                                "id" : 466,
                                "_type" : "AMFile",
                                "src" : 1,
                                "trackNumber" : 1,
                                "attributes" : {
                                  "ident" : "",
                                  "gain" : 1.0,
                                  "mixToMono" : false
                                },
                                  "channelNumber" : "0,1",
                                "effects" : [

                                ],
                                "start" : 6738,
                                "duration" : 125,
                                "mediaStart" : 6983,
                                "mediaDuration" : 125,
                                "scalar" : 1,
                                "animationTracks" : {

                                }
                              }
,
                          "start" : 6738,
                          "duration" : 125,
                          "mediaStart" : 0,
                          "mediaDuration" : 25747,
                          "scalar" : 1,
                          "metadata" : {
                            "AutoAppliedSmartFocus" : "False",
                            "clipSpeedAttribute" : false
                          }
                        },
                        {
                          "id" : 467,
                          "_type" : "UnifiedMedia",
                          "video" : 
                              {
                                "id" : 468,
                                "_type" : "ScreenVMFile",
                                "src" : 1,
                                "trackNumber" : 0,
                                "attributes" : {
                                  "ident" : "Rec 01-10-21"
                                },
                                "parameters" : {
                                  "cursorScale" : {
                                    "type" : "double",
                                    "defaultValue" : 0.0,
                                    "interp" : "linr"
                                  },
                                  "cursorOpacity" : {
                                    "type" : "double",
                                    "defaultValue" : 0.0,
                                    "interp" : "linr"
                                  }
                                },
                                "effects" : [

                                ],
                                "start" : 6863,
                                "duration" : 297,
                                "mediaStart" : 7316,
                                "mediaDuration" : 297,
                                "scalar" : 1,
                                "animationTracks" : {

                                }
                              },
                          "audio" : 
                              {
                                "id" : 469,
                                "_type" : "AMFile",
                                "src" : 1,
                                "trackNumber" : 1,
                                "attributes" : {
                                  "ident" : "",
                                  "gain" : 1.0,
                                  "mixToMono" : false
                                },
                                  "channelNumber" : "0,1",
                                "effects" : [

                                ],
                                "start" : 6863,
                                "duration" : 297,
                                "mediaStart" : 7316,
                                "mediaDuration" : 297,
                                "scalar" : 1,
                                "animationTracks" : {

                                }
                              }
,
                          "start" : 6863,
                          "duration" : 297,
                          "mediaStart" : 0,
                          "mediaDuration" : 25747,
                          "scalar" : 1,
                          "metadata" : {
                            "AutoAppliedSmartFocus" : "False",
                            "clipSpeedAttribute" : false
                          }
                        },
                        {
                          "id" : 470,
                          "_type" : "UnifiedMedia",
                          "video" : 
                              {
                                "id" : 471,
                                "_type" : "ScreenVMFile",
                                "src" : 1,
                                "trackNumber" : 0,
                                "attributes" : {
                                  "ident" : "Rec 01-10-21"
                                },
                                "parameters" : {
                                  "cursorScale" : {
                                    "type" : "double",
                                    "defaultValue" : 0.0,
                                    "interp" : "linr"
                                  },
                                  "cursorOpacity" : {
                                    "type" : "double",
                                    "defaultValue" : 0.0,
                                    "interp" : "linr"
                                  }
                                },
                                "effects" : [

                                ],
                                "start" : 7160,
                                "duration" : 60,
                                "mediaStart" : 7641,
                                "mediaDuration" : 60,
                                "scalar" : 1,
                                "animationTracks" : {

                                }
                              },
                          "audio" : 
                              {
                                "id" : 472,
                                "_type" : "AMFile",
                                "src" : 1,
                                "trackNumber" : 1,
                                "attributes" : {
                                  "ident" : "",
                                  "gain" : 1.0,
                                  "mixToMono" : false
                                },
                                  "channelNumber" : "0,1",
                                "effects" : [

                                ],
                                "start" : 7160,
                                "duration" : 60,
                                "mediaStart" : 7641,
                                "mediaDuration" : 60,
                                "scalar" : 1,
                                "animationTracks" : {

                                }
                              }
,
                          "start" : 7160,
                          "duration" : 60,
                          "mediaStart" : 0,
                          "mediaDuration" : 25747,
                          "scalar" : 1,
                          "metadata" : {
                            "AutoAppliedSmartFocus" : "False",
                            "clipSpeedAttribute" : false
                          }
                        },
                        {
                          "id" : 473,
                          "_type" : "UnifiedMedia",
                          "video" : 
                              {
                                "id" : 474,
                                "_type" : "ScreenVMFile",
                                "src" : 1,
                                "trackNumber" : 0,
                                "attributes" : {
                                  "ident" : "Rec 01-10-21"
                                },
                                "parameters" : {
                                  "cursorScale" : {
                                    "type" : "double",
                                    "defaultValue" : 0.0,
                                    "interp" : "linr"
                                  },
                                  "cursorOpacity" : {
                                    "type" : "double",
                                    "defaultValue" : 0.0,
                                    "interp" : "linr"
                                  }
                                },
                                "effects" : [

                                ],
                                "start" : 7220,
                                "duration" : 36,
                                "mediaStart" : 7726,
                                "mediaDuration" : 36,
                                "scalar" : 1,
                                "animationTracks" : {

                                }
                              },
                          "audio" : 
                              {
                                "id" : 475,
                                "_type" : "AMFile",
                                "src" : 1,
                                "trackNumber" : 1,
                                "attributes" : {
                                  "ident" : "",
                                  "gain" : 1.0,
                                  "mixToMono" : false
                                },
                                  "channelNumber" : "0,1",
                                "effects" : [

                                ],
                                "start" : 7220,
                                "duration" : 36,
                                "mediaStart" : 7726,
                                "mediaDuration" : 36,
                                "scalar" : 1,
                                "animationTracks" : {

                                }
                              }
,
                          "start" : 7220,
                          "duration" : 36,
                          "mediaStart" : 0,
                          "mediaDuration" : 25747,
                          "scalar" : 1,
                          "metadata" : {
                            "AutoAppliedSmartFocus" : "False",
                            "clipSpeedAttribute" : false
                          }
                        },
                        {
                          "id" : 476,
                          "_type" : "UnifiedMedia",
                          "video" : 
                              {
                                "id" : 477,
                                "_type" : "ScreenVMFile",
                                "src" : 1,
                                "trackNumber" : 0,
                                "attributes" : {
                                  "ident" : "Rec 01-10-21"
                                },
                                "parameters" : {
                                  "cursorScale" : {
                                    "type" : "double",
                                    "defaultValue" : 0.0,
                                    "interp" : "linr"
                                  },
                                  "cursorOpacity" : {
                                    "type" : "double",
                                    "defaultValue" : 0.0,
                                    "interp" : "linr"
                                  }
                                },
                                "effects" : [

                                ],
                                "start" : 7256,
                                "duration" : 229,
                                "mediaStart" : 8018,
                                "mediaDuration" : 229,
                                "scalar" : 1,
                                "animationTracks" : {

                                }
                              },
                          "audio" : 
                              {
                                "id" : 478,
                                "_type" : "AMFile",
                                "src" : 1,
                                "trackNumber" : 1,
                                "attributes" : {
                                  "ident" : "",
                                  "gain" : 1.0,
                                  "mixToMono" : false
                                },
                                  "channelNumber" : "0,1",
                                "effects" : [

                                ],
                                "start" : 7256,
                                "duration" : 229,
                                "mediaStart" : 8018,
                                "mediaDuration" : 229,
                                "scalar" : 1,
                                "animationTracks" : {

                                }
                              }
,
                          "start" : 7256,
                          "duration" : 229,
                          "mediaStart" : 0,
                          "mediaDuration" : 25747,
                          "scalar" : 1,
                          "metadata" : {
                            "AutoAppliedSmartFocus" : "False",
                            "clipSpeedAttribute" : false
                          }
                        },
                        {
                          "id" : 479,
                          "_type" : "UnifiedMedia",
                          "video" : 
                              {
                                "id" : 480,
                                "_type" : "ScreenVMFile",
                                "src" : 1,
                                "trackNumber" : 0,
                                "attributes" : {
                                  "ident" : "Rec 01-10-21"
                                },
                                "parameters" : {
                                  "cursorScale" : {
                                    "type" : "double",
                                    "defaultValue" : 0.0,
                                    "interp" : "linr"
                                  },
                                  "cursorOpacity" : {
                                    "type" : "double",
                                    "defaultValue" : 0.0,
                                    "interp" : "linr"
                                  }
                                },
                                "effects" : [

                                ],
                                "start" : 7485,
                                "duration" : 115,
                                "mediaStart" : 8289,
                                "mediaDuration" : 115,
                                "scalar" : 1,
                                "animationTracks" : {

                                }
                              },
                          "audio" : 
                              {
                                "id" : 481,
                                "_type" : "AMFile",
                                "src" : 1,
                                "trackNumber" : 1,
                                "attributes" : {
                                  "ident" : "",
                                  "gain" : 1.0,
                                  "mixToMono" : false
                                },
                                  "channelNumber" : "0,1",
                                "effects" : [

                                ],
                                "start" : 7485,
                                "duration" : 115,
                                "mediaStart" : 8289,
                                "mediaDuration" : 115,
                                "scalar" : 1,
                                "animationTracks" : {

                                }
                              }
,
                          "start" : 7485,
                          "duration" : 115,
                          "mediaStart" : 0,
                          "mediaDuration" : 25747,
                          "scalar" : 1,
                          "metadata" : {
                            "AutoAppliedSmartFocus" : "False",
                            "clipSpeedAttribute" : false
                          }
                        },
                        {
                          "id" : 482,
                          "_type" : "UnifiedMedia",
                          "video" : 
                              {
                                "id" : 483,
                                "_type" : "ScreenVMFile",
                                "src" : 1,
                                "trackNumber" : 0,
                                "attributes" : {
                                  "ident" : "Rec 01-10-21"
                                },
                                "parameters" : {
                                  "cursorScale" : {
                                    "type" : "double",
                                    "defaultValue" : 0.0,
                                    "interp" : "linr"
                                  },
                                  "cursorOpacity" : {
                                    "type" : "double",
                                    "defaultValue" : 0.0,
                                    "interp" : "linr"
                                  }
                                },
                                "effects" : [

                                ],
                                "start" : 7600,
                                "duration" : 58,
                                "mediaStart" : 8711,
                                "mediaDuration" : 58,
                                "scalar" : 1,
                                "animationTracks" : {

                                }
                              },
                          "audio" : 
                              {
                                "id" : 484,
                                "_type" : "AMFile",
                                "src" : 1,
                                "trackNumber" : 1,
                                "attributes" : {
                                  "ident" : "",
                                  "gain" : 1.0,
                                  "mixToMono" : false
                                },
                                  "channelNumber" : "0,1",
                                "effects" : [

                                ],
                                "start" : 7600,
                                "duration" : 58,
                                "mediaStart" : 8711,
                                "mediaDuration" : 58,
                                "scalar" : 1,
                                "animationTracks" : {

                                }
                              }
,
                          "start" : 7600,
                          "duration" : 58,
                          "mediaStart" : 0,
                          "mediaDuration" : 25747,
                          "scalar" : 1,
                          "metadata" : {
                            "AutoAppliedSmartFocus" : "False",
                            "clipSpeedAttribute" : false
                          }
                        },
                        {
                          "id" : 485,
                          "_type" : "UnifiedMedia",
                          "video" : 
                              {
                                "id" : 486,
                                "_type" : "ScreenVMFile",
                                "src" : 1,
                                "trackNumber" : 0,
                                "attributes" : {
                                  "ident" : "Rec 01-10-21"
                                },
                                "parameters" : {
                                  "cursorScale" : {
                                    "type" : "double",
                                    "defaultValue" : 0.0,
                                    "interp" : "linr"
                                  },
                                  "cursorOpacity" : {
                                    "type" : "double",
                                    "defaultValue" : 0.0,
                                    "interp" : "linr"
                                  }
                                },
                                "effects" : [

                                ],
                                "start" : 7658,
                                "duration" : 45,
                                "mediaStart" : 8776,
                                "mediaDuration" : 45,
                                "scalar" : 1,
                                "animationTracks" : {

                                }
                              },
                          "audio" : 
                              {
                                "id" : 487,
                                "_type" : "AMFile",
                                "src" : 1,
                                "trackNumber" : 1,
                                "attributes" : {
                                  "ident" : "",
                                  "gain" : 1.0,
                                  "mixToMono" : false
                                },
                                  "channelNumber" : "0,1",
                                "effects" : [

                                ],
                                "start" : 7658,
                                "duration" : 45,
                                "mediaStart" : 8776,
                                "mediaDuration" : 45,
                                "scalar" : 1,
                                "animationTracks" : {

                                }
                              }
,
                          "start" : 7658,
                          "duration" : 45,
                          "mediaStart" : 0,
                          "mediaDuration" : 25747,
                          "scalar" : 1,
                          "metadata" : {
                            "AutoAppliedSmartFocus" : "False",
                            "clipSpeedAttribute" : false
                          }
                        },
                        {
                          "id" : 488,
                          "_type" : "UnifiedMedia",
                          "video" : 
                              {
                                "id" : 489,
                                "_type" : "ScreenVMFile",
                                "src" : 1,
                                "trackNumber" : 0,
                                "attributes" : {
                                  "ident" : "Rec 01-10-21"
                                },
                                "parameters" : {
                                  "cursorScale" : {
                                    "type" : "double",
                                    "defaultValue" : 0.0,
                                    "interp" : "linr"
                                  },
                                  "cursorOpacity" : {
                                    "type" : "double",
                                    "defaultValue" : 0.0,
                                    "interp" : "linr"
                                  }
                                },
                                "effects" : [

                                ],
                                "start" : 7703,
                                "duration" : 46,
                                "mediaStart" : 8841,
                                "mediaDuration" : 46,
                                "scalar" : 1,
                                "animationTracks" : {

                                }
                              },
                          "audio" : 
                              {
                                "id" : 490,
                                "_type" : "AMFile",
                                "src" : 1,
                                "trackNumber" : 1,
                                "attributes" : {
                                  "ident" : "",
                                  "gain" : 1.0,
                                  "mixToMono" : false
                                },
                                  "channelNumber" : "0,1",
                                "effects" : [

                                ],
                                "start" : 7703,
                                "duration" : 46,
                                "mediaStart" : 8841,
                                "mediaDuration" : 46,
                                "scalar" : 1,
                                "animationTracks" : {

                                }
                              }
,
                          "start" : 7703,
                          "duration" : 46,
                          "mediaStart" : 0,
                          "mediaDuration" : 25747,
                          "scalar" : 1,
                          "metadata" : {
                            "AutoAppliedSmartFocus" : "False",
                            "clipSpeedAttribute" : false
                          }
                        },
                        {
                          "id" : 491,
                          "_type" : "UnifiedMedia",
                          "video" : 
                              {
                                "id" : 492,
                                "_type" : "ScreenVMFile",
                                "src" : 1,
                                "trackNumber" : 0,
                                "attributes" : {
                                  "ident" : "Rec 01-10-21"
                                },
                                "parameters" : {
                                  "cursorScale" : {
                                    "type" : "double",
                                    "defaultValue" : 0.0,
                                    "interp" : "linr"
                                  },
                                  "cursorOpacity" : {
                                    "type" : "double",
                                    "defaultValue" : 0.0,
                                    "interp" : "linr"
                                  }
                                },
                                "effects" : [

                                ],
                                "start" : 7749,
                                "duration" : 16810,
                                "mediaStart" : 8937,
                                "mediaDuration" : 16810,
                                "scalar" : 1,
                                "animationTracks" : {

                                }
                              },
                          "audio" : 
                              {
                                "id" : 493,
                                "_type" : "AMFile",
                                "src" : 1,
                                "trackNumber" : 1,
                                "attributes" : {
                                  "ident" : "",
                                  "gain" : 1.0,
                                  "mixToMono" : false
                                },
                                  "channelNumber" : "0,1",
                                "effects" : [

                                ],
                                "start" : 7749,
                                "duration" : 16810,
                                "mediaStart" : 8937,
                                "mediaDuration" : 16810,
                                "scalar" : 1,
                                "animationTracks" : {

                                }
                              }
,
                          "start" : 7749,
                          "duration" : 16810,
                          "mediaStart" : 0,
                          "mediaDuration" : 25747,
                          "scalar" : 1,
                          "metadata" : {
                            "AutoAppliedSmartFocus" : "False",
                            "clipSpeedAttribute" : false
                          }
                        }
                    ],
                    "effects" : [

                    ],
                    "start" : 5645,
                    "duration" : 278,
                    "mediaStart" : 7866,
                    "mediaDuration" : 1667,
                    "scalar" : "278/1667",
                    "metadata" : {
                      "AutoAppliedSmartFocus" : "False",
                      "clipSpeedAttribute" : true
                    },
                    "animationTracks" : {

                    }
                  },
                  {
                    "id" : 494,
                    "_type" : "StitchedMedia",
                    "minMediaStart" : 0,
                    "attributes" : {
                      "ident" : "Rec 01-10-21",
                      "gain" : 1.0,
                      "mixToMono" : false
                    },
                    "parameters" : {
                      "volume" : 1.0,
                      "cursorOpacity" : 1.0,
                      "cursorScale" : 1.0
                    },
                    "medias" : [
                        {
                          "id" : 495,
                          "_type" : "UnifiedMedia",
                          "video" : 
                              {
                                "id" : 496,
                                "_type" : "ScreenVMFile",
                                "src" : 1,
                                "trackNumber" : 0,
                                "attributes" : {
                                  "ident" : "Rec 01-10-21"
                                },
                                "parameters" : {
                                  "cursorScale" : {
                                    "type" : "double",
                                    "defaultValue" : 0.0,
                                    "interp" : "linr"
                                  },
                                  "cursorOpacity" : {
                                    "type" : "double",
                                    "defaultValue" : 0.0,
                                    "interp" : "linr"
                                  }
                                },
                                "effects" : [

                                ],
                                "start" : 0,
                                "duration" : 5487,
                                "mediaStart" : 0,
                                "mediaDuration" : 5487,
                                "scalar" : 1,
                                "animationTracks" : {

                                }
                              },
                          "audio" : 
                              {
                                "id" : 497,
                                "_type" : "AMFile",
                                "src" : 1,
                                "trackNumber" : 1,
                                "attributes" : {
                                  "ident" : "",
                                  "gain" : 1.0,
                                  "mixToMono" : false
                                },
                                  "channelNumber" : "0,1",
                                "effects" : [

                                ],
                                "start" : 0,
                                "duration" : 5487,
                                "mediaStart" : 0,
                                "mediaDuration" : 5487,
                                "scalar" : 1,
                                "animationTracks" : {

                                }
                              }
,
                          "start" : 0,
                          "duration" : 5487,
                          "mediaStart" : 0,
                          "mediaDuration" : 25747,
                          "scalar" : 1,
                          "metadata" : {
                            "AutoAppliedSmartFocus" : "False",
                            "clipSpeedAttribute" : false
                          }
                        },
                        {
                          "id" : 498,
                          "_type" : "UnifiedMedia",
                          "video" : 
                              {
                                "id" : 499,
                                "_type" : "ScreenVMFile",
                                "src" : 1,
                                "trackNumber" : 0,
                                "attributes" : {
                                  "ident" : "Rec 01-10-21"
                                },
                                "parameters" : {
                                  "cursorScale" : {
                                    "type" : "double",
                                    "defaultValue" : 0.0,
                                    "interp" : "linr"
                                  },
                                  "cursorOpacity" : {
                                    "type" : "double",
                                    "defaultValue" : 0.0,
                                    "interp" : "linr"
                                  }
                                },
                                "effects" : [

                                ],
                                "start" : 5487,
                                "duration" : 166,
                                "mediaStart" : 5498,
                                "mediaDuration" : 166,
                                "scalar" : 1,
                                "animationTracks" : {

                                }
                              },
                          "audio" : 
                              {
                                "id" : 500,
                                "_type" : "AMFile",
                                "src" : 1,
                                "trackNumber" : 1,
                                "attributes" : {
                                  "ident" : "",
                                  "gain" : 1.0,
                                  "mixToMono" : false
                                },
                                  "channelNumber" : "0,1",
                                "effects" : [

                                ],
                                "start" : 5487,
                                "duration" : 166,
                                "mediaStart" : 5498,
                                "mediaDuration" : 166,
                                "scalar" : 1,
                                "animationTracks" : {

                                }
                              }
,
                          "start" : 5487,
                          "duration" : 166,
                          "mediaStart" : 0,
                          "mediaDuration" : 25747,
                          "scalar" : 1,
                          "metadata" : {
                            "AutoAppliedSmartFocus" : "False",
                            "clipSpeedAttribute" : false
                          }
                        },
                        {
                          "id" : 501,
                          "_type" : "UnifiedMedia",
                          "video" : 
                              {
                                "id" : 502,
                                "_type" : "ScreenVMFile",
                                "src" : 1,
                                "trackNumber" : 0,
                                "attributes" : {
                                  "ident" : "Rec 01-10-21"
                                },
                                "parameters" : {
                                  "cursorScale" : {
                                    "type" : "double",
                                    "defaultValue" : 0.0,
                                    "interp" : "linr"
                                  },
                                  "cursorOpacity" : {
                                    "type" : "double",
                                    "defaultValue" : 0.0,
                                    "interp" : "linr"
                                  }
                                },
                                "effects" : [

                                ],
                                "start" : 5653,
                                "duration" : 739,
                                "mediaStart" : 5708,
                                "mediaDuration" : 739,
                                "scalar" : 1,
                                "animationTracks" : {

                                }
                              },
                          "audio" : 
                              {
                                "id" : 503,
                                "_type" : "AMFile",
                                "src" : 1,
                                "trackNumber" : 1,
                                "attributes" : {
                                  "ident" : "",
                                  "gain" : 1.0,
                                  "mixToMono" : false
                                },
                                  "channelNumber" : "0,1",
                                "effects" : [

                                ],
                                "start" : 5653,
                                "duration" : 739,
                                "mediaStart" : 5708,
                                "mediaDuration" : 739,
                                "scalar" : 1,
                                "animationTracks" : {

                                }
                              }
,
                          "start" : 5653,
                          "duration" : 739,
                          "mediaStart" : 0,
                          "mediaDuration" : 25747,
                          "scalar" : 1,
                          "metadata" : {
                            "AutoAppliedSmartFocus" : "False",
                            "clipSpeedAttribute" : false
                          }
                        },
                        {
                          "id" : 504,
                          "_type" : "UnifiedMedia",
                          "video" : 
                              {
                                "id" : 505,
                                "_type" : "ScreenVMFile",
                                "src" : 1,
                                "trackNumber" : 0,
                                "attributes" : {
                                  "ident" : "Rec 01-10-21"
                                },
                                "parameters" : {
                                  "cursorScale" : {
                                    "type" : "double",
                                    "defaultValue" : 0.0,
                                    "interp" : "linr"
                                  },
                                  "cursorOpacity" : {
                                    "type" : "double",
                                    "defaultValue" : 0.0,
                                    "interp" : "linr"
                                  }
                                },
                                "effects" : [

                                ],
                                "start" : 6392,
                                "duration" : 6,
                                "mediaStart" : 6482,
                                "mediaDuration" : 6,
                                "scalar" : 1,
                                "animationTracks" : {

                                }
                              },
                          "audio" : 
                              {
                                "id" : 506,
                                "_type" : "AMFile",
                                "src" : 1,
                                "trackNumber" : 1,
                                "attributes" : {
                                  "ident" : "",
                                  "gain" : 1.0,
                                  "mixToMono" : false
                                },
                                  "channelNumber" : "0,1",
                                "effects" : [

                                ],
                                "start" : 6392,
                                "duration" : 6,
                                "mediaStart" : 6482,
                                "mediaDuration" : 6,
                                "scalar" : 1,
                                "animationTracks" : {

                                }
                              }
,
                          "start" : 6392,
                          "duration" : 6,
                          "mediaStart" : 0,
                          "mediaDuration" : 25747,
                          "scalar" : 1,
                          "metadata" : {
                            "AutoAppliedSmartFocus" : "False",
                            "clipSpeedAttribute" : false
                          }
                        },
                        {
                          "id" : 507,
                          "_type" : "UnifiedMedia",
                          "video" : 
                              {
                                "id" : 508,
                                "_type" : "ScreenVMFile",
                                "src" : 1,
                                "trackNumber" : 0,
                                "attributes" : {
                                  "ident" : "Rec 01-10-21"
                                },
                                "parameters" : {
                                  "cursorScale" : {
                                    "type" : "double",
                                    "defaultValue" : 0.0,
                                    "interp" : "linr"
                                  },
                                  "cursorOpacity" : {
                                    "type" : "double",
                                    "defaultValue" : 0.0,
                                    "interp" : "linr"
                                  }
                                },
                                "effects" : [

                                ],
                                "start" : 6398,
                                "duration" : 340,
                                "mediaStart" : 6558,
                                "mediaDuration" : 340,
                                "scalar" : 1,
                                "animationTracks" : {

                                }
                              },
                          "audio" : 
                              {
                                "id" : 509,
                                "_type" : "AMFile",
                                "src" : 1,
                                "trackNumber" : 1,
                                "attributes" : {
                                  "ident" : "",
                                  "gain" : 1.0,
                                  "mixToMono" : false
                                },
                                  "channelNumber" : "0,1",
                                "effects" : [

                                ],
                                "start" : 6398,
                                "duration" : 340,
                                "mediaStart" : 6558,
                                "mediaDuration" : 340,
                                "scalar" : 1,
                                "animationTracks" : {

                                }
                              }
,
                          "start" : 6398,
                          "duration" : 340,
                          "mediaStart" : 0,
                          "mediaDuration" : 25747,
                          "scalar" : 1,
                          "metadata" : {
                            "AutoAppliedSmartFocus" : "False",
                            "clipSpeedAttribute" : false
                          }
                        },
                        {
                          "id" : 510,
                          "_type" : "UnifiedMedia",
                          "video" : 
                              {
                                "id" : 511,
                                "_type" : "ScreenVMFile",
                                "src" : 1,
                                "trackNumber" : 0,
                                "attributes" : {
                                  "ident" : "Rec 01-10-21"
                                },
                                "parameters" : {
                                  "cursorScale" : {
                                    "type" : "double",
                                    "defaultValue" : 0.0,
                                    "interp" : "linr"
                                  },
                                  "cursorOpacity" : {
                                    "type" : "double",
                                    "defaultValue" : 0.0,
                                    "interp" : "linr"
                                  }
                                },
                                "effects" : [

                                ],
                                "start" : 6738,
                                "duration" : 125,
                                "mediaStart" : 6983,
                                "mediaDuration" : 125,
                                "scalar" : 1,
                                "animationTracks" : {

                                }
                              },
                          "audio" : 
                              {
                                "id" : 512,
                                "_type" : "AMFile",
                                "src" : 1,
                                "trackNumber" : 1,
                                "attributes" : {
                                  "ident" : "",
                                  "gain" : 1.0,
                                  "mixToMono" : false
                                },
                                  "channelNumber" : "0,1",
                                "effects" : [

                                ],
                                "start" : 6738,
                                "duration" : 125,
                                "mediaStart" : 6983,
                                "mediaDuration" : 125,
                                "scalar" : 1,
                                "animationTracks" : {

                                }
                              }
,
                          "start" : 6738,
                          "duration" : 125,
                          "mediaStart" : 0,
                          "mediaDuration" : 25747,
                          "scalar" : 1,
                          "metadata" : {
                            "AutoAppliedSmartFocus" : "False",
                            "clipSpeedAttribute" : false
                          }
                        },
                        {
                          "id" : 513,
                          "_type" : "UnifiedMedia",
                          "video" : 
                              {
                                "id" : 514,
                                "_type" : "ScreenVMFile",
                                "src" : 1,
                                "trackNumber" : 0,
                                "attributes" : {
                                  "ident" : "Rec 01-10-21"
                                },
                                "parameters" : {
                                  "cursorScale" : {
                                    "type" : "double",
                                    "defaultValue" : 0.0,
                                    "interp" : "linr"
                                  },
                                  "cursorOpacity" : {
                                    "type" : "double",
                                    "defaultValue" : 0.0,
                                    "interp" : "linr"
                                  }
                                },
                                "effects" : [

                                ],
                                "start" : 6863,
                                "duration" : 297,
                                "mediaStart" : 7316,
                                "mediaDuration" : 297,
                                "scalar" : 1,
                                "animationTracks" : {

                                }
                              },
                          "audio" : 
                              {
                                "id" : 515,
                                "_type" : "AMFile",
                                "src" : 1,
                                "trackNumber" : 1,
                                "attributes" : {
                                  "ident" : "",
                                  "gain" : 1.0,
                                  "mixToMono" : false
                                },
                                  "channelNumber" : "0,1",
                                "effects" : [

                                ],
                                "start" : 6863,
                                "duration" : 297,
                                "mediaStart" : 7316,
                                "mediaDuration" : 297,
                                "scalar" : 1,
                                "animationTracks" : {

                                }
                              }
,
                          "start" : 6863,
                          "duration" : 297,
                          "mediaStart" : 0,
                          "mediaDuration" : 25747,
                          "scalar" : 1,
                          "metadata" : {
                            "AutoAppliedSmartFocus" : "False",
                            "clipSpeedAttribute" : false
                          }
                        },
                        {
                          "id" : 516,
                          "_type" : "UnifiedMedia",
                          "video" : 
                              {
                                "id" : 517,
                                "_type" : "ScreenVMFile",
                                "src" : 1,
                                "trackNumber" : 0,
                                "attributes" : {
                                  "ident" : "Rec 01-10-21"
                                },
                                "parameters" : {
                                  "cursorScale" : {
                                    "type" : "double",
                                    "defaultValue" : 0.0,
                                    "interp" : "linr"
                                  },
                                  "cursorOpacity" : {
                                    "type" : "double",
                                    "defaultValue" : 0.0,
                                    "interp" : "linr"
                                  }
                                },
                                "effects" : [

                                ],
                                "start" : 7160,
                                "duration" : 60,
                                "mediaStart" : 7641,
                                "mediaDuration" : 60,
                                "scalar" : 1,
                                "animationTracks" : {

                                }
                              },
                          "audio" : 
                              {
                                "id" : 518,
                                "_type" : "AMFile",
                                "src" : 1,
                                "trackNumber" : 1,
                                "attributes" : {
                                  "ident" : "",
                                  "gain" : 1.0,
                                  "mixToMono" : false
                                },
                                  "channelNumber" : "0,1",
                                "effects" : [

                                ],
                                "start" : 7160,
                                "duration" : 60,
                                "mediaStart" : 7641,
                                "mediaDuration" : 60,
                                "scalar" : 1,
                                "animationTracks" : {

                                }
                              }
,
                          "start" : 7160,
                          "duration" : 60,
                          "mediaStart" : 0,
                          "mediaDuration" : 25747,
                          "scalar" : 1,
                          "metadata" : {
                            "AutoAppliedSmartFocus" : "False",
                            "clipSpeedAttribute" : false
                          }
                        },
                        {
                          "id" : 519,
                          "_type" : "UnifiedMedia",
                          "video" : 
                              {
                                "id" : 520,
                                "_type" : "ScreenVMFile",
                                "src" : 1,
                                "trackNumber" : 0,
                                "attributes" : {
                                  "ident" : "Rec 01-10-21"
                                },
                                "parameters" : {
                                  "cursorScale" : {
                                    "type" : "double",
                                    "defaultValue" : 0.0,
                                    "interp" : "linr"
                                  },
                                  "cursorOpacity" : {
                                    "type" : "double",
                                    "defaultValue" : 0.0,
                                    "interp" : "linr"
                                  }
                                },
                                "effects" : [

                                ],
                                "start" : 7220,
                                "duration" : 36,
                                "mediaStart" : 7726,
                                "mediaDuration" : 36,
                                "scalar" : 1,
                                "animationTracks" : {

                                }
                              },
                          "audio" : 
                              {
                                "id" : 521,
                                "_type" : "AMFile",
                                "src" : 1,
                                "trackNumber" : 1,
                                "attributes" : {
                                  "ident" : "",
                                  "gain" : 1.0,
                                  "mixToMono" : false
                                },
                                  "channelNumber" : "0,1",
                                "effects" : [

                                ],
                                "start" : 7220,
                                "duration" : 36,
                                "mediaStart" : 7726,
                                "mediaDuration" : 36,
                                "scalar" : 1,
                                "animationTracks" : {

                                }
                              }
,
                          "start" : 7220,
                          "duration" : 36,
                          "mediaStart" : 0,
                          "mediaDuration" : 25747,
                          "scalar" : 1,
                          "metadata" : {
                            "AutoAppliedSmartFocus" : "False",
                            "clipSpeedAttribute" : false
                          }
                        },
                        {
                          "id" : 522,
                          "_type" : "UnifiedMedia",
                          "video" : 
                              {
                                "id" : 523,
                                "_type" : "ScreenVMFile",
                                "src" : 1,
                                "trackNumber" : 0,
                                "attributes" : {
                                  "ident" : "Rec 01-10-21"
                                },
                                "parameters" : {
                                  "cursorScale" : {
                                    "type" : "double",
                                    "defaultValue" : 0.0,
                                    "interp" : "linr"
                                  },
                                  "cursorOpacity" : {
                                    "type" : "double",
                                    "defaultValue" : 0.0,
                                    "interp" : "linr"
                                  }
                                },
                                "effects" : [

                                ],
                                "start" : 7256,
                                "duration" : 229,
                                "mediaStart" : 8018,
                                "mediaDuration" : 229,
                                "scalar" : 1,
                                "animationTracks" : {

                                }
                              },
                          "audio" : 
                              {
                                "id" : 524,
                                "_type" : "AMFile",
                                "src" : 1,
                                "trackNumber" : 1,
                                "attributes" : {
                                  "ident" : "",
                                  "gain" : 1.0,
                                  "mixToMono" : false
                                },
                                  "channelNumber" : "0,1",
                                "effects" : [

                                ],
                                "start" : 7256,
                                "duration" : 229,
                                "mediaStart" : 8018,
                                "mediaDuration" : 229,
                                "scalar" : 1,
                                "animationTracks" : {

                                }
                              }
,
                          "start" : 7256,
                          "duration" : 229,
                          "mediaStart" : 0,
                          "mediaDuration" : 25747,
                          "scalar" : 1,
                          "metadata" : {
                            "AutoAppliedSmartFocus" : "False",
                            "clipSpeedAttribute" : false
                          }
                        },
                        {
                          "id" : 525,
                          "_type" : "UnifiedMedia",
                          "video" : 
                              {
                                "id" : 526,
                                "_type" : "ScreenVMFile",
                                "src" : 1,
                                "trackNumber" : 0,
                                "attributes" : {
                                  "ident" : "Rec 01-10-21"
                                },
                                "parameters" : {
                                  "cursorScale" : {
                                    "type" : "double",
                                    "defaultValue" : 0.0,
                                    "interp" : "linr"
                                  },
                                  "cursorOpacity" : {
                                    "type" : "double",
                                    "defaultValue" : 0.0,
                                    "interp" : "linr"
                                  }
                                },
                                "effects" : [

                                ],
                                "start" : 7485,
                                "duration" : 115,
                                "mediaStart" : 8289,
                                "mediaDuration" : 115,
                                "scalar" : 1,
                                "animationTracks" : {

                                }
                              },
                          "audio" : 
                              {
                                "id" : 527,
                                "_type" : "AMFile",
                                "src" : 1,
                                "trackNumber" : 1,
                                "attributes" : {
                                  "ident" : "",
                                  "gain" : 1.0,
                                  "mixToMono" : false
                                },
                                  "channelNumber" : "0,1",
                                "effects" : [

                                ],
                                "start" : 7485,
                                "duration" : 115,
                                "mediaStart" : 8289,
                                "mediaDuration" : 115,
                                "scalar" : 1,
                                "animationTracks" : {

                                }
                              }
,
                          "start" : 7485,
                          "duration" : 115,
                          "mediaStart" : 0,
                          "mediaDuration" : 25747,
                          "scalar" : 1,
                          "metadata" : {
                            "AutoAppliedSmartFocus" : "False",
                            "clipSpeedAttribute" : false
                          }
                        },
                        {
                          "id" : 528,
                          "_type" : "UnifiedMedia",
                          "video" : 
                              {
                                "id" : 529,
                                "_type" : "ScreenVMFile",
                                "src" : 1,
                                "trackNumber" : 0,
                                "attributes" : {
                                  "ident" : "Rec 01-10-21"
                                },
                                "parameters" : {
                                  "cursorScale" : {
                                    "type" : "double",
                                    "defaultValue" : 0.0,
                                    "interp" : "linr"
                                  },
                                  "cursorOpacity" : {
                                    "type" : "double",
                                    "defaultValue" : 0.0,
                                    "interp" : "linr"
                                  }
                                },
                                "effects" : [

                                ],
                                "start" : 7600,
                                "duration" : 58,
                                "mediaStart" : 8711,
                                "mediaDuration" : 58,
                                "scalar" : 1,
                                "animationTracks" : {

                                }
                              },
                          "audio" : 
                              {
                                "id" : 530,
                                "_type" : "AMFile",
                                "src" : 1,
                                "trackNumber" : 1,
                                "attributes" : {
                                  "ident" : "",
                                  "gain" : 1.0,
                                  "mixToMono" : false
                                },
                                  "channelNumber" : "0,1",
                                "effects" : [

                                ],
                                "start" : 7600,
                                "duration" : 58,
                                "mediaStart" : 8711,
                                "mediaDuration" : 58,
                                "scalar" : 1,
                                "animationTracks" : {

                                }
                              }
,
                          "start" : 7600,
                          "duration" : 58,
                          "mediaStart" : 0,
                          "mediaDuration" : 25747,
                          "scalar" : 1,
                          "metadata" : {
                            "AutoAppliedSmartFocus" : "False",
                            "clipSpeedAttribute" : false
                          }
                        },
                        {
                          "id" : 531,
                          "_type" : "UnifiedMedia",
                          "video" : 
                              {
                                "id" : 532,
                                "_type" : "ScreenVMFile",
                                "src" : 1,
                                "trackNumber" : 0,
                                "attributes" : {
                                  "ident" : "Rec 01-10-21"
                                },
                                "parameters" : {
                                  "cursorScale" : {
                                    "type" : "double",
                                    "defaultValue" : 0.0,
                                    "interp" : "linr"
                                  },
                                  "cursorOpacity" : {
                                    "type" : "double",
                                    "defaultValue" : 0.0,
                                    "interp" : "linr"
                                  }
                                },
                                "effects" : [

                                ],
                                "start" : 7658,
                                "duration" : 45,
                                "mediaStart" : 8776,
                                "mediaDuration" : 45,
                                "scalar" : 1,
                                "animationTracks" : {

                                }
                              },
                          "audio" : 
                              {
                                "id" : 533,
                                "_type" : "AMFile",
                                "src" : 1,
                                "trackNumber" : 1,
                                "attributes" : {
                                  "ident" : "",
                                  "gain" : 1.0,
                                  "mixToMono" : false
                                },
                                  "channelNumber" : "0,1",
                                "effects" : [

                                ],
                                "start" : 7658,
                                "duration" : 45,
                                "mediaStart" : 8776,
                                "mediaDuration" : 45,
                                "scalar" : 1,
                                "animationTracks" : {

                                }
                              }
,
                          "start" : 7658,
                          "duration" : 45,
                          "mediaStart" : 0,
                          "mediaDuration" : 25747,
                          "scalar" : 1,
                          "metadata" : {
                            "AutoAppliedSmartFocus" : "False",
                            "clipSpeedAttribute" : false
                          }
                        },
                        {
                          "id" : 534,
                          "_type" : "UnifiedMedia",
                          "video" : 
                              {
                                "id" : 535,
                                "_type" : "ScreenVMFile",
                                "src" : 1,
                                "trackNumber" : 0,
                                "attributes" : {
                                  "ident" : "Rec 01-10-21"
                                },
                                "parameters" : {
                                  "cursorScale" : {
                                    "type" : "double",
                                    "defaultValue" : 0.0,
                                    "interp" : "linr"
                                  },
                                  "cursorOpacity" : {
                                    "type" : "double",
                                    "defaultValue" : 0.0,
                                    "interp" : "linr"
                                  }
                                },
                                "effects" : [

                                ],
                                "start" : 7703,
                                "duration" : 46,
                                "mediaStart" : 8841,
                                "mediaDuration" : 46,
                                "scalar" : 1,
                                "animationTracks" : {

                                }
                              },
                          "audio" : 
                              {
                                "id" : 536,
                                "_type" : "AMFile",
                                "src" : 1,
                                "trackNumber" : 1,
                                "attributes" : {
                                  "ident" : "",
                                  "gain" : 1.0,
                                  "mixToMono" : false
                                },
                                  "channelNumber" : "0,1",
                                "effects" : [

                                ],
                                "start" : 7703,
                                "duration" : 46,
                                "mediaStart" : 8841,
                                "mediaDuration" : 46,
                                "scalar" : 1,
                                "animationTracks" : {

                                }
                              }
,
                          "start" : 7703,
                          "duration" : 46,
                          "mediaStart" : 0,
                          "mediaDuration" : 25747,
                          "scalar" : 1,
                          "metadata" : {
                            "AutoAppliedSmartFocus" : "False",
                            "clipSpeedAttribute" : false
                          }
                        },
                        {
                          "id" : 537,
                          "_type" : "UnifiedMedia",
                          "video" : 
                              {
                                "id" : 538,
                                "_type" : "ScreenVMFile",
                                "src" : 1,
                                "trackNumber" : 0,
                                "attributes" : {
                                  "ident" : "Rec 01-10-21"
                                },
                                "parameters" : {
                                  "cursorScale" : {
                                    "type" : "double",
                                    "defaultValue" : 0.0,
                                    "interp" : "linr"
                                  },
                                  "cursorOpacity" : {
                                    "type" : "double",
                                    "defaultValue" : 0.0,
                                    "interp" : "linr"
                                  }
                                },
                                "effects" : [

                                ],
                                "start" : 7749,
                                "duration" : 1925,
                                "mediaStart" : 8937,
                                "mediaDuration" : 1925,
                                "scalar" : 1,
                                "animationTracks" : {

                                }
                              },
                          "audio" : 
                              {
                                "id" : 539,
                                "_type" : "AMFile",
                                "src" : 1,
                                "trackNumber" : 1,
                                "attributes" : {
                                  "ident" : "",
                                  "gain" : 1.0,
                                  "mixToMono" : false
                                },
                                  "channelNumber" : "0,1",
                                "effects" : [

                                ],
                                "start" : 7749,
                                "duration" : 1925,
                                "mediaStart" : 8937,
                                "mediaDuration" : 1925,
                                "scalar" : 1,
                                "animationTracks" : {

                                }
                              }
,
                          "start" : 7749,
                          "duration" : 1925,
                          "mediaStart" : 0,
                          "mediaDuration" : 25747,
                          "scalar" : 1,
                          "metadata" : {
                            "AutoAppliedSmartFocus" : "False",
                            "clipSpeedAttribute" : false
                          }
                        },
                        {
                          "id" : 540,
                          "_type" : "UnifiedMedia",
                          "video" : 
                              {
                                "id" : 541,
                                "_type" : "ScreenVMFile",
                                "src" : 1,
                                "trackNumber" : 0,
                                "attributes" : {
                                  "ident" : "Rec 01-10-21"
                                },
                                "parameters" : {
                                  "cursorScale" : {
                                    "type" : "double",
                                    "defaultValue" : 0.0,
                                    "interp" : "linr"
                                  },
                                  "cursorOpacity" : {
                                    "type" : "double",
                                    "defaultValue" : 0.0,
                                    "interp" : "linr"
                                  }
                                },
                                "effects" : [

                                ],
                                "start" : 9674,
                                "duration" : 322,
                                "mediaStart" : 10938,
                                "mediaDuration" : 322,
                                "scalar" : 1,
                                "animationTracks" : {

                                }
                              },
                          "audio" : 
                              {
                                "id" : 542,
                                "_type" : "AMFile",
                                "src" : 1,
                                "trackNumber" : 1,
                                "attributes" : {
                                  "ident" : "",
                                  "gain" : 1.0,
                                  "mixToMono" : false
                                },
                                  "channelNumber" : "0,1",
                                "effects" : [

                                ],
                                "start" : 9674,
                                "duration" : 322,
                                "mediaStart" : 10938,
                                "mediaDuration" : 322,
                                "scalar" : 1,
                                "animationTracks" : {

                                }
                              }
,
                          "start" : 9674,
                          "duration" : 322,
                          "mediaStart" : 0,
                          "mediaDuration" : 25747,
                          "scalar" : 1,
                          "metadata" : {
                            "AutoAppliedSmartFocus" : "False",
                            "clipSpeedAttribute" : false
                          }
                        },
                        {
                          "id" : 543,
                          "_type" : "UnifiedMedia",
                          "video" : 
                              {
                                "id" : 544,
                                "_type" : "ScreenVMFile",
                                "src" : 1,
                                "trackNumber" : 0,
                                "attributes" : {
                                  "ident" : "Rec 01-10-21"
                                },
                                "parameters" : {
                                  "cursorScale" : {
                                    "type" : "double",
                                    "defaultValue" : 0.0,
                                    "interp" : "linr"
                                  },
                                  "cursorOpacity" : {
                                    "type" : "double",
                                    "defaultValue" : 0.0,
                                    "interp" : "linr"
                                  }
                                },
                                "effects" : [

                                ],
                                "start" : 9996,
                                "duration" : 27,
                                "mediaStart" : 11328,
                                "mediaDuration" : 27,
                                "scalar" : 1,
                                "animationTracks" : {

                                }
                              },
                          "audio" : 
                              {
                                "id" : 545,
                                "_type" : "AMFile",
                                "src" : 1,
                                "trackNumber" : 1,
                                "attributes" : {
                                  "ident" : "",
                                  "gain" : 1.0,
                                  "mixToMono" : false
                                },
                                  "channelNumber" : "0,1",
                                "effects" : [

                                ],
                                "start" : 9996,
                                "duration" : 27,
                                "mediaStart" : 11328,
                                "mediaDuration" : 27,
                                "scalar" : 1,
                                "animationTracks" : {

                                }
                              }
,
                          "start" : 9996,
                          "duration" : 27,
                          "mediaStart" : 0,
                          "mediaDuration" : 25747,
                          "scalar" : 1,
                          "metadata" : {
                            "AutoAppliedSmartFocus" : "False",
                            "clipSpeedAttribute" : false
                          }
                        },
                        {
                          "id" : 546,
                          "_type" : "UnifiedMedia",
                          "video" : 
                              {
                                "id" : 547,
                                "_type" : "ScreenVMFile",
                                "src" : 1,
                                "trackNumber" : 0,
                                "attributes" : {
                                  "ident" : "Rec 01-10-21"
                                },
                                "parameters" : {
                                  "cursorScale" : {
                                    "type" : "double",
                                    "defaultValue" : 0.0,
                                    "interp" : "linr"
                                  },
                                  "cursorOpacity" : {
                                    "type" : "double",
                                    "defaultValue" : 0.0,
                                    "interp" : "linr"
                                  }
                                },
                                "effects" : [

                                ],
                                "start" : 10023,
                                "duration" : 119,
                                "mediaStart" : 11424,
                                "mediaDuration" : 119,
                                "scalar" : 1,
                                "animationTracks" : {

                                }
                              },
                          "audio" : 
                              {
                                "id" : 548,
                                "_type" : "AMFile",
                                "src" : 1,
                                "trackNumber" : 1,
                                "attributes" : {
                                  "ident" : "",
                                  "gain" : 1.0,
                                  "mixToMono" : false
                                },
                                  "channelNumber" : "0,1",
                                "effects" : [

                                ],
                                "start" : 10023,
                                "duration" : 119,
                                "mediaStart" : 11424,
                                "mediaDuration" : 119,
                                "scalar" : 1,
                                "animationTracks" : {

                                }
                              }
,
                          "start" : 10023,
                          "duration" : 119,
                          "mediaStart" : 0,
                          "mediaDuration" : 25747,
                          "scalar" : 1,
                          "metadata" : {
                            "AutoAppliedSmartFocus" : "False",
                            "clipSpeedAttribute" : false
                          }
                        },
                        {
                          "id" : 549,
                          "_type" : "UnifiedMedia",
                          "video" : 
                              {
                                "id" : 550,
                                "_type" : "ScreenVMFile",
                                "src" : 1,
                                "trackNumber" : 0,
                                "attributes" : {
                                  "ident" : "Rec 01-10-21"
                                },
                                "parameters" : {
                                  "cursorScale" : {
                                    "type" : "double",
                                    "defaultValue" : 0.0,
                                    "interp" : "linr"
                                  },
                                  "cursorOpacity" : {
                                    "type" : "double",
                                    "defaultValue" : 0.0,
                                    "interp" : "linr"
                                  }
                                },
                                "effects" : [

                                ],
                                "start" : 10142,
                                "duration" : 46,
                                "mediaStart" : 11727,
                                "mediaDuration" : 46,
                                "scalar" : 1,
                                "animationTracks" : {

                                }
                              },
                          "audio" : 
                              {
                                "id" : 551,
                                "_type" : "AMFile",
                                "src" : 1,
                                "trackNumber" : 1,
                                "attributes" : {
                                  "ident" : "",
                                  "gain" : 1.0,
                                  "mixToMono" : false
                                },
                                  "channelNumber" : "0,1",
                                "effects" : [

                                ],
                                "start" : 10142,
                                "duration" : 46,
                                "mediaStart" : 11727,
                                "mediaDuration" : 46,
                                "scalar" : 1,
                                "animationTracks" : {

                                }
                              }
,
                          "start" : 10142,
                          "duration" : 46,
                          "mediaStart" : 0,
                          "mediaDuration" : 25747,
                          "scalar" : 1,
                          "metadata" : {
                            "AutoAppliedSmartFocus" : "False",
                            "clipSpeedAttribute" : false
                          }
                        },
                        {
                          "id" : 552,
                          "_type" : "UnifiedMedia",
                          "video" : 
                              {
                                "id" : 553,
                                "_type" : "ScreenVMFile",
                                "src" : 1,
                                "trackNumber" : 0,
                                "attributes" : {
                                  "ident" : "Rec 01-10-21"
                                },
                                "parameters" : {
                                  "cursorScale" : {
                                    "type" : "double",
                                    "defaultValue" : 0.0,
                                    "interp" : "linr"
                                  },
                                  "cursorOpacity" : {
                                    "type" : "double",
                                    "defaultValue" : 0.0,
                                    "interp" : "linr"
                                  }
                                },
                                "effects" : [

                                ],
                                "start" : 10188,
                                "duration" : 13877,
                                "mediaStart" : 11870,
                                "mediaDuration" : 13877,
                                "scalar" : 1,
                                "animationTracks" : {

                                }
                              },
                          "audio" : 
                              {
                                "id" : 554,
                                "_type" : "AMFile",
                                "src" : 1,
                                "trackNumber" : 1,
                                "attributes" : {
                                  "ident" : "",
                                  "gain" : 1.0,
                                  "mixToMono" : false
                                },
                                  "channelNumber" : "0,1",
                                "effects" : [

                                ],
                                "start" : 10188,
                                "duration" : 13877,
                                "mediaStart" : 11870,
                                "mediaDuration" : 13877,
                                "scalar" : 1,
                                "animationTracks" : {

                                }
                              }
,
                          "start" : 10188,
                          "duration" : 13877,
                          "mediaStart" : 0,
                          "mediaDuration" : 25747,
                          "scalar" : 1,
                          "metadata" : {
                            "AutoAppliedSmartFocus" : "False",
                            "clipSpeedAttribute" : false
                          }
                        }
                    ],
                    "effects" : [

                    ],
                    "start" : 5923,
                    "duration" : 742,
                    "mediaStart" : 9533,
                    "mediaDuration" : 742,
                    "scalar" : 1,
                    "metadata" : {
                      "AutoAppliedSmartFocus" : "False",
                      "clipSpeedAttribute" : false
                    },
                    "animationTracks" : {

                    }
                  },
                  {
                    "id" : 555,
                    "_type" : "StitchedMedia",
                    "minMediaStart" : 0,
                    "attributes" : {
                      "ident" : "Rec 01-10-21",
                      "gain" : 0.3,
                      "mixToMono" : false
                    },
                    "parameters" : {
                      "volume" : 1.0,
                      "cursorOpacity" : {
                        "type" : "double",
                        "defaultValue" : 1.0,
                        "interp" : "linr"
                      },
                      "cursorScale" : {
                        "type" : "double",
                        "defaultValue" : 1.0,
                        "interp" : "linr"
                      }
                    },
                    "medias" : [
                        {
                          "id" : 556,
                          "_type" : "UnifiedMedia",
                          "video" : 
                              {
                                "id" : 557,
                                "_type" : "ScreenVMFile",
                                "src" : 1,
                                "trackNumber" : 0,
                                "attributes" : {
                                  "ident" : "Rec 01-10-21"
                                },
                                "parameters" : {
                                  "cursorScale" : {
                                    "type" : "double",
                                    "defaultValue" : 0.0,
                                    "interp" : "linr"
                                  },
                                  "cursorOpacity" : {
                                    "type" : "double",
                                    "defaultValue" : 0.0,
                                    "interp" : "linr"
                                  }
                                },
                                "effects" : [

                                ],
                                "start" : 0,
                                "duration" : 5487,
                                "mediaStart" : 0,
                                "mediaDuration" : 5487,
                                "scalar" : 1,
                                "animationTracks" : {

                                }
                              },
                          "audio" : 
                              {
                                "id" : 558,
                                "_type" : "AMFile",
                                "src" : 1,
                                "trackNumber" : 1,
                                "attributes" : {
                                  "ident" : "",
                                  "gain" : 1.0,
                                  "mixToMono" : false
                                },
                                  "channelNumber" : "0,1",
                                "effects" : [

                                ],
                                "start" : 0,
                                "duration" : 5487,
                                "mediaStart" : 0,
                                "mediaDuration" : 5487,
                                "scalar" : 1,
                                "animationTracks" : {

                                }
                              }
,
                          "start" : 0,
                          "duration" : 5487,
                          "mediaStart" : 0,
                          "mediaDuration" : 25747,
                          "scalar" : 1,
                          "metadata" : {
                            "AutoAppliedSmartFocus" : "False",
                            "clipSpeedAttribute" : false
                          }
                        },
                        {
                          "id" : 559,
                          "_type" : "UnifiedMedia",
                          "video" : 
                              {
                                "id" : 560,
                                "_type" : "ScreenVMFile",
                                "src" : 1,
                                "trackNumber" : 0,
                                "attributes" : {
                                  "ident" : "Rec 01-10-21"
                                },
                                "parameters" : {
                                  "cursorScale" : {
                                    "type" : "double",
                                    "defaultValue" : 0.0,
                                    "interp" : "linr"
                                  },
                                  "cursorOpacity" : {
                                    "type" : "double",
                                    "defaultValue" : 0.0,
                                    "interp" : "linr"
                                  }
                                },
                                "effects" : [

                                ],
                                "start" : 5487,
                                "duration" : 166,
                                "mediaStart" : 5498,
                                "mediaDuration" : 166,
                                "scalar" : 1,
                                "animationTracks" : {

                                }
                              },
                          "audio" : 
                              {
                                "id" : 561,
                                "_type" : "AMFile",
                                "src" : 1,
                                "trackNumber" : 1,
                                "attributes" : {
                                  "ident" : "",
                                  "gain" : 1.0,
                                  "mixToMono" : false
                                },
                                  "channelNumber" : "0,1",
                                "effects" : [

                                ],
                                "start" : 5487,
                                "duration" : 166,
                                "mediaStart" : 5498,
                                "mediaDuration" : 166,
                                "scalar" : 1,
                                "animationTracks" : {

                                }
                              }
,
                          "start" : 5487,
                          "duration" : 166,
                          "mediaStart" : 0,
                          "mediaDuration" : 25747,
                          "scalar" : 1,
                          "metadata" : {
                            "AutoAppliedSmartFocus" : "False",
                            "clipSpeedAttribute" : false
                          }
                        },
                        {
                          "id" : 562,
                          "_type" : "UnifiedMedia",
                          "video" : 
                              {
                                "id" : 563,
                                "_type" : "ScreenVMFile",
                                "src" : 1,
                                "trackNumber" : 0,
                                "attributes" : {
                                  "ident" : "Rec 01-10-21"
                                },
                                "parameters" : {
                                  "cursorScale" : {
                                    "type" : "double",
                                    "defaultValue" : 0.0,
                                    "interp" : "linr"
                                  },
                                  "cursorOpacity" : {
                                    "type" : "double",
                                    "defaultValue" : 0.0,
                                    "interp" : "linr"
                                  }
                                },
                                "effects" : [

                                ],
                                "start" : 5653,
                                "duration" : 739,
                                "mediaStart" : 5708,
                                "mediaDuration" : 739,
                                "scalar" : 1,
                                "animationTracks" : {

                                }
                              },
                          "audio" : 
                              {
                                "id" : 564,
                                "_type" : "AMFile",
                                "src" : 1,
                                "trackNumber" : 1,
                                "attributes" : {
                                  "ident" : "",
                                  "gain" : 1.0,
                                  "mixToMono" : false
                                },
                                  "channelNumber" : "0,1",
                                "effects" : [

                                ],
                                "start" : 5653,
                                "duration" : 739,
                                "mediaStart" : 5708,
                                "mediaDuration" : 739,
                                "scalar" : 1,
                                "animationTracks" : {

                                }
                              }
,
                          "start" : 5653,
                          "duration" : 739,
                          "mediaStart" : 0,
                          "mediaDuration" : 25747,
                          "scalar" : 1,
                          "metadata" : {
                            "AutoAppliedSmartFocus" : "False",
                            "clipSpeedAttribute" : false
                          }
                        },
                        {
                          "id" : 565,
                          "_type" : "UnifiedMedia",
                          "video" : 
                              {
                                "id" : 566,
                                "_type" : "ScreenVMFile",
                                "src" : 1,
                                "trackNumber" : 0,
                                "attributes" : {
                                  "ident" : "Rec 01-10-21"
                                },
                                "parameters" : {
                                  "cursorScale" : {
                                    "type" : "double",
                                    "defaultValue" : 0.0,
                                    "interp" : "linr"
                                  },
                                  "cursorOpacity" : {
                                    "type" : "double",
                                    "defaultValue" : 0.0,
                                    "interp" : "linr"
                                  }
                                },
                                "effects" : [

                                ],
                                "start" : 6392,
                                "duration" : 6,
                                "mediaStart" : 6482,
                                "mediaDuration" : 6,
                                "scalar" : 1,
                                "animationTracks" : {

                                }
                              },
                          "audio" : 
                              {
                                "id" : 567,
                                "_type" : "AMFile",
                                "src" : 1,
                                "trackNumber" : 1,
                                "attributes" : {
                                  "ident" : "",
                                  "gain" : 1.0,
                                  "mixToMono" : false
                                },
                                  "channelNumber" : "0,1",
                                "effects" : [

                                ],
                                "start" : 6392,
                                "duration" : 6,
                                "mediaStart" : 6482,
                                "mediaDuration" : 6,
                                "scalar" : 1,
                                "animationTracks" : {

                                }
                              }
,
                          "start" : 6392,
                          "duration" : 6,
                          "mediaStart" : 0,
                          "mediaDuration" : 25747,
                          "scalar" : 1,
                          "metadata" : {
                            "AutoAppliedSmartFocus" : "False",
                            "clipSpeedAttribute" : false
                          }
                        },
                        {
                          "id" : 568,
                          "_type" : "UnifiedMedia",
                          "video" : 
                              {
                                "id" : 569,
                                "_type" : "ScreenVMFile",
                                "src" : 1,
                                "trackNumber" : 0,
                                "attributes" : {
                                  "ident" : "Rec 01-10-21"
                                },
                                "parameters" : {
                                  "cursorScale" : {
                                    "type" : "double",
                                    "defaultValue" : 0.0,
                                    "interp" : "linr"
                                  },
                                  "cursorOpacity" : {
                                    "type" : "double",
                                    "defaultValue" : 0.0,
                                    "interp" : "linr"
                                  }
                                },
                                "effects" : [

                                ],
                                "start" : 6398,
                                "duration" : 340,
                                "mediaStart" : 6558,
                                "mediaDuration" : 340,
                                "scalar" : 1,
                                "animationTracks" : {

                                }
                              },
                          "audio" : 
                              {
                                "id" : 570,
                                "_type" : "AMFile",
                                "src" : 1,
                                "trackNumber" : 1,
                                "attributes" : {
                                  "ident" : "",
                                  "gain" : 1.0,
                                  "mixToMono" : false
                                },
                                  "channelNumber" : "0,1",
                                "effects" : [

                                ],
                                "start" : 6398,
                                "duration" : 340,
                                "mediaStart" : 6558,
                                "mediaDuration" : 340,
                                "scalar" : 1,
                                "animationTracks" : {

                                }
                              }
,
                          "start" : 6398,
                          "duration" : 340,
                          "mediaStart" : 0,
                          "mediaDuration" : 25747,
                          "scalar" : 1,
                          "metadata" : {
                            "AutoAppliedSmartFocus" : "False",
                            "clipSpeedAttribute" : false
                          }
                        },
                        {
                          "id" : 571,
                          "_type" : "UnifiedMedia",
                          "video" : 
                              {
                                "id" : 572,
                                "_type" : "ScreenVMFile",
                                "src" : 1,
                                "trackNumber" : 0,
                                "attributes" : {
                                  "ident" : "Rec 01-10-21"
                                },
                                "parameters" : {
                                  "cursorScale" : {
                                    "type" : "double",
                                    "defaultValue" : 0.0,
                                    "interp" : "linr"
                                  },
                                  "cursorOpacity" : {
                                    "type" : "double",
                                    "defaultValue" : 0.0,
                                    "interp" : "linr"
                                  }
                                },
                                "effects" : [

                                ],
                                "start" : 6738,
                                "duration" : 125,
                                "mediaStart" : 6983,
                                "mediaDuration" : 125,
                                "scalar" : 1,
                                "animationTracks" : {

                                }
                              },
                          "audio" : 
                              {
                                "id" : 573,
                                "_type" : "AMFile",
                                "src" : 1,
                                "trackNumber" : 1,
                                "attributes" : {
                                  "ident" : "",
                                  "gain" : 1.0,
                                  "mixToMono" : false
                                },
                                  "channelNumber" : "0,1",
                                "effects" : [

                                ],
                                "start" : 6738,
                                "duration" : 125,
                                "mediaStart" : 6983,
                                "mediaDuration" : 125,
                                "scalar" : 1,
                                "animationTracks" : {

                                }
                              }
,
                          "start" : 6738,
                          "duration" : 125,
                          "mediaStart" : 0,
                          "mediaDuration" : 25747,
                          "scalar" : 1,
                          "metadata" : {
                            "AutoAppliedSmartFocus" : "False",
                            "clipSpeedAttribute" : false
                          }
                        },
                        {
                          "id" : 574,
                          "_type" : "UnifiedMedia",
                          "video" : 
                              {
                                "id" : 575,
                                "_type" : "ScreenVMFile",
                                "src" : 1,
                                "trackNumber" : 0,
                                "attributes" : {
                                  "ident" : "Rec 01-10-21"
                                },
                                "parameters" : {
                                  "cursorScale" : {
                                    "type" : "double",
                                    "defaultValue" : 0.0,
                                    "interp" : "linr"
                                  },
                                  "cursorOpacity" : {
                                    "type" : "double",
                                    "defaultValue" : 0.0,
                                    "interp" : "linr"
                                  }
                                },
                                "effects" : [

                                ],
                                "start" : 6863,
                                "duration" : 297,
                                "mediaStart" : 7316,
                                "mediaDuration" : 297,
                                "scalar" : 1,
                                "animationTracks" : {

                                }
                              },
                          "audio" : 
                              {
                                "id" : 576,
                                "_type" : "AMFile",
                                "src" : 1,
                                "trackNumber" : 1,
                                "attributes" : {
                                  "ident" : "",
                                  "gain" : 1.0,
                                  "mixToMono" : false
                                },
                                  "channelNumber" : "0,1",
                                "effects" : [

                                ],
                                "start" : 6863,
                                "duration" : 297,
                                "mediaStart" : 7316,
                                "mediaDuration" : 297,
                                "scalar" : 1,
                                "animationTracks" : {

                                }
                              }
,
                          "start" : 6863,
                          "duration" : 297,
                          "mediaStart" : 0,
                          "mediaDuration" : 25747,
                          "scalar" : 1,
                          "metadata" : {
                            "AutoAppliedSmartFocus" : "False",
                            "clipSpeedAttribute" : false
                          }
                        },
                        {
                          "id" : 577,
                          "_type" : "UnifiedMedia",
                          "video" : 
                              {
                                "id" : 578,
                                "_type" : "ScreenVMFile",
                                "src" : 1,
                                "trackNumber" : 0,
                                "attributes" : {
                                  "ident" : "Rec 01-10-21"
                                },
                                "parameters" : {
                                  "cursorScale" : {
                                    "type" : "double",
                                    "defaultValue" : 0.0,
                                    "interp" : "linr"
                                  },
                                  "cursorOpacity" : {
                                    "type" : "double",
                                    "defaultValue" : 0.0,
                                    "interp" : "linr"
                                  }
                                },
                                "effects" : [

                                ],
                                "start" : 7160,
                                "duration" : 60,
                                "mediaStart" : 7641,
                                "mediaDuration" : 60,
                                "scalar" : 1,
                                "animationTracks" : {

                                }
                              },
                          "audio" : 
                              {
                                "id" : 579,
                                "_type" : "AMFile",
                                "src" : 1,
                                "trackNumber" : 1,
                                "attributes" : {
                                  "ident" : "",
                                  "gain" : 1.0,
                                  "mixToMono" : false
                                },
                                  "channelNumber" : "0,1",
                                "effects" : [

                                ],
                                "start" : 7160,
                                "duration" : 60,
                                "mediaStart" : 7641,
                                "mediaDuration" : 60,
                                "scalar" : 1,
                                "animationTracks" : {

                                }
                              }
,
                          "start" : 7160,
                          "duration" : 60,
                          "mediaStart" : 0,
                          "mediaDuration" : 25747,
                          "scalar" : 1,
                          "metadata" : {
                            "AutoAppliedSmartFocus" : "False",
                            "clipSpeedAttribute" : false
                          }
                        },
                        {
                          "id" : 580,
                          "_type" : "UnifiedMedia",
                          "video" : 
                              {
                                "id" : 581,
                                "_type" : "ScreenVMFile",
                                "src" : 1,
                                "trackNumber" : 0,
                                "attributes" : {
                                  "ident" : "Rec 01-10-21"
                                },
                                "parameters" : {
                                  "cursorScale" : {
                                    "type" : "double",
                                    "defaultValue" : 0.0,
                                    "interp" : "linr"
                                  },
                                  "cursorOpacity" : {
                                    "type" : "double",
                                    "defaultValue" : 0.0,
                                    "interp" : "linr"
                                  }
                                },
                                "effects" : [

                                ],
                                "start" : 7220,
                                "duration" : 36,
                                "mediaStart" : 7726,
                                "mediaDuration" : 36,
                                "scalar" : 1,
                                "animationTracks" : {

                                }
                              },
                          "audio" : 
                              {
                                "id" : 582,
                                "_type" : "AMFile",
                                "src" : 1,
                                "trackNumber" : 1,
                                "attributes" : {
                                  "ident" : "",
                                  "gain" : 1.0,
                                  "mixToMono" : false
                                },
                                  "channelNumber" : "0,1",
                                "effects" : [

                                ],
                                "start" : 7220,
                                "duration" : 36,
                                "mediaStart" : 7726,
                                "mediaDuration" : 36,
                                "scalar" : 1,
                                "animationTracks" : {

                                }
                              }
,
                          "start" : 7220,
                          "duration" : 36,
                          "mediaStart" : 0,
                          "mediaDuration" : 25747,
                          "scalar" : 1,
                          "metadata" : {
                            "AutoAppliedSmartFocus" : "False",
                            "clipSpeedAttribute" : false
                          }
                        },
                        {
                          "id" : 583,
                          "_type" : "UnifiedMedia",
                          "video" : 
                              {
                                "id" : 584,
                                "_type" : "ScreenVMFile",
                                "src" : 1,
                                "trackNumber" : 0,
                                "attributes" : {
                                  "ident" : "Rec 01-10-21"
                                },
                                "parameters" : {
                                  "cursorScale" : {
                                    "type" : "double",
                                    "defaultValue" : 0.0,
                                    "interp" : "linr"
                                  },
                                  "cursorOpacity" : {
                                    "type" : "double",
                                    "defaultValue" : 0.0,
                                    "interp" : "linr"
                                  }
                                },
                                "effects" : [

                                ],
                                "start" : 7256,
                                "duration" : 229,
                                "mediaStart" : 8018,
                                "mediaDuration" : 229,
                                "scalar" : 1,
                                "animationTracks" : {

                                }
                              },
                          "audio" : 
                              {
                                "id" : 585,
                                "_type" : "AMFile",
                                "src" : 1,
                                "trackNumber" : 1,
                                "attributes" : {
                                  "ident" : "",
                                  "gain" : 1.0,
                                  "mixToMono" : false
                                },
                                  "channelNumber" : "0,1",
                                "effects" : [

                                ],
                                "start" : 7256,
                                "duration" : 229,
                                "mediaStart" : 8018,
                                "mediaDuration" : 229,
                                "scalar" : 1,
                                "animationTracks" : {

                                }
                              }
,
                          "start" : 7256,
                          "duration" : 229,
                          "mediaStart" : 0,
                          "mediaDuration" : 25747,
                          "scalar" : 1,
                          "metadata" : {
                            "AutoAppliedSmartFocus" : "False",
                            "clipSpeedAttribute" : false
                          }
                        },
                        {
                          "id" : 586,
                          "_type" : "UnifiedMedia",
                          "video" : 
                              {
                                "id" : 587,
                                "_type" : "ScreenVMFile",
                                "src" : 1,
                                "trackNumber" : 0,
                                "attributes" : {
                                  "ident" : "Rec 01-10-21"
                                },
                                "parameters" : {
                                  "cursorScale" : {
                                    "type" : "double",
                                    "defaultValue" : 0.0,
                                    "interp" : "linr"
                                  },
                                  "cursorOpacity" : {
                                    "type" : "double",
                                    "defaultValue" : 0.0,
                                    "interp" : "linr"
                                  }
                                },
                                "effects" : [

                                ],
                                "start" : 7485,
                                "duration" : 115,
                                "mediaStart" : 8289,
                                "mediaDuration" : 115,
                                "scalar" : 1,
                                "animationTracks" : {

                                }
                              },
                          "audio" : 
                              {
                                "id" : 588,
                                "_type" : "AMFile",
                                "src" : 1,
                                "trackNumber" : 1,
                                "attributes" : {
                                  "ident" : "",
                                  "gain" : 1.0,
                                  "mixToMono" : false
                                },
                                  "channelNumber" : "0,1",
                                "effects" : [

                                ],
                                "start" : 7485,
                                "duration" : 115,
                                "mediaStart" : 8289,
                                "mediaDuration" : 115,
                                "scalar" : 1,
                                "animationTracks" : {

                                }
                              }
,
                          "start" : 7485,
                          "duration" : 115,
                          "mediaStart" : 0,
                          "mediaDuration" : 25747,
                          "scalar" : 1,
                          "metadata" : {
                            "AutoAppliedSmartFocus" : "False",
                            "clipSpeedAttribute" : false
                          }
                        },
                        {
                          "id" : 589,
                          "_type" : "UnifiedMedia",
                          "video" : 
                              {
                                "id" : 590,
                                "_type" : "ScreenVMFile",
                                "src" : 1,
                                "trackNumber" : 0,
                                "attributes" : {
                                  "ident" : "Rec 01-10-21"
                                },
                                "parameters" : {
                                  "cursorScale" : {
                                    "type" : "double",
                                    "defaultValue" : 0.0,
                                    "interp" : "linr"
                                  },
                                  "cursorOpacity" : {
                                    "type" : "double",
                                    "defaultValue" : 0.0,
                                    "interp" : "linr"
                                  }
                                },
                                "effects" : [

                                ],
                                "start" : 7600,
                                "duration" : 58,
                                "mediaStart" : 8711,
                                "mediaDuration" : 58,
                                "scalar" : 1,
                                "animationTracks" : {

                                }
                              },
                          "audio" : 
                              {
                                "id" : 591,
                                "_type" : "AMFile",
                                "src" : 1,
                                "trackNumber" : 1,
                                "attributes" : {
                                  "ident" : "",
                                  "gain" : 1.0,
                                  "mixToMono" : false
                                },
                                  "channelNumber" : "0,1",
                                "effects" : [

                                ],
                                "start" : 7600,
                                "duration" : 58,
                                "mediaStart" : 8711,
                                "mediaDuration" : 58,
                                "scalar" : 1,
                                "animationTracks" : {

                                }
                              }
,
                          "start" : 7600,
                          "duration" : 58,
                          "mediaStart" : 0,
                          "mediaDuration" : 25747,
                          "scalar" : 1,
                          "metadata" : {
                            "AutoAppliedSmartFocus" : "False",
                            "clipSpeedAttribute" : false
                          }
                        },
                        {
                          "id" : 592,
                          "_type" : "UnifiedMedia",
                          "video" : 
                              {
                                "id" : 593,
                                "_type" : "ScreenVMFile",
                                "src" : 1,
                                "trackNumber" : 0,
                                "attributes" : {
                                  "ident" : "Rec 01-10-21"
                                },
                                "parameters" : {
                                  "cursorScale" : {
                                    "type" : "double",
                                    "defaultValue" : 0.0,
                                    "interp" : "linr"
                                  },
                                  "cursorOpacity" : {
                                    "type" : "double",
                                    "defaultValue" : 0.0,
                                    "interp" : "linr"
                                  }
                                },
                                "effects" : [

                                ],
                                "start" : 7658,
                                "duration" : 45,
                                "mediaStart" : 8776,
                                "mediaDuration" : 45,
                                "scalar" : 1,
                                "animationTracks" : {

                                }
                              },
                          "audio" : 
                              {
                                "id" : 594,
                                "_type" : "AMFile",
                                "src" : 1,
                                "trackNumber" : 1,
                                "attributes" : {
                                  "ident" : "",
                                  "gain" : 1.0,
                                  "mixToMono" : false
                                },
                                  "channelNumber" : "0,1",
                                "effects" : [

                                ],
                                "start" : 7658,
                                "duration" : 45,
                                "mediaStart" : 8776,
                                "mediaDuration" : 45,
                                "scalar" : 1,
                                "animationTracks" : {

                                }
                              }
,
                          "start" : 7658,
                          "duration" : 45,
                          "mediaStart" : 0,
                          "mediaDuration" : 25747,
                          "scalar" : 1,
                          "metadata" : {
                            "AutoAppliedSmartFocus" : "False",
                            "clipSpeedAttribute" : false
                          }
                        },
                        {
                          "id" : 595,
                          "_type" : "UnifiedMedia",
                          "video" : 
                              {
                                "id" : 596,
                                "_type" : "ScreenVMFile",
                                "src" : 1,
                                "trackNumber" : 0,
                                "attributes" : {
                                  "ident" : "Rec 01-10-21"
                                },
                                "parameters" : {
                                  "cursorScale" : {
                                    "type" : "double",
                                    "defaultValue" : 0.0,
                                    "interp" : "linr"
                                  },
                                  "cursorOpacity" : {
                                    "type" : "double",
                                    "defaultValue" : 0.0,
                                    "interp" : "linr"
                                  }
                                },
                                "effects" : [

                                ],
                                "start" : 7703,
                                "duration" : 46,
                                "mediaStart" : 8841,
                                "mediaDuration" : 46,
                                "scalar" : 1,
                                "animationTracks" : {

                                }
                              },
                          "audio" : 
                              {
                                "id" : 597,
                                "_type" : "AMFile",
                                "src" : 1,
                                "trackNumber" : 1,
                                "attributes" : {
                                  "ident" : "",
                                  "gain" : 1.0,
                                  "mixToMono" : false
                                },
                                  "channelNumber" : "0,1",
                                "effects" : [

                                ],
                                "start" : 7703,
                                "duration" : 46,
                                "mediaStart" : 8841,
                                "mediaDuration" : 46,
                                "scalar" : 1,
                                "animationTracks" : {

                                }
                              }
,
                          "start" : 7703,
                          "duration" : 46,
                          "mediaStart" : 0,
                          "mediaDuration" : 25747,
                          "scalar" : 1,
                          "metadata" : {
                            "AutoAppliedSmartFocus" : "False",
                            "clipSpeedAttribute" : false
                          }
                        },
                        {
                          "id" : 598,
                          "_type" : "UnifiedMedia",
                          "video" : 
                              {
                                "id" : 599,
                                "_type" : "ScreenVMFile",
                                "src" : 1,
                                "trackNumber" : 0,
                                "attributes" : {
                                  "ident" : "Rec 01-10-21"
                                },
                                "parameters" : {
                                  "cursorScale" : {
                                    "type" : "double",
                                    "defaultValue" : 0.0,
                                    "interp" : "linr"
                                  },
                                  "cursorOpacity" : {
                                    "type" : "double",
                                    "defaultValue" : 0.0,
                                    "interp" : "linr"
                                  }
                                },
                                "effects" : [

                                ],
                                "start" : 7749,
                                "duration" : 1925,
                                "mediaStart" : 8937,
                                "mediaDuration" : 1925,
                                "scalar" : 1,
                                "animationTracks" : {

                                }
                              },
                          "audio" : 
                              {
                                "id" : 600,
                                "_type" : "AMFile",
                                "src" : 1,
                                "trackNumber" : 1,
                                "attributes" : {
                                  "ident" : "",
                                  "gain" : 1.0,
                                  "mixToMono" : false
                                },
                                  "channelNumber" : "0,1",
                                "effects" : [

                                ],
                                "start" : 7749,
                                "duration" : 1925,
                                "mediaStart" : 8937,
                                "mediaDuration" : 1925,
                                "scalar" : 1,
                                "animationTracks" : {

                                }
                              }
,
                          "start" : 7749,
                          "duration" : 1925,
                          "mediaStart" : 0,
                          "mediaDuration" : 25747,
                          "scalar" : 1,
                          "metadata" : {
                            "AutoAppliedSmartFocus" : "False",
                            "clipSpeedAttribute" : false
                          }
                        },
                        {
                          "id" : 601,
                          "_type" : "UnifiedMedia",
                          "video" : 
                              {
                                "id" : 602,
                                "_type" : "ScreenVMFile",
                                "src" : 1,
                                "trackNumber" : 0,
                                "attributes" : {
                                  "ident" : "Rec 01-10-21"
                                },
                                "parameters" : {
                                  "cursorScale" : {
                                    "type" : "double",
                                    "defaultValue" : 0.0,
                                    "interp" : "linr"
                                  },
                                  "cursorOpacity" : {
                                    "type" : "double",
                                    "defaultValue" : 0.0,
                                    "interp" : "linr"
                                  }
                                },
                                "effects" : [

                                ],
                                "start" : 9674,
                                "duration" : 322,
                                "mediaStart" : 10938,
                                "mediaDuration" : 322,
                                "scalar" : 1,
                                "animationTracks" : {

                                }
                              },
                          "audio" : 
                              {
                                "id" : 603,
                                "_type" : "AMFile",
                                "src" : 1,
                                "trackNumber" : 1,
                                "attributes" : {
                                  "ident" : "",
                                  "gain" : 1.0,
                                  "mixToMono" : false
                                },
                                  "channelNumber" : "0,1",
                                "effects" : [

                                ],
                                "start" : 9674,
                                "duration" : 322,
                                "mediaStart" : 10938,
                                "mediaDuration" : 322,
                                "scalar" : 1,
                                "animationTracks" : {

                                }
                              }
,
                          "start" : 9674,
                          "duration" : 322,
                          "mediaStart" : 0,
                          "mediaDuration" : 25747,
                          "scalar" : 1,
                          "metadata" : {
                            "AutoAppliedSmartFocus" : "False",
                            "clipSpeedAttribute" : false
                          }
                        },
                        {
                          "id" : 604,
                          "_type" : "UnifiedMedia",
                          "video" : 
                              {
                                "id" : 605,
                                "_type" : "ScreenVMFile",
                                "src" : 1,
                                "trackNumber" : 0,
                                "attributes" : {
                                  "ident" : "Rec 01-10-21"
                                },
                                "parameters" : {
                                  "cursorScale" : {
                                    "type" : "double",
                                    "defaultValue" : 0.0,
                                    "interp" : "linr"
                                  },
                                  "cursorOpacity" : {
                                    "type" : "double",
                                    "defaultValue" : 0.0,
                                    "interp" : "linr"
                                  }
                                },
                                "effects" : [

                                ],
                                "start" : 9996,
                                "duration" : 27,
                                "mediaStart" : 11328,
                                "mediaDuration" : 27,
                                "scalar" : 1,
                                "animationTracks" : {

                                }
                              },
                          "audio" : 
                              {
                                "id" : 606,
                                "_type" : "AMFile",
                                "src" : 1,
                                "trackNumber" : 1,
                                "attributes" : {
                                  "ident" : "",
                                  "gain" : 1.0,
                                  "mixToMono" : false
                                },
                                  "channelNumber" : "0,1",
                                "effects" : [

                                ],
                                "start" : 9996,
                                "duration" : 27,
                                "mediaStart" : 11328,
                                "mediaDuration" : 27,
                                "scalar" : 1,
                                "animationTracks" : {

                                }
                              }
,
                          "start" : 9996,
                          "duration" : 27,
                          "mediaStart" : 0,
                          "mediaDuration" : 25747,
                          "scalar" : 1,
                          "metadata" : {
                            "AutoAppliedSmartFocus" : "False",
                            "clipSpeedAttribute" : false
                          }
                        },
                        {
                          "id" : 607,
                          "_type" : "UnifiedMedia",
                          "video" : 
                              {
                                "id" : 608,
                                "_type" : "ScreenVMFile",
                                "src" : 1,
                                "trackNumber" : 0,
                                "attributes" : {
                                  "ident" : "Rec 01-10-21"
                                },
                                "parameters" : {
                                  "cursorScale" : {
                                    "type" : "double",
                                    "defaultValue" : 0.0,
                                    "interp" : "linr"
                                  },
                                  "cursorOpacity" : {
                                    "type" : "double",
                                    "defaultValue" : 0.0,
                                    "interp" : "linr"
                                  }
                                },
                                "effects" : [

                                ],
                                "start" : 10023,
                                "duration" : 119,
                                "mediaStart" : 11424,
                                "mediaDuration" : 119,
                                "scalar" : 1,
                                "animationTracks" : {

                                }
                              },
                          "audio" : 
                              {
                                "id" : 609,
                                "_type" : "AMFile",
                                "src" : 1,
                                "trackNumber" : 1,
                                "attributes" : {
                                  "ident" : "",
                                  "gain" : 1.0,
                                  "mixToMono" : false
                                },
                                  "channelNumber" : "0,1",
                                "effects" : [

                                ],
                                "start" : 10023,
                                "duration" : 119,
                                "mediaStart" : 11424,
                                "mediaDuration" : 119,
                                "scalar" : 1,
                                "animationTracks" : {

                                }
                              }
,
                          "start" : 10023,
                          "duration" : 119,
                          "mediaStart" : 0,
                          "mediaDuration" : 25747,
                          "scalar" : 1,
                          "metadata" : {
                            "AutoAppliedSmartFocus" : "False",
                            "clipSpeedAttribute" : false
                          }
                        },
                        {
                          "id" : 610,
                          "_type" : "UnifiedMedia",
                          "video" : 
                              {
                                "id" : 611,
                                "_type" : "ScreenVMFile",
                                "src" : 1,
                                "trackNumber" : 0,
                                "attributes" : {
                                  "ident" : "Rec 01-10-21"
                                },
                                "parameters" : {
                                  "cursorScale" : {
                                    "type" : "double",
                                    "defaultValue" : 0.0,
                                    "interp" : "linr"
                                  },
                                  "cursorOpacity" : {
                                    "type" : "double",
                                    "defaultValue" : 0.0,
                                    "interp" : "linr"
                                  }
                                },
                                "effects" : [

                                ],
                                "start" : 10142,
                                "duration" : 46,
                                "mediaStart" : 11727,
                                "mediaDuration" : 46,
                                "scalar" : 1,
                                "animationTracks" : {

                                }
                              },
                          "audio" : 
                              {
                                "id" : 612,
                                "_type" : "AMFile",
                                "src" : 1,
                                "trackNumber" : 1,
                                "attributes" : {
                                  "ident" : "",
                                  "gain" : 1.0,
                                  "mixToMono" : false
                                },
                                  "channelNumber" : "0,1",
                                "effects" : [

                                ],
                                "start" : 10142,
                                "duration" : 46,
                                "mediaStart" : 11727,
                                "mediaDuration" : 46,
                                "scalar" : 1,
                                "animationTracks" : {

                                }
                              }
,
                          "start" : 10142,
                          "duration" : 46,
                          "mediaStart" : 0,
                          "mediaDuration" : 25747,
                          "scalar" : 1,
                          "metadata" : {
                            "AutoAppliedSmartFocus" : "False",
                            "clipSpeedAttribute" : false
                          }
                        },
                        {
                          "id" : 613,
                          "_type" : "UnifiedMedia",
                          "video" : 
                              {
                                "id" : 614,
                                "_type" : "ScreenVMFile",
                                "src" : 1,
                                "trackNumber" : 0,
                                "attributes" : {
                                  "ident" : "Rec 01-10-21"
                                },
                                "parameters" : {
                                  "cursorScale" : {
                                    "type" : "double",
                                    "defaultValue" : 0.0,
                                    "interp" : "linr"
                                  },
                                  "cursorOpacity" : {
                                    "type" : "double",
                                    "defaultValue" : 0.0,
                                    "interp" : "linr"
                                  }
                                },
                                "effects" : [

                                ],
                                "start" : 10188,
                                "duration" : 13877,
                                "mediaStart" : 11870,
                                "mediaDuration" : 13877,
                                "scalar" : 1,
                                "animationTracks" : {

                                }
                              },
                          "audio" : 
                              {
                                "id" : 615,
                                "_type" : "AMFile",
                                "src" : 1,
                                "trackNumber" : 1,
                                "attributes" : {
                                  "ident" : "",
                                  "gain" : 1.0,
                                  "mixToMono" : false
                                },
                                  "channelNumber" : "0,1",
                                "effects" : [

                                ],
                                "start" : 10188,
                                "duration" : 13877,
                                "mediaStart" : 11870,
                                "mediaDuration" : 13877,
                                "scalar" : 1,
                                "animationTracks" : {

                                }
                              }
,
                          "start" : 10188,
                          "duration" : 13877,
                          "mediaStart" : 0,
                          "mediaDuration" : 25747,
                          "scalar" : 1,
                          "metadata" : {
                            "AutoAppliedSmartFocus" : "False",
                            "clipSpeedAttribute" : false
                          }
                        }
                    ],
                    "effects" : [

                    ],
                    "start" : 6665,
                    "duration" : 50,
                    "mediaStart" : 10302,
                    "mediaDuration" : 150,
                    "scalar" : "1/3",
                    "metadata" : {
                      "AutoAppliedSmartFocus" : "False",
                      "clipSpeedAttribute" : true
                    },
                    "animationTracks" : {

                    }
                  },
                  {
                    "id" : 616,
                    "_type" : "StitchedMedia",
                    "minMediaStart" : 0,
                    "attributes" : {
                      "ident" : "Rec 01-10-21",
                      "gain" : 1.0,
                      "mixToMono" : false
                    },
                    "parameters" : {
                      "volume" : 1.0,
                      "cursorOpacity" : {
                        "type" : "double",
                        "defaultValue" : 1.0,
                        "interp" : "linr"
                      },
                      "cursorScale" : {
                        "type" : "double",
                        "defaultValue" : 1.0,
                        "interp" : "linr"
                      }
                    },
                    "medias" : [
                        {
                          "id" : 617,
                          "_type" : "UnifiedMedia",
                          "video" : 
                              {
                                "id" : 618,
                                "_type" : "ScreenVMFile",
                                "src" : 1,
                                "trackNumber" : 0,
                                "attributes" : {
                                  "ident" : "Rec 01-10-21"
                                },
                                "parameters" : {
                                  "cursorScale" : {
                                    "type" : "double",
                                    "defaultValue" : 0.0,
                                    "interp" : "linr"
                                  },
                                  "cursorOpacity" : {
                                    "type" : "double",
                                    "defaultValue" : 0.0,
                                    "interp" : "linr"
                                  }
                                },
                                "effects" : [

                                ],
                                "start" : 0,
                                "duration" : 5487,
                                "mediaStart" : 0,
                                "mediaDuration" : 5487,
                                "scalar" : 1,
                                "animationTracks" : {

                                }
                              },
                          "audio" : 
                              {
                                "id" : 619,
                                "_type" : "AMFile",
                                "src" : 1,
                                "trackNumber" : 1,
                                "attributes" : {
                                  "ident" : "",
                                  "gain" : 1.0,
                                  "mixToMono" : false
                                },
                                  "channelNumber" : "0,1",
                                "effects" : [

                                ],
                                "start" : 0,
                                "duration" : 5487,
                                "mediaStart" : 0,
                                "mediaDuration" : 5487,
                                "scalar" : 1,
                                "animationTracks" : {

                                }
                              }
,
                          "start" : 0,
                          "duration" : 5487,
                          "mediaStart" : 0,
                          "mediaDuration" : 25747,
                          "scalar" : 1,
                          "metadata" : {
                            "AutoAppliedSmartFocus" : "False",
                            "clipSpeedAttribute" : false
                          }
                        },
                        {
                          "id" : 620,
                          "_type" : "UnifiedMedia",
                          "video" : 
                              {
                                "id" : 621,
                                "_type" : "ScreenVMFile",
                                "src" : 1,
                                "trackNumber" : 0,
                                "attributes" : {
                                  "ident" : "Rec 01-10-21"
                                },
                                "parameters" : {
                                  "cursorScale" : {
                                    "type" : "double",
                                    "defaultValue" : 0.0,
                                    "interp" : "linr"
                                  },
                                  "cursorOpacity" : {
                                    "type" : "double",
                                    "defaultValue" : 0.0,
                                    "interp" : "linr"
                                  }
                                },
                                "effects" : [

                                ],
                                "start" : 5487,
                                "duration" : 166,
                                "mediaStart" : 5498,
                                "mediaDuration" : 166,
                                "scalar" : 1,
                                "animationTracks" : {

                                }
                              },
                          "audio" : 
                              {
                                "id" : 622,
                                "_type" : "AMFile",
                                "src" : 1,
                                "trackNumber" : 1,
                                "attributes" : {
                                  "ident" : "",
                                  "gain" : 1.0,
                                  "mixToMono" : false
                                },
                                  "channelNumber" : "0,1",
                                "effects" : [

                                ],
                                "start" : 5487,
                                "duration" : 166,
                                "mediaStart" : 5498,
                                "mediaDuration" : 166,
                                "scalar" : 1,
                                "animationTracks" : {

                                }
                              }
,
                          "start" : 5487,
                          "duration" : 166,
                          "mediaStart" : 0,
                          "mediaDuration" : 25747,
                          "scalar" : 1,
                          "metadata" : {
                            "AutoAppliedSmartFocus" : "False",
                            "clipSpeedAttribute" : false
                          }
                        },
                        {
                          "id" : 623,
                          "_type" : "UnifiedMedia",
                          "video" : 
                              {
                                "id" : 624,
                                "_type" : "ScreenVMFile",
                                "src" : 1,
                                "trackNumber" : 0,
                                "attributes" : {
                                  "ident" : "Rec 01-10-21"
                                },
                                "parameters" : {
                                  "cursorScale" : {
                                    "type" : "double",
                                    "defaultValue" : 0.0,
                                    "interp" : "linr"
                                  },
                                  "cursorOpacity" : {
                                    "type" : "double",
                                    "defaultValue" : 0.0,
                                    "interp" : "linr"
                                  }
                                },
                                "effects" : [

                                ],
                                "start" : 5653,
                                "duration" : 739,
                                "mediaStart" : 5708,
                                "mediaDuration" : 739,
                                "scalar" : 1,
                                "animationTracks" : {

                                }
                              },
                          "audio" : 
                              {
                                "id" : 625,
                                "_type" : "AMFile",
                                "src" : 1,
                                "trackNumber" : 1,
                                "attributes" : {
                                  "ident" : "",
                                  "gain" : 1.0,
                                  "mixToMono" : false
                                },
                                  "channelNumber" : "0,1",
                                "effects" : [

                                ],
                                "start" : 5653,
                                "duration" : 739,
                                "mediaStart" : 5708,
                                "mediaDuration" : 739,
                                "scalar" : 1,
                                "animationTracks" : {

                                }
                              }
,
                          "start" : 5653,
                          "duration" : 739,
                          "mediaStart" : 0,
                          "mediaDuration" : 25747,
                          "scalar" : 1,
                          "metadata" : {
                            "AutoAppliedSmartFocus" : "False",
                            "clipSpeedAttribute" : false
                          }
                        },
                        {
                          "id" : 626,
                          "_type" : "UnifiedMedia",
                          "video" : 
                              {
                                "id" : 627,
                                "_type" : "ScreenVMFile",
                                "src" : 1,
                                "trackNumber" : 0,
                                "attributes" : {
                                  "ident" : "Rec 01-10-21"
                                },
                                "parameters" : {
                                  "cursorScale" : {
                                    "type" : "double",
                                    "defaultValue" : 0.0,
                                    "interp" : "linr"
                                  },
                                  "cursorOpacity" : {
                                    "type" : "double",
                                    "defaultValue" : 0.0,
                                    "interp" : "linr"
                                  }
                                },
                                "effects" : [

                                ],
                                "start" : 6392,
                                "duration" : 6,
                                "mediaStart" : 6482,
                                "mediaDuration" : 6,
                                "scalar" : 1,
                                "animationTracks" : {

                                }
                              },
                          "audio" : 
                              {
                                "id" : 628,
                                "_type" : "AMFile",
                                "src" : 1,
                                "trackNumber" : 1,
                                "attributes" : {
                                  "ident" : "",
                                  "gain" : 1.0,
                                  "mixToMono" : false
                                },
                                  "channelNumber" : "0,1",
                                "effects" : [

                                ],
                                "start" : 6392,
                                "duration" : 6,
                                "mediaStart" : 6482,
                                "mediaDuration" : 6,
                                "scalar" : 1,
                                "animationTracks" : {

                                }
                              }
,
                          "start" : 6392,
                          "duration" : 6,
                          "mediaStart" : 0,
                          "mediaDuration" : 25747,
                          "scalar" : 1,
                          "metadata" : {
                            "AutoAppliedSmartFocus" : "False",
                            "clipSpeedAttribute" : false
                          }
                        },
                        {
                          "id" : 629,
                          "_type" : "UnifiedMedia",
                          "video" : 
                              {
                                "id" : 630,
                                "_type" : "ScreenVMFile",
                                "src" : 1,
                                "trackNumber" : 0,
                                "attributes" : {
                                  "ident" : "Rec 01-10-21"
                                },
                                "parameters" : {
                                  "cursorScale" : {
                                    "type" : "double",
                                    "defaultValue" : 0.0,
                                    "interp" : "linr"
                                  },
                                  "cursorOpacity" : {
                                    "type" : "double",
                                    "defaultValue" : 0.0,
                                    "interp" : "linr"
                                  }
                                },
                                "effects" : [

                                ],
                                "start" : 6398,
                                "duration" : 340,
                                "mediaStart" : 6558,
                                "mediaDuration" : 340,
                                "scalar" : 1,
                                "animationTracks" : {

                                }
                              },
                          "audio" : 
                              {
                                "id" : 631,
                                "_type" : "AMFile",
                                "src" : 1,
                                "trackNumber" : 1,
                                "attributes" : {
                                  "ident" : "",
                                  "gain" : 1.0,
                                  "mixToMono" : false
                                },
                                  "channelNumber" : "0,1",
                                "effects" : [

                                ],
                                "start" : 6398,
                                "duration" : 340,
                                "mediaStart" : 6558,
                                "mediaDuration" : 340,
                                "scalar" : 1,
                                "animationTracks" : {

                                }
                              }
,
                          "start" : 6398,
                          "duration" : 340,
                          "mediaStart" : 0,
                          "mediaDuration" : 25747,
                          "scalar" : 1,
                          "metadata" : {
                            "AutoAppliedSmartFocus" : "False",
                            "clipSpeedAttribute" : false
                          }
                        },
                        {
                          "id" : 632,
                          "_type" : "UnifiedMedia",
                          "video" : 
                              {
                                "id" : 633,
                                "_type" : "ScreenVMFile",
                                "src" : 1,
                                "trackNumber" : 0,
                                "attributes" : {
                                  "ident" : "Rec 01-10-21"
                                },
                                "parameters" : {
                                  "cursorScale" : {
                                    "type" : "double",
                                    "defaultValue" : 0.0,
                                    "interp" : "linr"
                                  },
                                  "cursorOpacity" : {
                                    "type" : "double",
                                    "defaultValue" : 0.0,
                                    "interp" : "linr"
                                  }
                                },
                                "effects" : [

                                ],
                                "start" : 6738,
                                "duration" : 125,
                                "mediaStart" : 6983,
                                "mediaDuration" : 125,
                                "scalar" : 1,
                                "animationTracks" : {

                                }
                              },
                          "audio" : 
                              {
                                "id" : 634,
                                "_type" : "AMFile",
                                "src" : 1,
                                "trackNumber" : 1,
                                "attributes" : {
                                  "ident" : "",
                                  "gain" : 1.0,
                                  "mixToMono" : false
                                },
                                  "channelNumber" : "0,1",
                                "effects" : [

                                ],
                                "start" : 6738,
                                "duration" : 125,
                                "mediaStart" : 6983,
                                "mediaDuration" : 125,
                                "scalar" : 1,
                                "animationTracks" : {

                                }
                              }
,
                          "start" : 6738,
                          "duration" : 125,
                          "mediaStart" : 0,
                          "mediaDuration" : 25747,
                          "scalar" : 1,
                          "metadata" : {
                            "AutoAppliedSmartFocus" : "False",
                            "clipSpeedAttribute" : false
                          }
                        },
                        {
                          "id" : 635,
                          "_type" : "UnifiedMedia",
                          "video" : 
                              {
                                "id" : 636,
                                "_type" : "ScreenVMFile",
                                "src" : 1,
                                "trackNumber" : 0,
                                "attributes" : {
                                  "ident" : "Rec 01-10-21"
                                },
                                "parameters" : {
                                  "cursorScale" : {
                                    "type" : "double",
                                    "defaultValue" : 0.0,
                                    "interp" : "linr"
                                  },
                                  "cursorOpacity" : {
                                    "type" : "double",
                                    "defaultValue" : 0.0,
                                    "interp" : "linr"
                                  }
                                },
                                "effects" : [

                                ],
                                "start" : 6863,
                                "duration" : 297,
                                "mediaStart" : 7316,
                                "mediaDuration" : 297,
                                "scalar" : 1,
                                "animationTracks" : {

                                }
                              },
                          "audio" : 
                              {
                                "id" : 637,
                                "_type" : "AMFile",
                                "src" : 1,
                                "trackNumber" : 1,
                                "attributes" : {
                                  "ident" : "",
                                  "gain" : 1.0,
                                  "mixToMono" : false
                                },
                                  "channelNumber" : "0,1",
                                "effects" : [

                                ],
                                "start" : 6863,
                                "duration" : 297,
                                "mediaStart" : 7316,
                                "mediaDuration" : 297,
                                "scalar" : 1,
                                "animationTracks" : {

                                }
                              }
,
                          "start" : 6863,
                          "duration" : 297,
                          "mediaStart" : 0,
                          "mediaDuration" : 25747,
                          "scalar" : 1,
                          "metadata" : {
                            "AutoAppliedSmartFocus" : "False",
                            "clipSpeedAttribute" : false
                          }
                        },
                        {
                          "id" : 638,
                          "_type" : "UnifiedMedia",
                          "video" : 
                              {
                                "id" : 639,
                                "_type" : "ScreenVMFile",
                                "src" : 1,
                                "trackNumber" : 0,
                                "attributes" : {
                                  "ident" : "Rec 01-10-21"
                                },
                                "parameters" : {
                                  "cursorScale" : {
                                    "type" : "double",
                                    "defaultValue" : 0.0,
                                    "interp" : "linr"
                                  },
                                  "cursorOpacity" : {
                                    "type" : "double",
                                    "defaultValue" : 0.0,
                                    "interp" : "linr"
                                  }
                                },
                                "effects" : [

                                ],
                                "start" : 7160,
                                "duration" : 60,
                                "mediaStart" : 7641,
                                "mediaDuration" : 60,
                                "scalar" : 1,
                                "animationTracks" : {

                                }
                              },
                          "audio" : 
                              {
                                "id" : 640,
                                "_type" : "AMFile",
                                "src" : 1,
                                "trackNumber" : 1,
                                "attributes" : {
                                  "ident" : "",
                                  "gain" : 1.0,
                                  "mixToMono" : false
                                },
                                  "channelNumber" : "0,1",
                                "effects" : [

                                ],
                                "start" : 7160,
                                "duration" : 60,
                                "mediaStart" : 7641,
                                "mediaDuration" : 60,
                                "scalar" : 1,
                                "animationTracks" : {

                                }
                              }
,
                          "start" : 7160,
                          "duration" : 60,
                          "mediaStart" : 0,
                          "mediaDuration" : 25747,
                          "scalar" : 1,
                          "metadata" : {
                            "AutoAppliedSmartFocus" : "False",
                            "clipSpeedAttribute" : false
                          }
                        },
                        {
                          "id" : 641,
                          "_type" : "UnifiedMedia",
                          "video" : 
                              {
                                "id" : 642,
                                "_type" : "ScreenVMFile",
                                "src" : 1,
                                "trackNumber" : 0,
                                "attributes" : {
                                  "ident" : "Rec 01-10-21"
                                },
                                "parameters" : {
                                  "cursorScale" : {
                                    "type" : "double",
                                    "defaultValue" : 0.0,
                                    "interp" : "linr"
                                  },
                                  "cursorOpacity" : {
                                    "type" : "double",
                                    "defaultValue" : 0.0,
                                    "interp" : "linr"
                                  }
                                },
                                "effects" : [

                                ],
                                "start" : 7220,
                                "duration" : 36,
                                "mediaStart" : 7726,
                                "mediaDuration" : 36,
                                "scalar" : 1,
                                "animationTracks" : {

                                }
                              },
                          "audio" : 
                              {
                                "id" : 643,
                                "_type" : "AMFile",
                                "src" : 1,
                                "trackNumber" : 1,
                                "attributes" : {
                                  "ident" : "",
                                  "gain" : 1.0,
                                  "mixToMono" : false
                                },
                                  "channelNumber" : "0,1",
                                "effects" : [

                                ],
                                "start" : 7220,
                                "duration" : 36,
                                "mediaStart" : 7726,
                                "mediaDuration" : 36,
                                "scalar" : 1,
                                "animationTracks" : {

                                }
                              }
,
                          "start" : 7220,
                          "duration" : 36,
                          "mediaStart" : 0,
                          "mediaDuration" : 25747,
                          "scalar" : 1,
                          "metadata" : {
                            "AutoAppliedSmartFocus" : "False",
                            "clipSpeedAttribute" : false
                          }
                        },
                        {
                          "id" : 644,
                          "_type" : "UnifiedMedia",
                          "video" : 
                              {
                                "id" : 645,
                                "_type" : "ScreenVMFile",
                                "src" : 1,
                                "trackNumber" : 0,
                                "attributes" : {
                                  "ident" : "Rec 01-10-21"
                                },
                                "parameters" : {
                                  "cursorScale" : {
                                    "type" : "double",
                                    "defaultValue" : 0.0,
                                    "interp" : "linr"
                                  },
                                  "cursorOpacity" : {
                                    "type" : "double",
                                    "defaultValue" : 0.0,
                                    "interp" : "linr"
                                  }
                                },
                                "effects" : [

                                ],
                                "start" : 7256,
                                "duration" : 229,
                                "mediaStart" : 8018,
                                "mediaDuration" : 229,
                                "scalar" : 1,
                                "animationTracks" : {

                                }
                              },
                          "audio" : 
                              {
                                "id" : 646,
                                "_type" : "AMFile",
                                "src" : 1,
                                "trackNumber" : 1,
                                "attributes" : {
                                  "ident" : "",
                                  "gain" : 1.0,
                                  "mixToMono" : false
                                },
                                  "channelNumber" : "0,1",
                                "effects" : [

                                ],
                                "start" : 7256,
                                "duration" : 229,
                                "mediaStart" : 8018,
                                "mediaDuration" : 229,
                                "scalar" : 1,
                                "animationTracks" : {

                                }
                              }
,
                          "start" : 7256,
                          "duration" : 229,
                          "mediaStart" : 0,
                          "mediaDuration" : 25747,
                          "scalar" : 1,
                          "metadata" : {
                            "AutoAppliedSmartFocus" : "False",
                            "clipSpeedAttribute" : false
                          }
                        },
                        {
                          "id" : 647,
                          "_type" : "UnifiedMedia",
                          "video" : 
                              {
                                "id" : 648,
                                "_type" : "ScreenVMFile",
                                "src" : 1,
                                "trackNumber" : 0,
                                "attributes" : {
                                  "ident" : "Rec 01-10-21"
                                },
                                "parameters" : {
                                  "cursorScale" : {
                                    "type" : "double",
                                    "defaultValue" : 0.0,
                                    "interp" : "linr"
                                  },
                                  "cursorOpacity" : {
                                    "type" : "double",
                                    "defaultValue" : 0.0,
                                    "interp" : "linr"
                                  }
                                },
                                "effects" : [

                                ],
                                "start" : 7485,
                                "duration" : 115,
                                "mediaStart" : 8289,
                                "mediaDuration" : 115,
                                "scalar" : 1,
                                "animationTracks" : {

                                }
                              },
                          "audio" : 
                              {
                                "id" : 649,
                                "_type" : "AMFile",
                                "src" : 1,
                                "trackNumber" : 1,
                                "attributes" : {
                                  "ident" : "",
                                  "gain" : 1.0,
                                  "mixToMono" : false
                                },
                                  "channelNumber" : "0,1",
                                "effects" : [

                                ],
                                "start" : 7485,
                                "duration" : 115,
                                "mediaStart" : 8289,
                                "mediaDuration" : 115,
                                "scalar" : 1,
                                "animationTracks" : {

                                }
                              }
,
                          "start" : 7485,
                          "duration" : 115,
                          "mediaStart" : 0,
                          "mediaDuration" : 25747,
                          "scalar" : 1,
                          "metadata" : {
                            "AutoAppliedSmartFocus" : "False",
                            "clipSpeedAttribute" : false
                          }
                        },
                        {
                          "id" : 650,
                          "_type" : "UnifiedMedia",
                          "video" : 
                              {
                                "id" : 651,
                                "_type" : "ScreenVMFile",
                                "src" : 1,
                                "trackNumber" : 0,
                                "attributes" : {
                                  "ident" : "Rec 01-10-21"
                                },
                                "parameters" : {
                                  "cursorScale" : {
                                    "type" : "double",
                                    "defaultValue" : 0.0,
                                    "interp" : "linr"
                                  },
                                  "cursorOpacity" : {
                                    "type" : "double",
                                    "defaultValue" : 0.0,
                                    "interp" : "linr"
                                  }
                                },
                                "effects" : [

                                ],
                                "start" : 7600,
                                "duration" : 58,
                                "mediaStart" : 8711,
                                "mediaDuration" : 58,
                                "scalar" : 1,
                                "animationTracks" : {

                                }
                              },
                          "audio" : 
                              {
                                "id" : 652,
                                "_type" : "AMFile",
                                "src" : 1,
                                "trackNumber" : 1,
                                "attributes" : {
                                  "ident" : "",
                                  "gain" : 1.0,
                                  "mixToMono" : false
                                },
                                  "channelNumber" : "0,1",
                                "effects" : [

                                ],
                                "start" : 7600,
                                "duration" : 58,
                                "mediaStart" : 8711,
                                "mediaDuration" : 58,
                                "scalar" : 1,
                                "animationTracks" : {

                                }
                              }
,
                          "start" : 7600,
                          "duration" : 58,
                          "mediaStart" : 0,
                          "mediaDuration" : 25747,
                          "scalar" : 1,
                          "metadata" : {
                            "AutoAppliedSmartFocus" : "False",
                            "clipSpeedAttribute" : false
                          }
                        },
                        {
                          "id" : 653,
                          "_type" : "UnifiedMedia",
                          "video" : 
                              {
                                "id" : 654,
                                "_type" : "ScreenVMFile",
                                "src" : 1,
                                "trackNumber" : 0,
                                "attributes" : {
                                  "ident" : "Rec 01-10-21"
                                },
                                "parameters" : {
                                  "cursorScale" : {
                                    "type" : "double",
                                    "defaultValue" : 0.0,
                                    "interp" : "linr"
                                  },
                                  "cursorOpacity" : {
                                    "type" : "double",
                                    "defaultValue" : 0.0,
                                    "interp" : "linr"
                                  }
                                },
                                "effects" : [

                                ],
                                "start" : 7658,
                                "duration" : 45,
                                "mediaStart" : 8776,
                                "mediaDuration" : 45,
                                "scalar" : 1,
                                "animationTracks" : {

                                }
                              },
                          "audio" : 
                              {
                                "id" : 655,
                                "_type" : "AMFile",
                                "src" : 1,
                                "trackNumber" : 1,
                                "attributes" : {
                                  "ident" : "",
                                  "gain" : 1.0,
                                  "mixToMono" : false
                                },
                                  "channelNumber" : "0,1",
                                "effects" : [

                                ],
                                "start" : 7658,
                                "duration" : 45,
                                "mediaStart" : 8776,
                                "mediaDuration" : 45,
                                "scalar" : 1,
                                "animationTracks" : {

                                }
                              }
,
                          "start" : 7658,
                          "duration" : 45,
                          "mediaStart" : 0,
                          "mediaDuration" : 25747,
                          "scalar" : 1,
                          "metadata" : {
                            "AutoAppliedSmartFocus" : "False",
                            "clipSpeedAttribute" : false
                          }
                        },
                        {
                          "id" : 656,
                          "_type" : "UnifiedMedia",
                          "video" : 
                              {
                                "id" : 657,
                                "_type" : "ScreenVMFile",
                                "src" : 1,
                                "trackNumber" : 0,
                                "attributes" : {
                                  "ident" : "Rec 01-10-21"
                                },
                                "parameters" : {
                                  "cursorScale" : {
                                    "type" : "double",
                                    "defaultValue" : 0.0,
                                    "interp" : "linr"
                                  },
                                  "cursorOpacity" : {
                                    "type" : "double",
                                    "defaultValue" : 0.0,
                                    "interp" : "linr"
                                  }
                                },
                                "effects" : [

                                ],
                                "start" : 7703,
                                "duration" : 46,
                                "mediaStart" : 8841,
                                "mediaDuration" : 46,
                                "scalar" : 1,
                                "animationTracks" : {

                                }
                              },
                          "audio" : 
                              {
                                "id" : 658,
                                "_type" : "AMFile",
                                "src" : 1,
                                "trackNumber" : 1,
                                "attributes" : {
                                  "ident" : "",
                                  "gain" : 1.0,
                                  "mixToMono" : false
                                },
                                  "channelNumber" : "0,1",
                                "effects" : [

                                ],
                                "start" : 7703,
                                "duration" : 46,
                                "mediaStart" : 8841,
                                "mediaDuration" : 46,
                                "scalar" : 1,
                                "animationTracks" : {

                                }
                              }
,
                          "start" : 7703,
                          "duration" : 46,
                          "mediaStart" : 0,
                          "mediaDuration" : 25747,
                          "scalar" : 1,
                          "metadata" : {
                            "AutoAppliedSmartFocus" : "False",
                            "clipSpeedAttribute" : false
                          }
                        },
                        {
                          "id" : 659,
                          "_type" : "UnifiedMedia",
                          "video" : 
                              {
                                "id" : 660,
                                "_type" : "ScreenVMFile",
                                "src" : 1,
                                "trackNumber" : 0,
                                "attributes" : {
                                  "ident" : "Rec 01-10-21"
                                },
                                "parameters" : {
                                  "cursorScale" : {
                                    "type" : "double",
                                    "defaultValue" : 0.0,
                                    "interp" : "linr"
                                  },
                                  "cursorOpacity" : {
                                    "type" : "double",
                                    "defaultValue" : 0.0,
                                    "interp" : "linr"
                                  }
                                },
                                "effects" : [

                                ],
                                "start" : 7749,
                                "duration" : 1925,
                                "mediaStart" : 8937,
                                "mediaDuration" : 1925,
                                "scalar" : 1,
                                "animationTracks" : {

                                }
                              },
                          "audio" : 
                              {
                                "id" : 661,
                                "_type" : "AMFile",
                                "src" : 1,
                                "trackNumber" : 1,
                                "attributes" : {
                                  "ident" : "",
                                  "gain" : 1.0,
                                  "mixToMono" : false
                                },
                                  "channelNumber" : "0,1",
                                "effects" : [

                                ],
                                "start" : 7749,
                                "duration" : 1925,
                                "mediaStart" : 8937,
                                "mediaDuration" : 1925,
                                "scalar" : 1,
                                "animationTracks" : {

                                }
                              }
,
                          "start" : 7749,
                          "duration" : 1925,
                          "mediaStart" : 0,
                          "mediaDuration" : 25747,
                          "scalar" : 1,
                          "metadata" : {
                            "AutoAppliedSmartFocus" : "False",
                            "clipSpeedAttribute" : false
                          }
                        },
                        {
                          "id" : 662,
                          "_type" : "UnifiedMedia",
                          "video" : 
                              {
                                "id" : 663,
                                "_type" : "ScreenVMFile",
                                "src" : 1,
                                "trackNumber" : 0,
                                "attributes" : {
                                  "ident" : "Rec 01-10-21"
                                },
                                "parameters" : {
                                  "cursorScale" : {
                                    "type" : "double",
                                    "defaultValue" : 0.0,
                                    "interp" : "linr"
                                  },
                                  "cursorOpacity" : {
                                    "type" : "double",
                                    "defaultValue" : 0.0,
                                    "interp" : "linr"
                                  }
                                },
                                "effects" : [

                                ],
                                "start" : 9674,
                                "duration" : 322,
                                "mediaStart" : 10938,
                                "mediaDuration" : 322,
                                "scalar" : 1,
                                "animationTracks" : {

                                }
                              },
                          "audio" : 
                              {
                                "id" : 664,
                                "_type" : "AMFile",
                                "src" : 1,
                                "trackNumber" : 1,
                                "attributes" : {
                                  "ident" : "",
                                  "gain" : 1.0,
                                  "mixToMono" : false
                                },
                                  "channelNumber" : "0,1",
                                "effects" : [

                                ],
                                "start" : 9674,
                                "duration" : 322,
                                "mediaStart" : 10938,
                                "mediaDuration" : 322,
                                "scalar" : 1,
                                "animationTracks" : {

                                }
                              }
,
                          "start" : 9674,
                          "duration" : 322,
                          "mediaStart" : 0,
                          "mediaDuration" : 25747,
                          "scalar" : 1,
                          "metadata" : {
                            "AutoAppliedSmartFocus" : "False",
                            "clipSpeedAttribute" : false
                          }
                        },
                        {
                          "id" : 665,
                          "_type" : "UnifiedMedia",
                          "video" : 
                              {
                                "id" : 666,
                                "_type" : "ScreenVMFile",
                                "src" : 1,
                                "trackNumber" : 0,
                                "attributes" : {
                                  "ident" : "Rec 01-10-21"
                                },
                                "parameters" : {
                                  "cursorScale" : {
                                    "type" : "double",
                                    "defaultValue" : 0.0,
                                    "interp" : "linr"
                                  },
                                  "cursorOpacity" : {
                                    "type" : "double",
                                    "defaultValue" : 0.0,
                                    "interp" : "linr"
                                  }
                                },
                                "effects" : [

                                ],
                                "start" : 9996,
                                "duration" : 27,
                                "mediaStart" : 11328,
                                "mediaDuration" : 27,
                                "scalar" : 1,
                                "animationTracks" : {

                                }
                              },
                          "audio" : 
                              {
                                "id" : 667,
                                "_type" : "AMFile",
                                "src" : 1,
                                "trackNumber" : 1,
                                "attributes" : {
                                  "ident" : "",
                                  "gain" : 1.0,
                                  "mixToMono" : false
                                },
                                  "channelNumber" : "0,1",
                                "effects" : [

                                ],
                                "start" : 9996,
                                "duration" : 27,
                                "mediaStart" : 11328,
                                "mediaDuration" : 27,
                                "scalar" : 1,
                                "animationTracks" : {

                                }
                              }
,
                          "start" : 9996,
                          "duration" : 27,
                          "mediaStart" : 0,
                          "mediaDuration" : 25747,
                          "scalar" : 1,
                          "metadata" : {
                            "AutoAppliedSmartFocus" : "False",
                            "clipSpeedAttribute" : false
                          }
                        },
                        {
                          "id" : 668,
                          "_type" : "UnifiedMedia",
                          "video" : 
                              {
                                "id" : 669,
                                "_type" : "ScreenVMFile",
                                "src" : 1,
                                "trackNumber" : 0,
                                "attributes" : {
                                  "ident" : "Rec 01-10-21"
                                },
                                "parameters" : {
                                  "cursorScale" : {
                                    "type" : "double",
                                    "defaultValue" : 0.0,
                                    "interp" : "linr"
                                  },
                                  "cursorOpacity" : {
                                    "type" : "double",
                                    "defaultValue" : 0.0,
                                    "interp" : "linr"
                                  }
                                },
                                "effects" : [

                                ],
                                "start" : 10023,
                                "duration" : 119,
                                "mediaStart" : 11424,
                                "mediaDuration" : 119,
                                "scalar" : 1,
                                "animationTracks" : {

                                }
                              },
                          "audio" : 
                              {
                                "id" : 670,
                                "_type" : "AMFile",
                                "src" : 1,
                                "trackNumber" : 1,
                                "attributes" : {
                                  "ident" : "",
                                  "gain" : 1.0,
                                  "mixToMono" : false
                                },
                                  "channelNumber" : "0,1",
                                "effects" : [

                                ],
                                "start" : 10023,
                                "duration" : 119,
                                "mediaStart" : 11424,
                                "mediaDuration" : 119,
                                "scalar" : 1,
                                "animationTracks" : {

                                }
                              }
,
                          "start" : 10023,
                          "duration" : 119,
                          "mediaStart" : 0,
                          "mediaDuration" : 25747,
                          "scalar" : 1,
                          "metadata" : {
                            "AutoAppliedSmartFocus" : "False",
                            "clipSpeedAttribute" : false
                          }
                        },
                        {
                          "id" : 671,
                          "_type" : "UnifiedMedia",
                          "video" : 
                              {
                                "id" : 672,
                                "_type" : "ScreenVMFile",
                                "src" : 1,
                                "trackNumber" : 0,
                                "attributes" : {
                                  "ident" : "Rec 01-10-21"
                                },
                                "parameters" : {
                                  "cursorScale" : {
                                    "type" : "double",
                                    "defaultValue" : 0.0,
                                    "interp" : "linr"
                                  },
                                  "cursorOpacity" : {
                                    "type" : "double",
                                    "defaultValue" : 0.0,
                                    "interp" : "linr"
                                  }
                                },
                                "effects" : [

                                ],
                                "start" : 10142,
                                "duration" : 46,
                                "mediaStart" : 11727,
                                "mediaDuration" : 46,
                                "scalar" : 1,
                                "animationTracks" : {

                                }
                              },
                          "audio" : 
                              {
                                "id" : 673,
                                "_type" : "AMFile",
                                "src" : 1,
                                "trackNumber" : 1,
                                "attributes" : {
                                  "ident" : "",
                                  "gain" : 1.0,
                                  "mixToMono" : false
                                },
                                  "channelNumber" : "0,1",
                                "effects" : [

                                ],
                                "start" : 10142,
                                "duration" : 46,
                                "mediaStart" : 11727,
                                "mediaDuration" : 46,
                                "scalar" : 1,
                                "animationTracks" : {

                                }
                              }
,
                          "start" : 10142,
                          "duration" : 46,
                          "mediaStart" : 0,
                          "mediaDuration" : 25747,
                          "scalar" : 1,
                          "metadata" : {
                            "AutoAppliedSmartFocus" : "False",
                            "clipSpeedAttribute" : false
                          }
                        },
                        {
                          "id" : 674,
                          "_type" : "UnifiedMedia",
                          "video" : 
                              {
                                "id" : 675,
                                "_type" : "ScreenVMFile",
                                "src" : 1,
                                "trackNumber" : 0,
                                "attributes" : {
                                  "ident" : "Rec 01-10-21"
                                },
                                "parameters" : {
                                  "cursorScale" : {
                                    "type" : "double",
                                    "defaultValue" : 0.0,
                                    "interp" : "linr"
                                  },
                                  "cursorOpacity" : {
                                    "type" : "double",
                                    "defaultValue" : 0.0,
                                    "interp" : "linr"
                                  }
                                },
                                "effects" : [

                                ],
                                "start" : 10188,
                                "duration" : 13877,
                                "mediaStart" : 11870,
                                "mediaDuration" : 13877,
                                "scalar" : 1,
                                "animationTracks" : {

                                }
                              },
                          "audio" : 
                              {
                                "id" : 676,
                                "_type" : "AMFile",
                                "src" : 1,
                                "trackNumber" : 1,
                                "attributes" : {
                                  "ident" : "",
                                  "gain" : 1.0,
                                  "mixToMono" : false
                                },
                                  "channelNumber" : "0,1",
                                "effects" : [

                                ],
                                "start" : 10188,
                                "duration" : 13877,
                                "mediaStart" : 11870,
                                "mediaDuration" : 13877,
                                "scalar" : 1,
                                "animationTracks" : {

                                }
                              }
,
                          "start" : 10188,
                          "duration" : 13877,
                          "mediaStart" : 0,
                          "mediaDuration" : 25747,
                          "scalar" : 1,
                          "metadata" : {
                            "AutoAppliedSmartFocus" : "False",
                            "clipSpeedAttribute" : false
                          }
                        }
                    ],
                    "effects" : [

                    ],
                    "start" : 6715,
                    "duration" : 27,
                    "mediaStart" : 10275,
                    "mediaDuration" : 27,
                    "scalar" : 1,
                    "metadata" : {
                      "AutoAppliedSmartFocus" : "False",
                      "clipSpeedAttribute" : false
                    },
                    "animationTracks" : {

                    }
                  },
                  {
                    "id" : 677,
                    "_type" : "StitchedMedia",
                    "minMediaStart" : 0,
                    "attributes" : {
                      "ident" : "Rec 01-10-21",
                      "gain" : 1.0,
                      "mixToMono" : false
                    },
                    "parameters" : {
                      "volume" : 1.0,
                      "cursorOpacity" : 1.0,
                      "cursorScale" : 1.0
                    },
                    "medias" : [
                        {
                          "id" : 678,
                          "_type" : "UnifiedMedia",
                          "video" : 
                              {
                                "id" : 679,
                                "_type" : "ScreenVMFile",
                                "src" : 1,
                                "trackNumber" : 0,
                                "attributes" : {
                                  "ident" : "Rec 01-10-21"
                                },
                                "parameters" : {
                                  "cursorScale" : {
                                    "type" : "double",
                                    "defaultValue" : 0.0,
                                    "interp" : "linr"
                                  },
                                  "cursorOpacity" : {
                                    "type" : "double",
                                    "defaultValue" : 0.0,
                                    "interp" : "linr"
                                  }
                                },
                                "effects" : [

                                ],
                                "start" : 0,
                                "duration" : 5487,
                                "mediaStart" : 0,
                                "mediaDuration" : 5487,
                                "scalar" : 1,
                                "animationTracks" : {

                                }
                              },
                          "audio" : 
                              {
                                "id" : 680,
                                "_type" : "AMFile",
                                "src" : 1,
                                "trackNumber" : 1,
                                "attributes" : {
                                  "ident" : "",
                                  "gain" : 1.0,
                                  "mixToMono" : false
                                },
                                  "channelNumber" : "0,1",
                                "effects" : [

                                ],
                                "start" : 0,
                                "duration" : 5487,
                                "mediaStart" : 0,
                                "mediaDuration" : 5487,
                                "scalar" : 1,
                                "animationTracks" : {

                                }
                              }
,
                          "start" : 0,
                          "duration" : 5487,
                          "mediaStart" : 0,
                          "mediaDuration" : 25747,
                          "scalar" : 1,
                          "metadata" : {
                            "AutoAppliedSmartFocus" : "False",
                            "clipSpeedAttribute" : false
                          }
                        },
                        {
                          "id" : 681,
                          "_type" : "UnifiedMedia",
                          "video" : 
                              {
                                "id" : 682,
                                "_type" : "ScreenVMFile",
                                "src" : 1,
                                "trackNumber" : 0,
                                "attributes" : {
                                  "ident" : "Rec 01-10-21"
                                },
                                "parameters" : {
                                  "cursorScale" : {
                                    "type" : "double",
                                    "defaultValue" : 0.0,
                                    "interp" : "linr"
                                  },
                                  "cursorOpacity" : {
                                    "type" : "double",
                                    "defaultValue" : 0.0,
                                    "interp" : "linr"
                                  }
                                },
                                "effects" : [

                                ],
                                "start" : 5487,
                                "duration" : 166,
                                "mediaStart" : 5498,
                                "mediaDuration" : 166,
                                "scalar" : 1,
                                "animationTracks" : {

                                }
                              },
                          "audio" : 
                              {
                                "id" : 683,
                                "_type" : "AMFile",
                                "src" : 1,
                                "trackNumber" : 1,
                                "attributes" : {
                                  "ident" : "",
                                  "gain" : 1.0,
                                  "mixToMono" : false
                                },
                                  "channelNumber" : "0,1",
                                "effects" : [

                                ],
                                "start" : 5487,
                                "duration" : 166,
                                "mediaStart" : 5498,
                                "mediaDuration" : 166,
                                "scalar" : 1,
                                "animationTracks" : {

                                }
                              }
,
                          "start" : 5487,
                          "duration" : 166,
                          "mediaStart" : 0,
                          "mediaDuration" : 25747,
                          "scalar" : 1,
                          "metadata" : {
                            "AutoAppliedSmartFocus" : "False",
                            "clipSpeedAttribute" : false
                          }
                        },
                        {
                          "id" : 684,
                          "_type" : "UnifiedMedia",
                          "video" : 
                              {
                                "id" : 685,
                                "_type" : "ScreenVMFile",
                                "src" : 1,
                                "trackNumber" : 0,
                                "attributes" : {
                                  "ident" : "Rec 01-10-21"
                                },
                                "parameters" : {
                                  "cursorScale" : {
                                    "type" : "double",
                                    "defaultValue" : 0.0,
                                    "interp" : "linr"
                                  },
                                  "cursorOpacity" : {
                                    "type" : "double",
                                    "defaultValue" : 0.0,
                                    "interp" : "linr"
                                  }
                                },
                                "effects" : [

                                ],
                                "start" : 5653,
                                "duration" : 739,
                                "mediaStart" : 5708,
                                "mediaDuration" : 739,
                                "scalar" : 1,
                                "animationTracks" : {

                                }
                              },
                          "audio" : 
                              {
                                "id" : 686,
                                "_type" : "AMFile",
                                "src" : 1,
                                "trackNumber" : 1,
                                "attributes" : {
                                  "ident" : "",
                                  "gain" : 1.0,
                                  "mixToMono" : false
                                },
                                  "channelNumber" : "0,1",
                                "effects" : [

                                ],
                                "start" : 5653,
                                "duration" : 739,
                                "mediaStart" : 5708,
                                "mediaDuration" : 739,
                                "scalar" : 1,
                                "animationTracks" : {

                                }
                              }
,
                          "start" : 5653,
                          "duration" : 739,
                          "mediaStart" : 0,
                          "mediaDuration" : 25747,
                          "scalar" : 1,
                          "metadata" : {
                            "AutoAppliedSmartFocus" : "False",
                            "clipSpeedAttribute" : false
                          }
                        },
                        {
                          "id" : 687,
                          "_type" : "UnifiedMedia",
                          "video" : 
                              {
                                "id" : 688,
                                "_type" : "ScreenVMFile",
                                "src" : 1,
                                "trackNumber" : 0,
                                "attributes" : {
                                  "ident" : "Rec 01-10-21"
                                },
                                "parameters" : {
                                  "cursorScale" : {
                                    "type" : "double",
                                    "defaultValue" : 0.0,
                                    "interp" : "linr"
                                  },
                                  "cursorOpacity" : {
                                    "type" : "double",
                                    "defaultValue" : 0.0,
                                    "interp" : "linr"
                                  }
                                },
                                "effects" : [

                                ],
                                "start" : 6392,
                                "duration" : 6,
                                "mediaStart" : 6482,
                                "mediaDuration" : 6,
                                "scalar" : 1,
                                "animationTracks" : {

                                }
                              },
                          "audio" : 
                              {
                                "id" : 689,
                                "_type" : "AMFile",
                                "src" : 1,
                                "trackNumber" : 1,
                                "attributes" : {
                                  "ident" : "",
                                  "gain" : 1.0,
                                  "mixToMono" : false
                                },
                                  "channelNumber" : "0,1",
                                "effects" : [

                                ],
                                "start" : 6392,
                                "duration" : 6,
                                "mediaStart" : 6482,
                                "mediaDuration" : 6,
                                "scalar" : 1,
                                "animationTracks" : {

                                }
                              }
,
                          "start" : 6392,
                          "duration" : 6,
                          "mediaStart" : 0,
                          "mediaDuration" : 25747,
                          "scalar" : 1,
                          "metadata" : {
                            "AutoAppliedSmartFocus" : "False",
                            "clipSpeedAttribute" : false
                          }
                        },
                        {
                          "id" : 690,
                          "_type" : "UnifiedMedia",
                          "video" : 
                              {
                                "id" : 691,
                                "_type" : "ScreenVMFile",
                                "src" : 1,
                                "trackNumber" : 0,
                                "attributes" : {
                                  "ident" : "Rec 01-10-21"
                                },
                                "parameters" : {
                                  "cursorScale" : {
                                    "type" : "double",
                                    "defaultValue" : 0.0,
                                    "interp" : "linr"
                                  },
                                  "cursorOpacity" : {
                                    "type" : "double",
                                    "defaultValue" : 0.0,
                                    "interp" : "linr"
                                  }
                                },
                                "effects" : [

                                ],
                                "start" : 6398,
                                "duration" : 340,
                                "mediaStart" : 6558,
                                "mediaDuration" : 340,
                                "scalar" : 1,
                                "animationTracks" : {

                                }
                              },
                          "audio" : 
                              {
                                "id" : 692,
                                "_type" : "AMFile",
                                "src" : 1,
                                "trackNumber" : 1,
                                "attributes" : {
                                  "ident" : "",
                                  "gain" : 1.0,
                                  "mixToMono" : false
                                },
                                  "channelNumber" : "0,1",
                                "effects" : [

                                ],
                                "start" : 6398,
                                "duration" : 340,
                                "mediaStart" : 6558,
                                "mediaDuration" : 340,
                                "scalar" : 1,
                                "animationTracks" : {

                                }
                              }
,
                          "start" : 6398,
                          "duration" : 340,
                          "mediaStart" : 0,
                          "mediaDuration" : 25747,
                          "scalar" : 1,
                          "metadata" : {
                            "AutoAppliedSmartFocus" : "False",
                            "clipSpeedAttribute" : false
                          }
                        },
                        {
                          "id" : 693,
                          "_type" : "UnifiedMedia",
                          "video" : 
                              {
                                "id" : 694,
                                "_type" : "ScreenVMFile",
                                "src" : 1,
                                "trackNumber" : 0,
                                "attributes" : {
                                  "ident" : "Rec 01-10-21"
                                },
                                "parameters" : {
                                  "cursorScale" : {
                                    "type" : "double",
                                    "defaultValue" : 0.0,
                                    "interp" : "linr"
                                  },
                                  "cursorOpacity" : {
                                    "type" : "double",
                                    "defaultValue" : 0.0,
                                    "interp" : "linr"
                                  }
                                },
                                "effects" : [

                                ],
                                "start" : 6738,
                                "duration" : 125,
                                "mediaStart" : 6983,
                                "mediaDuration" : 125,
                                "scalar" : 1,
                                "animationTracks" : {

                                }
                              },
                          "audio" : 
                              {
                                "id" : 695,
                                "_type" : "AMFile",
                                "src" : 1,
                                "trackNumber" : 1,
                                "attributes" : {
                                  "ident" : "",
                                  "gain" : 1.0,
                                  "mixToMono" : false
                                },
                                  "channelNumber" : "0,1",
                                "effects" : [

                                ],
                                "start" : 6738,
                                "duration" : 125,
                                "mediaStart" : 6983,
                                "mediaDuration" : 125,
                                "scalar" : 1,
                                "animationTracks" : {

                                }
                              }
,
                          "start" : 6738,
                          "duration" : 125,
                          "mediaStart" : 0,
                          "mediaDuration" : 25747,
                          "scalar" : 1,
                          "metadata" : {
                            "AutoAppliedSmartFocus" : "False",
                            "clipSpeedAttribute" : false
                          }
                        },
                        {
                          "id" : 696,
                          "_type" : "UnifiedMedia",
                          "video" : 
                              {
                                "id" : 697,
                                "_type" : "ScreenVMFile",
                                "src" : 1,
                                "trackNumber" : 0,
                                "attributes" : {
                                  "ident" : "Rec 01-10-21"
                                },
                                "parameters" : {
                                  "cursorScale" : {
                                    "type" : "double",
                                    "defaultValue" : 0.0,
                                    "interp" : "linr"
                                  },
                                  "cursorOpacity" : {
                                    "type" : "double",
                                    "defaultValue" : 0.0,
                                    "interp" : "linr"
                                  }
                                },
                                "effects" : [

                                ],
                                "start" : 6863,
                                "duration" : 297,
                                "mediaStart" : 7316,
                                "mediaDuration" : 297,
                                "scalar" : 1,
                                "animationTracks" : {

                                }
                              },
                          "audio" : 
                              {
                                "id" : 698,
                                "_type" : "AMFile",
                                "src" : 1,
                                "trackNumber" : 1,
                                "attributes" : {
                                  "ident" : "",
                                  "gain" : 1.0,
                                  "mixToMono" : false
                                },
                                  "channelNumber" : "0,1",
                                "effects" : [

                                ],
                                "start" : 6863,
                                "duration" : 297,
                                "mediaStart" : 7316,
                                "mediaDuration" : 297,
                                "scalar" : 1,
                                "animationTracks" : {

                                }
                              }
,
                          "start" : 6863,
                          "duration" : 297,
                          "mediaStart" : 0,
                          "mediaDuration" : 25747,
                          "scalar" : 1,
                          "metadata" : {
                            "AutoAppliedSmartFocus" : "False",
                            "clipSpeedAttribute" : false
                          }
                        },
                        {
                          "id" : 699,
                          "_type" : "UnifiedMedia",
                          "video" : 
                              {
                                "id" : 700,
                                "_type" : "ScreenVMFile",
                                "src" : 1,
                                "trackNumber" : 0,
                                "attributes" : {
                                  "ident" : "Rec 01-10-21"
                                },
                                "parameters" : {
                                  "cursorScale" : {
                                    "type" : "double",
                                    "defaultValue" : 0.0,
                                    "interp" : "linr"
                                  },
                                  "cursorOpacity" : {
                                    "type" : "double",
                                    "defaultValue" : 0.0,
                                    "interp" : "linr"
                                  }
                                },
                                "effects" : [

                                ],
                                "start" : 7160,
                                "duration" : 60,
                                "mediaStart" : 7641,
                                "mediaDuration" : 60,
                                "scalar" : 1,
                                "animationTracks" : {

                                }
                              },
                          "audio" : 
                              {
                                "id" : 701,
                                "_type" : "AMFile",
                                "src" : 1,
                                "trackNumber" : 1,
                                "attributes" : {
                                  "ident" : "",
                                  "gain" : 1.0,
                                  "mixToMono" : false
                                },
                                  "channelNumber" : "0,1",
                                "effects" : [

                                ],
                                "start" : 7160,
                                "duration" : 60,
                                "mediaStart" : 7641,
                                "mediaDuration" : 60,
                                "scalar" : 1,
                                "animationTracks" : {

                                }
                              }
,
                          "start" : 7160,
                          "duration" : 60,
                          "mediaStart" : 0,
                          "mediaDuration" : 25747,
                          "scalar" : 1,
                          "metadata" : {
                            "AutoAppliedSmartFocus" : "False",
                            "clipSpeedAttribute" : false
                          }
                        },
                        {
                          "id" : 702,
                          "_type" : "UnifiedMedia",
                          "video" : 
                              {
                                "id" : 703,
                                "_type" : "ScreenVMFile",
                                "src" : 1,
                                "trackNumber" : 0,
                                "attributes" : {
                                  "ident" : "Rec 01-10-21"
                                },
                                "parameters" : {
                                  "cursorScale" : {
                                    "type" : "double",
                                    "defaultValue" : 0.0,
                                    "interp" : "linr"
                                  },
                                  "cursorOpacity" : {
                                    "type" : "double",
                                    "defaultValue" : 0.0,
                                    "interp" : "linr"
                                  }
                                },
                                "effects" : [

                                ],
                                "start" : 7220,
                                "duration" : 36,
                                "mediaStart" : 7726,
                                "mediaDuration" : 36,
                                "scalar" : 1,
                                "animationTracks" : {

                                }
                              },
                          "audio" : 
                              {
                                "id" : 704,
                                "_type" : "AMFile",
                                "src" : 1,
                                "trackNumber" : 1,
                                "attributes" : {
                                  "ident" : "",
                                  "gain" : 1.0,
                                  "mixToMono" : false
                                },
                                  "channelNumber" : "0,1",
                                "effects" : [

                                ],
                                "start" : 7220,
                                "duration" : 36,
                                "mediaStart" : 7726,
                                "mediaDuration" : 36,
                                "scalar" : 1,
                                "animationTracks" : {

                                }
                              }
,
                          "start" : 7220,
                          "duration" : 36,
                          "mediaStart" : 0,
                          "mediaDuration" : 25747,
                          "scalar" : 1,
                          "metadata" : {
                            "AutoAppliedSmartFocus" : "False",
                            "clipSpeedAttribute" : false
                          }
                        },
                        {
                          "id" : 705,
                          "_type" : "UnifiedMedia",
                          "video" : 
                              {
                                "id" : 706,
                                "_type" : "ScreenVMFile",
                                "src" : 1,
                                "trackNumber" : 0,
                                "attributes" : {
                                  "ident" : "Rec 01-10-21"
                                },
                                "parameters" : {
                                  "cursorScale" : {
                                    "type" : "double",
                                    "defaultValue" : 0.0,
                                    "interp" : "linr"
                                  },
                                  "cursorOpacity" : {
                                    "type" : "double",
                                    "defaultValue" : 0.0,
                                    "interp" : "linr"
                                  }
                                },
                                "effects" : [

                                ],
                                "start" : 7256,
                                "duration" : 229,
                                "mediaStart" : 8018,
                                "mediaDuration" : 229,
                                "scalar" : 1,
                                "animationTracks" : {

                                }
                              },
                          "audio" : 
                              {
                                "id" : 707,
                                "_type" : "AMFile",
                                "src" : 1,
                                "trackNumber" : 1,
                                "attributes" : {
                                  "ident" : "",
                                  "gain" : 1.0,
                                  "mixToMono" : false
                                },
                                  "channelNumber" : "0,1",
                                "effects" : [

                                ],
                                "start" : 7256,
                                "duration" : 229,
                                "mediaStart" : 8018,
                                "mediaDuration" : 229,
                                "scalar" : 1,
                                "animationTracks" : {

                                }
                              }
,
                          "start" : 7256,
                          "duration" : 229,
                          "mediaStart" : 0,
                          "mediaDuration" : 25747,
                          "scalar" : 1,
                          "metadata" : {
                            "AutoAppliedSmartFocus" : "False",
                            "clipSpeedAttribute" : false
                          }
                        },
                        {
                          "id" : 708,
                          "_type" : "UnifiedMedia",
                          "video" : 
                              {
                                "id" : 709,
                                "_type" : "ScreenVMFile",
                                "src" : 1,
                                "trackNumber" : 0,
                                "attributes" : {
                                  "ident" : "Rec 01-10-21"
                                },
                                "parameters" : {
                                  "cursorScale" : {
                                    "type" : "double",
                                    "defaultValue" : 0.0,
                                    "interp" : "linr"
                                  },
                                  "cursorOpacity" : {
                                    "type" : "double",
                                    "defaultValue" : 0.0,
                                    "interp" : "linr"
                                  }
                                },
                                "effects" : [

                                ],
                                "start" : 7485,
                                "duration" : 115,
                                "mediaStart" : 8289,
                                "mediaDuration" : 115,
                                "scalar" : 1,
                                "animationTracks" : {

                                }
                              },
                          "audio" : 
                              {
                                "id" : 710,
                                "_type" : "AMFile",
                                "src" : 1,
                                "trackNumber" : 1,
                                "attributes" : {
                                  "ident" : "",
                                  "gain" : 1.0,
                                  "mixToMono" : false
                                },
                                  "channelNumber" : "0,1",
                                "effects" : [

                                ],
                                "start" : 7485,
                                "duration" : 115,
                                "mediaStart" : 8289,
                                "mediaDuration" : 115,
                                "scalar" : 1,
                                "animationTracks" : {

                                }
                              }
,
                          "start" : 7485,
                          "duration" : 115,
                          "mediaStart" : 0,
                          "mediaDuration" : 25747,
                          "scalar" : 1,
                          "metadata" : {
                            "AutoAppliedSmartFocus" : "False",
                            "clipSpeedAttribute" : false
                          }
                        },
                        {
                          "id" : 711,
                          "_type" : "UnifiedMedia",
                          "video" : 
                              {
                                "id" : 712,
                                "_type" : "ScreenVMFile",
                                "src" : 1,
                                "trackNumber" : 0,
                                "attributes" : {
                                  "ident" : "Rec 01-10-21"
                                },
                                "parameters" : {
                                  "cursorScale" : {
                                    "type" : "double",
                                    "defaultValue" : 0.0,
                                    "interp" : "linr"
                                  },
                                  "cursorOpacity" : {
                                    "type" : "double",
                                    "defaultValue" : 0.0,
                                    "interp" : "linr"
                                  }
                                },
                                "effects" : [

                                ],
                                "start" : 7600,
                                "duration" : 58,
                                "mediaStart" : 8711,
                                "mediaDuration" : 58,
                                "scalar" : 1,
                                "animationTracks" : {

                                }
                              },
                          "audio" : 
                              {
                                "id" : 713,
                                "_type" : "AMFile",
                                "src" : 1,
                                "trackNumber" : 1,
                                "attributes" : {
                                  "ident" : "",
                                  "gain" : 1.0,
                                  "mixToMono" : false
                                },
                                  "channelNumber" : "0,1",
                                "effects" : [

                                ],
                                "start" : 7600,
                                "duration" : 58,
                                "mediaStart" : 8711,
                                "mediaDuration" : 58,
                                "scalar" : 1,
                                "animationTracks" : {

                                }
                              }
,
                          "start" : 7600,
                          "duration" : 58,
                          "mediaStart" : 0,
                          "mediaDuration" : 25747,
                          "scalar" : 1,
                          "metadata" : {
                            "AutoAppliedSmartFocus" : "False",
                            "clipSpeedAttribute" : false
                          }
                        },
                        {
                          "id" : 714,
                          "_type" : "UnifiedMedia",
                          "video" : 
                              {
                                "id" : 715,
                                "_type" : "ScreenVMFile",
                                "src" : 1,
                                "trackNumber" : 0,
                                "attributes" : {
                                  "ident" : "Rec 01-10-21"
                                },
                                "parameters" : {
                                  "cursorScale" : {
                                    "type" : "double",
                                    "defaultValue" : 0.0,
                                    "interp" : "linr"
                                  },
                                  "cursorOpacity" : {
                                    "type" : "double",
                                    "defaultValue" : 0.0,
                                    "interp" : "linr"
                                  }
                                },
                                "effects" : [

                                ],
                                "start" : 7658,
                                "duration" : 45,
                                "mediaStart" : 8776,
                                "mediaDuration" : 45,
                                "scalar" : 1,
                                "animationTracks" : {

                                }
                              },
                          "audio" : 
                              {
                                "id" : 716,
                                "_type" : "AMFile",
                                "src" : 1,
                                "trackNumber" : 1,
                                "attributes" : {
                                  "ident" : "",
                                  "gain" : 1.0,
                                  "mixToMono" : false
                                },
                                  "channelNumber" : "0,1",
                                "effects" : [

                                ],
                                "start" : 7658,
                                "duration" : 45,
                                "mediaStart" : 8776,
                                "mediaDuration" : 45,
                                "scalar" : 1,
                                "animationTracks" : {

                                }
                              }
,
                          "start" : 7658,
                          "duration" : 45,
                          "mediaStart" : 0,
                          "mediaDuration" : 25747,
                          "scalar" : 1,
                          "metadata" : {
                            "AutoAppliedSmartFocus" : "False",
                            "clipSpeedAttribute" : false
                          }
                        },
                        {
                          "id" : 717,
                          "_type" : "UnifiedMedia",
                          "video" : 
                              {
                                "id" : 718,
                                "_type" : "ScreenVMFile",
                                "src" : 1,
                                "trackNumber" : 0,
                                "attributes" : {
                                  "ident" : "Rec 01-10-21"
                                },
                                "parameters" : {
                                  "cursorScale" : {
                                    "type" : "double",
                                    "defaultValue" : 0.0,
                                    "interp" : "linr"
                                  },
                                  "cursorOpacity" : {
                                    "type" : "double",
                                    "defaultValue" : 0.0,
                                    "interp" : "linr"
                                  }
                                },
                                "effects" : [

                                ],
                                "start" : 7703,
                                "duration" : 46,
                                "mediaStart" : 8841,
                                "mediaDuration" : 46,
                                "scalar" : 1,
                                "animationTracks" : {

                                }
                              },
                          "audio" : 
                              {
                                "id" : 719,
                                "_type" : "AMFile",
                                "src" : 1,
                                "trackNumber" : 1,
                                "attributes" : {
                                  "ident" : "",
                                  "gain" : 1.0,
                                  "mixToMono" : false
                                },
                                  "channelNumber" : "0,1",
                                "effects" : [

                                ],
                                "start" : 7703,
                                "duration" : 46,
                                "mediaStart" : 8841,
                                "mediaDuration" : 46,
                                "scalar" : 1,
                                "animationTracks" : {

                                }
                              }
,
                          "start" : 7703,
                          "duration" : 46,
                          "mediaStart" : 0,
                          "mediaDuration" : 25747,
                          "scalar" : 1,
                          "metadata" : {
                            "AutoAppliedSmartFocus" : "False",
                            "clipSpeedAttribute" : false
                          }
                        },
                        {
                          "id" : 720,
                          "_type" : "UnifiedMedia",
                          "video" : 
                              {
                                "id" : 721,
                                "_type" : "ScreenVMFile",
                                "src" : 1,
                                "trackNumber" : 0,
                                "attributes" : {
                                  "ident" : "Rec 01-10-21"
                                },
                                "parameters" : {
                                  "cursorScale" : {
                                    "type" : "double",
                                    "defaultValue" : 0.0,
                                    "interp" : "linr"
                                  },
                                  "cursorOpacity" : {
                                    "type" : "double",
                                    "defaultValue" : 0.0,
                                    "interp" : "linr"
                                  }
                                },
                                "effects" : [

                                ],
                                "start" : 7749,
                                "duration" : 1925,
                                "mediaStart" : 8937,
                                "mediaDuration" : 1925,
                                "scalar" : 1,
                                "animationTracks" : {

                                }
                              },
                          "audio" : 
                              {
                                "id" : 722,
                                "_type" : "AMFile",
                                "src" : 1,
                                "trackNumber" : 1,
                                "attributes" : {
                                  "ident" : "",
                                  "gain" : 1.0,
                                  "mixToMono" : false
                                },
                                  "channelNumber" : "0,1",
                                "effects" : [

                                ],
                                "start" : 7749,
                                "duration" : 1925,
                                "mediaStart" : 8937,
                                "mediaDuration" : 1925,
                                "scalar" : 1,
                                "animationTracks" : {

                                }
                              }
,
                          "start" : 7749,
                          "duration" : 1925,
                          "mediaStart" : 0,
                          "mediaDuration" : 25747,
                          "scalar" : 1,
                          "metadata" : {
                            "AutoAppliedSmartFocus" : "False",
                            "clipSpeedAttribute" : false
                          }
                        },
                        {
                          "id" : 723,
                          "_type" : "UnifiedMedia",
                          "video" : 
                              {
                                "id" : 724,
                                "_type" : "ScreenVMFile",
                                "src" : 1,
                                "trackNumber" : 0,
                                "attributes" : {
                                  "ident" : "Rec 01-10-21"
                                },
                                "parameters" : {
                                  "cursorScale" : {
                                    "type" : "double",
                                    "defaultValue" : 0.0,
                                    "interp" : "linr"
                                  },
                                  "cursorOpacity" : {
                                    "type" : "double",
                                    "defaultValue" : 0.0,
                                    "interp" : "linr"
                                  }
                                },
                                "effects" : [

                                ],
                                "start" : 9674,
                                "duration" : 322,
                                "mediaStart" : 10938,
                                "mediaDuration" : 322,
                                "scalar" : 1,
                                "animationTracks" : {

                                }
                              },
                          "audio" : 
                              {
                                "id" : 725,
                                "_type" : "AMFile",
                                "src" : 1,
                                "trackNumber" : 1,
                                "attributes" : {
                                  "ident" : "",
                                  "gain" : 1.0,
                                  "mixToMono" : false
                                },
                                  "channelNumber" : "0,1",
                                "effects" : [

                                ],
                                "start" : 9674,
                                "duration" : 322,
                                "mediaStart" : 10938,
                                "mediaDuration" : 322,
                                "scalar" : 1,
                                "animationTracks" : {

                                }
                              }
,
                          "start" : 9674,
                          "duration" : 322,
                          "mediaStart" : 0,
                          "mediaDuration" : 25747,
                          "scalar" : 1,
                          "metadata" : {
                            "AutoAppliedSmartFocus" : "False",
                            "clipSpeedAttribute" : false
                          }
                        },
                        {
                          "id" : 726,
                          "_type" : "UnifiedMedia",
                          "video" : 
                              {
                                "id" : 727,
                                "_type" : "ScreenVMFile",
                                "src" : 1,
                                "trackNumber" : 0,
                                "attributes" : {
                                  "ident" : "Rec 01-10-21"
                                },
                                "parameters" : {
                                  "cursorScale" : {
                                    "type" : "double",
                                    "defaultValue" : 0.0,
                                    "interp" : "linr"
                                  },
                                  "cursorOpacity" : {
                                    "type" : "double",
                                    "defaultValue" : 0.0,
                                    "interp" : "linr"
                                  }
                                },
                                "effects" : [

                                ],
                                "start" : 9996,
                                "duration" : 27,
                                "mediaStart" : 11328,
                                "mediaDuration" : 27,
                                "scalar" : 1,
                                "animationTracks" : {

                                }
                              },
                          "audio" : 
                              {
                                "id" : 728,
                                "_type" : "AMFile",
                                "src" : 1,
                                "trackNumber" : 1,
                                "attributes" : {
                                  "ident" : "",
                                  "gain" : 1.0,
                                  "mixToMono" : false
                                },
                                  "channelNumber" : "0,1",
                                "effects" : [

                                ],
                                "start" : 9996,
                                "duration" : 27,
                                "mediaStart" : 11328,
                                "mediaDuration" : 27,
                                "scalar" : 1,
                                "animationTracks" : {

                                }
                              }
,
                          "start" : 9996,
                          "duration" : 27,
                          "mediaStart" : 0,
                          "mediaDuration" : 25747,
                          "scalar" : 1,
                          "metadata" : {
                            "AutoAppliedSmartFocus" : "False",
                            "clipSpeedAttribute" : false
                          }
                        },
                        {
                          "id" : 729,
                          "_type" : "UnifiedMedia",
                          "video" : 
                              {
                                "id" : 730,
                                "_type" : "ScreenVMFile",
                                "src" : 1,
                                "trackNumber" : 0,
                                "attributes" : {
                                  "ident" : "Rec 01-10-21"
                                },
                                "parameters" : {
                                  "cursorScale" : {
                                    "type" : "double",
                                    "defaultValue" : 0.0,
                                    "interp" : "linr"
                                  },
                                  "cursorOpacity" : {
                                    "type" : "double",
                                    "defaultValue" : 0.0,
                                    "interp" : "linr"
                                  }
                                },
                                "effects" : [

                                ],
                                "start" : 10023,
                                "duration" : 119,
                                "mediaStart" : 11424,
                                "mediaDuration" : 119,
                                "scalar" : 1,
                                "animationTracks" : {

                                }
                              },
                          "audio" : 
                              {
                                "id" : 731,
                                "_type" : "AMFile",
                                "src" : 1,
                                "trackNumber" : 1,
                                "attributes" : {
                                  "ident" : "",
                                  "gain" : 1.0,
                                  "mixToMono" : false
                                },
                                  "channelNumber" : "0,1",
                                "effects" : [

                                ],
                                "start" : 10023,
                                "duration" : 119,
                                "mediaStart" : 11424,
                                "mediaDuration" : 119,
                                "scalar" : 1,
                                "animationTracks" : {

                                }
                              }
,
                          "start" : 10023,
                          "duration" : 119,
                          "mediaStart" : 0,
                          "mediaDuration" : 25747,
                          "scalar" : 1,
                          "metadata" : {
                            "AutoAppliedSmartFocus" : "False",
                            "clipSpeedAttribute" : false
                          }
                        },
                        {
                          "id" : 732,
                          "_type" : "UnifiedMedia",
                          "video" : 
                              {
                                "id" : 733,
                                "_type" : "ScreenVMFile",
                                "src" : 1,
                                "trackNumber" : 0,
                                "attributes" : {
                                  "ident" : "Rec 01-10-21"
                                },
                                "parameters" : {
                                  "cursorScale" : {
                                    "type" : "double",
                                    "defaultValue" : 0.0,
                                    "interp" : "linr"
                                  },
                                  "cursorOpacity" : {
                                    "type" : "double",
                                    "defaultValue" : 0.0,
                                    "interp" : "linr"
                                  }
                                },
                                "effects" : [

                                ],
                                "start" : 10142,
                                "duration" : 46,
                                "mediaStart" : 11727,
                                "mediaDuration" : 46,
                                "scalar" : 1,
                                "animationTracks" : {

                                }
                              },
                          "audio" : 
                              {
                                "id" : 734,
                                "_type" : "AMFile",
                                "src" : 1,
                                "trackNumber" : 1,
                                "attributes" : {
                                  "ident" : "",
                                  "gain" : 1.0,
                                  "mixToMono" : false
                                },
                                  "channelNumber" : "0,1",
                                "effects" : [

                                ],
                                "start" : 10142,
                                "duration" : 46,
                                "mediaStart" : 11727,
                                "mediaDuration" : 46,
                                "scalar" : 1,
                                "animationTracks" : {

                                }
                              }
,
                          "start" : 10142,
                          "duration" : 46,
                          "mediaStart" : 0,
                          "mediaDuration" : 25747,
                          "scalar" : 1,
                          "metadata" : {
                            "AutoAppliedSmartFocus" : "False",
                            "clipSpeedAttribute" : false
                          }
                        },
                        {
                          "id" : 735,
                          "_type" : "UnifiedMedia",
                          "video" : 
                              {
                                "id" : 736,
                                "_type" : "ScreenVMFile",
                                "src" : 1,
                                "trackNumber" : 0,
                                "attributes" : {
                                  "ident" : "Rec 01-10-21"
                                },
                                "parameters" : {
                                  "cursorScale" : {
                                    "type" : "double",
                                    "defaultValue" : 0.0,
                                    "interp" : "linr"
                                  },
                                  "cursorOpacity" : {
                                    "type" : "double",
                                    "defaultValue" : 0.0,
                                    "interp" : "linr"
                                  }
                                },
                                "effects" : [

                                ],
                                "start" : 10188,
                                "duration" : 461,
                                "mediaStart" : 11870,
                                "mediaDuration" : 461,
                                "scalar" : 1,
                                "animationTracks" : {

                                }
                              },
                          "audio" : 
                              {
                                "id" : 737,
                                "_type" : "AMFile",
                                "src" : 1,
                                "trackNumber" : 1,
                                "attributes" : {
                                  "ident" : "",
                                  "gain" : 1.0,
                                  "mixToMono" : false
                                },
                                  "channelNumber" : "0,1",
                                "effects" : [

                                ],
                                "start" : 10188,
                                "duration" : 461,
                                "mediaStart" : 11870,
                                "mediaDuration" : 461,
                                "scalar" : 1,
                                "animationTracks" : {

                                }
                              }
,
                          "start" : 10188,
                          "duration" : 461,
                          "mediaStart" : 0,
                          "mediaDuration" : 25747,
                          "scalar" : 1,
                          "metadata" : {
                            "AutoAppliedSmartFocus" : "False",
                            "clipSpeedAttribute" : false
                          }
                        },
                        {
                          "id" : 738,
                          "_type" : "UnifiedMedia",
                          "video" : 
                              {
                                "id" : 739,
                                "_type" : "ScreenVMFile",
                                "src" : 1,
                                "trackNumber" : 0,
                                "attributes" : {
                                  "ident" : "Rec 01-10-21"
                                },
                                "parameters" : {
                                  "cursorScale" : {
                                    "type" : "double",
                                    "defaultValue" : 0.0,
                                    "interp" : "linr"
                                  },
                                  "cursorOpacity" : {
                                    "type" : "double",
                                    "defaultValue" : 0.0,
                                    "interp" : "linr"
                                  }
                                },
                                "effects" : [

                                ],
                                "start" : 10649,
                                "duration" : 73,
                                "mediaStart" : 12767,
                                "mediaDuration" : 73,
                                "scalar" : 1,
                                "animationTracks" : {

                                }
                              },
                          "audio" : 
                              {
                                "id" : 740,
                                "_type" : "AMFile",
                                "src" : 1,
                                "trackNumber" : 1,
                                "attributes" : {
                                  "ident" : "",
                                  "gain" : 1.0,
                                  "mixToMono" : false
                                },
                                  "channelNumber" : "0,1",
                                "effects" : [

                                ],
                                "start" : 10649,
                                "duration" : 73,
                                "mediaStart" : 12767,
                                "mediaDuration" : 73,
                                "scalar" : 1,
                                "animationTracks" : {

                                }
                              }
,
                          "start" : 10649,
                          "duration" : 73,
                          "mediaStart" : 0,
                          "mediaDuration" : 25747,
                          "scalar" : 1,
                          "metadata" : {
                            "AutoAppliedSmartFocus" : "False",
                            "clipSpeedAttribute" : false
                          }
                        },
                        {
                          "id" : 741,
                          "_type" : "UnifiedMedia",
                          "video" : 
                              {
                                "id" : 742,
                                "_type" : "ScreenVMFile",
                                "src" : 1,
                                "trackNumber" : 0,
                                "attributes" : {
                                  "ident" : "Rec 01-10-21"
                                },
                                "parameters" : {
                                  "cursorScale" : {
                                    "type" : "double",
                                    "defaultValue" : 0.0,
                                    "interp" : "linr"
                                  },
                                  "cursorOpacity" : {
                                    "type" : "double",
                                    "defaultValue" : 0.0,
                                    "interp" : "linr"
                                  }
                                },
                                "effects" : [

                                ],
                                "start" : 10722,
                                "duration" : 166,
                                "mediaStart" : 13215,
                                "mediaDuration" : 166,
                                "scalar" : 1,
                                "animationTracks" : {

                                }
                              },
                          "audio" : 
                              {
                                "id" : 743,
                                "_type" : "AMFile",
                                "src" : 1,
                                "trackNumber" : 1,
                                "attributes" : {
                                  "ident" : "",
                                  "gain" : 1.0,
                                  "mixToMono" : false
                                },
                                  "channelNumber" : "0,1",
                                "effects" : [

                                ],
                                "start" : 10722,
                                "duration" : 166,
                                "mediaStart" : 13215,
                                "mediaDuration" : 166,
                                "scalar" : 1,
                                "animationTracks" : {

                                }
                              }
,
                          "start" : 10722,
                          "duration" : 166,
                          "mediaStart" : 0,
                          "mediaDuration" : 25747,
                          "scalar" : 1,
                          "metadata" : {
                            "AutoAppliedSmartFocus" : "False",
                            "clipSpeedAttribute" : false
                          }
                        },
                        {
                          "id" : 744,
                          "_type" : "UnifiedMedia",
                          "video" : 
                              {
                                "id" : 745,
                                "_type" : "ScreenVMFile",
                                "src" : 1,
                                "trackNumber" : 0,
                                "attributes" : {
                                  "ident" : "Rec 01-10-21"
                                },
                                "parameters" : {
                                  "cursorScale" : {
                                    "type" : "double",
                                    "defaultValue" : 0.0,
                                    "interp" : "linr"
                                  },
                                  "cursorOpacity" : {
                                    "type" : "double",
                                    "defaultValue" : 0.0,
                                    "interp" : "linr"
                                  }
                                },
                                "effects" : [

                                ],
                                "start" : 10888,
                                "duration" : 12350,
                                "mediaStart" : 13397,
                                "mediaDuration" : 12350,
                                "scalar" : 1,
                                "animationTracks" : {

                                }
                              },
                          "audio" : 
                              {
                                "id" : 746,
                                "_type" : "AMFile",
                                "src" : 1,
                                "trackNumber" : 1,
                                "attributes" : {
                                  "ident" : "",
                                  "gain" : 1.0,
                                  "mixToMono" : false
                                },
                                  "channelNumber" : "0,1",
                                "effects" : [

                                ],
                                "start" : 10888,
                                "duration" : 12350,
                                "mediaStart" : 13397,
                                "mediaDuration" : 12350,
                                "scalar" : 1,
                                "animationTracks" : {

                                }
                              }
,
                          "start" : 10888,
                          "duration" : 12350,
                          "mediaStart" : 0,
                          "mediaDuration" : 25747,
                          "scalar" : 1,
                          "metadata" : {
                            "AutoAppliedSmartFocus" : "False",
                            "clipSpeedAttribute" : false
                          }
                        }
                    ],
                    "effects" : [

                    ],
                    "start" : 6742,
                    "duration" : 453,
                    "mediaStart" : 10452,
                    "mediaDuration" : 453,
                    "scalar" : 1,
                    "metadata" : {
                      "AutoAppliedSmartFocus" : "False",
                      "clipSpeedAttribute" : false
                    },
                    "animationTracks" : {

                    }
                  },
                  {
                    "id" : 747,
                    "_type" : "StitchedMedia",
                    "minMediaStart" : 0,
                    "attributes" : {
                      "ident" : "Rec 01-10-21",
                      "gain" : 0.3,
                      "mixToMono" : false
                    },
                    "parameters" : {
                      "volume" : 1.0,
                      "cursorOpacity" : {
                        "type" : "double",
                        "defaultValue" : 1.0,
                        "interp" : "linr"
                      },
                      "cursorScale" : {
                        "type" : "double",
                        "defaultValue" : 1.0,
                        "interp" : "linr"
                      }
                    },
                    "medias" : [
                        {
                          "id" : 748,
                          "_type" : "UnifiedMedia",
                          "video" : 
                              {
                                "id" : 749,
                                "_type" : "ScreenVMFile",
                                "src" : 1,
                                "trackNumber" : 0,
                                "attributes" : {
                                  "ident" : "Rec 01-10-21"
                                },
                                "parameters" : {
                                  "cursorScale" : {
                                    "type" : "double",
                                    "defaultValue" : 0.0,
                                    "interp" : "linr"
                                  },
                                  "cursorOpacity" : {
                                    "type" : "double",
                                    "defaultValue" : 0.0,
                                    "interp" : "linr"
                                  }
                                },
                                "effects" : [

                                ],
                                "start" : 0,
                                "duration" : 5487,
                                "mediaStart" : 0,
                                "mediaDuration" : 5487,
                                "scalar" : 1,
                                "animationTracks" : {

                                }
                              },
                          "audio" : 
                              {
                                "id" : 750,
                                "_type" : "AMFile",
                                "src" : 1,
                                "trackNumber" : 1,
                                "attributes" : {
                                  "ident" : "",
                                  "gain" : 1.0,
                                  "mixToMono" : false
                                },
                                  "channelNumber" : "0,1",
                                "effects" : [

                                ],
                                "start" : 0,
                                "duration" : 5487,
                                "mediaStart" : 0,
                                "mediaDuration" : 5487,
                                "scalar" : 1,
                                "animationTracks" : {

                                }
                              }
,
                          "start" : 0,
                          "duration" : 5487,
                          "mediaStart" : 0,
                          "mediaDuration" : 25747,
                          "scalar" : 1,
                          "metadata" : {
                            "AutoAppliedSmartFocus" : "False",
                            "clipSpeedAttribute" : false
                          }
                        },
                        {
                          "id" : 751,
                          "_type" : "UnifiedMedia",
                          "video" : 
                              {
                                "id" : 752,
                                "_type" : "ScreenVMFile",
                                "src" : 1,
                                "trackNumber" : 0,
                                "attributes" : {
                                  "ident" : "Rec 01-10-21"
                                },
                                "parameters" : {
                                  "cursorScale" : {
                                    "type" : "double",
                                    "defaultValue" : 0.0,
                                    "interp" : "linr"
                                  },
                                  "cursorOpacity" : {
                                    "type" : "double",
                                    "defaultValue" : 0.0,
                                    "interp" : "linr"
                                  }
                                },
                                "effects" : [

                                ],
                                "start" : 5487,
                                "duration" : 166,
                                "mediaStart" : 5498,
                                "mediaDuration" : 166,
                                "scalar" : 1,
                                "animationTracks" : {

                                }
                              },
                          "audio" : 
                              {
                                "id" : 753,
                                "_type" : "AMFile",
                                "src" : 1,
                                "trackNumber" : 1,
                                "attributes" : {
                                  "ident" : "",
                                  "gain" : 1.0,
                                  "mixToMono" : false
                                },
                                  "channelNumber" : "0,1",
                                "effects" : [

                                ],
                                "start" : 5487,
                                "duration" : 166,
                                "mediaStart" : 5498,
                                "mediaDuration" : 166,
                                "scalar" : 1,
                                "animationTracks" : {

                                }
                              }
,
                          "start" : 5487,
                          "duration" : 166,
                          "mediaStart" : 0,
                          "mediaDuration" : 25747,
                          "scalar" : 1,
                          "metadata" : {
                            "AutoAppliedSmartFocus" : "False",
                            "clipSpeedAttribute" : false
                          }
                        },
                        {
                          "id" : 754,
                          "_type" : "UnifiedMedia",
                          "video" : 
                              {
                                "id" : 755,
                                "_type" : "ScreenVMFile",
                                "src" : 1,
                                "trackNumber" : 0,
                                "attributes" : {
                                  "ident" : "Rec 01-10-21"
                                },
                                "parameters" : {
                                  "cursorScale" : {
                                    "type" : "double",
                                    "defaultValue" : 0.0,
                                    "interp" : "linr"
                                  },
                                  "cursorOpacity" : {
                                    "type" : "double",
                                    "defaultValue" : 0.0,
                                    "interp" : "linr"
                                  }
                                },
                                "effects" : [

                                ],
                                "start" : 5653,
                                "duration" : 739,
                                "mediaStart" : 5708,
                                "mediaDuration" : 739,
                                "scalar" : 1,
                                "animationTracks" : {

                                }
                              },
                          "audio" : 
                              {
                                "id" : 756,
                                "_type" : "AMFile",
                                "src" : 1,
                                "trackNumber" : 1,
                                "attributes" : {
                                  "ident" : "",
                                  "gain" : 1.0,
                                  "mixToMono" : false
                                },
                                  "channelNumber" : "0,1",
                                "effects" : [

                                ],
                                "start" : 5653,
                                "duration" : 739,
                                "mediaStart" : 5708,
                                "mediaDuration" : 739,
                                "scalar" : 1,
                                "animationTracks" : {

                                }
                              }
,
                          "start" : 5653,
                          "duration" : 739,
                          "mediaStart" : 0,
                          "mediaDuration" : 25747,
                          "scalar" : 1,
                          "metadata" : {
                            "AutoAppliedSmartFocus" : "False",
                            "clipSpeedAttribute" : false
                          }
                        },
                        {
                          "id" : 757,
                          "_type" : "UnifiedMedia",
                          "video" : 
                              {
                                "id" : 758,
                                "_type" : "ScreenVMFile",
                                "src" : 1,
                                "trackNumber" : 0,
                                "attributes" : {
                                  "ident" : "Rec 01-10-21"
                                },
                                "parameters" : {
                                  "cursorScale" : {
                                    "type" : "double",
                                    "defaultValue" : 0.0,
                                    "interp" : "linr"
                                  },
                                  "cursorOpacity" : {
                                    "type" : "double",
                                    "defaultValue" : 0.0,
                                    "interp" : "linr"
                                  }
                                },
                                "effects" : [

                                ],
                                "start" : 6392,
                                "duration" : 6,
                                "mediaStart" : 6482,
                                "mediaDuration" : 6,
                                "scalar" : 1,
                                "animationTracks" : {

                                }
                              },
                          "audio" : 
                              {
                                "id" : 759,
                                "_type" : "AMFile",
                                "src" : 1,
                                "trackNumber" : 1,
                                "attributes" : {
                                  "ident" : "",
                                  "gain" : 1.0,
                                  "mixToMono" : false
                                },
                                  "channelNumber" : "0,1",
                                "effects" : [

                                ],
                                "start" : 6392,
                                "duration" : 6,
                                "mediaStart" : 6482,
                                "mediaDuration" : 6,
                                "scalar" : 1,
                                "animationTracks" : {

                                }
                              }
,
                          "start" : 6392,
                          "duration" : 6,
                          "mediaStart" : 0,
                          "mediaDuration" : 25747,
                          "scalar" : 1,
                          "metadata" : {
                            "AutoAppliedSmartFocus" : "False",
                            "clipSpeedAttribute" : false
                          }
                        },
                        {
                          "id" : 760,
                          "_type" : "UnifiedMedia",
                          "video" : 
                              {
                                "id" : 761,
                                "_type" : "ScreenVMFile",
                                "src" : 1,
                                "trackNumber" : 0,
                                "attributes" : {
                                  "ident" : "Rec 01-10-21"
                                },
                                "parameters" : {
                                  "cursorScale" : {
                                    "type" : "double",
                                    "defaultValue" : 0.0,
                                    "interp" : "linr"
                                  },
                                  "cursorOpacity" : {
                                    "type" : "double",
                                    "defaultValue" : 0.0,
                                    "interp" : "linr"
                                  }
                                },
                                "effects" : [

                                ],
                                "start" : 6398,
                                "duration" : 340,
                                "mediaStart" : 6558,
                                "mediaDuration" : 340,
                                "scalar" : 1,
                                "animationTracks" : {

                                }
                              },
                          "audio" : 
                              {
                                "id" : 762,
                                "_type" : "AMFile",
                                "src" : 1,
                                "trackNumber" : 1,
                                "attributes" : {
                                  "ident" : "",
                                  "gain" : 1.0,
                                  "mixToMono" : false
                                },
                                  "channelNumber" : "0,1",
                                "effects" : [

                                ],
                                "start" : 6398,
                                "duration" : 340,
                                "mediaStart" : 6558,
                                "mediaDuration" : 340,
                                "scalar" : 1,
                                "animationTracks" : {

                                }
                              }
,
                          "start" : 6398,
                          "duration" : 340,
                          "mediaStart" : 0,
                          "mediaDuration" : 25747,
                          "scalar" : 1,
                          "metadata" : {
                            "AutoAppliedSmartFocus" : "False",
                            "clipSpeedAttribute" : false
                          }
                        },
                        {
                          "id" : 763,
                          "_type" : "UnifiedMedia",
                          "video" : 
                              {
                                "id" : 764,
                                "_type" : "ScreenVMFile",
                                "src" : 1,
                                "trackNumber" : 0,
                                "attributes" : {
                                  "ident" : "Rec 01-10-21"
                                },
                                "parameters" : {
                                  "cursorScale" : {
                                    "type" : "double",
                                    "defaultValue" : 0.0,
                                    "interp" : "linr"
                                  },
                                  "cursorOpacity" : {
                                    "type" : "double",
                                    "defaultValue" : 0.0,
                                    "interp" : "linr"
                                  }
                                },
                                "effects" : [

                                ],
                                "start" : 6738,
                                "duration" : 125,
                                "mediaStart" : 6983,
                                "mediaDuration" : 125,
                                "scalar" : 1,
                                "animationTracks" : {

                                }
                              },
                          "audio" : 
                              {
                                "id" : 765,
                                "_type" : "AMFile",
                                "src" : 1,
                                "trackNumber" : 1,
                                "attributes" : {
                                  "ident" : "",
                                  "gain" : 1.0,
                                  "mixToMono" : false
                                },
                                  "channelNumber" : "0,1",
                                "effects" : [

                                ],
                                "start" : 6738,
                                "duration" : 125,
                                "mediaStart" : 6983,
                                "mediaDuration" : 125,
                                "scalar" : 1,
                                "animationTracks" : {

                                }
                              }
,
                          "start" : 6738,
                          "duration" : 125,
                          "mediaStart" : 0,
                          "mediaDuration" : 25747,
                          "scalar" : 1,
                          "metadata" : {
                            "AutoAppliedSmartFocus" : "False",
                            "clipSpeedAttribute" : false
                          }
                        },
                        {
                          "id" : 766,
                          "_type" : "UnifiedMedia",
                          "video" : 
                              {
                                "id" : 767,
                                "_type" : "ScreenVMFile",
                                "src" : 1,
                                "trackNumber" : 0,
                                "attributes" : {
                                  "ident" : "Rec 01-10-21"
                                },
                                "parameters" : {
                                  "cursorScale" : {
                                    "type" : "double",
                                    "defaultValue" : 0.0,
                                    "interp" : "linr"
                                  },
                                  "cursorOpacity" : {
                                    "type" : "double",
                                    "defaultValue" : 0.0,
                                    "interp" : "linr"
                                  }
                                },
                                "effects" : [

                                ],
                                "start" : 6863,
                                "duration" : 297,
                                "mediaStart" : 7316,
                                "mediaDuration" : 297,
                                "scalar" : 1,
                                "animationTracks" : {

                                }
                              },
                          "audio" : 
                              {
                                "id" : 768,
                                "_type" : "AMFile",
                                "src" : 1,
                                "trackNumber" : 1,
                                "attributes" : {
                                  "ident" : "",
                                  "gain" : 1.0,
                                  "mixToMono" : false
                                },
                                  "channelNumber" : "0,1",
                                "effects" : [

                                ],
                                "start" : 6863,
                                "duration" : 297,
                                "mediaStart" : 7316,
                                "mediaDuration" : 297,
                                "scalar" : 1,
                                "animationTracks" : {

                                }
                              }
,
                          "start" : 6863,
                          "duration" : 297,
                          "mediaStart" : 0,
                          "mediaDuration" : 25747,
                          "scalar" : 1,
                          "metadata" : {
                            "AutoAppliedSmartFocus" : "False",
                            "clipSpeedAttribute" : false
                          }
                        },
                        {
                          "id" : 769,
                          "_type" : "UnifiedMedia",
                          "video" : 
                              {
                                "id" : 770,
                                "_type" : "ScreenVMFile",
                                "src" : 1,
                                "trackNumber" : 0,
                                "attributes" : {
                                  "ident" : "Rec 01-10-21"
                                },
                                "parameters" : {
                                  "cursorScale" : {
                                    "type" : "double",
                                    "defaultValue" : 0.0,
                                    "interp" : "linr"
                                  },
                                  "cursorOpacity" : {
                                    "type" : "double",
                                    "defaultValue" : 0.0,
                                    "interp" : "linr"
                                  }
                                },
                                "effects" : [

                                ],
                                "start" : 7160,
                                "duration" : 60,
                                "mediaStart" : 7641,
                                "mediaDuration" : 60,
                                "scalar" : 1,
                                "animationTracks" : {

                                }
                              },
                          "audio" : 
                              {
                                "id" : 771,
                                "_type" : "AMFile",
                                "src" : 1,
                                "trackNumber" : 1,
                                "attributes" : {
                                  "ident" : "",
                                  "gain" : 1.0,
                                  "mixToMono" : false
                                },
                                  "channelNumber" : "0,1",
                                "effects" : [

                                ],
                                "start" : 7160,
                                "duration" : 60,
                                "mediaStart" : 7641,
                                "mediaDuration" : 60,
                                "scalar" : 1,
                                "animationTracks" : {

                                }
                              }
,
                          "start" : 7160,
                          "duration" : 60,
                          "mediaStart" : 0,
                          "mediaDuration" : 25747,
                          "scalar" : 1,
                          "metadata" : {
                            "AutoAppliedSmartFocus" : "False",
                            "clipSpeedAttribute" : false
                          }
                        },
                        {
                          "id" : 772,
                          "_type" : "UnifiedMedia",
                          "video" : 
                              {
                                "id" : 773,
                                "_type" : "ScreenVMFile",
                                "src" : 1,
                                "trackNumber" : 0,
                                "attributes" : {
                                  "ident" : "Rec 01-10-21"
                                },
                                "parameters" : {
                                  "cursorScale" : {
                                    "type" : "double",
                                    "defaultValue" : 0.0,
                                    "interp" : "linr"
                                  },
                                  "cursorOpacity" : {
                                    "type" : "double",
                                    "defaultValue" : 0.0,
                                    "interp" : "linr"
                                  }
                                },
                                "effects" : [

                                ],
                                "start" : 7220,
                                "duration" : 36,
                                "mediaStart" : 7726,
                                "mediaDuration" : 36,
                                "scalar" : 1,
                                "animationTracks" : {

                                }
                              },
                          "audio" : 
                              {
                                "id" : 774,
                                "_type" : "AMFile",
                                "src" : 1,
                                "trackNumber" : 1,
                                "attributes" : {
                                  "ident" : "",
                                  "gain" : 1.0,
                                  "mixToMono" : false
                                },
                                  "channelNumber" : "0,1",
                                "effects" : [

                                ],
                                "start" : 7220,
                                "duration" : 36,
                                "mediaStart" : 7726,
                                "mediaDuration" : 36,
                                "scalar" : 1,
                                "animationTracks" : {

                                }
                              }
,
                          "start" : 7220,
                          "duration" : 36,
                          "mediaStart" : 0,
                          "mediaDuration" : 25747,
                          "scalar" : 1,
                          "metadata" : {
                            "AutoAppliedSmartFocus" : "False",
                            "clipSpeedAttribute" : false
                          }
                        },
                        {
                          "id" : 775,
                          "_type" : "UnifiedMedia",
                          "video" : 
                              {
                                "id" : 776,
                                "_type" : "ScreenVMFile",
                                "src" : 1,
                                "trackNumber" : 0,
                                "attributes" : {
                                  "ident" : "Rec 01-10-21"
                                },
                                "parameters" : {
                                  "cursorScale" : {
                                    "type" : "double",
                                    "defaultValue" : 0.0,
                                    "interp" : "linr"
                                  },
                                  "cursorOpacity" : {
                                    "type" : "double",
                                    "defaultValue" : 0.0,
                                    "interp" : "linr"
                                  }
                                },
                                "effects" : [

                                ],
                                "start" : 7256,
                                "duration" : 229,
                                "mediaStart" : 8018,
                                "mediaDuration" : 229,
                                "scalar" : 1,
                                "animationTracks" : {

                                }
                              },
                          "audio" : 
                              {
                                "id" : 777,
                                "_type" : "AMFile",
                                "src" : 1,
                                "trackNumber" : 1,
                                "attributes" : {
                                  "ident" : "",
                                  "gain" : 1.0,
                                  "mixToMono" : false
                                },
                                  "channelNumber" : "0,1",
                                "effects" : [

                                ],
                                "start" : 7256,
                                "duration" : 229,
                                "mediaStart" : 8018,
                                "mediaDuration" : 229,
                                "scalar" : 1,
                                "animationTracks" : {

                                }
                              }
,
                          "start" : 7256,
                          "duration" : 229,
                          "mediaStart" : 0,
                          "mediaDuration" : 25747,
                          "scalar" : 1,
                          "metadata" : {
                            "AutoAppliedSmartFocus" : "False",
                            "clipSpeedAttribute" : false
                          }
                        },
                        {
                          "id" : 778,
                          "_type" : "UnifiedMedia",
                          "video" : 
                              {
                                "id" : 779,
                                "_type" : "ScreenVMFile",
                                "src" : 1,
                                "trackNumber" : 0,
                                "attributes" : {
                                  "ident" : "Rec 01-10-21"
                                },
                                "parameters" : {
                                  "cursorScale" : {
                                    "type" : "double",
                                    "defaultValue" : 0.0,
                                    "interp" : "linr"
                                  },
                                  "cursorOpacity" : {
                                    "type" : "double",
                                    "defaultValue" : 0.0,
                                    "interp" : "linr"
                                  }
                                },
                                "effects" : [

                                ],
                                "start" : 7485,
                                "duration" : 115,
                                "mediaStart" : 8289,
                                "mediaDuration" : 115,
                                "scalar" : 1,
                                "animationTracks" : {

                                }
                              },
                          "audio" : 
                              {
                                "id" : 780,
                                "_type" : "AMFile",
                                "src" : 1,
                                "trackNumber" : 1,
                                "attributes" : {
                                  "ident" : "",
                                  "gain" : 1.0,
                                  "mixToMono" : false
                                },
                                  "channelNumber" : "0,1",
                                "effects" : [

                                ],
                                "start" : 7485,
                                "duration" : 115,
                                "mediaStart" : 8289,
                                "mediaDuration" : 115,
                                "scalar" : 1,
                                "animationTracks" : {

                                }
                              }
,
                          "start" : 7485,
                          "duration" : 115,
                          "mediaStart" : 0,
                          "mediaDuration" : 25747,
                          "scalar" : 1,
                          "metadata" : {
                            "AutoAppliedSmartFocus" : "False",
                            "clipSpeedAttribute" : false
                          }
                        },
                        {
                          "id" : 781,
                          "_type" : "UnifiedMedia",
                          "video" : 
                              {
                                "id" : 782,
                                "_type" : "ScreenVMFile",
                                "src" : 1,
                                "trackNumber" : 0,
                                "attributes" : {
                                  "ident" : "Rec 01-10-21"
                                },
                                "parameters" : {
                                  "cursorScale" : {
                                    "type" : "double",
                                    "defaultValue" : 0.0,
                                    "interp" : "linr"
                                  },
                                  "cursorOpacity" : {
                                    "type" : "double",
                                    "defaultValue" : 0.0,
                                    "interp" : "linr"
                                  }
                                },
                                "effects" : [

                                ],
                                "start" : 7600,
                                "duration" : 58,
                                "mediaStart" : 8711,
                                "mediaDuration" : 58,
                                "scalar" : 1,
                                "animationTracks" : {

                                }
                              },
                          "audio" : 
                              {
                                "id" : 783,
                                "_type" : "AMFile",
                                "src" : 1,
                                "trackNumber" : 1,
                                "attributes" : {
                                  "ident" : "",
                                  "gain" : 1.0,
                                  "mixToMono" : false
                                },
                                  "channelNumber" : "0,1",
                                "effects" : [

                                ],
                                "start" : 7600,
                                "duration" : 58,
                                "mediaStart" : 8711,
                                "mediaDuration" : 58,
                                "scalar" : 1,
                                "animationTracks" : {

                                }
                              }
,
                          "start" : 7600,
                          "duration" : 58,
                          "mediaStart" : 0,
                          "mediaDuration" : 25747,
                          "scalar" : 1,
                          "metadata" : {
                            "AutoAppliedSmartFocus" : "False",
                            "clipSpeedAttribute" : false
                          }
                        },
                        {
                          "id" : 784,
                          "_type" : "UnifiedMedia",
                          "video" : 
                              {
                                "id" : 785,
                                "_type" : "ScreenVMFile",
                                "src" : 1,
                                "trackNumber" : 0,
                                "attributes" : {
                                  "ident" : "Rec 01-10-21"
                                },
                                "parameters" : {
                                  "cursorScale" : {
                                    "type" : "double",
                                    "defaultValue" : 0.0,
                                    "interp" : "linr"
                                  },
                                  "cursorOpacity" : {
                                    "type" : "double",
                                    "defaultValue" : 0.0,
                                    "interp" : "linr"
                                  }
                                },
                                "effects" : [

                                ],
                                "start" : 7658,
                                "duration" : 45,
                                "mediaStart" : 8776,
                                "mediaDuration" : 45,
                                "scalar" : 1,
                                "animationTracks" : {

                                }
                              },
                          "audio" : 
                              {
                                "id" : 786,
                                "_type" : "AMFile",
                                "src" : 1,
                                "trackNumber" : 1,
                                "attributes" : {
                                  "ident" : "",
                                  "gain" : 1.0,
                                  "mixToMono" : false
                                },
                                  "channelNumber" : "0,1",
                                "effects" : [

                                ],
                                "start" : 7658,
                                "duration" : 45,
                                "mediaStart" : 8776,
                                "mediaDuration" : 45,
                                "scalar" : 1,
                                "animationTracks" : {

                                }
                              }
,
                          "start" : 7658,
                          "duration" : 45,
                          "mediaStart" : 0,
                          "mediaDuration" : 25747,
                          "scalar" : 1,
                          "metadata" : {
                            "AutoAppliedSmartFocus" : "False",
                            "clipSpeedAttribute" : false
                          }
                        },
                        {
                          "id" : 787,
                          "_type" : "UnifiedMedia",
                          "video" : 
                              {
                                "id" : 788,
                                "_type" : "ScreenVMFile",
                                "src" : 1,
                                "trackNumber" : 0,
                                "attributes" : {
                                  "ident" : "Rec 01-10-21"
                                },
                                "parameters" : {
                                  "cursorScale" : {
                                    "type" : "double",
                                    "defaultValue" : 0.0,
                                    "interp" : "linr"
                                  },
                                  "cursorOpacity" : {
                                    "type" : "double",
                                    "defaultValue" : 0.0,
                                    "interp" : "linr"
                                  }
                                },
                                "effects" : [

                                ],
                                "start" : 7703,
                                "duration" : 46,
                                "mediaStart" : 8841,
                                "mediaDuration" : 46,
                                "scalar" : 1,
                                "animationTracks" : {

                                }
                              },
                          "audio" : 
                              {
                                "id" : 789,
                                "_type" : "AMFile",
                                "src" : 1,
                                "trackNumber" : 1,
                                "attributes" : {
                                  "ident" : "",
                                  "gain" : 1.0,
                                  "mixToMono" : false
                                },
                                  "channelNumber" : "0,1",
                                "effects" : [

                                ],
                                "start" : 7703,
                                "duration" : 46,
                                "mediaStart" : 8841,
                                "mediaDuration" : 46,
                                "scalar" : 1,
                                "animationTracks" : {

                                }
                              }
,
                          "start" : 7703,
                          "duration" : 46,
                          "mediaStart" : 0,
                          "mediaDuration" : 25747,
                          "scalar" : 1,
                          "metadata" : {
                            "AutoAppliedSmartFocus" : "False",
                            "clipSpeedAttribute" : false
                          }
                        },
                        {
                          "id" : 790,
                          "_type" : "UnifiedMedia",
                          "video" : 
                              {
                                "id" : 791,
                                "_type" : "ScreenVMFile",
                                "src" : 1,
                                "trackNumber" : 0,
                                "attributes" : {
                                  "ident" : "Rec 01-10-21"
                                },
                                "parameters" : {
                                  "cursorScale" : {
                                    "type" : "double",
                                    "defaultValue" : 0.0,
                                    "interp" : "linr"
                                  },
                                  "cursorOpacity" : {
                                    "type" : "double",
                                    "defaultValue" : 0.0,
                                    "interp" : "linr"
                                  }
                                },
                                "effects" : [

                                ],
                                "start" : 7749,
                                "duration" : 1925,
                                "mediaStart" : 8937,
                                "mediaDuration" : 1925,
                                "scalar" : 1,
                                "animationTracks" : {

                                }
                              },
                          "audio" : 
                              {
                                "id" : 792,
                                "_type" : "AMFile",
                                "src" : 1,
                                "trackNumber" : 1,
                                "attributes" : {
                                  "ident" : "",
                                  "gain" : 1.0,
                                  "mixToMono" : false
                                },
                                  "channelNumber" : "0,1",
                                "effects" : [

                                ],
                                "start" : 7749,
                                "duration" : 1925,
                                "mediaStart" : 8937,
                                "mediaDuration" : 1925,
                                "scalar" : 1,
                                "animationTracks" : {

                                }
                              }
,
                          "start" : 7749,
                          "duration" : 1925,
                          "mediaStart" : 0,
                          "mediaDuration" : 25747,
                          "scalar" : 1,
                          "metadata" : {
                            "AutoAppliedSmartFocus" : "False",
                            "clipSpeedAttribute" : false
                          }
                        },
                        {
                          "id" : 793,
                          "_type" : "UnifiedMedia",
                          "video" : 
                              {
                                "id" : 794,
                                "_type" : "ScreenVMFile",
                                "src" : 1,
                                "trackNumber" : 0,
                                "attributes" : {
                                  "ident" : "Rec 01-10-21"
                                },
                                "parameters" : {
                                  "cursorScale" : {
                                    "type" : "double",
                                    "defaultValue" : 0.0,
                                    "interp" : "linr"
                                  },
                                  "cursorOpacity" : {
                                    "type" : "double",
                                    "defaultValue" : 0.0,
                                    "interp" : "linr"
                                  }
                                },
                                "effects" : [

                                ],
                                "start" : 9674,
                                "duration" : 322,
                                "mediaStart" : 10938,
                                "mediaDuration" : 322,
                                "scalar" : 1,
                                "animationTracks" : {

                                }
                              },
                          "audio" : 
                              {
                                "id" : 795,
                                "_type" : "AMFile",
                                "src" : 1,
                                "trackNumber" : 1,
                                "attributes" : {
                                  "ident" : "",
                                  "gain" : 1.0,
                                  "mixToMono" : false
                                },
                                  "channelNumber" : "0,1",
                                "effects" : [

                                ],
                                "start" : 9674,
                                "duration" : 322,
                                "mediaStart" : 10938,
                                "mediaDuration" : 322,
                                "scalar" : 1,
                                "animationTracks" : {

                                }
                              }
,
                          "start" : 9674,
                          "duration" : 322,
                          "mediaStart" : 0,
                          "mediaDuration" : 25747,
                          "scalar" : 1,
                          "metadata" : {
                            "AutoAppliedSmartFocus" : "False",
                            "clipSpeedAttribute" : false
                          }
                        },
                        {
                          "id" : 796,
                          "_type" : "UnifiedMedia",
                          "video" : 
                              {
                                "id" : 797,
                                "_type" : "ScreenVMFile",
                                "src" : 1,
                                "trackNumber" : 0,
                                "attributes" : {
                                  "ident" : "Rec 01-10-21"
                                },
                                "parameters" : {
                                  "cursorScale" : {
                                    "type" : "double",
                                    "defaultValue" : 0.0,
                                    "interp" : "linr"
                                  },
                                  "cursorOpacity" : {
                                    "type" : "double",
                                    "defaultValue" : 0.0,
                                    "interp" : "linr"
                                  }
                                },
                                "effects" : [

                                ],
                                "start" : 9996,
                                "duration" : 27,
                                "mediaStart" : 11328,
                                "mediaDuration" : 27,
                                "scalar" : 1,
                                "animationTracks" : {

                                }
                              },
                          "audio" : 
                              {
                                "id" : 798,
                                "_type" : "AMFile",
                                "src" : 1,
                                "trackNumber" : 1,
                                "attributes" : {
                                  "ident" : "",
                                  "gain" : 1.0,
                                  "mixToMono" : false
                                },
                                  "channelNumber" : "0,1",
                                "effects" : [

                                ],
                                "start" : 9996,
                                "duration" : 27,
                                "mediaStart" : 11328,
                                "mediaDuration" : 27,
                                "scalar" : 1,
                                "animationTracks" : {

                                }
                              }
,
                          "start" : 9996,
                          "duration" : 27,
                          "mediaStart" : 0,
                          "mediaDuration" : 25747,
                          "scalar" : 1,
                          "metadata" : {
                            "AutoAppliedSmartFocus" : "False",
                            "clipSpeedAttribute" : false
                          }
                        },
                        {
                          "id" : 799,
                          "_type" : "UnifiedMedia",
                          "video" : 
                              {
                                "id" : 800,
                                "_type" : "ScreenVMFile",
                                "src" : 1,
                                "trackNumber" : 0,
                                "attributes" : {
                                  "ident" : "Rec 01-10-21"
                                },
                                "parameters" : {
                                  "cursorScale" : {
                                    "type" : "double",
                                    "defaultValue" : 0.0,
                                    "interp" : "linr"
                                  },
                                  "cursorOpacity" : {
                                    "type" : "double",
                                    "defaultValue" : 0.0,
                                    "interp" : "linr"
                                  }
                                },
                                "effects" : [

                                ],
                                "start" : 10023,
                                "duration" : 119,
                                "mediaStart" : 11424,
                                "mediaDuration" : 119,
                                "scalar" : 1,
                                "animationTracks" : {

                                }
                              },
                          "audio" : 
                              {
                                "id" : 801,
                                "_type" : "AMFile",
                                "src" : 1,
                                "trackNumber" : 1,
                                "attributes" : {
                                  "ident" : "",
                                  "gain" : 1.0,
                                  "mixToMono" : false
                                },
                                  "channelNumber" : "0,1",
                                "effects" : [

                                ],
                                "start" : 10023,
                                "duration" : 119,
                                "mediaStart" : 11424,
                                "mediaDuration" : 119,
                                "scalar" : 1,
                                "animationTracks" : {

                                }
                              }
,
                          "start" : 10023,
                          "duration" : 119,
                          "mediaStart" : 0,
                          "mediaDuration" : 25747,
                          "scalar" : 1,
                          "metadata" : {
                            "AutoAppliedSmartFocus" : "False",
                            "clipSpeedAttribute" : false
                          }
                        },
                        {
                          "id" : 802,
                          "_type" : "UnifiedMedia",
                          "video" : 
                              {
                                "id" : 803,
                                "_type" : "ScreenVMFile",
                                "src" : 1,
                                "trackNumber" : 0,
                                "attributes" : {
                                  "ident" : "Rec 01-10-21"
                                },
                                "parameters" : {
                                  "cursorScale" : {
                                    "type" : "double",
                                    "defaultValue" : 0.0,
                                    "interp" : "linr"
                                  },
                                  "cursorOpacity" : {
                                    "type" : "double",
                                    "defaultValue" : 0.0,
                                    "interp" : "linr"
                                  }
                                },
                                "effects" : [

                                ],
                                "start" : 10142,
                                "duration" : 46,
                                "mediaStart" : 11727,
                                "mediaDuration" : 46,
                                "scalar" : 1,
                                "animationTracks" : {

                                }
                              },
                          "audio" : 
                              {
                                "id" : 804,
                                "_type" : "AMFile",
                                "src" : 1,
                                "trackNumber" : 1,
                                "attributes" : {
                                  "ident" : "",
                                  "gain" : 1.0,
                                  "mixToMono" : false
                                },
                                  "channelNumber" : "0,1",
                                "effects" : [

                                ],
                                "start" : 10142,
                                "duration" : 46,
                                "mediaStart" : 11727,
                                "mediaDuration" : 46,
                                "scalar" : 1,
                                "animationTracks" : {

                                }
                              }
,
                          "start" : 10142,
                          "duration" : 46,
                          "mediaStart" : 0,
                          "mediaDuration" : 25747,
                          "scalar" : 1,
                          "metadata" : {
                            "AutoAppliedSmartFocus" : "False",
                            "clipSpeedAttribute" : false
                          }
                        },
                        {
                          "id" : 805,
                          "_type" : "UnifiedMedia",
                          "video" : 
                              {
                                "id" : 806,
                                "_type" : "ScreenVMFile",
                                "src" : 1,
                                "trackNumber" : 0,
                                "attributes" : {
                                  "ident" : "Rec 01-10-21"
                                },
                                "parameters" : {
                                  "cursorScale" : {
                                    "type" : "double",
                                    "defaultValue" : 0.0,
                                    "interp" : "linr"
                                  },
                                  "cursorOpacity" : {
                                    "type" : "double",
                                    "defaultValue" : 0.0,
                                    "interp" : "linr"
                                  }
                                },
                                "effects" : [

                                ],
                                "start" : 10188,
                                "duration" : 461,
                                "mediaStart" : 11870,
                                "mediaDuration" : 461,
                                "scalar" : 1,
                                "animationTracks" : {

                                }
                              },
                          "audio" : 
                              {
                                "id" : 807,
                                "_type" : "AMFile",
                                "src" : 1,
                                "trackNumber" : 1,
                                "attributes" : {
                                  "ident" : "",
                                  "gain" : 1.0,
                                  "mixToMono" : false
                                },
                                  "channelNumber" : "0,1",
                                "effects" : [

                                ],
                                "start" : 10188,
                                "duration" : 461,
                                "mediaStart" : 11870,
                                "mediaDuration" : 461,
                                "scalar" : 1,
                                "animationTracks" : {

                                }
                              }
,
                          "start" : 10188,
                          "duration" : 461,
                          "mediaStart" : 0,
                          "mediaDuration" : 25747,
                          "scalar" : 1,
                          "metadata" : {
                            "AutoAppliedSmartFocus" : "False",
                            "clipSpeedAttribute" : false
                          }
                        },
                        {
                          "id" : 808,
                          "_type" : "UnifiedMedia",
                          "video" : 
                              {
                                "id" : 809,
                                "_type" : "ScreenVMFile",
                                "src" : 1,
                                "trackNumber" : 0,
                                "attributes" : {
                                  "ident" : "Rec 01-10-21"
                                },
                                "parameters" : {
                                  "cursorScale" : {
                                    "type" : "double",
                                    "defaultValue" : 0.0,
                                    "interp" : "linr"
                                  },
                                  "cursorOpacity" : {
                                    "type" : "double",
                                    "defaultValue" : 0.0,
                                    "interp" : "linr"
                                  }
                                },
                                "effects" : [

                                ],
                                "start" : 10649,
                                "duration" : 73,
                                "mediaStart" : 12767,
                                "mediaDuration" : 73,
                                "scalar" : 1,
                                "animationTracks" : {

                                }
                              },
                          "audio" : 
                              {
                                "id" : 810,
                                "_type" : "AMFile",
                                "src" : 1,
                                "trackNumber" : 1,
                                "attributes" : {
                                  "ident" : "",
                                  "gain" : 1.0,
                                  "mixToMono" : false
                                },
                                  "channelNumber" : "0,1",
                                "effects" : [

                                ],
                                "start" : 10649,
                                "duration" : 73,
                                "mediaStart" : 12767,
                                "mediaDuration" : 73,
                                "scalar" : 1,
                                "animationTracks" : {

                                }
                              }
,
                          "start" : 10649,
                          "duration" : 73,
                          "mediaStart" : 0,
                          "mediaDuration" : 25747,
                          "scalar" : 1,
                          "metadata" : {
                            "AutoAppliedSmartFocus" : "False",
                            "clipSpeedAttribute" : false
                          }
                        },
                        {
                          "id" : 811,
                          "_type" : "UnifiedMedia",
                          "video" : 
                              {
                                "id" : 812,
                                "_type" : "ScreenVMFile",
                                "src" : 1,
                                "trackNumber" : 0,
                                "attributes" : {
                                  "ident" : "Rec 01-10-21"
                                },
                                "parameters" : {
                                  "cursorScale" : {
                                    "type" : "double",
                                    "defaultValue" : 0.0,
                                    "interp" : "linr"
                                  },
                                  "cursorOpacity" : {
                                    "type" : "double",
                                    "defaultValue" : 0.0,
                                    "interp" : "linr"
                                  }
                                },
                                "effects" : [

                                ],
                                "start" : 10722,
                                "duration" : 166,
                                "mediaStart" : 13215,
                                "mediaDuration" : 166,
                                "scalar" : 1,
                                "animationTracks" : {

                                }
                              },
                          "audio" : 
                              {
                                "id" : 813,
                                "_type" : "AMFile",
                                "src" : 1,
                                "trackNumber" : 1,
                                "attributes" : {
                                  "ident" : "",
                                  "gain" : 1.0,
                                  "mixToMono" : false
                                },
                                  "channelNumber" : "0,1",
                                "effects" : [

                                ],
                                "start" : 10722,
                                "duration" : 166,
                                "mediaStart" : 13215,
                                "mediaDuration" : 166,
                                "scalar" : 1,
                                "animationTracks" : {

                                }
                              }
,
                          "start" : 10722,
                          "duration" : 166,
                          "mediaStart" : 0,
                          "mediaDuration" : 25747,
                          "scalar" : 1,
                          "metadata" : {
                            "AutoAppliedSmartFocus" : "False",
                            "clipSpeedAttribute" : false
                          }
                        },
                        {
                          "id" : 814,
                          "_type" : "UnifiedMedia",
                          "video" : 
                              {
                                "id" : 815,
                                "_type" : "ScreenVMFile",
                                "src" : 1,
                                "trackNumber" : 0,
                                "attributes" : {
                                  "ident" : "Rec 01-10-21"
                                },
                                "parameters" : {
                                  "cursorScale" : {
                                    "type" : "double",
                                    "defaultValue" : 0.0,
                                    "interp" : "linr"
                                  },
                                  "cursorOpacity" : {
                                    "type" : "double",
                                    "defaultValue" : 0.0,
                                    "interp" : "linr"
                                  }
                                },
                                "effects" : [

                                ],
                                "start" : 10888,
                                "duration" : 12350,
                                "mediaStart" : 13397,
                                "mediaDuration" : 12350,
                                "scalar" : 1,
                                "animationTracks" : {

                                }
                              },
                          "audio" : 
                              {
                                "id" : 816,
                                "_type" : "AMFile",
                                "src" : 1,
                                "trackNumber" : 1,
                                "attributes" : {
                                  "ident" : "",
                                  "gain" : 1.0,
                                  "mixToMono" : false
                                },
                                  "channelNumber" : "0,1",
                                "effects" : [

                                ],
                                "start" : 10888,
                                "duration" : 12350,
                                "mediaStart" : 13397,
                                "mediaDuration" : 12350,
                                "scalar" : 1,
                                "animationTracks" : {

                                }
                              }
,
                          "start" : 10888,
                          "duration" : 12350,
                          "mediaStart" : 0,
                          "mediaDuration" : 25747,
                          "scalar" : 1,
                          "metadata" : {
                            "AutoAppliedSmartFocus" : "False",
                            "clipSpeedAttribute" : false
                          }
                        }
                    ],
                    "effects" : [

                    ],
                    "start" : 7195,
                    "duration" : 76,
                    "mediaStart" : 10905,
                    "mediaDuration" : 227,
                    "scalar" : "76/227",
                    "metadata" : {
                      "AutoAppliedSmartFocus" : "False",
                      "clipSpeedAttribute" : true
                    },
                    "animationTracks" : {

                    }
                  },
                  {
                    "id" : 817,
                    "_type" : "StitchedMedia",
                    "minMediaStart" : 0,
                    "attributes" : {
                      "ident" : "Rec 01-10-21",
                      "gain" : 1.0,
                      "mixToMono" : false
                    },
                    "parameters" : {
                      "volume" : 1.0,
                      "cursorOpacity" : 1.0,
                      "cursorScale" : 1.0
                    },
                    "medias" : [
                        {
                          "id" : 818,
                          "_type" : "UnifiedMedia",
                          "video" : 
                              {
                                "id" : 819,
                                "_type" : "ScreenVMFile",
                                "src" : 1,
                                "trackNumber" : 0,
                                "attributes" : {
                                  "ident" : "Rec 01-10-21"
                                },
                                "parameters" : {
                                  "cursorScale" : {
                                    "type" : "double",
                                    "defaultValue" : 0.0,
                                    "interp" : "linr"
                                  },
                                  "cursorOpacity" : {
                                    "type" : "double",
                                    "defaultValue" : 0.0,
                                    "interp" : "linr"
                                  }
                                },
                                "effects" : [

                                ],
                                "start" : 0,
                                "duration" : 5487,
                                "mediaStart" : 0,
                                "mediaDuration" : 5487,
                                "scalar" : 1,
                                "animationTracks" : {

                                }
                              },
                          "audio" : 
                              {
                                "id" : 820,
                                "_type" : "AMFile",
                                "src" : 1,
                                "trackNumber" : 1,
                                "attributes" : {
                                  "ident" : "",
                                  "gain" : 1.0,
                                  "mixToMono" : false
                                },
                                  "channelNumber" : "0,1",
                                "effects" : [

                                ],
                                "start" : 0,
                                "duration" : 5487,
                                "mediaStart" : 0,
                                "mediaDuration" : 5487,
                                "scalar" : 1,
                                "animationTracks" : {

                                }
                              }
,
                          "start" : 0,
                          "duration" : 5487,
                          "mediaStart" : 0,
                          "mediaDuration" : 25747,
                          "scalar" : 1,
                          "metadata" : {
                            "AutoAppliedSmartFocus" : "False",
                            "clipSpeedAttribute" : false
                          }
                        },
                        {
                          "id" : 821,
                          "_type" : "UnifiedMedia",
                          "video" : 
                              {
                                "id" : 822,
                                "_type" : "ScreenVMFile",
                                "src" : 1,
                                "trackNumber" : 0,
                                "attributes" : {
                                  "ident" : "Rec 01-10-21"
                                },
                                "parameters" : {
                                  "cursorScale" : {
                                    "type" : "double",
                                    "defaultValue" : 0.0,
                                    "interp" : "linr"
                                  },
                                  "cursorOpacity" : {
                                    "type" : "double",
                                    "defaultValue" : 0.0,
                                    "interp" : "linr"
                                  }
                                },
                                "effects" : [

                                ],
                                "start" : 5487,
                                "duration" : 166,
                                "mediaStart" : 5498,
                                "mediaDuration" : 166,
                                "scalar" : 1,
                                "animationTracks" : {

                                }
                              },
                          "audio" : 
                              {
                                "id" : 823,
                                "_type" : "AMFile",
                                "src" : 1,
                                "trackNumber" : 1,
                                "attributes" : {
                                  "ident" : "",
                                  "gain" : 1.0,
                                  "mixToMono" : false
                                },
                                  "channelNumber" : "0,1",
                                "effects" : [

                                ],
                                "start" : 5487,
                                "duration" : 166,
                                "mediaStart" : 5498,
                                "mediaDuration" : 166,
                                "scalar" : 1,
                                "animationTracks" : {

                                }
                              }
,
                          "start" : 5487,
                          "duration" : 166,
                          "mediaStart" : 0,
                          "mediaDuration" : 25747,
                          "scalar" : 1,
                          "metadata" : {
                            "AutoAppliedSmartFocus" : "False",
                            "clipSpeedAttribute" : false
                          }
                        },
                        {
                          "id" : 824,
                          "_type" : "UnifiedMedia",
                          "video" : 
                              {
                                "id" : 825,
                                "_type" : "ScreenVMFile",
                                "src" : 1,
                                "trackNumber" : 0,
                                "attributes" : {
                                  "ident" : "Rec 01-10-21"
                                },
                                "parameters" : {
                                  "cursorScale" : {
                                    "type" : "double",
                                    "defaultValue" : 0.0,
                                    "interp" : "linr"
                                  },
                                  "cursorOpacity" : {
                                    "type" : "double",
                                    "defaultValue" : 0.0,
                                    "interp" : "linr"
                                  }
                                },
                                "effects" : [

                                ],
                                "start" : 5653,
                                "duration" : 739,
                                "mediaStart" : 5708,
                                "mediaDuration" : 739,
                                "scalar" : 1,
                                "animationTracks" : {

                                }
                              },
                          "audio" : 
                              {
                                "id" : 826,
                                "_type" : "AMFile",
                                "src" : 1,
                                "trackNumber" : 1,
                                "attributes" : {
                                  "ident" : "",
                                  "gain" : 1.0,
                                  "mixToMono" : false
                                },
                                  "channelNumber" : "0,1",
                                "effects" : [

                                ],
                                "start" : 5653,
                                "duration" : 739,
                                "mediaStart" : 5708,
                                "mediaDuration" : 739,
                                "scalar" : 1,
                                "animationTracks" : {

                                }
                              }
,
                          "start" : 5653,
                          "duration" : 739,
                          "mediaStart" : 0,
                          "mediaDuration" : 25747,
                          "scalar" : 1,
                          "metadata" : {
                            "AutoAppliedSmartFocus" : "False",
                            "clipSpeedAttribute" : false
                          }
                        },
                        {
                          "id" : 827,
                          "_type" : "UnifiedMedia",
                          "video" : 
                              {
                                "id" : 828,
                                "_type" : "ScreenVMFile",
                                "src" : 1,
                                "trackNumber" : 0,
                                "attributes" : {
                                  "ident" : "Rec 01-10-21"
                                },
                                "parameters" : {
                                  "cursorScale" : {
                                    "type" : "double",
                                    "defaultValue" : 0.0,
                                    "interp" : "linr"
                                  },
                                  "cursorOpacity" : {
                                    "type" : "double",
                                    "defaultValue" : 0.0,
                                    "interp" : "linr"
                                  }
                                },
                                "effects" : [

                                ],
                                "start" : 6392,
                                "duration" : 6,
                                "mediaStart" : 6482,
                                "mediaDuration" : 6,
                                "scalar" : 1,
                                "animationTracks" : {

                                }
                              },
                          "audio" : 
                              {
                                "id" : 829,
                                "_type" : "AMFile",
                                "src" : 1,
                                "trackNumber" : 1,
                                "attributes" : {
                                  "ident" : "",
                                  "gain" : 1.0,
                                  "mixToMono" : false
                                },
                                  "channelNumber" : "0,1",
                                "effects" : [

                                ],
                                "start" : 6392,
                                "duration" : 6,
                                "mediaStart" : 6482,
                                "mediaDuration" : 6,
                                "scalar" : 1,
                                "animationTracks" : {

                                }
                              }
,
                          "start" : 6392,
                          "duration" : 6,
                          "mediaStart" : 0,
                          "mediaDuration" : 25747,
                          "scalar" : 1,
                          "metadata" : {
                            "AutoAppliedSmartFocus" : "False",
                            "clipSpeedAttribute" : false
                          }
                        },
                        {
                          "id" : 830,
                          "_type" : "UnifiedMedia",
                          "video" : 
                              {
                                "id" : 831,
                                "_type" : "ScreenVMFile",
                                "src" : 1,
                                "trackNumber" : 0,
                                "attributes" : {
                                  "ident" : "Rec 01-10-21"
                                },
                                "parameters" : {
                                  "cursorScale" : {
                                    "type" : "double",
                                    "defaultValue" : 0.0,
                                    "interp" : "linr"
                                  },
                                  "cursorOpacity" : {
                                    "type" : "double",
                                    "defaultValue" : 0.0,
                                    "interp" : "linr"
                                  }
                                },
                                "effects" : [

                                ],
                                "start" : 6398,
                                "duration" : 340,
                                "mediaStart" : 6558,
                                "mediaDuration" : 340,
                                "scalar" : 1,
                                "animationTracks" : {

                                }
                              },
                          "audio" : 
                              {
                                "id" : 832,
                                "_type" : "AMFile",
                                "src" : 1,
                                "trackNumber" : 1,
                                "attributes" : {
                                  "ident" : "",
                                  "gain" : 1.0,
                                  "mixToMono" : false
                                },
                                  "channelNumber" : "0,1",
                                "effects" : [

                                ],
                                "start" : 6398,
                                "duration" : 340,
                                "mediaStart" : 6558,
                                "mediaDuration" : 340,
                                "scalar" : 1,
                                "animationTracks" : {

                                }
                              }
,
                          "start" : 6398,
                          "duration" : 340,
                          "mediaStart" : 0,
                          "mediaDuration" : 25747,
                          "scalar" : 1,
                          "metadata" : {
                            "AutoAppliedSmartFocus" : "False",
                            "clipSpeedAttribute" : false
                          }
                        },
                        {
                          "id" : 833,
                          "_type" : "UnifiedMedia",
                          "video" : 
                              {
                                "id" : 834,
                                "_type" : "ScreenVMFile",
                                "src" : 1,
                                "trackNumber" : 0,
                                "attributes" : {
                                  "ident" : "Rec 01-10-21"
                                },
                                "parameters" : {
                                  "cursorScale" : {
                                    "type" : "double",
                                    "defaultValue" : 0.0,
                                    "interp" : "linr"
                                  },
                                  "cursorOpacity" : {
                                    "type" : "double",
                                    "defaultValue" : 0.0,
                                    "interp" : "linr"
                                  }
                                },
                                "effects" : [

                                ],
                                "start" : 6738,
                                "duration" : 125,
                                "mediaStart" : 6983,
                                "mediaDuration" : 125,
                                "scalar" : 1,
                                "animationTracks" : {

                                }
                              },
                          "audio" : 
                              {
                                "id" : 835,
                                "_type" : "AMFile",
                                "src" : 1,
                                "trackNumber" : 1,
                                "attributes" : {
                                  "ident" : "",
                                  "gain" : 1.0,
                                  "mixToMono" : false
                                },
                                  "channelNumber" : "0,1",
                                "effects" : [

                                ],
                                "start" : 6738,
                                "duration" : 125,
                                "mediaStart" : 6983,
                                "mediaDuration" : 125,
                                "scalar" : 1,
                                "animationTracks" : {

                                }
                              }
,
                          "start" : 6738,
                          "duration" : 125,
                          "mediaStart" : 0,
                          "mediaDuration" : 25747,
                          "scalar" : 1,
                          "metadata" : {
                            "AutoAppliedSmartFocus" : "False",
                            "clipSpeedAttribute" : false
                          }
                        },
                        {
                          "id" : 836,
                          "_type" : "UnifiedMedia",
                          "video" : 
                              {
                                "id" : 837,
                                "_type" : "ScreenVMFile",
                                "src" : 1,
                                "trackNumber" : 0,
                                "attributes" : {
                                  "ident" : "Rec 01-10-21"
                                },
                                "parameters" : {
                                  "cursorScale" : {
                                    "type" : "double",
                                    "defaultValue" : 0.0,
                                    "interp" : "linr"
                                  },
                                  "cursorOpacity" : {
                                    "type" : "double",
                                    "defaultValue" : 0.0,
                                    "interp" : "linr"
                                  }
                                },
                                "effects" : [

                                ],
                                "start" : 6863,
                                "duration" : 297,
                                "mediaStart" : 7316,
                                "mediaDuration" : 297,
                                "scalar" : 1,
                                "animationTracks" : {

                                }
                              },
                          "audio" : 
                              {
                                "id" : 838,
                                "_type" : "AMFile",
                                "src" : 1,
                                "trackNumber" : 1,
                                "attributes" : {
                                  "ident" : "",
                                  "gain" : 1.0,
                                  "mixToMono" : false
                                },
                                  "channelNumber" : "0,1",
                                "effects" : [

                                ],
                                "start" : 6863,
                                "duration" : 297,
                                "mediaStart" : 7316,
                                "mediaDuration" : 297,
                                "scalar" : 1,
                                "animationTracks" : {

                                }
                              }
,
                          "start" : 6863,
                          "duration" : 297,
                          "mediaStart" : 0,
                          "mediaDuration" : 25747,
                          "scalar" : 1,
                          "metadata" : {
                            "AutoAppliedSmartFocus" : "False",
                            "clipSpeedAttribute" : false
                          }
                        },
                        {
                          "id" : 839,
                          "_type" : "UnifiedMedia",
                          "video" : 
                              {
                                "id" : 840,
                                "_type" : "ScreenVMFile",
                                "src" : 1,
                                "trackNumber" : 0,
                                "attributes" : {
                                  "ident" : "Rec 01-10-21"
                                },
                                "parameters" : {
                                  "cursorScale" : {
                                    "type" : "double",
                                    "defaultValue" : 0.0,
                                    "interp" : "linr"
                                  },
                                  "cursorOpacity" : {
                                    "type" : "double",
                                    "defaultValue" : 0.0,
                                    "interp" : "linr"
                                  }
                                },
                                "effects" : [

                                ],
                                "start" : 7160,
                                "duration" : 60,
                                "mediaStart" : 7641,
                                "mediaDuration" : 60,
                                "scalar" : 1,
                                "animationTracks" : {

                                }
                              },
                          "audio" : 
                              {
                                "id" : 841,
                                "_type" : "AMFile",
                                "src" : 1,
                                "trackNumber" : 1,
                                "attributes" : {
                                  "ident" : "",
                                  "gain" : 1.0,
                                  "mixToMono" : false
                                },
                                  "channelNumber" : "0,1",
                                "effects" : [

                                ],
                                "start" : 7160,
                                "duration" : 60,
                                "mediaStart" : 7641,
                                "mediaDuration" : 60,
                                "scalar" : 1,
                                "animationTracks" : {

                                }
                              }
,
                          "start" : 7160,
                          "duration" : 60,
                          "mediaStart" : 0,
                          "mediaDuration" : 25747,
                          "scalar" : 1,
                          "metadata" : {
                            "AutoAppliedSmartFocus" : "False",
                            "clipSpeedAttribute" : false
                          }
                        },
                        {
                          "id" : 842,
                          "_type" : "UnifiedMedia",
                          "video" : 
                              {
                                "id" : 843,
                                "_type" : "ScreenVMFile",
                                "src" : 1,
                                "trackNumber" : 0,
                                "attributes" : {
                                  "ident" : "Rec 01-10-21"
                                },
                                "parameters" : {
                                  "cursorScale" : {
                                    "type" : "double",
                                    "defaultValue" : 0.0,
                                    "interp" : "linr"
                                  },
                                  "cursorOpacity" : {
                                    "type" : "double",
                                    "defaultValue" : 0.0,
                                    "interp" : "linr"
                                  }
                                },
                                "effects" : [

                                ],
                                "start" : 7220,
                                "duration" : 36,
                                "mediaStart" : 7726,
                                "mediaDuration" : 36,
                                "scalar" : 1,
                                "animationTracks" : {

                                }
                              },
                          "audio" : 
                              {
                                "id" : 844,
                                "_type" : "AMFile",
                                "src" : 1,
                                "trackNumber" : 1,
                                "attributes" : {
                                  "ident" : "",
                                  "gain" : 1.0,
                                  "mixToMono" : false
                                },
                                  "channelNumber" : "0,1",
                                "effects" : [

                                ],
                                "start" : 7220,
                                "duration" : 36,
                                "mediaStart" : 7726,
                                "mediaDuration" : 36,
                                "scalar" : 1,
                                "animationTracks" : {

                                }
                              }
,
                          "start" : 7220,
                          "duration" : 36,
                          "mediaStart" : 0,
                          "mediaDuration" : 25747,
                          "scalar" : 1,
                          "metadata" : {
                            "AutoAppliedSmartFocus" : "False",
                            "clipSpeedAttribute" : false
                          }
                        },
                        {
                          "id" : 845,
                          "_type" : "UnifiedMedia",
                          "video" : 
                              {
                                "id" : 846,
                                "_type" : "ScreenVMFile",
                                "src" : 1,
                                "trackNumber" : 0,
                                "attributes" : {
                                  "ident" : "Rec 01-10-21"
                                },
                                "parameters" : {
                                  "cursorScale" : {
                                    "type" : "double",
                                    "defaultValue" : 0.0,
                                    "interp" : "linr"
                                  },
                                  "cursorOpacity" : {
                                    "type" : "double",
                                    "defaultValue" : 0.0,
                                    "interp" : "linr"
                                  }
                                },
                                "effects" : [

                                ],
                                "start" : 7256,
                                "duration" : 229,
                                "mediaStart" : 8018,
                                "mediaDuration" : 229,
                                "scalar" : 1,
                                "animationTracks" : {

                                }
                              },
                          "audio" : 
                              {
                                "id" : 847,
                                "_type" : "AMFile",
                                "src" : 1,
                                "trackNumber" : 1,
                                "attributes" : {
                                  "ident" : "",
                                  "gain" : 1.0,
                                  "mixToMono" : false
                                },
                                  "channelNumber" : "0,1",
                                "effects" : [

                                ],
                                "start" : 7256,
                                "duration" : 229,
                                "mediaStart" : 8018,
                                "mediaDuration" : 229,
                                "scalar" : 1,
                                "animationTracks" : {

                                }
                              }
,
                          "start" : 7256,
                          "duration" : 229,
                          "mediaStart" : 0,
                          "mediaDuration" : 25747,
                          "scalar" : 1,
                          "metadata" : {
                            "AutoAppliedSmartFocus" : "False",
                            "clipSpeedAttribute" : false
                          }
                        },
                        {
                          "id" : 848,
                          "_type" : "UnifiedMedia",
                          "video" : 
                              {
                                "id" : 849,
                                "_type" : "ScreenVMFile",
                                "src" : 1,
                                "trackNumber" : 0,
                                "attributes" : {
                                  "ident" : "Rec 01-10-21"
                                },
                                "parameters" : {
                                  "cursorScale" : {
                                    "type" : "double",
                                    "defaultValue" : 0.0,
                                    "interp" : "linr"
                                  },
                                  "cursorOpacity" : {
                                    "type" : "double",
                                    "defaultValue" : 0.0,
                                    "interp" : "linr"
                                  }
                                },
                                "effects" : [

                                ],
                                "start" : 7485,
                                "duration" : 115,
                                "mediaStart" : 8289,
                                "mediaDuration" : 115,
                                "scalar" : 1,
                                "animationTracks" : {

                                }
                              },
                          "audio" : 
                              {
                                "id" : 850,
                                "_type" : "AMFile",
                                "src" : 1,
                                "trackNumber" : 1,
                                "attributes" : {
                                  "ident" : "",
                                  "gain" : 1.0,
                                  "mixToMono" : false
                                },
                                  "channelNumber" : "0,1",
                                "effects" : [

                                ],
                                "start" : 7485,
                                "duration" : 115,
                                "mediaStart" : 8289,
                                "mediaDuration" : 115,
                                "scalar" : 1,
                                "animationTracks" : {

                                }
                              }
,
                          "start" : 7485,
                          "duration" : 115,
                          "mediaStart" : 0,
                          "mediaDuration" : 25747,
                          "scalar" : 1,
                          "metadata" : {
                            "AutoAppliedSmartFocus" : "False",
                            "clipSpeedAttribute" : false
                          }
                        },
                        {
                          "id" : 851,
                          "_type" : "UnifiedMedia",
                          "video" : 
                              {
                                "id" : 852,
                                "_type" : "ScreenVMFile",
                                "src" : 1,
                                "trackNumber" : 0,
                                "attributes" : {
                                  "ident" : "Rec 01-10-21"
                                },
                                "parameters" : {
                                  "cursorScale" : {
                                    "type" : "double",
                                    "defaultValue" : 0.0,
                                    "interp" : "linr"
                                  },
                                  "cursorOpacity" : {
                                    "type" : "double",
                                    "defaultValue" : 0.0,
                                    "interp" : "linr"
                                  }
                                },
                                "effects" : [

                                ],
                                "start" : 7600,
                                "duration" : 58,
                                "mediaStart" : 8711,
                                "mediaDuration" : 58,
                                "scalar" : 1,
                                "animationTracks" : {

                                }
                              },
                          "audio" : 
                              {
                                "id" : 853,
                                "_type" : "AMFile",
                                "src" : 1,
                                "trackNumber" : 1,
                                "attributes" : {
                                  "ident" : "",
                                  "gain" : 1.0,
                                  "mixToMono" : false
                                },
                                  "channelNumber" : "0,1",
                                "effects" : [

                                ],
                                "start" : 7600,
                                "duration" : 58,
                                "mediaStart" : 8711,
                                "mediaDuration" : 58,
                                "scalar" : 1,
                                "animationTracks" : {

                                }
                              }
,
                          "start" : 7600,
                          "duration" : 58,
                          "mediaStart" : 0,
                          "mediaDuration" : 25747,
                          "scalar" : 1,
                          "metadata" : {
                            "AutoAppliedSmartFocus" : "False",
                            "clipSpeedAttribute" : false
                          }
                        },
                        {
                          "id" : 854,
                          "_type" : "UnifiedMedia",
                          "video" : 
                              {
                                "id" : 855,
                                "_type" : "ScreenVMFile",
                                "src" : 1,
                                "trackNumber" : 0,
                                "attributes" : {
                                  "ident" : "Rec 01-10-21"
                                },
                                "parameters" : {
                                  "cursorScale" : {
                                    "type" : "double",
                                    "defaultValue" : 0.0,
                                    "interp" : "linr"
                                  },
                                  "cursorOpacity" : {
                                    "type" : "double",
                                    "defaultValue" : 0.0,
                                    "interp" : "linr"
                                  }
                                },
                                "effects" : [

                                ],
                                "start" : 7658,
                                "duration" : 45,
                                "mediaStart" : 8776,
                                "mediaDuration" : 45,
                                "scalar" : 1,
                                "animationTracks" : {

                                }
                              },
                          "audio" : 
                              {
                                "id" : 856,
                                "_type" : "AMFile",
                                "src" : 1,
                                "trackNumber" : 1,
                                "attributes" : {
                                  "ident" : "",
                                  "gain" : 1.0,
                                  "mixToMono" : false
                                },
                                  "channelNumber" : "0,1",
                                "effects" : [

                                ],
                                "start" : 7658,
                                "duration" : 45,
                                "mediaStart" : 8776,
                                "mediaDuration" : 45,
                                "scalar" : 1,
                                "animationTracks" : {

                                }
                              }
,
                          "start" : 7658,
                          "duration" : 45,
                          "mediaStart" : 0,
                          "mediaDuration" : 25747,
                          "scalar" : 1,
                          "metadata" : {
                            "AutoAppliedSmartFocus" : "False",
                            "clipSpeedAttribute" : false
                          }
                        },
                        {
                          "id" : 857,
                          "_type" : "UnifiedMedia",
                          "video" : 
                              {
                                "id" : 858,
                                "_type" : "ScreenVMFile",
                                "src" : 1,
                                "trackNumber" : 0,
                                "attributes" : {
                                  "ident" : "Rec 01-10-21"
                                },
                                "parameters" : {
                                  "cursorScale" : {
                                    "type" : "double",
                                    "defaultValue" : 0.0,
                                    "interp" : "linr"
                                  },
                                  "cursorOpacity" : {
                                    "type" : "double",
                                    "defaultValue" : 0.0,
                                    "interp" : "linr"
                                  }
                                },
                                "effects" : [

                                ],
                                "start" : 7703,
                                "duration" : 46,
                                "mediaStart" : 8841,
                                "mediaDuration" : 46,
                                "scalar" : 1,
                                "animationTracks" : {

                                }
                              },
                          "audio" : 
                              {
                                "id" : 859,
                                "_type" : "AMFile",
                                "src" : 1,
                                "trackNumber" : 1,
                                "attributes" : {
                                  "ident" : "",
                                  "gain" : 1.0,
                                  "mixToMono" : false
                                },
                                  "channelNumber" : "0,1",
                                "effects" : [

                                ],
                                "start" : 7703,
                                "duration" : 46,
                                "mediaStart" : 8841,
                                "mediaDuration" : 46,
                                "scalar" : 1,
                                "animationTracks" : {

                                }
                              }
,
                          "start" : 7703,
                          "duration" : 46,
                          "mediaStart" : 0,
                          "mediaDuration" : 25747,
                          "scalar" : 1,
                          "metadata" : {
                            "AutoAppliedSmartFocus" : "False",
                            "clipSpeedAttribute" : false
                          }
                        },
                        {
                          "id" : 860,
                          "_type" : "UnifiedMedia",
                          "video" : 
                              {
                                "id" : 861,
                                "_type" : "ScreenVMFile",
                                "src" : 1,
                                "trackNumber" : 0,
                                "attributes" : {
                                  "ident" : "Rec 01-10-21"
                                },
                                "parameters" : {
                                  "cursorScale" : {
                                    "type" : "double",
                                    "defaultValue" : 0.0,
                                    "interp" : "linr"
                                  },
                                  "cursorOpacity" : {
                                    "type" : "double",
                                    "defaultValue" : 0.0,
                                    "interp" : "linr"
                                  }
                                },
                                "effects" : [

                                ],
                                "start" : 7749,
                                "duration" : 1925,
                                "mediaStart" : 8937,
                                "mediaDuration" : 1925,
                                "scalar" : 1,
                                "animationTracks" : {

                                }
                              },
                          "audio" : 
                              {
                                "id" : 862,
                                "_type" : "AMFile",
                                "src" : 1,
                                "trackNumber" : 1,
                                "attributes" : {
                                  "ident" : "",
                                  "gain" : 1.0,
                                  "mixToMono" : false
                                },
                                  "channelNumber" : "0,1",
                                "effects" : [

                                ],
                                "start" : 7749,
                                "duration" : 1925,
                                "mediaStart" : 8937,
                                "mediaDuration" : 1925,
                                "scalar" : 1,
                                "animationTracks" : {

                                }
                              }
,
                          "start" : 7749,
                          "duration" : 1925,
                          "mediaStart" : 0,
                          "mediaDuration" : 25747,
                          "scalar" : 1,
                          "metadata" : {
                            "AutoAppliedSmartFocus" : "False",
                            "clipSpeedAttribute" : false
                          }
                        },
                        {
                          "id" : 863,
                          "_type" : "UnifiedMedia",
                          "video" : 
                              {
                                "id" : 864,
                                "_type" : "ScreenVMFile",
                                "src" : 1,
                                "trackNumber" : 0,
                                "attributes" : {
                                  "ident" : "Rec 01-10-21"
                                },
                                "parameters" : {
                                  "cursorScale" : {
                                    "type" : "double",
                                    "defaultValue" : 0.0,
                                    "interp" : "linr"
                                  },
                                  "cursorOpacity" : {
                                    "type" : "double",
                                    "defaultValue" : 0.0,
                                    "interp" : "linr"
                                  }
                                },
                                "effects" : [

                                ],
                                "start" : 9674,
                                "duration" : 322,
                                "mediaStart" : 10938,
                                "mediaDuration" : 322,
                                "scalar" : 1,
                                "animationTracks" : {

                                }
                              },
                          "audio" : 
                              {
                                "id" : 865,
                                "_type" : "AMFile",
                                "src" : 1,
                                "trackNumber" : 1,
                                "attributes" : {
                                  "ident" : "",
                                  "gain" : 1.0,
                                  "mixToMono" : false
                                },
                                  "channelNumber" : "0,1",
                                "effects" : [

                                ],
                                "start" : 9674,
                                "duration" : 322,
                                "mediaStart" : 10938,
                                "mediaDuration" : 322,
                                "scalar" : 1,
                                "animationTracks" : {

                                }
                              }
,
                          "start" : 9674,
                          "duration" : 322,
                          "mediaStart" : 0,
                          "mediaDuration" : 25747,
                          "scalar" : 1,
                          "metadata" : {
                            "AutoAppliedSmartFocus" : "False",
                            "clipSpeedAttribute" : false
                          }
                        },
                        {
                          "id" : 866,
                          "_type" : "UnifiedMedia",
                          "video" : 
                              {
                                "id" : 867,
                                "_type" : "ScreenVMFile",
                                "src" : 1,
                                "trackNumber" : 0,
                                "attributes" : {
                                  "ident" : "Rec 01-10-21"
                                },
                                "parameters" : {
                                  "cursorScale" : {
                                    "type" : "double",
                                    "defaultValue" : 0.0,
                                    "interp" : "linr"
                                  },
                                  "cursorOpacity" : {
                                    "type" : "double",
                                    "defaultValue" : 0.0,
                                    "interp" : "linr"
                                  }
                                },
                                "effects" : [

                                ],
                                "start" : 9996,
                                "duration" : 27,
                                "mediaStart" : 11328,
                                "mediaDuration" : 27,
                                "scalar" : 1,
                                "animationTracks" : {

                                }
                              },
                          "audio" : 
                              {
                                "id" : 868,
                                "_type" : "AMFile",
                                "src" : 1,
                                "trackNumber" : 1,
                                "attributes" : {
                                  "ident" : "",
                                  "gain" : 1.0,
                                  "mixToMono" : false
                                },
                                  "channelNumber" : "0,1",
                                "effects" : [

                                ],
                                "start" : 9996,
                                "duration" : 27,
                                "mediaStart" : 11328,
                                "mediaDuration" : 27,
                                "scalar" : 1,
                                "animationTracks" : {

                                }
                              }
,
                          "start" : 9996,
                          "duration" : 27,
                          "mediaStart" : 0,
                          "mediaDuration" : 25747,
                          "scalar" : 1,
                          "metadata" : {
                            "AutoAppliedSmartFocus" : "False",
                            "clipSpeedAttribute" : false
                          }
                        },
                        {
                          "id" : 869,
                          "_type" : "UnifiedMedia",
                          "video" : 
                              {
                                "id" : 870,
                                "_type" : "ScreenVMFile",
                                "src" : 1,
                                "trackNumber" : 0,
                                "attributes" : {
                                  "ident" : "Rec 01-10-21"
                                },
                                "parameters" : {
                                  "cursorScale" : {
                                    "type" : "double",
                                    "defaultValue" : 0.0,
                                    "interp" : "linr"
                                  },
                                  "cursorOpacity" : {
                                    "type" : "double",
                                    "defaultValue" : 0.0,
                                    "interp" : "linr"
                                  }
                                },
                                "effects" : [

                                ],
                                "start" : 10023,
                                "duration" : 119,
                                "mediaStart" : 11424,
                                "mediaDuration" : 119,
                                "scalar" : 1,
                                "animationTracks" : {

                                }
                              },
                          "audio" : 
                              {
                                "id" : 871,
                                "_type" : "AMFile",
                                "src" : 1,
                                "trackNumber" : 1,
                                "attributes" : {
                                  "ident" : "",
                                  "gain" : 1.0,
                                  "mixToMono" : false
                                },
                                  "channelNumber" : "0,1",
                                "effects" : [

                                ],
                                "start" : 10023,
                                "duration" : 119,
                                "mediaStart" : 11424,
                                "mediaDuration" : 119,
                                "scalar" : 1,
                                "animationTracks" : {

                                }
                              }
,
                          "start" : 10023,
                          "duration" : 119,
                          "mediaStart" : 0,
                          "mediaDuration" : 25747,
                          "scalar" : 1,
                          "metadata" : {
                            "AutoAppliedSmartFocus" : "False",
                            "clipSpeedAttribute" : false
                          }
                        },
                        {
                          "id" : 872,
                          "_type" : "UnifiedMedia",
                          "video" : 
                              {
                                "id" : 873,
                                "_type" : "ScreenVMFile",
                                "src" : 1,
                                "trackNumber" : 0,
                                "attributes" : {
                                  "ident" : "Rec 01-10-21"
                                },
                                "parameters" : {
                                  "cursorScale" : {
                                    "type" : "double",
                                    "defaultValue" : 0.0,
                                    "interp" : "linr"
                                  },
                                  "cursorOpacity" : {
                                    "type" : "double",
                                    "defaultValue" : 0.0,
                                    "interp" : "linr"
                                  }
                                },
                                "effects" : [

                                ],
                                "start" : 10142,
                                "duration" : 46,
                                "mediaStart" : 11727,
                                "mediaDuration" : 46,
                                "scalar" : 1,
                                "animationTracks" : {

                                }
                              },
                          "audio" : 
                              {
                                "id" : 874,
                                "_type" : "AMFile",
                                "src" : 1,
                                "trackNumber" : 1,
                                "attributes" : {
                                  "ident" : "",
                                  "gain" : 1.0,
                                  "mixToMono" : false
                                },
                                  "channelNumber" : "0,1",
                                "effects" : [

                                ],
                                "start" : 10142,
                                "duration" : 46,
                                "mediaStart" : 11727,
                                "mediaDuration" : 46,
                                "scalar" : 1,
                                "animationTracks" : {

                                }
                              }
,
                          "start" : 10142,
                          "duration" : 46,
                          "mediaStart" : 0,
                          "mediaDuration" : 25747,
                          "scalar" : 1,
                          "metadata" : {
                            "AutoAppliedSmartFocus" : "False",
                            "clipSpeedAttribute" : false
                          }
                        },
                        {
                          "id" : 875,
                          "_type" : "UnifiedMedia",
                          "video" : 
                              {
                                "id" : 876,
                                "_type" : "ScreenVMFile",
                                "src" : 1,
                                "trackNumber" : 0,
                                "attributes" : {
                                  "ident" : "Rec 01-10-21"
                                },
                                "parameters" : {
                                  "cursorScale" : {
                                    "type" : "double",
                                    "defaultValue" : 0.0,
                                    "interp" : "linr"
                                  },
                                  "cursorOpacity" : {
                                    "type" : "double",
                                    "defaultValue" : 0.0,
                                    "interp" : "linr"
                                  }
                                },
                                "effects" : [

                                ],
                                "start" : 10188,
                                "duration" : 461,
                                "mediaStart" : 11870,
                                "mediaDuration" : 461,
                                "scalar" : 1,
                                "animationTracks" : {

                                }
                              },
                          "audio" : 
                              {
                                "id" : 877,
                                "_type" : "AMFile",
                                "src" : 1,
                                "trackNumber" : 1,
                                "attributes" : {
                                  "ident" : "",
                                  "gain" : 1.0,
                                  "mixToMono" : false
                                },
                                  "channelNumber" : "0,1",
                                "effects" : [

                                ],
                                "start" : 10188,
                                "duration" : 461,
                                "mediaStart" : 11870,
                                "mediaDuration" : 461,
                                "scalar" : 1,
                                "animationTracks" : {

                                }
                              }
,
                          "start" : 10188,
                          "duration" : 461,
                          "mediaStart" : 0,
                          "mediaDuration" : 25747,
                          "scalar" : 1,
                          "metadata" : {
                            "AutoAppliedSmartFocus" : "False",
                            "clipSpeedAttribute" : false
                          }
                        },
                        {
                          "id" : 878,
                          "_type" : "UnifiedMedia",
                          "video" : 
                              {
                                "id" : 879,
                                "_type" : "ScreenVMFile",
                                "src" : 1,
                                "trackNumber" : 0,
                                "attributes" : {
                                  "ident" : "Rec 01-10-21"
                                },
                                "parameters" : {
                                  "cursorScale" : {
                                    "type" : "double",
                                    "defaultValue" : 0.0,
                                    "interp" : "linr"
                                  },
                                  "cursorOpacity" : {
                                    "type" : "double",
                                    "defaultValue" : 0.0,
                                    "interp" : "linr"
                                  }
                                },
                                "effects" : [

                                ],
                                "start" : 10649,
                                "duration" : 73,
                                "mediaStart" : 12767,
                                "mediaDuration" : 73,
                                "scalar" : 1,
                                "animationTracks" : {

                                }
                              },
                          "audio" : 
                              {
                                "id" : 880,
                                "_type" : "AMFile",
                                "src" : 1,
                                "trackNumber" : 1,
                                "attributes" : {
                                  "ident" : "",
                                  "gain" : 1.0,
                                  "mixToMono" : false
                                },
                                  "channelNumber" : "0,1",
                                "effects" : [

                                ],
                                "start" : 10649,
                                "duration" : 73,
                                "mediaStart" : 12767,
                                "mediaDuration" : 73,
                                "scalar" : 1,
                                "animationTracks" : {

                                }
                              }
,
                          "start" : 10649,
                          "duration" : 73,
                          "mediaStart" : 0,
                          "mediaDuration" : 25747,
                          "scalar" : 1,
                          "metadata" : {
                            "AutoAppliedSmartFocus" : "False",
                            "clipSpeedAttribute" : false
                          }
                        },
                        {
                          "id" : 881,
                          "_type" : "UnifiedMedia",
                          "video" : 
                              {
                                "id" : 882,
                                "_type" : "ScreenVMFile",
                                "src" : 1,
                                "trackNumber" : 0,
                                "attributes" : {
                                  "ident" : "Rec 01-10-21"
                                },
                                "parameters" : {
                                  "cursorScale" : {
                                    "type" : "double",
                                    "defaultValue" : 0.0,
                                    "interp" : "linr"
                                  },
                                  "cursorOpacity" : {
                                    "type" : "double",
                                    "defaultValue" : 0.0,
                                    "interp" : "linr"
                                  }
                                },
                                "effects" : [

                                ],
                                "start" : 10722,
                                "duration" : 166,
                                "mediaStart" : 13215,
                                "mediaDuration" : 166,
                                "scalar" : 1,
                                "animationTracks" : {

                                }
                              },
                          "audio" : 
                              {
                                "id" : 883,
                                "_type" : "AMFile",
                                "src" : 1,
                                "trackNumber" : 1,
                                "attributes" : {
                                  "ident" : "",
                                  "gain" : 1.0,
                                  "mixToMono" : false
                                },
                                  "channelNumber" : "0,1",
                                "effects" : [

                                ],
                                "start" : 10722,
                                "duration" : 166,
                                "mediaStart" : 13215,
                                "mediaDuration" : 166,
                                "scalar" : 1,
                                "animationTracks" : {

                                }
                              }
,
                          "start" : 10722,
                          "duration" : 166,
                          "mediaStart" : 0,
                          "mediaDuration" : 25747,
                          "scalar" : 1,
                          "metadata" : {
                            "AutoAppliedSmartFocus" : "False",
                            "clipSpeedAttribute" : false
                          }
                        },
                        {
                          "id" : 884,
                          "_type" : "UnifiedMedia",
                          "video" : 
                              {
                                "id" : 885,
                                "_type" : "ScreenVMFile",
                                "src" : 1,
                                "trackNumber" : 0,
                                "attributes" : {
                                  "ident" : "Rec 01-10-21"
                                },
                                "parameters" : {
                                  "cursorScale" : {
                                    "type" : "double",
                                    "defaultValue" : 0.0,
                                    "interp" : "linr"
                                  },
                                  "cursorOpacity" : {
                                    "type" : "double",
                                    "defaultValue" : 0.0,
                                    "interp" : "linr"
                                  }
                                },
                                "effects" : [

                                ],
                                "start" : 10888,
                                "duration" : 305,
                                "mediaStart" : 13397,
                                "mediaDuration" : 305,
                                "scalar" : 1,
                                "animationTracks" : {

                                }
                              },
                          "audio" : 
                              {
                                "id" : 886,
                                "_type" : "AMFile",
                                "src" : 1,
                                "trackNumber" : 1,
                                "attributes" : {
                                  "ident" : "",
                                  "gain" : 1.0,
                                  "mixToMono" : false
                                },
                                  "channelNumber" : "0,1",
                                "effects" : [

                                ],
                                "start" : 10888,
                                "duration" : 305,
                                "mediaStart" : 13397,
                                "mediaDuration" : 305,
                                "scalar" : 1,
                                "animationTracks" : {

                                }
                              }
,
                          "start" : 10888,
                          "duration" : 305,
                          "mediaStart" : 0,
                          "mediaDuration" : 25747,
                          "scalar" : 1,
                          "metadata" : {
                            "AutoAppliedSmartFocus" : "False",
                            "clipSpeedAttribute" : false
                          }
                        },
                        {
                          "id" : 887,
                          "_type" : "UnifiedMedia",
                          "video" : 
                              {
                                "id" : 888,
                                "_type" : "ScreenVMFile",
                                "src" : 1,
                                "trackNumber" : 0,
                                "attributes" : {
                                  "ident" : "Rec 01-10-21"
                                },
                                "parameters" : {
                                  "cursorScale" : {
                                    "type" : "double",
                                    "defaultValue" : 0.0,
                                    "interp" : "linr"
                                  },
                                  "cursorOpacity" : {
                                    "type" : "double",
                                    "defaultValue" : 0.0,
                                    "interp" : "linr"
                                  }
                                },
                                "effects" : [

                                ],
                                "start" : 11193,
                                "duration" : 196,
                                "mediaStart" : 13738,
                                "mediaDuration" : 196,
                                "scalar" : 1,
                                "animationTracks" : {

                                }
                              },
                          "audio" : 
                              {
                                "id" : 889,
                                "_type" : "AMFile",
                                "src" : 1,
                                "trackNumber" : 1,
                                "attributes" : {
                                  "ident" : "",
                                  "gain" : 1.0,
                                  "mixToMono" : false
                                },
                                  "channelNumber" : "0,1",
                                "effects" : [

                                ],
                                "start" : 11193,
                                "duration" : 196,
                                "mediaStart" : 13738,
                                "mediaDuration" : 196,
                                "scalar" : 1,
                                "animationTracks" : {

                                }
                              }
,
                          "start" : 11193,
                          "duration" : 196,
                          "mediaStart" : 0,
                          "mediaDuration" : 25747,
                          "scalar" : 1,
                          "metadata" : {
                            "AutoAppliedSmartFocus" : "False",
                            "clipSpeedAttribute" : false
                          }
                        },
                        {
                          "id" : 890,
                          "_type" : "UnifiedMedia",
                          "video" : 
                              {
                                "id" : 891,
                                "_type" : "ScreenVMFile",
                                "src" : 1,
                                "trackNumber" : 0,
                                "attributes" : {
                                  "ident" : "Rec 01-10-21"
                                },
                                "parameters" : {
                                  "cursorScale" : {
                                    "type" : "double",
                                    "defaultValue" : 0.0,
                                    "interp" : "linr"
                                  },
                                  "cursorOpacity" : {
                                    "type" : "double",
                                    "defaultValue" : 0.0,
                                    "interp" : "linr"
                                  }
                                },
                                "effects" : [

                                ],
                                "start" : 11389,
                                "duration" : 54,
                                "mediaStart" : 13961,
                                "mediaDuration" : 54,
                                "scalar" : 1,
                                "animationTracks" : {

                                }
                              },
                          "audio" : 
                              {
                                "id" : 892,
                                "_type" : "AMFile",
                                "src" : 1,
                                "trackNumber" : 1,
                                "attributes" : {
                                  "ident" : "",
                                  "gain" : 1.0,
                                  "mixToMono" : false
                                },
                                  "channelNumber" : "0,1",
                                "effects" : [

                                ],
                                "start" : 11389,
                                "duration" : 54,
                                "mediaStart" : 13961,
                                "mediaDuration" : 54,
                                "scalar" : 1,
                                "animationTracks" : {

                                }
                              }
,
                          "start" : 11389,
                          "duration" : 54,
                          "mediaStart" : 0,
                          "mediaDuration" : 25747,
                          "scalar" : 1,
                          "metadata" : {
                            "AutoAppliedSmartFocus" : "False",
                            "clipSpeedAttribute" : false
                          }
                        },
                        {
                          "id" : 893,
                          "_type" : "UnifiedMedia",
                          "video" : 
                              {
                                "id" : 894,
                                "_type" : "ScreenVMFile",
                                "src" : 1,
                                "trackNumber" : 0,
                                "attributes" : {
                                  "ident" : "Rec 01-10-21"
                                },
                                "parameters" : {
                                  "cursorScale" : {
                                    "type" : "double",
                                    "defaultValue" : 0.0,
                                    "interp" : "linr"
                                  },
                                  "cursorOpacity" : {
                                    "type" : "double",
                                    "defaultValue" : 0.0,
                                    "interp" : "linr"
                                  }
                                },
                                "effects" : [

                                ],
                                "start" : 11443,
                                "duration" : 28,
                                "mediaStart" : 14029,
                                "mediaDuration" : 28,
                                "scalar" : 1,
                                "animationTracks" : {

                                }
                              },
                          "audio" : 
                              {
                                "id" : 895,
                                "_type" : "AMFile",
                                "src" : 1,
                                "trackNumber" : 1,
                                "attributes" : {
                                  "ident" : "",
                                  "gain" : 1.0,
                                  "mixToMono" : false
                                },
                                  "channelNumber" : "0,1",
                                "effects" : [

                                ],
                                "start" : 11443,
                                "duration" : 28,
                                "mediaStart" : 14029,
                                "mediaDuration" : 28,
                                "scalar" : 1,
                                "animationTracks" : {

                                }
                              }
,
                          "start" : 11443,
                          "duration" : 28,
                          "mediaStart" : 0,
                          "mediaDuration" : 25747,
                          "scalar" : 1,
                          "metadata" : {
                            "AutoAppliedSmartFocus" : "False",
                            "clipSpeedAttribute" : false
                          }
                        },
                        {
                          "id" : 896,
                          "_type" : "UnifiedMedia",
                          "video" : 
                              {
                                "id" : 897,
                                "_type" : "ScreenVMFile",
                                "src" : 1,
                                "trackNumber" : 0,
                                "attributes" : {
                                  "ident" : "Rec 01-10-21"
                                },
                                "parameters" : {
                                  "cursorScale" : {
                                    "type" : "double",
                                    "defaultValue" : 0.0,
                                    "interp" : "linr"
                                  },
                                  "cursorOpacity" : {
                                    "type" : "double",
                                    "defaultValue" : 0.0,
                                    "interp" : "linr"
                                  }
                                },
                                "effects" : [

                                ],
                                "start" : 11471,
                                "duration" : 48,
                                "mediaStart" : 14274,
                                "mediaDuration" : 48,
                                "scalar" : 1,
                                "animationTracks" : {

                                }
                              },
                          "audio" : 
                              {
                                "id" : 898,
                                "_type" : "AMFile",
                                "src" : 1,
                                "trackNumber" : 1,
                                "attributes" : {
                                  "ident" : "",
                                  "gain" : 1.0,
                                  "mixToMono" : false
                                },
                                  "channelNumber" : "0,1",
                                "effects" : [

                                ],
                                "start" : 11471,
                                "duration" : 48,
                                "mediaStart" : 14274,
                                "mediaDuration" : 48,
                                "scalar" : 1,
                                "animationTracks" : {

                                }
                              }
,
                          "start" : 11471,
                          "duration" : 48,
                          "mediaStart" : 0,
                          "mediaDuration" : 25747,
                          "scalar" : 1,
                          "metadata" : {
                            "AutoAppliedSmartFocus" : "False",
                            "clipSpeedAttribute" : false
                          }
                        },
                        {
                          "id" : 899,
                          "_type" : "UnifiedMedia",
                          "video" : 
                              {
                                "id" : 900,
                                "_type" : "ScreenVMFile",
                                "src" : 1,
                                "trackNumber" : 0,
                                "attributes" : {
                                  "ident" : "Rec 01-10-21"
                                },
                                "parameters" : {
                                  "cursorScale" : {
                                    "type" : "double",
                                    "defaultValue" : 0.0,
                                    "interp" : "linr"
                                  },
                                  "cursorOpacity" : {
                                    "type" : "double",
                                    "defaultValue" : 0.0,
                                    "interp" : "linr"
                                  }
                                },
                                "effects" : [

                                ],
                                "start" : 11519,
                                "duration" : 118,
                                "mediaStart" : 14378,
                                "mediaDuration" : 118,
                                "scalar" : 1,
                                "animationTracks" : {

                                }
                              },
                          "audio" : 
                              {
                                "id" : 901,
                                "_type" : "AMFile",
                                "src" : 1,
                                "trackNumber" : 1,
                                "attributes" : {
                                  "ident" : "",
                                  "gain" : 1.0,
                                  "mixToMono" : false
                                },
                                  "channelNumber" : "0,1",
                                "effects" : [

                                ],
                                "start" : 11519,
                                "duration" : 118,
                                "mediaStart" : 14378,
                                "mediaDuration" : 118,
                                "scalar" : 1,
                                "animationTracks" : {

                                }
                              }
,
                          "start" : 11519,
                          "duration" : 118,
                          "mediaStart" : 0,
                          "mediaDuration" : 25747,
                          "scalar" : 1,
                          "metadata" : {
                            "AutoAppliedSmartFocus" : "False",
                            "clipSpeedAttribute" : false
                          }
                        },
                        {
                          "id" : 902,
                          "_type" : "UnifiedMedia",
                          "video" : 
                              {
                                "id" : 903,
                                "_type" : "ScreenVMFile",
                                "src" : 1,
                                "trackNumber" : 0,
                                "attributes" : {
                                  "ident" : "Rec 01-10-21"
                                },
                                "parameters" : {
                                  "cursorScale" : {
                                    "type" : "double",
                                    "defaultValue" : 0.0,
                                    "interp" : "linr"
                                  },
                                  "cursorOpacity" : {
                                    "type" : "double",
                                    "defaultValue" : 0.0,
                                    "interp" : "linr"
                                  }
                                },
                                "effects" : [

                                ],
                                "start" : 11637,
                                "duration" : 252,
                                "mediaStart" : 14503,
                                "mediaDuration" : 252,
                                "scalar" : 1,
                                "animationTracks" : {

                                }
                              },
                          "audio" : 
                              {
                                "id" : 904,
                                "_type" : "AMFile",
                                "src" : 1,
                                "trackNumber" : 1,
                                "attributes" : {
                                  "ident" : "",
                                  "gain" : 1.0,
                                  "mixToMono" : false
                                },
                                  "channelNumber" : "0,1",
                                "effects" : [

                                ],
                                "start" : 11637,
                                "duration" : 252,
                                "mediaStart" : 14503,
                                "mediaDuration" : 252,
                                "scalar" : 1,
                                "animationTracks" : {

                                }
                              }
,
                          "start" : 11637,
                          "duration" : 252,
                          "mediaStart" : 0,
                          "mediaDuration" : 25747,
                          "scalar" : 1,
                          "metadata" : {
                            "AutoAppliedSmartFocus" : "False",
                            "clipSpeedAttribute" : false
                          }
                        },
                        {
                          "id" : 905,
                          "_type" : "UnifiedMedia",
                          "video" : 
                              {
                                "id" : 906,
                                "_type" : "ScreenVMFile",
                                "src" : 1,
                                "trackNumber" : 0,
                                "attributes" : {
                                  "ident" : "Rec 01-10-21"
                                },
                                "parameters" : {
                                  "cursorScale" : {
                                    "type" : "double",
                                    "defaultValue" : 0.0,
                                    "interp" : "linr"
                                  },
                                  "cursorOpacity" : {
                                    "type" : "double",
                                    "defaultValue" : 0.0,
                                    "interp" : "linr"
                                  }
                                },
                                "effects" : [

                                ],
                                "start" : 11889,
                                "duration" : 127,
                                "mediaStart" : 14814,
                                "mediaDuration" : 127,
                                "scalar" : 1,
                                "animationTracks" : {

                                }
                              },
                          "audio" : 
                              {
                                "id" : 907,
                                "_type" : "AMFile",
                                "src" : 1,
                                "trackNumber" : 1,
                                "attributes" : {
                                  "ident" : "",
                                  "gain" : 1.0,
                                  "mixToMono" : false
                                },
                                  "channelNumber" : "0,1",
                                "effects" : [

                                ],
                                "start" : 11889,
                                "duration" : 127,
                                "mediaStart" : 14814,
                                "mediaDuration" : 127,
                                "scalar" : 1,
                                "animationTracks" : {

                                }
                              }
,
                          "start" : 11889,
                          "duration" : 127,
                          "mediaStart" : 0,
                          "mediaDuration" : 25747,
                          "scalar" : 1,
                          "metadata" : {
                            "AutoAppliedSmartFocus" : "False",
                            "clipSpeedAttribute" : false
                          }
                        },
                        {
                          "id" : 908,
                          "_type" : "UnifiedMedia",
                          "video" : 
                              {
                                "id" : 909,
                                "_type" : "ScreenVMFile",
                                "src" : 1,
                                "trackNumber" : 0,
                                "attributes" : {
                                  "ident" : "Rec 01-10-21"
                                },
                                "parameters" : {
                                  "cursorScale" : {
                                    "type" : "double",
                                    "defaultValue" : 0.0,
                                    "interp" : "linr"
                                  },
                                  "cursorOpacity" : {
                                    "type" : "double",
                                    "defaultValue" : 0.0,
                                    "interp" : "linr"
                                  }
                                },
                                "effects" : [

                                ],
                                "start" : 12016,
                                "duration" : 43,
                                "mediaStart" : 14962,
                                "mediaDuration" : 43,
                                "scalar" : 1,
                                "animationTracks" : {

                                }
                              },
                          "audio" : 
                              {
                                "id" : 910,
                                "_type" : "AMFile",
                                "src" : 1,
                                "trackNumber" : 1,
                                "attributes" : {
                                  "ident" : "",
                                  "gain" : 1.0,
                                  "mixToMono" : false
                                },
                                  "channelNumber" : "0,1",
                                "effects" : [

                                ],
                                "start" : 12016,
                                "duration" : 43,
                                "mediaStart" : 14962,
                                "mediaDuration" : 43,
                                "scalar" : 1,
                                "animationTracks" : {

                                }
                              }
,
                          "start" : 12016,
                          "duration" : 43,
                          "mediaStart" : 0,
                          "mediaDuration" : 25747,
                          "scalar" : 1,
                          "metadata" : {
                            "AutoAppliedSmartFocus" : "False",
                            "clipSpeedAttribute" : false
                          }
                        },
                        {
                          "id" : 911,
                          "_type" : "UnifiedMedia",
                          "video" : 
                              {
                                "id" : 912,
                                "_type" : "ScreenVMFile",
                                "src" : 1,
                                "trackNumber" : 0,
                                "attributes" : {
                                  "ident" : "Rec 01-10-21"
                                },
                                "parameters" : {
                                  "cursorScale" : {
                                    "type" : "double",
                                    "defaultValue" : 0.0,
                                    "interp" : "linr"
                                  },
                                  "cursorOpacity" : {
                                    "type" : "double",
                                    "defaultValue" : 0.0,
                                    "interp" : "linr"
                                  }
                                },
                                "effects" : [

                                ],
                                "start" : 12059,
                                "duration" : 84,
                                "mediaStart" : 15016,
                                "mediaDuration" : 84,
                                "scalar" : 1,
                                "animationTracks" : {

                                }
                              },
                          "audio" : 
                              {
                                "id" : 913,
                                "_type" : "AMFile",
                                "src" : 1,
                                "trackNumber" : 1,
                                "attributes" : {
                                  "ident" : "",
                                  "gain" : 1.0,
                                  "mixToMono" : false
                                },
                                  "channelNumber" : "0,1",
                                "effects" : [

                                ],
                                "start" : 12059,
                                "duration" : 84,
                                "mediaStart" : 15016,
                                "mediaDuration" : 84,
                                "scalar" : 1,
                                "animationTracks" : {

                                }
                              }
,
                          "start" : 12059,
                          "duration" : 84,
                          "mediaStart" : 0,
                          "mediaDuration" : 25747,
                          "scalar" : 1,
                          "metadata" : {
                            "AutoAppliedSmartFocus" : "False",
                            "clipSpeedAttribute" : false
                          }
                        },
                        {
                          "id" : 914,
                          "_type" : "UnifiedMedia",
                          "video" : 
                              {
                                "id" : 915,
                                "_type" : "ScreenVMFile",
                                "src" : 1,
                                "trackNumber" : 0,
                                "attributes" : {
                                  "ident" : "Rec 01-10-21"
                                },
                                "parameters" : {
                                  "cursorScale" : {
                                    "type" : "double",
                                    "defaultValue" : 0.0,
                                    "interp" : "linr"
                                  },
                                  "cursorOpacity" : {
                                    "type" : "double",
                                    "defaultValue" : 0.0,
                                    "interp" : "linr"
                                  }
                                },
                                "effects" : [

                                ],
                                "start" : 12143,
                                "duration" : 10600,
                                "mediaStart" : 15147,
                                "mediaDuration" : 10600,
                                "scalar" : 1,
                                "animationTracks" : {

                                }
                              },
                          "audio" : 
                              {
                                "id" : 916,
                                "_type" : "AMFile",
                                "src" : 1,
                                "trackNumber" : 1,
                                "attributes" : {
                                  "ident" : "",
                                  "gain" : 1.0,
                                  "mixToMono" : false
                                },
                                  "channelNumber" : "0,1",
                                "effects" : [

                                ],
                                "start" : 12143,
                                "duration" : 10600,
                                "mediaStart" : 15147,
                                "mediaDuration" : 10600,
                                "scalar" : 1,
                                "animationTracks" : {

                                }
                              }
,
                          "start" : 12143,
                          "duration" : 10600,
                          "mediaStart" : 0,
                          "mediaDuration" : 25747,
                          "scalar" : 1,
                          "metadata" : {
                            "AutoAppliedSmartFocus" : "False",
                            "clipSpeedAttribute" : false
                          }
                        }
                    ],
                    "effects" : [

                    ],
                    "start" : 7271,
                    "duration" : 996,
                    "mediaStart" : 11132,
                    "mediaDuration" : 996,
                    "scalar" : 1,
                    "metadata" : {
                      "AutoAppliedSmartFocus" : "False",
                      "clipSpeedAttribute" : false
                    },
                    "animationTracks" : {

                    }
                  },
                  {
                    "id" : 917,
                    "_type" : "Group",
                    "parameters" : {
                      "volume" : 1.0
                    },
                    "tracks" : [
                      {
                        "trackIndex" : 0,
                        "medias" : [
                          {
                            "id" : 918,
                            "_type" : "StitchedMedia",
                            "minMediaStart" : 0,
                            "attributes" : {
                              "ident" : "Rec 01-10-21",
                              "gain" : 1.0,
                              "mixToMono" : false
                            },
                            "parameters" : {
                              "volume" : 1.0,
                              "cursorOpacity" : {
                                "type" : "double",
                                "defaultValue" : 1.0,
                                "interp" : "linr"
                              },
                              "cursorScale" : {
                                "type" : "double",
                                "defaultValue" : 1.0,
                                "interp" : "linr"
                              }
                            },
                            "medias" : [
                                {
                                  "id" : 919,
                                  "_type" : "UnifiedMedia",
                                  "video" : 
                                      {
                                        "id" : 920,
                                        "_type" : "ScreenVMFile",
                                        "src" : 1,
                                        "trackNumber" : 0,
                                        "attributes" : {
                                          "ident" : "Rec 01-10-21"
                                        },
                                        "parameters" : {
                                          "cursorScale" : {
                                            "type" : "double",
                                            "defaultValue" : 0.0,
                                            "interp" : "linr"
                                          },
                                          "cursorOpacity" : {
                                            "type" : "double",
                                            "defaultValue" : 0.0,
                                            "interp" : "linr"
                                          }
                                        },
                                        "effects" : [

                                        ],
                                        "start" : 0,
                                        "duration" : 5487,
                                        "mediaStart" : 0,
                                        "mediaDuration" : 5487,
                                        "scalar" : 1,
                                        "animationTracks" : {

                                        }
                                      },
                                  "audio" : 
                                      {
                                        "id" : 921,
                                        "_type" : "AMFile",
                                        "src" : 1,
                                        "trackNumber" : 1,
                                        "attributes" : {
                                          "ident" : "",
                                          "gain" : 1.0,
                                          "mixToMono" : false
                                        },
                                          "channelNumber" : "0,1",
                                        "effects" : [

                                        ],
                                        "start" : 0,
                                        "duration" : 5487,
                                        "mediaStart" : 0,
                                        "mediaDuration" : 5487,
                                        "scalar" : 1,
                                        "animationTracks" : {

                                        }
                                      }
,
                                  "start" : 0,
                                  "duration" : 5487,
                                  "mediaStart" : 0,
                                  "mediaDuration" : 25747,
                                  "scalar" : 1,
                                  "metadata" : {
                                    "AutoAppliedSmartFocus" : "False",
                                    "clipSpeedAttribute" : false
                                  }
                                },
                                {
                                  "id" : 922,
                                  "_type" : "UnifiedMedia",
                                  "video" : 
                                      {
                                        "id" : 923,
                                        "_type" : "ScreenVMFile",
                                        "src" : 1,
                                        "trackNumber" : 0,
                                        "attributes" : {
                                          "ident" : "Rec 01-10-21"
                                        },
                                        "parameters" : {
                                          "cursorScale" : {
                                            "type" : "double",
                                            "defaultValue" : 0.0,
                                            "interp" : "linr"
                                          },
                                          "cursorOpacity" : {
                                            "type" : "double",
                                            "defaultValue" : 0.0,
                                            "interp" : "linr"
                                          }
                                        },
                                        "effects" : [

                                        ],
                                        "start" : 5487,
                                        "duration" : 166,
                                        "mediaStart" : 5498,
                                        "mediaDuration" : 166,
                                        "scalar" : 1,
                                        "animationTracks" : {

                                        }
                                      },
                                  "audio" : 
                                      {
                                        "id" : 924,
                                        "_type" : "AMFile",
                                        "src" : 1,
                                        "trackNumber" : 1,
                                        "attributes" : {
                                          "ident" : "",
                                          "gain" : 1.0,
                                          "mixToMono" : false
                                        },
                                          "channelNumber" : "0,1",
                                        "effects" : [

                                        ],
                                        "start" : 5487,
                                        "duration" : 166,
                                        "mediaStart" : 5498,
                                        "mediaDuration" : 166,
                                        "scalar" : 1,
                                        "animationTracks" : {

                                        }
                                      }
,
                                  "start" : 5487,
                                  "duration" : 166,
                                  "mediaStart" : 0,
                                  "mediaDuration" : 25747,
                                  "scalar" : 1,
                                  "metadata" : {
                                    "AutoAppliedSmartFocus" : "False",
                                    "clipSpeedAttribute" : false
                                  }
                                },
                                {
                                  "id" : 925,
                                  "_type" : "UnifiedMedia",
                                  "video" : 
                                      {
                                        "id" : 926,
                                        "_type" : "ScreenVMFile",
                                        "src" : 1,
                                        "trackNumber" : 0,
                                        "attributes" : {
                                          "ident" : "Rec 01-10-21"
                                        },
                                        "parameters" : {
                                          "cursorScale" : {
                                            "type" : "double",
                                            "defaultValue" : 0.0,
                                            "interp" : "linr"
                                          },
                                          "cursorOpacity" : {
                                            "type" : "double",
                                            "defaultValue" : 0.0,
                                            "interp" : "linr"
                                          }
                                        },
                                        "effects" : [

                                        ],
                                        "start" : 5653,
                                        "duration" : 739,
                                        "mediaStart" : 5708,
                                        "mediaDuration" : 739,
                                        "scalar" : 1,
                                        "animationTracks" : {

                                        }
                                      },
                                  "audio" : 
                                      {
                                        "id" : 927,
                                        "_type" : "AMFile",
                                        "src" : 1,
                                        "trackNumber" : 1,
                                        "attributes" : {
                                          "ident" : "",
                                          "gain" : 1.0,
                                          "mixToMono" : false
                                        },
                                          "channelNumber" : "0,1",
                                        "effects" : [

                                        ],
                                        "start" : 5653,
                                        "duration" : 739,
                                        "mediaStart" : 5708,
                                        "mediaDuration" : 739,
                                        "scalar" : 1,
                                        "animationTracks" : {

                                        }
                                      }
,
                                  "start" : 5653,
                                  "duration" : 739,
                                  "mediaStart" : 0,
                                  "mediaDuration" : 25747,
                                  "scalar" : 1,
                                  "metadata" : {
                                    "AutoAppliedSmartFocus" : "False",
                                    "clipSpeedAttribute" : false
                                  }
                                },
                                {
                                  "id" : 928,
                                  "_type" : "UnifiedMedia",
                                  "video" : 
                                      {
                                        "id" : 929,
                                        "_type" : "ScreenVMFile",
                                        "src" : 1,
                                        "trackNumber" : 0,
                                        "attributes" : {
                                          "ident" : "Rec 01-10-21"
                                        },
                                        "parameters" : {
                                          "cursorScale" : {
                                            "type" : "double",
                                            "defaultValue" : 0.0,
                                            "interp" : "linr"
                                          },
                                          "cursorOpacity" : {
                                            "type" : "double",
                                            "defaultValue" : 0.0,
                                            "interp" : "linr"
                                          }
                                        },
                                        "effects" : [

                                        ],
                                        "start" : 6392,
                                        "duration" : 6,
                                        "mediaStart" : 6482,
                                        "mediaDuration" : 6,
                                        "scalar" : 1,
                                        "animationTracks" : {

                                        }
                                      },
                                  "audio" : 
                                      {
                                        "id" : 930,
                                        "_type" : "AMFile",
                                        "src" : 1,
                                        "trackNumber" : 1,
                                        "attributes" : {
                                          "ident" : "",
                                          "gain" : 1.0,
                                          "mixToMono" : false
                                        },
                                          "channelNumber" : "0,1",
                                        "effects" : [

                                        ],
                                        "start" : 6392,
                                        "duration" : 6,
                                        "mediaStart" : 6482,
                                        "mediaDuration" : 6,
                                        "scalar" : 1,
                                        "animationTracks" : {

                                        }
                                      }
,
                                  "start" : 6392,
                                  "duration" : 6,
                                  "mediaStart" : 0,
                                  "mediaDuration" : 25747,
                                  "scalar" : 1,
                                  "metadata" : {
                                    "AutoAppliedSmartFocus" : "False",
                                    "clipSpeedAttribute" : false
                                  }
                                },
                                {
                                  "id" : 931,
                                  "_type" : "UnifiedMedia",
                                  "video" : 
                                      {
                                        "id" : 932,
                                        "_type" : "ScreenVMFile",
                                        "src" : 1,
                                        "trackNumber" : 0,
                                        "attributes" : {
                                          "ident" : "Rec 01-10-21"
                                        },
                                        "parameters" : {
                                          "cursorScale" : {
                                            "type" : "double",
                                            "defaultValue" : 0.0,
                                            "interp" : "linr"
                                          },
                                          "cursorOpacity" : {
                                            "type" : "double",
                                            "defaultValue" : 0.0,
                                            "interp" : "linr"
                                          }
                                        },
                                        "effects" : [

                                        ],
                                        "start" : 6398,
                                        "duration" : 340,
                                        "mediaStart" : 6558,
                                        "mediaDuration" : 340,
                                        "scalar" : 1,
                                        "animationTracks" : {

                                        }
                                      },
                                  "audio" : 
                                      {
                                        "id" : 933,
                                        "_type" : "AMFile",
                                        "src" : 1,
                                        "trackNumber" : 1,
                                        "attributes" : {
                                          "ident" : "",
                                          "gain" : 1.0,
                                          "mixToMono" : false
                                        },
                                          "channelNumber" : "0,1",
                                        "effects" : [

                                        ],
                                        "start" : 6398,
                                        "duration" : 340,
                                        "mediaStart" : 6558,
                                        "mediaDuration" : 340,
                                        "scalar" : 1,
                                        "animationTracks" : {

                                        }
                                      }
,
                                  "start" : 6398,
                                  "duration" : 340,
                                  "mediaStart" : 0,
                                  "mediaDuration" : 25747,
                                  "scalar" : 1,
                                  "metadata" : {
                                    "AutoAppliedSmartFocus" : "False",
                                    "clipSpeedAttribute" : false
                                  }
                                },
                                {
                                  "id" : 934,
                                  "_type" : "UnifiedMedia",
                                  "video" : 
                                      {
                                        "id" : 935,
                                        "_type" : "ScreenVMFile",
                                        "src" : 1,
                                        "trackNumber" : 0,
                                        "attributes" : {
                                          "ident" : "Rec 01-10-21"
                                        },
                                        "parameters" : {
                                          "cursorScale" : {
                                            "type" : "double",
                                            "defaultValue" : 0.0,
                                            "interp" : "linr"
                                          },
                                          "cursorOpacity" : {
                                            "type" : "double",
                                            "defaultValue" : 0.0,
                                            "interp" : "linr"
                                          }
                                        },
                                        "effects" : [

                                        ],
                                        "start" : 6738,
                                        "duration" : 125,
                                        "mediaStart" : 6983,
                                        "mediaDuration" : 125,
                                        "scalar" : 1,
                                        "animationTracks" : {

                                        }
                                      },
                                  "audio" : 
                                      {
                                        "id" : 936,
                                        "_type" : "AMFile",
                                        "src" : 1,
                                        "trackNumber" : 1,
                                        "attributes" : {
                                          "ident" : "",
                                          "gain" : 1.0,
                                          "mixToMono" : false
                                        },
                                          "channelNumber" : "0,1",
                                        "effects" : [

                                        ],
                                        "start" : 6738,
                                        "duration" : 125,
                                        "mediaStart" : 6983,
                                        "mediaDuration" : 125,
                                        "scalar" : 1,
                                        "animationTracks" : {

                                        }
                                      }
,
                                  "start" : 6738,
                                  "duration" : 125,
                                  "mediaStart" : 0,
                                  "mediaDuration" : 25747,
                                  "scalar" : 1,
                                  "metadata" : {
                                    "AutoAppliedSmartFocus" : "False",
                                    "clipSpeedAttribute" : false
                                  }
                                },
                                {
                                  "id" : 937,
                                  "_type" : "UnifiedMedia",
                                  "video" : 
                                      {
                                        "id" : 938,
                                        "_type" : "ScreenVMFile",
                                        "src" : 1,
                                        "trackNumber" : 0,
                                        "attributes" : {
                                          "ident" : "Rec 01-10-21"
                                        },
                                        "parameters" : {
                                          "cursorScale" : {
                                            "type" : "double",
                                            "defaultValue" : 0.0,
                                            "interp" : "linr"
                                          },
                                          "cursorOpacity" : {
                                            "type" : "double",
                                            "defaultValue" : 0.0,
                                            "interp" : "linr"
                                          }
                                        },
                                        "effects" : [

                                        ],
                                        "start" : 6863,
                                        "duration" : 297,
                                        "mediaStart" : 7316,
                                        "mediaDuration" : 297,
                                        "scalar" : 1,
                                        "animationTracks" : {

                                        }
                                      },
                                  "audio" : 
                                      {
                                        "id" : 939,
                                        "_type" : "AMFile",
                                        "src" : 1,
                                        "trackNumber" : 1,
                                        "attributes" : {
                                          "ident" : "",
                                          "gain" : 1.0,
                                          "mixToMono" : false
                                        },
                                          "channelNumber" : "0,1",
                                        "effects" : [

                                        ],
                                        "start" : 6863,
                                        "duration" : 297,
                                        "mediaStart" : 7316,
                                        "mediaDuration" : 297,
                                        "scalar" : 1,
                                        "animationTracks" : {

                                        }
                                      }
,
                                  "start" : 6863,
                                  "duration" : 297,
                                  "mediaStart" : 0,
                                  "mediaDuration" : 25747,
                                  "scalar" : 1,
                                  "metadata" : {
                                    "AutoAppliedSmartFocus" : "False",
                                    "clipSpeedAttribute" : false
                                  }
                                },
                                {
                                  "id" : 940,
                                  "_type" : "UnifiedMedia",
                                  "video" : 
                                      {
                                        "id" : 941,
                                        "_type" : "ScreenVMFile",
                                        "src" : 1,
                                        "trackNumber" : 0,
                                        "attributes" : {
                                          "ident" : "Rec 01-10-21"
                                        },
                                        "parameters" : {
                                          "cursorScale" : {
                                            "type" : "double",
                                            "defaultValue" : 0.0,
                                            "interp" : "linr"
                                          },
                                          "cursorOpacity" : {
                                            "type" : "double",
                                            "defaultValue" : 0.0,
                                            "interp" : "linr"
                                          }
                                        },
                                        "effects" : [

                                        ],
                                        "start" : 7160,
                                        "duration" : 60,
                                        "mediaStart" : 7641,
                                        "mediaDuration" : 60,
                                        "scalar" : 1,
                                        "animationTracks" : {

                                        }
                                      },
                                  "audio" : 
                                      {
                                        "id" : 942,
                                        "_type" : "AMFile",
                                        "src" : 1,
                                        "trackNumber" : 1,
                                        "attributes" : {
                                          "ident" : "",
                                          "gain" : 1.0,
                                          "mixToMono" : false
                                        },
                                          "channelNumber" : "0,1",
                                        "effects" : [

                                        ],
                                        "start" : 7160,
                                        "duration" : 60,
                                        "mediaStart" : 7641,
                                        "mediaDuration" : 60,
                                        "scalar" : 1,
                                        "animationTracks" : {

                                        }
                                      }
,
                                  "start" : 7160,
                                  "duration" : 60,
                                  "mediaStart" : 0,
                                  "mediaDuration" : 25747,
                                  "scalar" : 1,
                                  "metadata" : {
                                    "AutoAppliedSmartFocus" : "False",
                                    "clipSpeedAttribute" : false
                                  }
                                },
                                {
                                  "id" : 943,
                                  "_type" : "UnifiedMedia",
                                  "video" : 
                                      {
                                        "id" : 944,
                                        "_type" : "ScreenVMFile",
                                        "src" : 1,
                                        "trackNumber" : 0,
                                        "attributes" : {
                                          "ident" : "Rec 01-10-21"
                                        },
                                        "parameters" : {
                                          "cursorScale" : {
                                            "type" : "double",
                                            "defaultValue" : 0.0,
                                            "interp" : "linr"
                                          },
                                          "cursorOpacity" : {
                                            "type" : "double",
                                            "defaultValue" : 0.0,
                                            "interp" : "linr"
                                          }
                                        },
                                        "effects" : [

                                        ],
                                        "start" : 7220,
                                        "duration" : 36,
                                        "mediaStart" : 7726,
                                        "mediaDuration" : 36,
                                        "scalar" : 1,
                                        "animationTracks" : {

                                        }
                                      },
                                  "audio" : 
                                      {
                                        "id" : 945,
                                        "_type" : "AMFile",
                                        "src" : 1,
                                        "trackNumber" : 1,
                                        "attributes" : {
                                          "ident" : "",
                                          "gain" : 1.0,
                                          "mixToMono" : false
                                        },
                                          "channelNumber" : "0,1",
                                        "effects" : [

                                        ],
                                        "start" : 7220,
                                        "duration" : 36,
                                        "mediaStart" : 7726,
                                        "mediaDuration" : 36,
                                        "scalar" : 1,
                                        "animationTracks" : {

                                        }
                                      }
,
                                  "start" : 7220,
                                  "duration" : 36,
                                  "mediaStart" : 0,
                                  "mediaDuration" : 25747,
                                  "scalar" : 1,
                                  "metadata" : {
                                    "AutoAppliedSmartFocus" : "False",
                                    "clipSpeedAttribute" : false
                                  }
                                },
                                {
                                  "id" : 946,
                                  "_type" : "UnifiedMedia",
                                  "video" : 
                                      {
                                        "id" : 947,
                                        "_type" : "ScreenVMFile",
                                        "src" : 1,
                                        "trackNumber" : 0,
                                        "attributes" : {
                                          "ident" : "Rec 01-10-21"
                                        },
                                        "parameters" : {
                                          "cursorScale" : {
                                            "type" : "double",
                                            "defaultValue" : 0.0,
                                            "interp" : "linr"
                                          },
                                          "cursorOpacity" : {
                                            "type" : "double",
                                            "defaultValue" : 0.0,
                                            "interp" : "linr"
                                          }
                                        },
                                        "effects" : [

                                        ],
                                        "start" : 7256,
                                        "duration" : 229,
                                        "mediaStart" : 8018,
                                        "mediaDuration" : 229,
                                        "scalar" : 1,
                                        "animationTracks" : {

                                        }
                                      },
                                  "audio" : 
                                      {
                                        "id" : 948,
                                        "_type" : "AMFile",
                                        "src" : 1,
                                        "trackNumber" : 1,
                                        "attributes" : {
                                          "ident" : "",
                                          "gain" : 1.0,
                                          "mixToMono" : false
                                        },
                                          "channelNumber" : "0,1",
                                        "effects" : [

                                        ],
                                        "start" : 7256,
                                        "duration" : 229,
                                        "mediaStart" : 8018,
                                        "mediaDuration" : 229,
                                        "scalar" : 1,
                                        "animationTracks" : {

                                        }
                                      }
,
                                  "start" : 7256,
                                  "duration" : 229,
                                  "mediaStart" : 0,
                                  "mediaDuration" : 25747,
                                  "scalar" : 1,
                                  "metadata" : {
                                    "AutoAppliedSmartFocus" : "False",
                                    "clipSpeedAttribute" : false
                                  }
                                },
                                {
                                  "id" : 949,
                                  "_type" : "UnifiedMedia",
                                  "video" : 
                                      {
                                        "id" : 950,
                                        "_type" : "ScreenVMFile",
                                        "src" : 1,
                                        "trackNumber" : 0,
                                        "attributes" : {
                                          "ident" : "Rec 01-10-21"
                                        },
                                        "parameters" : {
                                          "cursorScale" : {
                                            "type" : "double",
                                            "defaultValue" : 0.0,
                                            "interp" : "linr"
                                          },
                                          "cursorOpacity" : {
                                            "type" : "double",
                                            "defaultValue" : 0.0,
                                            "interp" : "linr"
                                          }
                                        },
                                        "effects" : [

                                        ],
                                        "start" : 7485,
                                        "duration" : 115,
                                        "mediaStart" : 8289,
                                        "mediaDuration" : 115,
                                        "scalar" : 1,
                                        "animationTracks" : {

                                        }
                                      },
                                  "audio" : 
                                      {
                                        "id" : 951,
                                        "_type" : "AMFile",
                                        "src" : 1,
                                        "trackNumber" : 1,
                                        "attributes" : {
                                          "ident" : "",
                                          "gain" : 1.0,
                                          "mixToMono" : false
                                        },
                                          "channelNumber" : "0,1",
                                        "effects" : [

                                        ],
                                        "start" : 7485,
                                        "duration" : 115,
                                        "mediaStart" : 8289,
                                        "mediaDuration" : 115,
                                        "scalar" : 1,
                                        "animationTracks" : {

                                        }
                                      }
,
                                  "start" : 7485,
                                  "duration" : 115,
                                  "mediaStart" : 0,
                                  "mediaDuration" : 25747,
                                  "scalar" : 1,
                                  "metadata" : {
                                    "AutoAppliedSmartFocus" : "False",
                                    "clipSpeedAttribute" : false
                                  }
                                },
                                {
                                  "id" : 952,
                                  "_type" : "UnifiedMedia",
                                  "video" : 
                                      {
                                        "id" : 953,
                                        "_type" : "ScreenVMFile",
                                        "src" : 1,
                                        "trackNumber" : 0,
                                        "attributes" : {
                                          "ident" : "Rec 01-10-21"
                                        },
                                        "parameters" : {
                                          "cursorScale" : {
                                            "type" : "double",
                                            "defaultValue" : 0.0,
                                            "interp" : "linr"
                                          },
                                          "cursorOpacity" : {
                                            "type" : "double",
                                            "defaultValue" : 0.0,
                                            "interp" : "linr"
                                          }
                                        },
                                        "effects" : [

                                        ],
                                        "start" : 7600,
                                        "duration" : 58,
                                        "mediaStart" : 8711,
                                        "mediaDuration" : 58,
                                        "scalar" : 1,
                                        "animationTracks" : {

                                        }
                                      },
                                  "audio" : 
                                      {
                                        "id" : 954,
                                        "_type" : "AMFile",
                                        "src" : 1,
                                        "trackNumber" : 1,
                                        "attributes" : {
                                          "ident" : "",
                                          "gain" : 1.0,
                                          "mixToMono" : false
                                        },
                                          "channelNumber" : "0,1",
                                        "effects" : [

                                        ],
                                        "start" : 7600,
                                        "duration" : 58,
                                        "mediaStart" : 8711,
                                        "mediaDuration" : 58,
                                        "scalar" : 1,
                                        "animationTracks" : {

                                        }
                                      }
,
                                  "start" : 7600,
                                  "duration" : 58,
                                  "mediaStart" : 0,
                                  "mediaDuration" : 25747,
                                  "scalar" : 1,
                                  "metadata" : {
                                    "AutoAppliedSmartFocus" : "False",
                                    "clipSpeedAttribute" : false
                                  }
                                },
                                {
                                  "id" : 955,
                                  "_type" : "UnifiedMedia",
                                  "video" : 
                                      {
                                        "id" : 956,
                                        "_type" : "ScreenVMFile",
                                        "src" : 1,
                                        "trackNumber" : 0,
                                        "attributes" : {
                                          "ident" : "Rec 01-10-21"
                                        },
                                        "parameters" : {
                                          "cursorScale" : {
                                            "type" : "double",
                                            "defaultValue" : 0.0,
                                            "interp" : "linr"
                                          },
                                          "cursorOpacity" : {
                                            "type" : "double",
                                            "defaultValue" : 0.0,
                                            "interp" : "linr"
                                          }
                                        },
                                        "effects" : [

                                        ],
                                        "start" : 7658,
                                        "duration" : 45,
                                        "mediaStart" : 8776,
                                        "mediaDuration" : 45,
                                        "scalar" : 1,
                                        "animationTracks" : {

                                        }
                                      },
                                  "audio" : 
                                      {
                                        "id" : 957,
                                        "_type" : "AMFile",
                                        "src" : 1,
                                        "trackNumber" : 1,
                                        "attributes" : {
                                          "ident" : "",
                                          "gain" : 1.0,
                                          "mixToMono" : false
                                        },
                                          "channelNumber" : "0,1",
                                        "effects" : [

                                        ],
                                        "start" : 7658,
                                        "duration" : 45,
                                        "mediaStart" : 8776,
                                        "mediaDuration" : 45,
                                        "scalar" : 1,
                                        "animationTracks" : {

                                        }
                                      }
,
                                  "start" : 7658,
                                  "duration" : 45,
                                  "mediaStart" : 0,
                                  "mediaDuration" : 25747,
                                  "scalar" : 1,
                                  "metadata" : {
                                    "AutoAppliedSmartFocus" : "False",
                                    "clipSpeedAttribute" : false
                                  }
                                },
                                {
                                  "id" : 958,
                                  "_type" : "UnifiedMedia",
                                  "video" : 
                                      {
                                        "id" : 959,
                                        "_type" : "ScreenVMFile",
                                        "src" : 1,
                                        "trackNumber" : 0,
                                        "attributes" : {
                                          "ident" : "Rec 01-10-21"
                                        },
                                        "parameters" : {
                                          "cursorScale" : {
                                            "type" : "double",
                                            "defaultValue" : 0.0,
                                            "interp" : "linr"
                                          },
                                          "cursorOpacity" : {
                                            "type" : "double",
                                            "defaultValue" : 0.0,
                                            "interp" : "linr"
                                          }
                                        },
                                        "effects" : [

                                        ],
                                        "start" : 7703,
                                        "duration" : 46,
                                        "mediaStart" : 8841,
                                        "mediaDuration" : 46,
                                        "scalar" : 1,
                                        "animationTracks" : {

                                        }
                                      },
                                  "audio" : 
                                      {
                                        "id" : 960,
                                        "_type" : "AMFile",
                                        "src" : 1,
                                        "trackNumber" : 1,
                                        "attributes" : {
                                          "ident" : "",
                                          "gain" : 1.0,
                                          "mixToMono" : false
                                        },
                                          "channelNumber" : "0,1",
                                        "effects" : [

                                        ],
                                        "start" : 7703,
                                        "duration" : 46,
                                        "mediaStart" : 8841,
                                        "mediaDuration" : 46,
                                        "scalar" : 1,
                                        "animationTracks" : {

                                        }
                                      }
,
                                  "start" : 7703,
                                  "duration" : 46,
                                  "mediaStart" : 0,
                                  "mediaDuration" : 25747,
                                  "scalar" : 1,
                                  "metadata" : {
                                    "AutoAppliedSmartFocus" : "False",
                                    "clipSpeedAttribute" : false
                                  }
                                },
                                {
                                  "id" : 961,
                                  "_type" : "UnifiedMedia",
                                  "video" : 
                                      {
                                        "id" : 962,
                                        "_type" : "ScreenVMFile",
                                        "src" : 1,
                                        "trackNumber" : 0,
                                        "attributes" : {
                                          "ident" : "Rec 01-10-21"
                                        },
                                        "parameters" : {
                                          "cursorScale" : {
                                            "type" : "double",
                                            "defaultValue" : 0.0,
                                            "interp" : "linr"
                                          },
                                          "cursorOpacity" : {
                                            "type" : "double",
                                            "defaultValue" : 0.0,
                                            "interp" : "linr"
                                          }
                                        },
                                        "effects" : [

                                        ],
                                        "start" : 7749,
                                        "duration" : 1925,
                                        "mediaStart" : 8937,
                                        "mediaDuration" : 1925,
                                        "scalar" : 1,
                                        "animationTracks" : {

                                        }
                                      },
                                  "audio" : 
                                      {
                                        "id" : 963,
                                        "_type" : "AMFile",
                                        "src" : 1,
                                        "trackNumber" : 1,
                                        "attributes" : {
                                          "ident" : "",
                                          "gain" : 1.0,
                                          "mixToMono" : false
                                        },
                                          "channelNumber" : "0,1",
                                        "effects" : [

                                        ],
                                        "start" : 7749,
                                        "duration" : 1925,
                                        "mediaStart" : 8937,
                                        "mediaDuration" : 1925,
                                        "scalar" : 1,
                                        "animationTracks" : {

                                        }
                                      }
,
                                  "start" : 7749,
                                  "duration" : 1925,
                                  "mediaStart" : 0,
                                  "mediaDuration" : 25747,
                                  "scalar" : 1,
                                  "metadata" : {
                                    "AutoAppliedSmartFocus" : "False",
                                    "clipSpeedAttribute" : false
                                  }
                                },
                                {
                                  "id" : 964,
                                  "_type" : "UnifiedMedia",
                                  "video" : 
                                      {
                                        "id" : 965,
                                        "_type" : "ScreenVMFile",
                                        "src" : 1,
                                        "trackNumber" : 0,
                                        "attributes" : {
                                          "ident" : "Rec 01-10-21"
                                        },
                                        "parameters" : {
                                          "cursorScale" : {
                                            "type" : "double",
                                            "defaultValue" : 0.0,
                                            "interp" : "linr"
                                          },
                                          "cursorOpacity" : {
                                            "type" : "double",
                                            "defaultValue" : 0.0,
                                            "interp" : "linr"
                                          }
                                        },
                                        "effects" : [

                                        ],
                                        "start" : 9674,
                                        "duration" : 322,
                                        "mediaStart" : 10938,
                                        "mediaDuration" : 322,
                                        "scalar" : 1,
                                        "animationTracks" : {

                                        }
                                      },
                                  "audio" : 
                                      {
                                        "id" : 966,
                                        "_type" : "AMFile",
                                        "src" : 1,
                                        "trackNumber" : 1,
                                        "attributes" : {
                                          "ident" : "",
                                          "gain" : 1.0,
                                          "mixToMono" : false
                                        },
                                          "channelNumber" : "0,1",
                                        "effects" : [

                                        ],
                                        "start" : 9674,
                                        "duration" : 322,
                                        "mediaStart" : 10938,
                                        "mediaDuration" : 322,
                                        "scalar" : 1,
                                        "animationTracks" : {

                                        }
                                      }
,
                                  "start" : 9674,
                                  "duration" : 322,
                                  "mediaStart" : 0,
                                  "mediaDuration" : 25747,
                                  "scalar" : 1,
                                  "metadata" : {
                                    "AutoAppliedSmartFocus" : "False",
                                    "clipSpeedAttribute" : false
                                  }
                                },
                                {
                                  "id" : 967,
                                  "_type" : "UnifiedMedia",
                                  "video" : 
                                      {
                                        "id" : 968,
                                        "_type" : "ScreenVMFile",
                                        "src" : 1,
                                        "trackNumber" : 0,
                                        "attributes" : {
                                          "ident" : "Rec 01-10-21"
                                        },
                                        "parameters" : {
                                          "cursorScale" : {
                                            "type" : "double",
                                            "defaultValue" : 0.0,
                                            "interp" : "linr"
                                          },
                                          "cursorOpacity" : {
                                            "type" : "double",
                                            "defaultValue" : 0.0,
                                            "interp" : "linr"
                                          }
                                        },
                                        "effects" : [

                                        ],
                                        "start" : 9996,
                                        "duration" : 27,
                                        "mediaStart" : 11328,
                                        "mediaDuration" : 27,
                                        "scalar" : 1,
                                        "animationTracks" : {

                                        }
                                      },
                                  "audio" : 
                                      {
                                        "id" : 969,
                                        "_type" : "AMFile",
                                        "src" : 1,
                                        "trackNumber" : 1,
                                        "attributes" : {
                                          "ident" : "",
                                          "gain" : 1.0,
                                          "mixToMono" : false
                                        },
                                          "channelNumber" : "0,1",
                                        "effects" : [

                                        ],
                                        "start" : 9996,
                                        "duration" : 27,
                                        "mediaStart" : 11328,
                                        "mediaDuration" : 27,
                                        "scalar" : 1,
                                        "animationTracks" : {

                                        }
                                      }
,
                                  "start" : 9996,
                                  "duration" : 27,
                                  "mediaStart" : 0,
                                  "mediaDuration" : 25747,
                                  "scalar" : 1,
                                  "metadata" : {
                                    "AutoAppliedSmartFocus" : "False",
                                    "clipSpeedAttribute" : false
                                  }
                                },
                                {
                                  "id" : 970,
                                  "_type" : "UnifiedMedia",
                                  "video" : 
                                      {
                                        "id" : 971,
                                        "_type" : "ScreenVMFile",
                                        "src" : 1,
                                        "trackNumber" : 0,
                                        "attributes" : {
                                          "ident" : "Rec 01-10-21"
                                        },
                                        "parameters" : {
                                          "cursorScale" : {
                                            "type" : "double",
                                            "defaultValue" : 0.0,
                                            "interp" : "linr"
                                          },
                                          "cursorOpacity" : {
                                            "type" : "double",
                                            "defaultValue" : 0.0,
                                            "interp" : "linr"
                                          }
                                        },
                                        "effects" : [

                                        ],
                                        "start" : 10023,
                                        "duration" : 119,
                                        "mediaStart" : 11424,
                                        "mediaDuration" : 119,
                                        "scalar" : 1,
                                        "animationTracks" : {

                                        }
                                      },
                                  "audio" : 
                                      {
                                        "id" : 972,
                                        "_type" : "AMFile",
                                        "src" : 1,
                                        "trackNumber" : 1,
                                        "attributes" : {
                                          "ident" : "",
                                          "gain" : 1.0,
                                          "mixToMono" : false
                                        },
                                          "channelNumber" : "0,1",
                                        "effects" : [

                                        ],
                                        "start" : 10023,
                                        "duration" : 119,
                                        "mediaStart" : 11424,
                                        "mediaDuration" : 119,
                                        "scalar" : 1,
                                        "animationTracks" : {

                                        }
                                      }
,
                                  "start" : 10023,
                                  "duration" : 119,
                                  "mediaStart" : 0,
                                  "mediaDuration" : 25747,
                                  "scalar" : 1,
                                  "metadata" : {
                                    "AutoAppliedSmartFocus" : "False",
                                    "clipSpeedAttribute" : false
                                  }
                                },
                                {
                                  "id" : 973,
                                  "_type" : "UnifiedMedia",
                                  "video" : 
                                      {
                                        "id" : 974,
                                        "_type" : "ScreenVMFile",
                                        "src" : 1,
                                        "trackNumber" : 0,
                                        "attributes" : {
                                          "ident" : "Rec 01-10-21"
                                        },
                                        "parameters" : {
                                          "cursorScale" : {
                                            "type" : "double",
                                            "defaultValue" : 0.0,
                                            "interp" : "linr"
                                          },
                                          "cursorOpacity" : {
                                            "type" : "double",
                                            "defaultValue" : 0.0,
                                            "interp" : "linr"
                                          }
                                        },
                                        "effects" : [

                                        ],
                                        "start" : 10142,
                                        "duration" : 46,
                                        "mediaStart" : 11727,
                                        "mediaDuration" : 46,
                                        "scalar" : 1,
                                        "animationTracks" : {

                                        }
                                      },
                                  "audio" : 
                                      {
                                        "id" : 975,
                                        "_type" : "AMFile",
                                        "src" : 1,
                                        "trackNumber" : 1,
                                        "attributes" : {
                                          "ident" : "",
                                          "gain" : 1.0,
                                          "mixToMono" : false
                                        },
                                          "channelNumber" : "0,1",
                                        "effects" : [

                                        ],
                                        "start" : 10142,
                                        "duration" : 46,
                                        "mediaStart" : 11727,
                                        "mediaDuration" : 46,
                                        "scalar" : 1,
                                        "animationTracks" : {

                                        }
                                      }
,
                                  "start" : 10142,
                                  "duration" : 46,
                                  "mediaStart" : 0,
                                  "mediaDuration" : 25747,
                                  "scalar" : 1,
                                  "metadata" : {
                                    "AutoAppliedSmartFocus" : "False",
                                    "clipSpeedAttribute" : false
                                  }
                                },
                                {
                                  "id" : 976,
                                  "_type" : "UnifiedMedia",
                                  "video" : 
                                      {
                                        "id" : 977,
                                        "_type" : "ScreenVMFile",
                                        "src" : 1,
                                        "trackNumber" : 0,
                                        "attributes" : {
                                          "ident" : "Rec 01-10-21"
                                        },
                                        "parameters" : {
                                          "cursorScale" : {
                                            "type" : "double",
                                            "defaultValue" : 0.0,
                                            "interp" : "linr"
                                          },
                                          "cursorOpacity" : {
                                            "type" : "double",
                                            "defaultValue" : 0.0,
                                            "interp" : "linr"
                                          }
                                        },
                                        "effects" : [

                                        ],
                                        "start" : 10188,
                                        "duration" : 461,
                                        "mediaStart" : 11870,
                                        "mediaDuration" : 461,
                                        "scalar" : 1,
                                        "animationTracks" : {

                                        }
                                      },
                                  "audio" : 
                                      {
                                        "id" : 978,
                                        "_type" : "AMFile",
                                        "src" : 1,
                                        "trackNumber" : 1,
                                        "attributes" : {
                                          "ident" : "",
                                          "gain" : 1.0,
                                          "mixToMono" : false
                                        },
                                          "channelNumber" : "0,1",
                                        "effects" : [

                                        ],
                                        "start" : 10188,
                                        "duration" : 461,
                                        "mediaStart" : 11870,
                                        "mediaDuration" : 461,
                                        "scalar" : 1,
                                        "animationTracks" : {

                                        }
                                      }
,
                                  "start" : 10188,
                                  "duration" : 461,
                                  "mediaStart" : 0,
                                  "mediaDuration" : 25747,
                                  "scalar" : 1,
                                  "metadata" : {
                                    "AutoAppliedSmartFocus" : "False",
                                    "clipSpeedAttribute" : false
                                  }
                                },
                                {
                                  "id" : 979,
                                  "_type" : "UnifiedMedia",
                                  "video" : 
                                      {
                                        "id" : 980,
                                        "_type" : "ScreenVMFile",
                                        "src" : 1,
                                        "trackNumber" : 0,
                                        "attributes" : {
                                          "ident" : "Rec 01-10-21"
                                        },
                                        "parameters" : {
                                          "cursorScale" : {
                                            "type" : "double",
                                            "defaultValue" : 0.0,
                                            "interp" : "linr"
                                          },
                                          "cursorOpacity" : {
                                            "type" : "double",
                                            "defaultValue" : 0.0,
                                            "interp" : "linr"
                                          }
                                        },
                                        "effects" : [

                                        ],
                                        "start" : 10649,
                                        "duration" : 73,
                                        "mediaStart" : 12767,
                                        "mediaDuration" : 73,
                                        "scalar" : 1,
                                        "animationTracks" : {

                                        }
                                      },
                                  "audio" : 
                                      {
                                        "id" : 981,
                                        "_type" : "AMFile",
                                        "src" : 1,
                                        "trackNumber" : 1,
                                        "attributes" : {
                                          "ident" : "",
                                          "gain" : 1.0,
                                          "mixToMono" : false
                                        },
                                          "channelNumber" : "0,1",
                                        "effects" : [

                                        ],
                                        "start" : 10649,
                                        "duration" : 73,
                                        "mediaStart" : 12767,
                                        "mediaDuration" : 73,
                                        "scalar" : 1,
                                        "animationTracks" : {

                                        }
                                      }
,
                                  "start" : 10649,
                                  "duration" : 73,
                                  "mediaStart" : 0,
                                  "mediaDuration" : 25747,
                                  "scalar" : 1,
                                  "metadata" : {
                                    "AutoAppliedSmartFocus" : "False",
                                    "clipSpeedAttribute" : false
                                  }
                                },
                                {
                                  "id" : 982,
                                  "_type" : "UnifiedMedia",
                                  "video" : 
                                      {
                                        "id" : 983,
                                        "_type" : "ScreenVMFile",
                                        "src" : 1,
                                        "trackNumber" : 0,
                                        "attributes" : {
                                          "ident" : "Rec 01-10-21"
                                        },
                                        "parameters" : {
                                          "cursorScale" : {
                                            "type" : "double",
                                            "defaultValue" : 0.0,
                                            "interp" : "linr"
                                          },
                                          "cursorOpacity" : {
                                            "type" : "double",
                                            "defaultValue" : 0.0,
                                            "interp" : "linr"
                                          }
                                        },
                                        "effects" : [

                                        ],
                                        "start" : 10722,
                                        "duration" : 166,
                                        "mediaStart" : 13215,
                                        "mediaDuration" : 166,
                                        "scalar" : 1,
                                        "animationTracks" : {

                                        }
                                      },
                                  "audio" : 
                                      {
                                        "id" : 984,
                                        "_type" : "AMFile",
                                        "src" : 1,
                                        "trackNumber" : 1,
                                        "attributes" : {
                                          "ident" : "",
                                          "gain" : 1.0,
                                          "mixToMono" : false
                                        },
                                          "channelNumber" : "0,1",
                                        "effects" : [

                                        ],
                                        "start" : 10722,
                                        "duration" : 166,
                                        "mediaStart" : 13215,
                                        "mediaDuration" : 166,
                                        "scalar" : 1,
                                        "animationTracks" : {

                                        }
                                      }
,
                                  "start" : 10722,
                                  "duration" : 166,
                                  "mediaStart" : 0,
                                  "mediaDuration" : 25747,
                                  "scalar" : 1,
                                  "metadata" : {
                                    "AutoAppliedSmartFocus" : "False",
                                    "clipSpeedAttribute" : false
                                  }
                                },
                                {
                                  "id" : 985,
                                  "_type" : "UnifiedMedia",
                                  "video" : 
                                      {
                                        "id" : 986,
                                        "_type" : "ScreenVMFile",
                                        "src" : 1,
                                        "trackNumber" : 0,
                                        "attributes" : {
                                          "ident" : "Rec 01-10-21"
                                        },
                                        "parameters" : {
                                          "cursorScale" : {
                                            "type" : "double",
                                            "defaultValue" : 0.0,
                                            "interp" : "linr"
                                          },
                                          "cursorOpacity" : {
                                            "type" : "double",
                                            "defaultValue" : 0.0,
                                            "interp" : "linr"
                                          }
                                        },
                                        "effects" : [

                                        ],
                                        "start" : 10888,
                                        "duration" : 305,
                                        "mediaStart" : 13397,
                                        "mediaDuration" : 305,
                                        "scalar" : 1,
                                        "animationTracks" : {

                                        }
                                      },
                                  "audio" : 
                                      {
                                        "id" : 987,
                                        "_type" : "AMFile",
                                        "src" : 1,
                                        "trackNumber" : 1,
                                        "attributes" : {
                                          "ident" : "",
                                          "gain" : 1.0,
                                          "mixToMono" : false
                                        },
                                          "channelNumber" : "0,1",
                                        "effects" : [

                                        ],
                                        "start" : 10888,
                                        "duration" : 305,
                                        "mediaStart" : 13397,
                                        "mediaDuration" : 305,
                                        "scalar" : 1,
                                        "animationTracks" : {

                                        }
                                      }
,
                                  "start" : 10888,
                                  "duration" : 305,
                                  "mediaStart" : 0,
                                  "mediaDuration" : 25747,
                                  "scalar" : 1,
                                  "metadata" : {
                                    "AutoAppliedSmartFocus" : "False",
                                    "clipSpeedAttribute" : false
                                  }
                                },
                                {
                                  "id" : 988,
                                  "_type" : "UnifiedMedia",
                                  "video" : 
                                      {
                                        "id" : 989,
                                        "_type" : "ScreenVMFile",
                                        "src" : 1,
                                        "trackNumber" : 0,
                                        "attributes" : {
                                          "ident" : "Rec 01-10-21"
                                        },
                                        "parameters" : {
                                          "cursorScale" : {
                                            "type" : "double",
                                            "defaultValue" : 0.0,
                                            "interp" : "linr"
                                          },
                                          "cursorOpacity" : {
                                            "type" : "double",
                                            "defaultValue" : 0.0,
                                            "interp" : "linr"
                                          }
                                        },
                                        "effects" : [

                                        ],
                                        "start" : 11193,
                                        "duration" : 196,
                                        "mediaStart" : 13738,
                                        "mediaDuration" : 196,
                                        "scalar" : 1,
                                        "animationTracks" : {

                                        }
                                      },
                                  "audio" : 
                                      {
                                        "id" : 990,
                                        "_type" : "AMFile",
                                        "src" : 1,
                                        "trackNumber" : 1,
                                        "attributes" : {
                                          "ident" : "",
                                          "gain" : 1.0,
                                          "mixToMono" : false
                                        },
                                          "channelNumber" : "0,1",
                                        "effects" : [

                                        ],
                                        "start" : 11193,
                                        "duration" : 196,
                                        "mediaStart" : 13738,
                                        "mediaDuration" : 196,
                                        "scalar" : 1,
                                        "animationTracks" : {

                                        }
                                      }
,
                                  "start" : 11193,
                                  "duration" : 196,
                                  "mediaStart" : 0,
                                  "mediaDuration" : 25747,
                                  "scalar" : 1,
                                  "metadata" : {
                                    "AutoAppliedSmartFocus" : "False",
                                    "clipSpeedAttribute" : false
                                  }
                                },
                                {
                                  "id" : 991,
                                  "_type" : "UnifiedMedia",
                                  "video" : 
                                      {
                                        "id" : 992,
                                        "_type" : "ScreenVMFile",
                                        "src" : 1,
                                        "trackNumber" : 0,
                                        "attributes" : {
                                          "ident" : "Rec 01-10-21"
                                        },
                                        "parameters" : {
                                          "cursorScale" : {
                                            "type" : "double",
                                            "defaultValue" : 0.0,
                                            "interp" : "linr"
                                          },
                                          "cursorOpacity" : {
                                            "type" : "double",
                                            "defaultValue" : 0.0,
                                            "interp" : "linr"
                                          }
                                        },
                                        "effects" : [

                                        ],
                                        "start" : 11389,
                                        "duration" : 54,
                                        "mediaStart" : 13961,
                                        "mediaDuration" : 54,
                                        "scalar" : 1,
                                        "animationTracks" : {

                                        }
                                      },
                                  "audio" : 
                                      {
                                        "id" : 993,
                                        "_type" : "AMFile",
                                        "src" : 1,
                                        "trackNumber" : 1,
                                        "attributes" : {
                                          "ident" : "",
                                          "gain" : 1.0,
                                          "mixToMono" : false
                                        },
                                          "channelNumber" : "0,1",
                                        "effects" : [

                                        ],
                                        "start" : 11389,
                                        "duration" : 54,
                                        "mediaStart" : 13961,
                                        "mediaDuration" : 54,
                                        "scalar" : 1,
                                        "animationTracks" : {

                                        }
                                      }
,
                                  "start" : 11389,
                                  "duration" : 54,
                                  "mediaStart" : 0,
                                  "mediaDuration" : 25747,
                                  "scalar" : 1,
                                  "metadata" : {
                                    "AutoAppliedSmartFocus" : "False",
                                    "clipSpeedAttribute" : false
                                  }
                                },
                                {
                                  "id" : 994,
                                  "_type" : "UnifiedMedia",
                                  "video" : 
                                      {
                                        "id" : 995,
                                        "_type" : "ScreenVMFile",
                                        "src" : 1,
                                        "trackNumber" : 0,
                                        "attributes" : {
                                          "ident" : "Rec 01-10-21"
                                        },
                                        "parameters" : {
                                          "cursorScale" : {
                                            "type" : "double",
                                            "defaultValue" : 0.0,
                                            "interp" : "linr"
                                          },
                                          "cursorOpacity" : {
                                            "type" : "double",
                                            "defaultValue" : 0.0,
                                            "interp" : "linr"
                                          }
                                        },
                                        "effects" : [

                                        ],
                                        "start" : 11443,
                                        "duration" : 28,
                                        "mediaStart" : 14029,
                                        "mediaDuration" : 28,
                                        "scalar" : 1,
                                        "animationTracks" : {

                                        }
                                      },
                                  "audio" : 
                                      {
                                        "id" : 996,
                                        "_type" : "AMFile",
                                        "src" : 1,
                                        "trackNumber" : 1,
                                        "attributes" : {
                                          "ident" : "",
                                          "gain" : 1.0,
                                          "mixToMono" : false
                                        },
                                          "channelNumber" : "0,1",
                                        "effects" : [

                                        ],
                                        "start" : 11443,
                                        "duration" : 28,
                                        "mediaStart" : 14029,
                                        "mediaDuration" : 28,
                                        "scalar" : 1,
                                        "animationTracks" : {

                                        }
                                      }
,
                                  "start" : 11443,
                                  "duration" : 28,
                                  "mediaStart" : 0,
                                  "mediaDuration" : 25747,
                                  "scalar" : 1,
                                  "metadata" : {
                                    "AutoAppliedSmartFocus" : "False",
                                    "clipSpeedAttribute" : false
                                  }
                                },
                                {
                                  "id" : 997,
                                  "_type" : "UnifiedMedia",
                                  "video" : 
                                      {
                                        "id" : 998,
                                        "_type" : "ScreenVMFile",
                                        "src" : 1,
                                        "trackNumber" : 0,
                                        "attributes" : {
                                          "ident" : "Rec 01-10-21"
                                        },
                                        "parameters" : {
                                          "cursorScale" : {
                                            "type" : "double",
                                            "defaultValue" : 0.0,
                                            "interp" : "linr"
                                          },
                                          "cursorOpacity" : {
                                            "type" : "double",
                                            "defaultValue" : 0.0,
                                            "interp" : "linr"
                                          }
                                        },
                                        "effects" : [

                                        ],
                                        "start" : 11471,
                                        "duration" : 48,
                                        "mediaStart" : 14274,
                                        "mediaDuration" : 48,
                                        "scalar" : 1,
                                        "animationTracks" : {

                                        }
                                      },
                                  "audio" : 
                                      {
                                        "id" : 999,
                                        "_type" : "AMFile",
                                        "src" : 1,
                                        "trackNumber" : 1,
                                        "attributes" : {
                                          "ident" : "",
                                          "gain" : 1.0,
                                          "mixToMono" : false
                                        },
                                          "channelNumber" : "0,1",
                                        "effects" : [

                                        ],
                                        "start" : 11471,
                                        "duration" : 48,
                                        "mediaStart" : 14274,
                                        "mediaDuration" : 48,
                                        "scalar" : 1,
                                        "animationTracks" : {

                                        }
                                      }
,
                                  "start" : 11471,
                                  "duration" : 48,
                                  "mediaStart" : 0,
                                  "mediaDuration" : 25747,
                                  "scalar" : 1,
                                  "metadata" : {
                                    "AutoAppliedSmartFocus" : "False",
                                    "clipSpeedAttribute" : false
                                  }
                                },
                                {
                                  "id" : 1000,
                                  "_type" : "UnifiedMedia",
                                  "video" : 
                                      {
                                        "id" : 1001,
                                        "_type" : "ScreenVMFile",
                                        "src" : 1,
                                        "trackNumber" : 0,
                                        "attributes" : {
                                          "ident" : "Rec 01-10-21"
                                        },
                                        "parameters" : {
                                          "cursorScale" : {
                                            "type" : "double",
                                            "defaultValue" : 0.0,
                                            "interp" : "linr"
                                          },
                                          "cursorOpacity" : {
                                            "type" : "double",
                                            "defaultValue" : 0.0,
                                            "interp" : "linr"
                                          }
                                        },
                                        "effects" : [

                                        ],
                                        "start" : 11519,
                                        "duration" : 118,
                                        "mediaStart" : 14378,
                                        "mediaDuration" : 118,
                                        "scalar" : 1,
                                        "animationTracks" : {

                                        }
                                      },
                                  "audio" : 
                                      {
                                        "id" : 1002,
                                        "_type" : "AMFile",
                                        "src" : 1,
                                        "trackNumber" : 1,
                                        "attributes" : {
                                          "ident" : "",
                                          "gain" : 1.0,
                                          "mixToMono" : false
                                        },
                                          "channelNumber" : "0,1",
                                        "effects" : [

                                        ],
                                        "start" : 11519,
                                        "duration" : 118,
                                        "mediaStart" : 14378,
                                        "mediaDuration" : 118,
                                        "scalar" : 1,
                                        "animationTracks" : {

                                        }
                                      }
,
                                  "start" : 11519,
                                  "duration" : 118,
                                  "mediaStart" : 0,
                                  "mediaDuration" : 25747,
                                  "scalar" : 1,
                                  "metadata" : {
                                    "AutoAppliedSmartFocus" : "False",
                                    "clipSpeedAttribute" : false
                                  }
                                },
                                {
                                  "id" : 1003,
                                  "_type" : "UnifiedMedia",
                                  "video" : 
                                      {
                                        "id" : 1004,
                                        "_type" : "ScreenVMFile",
                                        "src" : 1,
                                        "trackNumber" : 0,
                                        "attributes" : {
                                          "ident" : "Rec 01-10-21"
                                        },
                                        "parameters" : {
                                          "cursorScale" : {
                                            "type" : "double",
                                            "defaultValue" : 0.0,
                                            "interp" : "linr"
                                          },
                                          "cursorOpacity" : {
                                            "type" : "double",
                                            "defaultValue" : 0.0,
                                            "interp" : "linr"
                                          }
                                        },
                                        "effects" : [

                                        ],
                                        "start" : 11637,
                                        "duration" : 252,
                                        "mediaStart" : 14503,
                                        "mediaDuration" : 252,
                                        "scalar" : 1,
                                        "animationTracks" : {

                                        }
                                      },
                                  "audio" : 
                                      {
                                        "id" : 1005,
                                        "_type" : "AMFile",
                                        "src" : 1,
                                        "trackNumber" : 1,
                                        "attributes" : {
                                          "ident" : "",
                                          "gain" : 1.0,
                                          "mixToMono" : false
                                        },
                                          "channelNumber" : "0,1",
                                        "effects" : [

                                        ],
                                        "start" : 11637,
                                        "duration" : 252,
                                        "mediaStart" : 14503,
                                        "mediaDuration" : 252,
                                        "scalar" : 1,
                                        "animationTracks" : {

                                        }
                                      }
,
                                  "start" : 11637,
                                  "duration" : 252,
                                  "mediaStart" : 0,
                                  "mediaDuration" : 25747,
                                  "scalar" : 1,
                                  "metadata" : {
                                    "AutoAppliedSmartFocus" : "False",
                                    "clipSpeedAttribute" : false
                                  }
                                },
                                {
                                  "id" : 1006,
                                  "_type" : "UnifiedMedia",
                                  "video" : 
                                      {
                                        "id" : 1007,
                                        "_type" : "ScreenVMFile",
                                        "src" : 1,
                                        "trackNumber" : 0,
                                        "attributes" : {
                                          "ident" : "Rec 01-10-21"
                                        },
                                        "parameters" : {
                                          "cursorScale" : {
                                            "type" : "double",
                                            "defaultValue" : 0.0,
                                            "interp" : "linr"
                                          },
                                          "cursorOpacity" : {
                                            "type" : "double",
                                            "defaultValue" : 0.0,
                                            "interp" : "linr"
                                          }
                                        },
                                        "effects" : [

                                        ],
                                        "start" : 11889,
                                        "duration" : 127,
                                        "mediaStart" : 14814,
                                        "mediaDuration" : 127,
                                        "scalar" : 1,
                                        "animationTracks" : {

                                        }
                                      },
                                  "audio" : 
                                      {
                                        "id" : 1008,
                                        "_type" : "AMFile",
                                        "src" : 1,
                                        "trackNumber" : 1,
                                        "attributes" : {
                                          "ident" : "",
                                          "gain" : 1.0,
                                          "mixToMono" : false
                                        },
                                          "channelNumber" : "0,1",
                                        "effects" : [

                                        ],
                                        "start" : 11889,
                                        "duration" : 127,
                                        "mediaStart" : 14814,
                                        "mediaDuration" : 127,
                                        "scalar" : 1,
                                        "animationTracks" : {

                                        }
                                      }
,
                                  "start" : 11889,
                                  "duration" : 127,
                                  "mediaStart" : 0,
                                  "mediaDuration" : 25747,
                                  "scalar" : 1,
                                  "metadata" : {
                                    "AutoAppliedSmartFocus" : "False",
                                    "clipSpeedAttribute" : false
                                  }
                                },
                                {
                                  "id" : 1009,
                                  "_type" : "UnifiedMedia",
                                  "video" : 
                                      {
                                        "id" : 1010,
                                        "_type" : "ScreenVMFile",
                                        "src" : 1,
                                        "trackNumber" : 0,
                                        "attributes" : {
                                          "ident" : "Rec 01-10-21"
                                        },
                                        "parameters" : {
                                          "cursorScale" : {
                                            "type" : "double",
                                            "defaultValue" : 0.0,
                                            "interp" : "linr"
                                          },
                                          "cursorOpacity" : {
                                            "type" : "double",
                                            "defaultValue" : 0.0,
                                            "interp" : "linr"
                                          }
                                        },
                                        "effects" : [

                                        ],
                                        "start" : 12016,
                                        "duration" : 43,
                                        "mediaStart" : 14962,
                                        "mediaDuration" : 43,
                                        "scalar" : 1,
                                        "animationTracks" : {

                                        }
                                      },
                                  "audio" : 
                                      {
                                        "id" : 1011,
                                        "_type" : "AMFile",
                                        "src" : 1,
                                        "trackNumber" : 1,
                                        "attributes" : {
                                          "ident" : "",
                                          "gain" : 1.0,
                                          "mixToMono" : false
                                        },
                                          "channelNumber" : "0,1",
                                        "effects" : [

                                        ],
                                        "start" : 12016,
                                        "duration" : 43,
                                        "mediaStart" : 14962,
                                        "mediaDuration" : 43,
                                        "scalar" : 1,
                                        "animationTracks" : {

                                        }
                                      }
,
                                  "start" : 12016,
                                  "duration" : 43,
                                  "mediaStart" : 0,
                                  "mediaDuration" : 25747,
                                  "scalar" : 1,
                                  "metadata" : {
                                    "AutoAppliedSmartFocus" : "False",
                                    "clipSpeedAttribute" : false
                                  }
                                },
                                {
                                  "id" : 1012,
                                  "_type" : "UnifiedMedia",
                                  "video" : 
                                      {
                                        "id" : 1013,
                                        "_type" : "ScreenVMFile",
                                        "src" : 1,
                                        "trackNumber" : 0,
                                        "attributes" : {
                                          "ident" : "Rec 01-10-21"
                                        },
                                        "parameters" : {
                                          "cursorScale" : {
                                            "type" : "double",
                                            "defaultValue" : 0.0,
                                            "interp" : "linr"
                                          },
                                          "cursorOpacity" : {
                                            "type" : "double",
                                            "defaultValue" : 0.0,
                                            "interp" : "linr"
                                          }
                                        },
                                        "effects" : [

                                        ],
                                        "start" : 12059,
                                        "duration" : 84,
                                        "mediaStart" : 15016,
                                        "mediaDuration" : 84,
                                        "scalar" : 1,
                                        "animationTracks" : {

                                        }
                                      },
                                  "audio" : 
                                      {
                                        "id" : 1014,
                                        "_type" : "AMFile",
                                        "src" : 1,
                                        "trackNumber" : 1,
                                        "attributes" : {
                                          "ident" : "",
                                          "gain" : 1.0,
                                          "mixToMono" : false
                                        },
                                          "channelNumber" : "0,1",
                                        "effects" : [

                                        ],
                                        "start" : 12059,
                                        "duration" : 84,
                                        "mediaStart" : 15016,
                                        "mediaDuration" : 84,
                                        "scalar" : 1,
                                        "animationTracks" : {

                                        }
                                      }
,
                                  "start" : 12059,
                                  "duration" : 84,
                                  "mediaStart" : 0,
                                  "mediaDuration" : 25747,
                                  "scalar" : 1,
                                  "metadata" : {
                                    "AutoAppliedSmartFocus" : "False",
                                    "clipSpeedAttribute" : false
                                  }
                                },
                                {
                                  "id" : 1015,
                                  "_type" : "UnifiedMedia",
                                  "video" : 
                                      {
                                        "id" : 1016,
                                        "_type" : "ScreenVMFile",
                                        "src" : 1,
                                        "trackNumber" : 0,
                                        "attributes" : {
                                          "ident" : "Rec 01-10-21"
                                        },
                                        "parameters" : {
                                          "cursorScale" : {
                                            "type" : "double",
                                            "defaultValue" : 0.0,
                                            "interp" : "linr"
                                          },
                                          "cursorOpacity" : {
                                            "type" : "double",
                                            "defaultValue" : 0.0,
                                            "interp" : "linr"
                                          }
                                        },
                                        "effects" : [

                                        ],
                                        "start" : 12143,
                                        "duration" : 10600,
                                        "mediaStart" : 15147,
                                        "mediaDuration" : 10600,
                                        "scalar" : 1,
                                        "animationTracks" : {

                                        }
                                      },
                                  "audio" : 
                                      {
                                        "id" : 1017,
                                        "_type" : "AMFile",
                                        "src" : 1,
                                        "trackNumber" : 1,
                                        "attributes" : {
                                          "ident" : "",
                                          "gain" : 1.0,
                                          "mixToMono" : false
                                        },
                                          "channelNumber" : "0,1",
                                        "effects" : [

                                        ],
                                        "start" : 12143,
                                        "duration" : 10600,
                                        "mediaStart" : 15147,
                                        "mediaDuration" : 10600,
                                        "scalar" : 1,
                                        "animationTracks" : {

                                        }
                                      }
,
                                  "start" : 12143,
                                  "duration" : 10600,
                                  "mediaStart" : 0,
                                  "mediaDuration" : 25747,
                                  "scalar" : 1,
                                  "metadata" : {
                                    "AutoAppliedSmartFocus" : "False",
                                    "clipSpeedAttribute" : false
                                  }
                                }
                            ],
                            "effects" : [

                            ],
                            "start" : 0,
                            "duration" : 24,
                            "mediaStart" : 12128,
                            "mediaDuration" : 24,
                            "scalar" : 1,
                            "metadata" : {
                              "AutoAppliedSmartFocus" : "False",
                              "clipSpeedAttribute" : false
                            },
                            "animationTracks" : {

                            }
                          }
                        ],
                          "ident" : "",
                          "audioMuted" : false,
                          "videoHidden" : false,
                          "magnetic" : false,
                          "matte" : 0,
                          "metadata" : {
                            "IsLocked" : "False",
                            "WinTrackHeight" : "0"
                          }
                      },
                      {
                        "trackIndex" : 1,
                        "medias" : [
                          {
                            "id" : 1018,
                            "_type" : "AMFile",
                            "src" : 6,
                            "trackNumber" : 0,
                            "attributes" : {
                              "ident" : "Narration_3-1 Pod 5",
                              "gain" : 1.0,
                              "mixToMono" : false
                            },
                              "channelNumber" : "0,1",
                            "effects" : [

                            ],
                            "start" : 0,
                            "duration" : 24,
                            "mediaStart" : 31,
                            "mediaDuration" : 24,
                            "scalar" : 1,
                            "metadata" : {
                              "clipSpeedAttribute" : false
                            },
                            "animationTracks" : {

                            }
                          }
                        ],
                          "ident" : "",
                          "audioMuted" : false,
                          "videoHidden" : false,
                          "magnetic" : false,
                          "matte" : 0,
                          "metadata" : {
                            "IsLocked" : "False",
                            "WinTrackHeight" : "4.48620777641907e-312"
                          }
                      }
                    ],
                    "attributes" : {
                      "ident" : "Group 4",
                      "gain" : 1.0,
                      "mixToMono" : false
                    },
                    "effects" : [

                    ],
                    "start" : 8267,
                    "duration" : 24,
                    "mediaStart" : 0.0,
                    "mediaDuration" : 24.0,
                    "scalar" : 1,
                    "metadata" : {
                      "IsGroupExpanded" : "False"
                    },
                    "animationTracks" : {

                    }
                  },
                  {
                    "id" : 1019,
                    "_type" : "StitchedMedia",
                    "minMediaStart" : 0,
                    "attributes" : {
                      "ident" : "Rec 01-10-21",
                      "gain" : 1.0,
                      "mixToMono" : false
                    },
                    "parameters" : {
                      "volume" : 1.0,
                      "cursorOpacity" : 1.0,
                      "cursorScale" : 1.0
                    },
                    "medias" : [
                        {
                          "id" : 1020,
                          "_type" : "UnifiedMedia",
                          "video" : 
                              {
                                "id" : 1021,
                                "_type" : "ScreenVMFile",
                                "src" : 1,
                                "trackNumber" : 0,
                                "attributes" : {
                                  "ident" : "Rec 01-10-21"
                                },
                                "parameters" : {
                                  "cursorScale" : {
                                    "type" : "double",
                                    "defaultValue" : 0.0,
                                    "interp" : "linr"
                                  },
                                  "cursorOpacity" : {
                                    "type" : "double",
                                    "defaultValue" : 0.0,
                                    "interp" : "linr"
                                  }
                                },
                                "effects" : [

                                ],
                                "start" : 0,
                                "duration" : 15255,
                                "mediaStart" : 0,
                                "mediaDuration" : 15255,
                                "scalar" : 1,
                                "animationTracks" : {

                                }
                              },
                          "audio" : 
                              {
                                "id" : 1022,
                                "_type" : "AMFile",
                                "src" : 1,
                                "trackNumber" : 1,
                                "attributes" : {
                                  "ident" : "",
                                  "gain" : 1.0,
                                  "mixToMono" : false
                                },
                                  "channelNumber" : "0,1",
                                "effects" : [

                                ],
                                "start" : 0,
                                "duration" : 15255,
                                "mediaStart" : 0,
                                "mediaDuration" : 15255,
                                "scalar" : 1,
                                "animationTracks" : {

                                }
                              }
,
                          "start" : 0,
                          "duration" : 15255,
                          "mediaStart" : 0,
                          "mediaDuration" : 25747,
                          "scalar" : 1,
                          "metadata" : {
                            "AutoAppliedSmartFocus" : "False",
                            "clipSpeedAttribute" : false
                          }
                        },
                        {
                          "id" : 1023,
                          "_type" : "UnifiedMedia",
                          "video" : 
                              {
                                "id" : 1024,
                                "_type" : "ScreenVMFile",
                                "src" : 1,
                                "trackNumber" : 0,
                                "attributes" : {
                                  "ident" : "Rec 01-10-21"
                                },
                                "parameters" : {
                                  "cursorScale" : {
                                    "type" : "double",
                                    "defaultValue" : 0.0,
                                    "interp" : "linr"
                                  },
                                  "cursorOpacity" : {
                                    "type" : "double",
                                    "defaultValue" : 0.0,
                                    "interp" : "linr"
                                  }
                                },
                                "effects" : [

                                ],
                                "start" : 15255,
                                "duration" : 36,
                                "mediaStart" : 15274,
                                "mediaDuration" : 36,
                                "scalar" : 1,
                                "animationTracks" : {

                                }
                              },
                          "audio" : 
                              {
                                "id" : 1025,
                                "_type" : "AMFile",
                                "src" : 1,
                                "trackNumber" : 1,
                                "attributes" : {
                                  "ident" : "",
                                  "gain" : 1.0,
                                  "mixToMono" : false
                                },
                                  "channelNumber" : "0,1",
                                "effects" : [

                                ],
                                "start" : 15255,
                                "duration" : 36,
                                "mediaStart" : 15274,
                                "mediaDuration" : 36,
                                "scalar" : 1,
                                "animationTracks" : {

                                }
                              }
,
                          "start" : 15255,
                          "duration" : 36,
                          "mediaStart" : 0,
                          "mediaDuration" : 25747,
                          "scalar" : 1,
                          "metadata" : {
                            "AutoAppliedSmartFocus" : "False",
                            "clipSpeedAttribute" : false
                          }
                        },
                        {
                          "id" : 1026,
                          "_type" : "UnifiedMedia",
                          "video" : 
                              {
                                "id" : 1027,
                                "_type" : "ScreenVMFile",
                                "src" : 1,
                                "trackNumber" : 0,
                                "attributes" : {
                                  "ident" : "Rec 01-10-21"
                                },
                                "parameters" : {
                                  "cursorScale" : {
                                    "type" : "double",
                                    "defaultValue" : 0.0,
                                    "interp" : "linr"
                                  },
                                  "cursorOpacity" : {
                                    "type" : "double",
                                    "defaultValue" : 0.0,
                                    "interp" : "linr"
                                  }
                                },
                                "effects" : [

                                ],
                                "start" : 15291,
                                "duration" : 207,
                                "mediaStart" : 15343,
                                "mediaDuration" : 207,
                                "scalar" : 1,
                                "animationTracks" : {

                                }
                              },
                          "audio" : 
                              {
                                "id" : 1028,
                                "_type" : "AMFile",
                                "src" : 1,
                                "trackNumber" : 1,
                                "attributes" : {
                                  "ident" : "",
                                  "gain" : 1.0,
                                  "mixToMono" : false
                                },
                                  "channelNumber" : "0,1",
                                "effects" : [

                                ],
                                "start" : 15291,
                                "duration" : 207,
                                "mediaStart" : 15343,
                                "mediaDuration" : 207,
                                "scalar" : 1,
                                "animationTracks" : {

                                }
                              }
,
                          "start" : 15291,
                          "duration" : 207,
                          "mediaStart" : 0,
                          "mediaDuration" : 25747,
                          "scalar" : 1,
                          "metadata" : {
                            "AutoAppliedSmartFocus" : "False",
                            "clipSpeedAttribute" : false
                          }
                        },
                        {
                          "id" : 1029,
                          "_type" : "UnifiedMedia",
                          "video" : 
                              {
                                "id" : 1030,
                                "_type" : "ScreenVMFile",
                                "src" : 1,
                                "trackNumber" : 0,
                                "attributes" : {
                                  "ident" : "Rec 01-10-21"
                                },
                                "parameters" : {
                                  "cursorScale" : {
                                    "type" : "double",
                                    "defaultValue" : 0.0,
                                    "interp" : "linr"
                                  },
                                  "cursorOpacity" : {
                                    "type" : "double",
                                    "defaultValue" : 0.0,
                                    "interp" : "linr"
                                  }
                                },
                                "effects" : [

                                ],
                                "start" : 15498,
                                "duration" : 136,
                                "mediaStart" : 15590,
                                "mediaDuration" : 136,
                                "scalar" : 1,
                                "animationTracks" : {

                                }
                              },
                          "audio" : 
                              {
                                "id" : 1031,
                                "_type" : "AMFile",
                                "src" : 1,
                                "trackNumber" : 1,
                                "attributes" : {
                                  "ident" : "",
                                  "gain" : 1.0,
                                  "mixToMono" : false
                                },
                                  "channelNumber" : "0,1",
                                "effects" : [

                                ],
                                "start" : 15498,
                                "duration" : 136,
                                "mediaStart" : 15590,
                                "mediaDuration" : 136,
                                "scalar" : 1,
                                "animationTracks" : {

                                }
                              }
,
                          "start" : 15498,
                          "duration" : 136,
                          "mediaStart" : 0,
                          "mediaDuration" : 25747,
                          "scalar" : 1,
                          "metadata" : {
                            "AutoAppliedSmartFocus" : "False",
                            "clipSpeedAttribute" : false
                          }
                        },
                        {
                          "id" : 1032,
                          "_type" : "UnifiedMedia",
                          "video" : 
                              {
                                "id" : 1033,
                                "_type" : "ScreenVMFile",
                                "src" : 1,
                                "trackNumber" : 0,
                                "attributes" : {
                                  "ident" : "Rec 01-10-21"
                                },
                                "parameters" : {
                                  "cursorScale" : {
                                    "type" : "double",
                                    "defaultValue" : 0.0,
                                    "interp" : "linr"
                                  },
                                  "cursorOpacity" : {
                                    "type" : "double",
                                    "defaultValue" : 0.0,
                                    "interp" : "linr"
                                  }
                                },
                                "effects" : [

                                ],
                                "start" : 15634,
                                "duration" : 85,
                                "mediaStart" : 15788,
                                "mediaDuration" : 85,
                                "scalar" : 1,
                                "animationTracks" : {

                                }
                              },
                          "audio" : 
                              {
                                "id" : 1034,
                                "_type" : "AMFile",
                                "src" : 1,
                                "trackNumber" : 1,
                                "attributes" : {
                                  "ident" : "",
                                  "gain" : 1.0,
                                  "mixToMono" : false
                                },
                                  "channelNumber" : "0,1",
                                "effects" : [

                                ],
                                "start" : 15634,
                                "duration" : 85,
                                "mediaStart" : 15788,
                                "mediaDuration" : 85,
                                "scalar" : 1,
                                "animationTracks" : {

                                }
                              }
,
                          "start" : 15634,
                          "duration" : 85,
                          "mediaStart" : 0,
                          "mediaDuration" : 25747,
                          "scalar" : 1,
                          "metadata" : {
                            "AutoAppliedSmartFocus" : "False",
                            "clipSpeedAttribute" : false
                          }
                        },
                        {
                          "id" : 1035,
                          "_type" : "UnifiedMedia",
                          "video" : 
                              {
                                "id" : 1036,
                                "_type" : "ScreenVMFile",
                                "src" : 1,
                                "trackNumber" : 0,
                                "attributes" : {
                                  "ident" : "Rec 01-10-21"
                                },
                                "parameters" : {
                                  "cursorScale" : {
                                    "type" : "double",
                                    "defaultValue" : 0.0,
                                    "interp" : "linr"
                                  },
                                  "cursorOpacity" : {
                                    "type" : "double",
                                    "defaultValue" : 0.0,
                                    "interp" : "linr"
                                  }
                                },
                                "effects" : [

                                ],
                                "start" : 15719,
                                "duration" : 132,
                                "mediaStart" : 15926,
                                "mediaDuration" : 132,
                                "scalar" : 1,
                                "animationTracks" : {

                                }
                              },
                          "audio" : 
                              {
                                "id" : 1037,
                                "_type" : "AMFile",
                                "src" : 1,
                                "trackNumber" : 1,
                                "attributes" : {
                                  "ident" : "",
                                  "gain" : 1.0,
                                  "mixToMono" : false
                                },
                                  "channelNumber" : "0,1",
                                "effects" : [

                                ],
                                "start" : 15719,
                                "duration" : 132,
                                "mediaStart" : 15926,
                                "mediaDuration" : 132,
                                "scalar" : 1,
                                "animationTracks" : {

                                }
                              }
,
                          "start" : 15719,
                          "duration" : 132,
                          "mediaStart" : 0,
                          "mediaDuration" : 25747,
                          "scalar" : 1,
                          "metadata" : {
                            "AutoAppliedSmartFocus" : "False",
                            "clipSpeedAttribute" : false
                          }
                        },
                        {
                          "id" : 1038,
                          "_type" : "UnifiedMedia",
                          "video" : 
                              {
                                "id" : 1039,
                                "_type" : "ScreenVMFile",
                                "src" : 1,
                                "trackNumber" : 0,
                                "attributes" : {
                                  "ident" : "Rec 01-10-21"
                                },
                                "parameters" : {
                                  "cursorScale" : {
                                    "type" : "double",
                                    "defaultValue" : 0.0,
                                    "interp" : "linr"
                                  },
                                  "cursorOpacity" : {
                                    "type" : "double",
                                    "defaultValue" : 0.0,
                                    "interp" : "linr"
                                  }
                                },
                                "effects" : [

                                ],
                                "start" : 15851,
                                "duration" : 60,
                                "mediaStart" : 16118,
                                "mediaDuration" : 60,
                                "scalar" : 1,
                                "animationTracks" : {

                                }
                              },
                          "audio" : 
                              {
                                "id" : 1040,
                                "_type" : "AMFile",
                                "src" : 1,
                                "trackNumber" : 1,
                                "attributes" : {
                                  "ident" : "",
                                  "gain" : 1.0,
                                  "mixToMono" : false
                                },
                                  "channelNumber" : "0,1",
                                "effects" : [

                                ],
                                "start" : 15851,
                                "duration" : 60,
                                "mediaStart" : 16118,
                                "mediaDuration" : 60,
                                "scalar" : 1,
                                "animationTracks" : {

                                }
                              }
,
                          "start" : 15851,
                          "duration" : 60,
                          "mediaStart" : 0,
                          "mediaDuration" : 25747,
                          "scalar" : 1,
                          "metadata" : {
                            "AutoAppliedSmartFocus" : "False",
                            "clipSpeedAttribute" : false
                          }
                        },
                        {
                          "id" : 1041,
                          "_type" : "UnifiedMedia",
                          "video" : 
                              {
                                "id" : 1042,
                                "_type" : "ScreenVMFile",
                                "src" : 1,
                                "trackNumber" : 0,
                                "attributes" : {
                                  "ident" : "Rec 01-10-21"
                                },
                                "parameters" : {
                                  "cursorScale" : {
                                    "type" : "double",
                                    "defaultValue" : 0.0,
                                    "interp" : "linr"
                                  },
                                  "cursorOpacity" : {
                                    "type" : "double",
                                    "defaultValue" : 0.0,
                                    "interp" : "linr"
                                  }
                                },
                                "effects" : [

                                ],
                                "start" : 15911,
                                "duration" : 7,
                                "mediaStart" : 16638,
                                "mediaDuration" : 7,
                                "scalar" : 1,
                                "animationTracks" : {

                                }
                              },
                          "audio" : 
                              {
                                "id" : 1043,
                                "_type" : "AMFile",
                                "src" : 1,
                                "trackNumber" : 1,
                                "attributes" : {
                                  "ident" : "",
                                  "gain" : 1.0,
                                  "mixToMono" : false
                                },
                                  "channelNumber" : "0,1",
                                "effects" : [

                                ],
                                "start" : 15911,
                                "duration" : 7,
                                "mediaStart" : 16638,
                                "mediaDuration" : 7,
                                "scalar" : 1,
                                "animationTracks" : {

                                }
                              }
,
                          "start" : 15911,
                          "duration" : 7,
                          "mediaStart" : 0,
                          "mediaDuration" : 25747,
                          "scalar" : 1,
                          "metadata" : {
                            "AutoAppliedSmartFocus" : "False",
                            "clipSpeedAttribute" : false
                          }
                        },
                        {
                          "id" : 1044,
                          "_type" : "UnifiedMedia",
                          "video" : 
                              {
                                "id" : 1045,
                                "_type" : "ScreenVMFile",
                                "src" : 1,
                                "trackNumber" : 0,
                                "attributes" : {
                                  "ident" : "Rec 01-10-21"
                                },
                                "parameters" : {
                                  "cursorScale" : {
                                    "type" : "double",
                                    "defaultValue" : 0.0,
                                    "interp" : "linr"
                                  },
                                  "cursorOpacity" : {
                                    "type" : "double",
                                    "defaultValue" : 0.0,
                                    "interp" : "linr"
                                  }
                                },
                                "effects" : [

                                ],
                                "start" : 15918,
                                "duration" : 90,
                                "mediaStart" : 16843,
                                "mediaDuration" : 90,
                                "scalar" : 1,
                                "animationTracks" : {

                                }
                              },
                          "audio" : 
                              {
                                "id" : 1046,
                                "_type" : "AMFile",
                                "src" : 1,
                                "trackNumber" : 1,
                                "attributes" : {
                                  "ident" : "",
                                  "gain" : 1.0,
                                  "mixToMono" : false
                                },
                                  "channelNumber" : "0,1",
                                "effects" : [

                                ],
                                "start" : 15918,
                                "duration" : 90,
                                "mediaStart" : 16843,
                                "mediaDuration" : 90,
                                "scalar" : 1,
                                "animationTracks" : {

                                }
                              }
,
                          "start" : 15918,
                          "duration" : 90,
                          "mediaStart" : 0,
                          "mediaDuration" : 25747,
                          "scalar" : 1,
                          "metadata" : {
                            "AutoAppliedSmartFocus" : "False",
                            "clipSpeedAttribute" : false
                          }
                        },
                        {
                          "id" : 1047,
                          "_type" : "UnifiedMedia",
                          "video" : 
                              {
                                "id" : 1048,
                                "_type" : "ScreenVMFile",
                                "src" : 1,
                                "trackNumber" : 0,
                                "attributes" : {
                                  "ident" : "Rec 01-10-21"
                                },
                                "parameters" : {
                                  "cursorScale" : {
                                    "type" : "double",
                                    "defaultValue" : 0.0,
                                    "interp" : "linr"
                                  },
                                  "cursorOpacity" : {
                                    "type" : "double",
                                    "defaultValue" : 0.0,
                                    "interp" : "linr"
                                  }
                                },
                                "effects" : [

                                ],
                                "start" : 16008,
                                "duration" : 3,
                                "mediaStart" : 16991,
                                "mediaDuration" : 3,
                                "scalar" : 1,
                                "animationTracks" : {

                                }
                              },
                          "audio" : 
                              {
                                "id" : 1049,
                                "_type" : "AMFile",
                                "src" : 1,
                                "trackNumber" : 1,
                                "attributes" : {
                                  "ident" : "",
                                  "gain" : 1.0,
                                  "mixToMono" : false
                                },
                                  "channelNumber" : "0,1",
                                "effects" : [

                                ],
                                "start" : 16008,
                                "duration" : 3,
                                "mediaStart" : 16991,
                                "mediaDuration" : 3,
                                "scalar" : 1,
                                "animationTracks" : {

                                }
                              }
,
                          "start" : 16008,
                          "duration" : 3,
                          "mediaStart" : 0,
                          "mediaDuration" : 25747,
                          "scalar" : 1,
                          "metadata" : {
                            "AutoAppliedSmartFocus" : "False",
                            "clipSpeedAttribute" : false
                          }
                        },
                        {
                          "id" : 1050,
                          "_type" : "UnifiedMedia",
                          "video" : 
                              {
                                "id" : 1051,
                                "_type" : "ScreenVMFile",
                                "src" : 1,
                                "trackNumber" : 0,
                                "attributes" : {
                                  "ident" : "Rec 01-10-21"
                                },
                                "parameters" : {
                                  "cursorScale" : {
                                    "type" : "double",
                                    "defaultValue" : 0.0,
                                    "interp" : "linr"
                                  },
                                  "cursorOpacity" : {
                                    "type" : "double",
                                    "defaultValue" : 0.0,
                                    "interp" : "linr"
                                  }
                                },
                                "effects" : [

                                ],
                                "start" : 16011,
                                "duration" : 864,
                                "mediaStart" : 17051,
                                "mediaDuration" : 864,
                                "scalar" : 1,
                                "animationTracks" : {

                                }
                              },
                          "audio" : 
                              {
                                "id" : 1052,
                                "_type" : "AMFile",
                                "src" : 1,
                                "trackNumber" : 1,
                                "attributes" : {
                                  "ident" : "",
                                  "gain" : 1.0,
                                  "mixToMono" : false
                                },
                                  "channelNumber" : "0,1",
                                "effects" : [

                                ],
                                "start" : 16011,
                                "duration" : 864,
                                "mediaStart" : 17051,
                                "mediaDuration" : 864,
                                "scalar" : 1,
                                "animationTracks" : {

                                }
                              }
,
                          "start" : 16011,
                          "duration" : 864,
                          "mediaStart" : 0,
                          "mediaDuration" : 25747,
                          "scalar" : 1,
                          "metadata" : {
                            "AutoAppliedSmartFocus" : "False",
                            "clipSpeedAttribute" : false
                          }
                        },
                        {
                          "id" : 1053,
                          "_type" : "UnifiedMedia",
                          "video" : 
                              {
                                "id" : 1054,
                                "_type" : "ScreenVMFile",
                                "src" : 1,
                                "trackNumber" : 0,
                                "attributes" : {
                                  "ident" : "Rec 01-10-21"
                                },
                                "parameters" : {
                                  "cursorScale" : {
                                    "type" : "double",
                                    "defaultValue" : 0.0,
                                    "interp" : "linr"
                                  },
                                  "cursorOpacity" : {
                                    "type" : "double",
                                    "defaultValue" : 0.0,
                                    "interp" : "linr"
                                  }
                                },
                                "effects" : [

                                ],
                                "start" : 16875,
                                "duration" : 21,
                                "mediaStart" : 17980,
                                "mediaDuration" : 21,
                                "scalar" : 1,
                                "animationTracks" : {

                                }
                              },
                          "audio" : 
                              {
                                "id" : 1055,
                                "_type" : "AMFile",
                                "src" : 1,
                                "trackNumber" : 1,
                                "attributes" : {
                                  "ident" : "",
                                  "gain" : 1.0,
                                  "mixToMono" : false
                                },
                                  "channelNumber" : "0,1",
                                "effects" : [

                                ],
                                "start" : 16875,
                                "duration" : 21,
                                "mediaStart" : 17980,
                                "mediaDuration" : 21,
                                "scalar" : 1,
                                "animationTracks" : {

                                }
                              }
,
                          "start" : 16875,
                          "duration" : 21,
                          "mediaStart" : 0,
                          "mediaDuration" : 25747,
                          "scalar" : 1,
                          "metadata" : {
                            "AutoAppliedSmartFocus" : "False",
                            "clipSpeedAttribute" : false
                          }
                        },
                        {
                          "id" : 1056,
                          "_type" : "UnifiedMedia",
                          "video" : 
                              {
                                "id" : 1057,
                                "_type" : "ScreenVMFile",
                                "src" : 1,
                                "trackNumber" : 0,
                                "attributes" : {
                                  "ident" : "Rec 01-10-21"
                                },
                                "parameters" : {
                                  "cursorScale" : {
                                    "type" : "double",
                                    "defaultValue" : 0.0,
                                    "interp" : "linr"
                                  },
                                  "cursorOpacity" : {
                                    "type" : "double",
                                    "defaultValue" : 0.0,
                                    "interp" : "linr"
                                  }
                                },
                                "effects" : [

                                ],
                                "start" : 16896,
                                "duration" : 83,
                                "mediaStart" : 18105,
                                "mediaDuration" : 83,
                                "scalar" : 1,
                                "animationTracks" : {

                                }
                              },
                          "audio" : 
                              {
                                "id" : 1058,
                                "_type" : "AMFile",
                                "src" : 1,
                                "trackNumber" : 1,
                                "attributes" : {
                                  "ident" : "",
                                  "gain" : 1.0,
                                  "mixToMono" : false
                                },
                                  "channelNumber" : "0,1",
                                "effects" : [

                                ],
                                "start" : 16896,
                                "duration" : 83,
                                "mediaStart" : 18105,
                                "mediaDuration" : 83,
                                "scalar" : 1,
                                "animationTracks" : {

                                }
                              }
,
                          "start" : 16896,
                          "duration" : 83,
                          "mediaStart" : 0,
                          "mediaDuration" : 25747,
                          "scalar" : 1,
                          "metadata" : {
                            "AutoAppliedSmartFocus" : "False",
                            "clipSpeedAttribute" : false
                          }
                        },
                        {
                          "id" : 1059,
                          "_type" : "UnifiedMedia",
                          "video" : 
                              {
                                "id" : 1060,
                                "_type" : "ScreenVMFile",
                                "src" : 1,
                                "trackNumber" : 0,
                                "attributes" : {
                                  "ident" : "Rec 01-10-21"
                                },
                                "parameters" : {
                                  "cursorScale" : {
                                    "type" : "double",
                                    "defaultValue" : 0.0,
                                    "interp" : "linr"
                                  },
                                  "cursorOpacity" : {
                                    "type" : "double",
                                    "defaultValue" : 0.0,
                                    "interp" : "linr"
                                  }
                                },
                                "effects" : [

                                ],
                                "start" : 16979,
                                "duration" : 7354,
                                "mediaStart" : 18393,
                                "mediaDuration" : 7354,
                                "scalar" : 1,
                                "animationTracks" : {

                                }
                              },
                          "audio" : 
                              {
                                "id" : 1061,
                                "_type" : "AMFile",
                                "src" : 1,
                                "trackNumber" : 1,
                                "attributes" : {
                                  "ident" : "",
                                  "gain" : 1.0,
                                  "mixToMono" : false
                                },
                                  "channelNumber" : "0,1",
                                "effects" : [

                                ],
                                "start" : 16979,
                                "duration" : 7354,
                                "mediaStart" : 18393,
                                "mediaDuration" : 7354,
                                "scalar" : 1,
                                "animationTracks" : {

                                }
                              }
,
                          "start" : 16979,
                          "duration" : 7354,
                          "mediaStart" : 0,
                          "mediaDuration" : 25747,
                          "scalar" : 1,
                          "metadata" : {
                            "AutoAppliedSmartFocus" : "False",
                            "clipSpeedAttribute" : false
                          }
                        }
                    ],
                    "effects" : [

                    ],
                    "start" : 8291,
                    "duration" : 710,
                    "mediaStart" : 15171,
                    "mediaDuration" : 710,
                    "scalar" : 1,
                    "metadata" : {
                      "AutoAppliedSmartFocus" : "False",
                      "clipSpeedAttribute" : false
                    },
                    "animationTracks" : {

                    }
                  },
                  {
                    "id" : 1062,
                    "_type" : "Group",
                    "parameters" : {
                      "volume" : 1.0
                    },
                    "tracks" : [
                      {
                        "trackIndex" : 0,
                        "medias" : [
                          {
                            "id" : 1063,
                            "_type" : "StitchedMedia",
                            "minMediaStart" : 0,
                            "attributes" : {
                              "ident" : "Rec 01-10-21",
                              "gain" : 1.0,
                              "mixToMono" : false
                            },
                            "parameters" : {
                              "cursorOpacity" : 1.0,
                              "cursorScale" : 1.0
                            },
                            "medias" : [
                                {
                                  "id" : 1064,
                                  "_type" : "ScreenVMFile",
                                  "src" : 1,
                                  "trackNumber" : 0,
                                  "attributes" : {
                                    "ident" : "Rec 01-10-21"
                                  },
                                  "parameters" : {
                                    "cursorScale" : {
                                      "type" : "double",
                                      "defaultValue" : 0.0,
                                      "interp" : "linr"
                                    },
                                    "cursorOpacity" : {
                                      "type" : "double",
                                      "defaultValue" : 0.0,
                                      "interp" : "linr"
                                    }
                                  },
                                  "effects" : [

                                  ],
                                  "start" : 0,
                                  "duration" : 15255,
                                  "mediaStart" : 0,
                                  "mediaDuration" : 15255,
                                  "scalar" : 1,
                                  "metadata" : {
                                    "AutoAppliedSmartFocus" : "False"
                                  },
                                  "animationTracks" : {

                                  }
                                },
                                {
                                  "id" : 1065,
                                  "_type" : "ScreenVMFile",
                                  "src" : 1,
                                  "trackNumber" : 0,
                                  "attributes" : {
                                    "ident" : "Rec 01-10-21"
                                  },
                                  "parameters" : {
                                    "cursorScale" : {
                                      "type" : "double",
                                      "defaultValue" : 0.0,
                                      "interp" : "linr"
                                    },
                                    "cursorOpacity" : {
                                      "type" : "double",
                                      "defaultValue" : 0.0,
                                      "interp" : "linr"
                                    }
                                  },
                                  "effects" : [

                                  ],
                                  "start" : 15255,
                                  "duration" : 36,
                                  "mediaStart" : 15274,
                                  "mediaDuration" : 36,
                                  "scalar" : 1,
                                  "metadata" : {
                                    "AutoAppliedSmartFocus" : "False"
                                  },
                                  "animationTracks" : {

                                  }
                                },
                                {
                                  "id" : 1066,
                                  "_type" : "ScreenVMFile",
                                  "src" : 1,
                                  "trackNumber" : 0,
                                  "attributes" : {
                                    "ident" : "Rec 01-10-21"
                                  },
                                  "parameters" : {
                                    "cursorScale" : {
                                      "type" : "double",
                                      "defaultValue" : 0.0,
                                      "interp" : "linr"
                                    },
                                    "cursorOpacity" : {
                                      "type" : "double",
                                      "defaultValue" : 0.0,
                                      "interp" : "linr"
                                    }
                                  },
                                  "effects" : [

                                  ],
                                  "start" : 15291,
                                  "duration" : 207,
                                  "mediaStart" : 15343,
                                  "mediaDuration" : 207,
                                  "scalar" : 1,
                                  "metadata" : {
                                    "AutoAppliedSmartFocus" : "False"
                                  },
                                  "animationTracks" : {

                                  }
                                },
                                {
                                  "id" : 1067,
                                  "_type" : "ScreenVMFile",
                                  "src" : 1,
                                  "trackNumber" : 0,
                                  "attributes" : {
                                    "ident" : "Rec 01-10-21"
                                  },
                                  "parameters" : {
                                    "cursorScale" : {
                                      "type" : "double",
                                      "defaultValue" : 0.0,
                                      "interp" : "linr"
                                    },
                                    "cursorOpacity" : {
                                      "type" : "double",
                                      "defaultValue" : 0.0,
                                      "interp" : "linr"
                                    }
                                  },
                                  "effects" : [

                                  ],
                                  "start" : 15498,
                                  "duration" : 136,
                                  "mediaStart" : 15590,
                                  "mediaDuration" : 136,
                                  "scalar" : 1,
                                  "metadata" : {
                                    "AutoAppliedSmartFocus" : "False"
                                  },
                                  "animationTracks" : {

                                  }
                                },
                                {
                                  "id" : 1068,
                                  "_type" : "ScreenVMFile",
                                  "src" : 1,
                                  "trackNumber" : 0,
                                  "attributes" : {
                                    "ident" : "Rec 01-10-21"
                                  },
                                  "parameters" : {
                                    "cursorScale" : {
                                      "type" : "double",
                                      "defaultValue" : 0.0,
                                      "interp" : "linr"
                                    },
                                    "cursorOpacity" : {
                                      "type" : "double",
                                      "defaultValue" : 0.0,
                                      "interp" : "linr"
                                    }
                                  },
                                  "effects" : [

                                  ],
                                  "start" : 15634,
                                  "duration" : 85,
                                  "mediaStart" : 15788,
                                  "mediaDuration" : 85,
                                  "scalar" : 1,
                                  "metadata" : {
                                    "AutoAppliedSmartFocus" : "False"
                                  },
                                  "animationTracks" : {

                                  }
                                },
                                {
                                  "id" : 1069,
                                  "_type" : "ScreenVMFile",
                                  "src" : 1,
                                  "trackNumber" : 0,
                                  "attributes" : {
                                    "ident" : "Rec 01-10-21"
                                  },
                                  "parameters" : {
                                    "cursorScale" : {
                                      "type" : "double",
                                      "defaultValue" : 0.0,
                                      "interp" : "linr"
                                    },
                                    "cursorOpacity" : {
                                      "type" : "double",
                                      "defaultValue" : 0.0,
                                      "interp" : "linr"
                                    }
                                  },
                                  "effects" : [

                                  ],
                                  "start" : 15719,
                                  "duration" : 132,
                                  "mediaStart" : 15926,
                                  "mediaDuration" : 132,
                                  "scalar" : 1,
                                  "metadata" : {
                                    "AutoAppliedSmartFocus" : "False"
                                  },
                                  "animationTracks" : {

                                  }
                                },
                                {
                                  "id" : 1070,
                                  "_type" : "ScreenVMFile",
                                  "src" : 1,
                                  "trackNumber" : 0,
                                  "attributes" : {
                                    "ident" : "Rec 01-10-21"
                                  },
                                  "parameters" : {
                                    "cursorScale" : {
                                      "type" : "double",
                                      "defaultValue" : 0.0,
                                      "interp" : "linr"
                                    },
                                    "cursorOpacity" : {
                                      "type" : "double",
                                      "defaultValue" : 0.0,
                                      "interp" : "linr"
                                    }
                                  },
                                  "effects" : [

                                  ],
                                  "start" : 15851,
                                  "duration" : 60,
                                  "mediaStart" : 16118,
                                  "mediaDuration" : 60,
                                  "scalar" : 1,
                                  "metadata" : {
                                    "AutoAppliedSmartFocus" : "False"
                                  },
                                  "animationTracks" : {

                                  }
                                },
                                {
                                  "id" : 1071,
                                  "_type" : "ScreenVMFile",
                                  "src" : 1,
                                  "trackNumber" : 0,
                                  "attributes" : {
                                    "ident" : "Rec 01-10-21"
                                  },
                                  "parameters" : {
                                    "cursorScale" : {
                                      "type" : "double",
                                      "defaultValue" : 0.0,
                                      "interp" : "linr"
                                    },
                                    "cursorOpacity" : {
                                      "type" : "double",
                                      "defaultValue" : 0.0,
                                      "interp" : "linr"
                                    }
                                  },
                                  "effects" : [

                                  ],
                                  "start" : 15911,
                                  "duration" : 7,
                                  "mediaStart" : 16638,
                                  "mediaDuration" : 7,
                                  "scalar" : 1,
                                  "metadata" : {
                                    "AutoAppliedSmartFocus" : "False"
                                  },
                                  "animationTracks" : {

                                  }
                                },
                                {
                                  "id" : 1072,
                                  "_type" : "ScreenVMFile",
                                  "src" : 1,
                                  "trackNumber" : 0,
                                  "attributes" : {
                                    "ident" : "Rec 01-10-21"
                                  },
                                  "parameters" : {
                                    "cursorScale" : {
                                      "type" : "double",
                                      "defaultValue" : 0.0,
                                      "interp" : "linr"
                                    },
                                    "cursorOpacity" : {
                                      "type" : "double",
                                      "defaultValue" : 0.0,
                                      "interp" : "linr"
                                    }
                                  },
                                  "effects" : [

                                  ],
                                  "start" : 15918,
                                  "duration" : 90,
                                  "mediaStart" : 16843,
                                  "mediaDuration" : 90,
                                  "scalar" : 1,
                                  "metadata" : {
                                    "AutoAppliedSmartFocus" : "False"
                                  },
                                  "animationTracks" : {

                                  }
                                },
                                {
                                  "id" : 1073,
                                  "_type" : "ScreenVMFile",
                                  "src" : 1,
                                  "trackNumber" : 0,
                                  "attributes" : {
                                    "ident" : "Rec 01-10-21"
                                  },
                                  "parameters" : {
                                    "cursorScale" : {
                                      "type" : "double",
                                      "defaultValue" : 0.0,
                                      "interp" : "linr"
                                    },
                                    "cursorOpacity" : {
                                      "type" : "double",
                                      "defaultValue" : 0.0,
                                      "interp" : "linr"
                                    }
                                  },
                                  "effects" : [

                                  ],
                                  "start" : 16008,
                                  "duration" : 3,
                                  "mediaStart" : 16991,
                                  "mediaDuration" : 3,
                                  "scalar" : 1,
                                  "metadata" : {
                                    "AutoAppliedSmartFocus" : "False"
                                  },
                                  "animationTracks" : {

                                  }
                                },
                                {
                                  "id" : 1074,
                                  "_type" : "ScreenVMFile",
                                  "src" : 1,
                                  "trackNumber" : 0,
                                  "attributes" : {
                                    "ident" : "Rec 01-10-21"
                                  },
                                  "parameters" : {
                                    "cursorScale" : {
                                      "type" : "double",
                                      "defaultValue" : 0.0,
                                      "interp" : "linr"
                                    },
                                    "cursorOpacity" : {
                                      "type" : "double",
                                      "defaultValue" : 0.0,
                                      "interp" : "linr"
                                    }
                                  },
                                  "effects" : [

                                  ],
                                  "start" : 16011,
                                  "duration" : 864,
                                  "mediaStart" : 17051,
                                  "mediaDuration" : 864,
                                  "scalar" : 1,
                                  "metadata" : {
                                    "AutoAppliedSmartFocus" : "False"
                                  },
                                  "animationTracks" : {

                                  }
                                },
                                {
                                  "id" : 1075,
                                  "_type" : "ScreenVMFile",
                                  "src" : 1,
                                  "trackNumber" : 0,
                                  "attributes" : {
                                    "ident" : "Rec 01-10-21"
                                  },
                                  "parameters" : {
                                    "cursorScale" : {
                                      "type" : "double",
                                      "defaultValue" : 0.0,
                                      "interp" : "linr"
                                    },
                                    "cursorOpacity" : {
                                      "type" : "double",
                                      "defaultValue" : 0.0,
                                      "interp" : "linr"
                                    }
                                  },
                                  "effects" : [

                                  ],
                                  "start" : 16875,
                                  "duration" : 21,
                                  "mediaStart" : 17980,
                                  "mediaDuration" : 21,
                                  "scalar" : 1,
                                  "metadata" : {
                                    "AutoAppliedSmartFocus" : "False"
                                  },
                                  "animationTracks" : {

                                  }
                                },
                                {
                                  "id" : 1076,
                                  "_type" : "ScreenVMFile",
                                  "src" : 1,
                                  "trackNumber" : 0,
                                  "attributes" : {
                                    "ident" : "Rec 01-10-21"
                                  },
                                  "parameters" : {
                                    "cursorScale" : {
                                      "type" : "double",
                                      "defaultValue" : 0.0,
                                      "interp" : "linr"
                                    },
                                    "cursorOpacity" : {
                                      "type" : "double",
                                      "defaultValue" : 0.0,
                                      "interp" : "linr"
                                    }
                                  },
                                  "effects" : [

                                  ],
                                  "start" : 16896,
                                  "duration" : 83,
                                  "mediaStart" : 18105,
                                  "mediaDuration" : 83,
                                  "scalar" : 1,
                                  "metadata" : {
                                    "AutoAppliedSmartFocus" : "False"
                                  },
                                  "animationTracks" : {

                                  }
                                },
                                {
                                  "id" : 1077,
                                  "_type" : "ScreenVMFile",
                                  "src" : 1,
                                  "trackNumber" : 0,
                                  "attributes" : {
                                    "ident" : "Rec 01-10-21"
                                  },
                                  "parameters" : {
                                    "cursorScale" : {
                                      "type" : "double",
                                      "defaultValue" : 0.0,
                                      "interp" : "linr"
                                    },
                                    "cursorOpacity" : {
                                      "type" : "double",
                                      "defaultValue" : 0.0,
                                      "interp" : "linr"
                                    }
                                  },
                                  "effects" : [

                                  ],
                                  "start" : 16979,
                                  "duration" : 7354,
                                  "mediaStart" : 18393,
                                  "mediaDuration" : 7354,
                                  "scalar" : 1,
                                  "metadata" : {
                                    "AutoAppliedSmartFocus" : "False"
                                  },
                                  "animationTracks" : {

                                  }
                                }
                            ],
                            "effects" : [

                            ],
                            "start" : 0,
                            "duration" : 756,
                            "mediaStart" : 15881,
                            "mediaDuration" : 756,
                            "scalar" : 1,
                            "metadata" : {
                              "AutoAppliedSmartFocus" : "False",
                              "clipSpeedAttribute" : false
                            },
                            "animationTracks" : {

                            }
                          }
                        ],
                          "ident" : "",
                          "audioMuted" : false,
                          "videoHidden" : false,
                          "magnetic" : false,
                          "matte" : 0,
                          "metadata" : {
                            "IsLocked" : "False",
                            "WinTrackHeight" : "0"
                          }
                      },
                      {
                        "trackIndex" : 1,
                        "medias" : [
                          {
                            "id" : 1078,
                            "_type" : "AMFile",
                            "src" : 7,
                            "trackNumber" : 0,
                            "attributes" : {
                              "ident" : "Narration_3-1 Pod 6",
                              "gain" : 1.0,
                              "mixToMono" : false
                            },
                              "channelNumber" : "0,1",
                            "effects" : [

                            ],
                            "start" : 0,
                            "duration" : 399,
                            "mediaStart" : 0,
                            "mediaDuration" : 399,
                            "scalar" : 1,
                            "metadata" : {
                              "clipSpeedAttribute" : false
                            },
                            "animationTracks" : {

                            }
                          },
                          {
                            "id" : 1079,
                            "_type" : "AMFile",
                            "src" : 8,
                            "trackNumber" : 0,
                            "attributes" : {
                              "ident" : "Narration_3-1 Pod 7",
                              "gain" : 1.0,
                              "mixToMono" : false
                            },
                              "channelNumber" : "0,1",
                            "effects" : [

                            ],
                            "start" : 399,
                            "duration" : 357,
                            "mediaStart" : 0,
                            "mediaDuration" : 357,
                            "scalar" : 1,
                            "metadata" : {
                              "clipSpeedAttribute" : false
                            },
                            "animationTracks" : {

                            }
                          }
                        ],
                          "ident" : "",
                          "audioMuted" : false,
                          "videoHidden" : false,
                          "magnetic" : false,
                          "matte" : 0,
                          "metadata" : {
                            "IsLocked" : "False",
                            "WinTrackHeight" : "4.48620777499616e-312"
                          }
                      }
                    ],
                    "attributes" : {
                      "ident" : "Group 5",
                      "gain" : 1.0,
                      "mixToMono" : false
                    },
                    "effects" : [

                    ],
                    "start" : 9001,
                    "duration" : 756,
                    "mediaStart" : 0.0,
                    "mediaDuration" : 756.0,
                    "scalar" : 1,
                    "metadata" : {
                      "IsGroupExpanded" : "False"
                    },
                    "animationTracks" : {

                    }
                  },
                  {
                    "id" : 1080,
                    "_type" : "StitchedMedia",
                    "minMediaStart" : 0,
                    "attributes" : {
                      "ident" : "Rec 01-10-21",
                      "gain" : 1.0,
                      "mixToMono" : false
                    },
                    "parameters" : {
                      "volume" : 1.0,
                      "cursorOpacity" : {
                        "type" : "double",
                        "defaultValue" : 1.0,
                        "interp" : "linr"
                      },
                      "cursorScale" : {
                        "type" : "double",
                        "defaultValue" : 1.0,
                        "interp" : "linr"
                      }
                    },
                    "medias" : [
                        {
                          "id" : 1081,
                          "_type" : "UnifiedMedia",
                          "video" : 
                              {
                                "id" : 1082,
                                "_type" : "ScreenVMFile",
                                "src" : 1,
                                "trackNumber" : 0,
                                "attributes" : {
                                  "ident" : "Rec 01-10-21"
                                },
                                "parameters" : {
                                  "cursorScale" : {
                                    "type" : "double",
                                    "defaultValue" : 0.0,
                                    "interp" : "linr"
                                  },
                                  "cursorOpacity" : {
                                    "type" : "double",
                                    "defaultValue" : 0.0,
                                    "interp" : "linr"
                                  }
                                },
                                "effects" : [

                                ],
                                "start" : 0,
                                "duration" : 15255,
                                "mediaStart" : 0,
                                "mediaDuration" : 15255,
                                "scalar" : 1,
                                "animationTracks" : {

                                }
                              },
                          "audio" : 
                              {
                                "id" : 1083,
                                "_type" : "AMFile",
                                "src" : 1,
                                "trackNumber" : 1,
                                "attributes" : {
                                  "ident" : "",
                                  "gain" : 1.0,
                                  "mixToMono" : false
                                },
                                  "channelNumber" : "0,1",
                                "effects" : [

                                ],
                                "start" : 0,
                                "duration" : 15255,
                                "mediaStart" : 0,
                                "mediaDuration" : 15255,
                                "scalar" : 1,
                                "animationTracks" : {

                                }
                              }
,
                          "start" : 0,
                          "duration" : 15255,
                          "mediaStart" : 0,
                          "mediaDuration" : 25747,
                          "scalar" : 1,
                          "metadata" : {
                            "AutoAppliedSmartFocus" : "False",
                            "clipSpeedAttribute" : false
                          }
                        },
                        {
                          "id" : 1084,
                          "_type" : "UnifiedMedia",
                          "video" : 
                              {
                                "id" : 1085,
                                "_type" : "ScreenVMFile",
                                "src" : 1,
                                "trackNumber" : 0,
                                "attributes" : {
                                  "ident" : "Rec 01-10-21"
                                },
                                "parameters" : {
                                  "cursorScale" : {
                                    "type" : "double",
                                    "defaultValue" : 0.0,
                                    "interp" : "linr"
                                  },
                                  "cursorOpacity" : {
                                    "type" : "double",
                                    "defaultValue" : 0.0,
                                    "interp" : "linr"
                                  }
                                },
                                "effects" : [

                                ],
                                "start" : 15255,
                                "duration" : 36,
                                "mediaStart" : 15274,
                                "mediaDuration" : 36,
                                "scalar" : 1,
                                "animationTracks" : {

                                }
                              },
                          "audio" : 
                              {
                                "id" : 1086,
                                "_type" : "AMFile",
                                "src" : 1,
                                "trackNumber" : 1,
                                "attributes" : {
                                  "ident" : "",
                                  "gain" : 1.0,
                                  "mixToMono" : false
                                },
                                  "channelNumber" : "0,1",
                                "effects" : [

                                ],
                                "start" : 15255,
                                "duration" : 36,
                                "mediaStart" : 15274,
                                "mediaDuration" : 36,
                                "scalar" : 1,
                                "animationTracks" : {

                                }
                              }
,
                          "start" : 15255,
                          "duration" : 36,
                          "mediaStart" : 0,
                          "mediaDuration" : 25747,
                          "scalar" : 1,
                          "metadata" : {
                            "AutoAppliedSmartFocus" : "False",
                            "clipSpeedAttribute" : false
                          }
                        },
                        {
                          "id" : 1087,
                          "_type" : "UnifiedMedia",
                          "video" : 
                              {
                                "id" : 1088,
                                "_type" : "ScreenVMFile",
                                "src" : 1,
                                "trackNumber" : 0,
                                "attributes" : {
                                  "ident" : "Rec 01-10-21"
                                },
                                "parameters" : {
                                  "cursorScale" : {
                                    "type" : "double",
                                    "defaultValue" : 0.0,
                                    "interp" : "linr"
                                  },
                                  "cursorOpacity" : {
                                    "type" : "double",
                                    "defaultValue" : 0.0,
                                    "interp" : "linr"
                                  }
                                },
                                "effects" : [

                                ],
                                "start" : 15291,
                                "duration" : 207,
                                "mediaStart" : 15343,
                                "mediaDuration" : 207,
                                "scalar" : 1,
                                "animationTracks" : {

                                }
                              },
                          "audio" : 
                              {
                                "id" : 1089,
                                "_type" : "AMFile",
                                "src" : 1,
                                "trackNumber" : 1,
                                "attributes" : {
                                  "ident" : "",
                                  "gain" : 1.0,
                                  "mixToMono" : false
                                },
                                  "channelNumber" : "0,1",
                                "effects" : [

                                ],
                                "start" : 15291,
                                "duration" : 207,
                                "mediaStart" : 15343,
                                "mediaDuration" : 207,
                                "scalar" : 1,
                                "animationTracks" : {

                                }
                              }
,
                          "start" : 15291,
                          "duration" : 207,
                          "mediaStart" : 0,
                          "mediaDuration" : 25747,
                          "scalar" : 1,
                          "metadata" : {
                            "AutoAppliedSmartFocus" : "False",
                            "clipSpeedAttribute" : false
                          }
                        },
                        {
                          "id" : 1090,
                          "_type" : "UnifiedMedia",
                          "video" : 
                              {
                                "id" : 1091,
                                "_type" : "ScreenVMFile",
                                "src" : 1,
                                "trackNumber" : 0,
                                "attributes" : {
                                  "ident" : "Rec 01-10-21"
                                },
                                "parameters" : {
                                  "cursorScale" : {
                                    "type" : "double",
                                    "defaultValue" : 0.0,
                                    "interp" : "linr"
                                  },
                                  "cursorOpacity" : {
                                    "type" : "double",
                                    "defaultValue" : 0.0,
                                    "interp" : "linr"
                                  }
                                },
                                "effects" : [

                                ],
                                "start" : 15498,
                                "duration" : 136,
                                "mediaStart" : 15590,
                                "mediaDuration" : 136,
                                "scalar" : 1,
                                "animationTracks" : {

                                }
                              },
                          "audio" : 
                              {
                                "id" : 1092,
                                "_type" : "AMFile",
                                "src" : 1,
                                "trackNumber" : 1,
                                "attributes" : {
                                  "ident" : "",
                                  "gain" : 1.0,
                                  "mixToMono" : false
                                },
                                  "channelNumber" : "0,1",
                                "effects" : [

                                ],
                                "start" : 15498,
                                "duration" : 136,
                                "mediaStart" : 15590,
                                "mediaDuration" : 136,
                                "scalar" : 1,
                                "animationTracks" : {

                                }
                              }
,
                          "start" : 15498,
                          "duration" : 136,
                          "mediaStart" : 0,
                          "mediaDuration" : 25747,
                          "scalar" : 1,
                          "metadata" : {
                            "AutoAppliedSmartFocus" : "False",
                            "clipSpeedAttribute" : false
                          }
                        },
                        {
                          "id" : 1093,
                          "_type" : "UnifiedMedia",
                          "video" : 
                              {
                                "id" : 1094,
                                "_type" : "ScreenVMFile",
                                "src" : 1,
                                "trackNumber" : 0,
                                "attributes" : {
                                  "ident" : "Rec 01-10-21"
                                },
                                "parameters" : {
                                  "cursorScale" : {
                                    "type" : "double",
                                    "defaultValue" : 0.0,
                                    "interp" : "linr"
                                  },
                                  "cursorOpacity" : {
                                    "type" : "double",
                                    "defaultValue" : 0.0,
                                    "interp" : "linr"
                                  }
                                },
                                "effects" : [

                                ],
                                "start" : 15634,
                                "duration" : 85,
                                "mediaStart" : 15788,
                                "mediaDuration" : 85,
                                "scalar" : 1,
                                "animationTracks" : {

                                }
                              },
                          "audio" : 
                              {
                                "id" : 1095,
                                "_type" : "AMFile",
                                "src" : 1,
                                "trackNumber" : 1,
                                "attributes" : {
                                  "ident" : "",
                                  "gain" : 1.0,
                                  "mixToMono" : false
                                },
                                  "channelNumber" : "0,1",
                                "effects" : [

                                ],
                                "start" : 15634,
                                "duration" : 85,
                                "mediaStart" : 15788,
                                "mediaDuration" : 85,
                                "scalar" : 1,
                                "animationTracks" : {

                                }
                              }
,
                          "start" : 15634,
                          "duration" : 85,
                          "mediaStart" : 0,
                          "mediaDuration" : 25747,
                          "scalar" : 1,
                          "metadata" : {
                            "AutoAppliedSmartFocus" : "False",
                            "clipSpeedAttribute" : false
                          }
                        },
                        {
                          "id" : 1096,
                          "_type" : "UnifiedMedia",
                          "video" : 
                              {
                                "id" : 1097,
                                "_type" : "ScreenVMFile",
                                "src" : 1,
                                "trackNumber" : 0,
                                "attributes" : {
                                  "ident" : "Rec 01-10-21"
                                },
                                "parameters" : {
                                  "cursorScale" : {
                                    "type" : "double",
                                    "defaultValue" : 0.0,
                                    "interp" : "linr"
                                  },
                                  "cursorOpacity" : {
                                    "type" : "double",
                                    "defaultValue" : 0.0,
                                    "interp" : "linr"
                                  }
                                },
                                "effects" : [

                                ],
                                "start" : 15719,
                                "duration" : 132,
                                "mediaStart" : 15926,
                                "mediaDuration" : 132,
                                "scalar" : 1,
                                "animationTracks" : {

                                }
                              },
                          "audio" : 
                              {
                                "id" : 1098,
                                "_type" : "AMFile",
                                "src" : 1,
                                "trackNumber" : 1,
                                "attributes" : {
                                  "ident" : "",
                                  "gain" : 1.0,
                                  "mixToMono" : false
                                },
                                  "channelNumber" : "0,1",
                                "effects" : [

                                ],
                                "start" : 15719,
                                "duration" : 132,
                                "mediaStart" : 15926,
                                "mediaDuration" : 132,
                                "scalar" : 1,
                                "animationTracks" : {

                                }
                              }
,
                          "start" : 15719,
                          "duration" : 132,
                          "mediaStart" : 0,
                          "mediaDuration" : 25747,
                          "scalar" : 1,
                          "metadata" : {
                            "AutoAppliedSmartFocus" : "False",
                            "clipSpeedAttribute" : false
                          }
                        },
                        {
                          "id" : 1099,
                          "_type" : "UnifiedMedia",
                          "video" : 
                              {
                                "id" : 1100,
                                "_type" : "ScreenVMFile",
                                "src" : 1,
                                "trackNumber" : 0,
                                "attributes" : {
                                  "ident" : "Rec 01-10-21"
                                },
                                "parameters" : {
                                  "cursorScale" : {
                                    "type" : "double",
                                    "defaultValue" : 0.0,
                                    "interp" : "linr"
                                  },
                                  "cursorOpacity" : {
                                    "type" : "double",
                                    "defaultValue" : 0.0,
                                    "interp" : "linr"
                                  }
                                },
                                "effects" : [

                                ],
                                "start" : 15851,
                                "duration" : 60,
                                "mediaStart" : 16118,
                                "mediaDuration" : 60,
                                "scalar" : 1,
                                "animationTracks" : {

                                }
                              },
                          "audio" : 
                              {
                                "id" : 1101,
                                "_type" : "AMFile",
                                "src" : 1,
                                "trackNumber" : 1,
                                "attributes" : {
                                  "ident" : "",
                                  "gain" : 1.0,
                                  "mixToMono" : false
                                },
                                  "channelNumber" : "0,1",
                                "effects" : [

                                ],
                                "start" : 15851,
                                "duration" : 60,
                                "mediaStart" : 16118,
                                "mediaDuration" : 60,
                                "scalar" : 1,
                                "animationTracks" : {

                                }
                              }
,
                          "start" : 15851,
                          "duration" : 60,
                          "mediaStart" : 0,
                          "mediaDuration" : 25747,
                          "scalar" : 1,
                          "metadata" : {
                            "AutoAppliedSmartFocus" : "False",
                            "clipSpeedAttribute" : false
                          }
                        },
                        {
                          "id" : 1102,
                          "_type" : "UnifiedMedia",
                          "video" : 
                              {
                                "id" : 1103,
                                "_type" : "ScreenVMFile",
                                "src" : 1,
                                "trackNumber" : 0,
                                "attributes" : {
                                  "ident" : "Rec 01-10-21"
                                },
                                "parameters" : {
                                  "cursorScale" : {
                                    "type" : "double",
                                    "defaultValue" : 0.0,
                                    "interp" : "linr"
                                  },
                                  "cursorOpacity" : {
                                    "type" : "double",
                                    "defaultValue" : 0.0,
                                    "interp" : "linr"
                                  }
                                },
                                "effects" : [

                                ],
                                "start" : 15911,
                                "duration" : 7,
                                "mediaStart" : 16638,
                                "mediaDuration" : 7,
                                "scalar" : 1,
                                "animationTracks" : {

                                }
                              },
                          "audio" : 
                              {
                                "id" : 1104,
                                "_type" : "AMFile",
                                "src" : 1,
                                "trackNumber" : 1,
                                "attributes" : {
                                  "ident" : "",
                                  "gain" : 1.0,
                                  "mixToMono" : false
                                },
                                  "channelNumber" : "0,1",
                                "effects" : [

                                ],
                                "start" : 15911,
                                "duration" : 7,
                                "mediaStart" : 16638,
                                "mediaDuration" : 7,
                                "scalar" : 1,
                                "animationTracks" : {

                                }
                              }
,
                          "start" : 15911,
                          "duration" : 7,
                          "mediaStart" : 0,
                          "mediaDuration" : 25747,
                          "scalar" : 1,
                          "metadata" : {
                            "AutoAppliedSmartFocus" : "False",
                            "clipSpeedAttribute" : false
                          }
                        },
                        {
                          "id" : 1105,
                          "_type" : "UnifiedMedia",
                          "video" : 
                              {
                                "id" : 1106,
                                "_type" : "ScreenVMFile",
                                "src" : 1,
                                "trackNumber" : 0,
                                "attributes" : {
                                  "ident" : "Rec 01-10-21"
                                },
                                "parameters" : {
                                  "cursorScale" : {
                                    "type" : "double",
                                    "defaultValue" : 0.0,
                                    "interp" : "linr"
                                  },
                                  "cursorOpacity" : {
                                    "type" : "double",
                                    "defaultValue" : 0.0,
                                    "interp" : "linr"
                                  }
                                },
                                "effects" : [

                                ],
                                "start" : 15918,
                                "duration" : 90,
                                "mediaStart" : 16843,
                                "mediaDuration" : 90,
                                "scalar" : 1,
                                "animationTracks" : {

                                }
                              },
                          "audio" : 
                              {
                                "id" : 1107,
                                "_type" : "AMFile",
                                "src" : 1,
                                "trackNumber" : 1,
                                "attributes" : {
                                  "ident" : "",
                                  "gain" : 1.0,
                                  "mixToMono" : false
                                },
                                  "channelNumber" : "0,1",
                                "effects" : [

                                ],
                                "start" : 15918,
                                "duration" : 90,
                                "mediaStart" : 16843,
                                "mediaDuration" : 90,
                                "scalar" : 1,
                                "animationTracks" : {

                                }
                              }
,
                          "start" : 15918,
                          "duration" : 90,
                          "mediaStart" : 0,
                          "mediaDuration" : 25747,
                          "scalar" : 1,
                          "metadata" : {
                            "AutoAppliedSmartFocus" : "False",
                            "clipSpeedAttribute" : false
                          }
                        },
                        {
                          "id" : 1108,
                          "_type" : "UnifiedMedia",
                          "video" : 
                              {
                                "id" : 1109,
                                "_type" : "ScreenVMFile",
                                "src" : 1,
                                "trackNumber" : 0,
                                "attributes" : {
                                  "ident" : "Rec 01-10-21"
                                },
                                "parameters" : {
                                  "cursorScale" : {
                                    "type" : "double",
                                    "defaultValue" : 0.0,
                                    "interp" : "linr"
                                  },
                                  "cursorOpacity" : {
                                    "type" : "double",
                                    "defaultValue" : 0.0,
                                    "interp" : "linr"
                                  }
                                },
                                "effects" : [

                                ],
                                "start" : 16008,
                                "duration" : 3,
                                "mediaStart" : 16991,
                                "mediaDuration" : 3,
                                "scalar" : 1,
                                "animationTracks" : {

                                }
                              },
                          "audio" : 
                              {
                                "id" : 1110,
                                "_type" : "AMFile",
                                "src" : 1,
                                "trackNumber" : 1,
                                "attributes" : {
                                  "ident" : "",
                                  "gain" : 1.0,
                                  "mixToMono" : false
                                },
                                  "channelNumber" : "0,1",
                                "effects" : [

                                ],
                                "start" : 16008,
                                "duration" : 3,
                                "mediaStart" : 16991,
                                "mediaDuration" : 3,
                                "scalar" : 1,
                                "animationTracks" : {

                                }
                              }
,
                          "start" : 16008,
                          "duration" : 3,
                          "mediaStart" : 0,
                          "mediaDuration" : 25747,
                          "scalar" : 1,
                          "metadata" : {
                            "AutoAppliedSmartFocus" : "False",
                            "clipSpeedAttribute" : false
                          }
                        },
                        {
                          "id" : 1111,
                          "_type" : "UnifiedMedia",
                          "video" : 
                              {
                                "id" : 1112,
                                "_type" : "ScreenVMFile",
                                "src" : 1,
                                "trackNumber" : 0,
                                "attributes" : {
                                  "ident" : "Rec 01-10-21"
                                },
                                "parameters" : {
                                  "cursorScale" : {
                                    "type" : "double",
                                    "defaultValue" : 0.0,
                                    "interp" : "linr"
                                  },
                                  "cursorOpacity" : {
                                    "type" : "double",
                                    "defaultValue" : 0.0,
                                    "interp" : "linr"
                                  }
                                },
                                "effects" : [

                                ],
                                "start" : 16011,
                                "duration" : 864,
                                "mediaStart" : 17051,
                                "mediaDuration" : 864,
                                "scalar" : 1,
                                "animationTracks" : {

                                }
                              },
                          "audio" : 
                              {
                                "id" : 1113,
                                "_type" : "AMFile",
                                "src" : 1,
                                "trackNumber" : 1,
                                "attributes" : {
                                  "ident" : "",
                                  "gain" : 1.0,
                                  "mixToMono" : false
                                },
                                  "channelNumber" : "0,1",
                                "effects" : [

                                ],
                                "start" : 16011,
                                "duration" : 864,
                                "mediaStart" : 17051,
                                "mediaDuration" : 864,
                                "scalar" : 1,
                                "animationTracks" : {

                                }
                              }
,
                          "start" : 16011,
                          "duration" : 864,
                          "mediaStart" : 0,
                          "mediaDuration" : 25747,
                          "scalar" : 1,
                          "metadata" : {
                            "AutoAppliedSmartFocus" : "False",
                            "clipSpeedAttribute" : false
                          }
                        },
                        {
                          "id" : 1114,
                          "_type" : "UnifiedMedia",
                          "video" : 
                              {
                                "id" : 1115,
                                "_type" : "ScreenVMFile",
                                "src" : 1,
                                "trackNumber" : 0,
                                "attributes" : {
                                  "ident" : "Rec 01-10-21"
                                },
                                "parameters" : {
                                  "cursorScale" : {
                                    "type" : "double",
                                    "defaultValue" : 0.0,
                                    "interp" : "linr"
                                  },
                                  "cursorOpacity" : {
                                    "type" : "double",
                                    "defaultValue" : 0.0,
                                    "interp" : "linr"
                                  }
                                },
                                "effects" : [

                                ],
                                "start" : 16875,
                                "duration" : 21,
                                "mediaStart" : 17980,
                                "mediaDuration" : 21,
                                "scalar" : 1,
                                "animationTracks" : {

                                }
                              },
                          "audio" : 
                              {
                                "id" : 1116,
                                "_type" : "AMFile",
                                "src" : 1,
                                "trackNumber" : 1,
                                "attributes" : {
                                  "ident" : "",
                                  "gain" : 1.0,
                                  "mixToMono" : false
                                },
                                  "channelNumber" : "0,1",
                                "effects" : [

                                ],
                                "start" : 16875,
                                "duration" : 21,
                                "mediaStart" : 17980,
                                "mediaDuration" : 21,
                                "scalar" : 1,
                                "animationTracks" : {

                                }
                              }
,
                          "start" : 16875,
                          "duration" : 21,
                          "mediaStart" : 0,
                          "mediaDuration" : 25747,
                          "scalar" : 1,
                          "metadata" : {
                            "AutoAppliedSmartFocus" : "False",
                            "clipSpeedAttribute" : false
                          }
                        },
                        {
                          "id" : 1117,
                          "_type" : "UnifiedMedia",
                          "video" : 
                              {
                                "id" : 1118,
                                "_type" : "ScreenVMFile",
                                "src" : 1,
                                "trackNumber" : 0,
                                "attributes" : {
                                  "ident" : "Rec 01-10-21"
                                },
                                "parameters" : {
                                  "cursorScale" : {
                                    "type" : "double",
                                    "defaultValue" : 0.0,
                                    "interp" : "linr"
                                  },
                                  "cursorOpacity" : {
                                    "type" : "double",
                                    "defaultValue" : 0.0,
                                    "interp" : "linr"
                                  }
                                },
                                "effects" : [

                                ],
                                "start" : 16896,
                                "duration" : 83,
                                "mediaStart" : 18105,
                                "mediaDuration" : 83,
                                "scalar" : 1,
                                "animationTracks" : {

                                }
                              },
                          "audio" : 
                              {
                                "id" : 1119,
                                "_type" : "AMFile",
                                "src" : 1,
                                "trackNumber" : 1,
                                "attributes" : {
                                  "ident" : "",
                                  "gain" : 1.0,
                                  "mixToMono" : false
                                },
                                  "channelNumber" : "0,1",
                                "effects" : [

                                ],
                                "start" : 16896,
                                "duration" : 83,
                                "mediaStart" : 18105,
                                "mediaDuration" : 83,
                                "scalar" : 1,
                                "animationTracks" : {

                                }
                              }
,
                          "start" : 16896,
                          "duration" : 83,
                          "mediaStart" : 0,
                          "mediaDuration" : 25747,
                          "scalar" : 1,
                          "metadata" : {
                            "AutoAppliedSmartFocus" : "False",
                            "clipSpeedAttribute" : false
                          }
                        },
                        {
                          "id" : 1120,
                          "_type" : "UnifiedMedia",
                          "video" : 
                              {
                                "id" : 1121,
                                "_type" : "ScreenVMFile",
                                "src" : 1,
                                "trackNumber" : 0,
                                "attributes" : {
                                  "ident" : "Rec 01-10-21"
                                },
                                "parameters" : {
                                  "cursorScale" : {
                                    "type" : "double",
                                    "defaultValue" : 0.0,
                                    "interp" : "linr"
                                  },
                                  "cursorOpacity" : {
                                    "type" : "double",
                                    "defaultValue" : 0.0,
                                    "interp" : "linr"
                                  }
                                },
                                "effects" : [

                                ],
                                "start" : 16979,
                                "duration" : 7354,
                                "mediaStart" : 18393,
                                "mediaDuration" : 7354,
                                "scalar" : 1,
                                "animationTracks" : {

                                }
                              },
                          "audio" : 
                              {
                                "id" : 1122,
                                "_type" : "AMFile",
                                "src" : 1,
                                "trackNumber" : 1,
                                "attributes" : {
                                  "ident" : "",
                                  "gain" : 1.0,
                                  "mixToMono" : false
                                },
                                  "channelNumber" : "0,1",
                                "effects" : [

                                ],
                                "start" : 16979,
                                "duration" : 7354,
                                "mediaStart" : 18393,
                                "mediaDuration" : 7354,
                                "scalar" : 1,
                                "animationTracks" : {

                                }
                              }
,
                          "start" : 16979,
                          "duration" : 7354,
                          "mediaStart" : 0,
                          "mediaDuration" : 25747,
                          "scalar" : 1,
                          "metadata" : {
                            "AutoAppliedSmartFocus" : "False",
                            "clipSpeedAttribute" : false
                          }
                        }
                    ],
                    "effects" : [

                    ],
                    "start" : 9757,
                    "duration" : 182,
                    "mediaStart" : 16793,
                    "mediaDuration" : 182,
                    "scalar" : 1,
                    "metadata" : {
                      "AutoAppliedSmartFocus" : "False",
                      "clipSpeedAttribute" : false
                    },
                    "animationTracks" : {

                    }
                  },
                  {
                    "id" : 1123,
                    "_type" : "Group",
                    "parameters" : {
                      "volume" : 1.0
                    },
                    "tracks" : [
                      {
                        "trackIndex" : 0,
                        "medias" : [
                          {
                            "id" : 1124,
                            "_type" : "StitchedMedia",
                            "minMediaStart" : 0,
                            "attributes" : {
                              "ident" : "Rec 01-10-21",
                              "gain" : 1.0,
                              "mixToMono" : false
                            },
                            "parameters" : {
                              "cursorOpacity" : 1.0,
                              "cursorScale" : 1.0
                            },
                            "medias" : [
                                {
                                  "id" : 1125,
                                  "_type" : "ScreenVMFile",
                                  "src" : 1,
                                  "trackNumber" : 0,
                                  "attributes" : {
                                    "ident" : "Rec 01-10-21"
                                  },
                                  "parameters" : {
                                    "cursorScale" : {
                                      "type" : "double",
                                      "defaultValue" : 0.0,
                                      "interp" : "linr"
                                    },
                                    "cursorOpacity" : {
                                      "type" : "double",
                                      "defaultValue" : 0.0,
                                      "interp" : "linr"
                                    }
                                  },
                                  "effects" : [

                                  ],
                                  "start" : 0,
                                  "duration" : 5487,
                                  "mediaStart" : 0,
                                  "mediaDuration" : 5487,
                                  "scalar" : 1,
                                  "metadata" : {
                                    "AutoAppliedSmartFocus" : "False"
                                  },
                                  "animationTracks" : {

                                  }
                                },
                                {
                                  "id" : 1126,
                                  "_type" : "ScreenVMFile",
                                  "src" : 1,
                                  "trackNumber" : 0,
                                  "attributes" : {
                                    "ident" : "Rec 01-10-21"
                                  },
                                  "parameters" : {
                                    "cursorScale" : {
                                      "type" : "double",
                                      "defaultValue" : 0.0,
                                      "interp" : "linr"
                                    },
                                    "cursorOpacity" : {
                                      "type" : "double",
                                      "defaultValue" : 0.0,
                                      "interp" : "linr"
                                    }
                                  },
                                  "effects" : [

                                  ],
                                  "start" : 5487,
                                  "duration" : 166,
                                  "mediaStart" : 5498,
                                  "mediaDuration" : 166,
                                  "scalar" : 1,
                                  "metadata" : {
                                    "AutoAppliedSmartFocus" : "False"
                                  },
                                  "animationTracks" : {

                                  }
                                },
                                {
                                  "id" : 1127,
                                  "_type" : "ScreenVMFile",
                                  "src" : 1,
                                  "trackNumber" : 0,
                                  "attributes" : {
                                    "ident" : "Rec 01-10-21"
                                  },
                                  "parameters" : {
                                    "cursorScale" : {
                                      "type" : "double",
                                      "defaultValue" : 0.0,
                                      "interp" : "linr"
                                    },
                                    "cursorOpacity" : {
                                      "type" : "double",
                                      "defaultValue" : 0.0,
                                      "interp" : "linr"
                                    }
                                  },
                                  "effects" : [

                                  ],
                                  "start" : 5653,
                                  "duration" : 739,
                                  "mediaStart" : 5708,
                                  "mediaDuration" : 739,
                                  "scalar" : 1,
                                  "metadata" : {
                                    "AutoAppliedSmartFocus" : "False"
                                  },
                                  "animationTracks" : {

                                  }
                                },
                                {
                                  "id" : 1128,
                                  "_type" : "ScreenVMFile",
                                  "src" : 1,
                                  "trackNumber" : 0,
                                  "attributes" : {
                                    "ident" : "Rec 01-10-21"
                                  },
                                  "parameters" : {
                                    "cursorScale" : {
                                      "type" : "double",
                                      "defaultValue" : 0.0,
                                      "interp" : "linr"
                                    },
                                    "cursorOpacity" : {
                                      "type" : "double",
                                      "defaultValue" : 0.0,
                                      "interp" : "linr"
                                    }
                                  },
                                  "effects" : [

                                  ],
                                  "start" : 6392,
                                  "duration" : 6,
                                  "mediaStart" : 6482,
                                  "mediaDuration" : 6,
                                  "scalar" : 1,
                                  "metadata" : {
                                    "AutoAppliedSmartFocus" : "False"
                                  },
                                  "animationTracks" : {

                                  }
                                },
                                {
                                  "id" : 1129,
                                  "_type" : "ScreenVMFile",
                                  "src" : 1,
                                  "trackNumber" : 0,
                                  "attributes" : {
                                    "ident" : "Rec 01-10-21"
                                  },
                                  "parameters" : {
                                    "cursorScale" : {
                                      "type" : "double",
                                      "defaultValue" : 0.0,
                                      "interp" : "linr"
                                    },
                                    "cursorOpacity" : {
                                      "type" : "double",
                                      "defaultValue" : 0.0,
                                      "interp" : "linr"
                                    }
                                  },
                                  "effects" : [

                                  ],
                                  "start" : 6398,
                                  "duration" : 340,
                                  "mediaStart" : 6558,
                                  "mediaDuration" : 340,
                                  "scalar" : 1,
                                  "metadata" : {
                                    "AutoAppliedSmartFocus" : "False"
                                  },
                                  "animationTracks" : {

                                  }
                                },
                                {
                                  "id" : 1130,
                                  "_type" : "ScreenVMFile",
                                  "src" : 1,
                                  "trackNumber" : 0,
                                  "attributes" : {
                                    "ident" : "Rec 01-10-21"
                                  },
                                  "parameters" : {
                                    "cursorScale" : {
                                      "type" : "double",
                                      "defaultValue" : 0.0,
                                      "interp" : "linr"
                                    },
                                    "cursorOpacity" : {
                                      "type" : "double",
                                      "defaultValue" : 0.0,
                                      "interp" : "linr"
                                    }
                                  },
                                  "effects" : [

                                  ],
                                  "start" : 6738,
                                  "duration" : 125,
                                  "mediaStart" : 6983,
                                  "mediaDuration" : 125,
                                  "scalar" : 1,
                                  "metadata" : {
                                    "AutoAppliedSmartFocus" : "False"
                                  },
                                  "animationTracks" : {

                                  }
                                },
                                {
                                  "id" : 1131,
                                  "_type" : "ScreenVMFile",
                                  "src" : 1,
                                  "trackNumber" : 0,
                                  "attributes" : {
                                    "ident" : "Rec 01-10-21"
                                  },
                                  "parameters" : {
                                    "cursorScale" : {
                                      "type" : "double",
                                      "defaultValue" : 0.0,
                                      "interp" : "linr"
                                    },
                                    "cursorOpacity" : {
                                      "type" : "double",
                                      "defaultValue" : 0.0,
                                      "interp" : "linr"
                                    }
                                  },
                                  "effects" : [

                                  ],
                                  "start" : 6863,
                                  "duration" : 297,
                                  "mediaStart" : 7316,
                                  "mediaDuration" : 297,
                                  "scalar" : 1,
                                  "metadata" : {
                                    "AutoAppliedSmartFocus" : "False"
                                  },
                                  "animationTracks" : {

                                  }
                                },
                                {
                                  "id" : 1132,
                                  "_type" : "ScreenVMFile",
                                  "src" : 1,
                                  "trackNumber" : 0,
                                  "attributes" : {
                                    "ident" : "Rec 01-10-21"
                                  },
                                  "parameters" : {
                                    "cursorScale" : {
                                      "type" : "double",
                                      "defaultValue" : 0.0,
                                      "interp" : "linr"
                                    },
                                    "cursorOpacity" : {
                                      "type" : "double",
                                      "defaultValue" : 0.0,
                                      "interp" : "linr"
                                    }
                                  },
                                  "effects" : [

                                  ],
                                  "start" : 7160,
                                  "duration" : 60,
                                  "mediaStart" : 7641,
                                  "mediaDuration" : 60,
                                  "scalar" : 1,
                                  "metadata" : {
                                    "AutoAppliedSmartFocus" : "False"
                                  },
                                  "animationTracks" : {

                                  }
                                },
                                {
                                  "id" : 1133,
                                  "_type" : "ScreenVMFile",
                                  "src" : 1,
                                  "trackNumber" : 0,
                                  "attributes" : {
                                    "ident" : "Rec 01-10-21"
                                  },
                                  "parameters" : {
                                    "cursorScale" : {
                                      "type" : "double",
                                      "defaultValue" : 0.0,
                                      "interp" : "linr"
                                    },
                                    "cursorOpacity" : {
                                      "type" : "double",
                                      "defaultValue" : 0.0,
                                      "interp" : "linr"
                                    }
                                  },
                                  "effects" : [

                                  ],
                                  "start" : 7220,
                                  "duration" : 36,
                                  "mediaStart" : 7726,
                                  "mediaDuration" : 36,
                                  "scalar" : 1,
                                  "metadata" : {
                                    "AutoAppliedSmartFocus" : "False"
                                  },
                                  "animationTracks" : {

                                  }
                                },
                                {
                                  "id" : 1134,
                                  "_type" : "ScreenVMFile",
                                  "src" : 1,
                                  "trackNumber" : 0,
                                  "attributes" : {
                                    "ident" : "Rec 01-10-21"
                                  },
                                  "parameters" : {
                                    "cursorScale" : {
                                      "type" : "double",
                                      "defaultValue" : 0.0,
                                      "interp" : "linr"
                                    },
                                    "cursorOpacity" : {
                                      "type" : "double",
                                      "defaultValue" : 0.0,
                                      "interp" : "linr"
                                    }
                                  },
                                  "effects" : [

                                  ],
                                  "start" : 7256,
                                  "duration" : 229,
                                  "mediaStart" : 8018,
                                  "mediaDuration" : 229,
                                  "scalar" : 1,
                                  "metadata" : {
                                    "AutoAppliedSmartFocus" : "False"
                                  },
                                  "animationTracks" : {

                                  }
                                },
                                {
                                  "id" : 1135,
                                  "_type" : "ScreenVMFile",
                                  "src" : 1,
                                  "trackNumber" : 0,
                                  "attributes" : {
                                    "ident" : "Rec 01-10-21"
                                  },
                                  "parameters" : {
                                    "cursorScale" : {
                                      "type" : "double",
                                      "defaultValue" : 0.0,
                                      "interp" : "linr"
                                    },
                                    "cursorOpacity" : {
                                      "type" : "double",
                                      "defaultValue" : 0.0,
                                      "interp" : "linr"
                                    }
                                  },
                                  "effects" : [

                                  ],
                                  "start" : 7485,
                                  "duration" : 115,
                                  "mediaStart" : 8289,
                                  "mediaDuration" : 115,
                                  "scalar" : 1,
                                  "metadata" : {
                                    "AutoAppliedSmartFocus" : "False"
                                  },
                                  "animationTracks" : {

                                  }
                                },
                                {
                                  "id" : 1136,
                                  "_type" : "ScreenVMFile",
                                  "src" : 1,
                                  "trackNumber" : 0,
                                  "attributes" : {
                                    "ident" : "Rec 01-10-21"
                                  },
                                  "parameters" : {
                                    "cursorScale" : {
                                      "type" : "double",
                                      "defaultValue" : 0.0,
                                      "interp" : "linr"
                                    },
                                    "cursorOpacity" : {
                                      "type" : "double",
                                      "defaultValue" : 0.0,
                                      "interp" : "linr"
                                    }
                                  },
                                  "effects" : [

                                  ],
                                  "start" : 7600,
                                  "duration" : 58,
                                  "mediaStart" : 8711,
                                  "mediaDuration" : 58,
                                  "scalar" : 1,
                                  "metadata" : {
                                    "AutoAppliedSmartFocus" : "False"
                                  },
                                  "animationTracks" : {

                                  }
                                },
                                {
                                  "id" : 1137,
                                  "_type" : "ScreenVMFile",
                                  "src" : 1,
                                  "trackNumber" : 0,
                                  "attributes" : {
                                    "ident" : "Rec 01-10-21"
                                  },
                                  "parameters" : {
                                    "cursorScale" : {
                                      "type" : "double",
                                      "defaultValue" : 0.0,
                                      "interp" : "linr"
                                    },
                                    "cursorOpacity" : {
                                      "type" : "double",
                                      "defaultValue" : 0.0,
                                      "interp" : "linr"
                                    }
                                  },
                                  "effects" : [

                                  ],
                                  "start" : 7658,
                                  "duration" : 45,
                                  "mediaStart" : 8776,
                                  "mediaDuration" : 45,
                                  "scalar" : 1,
                                  "metadata" : {
                                    "AutoAppliedSmartFocus" : "False"
                                  },
                                  "animationTracks" : {

                                  }
                                },
                                {
                                  "id" : 1138,
                                  "_type" : "ScreenVMFile",
                                  "src" : 1,
                                  "trackNumber" : 0,
                                  "attributes" : {
                                    "ident" : "Rec 01-10-21"
                                  },
                                  "parameters" : {
                                    "cursorScale" : {
                                      "type" : "double",
                                      "defaultValue" : 0.0,
                                      "interp" : "linr"
                                    },
                                    "cursorOpacity" : {
                                      "type" : "double",
                                      "defaultValue" : 0.0,
                                      "interp" : "linr"
                                    }
                                  },
                                  "effects" : [

                                  ],
                                  "start" : 7703,
                                  "duration" : 46,
                                  "mediaStart" : 8841,
                                  "mediaDuration" : 46,
                                  "scalar" : 1,
                                  "metadata" : {
                                    "AutoAppliedSmartFocus" : "False"
                                  },
                                  "animationTracks" : {

                                  }
                                },
                                {
                                  "id" : 1139,
                                  "_type" : "ScreenVMFile",
                                  "src" : 1,
                                  "trackNumber" : 0,
                                  "attributes" : {
                                    "ident" : "Rec 01-10-21"
                                  },
                                  "parameters" : {
                                    "cursorScale" : {
                                      "type" : "double",
                                      "defaultValue" : 0.0,
                                      "interp" : "linr"
                                    },
                                    "cursorOpacity" : {
                                      "type" : "double",
                                      "defaultValue" : 0.0,
                                      "interp" : "linr"
                                    }
                                  },
                                  "effects" : [

                                  ],
                                  "start" : 7749,
                                  "duration" : 1925,
                                  "mediaStart" : 8937,
                                  "mediaDuration" : 1925,
                                  "scalar" : 1,
                                  "metadata" : {
                                    "AutoAppliedSmartFocus" : "False"
                                  },
                                  "animationTracks" : {

                                  }
                                },
                                {
                                  "id" : 1140,
                                  "_type" : "ScreenVMFile",
                                  "src" : 1,
                                  "trackNumber" : 0,
                                  "attributes" : {
                                    "ident" : "Rec 01-10-21"
                                  },
                                  "parameters" : {
                                    "cursorScale" : {
                                      "type" : "double",
                                      "defaultValue" : 0.0,
                                      "interp" : "linr"
                                    },
                                    "cursorOpacity" : {
                                      "type" : "double",
                                      "defaultValue" : 0.0,
                                      "interp" : "linr"
                                    }
                                  },
                                  "effects" : [

                                  ],
                                  "start" : 9674,
                                  "duration" : 322,
                                  "mediaStart" : 10938,
                                  "mediaDuration" : 322,
                                  "scalar" : 1,
                                  "metadata" : {
                                    "AutoAppliedSmartFocus" : "False"
                                  },
                                  "animationTracks" : {

                                  }
                                },
                                {
                                  "id" : 1141,
                                  "_type" : "ScreenVMFile",
                                  "src" : 1,
                                  "trackNumber" : 0,
                                  "attributes" : {
                                    "ident" : "Rec 01-10-21"
                                  },
                                  "parameters" : {
                                    "cursorScale" : {
                                      "type" : "double",
                                      "defaultValue" : 0.0,
                                      "interp" : "linr"
                                    },
                                    "cursorOpacity" : {
                                      "type" : "double",
                                      "defaultValue" : 0.0,
                                      "interp" : "linr"
                                    }
                                  },
                                  "effects" : [

                                  ],
                                  "start" : 9996,
                                  "duration" : 27,
                                  "mediaStart" : 11328,
                                  "mediaDuration" : 27,
                                  "scalar" : 1,
                                  "metadata" : {
                                    "AutoAppliedSmartFocus" : "False"
                                  },
                                  "animationTracks" : {

                                  }
                                },
                                {
                                  "id" : 1142,
                                  "_type" : "ScreenVMFile",
                                  "src" : 1,
                                  "trackNumber" : 0,
                                  "attributes" : {
                                    "ident" : "Rec 01-10-21"
                                  },
                                  "parameters" : {
                                    "cursorScale" : {
                                      "type" : "double",
                                      "defaultValue" : 0.0,
                                      "interp" : "linr"
                                    },
                                    "cursorOpacity" : {
                                      "type" : "double",
                                      "defaultValue" : 0.0,
                                      "interp" : "linr"
                                    }
                                  },
                                  "effects" : [

                                  ],
                                  "start" : 10023,
                                  "duration" : 119,
                                  "mediaStart" : 11424,
                                  "mediaDuration" : 119,
                                  "scalar" : 1,
                                  "metadata" : {
                                    "AutoAppliedSmartFocus" : "False"
                                  },
                                  "animationTracks" : {

                                  }
                                },
                                {
                                  "id" : 1143,
                                  "_type" : "ScreenVMFile",
                                  "src" : 1,
                                  "trackNumber" : 0,
                                  "attributes" : {
                                    "ident" : "Rec 01-10-21"
                                  },
                                  "parameters" : {
                                    "cursorScale" : {
                                      "type" : "double",
                                      "defaultValue" : 0.0,
                                      "interp" : "linr"
                                    },
                                    "cursorOpacity" : {
                                      "type" : "double",
                                      "defaultValue" : 0.0,
                                      "interp" : "linr"
                                    }
                                  },
                                  "effects" : [

                                  ],
                                  "start" : 10142,
                                  "duration" : 46,
                                  "mediaStart" : 11727,
                                  "mediaDuration" : 46,
                                  "scalar" : 1,
                                  "metadata" : {
                                    "AutoAppliedSmartFocus" : "False"
                                  },
                                  "animationTracks" : {

                                  }
                                },
                                {
                                  "id" : 1144,
                                  "_type" : "ScreenVMFile",
                                  "src" : 1,
                                  "trackNumber" : 0,
                                  "attributes" : {
                                    "ident" : "Rec 01-10-21"
                                  },
                                  "parameters" : {
                                    "cursorScale" : {
                                      "type" : "double",
                                      "defaultValue" : 0.0,
                                      "interp" : "linr"
                                    },
                                    "cursorOpacity" : {
                                      "type" : "double",
                                      "defaultValue" : 0.0,
                                      "interp" : "linr"
                                    }
                                  },
                                  "effects" : [

                                  ],
                                  "start" : 10188,
                                  "duration" : 461,
                                  "mediaStart" : 11870,
                                  "mediaDuration" : 461,
                                  "scalar" : 1,
                                  "metadata" : {
                                    "AutoAppliedSmartFocus" : "False"
                                  },
                                  "animationTracks" : {

                                  }
                                },
                                {
                                  "id" : 1145,
                                  "_type" : "ScreenVMFile",
                                  "src" : 1,
                                  "trackNumber" : 0,
                                  "attributes" : {
                                    "ident" : "Rec 01-10-21"
                                  },
                                  "parameters" : {
                                    "cursorScale" : {
                                      "type" : "double",
                                      "defaultValue" : 0.0,
                                      "interp" : "linr"
                                    },
                                    "cursorOpacity" : {
                                      "type" : "double",
                                      "defaultValue" : 0.0,
                                      "interp" : "linr"
                                    }
                                  },
                                  "effects" : [

                                  ],
                                  "start" : 10649,
                                  "duration" : 73,
                                  "mediaStart" : 12767,
                                  "mediaDuration" : 73,
                                  "scalar" : 1,
                                  "metadata" : {
                                    "AutoAppliedSmartFocus" : "False"
                                  },
                                  "animationTracks" : {

                                  }
                                },
                                {
                                  "id" : 1146,
                                  "_type" : "ScreenVMFile",
                                  "src" : 1,
                                  "trackNumber" : 0,
                                  "attributes" : {
                                    "ident" : "Rec 01-10-21"
                                  },
                                  "parameters" : {
                                    "cursorScale" : {
                                      "type" : "double",
                                      "defaultValue" : 0.0,
                                      "interp" : "linr"
                                    },
                                    "cursorOpacity" : {
                                      "type" : "double",
                                      "defaultValue" : 0.0,
                                      "interp" : "linr"
                                    }
                                  },
                                  "effects" : [

                                  ],
                                  "start" : 10722,
                                  "duration" : 166,
                                  "mediaStart" : 13215,
                                  "mediaDuration" : 166,
                                  "scalar" : 1,
                                  "metadata" : {
                                    "AutoAppliedSmartFocus" : "False"
                                  },
                                  "animationTracks" : {

                                  }
                                },
                                {
                                  "id" : 1147,
                                  "_type" : "ScreenVMFile",
                                  "src" : 1,
                                  "trackNumber" : 0,
                                  "attributes" : {
                                    "ident" : "Rec 01-10-21"
                                  },
                                  "parameters" : {
                                    "cursorScale" : {
                                      "type" : "double",
                                      "defaultValue" : 0.0,
                                      "interp" : "linr"
                                    },
                                    "cursorOpacity" : {
                                      "type" : "double",
                                      "defaultValue" : 0.0,
                                      "interp" : "linr"
                                    }
                                  },
                                  "effects" : [

                                  ],
                                  "start" : 10888,
                                  "duration" : 305,
                                  "mediaStart" : 13397,
                                  "mediaDuration" : 305,
                                  "scalar" : 1,
                                  "metadata" : {
                                    "AutoAppliedSmartFocus" : "False"
                                  },
                                  "animationTracks" : {

                                  }
                                },
                                {
                                  "id" : 1148,
                                  "_type" : "ScreenVMFile",
                                  "src" : 1,
                                  "trackNumber" : 0,
                                  "attributes" : {
                                    "ident" : "Rec 01-10-21"
                                  },
                                  "parameters" : {
                                    "cursorScale" : {
                                      "type" : "double",
                                      "defaultValue" : 0.0,
                                      "interp" : "linr"
                                    },
                                    "cursorOpacity" : {
                                      "type" : "double",
                                      "defaultValue" : 0.0,
                                      "interp" : "linr"
                                    }
                                  },
                                  "effects" : [

                                  ],
                                  "start" : 11193,
                                  "duration" : 196,
                                  "mediaStart" : 13738,
                                  "mediaDuration" : 196,
                                  "scalar" : 1,
                                  "metadata" : {
                                    "AutoAppliedSmartFocus" : "False"
                                  },
                                  "animationTracks" : {

                                  }
                                },
                                {
                                  "id" : 1149,
                                  "_type" : "ScreenVMFile",
                                  "src" : 1,
                                  "trackNumber" : 0,
                                  "attributes" : {
                                    "ident" : "Rec 01-10-21"
                                  },
                                  "parameters" : {
                                    "cursorScale" : {
                                      "type" : "double",
                                      "defaultValue" : 0.0,
                                      "interp" : "linr"
                                    },
                                    "cursorOpacity" : {
                                      "type" : "double",
                                      "defaultValue" : 0.0,
                                      "interp" : "linr"
                                    }
                                  },
                                  "effects" : [

                                  ],
                                  "start" : 11389,
                                  "duration" : 54,
                                  "mediaStart" : 13961,
                                  "mediaDuration" : 54,
                                  "scalar" : 1,
                                  "metadata" : {
                                    "AutoAppliedSmartFocus" : "False"
                                  },
                                  "animationTracks" : {

                                  }
                                },
                                {
                                  "id" : 1150,
                                  "_type" : "ScreenVMFile",
                                  "src" : 1,
                                  "trackNumber" : 0,
                                  "attributes" : {
                                    "ident" : "Rec 01-10-21"
                                  },
                                  "parameters" : {
                                    "cursorScale" : {
                                      "type" : "double",
                                      "defaultValue" : 0.0,
                                      "interp" : "linr"
                                    },
                                    "cursorOpacity" : {
                                      "type" : "double",
                                      "defaultValue" : 0.0,
                                      "interp" : "linr"
                                    }
                                  },
                                  "effects" : [

                                  ],
                                  "start" : 11443,
                                  "duration" : 28,
                                  "mediaStart" : 14029,
                                  "mediaDuration" : 28,
                                  "scalar" : 1,
                                  "metadata" : {
                                    "AutoAppliedSmartFocus" : "False"
                                  },
                                  "animationTracks" : {

                                  }
                                },
                                {
                                  "id" : 1151,
                                  "_type" : "ScreenVMFile",
                                  "src" : 1,
                                  "trackNumber" : 0,
                                  "attributes" : {
                                    "ident" : "Rec 01-10-21"
                                  },
                                  "parameters" : {
                                    "cursorScale" : {
                                      "type" : "double",
                                      "defaultValue" : 0.0,
                                      "interp" : "linr"
                                    },
                                    "cursorOpacity" : {
                                      "type" : "double",
                                      "defaultValue" : 0.0,
                                      "interp" : "linr"
                                    }
                                  },
                                  "effects" : [

                                  ],
                                  "start" : 11471,
                                  "duration" : 48,
                                  "mediaStart" : 14274,
                                  "mediaDuration" : 48,
                                  "scalar" : 1,
                                  "metadata" : {
                                    "AutoAppliedSmartFocus" : "False"
                                  },
                                  "animationTracks" : {

                                  }
                                },
                                {
                                  "id" : 1152,
                                  "_type" : "ScreenVMFile",
                                  "src" : 1,
                                  "trackNumber" : 0,
                                  "attributes" : {
                                    "ident" : "Rec 01-10-21"
                                  },
                                  "parameters" : {
                                    "cursorScale" : {
                                      "type" : "double",
                                      "defaultValue" : 0.0,
                                      "interp" : "linr"
                                    },
                                    "cursorOpacity" : {
                                      "type" : "double",
                                      "defaultValue" : 0.0,
                                      "interp" : "linr"
                                    }
                                  },
                                  "effects" : [

                                  ],
                                  "start" : 11519,
                                  "duration" : 118,
                                  "mediaStart" : 14378,
                                  "mediaDuration" : 118,
                                  "scalar" : 1,
                                  "metadata" : {
                                    "AutoAppliedSmartFocus" : "False"
                                  },
                                  "animationTracks" : {

                                  }
                                },
                                {
                                  "id" : 1153,
                                  "_type" : "ScreenVMFile",
                                  "src" : 1,
                                  "trackNumber" : 0,
                                  "attributes" : {
                                    "ident" : "Rec 01-10-21"
                                  },
                                  "parameters" : {
                                    "cursorScale" : {
                                      "type" : "double",
                                      "defaultValue" : 0.0,
                                      "interp" : "linr"
                                    },
                                    "cursorOpacity" : {
                                      "type" : "double",
                                      "defaultValue" : 0.0,
                                      "interp" : "linr"
                                    }
                                  },
                                  "effects" : [

                                  ],
                                  "start" : 11637,
                                  "duration" : 252,
                                  "mediaStart" : 14503,
                                  "mediaDuration" : 252,
                                  "scalar" : 1,
                                  "metadata" : {
                                    "AutoAppliedSmartFocus" : "False"
                                  },
                                  "animationTracks" : {

                                  }
                                },
                                {
                                  "id" : 1154,
                                  "_type" : "ScreenVMFile",
                                  "src" : 1,
                                  "trackNumber" : 0,
                                  "attributes" : {
                                    "ident" : "Rec 01-10-21"
                                  },
                                  "parameters" : {
                                    "cursorScale" : {
                                      "type" : "double",
                                      "defaultValue" : 0.0,
                                      "interp" : "linr"
                                    },
                                    "cursorOpacity" : {
                                      "type" : "double",
                                      "defaultValue" : 0.0,
                                      "interp" : "linr"
                                    }
                                  },
                                  "effects" : [

                                  ],
                                  "start" : 11889,
                                  "duration" : 127,
                                  "mediaStart" : 14814,
                                  "mediaDuration" : 127,
                                  "scalar" : 1,
                                  "metadata" : {
                                    "AutoAppliedSmartFocus" : "False"
                                  },
                                  "animationTracks" : {

                                  }
                                },
                                {
                                  "id" : 1155,
                                  "_type" : "ScreenVMFile",
                                  "src" : 1,
                                  "trackNumber" : 0,
                                  "attributes" : {
                                    "ident" : "Rec 01-10-21"
                                  },
                                  "parameters" : {
                                    "cursorScale" : {
                                      "type" : "double",
                                      "defaultValue" : 0.0,
                                      "interp" : "linr"
                                    },
                                    "cursorOpacity" : {
                                      "type" : "double",
                                      "defaultValue" : 0.0,
                                      "interp" : "linr"
                                    }
                                  },
                                  "effects" : [

                                  ],
                                  "start" : 12016,
                                  "duration" : 43,
                                  "mediaStart" : 14962,
                                  "mediaDuration" : 43,
                                  "scalar" : 1,
                                  "metadata" : {
                                    "AutoAppliedSmartFocus" : "False"
                                  },
                                  "animationTracks" : {

                                  }
                                },
                                {
                                  "id" : 1156,
                                  "_type" : "ScreenVMFile",
                                  "src" : 1,
                                  "trackNumber" : 0,
                                  "attributes" : {
                                    "ident" : "Rec 01-10-21"
                                  },
                                  "parameters" : {
                                    "cursorScale" : {
                                      "type" : "double",
                                      "defaultValue" : 0.0,
                                      "interp" : "linr"
                                    },
                                    "cursorOpacity" : {
                                      "type" : "double",
                                      "defaultValue" : 0.0,
                                      "interp" : "linr"
                                    }
                                  },
                                  "effects" : [

                                  ],
                                  "start" : 12059,
                                  "duration" : 84,
                                  "mediaStart" : 15016,
                                  "mediaDuration" : 84,
                                  "scalar" : 1,
                                  "metadata" : {
                                    "AutoAppliedSmartFocus" : "False"
                                  },
                                  "animationTracks" : {

                                  }
                                },
                                {
                                  "id" : 1157,
                                  "_type" : "ScreenVMFile",
                                  "src" : 1,
                                  "trackNumber" : 0,
                                  "attributes" : {
                                    "ident" : "Rec 01-10-21"
                                  },
                                  "parameters" : {
                                    "cursorScale" : {
                                      "type" : "double",
                                      "defaultValue" : 0.0,
                                      "interp" : "linr"
                                    },
                                    "cursorOpacity" : {
                                      "type" : "double",
                                      "defaultValue" : 0.0,
                                      "interp" : "linr"
                                    }
                                  },
                                  "effects" : [

                                  ],
                                  "start" : 12143,
                                  "duration" : 108,
                                  "mediaStart" : 15147,
                                  "mediaDuration" : 108,
                                  "scalar" : 1,
                                  "metadata" : {
                                    "AutoAppliedSmartFocus" : "False"
                                  },
                                  "animationTracks" : {

                                  }
                                },
                                {
                                  "id" : 1158,
                                  "_type" : "ScreenVMFile",
                                  "src" : 1,
                                  "trackNumber" : 0,
                                  "attributes" : {
                                    "ident" : "Rec 01-10-21"
                                  },
                                  "parameters" : {
                                    "cursorScale" : {
                                      "type" : "double",
                                      "defaultValue" : 0.0,
                                      "interp" : "linr"
                                    },
                                    "cursorOpacity" : {
                                      "type" : "double",
                                      "defaultValue" : 0.0,
                                      "interp" : "linr"
                                    }
                                  },
                                  "effects" : [

                                  ],
                                  "start" : 12251,
                                  "duration" : 36,
                                  "mediaStart" : 15274,
                                  "mediaDuration" : 36,
                                  "scalar" : 1,
                                  "metadata" : {
                                    "AutoAppliedSmartFocus" : "False"
                                  },
                                  "animationTracks" : {

                                  }
                                },
                                {
                                  "id" : 1159,
                                  "_type" : "ScreenVMFile",
                                  "src" : 1,
                                  "trackNumber" : 0,
                                  "attributes" : {
                                    "ident" : "Rec 01-10-21"
                                  },
                                  "parameters" : {
                                    "cursorScale" : {
                                      "type" : "double",
                                      "defaultValue" : 0.0,
                                      "interp" : "linr"
                                    },
                                    "cursorOpacity" : {
                                      "type" : "double",
                                      "defaultValue" : 0.0,
                                      "interp" : "linr"
                                    }
                                  },
                                  "effects" : [

                                  ],
                                  "start" : 12287,
                                  "duration" : 207,
                                  "mediaStart" : 15343,
                                  "mediaDuration" : 207,
                                  "scalar" : 1,
                                  "metadata" : {
                                    "AutoAppliedSmartFocus" : "False"
                                  },
                                  "animationTracks" : {

                                  }
                                },
                                {
                                  "id" : 1160,
                                  "_type" : "ScreenVMFile",
                                  "src" : 1,
                                  "trackNumber" : 0,
                                  "attributes" : {
                                    "ident" : "Rec 01-10-21"
                                  },
                                  "parameters" : {
                                    "cursorScale" : {
                                      "type" : "double",
                                      "defaultValue" : 0.0,
                                      "interp" : "linr"
                                    },
                                    "cursorOpacity" : {
                                      "type" : "double",
                                      "defaultValue" : 0.0,
                                      "interp" : "linr"
                                    }
                                  },
                                  "effects" : [

                                  ],
                                  "start" : 12494,
                                  "duration" : 136,
                                  "mediaStart" : 15590,
                                  "mediaDuration" : 136,
                                  "scalar" : 1,
                                  "metadata" : {
                                    "AutoAppliedSmartFocus" : "False"
                                  },
                                  "animationTracks" : {

                                  }
                                },
                                {
                                  "id" : 1161,
                                  "_type" : "ScreenVMFile",
                                  "src" : 1,
                                  "trackNumber" : 0,
                                  "attributes" : {
                                    "ident" : "Rec 01-10-21"
                                  },
                                  "parameters" : {
                                    "cursorScale" : {
                                      "type" : "double",
                                      "defaultValue" : 0.0,
                                      "interp" : "linr"
                                    },
                                    "cursorOpacity" : {
                                      "type" : "double",
                                      "defaultValue" : 0.0,
                                      "interp" : "linr"
                                    }
                                  },
                                  "effects" : [

                                  ],
                                  "start" : 12630,
                                  "duration" : 85,
                                  "mediaStart" : 15788,
                                  "mediaDuration" : 85,
                                  "scalar" : 1,
                                  "metadata" : {
                                    "AutoAppliedSmartFocus" : "False"
                                  },
                                  "animationTracks" : {

                                  }
                                },
                                {
                                  "id" : 1162,
                                  "_type" : "ScreenVMFile",
                                  "src" : 1,
                                  "trackNumber" : 0,
                                  "attributes" : {
                                    "ident" : "Rec 01-10-21"
                                  },
                                  "parameters" : {
                                    "cursorScale" : {
                                      "type" : "double",
                                      "defaultValue" : 0.0,
                                      "interp" : "linr"
                                    },
                                    "cursorOpacity" : {
                                      "type" : "double",
                                      "defaultValue" : 0.0,
                                      "interp" : "linr"
                                    }
                                  },
                                  "effects" : [

                                  ],
                                  "start" : 12715,
                                  "duration" : 132,
                                  "mediaStart" : 15926,
                                  "mediaDuration" : 132,
                                  "scalar" : 1,
                                  "metadata" : {
                                    "AutoAppliedSmartFocus" : "False"
                                  },
                                  "animationTracks" : {

                                  }
                                },
                                {
                                  "id" : 1163,
                                  "_type" : "ScreenVMFile",
                                  "src" : 1,
                                  "trackNumber" : 0,
                                  "attributes" : {
                                    "ident" : "Rec 01-10-21"
                                  },
                                  "parameters" : {
                                    "cursorScale" : {
                                      "type" : "double",
                                      "defaultValue" : 0.0,
                                      "interp" : "linr"
                                    },
                                    "cursorOpacity" : {
                                      "type" : "double",
                                      "defaultValue" : 0.0,
                                      "interp" : "linr"
                                    }
                                  },
                                  "effects" : [

                                  ],
                                  "start" : 12847,
                                  "duration" : 60,
                                  "mediaStart" : 16118,
                                  "mediaDuration" : 60,
                                  "scalar" : 1,
                                  "metadata" : {
                                    "AutoAppliedSmartFocus" : "False"
                                  },
                                  "animationTracks" : {

                                  }
                                },
                                {
                                  "id" : 1164,
                                  "_type" : "ScreenVMFile",
                                  "src" : 1,
                                  "trackNumber" : 0,
                                  "attributes" : {
                                    "ident" : "Rec 01-10-21"
                                  },
                                  "parameters" : {
                                    "cursorScale" : {
                                      "type" : "double",
                                      "defaultValue" : 0.0,
                                      "interp" : "linr"
                                    },
                                    "cursorOpacity" : {
                                      "type" : "double",
                                      "defaultValue" : 0.0,
                                      "interp" : "linr"
                                    }
                                  },
                                  "effects" : [

                                  ],
                                  "start" : 12907,
                                  "duration" : 7,
                                  "mediaStart" : 16638,
                                  "mediaDuration" : 7,
                                  "scalar" : 1,
                                  "metadata" : {
                                    "AutoAppliedSmartFocus" : "False"
                                  },
                                  "animationTracks" : {

                                  }
                                },
                                {
                                  "id" : 1165,
                                  "_type" : "ScreenVMFile",
                                  "src" : 1,
                                  "trackNumber" : 0,
                                  "attributes" : {
                                    "ident" : "Rec 01-10-21"
                                  },
                                  "parameters" : {
                                    "cursorScale" : {
                                      "type" : "double",
                                      "defaultValue" : 0.0,
                                      "interp" : "linr"
                                    },
                                    "cursorOpacity" : {
                                      "type" : "double",
                                      "defaultValue" : 0.0,
                                      "interp" : "linr"
                                    }
                                  },
                                  "effects" : [

                                  ],
                                  "start" : 12914,
                                  "duration" : 90,
                                  "mediaStart" : 16843,
                                  "mediaDuration" : 90,
                                  "scalar" : 1,
                                  "metadata" : {
                                    "AutoAppliedSmartFocus" : "False"
                                  },
                                  "animationTracks" : {

                                  }
                                },
                                {
                                  "id" : 1166,
                                  "_type" : "ScreenVMFile",
                                  "src" : 1,
                                  "trackNumber" : 0,
                                  "attributes" : {
                                    "ident" : "Rec 01-10-21"
                                  },
                                  "parameters" : {
                                    "cursorScale" : {
                                      "type" : "double",
                                      "defaultValue" : 0.0,
                                      "interp" : "linr"
                                    },
                                    "cursorOpacity" : {
                                      "type" : "double",
                                      "defaultValue" : 0.0,
                                      "interp" : "linr"
                                    }
                                  },
                                  "effects" : [

                                  ],
                                  "start" : 13004,
                                  "duration" : 3,
                                  "mediaStart" : 16991,
                                  "mediaDuration" : 3,
                                  "scalar" : 1,
                                  "metadata" : {
                                    "AutoAppliedSmartFocus" : "False"
                                  },
                                  "animationTracks" : {

                                  }
                                },
                                {
                                  "id" : 1167,
                                  "_type" : "ScreenVMFile",
                                  "src" : 1,
                                  "trackNumber" : 0,
                                  "attributes" : {
                                    "ident" : "Rec 01-10-21"
                                  },
                                  "parameters" : {
                                    "cursorScale" : {
                                      "type" : "double",
                                      "defaultValue" : 0.0,
                                      "interp" : "linr"
                                    },
                                    "cursorOpacity" : {
                                      "type" : "double",
                                      "defaultValue" : 0.0,
                                      "interp" : "linr"
                                    }
                                  },
                                  "effects" : [

                                  ],
                                  "start" : 13007,
                                  "duration" : 864,
                                  "mediaStart" : 17051,
                                  "mediaDuration" : 864,
                                  "scalar" : 1,
                                  "metadata" : {
                                    "AutoAppliedSmartFocus" : "False"
                                  },
                                  "animationTracks" : {

                                  }
                                },
                                {
                                  "id" : 1168,
                                  "_type" : "ScreenVMFile",
                                  "src" : 1,
                                  "trackNumber" : 0,
                                  "attributes" : {
                                    "ident" : "Rec 01-10-21"
                                  },
                                  "parameters" : {
                                    "cursorScale" : {
                                      "type" : "double",
                                      "defaultValue" : 0.0,
                                      "interp" : "linr"
                                    },
                                    "cursorOpacity" : {
                                      "type" : "double",
                                      "defaultValue" : 0.0,
                                      "interp" : "linr"
                                    }
                                  },
                                  "effects" : [

                                  ],
                                  "start" : 13871,
                                  "duration" : 21,
                                  "mediaStart" : 17980,
                                  "mediaDuration" : 21,
                                  "scalar" : 1,
                                  "metadata" : {
                                    "AutoAppliedSmartFocus" : "False"
                                  },
                                  "animationTracks" : {

                                  }
                                },
                                {
                                  "id" : 1169,
                                  "_type" : "ScreenVMFile",
                                  "src" : 1,
                                  "trackNumber" : 0,
                                  "attributes" : {
                                    "ident" : "Rec 01-10-21"
                                  },
                                  "parameters" : {
                                    "cursorScale" : {
                                      "type" : "double",
                                      "defaultValue" : 0.0,
                                      "interp" : "linr"
                                    },
                                    "cursorOpacity" : {
                                      "type" : "double",
                                      "defaultValue" : 0.0,
                                      "interp" : "linr"
                                    }
                                  },
                                  "effects" : [

                                  ],
                                  "start" : 13892,
                                  "duration" : 83,
                                  "mediaStart" : 18105,
                                  "mediaDuration" : 83,
                                  "scalar" : 1,
                                  "metadata" : {
                                    "AutoAppliedSmartFocus" : "False"
                                  },
                                  "animationTracks" : {

                                  }
                                },
                                {
                                  "id" : 1170,
                                  "_type" : "ScreenVMFile",
                                  "src" : 1,
                                  "trackNumber" : 0,
                                  "attributes" : {
                                    "ident" : "Rec 01-10-21"
                                  },
                                  "parameters" : {
                                    "cursorScale" : {
                                      "type" : "double",
                                      "defaultValue" : 0.0,
                                      "interp" : "linr"
                                    },
                                    "cursorOpacity" : {
                                      "type" : "double",
                                      "defaultValue" : 0.0,
                                      "interp" : "linr"
                                    }
                                  },
                                  "effects" : [

                                  ],
                                  "start" : 13975,
                                  "duration" : 7354,
                                  "mediaStart" : 18393,
                                  "mediaDuration" : 7354,
                                  "scalar" : 1,
                                  "metadata" : {
                                    "AutoAppliedSmartFocus" : "False"
                                  },
                                  "animationTracks" : {

                                  }
                                }
                            ],
                            "effects" : [

                            ],
                            "start" : 0,
                            "duration" : 155,
                            "mediaStart" : 13971,
                            "mediaDuration" : 155,
                            "scalar" : 1,
                            "metadata" : {
                              "AutoAppliedSmartFocus" : "False",
                              "clipSpeedAttribute" : false
                            },
                            "animationTracks" : {

                            }
                          }
                        ],
                          "ident" : "",
                          "audioMuted" : false,
                          "videoHidden" : false,
                          "magnetic" : false,
                          "matte" : 0,
                          "metadata" : {
                            "IsLocked" : "False",
                            "WinTrackHeight" : "0"
                          }
                      },
                      {
                        "trackIndex" : 1,
                        "medias" : [
                          {
                            "id" : 1171,
                            "_type" : "AMFile",
                            "src" : 3,
                            "trackNumber" : 0,
                            "attributes" : {
                              "ident" : "Narration_3-1 Pod 2",
                              "gain" : 1.0,
                              "mixToMono" : false
                            },
                              "channelNumber" : "0,1",
                            "effects" : [

                            ],
                            "start" : 0,
                            "duration" : 155,
                            "mediaStart" : 0,
                            "mediaDuration" : 155,
                            "scalar" : 1,
                            "metadata" : {
                              "clipSpeedAttribute" : false
                            },
                            "animationTracks" : {

                            }
                          }
                        ],
                          "ident" : "",
                          "audioMuted" : false,
                          "videoHidden" : false,
                          "magnetic" : false,
                          "matte" : 0,
                          "metadata" : {
                            "IsLocked" : "False",
                            "WinTrackHeight" : "4.4862077802135e-312"
                          }
                      }
                    ],
                    "attributes" : {
                      "ident" : "Group 1",
                      "gain" : 1.0,
                      "mixToMono" : false
                    },
                    "effects" : [

                    ],
                    "start" : 9939,
                    "duration" : 155,
                    "mediaStart" : 0.0,
                    "mediaDuration" : 155.0,
                    "scalar" : 1,
                    "metadata" : {
                      "IsGroupExpanded" : "False"
                    },
                    "animationTracks" : {

                    }
                  },
                  {
                    "id" : 1172,
                    "_type" : "StitchedMedia",
                    "minMediaStart" : 0,
                    "attributes" : {
                      "ident" : "Rec 01-10-21",
                      "gain" : 1.0,
                      "mixToMono" : false
                    },
                    "parameters" : {
                      "volume" : 1.0,
                      "cursorOpacity" : 1.0,
                      "cursorScale" : 1.0
                    },
                    "medias" : [
                        {
                          "id" : 1173,
                          "_type" : "UnifiedMedia",
                          "video" : 
                              {
                                "id" : 1174,
                                "_type" : "ScreenVMFile",
                                "src" : 1,
                                "trackNumber" : 0,
                                "attributes" : {
                                  "ident" : "Rec 01-10-21"
                                },
                                "parameters" : {
                                  "cursorScale" : {
                                    "type" : "double",
                                    "defaultValue" : 0.0,
                                    "interp" : "linr"
                                  },
                                  "cursorOpacity" : {
                                    "type" : "double",
                                    "defaultValue" : 0.0,
                                    "interp" : "linr"
                                  }
                                },
                                "effects" : [

                                ],
                                "start" : 0,
                                "duration" : 5487,
                                "mediaStart" : 0,
                                "mediaDuration" : 5487,
                                "scalar" : 1,
                                "animationTracks" : {

                                }
                              },
                          "audio" : 
                              {
                                "id" : 1175,
                                "_type" : "AMFile",
                                "src" : 1,
                                "trackNumber" : 1,
                                "attributes" : {
                                  "ident" : "",
                                  "gain" : 1.0,
                                  "mixToMono" : false
                                },
                                  "channelNumber" : "0,1",
                                "effects" : [

                                ],
                                "start" : 0,
                                "duration" : 5487,
                                "mediaStart" : 0,
                                "mediaDuration" : 5487,
                                "scalar" : 1,
                                "animationTracks" : {

                                }
                              }
,
                          "start" : 0,
                          "duration" : 5487,
                          "mediaStart" : 0,
                          "mediaDuration" : 25747,
                          "scalar" : 1,
                          "metadata" : {
                            "AutoAppliedSmartFocus" : "False",
                            "clipSpeedAttribute" : false
                          }
                        },
                        {
                          "id" : 1176,
                          "_type" : "UnifiedMedia",
                          "video" : 
                              {
                                "id" : 1177,
                                "_type" : "ScreenVMFile",
                                "src" : 1,
                                "trackNumber" : 0,
                                "attributes" : {
                                  "ident" : "Rec 01-10-21"
                                },
                                "parameters" : {
                                  "cursorScale" : {
                                    "type" : "double",
                                    "defaultValue" : 0.0,
                                    "interp" : "linr"
                                  },
                                  "cursorOpacity" : {
                                    "type" : "double",
                                    "defaultValue" : 0.0,
                                    "interp" : "linr"
                                  }
                                },
                                "effects" : [

                                ],
                                "start" : 5487,
                                "duration" : 166,
                                "mediaStart" : 5498,
                                "mediaDuration" : 166,
                                "scalar" : 1,
                                "animationTracks" : {

                                }
                              },
                          "audio" : 
                              {
                                "id" : 1178,
                                "_type" : "AMFile",
                                "src" : 1,
                                "trackNumber" : 1,
                                "attributes" : {
                                  "ident" : "",
                                  "gain" : 1.0,
                                  "mixToMono" : false
                                },
                                  "channelNumber" : "0,1",
                                "effects" : [

                                ],
                                "start" : 5487,
                                "duration" : 166,
                                "mediaStart" : 5498,
                                "mediaDuration" : 166,
                                "scalar" : 1,
                                "animationTracks" : {

                                }
                              }
,
                          "start" : 5487,
                          "duration" : 166,
                          "mediaStart" : 0,
                          "mediaDuration" : 25747,
                          "scalar" : 1,
                          "metadata" : {
                            "AutoAppliedSmartFocus" : "False",
                            "clipSpeedAttribute" : false
                          }
                        },
                        {
                          "id" : 1179,
                          "_type" : "UnifiedMedia",
                          "video" : 
                              {
                                "id" : 1180,
                                "_type" : "ScreenVMFile",
                                "src" : 1,
                                "trackNumber" : 0,
                                "attributes" : {
                                  "ident" : "Rec 01-10-21"
                                },
                                "parameters" : {
                                  "cursorScale" : {
                                    "type" : "double",
                                    "defaultValue" : 0.0,
                                    "interp" : "linr"
                                  },
                                  "cursorOpacity" : {
                                    "type" : "double",
                                    "defaultValue" : 0.0,
                                    "interp" : "linr"
                                  }
                                },
                                "effects" : [

                                ],
                                "start" : 5653,
                                "duration" : 739,
                                "mediaStart" : 5708,
                                "mediaDuration" : 739,
                                "scalar" : 1,
                                "animationTracks" : {

                                }
                              },
                          "audio" : 
                              {
                                "id" : 1181,
                                "_type" : "AMFile",
                                "src" : 1,
                                "trackNumber" : 1,
                                "attributes" : {
                                  "ident" : "",
                                  "gain" : 1.0,
                                  "mixToMono" : false
                                },
                                  "channelNumber" : "0,1",
                                "effects" : [

                                ],
                                "start" : 5653,
                                "duration" : 739,
                                "mediaStart" : 5708,
                                "mediaDuration" : 739,
                                "scalar" : 1,
                                "animationTracks" : {

                                }
                              }
,
                          "start" : 5653,
                          "duration" : 739,
                          "mediaStart" : 0,
                          "mediaDuration" : 25747,
                          "scalar" : 1,
                          "metadata" : {
                            "AutoAppliedSmartFocus" : "False",
                            "clipSpeedAttribute" : false
                          }
                        },
                        {
                          "id" : 1182,
                          "_type" : "UnifiedMedia",
                          "video" : 
                              {
                                "id" : 1183,
                                "_type" : "ScreenVMFile",
                                "src" : 1,
                                "trackNumber" : 0,
                                "attributes" : {
                                  "ident" : "Rec 01-10-21"
                                },
                                "parameters" : {
                                  "cursorScale" : {
                                    "type" : "double",
                                    "defaultValue" : 0.0,
                                    "interp" : "linr"
                                  },
                                  "cursorOpacity" : {
                                    "type" : "double",
                                    "defaultValue" : 0.0,
                                    "interp" : "linr"
                                  }
                                },
                                "effects" : [

                                ],
                                "start" : 6392,
                                "duration" : 6,
                                "mediaStart" : 6482,
                                "mediaDuration" : 6,
                                "scalar" : 1,
                                "animationTracks" : {

                                }
                              },
                          "audio" : 
                              {
                                "id" : 1184,
                                "_type" : "AMFile",
                                "src" : 1,
                                "trackNumber" : 1,
                                "attributes" : {
                                  "ident" : "",
                                  "gain" : 1.0,
                                  "mixToMono" : false
                                },
                                  "channelNumber" : "0,1",
                                "effects" : [

                                ],
                                "start" : 6392,
                                "duration" : 6,
                                "mediaStart" : 6482,
                                "mediaDuration" : 6,
                                "scalar" : 1,
                                "animationTracks" : {

                                }
                              }
,
                          "start" : 6392,
                          "duration" : 6,
                          "mediaStart" : 0,
                          "mediaDuration" : 25747,
                          "scalar" : 1,
                          "metadata" : {
                            "AutoAppliedSmartFocus" : "False",
                            "clipSpeedAttribute" : false
                          }
                        },
                        {
                          "id" : 1185,
                          "_type" : "UnifiedMedia",
                          "video" : 
                              {
                                "id" : 1186,
                                "_type" : "ScreenVMFile",
                                "src" : 1,
                                "trackNumber" : 0,
                                "attributes" : {
                                  "ident" : "Rec 01-10-21"
                                },
                                "parameters" : {
                                  "cursorScale" : {
                                    "type" : "double",
                                    "defaultValue" : 0.0,
                                    "interp" : "linr"
                                  },
                                  "cursorOpacity" : {
                                    "type" : "double",
                                    "defaultValue" : 0.0,
                                    "interp" : "linr"
                                  }
                                },
                                "effects" : [

                                ],
                                "start" : 6398,
                                "duration" : 340,
                                "mediaStart" : 6558,
                                "mediaDuration" : 340,
                                "scalar" : 1,
                                "animationTracks" : {

                                }
                              },
                          "audio" : 
                              {
                                "id" : 1187,
                                "_type" : "AMFile",
                                "src" : 1,
                                "trackNumber" : 1,
                                "attributes" : {
                                  "ident" : "",
                                  "gain" : 1.0,
                                  "mixToMono" : false
                                },
                                  "channelNumber" : "0,1",
                                "effects" : [

                                ],
                                "start" : 6398,
                                "duration" : 340,
                                "mediaStart" : 6558,
                                "mediaDuration" : 340,
                                "scalar" : 1,
                                "animationTracks" : {

                                }
                              }
,
                          "start" : 6398,
                          "duration" : 340,
                          "mediaStart" : 0,
                          "mediaDuration" : 25747,
                          "scalar" : 1,
                          "metadata" : {
                            "AutoAppliedSmartFocus" : "False",
                            "clipSpeedAttribute" : false
                          }
                        },
                        {
                          "id" : 1188,
                          "_type" : "UnifiedMedia",
                          "video" : 
                              {
                                "id" : 1189,
                                "_type" : "ScreenVMFile",
                                "src" : 1,
                                "trackNumber" : 0,
                                "attributes" : {
                                  "ident" : "Rec 01-10-21"
                                },
                                "parameters" : {
                                  "cursorScale" : {
                                    "type" : "double",
                                    "defaultValue" : 0.0,
                                    "interp" : "linr"
                                  },
                                  "cursorOpacity" : {
                                    "type" : "double",
                                    "defaultValue" : 0.0,
                                    "interp" : "linr"
                                  }
                                },
                                "effects" : [

                                ],
                                "start" : 6738,
                                "duration" : 125,
                                "mediaStart" : 6983,
                                "mediaDuration" : 125,
                                "scalar" : 1,
                                "animationTracks" : {

                                }
                              },
                          "audio" : 
                              {
                                "id" : 1190,
                                "_type" : "AMFile",
                                "src" : 1,
                                "trackNumber" : 1,
                                "attributes" : {
                                  "ident" : "",
                                  "gain" : 1.0,
                                  "mixToMono" : false
                                },
                                  "channelNumber" : "0,1",
                                "effects" : [

                                ],
                                "start" : 6738,
                                "duration" : 125,
                                "mediaStart" : 6983,
                                "mediaDuration" : 125,
                                "scalar" : 1,
                                "animationTracks" : {

                                }
                              }
,
                          "start" : 6738,
                          "duration" : 125,
                          "mediaStart" : 0,
                          "mediaDuration" : 25747,
                          "scalar" : 1,
                          "metadata" : {
                            "AutoAppliedSmartFocus" : "False",
                            "clipSpeedAttribute" : false
                          }
                        },
                        {
                          "id" : 1191,
                          "_type" : "UnifiedMedia",
                          "video" : 
                              {
                                "id" : 1192,
                                "_type" : "ScreenVMFile",
                                "src" : 1,
                                "trackNumber" : 0,
                                "attributes" : {
                                  "ident" : "Rec 01-10-21"
                                },
                                "parameters" : {
                                  "cursorScale" : {
                                    "type" : "double",
                                    "defaultValue" : 0.0,
                                    "interp" : "linr"
                                  },
                                  "cursorOpacity" : {
                                    "type" : "double",
                                    "defaultValue" : 0.0,
                                    "interp" : "linr"
                                  }
                                },
                                "effects" : [

                                ],
                                "start" : 6863,
                                "duration" : 297,
                                "mediaStart" : 7316,
                                "mediaDuration" : 297,
                                "scalar" : 1,
                                "animationTracks" : {

                                }
                              },
                          "audio" : 
                              {
                                "id" : 1193,
                                "_type" : "AMFile",
                                "src" : 1,
                                "trackNumber" : 1,
                                "attributes" : {
                                  "ident" : "",
                                  "gain" : 1.0,
                                  "mixToMono" : false
                                },
                                  "channelNumber" : "0,1",
                                "effects" : [

                                ],
                                "start" : 6863,
                                "duration" : 297,
                                "mediaStart" : 7316,
                                "mediaDuration" : 297,
                                "scalar" : 1,
                                "animationTracks" : {

                                }
                              }
,
                          "start" : 6863,
                          "duration" : 297,
                          "mediaStart" : 0,
                          "mediaDuration" : 25747,
                          "scalar" : 1,
                          "metadata" : {
                            "AutoAppliedSmartFocus" : "False",
                            "clipSpeedAttribute" : false
                          }
                        },
                        {
                          "id" : 1194,
                          "_type" : "UnifiedMedia",
                          "video" : 
                              {
                                "id" : 1195,
                                "_type" : "ScreenVMFile",
                                "src" : 1,
                                "trackNumber" : 0,
                                "attributes" : {
                                  "ident" : "Rec 01-10-21"
                                },
                                "parameters" : {
                                  "cursorScale" : {
                                    "type" : "double",
                                    "defaultValue" : 0.0,
                                    "interp" : "linr"
                                  },
                                  "cursorOpacity" : {
                                    "type" : "double",
                                    "defaultValue" : 0.0,
                                    "interp" : "linr"
                                  }
                                },
                                "effects" : [

                                ],
                                "start" : 7160,
                                "duration" : 60,
                                "mediaStart" : 7641,
                                "mediaDuration" : 60,
                                "scalar" : 1,
                                "animationTracks" : {

                                }
                              },
                          "audio" : 
                              {
                                "id" : 1196,
                                "_type" : "AMFile",
                                "src" : 1,
                                "trackNumber" : 1,
                                "attributes" : {
                                  "ident" : "",
                                  "gain" : 1.0,
                                  "mixToMono" : false
                                },
                                  "channelNumber" : "0,1",
                                "effects" : [

                                ],
                                "start" : 7160,
                                "duration" : 60,
                                "mediaStart" : 7641,
                                "mediaDuration" : 60,
                                "scalar" : 1,
                                "animationTracks" : {

                                }
                              }
,
                          "start" : 7160,
                          "duration" : 60,
                          "mediaStart" : 0,
                          "mediaDuration" : 25747,
                          "scalar" : 1,
                          "metadata" : {
                            "AutoAppliedSmartFocus" : "False",
                            "clipSpeedAttribute" : false
                          }
                        },
                        {
                          "id" : 1197,
                          "_type" : "UnifiedMedia",
                          "video" : 
                              {
                                "id" : 1198,
                                "_type" : "ScreenVMFile",
                                "src" : 1,
                                "trackNumber" : 0,
                                "attributes" : {
                                  "ident" : "Rec 01-10-21"
                                },
                                "parameters" : {
                                  "cursorScale" : {
                                    "type" : "double",
                                    "defaultValue" : 0.0,
                                    "interp" : "linr"
                                  },
                                  "cursorOpacity" : {
                                    "type" : "double",
                                    "defaultValue" : 0.0,
                                    "interp" : "linr"
                                  }
                                },
                                "effects" : [

                                ],
                                "start" : 7220,
                                "duration" : 36,
                                "mediaStart" : 7726,
                                "mediaDuration" : 36,
                                "scalar" : 1,
                                "animationTracks" : {

                                }
                              },
                          "audio" : 
                              {
                                "id" : 1199,
                                "_type" : "AMFile",
                                "src" : 1,
                                "trackNumber" : 1,
                                "attributes" : {
                                  "ident" : "",
                                  "gain" : 1.0,
                                  "mixToMono" : false
                                },
                                  "channelNumber" : "0,1",
                                "effects" : [

                                ],
                                "start" : 7220,
                                "duration" : 36,
                                "mediaStart" : 7726,
                                "mediaDuration" : 36,
                                "scalar" : 1,
                                "animationTracks" : {

                                }
                              }
,
                          "start" : 7220,
                          "duration" : 36,
                          "mediaStart" : 0,
                          "mediaDuration" : 25747,
                          "scalar" : 1,
                          "metadata" : {
                            "AutoAppliedSmartFocus" : "False",
                            "clipSpeedAttribute" : false
                          }
                        },
                        {
                          "id" : 1200,
                          "_type" : "UnifiedMedia",
                          "video" : 
                              {
                                "id" : 1201,
                                "_type" : "ScreenVMFile",
                                "src" : 1,
                                "trackNumber" : 0,
                                "attributes" : {
                                  "ident" : "Rec 01-10-21"
                                },
                                "parameters" : {
                                  "cursorScale" : {
                                    "type" : "double",
                                    "defaultValue" : 0.0,
                                    "interp" : "linr"
                                  },
                                  "cursorOpacity" : {
                                    "type" : "double",
                                    "defaultValue" : 0.0,
                                    "interp" : "linr"
                                  }
                                },
                                "effects" : [

                                ],
                                "start" : 7256,
                                "duration" : 229,
                                "mediaStart" : 8018,
                                "mediaDuration" : 229,
                                "scalar" : 1,
                                "animationTracks" : {

                                }
                              },
                          "audio" : 
                              {
                                "id" : 1202,
                                "_type" : "AMFile",
                                "src" : 1,
                                "trackNumber" : 1,
                                "attributes" : {
                                  "ident" : "",
                                  "gain" : 1.0,
                                  "mixToMono" : false
                                },
                                  "channelNumber" : "0,1",
                                "effects" : [

                                ],
                                "start" : 7256,
                                "duration" : 229,
                                "mediaStart" : 8018,
                                "mediaDuration" : 229,
                                "scalar" : 1,
                                "animationTracks" : {

                                }
                              }
,
                          "start" : 7256,
                          "duration" : 229,
                          "mediaStart" : 0,
                          "mediaDuration" : 25747,
                          "scalar" : 1,
                          "metadata" : {
                            "AutoAppliedSmartFocus" : "False",
                            "clipSpeedAttribute" : false
                          }
                        },
                        {
                          "id" : 1203,
                          "_type" : "UnifiedMedia",
                          "video" : 
                              {
                                "id" : 1204,
                                "_type" : "ScreenVMFile",
                                "src" : 1,
                                "trackNumber" : 0,
                                "attributes" : {
                                  "ident" : "Rec 01-10-21"
                                },
                                "parameters" : {
                                  "cursorScale" : {
                                    "type" : "double",
                                    "defaultValue" : 0.0,
                                    "interp" : "linr"
                                  },
                                  "cursorOpacity" : {
                                    "type" : "double",
                                    "defaultValue" : 0.0,
                                    "interp" : "linr"
                                  }
                                },
                                "effects" : [

                                ],
                                "start" : 7485,
                                "duration" : 115,
                                "mediaStart" : 8289,
                                "mediaDuration" : 115,
                                "scalar" : 1,
                                "animationTracks" : {

                                }
                              },
                          "audio" : 
                              {
                                "id" : 1205,
                                "_type" : "AMFile",
                                "src" : 1,
                                "trackNumber" : 1,
                                "attributes" : {
                                  "ident" : "",
                                  "gain" : 1.0,
                                  "mixToMono" : false
                                },
                                  "channelNumber" : "0,1",
                                "effects" : [

                                ],
                                "start" : 7485,
                                "duration" : 115,
                                "mediaStart" : 8289,
                                "mediaDuration" : 115,
                                "scalar" : 1,
                                "animationTracks" : {

                                }
                              }
,
                          "start" : 7485,
                          "duration" : 115,
                          "mediaStart" : 0,
                          "mediaDuration" : 25747,
                          "scalar" : 1,
                          "metadata" : {
                            "AutoAppliedSmartFocus" : "False",
                            "clipSpeedAttribute" : false
                          }
                        },
                        {
                          "id" : 1206,
                          "_type" : "UnifiedMedia",
                          "video" : 
                              {
                                "id" : 1207,
                                "_type" : "ScreenVMFile",
                                "src" : 1,
                                "trackNumber" : 0,
                                "attributes" : {
                                  "ident" : "Rec 01-10-21"
                                },
                                "parameters" : {
                                  "cursorScale" : {
                                    "type" : "double",
                                    "defaultValue" : 0.0,
                                    "interp" : "linr"
                                  },
                                  "cursorOpacity" : {
                                    "type" : "double",
                                    "defaultValue" : 0.0,
                                    "interp" : "linr"
                                  }
                                },
                                "effects" : [

                                ],
                                "start" : 7600,
                                "duration" : 58,
                                "mediaStart" : 8711,
                                "mediaDuration" : 58,
                                "scalar" : 1,
                                "animationTracks" : {

                                }
                              },
                          "audio" : 
                              {
                                "id" : 1208,
                                "_type" : "AMFile",
                                "src" : 1,
                                "trackNumber" : 1,
                                "attributes" : {
                                  "ident" : "",
                                  "gain" : 1.0,
                                  "mixToMono" : false
                                },
                                  "channelNumber" : "0,1",
                                "effects" : [

                                ],
                                "start" : 7600,
                                "duration" : 58,
                                "mediaStart" : 8711,
                                "mediaDuration" : 58,
                                "scalar" : 1,
                                "animationTracks" : {

                                }
                              }
,
                          "start" : 7600,
                          "duration" : 58,
                          "mediaStart" : 0,
                          "mediaDuration" : 25747,
                          "scalar" : 1,
                          "metadata" : {
                            "AutoAppliedSmartFocus" : "False",
                            "clipSpeedAttribute" : false
                          }
                        },
                        {
                          "id" : 1209,
                          "_type" : "UnifiedMedia",
                          "video" : 
                              {
                                "id" : 1210,
                                "_type" : "ScreenVMFile",
                                "src" : 1,
                                "trackNumber" : 0,
                                "attributes" : {
                                  "ident" : "Rec 01-10-21"
                                },
                                "parameters" : {
                                  "cursorScale" : {
                                    "type" : "double",
                                    "defaultValue" : 0.0,
                                    "interp" : "linr"
                                  },
                                  "cursorOpacity" : {
                                    "type" : "double",
                                    "defaultValue" : 0.0,
                                    "interp" : "linr"
                                  }
                                },
                                "effects" : [

                                ],
                                "start" : 7658,
                                "duration" : 45,
                                "mediaStart" : 8776,
                                "mediaDuration" : 45,
                                "scalar" : 1,
                                "animationTracks" : {

                                }
                              },
                          "audio" : 
                              {
                                "id" : 1211,
                                "_type" : "AMFile",
                                "src" : 1,
                                "trackNumber" : 1,
                                "attributes" : {
                                  "ident" : "",
                                  "gain" : 1.0,
                                  "mixToMono" : false
                                },
                                  "channelNumber" : "0,1",
                                "effects" : [

                                ],
                                "start" : 7658,
                                "duration" : 45,
                                "mediaStart" : 8776,
                                "mediaDuration" : 45,
                                "scalar" : 1,
                                "animationTracks" : {

                                }
                              }
,
                          "start" : 7658,
                          "duration" : 45,
                          "mediaStart" : 0,
                          "mediaDuration" : 25747,
                          "scalar" : 1,
                          "metadata" : {
                            "AutoAppliedSmartFocus" : "False",
                            "clipSpeedAttribute" : false
                          }
                        },
                        {
                          "id" : 1212,
                          "_type" : "UnifiedMedia",
                          "video" : 
                              {
                                "id" : 1213,
                                "_type" : "ScreenVMFile",
                                "src" : 1,
                                "trackNumber" : 0,
                                "attributes" : {
                                  "ident" : "Rec 01-10-21"
                                },
                                "parameters" : {
                                  "cursorScale" : {
                                    "type" : "double",
                                    "defaultValue" : 0.0,
                                    "interp" : "linr"
                                  },
                                  "cursorOpacity" : {
                                    "type" : "double",
                                    "defaultValue" : 0.0,
                                    "interp" : "linr"
                                  }
                                },
                                "effects" : [

                                ],
                                "start" : 7703,
                                "duration" : 46,
                                "mediaStart" : 8841,
                                "mediaDuration" : 46,
                                "scalar" : 1,
                                "animationTracks" : {

                                }
                              },
                          "audio" : 
                              {
                                "id" : 1214,
                                "_type" : "AMFile",
                                "src" : 1,
                                "trackNumber" : 1,
                                "attributes" : {
                                  "ident" : "",
                                  "gain" : 1.0,
                                  "mixToMono" : false
                                },
                                  "channelNumber" : "0,1",
                                "effects" : [

                                ],
                                "start" : 7703,
                                "duration" : 46,
                                "mediaStart" : 8841,
                                "mediaDuration" : 46,
                                "scalar" : 1,
                                "animationTracks" : {

                                }
                              }
,
                          "start" : 7703,
                          "duration" : 46,
                          "mediaStart" : 0,
                          "mediaDuration" : 25747,
                          "scalar" : 1,
                          "metadata" : {
                            "AutoAppliedSmartFocus" : "False",
                            "clipSpeedAttribute" : false
                          }
                        },
                        {
                          "id" : 1215,
                          "_type" : "UnifiedMedia",
                          "video" : 
                              {
                                "id" : 1216,
                                "_type" : "ScreenVMFile",
                                "src" : 1,
                                "trackNumber" : 0,
                                "attributes" : {
                                  "ident" : "Rec 01-10-21"
                                },
                                "parameters" : {
                                  "cursorScale" : {
                                    "type" : "double",
                                    "defaultValue" : 0.0,
                                    "interp" : "linr"
                                  },
                                  "cursorOpacity" : {
                                    "type" : "double",
                                    "defaultValue" : 0.0,
                                    "interp" : "linr"
                                  }
                                },
                                "effects" : [

                                ],
                                "start" : 7749,
                                "duration" : 1925,
                                "mediaStart" : 8937,
                                "mediaDuration" : 1925,
                                "scalar" : 1,
                                "animationTracks" : {

                                }
                              },
                          "audio" : 
                              {
                                "id" : 1217,
                                "_type" : "AMFile",
                                "src" : 1,
                                "trackNumber" : 1,
                                "attributes" : {
                                  "ident" : "",
                                  "gain" : 1.0,
                                  "mixToMono" : false
                                },
                                  "channelNumber" : "0,1",
                                "effects" : [

                                ],
                                "start" : 7749,
                                "duration" : 1925,
                                "mediaStart" : 8937,
                                "mediaDuration" : 1925,
                                "scalar" : 1,
                                "animationTracks" : {

                                }
                              }
,
                          "start" : 7749,
                          "duration" : 1925,
                          "mediaStart" : 0,
                          "mediaDuration" : 25747,
                          "scalar" : 1,
                          "metadata" : {
                            "AutoAppliedSmartFocus" : "False",
                            "clipSpeedAttribute" : false
                          }
                        },
                        {
                          "id" : 1218,
                          "_type" : "UnifiedMedia",
                          "video" : 
                              {
                                "id" : 1219,
                                "_type" : "ScreenVMFile",
                                "src" : 1,
                                "trackNumber" : 0,
                                "attributes" : {
                                  "ident" : "Rec 01-10-21"
                                },
                                "parameters" : {
                                  "cursorScale" : {
                                    "type" : "double",
                                    "defaultValue" : 0.0,
                                    "interp" : "linr"
                                  },
                                  "cursorOpacity" : {
                                    "type" : "double",
                                    "defaultValue" : 0.0,
                                    "interp" : "linr"
                                  }
                                },
                                "effects" : [

                                ],
                                "start" : 9674,
                                "duration" : 322,
                                "mediaStart" : 10938,
                                "mediaDuration" : 322,
                                "scalar" : 1,
                                "animationTracks" : {

                                }
                              },
                          "audio" : 
                              {
                                "id" : 1220,
                                "_type" : "AMFile",
                                "src" : 1,
                                "trackNumber" : 1,
                                "attributes" : {
                                  "ident" : "",
                                  "gain" : 1.0,
                                  "mixToMono" : false
                                },
                                  "channelNumber" : "0,1",
                                "effects" : [

                                ],
                                "start" : 9674,
                                "duration" : 322,
                                "mediaStart" : 10938,
                                "mediaDuration" : 322,
                                "scalar" : 1,
                                "animationTracks" : {

                                }
                              }
,
                          "start" : 9674,
                          "duration" : 322,
                          "mediaStart" : 0,
                          "mediaDuration" : 25747,
                          "scalar" : 1,
                          "metadata" : {
                            "AutoAppliedSmartFocus" : "False",
                            "clipSpeedAttribute" : false
                          }
                        },
                        {
                          "id" : 1221,
                          "_type" : "UnifiedMedia",
                          "video" : 
                              {
                                "id" : 1222,
                                "_type" : "ScreenVMFile",
                                "src" : 1,
                                "trackNumber" : 0,
                                "attributes" : {
                                  "ident" : "Rec 01-10-21"
                                },
                                "parameters" : {
                                  "cursorScale" : {
                                    "type" : "double",
                                    "defaultValue" : 0.0,
                                    "interp" : "linr"
                                  },
                                  "cursorOpacity" : {
                                    "type" : "double",
                                    "defaultValue" : 0.0,
                                    "interp" : "linr"
                                  }
                                },
                                "effects" : [

                                ],
                                "start" : 9996,
                                "duration" : 27,
                                "mediaStart" : 11328,
                                "mediaDuration" : 27,
                                "scalar" : 1,
                                "animationTracks" : {

                                }
                              },
                          "audio" : 
                              {
                                "id" : 1223,
                                "_type" : "AMFile",
                                "src" : 1,
                                "trackNumber" : 1,
                                "attributes" : {
                                  "ident" : "",
                                  "gain" : 1.0,
                                  "mixToMono" : false
                                },
                                  "channelNumber" : "0,1",
                                "effects" : [

                                ],
                                "start" : 9996,
                                "duration" : 27,
                                "mediaStart" : 11328,
                                "mediaDuration" : 27,
                                "scalar" : 1,
                                "animationTracks" : {

                                }
                              }
,
                          "start" : 9996,
                          "duration" : 27,
                          "mediaStart" : 0,
                          "mediaDuration" : 25747,
                          "scalar" : 1,
                          "metadata" : {
                            "AutoAppliedSmartFocus" : "False",
                            "clipSpeedAttribute" : false
                          }
                        },
                        {
                          "id" : 1224,
                          "_type" : "UnifiedMedia",
                          "video" : 
                              {
                                "id" : 1225,
                                "_type" : "ScreenVMFile",
                                "src" : 1,
                                "trackNumber" : 0,
                                "attributes" : {
                                  "ident" : "Rec 01-10-21"
                                },
                                "parameters" : {
                                  "cursorScale" : {
                                    "type" : "double",
                                    "defaultValue" : 0.0,
                                    "interp" : "linr"
                                  },
                                  "cursorOpacity" : {
                                    "type" : "double",
                                    "defaultValue" : 0.0,
                                    "interp" : "linr"
                                  }
                                },
                                "effects" : [

                                ],
                                "start" : 10023,
                                "duration" : 119,
                                "mediaStart" : 11424,
                                "mediaDuration" : 119,
                                "scalar" : 1,
                                "animationTracks" : {

                                }
                              },
                          "audio" : 
                              {
                                "id" : 1226,
                                "_type" : "AMFile",
                                "src" : 1,
                                "trackNumber" : 1,
                                "attributes" : {
                                  "ident" : "",
                                  "gain" : 1.0,
                                  "mixToMono" : false
                                },
                                  "channelNumber" : "0,1",
                                "effects" : [

                                ],
                                "start" : 10023,
                                "duration" : 119,
                                "mediaStart" : 11424,
                                "mediaDuration" : 119,
                                "scalar" : 1,
                                "animationTracks" : {

                                }
                              }
,
                          "start" : 10023,
                          "duration" : 119,
                          "mediaStart" : 0,
                          "mediaDuration" : 25747,
                          "scalar" : 1,
                          "metadata" : {
                            "AutoAppliedSmartFocus" : "False",
                            "clipSpeedAttribute" : false
                          }
                        },
                        {
                          "id" : 1227,
                          "_type" : "UnifiedMedia",
                          "video" : 
                              {
                                "id" : 1228,
                                "_type" : "ScreenVMFile",
                                "src" : 1,
                                "trackNumber" : 0,
                                "attributes" : {
                                  "ident" : "Rec 01-10-21"
                                },
                                "parameters" : {
                                  "cursorScale" : {
                                    "type" : "double",
                                    "defaultValue" : 0.0,
                                    "interp" : "linr"
                                  },
                                  "cursorOpacity" : {
                                    "type" : "double",
                                    "defaultValue" : 0.0,
                                    "interp" : "linr"
                                  }
                                },
                                "effects" : [

                                ],
                                "start" : 10142,
                                "duration" : 46,
                                "mediaStart" : 11727,
                                "mediaDuration" : 46,
                                "scalar" : 1,
                                "animationTracks" : {

                                }
                              },
                          "audio" : 
                              {
                                "id" : 1229,
                                "_type" : "AMFile",
                                "src" : 1,
                                "trackNumber" : 1,
                                "attributes" : {
                                  "ident" : "",
                                  "gain" : 1.0,
                                  "mixToMono" : false
                                },
                                  "channelNumber" : "0,1",
                                "effects" : [

                                ],
                                "start" : 10142,
                                "duration" : 46,
                                "mediaStart" : 11727,
                                "mediaDuration" : 46,
                                "scalar" : 1,
                                "animationTracks" : {

                                }
                              }
,
                          "start" : 10142,
                          "duration" : 46,
                          "mediaStart" : 0,
                          "mediaDuration" : 25747,
                          "scalar" : 1,
                          "metadata" : {
                            "AutoAppliedSmartFocus" : "False",
                            "clipSpeedAttribute" : false
                          }
                        },
                        {
                          "id" : 1230,
                          "_type" : "UnifiedMedia",
                          "video" : 
                              {
                                "id" : 1231,
                                "_type" : "ScreenVMFile",
                                "src" : 1,
                                "trackNumber" : 0,
                                "attributes" : {
                                  "ident" : "Rec 01-10-21"
                                },
                                "parameters" : {
                                  "cursorScale" : {
                                    "type" : "double",
                                    "defaultValue" : 0.0,
                                    "interp" : "linr"
                                  },
                                  "cursorOpacity" : {
                                    "type" : "double",
                                    "defaultValue" : 0.0,
                                    "interp" : "linr"
                                  }
                                },
                                "effects" : [

                                ],
                                "start" : 10188,
                                "duration" : 461,
                                "mediaStart" : 11870,
                                "mediaDuration" : 461,
                                "scalar" : 1,
                                "animationTracks" : {

                                }
                              },
                          "audio" : 
                              {
                                "id" : 1232,
                                "_type" : "AMFile",
                                "src" : 1,
                                "trackNumber" : 1,
                                "attributes" : {
                                  "ident" : "",
                                  "gain" : 1.0,
                                  "mixToMono" : false
                                },
                                  "channelNumber" : "0,1",
                                "effects" : [

                                ],
                                "start" : 10188,
                                "duration" : 461,
                                "mediaStart" : 11870,
                                "mediaDuration" : 461,
                                "scalar" : 1,
                                "animationTracks" : {

                                }
                              }
,
                          "start" : 10188,
                          "duration" : 461,
                          "mediaStart" : 0,
                          "mediaDuration" : 25747,
                          "scalar" : 1,
                          "metadata" : {
                            "AutoAppliedSmartFocus" : "False",
                            "clipSpeedAttribute" : false
                          }
                        },
                        {
                          "id" : 1233,
                          "_type" : "UnifiedMedia",
                          "video" : 
                              {
                                "id" : 1234,
                                "_type" : "ScreenVMFile",
                                "src" : 1,
                                "trackNumber" : 0,
                                "attributes" : {
                                  "ident" : "Rec 01-10-21"
                                },
                                "parameters" : {
                                  "cursorScale" : {
                                    "type" : "double",
                                    "defaultValue" : 0.0,
                                    "interp" : "linr"
                                  },
                                  "cursorOpacity" : {
                                    "type" : "double",
                                    "defaultValue" : 0.0,
                                    "interp" : "linr"
                                  }
                                },
                                "effects" : [

                                ],
                                "start" : 10649,
                                "duration" : 73,
                                "mediaStart" : 12767,
                                "mediaDuration" : 73,
                                "scalar" : 1,
                                "animationTracks" : {

                                }
                              },
                          "audio" : 
                              {
                                "id" : 1235,
                                "_type" : "AMFile",
                                "src" : 1,
                                "trackNumber" : 1,
                                "attributes" : {
                                  "ident" : "",
                                  "gain" : 1.0,
                                  "mixToMono" : false
                                },
                                  "channelNumber" : "0,1",
                                "effects" : [

                                ],
                                "start" : 10649,
                                "duration" : 73,
                                "mediaStart" : 12767,
                                "mediaDuration" : 73,
                                "scalar" : 1,
                                "animationTracks" : {

                                }
                              }
,
                          "start" : 10649,
                          "duration" : 73,
                          "mediaStart" : 0,
                          "mediaDuration" : 25747,
                          "scalar" : 1,
                          "metadata" : {
                            "AutoAppliedSmartFocus" : "False",
                            "clipSpeedAttribute" : false
                          }
                        },
                        {
                          "id" : 1236,
                          "_type" : "UnifiedMedia",
                          "video" : 
                              {
                                "id" : 1237,
                                "_type" : "ScreenVMFile",
                                "src" : 1,
                                "trackNumber" : 0,
                                "attributes" : {
                                  "ident" : "Rec 01-10-21"
                                },
                                "parameters" : {
                                  "cursorScale" : {
                                    "type" : "double",
                                    "defaultValue" : 0.0,
                                    "interp" : "linr"
                                  },
                                  "cursorOpacity" : {
                                    "type" : "double",
                                    "defaultValue" : 0.0,
                                    "interp" : "linr"
                                  }
                                },
                                "effects" : [

                                ],
                                "start" : 10722,
                                "duration" : 166,
                                "mediaStart" : 13215,
                                "mediaDuration" : 166,
                                "scalar" : 1,
                                "animationTracks" : {

                                }
                              },
                          "audio" : 
                              {
                                "id" : 1238,
                                "_type" : "AMFile",
                                "src" : 1,
                                "trackNumber" : 1,
                                "attributes" : {
                                  "ident" : "",
                                  "gain" : 1.0,
                                  "mixToMono" : false
                                },
                                  "channelNumber" : "0,1",
                                "effects" : [

                                ],
                                "start" : 10722,
                                "duration" : 166,
                                "mediaStart" : 13215,
                                "mediaDuration" : 166,
                                "scalar" : 1,
                                "animationTracks" : {

                                }
                              }
,
                          "start" : 10722,
                          "duration" : 166,
                          "mediaStart" : 0,
                          "mediaDuration" : 25747,
                          "scalar" : 1,
                          "metadata" : {
                            "AutoAppliedSmartFocus" : "False",
                            "clipSpeedAttribute" : false
                          }
                        },
                        {
                          "id" : 1239,
                          "_type" : "UnifiedMedia",
                          "video" : 
                              {
                                "id" : 1240,
                                "_type" : "ScreenVMFile",
                                "src" : 1,
                                "trackNumber" : 0,
                                "attributes" : {
                                  "ident" : "Rec 01-10-21"
                                },
                                "parameters" : {
                                  "cursorScale" : {
                                    "type" : "double",
                                    "defaultValue" : 0.0,
                                    "interp" : "linr"
                                  },
                                  "cursorOpacity" : {
                                    "type" : "double",
                                    "defaultValue" : 0.0,
                                    "interp" : "linr"
                                  }
                                },
                                "effects" : [

                                ],
                                "start" : 10888,
                                "duration" : 305,
                                "mediaStart" : 13397,
                                "mediaDuration" : 305,
                                "scalar" : 1,
                                "animationTracks" : {

                                }
                              },
                          "audio" : 
                              {
                                "id" : 1241,
                                "_type" : "AMFile",
                                "src" : 1,
                                "trackNumber" : 1,
                                "attributes" : {
                                  "ident" : "",
                                  "gain" : 1.0,
                                  "mixToMono" : false
                                },
                                  "channelNumber" : "0,1",
                                "effects" : [

                                ],
                                "start" : 10888,
                                "duration" : 305,
                                "mediaStart" : 13397,
                                "mediaDuration" : 305,
                                "scalar" : 1,
                                "animationTracks" : {

                                }
                              }
,
                          "start" : 10888,
                          "duration" : 305,
                          "mediaStart" : 0,
                          "mediaDuration" : 25747,
                          "scalar" : 1,
                          "metadata" : {
                            "AutoAppliedSmartFocus" : "False",
                            "clipSpeedAttribute" : false
                          }
                        },
                        {
                          "id" : 1242,
                          "_type" : "UnifiedMedia",
                          "video" : 
                              {
                                "id" : 1243,
                                "_type" : "ScreenVMFile",
                                "src" : 1,
                                "trackNumber" : 0,
                                "attributes" : {
                                  "ident" : "Rec 01-10-21"
                                },
                                "parameters" : {
                                  "cursorScale" : {
                                    "type" : "double",
                                    "defaultValue" : 0.0,
                                    "interp" : "linr"
                                  },
                                  "cursorOpacity" : {
                                    "type" : "double",
                                    "defaultValue" : 0.0,
                                    "interp" : "linr"
                                  }
                                },
                                "effects" : [

                                ],
                                "start" : 11193,
                                "duration" : 196,
                                "mediaStart" : 13738,
                                "mediaDuration" : 196,
                                "scalar" : 1,
                                "animationTracks" : {

                                }
                              },
                          "audio" : 
                              {
                                "id" : 1244,
                                "_type" : "AMFile",
                                "src" : 1,
                                "trackNumber" : 1,
                                "attributes" : {
                                  "ident" : "",
                                  "gain" : 1.0,
                                  "mixToMono" : false
                                },
                                  "channelNumber" : "0,1",
                                "effects" : [

                                ],
                                "start" : 11193,
                                "duration" : 196,
                                "mediaStart" : 13738,
                                "mediaDuration" : 196,
                                "scalar" : 1,
                                "animationTracks" : {

                                }
                              }
,
                          "start" : 11193,
                          "duration" : 196,
                          "mediaStart" : 0,
                          "mediaDuration" : 25747,
                          "scalar" : 1,
                          "metadata" : {
                            "AutoAppliedSmartFocus" : "False",
                            "clipSpeedAttribute" : false
                          }
                        },
                        {
                          "id" : 1245,
                          "_type" : "UnifiedMedia",
                          "video" : 
                              {
                                "id" : 1246,
                                "_type" : "ScreenVMFile",
                                "src" : 1,
                                "trackNumber" : 0,
                                "attributes" : {
                                  "ident" : "Rec 01-10-21"
                                },
                                "parameters" : {
                                  "cursorScale" : {
                                    "type" : "double",
                                    "defaultValue" : 0.0,
                                    "interp" : "linr"
                                  },
                                  "cursorOpacity" : {
                                    "type" : "double",
                                    "defaultValue" : 0.0,
                                    "interp" : "linr"
                                  }
                                },
                                "effects" : [

                                ],
                                "start" : 11389,
                                "duration" : 54,
                                "mediaStart" : 13961,
                                "mediaDuration" : 54,
                                "scalar" : 1,
                                "animationTracks" : {

                                }
                              },
                          "audio" : 
                              {
                                "id" : 1247,
                                "_type" : "AMFile",
                                "src" : 1,
                                "trackNumber" : 1,
                                "attributes" : {
                                  "ident" : "",
                                  "gain" : 1.0,
                                  "mixToMono" : false
                                },
                                  "channelNumber" : "0,1",
                                "effects" : [

                                ],
                                "start" : 11389,
                                "duration" : 54,
                                "mediaStart" : 13961,
                                "mediaDuration" : 54,
                                "scalar" : 1,
                                "animationTracks" : {

                                }
                              }
,
                          "start" : 11389,
                          "duration" : 54,
                          "mediaStart" : 0,
                          "mediaDuration" : 25747,
                          "scalar" : 1,
                          "metadata" : {
                            "AutoAppliedSmartFocus" : "False",
                            "clipSpeedAttribute" : false
                          }
                        },
                        {
                          "id" : 1248,
                          "_type" : "UnifiedMedia",
                          "video" : 
                              {
                                "id" : 1249,
                                "_type" : "ScreenVMFile",
                                "src" : 1,
                                "trackNumber" : 0,
                                "attributes" : {
                                  "ident" : "Rec 01-10-21"
                                },
                                "parameters" : {
                                  "cursorScale" : {
                                    "type" : "double",
                                    "defaultValue" : 0.0,
                                    "interp" : "linr"
                                  },
                                  "cursorOpacity" : {
                                    "type" : "double",
                                    "defaultValue" : 0.0,
                                    "interp" : "linr"
                                  }
                                },
                                "effects" : [

                                ],
                                "start" : 11443,
                                "duration" : 28,
                                "mediaStart" : 14029,
                                "mediaDuration" : 28,
                                "scalar" : 1,
                                "animationTracks" : {

                                }
                              },
                          "audio" : 
                              {
                                "id" : 1250,
                                "_type" : "AMFile",
                                "src" : 1,
                                "trackNumber" : 1,
                                "attributes" : {
                                  "ident" : "",
                                  "gain" : 1.0,
                                  "mixToMono" : false
                                },
                                  "channelNumber" : "0,1",
                                "effects" : [

                                ],
                                "start" : 11443,
                                "duration" : 28,
                                "mediaStart" : 14029,
                                "mediaDuration" : 28,
                                "scalar" : 1,
                                "animationTracks" : {

                                }
                              }
,
                          "start" : 11443,
                          "duration" : 28,
                          "mediaStart" : 0,
                          "mediaDuration" : 25747,
                          "scalar" : 1,
                          "metadata" : {
                            "AutoAppliedSmartFocus" : "False",
                            "clipSpeedAttribute" : false
                          }
                        },
                        {
                          "id" : 1251,
                          "_type" : "UnifiedMedia",
                          "video" : 
                              {
                                "id" : 1252,
                                "_type" : "ScreenVMFile",
                                "src" : 1,
                                "trackNumber" : 0,
                                "attributes" : {
                                  "ident" : "Rec 01-10-21"
                                },
                                "parameters" : {
                                  "cursorScale" : {
                                    "type" : "double",
                                    "defaultValue" : 0.0,
                                    "interp" : "linr"
                                  },
                                  "cursorOpacity" : {
                                    "type" : "double",
                                    "defaultValue" : 0.0,
                                    "interp" : "linr"
                                  }
                                },
                                "effects" : [

                                ],
                                "start" : 11471,
                                "duration" : 48,
                                "mediaStart" : 14274,
                                "mediaDuration" : 48,
                                "scalar" : 1,
                                "animationTracks" : {

                                }
                              },
                          "audio" : 
                              {
                                "id" : 1253,
                                "_type" : "AMFile",
                                "src" : 1,
                                "trackNumber" : 1,
                                "attributes" : {
                                  "ident" : "",
                                  "gain" : 1.0,
                                  "mixToMono" : false
                                },
                                  "channelNumber" : "0,1",
                                "effects" : [

                                ],
                                "start" : 11471,
                                "duration" : 48,
                                "mediaStart" : 14274,
                                "mediaDuration" : 48,
                                "scalar" : 1,
                                "animationTracks" : {

                                }
                              }
,
                          "start" : 11471,
                          "duration" : 48,
                          "mediaStart" : 0,
                          "mediaDuration" : 25747,
                          "scalar" : 1,
                          "metadata" : {
                            "AutoAppliedSmartFocus" : "False",
                            "clipSpeedAttribute" : false
                          }
                        },
                        {
                          "id" : 1254,
                          "_type" : "UnifiedMedia",
                          "video" : 
                              {
                                "id" : 1255,
                                "_type" : "ScreenVMFile",
                                "src" : 1,
                                "trackNumber" : 0,
                                "attributes" : {
                                  "ident" : "Rec 01-10-21"
                                },
                                "parameters" : {
                                  "cursorScale" : {
                                    "type" : "double",
                                    "defaultValue" : 0.0,
                                    "interp" : "linr"
                                  },
                                  "cursorOpacity" : {
                                    "type" : "double",
                                    "defaultValue" : 0.0,
                                    "interp" : "linr"
                                  }
                                },
                                "effects" : [

                                ],
                                "start" : 11519,
                                "duration" : 118,
                                "mediaStart" : 14378,
                                "mediaDuration" : 118,
                                "scalar" : 1,
                                "animationTracks" : {

                                }
                              },
                          "audio" : 
                              {
                                "id" : 1256,
                                "_type" : "AMFile",
                                "src" : 1,
                                "trackNumber" : 1,
                                "attributes" : {
                                  "ident" : "",
                                  "gain" : 1.0,
                                  "mixToMono" : false
                                },
                                  "channelNumber" : "0,1",
                                "effects" : [

                                ],
                                "start" : 11519,
                                "duration" : 118,
                                "mediaStart" : 14378,
                                "mediaDuration" : 118,
                                "scalar" : 1,
                                "animationTracks" : {

                                }
                              }
,
                          "start" : 11519,
                          "duration" : 118,
                          "mediaStart" : 0,
                          "mediaDuration" : 25747,
                          "scalar" : 1,
                          "metadata" : {
                            "AutoAppliedSmartFocus" : "False",
                            "clipSpeedAttribute" : false
                          }
                        },
                        {
                          "id" : 1257,
                          "_type" : "UnifiedMedia",
                          "video" : 
                              {
                                "id" : 1258,
                                "_type" : "ScreenVMFile",
                                "src" : 1,
                                "trackNumber" : 0,
                                "attributes" : {
                                  "ident" : "Rec 01-10-21"
                                },
                                "parameters" : {
                                  "cursorScale" : {
                                    "type" : "double",
                                    "defaultValue" : 0.0,
                                    "interp" : "linr"
                                  },
                                  "cursorOpacity" : {
                                    "type" : "double",
                                    "defaultValue" : 0.0,
                                    "interp" : "linr"
                                  }
                                },
                                "effects" : [

                                ],
                                "start" : 11637,
                                "duration" : 252,
                                "mediaStart" : 14503,
                                "mediaDuration" : 252,
                                "scalar" : 1,
                                "animationTracks" : {

                                }
                              },
                          "audio" : 
                              {
                                "id" : 1259,
                                "_type" : "AMFile",
                                "src" : 1,
                                "trackNumber" : 1,
                                "attributes" : {
                                  "ident" : "",
                                  "gain" : 1.0,
                                  "mixToMono" : false
                                },
                                  "channelNumber" : "0,1",
                                "effects" : [

                                ],
                                "start" : 11637,
                                "duration" : 252,
                                "mediaStart" : 14503,
                                "mediaDuration" : 252,
                                "scalar" : 1,
                                "animationTracks" : {

                                }
                              }
,
                          "start" : 11637,
                          "duration" : 252,
                          "mediaStart" : 0,
                          "mediaDuration" : 25747,
                          "scalar" : 1,
                          "metadata" : {
                            "AutoAppliedSmartFocus" : "False",
                            "clipSpeedAttribute" : false
                          }
                        },
                        {
                          "id" : 1260,
                          "_type" : "UnifiedMedia",
                          "video" : 
                              {
                                "id" : 1261,
                                "_type" : "ScreenVMFile",
                                "src" : 1,
                                "trackNumber" : 0,
                                "attributes" : {
                                  "ident" : "Rec 01-10-21"
                                },
                                "parameters" : {
                                  "cursorScale" : {
                                    "type" : "double",
                                    "defaultValue" : 0.0,
                                    "interp" : "linr"
                                  },
                                  "cursorOpacity" : {
                                    "type" : "double",
                                    "defaultValue" : 0.0,
                                    "interp" : "linr"
                                  }
                                },
                                "effects" : [

                                ],
                                "start" : 11889,
                                "duration" : 127,
                                "mediaStart" : 14814,
                                "mediaDuration" : 127,
                                "scalar" : 1,
                                "animationTracks" : {

                                }
                              },
                          "audio" : 
                              {
                                "id" : 1262,
                                "_type" : "AMFile",
                                "src" : 1,
                                "trackNumber" : 1,
                                "attributes" : {
                                  "ident" : "",
                                  "gain" : 1.0,
                                  "mixToMono" : false
                                },
                                  "channelNumber" : "0,1",
                                "effects" : [

                                ],
                                "start" : 11889,
                                "duration" : 127,
                                "mediaStart" : 14814,
                                "mediaDuration" : 127,
                                "scalar" : 1,
                                "animationTracks" : {

                                }
                              }
,
                          "start" : 11889,
                          "duration" : 127,
                          "mediaStart" : 0,
                          "mediaDuration" : 25747,
                          "scalar" : 1,
                          "metadata" : {
                            "AutoAppliedSmartFocus" : "False",
                            "clipSpeedAttribute" : false
                          }
                        },
                        {
                          "id" : 1263,
                          "_type" : "UnifiedMedia",
                          "video" : 
                              {
                                "id" : 1264,
                                "_type" : "ScreenVMFile",
                                "src" : 1,
                                "trackNumber" : 0,
                                "attributes" : {
                                  "ident" : "Rec 01-10-21"
                                },
                                "parameters" : {
                                  "cursorScale" : {
                                    "type" : "double",
                                    "defaultValue" : 0.0,
                                    "interp" : "linr"
                                  },
                                  "cursorOpacity" : {
                                    "type" : "double",
                                    "defaultValue" : 0.0,
                                    "interp" : "linr"
                                  }
                                },
                                "effects" : [

                                ],
                                "start" : 12016,
                                "duration" : 43,
                                "mediaStart" : 14962,
                                "mediaDuration" : 43,
                                "scalar" : 1,
                                "animationTracks" : {

                                }
                              },
                          "audio" : 
                              {
                                "id" : 1265,
                                "_type" : "AMFile",
                                "src" : 1,
                                "trackNumber" : 1,
                                "attributes" : {
                                  "ident" : "",
                                  "gain" : 1.0,
                                  "mixToMono" : false
                                },
                                  "channelNumber" : "0,1",
                                "effects" : [

                                ],
                                "start" : 12016,
                                "duration" : 43,
                                "mediaStart" : 14962,
                                "mediaDuration" : 43,
                                "scalar" : 1,
                                "animationTracks" : {

                                }
                              }
,
                          "start" : 12016,
                          "duration" : 43,
                          "mediaStart" : 0,
                          "mediaDuration" : 25747,
                          "scalar" : 1,
                          "metadata" : {
                            "AutoAppliedSmartFocus" : "False",
                            "clipSpeedAttribute" : false
                          }
                        },
                        {
                          "id" : 1266,
                          "_type" : "UnifiedMedia",
                          "video" : 
                              {
                                "id" : 1267,
                                "_type" : "ScreenVMFile",
                                "src" : 1,
                                "trackNumber" : 0,
                                "attributes" : {
                                  "ident" : "Rec 01-10-21"
                                },
                                "parameters" : {
                                  "cursorScale" : {
                                    "type" : "double",
                                    "defaultValue" : 0.0,
                                    "interp" : "linr"
                                  },
                                  "cursorOpacity" : {
                                    "type" : "double",
                                    "defaultValue" : 0.0,
                                    "interp" : "linr"
                                  }
                                },
                                "effects" : [

                                ],
                                "start" : 12059,
                                "duration" : 84,
                                "mediaStart" : 15016,
                                "mediaDuration" : 84,
                                "scalar" : 1,
                                "animationTracks" : {

                                }
                              },
                          "audio" : 
                              {
                                "id" : 1268,
                                "_type" : "AMFile",
                                "src" : 1,
                                "trackNumber" : 1,
                                "attributes" : {
                                  "ident" : "",
                                  "gain" : 1.0,
                                  "mixToMono" : false
                                },
                                  "channelNumber" : "0,1",
                                "effects" : [

                                ],
                                "start" : 12059,
                                "duration" : 84,
                                "mediaStart" : 15016,
                                "mediaDuration" : 84,
                                "scalar" : 1,
                                "animationTracks" : {

                                }
                              }
,
                          "start" : 12059,
                          "duration" : 84,
                          "mediaStart" : 0,
                          "mediaDuration" : 25747,
                          "scalar" : 1,
                          "metadata" : {
                            "AutoAppliedSmartFocus" : "False",
                            "clipSpeedAttribute" : false
                          }
                        },
                        {
                          "id" : 1269,
                          "_type" : "UnifiedMedia",
                          "video" : 
                              {
                                "id" : 1270,
                                "_type" : "ScreenVMFile",
                                "src" : 1,
                                "trackNumber" : 0,
                                "attributes" : {
                                  "ident" : "Rec 01-10-21"
                                },
                                "parameters" : {
                                  "cursorScale" : {
                                    "type" : "double",
                                    "defaultValue" : 0.0,
                                    "interp" : "linr"
                                  },
                                  "cursorOpacity" : {
                                    "type" : "double",
                                    "defaultValue" : 0.0,
                                    "interp" : "linr"
                                  }
                                },
                                "effects" : [

                                ],
                                "start" : 12143,
                                "duration" : 108,
                                "mediaStart" : 15147,
                                "mediaDuration" : 108,
                                "scalar" : 1,
                                "animationTracks" : {

                                }
                              },
                          "audio" : 
                              {
                                "id" : 1271,
                                "_type" : "AMFile",
                                "src" : 1,
                                "trackNumber" : 1,
                                "attributes" : {
                                  "ident" : "",
                                  "gain" : 1.0,
                                  "mixToMono" : false
                                },
                                  "channelNumber" : "0,1",
                                "effects" : [

                                ],
                                "start" : 12143,
                                "duration" : 108,
                                "mediaStart" : 15147,
                                "mediaDuration" : 108,
                                "scalar" : 1,
                                "animationTracks" : {

                                }
                              }
,
                          "start" : 12143,
                          "duration" : 108,
                          "mediaStart" : 0,
                          "mediaDuration" : 25747,
                          "scalar" : 1,
                          "metadata" : {
                            "AutoAppliedSmartFocus" : "False",
                            "clipSpeedAttribute" : false
                          }
                        },
                        {
                          "id" : 1272,
                          "_type" : "UnifiedMedia",
                          "video" : 
                              {
                                "id" : 1273,
                                "_type" : "ScreenVMFile",
                                "src" : 1,
                                "trackNumber" : 0,
                                "attributes" : {
                                  "ident" : "Rec 01-10-21"
                                },
                                "parameters" : {
                                  "cursorScale" : {
                                    "type" : "double",
                                    "defaultValue" : 0.0,
                                    "interp" : "linr"
                                  },
                                  "cursorOpacity" : {
                                    "type" : "double",
                                    "defaultValue" : 0.0,
                                    "interp" : "linr"
                                  }
                                },
                                "effects" : [

                                ],
                                "start" : 12251,
                                "duration" : 36,
                                "mediaStart" : 15274,
                                "mediaDuration" : 36,
                                "scalar" : 1,
                                "animationTracks" : {

                                }
                              },
                          "audio" : 
                              {
                                "id" : 1274,
                                "_type" : "AMFile",
                                "src" : 1,
                                "trackNumber" : 1,
                                "attributes" : {
                                  "ident" : "",
                                  "gain" : 1.0,
                                  "mixToMono" : false
                                },
                                  "channelNumber" : "0,1",
                                "effects" : [

                                ],
                                "start" : 12251,
                                "duration" : 36,
                                "mediaStart" : 15274,
                                "mediaDuration" : 36,
                                "scalar" : 1,
                                "animationTracks" : {

                                }
                              }
,
                          "start" : 12251,
                          "duration" : 36,
                          "mediaStart" : 0,
                          "mediaDuration" : 25747,
                          "scalar" : 1,
                          "metadata" : {
                            "AutoAppliedSmartFocus" : "False",
                            "clipSpeedAttribute" : false
                          }
                        },
                        {
                          "id" : 1275,
                          "_type" : "UnifiedMedia",
                          "video" : 
                              {
                                "id" : 1276,
                                "_type" : "ScreenVMFile",
                                "src" : 1,
                                "trackNumber" : 0,
                                "attributes" : {
                                  "ident" : "Rec 01-10-21"
                                },
                                "parameters" : {
                                  "cursorScale" : {
                                    "type" : "double",
                                    "defaultValue" : 0.0,
                                    "interp" : "linr"
                                  },
                                  "cursorOpacity" : {
                                    "type" : "double",
                                    "defaultValue" : 0.0,
                                    "interp" : "linr"
                                  }
                                },
                                "effects" : [

                                ],
                                "start" : 12287,
                                "duration" : 207,
                                "mediaStart" : 15343,
                                "mediaDuration" : 207,
                                "scalar" : 1,
                                "animationTracks" : {

                                }
                              },
                          "audio" : 
                              {
                                "id" : 1277,
                                "_type" : "AMFile",
                                "src" : 1,
                                "trackNumber" : 1,
                                "attributes" : {
                                  "ident" : "",
                                  "gain" : 1.0,
                                  "mixToMono" : false
                                },
                                  "channelNumber" : "0,1",
                                "effects" : [

                                ],
                                "start" : 12287,
                                "duration" : 207,
                                "mediaStart" : 15343,
                                "mediaDuration" : 207,
                                "scalar" : 1,
                                "animationTracks" : {

                                }
                              }
,
                          "start" : 12287,
                          "duration" : 207,
                          "mediaStart" : 0,
                          "mediaDuration" : 25747,
                          "scalar" : 1,
                          "metadata" : {
                            "AutoAppliedSmartFocus" : "False",
                            "clipSpeedAttribute" : false
                          }
                        },
                        {
                          "id" : 1278,
                          "_type" : "UnifiedMedia",
                          "video" : 
                              {
                                "id" : 1279,
                                "_type" : "ScreenVMFile",
                                "src" : 1,
                                "trackNumber" : 0,
                                "attributes" : {
                                  "ident" : "Rec 01-10-21"
                                },
                                "parameters" : {
                                  "cursorScale" : {
                                    "type" : "double",
                                    "defaultValue" : 0.0,
                                    "interp" : "linr"
                                  },
                                  "cursorOpacity" : {
                                    "type" : "double",
                                    "defaultValue" : 0.0,
                                    "interp" : "linr"
                                  }
                                },
                                "effects" : [

                                ],
                                "start" : 12494,
                                "duration" : 136,
                                "mediaStart" : 15590,
                                "mediaDuration" : 136,
                                "scalar" : 1,
                                "animationTracks" : {

                                }
                              },
                          "audio" : 
                              {
                                "id" : 1280,
                                "_type" : "AMFile",
                                "src" : 1,
                                "trackNumber" : 1,
                                "attributes" : {
                                  "ident" : "",
                                  "gain" : 1.0,
                                  "mixToMono" : false
                                },
                                  "channelNumber" : "0,1",
                                "effects" : [

                                ],
                                "start" : 12494,
                                "duration" : 136,
                                "mediaStart" : 15590,
                                "mediaDuration" : 136,
                                "scalar" : 1,
                                "animationTracks" : {

                                }
                              }
,
                          "start" : 12494,
                          "duration" : 136,
                          "mediaStart" : 0,
                          "mediaDuration" : 25747,
                          "scalar" : 1,
                          "metadata" : {
                            "AutoAppliedSmartFocus" : "False",
                            "clipSpeedAttribute" : false
                          }
                        },
                        {
                          "id" : 1281,
                          "_type" : "UnifiedMedia",
                          "video" : 
                              {
                                "id" : 1282,
                                "_type" : "ScreenVMFile",
                                "src" : 1,
                                "trackNumber" : 0,
                                "attributes" : {
                                  "ident" : "Rec 01-10-21"
                                },
                                "parameters" : {
                                  "cursorScale" : {
                                    "type" : "double",
                                    "defaultValue" : 0.0,
                                    "interp" : "linr"
                                  },
                                  "cursorOpacity" : {
                                    "type" : "double",
                                    "defaultValue" : 0.0,
                                    "interp" : "linr"
                                  }
                                },
                                "effects" : [

                                ],
                                "start" : 12630,
                                "duration" : 85,
                                "mediaStart" : 15788,
                                "mediaDuration" : 85,
                                "scalar" : 1,
                                "animationTracks" : {

                                }
                              },
                          "audio" : 
                              {
                                "id" : 1283,
                                "_type" : "AMFile",
                                "src" : 1,
                                "trackNumber" : 1,
                                "attributes" : {
                                  "ident" : "",
                                  "gain" : 1.0,
                                  "mixToMono" : false
                                },
                                  "channelNumber" : "0,1",
                                "effects" : [

                                ],
                                "start" : 12630,
                                "duration" : 85,
                                "mediaStart" : 15788,
                                "mediaDuration" : 85,
                                "scalar" : 1,
                                "animationTracks" : {

                                }
                              }
,
                          "start" : 12630,
                          "duration" : 85,
                          "mediaStart" : 0,
                          "mediaDuration" : 25747,
                          "scalar" : 1,
                          "metadata" : {
                            "AutoAppliedSmartFocus" : "False",
                            "clipSpeedAttribute" : false
                          }
                        },
                        {
                          "id" : 1284,
                          "_type" : "UnifiedMedia",
                          "video" : 
                              {
                                "id" : 1285,
                                "_type" : "ScreenVMFile",
                                "src" : 1,
                                "trackNumber" : 0,
                                "attributes" : {
                                  "ident" : "Rec 01-10-21"
                                },
                                "parameters" : {
                                  "cursorScale" : {
                                    "type" : "double",
                                    "defaultValue" : 0.0,
                                    "interp" : "linr"
                                  },
                                  "cursorOpacity" : {
                                    "type" : "double",
                                    "defaultValue" : 0.0,
                                    "interp" : "linr"
                                  }
                                },
                                "effects" : [

                                ],
                                "start" : 12715,
                                "duration" : 132,
                                "mediaStart" : 15926,
                                "mediaDuration" : 132,
                                "scalar" : 1,
                                "animationTracks" : {

                                }
                              },
                          "audio" : 
                              {
                                "id" : 1286,
                                "_type" : "AMFile",
                                "src" : 1,
                                "trackNumber" : 1,
                                "attributes" : {
                                  "ident" : "",
                                  "gain" : 1.0,
                                  "mixToMono" : false
                                },
                                  "channelNumber" : "0,1",
                                "effects" : [

                                ],
                                "start" : 12715,
                                "duration" : 132,
                                "mediaStart" : 15926,
                                "mediaDuration" : 132,
                                "scalar" : 1,
                                "animationTracks" : {

                                }
                              }
,
                          "start" : 12715,
                          "duration" : 132,
                          "mediaStart" : 0,
                          "mediaDuration" : 25747,
                          "scalar" : 1,
                          "metadata" : {
                            "AutoAppliedSmartFocus" : "False",
                            "clipSpeedAttribute" : false
                          }
                        },
                        {
                          "id" : 1287,
                          "_type" : "UnifiedMedia",
                          "video" : 
                              {
                                "id" : 1288,
                                "_type" : "ScreenVMFile",
                                "src" : 1,
                                "trackNumber" : 0,
                                "attributes" : {
                                  "ident" : "Rec 01-10-21"
                                },
                                "parameters" : {
                                  "cursorScale" : {
                                    "type" : "double",
                                    "defaultValue" : 0.0,
                                    "interp" : "linr"
                                  },
                                  "cursorOpacity" : {
                                    "type" : "double",
                                    "defaultValue" : 0.0,
                                    "interp" : "linr"
                                  }
                                },
                                "effects" : [

                                ],
                                "start" : 12847,
                                "duration" : 60,
                                "mediaStart" : 16118,
                                "mediaDuration" : 60,
                                "scalar" : 1,
                                "animationTracks" : {

                                }
                              },
                          "audio" : 
                              {
                                "id" : 1289,
                                "_type" : "AMFile",
                                "src" : 1,
                                "trackNumber" : 1,
                                "attributes" : {
                                  "ident" : "",
                                  "gain" : 1.0,
                                  "mixToMono" : false
                                },
                                  "channelNumber" : "0,1",
                                "effects" : [

                                ],
                                "start" : 12847,
                                "duration" : 60,
                                "mediaStart" : 16118,
                                "mediaDuration" : 60,
                                "scalar" : 1,
                                "animationTracks" : {

                                }
                              }
,
                          "start" : 12847,
                          "duration" : 60,
                          "mediaStart" : 0,
                          "mediaDuration" : 25747,
                          "scalar" : 1,
                          "metadata" : {
                            "AutoAppliedSmartFocus" : "False",
                            "clipSpeedAttribute" : false
                          }
                        },
                        {
                          "id" : 1290,
                          "_type" : "UnifiedMedia",
                          "video" : 
                              {
                                "id" : 1291,
                                "_type" : "ScreenVMFile",
                                "src" : 1,
                                "trackNumber" : 0,
                                "attributes" : {
                                  "ident" : "Rec 01-10-21"
                                },
                                "parameters" : {
                                  "cursorScale" : {
                                    "type" : "double",
                                    "defaultValue" : 0.0,
                                    "interp" : "linr"
                                  },
                                  "cursorOpacity" : {
                                    "type" : "double",
                                    "defaultValue" : 0.0,
                                    "interp" : "linr"
                                  }
                                },
                                "effects" : [

                                ],
                                "start" : 12907,
                                "duration" : 7,
                                "mediaStart" : 16638,
                                "mediaDuration" : 7,
                                "scalar" : 1,
                                "animationTracks" : {

                                }
                              },
                          "audio" : 
                              {
                                "id" : 1292,
                                "_type" : "AMFile",
                                "src" : 1,
                                "trackNumber" : 1,
                                "attributes" : {
                                  "ident" : "",
                                  "gain" : 1.0,
                                  "mixToMono" : false
                                },
                                  "channelNumber" : "0,1",
                                "effects" : [

                                ],
                                "start" : 12907,
                                "duration" : 7,
                                "mediaStart" : 16638,
                                "mediaDuration" : 7,
                                "scalar" : 1,
                                "animationTracks" : {

                                }
                              }
,
                          "start" : 12907,
                          "duration" : 7,
                          "mediaStart" : 0,
                          "mediaDuration" : 25747,
                          "scalar" : 1,
                          "metadata" : {
                            "AutoAppliedSmartFocus" : "False",
                            "clipSpeedAttribute" : false
                          }
                        },
                        {
                          "id" : 1293,
                          "_type" : "UnifiedMedia",
                          "video" : 
                              {
                                "id" : 1294,
                                "_type" : "ScreenVMFile",
                                "src" : 1,
                                "trackNumber" : 0,
                                "attributes" : {
                                  "ident" : "Rec 01-10-21"
                                },
                                "parameters" : {
                                  "cursorScale" : {
                                    "type" : "double",
                                    "defaultValue" : 0.0,
                                    "interp" : "linr"
                                  },
                                  "cursorOpacity" : {
                                    "type" : "double",
                                    "defaultValue" : 0.0,
                                    "interp" : "linr"
                                  }
                                },
                                "effects" : [

                                ],
                                "start" : 12914,
                                "duration" : 90,
                                "mediaStart" : 16843,
                                "mediaDuration" : 90,
                                "scalar" : 1,
                                "animationTracks" : {

                                }
                              },
                          "audio" : 
                              {
                                "id" : 1295,
                                "_type" : "AMFile",
                                "src" : 1,
                                "trackNumber" : 1,
                                "attributes" : {
                                  "ident" : "",
                                  "gain" : 1.0,
                                  "mixToMono" : false
                                },
                                  "channelNumber" : "0,1",
                                "effects" : [

                                ],
                                "start" : 12914,
                                "duration" : 90,
                                "mediaStart" : 16843,
                                "mediaDuration" : 90,
                                "scalar" : 1,
                                "animationTracks" : {

                                }
                              }
,
                          "start" : 12914,
                          "duration" : 90,
                          "mediaStart" : 0,
                          "mediaDuration" : 25747,
                          "scalar" : 1,
                          "metadata" : {
                            "AutoAppliedSmartFocus" : "False",
                            "clipSpeedAttribute" : false
                          }
                        },
                        {
                          "id" : 1296,
                          "_type" : "UnifiedMedia",
                          "video" : 
                              {
                                "id" : 1297,
                                "_type" : "ScreenVMFile",
                                "src" : 1,
                                "trackNumber" : 0,
                                "attributes" : {
                                  "ident" : "Rec 01-10-21"
                                },
                                "parameters" : {
                                  "cursorScale" : {
                                    "type" : "double",
                                    "defaultValue" : 0.0,
                                    "interp" : "linr"
                                  },
                                  "cursorOpacity" : {
                                    "type" : "double",
                                    "defaultValue" : 0.0,
                                    "interp" : "linr"
                                  }
                                },
                                "effects" : [

                                ],
                                "start" : 13004,
                                "duration" : 3,
                                "mediaStart" : 16991,
                                "mediaDuration" : 3,
                                "scalar" : 1,
                                "animationTracks" : {

                                }
                              },
                          "audio" : 
                              {
                                "id" : 1298,
                                "_type" : "AMFile",
                                "src" : 1,
                                "trackNumber" : 1,
                                "attributes" : {
                                  "ident" : "",
                                  "gain" : 1.0,
                                  "mixToMono" : false
                                },
                                  "channelNumber" : "0,1",
                                "effects" : [

                                ],
                                "start" : 13004,
                                "duration" : 3,
                                "mediaStart" : 16991,
                                "mediaDuration" : 3,
                                "scalar" : 1,
                                "animationTracks" : {

                                }
                              }
,
                          "start" : 13004,
                          "duration" : 3,
                          "mediaStart" : 0,
                          "mediaDuration" : 25747,
                          "scalar" : 1,
                          "metadata" : {
                            "AutoAppliedSmartFocus" : "False",
                            "clipSpeedAttribute" : false
                          }
                        },
                        {
                          "id" : 1299,
                          "_type" : "UnifiedMedia",
                          "video" : 
                              {
                                "id" : 1300,
                                "_type" : "ScreenVMFile",
                                "src" : 1,
                                "trackNumber" : 0,
                                "attributes" : {
                                  "ident" : "Rec 01-10-21"
                                },
                                "parameters" : {
                                  "cursorScale" : {
                                    "type" : "double",
                                    "defaultValue" : 0.0,
                                    "interp" : "linr"
                                  },
                                  "cursorOpacity" : {
                                    "type" : "double",
                                    "defaultValue" : 0.0,
                                    "interp" : "linr"
                                  }
                                },
                                "effects" : [

                                ],
                                "start" : 13007,
                                "duration" : 864,
                                "mediaStart" : 17051,
                                "mediaDuration" : 864,
                                "scalar" : 1,
                                "animationTracks" : {

                                }
                              },
                          "audio" : 
                              {
                                "id" : 1301,
                                "_type" : "AMFile",
                                "src" : 1,
                                "trackNumber" : 1,
                                "attributes" : {
                                  "ident" : "",
                                  "gain" : 1.0,
                                  "mixToMono" : false
                                },
                                  "channelNumber" : "0,1",
                                "effects" : [

                                ],
                                "start" : 13007,
                                "duration" : 864,
                                "mediaStart" : 17051,
                                "mediaDuration" : 864,
                                "scalar" : 1,
                                "animationTracks" : {

                                }
                              }
,
                          "start" : 13007,
                          "duration" : 864,
                          "mediaStart" : 0,
                          "mediaDuration" : 25747,
                          "scalar" : 1,
                          "metadata" : {
                            "AutoAppliedSmartFocus" : "False",
                            "clipSpeedAttribute" : false
                          }
                        },
                        {
                          "id" : 1302,
                          "_type" : "UnifiedMedia",
                          "video" : 
                              {
                                "id" : 1303,
                                "_type" : "ScreenVMFile",
                                "src" : 1,
                                "trackNumber" : 0,
                                "attributes" : {
                                  "ident" : "Rec 01-10-21"
                                },
                                "parameters" : {
                                  "cursorScale" : {
                                    "type" : "double",
                                    "defaultValue" : 0.0,
                                    "interp" : "linr"
                                  },
                                  "cursorOpacity" : {
                                    "type" : "double",
                                    "defaultValue" : 0.0,
                                    "interp" : "linr"
                                  }
                                },
                                "effects" : [

                                ],
                                "start" : 13871,
                                "duration" : 21,
                                "mediaStart" : 17980,
                                "mediaDuration" : 21,
                                "scalar" : 1,
                                "animationTracks" : {

                                }
                              },
                          "audio" : 
                              {
                                "id" : 1304,
                                "_type" : "AMFile",
                                "src" : 1,
                                "trackNumber" : 1,
                                "attributes" : {
                                  "ident" : "",
                                  "gain" : 1.0,
                                  "mixToMono" : false
                                },
                                  "channelNumber" : "0,1",
                                "effects" : [

                                ],
                                "start" : 13871,
                                "duration" : 21,
                                "mediaStart" : 17980,
                                "mediaDuration" : 21,
                                "scalar" : 1,
                                "animationTracks" : {

                                }
                              }
,
                          "start" : 13871,
                          "duration" : 21,
                          "mediaStart" : 0,
                          "mediaDuration" : 25747,
                          "scalar" : 1,
                          "metadata" : {
                            "AutoAppliedSmartFocus" : "False",
                            "clipSpeedAttribute" : false
                          }
                        },
                        {
                          "id" : 1305,
                          "_type" : "UnifiedMedia",
                          "video" : 
                              {
                                "id" : 1306,
                                "_type" : "ScreenVMFile",
                                "src" : 1,
                                "trackNumber" : 0,
                                "attributes" : {
                                  "ident" : "Rec 01-10-21"
                                },
                                "parameters" : {
                                  "cursorScale" : {
                                    "type" : "double",
                                    "defaultValue" : 0.0,
                                    "interp" : "linr"
                                  },
                                  "cursorOpacity" : {
                                    "type" : "double",
                                    "defaultValue" : 0.0,
                                    "interp" : "linr"
                                  }
                                },
                                "effects" : [

                                ],
                                "start" : 13892,
                                "duration" : 83,
                                "mediaStart" : 18105,
                                "mediaDuration" : 83,
                                "scalar" : 1,
                                "animationTracks" : {

                                }
                              },
                          "audio" : 
                              {
                                "id" : 1307,
                                "_type" : "AMFile",
                                "src" : 1,
                                "trackNumber" : 1,
                                "attributes" : {
                                  "ident" : "",
                                  "gain" : 1.0,
                                  "mixToMono" : false
                                },
                                  "channelNumber" : "0,1",
                                "effects" : [

                                ],
                                "start" : 13892,
                                "duration" : 83,
                                "mediaStart" : 18105,
                                "mediaDuration" : 83,
                                "scalar" : 1,
                                "animationTracks" : {

                                }
                              }
,
                          "start" : 13892,
                          "duration" : 83,
                          "mediaStart" : 0,
                          "mediaDuration" : 25747,
                          "scalar" : 1,
                          "metadata" : {
                            "AutoAppliedSmartFocus" : "False",
                            "clipSpeedAttribute" : false
                          }
                        },
                        {
                          "id" : 1308,
                          "_type" : "UnifiedMedia",
                          "video" : 
                              {
                                "id" : 1309,
                                "_type" : "ScreenVMFile",
                                "src" : 1,
                                "trackNumber" : 0,
                                "attributes" : {
                                  "ident" : "Rec 01-10-21"
                                },
                                "parameters" : {
                                  "cursorScale" : {
                                    "type" : "double",
                                    "defaultValue" : 0.0,
                                    "interp" : "linr"
                                  },
                                  "cursorOpacity" : {
                                    "type" : "double",
                                    "defaultValue" : 0.0,
                                    "interp" : "linr"
                                  }
                                },
                                "effects" : [

                                ],
                                "start" : 13975,
                                "duration" : 761,
                                "mediaStart" : 18393,
                                "mediaDuration" : 761,
                                "scalar" : 1,
                                "animationTracks" : {

                                }
                              },
                          "audio" : 
                              {
                                "id" : 1310,
                                "_type" : "AMFile",
                                "src" : 1,
                                "trackNumber" : 1,
                                "attributes" : {
                                  "ident" : "",
                                  "gain" : 1.0,
                                  "mixToMono" : false
                                },
                                  "channelNumber" : "0,1",
                                "effects" : [

                                ],
                                "start" : 13975,
                                "duration" : 761,
                                "mediaStart" : 18393,
                                "mediaDuration" : 761,
                                "scalar" : 1,
                                "animationTracks" : {

                                }
                              }
,
                          "start" : 13975,
                          "duration" : 761,
                          "mediaStart" : 0,
                          "mediaDuration" : 25747,
                          "scalar" : 1,
                          "metadata" : {
                            "AutoAppliedSmartFocus" : "False",
                            "clipSpeedAttribute" : false
                          }
                        },
                        {
                          "id" : 1311,
                          "_type" : "UnifiedMedia",
                          "video" : 
                              {
                                "id" : 1312,
                                "_type" : "ScreenVMFile",
                                "src" : 1,
                                "trackNumber" : 0,
                                "attributes" : {
                                  "ident" : "Rec 01-10-21"
                                },
                                "parameters" : {
                                  "cursorScale" : {
                                    "type" : "double",
                                    "defaultValue" : 0.0,
                                    "interp" : "linr"
                                  },
                                  "cursorOpacity" : {
                                    "type" : "double",
                                    "defaultValue" : 0.0,
                                    "interp" : "linr"
                                  }
                                },
                                "effects" : [

                                ],
                                "start" : 14736,
                                "duration" : 100,
                                "mediaStart" : 19645,
                                "mediaDuration" : 100,
                                "scalar" : 1,
                                "animationTracks" : {

                                }
                              },
                          "audio" : 
                              {
                                "id" : 1313,
                                "_type" : "AMFile",
                                "src" : 1,
                                "trackNumber" : 1,
                                "attributes" : {
                                  "ident" : "",
                                  "gain" : 1.0,
                                  "mixToMono" : false
                                },
                                  "channelNumber" : "0,1",
                                "effects" : [

                                ],
                                "start" : 14736,
                                "duration" : 100,
                                "mediaStart" : 19645,
                                "mediaDuration" : 100,
                                "scalar" : 1,
                                "animationTracks" : {

                                }
                              }
,
                          "start" : 14736,
                          "duration" : 100,
                          "mediaStart" : 0,
                          "mediaDuration" : 25747,
                          "scalar" : 1,
                          "metadata" : {
                            "AutoAppliedSmartFocus" : "False",
                            "clipSpeedAttribute" : false
                          }
                        },
                        {
                          "id" : 1314,
                          "_type" : "UnifiedMedia",
                          "video" : 
                              {
                                "id" : 1315,
                                "_type" : "ScreenVMFile",
                                "src" : 1,
                                "trackNumber" : 0,
                                "attributes" : {
                                  "ident" : "Rec 01-10-21"
                                },
                                "parameters" : {
                                  "cursorScale" : {
                                    "type" : "double",
                                    "defaultValue" : 0.0,
                                    "interp" : "linr"
                                  },
                                  "cursorOpacity" : {
                                    "type" : "double",
                                    "defaultValue" : 0.0,
                                    "interp" : "linr"
                                  }
                                },
                                "effects" : [

                                ],
                                "start" : 14836,
                                "duration" : 78,
                                "mediaStart" : 19798,
                                "mediaDuration" : 78,
                                "scalar" : 1,
                                "animationTracks" : {

                                }
                              },
                          "audio" : 
                              {
                                "id" : 1316,
                                "_type" : "AMFile",
                                "src" : 1,
                                "trackNumber" : 1,
                                "attributes" : {
                                  "ident" : "",
                                  "gain" : 1.0,
                                  "mixToMono" : false
                                },
                                  "channelNumber" : "0,1",
                                "effects" : [

                                ],
                                "start" : 14836,
                                "duration" : 78,
                                "mediaStart" : 19798,
                                "mediaDuration" : 78,
                                "scalar" : 1,
                                "animationTracks" : {

                                }
                              }
,
                          "start" : 14836,
                          "duration" : 78,
                          "mediaStart" : 0,
                          "mediaDuration" : 25747,
                          "scalar" : 1,
                          "metadata" : {
                            "AutoAppliedSmartFocus" : "False",
                            "clipSpeedAttribute" : false
                          }
                        },
                        {
                          "id" : 1317,
                          "_type" : "UnifiedMedia",
                          "video" : 
                              {
                                "id" : 1318,
                                "_type" : "ScreenVMFile",
                                "src" : 1,
                                "trackNumber" : 0,
                                "attributes" : {
                                  "ident" : "Rec 01-10-21"
                                },
                                "parameters" : {
                                  "cursorScale" : {
                                    "type" : "double",
                                    "defaultValue" : 0.0,
                                    "interp" : "linr"
                                  },
                                  "cursorOpacity" : {
                                    "type" : "double",
                                    "defaultValue" : 0.0,
                                    "interp" : "linr"
                                  }
                                },
                                "effects" : [

                                ],
                                "start" : 14914,
                                "duration" : 40,
                                "mediaStart" : 19919,
                                "mediaDuration" : 40,
                                "scalar" : 1,
                                "animationTracks" : {

                                }
                              },
                          "audio" : 
                              {
                                "id" : 1319,
                                "_type" : "AMFile",
                                "src" : 1,
                                "trackNumber" : 1,
                                "attributes" : {
                                  "ident" : "",
                                  "gain" : 1.0,
                                  "mixToMono" : false
                                },
                                  "channelNumber" : "0,1",
                                "effects" : [

                                ],
                                "start" : 14914,
                                "duration" : 40,
                                "mediaStart" : 19919,
                                "mediaDuration" : 40,
                                "scalar" : 1,
                                "animationTracks" : {

                                }
                              }
,
                          "start" : 14914,
                          "duration" : 40,
                          "mediaStart" : 0,
                          "mediaDuration" : 25747,
                          "scalar" : 1,
                          "metadata" : {
                            "AutoAppliedSmartFocus" : "False",
                            "clipSpeedAttribute" : false
                          }
                        },
                        {
                          "id" : 1320,
                          "_type" : "UnifiedMedia",
                          "video" : 
                              {
                                "id" : 1321,
                                "_type" : "ScreenVMFile",
                                "src" : 1,
                                "trackNumber" : 0,
                                "attributes" : {
                                  "ident" : "Rec 01-10-21"
                                },
                                "parameters" : {
                                  "cursorScale" : {
                                    "type" : "double",
                                    "defaultValue" : 0.0,
                                    "interp" : "linr"
                                  },
                                  "cursorOpacity" : {
                                    "type" : "double",
                                    "defaultValue" : 0.0,
                                    "interp" : "linr"
                                  }
                                },
                                "effects" : [

                                ],
                                "start" : 14954,
                                "duration" : 2,
                                "mediaStart" : 20112,
                                "mediaDuration" : 2,
                                "scalar" : 1,
                                "animationTracks" : {

                                }
                              },
                          "audio" : 
                              {
                                "id" : 1322,
                                "_type" : "AMFile",
                                "src" : 1,
                                "trackNumber" : 1,
                                "attributes" : {
                                  "ident" : "",
                                  "gain" : 1.0,
                                  "mixToMono" : false
                                },
                                  "channelNumber" : "0,1",
                                "effects" : [

                                ],
                                "start" : 14954,
                                "duration" : 2,
                                "mediaStart" : 20112,
                                "mediaDuration" : 2,
                                "scalar" : 1,
                                "animationTracks" : {

                                }
                              }
,
                          "start" : 14954,
                          "duration" : 2,
                          "mediaStart" : 0,
                          "mediaDuration" : 25747,
                          "scalar" : 1,
                          "metadata" : {
                            "AutoAppliedSmartFocus" : "False",
                            "clipSpeedAttribute" : false
                          }
                        },
                        {
                          "id" : 1323,
                          "_type" : "UnifiedMedia",
                          "video" : 
                              {
                                "id" : 1324,
                                "_type" : "ScreenVMFile",
                                "src" : 1,
                                "trackNumber" : 0,
                                "attributes" : {
                                  "ident" : "Rec 01-10-21"
                                },
                                "parameters" : {
                                  "cursorScale" : {
                                    "type" : "double",
                                    "defaultValue" : 0.0,
                                    "interp" : "linr"
                                  },
                                  "cursorOpacity" : {
                                    "type" : "double",
                                    "defaultValue" : 0.0,
                                    "interp" : "linr"
                                  }
                                },
                                "effects" : [

                                ],
                                "start" : 14956,
                                "duration" : 112,
                                "mediaStart" : 20429,
                                "mediaDuration" : 112,
                                "scalar" : 1,
                                "animationTracks" : {

                                }
                              },
                          "audio" : 
                              {
                                "id" : 1325,
                                "_type" : "AMFile",
                                "src" : 1,
                                "trackNumber" : 1,
                                "attributes" : {
                                  "ident" : "",
                                  "gain" : 1.0,
                                  "mixToMono" : false
                                },
                                  "channelNumber" : "0,1",
                                "effects" : [

                                ],
                                "start" : 14956,
                                "duration" : 112,
                                "mediaStart" : 20429,
                                "mediaDuration" : 112,
                                "scalar" : 1,
                                "animationTracks" : {

                                }
                              }
,
                          "start" : 14956,
                          "duration" : 112,
                          "mediaStart" : 0,
                          "mediaDuration" : 25747,
                          "scalar" : 1,
                          "metadata" : {
                            "AutoAppliedSmartFocus" : "False",
                            "clipSpeedAttribute" : false
                          }
                        },
                        {
                          "id" : 1326,
                          "_type" : "UnifiedMedia",
                          "video" : 
                              {
                                "id" : 1327,
                                "_type" : "ScreenVMFile",
                                "src" : 1,
                                "trackNumber" : 0,
                                "attributes" : {
                                  "ident" : "Rec 01-10-21"
                                },
                                "parameters" : {
                                  "cursorScale" : {
                                    "type" : "double",
                                    "defaultValue" : 0.0,
                                    "interp" : "linr"
                                  },
                                  "cursorOpacity" : {
                                    "type" : "double",
                                    "defaultValue" : 0.0,
                                    "interp" : "linr"
                                  }
                                },
                                "effects" : [

                                ],
                                "start" : 15068,
                                "duration" : 22,
                                "mediaStart" : 20590,
                                "mediaDuration" : 22,
                                "scalar" : 1,
                                "animationTracks" : {

                                }
                              },
                          "audio" : 
                              {
                                "id" : 1328,
                                "_type" : "AMFile",
                                "src" : 1,
                                "trackNumber" : 1,
                                "attributes" : {
                                  "ident" : "",
                                  "gain" : 1.0,
                                  "mixToMono" : false
                                },
                                  "channelNumber" : "0,1",
                                "effects" : [

                                ],
                                "start" : 15068,
                                "duration" : 22,
                                "mediaStart" : 20590,
                                "mediaDuration" : 22,
                                "scalar" : 1,
                                "animationTracks" : {

                                }
                              }
,
                          "start" : 15068,
                          "duration" : 22,
                          "mediaStart" : 0,
                          "mediaDuration" : 25747,
                          "scalar" : 1,
                          "metadata" : {
                            "AutoAppliedSmartFocus" : "False",
                            "clipSpeedAttribute" : false
                          }
                        },
                        {
                          "id" : 1329,
                          "_type" : "UnifiedMedia",
                          "video" : 
                              {
                                "id" : 1330,
                                "_type" : "ScreenVMFile",
                                "src" : 1,
                                "trackNumber" : 0,
                                "attributes" : {
                                  "ident" : "Rec 01-10-21"
                                },
                                "parameters" : {
                                  "cursorScale" : {
                                    "type" : "double",
                                    "defaultValue" : 0.0,
                                    "interp" : "linr"
                                  },
                                  "cursorOpacity" : {
                                    "type" : "double",
                                    "defaultValue" : 0.0,
                                    "interp" : "linr"
                                  }
                                },
                                "effects" : [

                                ],
                                "start" : 15090,
                                "duration" : 5117,
                                "mediaStart" : 20630,
                                "mediaDuration" : 5117,
                                "scalar" : 1,
                                "animationTracks" : {

                                }
                              },
                          "audio" : 
                              {
                                "id" : 1331,
                                "_type" : "AMFile",
                                "src" : 1,
                                "trackNumber" : 1,
                                "attributes" : {
                                  "ident" : "",
                                  "gain" : 1.0,
                                  "mixToMono" : false
                                },
                                  "channelNumber" : "0,1",
                                "effects" : [

                                ],
                                "start" : 15090,
                                "duration" : 5117,
                                "mediaStart" : 20630,
                                "mediaDuration" : 5117,
                                "scalar" : 1,
                                "animationTracks" : {

                                }
                              }
,
                          "start" : 15090,
                          "duration" : 5117,
                          "mediaStart" : 0,
                          "mediaDuration" : 25747,
                          "scalar" : 1,
                          "metadata" : {
                            "AutoAppliedSmartFocus" : "False",
                            "clipSpeedAttribute" : false
                          }
                        }
                    ],
                    "effects" : [

                    ],
                    "start" : 10094,
                    "duration" : 509,
                    "mediaStart" : 14648,
                    "mediaDuration" : 509,
                    "scalar" : 1,
                    "metadata" : {
                      "AutoAppliedSmartFocus" : "False",
                      "clipSpeedAttribute" : false
                    },
                    "animationTracks" : {

                    }
                  },
                  {
                    "id" : 1332,
                    "_type" : "Group",
                    "parameters" : {
                      "volume" : 1.0
                    },
                    "tracks" : [
                      {
                        "trackIndex" : 0,
                        "medias" : [
                          {
                            "id" : 1333,
                            "_type" : "StitchedMedia",
                            "minMediaStart" : 0,
                            "attributes" : {
                              "ident" : "Rec 01-10-21",
                              "gain" : 1.0,
                              "mixToMono" : false
                            },
                            "parameters" : {
                              "cursorOpacity" : 1.0,
                              "cursorScale" : 1.0
                            },
                            "medias" : [
                                {
                                  "id" : 1334,
                                  "_type" : "ScreenVMFile",
                                  "src" : 1,
                                  "trackNumber" : 0,
                                  "attributes" : {
                                    "ident" : "Rec 01-10-21"
                                  },
                                  "parameters" : {
                                    "cursorScale" : {
                                      "type" : "double",
                                      "defaultValue" : 0.0,
                                      "interp" : "linr"
                                    },
                                    "cursorOpacity" : {
                                      "type" : "double",
                                      "defaultValue" : 0.0,
                                      "interp" : "linr"
                                    }
                                  },
                                  "effects" : [

                                  ],
                                  "start" : 0,
                                  "duration" : 5487,
                                  "mediaStart" : 0,
                                  "mediaDuration" : 5487,
                                  "scalar" : 1,
                                  "metadata" : {
                                    "AutoAppliedSmartFocus" : "False"
                                  },
                                  "animationTracks" : {

                                  }
                                },
                                {
                                  "id" : 1335,
                                  "_type" : "ScreenVMFile",
                                  "src" : 1,
                                  "trackNumber" : 0,
                                  "attributes" : {
                                    "ident" : "Rec 01-10-21"
                                  },
                                  "parameters" : {
                                    "cursorScale" : {
                                      "type" : "double",
                                      "defaultValue" : 0.0,
                                      "interp" : "linr"
                                    },
                                    "cursorOpacity" : {
                                      "type" : "double",
                                      "defaultValue" : 0.0,
                                      "interp" : "linr"
                                    }
                                  },
                                  "effects" : [

                                  ],
                                  "start" : 5487,
                                  "duration" : 166,
                                  "mediaStart" : 5498,
                                  "mediaDuration" : 166,
                                  "scalar" : 1,
                                  "metadata" : {
                                    "AutoAppliedSmartFocus" : "False"
                                  },
                                  "animationTracks" : {

                                  }
                                },
                                {
                                  "id" : 1336,
                                  "_type" : "ScreenVMFile",
                                  "src" : 1,
                                  "trackNumber" : 0,
                                  "attributes" : {
                                    "ident" : "Rec 01-10-21"
                                  },
                                  "parameters" : {
                                    "cursorScale" : {
                                      "type" : "double",
                                      "defaultValue" : 0.0,
                                      "interp" : "linr"
                                    },
                                    "cursorOpacity" : {
                                      "type" : "double",
                                      "defaultValue" : 0.0,
                                      "interp" : "linr"
                                    }
                                  },
                                  "effects" : [

                                  ],
                                  "start" : 5653,
                                  "duration" : 739,
                                  "mediaStart" : 5708,
                                  "mediaDuration" : 739,
                                  "scalar" : 1,
                                  "metadata" : {
                                    "AutoAppliedSmartFocus" : "False"
                                  },
                                  "animationTracks" : {

                                  }
                                },
                                {
                                  "id" : 1337,
                                  "_type" : "ScreenVMFile",
                                  "src" : 1,
                                  "trackNumber" : 0,
                                  "attributes" : {
                                    "ident" : "Rec 01-10-21"
                                  },
                                  "parameters" : {
                                    "cursorScale" : {
                                      "type" : "double",
                                      "defaultValue" : 0.0,
                                      "interp" : "linr"
                                    },
                                    "cursorOpacity" : {
                                      "type" : "double",
                                      "defaultValue" : 0.0,
                                      "interp" : "linr"
                                    }
                                  },
                                  "effects" : [

                                  ],
                                  "start" : 6392,
                                  "duration" : 6,
                                  "mediaStart" : 6482,
                                  "mediaDuration" : 6,
                                  "scalar" : 1,
                                  "metadata" : {
                                    "AutoAppliedSmartFocus" : "False"
                                  },
                                  "animationTracks" : {

                                  }
                                },
                                {
                                  "id" : 1338,
                                  "_type" : "ScreenVMFile",
                                  "src" : 1,
                                  "trackNumber" : 0,
                                  "attributes" : {
                                    "ident" : "Rec 01-10-21"
                                  },
                                  "parameters" : {
                                    "cursorScale" : {
                                      "type" : "double",
                                      "defaultValue" : 0.0,
                                      "interp" : "linr"
                                    },
                                    "cursorOpacity" : {
                                      "type" : "double",
                                      "defaultValue" : 0.0,
                                      "interp" : "linr"
                                    }
                                  },
                                  "effects" : [

                                  ],
                                  "start" : 6398,
                                  "duration" : 340,
                                  "mediaStart" : 6558,
                                  "mediaDuration" : 340,
                                  "scalar" : 1,
                                  "metadata" : {
                                    "AutoAppliedSmartFocus" : "False"
                                  },
                                  "animationTracks" : {

                                  }
                                },
                                {
                                  "id" : 1339,
                                  "_type" : "ScreenVMFile",
                                  "src" : 1,
                                  "trackNumber" : 0,
                                  "attributes" : {
                                    "ident" : "Rec 01-10-21"
                                  },
                                  "parameters" : {
                                    "cursorScale" : {
                                      "type" : "double",
                                      "defaultValue" : 0.0,
                                      "interp" : "linr"
                                    },
                                    "cursorOpacity" : {
                                      "type" : "double",
                                      "defaultValue" : 0.0,
                                      "interp" : "linr"
                                    }
                                  },
                                  "effects" : [

                                  ],
                                  "start" : 6738,
                                  "duration" : 125,
                                  "mediaStart" : 6983,
                                  "mediaDuration" : 125,
                                  "scalar" : 1,
                                  "metadata" : {
                                    "AutoAppliedSmartFocus" : "False"
                                  },
                                  "animationTracks" : {

                                  }
                                },
                                {
                                  "id" : 1340,
                                  "_type" : "ScreenVMFile",
                                  "src" : 1,
                                  "trackNumber" : 0,
                                  "attributes" : {
                                    "ident" : "Rec 01-10-21"
                                  },
                                  "parameters" : {
                                    "cursorScale" : {
                                      "type" : "double",
                                      "defaultValue" : 0.0,
                                      "interp" : "linr"
                                    },
                                    "cursorOpacity" : {
                                      "type" : "double",
                                      "defaultValue" : 0.0,
                                      "interp" : "linr"
                                    }
                                  },
                                  "effects" : [

                                  ],
                                  "start" : 6863,
                                  "duration" : 297,
                                  "mediaStart" : 7316,
                                  "mediaDuration" : 297,
                                  "scalar" : 1,
                                  "metadata" : {
                                    "AutoAppliedSmartFocus" : "False"
                                  },
                                  "animationTracks" : {

                                  }
                                },
                                {
                                  "id" : 1341,
                                  "_type" : "ScreenVMFile",
                                  "src" : 1,
                                  "trackNumber" : 0,
                                  "attributes" : {
                                    "ident" : "Rec 01-10-21"
                                  },
                                  "parameters" : {
                                    "cursorScale" : {
                                      "type" : "double",
                                      "defaultValue" : 0.0,
                                      "interp" : "linr"
                                    },
                                    "cursorOpacity" : {
                                      "type" : "double",
                                      "defaultValue" : 0.0,
                                      "interp" : "linr"
                                    }
                                  },
                                  "effects" : [

                                  ],
                                  "start" : 7160,
                                  "duration" : 60,
                                  "mediaStart" : 7641,
                                  "mediaDuration" : 60,
                                  "scalar" : 1,
                                  "metadata" : {
                                    "AutoAppliedSmartFocus" : "False"
                                  },
                                  "animationTracks" : {

                                  }
                                },
                                {
                                  "id" : 1342,
                                  "_type" : "ScreenVMFile",
                                  "src" : 1,
                                  "trackNumber" : 0,
                                  "attributes" : {
                                    "ident" : "Rec 01-10-21"
                                  },
                                  "parameters" : {
                                    "cursorScale" : {
                                      "type" : "double",
                                      "defaultValue" : 0.0,
                                      "interp" : "linr"
                                    },
                                    "cursorOpacity" : {
                                      "type" : "double",
                                      "defaultValue" : 0.0,
                                      "interp" : "linr"
                                    }
                                  },
                                  "effects" : [

                                  ],
                                  "start" : 7220,
                                  "duration" : 36,
                                  "mediaStart" : 7726,
                                  "mediaDuration" : 36,
                                  "scalar" : 1,
                                  "metadata" : {
                                    "AutoAppliedSmartFocus" : "False"
                                  },
                                  "animationTracks" : {

                                  }
                                },
                                {
                                  "id" : 1343,
                                  "_type" : "ScreenVMFile",
                                  "src" : 1,
                                  "trackNumber" : 0,
                                  "attributes" : {
                                    "ident" : "Rec 01-10-21"
                                  },
                                  "parameters" : {
                                    "cursorScale" : {
                                      "type" : "double",
                                      "defaultValue" : 0.0,
                                      "interp" : "linr"
                                    },
                                    "cursorOpacity" : {
                                      "type" : "double",
                                      "defaultValue" : 0.0,
                                      "interp" : "linr"
                                    }
                                  },
                                  "effects" : [

                                  ],
                                  "start" : 7256,
                                  "duration" : 229,
                                  "mediaStart" : 8018,
                                  "mediaDuration" : 229,
                                  "scalar" : 1,
                                  "metadata" : {
                                    "AutoAppliedSmartFocus" : "False"
                                  },
                                  "animationTracks" : {

                                  }
                                },
                                {
                                  "id" : 1344,
                                  "_type" : "ScreenVMFile",
                                  "src" : 1,
                                  "trackNumber" : 0,
                                  "attributes" : {
                                    "ident" : "Rec 01-10-21"
                                  },
                                  "parameters" : {
                                    "cursorScale" : {
                                      "type" : "double",
                                      "defaultValue" : 0.0,
                                      "interp" : "linr"
                                    },
                                    "cursorOpacity" : {
                                      "type" : "double",
                                      "defaultValue" : 0.0,
                                      "interp" : "linr"
                                    }
                                  },
                                  "effects" : [

                                  ],
                                  "start" : 7485,
                                  "duration" : 115,
                                  "mediaStart" : 8289,
                                  "mediaDuration" : 115,
                                  "scalar" : 1,
                                  "metadata" : {
                                    "AutoAppliedSmartFocus" : "False"
                                  },
                                  "animationTracks" : {

                                  }
                                },
                                {
                                  "id" : 1345,
                                  "_type" : "ScreenVMFile",
                                  "src" : 1,
                                  "trackNumber" : 0,
                                  "attributes" : {
                                    "ident" : "Rec 01-10-21"
                                  },
                                  "parameters" : {
                                    "cursorScale" : {
                                      "type" : "double",
                                      "defaultValue" : 0.0,
                                      "interp" : "linr"
                                    },
                                    "cursorOpacity" : {
                                      "type" : "double",
                                      "defaultValue" : 0.0,
                                      "interp" : "linr"
                                    }
                                  },
                                  "effects" : [

                                  ],
                                  "start" : 7600,
                                  "duration" : 58,
                                  "mediaStart" : 8711,
                                  "mediaDuration" : 58,
                                  "scalar" : 1,
                                  "metadata" : {
                                    "AutoAppliedSmartFocus" : "False"
                                  },
                                  "animationTracks" : {

                                  }
                                },
                                {
                                  "id" : 1346,
                                  "_type" : "ScreenVMFile",
                                  "src" : 1,
                                  "trackNumber" : 0,
                                  "attributes" : {
                                    "ident" : "Rec 01-10-21"
                                  },
                                  "parameters" : {
                                    "cursorScale" : {
                                      "type" : "double",
                                      "defaultValue" : 0.0,
                                      "interp" : "linr"
                                    },
                                    "cursorOpacity" : {
                                      "type" : "double",
                                      "defaultValue" : 0.0,
                                      "interp" : "linr"
                                    }
                                  },
                                  "effects" : [

                                  ],
                                  "start" : 7658,
                                  "duration" : 45,
                                  "mediaStart" : 8776,
                                  "mediaDuration" : 45,
                                  "scalar" : 1,
                                  "metadata" : {
                                    "AutoAppliedSmartFocus" : "False"
                                  },
                                  "animationTracks" : {

                                  }
                                },
                                {
                                  "id" : 1347,
                                  "_type" : "ScreenVMFile",
                                  "src" : 1,
                                  "trackNumber" : 0,
                                  "attributes" : {
                                    "ident" : "Rec 01-10-21"
                                  },
                                  "parameters" : {
                                    "cursorScale" : {
                                      "type" : "double",
                                      "defaultValue" : 0.0,
                                      "interp" : "linr"
                                    },
                                    "cursorOpacity" : {
                                      "type" : "double",
                                      "defaultValue" : 0.0,
                                      "interp" : "linr"
                                    }
                                  },
                                  "effects" : [

                                  ],
                                  "start" : 7703,
                                  "duration" : 46,
                                  "mediaStart" : 8841,
                                  "mediaDuration" : 46,
                                  "scalar" : 1,
                                  "metadata" : {
                                    "AutoAppliedSmartFocus" : "False"
                                  },
                                  "animationTracks" : {

                                  }
                                },
                                {
                                  "id" : 1348,
                                  "_type" : "ScreenVMFile",
                                  "src" : 1,
                                  "trackNumber" : 0,
                                  "attributes" : {
                                    "ident" : "Rec 01-10-21"
                                  },
                                  "parameters" : {
                                    "cursorScale" : {
                                      "type" : "double",
                                      "defaultValue" : 0.0,
                                      "interp" : "linr"
                                    },
                                    "cursorOpacity" : {
                                      "type" : "double",
                                      "defaultValue" : 0.0,
                                      "interp" : "linr"
                                    }
                                  },
                                  "effects" : [

                                  ],
                                  "start" : 7749,
                                  "duration" : 1925,
                                  "mediaStart" : 8937,
                                  "mediaDuration" : 1925,
                                  "scalar" : 1,
                                  "metadata" : {
                                    "AutoAppliedSmartFocus" : "False"
                                  },
                                  "animationTracks" : {

                                  }
                                },
                                {
                                  "id" : 1349,
                                  "_type" : "ScreenVMFile",
                                  "src" : 1,
                                  "trackNumber" : 0,
                                  "attributes" : {
                                    "ident" : "Rec 01-10-21"
                                  },
                                  "parameters" : {
                                    "cursorScale" : {
                                      "type" : "double",
                                      "defaultValue" : 0.0,
                                      "interp" : "linr"
                                    },
                                    "cursorOpacity" : {
                                      "type" : "double",
                                      "defaultValue" : 0.0,
                                      "interp" : "linr"
                                    }
                                  },
                                  "effects" : [

                                  ],
                                  "start" : 9674,
                                  "duration" : 322,
                                  "mediaStart" : 10938,
                                  "mediaDuration" : 322,
                                  "scalar" : 1,
                                  "metadata" : {
                                    "AutoAppliedSmartFocus" : "False"
                                  },
                                  "animationTracks" : {

                                  }
                                },
                                {
                                  "id" : 1350,
                                  "_type" : "ScreenVMFile",
                                  "src" : 1,
                                  "trackNumber" : 0,
                                  "attributes" : {
                                    "ident" : "Rec 01-10-21"
                                  },
                                  "parameters" : {
                                    "cursorScale" : {
                                      "type" : "double",
                                      "defaultValue" : 0.0,
                                      "interp" : "linr"
                                    },
                                    "cursorOpacity" : {
                                      "type" : "double",
                                      "defaultValue" : 0.0,
                                      "interp" : "linr"
                                    }
                                  },
                                  "effects" : [

                                  ],
                                  "start" : 9996,
                                  "duration" : 27,
                                  "mediaStart" : 11328,
                                  "mediaDuration" : 27,
                                  "scalar" : 1,
                                  "metadata" : {
                                    "AutoAppliedSmartFocus" : "False"
                                  },
                                  "animationTracks" : {

                                  }
                                },
                                {
                                  "id" : 1351,
                                  "_type" : "ScreenVMFile",
                                  "src" : 1,
                                  "trackNumber" : 0,
                                  "attributes" : {
                                    "ident" : "Rec 01-10-21"
                                  },
                                  "parameters" : {
                                    "cursorScale" : {
                                      "type" : "double",
                                      "defaultValue" : 0.0,
                                      "interp" : "linr"
                                    },
                                    "cursorOpacity" : {
                                      "type" : "double",
                                      "defaultValue" : 0.0,
                                      "interp" : "linr"
                                    }
                                  },
                                  "effects" : [

                                  ],
                                  "start" : 10023,
                                  "duration" : 119,
                                  "mediaStart" : 11424,
                                  "mediaDuration" : 119,
                                  "scalar" : 1,
                                  "metadata" : {
                                    "AutoAppliedSmartFocus" : "False"
                                  },
                                  "animationTracks" : {

                                  }
                                },
                                {
                                  "id" : 1352,
                                  "_type" : "ScreenVMFile",
                                  "src" : 1,
                                  "trackNumber" : 0,
                                  "attributes" : {
                                    "ident" : "Rec 01-10-21"
                                  },
                                  "parameters" : {
                                    "cursorScale" : {
                                      "type" : "double",
                                      "defaultValue" : 0.0,
                                      "interp" : "linr"
                                    },
                                    "cursorOpacity" : {
                                      "type" : "double",
                                      "defaultValue" : 0.0,
                                      "interp" : "linr"
                                    }
                                  },
                                  "effects" : [

                                  ],
                                  "start" : 10142,
                                  "duration" : 46,
                                  "mediaStart" : 11727,
                                  "mediaDuration" : 46,
                                  "scalar" : 1,
                                  "metadata" : {
                                    "AutoAppliedSmartFocus" : "False"
                                  },
                                  "animationTracks" : {

                                  }
                                },
                                {
                                  "id" : 1353,
                                  "_type" : "ScreenVMFile",
                                  "src" : 1,
                                  "trackNumber" : 0,
                                  "attributes" : {
                                    "ident" : "Rec 01-10-21"
                                  },
                                  "parameters" : {
                                    "cursorScale" : {
                                      "type" : "double",
                                      "defaultValue" : 0.0,
                                      "interp" : "linr"
                                    },
                                    "cursorOpacity" : {
                                      "type" : "double",
                                      "defaultValue" : 0.0,
                                      "interp" : "linr"
                                    }
                                  },
                                  "effects" : [

                                  ],
                                  "start" : 10188,
                                  "duration" : 461,
                                  "mediaStart" : 11870,
                                  "mediaDuration" : 461,
                                  "scalar" : 1,
                                  "metadata" : {
                                    "AutoAppliedSmartFocus" : "False"
                                  },
                                  "animationTracks" : {

                                  }
                                },
                                {
                                  "id" : 1354,
                                  "_type" : "ScreenVMFile",
                                  "src" : 1,
                                  "trackNumber" : 0,
                                  "attributes" : {
                                    "ident" : "Rec 01-10-21"
                                  },
                                  "parameters" : {
                                    "cursorScale" : {
                                      "type" : "double",
                                      "defaultValue" : 0.0,
                                      "interp" : "linr"
                                    },
                                    "cursorOpacity" : {
                                      "type" : "double",
                                      "defaultValue" : 0.0,
                                      "interp" : "linr"
                                    }
                                  },
                                  "effects" : [

                                  ],
                                  "start" : 10649,
                                  "duration" : 73,
                                  "mediaStart" : 12767,
                                  "mediaDuration" : 73,
                                  "scalar" : 1,
                                  "metadata" : {
                                    "AutoAppliedSmartFocus" : "False"
                                  },
                                  "animationTracks" : {

                                  }
                                },
                                {
                                  "id" : 1355,
                                  "_type" : "ScreenVMFile",
                                  "src" : 1,
                                  "trackNumber" : 0,
                                  "attributes" : {
                                    "ident" : "Rec 01-10-21"
                                  },
                                  "parameters" : {
                                    "cursorScale" : {
                                      "type" : "double",
                                      "defaultValue" : 0.0,
                                      "interp" : "linr"
                                    },
                                    "cursorOpacity" : {
                                      "type" : "double",
                                      "defaultValue" : 0.0,
                                      "interp" : "linr"
                                    }
                                  },
                                  "effects" : [

                                  ],
                                  "start" : 10722,
                                  "duration" : 166,
                                  "mediaStart" : 13215,
                                  "mediaDuration" : 166,
                                  "scalar" : 1,
                                  "metadata" : {
                                    "AutoAppliedSmartFocus" : "False"
                                  },
                                  "animationTracks" : {

                                  }
                                },
                                {
                                  "id" : 1356,
                                  "_type" : "ScreenVMFile",
                                  "src" : 1,
                                  "trackNumber" : 0,
                                  "attributes" : {
                                    "ident" : "Rec 01-10-21"
                                  },
                                  "parameters" : {
                                    "cursorScale" : {
                                      "type" : "double",
                                      "defaultValue" : 0.0,
                                      "interp" : "linr"
                                    },
                                    "cursorOpacity" : {
                                      "type" : "double",
                                      "defaultValue" : 0.0,
                                      "interp" : "linr"
                                    }
                                  },
                                  "effects" : [

                                  ],
                                  "start" : 10888,
                                  "duration" : 305,
                                  "mediaStart" : 13397,
                                  "mediaDuration" : 305,
                                  "scalar" : 1,
                                  "metadata" : {
                                    "AutoAppliedSmartFocus" : "False"
                                  },
                                  "animationTracks" : {

                                  }
                                },
                                {
                                  "id" : 1357,
                                  "_type" : "ScreenVMFile",
                                  "src" : 1,
                                  "trackNumber" : 0,
                                  "attributes" : {
                                    "ident" : "Rec 01-10-21"
                                  },
                                  "parameters" : {
                                    "cursorScale" : {
                                      "type" : "double",
                                      "defaultValue" : 0.0,
                                      "interp" : "linr"
                                    },
                                    "cursorOpacity" : {
                                      "type" : "double",
                                      "defaultValue" : 0.0,
                                      "interp" : "linr"
                                    }
                                  },
                                  "effects" : [

                                  ],
                                  "start" : 11193,
                                  "duration" : 196,
                                  "mediaStart" : 13738,
                                  "mediaDuration" : 196,
                                  "scalar" : 1,
                                  "metadata" : {
                                    "AutoAppliedSmartFocus" : "False"
                                  },
                                  "animationTracks" : {

                                  }
                                },
                                {
                                  "id" : 1358,
                                  "_type" : "ScreenVMFile",
                                  "src" : 1,
                                  "trackNumber" : 0,
                                  "attributes" : {
                                    "ident" : "Rec 01-10-21"
                                  },
                                  "parameters" : {
                                    "cursorScale" : {
                                      "type" : "double",
                                      "defaultValue" : 0.0,
                                      "interp" : "linr"
                                    },
                                    "cursorOpacity" : {
                                      "type" : "double",
                                      "defaultValue" : 0.0,
                                      "interp" : "linr"
                                    }
                                  },
                                  "effects" : [

                                  ],
                                  "start" : 11389,
                                  "duration" : 54,
                                  "mediaStart" : 13961,
                                  "mediaDuration" : 54,
                                  "scalar" : 1,
                                  "metadata" : {
                                    "AutoAppliedSmartFocus" : "False"
                                  },
                                  "animationTracks" : {

                                  }
                                },
                                {
                                  "id" : 1359,
                                  "_type" : "ScreenVMFile",
                                  "src" : 1,
                                  "trackNumber" : 0,
                                  "attributes" : {
                                    "ident" : "Rec 01-10-21"
                                  },
                                  "parameters" : {
                                    "cursorScale" : {
                                      "type" : "double",
                                      "defaultValue" : 0.0,
                                      "interp" : "linr"
                                    },
                                    "cursorOpacity" : {
                                      "type" : "double",
                                      "defaultValue" : 0.0,
                                      "interp" : "linr"
                                    }
                                  },
                                  "effects" : [

                                  ],
                                  "start" : 11443,
                                  "duration" : 28,
                                  "mediaStart" : 14029,
                                  "mediaDuration" : 28,
                                  "scalar" : 1,
                                  "metadata" : {
                                    "AutoAppliedSmartFocus" : "False"
                                  },
                                  "animationTracks" : {

                                  }
                                },
                                {
                                  "id" : 1360,
                                  "_type" : "ScreenVMFile",
                                  "src" : 1,
                                  "trackNumber" : 0,
                                  "attributes" : {
                                    "ident" : "Rec 01-10-21"
                                  },
                                  "parameters" : {
                                    "cursorScale" : {
                                      "type" : "double",
                                      "defaultValue" : 0.0,
                                      "interp" : "linr"
                                    },
                                    "cursorOpacity" : {
                                      "type" : "double",
                                      "defaultValue" : 0.0,
                                      "interp" : "linr"
                                    }
                                  },
                                  "effects" : [

                                  ],
                                  "start" : 11471,
                                  "duration" : 48,
                                  "mediaStart" : 14274,
                                  "mediaDuration" : 48,
                                  "scalar" : 1,
                                  "metadata" : {
                                    "AutoAppliedSmartFocus" : "False"
                                  },
                                  "animationTracks" : {

                                  }
                                },
                                {
                                  "id" : 1361,
                                  "_type" : "ScreenVMFile",
                                  "src" : 1,
                                  "trackNumber" : 0,
                                  "attributes" : {
                                    "ident" : "Rec 01-10-21"
                                  },
                                  "parameters" : {
                                    "cursorScale" : {
                                      "type" : "double",
                                      "defaultValue" : 0.0,
                                      "interp" : "linr"
                                    },
                                    "cursorOpacity" : {
                                      "type" : "double",
                                      "defaultValue" : 0.0,
                                      "interp" : "linr"
                                    }
                                  },
                                  "effects" : [

                                  ],
                                  "start" : 11519,
                                  "duration" : 118,
                                  "mediaStart" : 14378,
                                  "mediaDuration" : 118,
                                  "scalar" : 1,
                                  "metadata" : {
                                    "AutoAppliedSmartFocus" : "False"
                                  },
                                  "animationTracks" : {

                                  }
                                },
                                {
                                  "id" : 1362,
                                  "_type" : "ScreenVMFile",
                                  "src" : 1,
                                  "trackNumber" : 0,
                                  "attributes" : {
                                    "ident" : "Rec 01-10-21"
                                  },
                                  "parameters" : {
                                    "cursorScale" : {
                                      "type" : "double",
                                      "defaultValue" : 0.0,
                                      "interp" : "linr"
                                    },
                                    "cursorOpacity" : {
                                      "type" : "double",
                                      "defaultValue" : 0.0,
                                      "interp" : "linr"
                                    }
                                  },
                                  "effects" : [

                                  ],
                                  "start" : 11637,
                                  "duration" : 252,
                                  "mediaStart" : 14503,
                                  "mediaDuration" : 252,
                                  "scalar" : 1,
                                  "metadata" : {
                                    "AutoAppliedSmartFocus" : "False"
                                  },
                                  "animationTracks" : {

                                  }
                                },
                                {
                                  "id" : 1363,
                                  "_type" : "ScreenVMFile",
                                  "src" : 1,
                                  "trackNumber" : 0,
                                  "attributes" : {
                                    "ident" : "Rec 01-10-21"
                                  },
                                  "parameters" : {
                                    "cursorScale" : {
                                      "type" : "double",
                                      "defaultValue" : 0.0,
                                      "interp" : "linr"
                                    },
                                    "cursorOpacity" : {
                                      "type" : "double",
                                      "defaultValue" : 0.0,
                                      "interp" : "linr"
                                    }
                                  },
                                  "effects" : [

                                  ],
                                  "start" : 11889,
                                  "duration" : 127,
                                  "mediaStart" : 14814,
                                  "mediaDuration" : 127,
                                  "scalar" : 1,
                                  "metadata" : {
                                    "AutoAppliedSmartFocus" : "False"
                                  },
                                  "animationTracks" : {

                                  }
                                },
                                {
                                  "id" : 1364,
                                  "_type" : "ScreenVMFile",
                                  "src" : 1,
                                  "trackNumber" : 0,
                                  "attributes" : {
                                    "ident" : "Rec 01-10-21"
                                  },
                                  "parameters" : {
                                    "cursorScale" : {
                                      "type" : "double",
                                      "defaultValue" : 0.0,
                                      "interp" : "linr"
                                    },
                                    "cursorOpacity" : {
                                      "type" : "double",
                                      "defaultValue" : 0.0,
                                      "interp" : "linr"
                                    }
                                  },
                                  "effects" : [

                                  ],
                                  "start" : 12016,
                                  "duration" : 43,
                                  "mediaStart" : 14962,
                                  "mediaDuration" : 43,
                                  "scalar" : 1,
                                  "metadata" : {
                                    "AutoAppliedSmartFocus" : "False"
                                  },
                                  "animationTracks" : {

                                  }
                                },
                                {
                                  "id" : 1365,
                                  "_type" : "ScreenVMFile",
                                  "src" : 1,
                                  "trackNumber" : 0,
                                  "attributes" : {
                                    "ident" : "Rec 01-10-21"
                                  },
                                  "parameters" : {
                                    "cursorScale" : {
                                      "type" : "double",
                                      "defaultValue" : 0.0,
                                      "interp" : "linr"
                                    },
                                    "cursorOpacity" : {
                                      "type" : "double",
                                      "defaultValue" : 0.0,
                                      "interp" : "linr"
                                    }
                                  },
                                  "effects" : [

                                  ],
                                  "start" : 12059,
                                  "duration" : 84,
                                  "mediaStart" : 15016,
                                  "mediaDuration" : 84,
                                  "scalar" : 1,
                                  "metadata" : {
                                    "AutoAppliedSmartFocus" : "False"
                                  },
                                  "animationTracks" : {

                                  }
                                },
                                {
                                  "id" : 1366,
                                  "_type" : "ScreenVMFile",
                                  "src" : 1,
                                  "trackNumber" : 0,
                                  "attributes" : {
                                    "ident" : "Rec 01-10-21"
                                  },
                                  "parameters" : {
                                    "cursorScale" : {
                                      "type" : "double",
                                      "defaultValue" : 0.0,
                                      "interp" : "linr"
                                    },
                                    "cursorOpacity" : {
                                      "type" : "double",
                                      "defaultValue" : 0.0,
                                      "interp" : "linr"
                                    }
                                  },
                                  "effects" : [

                                  ],
                                  "start" : 12143,
                                  "duration" : 108,
                                  "mediaStart" : 15147,
                                  "mediaDuration" : 108,
                                  "scalar" : 1,
                                  "metadata" : {
                                    "AutoAppliedSmartFocus" : "False"
                                  },
                                  "animationTracks" : {

                                  }
                                },
                                {
                                  "id" : 1367,
                                  "_type" : "ScreenVMFile",
                                  "src" : 1,
                                  "trackNumber" : 0,
                                  "attributes" : {
                                    "ident" : "Rec 01-10-21"
                                  },
                                  "parameters" : {
                                    "cursorScale" : {
                                      "type" : "double",
                                      "defaultValue" : 0.0,
                                      "interp" : "linr"
                                    },
                                    "cursorOpacity" : {
                                      "type" : "double",
                                      "defaultValue" : 0.0,
                                      "interp" : "linr"
                                    }
                                  },
                                  "effects" : [

                                  ],
                                  "start" : 12251,
                                  "duration" : 36,
                                  "mediaStart" : 15274,
                                  "mediaDuration" : 36,
                                  "scalar" : 1,
                                  "metadata" : {
                                    "AutoAppliedSmartFocus" : "False"
                                  },
                                  "animationTracks" : {

                                  }
                                },
                                {
                                  "id" : 1368,
                                  "_type" : "ScreenVMFile",
                                  "src" : 1,
                                  "trackNumber" : 0,
                                  "attributes" : {
                                    "ident" : "Rec 01-10-21"
                                  },
                                  "parameters" : {
                                    "cursorScale" : {
                                      "type" : "double",
                                      "defaultValue" : 0.0,
                                      "interp" : "linr"
                                    },
                                    "cursorOpacity" : {
                                      "type" : "double",
                                      "defaultValue" : 0.0,
                                      "interp" : "linr"
                                    }
                                  },
                                  "effects" : [

                                  ],
                                  "start" : 12287,
                                  "duration" : 207,
                                  "mediaStart" : 15343,
                                  "mediaDuration" : 207,
                                  "scalar" : 1,
                                  "metadata" : {
                                    "AutoAppliedSmartFocus" : "False"
                                  },
                                  "animationTracks" : {

                                  }
                                },
                                {
                                  "id" : 1369,
                                  "_type" : "ScreenVMFile",
                                  "src" : 1,
                                  "trackNumber" : 0,
                                  "attributes" : {
                                    "ident" : "Rec 01-10-21"
                                  },
                                  "parameters" : {
                                    "cursorScale" : {
                                      "type" : "double",
                                      "defaultValue" : 0.0,
                                      "interp" : "linr"
                                    },
                                    "cursorOpacity" : {
                                      "type" : "double",
                                      "defaultValue" : 0.0,
                                      "interp" : "linr"
                                    }
                                  },
                                  "effects" : [

                                  ],
                                  "start" : 12494,
                                  "duration" : 136,
                                  "mediaStart" : 15590,
                                  "mediaDuration" : 136,
                                  "scalar" : 1,
                                  "metadata" : {
                                    "AutoAppliedSmartFocus" : "False"
                                  },
                                  "animationTracks" : {

                                  }
                                },
                                {
                                  "id" : 1370,
                                  "_type" : "ScreenVMFile",
                                  "src" : 1,
                                  "trackNumber" : 0,
                                  "attributes" : {
                                    "ident" : "Rec 01-10-21"
                                  },
                                  "parameters" : {
                                    "cursorScale" : {
                                      "type" : "double",
                                      "defaultValue" : 0.0,
                                      "interp" : "linr"
                                    },
                                    "cursorOpacity" : {
                                      "type" : "double",
                                      "defaultValue" : 0.0,
                                      "interp" : "linr"
                                    }
                                  },
                                  "effects" : [

                                  ],
                                  "start" : 12630,
                                  "duration" : 85,
                                  "mediaStart" : 15788,
                                  "mediaDuration" : 85,
                                  "scalar" : 1,
                                  "metadata" : {
                                    "AutoAppliedSmartFocus" : "False"
                                  },
                                  "animationTracks" : {

                                  }
                                },
                                {
                                  "id" : 1371,
                                  "_type" : "ScreenVMFile",
                                  "src" : 1,
                                  "trackNumber" : 0,
                                  "attributes" : {
                                    "ident" : "Rec 01-10-21"
                                  },
                                  "parameters" : {
                                    "cursorScale" : {
                                      "type" : "double",
                                      "defaultValue" : 0.0,
                                      "interp" : "linr"
                                    },
                                    "cursorOpacity" : {
                                      "type" : "double",
                                      "defaultValue" : 0.0,
                                      "interp" : "linr"
                                    }
                                  },
                                  "effects" : [

                                  ],
                                  "start" : 12715,
                                  "duration" : 132,
                                  "mediaStart" : 15926,
                                  "mediaDuration" : 132,
                                  "scalar" : 1,
                                  "metadata" : {
                                    "AutoAppliedSmartFocus" : "False"
                                  },
                                  "animationTracks" : {

                                  }
                                },
                                {
                                  "id" : 1372,
                                  "_type" : "ScreenVMFile",
                                  "src" : 1,
                                  "trackNumber" : 0,
                                  "attributes" : {
                                    "ident" : "Rec 01-10-21"
                                  },
                                  "parameters" : {
                                    "cursorScale" : {
                                      "type" : "double",
                                      "defaultValue" : 0.0,
                                      "interp" : "linr"
                                    },
                                    "cursorOpacity" : {
                                      "type" : "double",
                                      "defaultValue" : 0.0,
                                      "interp" : "linr"
                                    }
                                  },
                                  "effects" : [

                                  ],
                                  "start" : 12847,
                                  "duration" : 60,
                                  "mediaStart" : 16118,
                                  "mediaDuration" : 60,
                                  "scalar" : 1,
                                  "metadata" : {
                                    "AutoAppliedSmartFocus" : "False"
                                  },
                                  "animationTracks" : {

                                  }
                                },
                                {
                                  "id" : 1373,
                                  "_type" : "ScreenVMFile",
                                  "src" : 1,
                                  "trackNumber" : 0,
                                  "attributes" : {
                                    "ident" : "Rec 01-10-21"
                                  },
                                  "parameters" : {
                                    "cursorScale" : {
                                      "type" : "double",
                                      "defaultValue" : 0.0,
                                      "interp" : "linr"
                                    },
                                    "cursorOpacity" : {
                                      "type" : "double",
                                      "defaultValue" : 0.0,
                                      "interp" : "linr"
                                    }
                                  },
                                  "effects" : [

                                  ],
                                  "start" : 12907,
                                  "duration" : 7,
                                  "mediaStart" : 16638,
                                  "mediaDuration" : 7,
                                  "scalar" : 1,
                                  "metadata" : {
                                    "AutoAppliedSmartFocus" : "False"
                                  },
                                  "animationTracks" : {

                                  }
                                },
                                {
                                  "id" : 1374,
                                  "_type" : "ScreenVMFile",
                                  "src" : 1,
                                  "trackNumber" : 0,
                                  "attributes" : {
                                    "ident" : "Rec 01-10-21"
                                  },
                                  "parameters" : {
                                    "cursorScale" : {
                                      "type" : "double",
                                      "defaultValue" : 0.0,
                                      "interp" : "linr"
                                    },
                                    "cursorOpacity" : {
                                      "type" : "double",
                                      "defaultValue" : 0.0,
                                      "interp" : "linr"
                                    }
                                  },
                                  "effects" : [

                                  ],
                                  "start" : 12914,
                                  "duration" : 90,
                                  "mediaStart" : 16843,
                                  "mediaDuration" : 90,
                                  "scalar" : 1,
                                  "metadata" : {
                                    "AutoAppliedSmartFocus" : "False"
                                  },
                                  "animationTracks" : {

                                  }
                                },
                                {
                                  "id" : 1375,
                                  "_type" : "ScreenVMFile",
                                  "src" : 1,
                                  "trackNumber" : 0,
                                  "attributes" : {
                                    "ident" : "Rec 01-10-21"
                                  },
                                  "parameters" : {
                                    "cursorScale" : {
                                      "type" : "double",
                                      "defaultValue" : 0.0,
                                      "interp" : "linr"
                                    },
                                    "cursorOpacity" : {
                                      "type" : "double",
                                      "defaultValue" : 0.0,
                                      "interp" : "linr"
                                    }
                                  },
                                  "effects" : [

                                  ],
                                  "start" : 13004,
                                  "duration" : 3,
                                  "mediaStart" : 16991,
                                  "mediaDuration" : 3,
                                  "scalar" : 1,
                                  "metadata" : {
                                    "AutoAppliedSmartFocus" : "False"
                                  },
                                  "animationTracks" : {

                                  }
                                },
                                {
                                  "id" : 1376,
                                  "_type" : "ScreenVMFile",
                                  "src" : 1,
                                  "trackNumber" : 0,
                                  "attributes" : {
                                    "ident" : "Rec 01-10-21"
                                  },
                                  "parameters" : {
                                    "cursorScale" : {
                                      "type" : "double",
                                      "defaultValue" : 0.0,
                                      "interp" : "linr"
                                    },
                                    "cursorOpacity" : {
                                      "type" : "double",
                                      "defaultValue" : 0.0,
                                      "interp" : "linr"
                                    }
                                  },
                                  "effects" : [

                                  ],
                                  "start" : 13007,
                                  "duration" : 864,
                                  "mediaStart" : 17051,
                                  "mediaDuration" : 864,
                                  "scalar" : 1,
                                  "metadata" : {
                                    "AutoAppliedSmartFocus" : "False"
                                  },
                                  "animationTracks" : {

                                  }
                                },
                                {
                                  "id" : 1377,
                                  "_type" : "ScreenVMFile",
                                  "src" : 1,
                                  "trackNumber" : 0,
                                  "attributes" : {
                                    "ident" : "Rec 01-10-21"
                                  },
                                  "parameters" : {
                                    "cursorScale" : {
                                      "type" : "double",
                                      "defaultValue" : 0.0,
                                      "interp" : "linr"
                                    },
                                    "cursorOpacity" : {
                                      "type" : "double",
                                      "defaultValue" : 0.0,
                                      "interp" : "linr"
                                    }
                                  },
                                  "effects" : [

                                  ],
                                  "start" : 13871,
                                  "duration" : 21,
                                  "mediaStart" : 17980,
                                  "mediaDuration" : 21,
                                  "scalar" : 1,
                                  "metadata" : {
                                    "AutoAppliedSmartFocus" : "False"
                                  },
                                  "animationTracks" : {

                                  }
                                },
                                {
                                  "id" : 1378,
                                  "_type" : "ScreenVMFile",
                                  "src" : 1,
                                  "trackNumber" : 0,
                                  "attributes" : {
                                    "ident" : "Rec 01-10-21"
                                  },
                                  "parameters" : {
                                    "cursorScale" : {
                                      "type" : "double",
                                      "defaultValue" : 0.0,
                                      "interp" : "linr"
                                    },
                                    "cursorOpacity" : {
                                      "type" : "double",
                                      "defaultValue" : 0.0,
                                      "interp" : "linr"
                                    }
                                  },
                                  "effects" : [

                                  ],
                                  "start" : 13892,
                                  "duration" : 83,
                                  "mediaStart" : 18105,
                                  "mediaDuration" : 83,
                                  "scalar" : 1,
                                  "metadata" : {
                                    "AutoAppliedSmartFocus" : "False"
                                  },
                                  "animationTracks" : {

                                  }
                                },
                                {
                                  "id" : 1379,
                                  "_type" : "ScreenVMFile",
                                  "src" : 1,
                                  "trackNumber" : 0,
                                  "attributes" : {
                                    "ident" : "Rec 01-10-21"
                                  },
                                  "parameters" : {
                                    "cursorScale" : {
                                      "type" : "double",
                                      "defaultValue" : 0.0,
                                      "interp" : "linr"
                                    },
                                    "cursorOpacity" : {
                                      "type" : "double",
                                      "defaultValue" : 0.0,
                                      "interp" : "linr"
                                    }
                                  },
                                  "effects" : [

                                  ],
                                  "start" : 13975,
                                  "duration" : 761,
                                  "mediaStart" : 18393,
                                  "mediaDuration" : 761,
                                  "scalar" : 1,
                                  "metadata" : {
                                    "AutoAppliedSmartFocus" : "False"
                                  },
                                  "animationTracks" : {

                                  }
                                },
                                {
                                  "id" : 1380,
                                  "_type" : "ScreenVMFile",
                                  "src" : 1,
                                  "trackNumber" : 0,
                                  "attributes" : {
                                    "ident" : "Rec 01-10-21"
                                  },
                                  "parameters" : {
                                    "cursorScale" : {
                                      "type" : "double",
                                      "defaultValue" : 0.0,
                                      "interp" : "linr"
                                    },
                                    "cursorOpacity" : {
                                      "type" : "double",
                                      "defaultValue" : 0.0,
                                      "interp" : "linr"
                                    }
                                  },
                                  "effects" : [

                                  ],
                                  "start" : 14736,
                                  "duration" : 100,
                                  "mediaStart" : 19645,
                                  "mediaDuration" : 100,
                                  "scalar" : 1,
                                  "metadata" : {
                                    "AutoAppliedSmartFocus" : "False"
                                  },
                                  "animationTracks" : {

                                  }
                                },
                                {
                                  "id" : 1381,
                                  "_type" : "ScreenVMFile",
                                  "src" : 1,
                                  "trackNumber" : 0,
                                  "attributes" : {
                                    "ident" : "Rec 01-10-21"
                                  },
                                  "parameters" : {
                                    "cursorScale" : {
                                      "type" : "double",
                                      "defaultValue" : 0.0,
                                      "interp" : "linr"
                                    },
                                    "cursorOpacity" : {
                                      "type" : "double",
                                      "defaultValue" : 0.0,
                                      "interp" : "linr"
                                    }
                                  },
                                  "effects" : [

                                  ],
                                  "start" : 14836,
                                  "duration" : 78,
                                  "mediaStart" : 19798,
                                  "mediaDuration" : 78,
                                  "scalar" : 1,
                                  "metadata" : {
                                    "AutoAppliedSmartFocus" : "False"
                                  },
                                  "animationTracks" : {

                                  }
                                },
                                {
                                  "id" : 1382,
                                  "_type" : "ScreenVMFile",
                                  "src" : 1,
                                  "trackNumber" : 0,
                                  "attributes" : {
                                    "ident" : "Rec 01-10-21"
                                  },
                                  "parameters" : {
                                    "cursorScale" : {
                                      "type" : "double",
                                      "defaultValue" : 0.0,
                                      "interp" : "linr"
                                    },
                                    "cursorOpacity" : {
                                      "type" : "double",
                                      "defaultValue" : 0.0,
                                      "interp" : "linr"
                                    }
                                  },
                                  "effects" : [

                                  ],
                                  "start" : 14914,
                                  "duration" : 40,
                                  "mediaStart" : 19919,
                                  "mediaDuration" : 40,
                                  "scalar" : 1,
                                  "metadata" : {
                                    "AutoAppliedSmartFocus" : "False"
                                  },
                                  "animationTracks" : {

                                  }
                                },
                                {
                                  "id" : 1383,
                                  "_type" : "ScreenVMFile",
                                  "src" : 1,
                                  "trackNumber" : 0,
                                  "attributes" : {
                                    "ident" : "Rec 01-10-21"
                                  },
                                  "parameters" : {
                                    "cursorScale" : {
                                      "type" : "double",
                                      "defaultValue" : 0.0,
                                      "interp" : "linr"
                                    },
                                    "cursorOpacity" : {
                                      "type" : "double",
                                      "defaultValue" : 0.0,
                                      "interp" : "linr"
                                    }
                                  },
                                  "effects" : [

                                  ],
                                  "start" : 14954,
                                  "duration" : 2,
                                  "mediaStart" : 20112,
                                  "mediaDuration" : 2,
                                  "scalar" : 1,
                                  "metadata" : {
                                    "AutoAppliedSmartFocus" : "False"
                                  },
                                  "animationTracks" : {

                                  }
                                },
                                {
                                  "id" : 1384,
                                  "_type" : "ScreenVMFile",
                                  "src" : 1,
                                  "trackNumber" : 0,
                                  "attributes" : {
                                    "ident" : "Rec 01-10-21"
                                  },
                                  "parameters" : {
                                    "cursorScale" : {
                                      "type" : "double",
                                      "defaultValue" : 0.0,
                                      "interp" : "linr"
                                    },
                                    "cursorOpacity" : {
                                      "type" : "double",
                                      "defaultValue" : 0.0,
                                      "interp" : "linr"
                                    }
                                  },
                                  "effects" : [

                                  ],
                                  "start" : 14956,
                                  "duration" : 112,
                                  "mediaStart" : 20429,
                                  "mediaDuration" : 112,
                                  "scalar" : 1,
                                  "metadata" : {
                                    "AutoAppliedSmartFocus" : "False"
                                  },
                                  "animationTracks" : {

                                  }
                                },
                                {
                                  "id" : 1385,
                                  "_type" : "ScreenVMFile",
                                  "src" : 1,
                                  "trackNumber" : 0,
                                  "attributes" : {
                                    "ident" : "Rec 01-10-21"
                                  },
                                  "parameters" : {
                                    "cursorScale" : {
                                      "type" : "double",
                                      "defaultValue" : 0.0,
                                      "interp" : "linr"
                                    },
                                    "cursorOpacity" : {
                                      "type" : "double",
                                      "defaultValue" : 0.0,
                                      "interp" : "linr"
                                    }
                                  },
                                  "effects" : [

                                  ],
                                  "start" : 15068,
                                  "duration" : 22,
                                  "mediaStart" : 20590,
                                  "mediaDuration" : 22,
                                  "scalar" : 1,
                                  "metadata" : {
                                    "AutoAppliedSmartFocus" : "False"
                                  },
                                  "animationTracks" : {

                                  }
                                },
                                {
                                  "id" : 1386,
                                  "_type" : "ScreenVMFile",
                                  "src" : 1,
                                  "trackNumber" : 0,
                                  "attributes" : {
                                    "ident" : "Rec 01-10-21"
                                  },
                                  "parameters" : {
                                    "cursorScale" : {
                                      "type" : "double",
                                      "defaultValue" : 0.0,
                                      "interp" : "linr"
                                    },
                                    "cursorOpacity" : {
                                      "type" : "double",
                                      "defaultValue" : 0.0,
                                      "interp" : "linr"
                                    }
                                  },
                                  "effects" : [

                                  ],
                                  "start" : 15090,
                                  "duration" : 78,
                                  "mediaStart" : 20630,
                                  "mediaDuration" : 78,
                                  "scalar" : 1,
                                  "metadata" : {
                                    "AutoAppliedSmartFocus" : "False"
                                  },
                                  "animationTracks" : {

                                  }
                                },
                                {
                                  "id" : 1387,
                                  "_type" : "ScreenVMFile",
                                  "src" : 1,
                                  "trackNumber" : 0,
                                  "attributes" : {
                                    "ident" : "Rec 01-10-21"
                                  },
                                  "parameters" : {
                                    "cursorScale" : {
                                      "type" : "double",
                                      "defaultValue" : 0.0,
                                      "interp" : "linr"
                                    },
                                    "cursorOpacity" : {
                                      "type" : "double",
                                      "defaultValue" : 0.0,
                                      "interp" : "linr"
                                    }
                                  },
                                  "effects" : [

                                  ],
                                  "start" : 15168,
                                  "duration" : 42,
                                  "mediaStart" : 20731,
                                  "mediaDuration" : 42,
                                  "scalar" : 1,
                                  "metadata" : {
                                    "AutoAppliedSmartFocus" : "False"
                                  },
                                  "animationTracks" : {

                                  }
                                },
                                {
                                  "id" : 1388,
                                  "_type" : "ScreenVMFile",
                                  "src" : 1,
                                  "trackNumber" : 0,
                                  "attributes" : {
                                    "ident" : "Rec 01-10-21"
                                  },
                                  "parameters" : {
                                    "cursorScale" : {
                                      "type" : "double",
                                      "defaultValue" : 0.0,
                                      "interp" : "linr"
                                    },
                                    "cursorOpacity" : {
                                      "type" : "double",
                                      "defaultValue" : 0.0,
                                      "interp" : "linr"
                                    }
                                  },
                                  "effects" : [

                                  ],
                                  "start" : 15210,
                                  "duration" : 4955,
                                  "mediaStart" : 20792,
                                  "mediaDuration" : 4955,
                                  "scalar" : 1,
                                  "metadata" : {
                                    "AutoAppliedSmartFocus" : "False"
                                  },
                                  "animationTracks" : {

                                  }
                                }
                            ],
                            "effects" : [

                            ],
                            "start" : 0,
                            "duration" : 64,
                            "mediaStart" : 15157,
                            "mediaDuration" : 64,
                            "scalar" : 1,
                            "metadata" : {
                              "AutoAppliedSmartFocus" : "False",
                              "clipSpeedAttribute" : false
                            },
                            "animationTracks" : {

                            }
                          }
                        ],
                          "ident" : "",
                          "audioMuted" : false,
                          "videoHidden" : false,
                          "magnetic" : false,
                          "matte" : 0,
                          "metadata" : {
                            "IsLocked" : "False",
                            "WinTrackHeight" : "0"
                          }
                      },
                      {
                        "trackIndex" : 1,
                        "medias" : [
                          {
                            "id" : 1389,
                            "_type" : "StitchedMedia",
                            "minMediaStart" : 0,
                            "attributes" : {
                              "ident" : "Narration_3-1 Pod 3",
                              "gain" : 1.0,
                              "mixToMono" : false
                            },
                            "parameters" : {
                              "volume" : 1.0,
                              "cursorOpacity" : 1.0,
                              "cursorScale" : 1.0
                            },
                            "medias" : [
                                {
                                  "id" : 1390,
                                  "_type" : "AMFile",
                                  "src" : 4,
                                  "trackNumber" : 0,
                                  "attributes" : {
                                    "ident" : "Narration_3-1 Pod 3",
                                    "gain" : 1.0,
                                    "mixToMono" : false
                                  },
                                    "channelNumber" : "0,1",
                                  "effects" : [

                                  ],
                                  "start" : 0,
                                  "duration" : 11,
                                  "mediaStart" : 0,
                                  "mediaDuration" : 11,
                                  "scalar" : 1,
                                  "metadata" : {
                                    "clipSpeedAttribute" : false
                                  },
                                  "animationTracks" : {

                                  }
                                },
                                {
                                  "id" : 1391,
                                  "_type" : "AMFile",
                                  "src" : 4,
                                  "trackNumber" : 0,
                                  "attributes" : {
                                    "ident" : "Narration_3-1 Pod 3",
                                    "gain" : 1.0,
                                    "mixToMono" : false
                                  },
                                    "channelNumber" : "0,1",
                                  "effects" : [

                                  ],
                                  "start" : 11,
                                  "duration" : 53,
                                  "mediaStart" : 34,
                                  "mediaDuration" : 53,
                                  "scalar" : 1,
                                  "metadata" : {
                                    "clipSpeedAttribute" : false
                                  },
                                  "animationTracks" : {

                                  }
                                }
                            ],
                            "effects" : [

                            ],
                            "start" : 0,
                            "duration" : 53,
                            "mediaStart" : 0,
                            "mediaDuration" : 53,
                            "scalar" : 1,
                            "metadata" : {
                              "clipSpeedAttribute" : false
                            },
                            "animationTracks" : {

                            }
                          }
                        ],
                          "ident" : "",
                          "audioMuted" : false,
                          "videoHidden" : false,
                          "magnetic" : false,
                          "matte" : 0,
                          "metadata" : {
                            "IsLocked" : "False",
                            "WinTrackHeight" : "4.48620777926489e-312"
                          }
                      }
                    ],
                    "attributes" : {
                      "ident" : "Group 2",
                      "gain" : 1.0,
                      "mixToMono" : false
                    },
                    "effects" : [

                    ],
                    "start" : 10603,
                    "duration" : 64,
                    "mediaStart" : 0.0,
                    "mediaDuration" : 64.0,
                    "scalar" : 1,
                    "metadata" : {
                      "IsGroupExpanded" : "False"
                    },
                    "animationTracks" : {

                    }
                  },
                  {
                    "id" : 1392,
                    "_type" : "StitchedMedia",
                    "minMediaStart" : 0,
                    "attributes" : {
                      "ident" : "Rec 01-10-21",
                      "gain" : 1.0,
                      "mixToMono" : false
                    },
                    "parameters" : {
                      "volume" : 1.0,
                      "cursorOpacity" : 1.0,
                      "cursorScale" : 1.0
                    },
                    "medias" : [
                        {
                          "id" : 1393,
                          "_type" : "UnifiedMedia",
                          "video" : 
                              {
                                "id" : 1394,
                                "_type" : "ScreenVMFile",
                                "src" : 1,
                                "trackNumber" : 0,
                                "attributes" : {
                                  "ident" : "Rec 01-10-21"
                                },
                                "parameters" : {
                                  "cursorScale" : {
                                    "type" : "double",
                                    "defaultValue" : 0.0,
                                    "interp" : "linr"
                                  },
                                  "cursorOpacity" : {
                                    "type" : "double",
                                    "defaultValue" : 0.0,
                                    "interp" : "linr"
                                  }
                                },
                                "effects" : [

                                ],
                                "start" : 0,
                                "duration" : 5487,
                                "mediaStart" : 0,
                                "mediaDuration" : 5487,
                                "scalar" : 1,
                                "animationTracks" : {

                                }
                              },
                          "audio" : 
                              {
                                "id" : 1395,
                                "_type" : "AMFile",
                                "src" : 1,
                                "trackNumber" : 1,
                                "attributes" : {
                                  "ident" : "",
                                  "gain" : 1.0,
                                  "mixToMono" : false
                                },
                                  "channelNumber" : "0,1",
                                "effects" : [

                                ],
                                "start" : 0,
                                "duration" : 5487,
                                "mediaStart" : 0,
                                "mediaDuration" : 5487,
                                "scalar" : 1,
                                "animationTracks" : {

                                }
                              }
,
                          "start" : 0,
                          "duration" : 5487,
                          "mediaStart" : 0,
                          "mediaDuration" : 25747,
                          "scalar" : 1,
                          "metadata" : {
                            "AutoAppliedSmartFocus" : "False",
                            "clipSpeedAttribute" : false
                          }
                        },
                        {
                          "id" : 1396,
                          "_type" : "UnifiedMedia",
                          "video" : 
                              {
                                "id" : 1397,
                                "_type" : "ScreenVMFile",
                                "src" : 1,
                                "trackNumber" : 0,
                                "attributes" : {
                                  "ident" : "Rec 01-10-21"
                                },
                                "parameters" : {
                                  "cursorScale" : {
                                    "type" : "double",
                                    "defaultValue" : 0.0,
                                    "interp" : "linr"
                                  },
                                  "cursorOpacity" : {
                                    "type" : "double",
                                    "defaultValue" : 0.0,
                                    "interp" : "linr"
                                  }
                                },
                                "effects" : [

                                ],
                                "start" : 5487,
                                "duration" : 166,
                                "mediaStart" : 5498,
                                "mediaDuration" : 166,
                                "scalar" : 1,
                                "animationTracks" : {

                                }
                              },
                          "audio" : 
                              {
                                "id" : 1398,
                                "_type" : "AMFile",
                                "src" : 1,
                                "trackNumber" : 1,
                                "attributes" : {
                                  "ident" : "",
                                  "gain" : 1.0,
                                  "mixToMono" : false
                                },
                                  "channelNumber" : "0,1",
                                "effects" : [

                                ],
                                "start" : 5487,
                                "duration" : 166,
                                "mediaStart" : 5498,
                                "mediaDuration" : 166,
                                "scalar" : 1,
                                "animationTracks" : {

                                }
                              }
,
                          "start" : 5487,
                          "duration" : 166,
                          "mediaStart" : 0,
                          "mediaDuration" : 25747,
                          "scalar" : 1,
                          "metadata" : {
                            "AutoAppliedSmartFocus" : "False",
                            "clipSpeedAttribute" : false
                          }
                        },
                        {
                          "id" : 1399,
                          "_type" : "UnifiedMedia",
                          "video" : 
                              {
                                "id" : 1400,
                                "_type" : "ScreenVMFile",
                                "src" : 1,
                                "trackNumber" : 0,
                                "attributes" : {
                                  "ident" : "Rec 01-10-21"
                                },
                                "parameters" : {
                                  "cursorScale" : {
                                    "type" : "double",
                                    "defaultValue" : 0.0,
                                    "interp" : "linr"
                                  },
                                  "cursorOpacity" : {
                                    "type" : "double",
                                    "defaultValue" : 0.0,
                                    "interp" : "linr"
                                  }
                                },
                                "effects" : [

                                ],
                                "start" : 5653,
                                "duration" : 739,
                                "mediaStart" : 5708,
                                "mediaDuration" : 739,
                                "scalar" : 1,
                                "animationTracks" : {

                                }
                              },
                          "audio" : 
                              {
                                "id" : 1401,
                                "_type" : "AMFile",
                                "src" : 1,
                                "trackNumber" : 1,
                                "attributes" : {
                                  "ident" : "",
                                  "gain" : 1.0,
                                  "mixToMono" : false
                                },
                                  "channelNumber" : "0,1",
                                "effects" : [

                                ],
                                "start" : 5653,
                                "duration" : 739,
                                "mediaStart" : 5708,
                                "mediaDuration" : 739,
                                "scalar" : 1,
                                "animationTracks" : {

                                }
                              }
,
                          "start" : 5653,
                          "duration" : 739,
                          "mediaStart" : 0,
                          "mediaDuration" : 25747,
                          "scalar" : 1,
                          "metadata" : {
                            "AutoAppliedSmartFocus" : "False",
                            "clipSpeedAttribute" : false
                          }
                        },
                        {
                          "id" : 1402,
                          "_type" : "UnifiedMedia",
                          "video" : 
                              {
                                "id" : 1403,
                                "_type" : "ScreenVMFile",
                                "src" : 1,
                                "trackNumber" : 0,
                                "attributes" : {
                                  "ident" : "Rec 01-10-21"
                                },
                                "parameters" : {
                                  "cursorScale" : {
                                    "type" : "double",
                                    "defaultValue" : 0.0,
                                    "interp" : "linr"
                                  },
                                  "cursorOpacity" : {
                                    "type" : "double",
                                    "defaultValue" : 0.0,
                                    "interp" : "linr"
                                  }
                                },
                                "effects" : [

                                ],
                                "start" : 6392,
                                "duration" : 6,
                                "mediaStart" : 6482,
                                "mediaDuration" : 6,
                                "scalar" : 1,
                                "animationTracks" : {

                                }
                              },
                          "audio" : 
                              {
                                "id" : 1404,
                                "_type" : "AMFile",
                                "src" : 1,
                                "trackNumber" : 1,
                                "attributes" : {
                                  "ident" : "",
                                  "gain" : 1.0,
                                  "mixToMono" : false
                                },
                                  "channelNumber" : "0,1",
                                "effects" : [

                                ],
                                "start" : 6392,
                                "duration" : 6,
                                "mediaStart" : 6482,
                                "mediaDuration" : 6,
                                "scalar" : 1,
                                "animationTracks" : {

                                }
                              }
,
                          "start" : 6392,
                          "duration" : 6,
                          "mediaStart" : 0,
                          "mediaDuration" : 25747,
                          "scalar" : 1,
                          "metadata" : {
                            "AutoAppliedSmartFocus" : "False",
                            "clipSpeedAttribute" : false
                          }
                        },
                        {
                          "id" : 1405,
                          "_type" : "UnifiedMedia",
                          "video" : 
                              {
                                "id" : 1406,
                                "_type" : "ScreenVMFile",
                                "src" : 1,
                                "trackNumber" : 0,
                                "attributes" : {
                                  "ident" : "Rec 01-10-21"
                                },
                                "parameters" : {
                                  "cursorScale" : {
                                    "type" : "double",
                                    "defaultValue" : 0.0,
                                    "interp" : "linr"
                                  },
                                  "cursorOpacity" : {
                                    "type" : "double",
                                    "defaultValue" : 0.0,
                                    "interp" : "linr"
                                  }
                                },
                                "effects" : [

                                ],
                                "start" : 6398,
                                "duration" : 340,
                                "mediaStart" : 6558,
                                "mediaDuration" : 340,
                                "scalar" : 1,
                                "animationTracks" : {

                                }
                              },
                          "audio" : 
                              {
                                "id" : 1407,
                                "_type" : "AMFile",
                                "src" : 1,
                                "trackNumber" : 1,
                                "attributes" : {
                                  "ident" : "",
                                  "gain" : 1.0,
                                  "mixToMono" : false
                                },
                                  "channelNumber" : "0,1",
                                "effects" : [

                                ],
                                "start" : 6398,
                                "duration" : 340,
                                "mediaStart" : 6558,
                                "mediaDuration" : 340,
                                "scalar" : 1,
                                "animationTracks" : {

                                }
                              }
,
                          "start" : 6398,
                          "duration" : 340,
                          "mediaStart" : 0,
                          "mediaDuration" : 25747,
                          "scalar" : 1,
                          "metadata" : {
                            "AutoAppliedSmartFocus" : "False",
                            "clipSpeedAttribute" : false
                          }
                        },
                        {
                          "id" : 1408,
                          "_type" : "UnifiedMedia",
                          "video" : 
                              {
                                "id" : 1409,
                                "_type" : "ScreenVMFile",
                                "src" : 1,
                                "trackNumber" : 0,
                                "attributes" : {
                                  "ident" : "Rec 01-10-21"
                                },
                                "parameters" : {
                                  "cursorScale" : {
                                    "type" : "double",
                                    "defaultValue" : 0.0,
                                    "interp" : "linr"
                                  },
                                  "cursorOpacity" : {
                                    "type" : "double",
                                    "defaultValue" : 0.0,
                                    "interp" : "linr"
                                  }
                                },
                                "effects" : [

                                ],
                                "start" : 6738,
                                "duration" : 125,
                                "mediaStart" : 6983,
                                "mediaDuration" : 125,
                                "scalar" : 1,
                                "animationTracks" : {

                                }
                              },
                          "audio" : 
                              {
                                "id" : 1410,
                                "_type" : "AMFile",
                                "src" : 1,
                                "trackNumber" : 1,
                                "attributes" : {
                                  "ident" : "",
                                  "gain" : 1.0,
                                  "mixToMono" : false
                                },
                                  "channelNumber" : "0,1",
                                "effects" : [

                                ],
                                "start" : 6738,
                                "duration" : 125,
                                "mediaStart" : 6983,
                                "mediaDuration" : 125,
                                "scalar" : 1,
                                "animationTracks" : {

                                }
                              }
,
                          "start" : 6738,
                          "duration" : 125,
                          "mediaStart" : 0,
                          "mediaDuration" : 25747,
                          "scalar" : 1,
                          "metadata" : {
                            "AutoAppliedSmartFocus" : "False",
                            "clipSpeedAttribute" : false
                          }
                        },
                        {
                          "id" : 1411,
                          "_type" : "UnifiedMedia",
                          "video" : 
                              {
                                "id" : 1412,
                                "_type" : "ScreenVMFile",
                                "src" : 1,
                                "trackNumber" : 0,
                                "attributes" : {
                                  "ident" : "Rec 01-10-21"
                                },
                                "parameters" : {
                                  "cursorScale" : {
                                    "type" : "double",
                                    "defaultValue" : 0.0,
                                    "interp" : "linr"
                                  },
                                  "cursorOpacity" : {
                                    "type" : "double",
                                    "defaultValue" : 0.0,
                                    "interp" : "linr"
                                  }
                                },
                                "effects" : [

                                ],
                                "start" : 6863,
                                "duration" : 297,
                                "mediaStart" : 7316,
                                "mediaDuration" : 297,
                                "scalar" : 1,
                                "animationTracks" : {

                                }
                              },
                          "audio" : 
                              {
                                "id" : 1413,
                                "_type" : "AMFile",
                                "src" : 1,
                                "trackNumber" : 1,
                                "attributes" : {
                                  "ident" : "",
                                  "gain" : 1.0,
                                  "mixToMono" : false
                                },
                                  "channelNumber" : "0,1",
                                "effects" : [

                                ],
                                "start" : 6863,
                                "duration" : 297,
                                "mediaStart" : 7316,
                                "mediaDuration" : 297,
                                "scalar" : 1,
                                "animationTracks" : {

                                }
                              }
,
                          "start" : 6863,
                          "duration" : 297,
                          "mediaStart" : 0,
                          "mediaDuration" : 25747,
                          "scalar" : 1,
                          "metadata" : {
                            "AutoAppliedSmartFocus" : "False",
                            "clipSpeedAttribute" : false
                          }
                        },
                        {
                          "id" : 1414,
                          "_type" : "UnifiedMedia",
                          "video" : 
                              {
                                "id" : 1415,
                                "_type" : "ScreenVMFile",
                                "src" : 1,
                                "trackNumber" : 0,
                                "attributes" : {
                                  "ident" : "Rec 01-10-21"
                                },
                                "parameters" : {
                                  "cursorScale" : {
                                    "type" : "double",
                                    "defaultValue" : 0.0,
                                    "interp" : "linr"
                                  },
                                  "cursorOpacity" : {
                                    "type" : "double",
                                    "defaultValue" : 0.0,
                                    "interp" : "linr"
                                  }
                                },
                                "effects" : [

                                ],
                                "start" : 7160,
                                "duration" : 60,
                                "mediaStart" : 7641,
                                "mediaDuration" : 60,
                                "scalar" : 1,
                                "animationTracks" : {

                                }
                              },
                          "audio" : 
                              {
                                "id" : 1416,
                                "_type" : "AMFile",
                                "src" : 1,
                                "trackNumber" : 1,
                                "attributes" : {
                                  "ident" : "",
                                  "gain" : 1.0,
                                  "mixToMono" : false
                                },
                                  "channelNumber" : "0,1",
                                "effects" : [

                                ],
                                "start" : 7160,
                                "duration" : 60,
                                "mediaStart" : 7641,
                                "mediaDuration" : 60,
                                "scalar" : 1,
                                "animationTracks" : {

                                }
                              }
,
                          "start" : 7160,
                          "duration" : 60,
                          "mediaStart" : 0,
                          "mediaDuration" : 25747,
                          "scalar" : 1,
                          "metadata" : {
                            "AutoAppliedSmartFocus" : "False",
                            "clipSpeedAttribute" : false
                          }
                        },
                        {
                          "id" : 1417,
                          "_type" : "UnifiedMedia",
                          "video" : 
                              {
                                "id" : 1418,
                                "_type" : "ScreenVMFile",
                                "src" : 1,
                                "trackNumber" : 0,
                                "attributes" : {
                                  "ident" : "Rec 01-10-21"
                                },
                                "parameters" : {
                                  "cursorScale" : {
                                    "type" : "double",
                                    "defaultValue" : 0.0,
                                    "interp" : "linr"
                                  },
                                  "cursorOpacity" : {
                                    "type" : "double",
                                    "defaultValue" : 0.0,
                                    "interp" : "linr"
                                  }
                                },
                                "effects" : [

                                ],
                                "start" : 7220,
                                "duration" : 36,
                                "mediaStart" : 7726,
                                "mediaDuration" : 36,
                                "scalar" : 1,
                                "animationTracks" : {

                                }
                              },
                          "audio" : 
                              {
                                "id" : 1419,
                                "_type" : "AMFile",
                                "src" : 1,
                                "trackNumber" : 1,
                                "attributes" : {
                                  "ident" : "",
                                  "gain" : 1.0,
                                  "mixToMono" : false
                                },
                                  "channelNumber" : "0,1",
                                "effects" : [

                                ],
                                "start" : 7220,
                                "duration" : 36,
                                "mediaStart" : 7726,
                                "mediaDuration" : 36,
                                "scalar" : 1,
                                "animationTracks" : {

                                }
                              }
,
                          "start" : 7220,
                          "duration" : 36,
                          "mediaStart" : 0,
                          "mediaDuration" : 25747,
                          "scalar" : 1,
                          "metadata" : {
                            "AutoAppliedSmartFocus" : "False",
                            "clipSpeedAttribute" : false
                          }
                        },
                        {
                          "id" : 1420,
                          "_type" : "UnifiedMedia",
                          "video" : 
                              {
                                "id" : 1421,
                                "_type" : "ScreenVMFile",
                                "src" : 1,
                                "trackNumber" : 0,
                                "attributes" : {
                                  "ident" : "Rec 01-10-21"
                                },
                                "parameters" : {
                                  "cursorScale" : {
                                    "type" : "double",
                                    "defaultValue" : 0.0,
                                    "interp" : "linr"
                                  },
                                  "cursorOpacity" : {
                                    "type" : "double",
                                    "defaultValue" : 0.0,
                                    "interp" : "linr"
                                  }
                                },
                                "effects" : [

                                ],
                                "start" : 7256,
                                "duration" : 229,
                                "mediaStart" : 8018,
                                "mediaDuration" : 229,
                                "scalar" : 1,
                                "animationTracks" : {

                                }
                              },
                          "audio" : 
                              {
                                "id" : 1422,
                                "_type" : "AMFile",
                                "src" : 1,
                                "trackNumber" : 1,
                                "attributes" : {
                                  "ident" : "",
                                  "gain" : 1.0,
                                  "mixToMono" : false
                                },
                                  "channelNumber" : "0,1",
                                "effects" : [

                                ],
                                "start" : 7256,
                                "duration" : 229,
                                "mediaStart" : 8018,
                                "mediaDuration" : 229,
                                "scalar" : 1,
                                "animationTracks" : {

                                }
                              }
,
                          "start" : 7256,
                          "duration" : 229,
                          "mediaStart" : 0,
                          "mediaDuration" : 25747,
                          "scalar" : 1,
                          "metadata" : {
                            "AutoAppliedSmartFocus" : "False",
                            "clipSpeedAttribute" : false
                          }
                        },
                        {
                          "id" : 1423,
                          "_type" : "UnifiedMedia",
                          "video" : 
                              {
                                "id" : 1424,
                                "_type" : "ScreenVMFile",
                                "src" : 1,
                                "trackNumber" : 0,
                                "attributes" : {
                                  "ident" : "Rec 01-10-21"
                                },
                                "parameters" : {
                                  "cursorScale" : {
                                    "type" : "double",
                                    "defaultValue" : 0.0,
                                    "interp" : "linr"
                                  },
                                  "cursorOpacity" : {
                                    "type" : "double",
                                    "defaultValue" : 0.0,
                                    "interp" : "linr"
                                  }
                                },
                                "effects" : [

                                ],
                                "start" : 7485,
                                "duration" : 115,
                                "mediaStart" : 8289,
                                "mediaDuration" : 115,
                                "scalar" : 1,
                                "animationTracks" : {

                                }
                              },
                          "audio" : 
                              {
                                "id" : 1425,
                                "_type" : "AMFile",
                                "src" : 1,
                                "trackNumber" : 1,
                                "attributes" : {
                                  "ident" : "",
                                  "gain" : 1.0,
                                  "mixToMono" : false
                                },
                                  "channelNumber" : "0,1",
                                "effects" : [

                                ],
                                "start" : 7485,
                                "duration" : 115,
                                "mediaStart" : 8289,
                                "mediaDuration" : 115,
                                "scalar" : 1,
                                "animationTracks" : {

                                }
                              }
,
                          "start" : 7485,
                          "duration" : 115,
                          "mediaStart" : 0,
                          "mediaDuration" : 25747,
                          "scalar" : 1,
                          "metadata" : {
                            "AutoAppliedSmartFocus" : "False",
                            "clipSpeedAttribute" : false
                          }
                        },
                        {
                          "id" : 1426,
                          "_type" : "UnifiedMedia",
                          "video" : 
                              {
                                "id" : 1427,
                                "_type" : "ScreenVMFile",
                                "src" : 1,
                                "trackNumber" : 0,
                                "attributes" : {
                                  "ident" : "Rec 01-10-21"
                                },
                                "parameters" : {
                                  "cursorScale" : {
                                    "type" : "double",
                                    "defaultValue" : 0.0,
                                    "interp" : "linr"
                                  },
                                  "cursorOpacity" : {
                                    "type" : "double",
                                    "defaultValue" : 0.0,
                                    "interp" : "linr"
                                  }
                                },
                                "effects" : [

                                ],
                                "start" : 7600,
                                "duration" : 58,
                                "mediaStart" : 8711,
                                "mediaDuration" : 58,
                                "scalar" : 1,
                                "animationTracks" : {

                                }
                              },
                          "audio" : 
                              {
                                "id" : 1428,
                                "_type" : "AMFile",
                                "src" : 1,
                                "trackNumber" : 1,
                                "attributes" : {
                                  "ident" : "",
                                  "gain" : 1.0,
                                  "mixToMono" : false
                                },
                                  "channelNumber" : "0,1",
                                "effects" : [

                                ],
                                "start" : 7600,
                                "duration" : 58,
                                "mediaStart" : 8711,
                                "mediaDuration" : 58,
                                "scalar" : 1,
                                "animationTracks" : {

                                }
                              }
,
                          "start" : 7600,
                          "duration" : 58,
                          "mediaStart" : 0,
                          "mediaDuration" : 25747,
                          "scalar" : 1,
                          "metadata" : {
                            "AutoAppliedSmartFocus" : "False",
                            "clipSpeedAttribute" : false
                          }
                        },
                        {
                          "id" : 1429,
                          "_type" : "UnifiedMedia",
                          "video" : 
                              {
                                "id" : 1430,
                                "_type" : "ScreenVMFile",
                                "src" : 1,
                                "trackNumber" : 0,
                                "attributes" : {
                                  "ident" : "Rec 01-10-21"
                                },
                                "parameters" : {
                                  "cursorScale" : {
                                    "type" : "double",
                                    "defaultValue" : 0.0,
                                    "interp" : "linr"
                                  },
                                  "cursorOpacity" : {
                                    "type" : "double",
                                    "defaultValue" : 0.0,
                                    "interp" : "linr"
                                  }
                                },
                                "effects" : [

                                ],
                                "start" : 7658,
                                "duration" : 45,
                                "mediaStart" : 8776,
                                "mediaDuration" : 45,
                                "scalar" : 1,
                                "animationTracks" : {

                                }
                              },
                          "audio" : 
                              {
                                "id" : 1431,
                                "_type" : "AMFile",
                                "src" : 1,
                                "trackNumber" : 1,
                                "attributes" : {
                                  "ident" : "",
                                  "gain" : 1.0,
                                  "mixToMono" : false
                                },
                                  "channelNumber" : "0,1",
                                "effects" : [

                                ],
                                "start" : 7658,
                                "duration" : 45,
                                "mediaStart" : 8776,
                                "mediaDuration" : 45,
                                "scalar" : 1,
                                "animationTracks" : {

                                }
                              }
,
                          "start" : 7658,
                          "duration" : 45,
                          "mediaStart" : 0,
                          "mediaDuration" : 25747,
                          "scalar" : 1,
                          "metadata" : {
                            "AutoAppliedSmartFocus" : "False",
                            "clipSpeedAttribute" : false
                          }
                        },
                        {
                          "id" : 1432,
                          "_type" : "UnifiedMedia",
                          "video" : 
                              {
                                "id" : 1433,
                                "_type" : "ScreenVMFile",
                                "src" : 1,
                                "trackNumber" : 0,
                                "attributes" : {
                                  "ident" : "Rec 01-10-21"
                                },
                                "parameters" : {
                                  "cursorScale" : {
                                    "type" : "double",
                                    "defaultValue" : 0.0,
                                    "interp" : "linr"
                                  },
                                  "cursorOpacity" : {
                                    "type" : "double",
                                    "defaultValue" : 0.0,
                                    "interp" : "linr"
                                  }
                                },
                                "effects" : [

                                ],
                                "start" : 7703,
                                "duration" : 46,
                                "mediaStart" : 8841,
                                "mediaDuration" : 46,
                                "scalar" : 1,
                                "animationTracks" : {

                                }
                              },
                          "audio" : 
                              {
                                "id" : 1434,
                                "_type" : "AMFile",
                                "src" : 1,
                                "trackNumber" : 1,
                                "attributes" : {
                                  "ident" : "",
                                  "gain" : 1.0,
                                  "mixToMono" : false
                                },
                                  "channelNumber" : "0,1",
                                "effects" : [

                                ],
                                "start" : 7703,
                                "duration" : 46,
                                "mediaStart" : 8841,
                                "mediaDuration" : 46,
                                "scalar" : 1,
                                "animationTracks" : {

                                }
                              }
,
                          "start" : 7703,
                          "duration" : 46,
                          "mediaStart" : 0,
                          "mediaDuration" : 25747,
                          "scalar" : 1,
                          "metadata" : {
                            "AutoAppliedSmartFocus" : "False",
                            "clipSpeedAttribute" : false
                          }
                        },
                        {
                          "id" : 1435,
                          "_type" : "UnifiedMedia",
                          "video" : 
                              {
                                "id" : 1436,
                                "_type" : "ScreenVMFile",
                                "src" : 1,
                                "trackNumber" : 0,
                                "attributes" : {
                                  "ident" : "Rec 01-10-21"
                                },
                                "parameters" : {
                                  "cursorScale" : {
                                    "type" : "double",
                                    "defaultValue" : 0.0,
                                    "interp" : "linr"
                                  },
                                  "cursorOpacity" : {
                                    "type" : "double",
                                    "defaultValue" : 0.0,
                                    "interp" : "linr"
                                  }
                                },
                                "effects" : [

                                ],
                                "start" : 7749,
                                "duration" : 1925,
                                "mediaStart" : 8937,
                                "mediaDuration" : 1925,
                                "scalar" : 1,
                                "animationTracks" : {

                                }
                              },
                          "audio" : 
                              {
                                "id" : 1437,
                                "_type" : "AMFile",
                                "src" : 1,
                                "trackNumber" : 1,
                                "attributes" : {
                                  "ident" : "",
                                  "gain" : 1.0,
                                  "mixToMono" : false
                                },
                                  "channelNumber" : "0,1",
                                "effects" : [

                                ],
                                "start" : 7749,
                                "duration" : 1925,
                                "mediaStart" : 8937,
                                "mediaDuration" : 1925,
                                "scalar" : 1,
                                "animationTracks" : {

                                }
                              }
,
                          "start" : 7749,
                          "duration" : 1925,
                          "mediaStart" : 0,
                          "mediaDuration" : 25747,
                          "scalar" : 1,
                          "metadata" : {
                            "AutoAppliedSmartFocus" : "False",
                            "clipSpeedAttribute" : false
                          }
                        },
                        {
                          "id" : 1438,
                          "_type" : "UnifiedMedia",
                          "video" : 
                              {
                                "id" : 1439,
                                "_type" : "ScreenVMFile",
                                "src" : 1,
                                "trackNumber" : 0,
                                "attributes" : {
                                  "ident" : "Rec 01-10-21"
                                },
                                "parameters" : {
                                  "cursorScale" : {
                                    "type" : "double",
                                    "defaultValue" : 0.0,
                                    "interp" : "linr"
                                  },
                                  "cursorOpacity" : {
                                    "type" : "double",
                                    "defaultValue" : 0.0,
                                    "interp" : "linr"
                                  }
                                },
                                "effects" : [

                                ],
                                "start" : 9674,
                                "duration" : 322,
                                "mediaStart" : 10938,
                                "mediaDuration" : 322,
                                "scalar" : 1,
                                "animationTracks" : {

                                }
                              },
                          "audio" : 
                              {
                                "id" : 1440,
                                "_type" : "AMFile",
                                "src" : 1,
                                "trackNumber" : 1,
                                "attributes" : {
                                  "ident" : "",
                                  "gain" : 1.0,
                                  "mixToMono" : false
                                },
                                  "channelNumber" : "0,1",
                                "effects" : [

                                ],
                                "start" : 9674,
                                "duration" : 322,
                                "mediaStart" : 10938,
                                "mediaDuration" : 322,
                                "scalar" : 1,
                                "animationTracks" : {

                                }
                              }
,
                          "start" : 9674,
                          "duration" : 322,
                          "mediaStart" : 0,
                          "mediaDuration" : 25747,
                          "scalar" : 1,
                          "metadata" : {
                            "AutoAppliedSmartFocus" : "False",
                            "clipSpeedAttribute" : false
                          }
                        },
                        {
                          "id" : 1441,
                          "_type" : "UnifiedMedia",
                          "video" : 
                              {
                                "id" : 1442,
                                "_type" : "ScreenVMFile",
                                "src" : 1,
                                "trackNumber" : 0,
                                "attributes" : {
                                  "ident" : "Rec 01-10-21"
                                },
                                "parameters" : {
                                  "cursorScale" : {
                                    "type" : "double",
                                    "defaultValue" : 0.0,
                                    "interp" : "linr"
                                  },
                                  "cursorOpacity" : {
                                    "type" : "double",
                                    "defaultValue" : 0.0,
                                    "interp" : "linr"
                                  }
                                },
                                "effects" : [

                                ],
                                "start" : 9996,
                                "duration" : 27,
                                "mediaStart" : 11328,
                                "mediaDuration" : 27,
                                "scalar" : 1,
                                "animationTracks" : {

                                }
                              },
                          "audio" : 
                              {
                                "id" : 1443,
                                "_type" : "AMFile",
                                "src" : 1,
                                "trackNumber" : 1,
                                "attributes" : {
                                  "ident" : "",
                                  "gain" : 1.0,
                                  "mixToMono" : false
                                },
                                  "channelNumber" : "0,1",
                                "effects" : [

                                ],
                                "start" : 9996,
                                "duration" : 27,
                                "mediaStart" : 11328,
                                "mediaDuration" : 27,
                                "scalar" : 1,
                                "animationTracks" : {

                                }
                              }
,
                          "start" : 9996,
                          "duration" : 27,
                          "mediaStart" : 0,
                          "mediaDuration" : 25747,
                          "scalar" : 1,
                          "metadata" : {
                            "AutoAppliedSmartFocus" : "False",
                            "clipSpeedAttribute" : false
                          }
                        },
                        {
                          "id" : 1444,
                          "_type" : "UnifiedMedia",
                          "video" : 
                              {
                                "id" : 1445,
                                "_type" : "ScreenVMFile",
                                "src" : 1,
                                "trackNumber" : 0,
                                "attributes" : {
                                  "ident" : "Rec 01-10-21"
                                },
                                "parameters" : {
                                  "cursorScale" : {
                                    "type" : "double",
                                    "defaultValue" : 0.0,
                                    "interp" : "linr"
                                  },
                                  "cursorOpacity" : {
                                    "type" : "double",
                                    "defaultValue" : 0.0,
                                    "interp" : "linr"
                                  }
                                },
                                "effects" : [

                                ],
                                "start" : 10023,
                                "duration" : 119,
                                "mediaStart" : 11424,
                                "mediaDuration" : 119,
                                "scalar" : 1,
                                "animationTracks" : {

                                }
                              },
                          "audio" : 
                              {
                                "id" : 1446,
                                "_type" : "AMFile",
                                "src" : 1,
                                "trackNumber" : 1,
                                "attributes" : {
                                  "ident" : "",
                                  "gain" : 1.0,
                                  "mixToMono" : false
                                },
                                  "channelNumber" : "0,1",
                                "effects" : [

                                ],
                                "start" : 10023,
                                "duration" : 119,
                                "mediaStart" : 11424,
                                "mediaDuration" : 119,
                                "scalar" : 1,
                                "animationTracks" : {

                                }
                              }
,
                          "start" : 10023,
                          "duration" : 119,
                          "mediaStart" : 0,
                          "mediaDuration" : 25747,
                          "scalar" : 1,
                          "metadata" : {
                            "AutoAppliedSmartFocus" : "False",
                            "clipSpeedAttribute" : false
                          }
                        },
                        {
                          "id" : 1447,
                          "_type" : "UnifiedMedia",
                          "video" : 
                              {
                                "id" : 1448,
                                "_type" : "ScreenVMFile",
                                "src" : 1,
                                "trackNumber" : 0,
                                "attributes" : {
                                  "ident" : "Rec 01-10-21"
                                },
                                "parameters" : {
                                  "cursorScale" : {
                                    "type" : "double",
                                    "defaultValue" : 0.0,
                                    "interp" : "linr"
                                  },
                                  "cursorOpacity" : {
                                    "type" : "double",
                                    "defaultValue" : 0.0,
                                    "interp" : "linr"
                                  }
                                },
                                "effects" : [

                                ],
                                "start" : 10142,
                                "duration" : 46,
                                "mediaStart" : 11727,
                                "mediaDuration" : 46,
                                "scalar" : 1,
                                "animationTracks" : {

                                }
                              },
                          "audio" : 
                              {
                                "id" : 1449,
                                "_type" : "AMFile",
                                "src" : 1,
                                "trackNumber" : 1,
                                "attributes" : {
                                  "ident" : "",
                                  "gain" : 1.0,
                                  "mixToMono" : false
                                },
                                  "channelNumber" : "0,1",
                                "effects" : [

                                ],
                                "start" : 10142,
                                "duration" : 46,
                                "mediaStart" : 11727,
                                "mediaDuration" : 46,
                                "scalar" : 1,
                                "animationTracks" : {

                                }
                              }
,
                          "start" : 10142,
                          "duration" : 46,
                          "mediaStart" : 0,
                          "mediaDuration" : 25747,
                          "scalar" : 1,
                          "metadata" : {
                            "AutoAppliedSmartFocus" : "False",
                            "clipSpeedAttribute" : false
                          }
                        },
                        {
                          "id" : 1450,
                          "_type" : "UnifiedMedia",
                          "video" : 
                              {
                                "id" : 1451,
                                "_type" : "ScreenVMFile",
                                "src" : 1,
                                "trackNumber" : 0,
                                "attributes" : {
                                  "ident" : "Rec 01-10-21"
                                },
                                "parameters" : {
                                  "cursorScale" : {
                                    "type" : "double",
                                    "defaultValue" : 0.0,
                                    "interp" : "linr"
                                  },
                                  "cursorOpacity" : {
                                    "type" : "double",
                                    "defaultValue" : 0.0,
                                    "interp" : "linr"
                                  }
                                },
                                "effects" : [

                                ],
                                "start" : 10188,
                                "duration" : 461,
                                "mediaStart" : 11870,
                                "mediaDuration" : 461,
                                "scalar" : 1,
                                "animationTracks" : {

                                }
                              },
                          "audio" : 
                              {
                                "id" : 1452,
                                "_type" : "AMFile",
                                "src" : 1,
                                "trackNumber" : 1,
                                "attributes" : {
                                  "ident" : "",
                                  "gain" : 1.0,
                                  "mixToMono" : false
                                },
                                  "channelNumber" : "0,1",
                                "effects" : [

                                ],
                                "start" : 10188,
                                "duration" : 461,
                                "mediaStart" : 11870,
                                "mediaDuration" : 461,
                                "scalar" : 1,
                                "animationTracks" : {

                                }
                              }
,
                          "start" : 10188,
                          "duration" : 461,
                          "mediaStart" : 0,
                          "mediaDuration" : 25747,
                          "scalar" : 1,
                          "metadata" : {
                            "AutoAppliedSmartFocus" : "False",
                            "clipSpeedAttribute" : false
                          }
                        },
                        {
                          "id" : 1453,
                          "_type" : "UnifiedMedia",
                          "video" : 
                              {
                                "id" : 1454,
                                "_type" : "ScreenVMFile",
                                "src" : 1,
                                "trackNumber" : 0,
                                "attributes" : {
                                  "ident" : "Rec 01-10-21"
                                },
                                "parameters" : {
                                  "cursorScale" : {
                                    "type" : "double",
                                    "defaultValue" : 0.0,
                                    "interp" : "linr"
                                  },
                                  "cursorOpacity" : {
                                    "type" : "double",
                                    "defaultValue" : 0.0,
                                    "interp" : "linr"
                                  }
                                },
                                "effects" : [

                                ],
                                "start" : 10649,
                                "duration" : 73,
                                "mediaStart" : 12767,
                                "mediaDuration" : 73,
                                "scalar" : 1,
                                "animationTracks" : {

                                }
                              },
                          "audio" : 
                              {
                                "id" : 1455,
                                "_type" : "AMFile",
                                "src" : 1,
                                "trackNumber" : 1,
                                "attributes" : {
                                  "ident" : "",
                                  "gain" : 1.0,
                                  "mixToMono" : false
                                },
                                  "channelNumber" : "0,1",
                                "effects" : [

                                ],
                                "start" : 10649,
                                "duration" : 73,
                                "mediaStart" : 12767,
                                "mediaDuration" : 73,
                                "scalar" : 1,
                                "animationTracks" : {

                                }
                              }
,
                          "start" : 10649,
                          "duration" : 73,
                          "mediaStart" : 0,
                          "mediaDuration" : 25747,
                          "scalar" : 1,
                          "metadata" : {
                            "AutoAppliedSmartFocus" : "False",
                            "clipSpeedAttribute" : false
                          }
                        },
                        {
                          "id" : 1456,
                          "_type" : "UnifiedMedia",
                          "video" : 
                              {
                                "id" : 1457,
                                "_type" : "ScreenVMFile",
                                "src" : 1,
                                "trackNumber" : 0,
                                "attributes" : {
                                  "ident" : "Rec 01-10-21"
                                },
                                "parameters" : {
                                  "cursorScale" : {
                                    "type" : "double",
                                    "defaultValue" : 0.0,
                                    "interp" : "linr"
                                  },
                                  "cursorOpacity" : {
                                    "type" : "double",
                                    "defaultValue" : 0.0,
                                    "interp" : "linr"
                                  }
                                },
                                "effects" : [

                                ],
                                "start" : 10722,
                                "duration" : 166,
                                "mediaStart" : 13215,
                                "mediaDuration" : 166,
                                "scalar" : 1,
                                "animationTracks" : {

                                }
                              },
                          "audio" : 
                              {
                                "id" : 1458,
                                "_type" : "AMFile",
                                "src" : 1,
                                "trackNumber" : 1,
                                "attributes" : {
                                  "ident" : "",
                                  "gain" : 1.0,
                                  "mixToMono" : false
                                },
                                  "channelNumber" : "0,1",
                                "effects" : [

                                ],
                                "start" : 10722,
                                "duration" : 166,
                                "mediaStart" : 13215,
                                "mediaDuration" : 166,
                                "scalar" : 1,
                                "animationTracks" : {

                                }
                              }
,
                          "start" : 10722,
                          "duration" : 166,
                          "mediaStart" : 0,
                          "mediaDuration" : 25747,
                          "scalar" : 1,
                          "metadata" : {
                            "AutoAppliedSmartFocus" : "False",
                            "clipSpeedAttribute" : false
                          }
                        },
                        {
                          "id" : 1459,
                          "_type" : "UnifiedMedia",
                          "video" : 
                              {
                                "id" : 1460,
                                "_type" : "ScreenVMFile",
                                "src" : 1,
                                "trackNumber" : 0,
                                "attributes" : {
                                  "ident" : "Rec 01-10-21"
                                },
                                "parameters" : {
                                  "cursorScale" : {
                                    "type" : "double",
                                    "defaultValue" : 0.0,
                                    "interp" : "linr"
                                  },
                                  "cursorOpacity" : {
                                    "type" : "double",
                                    "defaultValue" : 0.0,
                                    "interp" : "linr"
                                  }
                                },
                                "effects" : [

                                ],
                                "start" : 10888,
                                "duration" : 305,
                                "mediaStart" : 13397,
                                "mediaDuration" : 305,
                                "scalar" : 1,
                                "animationTracks" : {

                                }
                              },
                          "audio" : 
                              {
                                "id" : 1461,
                                "_type" : "AMFile",
                                "src" : 1,
                                "trackNumber" : 1,
                                "attributes" : {
                                  "ident" : "",
                                  "gain" : 1.0,
                                  "mixToMono" : false
                                },
                                  "channelNumber" : "0,1",
                                "effects" : [

                                ],
                                "start" : 10888,
                                "duration" : 305,
                                "mediaStart" : 13397,
                                "mediaDuration" : 305,
                                "scalar" : 1,
                                "animationTracks" : {

                                }
                              }
,
                          "start" : 10888,
                          "duration" : 305,
                          "mediaStart" : 0,
                          "mediaDuration" : 25747,
                          "scalar" : 1,
                          "metadata" : {
                            "AutoAppliedSmartFocus" : "False",
                            "clipSpeedAttribute" : false
                          }
                        },
                        {
                          "id" : 1462,
                          "_type" : "UnifiedMedia",
                          "video" : 
                              {
                                "id" : 1463,
                                "_type" : "ScreenVMFile",
                                "src" : 1,
                                "trackNumber" : 0,
                                "attributes" : {
                                  "ident" : "Rec 01-10-21"
                                },
                                "parameters" : {
                                  "cursorScale" : {
                                    "type" : "double",
                                    "defaultValue" : 0.0,
                                    "interp" : "linr"
                                  },
                                  "cursorOpacity" : {
                                    "type" : "double",
                                    "defaultValue" : 0.0,
                                    "interp" : "linr"
                                  }
                                },
                                "effects" : [

                                ],
                                "start" : 11193,
                                "duration" : 196,
                                "mediaStart" : 13738,
                                "mediaDuration" : 196,
                                "scalar" : 1,
                                "animationTracks" : {

                                }
                              },
                          "audio" : 
                              {
                                "id" : 1464,
                                "_type" : "AMFile",
                                "src" : 1,
                                "trackNumber" : 1,
                                "attributes" : {
                                  "ident" : "",
                                  "gain" : 1.0,
                                  "mixToMono" : false
                                },
                                  "channelNumber" : "0,1",
                                "effects" : [

                                ],
                                "start" : 11193,
                                "duration" : 196,
                                "mediaStart" : 13738,
                                "mediaDuration" : 196,
                                "scalar" : 1,
                                "animationTracks" : {

                                }
                              }
,
                          "start" : 11193,
                          "duration" : 196,
                          "mediaStart" : 0,
                          "mediaDuration" : 25747,
                          "scalar" : 1,
                          "metadata" : {
                            "AutoAppliedSmartFocus" : "False",
                            "clipSpeedAttribute" : false
                          }
                        },
                        {
                          "id" : 1465,
                          "_type" : "UnifiedMedia",
                          "video" : 
                              {
                                "id" : 1466,
                                "_type" : "ScreenVMFile",
                                "src" : 1,
                                "trackNumber" : 0,
                                "attributes" : {
                                  "ident" : "Rec 01-10-21"
                                },
                                "parameters" : {
                                  "cursorScale" : {
                                    "type" : "double",
                                    "defaultValue" : 0.0,
                                    "interp" : "linr"
                                  },
                                  "cursorOpacity" : {
                                    "type" : "double",
                                    "defaultValue" : 0.0,
                                    "interp" : "linr"
                                  }
                                },
                                "effects" : [

                                ],
                                "start" : 11389,
                                "duration" : 54,
                                "mediaStart" : 13961,
                                "mediaDuration" : 54,
                                "scalar" : 1,
                                "animationTracks" : {

                                }
                              },
                          "audio" : 
                              {
                                "id" : 1467,
                                "_type" : "AMFile",
                                "src" : 1,
                                "trackNumber" : 1,
                                "attributes" : {
                                  "ident" : "",
                                  "gain" : 1.0,
                                  "mixToMono" : false
                                },
                                  "channelNumber" : "0,1",
                                "effects" : [

                                ],
                                "start" : 11389,
                                "duration" : 54,
                                "mediaStart" : 13961,
                                "mediaDuration" : 54,
                                "scalar" : 1,
                                "animationTracks" : {

                                }
                              }
,
                          "start" : 11389,
                          "duration" : 54,
                          "mediaStart" : 0,
                          "mediaDuration" : 25747,
                          "scalar" : 1,
                          "metadata" : {
                            "AutoAppliedSmartFocus" : "False",
                            "clipSpeedAttribute" : false
                          }
                        },
                        {
                          "id" : 1468,
                          "_type" : "UnifiedMedia",
                          "video" : 
                              {
                                "id" : 1469,
                                "_type" : "ScreenVMFile",
                                "src" : 1,
                                "trackNumber" : 0,
                                "attributes" : {
                                  "ident" : "Rec 01-10-21"
                                },
                                "parameters" : {
                                  "cursorScale" : {
                                    "type" : "double",
                                    "defaultValue" : 0.0,
                                    "interp" : "linr"
                                  },
                                  "cursorOpacity" : {
                                    "type" : "double",
                                    "defaultValue" : 0.0,
                                    "interp" : "linr"
                                  }
                                },
                                "effects" : [

                                ],
                                "start" : 11443,
                                "duration" : 28,
                                "mediaStart" : 14029,
                                "mediaDuration" : 28,
                                "scalar" : 1,
                                "animationTracks" : {

                                }
                              },
                          "audio" : 
                              {
                                "id" : 1470,
                                "_type" : "AMFile",
                                "src" : 1,
                                "trackNumber" : 1,
                                "attributes" : {
                                  "ident" : "",
                                  "gain" : 1.0,
                                  "mixToMono" : false
                                },
                                  "channelNumber" : "0,1",
                                "effects" : [

                                ],
                                "start" : 11443,
                                "duration" : 28,
                                "mediaStart" : 14029,
                                "mediaDuration" : 28,
                                "scalar" : 1,
                                "animationTracks" : {

                                }
                              }
,
                          "start" : 11443,
                          "duration" : 28,
                          "mediaStart" : 0,
                          "mediaDuration" : 25747,
                          "scalar" : 1,
                          "metadata" : {
                            "AutoAppliedSmartFocus" : "False",
                            "clipSpeedAttribute" : false
                          }
                        },
                        {
                          "id" : 1471,
                          "_type" : "UnifiedMedia",
                          "video" : 
                              {
                                "id" : 1472,
                                "_type" : "ScreenVMFile",
                                "src" : 1,
                                "trackNumber" : 0,
                                "attributes" : {
                                  "ident" : "Rec 01-10-21"
                                },
                                "parameters" : {
                                  "cursorScale" : {
                                    "type" : "double",
                                    "defaultValue" : 0.0,
                                    "interp" : "linr"
                                  },
                                  "cursorOpacity" : {
                                    "type" : "double",
                                    "defaultValue" : 0.0,
                                    "interp" : "linr"
                                  }
                                },
                                "effects" : [

                                ],
                                "start" : 11471,
                                "duration" : 48,
                                "mediaStart" : 14274,
                                "mediaDuration" : 48,
                                "scalar" : 1,
                                "animationTracks" : {

                                }
                              },
                          "audio" : 
                              {
                                "id" : 1473,
                                "_type" : "AMFile",
                                "src" : 1,
                                "trackNumber" : 1,
                                "attributes" : {
                                  "ident" : "",
                                  "gain" : 1.0,
                                  "mixToMono" : false
                                },
                                  "channelNumber" : "0,1",
                                "effects" : [

                                ],
                                "start" : 11471,
                                "duration" : 48,
                                "mediaStart" : 14274,
                                "mediaDuration" : 48,
                                "scalar" : 1,
                                "animationTracks" : {

                                }
                              }
,
                          "start" : 11471,
                          "duration" : 48,
                          "mediaStart" : 0,
                          "mediaDuration" : 25747,
                          "scalar" : 1,
                          "metadata" : {
                            "AutoAppliedSmartFocus" : "False",
                            "clipSpeedAttribute" : false
                          }
                        },
                        {
                          "id" : 1474,
                          "_type" : "UnifiedMedia",
                          "video" : 
                              {
                                "id" : 1475,
                                "_type" : "ScreenVMFile",
                                "src" : 1,
                                "trackNumber" : 0,
                                "attributes" : {
                                  "ident" : "Rec 01-10-21"
                                },
                                "parameters" : {
                                  "cursorScale" : {
                                    "type" : "double",
                                    "defaultValue" : 0.0,
                                    "interp" : "linr"
                                  },
                                  "cursorOpacity" : {
                                    "type" : "double",
                                    "defaultValue" : 0.0,
                                    "interp" : "linr"
                                  }
                                },
                                "effects" : [

                                ],
                                "start" : 11519,
                                "duration" : 118,
                                "mediaStart" : 14378,
                                "mediaDuration" : 118,
                                "scalar" : 1,
                                "animationTracks" : {

                                }
                              },
                          "audio" : 
                              {
                                "id" : 1476,
                                "_type" : "AMFile",
                                "src" : 1,
                                "trackNumber" : 1,
                                "attributes" : {
                                  "ident" : "",
                                  "gain" : 1.0,
                                  "mixToMono" : false
                                },
                                  "channelNumber" : "0,1",
                                "effects" : [

                                ],
                                "start" : 11519,
                                "duration" : 118,
                                "mediaStart" : 14378,
                                "mediaDuration" : 118,
                                "scalar" : 1,
                                "animationTracks" : {

                                }
                              }
,
                          "start" : 11519,
                          "duration" : 118,
                          "mediaStart" : 0,
                          "mediaDuration" : 25747,
                          "scalar" : 1,
                          "metadata" : {
                            "AutoAppliedSmartFocus" : "False",
                            "clipSpeedAttribute" : false
                          }
                        },
                        {
                          "id" : 1477,
                          "_type" : "UnifiedMedia",
                          "video" : 
                              {
                                "id" : 1478,
                                "_type" : "ScreenVMFile",
                                "src" : 1,
                                "trackNumber" : 0,
                                "attributes" : {
                                  "ident" : "Rec 01-10-21"
                                },
                                "parameters" : {
                                  "cursorScale" : {
                                    "type" : "double",
                                    "defaultValue" : 0.0,
                                    "interp" : "linr"
                                  },
                                  "cursorOpacity" : {
                                    "type" : "double",
                                    "defaultValue" : 0.0,
                                    "interp" : "linr"
                                  }
                                },
                                "effects" : [

                                ],
                                "start" : 11637,
                                "duration" : 252,
                                "mediaStart" : 14503,
                                "mediaDuration" : 252,
                                "scalar" : 1,
                                "animationTracks" : {

                                }
                              },
                          "audio" : 
                              {
                                "id" : 1479,
                                "_type" : "AMFile",
                                "src" : 1,
                                "trackNumber" : 1,
                                "attributes" : {
                                  "ident" : "",
                                  "gain" : 1.0,
                                  "mixToMono" : false
                                },
                                  "channelNumber" : "0,1",
                                "effects" : [

                                ],
                                "start" : 11637,
                                "duration" : 252,
                                "mediaStart" : 14503,
                                "mediaDuration" : 252,
                                "scalar" : 1,
                                "animationTracks" : {

                                }
                              }
,
                          "start" : 11637,
                          "duration" : 252,
                          "mediaStart" : 0,
                          "mediaDuration" : 25747,
                          "scalar" : 1,
                          "metadata" : {
                            "AutoAppliedSmartFocus" : "False",
                            "clipSpeedAttribute" : false
                          }
                        },
                        {
                          "id" : 1480,
                          "_type" : "UnifiedMedia",
                          "video" : 
                              {
                                "id" : 1481,
                                "_type" : "ScreenVMFile",
                                "src" : 1,
                                "trackNumber" : 0,
                                "attributes" : {
                                  "ident" : "Rec 01-10-21"
                                },
                                "parameters" : {
                                  "cursorScale" : {
                                    "type" : "double",
                                    "defaultValue" : 0.0,
                                    "interp" : "linr"
                                  },
                                  "cursorOpacity" : {
                                    "type" : "double",
                                    "defaultValue" : 0.0,
                                    "interp" : "linr"
                                  }
                                },
                                "effects" : [

                                ],
                                "start" : 11889,
                                "duration" : 127,
                                "mediaStart" : 14814,
                                "mediaDuration" : 127,
                                "scalar" : 1,
                                "animationTracks" : {

                                }
                              },
                          "audio" : 
                              {
                                "id" : 1482,
                                "_type" : "AMFile",
                                "src" : 1,
                                "trackNumber" : 1,
                                "attributes" : {
                                  "ident" : "",
                                  "gain" : 1.0,
                                  "mixToMono" : false
                                },
                                  "channelNumber" : "0,1",
                                "effects" : [

                                ],
                                "start" : 11889,
                                "duration" : 127,
                                "mediaStart" : 14814,
                                "mediaDuration" : 127,
                                "scalar" : 1,
                                "animationTracks" : {

                                }
                              }
,
                          "start" : 11889,
                          "duration" : 127,
                          "mediaStart" : 0,
                          "mediaDuration" : 25747,
                          "scalar" : 1,
                          "metadata" : {
                            "AutoAppliedSmartFocus" : "False",
                            "clipSpeedAttribute" : false
                          }
                        },
                        {
                          "id" : 1483,
                          "_type" : "UnifiedMedia",
                          "video" : 
                              {
                                "id" : 1484,
                                "_type" : "ScreenVMFile",
                                "src" : 1,
                                "trackNumber" : 0,
                                "attributes" : {
                                  "ident" : "Rec 01-10-21"
                                },
                                "parameters" : {
                                  "cursorScale" : {
                                    "type" : "double",
                                    "defaultValue" : 0.0,
                                    "interp" : "linr"
                                  },
                                  "cursorOpacity" : {
                                    "type" : "double",
                                    "defaultValue" : 0.0,
                                    "interp" : "linr"
                                  }
                                },
                                "effects" : [

                                ],
                                "start" : 12016,
                                "duration" : 43,
                                "mediaStart" : 14962,
                                "mediaDuration" : 43,
                                "scalar" : 1,
                                "animationTracks" : {

                                }
                              },
                          "audio" : 
                              {
                                "id" : 1485,
                                "_type" : "AMFile",
                                "src" : 1,
                                "trackNumber" : 1,
                                "attributes" : {
                                  "ident" : "",
                                  "gain" : 1.0,
                                  "mixToMono" : false
                                },
                                  "channelNumber" : "0,1",
                                "effects" : [

                                ],
                                "start" : 12016,
                                "duration" : 43,
                                "mediaStart" : 14962,
                                "mediaDuration" : 43,
                                "scalar" : 1,
                                "animationTracks" : {

                                }
                              }
,
                          "start" : 12016,
                          "duration" : 43,
                          "mediaStart" : 0,
                          "mediaDuration" : 25747,
                          "scalar" : 1,
                          "metadata" : {
                            "AutoAppliedSmartFocus" : "False",
                            "clipSpeedAttribute" : false
                          }
                        },
                        {
                          "id" : 1486,
                          "_type" : "UnifiedMedia",
                          "video" : 
                              {
                                "id" : 1487,
                                "_type" : "ScreenVMFile",
                                "src" : 1,
                                "trackNumber" : 0,
                                "attributes" : {
                                  "ident" : "Rec 01-10-21"
                                },
                                "parameters" : {
                                  "cursorScale" : {
                                    "type" : "double",
                                    "defaultValue" : 0.0,
                                    "interp" : "linr"
                                  },
                                  "cursorOpacity" : {
                                    "type" : "double",
                                    "defaultValue" : 0.0,
                                    "interp" : "linr"
                                  }
                                },
                                "effects" : [

                                ],
                                "start" : 12059,
                                "duration" : 84,
                                "mediaStart" : 15016,
                                "mediaDuration" : 84,
                                "scalar" : 1,
                                "animationTracks" : {

                                }
                              },
                          "audio" : 
                              {
                                "id" : 1488,
                                "_type" : "AMFile",
                                "src" : 1,
                                "trackNumber" : 1,
                                "attributes" : {
                                  "ident" : "",
                                  "gain" : 1.0,
                                  "mixToMono" : false
                                },
                                  "channelNumber" : "0,1",
                                "effects" : [

                                ],
                                "start" : 12059,
                                "duration" : 84,
                                "mediaStart" : 15016,
                                "mediaDuration" : 84,
                                "scalar" : 1,
                                "animationTracks" : {

                                }
                              }
,
                          "start" : 12059,
                          "duration" : 84,
                          "mediaStart" : 0,
                          "mediaDuration" : 25747,
                          "scalar" : 1,
                          "metadata" : {
                            "AutoAppliedSmartFocus" : "False",
                            "clipSpeedAttribute" : false
                          }
                        },
                        {
                          "id" : 1489,
                          "_type" : "UnifiedMedia",
                          "video" : 
                              {
                                "id" : 1490,
                                "_type" : "ScreenVMFile",
                                "src" : 1,
                                "trackNumber" : 0,
                                "attributes" : {
                                  "ident" : "Rec 01-10-21"
                                },
                                "parameters" : {
                                  "cursorScale" : {
                                    "type" : "double",
                                    "defaultValue" : 0.0,
                                    "interp" : "linr"
                                  },
                                  "cursorOpacity" : {
                                    "type" : "double",
                                    "defaultValue" : 0.0,
                                    "interp" : "linr"
                                  }
                                },
                                "effects" : [

                                ],
                                "start" : 12143,
                                "duration" : 108,
                                "mediaStart" : 15147,
                                "mediaDuration" : 108,
                                "scalar" : 1,
                                "animationTracks" : {

                                }
                              },
                          "audio" : 
                              {
                                "id" : 1491,
                                "_type" : "AMFile",
                                "src" : 1,
                                "trackNumber" : 1,
                                "attributes" : {
                                  "ident" : "",
                                  "gain" : 1.0,
                                  "mixToMono" : false
                                },
                                  "channelNumber" : "0,1",
                                "effects" : [

                                ],
                                "start" : 12143,
                                "duration" : 108,
                                "mediaStart" : 15147,
                                "mediaDuration" : 108,
                                "scalar" : 1,
                                "animationTracks" : {

                                }
                              }
,
                          "start" : 12143,
                          "duration" : 108,
                          "mediaStart" : 0,
                          "mediaDuration" : 25747,
                          "scalar" : 1,
                          "metadata" : {
                            "AutoAppliedSmartFocus" : "False",
                            "clipSpeedAttribute" : false
                          }
                        },
                        {
                          "id" : 1492,
                          "_type" : "UnifiedMedia",
                          "video" : 
                              {
                                "id" : 1493,
                                "_type" : "ScreenVMFile",
                                "src" : 1,
                                "trackNumber" : 0,
                                "attributes" : {
                                  "ident" : "Rec 01-10-21"
                                },
                                "parameters" : {
                                  "cursorScale" : {
                                    "type" : "double",
                                    "defaultValue" : 0.0,
                                    "interp" : "linr"
                                  },
                                  "cursorOpacity" : {
                                    "type" : "double",
                                    "defaultValue" : 0.0,
                                    "interp" : "linr"
                                  }
                                },
                                "effects" : [

                                ],
                                "start" : 12251,
                                "duration" : 36,
                                "mediaStart" : 15274,
                                "mediaDuration" : 36,
                                "scalar" : 1,
                                "animationTracks" : {

                                }
                              },
                          "audio" : 
                              {
                                "id" : 1494,
                                "_type" : "AMFile",
                                "src" : 1,
                                "trackNumber" : 1,
                                "attributes" : {
                                  "ident" : "",
                                  "gain" : 1.0,
                                  "mixToMono" : false
                                },
                                  "channelNumber" : "0,1",
                                "effects" : [

                                ],
                                "start" : 12251,
                                "duration" : 36,
                                "mediaStart" : 15274,
                                "mediaDuration" : 36,
                                "scalar" : 1,
                                "animationTracks" : {

                                }
                              }
,
                          "start" : 12251,
                          "duration" : 36,
                          "mediaStart" : 0,
                          "mediaDuration" : 25747,
                          "scalar" : 1,
                          "metadata" : {
                            "AutoAppliedSmartFocus" : "False",
                            "clipSpeedAttribute" : false
                          }
                        },
                        {
                          "id" : 1495,
                          "_type" : "UnifiedMedia",
                          "video" : 
                              {
                                "id" : 1496,
                                "_type" : "ScreenVMFile",
                                "src" : 1,
                                "trackNumber" : 0,
                                "attributes" : {
                                  "ident" : "Rec 01-10-21"
                                },
                                "parameters" : {
                                  "cursorScale" : {
                                    "type" : "double",
                                    "defaultValue" : 0.0,
                                    "interp" : "linr"
                                  },
                                  "cursorOpacity" : {
                                    "type" : "double",
                                    "defaultValue" : 0.0,
                                    "interp" : "linr"
                                  }
                                },
                                "effects" : [

                                ],
                                "start" : 12287,
                                "duration" : 207,
                                "mediaStart" : 15343,
                                "mediaDuration" : 207,
                                "scalar" : 1,
                                "animationTracks" : {

                                }
                              },
                          "audio" : 
                              {
                                "id" : 1497,
                                "_type" : "AMFile",
                                "src" : 1,
                                "trackNumber" : 1,
                                "attributes" : {
                                  "ident" : "",
                                  "gain" : 1.0,
                                  "mixToMono" : false
                                },
                                  "channelNumber" : "0,1",
                                "effects" : [

                                ],
                                "start" : 12287,
                                "duration" : 207,
                                "mediaStart" : 15343,
                                "mediaDuration" : 207,
                                "scalar" : 1,
                                "animationTracks" : {

                                }
                              }
,
                          "start" : 12287,
                          "duration" : 207,
                          "mediaStart" : 0,
                          "mediaDuration" : 25747,
                          "scalar" : 1,
                          "metadata" : {
                            "AutoAppliedSmartFocus" : "False",
                            "clipSpeedAttribute" : false
                          }
                        },
                        {
                          "id" : 1498,
                          "_type" : "UnifiedMedia",
                          "video" : 
                              {
                                "id" : 1499,
                                "_type" : "ScreenVMFile",
                                "src" : 1,
                                "trackNumber" : 0,
                                "attributes" : {
                                  "ident" : "Rec 01-10-21"
                                },
                                "parameters" : {
                                  "cursorScale" : {
                                    "type" : "double",
                                    "defaultValue" : 0.0,
                                    "interp" : "linr"
                                  },
                                  "cursorOpacity" : {
                                    "type" : "double",
                                    "defaultValue" : 0.0,
                                    "interp" : "linr"
                                  }
                                },
                                "effects" : [

                                ],
                                "start" : 12494,
                                "duration" : 136,
                                "mediaStart" : 15590,
                                "mediaDuration" : 136,
                                "scalar" : 1,
                                "animationTracks" : {

                                }
                              },
                          "audio" : 
                              {
                                "id" : 1500,
                                "_type" : "AMFile",
                                "src" : 1,
                                "trackNumber" : 1,
                                "attributes" : {
                                  "ident" : "",
                                  "gain" : 1.0,
                                  "mixToMono" : false
                                },
                                  "channelNumber" : "0,1",
                                "effects" : [

                                ],
                                "start" : 12494,
                                "duration" : 136,
                                "mediaStart" : 15590,
                                "mediaDuration" : 136,
                                "scalar" : 1,
                                "animationTracks" : {

                                }
                              }
,
                          "start" : 12494,
                          "duration" : 136,
                          "mediaStart" : 0,
                          "mediaDuration" : 25747,
                          "scalar" : 1,
                          "metadata" : {
                            "AutoAppliedSmartFocus" : "False",
                            "clipSpeedAttribute" : false
                          }
                        },
                        {
                          "id" : 1501,
                          "_type" : "UnifiedMedia",
                          "video" : 
                              {
                                "id" : 1502,
                                "_type" : "ScreenVMFile",
                                "src" : 1,
                                "trackNumber" : 0,
                                "attributes" : {
                                  "ident" : "Rec 01-10-21"
                                },
                                "parameters" : {
                                  "cursorScale" : {
                                    "type" : "double",
                                    "defaultValue" : 0.0,
                                    "interp" : "linr"
                                  },
                                  "cursorOpacity" : {
                                    "type" : "double",
                                    "defaultValue" : 0.0,
                                    "interp" : "linr"
                                  }
                                },
                                "effects" : [

                                ],
                                "start" : 12630,
                                "duration" : 85,
                                "mediaStart" : 15788,
                                "mediaDuration" : 85,
                                "scalar" : 1,
                                "animationTracks" : {

                                }
                              },
                          "audio" : 
                              {
                                "id" : 1503,
                                "_type" : "AMFile",
                                "src" : 1,
                                "trackNumber" : 1,
                                "attributes" : {
                                  "ident" : "",
                                  "gain" : 1.0,
                                  "mixToMono" : false
                                },
                                  "channelNumber" : "0,1",
                                "effects" : [

                                ],
                                "start" : 12630,
                                "duration" : 85,
                                "mediaStart" : 15788,
                                "mediaDuration" : 85,
                                "scalar" : 1,
                                "animationTracks" : {

                                }
                              }
,
                          "start" : 12630,
                          "duration" : 85,
                          "mediaStart" : 0,
                          "mediaDuration" : 25747,
                          "scalar" : 1,
                          "metadata" : {
                            "AutoAppliedSmartFocus" : "False",
                            "clipSpeedAttribute" : false
                          }
                        },
                        {
                          "id" : 1504,
                          "_type" : "UnifiedMedia",
                          "video" : 
                              {
                                "id" : 1505,
                                "_type" : "ScreenVMFile",
                                "src" : 1,
                                "trackNumber" : 0,
                                "attributes" : {
                                  "ident" : "Rec 01-10-21"
                                },
                                "parameters" : {
                                  "cursorScale" : {
                                    "type" : "double",
                                    "defaultValue" : 0.0,
                                    "interp" : "linr"
                                  },
                                  "cursorOpacity" : {
                                    "type" : "double",
                                    "defaultValue" : 0.0,
                                    "interp" : "linr"
                                  }
                                },
                                "effects" : [

                                ],
                                "start" : 12715,
                                "duration" : 132,
                                "mediaStart" : 15926,
                                "mediaDuration" : 132,
                                "scalar" : 1,
                                "animationTracks" : {

                                }
                              },
                          "audio" : 
                              {
                                "id" : 1506,
                                "_type" : "AMFile",
                                "src" : 1,
                                "trackNumber" : 1,
                                "attributes" : {
                                  "ident" : "",
                                  "gain" : 1.0,
                                  "mixToMono" : false
                                },
                                  "channelNumber" : "0,1",
                                "effects" : [

                                ],
                                "start" : 12715,
                                "duration" : 132,
                                "mediaStart" : 15926,
                                "mediaDuration" : 132,
                                "scalar" : 1,
                                "animationTracks" : {

                                }
                              }
,
                          "start" : 12715,
                          "duration" : 132,
                          "mediaStart" : 0,
                          "mediaDuration" : 25747,
                          "scalar" : 1,
                          "metadata" : {
                            "AutoAppliedSmartFocus" : "False",
                            "clipSpeedAttribute" : false
                          }
                        },
                        {
                          "id" : 1507,
                          "_type" : "UnifiedMedia",
                          "video" : 
                              {
                                "id" : 1508,
                                "_type" : "ScreenVMFile",
                                "src" : 1,
                                "trackNumber" : 0,
                                "attributes" : {
                                  "ident" : "Rec 01-10-21"
                                },
                                "parameters" : {
                                  "cursorScale" : {
                                    "type" : "double",
                                    "defaultValue" : 0.0,
                                    "interp" : "linr"
                                  },
                                  "cursorOpacity" : {
                                    "type" : "double",
                                    "defaultValue" : 0.0,
                                    "interp" : "linr"
                                  }
                                },
                                "effects" : [

                                ],
                                "start" : 12847,
                                "duration" : 60,
                                "mediaStart" : 16118,
                                "mediaDuration" : 60,
                                "scalar" : 1,
                                "animationTracks" : {

                                }
                              },
                          "audio" : 
                              {
                                "id" : 1509,
                                "_type" : "AMFile",
                                "src" : 1,
                                "trackNumber" : 1,
                                "attributes" : {
                                  "ident" : "",
                                  "gain" : 1.0,
                                  "mixToMono" : false
                                },
                                  "channelNumber" : "0,1",
                                "effects" : [

                                ],
                                "start" : 12847,
                                "duration" : 60,
                                "mediaStart" : 16118,
                                "mediaDuration" : 60,
                                "scalar" : 1,
                                "animationTracks" : {

                                }
                              }
,
                          "start" : 12847,
                          "duration" : 60,
                          "mediaStart" : 0,
                          "mediaDuration" : 25747,
                          "scalar" : 1,
                          "metadata" : {
                            "AutoAppliedSmartFocus" : "False",
                            "clipSpeedAttribute" : false
                          }
                        },
                        {
                          "id" : 1510,
                          "_type" : "UnifiedMedia",
                          "video" : 
                              {
                                "id" : 1511,
                                "_type" : "ScreenVMFile",
                                "src" : 1,
                                "trackNumber" : 0,
                                "attributes" : {
                                  "ident" : "Rec 01-10-21"
                                },
                                "parameters" : {
                                  "cursorScale" : {
                                    "type" : "double",
                                    "defaultValue" : 0.0,
                                    "interp" : "linr"
                                  },
                                  "cursorOpacity" : {
                                    "type" : "double",
                                    "defaultValue" : 0.0,
                                    "interp" : "linr"
                                  }
                                },
                                "effects" : [

                                ],
                                "start" : 12907,
                                "duration" : 7,
                                "mediaStart" : 16638,
                                "mediaDuration" : 7,
                                "scalar" : 1,
                                "animationTracks" : {

                                }
                              },
                          "audio" : 
                              {
                                "id" : 1512,
                                "_type" : "AMFile",
                                "src" : 1,
                                "trackNumber" : 1,
                                "attributes" : {
                                  "ident" : "",
                                  "gain" : 1.0,
                                  "mixToMono" : false
                                },
                                  "channelNumber" : "0,1",
                                "effects" : [

                                ],
                                "start" : 12907,
                                "duration" : 7,
                                "mediaStart" : 16638,
                                "mediaDuration" : 7,
                                "scalar" : 1,
                                "animationTracks" : {

                                }
                              }
,
                          "start" : 12907,
                          "duration" : 7,
                          "mediaStart" : 0,
                          "mediaDuration" : 25747,
                          "scalar" : 1,
                          "metadata" : {
                            "AutoAppliedSmartFocus" : "False",
                            "clipSpeedAttribute" : false
                          }
                        },
                        {
                          "id" : 1513,
                          "_type" : "UnifiedMedia",
                          "video" : 
                              {
                                "id" : 1514,
                                "_type" : "ScreenVMFile",
                                "src" : 1,
                                "trackNumber" : 0,
                                "attributes" : {
                                  "ident" : "Rec 01-10-21"
                                },
                                "parameters" : {
                                  "cursorScale" : {
                                    "type" : "double",
                                    "defaultValue" : 0.0,
                                    "interp" : "linr"
                                  },
                                  "cursorOpacity" : {
                                    "type" : "double",
                                    "defaultValue" : 0.0,
                                    "interp" : "linr"
                                  }
                                },
                                "effects" : [

                                ],
                                "start" : 12914,
                                "duration" : 90,
                                "mediaStart" : 16843,
                                "mediaDuration" : 90,
                                "scalar" : 1,
                                "animationTracks" : {

                                }
                              },
                          "audio" : 
                              {
                                "id" : 1515,
                                "_type" : "AMFile",
                                "src" : 1,
                                "trackNumber" : 1,
                                "attributes" : {
                                  "ident" : "",
                                  "gain" : 1.0,
                                  "mixToMono" : false
                                },
                                  "channelNumber" : "0,1",
                                "effects" : [

                                ],
                                "start" : 12914,
                                "duration" : 90,
                                "mediaStart" : 16843,
                                "mediaDuration" : 90,
                                "scalar" : 1,
                                "animationTracks" : {

                                }
                              }
,
                          "start" : 12914,
                          "duration" : 90,
                          "mediaStart" : 0,
                          "mediaDuration" : 25747,
                          "scalar" : 1,
                          "metadata" : {
                            "AutoAppliedSmartFocus" : "False",
                            "clipSpeedAttribute" : false
                          }
                        },
                        {
                          "id" : 1516,
                          "_type" : "UnifiedMedia",
                          "video" : 
                              {
                                "id" : 1517,
                                "_type" : "ScreenVMFile",
                                "src" : 1,
                                "trackNumber" : 0,
                                "attributes" : {
                                  "ident" : "Rec 01-10-21"
                                },
                                "parameters" : {
                                  "cursorScale" : {
                                    "type" : "double",
                                    "defaultValue" : 0.0,
                                    "interp" : "linr"
                                  },
                                  "cursorOpacity" : {
                                    "type" : "double",
                                    "defaultValue" : 0.0,
                                    "interp" : "linr"
                                  }
                                },
                                "effects" : [

                                ],
                                "start" : 13004,
                                "duration" : 3,
                                "mediaStart" : 16991,
                                "mediaDuration" : 3,
                                "scalar" : 1,
                                "animationTracks" : {

                                }
                              },
                          "audio" : 
                              {
                                "id" : 1518,
                                "_type" : "AMFile",
                                "src" : 1,
                                "trackNumber" : 1,
                                "attributes" : {
                                  "ident" : "",
                                  "gain" : 1.0,
                                  "mixToMono" : false
                                },
                                  "channelNumber" : "0,1",
                                "effects" : [

                                ],
                                "start" : 13004,
                                "duration" : 3,
                                "mediaStart" : 16991,
                                "mediaDuration" : 3,
                                "scalar" : 1,
                                "animationTracks" : {

                                }
                              }
,
                          "start" : 13004,
                          "duration" : 3,
                          "mediaStart" : 0,
                          "mediaDuration" : 25747,
                          "scalar" : 1,
                          "metadata" : {
                            "AutoAppliedSmartFocus" : "False",
                            "clipSpeedAttribute" : false
                          }
                        },
                        {
                          "id" : 1519,
                          "_type" : "UnifiedMedia",
                          "video" : 
                              {
                                "id" : 1520,
                                "_type" : "ScreenVMFile",
                                "src" : 1,
                                "trackNumber" : 0,
                                "attributes" : {
                                  "ident" : "Rec 01-10-21"
                                },
                                "parameters" : {
                                  "cursorScale" : {
                                    "type" : "double",
                                    "defaultValue" : 0.0,
                                    "interp" : "linr"
                                  },
                                  "cursorOpacity" : {
                                    "type" : "double",
                                    "defaultValue" : 0.0,
                                    "interp" : "linr"
                                  }
                                },
                                "effects" : [

                                ],
                                "start" : 13007,
                                "duration" : 864,
                                "mediaStart" : 17051,
                                "mediaDuration" : 864,
                                "scalar" : 1,
                                "animationTracks" : {

                                }
                              },
                          "audio" : 
                              {
                                "id" : 1521,
                                "_type" : "AMFile",
                                "src" : 1,
                                "trackNumber" : 1,
                                "attributes" : {
                                  "ident" : "",
                                  "gain" : 1.0,
                                  "mixToMono" : false
                                },
                                  "channelNumber" : "0,1",
                                "effects" : [

                                ],
                                "start" : 13007,
                                "duration" : 864,
                                "mediaStart" : 17051,
                                "mediaDuration" : 864,
                                "scalar" : 1,
                                "animationTracks" : {

                                }
                              }
,
                          "start" : 13007,
                          "duration" : 864,
                          "mediaStart" : 0,
                          "mediaDuration" : 25747,
                          "scalar" : 1,
                          "metadata" : {
                            "AutoAppliedSmartFocus" : "False",
                            "clipSpeedAttribute" : false
                          }
                        },
                        {
                          "id" : 1522,
                          "_type" : "UnifiedMedia",
                          "video" : 
                              {
                                "id" : 1523,
                                "_type" : "ScreenVMFile",
                                "src" : 1,
                                "trackNumber" : 0,
                                "attributes" : {
                                  "ident" : "Rec 01-10-21"
                                },
                                "parameters" : {
                                  "cursorScale" : {
                                    "type" : "double",
                                    "defaultValue" : 0.0,
                                    "interp" : "linr"
                                  },
                                  "cursorOpacity" : {
                                    "type" : "double",
                                    "defaultValue" : 0.0,
                                    "interp" : "linr"
                                  }
                                },
                                "effects" : [

                                ],
                                "start" : 13871,
                                "duration" : 21,
                                "mediaStart" : 17980,
                                "mediaDuration" : 21,
                                "scalar" : 1,
                                "animationTracks" : {

                                }
                              },
                          "audio" : 
                              {
                                "id" : 1524,
                                "_type" : "AMFile",
                                "src" : 1,
                                "trackNumber" : 1,
                                "attributes" : {
                                  "ident" : "",
                                  "gain" : 1.0,
                                  "mixToMono" : false
                                },
                                  "channelNumber" : "0,1",
                                "effects" : [

                                ],
                                "start" : 13871,
                                "duration" : 21,
                                "mediaStart" : 17980,
                                "mediaDuration" : 21,
                                "scalar" : 1,
                                "animationTracks" : {

                                }
                              }
,
                          "start" : 13871,
                          "duration" : 21,
                          "mediaStart" : 0,
                          "mediaDuration" : 25747,
                          "scalar" : 1,
                          "metadata" : {
                            "AutoAppliedSmartFocus" : "False",
                            "clipSpeedAttribute" : false
                          }
                        },
                        {
                          "id" : 1525,
                          "_type" : "UnifiedMedia",
                          "video" : 
                              {
                                "id" : 1526,
                                "_type" : "ScreenVMFile",
                                "src" : 1,
                                "trackNumber" : 0,
                                "attributes" : {
                                  "ident" : "Rec 01-10-21"
                                },
                                "parameters" : {
                                  "cursorScale" : {
                                    "type" : "double",
                                    "defaultValue" : 0.0,
                                    "interp" : "linr"
                                  },
                                  "cursorOpacity" : {
                                    "type" : "double",
                                    "defaultValue" : 0.0,
                                    "interp" : "linr"
                                  }
                                },
                                "effects" : [

                                ],
                                "start" : 13892,
                                "duration" : 83,
                                "mediaStart" : 18105,
                                "mediaDuration" : 83,
                                "scalar" : 1,
                                "animationTracks" : {

                                }
                              },
                          "audio" : 
                              {
                                "id" : 1527,
                                "_type" : "AMFile",
                                "src" : 1,
                                "trackNumber" : 1,
                                "attributes" : {
                                  "ident" : "",
                                  "gain" : 1.0,
                                  "mixToMono" : false
                                },
                                  "channelNumber" : "0,1",
                                "effects" : [

                                ],
                                "start" : 13892,
                                "duration" : 83,
                                "mediaStart" : 18105,
                                "mediaDuration" : 83,
                                "scalar" : 1,
                                "animationTracks" : {

                                }
                              }
,
                          "start" : 13892,
                          "duration" : 83,
                          "mediaStart" : 0,
                          "mediaDuration" : 25747,
                          "scalar" : 1,
                          "metadata" : {
                            "AutoAppliedSmartFocus" : "False",
                            "clipSpeedAttribute" : false
                          }
                        },
                        {
                          "id" : 1528,
                          "_type" : "UnifiedMedia",
                          "video" : 
                              {
                                "id" : 1529,
                                "_type" : "ScreenVMFile",
                                "src" : 1,
                                "trackNumber" : 0,
                                "attributes" : {
                                  "ident" : "Rec 01-10-21"
                                },
                                "parameters" : {
                                  "cursorScale" : {
                                    "type" : "double",
                                    "defaultValue" : 0.0,
                                    "interp" : "linr"
                                  },
                                  "cursorOpacity" : {
                                    "type" : "double",
                                    "defaultValue" : 0.0,
                                    "interp" : "linr"
                                  }
                                },
                                "effects" : [

                                ],
                                "start" : 13975,
                                "duration" : 761,
                                "mediaStart" : 18393,
                                "mediaDuration" : 761,
                                "scalar" : 1,
                                "animationTracks" : {

                                }
                              },
                          "audio" : 
                              {
                                "id" : 1530,
                                "_type" : "AMFile",
                                "src" : 1,
                                "trackNumber" : 1,
                                "attributes" : {
                                  "ident" : "",
                                  "gain" : 1.0,
                                  "mixToMono" : false
                                },
                                  "channelNumber" : "0,1",
                                "effects" : [

                                ],
                                "start" : 13975,
                                "duration" : 761,
                                "mediaStart" : 18393,
                                "mediaDuration" : 761,
                                "scalar" : 1,
                                "animationTracks" : {

                                }
                              }
,
                          "start" : 13975,
                          "duration" : 761,
                          "mediaStart" : 0,
                          "mediaDuration" : 25747,
                          "scalar" : 1,
                          "metadata" : {
                            "AutoAppliedSmartFocus" : "False",
                            "clipSpeedAttribute" : false
                          }
                        },
                        {
                          "id" : 1531,
                          "_type" : "UnifiedMedia",
                          "video" : 
                              {
                                "id" : 1532,
                                "_type" : "ScreenVMFile",
                                "src" : 1,
                                "trackNumber" : 0,
                                "attributes" : {
                                  "ident" : "Rec 01-10-21"
                                },
                                "parameters" : {
                                  "cursorScale" : {
                                    "type" : "double",
                                    "defaultValue" : 0.0,
                                    "interp" : "linr"
                                  },
                                  "cursorOpacity" : {
                                    "type" : "double",
                                    "defaultValue" : 0.0,
                                    "interp" : "linr"
                                  }
                                },
                                "effects" : [

                                ],
                                "start" : 14736,
                                "duration" : 100,
                                "mediaStart" : 19645,
                                "mediaDuration" : 100,
                                "scalar" : 1,
                                "animationTracks" : {

                                }
                              },
                          "audio" : 
                              {
                                "id" : 1533,
                                "_type" : "AMFile",
                                "src" : 1,
                                "trackNumber" : 1,
                                "attributes" : {
                                  "ident" : "",
                                  "gain" : 1.0,
                                  "mixToMono" : false
                                },
                                  "channelNumber" : "0,1",
                                "effects" : [

                                ],
                                "start" : 14736,
                                "duration" : 100,
                                "mediaStart" : 19645,
                                "mediaDuration" : 100,
                                "scalar" : 1,
                                "animationTracks" : {

                                }
                              }
,
                          "start" : 14736,
                          "duration" : 100,
                          "mediaStart" : 0,
                          "mediaDuration" : 25747,
                          "scalar" : 1,
                          "metadata" : {
                            "AutoAppliedSmartFocus" : "False",
                            "clipSpeedAttribute" : false
                          }
                        },
                        {
                          "id" : 1534,
                          "_type" : "UnifiedMedia",
                          "video" : 
                              {
                                "id" : 1535,
                                "_type" : "ScreenVMFile",
                                "src" : 1,
                                "trackNumber" : 0,
                                "attributes" : {
                                  "ident" : "Rec 01-10-21"
                                },
                                "parameters" : {
                                  "cursorScale" : {
                                    "type" : "double",
                                    "defaultValue" : 0.0,
                                    "interp" : "linr"
                                  },
                                  "cursorOpacity" : {
                                    "type" : "double",
                                    "defaultValue" : 0.0,
                                    "interp" : "linr"
                                  }
                                },
                                "effects" : [

                                ],
                                "start" : 14836,
                                "duration" : 78,
                                "mediaStart" : 19798,
                                "mediaDuration" : 78,
                                "scalar" : 1,
                                "animationTracks" : {

                                }
                              },
                          "audio" : 
                              {
                                "id" : 1536,
                                "_type" : "AMFile",
                                "src" : 1,
                                "trackNumber" : 1,
                                "attributes" : {
                                  "ident" : "",
                                  "gain" : 1.0,
                                  "mixToMono" : false
                                },
                                  "channelNumber" : "0,1",
                                "effects" : [

                                ],
                                "start" : 14836,
                                "duration" : 78,
                                "mediaStart" : 19798,
                                "mediaDuration" : 78,
                                "scalar" : 1,
                                "animationTracks" : {

                                }
                              }
,
                          "start" : 14836,
                          "duration" : 78,
                          "mediaStart" : 0,
                          "mediaDuration" : 25747,
                          "scalar" : 1,
                          "metadata" : {
                            "AutoAppliedSmartFocus" : "False",
                            "clipSpeedAttribute" : false
                          }
                        },
                        {
                          "id" : 1537,
                          "_type" : "UnifiedMedia",
                          "video" : 
                              {
                                "id" : 1538,
                                "_type" : "ScreenVMFile",
                                "src" : 1,
                                "trackNumber" : 0,
                                "attributes" : {
                                  "ident" : "Rec 01-10-21"
                                },
                                "parameters" : {
                                  "cursorScale" : {
                                    "type" : "double",
                                    "defaultValue" : 0.0,
                                    "interp" : "linr"
                                  },
                                  "cursorOpacity" : {
                                    "type" : "double",
                                    "defaultValue" : 0.0,
                                    "interp" : "linr"
                                  }
                                },
                                "effects" : [

                                ],
                                "start" : 14914,
                                "duration" : 40,
                                "mediaStart" : 19919,
                                "mediaDuration" : 40,
                                "scalar" : 1,
                                "animationTracks" : {

                                }
                              },
                          "audio" : 
                              {
                                "id" : 1539,
                                "_type" : "AMFile",
                                "src" : 1,
                                "trackNumber" : 1,
                                "attributes" : {
                                  "ident" : "",
                                  "gain" : 1.0,
                                  "mixToMono" : false
                                },
                                  "channelNumber" : "0,1",
                                "effects" : [

                                ],
                                "start" : 14914,
                                "duration" : 40,
                                "mediaStart" : 19919,
                                "mediaDuration" : 40,
                                "scalar" : 1,
                                "animationTracks" : {

                                }
                              }
,
                          "start" : 14914,
                          "duration" : 40,
                          "mediaStart" : 0,
                          "mediaDuration" : 25747,
                          "scalar" : 1,
                          "metadata" : {
                            "AutoAppliedSmartFocus" : "False",
                            "clipSpeedAttribute" : false
                          }
                        },
                        {
                          "id" : 1540,
                          "_type" : "UnifiedMedia",
                          "video" : 
                              {
                                "id" : 1541,
                                "_type" : "ScreenVMFile",
                                "src" : 1,
                                "trackNumber" : 0,
                                "attributes" : {
                                  "ident" : "Rec 01-10-21"
                                },
                                "parameters" : {
                                  "cursorScale" : {
                                    "type" : "double",
                                    "defaultValue" : 0.0,
                                    "interp" : "linr"
                                  },
                                  "cursorOpacity" : {
                                    "type" : "double",
                                    "defaultValue" : 0.0,
                                    "interp" : "linr"
                                  }
                                },
                                "effects" : [

                                ],
                                "start" : 14954,
                                "duration" : 2,
                                "mediaStart" : 20112,
                                "mediaDuration" : 2,
                                "scalar" : 1,
                                "animationTracks" : {

                                }
                              },
                          "audio" : 
                              {
                                "id" : 1542,
                                "_type" : "AMFile",
                                "src" : 1,
                                "trackNumber" : 1,
                                "attributes" : {
                                  "ident" : "",
                                  "gain" : 1.0,
                                  "mixToMono" : false
                                },
                                  "channelNumber" : "0,1",
                                "effects" : [

                                ],
                                "start" : 14954,
                                "duration" : 2,
                                "mediaStart" : 20112,
                                "mediaDuration" : 2,
                                "scalar" : 1,
                                "animationTracks" : {

                                }
                              }
,
                          "start" : 14954,
                          "duration" : 2,
                          "mediaStart" : 0,
                          "mediaDuration" : 25747,
                          "scalar" : 1,
                          "metadata" : {
                            "AutoAppliedSmartFocus" : "False",
                            "clipSpeedAttribute" : false
                          }
                        },
                        {
                          "id" : 1543,
                          "_type" : "UnifiedMedia",
                          "video" : 
                              {
                                "id" : 1544,
                                "_type" : "ScreenVMFile",
                                "src" : 1,
                                "trackNumber" : 0,
                                "attributes" : {
                                  "ident" : "Rec 01-10-21"
                                },
                                "parameters" : {
                                  "cursorScale" : {
                                    "type" : "double",
                                    "defaultValue" : 0.0,
                                    "interp" : "linr"
                                  },
                                  "cursorOpacity" : {
                                    "type" : "double",
                                    "defaultValue" : 0.0,
                                    "interp" : "linr"
                                  }
                                },
                                "effects" : [

                                ],
                                "start" : 14956,
                                "duration" : 112,
                                "mediaStart" : 20429,
                                "mediaDuration" : 112,
                                "scalar" : 1,
                                "animationTracks" : {

                                }
                              },
                          "audio" : 
                              {
                                "id" : 1545,
                                "_type" : "AMFile",
                                "src" : 1,
                                "trackNumber" : 1,
                                "attributes" : {
                                  "ident" : "",
                                  "gain" : 1.0,
                                  "mixToMono" : false
                                },
                                  "channelNumber" : "0,1",
                                "effects" : [

                                ],
                                "start" : 14956,
                                "duration" : 112,
                                "mediaStart" : 20429,
                                "mediaDuration" : 112,
                                "scalar" : 1,
                                "animationTracks" : {

                                }
                              }
,
                          "start" : 14956,
                          "duration" : 112,
                          "mediaStart" : 0,
                          "mediaDuration" : 25747,
                          "scalar" : 1,
                          "metadata" : {
                            "AutoAppliedSmartFocus" : "False",
                            "clipSpeedAttribute" : false
                          }
                        },
                        {
                          "id" : 1546,
                          "_type" : "UnifiedMedia",
                          "video" : 
                              {
                                "id" : 1547,
                                "_type" : "ScreenVMFile",
                                "src" : 1,
                                "trackNumber" : 0,
                                "attributes" : {
                                  "ident" : "Rec 01-10-21"
                                },
                                "parameters" : {
                                  "cursorScale" : {
                                    "type" : "double",
                                    "defaultValue" : 0.0,
                                    "interp" : "linr"
                                  },
                                  "cursorOpacity" : {
                                    "type" : "double",
                                    "defaultValue" : 0.0,
                                    "interp" : "linr"
                                  }
                                },
                                "effects" : [

                                ],
                                "start" : 15068,
                                "duration" : 22,
                                "mediaStart" : 20590,
                                "mediaDuration" : 22,
                                "scalar" : 1,
                                "animationTracks" : {

                                }
                              },
                          "audio" : 
                              {
                                "id" : 1548,
                                "_type" : "AMFile",
                                "src" : 1,
                                "trackNumber" : 1,
                                "attributes" : {
                                  "ident" : "",
                                  "gain" : 1.0,
                                  "mixToMono" : false
                                },
                                  "channelNumber" : "0,1",
                                "effects" : [

                                ],
                                "start" : 15068,
                                "duration" : 22,
                                "mediaStart" : 20590,
                                "mediaDuration" : 22,
                                "scalar" : 1,
                                "animationTracks" : {

                                }
                              }
,
                          "start" : 15068,
                          "duration" : 22,
                          "mediaStart" : 0,
                          "mediaDuration" : 25747,
                          "scalar" : 1,
                          "metadata" : {
                            "AutoAppliedSmartFocus" : "False",
                            "clipSpeedAttribute" : false
                          }
                        },
                        {
                          "id" : 1549,
                          "_type" : "UnifiedMedia",
                          "video" : 
                              {
                                "id" : 1550,
                                "_type" : "ScreenVMFile",
                                "src" : 1,
                                "trackNumber" : 0,
                                "attributes" : {
                                  "ident" : "Rec 01-10-21"
                                },
                                "parameters" : {
                                  "cursorScale" : {
                                    "type" : "double",
                                    "defaultValue" : 0.0,
                                    "interp" : "linr"
                                  },
                                  "cursorOpacity" : {
                                    "type" : "double",
                                    "defaultValue" : 0.0,
                                    "interp" : "linr"
                                  }
                                },
                                "effects" : [

                                ],
                                "start" : 15090,
                                "duration" : 384,
                                "mediaStart" : 20630,
                                "mediaDuration" : 384,
                                "scalar" : 1,
                                "animationTracks" : {

                                }
                              },
                          "audio" : 
                              {
                                "id" : 1551,
                                "_type" : "AMFile",
                                "src" : 1,
                                "trackNumber" : 1,
                                "attributes" : {
                                  "ident" : "",
                                  "gain" : 1.0,
                                  "mixToMono" : false
                                },
                                  "channelNumber" : "0,1",
                                "effects" : [

                                ],
                                "start" : 15090,
                                "duration" : 384,
                                "mediaStart" : 20630,
                                "mediaDuration" : 384,
                                "scalar" : 1,
                                "animationTracks" : {

                                }
                              }
,
                          "start" : 15090,
                          "duration" : 384,
                          "mediaStart" : 0,
                          "mediaDuration" : 25747,
                          "scalar" : 1,
                          "metadata" : {
                            "AutoAppliedSmartFocus" : "False",
                            "clipSpeedAttribute" : false
                          }
                        },
                        {
                          "id" : 1552,
                          "_type" : "UnifiedMedia",
                          "video" : 
                              {
                                "id" : 1553,
                                "_type" : "ScreenVMFile",
                                "src" : 1,
                                "trackNumber" : 0,
                                "attributes" : {
                                  "ident" : "Rec 01-10-21"
                                },
                                "parameters" : {
                                  "cursorScale" : {
                                    "type" : "double",
                                    "defaultValue" : 0.0,
                                    "interp" : "linr"
                                  },
                                  "cursorOpacity" : {
                                    "type" : "double",
                                    "defaultValue" : 0.0,
                                    "interp" : "linr"
                                  }
                                },
                                "effects" : [

                                ],
                                "start" : 15474,
                                "duration" : 76,
                                "mediaStart" : 21035,
                                "mediaDuration" : 76,
                                "scalar" : 1,
                                "animationTracks" : {

                                }
                              },
                          "audio" : 
                              {
                                "id" : 1554,
                                "_type" : "AMFile",
                                "src" : 1,
                                "trackNumber" : 1,
                                "attributes" : {
                                  "ident" : "",
                                  "gain" : 1.0,
                                  "mixToMono" : false
                                },
                                  "channelNumber" : "0,1",
                                "effects" : [

                                ],
                                "start" : 15474,
                                "duration" : 76,
                                "mediaStart" : 21035,
                                "mediaDuration" : 76,
                                "scalar" : 1,
                                "animationTracks" : {

                                }
                              }
,
                          "start" : 15474,
                          "duration" : 76,
                          "mediaStart" : 0,
                          "mediaDuration" : 25747,
                          "scalar" : 1,
                          "metadata" : {
                            "AutoAppliedSmartFocus" : "False",
                            "clipSpeedAttribute" : false
                          }
                        },
                        {
                          "id" : 1555,
                          "_type" : "UnifiedMedia",
                          "video" : 
                              {
                                "id" : 1556,
                                "_type" : "ScreenVMFile",
                                "src" : 1,
                                "trackNumber" : 0,
                                "attributes" : {
                                  "ident" : "Rec 01-10-21"
                                },
                                "parameters" : {
                                  "cursorScale" : {
                                    "type" : "double",
                                    "defaultValue" : 0.0,
                                    "interp" : "linr"
                                  },
                                  "cursorOpacity" : {
                                    "type" : "double",
                                    "defaultValue" : 0.0,
                                    "interp" : "linr"
                                  }
                                },
                                "effects" : [

                                ],
                                "start" : 15550,
                                "duration" : 881,
                                "mediaStart" : 21398,
                                "mediaDuration" : 881,
                                "scalar" : 1,
                                "animationTracks" : {

                                }
                              },
                          "audio" : 
                              {
                                "id" : 1557,
                                "_type" : "AMFile",
                                "src" : 1,
                                "trackNumber" : 1,
                                "attributes" : {
                                  "ident" : "",
                                  "gain" : 1.0,
                                  "mixToMono" : false
                                },
                                  "channelNumber" : "0,1",
                                "effects" : [

                                ],
                                "start" : 15550,
                                "duration" : 881,
                                "mediaStart" : 21398,
                                "mediaDuration" : 881,
                                "scalar" : 1,
                                "animationTracks" : {

                                }
                              }
,
                          "start" : 15550,
                          "duration" : 881,
                          "mediaStart" : 0,
                          "mediaDuration" : 25747,
                          "scalar" : 1,
                          "metadata" : {
                            "AutoAppliedSmartFocus" : "False",
                            "clipSpeedAttribute" : false
                          }
                        },
                        {
                          "id" : 1558,
                          "_type" : "UnifiedMedia",
                          "video" : 
                              {
                                "id" : 1559,
                                "_type" : "ScreenVMFile",
                                "src" : 1,
                                "trackNumber" : 0,
                                "attributes" : {
                                  "ident" : "Rec 01-10-21"
                                },
                                "parameters" : {
                                  "cursorScale" : {
                                    "type" : "double",
                                    "defaultValue" : 0.0,
                                    "interp" : "linr"
                                  },
                                  "cursorOpacity" : {
                                    "type" : "double",
                                    "defaultValue" : 0.0,
                                    "interp" : "linr"
                                  }
                                },
                                "effects" : [

                                ],
                                "start" : 16431,
                                "duration" : 40,
                                "mediaStart" : 22299,
                                "mediaDuration" : 40,
                                "scalar" : 1,
                                "animationTracks" : {

                                }
                              },
                          "audio" : 
                              {
                                "id" : 1560,
                                "_type" : "AMFile",
                                "src" : 1,
                                "trackNumber" : 1,
                                "attributes" : {
                                  "ident" : "",
                                  "gain" : 1.0,
                                  "mixToMono" : false
                                },
                                  "channelNumber" : "0,1",
                                "effects" : [

                                ],
                                "start" : 16431,
                                "duration" : 40,
                                "mediaStart" : 22299,
                                "mediaDuration" : 40,
                                "scalar" : 1,
                                "animationTracks" : {

                                }
                              }
,
                          "start" : 16431,
                          "duration" : 40,
                          "mediaStart" : 0,
                          "mediaDuration" : 25747,
                          "scalar" : 1,
                          "metadata" : {
                            "AutoAppliedSmartFocus" : "False",
                            "clipSpeedAttribute" : false
                          }
                        },
                        {
                          "id" : 1561,
                          "_type" : "UnifiedMedia",
                          "video" : 
                              {
                                "id" : 1562,
                                "_type" : "ScreenVMFile",
                                "src" : 1,
                                "trackNumber" : 0,
                                "attributes" : {
                                  "ident" : "Rec 01-10-21"
                                },
                                "parameters" : {
                                  "cursorScale" : {
                                    "type" : "double",
                                    "defaultValue" : 0.0,
                                    "interp" : "linr"
                                  },
                                  "cursorOpacity" : {
                                    "type" : "double",
                                    "defaultValue" : 0.0,
                                    "interp" : "linr"
                                  }
                                },
                                "effects" : [

                                ],
                                "start" : 16471,
                                "duration" : 67,
                                "mediaStart" : 22402,
                                "mediaDuration" : 67,
                                "scalar" : 1,
                                "animationTracks" : {

                                }
                              },
                          "audio" : 
                              {
                                "id" : 1563,
                                "_type" : "AMFile",
                                "src" : 1,
                                "trackNumber" : 1,
                                "attributes" : {
                                  "ident" : "",
                                  "gain" : 1.0,
                                  "mixToMono" : false
                                },
                                  "channelNumber" : "0,1",
                                "effects" : [

                                ],
                                "start" : 16471,
                                "duration" : 67,
                                "mediaStart" : 22402,
                                "mediaDuration" : 67,
                                "scalar" : 1,
                                "animationTracks" : {

                                }
                              }
,
                          "start" : 16471,
                          "duration" : 67,
                          "mediaStart" : 0,
                          "mediaDuration" : 25747,
                          "scalar" : 1,
                          "metadata" : {
                            "AutoAppliedSmartFocus" : "False",
                            "clipSpeedAttribute" : false
                          }
                        },
                        {
                          "id" : 1564,
                          "_type" : "UnifiedMedia",
                          "video" : 
                              {
                                "id" : 1565,
                                "_type" : "ScreenVMFile",
                                "src" : 1,
                                "trackNumber" : 0,
                                "attributes" : {
                                  "ident" : "Rec 01-10-21"
                                },
                                "parameters" : {
                                  "cursorScale" : {
                                    "type" : "double",
                                    "defaultValue" : 0.0,
                                    "interp" : "linr"
                                  },
                                  "cursorOpacity" : {
                                    "type" : "double",
                                    "defaultValue" : 0.0,
                                    "interp" : "linr"
                                  }
                                },
                                "effects" : [

                                ],
                                "start" : 16538,
                                "duration" : 25,
                                "mediaStart" : 22503,
                                "mediaDuration" : 25,
                                "scalar" : 1,
                                "animationTracks" : {

                                }
                              },
                          "audio" : 
                              {
                                "id" : 1566,
                                "_type" : "AMFile",
                                "src" : 1,
                                "trackNumber" : 1,
                                "attributes" : {
                                  "ident" : "",
                                  "gain" : 1.0,
                                  "mixToMono" : false
                                },
                                  "channelNumber" : "0,1",
                                "effects" : [

                                ],
                                "start" : 16538,
                                "duration" : 25,
                                "mediaStart" : 22503,
                                "mediaDuration" : 25,
                                "scalar" : 1,
                                "animationTracks" : {

                                }
                              }
,
                          "start" : 16538,
                          "duration" : 25,
                          "mediaStart" : 0,
                          "mediaDuration" : 25747,
                          "scalar" : 1,
                          "metadata" : {
                            "AutoAppliedSmartFocus" : "False",
                            "clipSpeedAttribute" : false
                          }
                        },
                        {
                          "id" : 1567,
                          "_type" : "UnifiedMedia",
                          "video" : 
                              {
                                "id" : 1568,
                                "_type" : "ScreenVMFile",
                                "src" : 1,
                                "trackNumber" : 0,
                                "attributes" : {
                                  "ident" : "Rec 01-10-21"
                                },
                                "parameters" : {
                                  "cursorScale" : {
                                    "type" : "double",
                                    "defaultValue" : 0.0,
                                    "interp" : "linr"
                                  },
                                  "cursorOpacity" : {
                                    "type" : "double",
                                    "defaultValue" : 0.0,
                                    "interp" : "linr"
                                  }
                                },
                                "effects" : [

                                ],
                                "start" : 16563,
                                "duration" : 48,
                                "mediaStart" : 22559,
                                "mediaDuration" : 48,
                                "scalar" : 1,
                                "animationTracks" : {

                                }
                              },
                          "audio" : 
                              {
                                "id" : 1569,
                                "_type" : "AMFile",
                                "src" : 1,
                                "trackNumber" : 1,
                                "attributes" : {
                                  "ident" : "",
                                  "gain" : 1.0,
                                  "mixToMono" : false
                                },
                                  "channelNumber" : "0,1",
                                "effects" : [

                                ],
                                "start" : 16563,
                                "duration" : 48,
                                "mediaStart" : 22559,
                                "mediaDuration" : 48,
                                "scalar" : 1,
                                "animationTracks" : {

                                }
                              }
,
                          "start" : 16563,
                          "duration" : 48,
                          "mediaStart" : 0,
                          "mediaDuration" : 25747,
                          "scalar" : 1,
                          "metadata" : {
                            "AutoAppliedSmartFocus" : "False",
                            "clipSpeedAttribute" : false
                          }
                        },
                        {
                          "id" : 1570,
                          "_type" : "UnifiedMedia",
                          "video" : 
                              {
                                "id" : 1571,
                                "_type" : "ScreenVMFile",
                                "src" : 1,
                                "trackNumber" : 0,
                                "attributes" : {
                                  "ident" : "Rec 01-10-21"
                                },
                                "parameters" : {
                                  "cursorScale" : {
                                    "type" : "double",
                                    "defaultValue" : 0.0,
                                    "interp" : "linr"
                                  },
                                  "cursorOpacity" : {
                                    "type" : "double",
                                    "defaultValue" : 0.0,
                                    "interp" : "linr"
                                  }
                                },
                                "effects" : [

                                ],
                                "start" : 16611,
                                "duration" : 64,
                                "mediaStart" : 22858,
                                "mediaDuration" : 64,
                                "scalar" : 1,
                                "animationTracks" : {

                                }
                              },
                          "audio" : 
                              {
                                "id" : 1572,
                                "_type" : "AMFile",
                                "src" : 1,
                                "trackNumber" : 1,
                                "attributes" : {
                                  "ident" : "",
                                  "gain" : 1.0,
                                  "mixToMono" : false
                                },
                                  "channelNumber" : "0,1",
                                "effects" : [

                                ],
                                "start" : 16611,
                                "duration" : 64,
                                "mediaStart" : 22858,
                                "mediaDuration" : 64,
                                "scalar" : 1,
                                "animationTracks" : {

                                }
                              }
,
                          "start" : 16611,
                          "duration" : 64,
                          "mediaStart" : 0,
                          "mediaDuration" : 25747,
                          "scalar" : 1,
                          "metadata" : {
                            "AutoAppliedSmartFocus" : "False",
                            "clipSpeedAttribute" : false
                          }
                        },
                        {
                          "id" : 1573,
                          "_type" : "UnifiedMedia",
                          "video" : 
                              {
                                "id" : 1574,
                                "_type" : "ScreenVMFile",
                                "src" : 1,
                                "trackNumber" : 0,
                                "attributes" : {
                                  "ident" : "Rec 01-10-21"
                                },
                                "parameters" : {
                                  "cursorScale" : {
                                    "type" : "double",
                                    "defaultValue" : 0.0,
                                    "interp" : "linr"
                                  },
                                  "cursorOpacity" : {
                                    "type" : "double",
                                    "defaultValue" : 0.0,
                                    "interp" : "linr"
                                  }
                                },
                                "effects" : [

                                ],
                                "start" : 16675,
                                "duration" : 27,
                                "mediaStart" : 22976,
                                "mediaDuration" : 27,
                                "scalar" : 1,
                                "animationTracks" : {

                                }
                              },
                          "audio" : 
                              {
                                "id" : 1575,
                                "_type" : "AMFile",
                                "src" : 1,
                                "trackNumber" : 1,
                                "attributes" : {
                                  "ident" : "",
                                  "gain" : 1.0,
                                  "mixToMono" : false
                                },
                                  "channelNumber" : "0,1",
                                "effects" : [

                                ],
                                "start" : 16675,
                                "duration" : 27,
                                "mediaStart" : 22976,
                                "mediaDuration" : 27,
                                "scalar" : 1,
                                "animationTracks" : {

                                }
                              }
,
                          "start" : 16675,
                          "duration" : 27,
                          "mediaStart" : 0,
                          "mediaDuration" : 25747,
                          "scalar" : 1,
                          "metadata" : {
                            "AutoAppliedSmartFocus" : "False",
                            "clipSpeedAttribute" : false
                          }
                        },
                        {
                          "id" : 1576,
                          "_type" : "UnifiedMedia",
                          "video" : 
                              {
                                "id" : 1577,
                                "_type" : "ScreenVMFile",
                                "src" : 1,
                                "trackNumber" : 0,
                                "attributes" : {
                                  "ident" : "Rec 01-10-21"
                                },
                                "parameters" : {
                                  "cursorScale" : {
                                    "type" : "double",
                                    "defaultValue" : 0.0,
                                    "interp" : "linr"
                                  },
                                  "cursorOpacity" : {
                                    "type" : "double",
                                    "defaultValue" : 0.0,
                                    "interp" : "linr"
                                  }
                                },
                                "effects" : [

                                ],
                                "start" : 16702,
                                "duration" : 26,
                                "mediaStart" : 23075,
                                "mediaDuration" : 26,
                                "scalar" : 1,
                                "animationTracks" : {

                                }
                              },
                          "audio" : 
                              {
                                "id" : 1578,
                                "_type" : "AMFile",
                                "src" : 1,
                                "trackNumber" : 1,
                                "attributes" : {
                                  "ident" : "",
                                  "gain" : 1.0,
                                  "mixToMono" : false
                                },
                                  "channelNumber" : "0,1",
                                "effects" : [

                                ],
                                "start" : 16702,
                                "duration" : 26,
                                "mediaStart" : 23075,
                                "mediaDuration" : 26,
                                "scalar" : 1,
                                "animationTracks" : {

                                }
                              }
,
                          "start" : 16702,
                          "duration" : 26,
                          "mediaStart" : 0,
                          "mediaDuration" : 25747,
                          "scalar" : 1,
                          "metadata" : {
                            "AutoAppliedSmartFocus" : "False",
                            "clipSpeedAttribute" : false
                          }
                        },
                        {
                          "id" : 1579,
                          "_type" : "UnifiedMedia",
                          "video" : 
                              {
                                "id" : 1580,
                                "_type" : "ScreenVMFile",
                                "src" : 1,
                                "trackNumber" : 0,
                                "attributes" : {
                                  "ident" : "Rec 01-10-21"
                                },
                                "parameters" : {
                                  "cursorScale" : {
                                    "type" : "double",
                                    "defaultValue" : 0.0,
                                    "interp" : "linr"
                                  },
                                  "cursorOpacity" : {
                                    "type" : "double",
                                    "defaultValue" : 0.0,
                                    "interp" : "linr"
                                  }
                                },
                                "effects" : [

                                ],
                                "start" : 16728,
                                "duration" : 42,
                                "mediaStart" : 23146,
                                "mediaDuration" : 42,
                                "scalar" : 1,
                                "animationTracks" : {

                                }
                              },
                          "audio" : 
                              {
                                "id" : 1581,
                                "_type" : "AMFile",
                                "src" : 1,
                                "trackNumber" : 1,
                                "attributes" : {
                                  "ident" : "",
                                  "gain" : 1.0,
                                  "mixToMono" : false
                                },
                                  "channelNumber" : "0,1",
                                "effects" : [

                                ],
                                "start" : 16728,
                                "duration" : 42,
                                "mediaStart" : 23146,
                                "mediaDuration" : 42,
                                "scalar" : 1,
                                "animationTracks" : {

                                }
                              }
,
                          "start" : 16728,
                          "duration" : 42,
                          "mediaStart" : 0,
                          "mediaDuration" : 25747,
                          "scalar" : 1,
                          "metadata" : {
                            "AutoAppliedSmartFocus" : "False",
                            "clipSpeedAttribute" : false
                          }
                        },
                        {
                          "id" : 1582,
                          "_type" : "UnifiedMedia",
                          "video" : 
                              {
                                "id" : 1583,
                                "_type" : "ScreenVMFile",
                                "src" : 1,
                                "trackNumber" : 0,
                                "attributes" : {
                                  "ident" : "Rec 01-10-21"
                                },
                                "parameters" : {
                                  "cursorScale" : {
                                    "type" : "double",
                                    "defaultValue" : 0.0,
                                    "interp" : "linr"
                                  },
                                  "cursorOpacity" : {
                                    "type" : "double",
                                    "defaultValue" : 0.0,
                                    "interp" : "linr"
                                  }
                                },
                                "effects" : [

                                ],
                                "start" : 16770,
                                "duration" : 44,
                                "mediaStart" : 23222,
                                "mediaDuration" : 44,
                                "scalar" : 1,
                                "animationTracks" : {

                                }
                              },
                          "audio" : 
                              {
                                "id" : 1584,
                                "_type" : "AMFile",
                                "src" : 1,
                                "trackNumber" : 1,
                                "attributes" : {
                                  "ident" : "",
                                  "gain" : 1.0,
                                  "mixToMono" : false
                                },
                                  "channelNumber" : "0,1",
                                "effects" : [

                                ],
                                "start" : 16770,
                                "duration" : 44,
                                "mediaStart" : 23222,
                                "mediaDuration" : 44,
                                "scalar" : 1,
                                "animationTracks" : {

                                }
                              }
,
                          "start" : 16770,
                          "duration" : 44,
                          "mediaStart" : 0,
                          "mediaDuration" : 25747,
                          "scalar" : 1,
                          "metadata" : {
                            "AutoAppliedSmartFocus" : "False",
                            "clipSpeedAttribute" : false
                          }
                        },
                        {
                          "id" : 1585,
                          "_type" : "UnifiedMedia",
                          "video" : 
                              {
                                "id" : 1586,
                                "_type" : "ScreenVMFile",
                                "src" : 1,
                                "trackNumber" : 0,
                                "attributes" : {
                                  "ident" : "Rec 01-10-21"
                                },
                                "parameters" : {
                                  "cursorScale" : {
                                    "type" : "double",
                                    "defaultValue" : 0.0,
                                    "interp" : "linr"
                                  },
                                  "cursorOpacity" : {
                                    "type" : "double",
                                    "defaultValue" : 0.0,
                                    "interp" : "linr"
                                  }
                                },
                                "effects" : [

                                ],
                                "start" : 16814,
                                "duration" : 2323,
                                "mediaStart" : 23424,
                                "mediaDuration" : 2323,
                                "scalar" : 1,
                                "animationTracks" : {

                                }
                              },
                          "audio" : 
                              {
                                "id" : 1587,
                                "_type" : "AMFile",
                                "src" : 1,
                                "trackNumber" : 1,
                                "attributes" : {
                                  "ident" : "",
                                  "gain" : 1.0,
                                  "mixToMono" : false
                                },
                                  "channelNumber" : "0,1",
                                "effects" : [

                                ],
                                "start" : 16814,
                                "duration" : 2323,
                                "mediaStart" : 23424,
                                "mediaDuration" : 2323,
                                "scalar" : 1,
                                "animationTracks" : {

                                }
                              }
,
                          "start" : 16814,
                          "duration" : 2323,
                          "mediaStart" : 0,
                          "mediaDuration" : 25747,
                          "scalar" : 1,
                          "metadata" : {
                            "AutoAppliedSmartFocus" : "False",
                            "clipSpeedAttribute" : false
                          }
                        }
                    ],
                    "effects" : [

                    ],
                    "start" : 10667,
                    "duration" : 1716,
                    "mediaStart" : 15263,
                    "mediaDuration" : 1716,
                    "scalar" : 1,
                    "metadata" : {
                      "AutoAppliedSmartFocus" : "False",
                      "clipSpeedAttribute" : false
                    },
                    "animationTracks" : {

                    }
                  },
                  {
                    "id" : 1588,
                    "_type" : "UnifiedMedia",
                    "video" : 
                        {
                          "id" : 1589,
                          "_type" : "ScreenVMFile",
                          "src" : 1,
                          "trackNumber" : 0,
                          "attributes" : {
                            "ident" : "Rec 01-10-21"
                          },
                          "parameters" : {
                            "cursorScale" : {
                              "type" : "double",
                              "defaultValue" : 1.0,
                              "interp" : "linr"
                            },
                            "cursorOpacity" : {
                              "type" : "double",
                              "defaultValue" : 1.0,
                              "interp" : "linr"
                            }
                          },
                          "effects" : [

                          ],
                          "start" : 12383,
                          "duration" : 132,
                          "mediaStart" : 23732,
                          "mediaDuration" : 395,
                          "scalar" : "132/395",
                          "animationTracks" : {

                          }
                        },
                    "audio" : 
                        {
                          "id" : 1590,
                          "_type" : "AMFile",
                          "src" : 1,
                          "trackNumber" : 1,
                          "attributes" : {
                            "ident" : "",
                            "gain" : 0.3,
                            "mixToMono" : false
                          },
                            "channelNumber" : "0,1",
                          "effects" : [

                          ],
                          "start" : 12383,
                          "duration" : 132,
                          "mediaStart" : 23732,
                          "mediaDuration" : 395,
                          "scalar" : "132/395",
                          "animationTracks" : {

                          }
                        }
,
                    "start" : 12383,
                    "duration" : 132,
                    "mediaStart" : 0,
                    "mediaDuration" : 25747,
                    "scalar" : "132/395",
                    "metadata" : {
                      "AutoAppliedSmartFocus" : "False",
                      "clipSpeedAttribute" : true
                    }
                  },
                  {
                    "id" : 1591,
                    "_type" : "Group",
                    "parameters" : {
                      "volume" : 1.0
                    },
                    "tracks" : [
                      {
                        "trackIndex" : 0,
                        "medias" : [
                          {
                            "id" : 1592,
                            "_type" : "ScreenVMFile",
                            "src" : 1,
                            "trackNumber" : 0,
                            "attributes" : {
                              "ident" : "Rec 01-10-21"
                            },
                            "parameters" : {
                              "cursorScale" : {
                                "type" : "double",
                                "defaultValue" : 1.0,
                                "interp" : "linr"
                              },
                              "cursorOpacity" : {
                                "type" : "double",
                                "defaultValue" : 1.0,
                                "interp" : "linr"
                              }
                            },
                            "effects" : [

                            ],
                            "start" : 0,
                            "duration" : 104,
                            "mediaStart" : 24127,
                            "mediaDuration" : 104,
                            "scalar" : 1,
                            "metadata" : {
                              "AutoAppliedSmartFocus" : "False",
                              "clipSpeedAttribute" : false
                            },
                            "animationTracks" : {

                            }
                          },
                          {
                            "id" : 1593,
                            "_type" : "UnifiedMedia",
                            "video" : 
                                {
                                  "id" : 1594,
                                  "_type" : "ScreenVMFile",
                                  "src" : 1,
                                  "trackNumber" : 0,
                                  "attributes" : {
                                    "ident" : "Rec 01-10-21"
                                  },
                                  "parameters" : {
                                    "cursorScale" : {
                                      "type" : "double",
                                      "defaultValue" : 1.0,
                                      "interp" : "linr"
                                    },
                                    "cursorOpacity" : {
                                      "type" : "double",
                                      "defaultValue" : 1.0,
                                      "interp" : "linr"
                                    }
                                  },
                                  "effects" : [

                                  ],
                                  "start" : 104,
                                  "duration" : 15,
                                  "mediaStart" : 24231,
                                  "mediaDuration" : 15,
                                  "scalar" : 1,
                                  "animationTracks" : {

                                  }
                                },
                            "audio" : 
                                {
                                  "id" : 1595,
                                  "_type" : "AMFile",
                                  "src" : 1,
                                  "trackNumber" : 1,
                                  "attributes" : {
                                    "ident" : "",
                                    "gain" : 1.0,
                                    "mixToMono" : false
                                  },
                                    "channelNumber" : "0,1",
                                  "effects" : [

                                  ],
                                  "start" : 104,
                                  "duration" : 15,
                                  "mediaStart" : 24231,
                                  "mediaDuration" : 15,
                                  "scalar" : 1,
                                  "animationTracks" : {

                                  }
                                }
,
                            "start" : 104,
                            "duration" : 15,
                            "mediaStart" : 0,
                            "mediaDuration" : 25747,
                            "scalar" : 1,
                            "metadata" : {
                              "AutoAppliedSmartFocus" : "False",
                              "clipSpeedAttribute" : false
                            }
                          }
                        ],
                          "ident" : "",
                          "audioMuted" : false,
                          "videoHidden" : false,
                          "magnetic" : false,
                          "matte" : 0,
                          "metadata" : {
                            "IsLocked" : "False",
                            "WinTrackHeight" : "0"
                          }
                      },
                      {
                        "trackIndex" : 1,
                        "medias" : [
                          {
                            "id" : 1596,
                            "_type" : "StitchedMedia",
                            "minMediaStart" : 0,
                            "attributes" : {
                              "ident" : "Narration_3-1 Pod 4",
                              "gain" : 1.0,
                              "mixToMono" : false
                            },
                            "parameters" : {
                              "volume" : 1.0,
                              "cursorOpacity" : 1.0,
                              "cursorScale" : 1.0
                            },
                            "medias" : [
                                {
                                  "id" : 1597,
                                  "_type" : "AMFile",
                                  "src" : 5,
                                  "trackNumber" : 0,
                                  "attributes" : {
                                    "ident" : "Narration_3-1 Pod 4",
                                    "gain" : 1.0,
                                    "mixToMono" : false
                                  },
                                    "channelNumber" : "0,1",
                                  "effects" : [

                                  ],
                                  "start" : 0,
                                  "duration" : 95,
                                  "mediaStart" : 0,
                                  "mediaDuration" : 95,
                                  "scalar" : 1,
                                  "metadata" : {
                                    "clipSpeedAttribute" : false
                                  },
                                  "animationTracks" : {

                                  }
                                },
                                {
                                  "id" : 1598,
                                  "_type" : "AMFile",
                                  "src" : 5,
                                  "trackNumber" : 0,
                                  "attributes" : {
                                    "ident" : "Narration_3-1 Pod 4",
                                    "gain" : 1.0,
                                    "mixToMono" : false
                                  },
                                    "channelNumber" : "0,1",
                                  "effects" : [

                                  ],
                                  "start" : 95,
                                  "duration" : 49,
                                  "mediaStart" : 113,
                                  "mediaDuration" : 49,
                                  "scalar" : 1,
                                  "metadata" : {
                                    "clipSpeedAttribute" : false
                                  },
                                  "animationTracks" : {

                                  }
                                }
                            ],
                            "effects" : [

                            ],
                            "start" : 0,
                            "duration" : 119,
                            "mediaStart" : 25,
                            "mediaDuration" : 119,
                            "scalar" : 1,
                            "metadata" : {
                              "clipSpeedAttribute" : false
                            },
                            "animationTracks" : {

                            }
                          }
                        ],
                          "ident" : "",
                          "audioMuted" : false,
                          "videoHidden" : false,
                          "magnetic" : false,
                          "matte" : 0,
                          "metadata" : {
                            "IsLocked" : "False",
                            "WinTrackHeight" : "4.48620777689338e-312"
                          }
                      }
                    ],
                    "attributes" : {
                      "ident" : "Group 3",
                      "gain" : 1.0,
                      "mixToMono" : false
                    },
                    "effects" : [

                    ],
                    "start" : 12515,
                    "duration" : 119,
                    "mediaStart" : 0.0,
                    "mediaDuration" : 119.0,
                    "scalar" : 1,
                    "metadata" : {
                      "IsGroupExpanded" : "False"
                    },
                    "animationTracks" : {

                    }
                  },
                  {
                    "id" : 1599,
                    "_type" : "StitchedMedia",
                    "minMediaStart" : 0,
                    "attributes" : {
                      "ident" : "Rec 01-10-21",
                      "gain" : 1.0,
                      "mixToMono" : false
                    },
                    "parameters" : {
                      "volume" : 1.0,
                      "cursorOpacity" : 1.0,
                      "cursorScale" : 1.0
                    },
                    "medias" : [
                        {
                          "id" : 1600,
                          "_type" : "UnifiedMedia",
                          "video" : 
                              {
                                "id" : 1601,
                                "_type" : "ScreenVMFile",
                                "src" : 1,
                                "trackNumber" : 0,
                                "attributes" : {
                                  "ident" : "Rec 01-10-21"
                                },
                                "parameters" : {
                                  "cursorScale" : {
                                    "type" : "double",
                                    "defaultValue" : 0.0,
                                    "interp" : "linr"
                                  },
                                  "cursorOpacity" : {
                                    "type" : "double",
                                    "defaultValue" : 0.0,
                                    "interp" : "linr"
                                  }
                                },
                                "effects" : [

                                ],
                                "start" : 0,
                                "duration" : 24413,
                                "mediaStart" : 0,
                                "mediaDuration" : 24413,
                                "scalar" : 1,
                                "animationTracks" : {

                                }
                              },
                          "audio" : 
                              {
                                "id" : 1602,
                                "_type" : "AMFile",
                                "src" : 1,
                                "trackNumber" : 1,
                                "attributes" : {
                                  "ident" : "",
                                  "gain" : 1.0,
                                  "mixToMono" : false
                                },
                                  "channelNumber" : "0,1",
                                "effects" : [

                                ],
                                "start" : 0,
                                "duration" : 24413,
                                "mediaStart" : 0,
                                "mediaDuration" : 24413,
                                "scalar" : 1,
                                "animationTracks" : {

                                }
                              }
,
                          "start" : 0,
                          "duration" : 24413,
                          "mediaStart" : 0,
                          "mediaDuration" : 25747,
                          "scalar" : 1,
                          "metadata" : {
                            "AutoAppliedSmartFocus" : "False",
                            "clipSpeedAttribute" : false
                          }
                        },
                        {
                          "id" : 1603,
                          "_type" : "UnifiedMedia",
                          "video" : 
                              {
                                "id" : 1604,
                                "_type" : "ScreenVMFile",
                                "src" : 1,
                                "trackNumber" : 0,
                                "attributes" : {
                                  "ident" : "Rec 01-10-21"
                                },
                                "parameters" : {
                                  "cursorScale" : {
                                    "type" : "double",
                                    "defaultValue" : 0.0,
                                    "interp" : "linr"
                                  },
                                  "cursorOpacity" : {
                                    "type" : "double",
                                    "defaultValue" : 0.0,
                                    "interp" : "linr"
                                  }
                                },
                                "effects" : [

                                ],
                                "start" : 24413,
                                "duration" : 95,
                                "mediaStart" : 24732,
                                "mediaDuration" : 95,
                                "scalar" : 1,
                                "animationTracks" : {

                                }
                              },
                          "audio" : 
                              {
                                "id" : 1605,
                                "_type" : "AMFile",
                                "src" : 1,
                                "trackNumber" : 1,
                                "attributes" : {
                                  "ident" : "",
                                  "gain" : 1.0,
                                  "mixToMono" : false
                                },
                                  "channelNumber" : "0,1",
                                "effects" : [

                                ],
                                "start" : 24413,
                                "duration" : 95,
                                "mediaStart" : 24732,
                                "mediaDuration" : 95,
                                "scalar" : 1,
                                "animationTracks" : {

                                }
                              }
,
                          "start" : 24413,
                          "duration" : 95,
                          "mediaStart" : 0,
                          "mediaDuration" : 25747,
                          "scalar" : 1,
                          "metadata" : {
                            "AutoAppliedSmartFocus" : "False",
                            "clipSpeedAttribute" : false
                          }
                        },
                        {
                          "id" : 1606,
                          "_type" : "UnifiedMedia",
                          "video" : 
                              {
                                "id" : 1607,
                                "_type" : "ScreenVMFile",
                                "src" : 1,
                                "trackNumber" : 0,
                                "attributes" : {
                                  "ident" : "Rec 01-10-21"
                                },
                                "parameters" : {
                                  "cursorScale" : {
                                    "type" : "double",
                                    "defaultValue" : 0.0,
                                    "interp" : "linr"
                                  },
                                  "cursorOpacity" : {
                                    "type" : "double",
                                    "defaultValue" : 0.0,
                                    "interp" : "linr"
                                  }
                                },
                                "effects" : [

                                ],
                                "start" : 24508,
                                "duration" : 20,
                                "mediaStart" : 24852,
                                "mediaDuration" : 20,
                                "scalar" : 1,
                                "animationTracks" : {

                                }
                              },
                          "audio" : 
                              {
                                "id" : 1608,
                                "_type" : "AMFile",
                                "src" : 1,
                                "trackNumber" : 1,
                                "attributes" : {
                                  "ident" : "",
                                  "gain" : 1.0,
                                  "mixToMono" : false
                                },
                                  "channelNumber" : "0,1",
                                "effects" : [

                                ],
                                "start" : 24508,
                                "duration" : 20,
                                "mediaStart" : 24852,
                                "mediaDuration" : 20,
                                "scalar" : 1,
                                "animationTracks" : {

                                }
                              }
,
                          "start" : 24508,
                          "duration" : 20,
                          "mediaStart" : 0,
                          "mediaDuration" : 25747,
                          "scalar" : 1,
                          "metadata" : {
                            "AutoAppliedSmartFocus" : "False",
                            "clipSpeedAttribute" : false
                          }
                        },
                        {
                          "id" : 1609,
                          "_type" : "UnifiedMedia",
                          "video" : 
                              {
                                "id" : 1610,
                                "_type" : "ScreenVMFile",
                                "src" : 1,
                                "trackNumber" : 0,
                                "attributes" : {
                                  "ident" : "Rec 01-10-21"
                                },
                                "parameters" : {
                                  "cursorScale" : {
                                    "type" : "double",
                                    "defaultValue" : 0.0,
                                    "interp" : "linr"
                                  },
                                  "cursorOpacity" : {
                                    "type" : "double",
                                    "defaultValue" : 0.0,
                                    "interp" : "linr"
                                  }
                                },
                                "effects" : [

                                ],
                                "start" : 24528,
                                "duration" : 277,
                                "mediaStart" : 24942,
                                "mediaDuration" : 277,
                                "scalar" : 1,
                                "animationTracks" : {

                                }
                              },
                          "audio" : 
                              {
                                "id" : 1611,
                                "_type" : "AMFile",
                                "src" : 1,
                                "trackNumber" : 1,
                                "attributes" : {
                                  "ident" : "",
                                  "gain" : 1.0,
                                  "mixToMono" : false
                                },
                                  "channelNumber" : "0,1",
                                "effects" : [

                                ],
                                "start" : 24528,
                                "duration" : 277,
                                "mediaStart" : 24942,
                                "mediaDuration" : 277,
                                "scalar" : 1,
                                "animationTracks" : {

                                }
                              }
,
                          "start" : 24528,
                          "duration" : 277,
                          "mediaStart" : 0,
                          "mediaDuration" : 25747,
                          "scalar" : 1,
                          "metadata" : {
                            "AutoAppliedSmartFocus" : "False",
                            "clipSpeedAttribute" : false
                          }
                        },
                        {
                          "id" : 1612,
                          "_type" : "UnifiedMedia",
                          "video" : 
                              {
                                "id" : 1613,
                                "_type" : "ScreenVMFile",
                                "src" : 1,
                                "trackNumber" : 0,
                                "attributes" : {
                                  "ident" : "Rec 01-10-21"
                                },
                                "parameters" : {
                                  "cursorScale" : {
                                    "type" : "double",
                                    "defaultValue" : 0.0,
                                    "interp" : "linr"
                                  },
                                  "cursorOpacity" : {
                                    "type" : "double",
                                    "defaultValue" : 0.0,
                                    "interp" : "linr"
                                  }
                                },
                                "effects" : [

                                ],
                                "start" : 24805,
                                "duration" : 223,
                                "mediaStart" : 25524,
                                "mediaDuration" : 223,
                                "scalar" : 1,
                                "animationTracks" : {

                                }
                              },
                          "audio" : 
                              {
                                "id" : 1614,
                                "_type" : "AMFile",
                                "src" : 1,
                                "trackNumber" : 1,
                                "attributes" : {
                                  "ident" : "",
                                  "gain" : 1.0,
                                  "mixToMono" : false
                                },
                                  "channelNumber" : "0,1",
                                "effects" : [

                                ],
                                "start" : 24805,
                                "duration" : 223,
                                "mediaStart" : 25524,
                                "mediaDuration" : 223,
                                "scalar" : 1,
                                "animationTracks" : {

                                }
                              }
,
                          "start" : 24805,
                          "duration" : 223,
                          "mediaStart" : 0,
                          "mediaDuration" : 25747,
                          "scalar" : 1,
                          "metadata" : {
                            "AutoAppliedSmartFocus" : "False",
                            "clipSpeedAttribute" : false
                          }
                        }
                    ],
                    "effects" : [

                    ],
                    "start" : 12634,
                    "duration" : 707,
                    "mediaStart" : 24310,
                    "mediaDuration" : 707,
                    "scalar" : 1,
                    "metadata" : {
                      "AutoAppliedSmartFocus" : "False",
                      "clipSpeedAttribute" : false
                    },
                    "animationTracks" : {

                    }
                  }
                ]
              },
              {
                "trackIndex" : 1,
                "medias" : [
                  {
                    "id" : 1615,
                    "_type" : "Group",
                    "parameters" : {
                      "volume" : 1.0
                    },
                    "tracks" : [
                      {
                        "trackIndex" : 0,
                        "medias" : [
                          {
                            "id" : 1616,
                            "_type" : "Callout",
                            "def" : {
                              "kind" : "remix",
                              "shape" : "text",
                              "style" : "basic",
                              "height" : {
                                "type" : "double",
                                "defaultValue" : 279.000000000024,
                                "interp" : "linr"
                              },
                              "line-spacing" : {
                                "type" : "double",
                                "defaultValue" : 0.0,
                                "interp" : "linr"
                              },
                              "width" : {
                                "type" : "double",
                                "defaultValue" : 998.630136986691,
                                "interp" : "linr"
                              },
                              "word-wrap" : {
                                "type" : "double",
                                "defaultValue" : 1.0,
                                "interp" : "linr"
                              },
                              "horizontal-alignment" : "center",
                              "resize-behavior" : "resizeText",
                              "text" : "Kubernetes Pod",
                              "vertical-alignment" : "center",
                              "font" : {
                                "color-blue" : {
                                  "type" : "double",
                                  "defaultValue" : 1.0,
                                  "interp" : "linr"
                                },
                                "color-green" : {
                                  "type" : "double",
                                  "defaultValue" : 1.0,
                                  "interp" : "linr"
                                },
                                "color-red" : {
                                  "type" : "double",
                                  "defaultValue" : 1.0,
                                  "interp" : "linr"
                                },
                                "size" : {
                                  "type" : "double",
                                  "defaultValue" : 96.0,
                                  "interp" : "linr"
                                },
                                "tracking" : {
                                  "type" : "double",
                                  "defaultValue" : 0.0,
                                  "interp" : "linr"
                                },
                                "name" : "Montserrat",
                                "weight" : "Regular"
                              },
                              "textAttributes" : {
                                "type" : "textAttributeList",
                                "keyframes" : [
                                  {
                                    "endTime" : 0,
                                    "time" : 0,
                                    "value" : [{"name":"fontWeight","rangeEnd":14,"rangeStart":0,"value":700,"valueType":"int"},{"name":"fontName","rangeEnd":14,"rangeStart":0,"value":"Montserrat","valueType":"string"},{"name":"kerning","rangeEnd":14,"rangeStart":0,"value":0,"valueType":"double"},{"name":"underline","rangeEnd":14,"rangeStart":0,"value":0,"valueType":"int"},{"name":"strikethrough","rangeEnd":14,"rangeStart":0,"value":0,"valueType":"int"},{"name":"fontSize","rangeEnd":14,"rangeStart":0,"value":96,"valueType":"double"},{"name":"fgColor","rangeEnd":14,"rangeStart":0,"value":"(50,108,229,255)","valueType":"color"},{"name":"fontItalic","rangeEnd":14,"rangeStart":0,"value":0,"valueType":"int"}],
                                    "duration" : 0
                                  }
                                ]
                              }
                            },
                            "attributes" : {
                              "autoRotateText" : true
                            },
                            "parameters" : {
                              "translation0" : {
                                "type" : "double",
                                "defaultValue" : -22.4178082191042,
                                "interp" : "eioe"
                              },
                              "translation1" : {
                                "type" : "double",
                                "defaultValue" : -14.5000000000109,
                                "interp" : "eioe"
                              }
                            },
                            "effects" : [
                                {
                                  "_type" : "GenericBehaviorEffect",
                                  "effectName" : "pulsating",
                                  "start" : -102,
                                  "duration" : 200                                ,
                                  "in" : {
                                    "attributes" : {
                                      "name" : "grow",
                                      "type" : 1,
                                      "characterOrder" : 6,
                                      "offsetBetweenCharacters" : 1,
                                      "suggestedDurationPerCharacter" : 18,
                                      "overlapProportion" : "3/4",
                                      "movement" : 30,
                                      "springDamping" : 5.0,
                                      "springStiffness" : 50.0,
                                      "bounceBounciness" : 0.45
                                    }
                                  
                                  },
                                  "center" : {
                                    "attributes" : {
                                      "name" : "pulsate",
                                      "type" : 1,
                                      "characterOrder" : 6,
                                      "offsetBetweenCharacters" : "21/10",
                                      "secondsPerLoop" : 1,
                                      "numberOfLoops" : -1,
                                      "delayBetweenLoops" : 0,
                                      "offsetBetweenCharacters" : "21/10"
                                    },
                                    "parameters" : {
                                      "movement" : {
                                        "type" : "int",
                                        "valueBounds" : {
                                          "minValue" : 0,
                                          "maxValue" : 31,
                                          "defaultValue" : 27
                                        },
                                        "uiHints" : {
                                          "userInterfaceType" : 4,
                                          "unitType" : 0
                                        },
                                        "keyframes" : [
                                          {
                                            "endTime" : 0,
                                            "time" : 0,
                                            "value" : 27,
                                            "duration" : 0
                                          }
                                        ]
                                      },
                                      "scale" : {
                                        "type" : "double",
                                        "defaultValue" : 1.08,
                                        "interp" : "linr",
                                        "valueBounds" : {
                                          "minValue" : 0.01,
                                          "maxValue" : 2.0,
                                          "defaultValue" : 1.08
                                        },
                                        "uiHints" : {
                                          "userInterfaceType" : 1,
                                          "unitType" : 1
                                        }
                                      }
                                    }
                                  
                                  },
                                  "out" : {
                                    "attributes" : {
                                      "name" : "shrink",
                                      "type" : 1,
                                      "characterOrder" : 6,
                                      "offsetBetweenCharacters" : 1,
                                      "suggestedDurationPerCharacter" : "29/2",
                                      "overlapProportion" : "1/10",
                                      "movement" : 11,
                                      "springDamping" : 5.0,
                                      "springStiffness" : 50.0,
                                      "bounceBounciness" : 0.45
                                    }
                                  
                                  }
                                }
                            ],
                            "start" : 0,
                            "duration" : 103,
                            "mediaStart" : -102,
                            "mediaDuration" : 103,
                            "scalar" : 1,
                            "metadata" : {
                              "AppliedThemeId" : "",
                              "clipSpeedAttribute" : false,
                              "default-HAlign" : "center",
                              "default-LineSpace" : 0.0,
                              "default-VAlign" : "center",
                              "default-text-attributes" : "[{\"name\":\"fontItalic\",\"rangeEnd\":21,\"rangeStart\":0,\"value\":0,\"valueType\":\"int\"},{\"name\":\"fontName\",\"rangeEnd\":21,\"rangeStart\":0,\"value\":\"Montserrat\",\"valueType\":\"string\"},{\"name\":\"fontWeight\",\"rangeEnd\":21,\"rangeStart\":0,\"value\":700,\"valueType\":\"int\"},{\"name\":\"kerning\",\"rangeEnd\":21,\"rangeStart\":0,\"value\":0,\"valueType\":\"double\"},{\"name\":\"fgColor\",\"rangeEnd\":21,\"rangeStart\":0,\"value\":\"(50,108,229,255)\",\"valueType\":\"color\"},{\"name\":\"underline\",\"rangeEnd\":21,\"rangeStart\":0,\"value\":0,\"valueType\":\"int\"},{\"name\":\"fontSize\",\"rangeEnd\":21,\"rangeStart\":0,\"value\":96,\"valueType\":\"double\"},{\"name\":\"strikethrough\",\"rangeEnd\":21,\"rangeStart\":0,\"value\":0,\"valueType\":\"int\"}]",
                              "default-translation0" : -22.4178082191042,
                              "default-translation1" : 1.319122588261e-11
                            },
                            "animationTracks" : {

                            }
                          },
                          {
                            "id" : 1617,
                            "_type" : "Callout",
                            "def" : {
                              "kind" : "remix",
                              "shape" : "text",
                              "style" : "basic",
                              "height" : {
                                "type" : "double",
                                "defaultValue" : 250.0,
                                "interp" : "linr"
                              },
                              "line-spacing" : {
                                "type" : "double",
                                "defaultValue" : 0.0,
                                "interp" : "linr"
                              },
                              "width" : {
                                "type" : "double",
                                "defaultValue" : 998.63013698628,
                                "interp" : "linr"
                              },
                              "word-wrap" : {
                                "type" : "double",
                                "defaultValue" : 1.0,
                                "interp" : "linr"
                              },
                              "horizontal-alignment" : "center",
                              "resize-behavior" : "resizeText",
                              "text" : "Kubernetes Pod",
                              "vertical-alignment" : "center",
                              "font" : {
                                "color-blue" : {
                                  "type" : "double",
                                  "defaultValue" : 1.0,
                                  "interp" : "linr"
                                },
                                "color-green" : {
                                  "type" : "double",
                                  "defaultValue" : 1.0,
                                  "interp" : "linr"
                                },
                                "color-red" : {
                                  "type" : "double",
                                  "defaultValue" : 1.0,
                                  "interp" : "linr"
                                },
                                "size" : {
                                  "type" : "double",
                                  "defaultValue" : 96.0,
                                  "interp" : "linr"
                                },
                                "tracking" : {
                                  "type" : "double",
                                  "defaultValue" : 0.0,
                                  "interp" : "linr"
                                },
                                "name" : "Montserrat",
                                "weight" : "Regular"
                              },
                              "textAttributes" : {
                                "type" : "textAttributeList",
                                "keyframes" : [
                                  {
                                    "endTime" : 0,
                                    "time" : 0,
                                    "value" : [{"name":"fontWeight","rangeEnd":14,"rangeStart":0,"value":700,"valueType":"int"},{"name":"fontSize","rangeEnd":14,"rangeStart":0,"value":96,"valueType":"double"},{"name":"fgColor","rangeEnd":14,"rangeStart":0,"value":"(50,108,229,255)","valueType":"color"},{"name":"kerning","rangeEnd":14,"rangeStart":0,"value":0,"valueType":"double"},{"name":"fontName","rangeEnd":14,"rangeStart":0,"value":"Montserrat","valueType":"string"},{"name":"strikethrough","rangeEnd":14,"rangeStart":0,"value":0,"valueType":"int"},{"name":"underline","rangeEnd":14,"rangeStart":0,"value":0,"valueType":"int"},{"name":"fontItalic","rangeEnd":14,"rangeStart":0,"value":0,"valueType":"int"}],
                                    "duration" : 0
                                  }
                                ]
                              }
                            },
                            "attributes" : {
                              "autoRotateText" : true
                            },
                            "parameters" : {
                              "translation0" : {
                                "type" : "double",
                                "defaultValue" : -22.4,
                                "interp" : "eioe"
                              },
                              "translation1" : {
                                "type" : "double",
                                "defaultValue" : -14.5,
                                "interp" : "eioe"
                              }
                            },
                            "effects" : [
                                {
                                  "_type" : "GenericBehaviorEffect",
                                  "effectName" : "pulsating",
                                  "start" : -102,
                                  "duration" : 200                                ,
                                  "in" : {
                                    "attributes" : {
                                      "name" : "grow",
                                      "type" : 1,
                                      "characterOrder" : 6,
                                      "offsetBetweenCharacters" : 1,
                                      "suggestedDurationPerCharacter" : 18,
                                      "overlapProportion" : "3/4",
                                      "movement" : 30,
                                      "springDamping" : 5.0,
                                      "springStiffness" : 50.0,
                                      "bounceBounciness" : 0.45
                                    }
                                  
                                  },
                                  "center" : {
                                    "attributes" : {
                                      "name" : "pulsate",
                                      "type" : 1,
                                      "characterOrder" : 6,
                                      "offsetBetweenCharacters" : "21/10",
                                      "secondsPerLoop" : 1,
                                      "numberOfLoops" : -1,
                                      "delayBetweenLoops" : 0,
                                      "offsetBetweenCharacters" : "21/10"
                                    },
                                    "parameters" : {
                                      "movement" : {
                                        "type" : "int",
                                        "valueBounds" : {
                                          "minValue" : 0,
                                          "maxValue" : 31,
                                          "defaultValue" : 27
                                        },
                                        "uiHints" : {
                                          "userInterfaceType" : 4,
                                          "unitType" : 0
                                        },
                                        "keyframes" : [
                                          {
                                            "endTime" : 0,
                                            "time" : 0,
                                            "value" : 27,
                                            "duration" : 0
                                          }
                                        ]
                                      },
                                      "scale" : {
                                        "type" : "double",
                                        "defaultValue" : 1.08,
                                        "interp" : "linr",
                                        "valueBounds" : {
                                          "minValue" : 0.01,
                                          "maxValue" : 2.0,
                                          "defaultValue" : 1.08
                                        },
                                        "uiHints" : {
                                          "userInterfaceType" : 1,
                                          "unitType" : 1
                                        }
                                      }
                                    }
                                  
                                  },
                                  "out" : {
                                    "attributes" : {
                                      "name" : "shrink",
                                      "type" : 1,
                                      "characterOrder" : 6,
                                      "offsetBetweenCharacters" : 1,
                                      "suggestedDurationPerCharacter" : "29/2",
                                      "overlapProportion" : "1/10",
                                      "movement" : 11,
                                      "springDamping" : 5.0,
                                      "springStiffness" : 50.0,
                                      "bounceBounciness" : 0.45
                                    }
                                  
                                  }
                                }
                            ],
                            "start" : 103,
                            "duration" : 97,
                            "mediaStart" : 1,
                            "mediaDuration" : 97,
                            "scalar" : 1,
                            "metadata" : {
                              "clipSpeedAttribute" : false,
                              "default-HAlign" : "center",
                              "default-LineSpace" : 0.0,
                              "default-VAlign" : "center",
                              "default-text-attributes" : "[{\"name\":\"strikethrough\",\"rangeEnd\":21,\"rangeStart\":0,\"value\":0,\"valueType\":\"int\"},{\"name\":\"fontName\",\"rangeEnd\":21,\"rangeStart\":0,\"value\":\"Montserrat\",\"valueType\":\"string\"},{\"name\":\"fontSize\",\"rangeEnd\":21,\"rangeStart\":0,\"value\":96,\"valueType\":\"double\"},{\"name\":\"fontWeight\",\"rangeEnd\":21,\"rangeStart\":0,\"value\":700,\"valueType\":\"int\"},{\"name\":\"fgColor\",\"rangeEnd\":21,\"rangeStart\":0,\"value\":\"(50,108,229,255)\",\"valueType\":\"color\"},{\"name\":\"underline\",\"rangeEnd\":21,\"rangeStart\":0,\"value\":0,\"valueType\":\"int\"},{\"name\":\"kerning\",\"rangeEnd\":21,\"rangeStart\":0,\"value\":0,\"valueType\":\"double\"},{\"name\":\"fontItalic\",\"rangeEnd\":21,\"rangeStart\":0,\"value\":0,\"valueType\":\"int\"}]",
                              "default-translation0" : -74.4178082188969,
                              "default-translation1" : 4.13429290734252e-11
                            },
                            "animationTracks" : {

                            }
                          }
                        ],
                          "ident" : "",
                          "audioMuted" : false,
                          "videoHidden" : false,
                          "magnetic" : false,
                          "matte" : 0,
                          "metadata" : {
                            "IsLocked" : "False",
                            "WinTrackHeight" : "0"
                          }
                      },
                      {
                        "trackIndex" : 1,
                        "medias" : [
                          {
                            "id" : 1618,
                            "_type" : "Group",
                            "parameters" : {
                              "translation0" : {
                                "type" : "double",
                                "defaultValue" : 0.559750733332294,
                                "interp" : "eioe"
                              },
                              "translation1" : {
                                "type" : "double",
                                "defaultValue" : -34.4850472193567,
                                "interp" : "eioe"
                              },
                              "volume" : 1.0
                            },
                            "tracks" : [
                              {
                                "trackIndex" : 0,
                                "medias" : [
                                  {
                                    "id" : 1619,
                                    "_type" : "Group",
                                    "parameters" : {
                                      "translation0" : {
                                        "type" : "double",
                                        "defaultValue" : 4.44089209850063e-16,
                                        "interp" : "eioe"
                                      },
                                      "translation1" : {
                                        "type" : "double",
                                        "defaultValue" : -34.4850472193565,
                                        "interp" : "eioe"
                                      },
                                      "volume" : 1.0
                                    },
                                    "tracks" : [
                                      {
                                        "trackIndex" : 0,
                                        "medias" : [
                                          {
                                            "id" : 1620,
                                            "_type" : "Group",
                                            "parameters" : {
                                              "translation0" : {
                                                "type" : "double",
                                                "defaultValue" : 0.55975073333218,
                                                "interp" : "eioe"
                                              },
                                              "translation1" : {
                                                "type" : "double",
                                                "defaultValue" : -289.15133998951,
                                                "interp" : "eioe"
                                              },
                                              "volume" : 1.0
                                            },
                                            "tracks" : [
                                              {
                                                "trackIndex" : 0,
                                                "medias" : [
                                                  {
                                                    "id" : 1621,
                                                    "_type" : "IMFile",
                                                    "src" : 9,
                                                    "trackNumber" : 0,
                                                    "trimStartSum" : 0,
                                                    "attributes" : {
                                                      "ident" : "wave1"
                                                    },
                                                    "parameters" : {
                                                      "translation0" : {
                                                        "type" : "double",
                                                        "defaultValue" : -2.11950146613311,
                                                        "interp" : "eioe"
                                                      },
                                                      "translation1" : {
                                                        "type" : "double",
                                                        "defaultValue" : 8.96940103546206,
                                                        "interp" : "eioe"
                                                      },
                                                      "scale0" : {
                                                        "type" : "double",
                                                        "defaultValue" : 1.02884111169424,
                                                        "interp" : "eioe"
                                                      },
                                                      "scale1" : {
                                                        "type" : "double",
                                                        "defaultValue" : 1.02884111169424,
                                                        "interp" : "eioe"
                                                      }
                                                    },
                                                    "effects" : [

                                                    ],
                                                    "start" : 0,
                                                    "duration" : 6,
                                                    "mediaStart" : 0,
                                                    "mediaDuration" : 6,
                                                    "scalar" : 1,
                                                    "metadata" : {
                                                      "clipSpeedAttribute" : false
                                                    },
                                                    "animationTracks" : {

                                                    }
                                                  },
                                                  {
                                                    "id" : 1622,
                                                    "_type" : "IMFile",
                                                    "src" : 10,
                                                    "trackNumber" : 0,
                                                    "trimStartSum" : 0,
                                                    "attributes" : {
                                                      "ident" : "wave2"
                                                    },
                                                    "parameters" : {
                                                      "translation0" : {
                                                        "type" : "double",
                                                        "defaultValue" : 0.880498533167186,
                                                        "interp" : "eioe"
                                                      },
                                                      "translation1" : {
                                                        "type" : "double",
                                                        "defaultValue" : -88.087642172052,
                                                        "interp" : "eioe"
                                                      },
                                                      "scale0" : {
                                                        "type" : "double",
                                                        "defaultValue" : 1.03068101042332,
                                                        "interp" : "eioe"
                                                      },
                                                      "scale1" : {
                                                        "type" : "double",
                                                        "defaultValue" : 1.03068101042332,
                                                        "interp" : "eioe"
                                                      }
                                                    },
                                                    "effects" : [

                                                    ],
                                                    "start" : 6,
                                                    "duration" : 6,
                                                    "mediaStart" : 0,
                                                    "mediaDuration" : 6,
                                                    "scalar" : 1,
                                                    "metadata" : {
                                                      "clipSpeedAttribute" : false
                                                    },
                                                    "animationTracks" : {

                                                    }
                                                  },
                                                  {
                                                    "id" : 1623,
                                                    "_type" : "IMFile",
                                                    "src" : 11,
                                                    "trackNumber" : 0,
                                                    "trimStartSum" : 0,
                                                    "attributes" : {
                                                      "ident" : "wave3"
                                                    },
                                                    "parameters" : {
                                                      "translation0" : {
                                                        "type" : "double",
                                                        "defaultValue" : -1.11950146655987,
                                                        "interp" : "eioe"
                                                      },
                                                      "translation1" : {
                                                        "type" : "double",
                                                        "defaultValue" : 8.12143442823202,
                                                        "interp" : "eioe"
                                                      },
                                                      "scale0" : {
                                                        "type" : "double",
                                                        "defaultValue" : 1.00893326326855,
                                                        "interp" : "eioe"
                                                      },
                                                      "scale1" : {
                                                        "type" : "double",
                                                        "defaultValue" : 1.00893326326855,
                                                        "interp" : "eioe"
                                                      }
                                                    },
                                                    "effects" : [

                                                    ],
                                                    "start" : 12,
                                                    "duration" : 7,
                                                    "mediaStart" : 0,
                                                    "mediaDuration" : 7,
                                                    "scalar" : 1,
                                                    "metadata" : {
                                                      "clipSpeedAttribute" : false
                                                    },
                                                    "animationTracks" : {

                                                    }
                                                  },
                                                  {
                                                    "id" : 1624,
                                                    "_type" : "IMFile",
                                                    "src" : 9,
                                                    "trackNumber" : 0,
                                                    "trimStartSum" : 0,
                                                    "attributes" : {
                                                      "ident" : "wave1"
                                                    },
                                                    "parameters" : {
                                                      "translation0" : {
                                                        "type" : "double",
                                                        "defaultValue" : -2.11950146613311,
                                                        "interp" : "eioe"
                                                      },
                                                      "translation1" : {
                                                        "type" : "double",
                                                        "defaultValue" : 8.96940103546206,
                                                        "interp" : "eioe"
                                                      },
                                                      "scale0" : {
                                                        "type" : "double",
                                                        "defaultValue" : 1.02884111169424,
                                                        "interp" : "eioe"
                                                      },
                                                      "scale1" : {
                                                        "type" : "double",
                                                        "defaultValue" : 1.02884111169424,
                                                        "interp" : "eioe"
                                                      }
                                                    },
                                                    "effects" : [

                                                    ],
                                                    "start" : 19,
                                                    "duration" : 6,
                                                    "mediaStart" : 0,
                                                    "mediaDuration" : 6,
                                                    "scalar" : 1,
                                                    "metadata" : {
                                                      "clipSpeedAttribute" : false
                                                    },
                                                    "animationTracks" : {

                                                    }
                                                  },
                                                  {
                                                    "id" : 1625,
                                                    "_type" : "IMFile",
                                                    "src" : 10,
                                                    "trackNumber" : 0,
                                                    "trimStartSum" : 0,
                                                    "attributes" : {
                                                      "ident" : "wave2"
                                                    },
                                                    "parameters" : {
                                                      "translation0" : {
                                                        "type" : "double",
                                                        "defaultValue" : 0.880498533167186,
                                                        "interp" : "eioe"
                                                      },
                                                      "translation1" : {
                                                        "type" : "double",
                                                        "defaultValue" : -88.087642172052,
                                                        "interp" : "eioe"
                                                      },
                                                      "scale0" : {
                                                        "type" : "double",
                                                        "defaultValue" : 1.03068101042332,
                                                        "interp" : "eioe"
                                                      },
                                                      "scale1" : {
                                                        "type" : "double",
                                                        "defaultValue" : 1.03068101042332,
                                                        "interp" : "eioe"
                                                      }
                                                    },
                                                    "effects" : [

                                                    ],
                                                    "start" : 25,
                                                    "duration" : 6,
                                                    "mediaStart" : 0,
                                                    "mediaDuration" : 6,
                                                    "scalar" : 1,
                                                    "metadata" : {
                                                      "clipSpeedAttribute" : false
                                                    },
                                                    "animationTracks" : {

                                                    }
                                                  },
                                                  {
                                                    "id" : 1626,
                                                    "_type" : "IMFile",
                                                    "src" : 11,
                                                    "trackNumber" : 0,
                                                    "trimStartSum" : 0,
                                                    "attributes" : {
                                                      "ident" : "wave3"
                                                    },
                                                    "parameters" : {
                                                      "translation0" : {
                                                        "type" : "double",
                                                        "defaultValue" : -1.11950146655987,
                                                        "interp" : "eioe"
                                                      },
                                                      "translation1" : {
                                                        "type" : "double",
                                                        "defaultValue" : 8.12143442823202,
                                                        "interp" : "eioe"
                                                      },
                                                      "scale0" : {
                                                        "type" : "double",
                                                        "defaultValue" : 1.00893326326855,
                                                        "interp" : "eioe"
                                                      },
                                                      "scale1" : {
                                                        "type" : "double",
                                                        "defaultValue" : 1.00893326326855,
                                                        "interp" : "eioe"
                                                      }
                                                    },
                                                    "effects" : [

                                                    ],
                                                    "start" : 31,
                                                    "duration" : 7,
                                                    "mediaStart" : 0,
                                                    "mediaDuration" : 7,
                                                    "scalar" : 1,
                                                    "metadata" : {
                                                      "clipSpeedAttribute" : false
                                                    },
                                                    "animationTracks" : {

                                                    }
                                                  },
                                                  {
                                                    "id" : 1627,
                                                    "_type" : "IMFile",
                                                    "src" : 9,
                                                    "trackNumber" : 0,
                                                    "trimStartSum" : 0,
                                                    "attributes" : {
                                                      "ident" : "wave1"
                                                    },
                                                    "parameters" : {
                                                      "translation0" : {
                                                        "type" : "double",
                                                        "defaultValue" : -2.11950146613311,
                                                        "interp" : "eioe"
                                                      },
                                                      "translation1" : {
                                                        "type" : "double",
                                                        "defaultValue" : 8.96940103546206,
                                                        "interp" : "eioe"
                                                      },
                                                      "scale0" : {
                                                        "type" : "double",
                                                        "defaultValue" : 1.02884111169424,
                                                        "interp" : "eioe"
                                                      },
                                                      "scale1" : {
                                                        "type" : "double",
                                                        "defaultValue" : 1.02884111169424,
                                                        "interp" : "eioe"
                                                      }
                                                    },
                                                    "effects" : [

                                                    ],
                                                    "start" : 38,
                                                    "duration" : 6,
                                                    "mediaStart" : 0,
                                                    "mediaDuration" : 6,
                                                    "scalar" : 1,
                                                    "metadata" : {
                                                      "clipSpeedAttribute" : false
                                                    },
                                                    "animationTracks" : {

                                                    }
                                                  },
                                                  {
                                                    "id" : 1628,
                                                    "_type" : "IMFile",
                                                    "src" : 10,
                                                    "trackNumber" : 0,
                                                    "trimStartSum" : 0,
                                                    "attributes" : {
                                                      "ident" : "wave2"
                                                    },
                                                    "parameters" : {
                                                      "translation0" : {
                                                        "type" : "double",
                                                        "defaultValue" : 0.880498533167186,
                                                        "interp" : "eioe"
                                                      },
                                                      "translation1" : {
                                                        "type" : "double",
                                                        "defaultValue" : -88.087642172052,
                                                        "interp" : "eioe"
                                                      },
                                                      "scale0" : {
                                                        "type" : "double",
                                                        "defaultValue" : 1.03068101042332,
                                                        "interp" : "eioe"
                                                      },
                                                      "scale1" : {
                                                        "type" : "double",
                                                        "defaultValue" : 1.03068101042332,
                                                        "interp" : "eioe"
                                                      }
                                                    },
                                                    "effects" : [

                                                    ],
                                                    "start" : 44,
                                                    "duration" : 6,
                                                    "mediaStart" : 0,
                                                    "mediaDuration" : 6,
                                                    "scalar" : 1,
                                                    "metadata" : {
                                                      "clipSpeedAttribute" : false
                                                    },
                                                    "animationTracks" : {

                                                    }
                                                  },
                                                  {
                                                    "id" : 1629,
                                                    "_type" : "IMFile",
                                                    "src" : 11,
                                                    "trackNumber" : 0,
                                                    "trimStartSum" : 0,
                                                    "attributes" : {
                                                      "ident" : "wave3"
                                                    },
                                                    "parameters" : {
                                                      "translation0" : {
                                                        "type" : "double",
                                                        "defaultValue" : -1.11950146655987,
                                                        "interp" : "eioe"
                                                      },
                                                      "translation1" : {
                                                        "type" : "double",
                                                        "defaultValue" : 8.12143442823202,
                                                        "interp" : "eioe"
                                                      },
                                                      "scale0" : {
                                                        "type" : "double",
                                                        "defaultValue" : 1.00893326326855,
                                                        "interp" : "eioe"
                                                      },
                                                      "scale1" : {
                                                        "type" : "double",
                                                        "defaultValue" : 1.00893326326855,
                                                        "interp" : "eioe"
                                                      }
                                                    },
                                                    "effects" : [

                                                    ],
                                                    "start" : 50,
                                                    "duration" : 7,
                                                    "mediaStart" : 0,
                                                    "mediaDuration" : 7,
                                                    "scalar" : 1,
                                                    "metadata" : {
                                                      "clipSpeedAttribute" : false
                                                    },
                                                    "animationTracks" : {

                                                    }
                                                  },
                                                  {
                                                    "id" : 1630,
                                                    "_type" : "IMFile",
                                                    "src" : 9,
                                                    "trackNumber" : 0,
                                                    "trimStartSum" : 0,
                                                    "attributes" : {
                                                      "ident" : "wave1"
                                                    },
                                                    "parameters" : {
                                                      "translation0" : {
                                                        "type" : "double",
                                                        "defaultValue" : -2.11950146613311,
                                                        "interp" : "eioe"
                                                      },
                                                      "translation1" : {
                                                        "type" : "double",
                                                        "defaultValue" : 8.96940103546206,
                                                        "interp" : "eioe"
                                                      },
                                                      "scale0" : {
                                                        "type" : "double",
                                                        "defaultValue" : 1.02884111169424,
                                                        "interp" : "eioe"
                                                      },
                                                      "scale1" : {
                                                        "type" : "double",
                                                        "defaultValue" : 1.02884111169424,
                                                        "interp" : "eioe"
                                                      }
                                                    },
                                                    "effects" : [

                                                    ],
                                                    "start" : 57,
                                                    "duration" : 6,
                                                    "mediaStart" : 0,
                                                    "mediaDuration" : 6,
                                                    "scalar" : 1,
                                                    "metadata" : {
                                                      "clipSpeedAttribute" : false
                                                    },
                                                    "animationTracks" : {

                                                    }
                                                  },
                                                  {
                                                    "id" : 1631,
                                                    "_type" : "IMFile",
                                                    "src" : 10,
                                                    "trackNumber" : 0,
                                                    "trimStartSum" : 0,
                                                    "attributes" : {
                                                      "ident" : "wave2"
                                                    },
                                                    "parameters" : {
                                                      "translation0" : {
                                                        "type" : "double",
                                                        "defaultValue" : 0.880498533167186,
                                                        "interp" : "eioe"
                                                      },
                                                      "translation1" : {
                                                        "type" : "double",
                                                        "defaultValue" : -88.087642172052,
                                                        "interp" : "eioe"
                                                      },
                                                      "scale0" : {
                                                        "type" : "double",
                                                        "defaultValue" : 1.03068101042332,
                                                        "interp" : "eioe"
                                                      },
                                                      "scale1" : {
                                                        "type" : "double",
                                                        "defaultValue" : 1.03068101042332,
                                                        "interp" : "eioe"
                                                      }
                                                    },
                                                    "effects" : [

                                                    ],
                                                    "start" : 63,
                                                    "duration" : 6,
                                                    "mediaStart" : 0,
                                                    "mediaDuration" : 6,
                                                    "scalar" : 1,
                                                    "metadata" : {
                                                      "clipSpeedAttribute" : false
                                                    },
                                                    "animationTracks" : {

                                                    }
                                                  },
                                                  {
                                                    "id" : 1632,
                                                    "_type" : "IMFile",
                                                    "src" : 11,
                                                    "trackNumber" : 0,
                                                    "trimStartSum" : 0,
                                                    "attributes" : {
                                                      "ident" : "wave3"
                                                    },
                                                    "parameters" : {
                                                      "translation0" : {
                                                        "type" : "double",
                                                        "defaultValue" : -1.11950146655987,
                                                        "interp" : "eioe"
                                                      },
                                                      "translation1" : {
                                                        "type" : "double",
                                                        "defaultValue" : 8.12143442823202,
                                                        "interp" : "eioe"
                                                      },
                                                      "scale0" : {
                                                        "type" : "double",
                                                        "defaultValue" : 1.00893326326855,
                                                        "interp" : "eioe"
                                                      },
                                                      "scale1" : {
                                                        "type" : "double",
                                                        "defaultValue" : 1.00893326326855,
                                                        "interp" : "eioe"
                                                      }
                                                    },
                                                    "effects" : [

                                                    ],
                                                    "start" : 69,
                                                    "duration" : 7,
                                                    "mediaStart" : 0,
                                                    "mediaDuration" : 7,
                                                    "scalar" : 1,
                                                    "metadata" : {
                                                      "clipSpeedAttribute" : false
                                                    },
                                                    "animationTracks" : {

                                                    }
                                                  },
                                                  {
                                                    "id" : 1633,
                                                    "_type" : "IMFile",
                                                    "src" : 9,
                                                    "trackNumber" : 0,
                                                    "trimStartSum" : 0,
                                                    "attributes" : {
                                                      "ident" : "wave1"
                                                    },
                                                    "parameters" : {
                                                      "translation0" : {
                                                        "type" : "double",
                                                        "defaultValue" : -2.11950146613311,
                                                        "interp" : "eioe"
                                                      },
                                                      "translation1" : {
                                                        "type" : "double",
                                                        "defaultValue" : 8.96940103546206,
                                                        "interp" : "eioe"
                                                      },
                                                      "scale0" : {
                                                        "type" : "double",
                                                        "defaultValue" : 1.02884111169424,
                                                        "interp" : "eioe"
                                                      },
                                                      "scale1" : {
                                                        "type" : "double",
                                                        "defaultValue" : 1.02884111169424,
                                                        "interp" : "eioe"
                                                      }
                                                    },
                                                    "effects" : [

                                                    ],
                                                    "start" : 76,
                                                    "duration" : 6,
                                                    "mediaStart" : 0,
                                                    "mediaDuration" : 6,
                                                    "scalar" : 1,
                                                    "metadata" : {
                                                      "clipSpeedAttribute" : false
                                                    },
                                                    "animationTracks" : {

                                                    }
                                                  },
                                                  {
                                                    "id" : 1634,
                                                    "_type" : "IMFile",
                                                    "src" : 10,
                                                    "trackNumber" : 0,
                                                    "trimStartSum" : 0,
                                                    "attributes" : {
                                                      "ident" : "wave2"
                                                    },
                                                    "parameters" : {
                                                      "translation0" : {
                                                        "type" : "double",
                                                        "defaultValue" : 0.880498533167186,
                                                        "interp" : "eioe"
                                                      },
                                                      "translation1" : {
                                                        "type" : "double",
                                                        "defaultValue" : -88.087642172052,
                                                        "interp" : "eioe"
                                                      },
                                                      "scale0" : {
                                                        "type" : "double",
                                                        "defaultValue" : 1.03068101042332,
                                                        "interp" : "eioe"
                                                      },
                                                      "scale1" : {
                                                        "type" : "double",
                                                        "defaultValue" : 1.03068101042332,
                                                        "interp" : "eioe"
                                                      }
                                                    },
                                                    "effects" : [

                                                    ],
                                                    "start" : 82,
                                                    "duration" : 6,
                                                    "mediaStart" : 0,
                                                    "mediaDuration" : 6,
                                                    "scalar" : 1,
                                                    "metadata" : {
                                                      "clipSpeedAttribute" : false
                                                    },
                                                    "animationTracks" : {

                                                    }
                                                  },
                                                  {
                                                    "id" : 1635,
                                                    "_type" : "IMFile",
                                                    "src" : 11,
                                                    "trackNumber" : 0,
                                                    "trimStartSum" : 0,
                                                    "attributes" : {
                                                      "ident" : "wave3"
                                                    },
                                                    "parameters" : {
                                                      "translation0" : {
                                                        "type" : "double",
                                                        "defaultValue" : -1.11950146655987,
                                                        "interp" : "eioe"
                                                      },
                                                      "translation1" : {
                                                        "type" : "double",
                                                        "defaultValue" : 8.12143442823202,
                                                        "interp" : "eioe"
                                                      },
                                                      "scale0" : {
                                                        "type" : "double",
                                                        "defaultValue" : 1.00893326326855,
                                                        "interp" : "eioe"
                                                      },
                                                      "scale1" : {
                                                        "type" : "double",
                                                        "defaultValue" : 1.00893326326855,
                                                        "interp" : "eioe"
                                                      }
                                                    },
                                                    "effects" : [

                                                    ],
                                                    "start" : 88,
                                                    "duration" : 7,
                                                    "mediaStart" : 0,
                                                    "mediaDuration" : 7,
                                                    "scalar" : 1,
                                                    "metadata" : {
                                                      "clipSpeedAttribute" : false
                                                    },
                                                    "animationTracks" : {

                                                    }
                                                  },
                                                  {
                                                    "id" : 1636,
                                                    "_type" : "IMFile",
                                                    "src" : 9,
                                                    "trackNumber" : 0,
                                                    "trimStartSum" : 0,
                                                    "attributes" : {
                                                      "ident" : "wave1"
                                                    },
                                                    "parameters" : {
                                                      "translation0" : {
                                                        "type" : "double",
                                                        "defaultValue" : -2.11950146613311,
                                                        "interp" : "eioe"
                                                      },
                                                      "translation1" : {
                                                        "type" : "double",
                                                        "defaultValue" : 8.96940103546206,
                                                        "interp" : "eioe"
                                                      },
                                                      "scale0" : {
                                                        "type" : "double",
                                                        "defaultValue" : 1.02884111169424,
                                                        "interp" : "eioe"
                                                      },
                                                      "scale1" : {
                                                        "type" : "double",
                                                        "defaultValue" : 1.02884111169424,
                                                        "interp" : "eioe"
                                                      }
                                                    },
                                                    "effects" : [

                                                    ],
                                                    "start" : 95,
                                                    "duration" : 6,
                                                    "mediaStart" : 0,
                                                    "mediaDuration" : 6,
                                                    "scalar" : 1,
                                                    "metadata" : {
                                                      "clipSpeedAttribute" : false
                                                    },
                                                    "animationTracks" : {

                                                    }
                                                  },
                                                  {
                                                    "id" : 1637,
                                                    "_type" : "IMFile",
                                                    "src" : 10,
                                                    "trackNumber" : 0,
                                                    "trimStartSum" : 0,
                                                    "attributes" : {
                                                      "ident" : "wave2"
                                                    },
                                                    "parameters" : {
                                                      "translation0" : {
                                                        "type" : "double",
                                                        "defaultValue" : 0.880498533167186,
                                                        "interp" : "eioe"
                                                      },
                                                      "translation1" : {
                                                        "type" : "double",
                                                        "defaultValue" : -88.087642172052,
                                                        "interp" : "eioe"
                                                      },
                                                      "scale0" : {
                                                        "type" : "double",
                                                        "defaultValue" : 1.03068101042332,
                                                        "interp" : "eioe"
                                                      },
                                                      "scale1" : {
                                                        "type" : "double",
                                                        "defaultValue" : 1.03068101042332,
                                                        "interp" : "eioe"
                                                      }
                                                    },
                                                    "effects" : [

                                                    ],
                                                    "start" : 101,
                                                    "duration" : 6,
                                                    "mediaStart" : 0,
                                                    "mediaDuration" : 6,
                                                    "scalar" : 1,
                                                    "metadata" : {
                                                      "clipSpeedAttribute" : false
                                                    },
                                                    "animationTracks" : {

                                                    }
                                                  },
                                                  {
                                                    "id" : 1638,
                                                    "_type" : "IMFile",
                                                    "src" : 11,
                                                    "trackNumber" : 0,
                                                    "trimStartSum" : 0,
                                                    "attributes" : {
                                                      "ident" : "wave3"
                                                    },
                                                    "parameters" : {
                                                      "translation0" : {
                                                        "type" : "double",
                                                        "defaultValue" : -1.11950146655987,
                                                        "interp" : "eioe"
                                                      },
                                                      "translation1" : {
                                                        "type" : "double",
                                                        "defaultValue" : 8.12143442823202,
                                                        "interp" : "eioe"
                                                      },
                                                      "scale0" : {
                                                        "type" : "double",
                                                        "defaultValue" : 1.00893326326855,
                                                        "interp" : "eioe"
                                                      },
                                                      "scale1" : {
                                                        "type" : "double",
                                                        "defaultValue" : 1.00893326326855,
                                                        "interp" : "eioe"
                                                      }
                                                    },
                                                    "effects" : [

                                                    ],
                                                    "start" : 107,
                                                    "duration" : 7,
                                                    "mediaStart" : 0,
                                                    "mediaDuration" : 7,
                                                    "scalar" : 1,
                                                    "metadata" : {
                                                      "clipSpeedAttribute" : false
                                                    },
                                                    "animationTracks" : {

                                                    }
                                                  },
                                                  {
                                                    "id" : 1639,
                                                    "_type" : "IMFile",
                                                    "src" : 9,
                                                    "trackNumber" : 0,
                                                    "trimStartSum" : 0,
                                                    "attributes" : {
                                                      "ident" : "wave1"
                                                    },
                                                    "parameters" : {
                                                      "translation0" : {
                                                        "type" : "double",
                                                        "defaultValue" : -2.11950146613311,
                                                        "interp" : "eioe"
                                                      },
                                                      "translation1" : {
                                                        "type" : "double",
                                                        "defaultValue" : 8.96940103546206,
                                                        "interp" : "eioe"
                                                      },
                                                      "scale0" : {
                                                        "type" : "double",
                                                        "defaultValue" : 1.02884111169424,
                                                        "interp" : "eioe"
                                                      },
                                                      "scale1" : {
                                                        "type" : "double",
                                                        "defaultValue" : 1.02884111169424,
                                                        "interp" : "eioe"
                                                      }
                                                    },
                                                    "effects" : [

                                                    ],
                                                    "start" : 114,
                                                    "duration" : 6,
                                                    "mediaStart" : 0,
                                                    "mediaDuration" : 6,
                                                    "scalar" : 1,
                                                    "metadata" : {
                                                      "clipSpeedAttribute" : false
                                                    },
                                                    "animationTracks" : {

                                                    }
                                                  },
                                                  {
                                                    "id" : 1640,
                                                    "_type" : "IMFile",
                                                    "src" : 10,
                                                    "trackNumber" : 0,
                                                    "trimStartSum" : 0,
                                                    "attributes" : {
                                                      "ident" : "wave2"
                                                    },
                                                    "parameters" : {
                                                      "translation0" : {
                                                        "type" : "double",
                                                        "defaultValue" : 0.880498533167186,
                                                        "interp" : "eioe"
                                                      },
                                                      "translation1" : {
                                                        "type" : "double",
                                                        "defaultValue" : -88.087642172052,
                                                        "interp" : "eioe"
                                                      },
                                                      "scale0" : {
                                                        "type" : "double",
                                                        "defaultValue" : 1.03068101042332,
                                                        "interp" : "eioe"
                                                      },
                                                      "scale1" : {
                                                        "type" : "double",
                                                        "defaultValue" : 1.03068101042332,
                                                        "interp" : "eioe"
                                                      }
                                                    },
                                                    "effects" : [

                                                    ],
                                                    "start" : 120,
                                                    "duration" : 6,
                                                    "mediaStart" : 0,
                                                    "mediaDuration" : 6,
                                                    "scalar" : 1,
                                                    "metadata" : {
                                                      "clipSpeedAttribute" : false
                                                    },
                                                    "animationTracks" : {

                                                    }
                                                  },
                                                  {
                                                    "id" : 1641,
                                                    "_type" : "IMFile",
                                                    "src" : 11,
                                                    "trackNumber" : 0,
                                                    "trimStartSum" : 0,
                                                    "attributes" : {
                                                      "ident" : "wave3"
                                                    },
                                                    "parameters" : {
                                                      "translation0" : {
                                                        "type" : "double",
                                                        "defaultValue" : -1.11950146655987,
                                                        "interp" : "eioe"
                                                      },
                                                      "translation1" : {
                                                        "type" : "double",
                                                        "defaultValue" : 8.12143442823202,
                                                        "interp" : "eioe"
                                                      },
                                                      "scale0" : {
                                                        "type" : "double",
                                                        "defaultValue" : 1.00893326326855,
                                                        "interp" : "eioe"
                                                      },
                                                      "scale1" : {
                                                        "type" : "double",
                                                        "defaultValue" : 1.00893326326855,
                                                        "interp" : "eioe"
                                                      }
                                                    },
                                                    "effects" : [

                                                    ],
                                                    "start" : 126,
                                                    "duration" : 7,
                                                    "mediaStart" : 0,
                                                    "mediaDuration" : 7,
                                                    "scalar" : 1,
                                                    "metadata" : {
                                                      "clipSpeedAttribute" : false
                                                    },
                                                    "animationTracks" : {

                                                    }
                                                  },
                                                  {
                                                    "id" : 1642,
                                                    "_type" : "IMFile",
                                                    "src" : 9,
                                                    "trackNumber" : 0,
                                                    "trimStartSum" : 0,
                                                    "attributes" : {
                                                      "ident" : "wave1"
                                                    },
                                                    "parameters" : {
                                                      "translation0" : {
                                                        "type" : "double",
                                                        "defaultValue" : -2.11950146613311,
                                                        "interp" : "eioe"
                                                      },
                                                      "translation1" : {
                                                        "type" : "double",
                                                        "defaultValue" : 8.96940103546206,
                                                        "interp" : "eioe"
                                                      },
                                                      "scale0" : {
                                                        "type" : "double",
                                                        "defaultValue" : 1.02884111169424,
                                                        "interp" : "eioe"
                                                      },
                                                      "scale1" : {
                                                        "type" : "double",
                                                        "defaultValue" : 1.02884111169424,
                                                        "interp" : "eioe"
                                                      }
                                                    },
                                                    "effects" : [

                                                    ],
                                                    "start" : 133,
                                                    "duration" : 6,
                                                    "mediaStart" : 0,
                                                    "mediaDuration" : 6,
                                                    "scalar" : 1,
                                                    "metadata" : {
                                                      "clipSpeedAttribute" : false
                                                    },
                                                    "animationTracks" : {

                                                    }
                                                  },
                                                  {
                                                    "id" : 1643,
                                                    "_type" : "IMFile",
                                                    "src" : 10,
                                                    "trackNumber" : 0,
                                                    "trimStartSum" : 0,
                                                    "attributes" : {
                                                      "ident" : "wave2"
                                                    },
                                                    "parameters" : {
                                                      "translation0" : {
                                                        "type" : "double",
                                                        "defaultValue" : 0.880498533167186,
                                                        "interp" : "eioe"
                                                      },
                                                      "translation1" : {
                                                        "type" : "double",
                                                        "defaultValue" : -88.087642172052,
                                                        "interp" : "eioe"
                                                      },
                                                      "scale0" : {
                                                        "type" : "double",
                                                        "defaultValue" : 1.03068101042332,
                                                        "interp" : "eioe"
                                                      },
                                                      "scale1" : {
                                                        "type" : "double",
                                                        "defaultValue" : 1.03068101042332,
                                                        "interp" : "eioe"
                                                      }
                                                    },
                                                    "effects" : [

                                                    ],
                                                    "start" : 139,
                                                    "duration" : 6,
                                                    "mediaStart" : 0,
                                                    "mediaDuration" : 6,
                                                    "scalar" : 1,
                                                    "metadata" : {
                                                      "clipSpeedAttribute" : false
                                                    },
                                                    "animationTracks" : {

                                                    }
                                                  },
                                                  {
                                                    "id" : 1644,
                                                    "_type" : "IMFile",
                                                    "src" : 11,
                                                    "trackNumber" : 0,
                                                    "trimStartSum" : 0,
                                                    "attributes" : {
                                                      "ident" : "wave3"
                                                    },
                                                    "parameters" : {
                                                      "translation0" : {
                                                        "type" : "double",
                                                        "defaultValue" : -1.11950146655987,
                                                        "interp" : "eioe"
                                                      },
                                                      "translation1" : {
                                                        "type" : "double",
                                                        "defaultValue" : 8.12143442823202,
                                                        "interp" : "eioe"
                                                      },
                                                      "scale0" : {
                                                        "type" : "double",
                                                        "defaultValue" : 1.00893326326855,
                                                        "interp" : "eioe"
                                                      },
                                                      "scale1" : {
                                                        "type" : "double",
                                                        "defaultValue" : 1.00893326326855,
                                                        "interp" : "eioe"
                                                      }
                                                    },
                                                    "effects" : [

                                                    ],
                                                    "start" : 145,
                                                    "duration" : 7,
                                                    "mediaStart" : 0,
                                                    "mediaDuration" : 7,
                                                    "scalar" : 1,
                                                    "metadata" : {
                                                      "clipSpeedAttribute" : false
                                                    },
                                                    "animationTracks" : {

                                                    }
                                                  },
                                                  {
                                                    "id" : 1645,
                                                    "_type" : "IMFile",
                                                    "src" : 9,
                                                    "trackNumber" : 0,
                                                    "trimStartSum" : 0,
                                                    "attributes" : {
                                                      "ident" : "wave1"
                                                    },
                                                    "parameters" : {
                                                      "translation0" : {
                                                        "type" : "double",
                                                        "defaultValue" : -2.11950146613311,
                                                        "interp" : "eioe"
                                                      },
                                                      "translation1" : {
                                                        "type" : "double",
                                                        "defaultValue" : 8.96940103546206,
                                                        "interp" : "eioe"
                                                      },
                                                      "scale0" : {
                                                        "type" : "double",
                                                        "defaultValue" : 1.02884111169424,
                                                        "interp" : "eioe"
                                                      },
                                                      "scale1" : {
                                                        "type" : "double",
                                                        "defaultValue" : 1.02884111169424,
                                                        "interp" : "eioe"
                                                      }
                                                    },
                                                    "effects" : [

                                                    ],
                                                    "start" : 152,
                                                    "duration" : 6,
                                                    "mediaStart" : 0,
                                                    "mediaDuration" : 6,
                                                    "scalar" : 1,
                                                    "metadata" : {
                                                      "clipSpeedAttribute" : false
                                                    },
                                                    "animationTracks" : {

                                                    }
                                                  },
                                                  {
                                                    "id" : 1646,
                                                    "_type" : "IMFile",
                                                    "src" : 10,
                                                    "trackNumber" : 0,
                                                    "trimStartSum" : 0,
                                                    "attributes" : {
                                                      "ident" : "wave2"
                                                    },
                                                    "parameters" : {
                                                      "translation0" : {
                                                        "type" : "double",
                                                        "defaultValue" : 0.880498533167186,
                                                        "interp" : "eioe"
                                                      },
                                                      "translation1" : {
                                                        "type" : "double",
                                                        "defaultValue" : -88.087642172052,
                                                        "interp" : "eioe"
                                                      },
                                                      "scale0" : {
                                                        "type" : "double",
                                                        "defaultValue" : 1.03068101042332,
                                                        "interp" : "eioe"
                                                      },
                                                      "scale1" : {
                                                        "type" : "double",
                                                        "defaultValue" : 1.03068101042332,
                                                        "interp" : "eioe"
                                                      }
                                                    },
                                                    "effects" : [

                                                    ],
                                                    "start" : 158,
                                                    "duration" : 6,
                                                    "mediaStart" : 0,
                                                    "mediaDuration" : 6,
                                                    "scalar" : 1,
                                                    "metadata" : {
                                                      "clipSpeedAttribute" : false
                                                    },
                                                    "animationTracks" : {

                                                    }
                                                  },
                                                  {
                                                    "id" : 1647,
                                                    "_type" : "IMFile",
                                                    "src" : 11,
                                                    "trackNumber" : 0,
                                                    "trimStartSum" : 0,
                                                    "attributes" : {
                                                      "ident" : "wave3"
                                                    },
                                                    "parameters" : {
                                                      "translation0" : {
                                                        "type" : "double",
                                                        "defaultValue" : -1.11950146655987,
                                                        "interp" : "eioe"
                                                      },
                                                      "translation1" : {
                                                        "type" : "double",
                                                        "defaultValue" : 8.12143442823202,
                                                        "interp" : "eioe"
                                                      },
                                                      "scale0" : {
                                                        "type" : "double",
                                                        "defaultValue" : 1.00893326326855,
                                                        "interp" : "eioe"
                                                      },
                                                      "scale1" : {
                                                        "type" : "double",
                                                        "defaultValue" : 1.00893326326855,
                                                        "interp" : "eioe"
                                                      }
                                                    },
                                                    "effects" : [

                                                    ],
                                                    "start" : 164,
                                                    "duration" : 7,
                                                    "mediaStart" : 0,
                                                    "mediaDuration" : 7,
                                                    "scalar" : 1,
                                                    "metadata" : {
                                                      "clipSpeedAttribute" : false
                                                    },
                                                    "animationTracks" : {

                                                    }
                                                  },
                                                  {
                                                    "id" : 1648,
                                                    "_type" : "IMFile",
                                                    "src" : 9,
                                                    "trackNumber" : 0,
                                                    "trimStartSum" : 0,
                                                    "attributes" : {
                                                      "ident" : "wave1"
                                                    },
                                                    "parameters" : {
                                                      "translation0" : {
                                                        "type" : "double",
                                                        "defaultValue" : -2.11950146613311,
                                                        "interp" : "eioe"
                                                      },
                                                      "translation1" : {
                                                        "type" : "double",
                                                        "defaultValue" : 8.96940103546206,
                                                        "interp" : "eioe"
                                                      },
                                                      "scale0" : {
                                                        "type" : "double",
                                                        "defaultValue" : 1.02884111169424,
                                                        "interp" : "eioe"
                                                      },
                                                      "scale1" : {
                                                        "type" : "double",
                                                        "defaultValue" : 1.02884111169424,
                                                        "interp" : "eioe"
                                                      }
                                                    },
                                                    "effects" : [

                                                    ],
                                                    "start" : 171,
                                                    "duration" : 6,
                                                    "mediaStart" : 0,
                                                    "mediaDuration" : 6,
                                                    "scalar" : 1,
                                                    "metadata" : {
                                                      "clipSpeedAttribute" : false
                                                    },
                                                    "animationTracks" : {

                                                    }
                                                  },
                                                  {
                                                    "id" : 1649,
                                                    "_type" : "IMFile",
                                                    "src" : 10,
                                                    "trackNumber" : 0,
                                                    "trimStartSum" : 0,
                                                    "attributes" : {
                                                      "ident" : "wave2"
                                                    },
                                                    "parameters" : {
                                                      "translation0" : {
                                                        "type" : "double",
                                                        "defaultValue" : 0.880498533167186,
                                                        "interp" : "eioe"
                                                      },
                                                      "translation1" : {
                                                        "type" : "double",
                                                        "defaultValue" : -88.087642172052,
                                                        "interp" : "eioe"
                                                      },
                                                      "scale0" : {
                                                        "type" : "double",
                                                        "defaultValue" : 1.03068101042332,
                                                        "interp" : "eioe"
                                                      },
                                                      "scale1" : {
                                                        "type" : "double",
                                                        "defaultValue" : 1.03068101042332,
                                                        "interp" : "eioe"
                                                      }
                                                    },
                                                    "effects" : [

                                                    ],
                                                    "start" : 177,
                                                    "duration" : 6,
                                                    "mediaStart" : 0,
                                                    "mediaDuration" : 6,
                                                    "scalar" : 1,
                                                    "metadata" : {
                                                      "clipSpeedAttribute" : false
                                                    },
                                                    "animationTracks" : {

                                                    }
                                                  },
                                                  {
                                                    "id" : 1650,
                                                    "_type" : "IMFile",
                                                    "src" : 11,
                                                    "trackNumber" : 0,
                                                    "trimStartSum" : 0,
                                                    "attributes" : {
                                                      "ident" : "wave3"
                                                    },
                                                    "parameters" : {
                                                      "translation0" : {
                                                        "type" : "double",
                                                        "defaultValue" : -1.11950146655987,
                                                        "interp" : "eioe"
                                                      },
                                                      "translation1" : {
                                                        "type" : "double",
                                                        "defaultValue" : 8.12143442823202,
                                                        "interp" : "eioe"
                                                      },
                                                      "scale0" : {
                                                        "type" : "double",
                                                        "defaultValue" : 1.00893326326855,
                                                        "interp" : "eioe"
                                                      },
                                                      "scale1" : {
                                                        "type" : "double",
                                                        "defaultValue" : 1.00893326326855,
                                                        "interp" : "eioe"
                                                      }
                                                    },
                                                    "effects" : [

                                                    ],
                                                    "start" : 183,
                                                    "duration" : 7,
                                                    "mediaStart" : 0,
                                                    "mediaDuration" : 7,
                                                    "scalar" : 1,
                                                    "metadata" : {
                                                      "clipSpeedAttribute" : false
                                                    },
                                                    "animationTracks" : {

                                                    }
                                                  },
                                                  {
                                                    "id" : 1651,
                                                    "_type" : "IMFile",
                                                    "src" : 9,
                                                    "trackNumber" : 0,
                                                    "trimStartSum" : 0,
                                                    "attributes" : {
                                                      "ident" : "wave1"
                                                    },
                                                    "parameters" : {
                                                      "translation0" : {
                                                        "type" : "double",
                                                        "defaultValue" : -2.11950146613311,
                                                        "interp" : "eioe"
                                                      },
                                                      "translation1" : {
                                                        "type" : "double",
                                                        "defaultValue" : 8.96940103546206,
                                                        "interp" : "eioe"
                                                      },
                                                      "scale0" : {
                                                        "type" : "double",
                                                        "defaultValue" : 1.02884111169424,
                                                        "interp" : "eioe"
                                                      },
                                                      "scale1" : {
                                                        "type" : "double",
                                                        "defaultValue" : 1.02884111169424,
                                                        "interp" : "eioe"
                                                      }
                                                    },
                                                    "effects" : [

                                                    ],
                                                    "start" : 190,
                                                    "duration" : 6,
                                                    "mediaStart" : 0,
                                                    "mediaDuration" : 6,
                                                    "scalar" : 1,
                                                    "metadata" : {
                                                      "clipSpeedAttribute" : false
                                                    },
                                                    "animationTracks" : {

                                                    }
                                                  },
                                                  {
                                                    "id" : 1652,
                                                    "_type" : "IMFile",
                                                    "src" : 10,
                                                    "trackNumber" : 0,
                                                    "trimStartSum" : 0,
                                                    "attributes" : {
                                                      "ident" : "wave2"
                                                    },
                                                    "parameters" : {
                                                      "translation0" : {
                                                        "type" : "double",
                                                        "defaultValue" : 0.880498533167186,
                                                        "interp" : "eioe"
                                                      },
                                                      "translation1" : {
                                                        "type" : "double",
                                                        "defaultValue" : -88.087642172052,
                                                        "interp" : "eioe"
                                                      },
                                                      "scale0" : {
                                                        "type" : "double",
                                                        "defaultValue" : 1.03068101042332,
                                                        "interp" : "eioe"
                                                      },
                                                      "scale1" : {
                                                        "type" : "double",
                                                        "defaultValue" : 1.03068101042332,
                                                        "interp" : "eioe"
                                                      }
                                                    },
                                                    "effects" : [

                                                    ],
                                                    "start" : 196,
                                                    "duration" : 4,
                                                    "mediaStart" : 0,
                                                    "mediaDuration" : 4,
                                                    "scalar" : 1,
                                                    "metadata" : {
                                                      "clipSpeedAttribute" : false
                                                    },
                                                    "animationTracks" : {

                                                    }
                                                  }
                                                ],
                                                  "ident" : "",
                                                  "audioMuted" : false,
                                                  "videoHidden" : false,
                                                  "magnetic" : false,
                                                  "matte" : 0,
                                                  "metadata" : {
                                                    "IsLocked" : "False",
                                                    "WinTrackHeight" : "0"
                                                  }
                                              },
                                              {
                                                "trackIndex" : 1,
                                                "medias" : [
                                                  {
                                                    "id" : 1653,
                                                    "_type" : "IMFile",
                                                    "src" : 12,
                                                    "trackNumber" : 0,
                                                    "trimStartSum" : 0,
                                                    "attributes" : {
                                                      "ident" : "control-plane-128"
                                                    },
                                                    "parameters" : {
                                                      "translation0" : {
                                                        "type" : "double",
                                                        "defaultValue" : -785.119501466663,
                                                        "interp" : "eioe"
                                                      },
                                                      "translation1" : {
                                                        "type" : "double",
                                                        "defaultValue" : 199.818754449228,
                                                        "interp" : "eioe"
                                                      }
                                                    },
                                                    "effects" : [

                                                    ],
                                                    "start" : 0,
                                                    "duration" : 19,
                                                    "mediaStart" : 0,
                                                    "mediaDuration" : 19,
                                                    "scalar" : 1,
                                                    "metadata" : {
                                                      "clipSpeedAttribute" : false
                                                    },
                                                    "animationTracks" : {

                                                    }
                                                  },
                                                  {
                                                    "id" : 1654,
                                                    "_type" : "IMFile",
                                                    "src" : 13,
                                                    "trackNumber" : 0,
                                                    "trimStartSum" : 0,
                                                    "attributes" : {
                                                      "ident" : "etcd-128"
                                                    },
                                                    "parameters" : {
                                                      "translation0" : {
                                                        "type" : "double",
                                                        "defaultValue" : -655.119501466745,
                                                        "interp" : "eioe"
                                                      },
                                                      "translation1" : {
                                                        "type" : "double",
                                                        "defaultValue" : 120.373795393553,
                                                        "interp" : "eioe"
                                                      }
                                                    },
                                                    "effects" : [

                                                    ],
                                                    "start" : 19,
                                                    "duration" : 22,
                                                    "mediaStart" : 0,
                                                    "mediaDuration" : 22,
                                                    "scalar" : 1,
                                                    "metadata" : {
                                                      "clipSpeedAttribute" : false
                                                    },
                                                    "animationTracks" : {

                                                    }
                                                  },
                                                  {
                                                    "id" : 1655,
                                                    "_type" : "IMFile",
                                                    "src" : 14,
                                                    "trackNumber" : 0,
                                                    "trimStartSum" : 0,
                                                    "attributes" : {
                                                      "ident" : "node-128"
                                                    },
                                                    "parameters" : {
                                                      "translation0" : {
                                                        "type" : "double",
                                                        "defaultValue" : -315.119501466444,
                                                        "interp" : "eioe"
                                                      },
                                                      "translation1" : {
                                                        "type" : "double",
                                                        "defaultValue" : 135.818754449343,
                                                        "interp" : "eioe"
                                                      }
                                                    },
                                                    "effects" : [

                                                    ],
                                                    "start" : 41,
                                                    "duration" : 18,
                                                    "mediaStart" : 0,
                                                    "mediaDuration" : 18,
                                                    "scalar" : 1,
                                                    "metadata" : {
                                                      "clipSpeedAttribute" : false
                                                    },
                                                    "animationTracks" : {

                                                    }
                                                  },
                                                  {
                                                    "id" : 1656,
                                                    "_type" : "IMFile",
                                                    "src" : 15,
                                                    "trackNumber" : 0,
                                                    "trimStartSum" : 0,
                                                    "attributes" : {
                                                      "ident" : "ns-128"
                                                    },
                                                    "parameters" : {
                                                      "translation0" : {
                                                        "type" : "double",
                                                        "defaultValue" : -345.11950146672,
                                                        "interp" : "eioe"
                                                      },
                                                      "translation1" : {
                                                        "type" : "double",
                                                        "defaultValue" : 158.121434428201,
                                                        "interp" : "eioe"
                                                      }
                                                    },
                                                    "effects" : [

                                                    ],
                                                    "start" : 59,
                                                    "duration" : 23,
                                                    "mediaStart" : 0,
                                                    "mediaDuration" : 23,
                                                    "scalar" : 1,
                                                    "metadata" : {
                                                      "clipSpeedAttribute" : false
                                                    },
                                                    "animationTracks" : {

                                                    }
                                                  },
                                                  {
                                                    "id" : 1657,
                                                    "_type" : "IMFile",
                                                    "src" : 16,
                                                    "trackNumber" : 0,
                                                    "trimStartSum" : 0,
                                                    "attributes" : {
                                                      "ident" : "pod-128"
                                                    },
                                                    "parameters" : {
                                                      "translation0" : {
                                                        "type" : "double",
                                                        "defaultValue" : -91.1195014666742,
                                                        "interp" : "eioe"
                                                      },
                                                      "translation1" : {
                                                        "type" : "double",
                                                        "defaultValue" : 100.121434428219,
                                                        "interp" : "eioe"
                                                      }
                                                    },
                                                    "effects" : [

                                                    ],
                                                    "start" : 82,
                                                    "duration" : 16,
                                                    "mediaStart" : 0,
                                                    "mediaDuration" : 16,
                                                    "scalar" : 1,
                                                    "metadata" : {
                                                      "clipSpeedAttribute" : false
                                                    },
                                                    "animationTracks" : {

                                                    }
                                                  },
                                                  {
                                                    "id" : 1658,
                                                    "_type" : "IMFile",
                                                    "src" : 17,
                                                    "trackNumber" : 0,
                                                    "trimStartSum" : 0,
                                                    "attributes" : {
                                                      "ident" : "secret-128"
                                                    },
                                                    "parameters" : {
                                                      "translation0" : {
                                                        "type" : "double",
                                                        "defaultValue" : -1.11950146666447,
                                                        "interp" : "eioe"
                                                      },
                                                      "translation1" : {
                                                        "type" : "double",
                                                        "defaultValue" : 140.121434428194,
                                                        "interp" : "eioe"
                                                      }
                                                    },
                                                    "effects" : [

                                                    ],
                                                    "start" : 98,
                                                    "duration" : 17,
                                                    "mediaStart" : 0,
                                                    "mediaDuration" : 17,
                                                    "scalar" : 1,
                                                    "metadata" : {
                                                      "clipSpeedAttribute" : false
                                                    },
                                                    "animationTracks" : {

                                                    }
                                                  },
                                                  {
                                                    "id" : 1659,
                                                    "_type" : "IMFile",
                                                    "src" : 18,
                                                    "trackNumber" : 0,
                                                    "trimStartSum" : 0,
                                                    "attributes" : {
                                                      "ident" : "svc-128"
                                                    },
                                                    "parameters" : {
                                                      "translation0" : {
                                                        "type" : "double",
                                                        "defaultValue" : 258.880498533338,
                                                        "interp" : "eioe"
                                                      },
                                                      "translation1" : {
                                                        "type" : "double",
                                                        "defaultValue" : 112.121434428216,
                                                        "interp" : "eioe"
                                                      }
                                                    },
                                                    "effects" : [

                                                    ],
                                                    "start" : 115,
                                                    "duration" : 14,
                                                    "mediaStart" : 0,
                                                    "mediaDuration" : 14,
                                                    "scalar" : 1,
                                                    "metadata" : {
                                                      "clipSpeedAttribute" : false
                                                    },
                                                    "animationTracks" : {

                                                    }
                                                  },
                                                  {
                                                    "id" : 1660,
                                                    "_type" : "IMFile",
                                                    "src" : 18,
                                                    "trackNumber" : 0,
                                                    "trimStartSum" : 0,
                                                    "attributes" : {
                                                      "ident" : "svc-128"
                                                    },
                                                    "parameters" : {
                                                      "translation0" : {
                                                        "type" : "double",
                                                        "defaultValue" : 346.880498533407,
                                                        "interp" : "eioe"
                                                      },
                                                      "translation1" : {
                                                        "type" : "double",
                                                        "defaultValue" : 120.121434428205,
                                                        "interp" : "eioe"
                                                      }
                                                    },
                                                    "effects" : [

                                                    ],
                                                    "start" : 129,
                                                    "duration" : 14,
                                                    "mediaStart" : 0,
                                                    "mediaDuration" : 14,
                                                    "scalar" : 1,
                                                    "metadata" : {
                                                      "clipSpeedAttribute" : false
                                                    },
                                                    "animationTracks" : {

                                                    }
                                                  },
                                                  {
                                                    "id" : 1661,
                                                    "_type" : "IMFile",
                                                    "src" : 19,
                                                    "trackNumber" : 0,
                                                    "trimStartSum" : 0,
                                                    "attributes" : {
                                                      "ident" : "rs-128"
                                                    },
                                                    "parameters" : {
                                                      "translation0" : {
                                                        "type" : "double",
                                                        "defaultValue" : 480.880498533387,
                                                        "interp" : "eioe"
                                                      },
                                                      "translation1" : {
                                                        "type" : "double",
                                                        "defaultValue" : 158.1214344282,
                                                        "interp" : "eioe"
                                                      }
                                                    },
                                                    "effects" : [

                                                    ],
                                                    "start" : 143,
                                                    "duration" : 13,
                                                    "mediaStart" : 0,
                                                    "mediaDuration" : 13,
                                                    "scalar" : 1,
                                                    "metadata" : {
                                                      "clipSpeedAttribute" : false
                                                    },
                                                    "animationTracks" : {

                                                    }
                                                  },
                                                  {
                                                    "id" : 1662,
                                                    "_type" : "IMFile",
                                                    "src" : 20,
                                                    "trackNumber" : 0,
                                                    "trimStartSum" : 0,
                                                    "attributes" : {
                                                      "ident" : "vol-128"
                                                    },
                                                    "parameters" : {
                                                      "translation0" : {
                                                        "type" : "double",
                                                        "defaultValue" : 560.880498533409,
                                                        "interp" : "eioe"
                                                      },
                                                      "translation1" : {
                                                        "type" : "double",
                                                        "defaultValue" : 136.121434428193,
                                                        "interp" : "eioe"
                                                      }
                                                    },
                                                    "effects" : [

                                                    ],
                                                    "start" : 156,
                                                    "duration" : 14,
                                                    "mediaStart" : 0,
                                                    "mediaDuration" : 14,
                                                    "scalar" : 1,
                                                    "metadata" : {
                                                      "clipSpeedAttribute" : false
                                                    },
                                                    "animationTracks" : {

                                                    }
                                                  },
                                                  {
                                                    "id" : 1663,
                                                    "_type" : "IMFile",
                                                    "src" : 21,
                                                    "trackNumber" : 0,
                                                    "trimStartSum" : 0,
                                                    "attributes" : {
                                                      "ident" : "deploy-128"
                                                    },
                                                    "parameters" : {
                                                      "translation0" : {
                                                        "type" : "double",
                                                        "defaultValue" : 716.880498533367,
                                                        "interp" : "eioe"
                                                      },
                                                      "translation1" : {
                                                        "type" : "double",
                                                        "defaultValue" : 84.1214344281821,
                                                        "interp" : "eioe"
                                                      }
                                                    },
                                                    "effects" : [

                                                    ],
                                                    "start" : 170,
                                                    "duration" : 13,
                                                    "mediaStart" : 0,
                                                    "mediaDuration" : 13,
                                                    "scalar" : 1,
                                                    "metadata" : {
                                                      "clipSpeedAttribute" : false
                                                    },
                                                    "animationTracks" : {

                                                    }
                                                  },
                                                  {
                                                    "id" : 1664,
                                                    "_type" : "IMFile",
                                                    "src" : 22,
                                                    "trackNumber" : 0,
                                                    "trimStartSum" : 0,
                                                    "attributes" : {
                                                      "ident" : "cronjob-128"
                                                    },
                                                    "parameters" : {
                                                      "translation0" : {
                                                        "type" : "double",
                                                        "defaultValue" : 870.880498533812,
                                                        "interp" : "eioe"
                                                      },
                                                      "translation1" : {
                                                        "type" : "double",
                                                        "defaultValue" : 135.81875444932,
                                                        "interp" : "eioe"
                                                      }
                                                    },
                                                    "effects" : [

                                                    ],
                                                    "start" : 183,
                                                    "duration" : 17,
                                                    "mediaStart" : 0,
                                                    "mediaDuration" : 17,
                                                    "scalar" : 1,
                                                    "metadata" : {
                                                      "clipSpeedAttribute" : false
                                                    },
                                                    "animationTracks" : {

                                                    }
                                                  }
                                                ],
                                                  "ident" : "",
                                                  "audioMuted" : false,
                                                  "videoHidden" : false,
                                                  "magnetic" : false,
                                                  "matte" : 0,
                                                  "metadata" : {
                                                    "IsLocked" : "False",
                                                    "WinTrackHeight" : "3.6077993365582e-314"
                                                  }
                                              }
                                            ],
                                            "attributes" : {
                                              "ident" : "Group 1",
                                              "gain" : 1.0,
                                              "mixToMono" : false
                                            },
                                            "effects" : [

                                            ],
                                            "start" : 0,
                                            "duration" : 200,
                                            "mediaStart" : 0.0,
                                            "mediaDuration" : 200.0,
                                            "scalar" : 1,
                                            "metadata" : {
                                              "IsGroupExpanded" : "False"
                                            },
                                            "animationTracks" : {

                                            }
                                          }
                                        ],
                                          "ident" : "",
                                          "audioMuted" : false,
                                          "videoHidden" : false,
                                          "magnetic" : false,
                                          "matte" : 0,
                                          "metadata" : {
                                            "IsLocked" : "False",
                                            "WinTrackHeight" : "0"
                                          }
                                      },
                                      {
                                        "trackIndex" : 1,
                                        "medias" : [
                                          {
                                            "id" : 1665,
                                            "_type" : "IMFile",
                                            "src" : 23,
                                            "trackNumber" : 0,
                                            "trimStartSum" : 0,
                                            "attributes" : {
                                              "ident" : "k8sfavicon"
                                            },
                                            "parameters" : {
                                              "translation0" : {
                                                "type" : "double",
                                                "defaultValue" : -822.559750733209,
                                                "interp" : "eioe"
                                              },
                                              "translation1" : {
                                                "type" : "double",
                                                "defaultValue" : 466.970094438544,
                                                "interp" : "eioe"
                                              },
                                              "scale0" : {
                                                "type" : "double",
                                                "defaultValue" : 0.335937500000757,
                                                "interp" : "eioe"
                                              },
                                              "scale1" : {
                                                "type" : "double",
                                                "defaultValue" : 0.335937500000757,
                                                "interp" : "eioe"
                                              }
                                            },
                                            "effects" : [

                                            ],
                                            "start" : 0,
                                            "duration" : 200,
                                            "mediaStart" : 0,
                                            "mediaDuration" : 200,
                                            "scalar" : 1,
                                            "metadata" : {
                                              "clipSpeedAttribute" : false
                                            },
                                            "animationTracks" : {

                                            }
                                          }
                                        ],
                                          "ident" : "",
                                          "audioMuted" : false,
                                          "videoHidden" : false,
                                          "magnetic" : false,
                                          "matte" : 0,
                                          "metadata" : {
                                            "IsLocked" : "False",
                                            "WinTrackHeight" : "3.6077993365582e-314"
                                          }
                                      }
                                    ],
                                    "attributes" : {
                                      "ident" : "Group 2",
                                      "gain" : 1.0,
                                      "mixToMono" : false
                                    },
                                    "effects" : [

                                    ],
                                    "start" : 0,
                                    "duration" : 200,
                                    "mediaStart" : 0.0,
                                    "mediaDuration" : 200.0,
                                    "scalar" : 1,
                                    "metadata" : {
                                      "IsGroupExpanded" : "False"
                                    },
                                    "animationTracks" : {

                                    }
                                  }
                                ],
                                  "ident" : "",
                                  "audioMuted" : false,
                                  "videoHidden" : false,
                                  "magnetic" : false,
                                  "matte" : 0,
                                  "metadata" : {
                                    "IsLocked" : "False",
                                    "WinTrackHeight" : "0"
                                  }
                              },
                              {
                                "trackIndex" : 1,
                                "medias" : [
                                  {
                                    "id" : 1666,
                                    "_type" : "AMFile",
                                    "src" : 24,
                                    "trackNumber" : 0,
                                    "attributes" : {
                                      "ident" : "wave",
                                      "gain" : 1.0,
                                      "mixToMono" : false
                                    },
                                      "channelNumber" : "0,1",
                                    "parameters" : {
                                      "volume" : {
                                        "type" : "double",
                                        "keyframes" : [
                                          {
                                            "endTime" : -1,
                                            "time" : -1,
                                            "value" : 1.0,
                                            "duration" : 0
                                          },
                                          {
                                            "endTime" : 0,
                                            "time" : 0,
                                            "value" : 0.0,
                                            "duration" : 0
                                          },
                                          {
                                            "endTime" : 51,
                                            "time" : 51,
                                            "value" : 0.5,
                                            "duration" : 0
                                          }
                                        ]
                                      }
                                    },
                                    "effects" : [

                                    ],
                                    "start" : 0,
                                    "duration" : 103,
                                    "mediaStart" : 0,
                                    "mediaDuration" : 103,
                                    "scalar" : 1,
                                    "metadata" : {
                                      "clipSpeedAttribute" : false
                                    },
                                    "animationTracks" : {

                                    }
                                  },
                                  {
                                    "id" : 1667,
                                    "_type" : "AMFile",
                                    "src" : 24,
                                    "trackNumber" : 0,
                                    "attributes" : {
                                      "ident" : "wave",
                                      "gain" : 1.0,
                                      "mixToMono" : false
                                    },
                                      "channelNumber" : "0,1",
                                    "parameters" : {
                                      "volume" : {
                                        "type" : "double",
                                        "keyframes" : [
                                          {
                                            "endTime" : 0,
                                            "time" : 0,
                                            "value" : 0.823930776854464,
                                            "duration" : 0
                                          },
                                          {
                                            "endTime" : 115,
                                            "time" : 115,
                                            "value" : 0.400853853777541,
                                            "duration" : 0
                                          },
                                          {
                                            "endTime" : 200,
                                            "time" : 200,
                                            "value" : 0.0,
                                            "duration" : 0
                                          },
                                          {
                                            "endTime" : 201,
                                            "time" : 201,
                                            "value" : 1.0,
                                            "duration" : 0
                                          }
                                        ]
                                      }
                                    },
                                    "effects" : [

                                    ],
                                    "start" : 103,
                                    "duration" : 97,
                                    "mediaStart" : 103,
                                    "mediaDuration" : 97,
                                    "scalar" : 1,
                                    "metadata" : {
                                      "clipSpeedAttribute" : false
                                    },
                                    "animationTracks" : {

                                    }
                                  }
                                ],
                                  "ident" : "",
                                  "audioMuted" : false,
                                  "videoHidden" : false,
                                  "magnetic" : false,
                                  "matte" : 0,
                                  "metadata" : {
                                    "IsLocked" : "False",
                                    "WinTrackHeight" : "2.26715762571713e-312"
                                  }
                              }
                            ],
                            "attributes" : {
                              "ident" : "Group 1",
                              "gain" : 1.0,
                              "mixToMono" : false
                            },
                            "effects" : [

                            ],
                            "start" : 0,
                            "duration" : 200,
                            "mediaStart" : 0.0,
                            "mediaDuration" : 200.0,
                            "scalar" : 1,
                            "metadata" : {
                              "IsGroupExpanded" : "False"
                            },
                            "animationTracks" : {

                            }
                          }
                        ],
                          "ident" : "",
                          "audioMuted" : false,
                          "videoHidden" : false,
                          "magnetic" : false,
                          "matte" : 0,
                          "metadata" : {
                            "IsLocked" : "False",
                            "WinTrackHeight" : "4.48620776045087e-312"
                          }
                      }
                    ],
                    "attributes" : {
                      "ident" : "start",
                      "gain" : 1.0,
                      "mixToMono" : false
                    },
                    "effects" : [

                    ],
                    "start" : 0,
                    "duration" : 200,
                    "mediaStart" : 0.0,
                    "mediaDuration" : 200.0,
                    "scalar" : 1,
                    "metadata" : {
                      "IsGroupExpanded" : "False"
                    },
                    "animationTracks" : {

                    }
                  },
                  {
                    "id" : 1668,
                    "_type" : "Group",
                    "parameters" : {
                      "volume" : 1.0
                    },
                    "tracks" : [
                      {
                        "trackIndex" : 0,
                        "medias" : [
                          {
                            "id" : 1669,
                            "_type" : "Callout",
                            "def" : {
                              "kind" : "remix",
                              "shape" : "text",
                              "style" : "basic",
                              "height" : {
                                "type" : "double",
                                "defaultValue" : 294.0,
                                "interp" : "linr"
                              },
                              "line-spacing" : {
                                "type" : "double",
                                "defaultValue" : 0.0,
                                "interp" : "linr"
                              },
                              "width" : {
                                "type" : "double",
                                "defaultValue" : 1174.38904109587,
                                "interp" : "linr"
                              },
                              "word-wrap" : {
                                "type" : "double",
                                "defaultValue" : 1.0,
                                "interp" : "linr"
                              },
                              "horizontal-alignment" : "center",
                              "resize-behavior" : "resizeText",
                              "text" : "Thanks",
                              "vertical-alignment" : "center",
                              "font" : {
                                "color-blue" : {
                                  "type" : "double",
                                  "defaultValue" : 1.0,
                                  "interp" : "linr"
                                },
                                "color-green" : {
                                  "type" : "double",
                                  "defaultValue" : 1.0,
                                  "interp" : "linr"
                                },
                                "color-red" : {
                                  "type" : "double",
                                  "defaultValue" : 1.0,
                                  "interp" : "linr"
                                },
                                "size" : {
                                  "type" : "double",
                                  "defaultValue" : 96.0,
                                  "interp" : "linr"
                                },
                                "tracking" : {
                                  "type" : "double",
                                  "defaultValue" : 0.0,
                                  "interp" : "linr"
                                },
                                "name" : "Montserrat",
                                "weight" : "Regular"
                              },
                              "textAttributes" : {
                                "type" : "textAttributeList",
                                "keyframes" : [
                                  {
                                    "endTime" : 0,
                                    "time" : 0,
                                    "value" : [{"name":"fontWeight","rangeEnd":6,"rangeStart":0,"value":700,"valueType":"int"},{"name":"fontName","rangeEnd":6,"rangeStart":0,"value":"Montserrat","valueType":"string"},{"name":"fontItalic","rangeEnd":6,"rangeStart":0,"value":0,"valueType":"int"},{"name":"kerning","rangeEnd":6,"rangeStart":0,"value":0,"valueType":"double"},{"name":"strikethrough","rangeEnd":6,"rangeStart":0,"value":0,"valueType":"int"},{"name":"fgColor","rangeEnd":6,"rangeStart":0,"value":"(50,108,229,255)","valueType":"color"},{"name":"underline","rangeEnd":6,"rangeStart":0,"value":0,"valueType":"int"},{"name":"fontSize","rangeEnd":6,"rangeStart":0,"value":240,"valueType":"double"}],
                                    "duration" : 0
                                  }
                                ]
                              }
                            },
                            "attributes" : {
                              "autoRotateText" : true
                            },
                            "parameters" : {
                              "translation0" : {
                                "type" : "double",
                                "defaultValue" : -22.4178082191042,
                                "interp" : "eioe"
                              },
                              "translation1" : {
                                "type" : "double",
                                "defaultValue" : 1.319122588261e-11,
                                "interp" : "eioe"
                              }
                            },
                            "effects" : [
                                {
                                  "_type" : "GenericBehaviorEffect",
                                  "effectName" : "pulsating",
                                  "start" : -102,
                                  "duration" : 200                                ,
                                  "in" : {
                                    "attributes" : {
                                      "name" : "grow",
                                      "type" : 1,
                                      "characterOrder" : 6,
                                      "offsetBetweenCharacters" : 1,
                                      "suggestedDurationPerCharacter" : 18,
                                      "overlapProportion" : "3/4",
                                      "movement" : 30,
                                      "springDamping" : 5.0,
                                      "springStiffness" : 50.0,
                                      "bounceBounciness" : 0.45
                                    }
                                  
                                  },
                                  "center" : {
                                    "attributes" : {
                                      "name" : "pulsate",
                                      "type" : 1,
                                      "characterOrder" : 6,
                                      "offsetBetweenCharacters" : "21/10",
                                      "secondsPerLoop" : 1,
                                      "numberOfLoops" : -1,
                                      "delayBetweenLoops" : 0,
                                      "offsetBetweenCharacters" : "21/10"
                                    },
                                    "parameters" : {
                                      "movement" : {
                                        "type" : "int",
                                        "valueBounds" : {
                                          "minValue" : 0,
                                          "maxValue" : 31,
                                          "defaultValue" : 27
                                        },
                                        "uiHints" : {
                                          "userInterfaceType" : 4,
                                          "unitType" : 0
                                        },
                                        "keyframes" : [
                                          {
                                            "endTime" : 0,
                                            "time" : 0,
                                            "value" : 27,
                                            "duration" : 0
                                          }
                                        ]
                                      },
                                      "scale" : {
                                        "type" : "double",
                                        "defaultValue" : 1.08,
                                        "interp" : "linr",
                                        "valueBounds" : {
                                          "minValue" : 0.01,
                                          "maxValue" : 2.0,
                                          "defaultValue" : 1.08
                                        },
                                        "uiHints" : {
                                          "userInterfaceType" : 1,
                                          "unitType" : 1
                                        }
                                      }
                                    }
                                  
                                  },
                                  "out" : {
                                    "attributes" : {
                                      "name" : "shrink",
                                      "type" : 1,
                                      "characterOrder" : 6,
                                      "offsetBetweenCharacters" : 1,
                                      "suggestedDurationPerCharacter" : "29/2",
                                      "overlapProportion" : "1/10",
                                      "movement" : 11,
                                      "springDamping" : 5.0,
                                      "springStiffness" : 50.0,
                                      "bounceBounciness" : 0.45
                                    }
                                  
                                  }
                                }
                            ],
                            "start" : 0,
                            "duration" : 103,
                            "mediaStart" : -102,
                            "mediaDuration" : 103,
                            "scalar" : 1,
                            "metadata" : {
                              "clipSpeedAttribute" : false
                            },
                            "animationTracks" : {

                            }
                          },
                          {
                            "id" : 1670,
                            "_type" : "Callout",
                            "def" : {
                              "kind" : "remix",
                              "shape" : "text",
                              "style" : "basic",
                              "height" : {
                                "type" : "double",
                                "defaultValue" : 294.0,
                                "interp" : "linr"
                              },
                              "line-spacing" : {
                                "type" : "double",
                                "defaultValue" : 0.0,
                                "interp" : "linr"
                              },
                              "width" : {
                                "type" : "double",
                                "defaultValue" : 1174.38904109587,
                                "interp" : "linr"
                              },
                              "word-wrap" : {
                                "type" : "double",
                                "defaultValue" : 1.0,
                                "interp" : "linr"
                              },
                              "horizontal-alignment" : "center",
                              "resize-behavior" : "resizeText",
                              "text" : "Thanks",
                              "vertical-alignment" : "center",
                              "font" : {
                                "color-blue" : {
                                  "type" : "double",
                                  "defaultValue" : 1.0,
                                  "interp" : "linr"
                                },
                                "color-green" : {
                                  "type" : "double",
                                  "defaultValue" : 1.0,
                                  "interp" : "linr"
                                },
                                "color-red" : {
                                  "type" : "double",
                                  "defaultValue" : 1.0,
                                  "interp" : "linr"
                                },
                                "size" : {
                                  "type" : "double",
                                  "defaultValue" : 96.0,
                                  "interp" : "linr"
                                },
                                "tracking" : {
                                  "type" : "double",
                                  "defaultValue" : 0.0,
                                  "interp" : "linr"
                                },
                                "name" : "Montserrat",
                                "weight" : "Regular"
                              },
                              "textAttributes" : {
                                "type" : "textAttributeList",
                                "keyframes" : [
                                  {
                                    "endTime" : 0,
                                    "time" : 0,
                                    "value" : [{"name":"fontName","rangeEnd":6,"rangeStart":0,"value":"Montserrat","valueType":"string"},{"name":"kerning","rangeEnd":6,"rangeStart":0,"value":0,"valueType":"double"},{"name":"strikethrough","rangeEnd":6,"rangeStart":0,"value":0,"valueType":"int"},{"name":"fontSize","rangeEnd":6,"rangeStart":0,"value":240,"valueType":"double"},{"name":"fontItalic","rangeEnd":6,"rangeStart":0,"value":0,"valueType":"int"},{"name":"fontWeight","rangeEnd":6,"rangeStart":0,"value":700,"valueType":"int"},{"name":"fgColor","rangeEnd":6,"rangeStart":0,"value":"(50,108,229,255)","valueType":"color"},{"name":"underline","rangeEnd":6,"rangeStart":0,"value":0,"valueType":"int"}],
                                    "duration" : 0
                                  }
                                ]
                              }
                            },
                            "attributes" : {
                              "autoRotateText" : true
                            },
                            "parameters" : {
                              "translation0" : {
                                "type" : "double",
                                "defaultValue" : -74.4178082188969,
                                "interp" : "eioe"
                              },
                              "translation1" : {
                                "type" : "double",
                                "defaultValue" : 4.13429290734252e-11,
                                "interp" : "eioe"
                              }
                            },
                            "effects" : [
                                {
                                  "_type" : "GenericBehaviorEffect",
                                  "effectName" : "pulsating",
                                  "start" : -102,
                                  "duration" : 200                                ,
                                  "in" : {
                                    "attributes" : {
                                      "name" : "grow",
                                      "type" : 1,
                                      "characterOrder" : 6,
                                      "offsetBetweenCharacters" : 1,
                                      "suggestedDurationPerCharacter" : 18,
                                      "overlapProportion" : "3/4",
                                      "movement" : 30,
                                      "springDamping" : 5.0,
                                      "springStiffness" : 50.0,
                                      "bounceBounciness" : 0.45
                                    }
                                  
                                  },
                                  "center" : {
                                    "attributes" : {
                                      "name" : "pulsate",
                                      "type" : 1,
                                      "characterOrder" : 6,
                                      "offsetBetweenCharacters" : "21/10",
                                      "secondsPerLoop" : 1,
                                      "numberOfLoops" : -1,
                                      "delayBetweenLoops" : 0,
                                      "offsetBetweenCharacters" : "21/10"
                                    },
                                    "parameters" : {
                                      "movement" : {
                                        "type" : "int",
                                        "valueBounds" : {
                                          "minValue" : 0,
                                          "maxValue" : 31,
                                          "defaultValue" : 27
                                        },
                                        "uiHints" : {
                                          "userInterfaceType" : 4,
                                          "unitType" : 0
                                        },
                                        "keyframes" : [
                                          {
                                            "endTime" : 0,
                                            "time" : 0,
                                            "value" : 27,
                                            "duration" : 0
                                          }
                                        ]
                                      },
                                      "scale" : {
                                        "type" : "double",
                                        "defaultValue" : 1.08,
                                        "interp" : "linr",
                                        "valueBounds" : {
                                          "minValue" : 0.01,
                                          "maxValue" : 2.0,
                                          "defaultValue" : 1.08
                                        },
                                        "uiHints" : {
                                          "userInterfaceType" : 1,
                                          "unitType" : 1
                                        }
                                      }
                                    }
                                  
                                  },
                                  "out" : {
                                    "attributes" : {
                                      "name" : "shrink",
                                      "type" : 1,
                                      "characterOrder" : 6,
                                      "offsetBetweenCharacters" : 1,
                                      "suggestedDurationPerCharacter" : "29/2",
                                      "overlapProportion" : "1/10",
                                      "movement" : 11,
                                      "springDamping" : 5.0,
                                      "springStiffness" : 50.0,
                                      "bounceBounciness" : 0.45
                                    }
                                  
                                  }
                                }
                            ],
                            "start" : 103,
                            "duration" : 97,
                            "mediaStart" : 1,
                            "mediaDuration" : 97,
                            "scalar" : 1,
                            "metadata" : {
                              "clipSpeedAttribute" : false
                            },
                            "animationTracks" : {

                            }
                          }
                        ],
                          "ident" : "",
                          "audioMuted" : false,
                          "videoHidden" : false,
                          "magnetic" : false,
                          "matte" : 0,
                          "metadata" : {
                            "IsLocked" : "False",
                            "WinTrackHeight" : "0"
                          }
                      },
                      {
                        "trackIndex" : 1,
                        "medias" : [
                          {
                            "id" : 1671,
                            "_type" : "Group",
                            "parameters" : {
                              "translation0" : {
                                "type" : "double",
                                "defaultValue" : 0.559750733332294,
                                "interp" : "eioe"
                              },
                              "translation1" : {
                                "type" : "double",
                                "defaultValue" : -34.4850472193567,
                                "interp" : "eioe"
                              },
                              "volume" : 1.0
                            },
                            "tracks" : [
                              {
                                "trackIndex" : 0,
                                "medias" : [
                                  {
                                    "id" : 1672,
                                    "_type" : "Group",
                                    "parameters" : {
                                      "translation0" : {
                                        "type" : "double",
                                        "defaultValue" : 4.44089209850063e-16,
                                        "interp" : "eioe"
                                      },
                                      "translation1" : {
                                        "type" : "double",
                                        "defaultValue" : -34.4850472193565,
                                        "interp" : "eioe"
                                      },
                                      "volume" : 1.0
                                    },
                                    "tracks" : [
                                      {
                                        "trackIndex" : 0,
                                        "medias" : [
                                          {
                                            "id" : 1673,
                                            "_type" : "Group",
                                            "parameters" : {
                                              "translation0" : {
                                                "type" : "double",
                                                "defaultValue" : 0.55975073333218,
                                                "interp" : "eioe"
                                              },
                                              "translation1" : {
                                                "type" : "double",
                                                "defaultValue" : -289.15133998951,
                                                "interp" : "eioe"
                                              },
                                              "volume" : 1.0
                                            },
                                            "tracks" : [
                                              {
                                                "trackIndex" : 0,
                                                "medias" : [
                                                  {
                                                    "id" : 1674,
                                                    "_type" : "IMFile",
                                                    "src" : 26,
                                                    "trackNumber" : 0,
                                                    "trimStartSum" : 0,
                                                    "attributes" : {
                                                      "ident" : "wave1"
                                                    },
                                                    "parameters" : {
                                                      "translation0" : {
                                                        "type" : "double",
                                                        "defaultValue" : -2.11950146613311,
                                                        "interp" : "eioe"
                                                      },
                                                      "translation1" : {
                                                        "type" : "double",
                                                        "defaultValue" : 8.96940103546206,
                                                        "interp" : "eioe"
                                                      },
                                                      "scale0" : {
                                                        "type" : "double",
                                                        "defaultValue" : 1.02884111169424,
                                                        "interp" : "eioe"
                                                      },
                                                      "scale1" : {
                                                        "type" : "double",
                                                        "defaultValue" : 1.02884111169424,
                                                        "interp" : "eioe"
                                                      }
                                                    },
                                                    "effects" : [

                                                    ],
                                                    "start" : 0,
                                                    "duration" : 6,
                                                    "mediaStart" : 0,
                                                    "mediaDuration" : 1,
                                                    "scalar" : 1,
                                                    "metadata" : {
                                                      "clipSpeedAttribute" : false
                                                    },
                                                    "animationTracks" : {

                                                    }
                                                  },
                                                  {
                                                    "id" : 1675,
                                                    "_type" : "IMFile",
                                                    "src" : 27,
                                                    "trackNumber" : 0,
                                                    "trimStartSum" : 0,
                                                    "attributes" : {
                                                      "ident" : "wave2"
                                                    },
                                                    "parameters" : {
                                                      "translation0" : {
                                                        "type" : "double",
                                                        "defaultValue" : 0.880498533167186,
                                                        "interp" : "eioe"
                                                      },
                                                      "translation1" : {
                                                        "type" : "double",
                                                        "defaultValue" : -88.087642172052,
                                                        "interp" : "eioe"
                                                      },
                                                      "scale0" : {
                                                        "type" : "double",
                                                        "defaultValue" : 1.03068101042332,
                                                        "interp" : "eioe"
                                                      },
                                                      "scale1" : {
                                                        "type" : "double",
                                                        "defaultValue" : 1.03068101042332,
                                                        "interp" : "eioe"
                                                      }
                                                    },
                                                    "effects" : [

                                                    ],
                                                    "start" : 6,
                                                    "duration" : 6,
                                                    "mediaStart" : 0,
                                                    "mediaDuration" : 1,
                                                    "scalar" : 1,
                                                    "metadata" : {
                                                      "clipSpeedAttribute" : false
                                                    },
                                                    "animationTracks" : {

                                                    }
                                                  },
                                                  {
                                                    "id" : 1676,
                                                    "_type" : "IMFile",
                                                    "src" : 28,
                                                    "trackNumber" : 0,
                                                    "trimStartSum" : 0,
                                                    "attributes" : {
                                                      "ident" : "wave3"
                                                    },
                                                    "parameters" : {
                                                      "translation0" : {
                                                        "type" : "double",
                                                        "defaultValue" : -1.11950146655987,
                                                        "interp" : "eioe"
                                                      },
                                                      "translation1" : {
                                                        "type" : "double",
                                                        "defaultValue" : 8.12143442823202,
                                                        "interp" : "eioe"
                                                      },
                                                      "scale0" : {
                                                        "type" : "double",
                                                        "defaultValue" : 1.00893326326855,
                                                        "interp" : "eioe"
                                                      },
                                                      "scale1" : {
                                                        "type" : "double",
                                                        "defaultValue" : 1.00893326326855,
                                                        "interp" : "eioe"
                                                      }
                                                    },
                                                    "effects" : [

                                                    ],
                                                    "start" : 12,
                                                    "duration" : 7,
                                                    "mediaStart" : 0,
                                                    "mediaDuration" : 1,
                                                    "scalar" : 1,
                                                    "metadata" : {
                                                      "clipSpeedAttribute" : false
                                                    },
                                                    "animationTracks" : {

                                                    }
                                                  },
                                                  {
                                                    "id" : 1677,
                                                    "_type" : "IMFile",
                                                    "src" : 26,
                                                    "trackNumber" : 0,
                                                    "trimStartSum" : 0,
                                                    "attributes" : {
                                                      "ident" : "wave1"
                                                    },
                                                    "parameters" : {
                                                      "translation0" : {
                                                        "type" : "double",
                                                        "defaultValue" : -2.11950146613311,
                                                        "interp" : "eioe"
                                                      },
                                                      "translation1" : {
                                                        "type" : "double",
                                                        "defaultValue" : 8.96940103546206,
                                                        "interp" : "eioe"
                                                      },
                                                      "scale0" : {
                                                        "type" : "double",
                                                        "defaultValue" : 1.02884111169424,
                                                        "interp" : "eioe"
                                                      },
                                                      "scale1" : {
                                                        "type" : "double",
                                                        "defaultValue" : 1.02884111169424,
                                                        "interp" : "eioe"
                                                      }
                                                    },
                                                    "effects" : [

                                                    ],
                                                    "start" : 19,
                                                    "duration" : 6,
                                                    "mediaStart" : 0,
                                                    "mediaDuration" : 1,
                                                    "scalar" : 1,
                                                    "metadata" : {
                                                      "clipSpeedAttribute" : false
                                                    },
                                                    "animationTracks" : {

                                                    }
                                                  },
                                                  {
                                                    "id" : 1678,
                                                    "_type" : "IMFile",
                                                    "src" : 27,
                                                    "trackNumber" : 0,
                                                    "trimStartSum" : 0,
                                                    "attributes" : {
                                                      "ident" : "wave2"
                                                    },
                                                    "parameters" : {
                                                      "translation0" : {
                                                        "type" : "double",
                                                        "defaultValue" : 0.880498533167186,
                                                        "interp" : "eioe"
                                                      },
                                                      "translation1" : {
                                                        "type" : "double",
                                                        "defaultValue" : -88.087642172052,
                                                        "interp" : "eioe"
                                                      },
                                                      "scale0" : {
                                                        "type" : "double",
                                                        "defaultValue" : 1.03068101042332,
                                                        "interp" : "eioe"
                                                      },
                                                      "scale1" : {
                                                        "type" : "double",
                                                        "defaultValue" : 1.03068101042332,
                                                        "interp" : "eioe"
                                                      }
                                                    },
                                                    "effects" : [

                                                    ],
                                                    "start" : 25,
                                                    "duration" : 6,
                                                    "mediaStart" : 0,
                                                    "mediaDuration" : 1,
                                                    "scalar" : 1,
                                                    "metadata" : {
                                                      "clipSpeedAttribute" : false
                                                    },
                                                    "animationTracks" : {

                                                    }
                                                  },
                                                  {
                                                    "id" : 1679,
                                                    "_type" : "IMFile",
                                                    "src" : 28,
                                                    "trackNumber" : 0,
                                                    "trimStartSum" : 0,
                                                    "attributes" : {
                                                      "ident" : "wave3"
                                                    },
                                                    "parameters" : {
                                                      "translation0" : {
                                                        "type" : "double",
                                                        "defaultValue" : -1.11950146655987,
                                                        "interp" : "eioe"
                                                      },
                                                      "translation1" : {
                                                        "type" : "double",
                                                        "defaultValue" : 8.12143442823202,
                                                        "interp" : "eioe"
                                                      },
                                                      "scale0" : {
                                                        "type" : "double",
                                                        "defaultValue" : 1.00893326326855,
                                                        "interp" : "eioe"
                                                      },
                                                      "scale1" : {
                                                        "type" : "double",
                                                        "defaultValue" : 1.00893326326855,
                                                        "interp" : "eioe"
                                                      }
                                                    },
                                                    "effects" : [

                                                    ],
                                                    "start" : 31,
                                                    "duration" : 7,
                                                    "mediaStart" : 0,
                                                    "mediaDuration" : 1,
                                                    "scalar" : 1,
                                                    "metadata" : {
                                                      "clipSpeedAttribute" : false
                                                    },
                                                    "animationTracks" : {

                                                    }
                                                  },
                                                  {
                                                    "id" : 1680,
                                                    "_type" : "IMFile",
                                                    "src" : 26,
                                                    "trackNumber" : 0,
                                                    "trimStartSum" : 0,
                                                    "attributes" : {
                                                      "ident" : "wave1"
                                                    },
                                                    "parameters" : {
                                                      "translation0" : {
                                                        "type" : "double",
                                                        "defaultValue" : -2.11950146613311,
                                                        "interp" : "eioe"
                                                      },
                                                      "translation1" : {
                                                        "type" : "double",
                                                        "defaultValue" : 8.96940103546206,
                                                        "interp" : "eioe"
                                                      },
                                                      "scale0" : {
                                                        "type" : "double",
                                                        "defaultValue" : 1.02884111169424,
                                                        "interp" : "eioe"
                                                      },
                                                      "scale1" : {
                                                        "type" : "double",
                                                        "defaultValue" : 1.02884111169424,
                                                        "interp" : "eioe"
                                                      }
                                                    },
                                                    "effects" : [

                                                    ],
                                                    "start" : 38,
                                                    "duration" : 6,
                                                    "mediaStart" : 0,
                                                    "mediaDuration" : 1,
                                                    "scalar" : 1,
                                                    "metadata" : {
                                                      "clipSpeedAttribute" : false
                                                    },
                                                    "animationTracks" : {

                                                    }
                                                  },
                                                  {
                                                    "id" : 1681,
                                                    "_type" : "IMFile",
                                                    "src" : 27,
                                                    "trackNumber" : 0,
                                                    "trimStartSum" : 0,
                                                    "attributes" : {
                                                      "ident" : "wave2"
                                                    },
                                                    "parameters" : {
                                                      "translation0" : {
                                                        "type" : "double",
                                                        "defaultValue" : 0.880498533167186,
                                                        "interp" : "eioe"
                                                      },
                                                      "translation1" : {
                                                        "type" : "double",
                                                        "defaultValue" : -88.087642172052,
                                                        "interp" : "eioe"
                                                      },
                                                      "scale0" : {
                                                        "type" : "double",
                                                        "defaultValue" : 1.03068101042332,
                                                        "interp" : "eioe"
                                                      },
                                                      "scale1" : {
                                                        "type" : "double",
                                                        "defaultValue" : 1.03068101042332,
                                                        "interp" : "eioe"
                                                      }
                                                    },
                                                    "effects" : [

                                                    ],
                                                    "start" : 44,
                                                    "duration" : 6,
                                                    "mediaStart" : 0,
                                                    "mediaDuration" : 1,
                                                    "scalar" : 1,
                                                    "metadata" : {
                                                      "clipSpeedAttribute" : false
                                                    },
                                                    "animationTracks" : {

                                                    }
                                                  },
                                                  {
                                                    "id" : 1682,
                                                    "_type" : "IMFile",
                                                    "src" : 28,
                                                    "trackNumber" : 0,
                                                    "trimStartSum" : 0,
                                                    "attributes" : {
                                                      "ident" : "wave3"
                                                    },
                                                    "parameters" : {
                                                      "translation0" : {
                                                        "type" : "double",
                                                        "defaultValue" : -1.11950146655987,
                                                        "interp" : "eioe"
                                                      },
                                                      "translation1" : {
                                                        "type" : "double",
                                                        "defaultValue" : 8.12143442823202,
                                                        "interp" : "eioe"
                                                      },
                                                      "scale0" : {
                                                        "type" : "double",
                                                        "defaultValue" : 1.00893326326855,
                                                        "interp" : "eioe"
                                                      },
                                                      "scale1" : {
                                                        "type" : "double",
                                                        "defaultValue" : 1.00893326326855,
                                                        "interp" : "eioe"
                                                      }
                                                    },
                                                    "effects" : [

                                                    ],
                                                    "start" : 50,
                                                    "duration" : 7,
                                                    "mediaStart" : 0,
                                                    "mediaDuration" : 1,
                                                    "scalar" : 1,
                                                    "metadata" : {
                                                      "clipSpeedAttribute" : false
                                                    },
                                                    "animationTracks" : {

                                                    }
                                                  },
                                                  {
                                                    "id" : 1683,
                                                    "_type" : "IMFile",
                                                    "src" : 26,
                                                    "trackNumber" : 0,
                                                    "trimStartSum" : 0,
                                                    "attributes" : {
                                                      "ident" : "wave1"
                                                    },
                                                    "parameters" : {
                                                      "translation0" : {
                                                        "type" : "double",
                                                        "defaultValue" : -2.11950146613311,
                                                        "interp" : "eioe"
                                                      },
                                                      "translation1" : {
                                                        "type" : "double",
                                                        "defaultValue" : 8.96940103546206,
                                                        "interp" : "eioe"
                                                      },
                                                      "scale0" : {
                                                        "type" : "double",
                                                        "defaultValue" : 1.02884111169424,
                                                        "interp" : "eioe"
                                                      },
                                                      "scale1" : {
                                                        "type" : "double",
                                                        "defaultValue" : 1.02884111169424,
                                                        "interp" : "eioe"
                                                      }
                                                    },
                                                    "effects" : [

                                                    ],
                                                    "start" : 57,
                                                    "duration" : 6,
                                                    "mediaStart" : 0,
                                                    "mediaDuration" : 1,
                                                    "scalar" : 1,
                                                    "metadata" : {
                                                      "clipSpeedAttribute" : false
                                                    },
                                                    "animationTracks" : {

                                                    }
                                                  },
                                                  {
                                                    "id" : 1684,
                                                    "_type" : "IMFile",
                                                    "src" : 27,
                                                    "trackNumber" : 0,
                                                    "trimStartSum" : 0,
                                                    "attributes" : {
                                                      "ident" : "wave2"
                                                    },
                                                    "parameters" : {
                                                      "translation0" : {
                                                        "type" : "double",
                                                        "defaultValue" : 0.880498533167186,
                                                        "interp" : "eioe"
                                                      },
                                                      "translation1" : {
                                                        "type" : "double",
                                                        "defaultValue" : -88.087642172052,
                                                        "interp" : "eioe"
                                                      },
                                                      "scale0" : {
                                                        "type" : "double",
                                                        "defaultValue" : 1.03068101042332,
                                                        "interp" : "eioe"
                                                      },
                                                      "scale1" : {
                                                        "type" : "double",
                                                        "defaultValue" : 1.03068101042332,
                                                        "interp" : "eioe"
                                                      }
                                                    },
                                                    "effects" : [

                                                    ],
                                                    "start" : 63,
                                                    "duration" : 6,
                                                    "mediaStart" : 0,
                                                    "mediaDuration" : 1,
                                                    "scalar" : 1,
                                                    "metadata" : {
                                                      "clipSpeedAttribute" : false
                                                    },
                                                    "animationTracks" : {

                                                    }
                                                  },
                                                  {
                                                    "id" : 1685,
                                                    "_type" : "IMFile",
                                                    "src" : 28,
                                                    "trackNumber" : 0,
                                                    "trimStartSum" : 0,
                                                    "attributes" : {
                                                      "ident" : "wave3"
                                                    },
                                                    "parameters" : {
                                                      "translation0" : {
                                                        "type" : "double",
                                                        "defaultValue" : -1.11950146655987,
                                                        "interp" : "eioe"
                                                      },
                                                      "translation1" : {
                                                        "type" : "double",
                                                        "defaultValue" : 8.12143442823202,
                                                        "interp" : "eioe"
                                                      },
                                                      "scale0" : {
                                                        "type" : "double",
                                                        "defaultValue" : 1.00893326326855,
                                                        "interp" : "eioe"
                                                      },
                                                      "scale1" : {
                                                        "type" : "double",
                                                        "defaultValue" : 1.00893326326855,
                                                        "interp" : "eioe"
                                                      }
                                                    },
                                                    "effects" : [

                                                    ],
                                                    "start" : 69,
                                                    "duration" : 7,
                                                    "mediaStart" : 0,
                                                    "mediaDuration" : 1,
                                                    "scalar" : 1,
                                                    "metadata" : {
                                                      "clipSpeedAttribute" : false
                                                    },
                                                    "animationTracks" : {

                                                    }
                                                  },
                                                  {
                                                    "id" : 1686,
                                                    "_type" : "IMFile",
                                                    "src" : 26,
                                                    "trackNumber" : 0,
                                                    "trimStartSum" : 0,
                                                    "attributes" : {
                                                      "ident" : "wave1"
                                                    },
                                                    "parameters" : {
                                                      "translation0" : {
                                                        "type" : "double",
                                                        "defaultValue" : -2.11950146613311,
                                                        "interp" : "eioe"
                                                      },
                                                      "translation1" : {
                                                        "type" : "double",
                                                        "defaultValue" : 8.96940103546206,
                                                        "interp" : "eioe"
                                                      },
                                                      "scale0" : {
                                                        "type" : "double",
                                                        "defaultValue" : 1.02884111169424,
                                                        "interp" : "eioe"
                                                      },
                                                      "scale1" : {
                                                        "type" : "double",
                                                        "defaultValue" : 1.02884111169424,
                                                        "interp" : "eioe"
                                                      }
                                                    },
                                                    "effects" : [

                                                    ],
                                                    "start" : 76,
                                                    "duration" : 6,
                                                    "mediaStart" : 0,
                                                    "mediaDuration" : 1,
                                                    "scalar" : 1,
                                                    "metadata" : {
                                                      "clipSpeedAttribute" : false
                                                    },
                                                    "animationTracks" : {

                                                    }
                                                  },
                                                  {
                                                    "id" : 1687,
                                                    "_type" : "IMFile",
                                                    "src" : 27,
                                                    "trackNumber" : 0,
                                                    "trimStartSum" : 0,
                                                    "attributes" : {
                                                      "ident" : "wave2"
                                                    },
                                                    "parameters" : {
                                                      "translation0" : {
                                                        "type" : "double",
                                                        "defaultValue" : 0.880498533167186,
                                                        "interp" : "eioe"
                                                      },
                                                      "translation1" : {
                                                        "type" : "double",
                                                        "defaultValue" : -88.087642172052,
                                                        "interp" : "eioe"
                                                      },
                                                      "scale0" : {
                                                        "type" : "double",
                                                        "defaultValue" : 1.03068101042332,
                                                        "interp" : "eioe"
                                                      },
                                                      "scale1" : {
                                                        "type" : "double",
                                                        "defaultValue" : 1.03068101042332,
                                                        "interp" : "eioe"
                                                      }
                                                    },
                                                    "effects" : [

                                                    ],
                                                    "start" : 82,
                                                    "duration" : 6,
                                                    "mediaStart" : 0,
                                                    "mediaDuration" : 1,
                                                    "scalar" : 1,
                                                    "metadata" : {
                                                      "clipSpeedAttribute" : false
                                                    },
                                                    "animationTracks" : {

                                                    }
                                                  },
                                                  {
                                                    "id" : 1688,
                                                    "_type" : "IMFile",
                                                    "src" : 28,
                                                    "trackNumber" : 0,
                                                    "trimStartSum" : 0,
                                                    "attributes" : {
                                                      "ident" : "wave3"
                                                    },
                                                    "parameters" : {
                                                      "translation0" : {
                                                        "type" : "double",
                                                        "defaultValue" : -1.11950146655987,
                                                        "interp" : "eioe"
                                                      },
                                                      "translation1" : {
                                                        "type" : "double",
                                                        "defaultValue" : 8.12143442823202,
                                                        "interp" : "eioe"
                                                      },
                                                      "scale0" : {
                                                        "type" : "double",
                                                        "defaultValue" : 1.00893326326855,
                                                        "interp" : "eioe"
                                                      },
                                                      "scale1" : {
                                                        "type" : "double",
                                                        "defaultValue" : 1.00893326326855,
                                                        "interp" : "eioe"
                                                      }
                                                    },
                                                    "effects" : [

                                                    ],
                                                    "start" : 88,
                                                    "duration" : 7,
                                                    "mediaStart" : 0,
                                                    "mediaDuration" : 1,
                                                    "scalar" : 1,
                                                    "metadata" : {
                                                      "clipSpeedAttribute" : false
                                                    },
                                                    "animationTracks" : {

                                                    }
                                                  },
                                                  {
                                                    "id" : 1689,
                                                    "_type" : "IMFile",
                                                    "src" : 26,
                                                    "trackNumber" : 0,
                                                    "trimStartSum" : 0,
                                                    "attributes" : {
                                                      "ident" : "wave1"
                                                    },
                                                    "parameters" : {
                                                      "translation0" : {
                                                        "type" : "double",
                                                        "defaultValue" : -2.11950146613311,
                                                        "interp" : "eioe"
                                                      },
                                                      "translation1" : {
                                                        "type" : "double",
                                                        "defaultValue" : 8.96940103546206,
                                                        "interp" : "eioe"
                                                      },
                                                      "scale0" : {
                                                        "type" : "double",
                                                        "defaultValue" : 1.02884111169424,
                                                        "interp" : "eioe"
                                                      },
                                                      "scale1" : {
                                                        "type" : "double",
                                                        "defaultValue" : 1.02884111169424,
                                                        "interp" : "eioe"
                                                      }
                                                    },
                                                    "effects" : [

                                                    ],
                                                    "start" : 95,
                                                    "duration" : 6,
                                                    "mediaStart" : 0,
                                                    "mediaDuration" : 1,
                                                    "scalar" : 1,
                                                    "metadata" : {
                                                      "clipSpeedAttribute" : false
                                                    },
                                                    "animationTracks" : {

                                                    }
                                                  },
                                                  {
                                                    "id" : 1690,
                                                    "_type" : "IMFile",
                                                    "src" : 27,
                                                    "trackNumber" : 0,
                                                    "trimStartSum" : 0,
                                                    "attributes" : {
                                                      "ident" : "wave2"
                                                    },
                                                    "parameters" : {
                                                      "translation0" : {
                                                        "type" : "double",
                                                        "defaultValue" : 0.880498533167186,
                                                        "interp" : "eioe"
                                                      },
                                                      "translation1" : {
                                                        "type" : "double",
                                                        "defaultValue" : -88.087642172052,
                                                        "interp" : "eioe"
                                                      },
                                                      "scale0" : {
                                                        "type" : "double",
                                                        "defaultValue" : 1.03068101042332,
                                                        "interp" : "eioe"
                                                      },
                                                      "scale1" : {
                                                        "type" : "double",
                                                        "defaultValue" : 1.03068101042332,
                                                        "interp" : "eioe"
                                                      }
                                                    },
                                                    "effects" : [

                                                    ],
                                                    "start" : 101,
                                                    "duration" : 6,
                                                    "mediaStart" : 0,
                                                    "mediaDuration" : 1,
                                                    "scalar" : 1,
                                                    "metadata" : {
                                                      "clipSpeedAttribute" : false
                                                    },
                                                    "animationTracks" : {

                                                    }
                                                  },
                                                  {
                                                    "id" : 1691,
                                                    "_type" : "IMFile",
                                                    "src" : 28,
                                                    "trackNumber" : 0,
                                                    "trimStartSum" : 0,
                                                    "attributes" : {
                                                      "ident" : "wave3"
                                                    },
                                                    "parameters" : {
                                                      "translation0" : {
                                                        "type" : "double",
                                                        "defaultValue" : -1.11950146655987,
                                                        "interp" : "eioe"
                                                      },
                                                      "translation1" : {
                                                        "type" : "double",
                                                        "defaultValue" : 8.12143442823202,
                                                        "interp" : "eioe"
                                                      },
                                                      "scale0" : {
                                                        "type" : "double",
                                                        "defaultValue" : 1.00893326326855,
                                                        "interp" : "eioe"
                                                      },
                                                      "scale1" : {
                                                        "type" : "double",
                                                        "defaultValue" : 1.00893326326855,
                                                        "interp" : "eioe"
                                                      }
                                                    },
                                                    "effects" : [

                                                    ],
                                                    "start" : 107,
                                                    "duration" : 7,
                                                    "mediaStart" : 0,
                                                    "mediaDuration" : 1,
                                                    "scalar" : 1,
                                                    "metadata" : {
                                                      "clipSpeedAttribute" : false
                                                    },
                                                    "animationTracks" : {

                                                    }
                                                  },
                                                  {
                                                    "id" : 1692,
                                                    "_type" : "IMFile",
                                                    "src" : 26,
                                                    "trackNumber" : 0,
                                                    "trimStartSum" : 0,
                                                    "attributes" : {
                                                      "ident" : "wave1"
                                                    },
                                                    "parameters" : {
                                                      "translation0" : {
                                                        "type" : "double",
                                                        "defaultValue" : -2.11950146613311,
                                                        "interp" : "eioe"
                                                      },
                                                      "translation1" : {
                                                        "type" : "double",
                                                        "defaultValue" : 8.96940103546206,
                                                        "interp" : "eioe"
                                                      },
                                                      "scale0" : {
                                                        "type" : "double",
                                                        "defaultValue" : 1.02884111169424,
                                                        "interp" : "eioe"
                                                      },
                                                      "scale1" : {
                                                        "type" : "double",
                                                        "defaultValue" : 1.02884111169424,
                                                        "interp" : "eioe"
                                                      }
                                                    },
                                                    "effects" : [

                                                    ],
                                                    "start" : 114,
                                                    "duration" : 6,
                                                    "mediaStart" : 0,
                                                    "mediaDuration" : 1,
                                                    "scalar" : 1,
                                                    "metadata" : {
                                                      "clipSpeedAttribute" : false
                                                    },
                                                    "animationTracks" : {

                                                    }
                                                  },
                                                  {
                                                    "id" : 1693,
                                                    "_type" : "IMFile",
                                                    "src" : 27,
                                                    "trackNumber" : 0,
                                                    "trimStartSum" : 0,
                                                    "attributes" : {
                                                      "ident" : "wave2"
                                                    },
                                                    "parameters" : {
                                                      "translation0" : {
                                                        "type" : "double",
                                                        "defaultValue" : 0.880498533167186,
                                                        "interp" : "eioe"
                                                      },
                                                      "translation1" : {
                                                        "type" : "double",
                                                        "defaultValue" : -88.087642172052,
                                                        "interp" : "eioe"
                                                      },
                                                      "scale0" : {
                                                        "type" : "double",
                                                        "defaultValue" : 1.03068101042332,
                                                        "interp" : "eioe"
                                                      },
                                                      "scale1" : {
                                                        "type" : "double",
                                                        "defaultValue" : 1.03068101042332,
                                                        "interp" : "eioe"
                                                      }
                                                    },
                                                    "effects" : [

                                                    ],
                                                    "start" : 120,
                                                    "duration" : 6,
                                                    "mediaStart" : 0,
                                                    "mediaDuration" : 1,
                                                    "scalar" : 1,
                                                    "metadata" : {
                                                      "clipSpeedAttribute" : false
                                                    },
                                                    "animationTracks" : {

                                                    }
                                                  },
                                                  {
                                                    "id" : 1694,
                                                    "_type" : "IMFile",
                                                    "src" : 28,
                                                    "trackNumber" : 0,
                                                    "trimStartSum" : 0,
                                                    "attributes" : {
                                                      "ident" : "wave3"
                                                    },
                                                    "parameters" : {
                                                      "translation0" : {
                                                        "type" : "double",
                                                        "defaultValue" : -1.11950146655987,
                                                        "interp" : "eioe"
                                                      },
                                                      "translation1" : {
                                                        "type" : "double",
                                                        "defaultValue" : 8.12143442823202,
                                                        "interp" : "eioe"
                                                      },
                                                      "scale0" : {
                                                        "type" : "double",
                                                        "defaultValue" : 1.00893326326855,
                                                        "interp" : "eioe"
                                                      },
                                                      "scale1" : {
                                                        "type" : "double",
                                                        "defaultValue" : 1.00893326326855,
                                                        "interp" : "eioe"
                                                      }
                                                    },
                                                    "effects" : [

                                                    ],
                                                    "start" : 126,
                                                    "duration" : 7,
                                                    "mediaStart" : 0,
                                                    "mediaDuration" : 1,
                                                    "scalar" : 1,
                                                    "metadata" : {
                                                      "clipSpeedAttribute" : false
                                                    },
                                                    "animationTracks" : {

                                                    }
                                                  },
                                                  {
                                                    "id" : 1695,
                                                    "_type" : "IMFile",
                                                    "src" : 26,
                                                    "trackNumber" : 0,
                                                    "trimStartSum" : 0,
                                                    "attributes" : {
                                                      "ident" : "wave1"
                                                    },
                                                    "parameters" : {
                                                      "translation0" : {
                                                        "type" : "double",
                                                        "defaultValue" : -2.11950146613311,
                                                        "interp" : "eioe"
                                                      },
                                                      "translation1" : {
                                                        "type" : "double",
                                                        "defaultValue" : 8.96940103546206,
                                                        "interp" : "eioe"
                                                      },
                                                      "scale0" : {
                                                        "type" : "double",
                                                        "defaultValue" : 1.02884111169424,
                                                        "interp" : "eioe"
                                                      },
                                                      "scale1" : {
                                                        "type" : "double",
                                                        "defaultValue" : 1.02884111169424,
                                                        "interp" : "eioe"
                                                      }
                                                    },
                                                    "effects" : [

                                                    ],
                                                    "start" : 133,
                                                    "duration" : 6,
                                                    "mediaStart" : 0,
                                                    "mediaDuration" : 1,
                                                    "scalar" : 1,
                                                    "metadata" : {
                                                      "clipSpeedAttribute" : false
                                                    },
                                                    "animationTracks" : {

                                                    }
                                                  },
                                                  {
                                                    "id" : 1696,
                                                    "_type" : "IMFile",
                                                    "src" : 27,
                                                    "trackNumber" : 0,
                                                    "trimStartSum" : 0,
                                                    "attributes" : {
                                                      "ident" : "wave2"
                                                    },
                                                    "parameters" : {
                                                      "translation0" : {
                                                        "type" : "double",
                                                        "defaultValue" : 0.880498533167186,
                                                        "interp" : "eioe"
                                                      },
                                                      "translation1" : {
                                                        "type" : "double",
                                                        "defaultValue" : -88.087642172052,
                                                        "interp" : "eioe"
                                                      },
                                                      "scale0" : {
                                                        "type" : "double",
                                                        "defaultValue" : 1.03068101042332,
                                                        "interp" : "eioe"
                                                      },
                                                      "scale1" : {
                                                        "type" : "double",
                                                        "defaultValue" : 1.03068101042332,
                                                        "interp" : "eioe"
                                                      }
                                                    },
                                                    "effects" : [

                                                    ],
                                                    "start" : 139,
                                                    "duration" : 6,
                                                    "mediaStart" : 0,
                                                    "mediaDuration" : 1,
                                                    "scalar" : 1,
                                                    "metadata" : {
                                                      "clipSpeedAttribute" : false
                                                    },
                                                    "animationTracks" : {

                                                    }
                                                  },
                                                  {
                                                    "id" : 1697,
                                                    "_type" : "IMFile",
                                                    "src" : 28,
                                                    "trackNumber" : 0,
                                                    "trimStartSum" : 0,
                                                    "attributes" : {
                                                      "ident" : "wave3"
                                                    },
                                                    "parameters" : {
                                                      "translation0" : {
                                                        "type" : "double",
                                                        "defaultValue" : -1.11950146655987,
                                                        "interp" : "eioe"
                                                      },
                                                      "translation1" : {
                                                        "type" : "double",
                                                        "defaultValue" : 8.12143442823202,
                                                        "interp" : "eioe"
                                                      },
                                                      "scale0" : {
                                                        "type" : "double",
                                                        "defaultValue" : 1.00893326326855,
                                                        "interp" : "eioe"
                                                      },
                                                      "scale1" : {
                                                        "type" : "double",
                                                        "defaultValue" : 1.00893326326855,
                                                        "interp" : "eioe"
                                                      }
                                                    },
                                                    "effects" : [

                                                    ],
                                                    "start" : 145,
                                                    "duration" : 7,
                                                    "mediaStart" : 0,
                                                    "mediaDuration" : 1,
                                                    "scalar" : 1,
                                                    "metadata" : {
                                                      "clipSpeedAttribute" : false
                                                    },
                                                    "animationTracks" : {

                                                    }
                                                  },
                                                  {
                                                    "id" : 1698,
                                                    "_type" : "IMFile",
                                                    "src" : 26,
                                                    "trackNumber" : 0,
                                                    "trimStartSum" : 0,
                                                    "attributes" : {
                                                      "ident" : "wave1"
                                                    },
                                                    "parameters" : {
                                                      "translation0" : {
                                                        "type" : "double",
                                                        "defaultValue" : -2.11950146613311,
                                                        "interp" : "eioe"
                                                      },
                                                      "translation1" : {
                                                        "type" : "double",
                                                        "defaultValue" : 8.96940103546206,
                                                        "interp" : "eioe"
                                                      },
                                                      "scale0" : {
                                                        "type" : "double",
                                                        "defaultValue" : 1.02884111169424,
                                                        "interp" : "eioe"
                                                      },
                                                      "scale1" : {
                                                        "type" : "double",
                                                        "defaultValue" : 1.02884111169424,
                                                        "interp" : "eioe"
                                                      }
                                                    },
                                                    "effects" : [

                                                    ],
                                                    "start" : 152,
                                                    "duration" : 6,
                                                    "mediaStart" : 0,
                                                    "mediaDuration" : 1,
                                                    "scalar" : 1,
                                                    "metadata" : {
                                                      "clipSpeedAttribute" : false
                                                    },
                                                    "animationTracks" : {

                                                    }
                                                  },
                                                  {
                                                    "id" : 1699,
                                                    "_type" : "IMFile",
                                                    "src" : 27,
                                                    "trackNumber" : 0,
                                                    "trimStartSum" : 0,
                                                    "attributes" : {
                                                      "ident" : "wave2"
                                                    },
                                                    "parameters" : {
                                                      "translation0" : {
                                                        "type" : "double",
                                                        "defaultValue" : 0.880498533167186,
                                                        "interp" : "eioe"
                                                      },
                                                      "translation1" : {
                                                        "type" : "double",
                                                        "defaultValue" : -88.087642172052,
                                                        "interp" : "eioe"
                                                      },
                                                      "scale0" : {
                                                        "type" : "double",
                                                        "defaultValue" : 1.03068101042332,
                                                        "interp" : "eioe"
                                                      },
                                                      "scale1" : {
                                                        "type" : "double",
                                                        "defaultValue" : 1.03068101042332,
                                                        "interp" : "eioe"
                                                      }
                                                    },
                                                    "effects" : [

                                                    ],
                                                    "start" : 158,
                                                    "duration" : 6,
                                                    "mediaStart" : 0,
                                                    "mediaDuration" : 1,
                                                    "scalar" : 1,
                                                    "metadata" : {
                                                      "clipSpeedAttribute" : false
                                                    },
                                                    "animationTracks" : {

                                                    }
                                                  },
                                                  {
                                                    "id" : 1700,
                                                    "_type" : "IMFile",
                                                    "src" : 28,
                                                    "trackNumber" : 0,
                                                    "trimStartSum" : 0,
                                                    "attributes" : {
                                                      "ident" : "wave3"
                                                    },
                                                    "parameters" : {
                                                      "translation0" : {
                                                        "type" : "double",
                                                        "defaultValue" : -1.11950146655987,
                                                        "interp" : "eioe"
                                                      },
                                                      "translation1" : {
                                                        "type" : "double",
                                                        "defaultValue" : 8.12143442823202,
                                                        "interp" : "eioe"
                                                      },
                                                      "scale0" : {
                                                        "type" : "double",
                                                        "defaultValue" : 1.00893326326855,
                                                        "interp" : "eioe"
                                                      },
                                                      "scale1" : {
                                                        "type" : "double",
                                                        "defaultValue" : 1.00893326326855,
                                                        "interp" : "eioe"
                                                      }
                                                    },
                                                    "effects" : [

                                                    ],
                                                    "start" : 164,
                                                    "duration" : 7,
                                                    "mediaStart" : 0,
                                                    "mediaDuration" : 1,
                                                    "scalar" : 1,
                                                    "metadata" : {
                                                      "clipSpeedAttribute" : false
                                                    },
                                                    "animationTracks" : {

                                                    }
                                                  },
                                                  {
                                                    "id" : 1701,
                                                    "_type" : "IMFile",
                                                    "src" : 26,
                                                    "trackNumber" : 0,
                                                    "trimStartSum" : 0,
                                                    "attributes" : {
                                                      "ident" : "wave1"
                                                    },
                                                    "parameters" : {
                                                      "translation0" : {
                                                        "type" : "double",
                                                        "defaultValue" : -2.11950146613311,
                                                        "interp" : "eioe"
                                                      },
                                                      "translation1" : {
                                                        "type" : "double",
                                                        "defaultValue" : 8.96940103546206,
                                                        "interp" : "eioe"
                                                      },
                                                      "scale0" : {
                                                        "type" : "double",
                                                        "defaultValue" : 1.02884111169424,
                                                        "interp" : "eioe"
                                                      },
                                                      "scale1" : {
                                                        "type" : "double",
                                                        "defaultValue" : 1.02884111169424,
                                                        "interp" : "eioe"
                                                      }
                                                    },
                                                    "effects" : [

                                                    ],
                                                    "start" : 171,
                                                    "duration" : 6,
                                                    "mediaStart" : 0,
                                                    "mediaDuration" : 1,
                                                    "scalar" : 1,
                                                    "metadata" : {
                                                      "clipSpeedAttribute" : false
                                                    },
                                                    "animationTracks" : {

                                                    }
                                                  },
                                                  {
                                                    "id" : 1702,
                                                    "_type" : "IMFile",
                                                    "src" : 27,
                                                    "trackNumber" : 0,
                                                    "trimStartSum" : 0,
                                                    "attributes" : {
                                                      "ident" : "wave2"
                                                    },
                                                    "parameters" : {
                                                      "translation0" : {
                                                        "type" : "double",
                                                        "defaultValue" : 0.880498533167186,
                                                        "interp" : "eioe"
                                                      },
                                                      "translation1" : {
                                                        "type" : "double",
                                                        "defaultValue" : -88.087642172052,
                                                        "interp" : "eioe"
                                                      },
                                                      "scale0" : {
                                                        "type" : "double",
                                                        "defaultValue" : 1.03068101042332,
                                                        "interp" : "eioe"
                                                      },
                                                      "scale1" : {
                                                        "type" : "double",
                                                        "defaultValue" : 1.03068101042332,
                                                        "interp" : "eioe"
                                                      }
                                                    },
                                                    "effects" : [

                                                    ],
                                                    "start" : 177,
                                                    "duration" : 6,
                                                    "mediaStart" : 0,
                                                    "mediaDuration" : 1,
                                                    "scalar" : 1,
                                                    "metadata" : {
                                                      "clipSpeedAttribute" : false
                                                    },
                                                    "animationTracks" : {

                                                    }
                                                  },
                                                  {
                                                    "id" : 1703,
                                                    "_type" : "IMFile",
                                                    "src" : 28,
                                                    "trackNumber" : 0,
                                                    "trimStartSum" : 0,
                                                    "attributes" : {
                                                      "ident" : "wave3"
                                                    },
                                                    "parameters" : {
                                                      "translation0" : {
                                                        "type" : "double",
                                                        "defaultValue" : -1.11950146655987,
                                                        "interp" : "eioe"
                                                      },
                                                      "translation1" : {
                                                        "type" : "double",
                                                        "defaultValue" : 8.12143442823202,
                                                        "interp" : "eioe"
                                                      },
                                                      "scale0" : {
                                                        "type" : "double",
                                                        "defaultValue" : 1.00893326326855,
                                                        "interp" : "eioe"
                                                      },
                                                      "scale1" : {
                                                        "type" : "double",
                                                        "defaultValue" : 1.00893326326855,
                                                        "interp" : "eioe"
                                                      }
                                                    },
                                                    "effects" : [

                                                    ],
                                                    "start" : 183,
                                                    "duration" : 7,
                                                    "mediaStart" : 0,
                                                    "mediaDuration" : 1,
                                                    "scalar" : 1,
                                                    "metadata" : {
                                                      "clipSpeedAttribute" : false
                                                    },
                                                    "animationTracks" : {

                                                    }
                                                  },
                                                  {
                                                    "id" : 1704,
                                                    "_type" : "IMFile",
                                                    "src" : 26,
                                                    "trackNumber" : 0,
                                                    "trimStartSum" : 0,
                                                    "attributes" : {
                                                      "ident" : "wave1"
                                                    },
                                                    "parameters" : {
                                                      "translation0" : {
                                                        "type" : "double",
                                                        "defaultValue" : -2.11950146613311,
                                                        "interp" : "eioe"
                                                      },
                                                      "translation1" : {
                                                        "type" : "double",
                                                        "defaultValue" : 8.96940103546206,
                                                        "interp" : "eioe"
                                                      },
                                                      "scale0" : {
                                                        "type" : "double",
                                                        "defaultValue" : 1.02884111169424,
                                                        "interp" : "eioe"
                                                      },
                                                      "scale1" : {
                                                        "type" : "double",
                                                        "defaultValue" : 1.02884111169424,
                                                        "interp" : "eioe"
                                                      }
                                                    },
                                                    "effects" : [

                                                    ],
                                                    "start" : 190,
                                                    "duration" : 6,
                                                    "mediaStart" : 0,
                                                    "mediaDuration" : 1,
                                                    "scalar" : 1,
                                                    "metadata" : {
                                                      "clipSpeedAttribute" : false
                                                    },
                                                    "animationTracks" : {

                                                    }
                                                  },
                                                  {
                                                    "id" : 1705,
                                                    "_type" : "IMFile",
                                                    "src" : 27,
                                                    "trackNumber" : 0,
                                                    "trimStartSum" : 0,
                                                    "attributes" : {
                                                      "ident" : "wave2"
                                                    },
                                                    "parameters" : {
                                                      "translation0" : {
                                                        "type" : "double",
                                                        "defaultValue" : 0.880498533167186,
                                                        "interp" : "eioe"
                                                      },
                                                      "translation1" : {
                                                        "type" : "double",
                                                        "defaultValue" : -88.087642172052,
                                                        "interp" : "eioe"
                                                      },
                                                      "scale0" : {
                                                        "type" : "double",
                                                        "defaultValue" : 1.03068101042332,
                                                        "interp" : "eioe"
                                                      },
                                                      "scale1" : {
                                                        "type" : "double",
                                                        "defaultValue" : 1.03068101042332,
                                                        "interp" : "eioe"
                                                      }
                                                    },
                                                    "effects" : [

                                                    ],
                                                    "start" : 196,
                                                    "duration" : 4,
                                                    "mediaStart" : 0,
                                                    "mediaDuration" : 1,
                                                    "scalar" : 1,
                                                    "metadata" : {
                                                      "clipSpeedAttribute" : false
                                                    },
                                                    "animationTracks" : {

                                                    }
                                                  }
                                                ],
                                                  "ident" : "",
                                                  "audioMuted" : false,
                                                  "videoHidden" : false,
                                                  "magnetic" : false,
                                                  "matte" : 0,
                                                  "metadata" : {
                                                    "IsLocked" : "False",
                                                    "WinTrackHeight" : "0"
                                                  }
                                              },
                                              {
                                                "trackIndex" : 1,
                                                "medias" : [
                                                  {
                                                    "id" : 1706,
                                                    "_type" : "IMFile",
                                                    "src" : 29,
                                                    "trackNumber" : 0,
                                                    "trimStartSum" : 0,
                                                    "attributes" : {
                                                      "ident" : "control-plane-128"
                                                    },
                                                    "parameters" : {
                                                      "translation0" : {
                                                        "type" : "double",
                                                        "defaultValue" : -785.119501466663,
                                                        "interp" : "eioe"
                                                      },
                                                      "translation1" : {
                                                        "type" : "double",
                                                        "defaultValue" : 199.818754449228,
                                                        "interp" : "eioe"
                                                      }
                                                    },
                                                    "effects" : [

                                                    ],
                                                    "start" : 0,
                                                    "duration" : 19,
                                                    "mediaStart" : 0,
                                                    "mediaDuration" : 1,
                                                    "scalar" : 1,
                                                    "metadata" : {
                                                      "clipSpeedAttribute" : false
                                                    },
                                                    "animationTracks" : {

                                                    }
                                                  },
                                                  {
                                                    "id" : 1707,
                                                    "_type" : "IMFile",
                                                    "src" : 30,
                                                    "trackNumber" : 0,
                                                    "trimStartSum" : 0,
                                                    "attributes" : {
                                                      "ident" : "etcd-128"
                                                    },
                                                    "parameters" : {
                                                      "translation0" : {
                                                        "type" : "double",
                                                        "defaultValue" : -655.119501466745,
                                                        "interp" : "eioe"
                                                      },
                                                      "translation1" : {
                                                        "type" : "double",
                                                        "defaultValue" : 120.373795393553,
                                                        "interp" : "eioe"
                                                      }
                                                    },
                                                    "effects" : [

                                                    ],
                                                    "start" : 19,
                                                    "duration" : 22,
                                                    "mediaStart" : 0,
                                                    "mediaDuration" : 1,
                                                    "scalar" : 1,
                                                    "metadata" : {
                                                      "clipSpeedAttribute" : false
                                                    },
                                                    "animationTracks" : {

                                                    }
                                                  },
                                                  {
                                                    "id" : 1708,
                                                    "_type" : "IMFile",
                                                    "src" : 31,
                                                    "trackNumber" : 0,
                                                    "trimStartSum" : 0,
                                                    "attributes" : {
                                                      "ident" : "node-128"
                                                    },
                                                    "parameters" : {
                                                      "translation0" : {
                                                        "type" : "double",
                                                        "defaultValue" : -315.119501466444,
                                                        "interp" : "eioe"
                                                      },
                                                      "translation1" : {
                                                        "type" : "double",
                                                        "defaultValue" : 135.818754449343,
                                                        "interp" : "eioe"
                                                      }
                                                    },
                                                    "effects" : [

                                                    ],
                                                    "start" : 41,
                                                    "duration" : 18,
                                                    "mediaStart" : 0,
                                                    "mediaDuration" : 1,
                                                    "scalar" : 1,
                                                    "metadata" : {
                                                      "clipSpeedAttribute" : false
                                                    },
                                                    "animationTracks" : {

                                                    }
                                                  },
                                                  {
                                                    "id" : 1709,
                                                    "_type" : "IMFile",
                                                    "src" : 32,
                                                    "trackNumber" : 0,
                                                    "trimStartSum" : 0,
                                                    "attributes" : {
                                                      "ident" : "ns-128"
                                                    },
                                                    "parameters" : {
                                                      "translation0" : {
                                                        "type" : "double",
                                                        "defaultValue" : -345.11950146672,
                                                        "interp" : "eioe"
                                                      },
                                                      "translation1" : {
                                                        "type" : "double",
                                                        "defaultValue" : 158.121434428201,
                                                        "interp" : "eioe"
                                                      }
                                                    },
                                                    "effects" : [

                                                    ],
                                                    "start" : 59,
                                                    "duration" : 23,
                                                    "mediaStart" : 0,
                                                    "mediaDuration" : 1,
                                                    "scalar" : 1,
                                                    "metadata" : {
                                                      "clipSpeedAttribute" : false
                                                    },
                                                    "animationTracks" : {

                                                    }
                                                  },
                                                  {
                                                    "id" : 1710,
                                                    "_type" : "IMFile",
                                                    "src" : 33,
                                                    "trackNumber" : 0,
                                                    "trimStartSum" : 0,
                                                    "attributes" : {
                                                      "ident" : "pod-128"
                                                    },
                                                    "parameters" : {
                                                      "translation0" : {
                                                        "type" : "double",
                                                        "defaultValue" : -91.1195014666742,
                                                        "interp" : "eioe"
                                                      },
                                                      "translation1" : {
                                                        "type" : "double",
                                                        "defaultValue" : 100.121434428219,
                                                        "interp" : "eioe"
                                                      }
                                                    },
                                                    "effects" : [

                                                    ],
                                                    "start" : 82,
                                                    "duration" : 16,
                                                    "mediaStart" : 0,
                                                    "mediaDuration" : 1,
                                                    "scalar" : 1,
                                                    "metadata" : {
                                                      "clipSpeedAttribute" : false
                                                    },
                                                    "animationTracks" : {

                                                    }
                                                  },
                                                  {
                                                    "id" : 1711,
                                                    "_type" : "IMFile",
                                                    "src" : 34,
                                                    "trackNumber" : 0,
                                                    "trimStartSum" : 0,
                                                    "attributes" : {
                                                      "ident" : "secret-128"
                                                    },
                                                    "parameters" : {
                                                      "translation0" : {
                                                        "type" : "double",
                                                        "defaultValue" : -1.11950146666447,
                                                        "interp" : "eioe"
                                                      },
                                                      "translation1" : {
                                                        "type" : "double",
                                                        "defaultValue" : 140.121434428194,
                                                        "interp" : "eioe"
                                                      }
                                                    },
                                                    "effects" : [

                                                    ],
                                                    "start" : 98,
                                                    "duration" : 17,
                                                    "mediaStart" : 0,
                                                    "mediaDuration" : 1,
                                                    "scalar" : 1,
                                                    "metadata" : {
                                                      "clipSpeedAttribute" : false
                                                    },
                                                    "animationTracks" : {

                                                    }
                                                  },
                                                  {
                                                    "id" : 1712,
                                                    "_type" : "IMFile",
                                                    "src" : 35,
                                                    "trackNumber" : 0,
                                                    "trimStartSum" : 0,
                                                    "attributes" : {
                                                      "ident" : "svc-128"
                                                    },
                                                    "parameters" : {
                                                      "translation0" : {
                                                        "type" : "double",
                                                        "defaultValue" : 258.880498533338,
                                                        "interp" : "eioe"
                                                      },
                                                      "translation1" : {
                                                        "type" : "double",
                                                        "defaultValue" : 112.121434428216,
                                                        "interp" : "eioe"
                                                      }
                                                    },
                                                    "effects" : [

                                                    ],
                                                    "start" : 115,
                                                    "duration" : 14,
                                                    "mediaStart" : 0,
                                                    "mediaDuration" : 1,
                                                    "scalar" : 1,
                                                    "metadata" : {
                                                      "clipSpeedAttribute" : false
                                                    },
                                                    "animationTracks" : {

                                                    }
                                                  },
                                                  {
                                                    "id" : 1713,
                                                    "_type" : "IMFile",
                                                    "src" : 35,
                                                    "trackNumber" : 0,
                                                    "trimStartSum" : 0,
                                                    "attributes" : {
                                                      "ident" : "svc-128"
                                                    },
                                                    "parameters" : {
                                                      "translation0" : {
                                                        "type" : "double",
                                                        "defaultValue" : 346.880498533407,
                                                        "interp" : "eioe"
                                                      },
                                                      "translation1" : {
                                                        "type" : "double",
                                                        "defaultValue" : 120.121434428205,
                                                        "interp" : "eioe"
                                                      }
                                                    },
                                                    "effects" : [

                                                    ],
                                                    "start" : 129,
                                                    "duration" : 14,
                                                    "mediaStart" : 0,
                                                    "mediaDuration" : 1,
                                                    "scalar" : 1,
                                                    "metadata" : {
                                                      "clipSpeedAttribute" : false
                                                    },
                                                    "animationTracks" : {

                                                    }
                                                  },
                                                  {
                                                    "id" : 1714,
                                                    "_type" : "IMFile",
                                                    "src" : 36,
                                                    "trackNumber" : 0,
                                                    "trimStartSum" : 0,
                                                    "attributes" : {
                                                      "ident" : "rs-128"
                                                    },
                                                    "parameters" : {
                                                      "translation0" : {
                                                        "type" : "double",
                                                        "defaultValue" : 480.880498533387,
                                                        "interp" : "eioe"
                                                      },
                                                      "translation1" : {
                                                        "type" : "double",
                                                        "defaultValue" : 158.1214344282,
                                                        "interp" : "eioe"
                                                      }
                                                    },
                                                    "effects" : [

                                                    ],
                                                    "start" : 143,
                                                    "duration" : 13,
                                                    "mediaStart" : 0,
                                                    "mediaDuration" : 1,
                                                    "scalar" : 1,
                                                    "metadata" : {
                                                      "clipSpeedAttribute" : false
                                                    },
                                                    "animationTracks" : {

                                                    }
                                                  },
                                                  {
                                                    "id" : 1715,
                                                    "_type" : "IMFile",
                                                    "src" : 37,
                                                    "trackNumber" : 0,
                                                    "trimStartSum" : 0,
                                                    "attributes" : {
                                                      "ident" : "vol-128"
                                                    },
                                                    "parameters" : {
                                                      "translation0" : {
                                                        "type" : "double",
                                                        "defaultValue" : 560.880498533409,
                                                        "interp" : "eioe"
                                                      },
                                                      "translation1" : {
                                                        "type" : "double",
                                                        "defaultValue" : 136.121434428193,
                                                        "interp" : "eioe"
                                                      }
                                                    },
                                                    "effects" : [

                                                    ],
                                                    "start" : 156,
                                                    "duration" : 14,
                                                    "mediaStart" : 0,
                                                    "mediaDuration" : 1,
                                                    "scalar" : 1,
                                                    "metadata" : {
                                                      "clipSpeedAttribute" : false
                                                    },
                                                    "animationTracks" : {

                                                    }
                                                  },
                                                  {
                                                    "id" : 1716,
                                                    "_type" : "IMFile",
                                                    "src" : 38,
                                                    "trackNumber" : 0,
                                                    "trimStartSum" : 0,
                                                    "attributes" : {
                                                      "ident" : "deploy-128"
                                                    },
                                                    "parameters" : {
                                                      "translation0" : {
                                                        "type" : "double",
                                                        "defaultValue" : 716.880498533367,
                                                        "interp" : "eioe"
                                                      },
                                                      "translation1" : {
                                                        "type" : "double",
                                                        "defaultValue" : 84.1214344281821,
                                                        "interp" : "eioe"
                                                      }
                                                    },
                                                    "effects" : [

                                                    ],
                                                    "start" : 170,
                                                    "duration" : 13,
                                                    "mediaStart" : 0,
                                                    "mediaDuration" : 1,
                                                    "scalar" : 1,
                                                    "metadata" : {
                                                      "clipSpeedAttribute" : false
                                                    },
                                                    "animationTracks" : {

                                                    }
                                                  },
                                                  {
                                                    "id" : 1717,
                                                    "_type" : "IMFile",
                                                    "src" : 39,
                                                    "trackNumber" : 0,
                                                    "trimStartSum" : 0,
                                                    "attributes" : {
                                                      "ident" : "cronjob-128"
                                                    },
                                                    "parameters" : {
                                                      "translation0" : {
                                                        "type" : "double",
                                                        "defaultValue" : 870.880498533812,
                                                        "interp" : "eioe"
                                                      },
                                                      "translation1" : {
                                                        "type" : "double",
                                                        "defaultValue" : 135.81875444932,
                                                        "interp" : "eioe"
                                                      }
                                                    },
                                                    "effects" : [

                                                    ],
                                                    "start" : 183,
                                                    "duration" : 17,
                                                    "mediaStart" : 0,
                                                    "mediaDuration" : 1,
                                                    "scalar" : 1,
                                                    "metadata" : {
                                                      "clipSpeedAttribute" : false
                                                    },
                                                    "animationTracks" : {

                                                    }
                                                  }
                                                ],
                                                  "ident" : "",
                                                  "audioMuted" : false,
                                                  "videoHidden" : false,
                                                  "magnetic" : false,
                                                  "matte" : 0,
                                                  "metadata" : {
                                                    "IsLocked" : "False",
                                                    "WinTrackHeight" : "3.6077993365582e-314"
                                                  }
                                              }
                                            ],
                                            "attributes" : {
                                              "ident" : "Group 1",
                                              "gain" : 1.0,
                                              "mixToMono" : false
                                            },
                                            "effects" : [

                                            ],
                                            "start" : 0,
                                            "duration" : 200,
                                            "mediaStart" : 0.0,
                                            "mediaDuration" : 200.0,
                                            "scalar" : 1,
                                            "metadata" : {
                                              "IsGroupExpanded" : "False"
                                            },
                                            "animationTracks" : {

                                            }
                                          }
                                        ],
                                          "ident" : "",
                                          "audioMuted" : false,
                                          "videoHidden" : false,
                                          "magnetic" : false,
                                          "matte" : 0,
                                          "metadata" : {
                                            "IsLocked" : "False",
                                            "WinTrackHeight" : "0"
                                          }
                                      },
                                      {
                                        "trackIndex" : 1,
                                        "medias" : [
                                          {
                                            "id" : 1718,
                                            "_type" : "IMFile",
                                            "src" : 40,
                                            "trackNumber" : 0,
                                            "trimStartSum" : 0,
                                            "attributes" : {
                                              "ident" : "k8sfavicon"
                                            },
                                            "parameters" : {
                                              "translation0" : {
                                                "type" : "double",
                                                "defaultValue" : -822.559750733209,
                                                "interp" : "eioe"
                                              },
                                              "translation1" : {
                                                "type" : "double",
                                                "defaultValue" : 466.970094438544,
                                                "interp" : "eioe"
                                              },
                                              "scale0" : {
                                                "type" : "double",
                                                "defaultValue" : 0.335937500000757,
                                                "interp" : "eioe"
                                              },
                                              "scale1" : {
                                                "type" : "double",
                                                "defaultValue" : 0.335937500000757,
                                                "interp" : "eioe"
                                              }
                                            },
                                            "effects" : [

                                            ],
                                            "start" : 0,
                                            "duration" : 200,
                                            "mediaStart" : 0,
                                            "mediaDuration" : 1,
                                            "scalar" : 1,
                                            "metadata" : {
                                              "clipSpeedAttribute" : false
                                            },
                                            "animationTracks" : {

                                            }
                                          }
                                        ],
                                          "ident" : "",
                                          "audioMuted" : false,
                                          "videoHidden" : false,
                                          "magnetic" : false,
                                          "matte" : 0,
                                          "metadata" : {
                                            "IsLocked" : "False",
                                            "WinTrackHeight" : "3.6077993365582e-314"
                                          }
                                      }
                                    ],
                                    "attributes" : {
                                      "ident" : "Group 2",
                                      "gain" : 1.0,
                                      "mixToMono" : false
                                    },
                                    "effects" : [

                                    ],
                                    "start" : 0,
                                    "duration" : 200,
                                    "mediaStart" : 0.0,
                                    "mediaDuration" : 200.0,
                                    "scalar" : 1,
                                    "metadata" : {
                                      "IsGroupExpanded" : "False"
                                    },
                                    "animationTracks" : {

                                    }
                                  }
                                ],
                                  "ident" : "",
                                  "audioMuted" : false,
                                  "videoHidden" : false,
                                  "magnetic" : false,
                                  "matte" : 0,
                                  "metadata" : {
                                    "IsLocked" : "False",
                                    "WinTrackHeight" : "0"
                                  }
                              },
                              {
                                "trackIndex" : 1,
                                "medias" : [
                                  {
                                    "id" : 1719,
                                    "_type" : "AMFile",
                                    "src" : 41,
                                    "trackNumber" : 0,
                                    "attributes" : {
                                      "ident" : "wave",
                                      "gain" : 1.0,
                                      "mixToMono" : false
                                    },
                                      "channelNumber" : "0,1",
                                    "parameters" : {
                                      "volume" : {
                                        "type" : "double",
                                        "keyframes" : [
                                          {
                                            "endTime" : -1,
                                            "time" : -1,
                                            "value" : 1.0,
                                            "duration" : 0
                                          },
                                          {
                                            "endTime" : 0,
                                            "time" : 0,
                                            "value" : 0.0,
                                            "duration" : 0
                                          },
                                          {
                                            "endTime" : 82,
                                            "time" : 82,
                                            "value" : 0.384615384615384,
                                            "duration" : 0
                                          }
                                        ]
                                      }
                                    },
                                    "effects" : [

                                    ],
                                    "start" : 0,
                                    "duration" : 103,
                                    "mediaStart" : 0,
                                    "mediaDuration" : 103,
                                    "scalar" : 1,
                                    "metadata" : {
                                      "clipSpeedAttribute" : false
                                    },
                                    "animationTracks" : {

                                    }
                                  },
                                  {
                                    "id" : 1720,
                                    "_type" : "AMFile",
                                    "src" : 41,
                                    "trackNumber" : 0,
                                    "attributes" : {
                                      "ident" : "wave",
                                      "gain" : 1.0,
                                      "mixToMono" : false
                                    },
                                      "channelNumber" : "0,1",
                                    "parameters" : {
                                      "volume" : {
                                        "type" : "double",
                                        "keyframes" : [
                                          {
                                            "endTime" : 0,
                                            "time" : 0,
                                            "value" : 0.770507364975449,
                                            "duration" : 0
                                          },
                                          {
                                            "endTime" : 134,
                                            "time" : 134,
                                            "value" : 0.232045826513911,
                                            "duration" : 0
                                          },
                                          {
                                            "endTime" : 200,
                                            "time" : 200,
                                            "value" : 0.0,
                                            "duration" : 0
                                          },
                                          {
                                            "endTime" : 201,
                                            "time" : 201,
                                            "value" : 1.0,
                                            "duration" : 0
                                          }
                                        ]
                                      }
                                    },
                                    "effects" : [

                                    ],
                                    "start" : 103,
                                    "duration" : 97,
                                    "mediaStart" : 103,
                                    "mediaDuration" : 97,
                                    "scalar" : 1,
                                    "metadata" : {
                                      "clipSpeedAttribute" : false
                                    },
                                    "animationTracks" : {

                                    }
                                  }
                                ],
                                  "ident" : "",
                                  "audioMuted" : false,
                                  "videoHidden" : false,
                                  "magnetic" : false,
                                  "matte" : 0,
                                  "metadata" : {
                                    "IsLocked" : "False",
                                    "WinTrackHeight" : "2.26715762571713e-312"
                                  }
                              }
                            ],
                            "attributes" : {
                              "ident" : "Group 1",
                              "gain" : 1.0,
                              "mixToMono" : false
                            },
                            "effects" : [

                            ],
                            "start" : 0,
                            "duration" : 200,
                            "mediaStart" : 0.0,
                            "mediaDuration" : 200.0,
                            "scalar" : 1,
                            "metadata" : {
                              "IsGroupExpanded" : "False"
                            },
                            "animationTracks" : {

                            }
                          }
                        ],
                          "ident" : "",
                          "audioMuted" : false,
                          "videoHidden" : false,
                          "magnetic" : false,
                          "matte" : 0,
                          "metadata" : {
                            "IsLocked" : "False",
                            "WinTrackHeight" : "4.48620775918606e-312"
                          }
                      }
                    ],
                    "attributes" : {
                      "ident" : "end",
                      "gain" : 1.0,
                      "mixToMono" : false
                    },
                    "effects" : [

                    ],
                    "start" : 13267,
                    "duration" : 200,
                    "mediaStart" : 0.0,
                    "mediaDuration" : 200.0,
                    "scalar" : 1,
                    "metadata" : {
                      "IsGroupExpanded" : "False"
                    },
                    "animationTracks" : {

                    }
                  }
                ]
              },
              {
                "trackIndex" : 2,
                "medias" : [
                ]
              },
              {
                "trackIndex" : 3,
                "medias" : [
                ]
              },
              {
                "trackIndex" : 4,
                "medias" : [
                ]
              }
            ]
          }
        }
      ]
    },
    "trackAttributes" : [
      {
        "ident" : "",
        "audioMuted" : false,
        "videoHidden" : false,
        "magnetic" : false,
        "matte" : 0,
        "metadata" : {
          "IsLocked" : "False",
          "WinTrackHeight" : "56"
        }
      },
      {
        "ident" : "",
        "audioMuted" : false,
        "videoHidden" : false,
        "magnetic" : false,
        "matte" : 0,
        "metadata" : {
          "IsLocked" : "False",
          "WinTrackHeight" : "56"
        }
      },
      {
        "ident" : "",
        "audioMuted" : false,
        "videoHidden" : false,
        "magnetic" : false,
        "matte" : 0,
        "metadata" : {
          "IsLocked" : "False",
          "WinTrackHeight" : "56"
        }
      },
      {
        "ident" : "",
        "audioMuted" : false,
        "videoHidden" : false,
        "magnetic" : false,
        "matte" : 0,
        "metadata" : {
          "IsLocked" : "False",
          "WinTrackHeight" : "56"
        }
      },
      {
        "ident" : "",
        "audioMuted" : false,
        "videoHidden" : false,
        "magnetic" : false,
        "matte" : 0,
        "metadata" : {
          "IsLocked" : "False",
          "WinTrackHeight" : "56"
        }
      }
    ],
    "captionAttributes" : {
      "enabled" : true,
      "fontName" : "Arial",
      "fontSize" : 64,
      "backgroundColor" : [ 0, 0, 0, 191],
      "foregroundColor" : [ 255, 255, 255, 255],
      "lang" : "en",
      "alignment" : 0,
      "defaultFontSize" : true,
      "opacity" : 0.5,
      "backgroundEnabled" : true,
      "backgroundOnlyAroundText" : true
    },
    "backgroundColor" : [ 30, 30, 30, 255]
  },
  "metadata" : {
    "AutoSaveFile" : "C:\\Users\\lianduan\\AppData\\Local\\TechSmith\\Camtasia Studio\\19.0\\Auto-Saves\\3-1 Podf43862c.autosave.tscproj",
    "CanvasZoom" : 50,
    "Date" : "2021-01-10 03:30:43 PM",
    "IsAutoSave" : "0",
    "Language" : "ENU",
    "ProfileName" : "MP4 only (up to 1080p)",
    "ProjectDimensionsChanged" : "1",
    "Title" : "3-1 Pod",
    "audioNarrationNotes" : "",
    "calloutStyle" : "Basic",
    "canvasDetached" : "False",
    "canvasPositionHeight" : "0",
    "canvasPositionLeft" : "0",
    "canvasPositionTop" : "0",
    "canvasPositionWidth" : "0"
  }
}
