{
  "title" : "",
  "description" : "",
  "author" : "",
  "targetLoudness" : -18.0,
  "shouldApplyLoudnessNormalization" : true,
  "videoFormatFrameRate" : 30,
  "audioFormatSampleRate" : 44100,
  "width" : 1920.0,
  "height" : 1080.0,
  "version" : "3.0",
  "editRate" : 30,
  "authoringClientName" :  {
    "name" : "Camtasia",
    "platform" : "Windows",
    "version" : "19.0"
  },
  "sourceBin" : [
    {
      "id" : 1,
      "src" : "D:\\Code\\K8S\\video\\rec\\Rec 01-18-21.trec",
      "rect" : [0, 0, 1920, 1080],
      "lastMod" : "20210118T122653",
      "sourceTracks" : [
        {
          "range" : [0, 13499],
          "type" : 0,
          "editRate" : 30,
          "trackRect" : [0, 0, 1920, 1080],
          "sampleRate" : 23,
          "bitDepth" : 0,
          "numChannels" : 0,
          "integratedLUFS" : 100.0,
          "peakLevel" : -1.0,
          "metaData" : "2b7b6a00-7a1f-11e2-83d0-0017f200be7f;2b7b6aef-7a1f-11e2-83d0-0017f200be7f;2b7b6af0-7a1f-11e2-83d0-0017f200be7f;2b7b6af1-7a1f-11e2-83d0-0017f200be7f;2b7b6af2-7a1f-11e2-83d0-0017f200be7f;2b7b6af3-7a1f-11e2-83d0-0017f200be7f;2b7b6af5-7a1f-11e2-83d0-0017f200be7f;2b7b6af6-7a1f-11e2-83d0-0017f200be7f;2b7b6af7-7a1f-11e2-83d0-0017f200be7f;2b7b6af8-7a1f-11e2-83d0-0017f200be7f;2b7b6af9-7a1f-11e2-83d0-0017f200be7f;2b7b6afa-7a1f-11e2-83d0-0017f200be7f;"
        },
        {
          "range" : [0, 19824640],
          "type" : 2,
          "editRate" : 44100,
          "trackRect" : [0, 0, 0, 0],
          "sampleRate" : 44100,
          "bitDepth" : 16,
          "numChannels" : 2,
          "integratedLUFS" : -18.9422392533199,
          "peakLevel" : 1.0,
          "metaData" : ""
        }
      ],
      "metadata" : {
        "timeAdded" : "20210118T122653.871711"
      }
    },
    {
      "id" : 2,
      "src" : "C:\\ProgramData\\TechSmith\\Camtasia Studio 19\\Library 4.0\\User Libraries\\K8s\\start.asset\\wave1.png",
      "rect" : [0, 0, 1907, 383],
      "lastMod" : "20210105T163238",
      "sourceTracks" : [
        {
          "range" : [0, 1],
          "type" : 1,
          "editRate" : 10000000,
          "trackRect" : [0, 0, 1907, 383],
          "sampleRate" : 0,
          "bitDepth" : 24,
          "numChannels" : 0,
          "integratedLUFS" : 100.0,
          "peakLevel" : -1.0,
          "metaData" : ""
        }
      ],
      "metadata" : {
        "assetLibraryId" : "75d65985-041c-43c4-a44b-f79aada87cf9",
        "timeAdded" : "20210118T130632.819727"
      }
    },
    {
      "id" : 3,
      "src" : "C:\\ProgramData\\TechSmith\\Camtasia Studio 19\\Library 4.0\\User Libraries\\K8s\\start.asset\\wave2.png",
      "rect" : [0, 0, 1906, 341],
      "lastMod" : "20210105T163731",
      "sourceTracks" : [
        {
          "range" : [0, 1],
          "type" : 1,
          "editRate" : 10000000,
          "trackRect" : [0, 0, 1906, 341],
          "sampleRate" : 0,
          "bitDepth" : 24,
          "numChannels" : 0,
          "integratedLUFS" : 100.0,
          "peakLevel" : -1.0,
          "metaData" : ""
        }
      ],
      "metadata" : {
        "assetLibraryId" : "75d65985-041c-43c4-a44b-f79aada87cf9",
        "timeAdded" : "20210118T130632.819727"
      }
    },
    {
      "id" : 4,
      "src" : "C:\\ProgramData\\TechSmith\\Camtasia Studio 19\\Library 4.0\\User Libraries\\K8s\\start.asset\\wave3.png",
      "rect" : [0, 0, 1903, 380],
      "lastMod" : "20210105T163725",
      "sourceTracks" : [
        {
          "range" : [0, 1],
          "type" : 1,
          "editRate" : 10000000,
          "trackRect" : [0, 0, 1903, 380],
          "sampleRate" : 0,
          "bitDepth" : 24,
          "numChannels" : 0,
          "integratedLUFS" : 100.0,
          "peakLevel" : -1.0,
          "metaData" : ""
        }
      ],
      "metadata" : {
        "assetLibraryId" : "75d65985-041c-43c4-a44b-f79aada87cf9",
        "timeAdded" : "20210118T130632.819727"
      }
    },
    {
      "id" : 5,
      "src" : "C:\\ProgramData\\TechSmith\\Camtasia Studio 19\\Library 4.0\\User Libraries\\K8s\\start.asset\\control-plane-128.png",
      "rect" : [0, 0, 128, 128],
      "lastMod" : "20201224T160827",
      "sourceTracks" : [
        {
          "range" : [0, 1],
          "type" : 1,
          "editRate" : 10000000,
          "trackRect" : [0, 0, 128, 128],
          "sampleRate" : 0,
          "bitDepth" : 32,
          "numChannels" : 0,
          "integratedLUFS" : 100.0,
          "peakLevel" : -1.0,
          "metaData" : ""
        }
      ],
      "metadata" : {
        "assetLibraryId" : "75d65985-041c-43c4-a44b-f79aada87cf9",
        "timeAdded" : "20210118T130632.819727"
      }
    },
    {
      "id" : 6,
      "src" : "C:\\ProgramData\\TechSmith\\Camtasia Studio 19\\Library 4.0\\User Libraries\\K8s\\start.asset\\etcd-128.png",
      "rect" : [0, 0, 128, 128],
      "lastMod" : "20201224T160827",
      "sourceTracks" : [
        {
          "range" : [0, 1],
          "type" : 1,
          "editRate" : 10000000,
          "trackRect" : [0, 0, 128, 128],
          "sampleRate" : 0,
          "bitDepth" : 32,
          "numChannels" : 0,
          "integratedLUFS" : 100.0,
          "peakLevel" : -1.0,
          "metaData" : ""
        }
      ],
      "metadata" : {
        "assetLibraryId" : "75d65985-041c-43c4-a44b-f79aada87cf9",
        "timeAdded" : "20210118T130632.819727"
      }
    },
    {
      "id" : 7,
      "src" : "C:\\ProgramData\\TechSmith\\Camtasia Studio 19\\Library 4.0\\User Libraries\\K8s\\start.asset\\node-128.png",
      "rect" : [0, 0, 128, 128],
      "lastMod" : "20201224T160827",
      "sourceTracks" : [
        {
          "range" : [0, 1],
          "type" : 1,
          "editRate" : 10000000,
          "trackRect" : [0, 0, 128, 128],
          "sampleRate" : 0,
          "bitDepth" : 32,
          "numChannels" : 0,
          "integratedLUFS" : 100.0,
          "peakLevel" : -1.0,
          "metaData" : ""
        }
      ],
      "metadata" : {
        "assetLibraryId" : "75d65985-041c-43c4-a44b-f79aada87cf9",
        "timeAdded" : "20210118T130632.819727"
      }
    },
    {
      "id" : 8,
      "src" : "C:\\ProgramData\\TechSmith\\Camtasia Studio 19\\Library 4.0\\User Libraries\\K8s\\start.asset\\ns-128.png",
      "rect" : [0, 0, 128, 128],
      "lastMod" : "20201224T160827",
      "sourceTracks" : [
        {
          "range" : [0, 1],
          "type" : 1,
          "editRate" : 10000000,
          "trackRect" : [0, 0, 128, 128],
          "sampleRate" : 0,
          "bitDepth" : 32,
          "numChannels" : 0,
          "integratedLUFS" : 100.0,
          "peakLevel" : -1.0,
          "metaData" : ""
        }
      ],
      "metadata" : {
        "assetLibraryId" : "75d65985-041c-43c4-a44b-f79aada87cf9",
        "timeAdded" : "20210118T130632.819727"
      }
    },
    {
      "id" : 9,
      "src" : "C:\\ProgramData\\TechSmith\\Camtasia Studio 19\\Library 4.0\\User Libraries\\K8s\\start.asset\\pod-128.png",
      "rect" : [0, 0, 128, 128],
      "lastMod" : "20201224T160827",
      "sourceTracks" : [
        {
          "range" : [0, 1],
          "type" : 1,
          "editRate" : 10000000,
          "trackRect" : [0, 0, 128, 128],
          "sampleRate" : 0,
          "bitDepth" : 32,
          "numChannels" : 0,
          "integratedLUFS" : 100.0,
          "peakLevel" : -1.0,
          "metaData" : ""
        }
      ],
      "metadata" : {
        "assetLibraryId" : "75d65985-041c-43c4-a44b-f79aada87cf9",
        "timeAdded" : "20210118T130632.819727"
      }
    },
    {
      "id" : 10,
      "src" : "C:\\ProgramData\\TechSmith\\Camtasia Studio 19\\Library 4.0\\User Libraries\\K8s\\start.asset\\secret-128.png",
      "rect" : [0, 0, 128, 128],
      "lastMod" : "20201224T160827",
      "sourceTracks" : [
        {
          "range" : [0, 1],
          "type" : 1,
          "editRate" : 10000000,
          "trackRect" : [0, 0, 128, 128],
          "sampleRate" : 0,
          "bitDepth" : 32,
          "numChannels" : 0,
          "integratedLUFS" : 100.0,
          "peakLevel" : -1.0,
          "metaData" : ""
        }
      ],
      "metadata" : {
        "assetLibraryId" : "75d65985-041c-43c4-a44b-f79aada87cf9",
        "timeAdded" : "20210118T130632.819727"
      }
    },
    {
      "id" : 11,
      "src" : "C:\\ProgramData\\TechSmith\\Camtasia Studio 19\\Library 4.0\\User Libraries\\K8s\\start.asset\\svc-128.png",
      "rect" : [0, 0, 128, 128],
      "lastMod" : "20201224T160827",
      "sourceTracks" : [
        {
          "range" : [0, 1],
          "type" : 1,
          "editRate" : 10000000,
          "trackRect" : [0, 0, 128, 128],
          "sampleRate" : 0,
          "bitDepth" : 32,
          "numChannels" : 0,
          "integratedLUFS" : 100.0,
          "peakLevel" : -1.0,
          "metaData" : ""
        }
      ],
      "metadata" : {
        "assetLibraryId" : "75d65985-041c-43c4-a44b-f79aada87cf9",
        "timeAdded" : "20210118T130632.819727"
      }
    },
    {
      "id" : 12,
      "src" : "C:\\ProgramData\\TechSmith\\Camtasia Studio 19\\Library 4.0\\User Libraries\\K8s\\start.asset\\rs-128.png",
      "rect" : [0, 0, 128, 128],
      "lastMod" : "20201224T160827",
      "sourceTracks" : [
        {
          "range" : [0, 1],
          "type" : 1,
          "editRate" : 10000000,
          "trackRect" : [0, 0, 128, 128],
          "sampleRate" : 0,
          "bitDepth" : 32,
          "numChannels" : 0,
          "integratedLUFS" : 100.0,
          "peakLevel" : -1.0,
          "metaData" : ""
        }
      ],
      "metadata" : {
        "assetLibraryId" : "75d65985-041c-43c4-a44b-f79aada87cf9",
        "timeAdded" : "20210118T130632.819727"
      }
    },
    {
      "id" : 13,
      "src" : "C:\\ProgramData\\TechSmith\\Camtasia Studio 19\\Library 4.0\\User Libraries\\K8s\\start.asset\\vol-128.png",
      "rect" : [0, 0, 128, 128],
      "lastMod" : "20201224T160827",
      "sourceTracks" : [
        {
          "range" : [0, 1],
          "type" : 1,
          "editRate" : 10000000,
          "trackRect" : [0, 0, 128, 128],
          "sampleRate" : 0,
          "bitDepth" : 32,
          "numChannels" : 0,
          "integratedLUFS" : 100.0,
          "peakLevel" : -1.0,
          "metaData" : ""
        }
      ],
      "metadata" : {
        "assetLibraryId" : "75d65985-041c-43c4-a44b-f79aada87cf9",
        "timeAdded" : "20210118T130632.819727"
      }
    },
    {
      "id" : 14,
      "src" : "C:\\ProgramData\\TechSmith\\Camtasia Studio 19\\Library 4.0\\User Libraries\\K8s\\start.asset\\deploy-128.png",
      "rect" : [0, 0, 128, 128],
      "lastMod" : "20201224T160827",
      "sourceTracks" : [
        {
          "range" : [0, 1],
          "type" : 1,
          "editRate" : 10000000,
          "trackRect" : [0, 0, 128, 128],
          "sampleRate" : 0,
          "bitDepth" : 32,
          "numChannels" : 0,
          "integratedLUFS" : 100.0,
          "peakLevel" : -1.0,
          "metaData" : ""
        }
      ],
      "metadata" : {
        "assetLibraryId" : "75d65985-041c-43c4-a44b-f79aada87cf9",
        "timeAdded" : "20210118T130632.819727"
      }
    },
    {
      "id" : 15,
      "src" : "C:\\ProgramData\\TechSmith\\Camtasia Studio 19\\Library 4.0\\User Libraries\\K8s\\start.asset\\cronjob-128.png",
      "rect" : [0, 0, 128, 128],
      "lastMod" : "20201224T160827",
      "sourceTracks" : [
        {
          "range" : [0, 1],
          "type" : 1,
          "editRate" : 10000000,
          "trackRect" : [0, 0, 128, 128],
          "sampleRate" : 0,
          "bitDepth" : 32,
          "numChannels" : 0,
          "integratedLUFS" : 100.0,
          "peakLevel" : -1.0,
          "metaData" : ""
        }
      ],
      "metadata" : {
        "assetLibraryId" : "75d65985-041c-43c4-a44b-f79aada87cf9",
        "timeAdded" : "20210118T130632.819727"
      }
    },
    {
      "id" : 16,
      "src" : "C:\\ProgramData\\TechSmith\\Camtasia Studio 19\\Library 4.0\\User Libraries\\K8s\\start.asset\\k8sfavicon.png",
      "rect" : [0, 0, 512, 512],
      "lastMod" : "20210105T165021",
      "sourceTracks" : [
        {
          "range" : [0, 1],
          "type" : 1,
          "editRate" : 10000000,
          "trackRect" : [0, 0, 512, 512],
          "sampleRate" : 0,
          "bitDepth" : 32,
          "numChannels" : 0,
          "integratedLUFS" : 100.0,
          "peakLevel" : -1.0,
          "metaData" : ""
        }
      ],
      "metadata" : {
        "assetLibraryId" : "75d65985-041c-43c4-a44b-f79aada87cf9",
        "timeAdded" : "20210118T130632.819727"
      }
    },
    {
      "id" : 17,
      "src" : "C:\\ProgramData\\TechSmith\\Camtasia Studio 19\\Library 4.0\\User Libraries\\K8s\\start.asset\\wave.mp3",
      "rect" : [0, 0, 0, 0],
      "lastMod" : "20210105T195352",
      "sourceTracks" : [
        {
          "range" : [0, 185467500],
          "type" : 2,
          "editRate" : 10000000,
          "trackRect" : [0, 0, 0, 0],
          "sampleRate" : 44100,
          "bitDepth" : 0,
          "numChannels" : 2,
          "integratedLUFS" : -16.6955131625049,
          "peakLevel" : 0.940275430679321,
          "metaData" : ""
        }
      ],
      "metadata" : {
        "assetLibraryId" : "75d65985-041c-43c4-a44b-f79aada87cf9",
        "timeAdded" : "20210118T130632.819727"
      }
    },
    {
      "id" : 18,
      "src" : "C:\\ProgramData\\TechSmith\\Camtasia Studio 19\\Library 4.0\\User Libraries\\K8s\\end.asset\\wave1.png",
      "rect" : [0, 0, 1907, 383],
      "lastMod" : "20210105T163238",
      "sourceTracks" : [
        {
          "range" : [0, 1],
          "type" : 1,
          "editRate" : 10000000,
          "trackRect" : [0, 0, 1907, 383],
          "sampleRate" : 0,
          "bitDepth" : 24,
          "numChannels" : 0,
          "integratedLUFS" : 100.0,
          "peakLevel" : -1.0,
          "metaData" : ""
        }
      ],
      "metadata" : {
        "assetLibraryId" : "c49e4026-371e-4445-9c95-bf86c5e3c498",
        "timeAdded" : "20210118T130658.248197"
      }
    },
    {
      "id" : 19,
      "src" : "C:\\ProgramData\\TechSmith\\Camtasia Studio 19\\Library 4.0\\User Libraries\\K8s\\end.asset\\wave2.png",
      "rect" : [0, 0, 1906, 341],
      "lastMod" : "20210105T163731",
      "sourceTracks" : [
        {
          "range" : [0, 1],
          "type" : 1,
          "editRate" : 10000000,
          "trackRect" : [0, 0, 1906, 341],
          "sampleRate" : 0,
          "bitDepth" : 24,
          "numChannels" : 0,
          "integratedLUFS" : 100.0,
          "peakLevel" : -1.0,
          "metaData" : ""
        }
      ],
      "metadata" : {
        "assetLibraryId" : "c49e4026-371e-4445-9c95-bf86c5e3c498",
        "timeAdded" : "20210118T130658.248197"
      }
    },
    {
      "id" : 20,
      "src" : "C:\\ProgramData\\TechSmith\\Camtasia Studio 19\\Library 4.0\\User Libraries\\K8s\\end.asset\\wave3.png",
      "rect" : [0, 0, 1903, 380],
      "lastMod" : "20210105T163725",
      "sourceTracks" : [
        {
          "range" : [0, 1],
          "type" : 1,
          "editRate" : 10000000,
          "trackRect" : [0, 0, 1903, 380],
          "sampleRate" : 0,
          "bitDepth" : 24,
          "numChannels" : 0,
          "integratedLUFS" : 100.0,
          "peakLevel" : -1.0,
          "metaData" : ""
        }
      ],
      "metadata" : {
        "assetLibraryId" : "c49e4026-371e-4445-9c95-bf86c5e3c498",
        "timeAdded" : "20210118T130658.248197"
      }
    },
    {
      "id" : 21,
      "src" : "C:\\ProgramData\\TechSmith\\Camtasia Studio 19\\Library 4.0\\User Libraries\\K8s\\end.asset\\control-plane-128.png",
      "rect" : [0, 0, 128, 128],
      "lastMod" : "20201224T160827",
      "sourceTracks" : [
        {
          "range" : [0, 1],
          "type" : 1,
          "editRate" : 10000000,
          "trackRect" : [0, 0, 128, 128],
          "sampleRate" : 0,
          "bitDepth" : 32,
          "numChannels" : 0,
          "integratedLUFS" : 100.0,
          "peakLevel" : -1.0,
          "metaData" : ""
        }
      ],
      "metadata" : {
        "assetLibraryId" : "c49e4026-371e-4445-9c95-bf86c5e3c498",
        "timeAdded" : "20210118T130658.248197"
      }
    },
    {
      "id" : 22,
      "src" : "C:\\ProgramData\\TechSmith\\Camtasia Studio 19\\Library 4.0\\User Libraries\\K8s\\end.asset\\etcd-128.png",
      "rect" : [0, 0, 128, 128],
      "lastMod" : "20201224T160827",
      "sourceTracks" : [
        {
          "range" : [0, 1],
          "type" : 1,
          "editRate" : 10000000,
          "trackRect" : [0, 0, 128, 128],
          "sampleRate" : 0,
          "bitDepth" : 32,
          "numChannels" : 0,
          "integratedLUFS" : 100.0,
          "peakLevel" : -1.0,
          "metaData" : ""
        }
      ],
      "metadata" : {
        "assetLibraryId" : "c49e4026-371e-4445-9c95-bf86c5e3c498",
        "timeAdded" : "20210118T130658.248197"
      }
    },
    {
      "id" : 23,
      "src" : "C:\\ProgramData\\TechSmith\\Camtasia Studio 19\\Library 4.0\\User Libraries\\K8s\\end.asset\\node-128.png",
      "rect" : [0, 0, 128, 128],
      "lastMod" : "20201224T160827",
      "sourceTracks" : [
        {
          "range" : [0, 1],
          "type" : 1,
          "editRate" : 10000000,
          "trackRect" : [0, 0, 128, 128],
          "sampleRate" : 0,
          "bitDepth" : 32,
          "numChannels" : 0,
          "integratedLUFS" : 100.0,
          "peakLevel" : -1.0,
          "metaData" : ""
        }
      ],
      "metadata" : {
        "assetLibraryId" : "c49e4026-371e-4445-9c95-bf86c5e3c498",
        "timeAdded" : "20210118T130658.248197"
      }
    },
    {
      "id" : 24,
      "src" : "C:\\ProgramData\\TechSmith\\Camtasia Studio 19\\Library 4.0\\User Libraries\\K8s\\end.asset\\ns-128.png",
      "rect" : [0, 0, 128, 128],
      "lastMod" : "20201224T160827",
      "sourceTracks" : [
        {
          "range" : [0, 1],
          "type" : 1,
          "editRate" : 10000000,
          "trackRect" : [0, 0, 128, 128],
          "sampleRate" : 0,
          "bitDepth" : 32,
          "numChannels" : 0,
          "integratedLUFS" : 100.0,
          "peakLevel" : -1.0,
          "metaData" : ""
        }
      ],
      "metadata" : {
        "assetLibraryId" : "c49e4026-371e-4445-9c95-bf86c5e3c498",
        "timeAdded" : "20210118T130658.248197"
      }
    },
    {
      "id" : 25,
      "src" : "C:\\ProgramData\\TechSmith\\Camtasia Studio 19\\Library 4.0\\User Libraries\\K8s\\end.asset\\pod-128.png",
      "rect" : [0, 0, 128, 128],
      "lastMod" : "20201224T160827",
      "sourceTracks" : [
        {
          "range" : [0, 1],
          "type" : 1,
          "editRate" : 10000000,
          "trackRect" : [0, 0, 128, 128],
          "sampleRate" : 0,
          "bitDepth" : 32,
          "numChannels" : 0,
          "integratedLUFS" : 100.0,
          "peakLevel" : -1.0,
          "metaData" : ""
        }
      ],
      "metadata" : {
        "assetLibraryId" : "c49e4026-371e-4445-9c95-bf86c5e3c498",
        "timeAdded" : "20210118T130658.248197"
      }
    },
    {
      "id" : 26,
      "src" : "C:\\ProgramData\\TechSmith\\Camtasia Studio 19\\Library 4.0\\User Libraries\\K8s\\end.asset\\secret-128.png",
      "rect" : [0, 0, 128, 128],
      "lastMod" : "20201224T160827",
      "sourceTracks" : [
        {
          "range" : [0, 1],
          "type" : 1,
          "editRate" : 10000000,
          "trackRect" : [0, 0, 128, 128],
          "sampleRate" : 0,
          "bitDepth" : 32,
          "numChannels" : 0,
          "integratedLUFS" : 100.0,
          "peakLevel" : -1.0,
          "metaData" : ""
        }
      ],
      "metadata" : {
        "assetLibraryId" : "c49e4026-371e-4445-9c95-bf86c5e3c498",
        "timeAdded" : "20210118T130658.248197"
      }
    },
    {
      "id" : 27,
      "src" : "C:\\ProgramData\\TechSmith\\Camtasia Studio 19\\Library 4.0\\User Libraries\\K8s\\end.asset\\svc-128.png",
      "rect" : [0, 0, 128, 128],
      "lastMod" : "20201224T160827",
      "sourceTracks" : [
        {
          "range" : [0, 1],
          "type" : 1,
          "editRate" : 10000000,
          "trackRect" : [0, 0, 128, 128],
          "sampleRate" : 0,
          "bitDepth" : 32,
          "numChannels" : 0,
          "integratedLUFS" : 100.0,
          "peakLevel" : -1.0,
          "metaData" : ""
        }
      ],
      "metadata" : {
        "assetLibraryId" : "c49e4026-371e-4445-9c95-bf86c5e3c498",
        "timeAdded" : "20210118T130658.248197"
      }
    },
    {
      "id" : 28,
      "src" : "C:\\ProgramData\\TechSmith\\Camtasia Studio 19\\Library 4.0\\User Libraries\\K8s\\end.asset\\rs-128.png",
      "rect" : [0, 0, 128, 128],
      "lastMod" : "20201224T160827",
      "sourceTracks" : [
        {
          "range" : [0, 1],
          "type" : 1,
          "editRate" : 10000000,
          "trackRect" : [0, 0, 128, 128],
          "sampleRate" : 0,
          "bitDepth" : 32,
          "numChannels" : 0,
          "integratedLUFS" : 100.0,
          "peakLevel" : -1.0,
          "metaData" : ""
        }
      ],
      "metadata" : {
        "assetLibraryId" : "c49e4026-371e-4445-9c95-bf86c5e3c498",
        "timeAdded" : "20210118T130658.248197"
      }
    },
    {
      "id" : 29,
      "src" : "C:\\ProgramData\\TechSmith\\Camtasia Studio 19\\Library 4.0\\User Libraries\\K8s\\end.asset\\vol-128.png",
      "rect" : [0, 0, 128, 128],
      "lastMod" : "20201224T160827",
      "sourceTracks" : [
        {
          "range" : [0, 1],
          "type" : 1,
          "editRate" : 10000000,
          "trackRect" : [0, 0, 128, 128],
          "sampleRate" : 0,
          "bitDepth" : 32,
          "numChannels" : 0,
          "integratedLUFS" : 100.0,
          "peakLevel" : -1.0,
          "metaData" : ""
        }
      ],
      "metadata" : {
        "assetLibraryId" : "c49e4026-371e-4445-9c95-bf86c5e3c498",
        "timeAdded" : "20210118T130658.248197"
      }
    },
    {
      "id" : 30,
      "src" : "C:\\ProgramData\\TechSmith\\Camtasia Studio 19\\Library 4.0\\User Libraries\\K8s\\end.asset\\deploy-128.png",
      "rect" : [0, 0, 128, 128],
      "lastMod" : "20201224T160827",
      "sourceTracks" : [
        {
          "range" : [0, 1],
          "type" : 1,
          "editRate" : 10000000,
          "trackRect" : [0, 0, 128, 128],
          "sampleRate" : 0,
          "bitDepth" : 32,
          "numChannels" : 0,
          "integratedLUFS" : 100.0,
          "peakLevel" : -1.0,
          "metaData" : ""
        }
      ],
      "metadata" : {
        "assetLibraryId" : "c49e4026-371e-4445-9c95-bf86c5e3c498",
        "timeAdded" : "20210118T130658.248197"
      }
    },
    {
      "id" : 31,
      "src" : "C:\\ProgramData\\TechSmith\\Camtasia Studio 19\\Library 4.0\\User Libraries\\K8s\\end.asset\\cronjob-128.png",
      "rect" : [0, 0, 128, 128],
      "lastMod" : "20201224T160827",
      "sourceTracks" : [
        {
          "range" : [0, 1],
          "type" : 1,
          "editRate" : 10000000,
          "trackRect" : [0, 0, 128, 128],
          "sampleRate" : 0,
          "bitDepth" : 32,
          "numChannels" : 0,
          "integratedLUFS" : 100.0,
          "peakLevel" : -1.0,
          "metaData" : ""
        }
      ],
      "metadata" : {
        "assetLibraryId" : "c49e4026-371e-4445-9c95-bf86c5e3c498",
        "timeAdded" : "20210118T130658.248197"
      }
    },
    {
      "id" : 32,
      "src" : "C:\\ProgramData\\TechSmith\\Camtasia Studio 19\\Library 4.0\\User Libraries\\K8s\\end.asset\\k8sfavicon.png",
      "rect" : [0, 0, 512, 512],
      "lastMod" : "20210105T165021",
      "sourceTracks" : [
        {
          "range" : [0, 1],
          "type" : 1,
          "editRate" : 10000000,
          "trackRect" : [0, 0, 512, 512],
          "sampleRate" : 0,
          "bitDepth" : 32,
          "numChannels" : 0,
          "integratedLUFS" : 100.0,
          "peakLevel" : -1.0,
          "metaData" : ""
        }
      ],
      "metadata" : {
        "assetLibraryId" : "c49e4026-371e-4445-9c95-bf86c5e3c498",
        "timeAdded" : "20210118T130658.248197"
      }
    },
    {
      "id" : 33,
      "src" : "C:\\ProgramData\\TechSmith\\Camtasia Studio 19\\Library 4.0\\User Libraries\\K8s\\end.asset\\wave.mp3",
      "rect" : [0, 0, 0, 0],
      "lastMod" : "20210105T195352",
      "sourceTracks" : [
        {
          "range" : [0, 185467500],
          "type" : 2,
          "editRate" : 10000000,
          "trackRect" : [0, 0, 0, 0],
          "sampleRate" : 44100,
          "bitDepth" : 0,
          "numChannels" : 2,
          "integratedLUFS" : -16.6955131625049,
          "peakLevel" : 0.940275430679321,
          "metaData" : ""
        }
      ],
      "metadata" : {
        "assetLibraryId" : "c49e4026-371e-4445-9c95-bf86c5e3c498",
        "timeAdded" : "20210118T130658.248197"
      }
    }
  ],
  "timeline" : {
    "id" : 34,
    "sceneTrack" : {
      "scenes" : [
        {
          "duration" : 187.733333333333,
          "title" : "",
          "type" : "",
          "csml" : {
            "tracks" : [
              {
                "trackIndex" : 0,
                "medias" : [
                  {
                    "id" : 35,
                    "_type" : "StitchedMedia",
                    "minMediaStart" : 0,
                    "attributes" : {
                      "ident" : "Rec 01-18-21",
                      "gain" : 1.0,
                      "mixToMono" : false
                    },
                    "parameters" : {
                      "volume" : 1.0,
                      "cursorOpacity" : 1.0,
                      "cursorScale" : 1.0
                    },
                    "medias" : [
                        {
                          "id" : 36,
                          "_type" : "UnifiedMedia",
                          "video" : 
                              {
                                "id" : 37,
                                "_type" : "ScreenVMFile",
                                "src" : 1,
                                "trackNumber" : 0,
                                "attributes" : {
                                  "ident" : "Rec 01-18-21"
                                },
                                "parameters" : {
                                  "cursorScale" : {
                                    "type" : "double",
                                    "defaultValue" : 0.0,
                                    "interp" : "linr"
                                  },
                                  "cursorOpacity" : {
                                    "type" : "double",
                                    "defaultValue" : 0.0,
                                    "interp" : "linr"
                                  }
                                },
                                "effects" : [

                                ],
                                "start" : 0,
                                "duration" : 300,
                                "mediaStart" : 0,
                                "mediaDuration" : 300,
                                "scalar" : 1,
                                "animationTracks" : {

                                }
                              },
                          "audio" : 
                              {
                                "id" : 38,
                                "_type" : "AMFile",
                                "src" : 1,
                                "trackNumber" : 1,
                                "attributes" : {
                                  "ident" : "",
                                  "gain" : 1.0,
                                  "mixToMono" : false
                                },
                                  "channelNumber" : "0,1",
                                "effects" : [

                                ],
                                "start" : 0,
                                "duration" : 300,
                                "mediaStart" : 0,
                                "mediaDuration" : 300,
                                "scalar" : 1,
                                "animationTracks" : {

                                }
                              }
,
                          "start" : 0,
                          "duration" : 300,
                          "mediaStart" : 0,
                          "mediaDuration" : 13486,
                          "scalar" : 1,
                          "metadata" : {
                            "AutoAppliedSmartFocus" : "False",
                            "clipSpeedAttribute" : false
                          }
                        },
                        {
                          "id" : 39,
                          "_type" : "UnifiedMedia",
                          "video" : 
                              {
                                "id" : 40,
                                "_type" : "ScreenVMFile",
                                "src" : 1,
                                "trackNumber" : 0,
                                "attributes" : {
                                  "ident" : "Rec 01-18-21"
                                },
                                "parameters" : {
                                  "cursorScale" : {
                                    "type" : "double",
                                    "defaultValue" : 0.0,
                                    "interp" : "linr"
                                  },
                                  "cursorOpacity" : {
                                    "type" : "double",
                                    "defaultValue" : 0.0,
                                    "interp" : "linr"
                                  }
                                },
                                "effects" : [

                                ],
                                "start" : 300,
                                "duration" : 52,
                                "mediaStart" : 313,
                                "mediaDuration" : 52,
                                "scalar" : 1,
                                "animationTracks" : {

                                }
                              },
                          "audio" : 
                              {
                                "id" : 41,
                                "_type" : "AMFile",
                                "src" : 1,
                                "trackNumber" : 1,
                                "attributes" : {
                                  "ident" : "",
                                  "gain" : 1.0,
                                  "mixToMono" : false
                                },
                                  "channelNumber" : "0,1",
                                "effects" : [

                                ],
                                "start" : 300,
                                "duration" : 52,
                                "mediaStart" : 313,
                                "mediaDuration" : 52,
                                "scalar" : 1,
                                "animationTracks" : {

                                }
                              }
,
                          "start" : 300,
                          "duration" : 52,
                          "mediaStart" : 0,
                          "mediaDuration" : 13486,
                          "scalar" : 1,
                          "metadata" : {
                            "AutoAppliedSmartFocus" : "False",
                            "clipSpeedAttribute" : false
                          }
                        },
                        {
                          "id" : 42,
                          "_type" : "UnifiedMedia",
                          "video" : 
                              {
                                "id" : 43,
                                "_type" : "ScreenVMFile",
                                "src" : 1,
                                "trackNumber" : 0,
                                "attributes" : {
                                  "ident" : "Rec 01-18-21"
                                },
                                "parameters" : {
                                  "cursorScale" : {
                                    "type" : "double",
                                    "defaultValue" : 0.0,
                                    "interp" : "linr"
                                  },
                                  "cursorOpacity" : {
                                    "type" : "double",
                                    "defaultValue" : 0.0,
                                    "interp" : "linr"
                                  }
                                },
                                "effects" : [

                                ],
                                "start" : 352,
                                "duration" : 63,
                                "mediaStart" : 439,
                                "mediaDuration" : 63,
                                "scalar" : 1,
                                "animationTracks" : {

                                }
                              },
                          "audio" : 
                              {
                                "id" : 44,
                                "_type" : "AMFile",
                                "src" : 1,
                                "trackNumber" : 1,
                                "attributes" : {
                                  "ident" : "",
                                  "gain" : 1.0,
                                  "mixToMono" : false
                                },
                                  "channelNumber" : "0,1",
                                "effects" : [

                                ],
                                "start" : 352,
                                "duration" : 63,
                                "mediaStart" : 439,
                                "mediaDuration" : 63,
                                "scalar" : 1,
                                "animationTracks" : {

                                }
                              }
,
                          "start" : 352,
                          "duration" : 63,
                          "mediaStart" : 0,
                          "mediaDuration" : 13486,
                          "scalar" : 1,
                          "metadata" : {
                            "AutoAppliedSmartFocus" : "False",
                            "clipSpeedAttribute" : false
                          }
                        },
                        {
                          "id" : 45,
                          "_type" : "UnifiedMedia",
                          "video" : 
                              {
                                "id" : 46,
                                "_type" : "ScreenVMFile",
                                "src" : 1,
                                "trackNumber" : 0,
                                "attributes" : {
                                  "ident" : "Rec 01-18-21"
                                },
                                "parameters" : {
                                  "cursorScale" : {
                                    "type" : "double",
                                    "defaultValue" : 0.0,
                                    "interp" : "linr"
                                  },
                                  "cursorOpacity" : {
                                    "type" : "double",
                                    "defaultValue" : 0.0,
                                    "interp" : "linr"
                                  }
                                },
                                "effects" : [

                                ],
                                "start" : 415,
                                "duration" : 17,
                                "mediaStart" : 573,
                                "mediaDuration" : 17,
                                "scalar" : 1,
                                "animationTracks" : {

                                }
                              },
                          "audio" : 
                              {
                                "id" : 47,
                                "_type" : "AMFile",
                                "src" : 1,
                                "trackNumber" : 1,
                                "attributes" : {
                                  "ident" : "",
                                  "gain" : 1.0,
                                  "mixToMono" : false
                                },
                                  "channelNumber" : "0,1",
                                "effects" : [

                                ],
                                "start" : 415,
                                "duration" : 17,
                                "mediaStart" : 573,
                                "mediaDuration" : 17,
                                "scalar" : 1,
                                "animationTracks" : {

                                }
                              }
,
                          "start" : 415,
                          "duration" : 17,
                          "mediaStart" : 0,
                          "mediaDuration" : 13486,
                          "scalar" : 1,
                          "metadata" : {
                            "AutoAppliedSmartFocus" : "False",
                            "clipSpeedAttribute" : false
                          }
                        },
                        {
                          "id" : 48,
                          "_type" : "UnifiedMedia",
                          "video" : 
                              {
                                "id" : 49,
                                "_type" : "ScreenVMFile",
                                "src" : 1,
                                "trackNumber" : 0,
                                "attributes" : {
                                  "ident" : "Rec 01-18-21"
                                },
                                "parameters" : {
                                  "cursorScale" : {
                                    "type" : "double",
                                    "defaultValue" : 0.0,
                                    "interp" : "linr"
                                  },
                                  "cursorOpacity" : {
                                    "type" : "double",
                                    "defaultValue" : 0.0,
                                    "interp" : "linr"
                                  }
                                },
                                "effects" : [

                                ],
                                "start" : 432,
                                "duration" : 23,
                                "mediaStart" : 597,
                                "mediaDuration" : 23,
                                "scalar" : 1,
                                "animationTracks" : {

                                }
                              },
                          "audio" : 
                              {
                                "id" : 50,
                                "_type" : "AMFile",
                                "src" : 1,
                                "trackNumber" : 1,
                                "attributes" : {
                                  "ident" : "",
                                  "gain" : 1.0,
                                  "mixToMono" : false
                                },
                                  "channelNumber" : "0,1",
                                "effects" : [

                                ],
                                "start" : 432,
                                "duration" : 23,
                                "mediaStart" : 597,
                                "mediaDuration" : 23,
                                "scalar" : 1,
                                "animationTracks" : {

                                }
                              }
,
                          "start" : 432,
                          "duration" : 23,
                          "mediaStart" : 0,
                          "mediaDuration" : 13486,
                          "scalar" : 1,
                          "metadata" : {
                            "AutoAppliedSmartFocus" : "False",
                            "clipSpeedAttribute" : false
                          }
                        },
                        {
                          "id" : 51,
                          "_type" : "UnifiedMedia",
                          "video" : 
                              {
                                "id" : 52,
                                "_type" : "ScreenVMFile",
                                "src" : 1,
                                "trackNumber" : 0,
                                "attributes" : {
                                  "ident" : "Rec 01-18-21"
                                },
                                "parameters" : {
                                  "cursorScale" : {
                                    "type" : "double",
                                    "defaultValue" : 0.0,
                                    "interp" : "linr"
                                  },
                                  "cursorOpacity" : {
                                    "type" : "double",
                                    "defaultValue" : 0.0,
                                    "interp" : "linr"
                                  }
                                },
                                "effects" : [

                                ],
                                "start" : 455,
                                "duration" : 49,
                                "mediaStart" : 627,
                                "mediaDuration" : 49,
                                "scalar" : 1,
                                "animationTracks" : {

                                }
                              },
                          "audio" : 
                              {
                                "id" : 53,
                                "_type" : "AMFile",
                                "src" : 1,
                                "trackNumber" : 1,
                                "attributes" : {
                                  "ident" : "",
                                  "gain" : 1.0,
                                  "mixToMono" : false
                                },
                                  "channelNumber" : "0,1",
                                "effects" : [

                                ],
                                "start" : 455,
                                "duration" : 49,
                                "mediaStart" : 627,
                                "mediaDuration" : 49,
                                "scalar" : 1,
                                "animationTracks" : {

                                }
                              }
,
                          "start" : 455,
                          "duration" : 49,
                          "mediaStart" : 0,
                          "mediaDuration" : 13486,
                          "scalar" : 1,
                          "metadata" : {
                            "AutoAppliedSmartFocus" : "False",
                            "clipSpeedAttribute" : false
                          }
                        },
                        {
                          "id" : 54,
                          "_type" : "UnifiedMedia",
                          "video" : 
                              {
                                "id" : 55,
                                "_type" : "ScreenVMFile",
                                "src" : 1,
                                "trackNumber" : 0,
                                "attributes" : {
                                  "ident" : "Rec 01-18-21"
                                },
                                "parameters" : {
                                  "cursorScale" : {
                                    "type" : "double",
                                    "defaultValue" : 0.0,
                                    "interp" : "linr"
                                  },
                                  "cursorOpacity" : {
                                    "type" : "double",
                                    "defaultValue" : 0.0,
                                    "interp" : "linr"
                                  }
                                },
                                "effects" : [

                                ],
                                "start" : 504,
                                "duration" : 435,
                                "mediaStart" : 820,
                                "mediaDuration" : 435,
                                "scalar" : 1,
                                "animationTracks" : {

                                }
                              },
                          "audio" : 
                              {
                                "id" : 56,
                                "_type" : "AMFile",
                                "src" : 1,
                                "trackNumber" : 1,
                                "attributes" : {
                                  "ident" : "",
                                  "gain" : 1.0,
                                  "mixToMono" : false
                                },
                                  "channelNumber" : "0,1",
                                "effects" : [

                                ],
                                "start" : 504,
                                "duration" : 435,
                                "mediaStart" : 820,
                                "mediaDuration" : 435,
                                "scalar" : 1,
                                "animationTracks" : {

                                }
                              }
,
                          "start" : 504,
                          "duration" : 435,
                          "mediaStart" : 0,
                          "mediaDuration" : 13486,
                          "scalar" : 1,
                          "metadata" : {
                            "AutoAppliedSmartFocus" : "False",
                            "clipSpeedAttribute" : false
                          }
                        },
                        {
                          "id" : 57,
                          "_type" : "UnifiedMedia",
                          "video" : 
                              {
                                "id" : 58,
                                "_type" : "ScreenVMFile",
                                "src" : 1,
                                "trackNumber" : 0,
                                "attributes" : {
                                  "ident" : "Rec 01-18-21"
                                },
                                "parameters" : {
                                  "cursorScale" : {
                                    "type" : "double",
                                    "defaultValue" : 0.0,
                                    "interp" : "linr"
                                  },
                                  "cursorOpacity" : {
                                    "type" : "double",
                                    "defaultValue" : 0.0,
                                    "interp" : "linr"
                                  }
                                },
                                "effects" : [

                                ],
                                "start" : 939,
                                "duration" : 21,
                                "mediaStart" : 1268,
                                "mediaDuration" : 21,
                                "scalar" : 1,
                                "animationTracks" : {

                                }
                              },
                          "audio" : 
                              {
                                "id" : 59,
                                "_type" : "AMFile",
                                "src" : 1,
                                "trackNumber" : 1,
                                "attributes" : {
                                  "ident" : "",
                                  "gain" : 1.0,
                                  "mixToMono" : false
                                },
                                  "channelNumber" : "0,1",
                                "effects" : [

                                ],
                                "start" : 939,
                                "duration" : 21,
                                "mediaStart" : 1268,
                                "mediaDuration" : 21,
                                "scalar" : 1,
                                "animationTracks" : {

                                }
                              }
,
                          "start" : 939,
                          "duration" : 21,
                          "mediaStart" : 0,
                          "mediaDuration" : 13486,
                          "scalar" : 1,
                          "metadata" : {
                            "AutoAppliedSmartFocus" : "False",
                            "clipSpeedAttribute" : false
                          }
                        },
                        {
                          "id" : 60,
                          "_type" : "UnifiedMedia",
                          "video" : 
                              {
                                "id" : 61,
                                "_type" : "ScreenVMFile",
                                "src" : 1,
                                "trackNumber" : 0,
                                "attributes" : {
                                  "ident" : "Rec 01-18-21"
                                },
                                "parameters" : {
                                  "cursorScale" : {
                                    "type" : "double",
                                    "defaultValue" : 0.0,
                                    "interp" : "linr"
                                  },
                                  "cursorOpacity" : {
                                    "type" : "double",
                                    "defaultValue" : 0.0,
                                    "interp" : "linr"
                                  }
                                },
                                "effects" : [

                                ],
                                "start" : 960,
                                "duration" : 68,
                                "mediaStart" : 1296,
                                "mediaDuration" : 68,
                                "scalar" : 1,
                                "animationTracks" : {

                                }
                              },
                          "audio" : 
                              {
                                "id" : 62,
                                "_type" : "AMFile",
                                "src" : 1,
                                "trackNumber" : 1,
                                "attributes" : {
                                  "ident" : "",
                                  "gain" : 1.0,
                                  "mixToMono" : false
                                },
                                  "channelNumber" : "0,1",
                                "effects" : [

                                ],
                                "start" : 960,
                                "duration" : 68,
                                "mediaStart" : 1296,
                                "mediaDuration" : 68,
                                "scalar" : 1,
                                "animationTracks" : {

                                }
                              }
,
                          "start" : 960,
                          "duration" : 68,
                          "mediaStart" : 0,
                          "mediaDuration" : 13486,
                          "scalar" : 1,
                          "metadata" : {
                            "AutoAppliedSmartFocus" : "False",
                            "clipSpeedAttribute" : false
                          }
                        },
                        {
                          "id" : 63,
                          "_type" : "UnifiedMedia",
                          "video" : 
                              {
                                "id" : 64,
                                "_type" : "ScreenVMFile",
                                "src" : 1,
                                "trackNumber" : 0,
                                "attributes" : {
                                  "ident" : "Rec 01-18-21"
                                },
                                "parameters" : {
                                  "cursorScale" : {
                                    "type" : "double",
                                    "defaultValue" : 0.0,
                                    "interp" : "linr"
                                  },
                                  "cursorOpacity" : {
                                    "type" : "double",
                                    "defaultValue" : 0.0,
                                    "interp" : "linr"
                                  }
                                },
                                "effects" : [

                                ],
                                "start" : 1028,
                                "duration" : 97,
                                "mediaStart" : 1774,
                                "mediaDuration" : 97,
                                "scalar" : 1,
                                "animationTracks" : {

                                }
                              },
                          "audio" : 
                              {
                                "id" : 65,
                                "_type" : "AMFile",
                                "src" : 1,
                                "trackNumber" : 1,
                                "attributes" : {
                                  "ident" : "",
                                  "gain" : 1.0,
                                  "mixToMono" : false
                                },
                                  "channelNumber" : "0,1",
                                "effects" : [

                                ],
                                "start" : 1028,
                                "duration" : 97,
                                "mediaStart" : 1774,
                                "mediaDuration" : 97,
                                "scalar" : 1,
                                "animationTracks" : {

                                }
                              }
,
                          "start" : 1028,
                          "duration" : 97,
                          "mediaStart" : 0,
                          "mediaDuration" : 13486,
                          "scalar" : 1,
                          "metadata" : {
                            "AutoAppliedSmartFocus" : "False",
                            "clipSpeedAttribute" : false
                          }
                        },
                        {
                          "id" : 66,
                          "_type" : "UnifiedMedia",
                          "video" : 
                              {
                                "id" : 67,
                                "_type" : "ScreenVMFile",
                                "src" : 1,
                                "trackNumber" : 0,
                                "attributes" : {
                                  "ident" : "Rec 01-18-21"
                                },
                                "parameters" : {
                                  "cursorScale" : {
                                    "type" : "double",
                                    "defaultValue" : 0.0,
                                    "interp" : "linr"
                                  },
                                  "cursorOpacity" : {
                                    "type" : "double",
                                    "defaultValue" : 0.0,
                                    "interp" : "linr"
                                  }
                                },
                                "effects" : [

                                ],
                                "start" : 1125,
                                "duration" : 40,
                                "mediaStart" : 1903,
                                "mediaDuration" : 40,
                                "scalar" : 1,
                                "animationTracks" : {

                                }
                              },
                          "audio" : 
                              {
                                "id" : 68,
                                "_type" : "AMFile",
                                "src" : 1,
                                "trackNumber" : 1,
                                "attributes" : {
                                  "ident" : "",
                                  "gain" : 1.0,
                                  "mixToMono" : false
                                },
                                  "channelNumber" : "0,1",
                                "effects" : [

                                ],
                                "start" : 1125,
                                "duration" : 40,
                                "mediaStart" : 1903,
                                "mediaDuration" : 40,
                                "scalar" : 1,
                                "animationTracks" : {

                                }
                              }
,
                          "start" : 1125,
                          "duration" : 40,
                          "mediaStart" : 0,
                          "mediaDuration" : 13486,
                          "scalar" : 1,
                          "metadata" : {
                            "AutoAppliedSmartFocus" : "False",
                            "clipSpeedAttribute" : false
                          }
                        },
                        {
                          "id" : 69,
                          "_type" : "UnifiedMedia",
                          "video" : 
                              {
                                "id" : 70,
                                "_type" : "ScreenVMFile",
                                "src" : 1,
                                "trackNumber" : 0,
                                "attributes" : {
                                  "ident" : "Rec 01-18-21"
                                },
                                "parameters" : {
                                  "cursorScale" : {
                                    "type" : "double",
                                    "defaultValue" : 0.0,
                                    "interp" : "linr"
                                  },
                                  "cursorOpacity" : {
                                    "type" : "double",
                                    "defaultValue" : 0.0,
                                    "interp" : "linr"
                                  }
                                },
                                "effects" : [

                                ],
                                "start" : 1165,
                                "duration" : 14,
                                "mediaStart" : 1954,
                                "mediaDuration" : 14,
                                "scalar" : 1,
                                "animationTracks" : {

                                }
                              },
                          "audio" : 
                              {
                                "id" : 71,
                                "_type" : "AMFile",
                                "src" : 1,
                                "trackNumber" : 1,
                                "attributes" : {
                                  "ident" : "",
                                  "gain" : 1.0,
                                  "mixToMono" : false
                                },
                                  "channelNumber" : "0,1",
                                "effects" : [

                                ],
                                "start" : 1165,
                                "duration" : 14,
                                "mediaStart" : 1954,
                                "mediaDuration" : 14,
                                "scalar" : 1,
                                "animationTracks" : {

                                }
                              }
,
                          "start" : 1165,
                          "duration" : 14,
                          "mediaStart" : 0,
                          "mediaDuration" : 13486,
                          "scalar" : 1,
                          "metadata" : {
                            "AutoAppliedSmartFocus" : "False",
                            "clipSpeedAttribute" : false
                          }
                        },
                        {
                          "id" : 72,
                          "_type" : "UnifiedMedia",
                          "video" : 
                              {
                                "id" : 73,
                                "_type" : "ScreenVMFile",
                                "src" : 1,
                                "trackNumber" : 0,
                                "attributes" : {
                                  "ident" : "Rec 01-18-21"
                                },
                                "parameters" : {
                                  "cursorScale" : {
                                    "type" : "double",
                                    "defaultValue" : 0.0,
                                    "interp" : "linr"
                                  },
                                  "cursorOpacity" : {
                                    "type" : "double",
                                    "defaultValue" : 0.0,
                                    "interp" : "linr"
                                  }
                                },
                                "effects" : [

                                ],
                                "start" : 1179,
                                "duration" : 11504,
                                "mediaStart" : 1982,
                                "mediaDuration" : 11504,
                                "scalar" : 1,
                                "animationTracks" : {

                                }
                              },
                          "audio" : 
                              {
                                "id" : 74,
                                "_type" : "AMFile",
                                "src" : 1,
                                "trackNumber" : 1,
                                "attributes" : {
                                  "ident" : "",
                                  "gain" : 1.0,
                                  "mixToMono" : false
                                },
                                  "channelNumber" : "0,1",
                                "effects" : [

                                ],
                                "start" : 1179,
                                "duration" : 11504,
                                "mediaStart" : 1982,
                                "mediaDuration" : 11504,
                                "scalar" : 1,
                                "animationTracks" : {

                                }
                              }
,
                          "start" : 1179,
                          "duration" : 11504,
                          "mediaStart" : 0,
                          "mediaDuration" : 13486,
                          "scalar" : 1,
                          "metadata" : {
                            "AutoAppliedSmartFocus" : "False",
                            "clipSpeedAttribute" : false
                          }
                        }
                    ],
                    "effects" : [

                    ],
                    "start" : 136,
                    "duration" : 1209,
                    "mediaStart" : 0,
                    "mediaDuration" : 1209,
                    "scalar" : 1,
                    "metadata" : {
                      "AutoAppliedSmartFocus" : "False",
                      "clipSpeedAttribute" : false
                    },
                    "animationTracks" : {

                    }
                  },
                  {
                    "id" : 75,
                    "_type" : "StitchedMedia",
                    "minMediaStart" : 0,
                    "attributes" : {
                      "ident" : "Rec 01-18-21",
                      "gain" : 1.0,
                      "mixToMono" : false
                    },
                    "parameters" : {
                      "volume" : 1.0,
                      "cursorOpacity" : 1.0,
                      "cursorScale" : 1.0
                    },
                    "medias" : [
                        {
                          "id" : 76,
                          "_type" : "UnifiedMedia",
                          "video" : 
                              {
                                "id" : 77,
                                "_type" : "ScreenVMFile",
                                "src" : 1,
                                "trackNumber" : 0,
                                "attributes" : {
                                  "ident" : "Rec 01-18-21"
                                },
                                "parameters" : {
                                  "cursorScale" : {
                                    "type" : "double",
                                    "defaultValue" : 0.0,
                                    "interp" : "linr"
                                  },
                                  "cursorOpacity" : {
                                    "type" : "double",
                                    "defaultValue" : 0.0,
                                    "interp" : "linr"
                                  }
                                },
                                "effects" : [

                                ],
                                "start" : 0,
                                "duration" : 300,
                                "mediaStart" : 0,
                                "mediaDuration" : 300,
                                "scalar" : 1,
                                "animationTracks" : {

                                }
                              },
                          "audio" : 
                              {
                                "id" : 78,
                                "_type" : "AMFile",
                                "src" : 1,
                                "trackNumber" : 1,
                                "attributes" : {
                                  "ident" : "",
                                  "gain" : 1.0,
                                  "mixToMono" : false
                                },
                                  "channelNumber" : "0,1",
                                "effects" : [

                                ],
                                "start" : 0,
                                "duration" : 300,
                                "mediaStart" : 0,
                                "mediaDuration" : 300,
                                "scalar" : 1,
                                "animationTracks" : {

                                }
                              }
,
                          "start" : 0,
                          "duration" : 300,
                          "mediaStart" : 0,
                          "mediaDuration" : 13486,
                          "scalar" : 1,
                          "metadata" : {
                            "AutoAppliedSmartFocus" : "False",
                            "clipSpeedAttribute" : false
                          }
                        },
                        {
                          "id" : 79,
                          "_type" : "UnifiedMedia",
                          "video" : 
                              {
                                "id" : 80,
                                "_type" : "ScreenVMFile",
                                "src" : 1,
                                "trackNumber" : 0,
                                "attributes" : {
                                  "ident" : "Rec 01-18-21"
                                },
                                "parameters" : {
                                  "cursorScale" : {
                                    "type" : "double",
                                    "defaultValue" : 0.0,
                                    "interp" : "linr"
                                  },
                                  "cursorOpacity" : {
                                    "type" : "double",
                                    "defaultValue" : 0.0,
                                    "interp" : "linr"
                                  }
                                },
                                "effects" : [

                                ],
                                "start" : 300,
                                "duration" : 52,
                                "mediaStart" : 313,
                                "mediaDuration" : 52,
                                "scalar" : 1,
                                "animationTracks" : {

                                }
                              },
                          "audio" : 
                              {
                                "id" : 81,
                                "_type" : "AMFile",
                                "src" : 1,
                                "trackNumber" : 1,
                                "attributes" : {
                                  "ident" : "",
                                  "gain" : 1.0,
                                  "mixToMono" : false
                                },
                                  "channelNumber" : "0,1",
                                "effects" : [

                                ],
                                "start" : 300,
                                "duration" : 52,
                                "mediaStart" : 313,
                                "mediaDuration" : 52,
                                "scalar" : 1,
                                "animationTracks" : {

                                }
                              }
,
                          "start" : 300,
                          "duration" : 52,
                          "mediaStart" : 0,
                          "mediaDuration" : 13486,
                          "scalar" : 1,
                          "metadata" : {
                            "AutoAppliedSmartFocus" : "False",
                            "clipSpeedAttribute" : false
                          }
                        },
                        {
                          "id" : 82,
                          "_type" : "UnifiedMedia",
                          "video" : 
                              {
                                "id" : 83,
                                "_type" : "ScreenVMFile",
                                "src" : 1,
                                "trackNumber" : 0,
                                "attributes" : {
                                  "ident" : "Rec 01-18-21"
                                },
                                "parameters" : {
                                  "cursorScale" : {
                                    "type" : "double",
                                    "defaultValue" : 0.0,
                                    "interp" : "linr"
                                  },
                                  "cursorOpacity" : {
                                    "type" : "double",
                                    "defaultValue" : 0.0,
                                    "interp" : "linr"
                                  }
                                },
                                "effects" : [

                                ],
                                "start" : 352,
                                "duration" : 63,
                                "mediaStart" : 439,
                                "mediaDuration" : 63,
                                "scalar" : 1,
                                "animationTracks" : {

                                }
                              },
                          "audio" : 
                              {
                                "id" : 84,
                                "_type" : "AMFile",
                                "src" : 1,
                                "trackNumber" : 1,
                                "attributes" : {
                                  "ident" : "",
                                  "gain" : 1.0,
                                  "mixToMono" : false
                                },
                                  "channelNumber" : "0,1",
                                "effects" : [

                                ],
                                "start" : 352,
                                "duration" : 63,
                                "mediaStart" : 439,
                                "mediaDuration" : 63,
                                "scalar" : 1,
                                "animationTracks" : {

                                }
                              }
,
                          "start" : 352,
                          "duration" : 63,
                          "mediaStart" : 0,
                          "mediaDuration" : 13486,
                          "scalar" : 1,
                          "metadata" : {
                            "AutoAppliedSmartFocus" : "False",
                            "clipSpeedAttribute" : false
                          }
                        },
                        {
                          "id" : 85,
                          "_type" : "UnifiedMedia",
                          "video" : 
                              {
                                "id" : 86,
                                "_type" : "ScreenVMFile",
                                "src" : 1,
                                "trackNumber" : 0,
                                "attributes" : {
                                  "ident" : "Rec 01-18-21"
                                },
                                "parameters" : {
                                  "cursorScale" : {
                                    "type" : "double",
                                    "defaultValue" : 0.0,
                                    "interp" : "linr"
                                  },
                                  "cursorOpacity" : {
                                    "type" : "double",
                                    "defaultValue" : 0.0,
                                    "interp" : "linr"
                                  }
                                },
                                "effects" : [

                                ],
                                "start" : 415,
                                "duration" : 17,
                                "mediaStart" : 573,
                                "mediaDuration" : 17,
                                "scalar" : 1,
                                "animationTracks" : {

                                }
                              },
                          "audio" : 
                              {
                                "id" : 87,
                                "_type" : "AMFile",
                                "src" : 1,
                                "trackNumber" : 1,
                                "attributes" : {
                                  "ident" : "",
                                  "gain" : 1.0,
                                  "mixToMono" : false
                                },
                                  "channelNumber" : "0,1",
                                "effects" : [

                                ],
                                "start" : 415,
                                "duration" : 17,
                                "mediaStart" : 573,
                                "mediaDuration" : 17,
                                "scalar" : 1,
                                "animationTracks" : {

                                }
                              }
,
                          "start" : 415,
                          "duration" : 17,
                          "mediaStart" : 0,
                          "mediaDuration" : 13486,
                          "scalar" : 1,
                          "metadata" : {
                            "AutoAppliedSmartFocus" : "False",
                            "clipSpeedAttribute" : false
                          }
                        },
                        {
                          "id" : 88,
                          "_type" : "UnifiedMedia",
                          "video" : 
                              {
                                "id" : 89,
                                "_type" : "ScreenVMFile",
                                "src" : 1,
                                "trackNumber" : 0,
                                "attributes" : {
                                  "ident" : "Rec 01-18-21"
                                },
                                "parameters" : {
                                  "cursorScale" : {
                                    "type" : "double",
                                    "defaultValue" : 0.0,
                                    "interp" : "linr"
                                  },
                                  "cursorOpacity" : {
                                    "type" : "double",
                                    "defaultValue" : 0.0,
                                    "interp" : "linr"
                                  }
                                },
                                "effects" : [

                                ],
                                "start" : 432,
                                "duration" : 23,
                                "mediaStart" : 597,
                                "mediaDuration" : 23,
                                "scalar" : 1,
                                "animationTracks" : {

                                }
                              },
                          "audio" : 
                              {
                                "id" : 90,
                                "_type" : "AMFile",
                                "src" : 1,
                                "trackNumber" : 1,
                                "attributes" : {
                                  "ident" : "",
                                  "gain" : 1.0,
                                  "mixToMono" : false
                                },
                                  "channelNumber" : "0,1",
                                "effects" : [

                                ],
                                "start" : 432,
                                "duration" : 23,
                                "mediaStart" : 597,
                                "mediaDuration" : 23,
                                "scalar" : 1,
                                "animationTracks" : {

                                }
                              }
,
                          "start" : 432,
                          "duration" : 23,
                          "mediaStart" : 0,
                          "mediaDuration" : 13486,
                          "scalar" : 1,
                          "metadata" : {
                            "AutoAppliedSmartFocus" : "False",
                            "clipSpeedAttribute" : false
                          }
                        },
                        {
                          "id" : 91,
                          "_type" : "UnifiedMedia",
                          "video" : 
                              {
                                "id" : 92,
                                "_type" : "ScreenVMFile",
                                "src" : 1,
                                "trackNumber" : 0,
                                "attributes" : {
                                  "ident" : "Rec 01-18-21"
                                },
                                "parameters" : {
                                  "cursorScale" : {
                                    "type" : "double",
                                    "defaultValue" : 0.0,
                                    "interp" : "linr"
                                  },
                                  "cursorOpacity" : {
                                    "type" : "double",
                                    "defaultValue" : 0.0,
                                    "interp" : "linr"
                                  }
                                },
                                "effects" : [

                                ],
                                "start" : 455,
                                "duration" : 49,
                                "mediaStart" : 627,
                                "mediaDuration" : 49,
                                "scalar" : 1,
                                "animationTracks" : {

                                }
                              },
                          "audio" : 
                              {
                                "id" : 93,
                                "_type" : "AMFile",
                                "src" : 1,
                                "trackNumber" : 1,
                                "attributes" : {
                                  "ident" : "",
                                  "gain" : 1.0,
                                  "mixToMono" : false
                                },
                                  "channelNumber" : "0,1",
                                "effects" : [

                                ],
                                "start" : 455,
                                "duration" : 49,
                                "mediaStart" : 627,
                                "mediaDuration" : 49,
                                "scalar" : 1,
                                "animationTracks" : {

                                }
                              }
,
                          "start" : 455,
                          "duration" : 49,
                          "mediaStart" : 0,
                          "mediaDuration" : 13486,
                          "scalar" : 1,
                          "metadata" : {
                            "AutoAppliedSmartFocus" : "False",
                            "clipSpeedAttribute" : false
                          }
                        },
                        {
                          "id" : 94,
                          "_type" : "UnifiedMedia",
                          "video" : 
                              {
                                "id" : 95,
                                "_type" : "ScreenVMFile",
                                "src" : 1,
                                "trackNumber" : 0,
                                "attributes" : {
                                  "ident" : "Rec 01-18-21"
                                },
                                "parameters" : {
                                  "cursorScale" : {
                                    "type" : "double",
                                    "defaultValue" : 0.0,
                                    "interp" : "linr"
                                  },
                                  "cursorOpacity" : {
                                    "type" : "double",
                                    "defaultValue" : 0.0,
                                    "interp" : "linr"
                                  }
                                },
                                "effects" : [

                                ],
                                "start" : 504,
                                "duration" : 435,
                                "mediaStart" : 820,
                                "mediaDuration" : 435,
                                "scalar" : 1,
                                "animationTracks" : {

                                }
                              },
                          "audio" : 
                              {
                                "id" : 96,
                                "_type" : "AMFile",
                                "src" : 1,
                                "trackNumber" : 1,
                                "attributes" : {
                                  "ident" : "",
                                  "gain" : 1.0,
                                  "mixToMono" : false
                                },
                                  "channelNumber" : "0,1",
                                "effects" : [

                                ],
                                "start" : 504,
                                "duration" : 435,
                                "mediaStart" : 820,
                                "mediaDuration" : 435,
                                "scalar" : 1,
                                "animationTracks" : {

                                }
                              }
,
                          "start" : 504,
                          "duration" : 435,
                          "mediaStart" : 0,
                          "mediaDuration" : 13486,
                          "scalar" : 1,
                          "metadata" : {
                            "AutoAppliedSmartFocus" : "False",
                            "clipSpeedAttribute" : false
                          }
                        },
                        {
                          "id" : 97,
                          "_type" : "UnifiedMedia",
                          "video" : 
                              {
                                "id" : 98,
                                "_type" : "ScreenVMFile",
                                "src" : 1,
                                "trackNumber" : 0,
                                "attributes" : {
                                  "ident" : "Rec 01-18-21"
                                },
                                "parameters" : {
                                  "cursorScale" : {
                                    "type" : "double",
                                    "defaultValue" : 0.0,
                                    "interp" : "linr"
                                  },
                                  "cursorOpacity" : {
                                    "type" : "double",
                                    "defaultValue" : 0.0,
                                    "interp" : "linr"
                                  }
                                },
                                "effects" : [

                                ],
                                "start" : 939,
                                "duration" : 21,
                                "mediaStart" : 1268,
                                "mediaDuration" : 21,
                                "scalar" : 1,
                                "animationTracks" : {

                                }
                              },
                          "audio" : 
                              {
                                "id" : 99,
                                "_type" : "AMFile",
                                "src" : 1,
                                "trackNumber" : 1,
                                "attributes" : {
                                  "ident" : "",
                                  "gain" : 1.0,
                                  "mixToMono" : false
                                },
                                  "channelNumber" : "0,1",
                                "effects" : [

                                ],
                                "start" : 939,
                                "duration" : 21,
                                "mediaStart" : 1268,
                                "mediaDuration" : 21,
                                "scalar" : 1,
                                "animationTracks" : {

                                }
                              }
,
                          "start" : 939,
                          "duration" : 21,
                          "mediaStart" : 0,
                          "mediaDuration" : 13486,
                          "scalar" : 1,
                          "metadata" : {
                            "AutoAppliedSmartFocus" : "False",
                            "clipSpeedAttribute" : false
                          }
                        },
                        {
                          "id" : 100,
                          "_type" : "UnifiedMedia",
                          "video" : 
                              {
                                "id" : 101,
                                "_type" : "ScreenVMFile",
                                "src" : 1,
                                "trackNumber" : 0,
                                "attributes" : {
                                  "ident" : "Rec 01-18-21"
                                },
                                "parameters" : {
                                  "cursorScale" : {
                                    "type" : "double",
                                    "defaultValue" : 0.0,
                                    "interp" : "linr"
                                  },
                                  "cursorOpacity" : {
                                    "type" : "double",
                                    "defaultValue" : 0.0,
                                    "interp" : "linr"
                                  }
                                },
                                "effects" : [

                                ],
                                "start" : 960,
                                "duration" : 68,
                                "mediaStart" : 1296,
                                "mediaDuration" : 68,
                                "scalar" : 1,
                                "animationTracks" : {

                                }
                              },
                          "audio" : 
                              {
                                "id" : 102,
                                "_type" : "AMFile",
                                "src" : 1,
                                "trackNumber" : 1,
                                "attributes" : {
                                  "ident" : "",
                                  "gain" : 1.0,
                                  "mixToMono" : false
                                },
                                  "channelNumber" : "0,1",
                                "effects" : [

                                ],
                                "start" : 960,
                                "duration" : 68,
                                "mediaStart" : 1296,
                                "mediaDuration" : 68,
                                "scalar" : 1,
                                "animationTracks" : {

                                }
                              }
,
                          "start" : 960,
                          "duration" : 68,
                          "mediaStart" : 0,
                          "mediaDuration" : 13486,
                          "scalar" : 1,
                          "metadata" : {
                            "AutoAppliedSmartFocus" : "False",
                            "clipSpeedAttribute" : false
                          }
                        },
                        {
                          "id" : 103,
                          "_type" : "UnifiedMedia",
                          "video" : 
                              {
                                "id" : 104,
                                "_type" : "ScreenVMFile",
                                "src" : 1,
                                "trackNumber" : 0,
                                "attributes" : {
                                  "ident" : "Rec 01-18-21"
                                },
                                "parameters" : {
                                  "cursorScale" : {
                                    "type" : "double",
                                    "defaultValue" : 0.0,
                                    "interp" : "linr"
                                  },
                                  "cursorOpacity" : {
                                    "type" : "double",
                                    "defaultValue" : 0.0,
                                    "interp" : "linr"
                                  }
                                },
                                "effects" : [

                                ],
                                "start" : 1028,
                                "duration" : 97,
                                "mediaStart" : 1774,
                                "mediaDuration" : 97,
                                "scalar" : 1,
                                "animationTracks" : {

                                }
                              },
                          "audio" : 
                              {
                                "id" : 105,
                                "_type" : "AMFile",
                                "src" : 1,
                                "trackNumber" : 1,
                                "attributes" : {
                                  "ident" : "",
                                  "gain" : 1.0,
                                  "mixToMono" : false
                                },
                                  "channelNumber" : "0,1",
                                "effects" : [

                                ],
                                "start" : 1028,
                                "duration" : 97,
                                "mediaStart" : 1774,
                                "mediaDuration" : 97,
                                "scalar" : 1,
                                "animationTracks" : {

                                }
                              }
,
                          "start" : 1028,
                          "duration" : 97,
                          "mediaStart" : 0,
                          "mediaDuration" : 13486,
                          "scalar" : 1,
                          "metadata" : {
                            "AutoAppliedSmartFocus" : "False",
                            "clipSpeedAttribute" : false
                          }
                        },
                        {
                          "id" : 106,
                          "_type" : "UnifiedMedia",
                          "video" : 
                              {
                                "id" : 107,
                                "_type" : "ScreenVMFile",
                                "src" : 1,
                                "trackNumber" : 0,
                                "attributes" : {
                                  "ident" : "Rec 01-18-21"
                                },
                                "parameters" : {
                                  "cursorScale" : {
                                    "type" : "double",
                                    "defaultValue" : 0.0,
                                    "interp" : "linr"
                                  },
                                  "cursorOpacity" : {
                                    "type" : "double",
                                    "defaultValue" : 0.0,
                                    "interp" : "linr"
                                  }
                                },
                                "effects" : [

                                ],
                                "start" : 1125,
                                "duration" : 40,
                                "mediaStart" : 1903,
                                "mediaDuration" : 40,
                                "scalar" : 1,
                                "animationTracks" : {

                                }
                              },
                          "audio" : 
                              {
                                "id" : 108,
                                "_type" : "AMFile",
                                "src" : 1,
                                "trackNumber" : 1,
                                "attributes" : {
                                  "ident" : "",
                                  "gain" : 1.0,
                                  "mixToMono" : false
                                },
                                  "channelNumber" : "0,1",
                                "effects" : [

                                ],
                                "start" : 1125,
                                "duration" : 40,
                                "mediaStart" : 1903,
                                "mediaDuration" : 40,
                                "scalar" : 1,
                                "animationTracks" : {

                                }
                              }
,
                          "start" : 1125,
                          "duration" : 40,
                          "mediaStart" : 0,
                          "mediaDuration" : 13486,
                          "scalar" : 1,
                          "metadata" : {
                            "AutoAppliedSmartFocus" : "False",
                            "clipSpeedAttribute" : false
                          }
                        },
                        {
                          "id" : 109,
                          "_type" : "UnifiedMedia",
                          "video" : 
                              {
                                "id" : 110,
                                "_type" : "ScreenVMFile",
                                "src" : 1,
                                "trackNumber" : 0,
                                "attributes" : {
                                  "ident" : "Rec 01-18-21"
                                },
                                "parameters" : {
                                  "cursorScale" : {
                                    "type" : "double",
                                    "defaultValue" : 0.0,
                                    "interp" : "linr"
                                  },
                                  "cursorOpacity" : {
                                    "type" : "double",
                                    "defaultValue" : 0.0,
                                    "interp" : "linr"
                                  }
                                },
                                "effects" : [

                                ],
                                "start" : 1165,
                                "duration" : 14,
                                "mediaStart" : 1954,
                                "mediaDuration" : 14,
                                "scalar" : 1,
                                "animationTracks" : {

                                }
                              },
                          "audio" : 
                              {
                                "id" : 111,
                                "_type" : "AMFile",
                                "src" : 1,
                                "trackNumber" : 1,
                                "attributes" : {
                                  "ident" : "",
                                  "gain" : 1.0,
                                  "mixToMono" : false
                                },
                                  "channelNumber" : "0,1",
                                "effects" : [

                                ],
                                "start" : 1165,
                                "duration" : 14,
                                "mediaStart" : 1954,
                                "mediaDuration" : 14,
                                "scalar" : 1,
                                "animationTracks" : {

                                }
                              }
,
                          "start" : 1165,
                          "duration" : 14,
                          "mediaStart" : 0,
                          "mediaDuration" : 13486,
                          "scalar" : 1,
                          "metadata" : {
                            "AutoAppliedSmartFocus" : "False",
                            "clipSpeedAttribute" : false
                          }
                        },
                        {
                          "id" : 112,
                          "_type" : "UnifiedMedia",
                          "video" : 
                              {
                                "id" : 113,
                                "_type" : "ScreenVMFile",
                                "src" : 1,
                                "trackNumber" : 0,
                                "attributes" : {
                                  "ident" : "Rec 01-18-21"
                                },
                                "parameters" : {
                                  "cursorScale" : {
                                    "type" : "double",
                                    "defaultValue" : 0.0,
                                    "interp" : "linr"
                                  },
                                  "cursorOpacity" : {
                                    "type" : "double",
                                    "defaultValue" : 0.0,
                                    "interp" : "linr"
                                  }
                                },
                                "effects" : [

                                ],
                                "start" : 1179,
                                "duration" : 670,
                                "mediaStart" : 1982,
                                "mediaDuration" : 670,
                                "scalar" : 1,
                                "animationTracks" : {

                                }
                              },
                          "audio" : 
                              {
                                "id" : 114,
                                "_type" : "AMFile",
                                "src" : 1,
                                "trackNumber" : 1,
                                "attributes" : {
                                  "ident" : "",
                                  "gain" : 1.0,
                                  "mixToMono" : false
                                },
                                  "channelNumber" : "0,1",
                                "effects" : [

                                ],
                                "start" : 1179,
                                "duration" : 670,
                                "mediaStart" : 1982,
                                "mediaDuration" : 670,
                                "scalar" : 1,
                                "animationTracks" : {

                                }
                              }
,
                          "start" : 1179,
                          "duration" : 670,
                          "mediaStart" : 0,
                          "mediaDuration" : 13486,
                          "scalar" : 1,
                          "metadata" : {
                            "AutoAppliedSmartFocus" : "False",
                            "clipSpeedAttribute" : false
                          }
                        },
                        {
                          "id" : 115,
                          "_type" : "UnifiedMedia",
                          "video" : 
                              {
                                "id" : 116,
                                "_type" : "ScreenVMFile",
                                "src" : 1,
                                "trackNumber" : 0,
                                "attributes" : {
                                  "ident" : "Rec 01-18-21"
                                },
                                "parameters" : {
                                  "cursorScale" : {
                                    "type" : "double",
                                    "defaultValue" : 0.0,
                                    "interp" : "linr"
                                  },
                                  "cursorOpacity" : {
                                    "type" : "double",
                                    "defaultValue" : 0.0,
                                    "interp" : "linr"
                                  }
                                },
                                "effects" : [

                                ],
                                "start" : 1849,
                                "duration" : 10820,
                                "mediaStart" : 2666,
                                "mediaDuration" : 10820,
                                "scalar" : 1,
                                "animationTracks" : {

                                }
                              },
                          "audio" : 
                              {
                                "id" : 117,
                                "_type" : "AMFile",
                                "src" : 1,
                                "trackNumber" : 1,
                                "attributes" : {
                                  "ident" : "",
                                  "gain" : 1.0,
                                  "mixToMono" : false
                                },
                                  "channelNumber" : "0,1",
                                "effects" : [

                                ],
                                "start" : 1849,
                                "duration" : 10820,
                                "mediaStart" : 2666,
                                "mediaDuration" : 10820,
                                "scalar" : 1,
                                "animationTracks" : {

                                }
                              }
,
                          "start" : 1849,
                          "duration" : 10820,
                          "mediaStart" : 0,
                          "mediaDuration" : 13486,
                          "scalar" : 1,
                          "metadata" : {
                            "AutoAppliedSmartFocus" : "False",
                            "clipSpeedAttribute" : false
                          }
                        }
                    ],
                    "effects" : [

                    ],
                    "start" : 1345,
                    "duration" : 291,
                    "mediaStart" : 1659,
                    "mediaDuration" : 291,
                    "scalar" : 1,
                    "metadata" : {
                      "AutoAppliedSmartFocus" : "False",
                      "clipSpeedAttribute" : false
                    },
                    "animationTracks" : {

                    }
                  },
                  {
                    "id" : 118,
                    "_type" : "StitchedMedia",
                    "minMediaStart" : 0,
                    "attributes" : {
                      "ident" : "Rec 01-18-21",
                      "gain" : 1.0,
                      "mixToMono" : false
                    },
                    "parameters" : {
                      "volume" : 1.0,
                      "cursorOpacity" : 1.0,
                      "cursorScale" : 1.0
                    },
                    "medias" : [
                        {
                          "id" : 119,
                          "_type" : "UnifiedMedia",
                          "video" : 
                              {
                                "id" : 120,
                                "_type" : "ScreenVMFile",
                                "src" : 1,
                                "trackNumber" : 0,
                                "attributes" : {
                                  "ident" : "Rec 01-18-21"
                                },
                                "parameters" : {
                                  "cursorScale" : {
                                    "type" : "double",
                                    "defaultValue" : 0.0,
                                    "interp" : "linr"
                                  },
                                  "cursorOpacity" : {
                                    "type" : "double",
                                    "defaultValue" : 0.0,
                                    "interp" : "linr"
                                  }
                                },
                                "effects" : [

                                ],
                                "start" : 0,
                                "duration" : 300,
                                "mediaStart" : 0,
                                "mediaDuration" : 300,
                                "scalar" : 1,
                                "animationTracks" : {

                                }
                              },
                          "audio" : 
                              {
                                "id" : 121,
                                "_type" : "AMFile",
                                "src" : 1,
                                "trackNumber" : 1,
                                "attributes" : {
                                  "ident" : "",
                                  "gain" : 1.0,
                                  "mixToMono" : false
                                },
                                  "channelNumber" : "0,1",
                                "effects" : [

                                ],
                                "start" : 0,
                                "duration" : 300,
                                "mediaStart" : 0,
                                "mediaDuration" : 300,
                                "scalar" : 1,
                                "animationTracks" : {

                                }
                              }
,
                          "start" : 0,
                          "duration" : 300,
                          "mediaStart" : 0,
                          "mediaDuration" : 13486,
                          "scalar" : 1,
                          "metadata" : {
                            "AutoAppliedSmartFocus" : "False",
                            "clipSpeedAttribute" : false
                          }
                        },
                        {
                          "id" : 122,
                          "_type" : "UnifiedMedia",
                          "video" : 
                              {
                                "id" : 123,
                                "_type" : "ScreenVMFile",
                                "src" : 1,
                                "trackNumber" : 0,
                                "attributes" : {
                                  "ident" : "Rec 01-18-21"
                                },
                                "parameters" : {
                                  "cursorScale" : {
                                    "type" : "double",
                                    "defaultValue" : 0.0,
                                    "interp" : "linr"
                                  },
                                  "cursorOpacity" : {
                                    "type" : "double",
                                    "defaultValue" : 0.0,
                                    "interp" : "linr"
                                  }
                                },
                                "effects" : [

                                ],
                                "start" : 300,
                                "duration" : 52,
                                "mediaStart" : 313,
                                "mediaDuration" : 52,
                                "scalar" : 1,
                                "animationTracks" : {

                                }
                              },
                          "audio" : 
                              {
                                "id" : 124,
                                "_type" : "AMFile",
                                "src" : 1,
                                "trackNumber" : 1,
                                "attributes" : {
                                  "ident" : "",
                                  "gain" : 1.0,
                                  "mixToMono" : false
                                },
                                  "channelNumber" : "0,1",
                                "effects" : [

                                ],
                                "start" : 300,
                                "duration" : 52,
                                "mediaStart" : 313,
                                "mediaDuration" : 52,
                                "scalar" : 1,
                                "animationTracks" : {

                                }
                              }
,
                          "start" : 300,
                          "duration" : 52,
                          "mediaStart" : 0,
                          "mediaDuration" : 13486,
                          "scalar" : 1,
                          "metadata" : {
                            "AutoAppliedSmartFocus" : "False",
                            "clipSpeedAttribute" : false
                          }
                        },
                        {
                          "id" : 125,
                          "_type" : "UnifiedMedia",
                          "video" : 
                              {
                                "id" : 126,
                                "_type" : "ScreenVMFile",
                                "src" : 1,
                                "trackNumber" : 0,
                                "attributes" : {
                                  "ident" : "Rec 01-18-21"
                                },
                                "parameters" : {
                                  "cursorScale" : {
                                    "type" : "double",
                                    "defaultValue" : 0.0,
                                    "interp" : "linr"
                                  },
                                  "cursorOpacity" : {
                                    "type" : "double",
                                    "defaultValue" : 0.0,
                                    "interp" : "linr"
                                  }
                                },
                                "effects" : [

                                ],
                                "start" : 352,
                                "duration" : 63,
                                "mediaStart" : 439,
                                "mediaDuration" : 63,
                                "scalar" : 1,
                                "animationTracks" : {

                                }
                              },
                          "audio" : 
                              {
                                "id" : 127,
                                "_type" : "AMFile",
                                "src" : 1,
                                "trackNumber" : 1,
                                "attributes" : {
                                  "ident" : "",
                                  "gain" : 1.0,
                                  "mixToMono" : false
                                },
                                  "channelNumber" : "0,1",
                                "effects" : [

                                ],
                                "start" : 352,
                                "duration" : 63,
                                "mediaStart" : 439,
                                "mediaDuration" : 63,
                                "scalar" : 1,
                                "animationTracks" : {

                                }
                              }
,
                          "start" : 352,
                          "duration" : 63,
                          "mediaStart" : 0,
                          "mediaDuration" : 13486,
                          "scalar" : 1,
                          "metadata" : {
                            "AutoAppliedSmartFocus" : "False",
                            "clipSpeedAttribute" : false
                          }
                        },
                        {
                          "id" : 128,
                          "_type" : "UnifiedMedia",
                          "video" : 
                              {
                                "id" : 129,
                                "_type" : "ScreenVMFile",
                                "src" : 1,
                                "trackNumber" : 0,
                                "attributes" : {
                                  "ident" : "Rec 01-18-21"
                                },
                                "parameters" : {
                                  "cursorScale" : {
                                    "type" : "double",
                                    "defaultValue" : 0.0,
                                    "interp" : "linr"
                                  },
                                  "cursorOpacity" : {
                                    "type" : "double",
                                    "defaultValue" : 0.0,
                                    "interp" : "linr"
                                  }
                                },
                                "effects" : [

                                ],
                                "start" : 415,
                                "duration" : 17,
                                "mediaStart" : 573,
                                "mediaDuration" : 17,
                                "scalar" : 1,
                                "animationTracks" : {

                                }
                              },
                          "audio" : 
                              {
                                "id" : 130,
                                "_type" : "AMFile",
                                "src" : 1,
                                "trackNumber" : 1,
                                "attributes" : {
                                  "ident" : "",
                                  "gain" : 1.0,
                                  "mixToMono" : false
                                },
                                  "channelNumber" : "0,1",
                                "effects" : [

                                ],
                                "start" : 415,
                                "duration" : 17,
                                "mediaStart" : 573,
                                "mediaDuration" : 17,
                                "scalar" : 1,
                                "animationTracks" : {

                                }
                              }
,
                          "start" : 415,
                          "duration" : 17,
                          "mediaStart" : 0,
                          "mediaDuration" : 13486,
                          "scalar" : 1,
                          "metadata" : {
                            "AutoAppliedSmartFocus" : "False",
                            "clipSpeedAttribute" : false
                          }
                        },
                        {
                          "id" : 131,
                          "_type" : "UnifiedMedia",
                          "video" : 
                              {
                                "id" : 132,
                                "_type" : "ScreenVMFile",
                                "src" : 1,
                                "trackNumber" : 0,
                                "attributes" : {
                                  "ident" : "Rec 01-18-21"
                                },
                                "parameters" : {
                                  "cursorScale" : {
                                    "type" : "double",
                                    "defaultValue" : 0.0,
                                    "interp" : "linr"
                                  },
                                  "cursorOpacity" : {
                                    "type" : "double",
                                    "defaultValue" : 0.0,
                                    "interp" : "linr"
                                  }
                                },
                                "effects" : [

                                ],
                                "start" : 432,
                                "duration" : 23,
                                "mediaStart" : 597,
                                "mediaDuration" : 23,
                                "scalar" : 1,
                                "animationTracks" : {

                                }
                              },
                          "audio" : 
                              {
                                "id" : 133,
                                "_type" : "AMFile",
                                "src" : 1,
                                "trackNumber" : 1,
                                "attributes" : {
                                  "ident" : "",
                                  "gain" : 1.0,
                                  "mixToMono" : false
                                },
                                  "channelNumber" : "0,1",
                                "effects" : [

                                ],
                                "start" : 432,
                                "duration" : 23,
                                "mediaStart" : 597,
                                "mediaDuration" : 23,
                                "scalar" : 1,
                                "animationTracks" : {

                                }
                              }
,
                          "start" : 432,
                          "duration" : 23,
                          "mediaStart" : 0,
                          "mediaDuration" : 13486,
                          "scalar" : 1,
                          "metadata" : {
                            "AutoAppliedSmartFocus" : "False",
                            "clipSpeedAttribute" : false
                          }
                        },
                        {
                          "id" : 134,
                          "_type" : "UnifiedMedia",
                          "video" : 
                              {
                                "id" : 135,
                                "_type" : "ScreenVMFile",
                                "src" : 1,
                                "trackNumber" : 0,
                                "attributes" : {
                                  "ident" : "Rec 01-18-21"
                                },
                                "parameters" : {
                                  "cursorScale" : {
                                    "type" : "double",
                                    "defaultValue" : 0.0,
                                    "interp" : "linr"
                                  },
                                  "cursorOpacity" : {
                                    "type" : "double",
                                    "defaultValue" : 0.0,
                                    "interp" : "linr"
                                  }
                                },
                                "effects" : [

                                ],
                                "start" : 455,
                                "duration" : 49,
                                "mediaStart" : 627,
                                "mediaDuration" : 49,
                                "scalar" : 1,
                                "animationTracks" : {

                                }
                              },
                          "audio" : 
                              {
                                "id" : 136,
                                "_type" : "AMFile",
                                "src" : 1,
                                "trackNumber" : 1,
                                "attributes" : {
                                  "ident" : "",
                                  "gain" : 1.0,
                                  "mixToMono" : false
                                },
                                  "channelNumber" : "0,1",
                                "effects" : [

                                ],
                                "start" : 455,
                                "duration" : 49,
                                "mediaStart" : 627,
                                "mediaDuration" : 49,
                                "scalar" : 1,
                                "animationTracks" : {

                                }
                              }
,
                          "start" : 455,
                          "duration" : 49,
                          "mediaStart" : 0,
                          "mediaDuration" : 13486,
                          "scalar" : 1,
                          "metadata" : {
                            "AutoAppliedSmartFocus" : "False",
                            "clipSpeedAttribute" : false
                          }
                        },
                        {
                          "id" : 137,
                          "_type" : "UnifiedMedia",
                          "video" : 
                              {
                                "id" : 138,
                                "_type" : "ScreenVMFile",
                                "src" : 1,
                                "trackNumber" : 0,
                                "attributes" : {
                                  "ident" : "Rec 01-18-21"
                                },
                                "parameters" : {
                                  "cursorScale" : {
                                    "type" : "double",
                                    "defaultValue" : 0.0,
                                    "interp" : "linr"
                                  },
                                  "cursorOpacity" : {
                                    "type" : "double",
                                    "defaultValue" : 0.0,
                                    "interp" : "linr"
                                  }
                                },
                                "effects" : [

                                ],
                                "start" : 504,
                                "duration" : 435,
                                "mediaStart" : 820,
                                "mediaDuration" : 435,
                                "scalar" : 1,
                                "animationTracks" : {

                                }
                              },
                          "audio" : 
                              {
                                "id" : 139,
                                "_type" : "AMFile",
                                "src" : 1,
                                "trackNumber" : 1,
                                "attributes" : {
                                  "ident" : "",
                                  "gain" : 1.0,
                                  "mixToMono" : false
                                },
                                  "channelNumber" : "0,1",
                                "effects" : [

                                ],
                                "start" : 504,
                                "duration" : 435,
                                "mediaStart" : 820,
                                "mediaDuration" : 435,
                                "scalar" : 1,
                                "animationTracks" : {

                                }
                              }
,
                          "start" : 504,
                          "duration" : 435,
                          "mediaStart" : 0,
                          "mediaDuration" : 13486,
                          "scalar" : 1,
                          "metadata" : {
                            "AutoAppliedSmartFocus" : "False",
                            "clipSpeedAttribute" : false
                          }
                        },
                        {
                          "id" : 140,
                          "_type" : "UnifiedMedia",
                          "video" : 
                              {
                                "id" : 141,
                                "_type" : "ScreenVMFile",
                                "src" : 1,
                                "trackNumber" : 0,
                                "attributes" : {
                                  "ident" : "Rec 01-18-21"
                                },
                                "parameters" : {
                                  "cursorScale" : {
                                    "type" : "double",
                                    "defaultValue" : 0.0,
                                    "interp" : "linr"
                                  },
                                  "cursorOpacity" : {
                                    "type" : "double",
                                    "defaultValue" : 0.0,
                                    "interp" : "linr"
                                  }
                                },
                                "effects" : [

                                ],
                                "start" : 939,
                                "duration" : 21,
                                "mediaStart" : 1268,
                                "mediaDuration" : 21,
                                "scalar" : 1,
                                "animationTracks" : {

                                }
                              },
                          "audio" : 
                              {
                                "id" : 142,
                                "_type" : "AMFile",
                                "src" : 1,
                                "trackNumber" : 1,
                                "attributes" : {
                                  "ident" : "",
                                  "gain" : 1.0,
                                  "mixToMono" : false
                                },
                                  "channelNumber" : "0,1",
                                "effects" : [

                                ],
                                "start" : 939,
                                "duration" : 21,
                                "mediaStart" : 1268,
                                "mediaDuration" : 21,
                                "scalar" : 1,
                                "animationTracks" : {

                                }
                              }
,
                          "start" : 939,
                          "duration" : 21,
                          "mediaStart" : 0,
                          "mediaDuration" : 13486,
                          "scalar" : 1,
                          "metadata" : {
                            "AutoAppliedSmartFocus" : "False",
                            "clipSpeedAttribute" : false
                          }
                        },
                        {
                          "id" : 143,
                          "_type" : "UnifiedMedia",
                          "video" : 
                              {
                                "id" : 144,
                                "_type" : "ScreenVMFile",
                                "src" : 1,
                                "trackNumber" : 0,
                                "attributes" : {
                                  "ident" : "Rec 01-18-21"
                                },
                                "parameters" : {
                                  "cursorScale" : {
                                    "type" : "double",
                                    "defaultValue" : 0.0,
                                    "interp" : "linr"
                                  },
                                  "cursorOpacity" : {
                                    "type" : "double",
                                    "defaultValue" : 0.0,
                                    "interp" : "linr"
                                  }
                                },
                                "effects" : [

                                ],
                                "start" : 960,
                                "duration" : 68,
                                "mediaStart" : 1296,
                                "mediaDuration" : 68,
                                "scalar" : 1,
                                "animationTracks" : {

                                }
                              },
                          "audio" : 
                              {
                                "id" : 145,
                                "_type" : "AMFile",
                                "src" : 1,
                                "trackNumber" : 1,
                                "attributes" : {
                                  "ident" : "",
                                  "gain" : 1.0,
                                  "mixToMono" : false
                                },
                                  "channelNumber" : "0,1",
                                "effects" : [

                                ],
                                "start" : 960,
                                "duration" : 68,
                                "mediaStart" : 1296,
                                "mediaDuration" : 68,
                                "scalar" : 1,
                                "animationTracks" : {

                                }
                              }
,
                          "start" : 960,
                          "duration" : 68,
                          "mediaStart" : 0,
                          "mediaDuration" : 13486,
                          "scalar" : 1,
                          "metadata" : {
                            "AutoAppliedSmartFocus" : "False",
                            "clipSpeedAttribute" : false
                          }
                        },
                        {
                          "id" : 146,
                          "_type" : "UnifiedMedia",
                          "video" : 
                              {
                                "id" : 147,
                                "_type" : "ScreenVMFile",
                                "src" : 1,
                                "trackNumber" : 0,
                                "attributes" : {
                                  "ident" : "Rec 01-18-21"
                                },
                                "parameters" : {
                                  "cursorScale" : {
                                    "type" : "double",
                                    "defaultValue" : 0.0,
                                    "interp" : "linr"
                                  },
                                  "cursorOpacity" : {
                                    "type" : "double",
                                    "defaultValue" : 0.0,
                                    "interp" : "linr"
                                  }
                                },
                                "effects" : [

                                ],
                                "start" : 1028,
                                "duration" : 97,
                                "mediaStart" : 1774,
                                "mediaDuration" : 97,
                                "scalar" : 1,
                                "animationTracks" : {

                                }
                              },
                          "audio" : 
                              {
                                "id" : 148,
                                "_type" : "AMFile",
                                "src" : 1,
                                "trackNumber" : 1,
                                "attributes" : {
                                  "ident" : "",
                                  "gain" : 1.0,
                                  "mixToMono" : false
                                },
                                  "channelNumber" : "0,1",
                                "effects" : [

                                ],
                                "start" : 1028,
                                "duration" : 97,
                                "mediaStart" : 1774,
                                "mediaDuration" : 97,
                                "scalar" : 1,
                                "animationTracks" : {

                                }
                              }
,
                          "start" : 1028,
                          "duration" : 97,
                          "mediaStart" : 0,
                          "mediaDuration" : 13486,
                          "scalar" : 1,
                          "metadata" : {
                            "AutoAppliedSmartFocus" : "False",
                            "clipSpeedAttribute" : false
                          }
                        },
                        {
                          "id" : 149,
                          "_type" : "UnifiedMedia",
                          "video" : 
                              {
                                "id" : 150,
                                "_type" : "ScreenVMFile",
                                "src" : 1,
                                "trackNumber" : 0,
                                "attributes" : {
                                  "ident" : "Rec 01-18-21"
                                },
                                "parameters" : {
                                  "cursorScale" : {
                                    "type" : "double",
                                    "defaultValue" : 0.0,
                                    "interp" : "linr"
                                  },
                                  "cursorOpacity" : {
                                    "type" : "double",
                                    "defaultValue" : 0.0,
                                    "interp" : "linr"
                                  }
                                },
                                "effects" : [

                                ],
                                "start" : 1125,
                                "duration" : 40,
                                "mediaStart" : 1903,
                                "mediaDuration" : 40,
                                "scalar" : 1,
                                "animationTracks" : {

                                }
                              },
                          "audio" : 
                              {
                                "id" : 151,
                                "_type" : "AMFile",
                                "src" : 1,
                                "trackNumber" : 1,
                                "attributes" : {
                                  "ident" : "",
                                  "gain" : 1.0,
                                  "mixToMono" : false
                                },
                                  "channelNumber" : "0,1",
                                "effects" : [

                                ],
                                "start" : 1125,
                                "duration" : 40,
                                "mediaStart" : 1903,
                                "mediaDuration" : 40,
                                "scalar" : 1,
                                "animationTracks" : {

                                }
                              }
,
                          "start" : 1125,
                          "duration" : 40,
                          "mediaStart" : 0,
                          "mediaDuration" : 13486,
                          "scalar" : 1,
                          "metadata" : {
                            "AutoAppliedSmartFocus" : "False",
                            "clipSpeedAttribute" : false
                          }
                        },
                        {
                          "id" : 152,
                          "_type" : "UnifiedMedia",
                          "video" : 
                              {
                                "id" : 153,
                                "_type" : "ScreenVMFile",
                                "src" : 1,
                                "trackNumber" : 0,
                                "attributes" : {
                                  "ident" : "Rec 01-18-21"
                                },
                                "parameters" : {
                                  "cursorScale" : {
                                    "type" : "double",
                                    "defaultValue" : 0.0,
                                    "interp" : "linr"
                                  },
                                  "cursorOpacity" : {
                                    "type" : "double",
                                    "defaultValue" : 0.0,
                                    "interp" : "linr"
                                  }
                                },
                                "effects" : [

                                ],
                                "start" : 1165,
                                "duration" : 14,
                                "mediaStart" : 1954,
                                "mediaDuration" : 14,
                                "scalar" : 1,
                                "animationTracks" : {

                                }
                              },
                          "audio" : 
                              {
                                "id" : 154,
                                "_type" : "AMFile",
                                "src" : 1,
                                "trackNumber" : 1,
                                "attributes" : {
                                  "ident" : "",
                                  "gain" : 1.0,
                                  "mixToMono" : false
                                },
                                  "channelNumber" : "0,1",
                                "effects" : [

                                ],
                                "start" : 1165,
                                "duration" : 14,
                                "mediaStart" : 1954,
                                "mediaDuration" : 14,
                                "scalar" : 1,
                                "animationTracks" : {

                                }
                              }
,
                          "start" : 1165,
                          "duration" : 14,
                          "mediaStart" : 0,
                          "mediaDuration" : 13486,
                          "scalar" : 1,
                          "metadata" : {
                            "AutoAppliedSmartFocus" : "False",
                            "clipSpeedAttribute" : false
                          }
                        },
                        {
                          "id" : 155,
                          "_type" : "UnifiedMedia",
                          "video" : 
                              {
                                "id" : 156,
                                "_type" : "ScreenVMFile",
                                "src" : 1,
                                "trackNumber" : 0,
                                "attributes" : {
                                  "ident" : "Rec 01-18-21"
                                },
                                "parameters" : {
                                  "cursorScale" : {
                                    "type" : "double",
                                    "defaultValue" : 0.0,
                                    "interp" : "linr"
                                  },
                                  "cursorOpacity" : {
                                    "type" : "double",
                                    "defaultValue" : 0.0,
                                    "interp" : "linr"
                                  }
                                },
                                "effects" : [

                                ],
                                "start" : 1179,
                                "duration" : 670,
                                "mediaStart" : 1982,
                                "mediaDuration" : 670,
                                "scalar" : 1,
                                "animationTracks" : {

                                }
                              },
                          "audio" : 
                              {
                                "id" : 157,
                                "_type" : "AMFile",
                                "src" : 1,
                                "trackNumber" : 1,
                                "attributes" : {
                                  "ident" : "",
                                  "gain" : 1.0,
                                  "mixToMono" : false
                                },
                                  "channelNumber" : "0,1",
                                "effects" : [

                                ],
                                "start" : 1179,
                                "duration" : 670,
                                "mediaStart" : 1982,
                                "mediaDuration" : 670,
                                "scalar" : 1,
                                "animationTracks" : {

                                }
                              }
,
                          "start" : 1179,
                          "duration" : 670,
                          "mediaStart" : 0,
                          "mediaDuration" : 13486,
                          "scalar" : 1,
                          "metadata" : {
                            "AutoAppliedSmartFocus" : "False",
                            "clipSpeedAttribute" : false
                          }
                        },
                        {
                          "id" : 158,
                          "_type" : "UnifiedMedia",
                          "video" : 
                              {
                                "id" : 159,
                                "_type" : "ScreenVMFile",
                                "src" : 1,
                                "trackNumber" : 0,
                                "attributes" : {
                                  "ident" : "Rec 01-18-21"
                                },
                                "parameters" : {
                                  "cursorScale" : {
                                    "type" : "double",
                                    "defaultValue" : 0.0,
                                    "interp" : "linr"
                                  },
                                  "cursorOpacity" : {
                                    "type" : "double",
                                    "defaultValue" : 0.0,
                                    "interp" : "linr"
                                  }
                                },
                                "effects" : [

                                ],
                                "start" : 1849,
                                "duration" : 166,
                                "mediaStart" : 2666,
                                "mediaDuration" : 166,
                                "scalar" : 1,
                                "animationTracks" : {

                                }
                              },
                          "audio" : 
                              {
                                "id" : 160,
                                "_type" : "AMFile",
                                "src" : 1,
                                "trackNumber" : 1,
                                "attributes" : {
                                  "ident" : "",
                                  "gain" : 1.0,
                                  "mixToMono" : false
                                },
                                  "channelNumber" : "0,1",
                                "effects" : [

                                ],
                                "start" : 1849,
                                "duration" : 166,
                                "mediaStart" : 2666,
                                "mediaDuration" : 166,
                                "scalar" : 1,
                                "animationTracks" : {

                                }
                              }
,
                          "start" : 1849,
                          "duration" : 166,
                          "mediaStart" : 0,
                          "mediaDuration" : 13486,
                          "scalar" : 1,
                          "metadata" : {
                            "AutoAppliedSmartFocus" : "False",
                            "clipSpeedAttribute" : false
                          }
                        },
                        {
                          "id" : 161,
                          "_type" : "UnifiedMedia",
                          "video" : 
                              {
                                "id" : 162,
                                "_type" : "ScreenVMFile",
                                "src" : 1,
                                "trackNumber" : 0,
                                "attributes" : {
                                  "ident" : "Rec 01-18-21"
                                },
                                "parameters" : {
                                  "cursorScale" : {
                                    "type" : "double",
                                    "defaultValue" : 0.0,
                                    "interp" : "linr"
                                  },
                                  "cursorOpacity" : {
                                    "type" : "double",
                                    "defaultValue" : 0.0,
                                    "interp" : "linr"
                                  }
                                },
                                "effects" : [

                                ],
                                "start" : 2015,
                                "duration" : 276,
                                "mediaStart" : 3131,
                                "mediaDuration" : 276,
                                "scalar" : 1,
                                "animationTracks" : {

                                }
                              },
                          "audio" : 
                              {
                                "id" : 163,
                                "_type" : "AMFile",
                                "src" : 1,
                                "trackNumber" : 1,
                                "attributes" : {
                                  "ident" : "",
                                  "gain" : 1.0,
                                  "mixToMono" : false
                                },
                                  "channelNumber" : "0,1",
                                "effects" : [

                                ],
                                "start" : 2015,
                                "duration" : 276,
                                "mediaStart" : 3131,
                                "mediaDuration" : 276,
                                "scalar" : 1,
                                "animationTracks" : {

                                }
                              }
,
                          "start" : 2015,
                          "duration" : 276,
                          "mediaStart" : 0,
                          "mediaDuration" : 13486,
                          "scalar" : 1,
                          "metadata" : {
                            "AutoAppliedSmartFocus" : "False",
                            "clipSpeedAttribute" : false
                          }
                        },
                        {
                          "id" : 164,
                          "_type" : "UnifiedMedia",
                          "video" : 
                              {
                                "id" : 165,
                                "_type" : "ScreenVMFile",
                                "src" : 1,
                                "trackNumber" : 0,
                                "attributes" : {
                                  "ident" : "Rec 01-18-21"
                                },
                                "parameters" : {
                                  "cursorScale" : {
                                    "type" : "double",
                                    "defaultValue" : 0.0,
                                    "interp" : "linr"
                                  },
                                  "cursorOpacity" : {
                                    "type" : "double",
                                    "defaultValue" : 0.0,
                                    "interp" : "linr"
                                  }
                                },
                                "effects" : [

                                ],
                                "start" : 2291,
                                "duration" : 34,
                                "mediaStart" : 3433,
                                "mediaDuration" : 34,
                                "scalar" : 1,
                                "animationTracks" : {

                                }
                              },
                          "audio" : 
                              {
                                "id" : 166,
                                "_type" : "AMFile",
                                "src" : 1,
                                "trackNumber" : 1,
                                "attributes" : {
                                  "ident" : "",
                                  "gain" : 1.0,
                                  "mixToMono" : false
                                },
                                  "channelNumber" : "0,1",
                                "effects" : [

                                ],
                                "start" : 2291,
                                "duration" : 34,
                                "mediaStart" : 3433,
                                "mediaDuration" : 34,
                                "scalar" : 1,
                                "animationTracks" : {

                                }
                              }
,
                          "start" : 2291,
                          "duration" : 34,
                          "mediaStart" : 0,
                          "mediaDuration" : 13486,
                          "scalar" : 1,
                          "metadata" : {
                            "AutoAppliedSmartFocus" : "False",
                            "clipSpeedAttribute" : false
                          }
                        },
                        {
                          "id" : 167,
                          "_type" : "UnifiedMedia",
                          "video" : 
                              {
                                "id" : 168,
                                "_type" : "ScreenVMFile",
                                "src" : 1,
                                "trackNumber" : 0,
                                "attributes" : {
                                  "ident" : "Rec 01-18-21"
                                },
                                "parameters" : {
                                  "cursorScale" : {
                                    "type" : "double",
                                    "defaultValue" : 0.0,
                                    "interp" : "linr"
                                  },
                                  "cursorOpacity" : {
                                    "type" : "double",
                                    "defaultValue" : 0.0,
                                    "interp" : "linr"
                                  }
                                },
                                "effects" : [

                                ],
                                "start" : 2325,
                                "duration" : 27,
                                "mediaStart" : 3486,
                                "mediaDuration" : 27,
                                "scalar" : 1,
                                "animationTracks" : {

                                }
                              },
                          "audio" : 
                              {
                                "id" : 169,
                                "_type" : "AMFile",
                                "src" : 1,
                                "trackNumber" : 1,
                                "attributes" : {
                                  "ident" : "",
                                  "gain" : 1.0,
                                  "mixToMono" : false
                                },
                                  "channelNumber" : "0,1",
                                "effects" : [

                                ],
                                "start" : 2325,
                                "duration" : 27,
                                "mediaStart" : 3486,
                                "mediaDuration" : 27,
                                "scalar" : 1,
                                "animationTracks" : {

                                }
                              }
,
                          "start" : 2325,
                          "duration" : 27,
                          "mediaStart" : 0,
                          "mediaDuration" : 13486,
                          "scalar" : 1,
                          "metadata" : {
                            "AutoAppliedSmartFocus" : "False",
                            "clipSpeedAttribute" : false
                          }
                        },
                        {
                          "id" : 170,
                          "_type" : "UnifiedMedia",
                          "video" : 
                              {
                                "id" : 171,
                                "_type" : "ScreenVMFile",
                                "src" : 1,
                                "trackNumber" : 0,
                                "attributes" : {
                                  "ident" : "Rec 01-18-21"
                                },
                                "parameters" : {
                                  "cursorScale" : {
                                    "type" : "double",
                                    "defaultValue" : 0.0,
                                    "interp" : "linr"
                                  },
                                  "cursorOpacity" : {
                                    "type" : "double",
                                    "defaultValue" : 0.0,
                                    "interp" : "linr"
                                  }
                                },
                                "effects" : [

                                ],
                                "start" : 2352,
                                "duration" : 9931,
                                "mediaStart" : 3555,
                                "mediaDuration" : 9931,
                                "scalar" : 1,
                                "animationTracks" : {

                                }
                              },
                          "audio" : 
                              {
                                "id" : 172,
                                "_type" : "AMFile",
                                "src" : 1,
                                "trackNumber" : 1,
                                "attributes" : {
                                  "ident" : "",
                                  "gain" : 1.0,
                                  "mixToMono" : false
                                },
                                  "channelNumber" : "0,1",
                                "effects" : [

                                ],
                                "start" : 2352,
                                "duration" : 9931,
                                "mediaStart" : 3555,
                                "mediaDuration" : 9931,
                                "scalar" : 1,
                                "animationTracks" : {

                                }
                              }
,
                          "start" : 2352,
                          "duration" : 9931,
                          "mediaStart" : 0,
                          "mediaDuration" : 13486,
                          "scalar" : 1,
                          "metadata" : {
                            "AutoAppliedSmartFocus" : "False",
                            "clipSpeedAttribute" : false
                          }
                        }
                    ],
                    "effects" : [

                    ],
                    "start" : 1636,
                    "duration" : 495,
                    "mediaStart" : 1950,
                    "mediaDuration" : 495,
                    "scalar" : 1,
                    "metadata" : {
                      "AutoAppliedSmartFocus" : "False",
                      "clipSpeedAttribute" : false
                    },
                    "animationTracks" : {

                    }
                  },
                  {
                    "id" : 173,
                    "_type" : "StitchedMedia",
                    "minMediaStart" : 0,
                    "attributes" : {
                      "ident" : "Rec 01-18-21",
                      "gain" : 1.0,
                      "mixToMono" : false
                    },
                    "parameters" : {
                      "volume" : 1.0,
                      "cursorOpacity" : 1.0,
                      "cursorScale" : 1.0
                    },
                    "medias" : [
                        {
                          "id" : 174,
                          "_type" : "UnifiedMedia",
                          "video" : 
                              {
                                "id" : 175,
                                "_type" : "ScreenVMFile",
                                "src" : 1,
                                "trackNumber" : 0,
                                "attributes" : {
                                  "ident" : "Rec 01-18-21"
                                },
                                "parameters" : {
                                  "cursorScale" : {
                                    "type" : "double",
                                    "defaultValue" : 0.0,
                                    "interp" : "linr"
                                  },
                                  "cursorOpacity" : {
                                    "type" : "double",
                                    "defaultValue" : 0.0,
                                    "interp" : "linr"
                                  }
                                },
                                "effects" : [

                                ],
                                "start" : 0,
                                "duration" : 300,
                                "mediaStart" : 0,
                                "mediaDuration" : 300,
                                "scalar" : 1,
                                "animationTracks" : {

                                }
                              },
                          "audio" : 
                              {
                                "id" : 176,
                                "_type" : "AMFile",
                                "src" : 1,
                                "trackNumber" : 1,
                                "attributes" : {
                                  "ident" : "",
                                  "gain" : 1.0,
                                  "mixToMono" : false
                                },
                                  "channelNumber" : "0,1",
                                "effects" : [

                                ],
                                "start" : 0,
                                "duration" : 300,
                                "mediaStart" : 0,
                                "mediaDuration" : 300,
                                "scalar" : 1,
                                "animationTracks" : {

                                }
                              }
,
                          "start" : 0,
                          "duration" : 300,
                          "mediaStart" : 0,
                          "mediaDuration" : 13486,
                          "scalar" : 1,
                          "metadata" : {
                            "AutoAppliedSmartFocus" : "False",
                            "clipSpeedAttribute" : false
                          }
                        },
                        {
                          "id" : 177,
                          "_type" : "UnifiedMedia",
                          "video" : 
                              {
                                "id" : 178,
                                "_type" : "ScreenVMFile",
                                "src" : 1,
                                "trackNumber" : 0,
                                "attributes" : {
                                  "ident" : "Rec 01-18-21"
                                },
                                "parameters" : {
                                  "cursorScale" : {
                                    "type" : "double",
                                    "defaultValue" : 0.0,
                                    "interp" : "linr"
                                  },
                                  "cursorOpacity" : {
                                    "type" : "double",
                                    "defaultValue" : 0.0,
                                    "interp" : "linr"
                                  }
                                },
                                "effects" : [

                                ],
                                "start" : 300,
                                "duration" : 52,
                                "mediaStart" : 313,
                                "mediaDuration" : 52,
                                "scalar" : 1,
                                "animationTracks" : {

                                }
                              },
                          "audio" : 
                              {
                                "id" : 179,
                                "_type" : "AMFile",
                                "src" : 1,
                                "trackNumber" : 1,
                                "attributes" : {
                                  "ident" : "",
                                  "gain" : 1.0,
                                  "mixToMono" : false
                                },
                                  "channelNumber" : "0,1",
                                "effects" : [

                                ],
                                "start" : 300,
                                "duration" : 52,
                                "mediaStart" : 313,
                                "mediaDuration" : 52,
                                "scalar" : 1,
                                "animationTracks" : {

                                }
                              }
,
                          "start" : 300,
                          "duration" : 52,
                          "mediaStart" : 0,
                          "mediaDuration" : 13486,
                          "scalar" : 1,
                          "metadata" : {
                            "AutoAppliedSmartFocus" : "False",
                            "clipSpeedAttribute" : false
                          }
                        },
                        {
                          "id" : 180,
                          "_type" : "UnifiedMedia",
                          "video" : 
                              {
                                "id" : 181,
                                "_type" : "ScreenVMFile",
                                "src" : 1,
                                "trackNumber" : 0,
                                "attributes" : {
                                  "ident" : "Rec 01-18-21"
                                },
                                "parameters" : {
                                  "cursorScale" : {
                                    "type" : "double",
                                    "defaultValue" : 0.0,
                                    "interp" : "linr"
                                  },
                                  "cursorOpacity" : {
                                    "type" : "double",
                                    "defaultValue" : 0.0,
                                    "interp" : "linr"
                                  }
                                },
                                "effects" : [

                                ],
                                "start" : 352,
                                "duration" : 63,
                                "mediaStart" : 439,
                                "mediaDuration" : 63,
                                "scalar" : 1,
                                "animationTracks" : {

                                }
                              },
                          "audio" : 
                              {
                                "id" : 182,
                                "_type" : "AMFile",
                                "src" : 1,
                                "trackNumber" : 1,
                                "attributes" : {
                                  "ident" : "",
                                  "gain" : 1.0,
                                  "mixToMono" : false
                                },
                                  "channelNumber" : "0,1",
                                "effects" : [

                                ],
                                "start" : 352,
                                "duration" : 63,
                                "mediaStart" : 439,
                                "mediaDuration" : 63,
                                "scalar" : 1,
                                "animationTracks" : {

                                }
                              }
,
                          "start" : 352,
                          "duration" : 63,
                          "mediaStart" : 0,
                          "mediaDuration" : 13486,
                          "scalar" : 1,
                          "metadata" : {
                            "AutoAppliedSmartFocus" : "False",
                            "clipSpeedAttribute" : false
                          }
                        },
                        {
                          "id" : 183,
                          "_type" : "UnifiedMedia",
                          "video" : 
                              {
                                "id" : 184,
                                "_type" : "ScreenVMFile",
                                "src" : 1,
                                "trackNumber" : 0,
                                "attributes" : {
                                  "ident" : "Rec 01-18-21"
                                },
                                "parameters" : {
                                  "cursorScale" : {
                                    "type" : "double",
                                    "defaultValue" : 0.0,
                                    "interp" : "linr"
                                  },
                                  "cursorOpacity" : {
                                    "type" : "double",
                                    "defaultValue" : 0.0,
                                    "interp" : "linr"
                                  }
                                },
                                "effects" : [

                                ],
                                "start" : 415,
                                "duration" : 17,
                                "mediaStart" : 573,
                                "mediaDuration" : 17,
                                "scalar" : 1,
                                "animationTracks" : {

                                }
                              },
                          "audio" : 
                              {
                                "id" : 185,
                                "_type" : "AMFile",
                                "src" : 1,
                                "trackNumber" : 1,
                                "attributes" : {
                                  "ident" : "",
                                  "gain" : 1.0,
                                  "mixToMono" : false
                                },
                                  "channelNumber" : "0,1",
                                "effects" : [

                                ],
                                "start" : 415,
                                "duration" : 17,
                                "mediaStart" : 573,
                                "mediaDuration" : 17,
                                "scalar" : 1,
                                "animationTracks" : {

                                }
                              }
,
                          "start" : 415,
                          "duration" : 17,
                          "mediaStart" : 0,
                          "mediaDuration" : 13486,
                          "scalar" : 1,
                          "metadata" : {
                            "AutoAppliedSmartFocus" : "False",
                            "clipSpeedAttribute" : false
                          }
                        },
                        {
                          "id" : 186,
                          "_type" : "UnifiedMedia",
                          "video" : 
                              {
                                "id" : 187,
                                "_type" : "ScreenVMFile",
                                "src" : 1,
                                "trackNumber" : 0,
                                "attributes" : {
                                  "ident" : "Rec 01-18-21"
                                },
                                "parameters" : {
                                  "cursorScale" : {
                                    "type" : "double",
                                    "defaultValue" : 0.0,
                                    "interp" : "linr"
                                  },
                                  "cursorOpacity" : {
                                    "type" : "double",
                                    "defaultValue" : 0.0,
                                    "interp" : "linr"
                                  }
                                },
                                "effects" : [

                                ],
                                "start" : 432,
                                "duration" : 23,
                                "mediaStart" : 597,
                                "mediaDuration" : 23,
                                "scalar" : 1,
                                "animationTracks" : {

                                }
                              },
                          "audio" : 
                              {
                                "id" : 188,
                                "_type" : "AMFile",
                                "src" : 1,
                                "trackNumber" : 1,
                                "attributes" : {
                                  "ident" : "",
                                  "gain" : 1.0,
                                  "mixToMono" : false
                                },
                                  "channelNumber" : "0,1",
                                "effects" : [

                                ],
                                "start" : 432,
                                "duration" : 23,
                                "mediaStart" : 597,
                                "mediaDuration" : 23,
                                "scalar" : 1,
                                "animationTracks" : {

                                }
                              }
,
                          "start" : 432,
                          "duration" : 23,
                          "mediaStart" : 0,
                          "mediaDuration" : 13486,
                          "scalar" : 1,
                          "metadata" : {
                            "AutoAppliedSmartFocus" : "False",
                            "clipSpeedAttribute" : false
                          }
                        },
                        {
                          "id" : 189,
                          "_type" : "UnifiedMedia",
                          "video" : 
                              {
                                "id" : 190,
                                "_type" : "ScreenVMFile",
                                "src" : 1,
                                "trackNumber" : 0,
                                "attributes" : {
                                  "ident" : "Rec 01-18-21"
                                },
                                "parameters" : {
                                  "cursorScale" : {
                                    "type" : "double",
                                    "defaultValue" : 0.0,
                                    "interp" : "linr"
                                  },
                                  "cursorOpacity" : {
                                    "type" : "double",
                                    "defaultValue" : 0.0,
                                    "interp" : "linr"
                                  }
                                },
                                "effects" : [

                                ],
                                "start" : 455,
                                "duration" : 49,
                                "mediaStart" : 627,
                                "mediaDuration" : 49,
                                "scalar" : 1,
                                "animationTracks" : {

                                }
                              },
                          "audio" : 
                              {
                                "id" : 191,
                                "_type" : "AMFile",
                                "src" : 1,
                                "trackNumber" : 1,
                                "attributes" : {
                                  "ident" : "",
                                  "gain" : 1.0,
                                  "mixToMono" : false
                                },
                                  "channelNumber" : "0,1",
                                "effects" : [

                                ],
                                "start" : 455,
                                "duration" : 49,
                                "mediaStart" : 627,
                                "mediaDuration" : 49,
                                "scalar" : 1,
                                "animationTracks" : {

                                }
                              }
,
                          "start" : 455,
                          "duration" : 49,
                          "mediaStart" : 0,
                          "mediaDuration" : 13486,
                          "scalar" : 1,
                          "metadata" : {
                            "AutoAppliedSmartFocus" : "False",
                            "clipSpeedAttribute" : false
                          }
                        },
                        {
                          "id" : 192,
                          "_type" : "UnifiedMedia",
                          "video" : 
                              {
                                "id" : 193,
                                "_type" : "ScreenVMFile",
                                "src" : 1,
                                "trackNumber" : 0,
                                "attributes" : {
                                  "ident" : "Rec 01-18-21"
                                },
                                "parameters" : {
                                  "cursorScale" : {
                                    "type" : "double",
                                    "defaultValue" : 0.0,
                                    "interp" : "linr"
                                  },
                                  "cursorOpacity" : {
                                    "type" : "double",
                                    "defaultValue" : 0.0,
                                    "interp" : "linr"
                                  }
                                },
                                "effects" : [

                                ],
                                "start" : 504,
                                "duration" : 435,
                                "mediaStart" : 820,
                                "mediaDuration" : 435,
                                "scalar" : 1,
                                "animationTracks" : {

                                }
                              },
                          "audio" : 
                              {
                                "id" : 194,
                                "_type" : "AMFile",
                                "src" : 1,
                                "trackNumber" : 1,
                                "attributes" : {
                                  "ident" : "",
                                  "gain" : 1.0,
                                  "mixToMono" : false
                                },
                                  "channelNumber" : "0,1",
                                "effects" : [

                                ],
                                "start" : 504,
                                "duration" : 435,
                                "mediaStart" : 820,
                                "mediaDuration" : 435,
                                "scalar" : 1,
                                "animationTracks" : {

                                }
                              }
,
                          "start" : 504,
                          "duration" : 435,
                          "mediaStart" : 0,
                          "mediaDuration" : 13486,
                          "scalar" : 1,
                          "metadata" : {
                            "AutoAppliedSmartFocus" : "False",
                            "clipSpeedAttribute" : false
                          }
                        },
                        {
                          "id" : 195,
                          "_type" : "UnifiedMedia",
                          "video" : 
                              {
                                "id" : 196,
                                "_type" : "ScreenVMFile",
                                "src" : 1,
                                "trackNumber" : 0,
                                "attributes" : {
                                  "ident" : "Rec 01-18-21"
                                },
                                "parameters" : {
                                  "cursorScale" : {
                                    "type" : "double",
                                    "defaultValue" : 0.0,
                                    "interp" : "linr"
                                  },
                                  "cursorOpacity" : {
                                    "type" : "double",
                                    "defaultValue" : 0.0,
                                    "interp" : "linr"
                                  }
                                },
                                "effects" : [

                                ],
                                "start" : 939,
                                "duration" : 21,
                                "mediaStart" : 1268,
                                "mediaDuration" : 21,
                                "scalar" : 1,
                                "animationTracks" : {

                                }
                              },
                          "audio" : 
                              {
                                "id" : 197,
                                "_type" : "AMFile",
                                "src" : 1,
                                "trackNumber" : 1,
                                "attributes" : {
                                  "ident" : "",
                                  "gain" : 1.0,
                                  "mixToMono" : false
                                },
                                  "channelNumber" : "0,1",
                                "effects" : [

                                ],
                                "start" : 939,
                                "duration" : 21,
                                "mediaStart" : 1268,
                                "mediaDuration" : 21,
                                "scalar" : 1,
                                "animationTracks" : {

                                }
                              }
,
                          "start" : 939,
                          "duration" : 21,
                          "mediaStart" : 0,
                          "mediaDuration" : 13486,
                          "scalar" : 1,
                          "metadata" : {
                            "AutoAppliedSmartFocus" : "False",
                            "clipSpeedAttribute" : false
                          }
                        },
                        {
                          "id" : 198,
                          "_type" : "UnifiedMedia",
                          "video" : 
                              {
                                "id" : 199,
                                "_type" : "ScreenVMFile",
                                "src" : 1,
                                "trackNumber" : 0,
                                "attributes" : {
                                  "ident" : "Rec 01-18-21"
                                },
                                "parameters" : {
                                  "cursorScale" : {
                                    "type" : "double",
                                    "defaultValue" : 0.0,
                                    "interp" : "linr"
                                  },
                                  "cursorOpacity" : {
                                    "type" : "double",
                                    "defaultValue" : 0.0,
                                    "interp" : "linr"
                                  }
                                },
                                "effects" : [

                                ],
                                "start" : 960,
                                "duration" : 68,
                                "mediaStart" : 1296,
                                "mediaDuration" : 68,
                                "scalar" : 1,
                                "animationTracks" : {

                                }
                              },
                          "audio" : 
                              {
                                "id" : 200,
                                "_type" : "AMFile",
                                "src" : 1,
                                "trackNumber" : 1,
                                "attributes" : {
                                  "ident" : "",
                                  "gain" : 1.0,
                                  "mixToMono" : false
                                },
                                  "channelNumber" : "0,1",
                                "effects" : [

                                ],
                                "start" : 960,
                                "duration" : 68,
                                "mediaStart" : 1296,
                                "mediaDuration" : 68,
                                "scalar" : 1,
                                "animationTracks" : {

                                }
                              }
,
                          "start" : 960,
                          "duration" : 68,
                          "mediaStart" : 0,
                          "mediaDuration" : 13486,
                          "scalar" : 1,
                          "metadata" : {
                            "AutoAppliedSmartFocus" : "False",
                            "clipSpeedAttribute" : false
                          }
                        },
                        {
                          "id" : 201,
                          "_type" : "UnifiedMedia",
                          "video" : 
                              {
                                "id" : 202,
                                "_type" : "ScreenVMFile",
                                "src" : 1,
                                "trackNumber" : 0,
                                "attributes" : {
                                  "ident" : "Rec 01-18-21"
                                },
                                "parameters" : {
                                  "cursorScale" : {
                                    "type" : "double",
                                    "defaultValue" : 0.0,
                                    "interp" : "linr"
                                  },
                                  "cursorOpacity" : {
                                    "type" : "double",
                                    "defaultValue" : 0.0,
                                    "interp" : "linr"
                                  }
                                },
                                "effects" : [

                                ],
                                "start" : 1028,
                                "duration" : 97,
                                "mediaStart" : 1774,
                                "mediaDuration" : 97,
                                "scalar" : 1,
                                "animationTracks" : {

                                }
                              },
                          "audio" : 
                              {
                                "id" : 203,
                                "_type" : "AMFile",
                                "src" : 1,
                                "trackNumber" : 1,
                                "attributes" : {
                                  "ident" : "",
                                  "gain" : 1.0,
                                  "mixToMono" : false
                                },
                                  "channelNumber" : "0,1",
                                "effects" : [

                                ],
                                "start" : 1028,
                                "duration" : 97,
                                "mediaStart" : 1774,
                                "mediaDuration" : 97,
                                "scalar" : 1,
                                "animationTracks" : {

                                }
                              }
,
                          "start" : 1028,
                          "duration" : 97,
                          "mediaStart" : 0,
                          "mediaDuration" : 13486,
                          "scalar" : 1,
                          "metadata" : {
                            "AutoAppliedSmartFocus" : "False",
                            "clipSpeedAttribute" : false
                          }
                        },
                        {
                          "id" : 204,
                          "_type" : "UnifiedMedia",
                          "video" : 
                              {
                                "id" : 205,
                                "_type" : "ScreenVMFile",
                                "src" : 1,
                                "trackNumber" : 0,
                                "attributes" : {
                                  "ident" : "Rec 01-18-21"
                                },
                                "parameters" : {
                                  "cursorScale" : {
                                    "type" : "double",
                                    "defaultValue" : 0.0,
                                    "interp" : "linr"
                                  },
                                  "cursorOpacity" : {
                                    "type" : "double",
                                    "defaultValue" : 0.0,
                                    "interp" : "linr"
                                  }
                                },
                                "effects" : [

                                ],
                                "start" : 1125,
                                "duration" : 40,
                                "mediaStart" : 1903,
                                "mediaDuration" : 40,
                                "scalar" : 1,
                                "animationTracks" : {

                                }
                              },
                          "audio" : 
                              {
                                "id" : 206,
                                "_type" : "AMFile",
                                "src" : 1,
                                "trackNumber" : 1,
                                "attributes" : {
                                  "ident" : "",
                                  "gain" : 1.0,
                                  "mixToMono" : false
                                },
                                  "channelNumber" : "0,1",
                                "effects" : [

                                ],
                                "start" : 1125,
                                "duration" : 40,
                                "mediaStart" : 1903,
                                "mediaDuration" : 40,
                                "scalar" : 1,
                                "animationTracks" : {

                                }
                              }
,
                          "start" : 1125,
                          "duration" : 40,
                          "mediaStart" : 0,
                          "mediaDuration" : 13486,
                          "scalar" : 1,
                          "metadata" : {
                            "AutoAppliedSmartFocus" : "False",
                            "clipSpeedAttribute" : false
                          }
                        },
                        {
                          "id" : 207,
                          "_type" : "UnifiedMedia",
                          "video" : 
                              {
                                "id" : 208,
                                "_type" : "ScreenVMFile",
                                "src" : 1,
                                "trackNumber" : 0,
                                "attributes" : {
                                  "ident" : "Rec 01-18-21"
                                },
                                "parameters" : {
                                  "cursorScale" : {
                                    "type" : "double",
                                    "defaultValue" : 0.0,
                                    "interp" : "linr"
                                  },
                                  "cursorOpacity" : {
                                    "type" : "double",
                                    "defaultValue" : 0.0,
                                    "interp" : "linr"
                                  }
                                },
                                "effects" : [

                                ],
                                "start" : 1165,
                                "duration" : 14,
                                "mediaStart" : 1954,
                                "mediaDuration" : 14,
                                "scalar" : 1,
                                "animationTracks" : {

                                }
                              },
                          "audio" : 
                              {
                                "id" : 209,
                                "_type" : "AMFile",
                                "src" : 1,
                                "trackNumber" : 1,
                                "attributes" : {
                                  "ident" : "",
                                  "gain" : 1.0,
                                  "mixToMono" : false
                                },
                                  "channelNumber" : "0,1",
                                "effects" : [

                                ],
                                "start" : 1165,
                                "duration" : 14,
                                "mediaStart" : 1954,
                                "mediaDuration" : 14,
                                "scalar" : 1,
                                "animationTracks" : {

                                }
                              }
,
                          "start" : 1165,
                          "duration" : 14,
                          "mediaStart" : 0,
                          "mediaDuration" : 13486,
                          "scalar" : 1,
                          "metadata" : {
                            "AutoAppliedSmartFocus" : "False",
                            "clipSpeedAttribute" : false
                          }
                        },
                        {
                          "id" : 210,
                          "_type" : "UnifiedMedia",
                          "video" : 
                              {
                                "id" : 211,
                                "_type" : "ScreenVMFile",
                                "src" : 1,
                                "trackNumber" : 0,
                                "attributes" : {
                                  "ident" : "Rec 01-18-21"
                                },
                                "parameters" : {
                                  "cursorScale" : {
                                    "type" : "double",
                                    "defaultValue" : 0.0,
                                    "interp" : "linr"
                                  },
                                  "cursorOpacity" : {
                                    "type" : "double",
                                    "defaultValue" : 0.0,
                                    "interp" : "linr"
                                  }
                                },
                                "effects" : [

                                ],
                                "start" : 1179,
                                "duration" : 670,
                                "mediaStart" : 1982,
                                "mediaDuration" : 670,
                                "scalar" : 1,
                                "animationTracks" : {

                                }
                              },
                          "audio" : 
                              {
                                "id" : 212,
                                "_type" : "AMFile",
                                "src" : 1,
                                "trackNumber" : 1,
                                "attributes" : {
                                  "ident" : "",
                                  "gain" : 1.0,
                                  "mixToMono" : false
                                },
                                  "channelNumber" : "0,1",
                                "effects" : [

                                ],
                                "start" : 1179,
                                "duration" : 670,
                                "mediaStart" : 1982,
                                "mediaDuration" : 670,
                                "scalar" : 1,
                                "animationTracks" : {

                                }
                              }
,
                          "start" : 1179,
                          "duration" : 670,
                          "mediaStart" : 0,
                          "mediaDuration" : 13486,
                          "scalar" : 1,
                          "metadata" : {
                            "AutoAppliedSmartFocus" : "False",
                            "clipSpeedAttribute" : false
                          }
                        },
                        {
                          "id" : 213,
                          "_type" : "UnifiedMedia",
                          "video" : 
                              {
                                "id" : 214,
                                "_type" : "ScreenVMFile",
                                "src" : 1,
                                "trackNumber" : 0,
                                "attributes" : {
                                  "ident" : "Rec 01-18-21"
                                },
                                "parameters" : {
                                  "cursorScale" : {
                                    "type" : "double",
                                    "defaultValue" : 0.0,
                                    "interp" : "linr"
                                  },
                                  "cursorOpacity" : {
                                    "type" : "double",
                                    "defaultValue" : 0.0,
                                    "interp" : "linr"
                                  }
                                },
                                "effects" : [

                                ],
                                "start" : 1849,
                                "duration" : 166,
                                "mediaStart" : 2666,
                                "mediaDuration" : 166,
                                "scalar" : 1,
                                "animationTracks" : {

                                }
                              },
                          "audio" : 
                              {
                                "id" : 215,
                                "_type" : "AMFile",
                                "src" : 1,
                                "trackNumber" : 1,
                                "attributes" : {
                                  "ident" : "",
                                  "gain" : 1.0,
                                  "mixToMono" : false
                                },
                                  "channelNumber" : "0,1",
                                "effects" : [

                                ],
                                "start" : 1849,
                                "duration" : 166,
                                "mediaStart" : 2666,
                                "mediaDuration" : 166,
                                "scalar" : 1,
                                "animationTracks" : {

                                }
                              }
,
                          "start" : 1849,
                          "duration" : 166,
                          "mediaStart" : 0,
                          "mediaDuration" : 13486,
                          "scalar" : 1,
                          "metadata" : {
                            "AutoAppliedSmartFocus" : "False",
                            "clipSpeedAttribute" : false
                          }
                        },
                        {
                          "id" : 216,
                          "_type" : "UnifiedMedia",
                          "video" : 
                              {
                                "id" : 217,
                                "_type" : "ScreenVMFile",
                                "src" : 1,
                                "trackNumber" : 0,
                                "attributes" : {
                                  "ident" : "Rec 01-18-21"
                                },
                                "parameters" : {
                                  "cursorScale" : {
                                    "type" : "double",
                                    "defaultValue" : 0.0,
                                    "interp" : "linr"
                                  },
                                  "cursorOpacity" : {
                                    "type" : "double",
                                    "defaultValue" : 0.0,
                                    "interp" : "linr"
                                  }
                                },
                                "effects" : [

                                ],
                                "start" : 2015,
                                "duration" : 276,
                                "mediaStart" : 3131,
                                "mediaDuration" : 276,
                                "scalar" : 1,
                                "animationTracks" : {

                                }
                              },
                          "audio" : 
                              {
                                "id" : 218,
                                "_type" : "AMFile",
                                "src" : 1,
                                "trackNumber" : 1,
                                "attributes" : {
                                  "ident" : "",
                                  "gain" : 1.0,
                                  "mixToMono" : false
                                },
                                  "channelNumber" : "0,1",
                                "effects" : [

                                ],
                                "start" : 2015,
                                "duration" : 276,
                                "mediaStart" : 3131,
                                "mediaDuration" : 276,
                                "scalar" : 1,
                                "animationTracks" : {

                                }
                              }
,
                          "start" : 2015,
                          "duration" : 276,
                          "mediaStart" : 0,
                          "mediaDuration" : 13486,
                          "scalar" : 1,
                          "metadata" : {
                            "AutoAppliedSmartFocus" : "False",
                            "clipSpeedAttribute" : false
                          }
                        },
                        {
                          "id" : 219,
                          "_type" : "UnifiedMedia",
                          "video" : 
                              {
                                "id" : 220,
                                "_type" : "ScreenVMFile",
                                "src" : 1,
                                "trackNumber" : 0,
                                "attributes" : {
                                  "ident" : "Rec 01-18-21"
                                },
                                "parameters" : {
                                  "cursorScale" : {
                                    "type" : "double",
                                    "defaultValue" : 0.0,
                                    "interp" : "linr"
                                  },
                                  "cursorOpacity" : {
                                    "type" : "double",
                                    "defaultValue" : 0.0,
                                    "interp" : "linr"
                                  }
                                },
                                "effects" : [

                                ],
                                "start" : 2291,
                                "duration" : 34,
                                "mediaStart" : 3433,
                                "mediaDuration" : 34,
                                "scalar" : 1,
                                "animationTracks" : {

                                }
                              },
                          "audio" : 
                              {
                                "id" : 221,
                                "_type" : "AMFile",
                                "src" : 1,
                                "trackNumber" : 1,
                                "attributes" : {
                                  "ident" : "",
                                  "gain" : 1.0,
                                  "mixToMono" : false
                                },
                                  "channelNumber" : "0,1",
                                "effects" : [

                                ],
                                "start" : 2291,
                                "duration" : 34,
                                "mediaStart" : 3433,
                                "mediaDuration" : 34,
                                "scalar" : 1,
                                "animationTracks" : {

                                }
                              }
,
                          "start" : 2291,
                          "duration" : 34,
                          "mediaStart" : 0,
                          "mediaDuration" : 13486,
                          "scalar" : 1,
                          "metadata" : {
                            "AutoAppliedSmartFocus" : "False",
                            "clipSpeedAttribute" : false
                          }
                        },
                        {
                          "id" : 222,
                          "_type" : "UnifiedMedia",
                          "video" : 
                              {
                                "id" : 223,
                                "_type" : "ScreenVMFile",
                                "src" : 1,
                                "trackNumber" : 0,
                                "attributes" : {
                                  "ident" : "Rec 01-18-21"
                                },
                                "parameters" : {
                                  "cursorScale" : {
                                    "type" : "double",
                                    "defaultValue" : 0.0,
                                    "interp" : "linr"
                                  },
                                  "cursorOpacity" : {
                                    "type" : "double",
                                    "defaultValue" : 0.0,
                                    "interp" : "linr"
                                  }
                                },
                                "effects" : [

                                ],
                                "start" : 2325,
                                "duration" : 27,
                                "mediaStart" : 3486,
                                "mediaDuration" : 27,
                                "scalar" : 1,
                                "animationTracks" : {

                                }
                              },
                          "audio" : 
                              {
                                "id" : 224,
                                "_type" : "AMFile",
                                "src" : 1,
                                "trackNumber" : 1,
                                "attributes" : {
                                  "ident" : "",
                                  "gain" : 1.0,
                                  "mixToMono" : false
                                },
                                  "channelNumber" : "0,1",
                                "effects" : [

                                ],
                                "start" : 2325,
                                "duration" : 27,
                                "mediaStart" : 3486,
                                "mediaDuration" : 27,
                                "scalar" : 1,
                                "animationTracks" : {

                                }
                              }
,
                          "start" : 2325,
                          "duration" : 27,
                          "mediaStart" : 0,
                          "mediaDuration" : 13486,
                          "scalar" : 1,
                          "metadata" : {
                            "AutoAppliedSmartFocus" : "False",
                            "clipSpeedAttribute" : false
                          }
                        },
                        {
                          "id" : 225,
                          "_type" : "UnifiedMedia",
                          "video" : 
                              {
                                "id" : 226,
                                "_type" : "ScreenVMFile",
                                "src" : 1,
                                "trackNumber" : 0,
                                "attributes" : {
                                  "ident" : "Rec 01-18-21"
                                },
                                "parameters" : {
                                  "cursorScale" : {
                                    "type" : "double",
                                    "defaultValue" : 0.0,
                                    "interp" : "linr"
                                  },
                                  "cursorOpacity" : {
                                    "type" : "double",
                                    "defaultValue" : 0.0,
                                    "interp" : "linr"
                                  }
                                },
                                "effects" : [

                                ],
                                "start" : 2352,
                                "duration" : 507,
                                "mediaStart" : 3555,
                                "mediaDuration" : 507,
                                "scalar" : 1,
                                "animationTracks" : {

                                }
                              },
                          "audio" : 
                              {
                                "id" : 227,
                                "_type" : "AMFile",
                                "src" : 1,
                                "trackNumber" : 1,
                                "attributes" : {
                                  "ident" : "",
                                  "gain" : 1.0,
                                  "mixToMono" : false
                                },
                                  "channelNumber" : "0,1",
                                "effects" : [

                                ],
                                "start" : 2352,
                                "duration" : 507,
                                "mediaStart" : 3555,
                                "mediaDuration" : 507,
                                "scalar" : 1,
                                "animationTracks" : {

                                }
                              }
,
                          "start" : 2352,
                          "duration" : 507,
                          "mediaStart" : 0,
                          "mediaDuration" : 13486,
                          "scalar" : 1,
                          "metadata" : {
                            "AutoAppliedSmartFocus" : "False",
                            "clipSpeedAttribute" : false
                          }
                        },
                        {
                          "id" : 228,
                          "_type" : "UnifiedMedia",
                          "video" : 
                              {
                                "id" : 229,
                                "_type" : "ScreenVMFile",
                                "src" : 1,
                                "trackNumber" : 0,
                                "attributes" : {
                                  "ident" : "Rec 01-18-21"
                                },
                                "parameters" : {
                                  "cursorScale" : {
                                    "type" : "double",
                                    "defaultValue" : 0.0,
                                    "interp" : "linr"
                                  },
                                  "cursorOpacity" : {
                                    "type" : "double",
                                    "defaultValue" : 0.0,
                                    "interp" : "linr"
                                  }
                                },
                                "effects" : [

                                ],
                                "start" : 2859,
                                "duration" : 60,
                                "mediaStart" : 4295,
                                "mediaDuration" : 60,
                                "scalar" : 1,
                                "animationTracks" : {

                                }
                              },
                          "audio" : 
                              {
                                "id" : 230,
                                "_type" : "AMFile",
                                "src" : 1,
                                "trackNumber" : 1,
                                "attributes" : {
                                  "ident" : "",
                                  "gain" : 1.0,
                                  "mixToMono" : false
                                },
                                  "channelNumber" : "0,1",
                                "effects" : [

                                ],
                                "start" : 2859,
                                "duration" : 60,
                                "mediaStart" : 4295,
                                "mediaDuration" : 60,
                                "scalar" : 1,
                                "animationTracks" : {

                                }
                              }
,
                          "start" : 2859,
                          "duration" : 60,
                          "mediaStart" : 0,
                          "mediaDuration" : 13486,
                          "scalar" : 1,
                          "metadata" : {
                            "AutoAppliedSmartFocus" : "False",
                            "clipSpeedAttribute" : false
                          }
                        },
                        {
                          "id" : 231,
                          "_type" : "UnifiedMedia",
                          "video" : 
                              {
                                "id" : 232,
                                "_type" : "ScreenVMFile",
                                "src" : 1,
                                "trackNumber" : 0,
                                "attributes" : {
                                  "ident" : "Rec 01-18-21"
                                },
                                "parameters" : {
                                  "cursorScale" : {
                                    "type" : "double",
                                    "defaultValue" : 0.0,
                                    "interp" : "linr"
                                  },
                                  "cursorOpacity" : {
                                    "type" : "double",
                                    "defaultValue" : 0.0,
                                    "interp" : "linr"
                                  }
                                },
                                "effects" : [

                                ],
                                "start" : 2919,
                                "duration" : 175,
                                "mediaStart" : 4387,
                                "mediaDuration" : 175,
                                "scalar" : 1,
                                "animationTracks" : {

                                }
                              },
                          "audio" : 
                              {
                                "id" : 233,
                                "_type" : "AMFile",
                                "src" : 1,
                                "trackNumber" : 1,
                                "attributes" : {
                                  "ident" : "",
                                  "gain" : 1.0,
                                  "mixToMono" : false
                                },
                                  "channelNumber" : "0,1",
                                "effects" : [

                                ],
                                "start" : 2919,
                                "duration" : 175,
                                "mediaStart" : 4387,
                                "mediaDuration" : 175,
                                "scalar" : 1,
                                "animationTracks" : {

                                }
                              }
,
                          "start" : 2919,
                          "duration" : 175,
                          "mediaStart" : 0,
                          "mediaDuration" : 13486,
                          "scalar" : 1,
                          "metadata" : {
                            "AutoAppliedSmartFocus" : "False",
                            "clipSpeedAttribute" : false
                          }
                        },
                        {
                          "id" : 234,
                          "_type" : "UnifiedMedia",
                          "video" : 
                              {
                                "id" : 235,
                                "_type" : "ScreenVMFile",
                                "src" : 1,
                                "trackNumber" : 0,
                                "attributes" : {
                                  "ident" : "Rec 01-18-21"
                                },
                                "parameters" : {
                                  "cursorScale" : {
                                    "type" : "double",
                                    "defaultValue" : 0.0,
                                    "interp" : "linr"
                                  },
                                  "cursorOpacity" : {
                                    "type" : "double",
                                    "defaultValue" : 0.0,
                                    "interp" : "linr"
                                  }
                                },
                                "effects" : [

                                ],
                                "start" : 3094,
                                "duration" : 8902,
                                "mediaStart" : 4584,
                                "mediaDuration" : 8902,
                                "scalar" : 1,
                                "animationTracks" : {

                                }
                              },
                          "audio" : 
                              {
                                "id" : 236,
                                "_type" : "AMFile",
                                "src" : 1,
                                "trackNumber" : 1,
                                "attributes" : {
                                  "ident" : "",
                                  "gain" : 1.0,
                                  "mixToMono" : false
                                },
                                  "channelNumber" : "0,1",
                                "effects" : [

                                ],
                                "start" : 3094,
                                "duration" : 8902,
                                "mediaStart" : 4584,
                                "mediaDuration" : 8902,
                                "scalar" : 1,
                                "animationTracks" : {

                                }
                              }
,
                          "start" : 3094,
                          "duration" : 8902,
                          "mediaStart" : 0,
                          "mediaDuration" : 13486,
                          "scalar" : 1,
                          "metadata" : {
                            "AutoAppliedSmartFocus" : "False",
                            "clipSpeedAttribute" : false
                          }
                        }
                    ],
                    "effects" : [

                    ],
                    "start" : 2131,
                    "duration" : 381,
                    "mediaStart" : 2752,
                    "mediaDuration" : 381,
                    "scalar" : 1,
                    "metadata" : {
                      "AutoAppliedSmartFocus" : "False",
                      "clipSpeedAttribute" : false
                    },
                    "animationTracks" : {

                    }
                  },
                  {
                    "id" : 237,
                    "_type" : "StitchedMedia",
                    "minMediaStart" : 0,
                    "attributes" : {
                      "ident" : "Rec 01-18-21",
                      "gain" : 1.0,
                      "mixToMono" : false
                    },
                    "parameters" : {
                      "volume" : 1.0,
                      "cursorOpacity" : 1.0,
                      "cursorScale" : 1.0
                    },
                    "medias" : [
                        {
                          "id" : 238,
                          "_type" : "UnifiedMedia",
                          "video" : 
                              {
                                "id" : 239,
                                "_type" : "ScreenVMFile",
                                "src" : 1,
                                "trackNumber" : 0,
                                "attributes" : {
                                  "ident" : "Rec 01-18-21"
                                },
                                "parameters" : {
                                  "cursorScale" : {
                                    "type" : "double",
                                    "defaultValue" : 0.0,
                                    "interp" : "linr"
                                  },
                                  "cursorOpacity" : {
                                    "type" : "double",
                                    "defaultValue" : 0.0,
                                    "interp" : "linr"
                                  }
                                },
                                "effects" : [

                                ],
                                "start" : 0,
                                "duration" : 300,
                                "mediaStart" : 0,
                                "mediaDuration" : 300,
                                "scalar" : 1,
                                "animationTracks" : {

                                }
                              },
                          "audio" : 
                              {
                                "id" : 240,
                                "_type" : "AMFile",
                                "src" : 1,
                                "trackNumber" : 1,
                                "attributes" : {
                                  "ident" : "",
                                  "gain" : 1.0,
                                  "mixToMono" : false
                                },
                                  "channelNumber" : "0,1",
                                "effects" : [

                                ],
                                "start" : 0,
                                "duration" : 300,
                                "mediaStart" : 0,
                                "mediaDuration" : 300,
                                "scalar" : 1,
                                "animationTracks" : {

                                }
                              }
,
                          "start" : 0,
                          "duration" : 300,
                          "mediaStart" : 0,
                          "mediaDuration" : 13486,
                          "scalar" : 1,
                          "metadata" : {
                            "AutoAppliedSmartFocus" : "False",
                            "clipSpeedAttribute" : false
                          }
                        },
                        {
                          "id" : 241,
                          "_type" : "UnifiedMedia",
                          "video" : 
                              {
                                "id" : 242,
                                "_type" : "ScreenVMFile",
                                "src" : 1,
                                "trackNumber" : 0,
                                "attributes" : {
                                  "ident" : "Rec 01-18-21"
                                },
                                "parameters" : {
                                  "cursorScale" : {
                                    "type" : "double",
                                    "defaultValue" : 0.0,
                                    "interp" : "linr"
                                  },
                                  "cursorOpacity" : {
                                    "type" : "double",
                                    "defaultValue" : 0.0,
                                    "interp" : "linr"
                                  }
                                },
                                "effects" : [

                                ],
                                "start" : 300,
                                "duration" : 52,
                                "mediaStart" : 313,
                                "mediaDuration" : 52,
                                "scalar" : 1,
                                "animationTracks" : {

                                }
                              },
                          "audio" : 
                              {
                                "id" : 243,
                                "_type" : "AMFile",
                                "src" : 1,
                                "trackNumber" : 1,
                                "attributes" : {
                                  "ident" : "",
                                  "gain" : 1.0,
                                  "mixToMono" : false
                                },
                                  "channelNumber" : "0,1",
                                "effects" : [

                                ],
                                "start" : 300,
                                "duration" : 52,
                                "mediaStart" : 313,
                                "mediaDuration" : 52,
                                "scalar" : 1,
                                "animationTracks" : {

                                }
                              }
,
                          "start" : 300,
                          "duration" : 52,
                          "mediaStart" : 0,
                          "mediaDuration" : 13486,
                          "scalar" : 1,
                          "metadata" : {
                            "AutoAppliedSmartFocus" : "False",
                            "clipSpeedAttribute" : false
                          }
                        },
                        {
                          "id" : 244,
                          "_type" : "UnifiedMedia",
                          "video" : 
                              {
                                "id" : 245,
                                "_type" : "ScreenVMFile",
                                "src" : 1,
                                "trackNumber" : 0,
                                "attributes" : {
                                  "ident" : "Rec 01-18-21"
                                },
                                "parameters" : {
                                  "cursorScale" : {
                                    "type" : "double",
                                    "defaultValue" : 0.0,
                                    "interp" : "linr"
                                  },
                                  "cursorOpacity" : {
                                    "type" : "double",
                                    "defaultValue" : 0.0,
                                    "interp" : "linr"
                                  }
                                },
                                "effects" : [

                                ],
                                "start" : 352,
                                "duration" : 63,
                                "mediaStart" : 439,
                                "mediaDuration" : 63,
                                "scalar" : 1,
                                "animationTracks" : {

                                }
                              },
                          "audio" : 
                              {
                                "id" : 246,
                                "_type" : "AMFile",
                                "src" : 1,
                                "trackNumber" : 1,
                                "attributes" : {
                                  "ident" : "",
                                  "gain" : 1.0,
                                  "mixToMono" : false
                                },
                                  "channelNumber" : "0,1",
                                "effects" : [

                                ],
                                "start" : 352,
                                "duration" : 63,
                                "mediaStart" : 439,
                                "mediaDuration" : 63,
                                "scalar" : 1,
                                "animationTracks" : {

                                }
                              }
,
                          "start" : 352,
                          "duration" : 63,
                          "mediaStart" : 0,
                          "mediaDuration" : 13486,
                          "scalar" : 1,
                          "metadata" : {
                            "AutoAppliedSmartFocus" : "False",
                            "clipSpeedAttribute" : false
                          }
                        },
                        {
                          "id" : 247,
                          "_type" : "UnifiedMedia",
                          "video" : 
                              {
                                "id" : 248,
                                "_type" : "ScreenVMFile",
                                "src" : 1,
                                "trackNumber" : 0,
                                "attributes" : {
                                  "ident" : "Rec 01-18-21"
                                },
                                "parameters" : {
                                  "cursorScale" : {
                                    "type" : "double",
                                    "defaultValue" : 0.0,
                                    "interp" : "linr"
                                  },
                                  "cursorOpacity" : {
                                    "type" : "double",
                                    "defaultValue" : 0.0,
                                    "interp" : "linr"
                                  }
                                },
                                "effects" : [

                                ],
                                "start" : 415,
                                "duration" : 17,
                                "mediaStart" : 573,
                                "mediaDuration" : 17,
                                "scalar" : 1,
                                "animationTracks" : {

                                }
                              },
                          "audio" : 
                              {
                                "id" : 249,
                                "_type" : "AMFile",
                                "src" : 1,
                                "trackNumber" : 1,
                                "attributes" : {
                                  "ident" : "",
                                  "gain" : 1.0,
                                  "mixToMono" : false
                                },
                                  "channelNumber" : "0,1",
                                "effects" : [

                                ],
                                "start" : 415,
                                "duration" : 17,
                                "mediaStart" : 573,
                                "mediaDuration" : 17,
                                "scalar" : 1,
                                "animationTracks" : {

                                }
                              }
,
                          "start" : 415,
                          "duration" : 17,
                          "mediaStart" : 0,
                          "mediaDuration" : 13486,
                          "scalar" : 1,
                          "metadata" : {
                            "AutoAppliedSmartFocus" : "False",
                            "clipSpeedAttribute" : false
                          }
                        },
                        {
                          "id" : 250,
                          "_type" : "UnifiedMedia",
                          "video" : 
                              {
                                "id" : 251,
                                "_type" : "ScreenVMFile",
                                "src" : 1,
                                "trackNumber" : 0,
                                "attributes" : {
                                  "ident" : "Rec 01-18-21"
                                },
                                "parameters" : {
                                  "cursorScale" : {
                                    "type" : "double",
                                    "defaultValue" : 0.0,
                                    "interp" : "linr"
                                  },
                                  "cursorOpacity" : {
                                    "type" : "double",
                                    "defaultValue" : 0.0,
                                    "interp" : "linr"
                                  }
                                },
                                "effects" : [

                                ],
                                "start" : 432,
                                "duration" : 23,
                                "mediaStart" : 597,
                                "mediaDuration" : 23,
                                "scalar" : 1,
                                "animationTracks" : {

                                }
                              },
                          "audio" : 
                              {
                                "id" : 252,
                                "_type" : "AMFile",
                                "src" : 1,
                                "trackNumber" : 1,
                                "attributes" : {
                                  "ident" : "",
                                  "gain" : 1.0,
                                  "mixToMono" : false
                                },
                                  "channelNumber" : "0,1",
                                "effects" : [

                                ],
                                "start" : 432,
                                "duration" : 23,
                                "mediaStart" : 597,
                                "mediaDuration" : 23,
                                "scalar" : 1,
                                "animationTracks" : {

                                }
                              }
,
                          "start" : 432,
                          "duration" : 23,
                          "mediaStart" : 0,
                          "mediaDuration" : 13486,
                          "scalar" : 1,
                          "metadata" : {
                            "AutoAppliedSmartFocus" : "False",
                            "clipSpeedAttribute" : false
                          }
                        },
                        {
                          "id" : 253,
                          "_type" : "UnifiedMedia",
                          "video" : 
                              {
                                "id" : 254,
                                "_type" : "ScreenVMFile",
                                "src" : 1,
                                "trackNumber" : 0,
                                "attributes" : {
                                  "ident" : "Rec 01-18-21"
                                },
                                "parameters" : {
                                  "cursorScale" : {
                                    "type" : "double",
                                    "defaultValue" : 0.0,
                                    "interp" : "linr"
                                  },
                                  "cursorOpacity" : {
                                    "type" : "double",
                                    "defaultValue" : 0.0,
                                    "interp" : "linr"
                                  }
                                },
                                "effects" : [

                                ],
                                "start" : 455,
                                "duration" : 49,
                                "mediaStart" : 627,
                                "mediaDuration" : 49,
                                "scalar" : 1,
                                "animationTracks" : {

                                }
                              },
                          "audio" : 
                              {
                                "id" : 255,
                                "_type" : "AMFile",
                                "src" : 1,
                                "trackNumber" : 1,
                                "attributes" : {
                                  "ident" : "",
                                  "gain" : 1.0,
                                  "mixToMono" : false
                                },
                                  "channelNumber" : "0,1",
                                "effects" : [

                                ],
                                "start" : 455,
                                "duration" : 49,
                                "mediaStart" : 627,
                                "mediaDuration" : 49,
                                "scalar" : 1,
                                "animationTracks" : {

                                }
                              }
,
                          "start" : 455,
                          "duration" : 49,
                          "mediaStart" : 0,
                          "mediaDuration" : 13486,
                          "scalar" : 1,
                          "metadata" : {
                            "AutoAppliedSmartFocus" : "False",
                            "clipSpeedAttribute" : false
                          }
                        },
                        {
                          "id" : 256,
                          "_type" : "UnifiedMedia",
                          "video" : 
                              {
                                "id" : 257,
                                "_type" : "ScreenVMFile",
                                "src" : 1,
                                "trackNumber" : 0,
                                "attributes" : {
                                  "ident" : "Rec 01-18-21"
                                },
                                "parameters" : {
                                  "cursorScale" : {
                                    "type" : "double",
                                    "defaultValue" : 0.0,
                                    "interp" : "linr"
                                  },
                                  "cursorOpacity" : {
                                    "type" : "double",
                                    "defaultValue" : 0.0,
                                    "interp" : "linr"
                                  }
                                },
                                "effects" : [

                                ],
                                "start" : 504,
                                "duration" : 435,
                                "mediaStart" : 820,
                                "mediaDuration" : 435,
                                "scalar" : 1,
                                "animationTracks" : {

                                }
                              },
                          "audio" : 
                              {
                                "id" : 258,
                                "_type" : "AMFile",
                                "src" : 1,
                                "trackNumber" : 1,
                                "attributes" : {
                                  "ident" : "",
                                  "gain" : 1.0,
                                  "mixToMono" : false
                                },
                                  "channelNumber" : "0,1",
                                "effects" : [

                                ],
                                "start" : 504,
                                "duration" : 435,
                                "mediaStart" : 820,
                                "mediaDuration" : 435,
                                "scalar" : 1,
                                "animationTracks" : {

                                }
                              }
,
                          "start" : 504,
                          "duration" : 435,
                          "mediaStart" : 0,
                          "mediaDuration" : 13486,
                          "scalar" : 1,
                          "metadata" : {
                            "AutoAppliedSmartFocus" : "False",
                            "clipSpeedAttribute" : false
                          }
                        },
                        {
                          "id" : 259,
                          "_type" : "UnifiedMedia",
                          "video" : 
                              {
                                "id" : 260,
                                "_type" : "ScreenVMFile",
                                "src" : 1,
                                "trackNumber" : 0,
                                "attributes" : {
                                  "ident" : "Rec 01-18-21"
                                },
                                "parameters" : {
                                  "cursorScale" : {
                                    "type" : "double",
                                    "defaultValue" : 0.0,
                                    "interp" : "linr"
                                  },
                                  "cursorOpacity" : {
                                    "type" : "double",
                                    "defaultValue" : 0.0,
                                    "interp" : "linr"
                                  }
                                },
                                "effects" : [

                                ],
                                "start" : 939,
                                "duration" : 21,
                                "mediaStart" : 1268,
                                "mediaDuration" : 21,
                                "scalar" : 1,
                                "animationTracks" : {

                                }
                              },
                          "audio" : 
                              {
                                "id" : 261,
                                "_type" : "AMFile",
                                "src" : 1,
                                "trackNumber" : 1,
                                "attributes" : {
                                  "ident" : "",
                                  "gain" : 1.0,
                                  "mixToMono" : false
                                },
                                  "channelNumber" : "0,1",
                                "effects" : [

                                ],
                                "start" : 939,
                                "duration" : 21,
                                "mediaStart" : 1268,
                                "mediaDuration" : 21,
                                "scalar" : 1,
                                "animationTracks" : {

                                }
                              }
,
                          "start" : 939,
                          "duration" : 21,
                          "mediaStart" : 0,
                          "mediaDuration" : 13486,
                          "scalar" : 1,
                          "metadata" : {
                            "AutoAppliedSmartFocus" : "False",
                            "clipSpeedAttribute" : false
                          }
                        },
                        {
                          "id" : 262,
                          "_type" : "UnifiedMedia",
                          "video" : 
                              {
                                "id" : 263,
                                "_type" : "ScreenVMFile",
                                "src" : 1,
                                "trackNumber" : 0,
                                "attributes" : {
                                  "ident" : "Rec 01-18-21"
                                },
                                "parameters" : {
                                  "cursorScale" : {
                                    "type" : "double",
                                    "defaultValue" : 0.0,
                                    "interp" : "linr"
                                  },
                                  "cursorOpacity" : {
                                    "type" : "double",
                                    "defaultValue" : 0.0,
                                    "interp" : "linr"
                                  }
                                },
                                "effects" : [

                                ],
                                "start" : 960,
                                "duration" : 68,
                                "mediaStart" : 1296,
                                "mediaDuration" : 68,
                                "scalar" : 1,
                                "animationTracks" : {

                                }
                              },
                          "audio" : 
                              {
                                "id" : 264,
                                "_type" : "AMFile",
                                "src" : 1,
                                "trackNumber" : 1,
                                "attributes" : {
                                  "ident" : "",
                                  "gain" : 1.0,
                                  "mixToMono" : false
                                },
                                  "channelNumber" : "0,1",
                                "effects" : [

                                ],
                                "start" : 960,
                                "duration" : 68,
                                "mediaStart" : 1296,
                                "mediaDuration" : 68,
                                "scalar" : 1,
                                "animationTracks" : {

                                }
                              }
,
                          "start" : 960,
                          "duration" : 68,
                          "mediaStart" : 0,
                          "mediaDuration" : 13486,
                          "scalar" : 1,
                          "metadata" : {
                            "AutoAppliedSmartFocus" : "False",
                            "clipSpeedAttribute" : false
                          }
                        },
                        {
                          "id" : 265,
                          "_type" : "UnifiedMedia",
                          "video" : 
                              {
                                "id" : 266,
                                "_type" : "ScreenVMFile",
                                "src" : 1,
                                "trackNumber" : 0,
                                "attributes" : {
                                  "ident" : "Rec 01-18-21"
                                },
                                "parameters" : {
                                  "cursorScale" : {
                                    "type" : "double",
                                    "defaultValue" : 0.0,
                                    "interp" : "linr"
                                  },
                                  "cursorOpacity" : {
                                    "type" : "double",
                                    "defaultValue" : 0.0,
                                    "interp" : "linr"
                                  }
                                },
                                "effects" : [

                                ],
                                "start" : 1028,
                                "duration" : 97,
                                "mediaStart" : 1774,
                                "mediaDuration" : 97,
                                "scalar" : 1,
                                "animationTracks" : {

                                }
                              },
                          "audio" : 
                              {
                                "id" : 267,
                                "_type" : "AMFile",
                                "src" : 1,
                                "trackNumber" : 1,
                                "attributes" : {
                                  "ident" : "",
                                  "gain" : 1.0,
                                  "mixToMono" : false
                                },
                                  "channelNumber" : "0,1",
                                "effects" : [

                                ],
                                "start" : 1028,
                                "duration" : 97,
                                "mediaStart" : 1774,
                                "mediaDuration" : 97,
                                "scalar" : 1,
                                "animationTracks" : {

                                }
                              }
,
                          "start" : 1028,
                          "duration" : 97,
                          "mediaStart" : 0,
                          "mediaDuration" : 13486,
                          "scalar" : 1,
                          "metadata" : {
                            "AutoAppliedSmartFocus" : "False",
                            "clipSpeedAttribute" : false
                          }
                        },
                        {
                          "id" : 268,
                          "_type" : "UnifiedMedia",
                          "video" : 
                              {
                                "id" : 269,
                                "_type" : "ScreenVMFile",
                                "src" : 1,
                                "trackNumber" : 0,
                                "attributes" : {
                                  "ident" : "Rec 01-18-21"
                                },
                                "parameters" : {
                                  "cursorScale" : {
                                    "type" : "double",
                                    "defaultValue" : 0.0,
                                    "interp" : "linr"
                                  },
                                  "cursorOpacity" : {
                                    "type" : "double",
                                    "defaultValue" : 0.0,
                                    "interp" : "linr"
                                  }
                                },
                                "effects" : [

                                ],
                                "start" : 1125,
                                "duration" : 40,
                                "mediaStart" : 1903,
                                "mediaDuration" : 40,
                                "scalar" : 1,
                                "animationTracks" : {

                                }
                              },
                          "audio" : 
                              {
                                "id" : 270,
                                "_type" : "AMFile",
                                "src" : 1,
                                "trackNumber" : 1,
                                "attributes" : {
                                  "ident" : "",
                                  "gain" : 1.0,
                                  "mixToMono" : false
                                },
                                  "channelNumber" : "0,1",
                                "effects" : [

                                ],
                                "start" : 1125,
                                "duration" : 40,
                                "mediaStart" : 1903,
                                "mediaDuration" : 40,
                                "scalar" : 1,
                                "animationTracks" : {

                                }
                              }
,
                          "start" : 1125,
                          "duration" : 40,
                          "mediaStart" : 0,
                          "mediaDuration" : 13486,
                          "scalar" : 1,
                          "metadata" : {
                            "AutoAppliedSmartFocus" : "False",
                            "clipSpeedAttribute" : false
                          }
                        },
                        {
                          "id" : 271,
                          "_type" : "UnifiedMedia",
                          "video" : 
                              {
                                "id" : 272,
                                "_type" : "ScreenVMFile",
                                "src" : 1,
                                "trackNumber" : 0,
                                "attributes" : {
                                  "ident" : "Rec 01-18-21"
                                },
                                "parameters" : {
                                  "cursorScale" : {
                                    "type" : "double",
                                    "defaultValue" : 0.0,
                                    "interp" : "linr"
                                  },
                                  "cursorOpacity" : {
                                    "type" : "double",
                                    "defaultValue" : 0.0,
                                    "interp" : "linr"
                                  }
                                },
                                "effects" : [

                                ],
                                "start" : 1165,
                                "duration" : 14,
                                "mediaStart" : 1954,
                                "mediaDuration" : 14,
                                "scalar" : 1,
                                "animationTracks" : {

                                }
                              },
                          "audio" : 
                              {
                                "id" : 273,
                                "_type" : "AMFile",
                                "src" : 1,
                                "trackNumber" : 1,
                                "attributes" : {
                                  "ident" : "",
                                  "gain" : 1.0,
                                  "mixToMono" : false
                                },
                                  "channelNumber" : "0,1",
                                "effects" : [

                                ],
                                "start" : 1165,
                                "duration" : 14,
                                "mediaStart" : 1954,
                                "mediaDuration" : 14,
                                "scalar" : 1,
                                "animationTracks" : {

                                }
                              }
,
                          "start" : 1165,
                          "duration" : 14,
                          "mediaStart" : 0,
                          "mediaDuration" : 13486,
                          "scalar" : 1,
                          "metadata" : {
                            "AutoAppliedSmartFocus" : "False",
                            "clipSpeedAttribute" : false
                          }
                        },
                        {
                          "id" : 274,
                          "_type" : "UnifiedMedia",
                          "video" : 
                              {
                                "id" : 275,
                                "_type" : "ScreenVMFile",
                                "src" : 1,
                                "trackNumber" : 0,
                                "attributes" : {
                                  "ident" : "Rec 01-18-21"
                                },
                                "parameters" : {
                                  "cursorScale" : {
                                    "type" : "double",
                                    "defaultValue" : 0.0,
                                    "interp" : "linr"
                                  },
                                  "cursorOpacity" : {
                                    "type" : "double",
                                    "defaultValue" : 0.0,
                                    "interp" : "linr"
                                  }
                                },
                                "effects" : [

                                ],
                                "start" : 1179,
                                "duration" : 670,
                                "mediaStart" : 1982,
                                "mediaDuration" : 670,
                                "scalar" : 1,
                                "animationTracks" : {

                                }
                              },
                          "audio" : 
                              {
                                "id" : 276,
                                "_type" : "AMFile",
                                "src" : 1,
                                "trackNumber" : 1,
                                "attributes" : {
                                  "ident" : "",
                                  "gain" : 1.0,
                                  "mixToMono" : false
                                },
                                  "channelNumber" : "0,1",
                                "effects" : [

                                ],
                                "start" : 1179,
                                "duration" : 670,
                                "mediaStart" : 1982,
                                "mediaDuration" : 670,
                                "scalar" : 1,
                                "animationTracks" : {

                                }
                              }
,
                          "start" : 1179,
                          "duration" : 670,
                          "mediaStart" : 0,
                          "mediaDuration" : 13486,
                          "scalar" : 1,
                          "metadata" : {
                            "AutoAppliedSmartFocus" : "False",
                            "clipSpeedAttribute" : false
                          }
                        },
                        {
                          "id" : 277,
                          "_type" : "UnifiedMedia",
                          "video" : 
                              {
                                "id" : 278,
                                "_type" : "ScreenVMFile",
                                "src" : 1,
                                "trackNumber" : 0,
                                "attributes" : {
                                  "ident" : "Rec 01-18-21"
                                },
                                "parameters" : {
                                  "cursorScale" : {
                                    "type" : "double",
                                    "defaultValue" : 0.0,
                                    "interp" : "linr"
                                  },
                                  "cursorOpacity" : {
                                    "type" : "double",
                                    "defaultValue" : 0.0,
                                    "interp" : "linr"
                                  }
                                },
                                "effects" : [

                                ],
                                "start" : 1849,
                                "duration" : 166,
                                "mediaStart" : 2666,
                                "mediaDuration" : 166,
                                "scalar" : 1,
                                "animationTracks" : {

                                }
                              },
                          "audio" : 
                              {
                                "id" : 279,
                                "_type" : "AMFile",
                                "src" : 1,
                                "trackNumber" : 1,
                                "attributes" : {
                                  "ident" : "",
                                  "gain" : 1.0,
                                  "mixToMono" : false
                                },
                                  "channelNumber" : "0,1",
                                "effects" : [

                                ],
                                "start" : 1849,
                                "duration" : 166,
                                "mediaStart" : 2666,
                                "mediaDuration" : 166,
                                "scalar" : 1,
                                "animationTracks" : {

                                }
                              }
,
                          "start" : 1849,
                          "duration" : 166,
                          "mediaStart" : 0,
                          "mediaDuration" : 13486,
                          "scalar" : 1,
                          "metadata" : {
                            "AutoAppliedSmartFocus" : "False",
                            "clipSpeedAttribute" : false
                          }
                        },
                        {
                          "id" : 280,
                          "_type" : "UnifiedMedia",
                          "video" : 
                              {
                                "id" : 281,
                                "_type" : "ScreenVMFile",
                                "src" : 1,
                                "trackNumber" : 0,
                                "attributes" : {
                                  "ident" : "Rec 01-18-21"
                                },
                                "parameters" : {
                                  "cursorScale" : {
                                    "type" : "double",
                                    "defaultValue" : 0.0,
                                    "interp" : "linr"
                                  },
                                  "cursorOpacity" : {
                                    "type" : "double",
                                    "defaultValue" : 0.0,
                                    "interp" : "linr"
                                  }
                                },
                                "effects" : [

                                ],
                                "start" : 2015,
                                "duration" : 276,
                                "mediaStart" : 3131,
                                "mediaDuration" : 276,
                                "scalar" : 1,
                                "animationTracks" : {

                                }
                              },
                          "audio" : 
                              {
                                "id" : 282,
                                "_type" : "AMFile",
                                "src" : 1,
                                "trackNumber" : 1,
                                "attributes" : {
                                  "ident" : "",
                                  "gain" : 1.0,
                                  "mixToMono" : false
                                },
                                  "channelNumber" : "0,1",
                                "effects" : [

                                ],
                                "start" : 2015,
                                "duration" : 276,
                                "mediaStart" : 3131,
                                "mediaDuration" : 276,
                                "scalar" : 1,
                                "animationTracks" : {

                                }
                              }
,
                          "start" : 2015,
                          "duration" : 276,
                          "mediaStart" : 0,
                          "mediaDuration" : 13486,
                          "scalar" : 1,
                          "metadata" : {
                            "AutoAppliedSmartFocus" : "False",
                            "clipSpeedAttribute" : false
                          }
                        },
                        {
                          "id" : 283,
                          "_type" : "UnifiedMedia",
                          "video" : 
                              {
                                "id" : 284,
                                "_type" : "ScreenVMFile",
                                "src" : 1,
                                "trackNumber" : 0,
                                "attributes" : {
                                  "ident" : "Rec 01-18-21"
                                },
                                "parameters" : {
                                  "cursorScale" : {
                                    "type" : "double",
                                    "defaultValue" : 0.0,
                                    "interp" : "linr"
                                  },
                                  "cursorOpacity" : {
                                    "type" : "double",
                                    "defaultValue" : 0.0,
                                    "interp" : "linr"
                                  }
                                },
                                "effects" : [

                                ],
                                "start" : 2291,
                                "duration" : 34,
                                "mediaStart" : 3433,
                                "mediaDuration" : 34,
                                "scalar" : 1,
                                "animationTracks" : {

                                }
                              },
                          "audio" : 
                              {
                                "id" : 285,
                                "_type" : "AMFile",
                                "src" : 1,
                                "trackNumber" : 1,
                                "attributes" : {
                                  "ident" : "",
                                  "gain" : 1.0,
                                  "mixToMono" : false
                                },
                                  "channelNumber" : "0,1",
                                "effects" : [

                                ],
                                "start" : 2291,
                                "duration" : 34,
                                "mediaStart" : 3433,
                                "mediaDuration" : 34,
                                "scalar" : 1,
                                "animationTracks" : {

                                }
                              }
,
                          "start" : 2291,
                          "duration" : 34,
                          "mediaStart" : 0,
                          "mediaDuration" : 13486,
                          "scalar" : 1,
                          "metadata" : {
                            "AutoAppliedSmartFocus" : "False",
                            "clipSpeedAttribute" : false
                          }
                        },
                        {
                          "id" : 286,
                          "_type" : "UnifiedMedia",
                          "video" : 
                              {
                                "id" : 287,
                                "_type" : "ScreenVMFile",
                                "src" : 1,
                                "trackNumber" : 0,
                                "attributes" : {
                                  "ident" : "Rec 01-18-21"
                                },
                                "parameters" : {
                                  "cursorScale" : {
                                    "type" : "double",
                                    "defaultValue" : 0.0,
                                    "interp" : "linr"
                                  },
                                  "cursorOpacity" : {
                                    "type" : "double",
                                    "defaultValue" : 0.0,
                                    "interp" : "linr"
                                  }
                                },
                                "effects" : [

                                ],
                                "start" : 2325,
                                "duration" : 27,
                                "mediaStart" : 3486,
                                "mediaDuration" : 27,
                                "scalar" : 1,
                                "animationTracks" : {

                                }
                              },
                          "audio" : 
                              {
                                "id" : 288,
                                "_type" : "AMFile",
                                "src" : 1,
                                "trackNumber" : 1,
                                "attributes" : {
                                  "ident" : "",
                                  "gain" : 1.0,
                                  "mixToMono" : false
                                },
                                  "channelNumber" : "0,1",
                                "effects" : [

                                ],
                                "start" : 2325,
                                "duration" : 27,
                                "mediaStart" : 3486,
                                "mediaDuration" : 27,
                                "scalar" : 1,
                                "animationTracks" : {

                                }
                              }
,
                          "start" : 2325,
                          "duration" : 27,
                          "mediaStart" : 0,
                          "mediaDuration" : 13486,
                          "scalar" : 1,
                          "metadata" : {
                            "AutoAppliedSmartFocus" : "False",
                            "clipSpeedAttribute" : false
                          }
                        },
                        {
                          "id" : 289,
                          "_type" : "UnifiedMedia",
                          "video" : 
                              {
                                "id" : 290,
                                "_type" : "ScreenVMFile",
                                "src" : 1,
                                "trackNumber" : 0,
                                "attributes" : {
                                  "ident" : "Rec 01-18-21"
                                },
                                "parameters" : {
                                  "cursorScale" : {
                                    "type" : "double",
                                    "defaultValue" : 0.0,
                                    "interp" : "linr"
                                  },
                                  "cursorOpacity" : {
                                    "type" : "double",
                                    "defaultValue" : 0.0,
                                    "interp" : "linr"
                                  }
                                },
                                "effects" : [

                                ],
                                "start" : 2352,
                                "duration" : 507,
                                "mediaStart" : 3555,
                                "mediaDuration" : 507,
                                "scalar" : 1,
                                "animationTracks" : {

                                }
                              },
                          "audio" : 
                              {
                                "id" : 291,
                                "_type" : "AMFile",
                                "src" : 1,
                                "trackNumber" : 1,
                                "attributes" : {
                                  "ident" : "",
                                  "gain" : 1.0,
                                  "mixToMono" : false
                                },
                                  "channelNumber" : "0,1",
                                "effects" : [

                                ],
                                "start" : 2352,
                                "duration" : 507,
                                "mediaStart" : 3555,
                                "mediaDuration" : 507,
                                "scalar" : 1,
                                "animationTracks" : {

                                }
                              }
,
                          "start" : 2352,
                          "duration" : 507,
                          "mediaStart" : 0,
                          "mediaDuration" : 13486,
                          "scalar" : 1,
                          "metadata" : {
                            "AutoAppliedSmartFocus" : "False",
                            "clipSpeedAttribute" : false
                          }
                        },
                        {
                          "id" : 292,
                          "_type" : "UnifiedMedia",
                          "video" : 
                              {
                                "id" : 293,
                                "_type" : "ScreenVMFile",
                                "src" : 1,
                                "trackNumber" : 0,
                                "attributes" : {
                                  "ident" : "Rec 01-18-21"
                                },
                                "parameters" : {
                                  "cursorScale" : {
                                    "type" : "double",
                                    "defaultValue" : 0.0,
                                    "interp" : "linr"
                                  },
                                  "cursorOpacity" : {
                                    "type" : "double",
                                    "defaultValue" : 0.0,
                                    "interp" : "linr"
                                  }
                                },
                                "effects" : [

                                ],
                                "start" : 2859,
                                "duration" : 60,
                                "mediaStart" : 4295,
                                "mediaDuration" : 60,
                                "scalar" : 1,
                                "animationTracks" : {

                                }
                              },
                          "audio" : 
                              {
                                "id" : 294,
                                "_type" : "AMFile",
                                "src" : 1,
                                "trackNumber" : 1,
                                "attributes" : {
                                  "ident" : "",
                                  "gain" : 1.0,
                                  "mixToMono" : false
                                },
                                  "channelNumber" : "0,1",
                                "effects" : [

                                ],
                                "start" : 2859,
                                "duration" : 60,
                                "mediaStart" : 4295,
                                "mediaDuration" : 60,
                                "scalar" : 1,
                                "animationTracks" : {

                                }
                              }
,
                          "start" : 2859,
                          "duration" : 60,
                          "mediaStart" : 0,
                          "mediaDuration" : 13486,
                          "scalar" : 1,
                          "metadata" : {
                            "AutoAppliedSmartFocus" : "False",
                            "clipSpeedAttribute" : false
                          }
                        },
                        {
                          "id" : 295,
                          "_type" : "UnifiedMedia",
                          "video" : 
                              {
                                "id" : 296,
                                "_type" : "ScreenVMFile",
                                "src" : 1,
                                "trackNumber" : 0,
                                "attributes" : {
                                  "ident" : "Rec 01-18-21"
                                },
                                "parameters" : {
                                  "cursorScale" : {
                                    "type" : "double",
                                    "defaultValue" : 0.0,
                                    "interp" : "linr"
                                  },
                                  "cursorOpacity" : {
                                    "type" : "double",
                                    "defaultValue" : 0.0,
                                    "interp" : "linr"
                                  }
                                },
                                "effects" : [

                                ],
                                "start" : 2919,
                                "duration" : 175,
                                "mediaStart" : 4387,
                                "mediaDuration" : 175,
                                "scalar" : 1,
                                "animationTracks" : {

                                }
                              },
                          "audio" : 
                              {
                                "id" : 297,
                                "_type" : "AMFile",
                                "src" : 1,
                                "trackNumber" : 1,
                                "attributes" : {
                                  "ident" : "",
                                  "gain" : 1.0,
                                  "mixToMono" : false
                                },
                                  "channelNumber" : "0,1",
                                "effects" : [

                                ],
                                "start" : 2919,
                                "duration" : 175,
                                "mediaStart" : 4387,
                                "mediaDuration" : 175,
                                "scalar" : 1,
                                "animationTracks" : {

                                }
                              }
,
                          "start" : 2919,
                          "duration" : 175,
                          "mediaStart" : 0,
                          "mediaDuration" : 13486,
                          "scalar" : 1,
                          "metadata" : {
                            "AutoAppliedSmartFocus" : "False",
                            "clipSpeedAttribute" : false
                          }
                        },
                        {
                          "id" : 298,
                          "_type" : "UnifiedMedia",
                          "video" : 
                              {
                                "id" : 299,
                                "_type" : "ScreenVMFile",
                                "src" : 1,
                                "trackNumber" : 0,
                                "attributes" : {
                                  "ident" : "Rec 01-18-21"
                                },
                                "parameters" : {
                                  "cursorScale" : {
                                    "type" : "double",
                                    "defaultValue" : 0.0,
                                    "interp" : "linr"
                                  },
                                  "cursorOpacity" : {
                                    "type" : "double",
                                    "defaultValue" : 0.0,
                                    "interp" : "linr"
                                  }
                                },
                                "effects" : [

                                ],
                                "start" : 3094,
                                "duration" : 47,
                                "mediaStart" : 4584,
                                "mediaDuration" : 47,
                                "scalar" : 1,
                                "animationTracks" : {

                                }
                              },
                          "audio" : 
                              {
                                "id" : 300,
                                "_type" : "AMFile",
                                "src" : 1,
                                "trackNumber" : 1,
                                "attributes" : {
                                  "ident" : "",
                                  "gain" : 1.0,
                                  "mixToMono" : false
                                },
                                  "channelNumber" : "0,1",
                                "effects" : [

                                ],
                                "start" : 3094,
                                "duration" : 47,
                                "mediaStart" : 4584,
                                "mediaDuration" : 47,
                                "scalar" : 1,
                                "animationTracks" : {

                                }
                              }
,
                          "start" : 3094,
                          "duration" : 47,
                          "mediaStart" : 0,
                          "mediaDuration" : 13486,
                          "scalar" : 1,
                          "metadata" : {
                            "AutoAppliedSmartFocus" : "False",
                            "clipSpeedAttribute" : false
                          }
                        },
                        {
                          "id" : 301,
                          "_type" : "UnifiedMedia",
                          "video" : 
                              {
                                "id" : 302,
                                "_type" : "ScreenVMFile",
                                "src" : 1,
                                "trackNumber" : 0,
                                "attributes" : {
                                  "ident" : "Rec 01-18-21"
                                },
                                "parameters" : {
                                  "cursorScale" : {
                                    "type" : "double",
                                    "defaultValue" : 0.0,
                                    "interp" : "linr"
                                  },
                                  "cursorOpacity" : {
                                    "type" : "double",
                                    "defaultValue" : 0.0,
                                    "interp" : "linr"
                                  }
                                },
                                "effects" : [

                                ],
                                "start" : 3141,
                                "duration" : 108,
                                "mediaStart" : 4679,
                                "mediaDuration" : 108,
                                "scalar" : 1,
                                "animationTracks" : {

                                }
                              },
                          "audio" : 
                              {
                                "id" : 303,
                                "_type" : "AMFile",
                                "src" : 1,
                                "trackNumber" : 1,
                                "attributes" : {
                                  "ident" : "",
                                  "gain" : 1.0,
                                  "mixToMono" : false
                                },
                                  "channelNumber" : "0,1",
                                "effects" : [

                                ],
                                "start" : 3141,
                                "duration" : 108,
                                "mediaStart" : 4679,
                                "mediaDuration" : 108,
                                "scalar" : 1,
                                "animationTracks" : {

                                }
                              }
,
                          "start" : 3141,
                          "duration" : 108,
                          "mediaStart" : 0,
                          "mediaDuration" : 13486,
                          "scalar" : 1,
                          "metadata" : {
                            "AutoAppliedSmartFocus" : "False",
                            "clipSpeedAttribute" : false
                          }
                        },
                        {
                          "id" : 304,
                          "_type" : "UnifiedMedia",
                          "video" : 
                              {
                                "id" : 305,
                                "_type" : "ScreenVMFile",
                                "src" : 1,
                                "trackNumber" : 0,
                                "attributes" : {
                                  "ident" : "Rec 01-18-21"
                                },
                                "parameters" : {
                                  "cursorScale" : {
                                    "type" : "double",
                                    "defaultValue" : 0.0,
                                    "interp" : "linr"
                                  },
                                  "cursorOpacity" : {
                                    "type" : "double",
                                    "defaultValue" : 0.0,
                                    "interp" : "linr"
                                  }
                                },
                                "effects" : [

                                ],
                                "start" : 3249,
                                "duration" : 174,
                                "mediaStart" : 4842,
                                "mediaDuration" : 174,
                                "scalar" : 1,
                                "animationTracks" : {

                                }
                              },
                          "audio" : 
                              {
                                "id" : 306,
                                "_type" : "AMFile",
                                "src" : 1,
                                "trackNumber" : 1,
                                "attributes" : {
                                  "ident" : "",
                                  "gain" : 1.0,
                                  "mixToMono" : false
                                },
                                  "channelNumber" : "0,1",
                                "effects" : [

                                ],
                                "start" : 3249,
                                "duration" : 174,
                                "mediaStart" : 4842,
                                "mediaDuration" : 174,
                                "scalar" : 1,
                                "animationTracks" : {

                                }
                              }
,
                          "start" : 3249,
                          "duration" : 174,
                          "mediaStart" : 0,
                          "mediaDuration" : 13486,
                          "scalar" : 1,
                          "metadata" : {
                            "AutoAppliedSmartFocus" : "False",
                            "clipSpeedAttribute" : false
                          }
                        },
                        {
                          "id" : 307,
                          "_type" : "UnifiedMedia",
                          "video" : 
                              {
                                "id" : 308,
                                "_type" : "ScreenVMFile",
                                "src" : 1,
                                "trackNumber" : 0,
                                "attributes" : {
                                  "ident" : "Rec 01-18-21"
                                },
                                "parameters" : {
                                  "cursorScale" : {
                                    "type" : "double",
                                    "defaultValue" : 0.0,
                                    "interp" : "linr"
                                  },
                                  "cursorOpacity" : {
                                    "type" : "double",
                                    "defaultValue" : 0.0,
                                    "interp" : "linr"
                                  }
                                },
                                "effects" : [

                                ],
                                "start" : 3423,
                                "duration" : 49,
                                "mediaStart" : 5028,
                                "mediaDuration" : 49,
                                "scalar" : 1,
                                "animationTracks" : {

                                }
                              },
                          "audio" : 
                              {
                                "id" : 309,
                                "_type" : "AMFile",
                                "src" : 1,
                                "trackNumber" : 1,
                                "attributes" : {
                                  "ident" : "",
                                  "gain" : 1.0,
                                  "mixToMono" : false
                                },
                                  "channelNumber" : "0,1",
                                "effects" : [

                                ],
                                "start" : 3423,
                                "duration" : 49,
                                "mediaStart" : 5028,
                                "mediaDuration" : 49,
                                "scalar" : 1,
                                "animationTracks" : {

                                }
                              }
,
                          "start" : 3423,
                          "duration" : 49,
                          "mediaStart" : 0,
                          "mediaDuration" : 13486,
                          "scalar" : 1,
                          "metadata" : {
                            "AutoAppliedSmartFocus" : "False",
                            "clipSpeedAttribute" : false
                          }
                        },
                        {
                          "id" : 310,
                          "_type" : "UnifiedMedia",
                          "video" : 
                              {
                                "id" : 311,
                                "_type" : "ScreenVMFile",
                                "src" : 1,
                                "trackNumber" : 0,
                                "attributes" : {
                                  "ident" : "Rec 01-18-21"
                                },
                                "parameters" : {
                                  "cursorScale" : {
                                    "type" : "double",
                                    "defaultValue" : 0.0,
                                    "interp" : "linr"
                                  },
                                  "cursorOpacity" : {
                                    "type" : "double",
                                    "defaultValue" : 0.0,
                                    "interp" : "linr"
                                  }
                                },
                                "effects" : [

                                ],
                                "start" : 3472,
                                "duration" : 8392,
                                "mediaStart" : 5094,
                                "mediaDuration" : 8392,
                                "scalar" : 1,
                                "animationTracks" : {

                                }
                              },
                          "audio" : 
                              {
                                "id" : 312,
                                "_type" : "AMFile",
                                "src" : 1,
                                "trackNumber" : 1,
                                "attributes" : {
                                  "ident" : "",
                                  "gain" : 1.0,
                                  "mixToMono" : false
                                },
                                  "channelNumber" : "0,1",
                                "effects" : [

                                ],
                                "start" : 3472,
                                "duration" : 8392,
                                "mediaStart" : 5094,
                                "mediaDuration" : 8392,
                                "scalar" : 1,
                                "animationTracks" : {

                                }
                              }
,
                          "start" : 3472,
                          "duration" : 8392,
                          "mediaStart" : 0,
                          "mediaDuration" : 13486,
                          "scalar" : 1,
                          "metadata" : {
                            "AutoAppliedSmartFocus" : "False",
                            "clipSpeedAttribute" : false
                          }
                        }
                    ],
                    "effects" : [

                    ],
                    "start" : 2512,
                    "duration" : 432,
                    "mediaStart" : 3133,
                    "mediaDuration" : 432,
                    "scalar" : 1,
                    "metadata" : {
                      "AutoAppliedSmartFocus" : "False",
                      "clipSpeedAttribute" : false
                    },
                    "animationTracks" : {

                    }
                  },
                  {
                    "id" : 313,
                    "_type" : "StitchedMedia",
                    "minMediaStart" : 0,
                    "attributes" : {
                      "ident" : "Rec 01-18-21",
                      "gain" : 1.0,
                      "mixToMono" : false
                    },
                    "parameters" : {
                      "volume" : 1.0,
                      "cursorOpacity" : 1.0,
                      "cursorScale" : 1.0
                    },
                    "medias" : [
                        {
                          "id" : 314,
                          "_type" : "UnifiedMedia",
                          "video" : 
                              {
                                "id" : 315,
                                "_type" : "ScreenVMFile",
                                "src" : 1,
                                "trackNumber" : 0,
                                "attributes" : {
                                  "ident" : "Rec 01-18-21"
                                },
                                "parameters" : {
                                  "cursorScale" : {
                                    "type" : "double",
                                    "defaultValue" : 0.0,
                                    "interp" : "linr"
                                  },
                                  "cursorOpacity" : {
                                    "type" : "double",
                                    "defaultValue" : 0.0,
                                    "interp" : "linr"
                                  }
                                },
                                "effects" : [

                                ],
                                "start" : 0,
                                "duration" : 300,
                                "mediaStart" : 0,
                                "mediaDuration" : 300,
                                "scalar" : 1,
                                "animationTracks" : {

                                }
                              },
                          "audio" : 
                              {
                                "id" : 316,
                                "_type" : "AMFile",
                                "src" : 1,
                                "trackNumber" : 1,
                                "attributes" : {
                                  "ident" : "",
                                  "gain" : 1.0,
                                  "mixToMono" : false
                                },
                                  "channelNumber" : "0,1",
                                "effects" : [

                                ],
                                "start" : 0,
                                "duration" : 300,
                                "mediaStart" : 0,
                                "mediaDuration" : 300,
                                "scalar" : 1,
                                "animationTracks" : {

                                }
                              }
,
                          "start" : 0,
                          "duration" : 300,
                          "mediaStart" : 0,
                          "mediaDuration" : 13486,
                          "scalar" : 1,
                          "metadata" : {
                            "AutoAppliedSmartFocus" : "False",
                            "clipSpeedAttribute" : false
                          }
                        },
                        {
                          "id" : 317,
                          "_type" : "UnifiedMedia",
                          "video" : 
                              {
                                "id" : 318,
                                "_type" : "ScreenVMFile",
                                "src" : 1,
                                "trackNumber" : 0,
                                "attributes" : {
                                  "ident" : "Rec 01-18-21"
                                },
                                "parameters" : {
                                  "cursorScale" : {
                                    "type" : "double",
                                    "defaultValue" : 0.0,
                                    "interp" : "linr"
                                  },
                                  "cursorOpacity" : {
                                    "type" : "double",
                                    "defaultValue" : 0.0,
                                    "interp" : "linr"
                                  }
                                },
                                "effects" : [

                                ],
                                "start" : 300,
                                "duration" : 52,
                                "mediaStart" : 313,
                                "mediaDuration" : 52,
                                "scalar" : 1,
                                "animationTracks" : {

                                }
                              },
                          "audio" : 
                              {
                                "id" : 319,
                                "_type" : "AMFile",
                                "src" : 1,
                                "trackNumber" : 1,
                                "attributes" : {
                                  "ident" : "",
                                  "gain" : 1.0,
                                  "mixToMono" : false
                                },
                                  "channelNumber" : "0,1",
                                "effects" : [

                                ],
                                "start" : 300,
                                "duration" : 52,
                                "mediaStart" : 313,
                                "mediaDuration" : 52,
                                "scalar" : 1,
                                "animationTracks" : {

                                }
                              }
,
                          "start" : 300,
                          "duration" : 52,
                          "mediaStart" : 0,
                          "mediaDuration" : 13486,
                          "scalar" : 1,
                          "metadata" : {
                            "AutoAppliedSmartFocus" : "False",
                            "clipSpeedAttribute" : false
                          }
                        },
                        {
                          "id" : 320,
                          "_type" : "UnifiedMedia",
                          "video" : 
                              {
                                "id" : 321,
                                "_type" : "ScreenVMFile",
                                "src" : 1,
                                "trackNumber" : 0,
                                "attributes" : {
                                  "ident" : "Rec 01-18-21"
                                },
                                "parameters" : {
                                  "cursorScale" : {
                                    "type" : "double",
                                    "defaultValue" : 0.0,
                                    "interp" : "linr"
                                  },
                                  "cursorOpacity" : {
                                    "type" : "double",
                                    "defaultValue" : 0.0,
                                    "interp" : "linr"
                                  }
                                },
                                "effects" : [

                                ],
                                "start" : 352,
                                "duration" : 63,
                                "mediaStart" : 439,
                                "mediaDuration" : 63,
                                "scalar" : 1,
                                "animationTracks" : {

                                }
                              },
                          "audio" : 
                              {
                                "id" : 322,
                                "_type" : "AMFile",
                                "src" : 1,
                                "trackNumber" : 1,
                                "attributes" : {
                                  "ident" : "",
                                  "gain" : 1.0,
                                  "mixToMono" : false
                                },
                                  "channelNumber" : "0,1",
                                "effects" : [

                                ],
                                "start" : 352,
                                "duration" : 63,
                                "mediaStart" : 439,
                                "mediaDuration" : 63,
                                "scalar" : 1,
                                "animationTracks" : {

                                }
                              }
,
                          "start" : 352,
                          "duration" : 63,
                          "mediaStart" : 0,
                          "mediaDuration" : 13486,
                          "scalar" : 1,
                          "metadata" : {
                            "AutoAppliedSmartFocus" : "False",
                            "clipSpeedAttribute" : false
                          }
                        },
                        {
                          "id" : 323,
                          "_type" : "UnifiedMedia",
                          "video" : 
                              {
                                "id" : 324,
                                "_type" : "ScreenVMFile",
                                "src" : 1,
                                "trackNumber" : 0,
                                "attributes" : {
                                  "ident" : "Rec 01-18-21"
                                },
                                "parameters" : {
                                  "cursorScale" : {
                                    "type" : "double",
                                    "defaultValue" : 0.0,
                                    "interp" : "linr"
                                  },
                                  "cursorOpacity" : {
                                    "type" : "double",
                                    "defaultValue" : 0.0,
                                    "interp" : "linr"
                                  }
                                },
                                "effects" : [

                                ],
                                "start" : 415,
                                "duration" : 17,
                                "mediaStart" : 573,
                                "mediaDuration" : 17,
                                "scalar" : 1,
                                "animationTracks" : {

                                }
                              },
                          "audio" : 
                              {
                                "id" : 325,
                                "_type" : "AMFile",
                                "src" : 1,
                                "trackNumber" : 1,
                                "attributes" : {
                                  "ident" : "",
                                  "gain" : 1.0,
                                  "mixToMono" : false
                                },
                                  "channelNumber" : "0,1",
                                "effects" : [

                                ],
                                "start" : 415,
                                "duration" : 17,
                                "mediaStart" : 573,
                                "mediaDuration" : 17,
                                "scalar" : 1,
                                "animationTracks" : {

                                }
                              }
,
                          "start" : 415,
                          "duration" : 17,
                          "mediaStart" : 0,
                          "mediaDuration" : 13486,
                          "scalar" : 1,
                          "metadata" : {
                            "AutoAppliedSmartFocus" : "False",
                            "clipSpeedAttribute" : false
                          }
                        },
                        {
                          "id" : 326,
                          "_type" : "UnifiedMedia",
                          "video" : 
                              {
                                "id" : 327,
                                "_type" : "ScreenVMFile",
                                "src" : 1,
                                "trackNumber" : 0,
                                "attributes" : {
                                  "ident" : "Rec 01-18-21"
                                },
                                "parameters" : {
                                  "cursorScale" : {
                                    "type" : "double",
                                    "defaultValue" : 0.0,
                                    "interp" : "linr"
                                  },
                                  "cursorOpacity" : {
                                    "type" : "double",
                                    "defaultValue" : 0.0,
                                    "interp" : "linr"
                                  }
                                },
                                "effects" : [

                                ],
                                "start" : 432,
                                "duration" : 23,
                                "mediaStart" : 597,
                                "mediaDuration" : 23,
                                "scalar" : 1,
                                "animationTracks" : {

                                }
                              },
                          "audio" : 
                              {
                                "id" : 328,
                                "_type" : "AMFile",
                                "src" : 1,
                                "trackNumber" : 1,
                                "attributes" : {
                                  "ident" : "",
                                  "gain" : 1.0,
                                  "mixToMono" : false
                                },
                                  "channelNumber" : "0,1",
                                "effects" : [

                                ],
                                "start" : 432,
                                "duration" : 23,
                                "mediaStart" : 597,
                                "mediaDuration" : 23,
                                "scalar" : 1,
                                "animationTracks" : {

                                }
                              }
,
                          "start" : 432,
                          "duration" : 23,
                          "mediaStart" : 0,
                          "mediaDuration" : 13486,
                          "scalar" : 1,
                          "metadata" : {
                            "AutoAppliedSmartFocus" : "False",
                            "clipSpeedAttribute" : false
                          }
                        },
                        {
                          "id" : 329,
                          "_type" : "UnifiedMedia",
                          "video" : 
                              {
                                "id" : 330,
                                "_type" : "ScreenVMFile",
                                "src" : 1,
                                "trackNumber" : 0,
                                "attributes" : {
                                  "ident" : "Rec 01-18-21"
                                },
                                "parameters" : {
                                  "cursorScale" : {
                                    "type" : "double",
                                    "defaultValue" : 0.0,
                                    "interp" : "linr"
                                  },
                                  "cursorOpacity" : {
                                    "type" : "double",
                                    "defaultValue" : 0.0,
                                    "interp" : "linr"
                                  }
                                },
                                "effects" : [

                                ],
                                "start" : 455,
                                "duration" : 49,
                                "mediaStart" : 627,
                                "mediaDuration" : 49,
                                "scalar" : 1,
                                "animationTracks" : {

                                }
                              },
                          "audio" : 
                              {
                                "id" : 331,
                                "_type" : "AMFile",
                                "src" : 1,
                                "trackNumber" : 1,
                                "attributes" : {
                                  "ident" : "",
                                  "gain" : 1.0,
                                  "mixToMono" : false
                                },
                                  "channelNumber" : "0,1",
                                "effects" : [

                                ],
                                "start" : 455,
                                "duration" : 49,
                                "mediaStart" : 627,
                                "mediaDuration" : 49,
                                "scalar" : 1,
                                "animationTracks" : {

                                }
                              }
,
                          "start" : 455,
                          "duration" : 49,
                          "mediaStart" : 0,
                          "mediaDuration" : 13486,
                          "scalar" : 1,
                          "metadata" : {
                            "AutoAppliedSmartFocus" : "False",
                            "clipSpeedAttribute" : false
                          }
                        },
                        {
                          "id" : 332,
                          "_type" : "UnifiedMedia",
                          "video" : 
                              {
                                "id" : 333,
                                "_type" : "ScreenVMFile",
                                "src" : 1,
                                "trackNumber" : 0,
                                "attributes" : {
                                  "ident" : "Rec 01-18-21"
                                },
                                "parameters" : {
                                  "cursorScale" : {
                                    "type" : "double",
                                    "defaultValue" : 0.0,
                                    "interp" : "linr"
                                  },
                                  "cursorOpacity" : {
                                    "type" : "double",
                                    "defaultValue" : 0.0,
                                    "interp" : "linr"
                                  }
                                },
                                "effects" : [

                                ],
                                "start" : 504,
                                "duration" : 435,
                                "mediaStart" : 820,
                                "mediaDuration" : 435,
                                "scalar" : 1,
                                "animationTracks" : {

                                }
                              },
                          "audio" : 
                              {
                                "id" : 334,
                                "_type" : "AMFile",
                                "src" : 1,
                                "trackNumber" : 1,
                                "attributes" : {
                                  "ident" : "",
                                  "gain" : 1.0,
                                  "mixToMono" : false
                                },
                                  "channelNumber" : "0,1",
                                "effects" : [

                                ],
                                "start" : 504,
                                "duration" : 435,
                                "mediaStart" : 820,
                                "mediaDuration" : 435,
                                "scalar" : 1,
                                "animationTracks" : {

                                }
                              }
,
                          "start" : 504,
                          "duration" : 435,
                          "mediaStart" : 0,
                          "mediaDuration" : 13486,
                          "scalar" : 1,
                          "metadata" : {
                            "AutoAppliedSmartFocus" : "False",
                            "clipSpeedAttribute" : false
                          }
                        },
                        {
                          "id" : 335,
                          "_type" : "UnifiedMedia",
                          "video" : 
                              {
                                "id" : 336,
                                "_type" : "ScreenVMFile",
                                "src" : 1,
                                "trackNumber" : 0,
                                "attributes" : {
                                  "ident" : "Rec 01-18-21"
                                },
                                "parameters" : {
                                  "cursorScale" : {
                                    "type" : "double",
                                    "defaultValue" : 0.0,
                                    "interp" : "linr"
                                  },
                                  "cursorOpacity" : {
                                    "type" : "double",
                                    "defaultValue" : 0.0,
                                    "interp" : "linr"
                                  }
                                },
                                "effects" : [

                                ],
                                "start" : 939,
                                "duration" : 21,
                                "mediaStart" : 1268,
                                "mediaDuration" : 21,
                                "scalar" : 1,
                                "animationTracks" : {

                                }
                              },
                          "audio" : 
                              {
                                "id" : 337,
                                "_type" : "AMFile",
                                "src" : 1,
                                "trackNumber" : 1,
                                "attributes" : {
                                  "ident" : "",
                                  "gain" : 1.0,
                                  "mixToMono" : false
                                },
                                  "channelNumber" : "0,1",
                                "effects" : [

                                ],
                                "start" : 939,
                                "duration" : 21,
                                "mediaStart" : 1268,
                                "mediaDuration" : 21,
                                "scalar" : 1,
                                "animationTracks" : {

                                }
                              }
,
                          "start" : 939,
                          "duration" : 21,
                          "mediaStart" : 0,
                          "mediaDuration" : 13486,
                          "scalar" : 1,
                          "metadata" : {
                            "AutoAppliedSmartFocus" : "False",
                            "clipSpeedAttribute" : false
                          }
                        },
                        {
                          "id" : 338,
                          "_type" : "UnifiedMedia",
                          "video" : 
                              {
                                "id" : 339,
                                "_type" : "ScreenVMFile",
                                "src" : 1,
                                "trackNumber" : 0,
                                "attributes" : {
                                  "ident" : "Rec 01-18-21"
                                },
                                "parameters" : {
                                  "cursorScale" : {
                                    "type" : "double",
                                    "defaultValue" : 0.0,
                                    "interp" : "linr"
                                  },
                                  "cursorOpacity" : {
                                    "type" : "double",
                                    "defaultValue" : 0.0,
                                    "interp" : "linr"
                                  }
                                },
                                "effects" : [

                                ],
                                "start" : 960,
                                "duration" : 68,
                                "mediaStart" : 1296,
                                "mediaDuration" : 68,
                                "scalar" : 1,
                                "animationTracks" : {

                                }
                              },
                          "audio" : 
                              {
                                "id" : 340,
                                "_type" : "AMFile",
                                "src" : 1,
                                "trackNumber" : 1,
                                "attributes" : {
                                  "ident" : "",
                                  "gain" : 1.0,
                                  "mixToMono" : false
                                },
                                  "channelNumber" : "0,1",
                                "effects" : [

                                ],
                                "start" : 960,
                                "duration" : 68,
                                "mediaStart" : 1296,
                                "mediaDuration" : 68,
                                "scalar" : 1,
                                "animationTracks" : {

                                }
                              }
,
                          "start" : 960,
                          "duration" : 68,
                          "mediaStart" : 0,
                          "mediaDuration" : 13486,
                          "scalar" : 1,
                          "metadata" : {
                            "AutoAppliedSmartFocus" : "False",
                            "clipSpeedAttribute" : false
                          }
                        },
                        {
                          "id" : 341,
                          "_type" : "UnifiedMedia",
                          "video" : 
                              {
                                "id" : 342,
                                "_type" : "ScreenVMFile",
                                "src" : 1,
                                "trackNumber" : 0,
                                "attributes" : {
                                  "ident" : "Rec 01-18-21"
                                },
                                "parameters" : {
                                  "cursorScale" : {
                                    "type" : "double",
                                    "defaultValue" : 0.0,
                                    "interp" : "linr"
                                  },
                                  "cursorOpacity" : {
                                    "type" : "double",
                                    "defaultValue" : 0.0,
                                    "interp" : "linr"
                                  }
                                },
                                "effects" : [

                                ],
                                "start" : 1028,
                                "duration" : 97,
                                "mediaStart" : 1774,
                                "mediaDuration" : 97,
                                "scalar" : 1,
                                "animationTracks" : {

                                }
                              },
                          "audio" : 
                              {
                                "id" : 343,
                                "_type" : "AMFile",
                                "src" : 1,
                                "trackNumber" : 1,
                                "attributes" : {
                                  "ident" : "",
                                  "gain" : 1.0,
                                  "mixToMono" : false
                                },
                                  "channelNumber" : "0,1",
                                "effects" : [

                                ],
                                "start" : 1028,
                                "duration" : 97,
                                "mediaStart" : 1774,
                                "mediaDuration" : 97,
                                "scalar" : 1,
                                "animationTracks" : {

                                }
                              }
,
                          "start" : 1028,
                          "duration" : 97,
                          "mediaStart" : 0,
                          "mediaDuration" : 13486,
                          "scalar" : 1,
                          "metadata" : {
                            "AutoAppliedSmartFocus" : "False",
                            "clipSpeedAttribute" : false
                          }
                        },
                        {
                          "id" : 344,
                          "_type" : "UnifiedMedia",
                          "video" : 
                              {
                                "id" : 345,
                                "_type" : "ScreenVMFile",
                                "src" : 1,
                                "trackNumber" : 0,
                                "attributes" : {
                                  "ident" : "Rec 01-18-21"
                                },
                                "parameters" : {
                                  "cursorScale" : {
                                    "type" : "double",
                                    "defaultValue" : 0.0,
                                    "interp" : "linr"
                                  },
                                  "cursorOpacity" : {
                                    "type" : "double",
                                    "defaultValue" : 0.0,
                                    "interp" : "linr"
                                  }
                                },
                                "effects" : [

                                ],
                                "start" : 1125,
                                "duration" : 40,
                                "mediaStart" : 1903,
                                "mediaDuration" : 40,
                                "scalar" : 1,
                                "animationTracks" : {

                                }
                              },
                          "audio" : 
                              {
                                "id" : 346,
                                "_type" : "AMFile",
                                "src" : 1,
                                "trackNumber" : 1,
                                "attributes" : {
                                  "ident" : "",
                                  "gain" : 1.0,
                                  "mixToMono" : false
                                },
                                  "channelNumber" : "0,1",
                                "effects" : [

                                ],
                                "start" : 1125,
                                "duration" : 40,
                                "mediaStart" : 1903,
                                "mediaDuration" : 40,
                                "scalar" : 1,
                                "animationTracks" : {

                                }
                              }
,
                          "start" : 1125,
                          "duration" : 40,
                          "mediaStart" : 0,
                          "mediaDuration" : 13486,
                          "scalar" : 1,
                          "metadata" : {
                            "AutoAppliedSmartFocus" : "False",
                            "clipSpeedAttribute" : false
                          }
                        },
                        {
                          "id" : 347,
                          "_type" : "UnifiedMedia",
                          "video" : 
                              {
                                "id" : 348,
                                "_type" : "ScreenVMFile",
                                "src" : 1,
                                "trackNumber" : 0,
                                "attributes" : {
                                  "ident" : "Rec 01-18-21"
                                },
                                "parameters" : {
                                  "cursorScale" : {
                                    "type" : "double",
                                    "defaultValue" : 0.0,
                                    "interp" : "linr"
                                  },
                                  "cursorOpacity" : {
                                    "type" : "double",
                                    "defaultValue" : 0.0,
                                    "interp" : "linr"
                                  }
                                },
                                "effects" : [

                                ],
                                "start" : 1165,
                                "duration" : 14,
                                "mediaStart" : 1954,
                                "mediaDuration" : 14,
                                "scalar" : 1,
                                "animationTracks" : {

                                }
                              },
                          "audio" : 
                              {
                                "id" : 349,
                                "_type" : "AMFile",
                                "src" : 1,
                                "trackNumber" : 1,
                                "attributes" : {
                                  "ident" : "",
                                  "gain" : 1.0,
                                  "mixToMono" : false
                                },
                                  "channelNumber" : "0,1",
                                "effects" : [

                                ],
                                "start" : 1165,
                                "duration" : 14,
                                "mediaStart" : 1954,
                                "mediaDuration" : 14,
                                "scalar" : 1,
                                "animationTracks" : {

                                }
                              }
,
                          "start" : 1165,
                          "duration" : 14,
                          "mediaStart" : 0,
                          "mediaDuration" : 13486,
                          "scalar" : 1,
                          "metadata" : {
                            "AutoAppliedSmartFocus" : "False",
                            "clipSpeedAttribute" : false
                          }
                        },
                        {
                          "id" : 350,
                          "_type" : "UnifiedMedia",
                          "video" : 
                              {
                                "id" : 351,
                                "_type" : "ScreenVMFile",
                                "src" : 1,
                                "trackNumber" : 0,
                                "attributes" : {
                                  "ident" : "Rec 01-18-21"
                                },
                                "parameters" : {
                                  "cursorScale" : {
                                    "type" : "double",
                                    "defaultValue" : 0.0,
                                    "interp" : "linr"
                                  },
                                  "cursorOpacity" : {
                                    "type" : "double",
                                    "defaultValue" : 0.0,
                                    "interp" : "linr"
                                  }
                                },
                                "effects" : [

                                ],
                                "start" : 1179,
                                "duration" : 670,
                                "mediaStart" : 1982,
                                "mediaDuration" : 670,
                                "scalar" : 1,
                                "animationTracks" : {

                                }
                              },
                          "audio" : 
                              {
                                "id" : 352,
                                "_type" : "AMFile",
                                "src" : 1,
                                "trackNumber" : 1,
                                "attributes" : {
                                  "ident" : "",
                                  "gain" : 1.0,
                                  "mixToMono" : false
                                },
                                  "channelNumber" : "0,1",
                                "effects" : [

                                ],
                                "start" : 1179,
                                "duration" : 670,
                                "mediaStart" : 1982,
                                "mediaDuration" : 670,
                                "scalar" : 1,
                                "animationTracks" : {

                                }
                              }
,
                          "start" : 1179,
                          "duration" : 670,
                          "mediaStart" : 0,
                          "mediaDuration" : 13486,
                          "scalar" : 1,
                          "metadata" : {
                            "AutoAppliedSmartFocus" : "False",
                            "clipSpeedAttribute" : false
                          }
                        },
                        {
                          "id" : 353,
                          "_type" : "UnifiedMedia",
                          "video" : 
                              {
                                "id" : 354,
                                "_type" : "ScreenVMFile",
                                "src" : 1,
                                "trackNumber" : 0,
                                "attributes" : {
                                  "ident" : "Rec 01-18-21"
                                },
                                "parameters" : {
                                  "cursorScale" : {
                                    "type" : "double",
                                    "defaultValue" : 0.0,
                                    "interp" : "linr"
                                  },
                                  "cursorOpacity" : {
                                    "type" : "double",
                                    "defaultValue" : 0.0,
                                    "interp" : "linr"
                                  }
                                },
                                "effects" : [

                                ],
                                "start" : 1849,
                                "duration" : 166,
                                "mediaStart" : 2666,
                                "mediaDuration" : 166,
                                "scalar" : 1,
                                "animationTracks" : {

                                }
                              },
                          "audio" : 
                              {
                                "id" : 355,
                                "_type" : "AMFile",
                                "src" : 1,
                                "trackNumber" : 1,
                                "attributes" : {
                                  "ident" : "",
                                  "gain" : 1.0,
                                  "mixToMono" : false
                                },
                                  "channelNumber" : "0,1",
                                "effects" : [

                                ],
                                "start" : 1849,
                                "duration" : 166,
                                "mediaStart" : 2666,
                                "mediaDuration" : 166,
                                "scalar" : 1,
                                "animationTracks" : {

                                }
                              }
,
                          "start" : 1849,
                          "duration" : 166,
                          "mediaStart" : 0,
                          "mediaDuration" : 13486,
                          "scalar" : 1,
                          "metadata" : {
                            "AutoAppliedSmartFocus" : "False",
                            "clipSpeedAttribute" : false
                          }
                        },
                        {
                          "id" : 356,
                          "_type" : "UnifiedMedia",
                          "video" : 
                              {
                                "id" : 357,
                                "_type" : "ScreenVMFile",
                                "src" : 1,
                                "trackNumber" : 0,
                                "attributes" : {
                                  "ident" : "Rec 01-18-21"
                                },
                                "parameters" : {
                                  "cursorScale" : {
                                    "type" : "double",
                                    "defaultValue" : 0.0,
                                    "interp" : "linr"
                                  },
                                  "cursorOpacity" : {
                                    "type" : "double",
                                    "defaultValue" : 0.0,
                                    "interp" : "linr"
                                  }
                                },
                                "effects" : [

                                ],
                                "start" : 2015,
                                "duration" : 276,
                                "mediaStart" : 3131,
                                "mediaDuration" : 276,
                                "scalar" : 1,
                                "animationTracks" : {

                                }
                              },
                          "audio" : 
                              {
                                "id" : 358,
                                "_type" : "AMFile",
                                "src" : 1,
                                "trackNumber" : 1,
                                "attributes" : {
                                  "ident" : "",
                                  "gain" : 1.0,
                                  "mixToMono" : false
                                },
                                  "channelNumber" : "0,1",
                                "effects" : [

                                ],
                                "start" : 2015,
                                "duration" : 276,
                                "mediaStart" : 3131,
                                "mediaDuration" : 276,
                                "scalar" : 1,
                                "animationTracks" : {

                                }
                              }
,
                          "start" : 2015,
                          "duration" : 276,
                          "mediaStart" : 0,
                          "mediaDuration" : 13486,
                          "scalar" : 1,
                          "metadata" : {
                            "AutoAppliedSmartFocus" : "False",
                            "clipSpeedAttribute" : false
                          }
                        },
                        {
                          "id" : 359,
                          "_type" : "UnifiedMedia",
                          "video" : 
                              {
                                "id" : 360,
                                "_type" : "ScreenVMFile",
                                "src" : 1,
                                "trackNumber" : 0,
                                "attributes" : {
                                  "ident" : "Rec 01-18-21"
                                },
                                "parameters" : {
                                  "cursorScale" : {
                                    "type" : "double",
                                    "defaultValue" : 0.0,
                                    "interp" : "linr"
                                  },
                                  "cursorOpacity" : {
                                    "type" : "double",
                                    "defaultValue" : 0.0,
                                    "interp" : "linr"
                                  }
                                },
                                "effects" : [

                                ],
                                "start" : 2291,
                                "duration" : 34,
                                "mediaStart" : 3433,
                                "mediaDuration" : 34,
                                "scalar" : 1,
                                "animationTracks" : {

                                }
                              },
                          "audio" : 
                              {
                                "id" : 361,
                                "_type" : "AMFile",
                                "src" : 1,
                                "trackNumber" : 1,
                                "attributes" : {
                                  "ident" : "",
                                  "gain" : 1.0,
                                  "mixToMono" : false
                                },
                                  "channelNumber" : "0,1",
                                "effects" : [

                                ],
                                "start" : 2291,
                                "duration" : 34,
                                "mediaStart" : 3433,
                                "mediaDuration" : 34,
                                "scalar" : 1,
                                "animationTracks" : {

                                }
                              }
,
                          "start" : 2291,
                          "duration" : 34,
                          "mediaStart" : 0,
                          "mediaDuration" : 13486,
                          "scalar" : 1,
                          "metadata" : {
                            "AutoAppliedSmartFocus" : "False",
                            "clipSpeedAttribute" : false
                          }
                        },
                        {
                          "id" : 362,
                          "_type" : "UnifiedMedia",
                          "video" : 
                              {
                                "id" : 363,
                                "_type" : "ScreenVMFile",
                                "src" : 1,
                                "trackNumber" : 0,
                                "attributes" : {
                                  "ident" : "Rec 01-18-21"
                                },
                                "parameters" : {
                                  "cursorScale" : {
                                    "type" : "double",
                                    "defaultValue" : 0.0,
                                    "interp" : "linr"
                                  },
                                  "cursorOpacity" : {
                                    "type" : "double",
                                    "defaultValue" : 0.0,
                                    "interp" : "linr"
                                  }
                                },
                                "effects" : [

                                ],
                                "start" : 2325,
                                "duration" : 27,
                                "mediaStart" : 3486,
                                "mediaDuration" : 27,
                                "scalar" : 1,
                                "animationTracks" : {

                                }
                              },
                          "audio" : 
                              {
                                "id" : 364,
                                "_type" : "AMFile",
                                "src" : 1,
                                "trackNumber" : 1,
                                "attributes" : {
                                  "ident" : "",
                                  "gain" : 1.0,
                                  "mixToMono" : false
                                },
                                  "channelNumber" : "0,1",
                                "effects" : [

                                ],
                                "start" : 2325,
                                "duration" : 27,
                                "mediaStart" : 3486,
                                "mediaDuration" : 27,
                                "scalar" : 1,
                                "animationTracks" : {

                                }
                              }
,
                          "start" : 2325,
                          "duration" : 27,
                          "mediaStart" : 0,
                          "mediaDuration" : 13486,
                          "scalar" : 1,
                          "metadata" : {
                            "AutoAppliedSmartFocus" : "False",
                            "clipSpeedAttribute" : false
                          }
                        },
                        {
                          "id" : 365,
                          "_type" : "UnifiedMedia",
                          "video" : 
                              {
                                "id" : 366,
                                "_type" : "ScreenVMFile",
                                "src" : 1,
                                "trackNumber" : 0,
                                "attributes" : {
                                  "ident" : "Rec 01-18-21"
                                },
                                "parameters" : {
                                  "cursorScale" : {
                                    "type" : "double",
                                    "defaultValue" : 0.0,
                                    "interp" : "linr"
                                  },
                                  "cursorOpacity" : {
                                    "type" : "double",
                                    "defaultValue" : 0.0,
                                    "interp" : "linr"
                                  }
                                },
                                "effects" : [

                                ],
                                "start" : 2352,
                                "duration" : 507,
                                "mediaStart" : 3555,
                                "mediaDuration" : 507,
                                "scalar" : 1,
                                "animationTracks" : {

                                }
                              },
                          "audio" : 
                              {
                                "id" : 367,
                                "_type" : "AMFile",
                                "src" : 1,
                                "trackNumber" : 1,
                                "attributes" : {
                                  "ident" : "",
                                  "gain" : 1.0,
                                  "mixToMono" : false
                                },
                                  "channelNumber" : "0,1",
                                "effects" : [

                                ],
                                "start" : 2352,
                                "duration" : 507,
                                "mediaStart" : 3555,
                                "mediaDuration" : 507,
                                "scalar" : 1,
                                "animationTracks" : {

                                }
                              }
,
                          "start" : 2352,
                          "duration" : 507,
                          "mediaStart" : 0,
                          "mediaDuration" : 13486,
                          "scalar" : 1,
                          "metadata" : {
                            "AutoAppliedSmartFocus" : "False",
                            "clipSpeedAttribute" : false
                          }
                        },
                        {
                          "id" : 368,
                          "_type" : "UnifiedMedia",
                          "video" : 
                              {
                                "id" : 369,
                                "_type" : "ScreenVMFile",
                                "src" : 1,
                                "trackNumber" : 0,
                                "attributes" : {
                                  "ident" : "Rec 01-18-21"
                                },
                                "parameters" : {
                                  "cursorScale" : {
                                    "type" : "double",
                                    "defaultValue" : 0.0,
                                    "interp" : "linr"
                                  },
                                  "cursorOpacity" : {
                                    "type" : "double",
                                    "defaultValue" : 0.0,
                                    "interp" : "linr"
                                  }
                                },
                                "effects" : [

                                ],
                                "start" : 2859,
                                "duration" : 60,
                                "mediaStart" : 4295,
                                "mediaDuration" : 60,
                                "scalar" : 1,
                                "animationTracks" : {

                                }
                              },
                          "audio" : 
                              {
                                "id" : 370,
                                "_type" : "AMFile",
                                "src" : 1,
                                "trackNumber" : 1,
                                "attributes" : {
                                  "ident" : "",
                                  "gain" : 1.0,
                                  "mixToMono" : false
                                },
                                  "channelNumber" : "0,1",
                                "effects" : [

                                ],
                                "start" : 2859,
                                "duration" : 60,
                                "mediaStart" : 4295,
                                "mediaDuration" : 60,
                                "scalar" : 1,
                                "animationTracks" : {

                                }
                              }
,
                          "start" : 2859,
                          "duration" : 60,
                          "mediaStart" : 0,
                          "mediaDuration" : 13486,
                          "scalar" : 1,
                          "metadata" : {
                            "AutoAppliedSmartFocus" : "False",
                            "clipSpeedAttribute" : false
                          }
                        },
                        {
                          "id" : 371,
                          "_type" : "UnifiedMedia",
                          "video" : 
                              {
                                "id" : 372,
                                "_type" : "ScreenVMFile",
                                "src" : 1,
                                "trackNumber" : 0,
                                "attributes" : {
                                  "ident" : "Rec 01-18-21"
                                },
                                "parameters" : {
                                  "cursorScale" : {
                                    "type" : "double",
                                    "defaultValue" : 0.0,
                                    "interp" : "linr"
                                  },
                                  "cursorOpacity" : {
                                    "type" : "double",
                                    "defaultValue" : 0.0,
                                    "interp" : "linr"
                                  }
                                },
                                "effects" : [

                                ],
                                "start" : 2919,
                                "duration" : 175,
                                "mediaStart" : 4387,
                                "mediaDuration" : 175,
                                "scalar" : 1,
                                "animationTracks" : {

                                }
                              },
                          "audio" : 
                              {
                                "id" : 373,
                                "_type" : "AMFile",
                                "src" : 1,
                                "trackNumber" : 1,
                                "attributes" : {
                                  "ident" : "",
                                  "gain" : 1.0,
                                  "mixToMono" : false
                                },
                                  "channelNumber" : "0,1",
                                "effects" : [

                                ],
                                "start" : 2919,
                                "duration" : 175,
                                "mediaStart" : 4387,
                                "mediaDuration" : 175,
                                "scalar" : 1,
                                "animationTracks" : {

                                }
                              }
,
                          "start" : 2919,
                          "duration" : 175,
                          "mediaStart" : 0,
                          "mediaDuration" : 13486,
                          "scalar" : 1,
                          "metadata" : {
                            "AutoAppliedSmartFocus" : "False",
                            "clipSpeedAttribute" : false
                          }
                        },
                        {
                          "id" : 374,
                          "_type" : "UnifiedMedia",
                          "video" : 
                              {
                                "id" : 375,
                                "_type" : "ScreenVMFile",
                                "src" : 1,
                                "trackNumber" : 0,
                                "attributes" : {
                                  "ident" : "Rec 01-18-21"
                                },
                                "parameters" : {
                                  "cursorScale" : {
                                    "type" : "double",
                                    "defaultValue" : 0.0,
                                    "interp" : "linr"
                                  },
                                  "cursorOpacity" : {
                                    "type" : "double",
                                    "defaultValue" : 0.0,
                                    "interp" : "linr"
                                  }
                                },
                                "effects" : [

                                ],
                                "start" : 3094,
                                "duration" : 47,
                                "mediaStart" : 4584,
                                "mediaDuration" : 47,
                                "scalar" : 1,
                                "animationTracks" : {

                                }
                              },
                          "audio" : 
                              {
                                "id" : 376,
                                "_type" : "AMFile",
                                "src" : 1,
                                "trackNumber" : 1,
                                "attributes" : {
                                  "ident" : "",
                                  "gain" : 1.0,
                                  "mixToMono" : false
                                },
                                  "channelNumber" : "0,1",
                                "effects" : [

                                ],
                                "start" : 3094,
                                "duration" : 47,
                                "mediaStart" : 4584,
                                "mediaDuration" : 47,
                                "scalar" : 1,
                                "animationTracks" : {

                                }
                              }
,
                          "start" : 3094,
                          "duration" : 47,
                          "mediaStart" : 0,
                          "mediaDuration" : 13486,
                          "scalar" : 1,
                          "metadata" : {
                            "AutoAppliedSmartFocus" : "False",
                            "clipSpeedAttribute" : false
                          }
                        },
                        {
                          "id" : 377,
                          "_type" : "UnifiedMedia",
                          "video" : 
                              {
                                "id" : 378,
                                "_type" : "ScreenVMFile",
                                "src" : 1,
                                "trackNumber" : 0,
                                "attributes" : {
                                  "ident" : "Rec 01-18-21"
                                },
                                "parameters" : {
                                  "cursorScale" : {
                                    "type" : "double",
                                    "defaultValue" : 0.0,
                                    "interp" : "linr"
                                  },
                                  "cursorOpacity" : {
                                    "type" : "double",
                                    "defaultValue" : 0.0,
                                    "interp" : "linr"
                                  }
                                },
                                "effects" : [

                                ],
                                "start" : 3141,
                                "duration" : 108,
                                "mediaStart" : 4679,
                                "mediaDuration" : 108,
                                "scalar" : 1,
                                "animationTracks" : {

                                }
                              },
                          "audio" : 
                              {
                                "id" : 379,
                                "_type" : "AMFile",
                                "src" : 1,
                                "trackNumber" : 1,
                                "attributes" : {
                                  "ident" : "",
                                  "gain" : 1.0,
                                  "mixToMono" : false
                                },
                                  "channelNumber" : "0,1",
                                "effects" : [

                                ],
                                "start" : 3141,
                                "duration" : 108,
                                "mediaStart" : 4679,
                                "mediaDuration" : 108,
                                "scalar" : 1,
                                "animationTracks" : {

                                }
                              }
,
                          "start" : 3141,
                          "duration" : 108,
                          "mediaStart" : 0,
                          "mediaDuration" : 13486,
                          "scalar" : 1,
                          "metadata" : {
                            "AutoAppliedSmartFocus" : "False",
                            "clipSpeedAttribute" : false
                          }
                        },
                        {
                          "id" : 380,
                          "_type" : "UnifiedMedia",
                          "video" : 
                              {
                                "id" : 381,
                                "_type" : "ScreenVMFile",
                                "src" : 1,
                                "trackNumber" : 0,
                                "attributes" : {
                                  "ident" : "Rec 01-18-21"
                                },
                                "parameters" : {
                                  "cursorScale" : {
                                    "type" : "double",
                                    "defaultValue" : 0.0,
                                    "interp" : "linr"
                                  },
                                  "cursorOpacity" : {
                                    "type" : "double",
                                    "defaultValue" : 0.0,
                                    "interp" : "linr"
                                  }
                                },
                                "effects" : [

                                ],
                                "start" : 3249,
                                "duration" : 174,
                                "mediaStart" : 4842,
                                "mediaDuration" : 174,
                                "scalar" : 1,
                                "animationTracks" : {

                                }
                              },
                          "audio" : 
                              {
                                "id" : 382,
                                "_type" : "AMFile",
                                "src" : 1,
                                "trackNumber" : 1,
                                "attributes" : {
                                  "ident" : "",
                                  "gain" : 1.0,
                                  "mixToMono" : false
                                },
                                  "channelNumber" : "0,1",
                                "effects" : [

                                ],
                                "start" : 3249,
                                "duration" : 174,
                                "mediaStart" : 4842,
                                "mediaDuration" : 174,
                                "scalar" : 1,
                                "animationTracks" : {

                                }
                              }
,
                          "start" : 3249,
                          "duration" : 174,
                          "mediaStart" : 0,
                          "mediaDuration" : 13486,
                          "scalar" : 1,
                          "metadata" : {
                            "AutoAppliedSmartFocus" : "False",
                            "clipSpeedAttribute" : false
                          }
                        },
                        {
                          "id" : 383,
                          "_type" : "UnifiedMedia",
                          "video" : 
                              {
                                "id" : 384,
                                "_type" : "ScreenVMFile",
                                "src" : 1,
                                "trackNumber" : 0,
                                "attributes" : {
                                  "ident" : "Rec 01-18-21"
                                },
                                "parameters" : {
                                  "cursorScale" : {
                                    "type" : "double",
                                    "defaultValue" : 0.0,
                                    "interp" : "linr"
                                  },
                                  "cursorOpacity" : {
                                    "type" : "double",
                                    "defaultValue" : 0.0,
                                    "interp" : "linr"
                                  }
                                },
                                "effects" : [

                                ],
                                "start" : 3423,
                                "duration" : 49,
                                "mediaStart" : 5028,
                                "mediaDuration" : 49,
                                "scalar" : 1,
                                "animationTracks" : {

                                }
                              },
                          "audio" : 
                              {
                                "id" : 385,
                                "_type" : "AMFile",
                                "src" : 1,
                                "trackNumber" : 1,
                                "attributes" : {
                                  "ident" : "",
                                  "gain" : 1.0,
                                  "mixToMono" : false
                                },
                                  "channelNumber" : "0,1",
                                "effects" : [

                                ],
                                "start" : 3423,
                                "duration" : 49,
                                "mediaStart" : 5028,
                                "mediaDuration" : 49,
                                "scalar" : 1,
                                "animationTracks" : {

                                }
                              }
,
                          "start" : 3423,
                          "duration" : 49,
                          "mediaStart" : 0,
                          "mediaDuration" : 13486,
                          "scalar" : 1,
                          "metadata" : {
                            "AutoAppliedSmartFocus" : "False",
                            "clipSpeedAttribute" : false
                          }
                        },
                        {
                          "id" : 386,
                          "_type" : "UnifiedMedia",
                          "video" : 
                              {
                                "id" : 387,
                                "_type" : "ScreenVMFile",
                                "src" : 1,
                                "trackNumber" : 0,
                                "attributes" : {
                                  "ident" : "Rec 01-18-21"
                                },
                                "parameters" : {
                                  "cursorScale" : {
                                    "type" : "double",
                                    "defaultValue" : 0.0,
                                    "interp" : "linr"
                                  },
                                  "cursorOpacity" : {
                                    "type" : "double",
                                    "defaultValue" : 0.0,
                                    "interp" : "linr"
                                  }
                                },
                                "effects" : [

                                ],
                                "start" : 3472,
                                "duration" : 2312,
                                "mediaStart" : 5094,
                                "mediaDuration" : 2312,
                                "scalar" : 1,
                                "animationTracks" : {

                                }
                              },
                          "audio" : 
                              {
                                "id" : 388,
                                "_type" : "AMFile",
                                "src" : 1,
                                "trackNumber" : 1,
                                "attributes" : {
                                  "ident" : "",
                                  "gain" : 1.0,
                                  "mixToMono" : false
                                },
                                  "channelNumber" : "0,1",
                                "effects" : [

                                ],
                                "start" : 3472,
                                "duration" : 2312,
                                "mediaStart" : 5094,
                                "mediaDuration" : 2312,
                                "scalar" : 1,
                                "animationTracks" : {

                                }
                              }
,
                          "start" : 3472,
                          "duration" : 2312,
                          "mediaStart" : 0,
                          "mediaDuration" : 13486,
                          "scalar" : 1,
                          "metadata" : {
                            "AutoAppliedSmartFocus" : "False",
                            "clipSpeedAttribute" : false
                          }
                        },
                        {
                          "id" : 389,
                          "_type" : "UnifiedMedia",
                          "video" : 
                              {
                                "id" : 390,
                                "_type" : "ScreenVMFile",
                                "src" : 1,
                                "trackNumber" : 0,
                                "attributes" : {
                                  "ident" : "Rec 01-18-21"
                                },
                                "parameters" : {
                                  "cursorScale" : {
                                    "type" : "double",
                                    "defaultValue" : 0.0,
                                    "interp" : "linr"
                                  },
                                  "cursorOpacity" : {
                                    "type" : "double",
                                    "defaultValue" : 0.0,
                                    "interp" : "linr"
                                  }
                                },
                                "effects" : [

                                ],
                                "start" : 5784,
                                "duration" : 44,
                                "mediaStart" : 7469,
                                "mediaDuration" : 44,
                                "scalar" : 1,
                                "animationTracks" : {

                                }
                              },
                          "audio" : 
                              {
                                "id" : 391,
                                "_type" : "AMFile",
                                "src" : 1,
                                "trackNumber" : 1,
                                "attributes" : {
                                  "ident" : "",
                                  "gain" : 1.0,
                                  "mixToMono" : false
                                },
                                  "channelNumber" : "0,1",
                                "effects" : [

                                ],
                                "start" : 5784,
                                "duration" : 44,
                                "mediaStart" : 7469,
                                "mediaDuration" : 44,
                                "scalar" : 1,
                                "animationTracks" : {

                                }
                              }
,
                          "start" : 5784,
                          "duration" : 44,
                          "mediaStart" : 0,
                          "mediaDuration" : 13486,
                          "scalar" : 1,
                          "metadata" : {
                            "AutoAppliedSmartFocus" : "False",
                            "clipSpeedAttribute" : false
                          }
                        },
                        {
                          "id" : 392,
                          "_type" : "UnifiedMedia",
                          "video" : 
                              {
                                "id" : 393,
                                "_type" : "ScreenVMFile",
                                "src" : 1,
                                "trackNumber" : 0,
                                "attributes" : {
                                  "ident" : "Rec 01-18-21"
                                },
                                "parameters" : {
                                  "cursorScale" : {
                                    "type" : "double",
                                    "defaultValue" : 0.0,
                                    "interp" : "linr"
                                  },
                                  "cursorOpacity" : {
                                    "type" : "double",
                                    "defaultValue" : 0.0,
                                    "interp" : "linr"
                                  }
                                },
                                "effects" : [

                                ],
                                "start" : 5828,
                                "duration" : 49,
                                "mediaStart" : 7552,
                                "mediaDuration" : 49,
                                "scalar" : 1,
                                "animationTracks" : {

                                }
                              },
                          "audio" : 
                              {
                                "id" : 394,
                                "_type" : "AMFile",
                                "src" : 1,
                                "trackNumber" : 1,
                                "attributes" : {
                                  "ident" : "",
                                  "gain" : 1.0,
                                  "mixToMono" : false
                                },
                                  "channelNumber" : "0,1",
                                "effects" : [

                                ],
                                "start" : 5828,
                                "duration" : 49,
                                "mediaStart" : 7552,
                                "mediaDuration" : 49,
                                "scalar" : 1,
                                "animationTracks" : {

                                }
                              }
,
                          "start" : 5828,
                          "duration" : 49,
                          "mediaStart" : 0,
                          "mediaDuration" : 13486,
                          "scalar" : 1,
                          "metadata" : {
                            "AutoAppliedSmartFocus" : "False",
                            "clipSpeedAttribute" : false
                          }
                        },
                        {
                          "id" : 395,
                          "_type" : "UnifiedMedia",
                          "video" : 
                              {
                                "id" : 396,
                                "_type" : "ScreenVMFile",
                                "src" : 1,
                                "trackNumber" : 0,
                                "attributes" : {
                                  "ident" : "Rec 01-18-21"
                                },
                                "parameters" : {
                                  "cursorScale" : {
                                    "type" : "double",
                                    "defaultValue" : 0.0,
                                    "interp" : "linr"
                                  },
                                  "cursorOpacity" : {
                                    "type" : "double",
                                    "defaultValue" : 0.0,
                                    "interp" : "linr"
                                  }
                                },
                                "effects" : [

                                ],
                                "start" : 5877,
                                "duration" : 149,
                                "mediaStart" : 7784,
                                "mediaDuration" : 149,
                                "scalar" : 1,
                                "animationTracks" : {

                                }
                              },
                          "audio" : 
                              {
                                "id" : 397,
                                "_type" : "AMFile",
                                "src" : 1,
                                "trackNumber" : 1,
                                "attributes" : {
                                  "ident" : "",
                                  "gain" : 1.0,
                                  "mixToMono" : false
                                },
                                  "channelNumber" : "0,1",
                                "effects" : [

                                ],
                                "start" : 5877,
                                "duration" : 149,
                                "mediaStart" : 7784,
                                "mediaDuration" : 149,
                                "scalar" : 1,
                                "animationTracks" : {

                                }
                              }
,
                          "start" : 5877,
                          "duration" : 149,
                          "mediaStart" : 0,
                          "mediaDuration" : 13486,
                          "scalar" : 1,
                          "metadata" : {
                            "AutoAppliedSmartFocus" : "False",
                            "clipSpeedAttribute" : false
                          }
                        },
                        {
                          "id" : 398,
                          "_type" : "UnifiedMedia",
                          "video" : 
                              {
                                "id" : 399,
                                "_type" : "ScreenVMFile",
                                "src" : 1,
                                "trackNumber" : 0,
                                "attributes" : {
                                  "ident" : "Rec 01-18-21"
                                },
                                "parameters" : {
                                  "cursorScale" : {
                                    "type" : "double",
                                    "defaultValue" : 0.0,
                                    "interp" : "linr"
                                  },
                                  "cursorOpacity" : {
                                    "type" : "double",
                                    "defaultValue" : 0.0,
                                    "interp" : "linr"
                                  }
                                },
                                "effects" : [

                                ],
                                "start" : 6026,
                                "duration" : 128,
                                "mediaStart" : 7946,
                                "mediaDuration" : 128,
                                "scalar" : 1,
                                "animationTracks" : {

                                }
                              },
                          "audio" : 
                              {
                                "id" : 400,
                                "_type" : "AMFile",
                                "src" : 1,
                                "trackNumber" : 1,
                                "attributes" : {
                                  "ident" : "",
                                  "gain" : 1.0,
                                  "mixToMono" : false
                                },
                                  "channelNumber" : "0,1",
                                "effects" : [

                                ],
                                "start" : 6026,
                                "duration" : 128,
                                "mediaStart" : 7946,
                                "mediaDuration" : 128,
                                "scalar" : 1,
                                "animationTracks" : {

                                }
                              }
,
                          "start" : 6026,
                          "duration" : 128,
                          "mediaStart" : 0,
                          "mediaDuration" : 13486,
                          "scalar" : 1,
                          "metadata" : {
                            "AutoAppliedSmartFocus" : "False",
                            "clipSpeedAttribute" : false
                          }
                        },
                        {
                          "id" : 401,
                          "_type" : "UnifiedMedia",
                          "video" : 
                              {
                                "id" : 402,
                                "_type" : "ScreenVMFile",
                                "src" : 1,
                                "trackNumber" : 0,
                                "attributes" : {
                                  "ident" : "Rec 01-18-21"
                                },
                                "parameters" : {
                                  "cursorScale" : {
                                    "type" : "double",
                                    "defaultValue" : 0.0,
                                    "interp" : "linr"
                                  },
                                  "cursorOpacity" : {
                                    "type" : "double",
                                    "defaultValue" : 0.0,
                                    "interp" : "linr"
                                  }
                                },
                                "effects" : [

                                ],
                                "start" : 6154,
                                "duration" : 5069,
                                "mediaStart" : 8417,
                                "mediaDuration" : 5069,
                                "scalar" : 1,
                                "animationTracks" : {

                                }
                              },
                          "audio" : 
                              {
                                "id" : 403,
                                "_type" : "AMFile",
                                "src" : 1,
                                "trackNumber" : 1,
                                "attributes" : {
                                  "ident" : "",
                                  "gain" : 1.0,
                                  "mixToMono" : false
                                },
                                  "channelNumber" : "0,1",
                                "effects" : [

                                ],
                                "start" : 6154,
                                "duration" : 5069,
                                "mediaStart" : 8417,
                                "mediaDuration" : 5069,
                                "scalar" : 1,
                                "animationTracks" : {

                                }
                              }
,
                          "start" : 6154,
                          "duration" : 5069,
                          "mediaStart" : 0,
                          "mediaDuration" : 13486,
                          "scalar" : 1,
                          "metadata" : {
                            "AutoAppliedSmartFocus" : "False",
                            "clipSpeedAttribute" : false
                          }
                        }
                    ],
                    "effects" : [

                    ],
                    "start" : 2944,
                    "duration" : 902,
                    "mediaStart" : 5625,
                    "mediaDuration" : 902,
                    "scalar" : 1,
                    "metadata" : {
                      "AutoAppliedSmartFocus" : "False",
                      "clipSpeedAttribute" : false
                    },
                    "animationTracks" : {

                    }
                  },
                  {
                    "id" : 404,
                    "_type" : "StitchedMedia",
                    "minMediaStart" : 0,
                    "attributes" : {
                      "ident" : "Rec 01-18-21",
                      "gain" : 1.0,
                      "mixToMono" : false
                    },
                    "parameters" : {
                      "volume" : 1.0,
                      "cursorOpacity" : 1.0,
                      "cursorScale" : 1.0
                    },
                    "medias" : [
                        {
                          "id" : 405,
                          "_type" : "UnifiedMedia",
                          "video" : 
                              {
                                "id" : 406,
                                "_type" : "ScreenVMFile",
                                "src" : 1,
                                "trackNumber" : 0,
                                "attributes" : {
                                  "ident" : "Rec 01-18-21"
                                },
                                "parameters" : {
                                  "cursorScale" : {
                                    "type" : "double",
                                    "defaultValue" : 0.0,
                                    "interp" : "linr"
                                  },
                                  "cursorOpacity" : {
                                    "type" : "double",
                                    "defaultValue" : 0.0,
                                    "interp" : "linr"
                                  }
                                },
                                "effects" : [

                                ],
                                "start" : 0,
                                "duration" : 300,
                                "mediaStart" : 0,
                                "mediaDuration" : 300,
                                "scalar" : 1,
                                "animationTracks" : {

                                }
                              },
                          "audio" : 
                              {
                                "id" : 407,
                                "_type" : "AMFile",
                                "src" : 1,
                                "trackNumber" : 1,
                                "attributes" : {
                                  "ident" : "",
                                  "gain" : 1.0,
                                  "mixToMono" : false
                                },
                                  "channelNumber" : "0,1",
                                "effects" : [

                                ],
                                "start" : 0,
                                "duration" : 300,
                                "mediaStart" : 0,
                                "mediaDuration" : 300,
                                "scalar" : 1,
                                "animationTracks" : {

                                }
                              }
,
                          "start" : 0,
                          "duration" : 300,
                          "mediaStart" : 0,
                          "mediaDuration" : 13486,
                          "scalar" : 1,
                          "metadata" : {
                            "AutoAppliedSmartFocus" : "False",
                            "clipSpeedAttribute" : false
                          }
                        },
                        {
                          "id" : 408,
                          "_type" : "UnifiedMedia",
                          "video" : 
                              {
                                "id" : 409,
                                "_type" : "ScreenVMFile",
                                "src" : 1,
                                "trackNumber" : 0,
                                "attributes" : {
                                  "ident" : "Rec 01-18-21"
                                },
                                "parameters" : {
                                  "cursorScale" : {
                                    "type" : "double",
                                    "defaultValue" : 0.0,
                                    "interp" : "linr"
                                  },
                                  "cursorOpacity" : {
                                    "type" : "double",
                                    "defaultValue" : 0.0,
                                    "interp" : "linr"
                                  }
                                },
                                "effects" : [

                                ],
                                "start" : 300,
                                "duration" : 52,
                                "mediaStart" : 313,
                                "mediaDuration" : 52,
                                "scalar" : 1,
                                "animationTracks" : {

                                }
                              },
                          "audio" : 
                              {
                                "id" : 410,
                                "_type" : "AMFile",
                                "src" : 1,
                                "trackNumber" : 1,
                                "attributes" : {
                                  "ident" : "",
                                  "gain" : 1.0,
                                  "mixToMono" : false
                                },
                                  "channelNumber" : "0,1",
                                "effects" : [

                                ],
                                "start" : 300,
                                "duration" : 52,
                                "mediaStart" : 313,
                                "mediaDuration" : 52,
                                "scalar" : 1,
                                "animationTracks" : {

                                }
                              }
,
                          "start" : 300,
                          "duration" : 52,
                          "mediaStart" : 0,
                          "mediaDuration" : 13486,
                          "scalar" : 1,
                          "metadata" : {
                            "AutoAppliedSmartFocus" : "False",
                            "clipSpeedAttribute" : false
                          }
                        },
                        {
                          "id" : 411,
                          "_type" : "UnifiedMedia",
                          "video" : 
                              {
                                "id" : 412,
                                "_type" : "ScreenVMFile",
                                "src" : 1,
                                "trackNumber" : 0,
                                "attributes" : {
                                  "ident" : "Rec 01-18-21"
                                },
                                "parameters" : {
                                  "cursorScale" : {
                                    "type" : "double",
                                    "defaultValue" : 0.0,
                                    "interp" : "linr"
                                  },
                                  "cursorOpacity" : {
                                    "type" : "double",
                                    "defaultValue" : 0.0,
                                    "interp" : "linr"
                                  }
                                },
                                "effects" : [

                                ],
                                "start" : 352,
                                "duration" : 63,
                                "mediaStart" : 439,
                                "mediaDuration" : 63,
                                "scalar" : 1,
                                "animationTracks" : {

                                }
                              },
                          "audio" : 
                              {
                                "id" : 413,
                                "_type" : "AMFile",
                                "src" : 1,
                                "trackNumber" : 1,
                                "attributes" : {
                                  "ident" : "",
                                  "gain" : 1.0,
                                  "mixToMono" : false
                                },
                                  "channelNumber" : "0,1",
                                "effects" : [

                                ],
                                "start" : 352,
                                "duration" : 63,
                                "mediaStart" : 439,
                                "mediaDuration" : 63,
                                "scalar" : 1,
                                "animationTracks" : {

                                }
                              }
,
                          "start" : 352,
                          "duration" : 63,
                          "mediaStart" : 0,
                          "mediaDuration" : 13486,
                          "scalar" : 1,
                          "metadata" : {
                            "AutoAppliedSmartFocus" : "False",
                            "clipSpeedAttribute" : false
                          }
                        },
                        {
                          "id" : 414,
                          "_type" : "UnifiedMedia",
                          "video" : 
                              {
                                "id" : 415,
                                "_type" : "ScreenVMFile",
                                "src" : 1,
                                "trackNumber" : 0,
                                "attributes" : {
                                  "ident" : "Rec 01-18-21"
                                },
                                "parameters" : {
                                  "cursorScale" : {
                                    "type" : "double",
                                    "defaultValue" : 0.0,
                                    "interp" : "linr"
                                  },
                                  "cursorOpacity" : {
                                    "type" : "double",
                                    "defaultValue" : 0.0,
                                    "interp" : "linr"
                                  }
                                },
                                "effects" : [

                                ],
                                "start" : 415,
                                "duration" : 17,
                                "mediaStart" : 573,
                                "mediaDuration" : 17,
                                "scalar" : 1,
                                "animationTracks" : {

                                }
                              },
                          "audio" : 
                              {
                                "id" : 416,
                                "_type" : "AMFile",
                                "src" : 1,
                                "trackNumber" : 1,
                                "attributes" : {
                                  "ident" : "",
                                  "gain" : 1.0,
                                  "mixToMono" : false
                                },
                                  "channelNumber" : "0,1",
                                "effects" : [

                                ],
                                "start" : 415,
                                "duration" : 17,
                                "mediaStart" : 573,
                                "mediaDuration" : 17,
                                "scalar" : 1,
                                "animationTracks" : {

                                }
                              }
,
                          "start" : 415,
                          "duration" : 17,
                          "mediaStart" : 0,
                          "mediaDuration" : 13486,
                          "scalar" : 1,
                          "metadata" : {
                            "AutoAppliedSmartFocus" : "False",
                            "clipSpeedAttribute" : false
                          }
                        },
                        {
                          "id" : 417,
                          "_type" : "UnifiedMedia",
                          "video" : 
                              {
                                "id" : 418,
                                "_type" : "ScreenVMFile",
                                "src" : 1,
                                "trackNumber" : 0,
                                "attributes" : {
                                  "ident" : "Rec 01-18-21"
                                },
                                "parameters" : {
                                  "cursorScale" : {
                                    "type" : "double",
                                    "defaultValue" : 0.0,
                                    "interp" : "linr"
                                  },
                                  "cursorOpacity" : {
                                    "type" : "double",
                                    "defaultValue" : 0.0,
                                    "interp" : "linr"
                                  }
                                },
                                "effects" : [

                                ],
                                "start" : 432,
                                "duration" : 23,
                                "mediaStart" : 597,
                                "mediaDuration" : 23,
                                "scalar" : 1,
                                "animationTracks" : {

                                }
                              },
                          "audio" : 
                              {
                                "id" : 419,
                                "_type" : "AMFile",
                                "src" : 1,
                                "trackNumber" : 1,
                                "attributes" : {
                                  "ident" : "",
                                  "gain" : 1.0,
                                  "mixToMono" : false
                                },
                                  "channelNumber" : "0,1",
                                "effects" : [

                                ],
                                "start" : 432,
                                "duration" : 23,
                                "mediaStart" : 597,
                                "mediaDuration" : 23,
                                "scalar" : 1,
                                "animationTracks" : {

                                }
                              }
,
                          "start" : 432,
                          "duration" : 23,
                          "mediaStart" : 0,
                          "mediaDuration" : 13486,
                          "scalar" : 1,
                          "metadata" : {
                            "AutoAppliedSmartFocus" : "False",
                            "clipSpeedAttribute" : false
                          }
                        },
                        {
                          "id" : 420,
                          "_type" : "UnifiedMedia",
                          "video" : 
                              {
                                "id" : 421,
                                "_type" : "ScreenVMFile",
                                "src" : 1,
                                "trackNumber" : 0,
                                "attributes" : {
                                  "ident" : "Rec 01-18-21"
                                },
                                "parameters" : {
                                  "cursorScale" : {
                                    "type" : "double",
                                    "defaultValue" : 0.0,
                                    "interp" : "linr"
                                  },
                                  "cursorOpacity" : {
                                    "type" : "double",
                                    "defaultValue" : 0.0,
                                    "interp" : "linr"
                                  }
                                },
                                "effects" : [

                                ],
                                "start" : 455,
                                "duration" : 49,
                                "mediaStart" : 627,
                                "mediaDuration" : 49,
                                "scalar" : 1,
                                "animationTracks" : {

                                }
                              },
                          "audio" : 
                              {
                                "id" : 422,
                                "_type" : "AMFile",
                                "src" : 1,
                                "trackNumber" : 1,
                                "attributes" : {
                                  "ident" : "",
                                  "gain" : 1.0,
                                  "mixToMono" : false
                                },
                                  "channelNumber" : "0,1",
                                "effects" : [

                                ],
                                "start" : 455,
                                "duration" : 49,
                                "mediaStart" : 627,
                                "mediaDuration" : 49,
                                "scalar" : 1,
                                "animationTracks" : {

                                }
                              }
,
                          "start" : 455,
                          "duration" : 49,
                          "mediaStart" : 0,
                          "mediaDuration" : 13486,
                          "scalar" : 1,
                          "metadata" : {
                            "AutoAppliedSmartFocus" : "False",
                            "clipSpeedAttribute" : false
                          }
                        },
                        {
                          "id" : 423,
                          "_type" : "UnifiedMedia",
                          "video" : 
                              {
                                "id" : 424,
                                "_type" : "ScreenVMFile",
                                "src" : 1,
                                "trackNumber" : 0,
                                "attributes" : {
                                  "ident" : "Rec 01-18-21"
                                },
                                "parameters" : {
                                  "cursorScale" : {
                                    "type" : "double",
                                    "defaultValue" : 0.0,
                                    "interp" : "linr"
                                  },
                                  "cursorOpacity" : {
                                    "type" : "double",
                                    "defaultValue" : 0.0,
                                    "interp" : "linr"
                                  }
                                },
                                "effects" : [

                                ],
                                "start" : 504,
                                "duration" : 435,
                                "mediaStart" : 820,
                                "mediaDuration" : 435,
                                "scalar" : 1,
                                "animationTracks" : {

                                }
                              },
                          "audio" : 
                              {
                                "id" : 425,
                                "_type" : "AMFile",
                                "src" : 1,
                                "trackNumber" : 1,
                                "attributes" : {
                                  "ident" : "",
                                  "gain" : 1.0,
                                  "mixToMono" : false
                                },
                                  "channelNumber" : "0,1",
                                "effects" : [

                                ],
                                "start" : 504,
                                "duration" : 435,
                                "mediaStart" : 820,
                                "mediaDuration" : 435,
                                "scalar" : 1,
                                "animationTracks" : {

                                }
                              }
,
                          "start" : 504,
                          "duration" : 435,
                          "mediaStart" : 0,
                          "mediaDuration" : 13486,
                          "scalar" : 1,
                          "metadata" : {
                            "AutoAppliedSmartFocus" : "False",
                            "clipSpeedAttribute" : false
                          }
                        },
                        {
                          "id" : 426,
                          "_type" : "UnifiedMedia",
                          "video" : 
                              {
                                "id" : 427,
                                "_type" : "ScreenVMFile",
                                "src" : 1,
                                "trackNumber" : 0,
                                "attributes" : {
                                  "ident" : "Rec 01-18-21"
                                },
                                "parameters" : {
                                  "cursorScale" : {
                                    "type" : "double",
                                    "defaultValue" : 0.0,
                                    "interp" : "linr"
                                  },
                                  "cursorOpacity" : {
                                    "type" : "double",
                                    "defaultValue" : 0.0,
                                    "interp" : "linr"
                                  }
                                },
                                "effects" : [

                                ],
                                "start" : 939,
                                "duration" : 21,
                                "mediaStart" : 1268,
                                "mediaDuration" : 21,
                                "scalar" : 1,
                                "animationTracks" : {

                                }
                              },
                          "audio" : 
                              {
                                "id" : 428,
                                "_type" : "AMFile",
                                "src" : 1,
                                "trackNumber" : 1,
                                "attributes" : {
                                  "ident" : "",
                                  "gain" : 1.0,
                                  "mixToMono" : false
                                },
                                  "channelNumber" : "0,1",
                                "effects" : [

                                ],
                                "start" : 939,
                                "duration" : 21,
                                "mediaStart" : 1268,
                                "mediaDuration" : 21,
                                "scalar" : 1,
                                "animationTracks" : {

                                }
                              }
,
                          "start" : 939,
                          "duration" : 21,
                          "mediaStart" : 0,
                          "mediaDuration" : 13486,
                          "scalar" : 1,
                          "metadata" : {
                            "AutoAppliedSmartFocus" : "False",
                            "clipSpeedAttribute" : false
                          }
                        },
                        {
                          "id" : 429,
                          "_type" : "UnifiedMedia",
                          "video" : 
                              {
                                "id" : 430,
                                "_type" : "ScreenVMFile",
                                "src" : 1,
                                "trackNumber" : 0,
                                "attributes" : {
                                  "ident" : "Rec 01-18-21"
                                },
                                "parameters" : {
                                  "cursorScale" : {
                                    "type" : "double",
                                    "defaultValue" : 0.0,
                                    "interp" : "linr"
                                  },
                                  "cursorOpacity" : {
                                    "type" : "double",
                                    "defaultValue" : 0.0,
                                    "interp" : "linr"
                                  }
                                },
                                "effects" : [

                                ],
                                "start" : 960,
                                "duration" : 68,
                                "mediaStart" : 1296,
                                "mediaDuration" : 68,
                                "scalar" : 1,
                                "animationTracks" : {

                                }
                              },
                          "audio" : 
                              {
                                "id" : 431,
                                "_type" : "AMFile",
                                "src" : 1,
                                "trackNumber" : 1,
                                "attributes" : {
                                  "ident" : "",
                                  "gain" : 1.0,
                                  "mixToMono" : false
                                },
                                  "channelNumber" : "0,1",
                                "effects" : [

                                ],
                                "start" : 960,
                                "duration" : 68,
                                "mediaStart" : 1296,
                                "mediaDuration" : 68,
                                "scalar" : 1,
                                "animationTracks" : {

                                }
                              }
,
                          "start" : 960,
                          "duration" : 68,
                          "mediaStart" : 0,
                          "mediaDuration" : 13486,
                          "scalar" : 1,
                          "metadata" : {
                            "AutoAppliedSmartFocus" : "False",
                            "clipSpeedAttribute" : false
                          }
                        },
                        {
                          "id" : 432,
                          "_type" : "UnifiedMedia",
                          "video" : 
                              {
                                "id" : 433,
                                "_type" : "ScreenVMFile",
                                "src" : 1,
                                "trackNumber" : 0,
                                "attributes" : {
                                  "ident" : "Rec 01-18-21"
                                },
                                "parameters" : {
                                  "cursorScale" : {
                                    "type" : "double",
                                    "defaultValue" : 0.0,
                                    "interp" : "linr"
                                  },
                                  "cursorOpacity" : {
                                    "type" : "double",
                                    "defaultValue" : 0.0,
                                    "interp" : "linr"
                                  }
                                },
                                "effects" : [

                                ],
                                "start" : 1028,
                                "duration" : 97,
                                "mediaStart" : 1774,
                                "mediaDuration" : 97,
                                "scalar" : 1,
                                "animationTracks" : {

                                }
                              },
                          "audio" : 
                              {
                                "id" : 434,
                                "_type" : "AMFile",
                                "src" : 1,
                                "trackNumber" : 1,
                                "attributes" : {
                                  "ident" : "",
                                  "gain" : 1.0,
                                  "mixToMono" : false
                                },
                                  "channelNumber" : "0,1",
                                "effects" : [

                                ],
                                "start" : 1028,
                                "duration" : 97,
                                "mediaStart" : 1774,
                                "mediaDuration" : 97,
                                "scalar" : 1,
                                "animationTracks" : {

                                }
                              }
,
                          "start" : 1028,
                          "duration" : 97,
                          "mediaStart" : 0,
                          "mediaDuration" : 13486,
                          "scalar" : 1,
                          "metadata" : {
                            "AutoAppliedSmartFocus" : "False",
                            "clipSpeedAttribute" : false
                          }
                        },
                        {
                          "id" : 435,
                          "_type" : "UnifiedMedia",
                          "video" : 
                              {
                                "id" : 436,
                                "_type" : "ScreenVMFile",
                                "src" : 1,
                                "trackNumber" : 0,
                                "attributes" : {
                                  "ident" : "Rec 01-18-21"
                                },
                                "parameters" : {
                                  "cursorScale" : {
                                    "type" : "double",
                                    "defaultValue" : 0.0,
                                    "interp" : "linr"
                                  },
                                  "cursorOpacity" : {
                                    "type" : "double",
                                    "defaultValue" : 0.0,
                                    "interp" : "linr"
                                  }
                                },
                                "effects" : [

                                ],
                                "start" : 1125,
                                "duration" : 40,
                                "mediaStart" : 1903,
                                "mediaDuration" : 40,
                                "scalar" : 1,
                                "animationTracks" : {

                                }
                              },
                          "audio" : 
                              {
                                "id" : 437,
                                "_type" : "AMFile",
                                "src" : 1,
                                "trackNumber" : 1,
                                "attributes" : {
                                  "ident" : "",
                                  "gain" : 1.0,
                                  "mixToMono" : false
                                },
                                  "channelNumber" : "0,1",
                                "effects" : [

                                ],
                                "start" : 1125,
                                "duration" : 40,
                                "mediaStart" : 1903,
                                "mediaDuration" : 40,
                                "scalar" : 1,
                                "animationTracks" : {

                                }
                              }
,
                          "start" : 1125,
                          "duration" : 40,
                          "mediaStart" : 0,
                          "mediaDuration" : 13486,
                          "scalar" : 1,
                          "metadata" : {
                            "AutoAppliedSmartFocus" : "False",
                            "clipSpeedAttribute" : false
                          }
                        },
                        {
                          "id" : 438,
                          "_type" : "UnifiedMedia",
                          "video" : 
                              {
                                "id" : 439,
                                "_type" : "ScreenVMFile",
                                "src" : 1,
                                "trackNumber" : 0,
                                "attributes" : {
                                  "ident" : "Rec 01-18-21"
                                },
                                "parameters" : {
                                  "cursorScale" : {
                                    "type" : "double",
                                    "defaultValue" : 0.0,
                                    "interp" : "linr"
                                  },
                                  "cursorOpacity" : {
                                    "type" : "double",
                                    "defaultValue" : 0.0,
                                    "interp" : "linr"
                                  }
                                },
                                "effects" : [

                                ],
                                "start" : 1165,
                                "duration" : 14,
                                "mediaStart" : 1954,
                                "mediaDuration" : 14,
                                "scalar" : 1,
                                "animationTracks" : {

                                }
                              },
                          "audio" : 
                              {
                                "id" : 440,
                                "_type" : "AMFile",
                                "src" : 1,
                                "trackNumber" : 1,
                                "attributes" : {
                                  "ident" : "",
                                  "gain" : 1.0,
                                  "mixToMono" : false
                                },
                                  "channelNumber" : "0,1",
                                "effects" : [

                                ],
                                "start" : 1165,
                                "duration" : 14,
                                "mediaStart" : 1954,
                                "mediaDuration" : 14,
                                "scalar" : 1,
                                "animationTracks" : {

                                }
                              }
,
                          "start" : 1165,
                          "duration" : 14,
                          "mediaStart" : 0,
                          "mediaDuration" : 13486,
                          "scalar" : 1,
                          "metadata" : {
                            "AutoAppliedSmartFocus" : "False",
                            "clipSpeedAttribute" : false
                          }
                        },
                        {
                          "id" : 441,
                          "_type" : "UnifiedMedia",
                          "video" : 
                              {
                                "id" : 442,
                                "_type" : "ScreenVMFile",
                                "src" : 1,
                                "trackNumber" : 0,
                                "attributes" : {
                                  "ident" : "Rec 01-18-21"
                                },
                                "parameters" : {
                                  "cursorScale" : {
                                    "type" : "double",
                                    "defaultValue" : 0.0,
                                    "interp" : "linr"
                                  },
                                  "cursorOpacity" : {
                                    "type" : "double",
                                    "defaultValue" : 0.0,
                                    "interp" : "linr"
                                  }
                                },
                                "effects" : [

                                ],
                                "start" : 1179,
                                "duration" : 670,
                                "mediaStart" : 1982,
                                "mediaDuration" : 670,
                                "scalar" : 1,
                                "animationTracks" : {

                                }
                              },
                          "audio" : 
                              {
                                "id" : 443,
                                "_type" : "AMFile",
                                "src" : 1,
                                "trackNumber" : 1,
                                "attributes" : {
                                  "ident" : "",
                                  "gain" : 1.0,
                                  "mixToMono" : false
                                },
                                  "channelNumber" : "0,1",
                                "effects" : [

                                ],
                                "start" : 1179,
                                "duration" : 670,
                                "mediaStart" : 1982,
                                "mediaDuration" : 670,
                                "scalar" : 1,
                                "animationTracks" : {

                                }
                              }
,
                          "start" : 1179,
                          "duration" : 670,
                          "mediaStart" : 0,
                          "mediaDuration" : 13486,
                          "scalar" : 1,
                          "metadata" : {
                            "AutoAppliedSmartFocus" : "False",
                            "clipSpeedAttribute" : false
                          }
                        },
                        {
                          "id" : 444,
                          "_type" : "UnifiedMedia",
                          "video" : 
                              {
                                "id" : 445,
                                "_type" : "ScreenVMFile",
                                "src" : 1,
                                "trackNumber" : 0,
                                "attributes" : {
                                  "ident" : "Rec 01-18-21"
                                },
                                "parameters" : {
                                  "cursorScale" : {
                                    "type" : "double",
                                    "defaultValue" : 0.0,
                                    "interp" : "linr"
                                  },
                                  "cursorOpacity" : {
                                    "type" : "double",
                                    "defaultValue" : 0.0,
                                    "interp" : "linr"
                                  }
                                },
                                "effects" : [

                                ],
                                "start" : 1849,
                                "duration" : 166,
                                "mediaStart" : 2666,
                                "mediaDuration" : 166,
                                "scalar" : 1,
                                "animationTracks" : {

                                }
                              },
                          "audio" : 
                              {
                                "id" : 446,
                                "_type" : "AMFile",
                                "src" : 1,
                                "trackNumber" : 1,
                                "attributes" : {
                                  "ident" : "",
                                  "gain" : 1.0,
                                  "mixToMono" : false
                                },
                                  "channelNumber" : "0,1",
                                "effects" : [

                                ],
                                "start" : 1849,
                                "duration" : 166,
                                "mediaStart" : 2666,
                                "mediaDuration" : 166,
                                "scalar" : 1,
                                "animationTracks" : {

                                }
                              }
,
                          "start" : 1849,
                          "duration" : 166,
                          "mediaStart" : 0,
                          "mediaDuration" : 13486,
                          "scalar" : 1,
                          "metadata" : {
                            "AutoAppliedSmartFocus" : "False",
                            "clipSpeedAttribute" : false
                          }
                        },
                        {
                          "id" : 447,
                          "_type" : "UnifiedMedia",
                          "video" : 
                              {
                                "id" : 448,
                                "_type" : "ScreenVMFile",
                                "src" : 1,
                                "trackNumber" : 0,
                                "attributes" : {
                                  "ident" : "Rec 01-18-21"
                                },
                                "parameters" : {
                                  "cursorScale" : {
                                    "type" : "double",
                                    "defaultValue" : 0.0,
                                    "interp" : "linr"
                                  },
                                  "cursorOpacity" : {
                                    "type" : "double",
                                    "defaultValue" : 0.0,
                                    "interp" : "linr"
                                  }
                                },
                                "effects" : [

                                ],
                                "start" : 2015,
                                "duration" : 276,
                                "mediaStart" : 3131,
                                "mediaDuration" : 276,
                                "scalar" : 1,
                                "animationTracks" : {

                                }
                              },
                          "audio" : 
                              {
                                "id" : 449,
                                "_type" : "AMFile",
                                "src" : 1,
                                "trackNumber" : 1,
                                "attributes" : {
                                  "ident" : "",
                                  "gain" : 1.0,
                                  "mixToMono" : false
                                },
                                  "channelNumber" : "0,1",
                                "effects" : [

                                ],
                                "start" : 2015,
                                "duration" : 276,
                                "mediaStart" : 3131,
                                "mediaDuration" : 276,
                                "scalar" : 1,
                                "animationTracks" : {

                                }
                              }
,
                          "start" : 2015,
                          "duration" : 276,
                          "mediaStart" : 0,
                          "mediaDuration" : 13486,
                          "scalar" : 1,
                          "metadata" : {
                            "AutoAppliedSmartFocus" : "False",
                            "clipSpeedAttribute" : false
                          }
                        },
                        {
                          "id" : 450,
                          "_type" : "UnifiedMedia",
                          "video" : 
                              {
                                "id" : 451,
                                "_type" : "ScreenVMFile",
                                "src" : 1,
                                "trackNumber" : 0,
                                "attributes" : {
                                  "ident" : "Rec 01-18-21"
                                },
                                "parameters" : {
                                  "cursorScale" : {
                                    "type" : "double",
                                    "defaultValue" : 0.0,
                                    "interp" : "linr"
                                  },
                                  "cursorOpacity" : {
                                    "type" : "double",
                                    "defaultValue" : 0.0,
                                    "interp" : "linr"
                                  }
                                },
                                "effects" : [

                                ],
                                "start" : 2291,
                                "duration" : 34,
                                "mediaStart" : 3433,
                                "mediaDuration" : 34,
                                "scalar" : 1,
                                "animationTracks" : {

                                }
                              },
                          "audio" : 
                              {
                                "id" : 452,
                                "_type" : "AMFile",
                                "src" : 1,
                                "trackNumber" : 1,
                                "attributes" : {
                                  "ident" : "",
                                  "gain" : 1.0,
                                  "mixToMono" : false
                                },
                                  "channelNumber" : "0,1",
                                "effects" : [

                                ],
                                "start" : 2291,
                                "duration" : 34,
                                "mediaStart" : 3433,
                                "mediaDuration" : 34,
                                "scalar" : 1,
                                "animationTracks" : {

                                }
                              }
,
                          "start" : 2291,
                          "duration" : 34,
                          "mediaStart" : 0,
                          "mediaDuration" : 13486,
                          "scalar" : 1,
                          "metadata" : {
                            "AutoAppliedSmartFocus" : "False",
                            "clipSpeedAttribute" : false
                          }
                        },
                        {
                          "id" : 453,
                          "_type" : "UnifiedMedia",
                          "video" : 
                              {
                                "id" : 454,
                                "_type" : "ScreenVMFile",
                                "src" : 1,
                                "trackNumber" : 0,
                                "attributes" : {
                                  "ident" : "Rec 01-18-21"
                                },
                                "parameters" : {
                                  "cursorScale" : {
                                    "type" : "double",
                                    "defaultValue" : 0.0,
                                    "interp" : "linr"
                                  },
                                  "cursorOpacity" : {
                                    "type" : "double",
                                    "defaultValue" : 0.0,
                                    "interp" : "linr"
                                  }
                                },
                                "effects" : [

                                ],
                                "start" : 2325,
                                "duration" : 27,
                                "mediaStart" : 3486,
                                "mediaDuration" : 27,
                                "scalar" : 1,
                                "animationTracks" : {

                                }
                              },
                          "audio" : 
                              {
                                "id" : 455,
                                "_type" : "AMFile",
                                "src" : 1,
                                "trackNumber" : 1,
                                "attributes" : {
                                  "ident" : "",
                                  "gain" : 1.0,
                                  "mixToMono" : false
                                },
                                  "channelNumber" : "0,1",
                                "effects" : [

                                ],
                                "start" : 2325,
                                "duration" : 27,
                                "mediaStart" : 3486,
                                "mediaDuration" : 27,
                                "scalar" : 1,
                                "animationTracks" : {

                                }
                              }
,
                          "start" : 2325,
                          "duration" : 27,
                          "mediaStart" : 0,
                          "mediaDuration" : 13486,
                          "scalar" : 1,
                          "metadata" : {
                            "AutoAppliedSmartFocus" : "False",
                            "clipSpeedAttribute" : false
                          }
                        },
                        {
                          "id" : 456,
                          "_type" : "UnifiedMedia",
                          "video" : 
                              {
                                "id" : 457,
                                "_type" : "ScreenVMFile",
                                "src" : 1,
                                "trackNumber" : 0,
                                "attributes" : {
                                  "ident" : "Rec 01-18-21"
                                },
                                "parameters" : {
                                  "cursorScale" : {
                                    "type" : "double",
                                    "defaultValue" : 0.0,
                                    "interp" : "linr"
                                  },
                                  "cursorOpacity" : {
                                    "type" : "double",
                                    "defaultValue" : 0.0,
                                    "interp" : "linr"
                                  }
                                },
                                "effects" : [

                                ],
                                "start" : 2352,
                                "duration" : 507,
                                "mediaStart" : 3555,
                                "mediaDuration" : 507,
                                "scalar" : 1,
                                "animationTracks" : {

                                }
                              },
                          "audio" : 
                              {
                                "id" : 458,
                                "_type" : "AMFile",
                                "src" : 1,
                                "trackNumber" : 1,
                                "attributes" : {
                                  "ident" : "",
                                  "gain" : 1.0,
                                  "mixToMono" : false
                                },
                                  "channelNumber" : "0,1",
                                "effects" : [

                                ],
                                "start" : 2352,
                                "duration" : 507,
                                "mediaStart" : 3555,
                                "mediaDuration" : 507,
                                "scalar" : 1,
                                "animationTracks" : {

                                }
                              }
,
                          "start" : 2352,
                          "duration" : 507,
                          "mediaStart" : 0,
                          "mediaDuration" : 13486,
                          "scalar" : 1,
                          "metadata" : {
                            "AutoAppliedSmartFocus" : "False",
                            "clipSpeedAttribute" : false
                          }
                        },
                        {
                          "id" : 459,
                          "_type" : "UnifiedMedia",
                          "video" : 
                              {
                                "id" : 460,
                                "_type" : "ScreenVMFile",
                                "src" : 1,
                                "trackNumber" : 0,
                                "attributes" : {
                                  "ident" : "Rec 01-18-21"
                                },
                                "parameters" : {
                                  "cursorScale" : {
                                    "type" : "double",
                                    "defaultValue" : 0.0,
                                    "interp" : "linr"
                                  },
                                  "cursorOpacity" : {
                                    "type" : "double",
                                    "defaultValue" : 0.0,
                                    "interp" : "linr"
                                  }
                                },
                                "effects" : [

                                ],
                                "start" : 2859,
                                "duration" : 60,
                                "mediaStart" : 4295,
                                "mediaDuration" : 60,
                                "scalar" : 1,
                                "animationTracks" : {

                                }
                              },
                          "audio" : 
                              {
                                "id" : 461,
                                "_type" : "AMFile",
                                "src" : 1,
                                "trackNumber" : 1,
                                "attributes" : {
                                  "ident" : "",
                                  "gain" : 1.0,
                                  "mixToMono" : false
                                },
                                  "channelNumber" : "0,1",
                                "effects" : [

                                ],
                                "start" : 2859,
                                "duration" : 60,
                                "mediaStart" : 4295,
                                "mediaDuration" : 60,
                                "scalar" : 1,
                                "animationTracks" : {

                                }
                              }
,
                          "start" : 2859,
                          "duration" : 60,
                          "mediaStart" : 0,
                          "mediaDuration" : 13486,
                          "scalar" : 1,
                          "metadata" : {
                            "AutoAppliedSmartFocus" : "False",
                            "clipSpeedAttribute" : false
                          }
                        },
                        {
                          "id" : 462,
                          "_type" : "UnifiedMedia",
                          "video" : 
                              {
                                "id" : 463,
                                "_type" : "ScreenVMFile",
                                "src" : 1,
                                "trackNumber" : 0,
                                "attributes" : {
                                  "ident" : "Rec 01-18-21"
                                },
                                "parameters" : {
                                  "cursorScale" : {
                                    "type" : "double",
                                    "defaultValue" : 0.0,
                                    "interp" : "linr"
                                  },
                                  "cursorOpacity" : {
                                    "type" : "double",
                                    "defaultValue" : 0.0,
                                    "interp" : "linr"
                                  }
                                },
                                "effects" : [

                                ],
                                "start" : 2919,
                                "duration" : 175,
                                "mediaStart" : 4387,
                                "mediaDuration" : 175,
                                "scalar" : 1,
                                "animationTracks" : {

                                }
                              },
                          "audio" : 
                              {
                                "id" : 464,
                                "_type" : "AMFile",
                                "src" : 1,
                                "trackNumber" : 1,
                                "attributes" : {
                                  "ident" : "",
                                  "gain" : 1.0,
                                  "mixToMono" : false
                                },
                                  "channelNumber" : "0,1",
                                "effects" : [

                                ],
                                "start" : 2919,
                                "duration" : 175,
                                "mediaStart" : 4387,
                                "mediaDuration" : 175,
                                "scalar" : 1,
                                "animationTracks" : {

                                }
                              }
,
                          "start" : 2919,
                          "duration" : 175,
                          "mediaStart" : 0,
                          "mediaDuration" : 13486,
                          "scalar" : 1,
                          "metadata" : {
                            "AutoAppliedSmartFocus" : "False",
                            "clipSpeedAttribute" : false
                          }
                        },
                        {
                          "id" : 465,
                          "_type" : "UnifiedMedia",
                          "video" : 
                              {
                                "id" : 466,
                                "_type" : "ScreenVMFile",
                                "src" : 1,
                                "trackNumber" : 0,
                                "attributes" : {
                                  "ident" : "Rec 01-18-21"
                                },
                                "parameters" : {
                                  "cursorScale" : {
                                    "type" : "double",
                                    "defaultValue" : 0.0,
                                    "interp" : "linr"
                                  },
                                  "cursorOpacity" : {
                                    "type" : "double",
                                    "defaultValue" : 0.0,
                                    "interp" : "linr"
                                  }
                                },
                                "effects" : [

                                ],
                                "start" : 3094,
                                "duration" : 47,
                                "mediaStart" : 4584,
                                "mediaDuration" : 47,
                                "scalar" : 1,
                                "animationTracks" : {

                                }
                              },
                          "audio" : 
                              {
                                "id" : 467,
                                "_type" : "AMFile",
                                "src" : 1,
                                "trackNumber" : 1,
                                "attributes" : {
                                  "ident" : "",
                                  "gain" : 1.0,
                                  "mixToMono" : false
                                },
                                  "channelNumber" : "0,1",
                                "effects" : [

                                ],
                                "start" : 3094,
                                "duration" : 47,
                                "mediaStart" : 4584,
                                "mediaDuration" : 47,
                                "scalar" : 1,
                                "animationTracks" : {

                                }
                              }
,
                          "start" : 3094,
                          "duration" : 47,
                          "mediaStart" : 0,
                          "mediaDuration" : 13486,
                          "scalar" : 1,
                          "metadata" : {
                            "AutoAppliedSmartFocus" : "False",
                            "clipSpeedAttribute" : false
                          }
                        },
                        {
                          "id" : 468,
                          "_type" : "UnifiedMedia",
                          "video" : 
                              {
                                "id" : 469,
                                "_type" : "ScreenVMFile",
                                "src" : 1,
                                "trackNumber" : 0,
                                "attributes" : {
                                  "ident" : "Rec 01-18-21"
                                },
                                "parameters" : {
                                  "cursorScale" : {
                                    "type" : "double",
                                    "defaultValue" : 0.0,
                                    "interp" : "linr"
                                  },
                                  "cursorOpacity" : {
                                    "type" : "double",
                                    "defaultValue" : 0.0,
                                    "interp" : "linr"
                                  }
                                },
                                "effects" : [

                                ],
                                "start" : 3141,
                                "duration" : 108,
                                "mediaStart" : 4679,
                                "mediaDuration" : 108,
                                "scalar" : 1,
                                "animationTracks" : {

                                }
                              },
                          "audio" : 
                              {
                                "id" : 470,
                                "_type" : "AMFile",
                                "src" : 1,
                                "trackNumber" : 1,
                                "attributes" : {
                                  "ident" : "",
                                  "gain" : 1.0,
                                  "mixToMono" : false
                                },
                                  "channelNumber" : "0,1",
                                "effects" : [

                                ],
                                "start" : 3141,
                                "duration" : 108,
                                "mediaStart" : 4679,
                                "mediaDuration" : 108,
                                "scalar" : 1,
                                "animationTracks" : {

                                }
                              }
,
                          "start" : 3141,
                          "duration" : 108,
                          "mediaStart" : 0,
                          "mediaDuration" : 13486,
                          "scalar" : 1,
                          "metadata" : {
                            "AutoAppliedSmartFocus" : "False",
                            "clipSpeedAttribute" : false
                          }
                        },
                        {
                          "id" : 471,
                          "_type" : "UnifiedMedia",
                          "video" : 
                              {
                                "id" : 472,
                                "_type" : "ScreenVMFile",
                                "src" : 1,
                                "trackNumber" : 0,
                                "attributes" : {
                                  "ident" : "Rec 01-18-21"
                                },
                                "parameters" : {
                                  "cursorScale" : {
                                    "type" : "double",
                                    "defaultValue" : 0.0,
                                    "interp" : "linr"
                                  },
                                  "cursorOpacity" : {
                                    "type" : "double",
                                    "defaultValue" : 0.0,
                                    "interp" : "linr"
                                  }
                                },
                                "effects" : [

                                ],
                                "start" : 3249,
                                "duration" : 174,
                                "mediaStart" : 4842,
                                "mediaDuration" : 174,
                                "scalar" : 1,
                                "animationTracks" : {

                                }
                              },
                          "audio" : 
                              {
                                "id" : 473,
                                "_type" : "AMFile",
                                "src" : 1,
                                "trackNumber" : 1,
                                "attributes" : {
                                  "ident" : "",
                                  "gain" : 1.0,
                                  "mixToMono" : false
                                },
                                  "channelNumber" : "0,1",
                                "effects" : [

                                ],
                                "start" : 3249,
                                "duration" : 174,
                                "mediaStart" : 4842,
                                "mediaDuration" : 174,
                                "scalar" : 1,
                                "animationTracks" : {

                                }
                              }
,
                          "start" : 3249,
                          "duration" : 174,
                          "mediaStart" : 0,
                          "mediaDuration" : 13486,
                          "scalar" : 1,
                          "metadata" : {
                            "AutoAppliedSmartFocus" : "False",
                            "clipSpeedAttribute" : false
                          }
                        },
                        {
                          "id" : 474,
                          "_type" : "UnifiedMedia",
                          "video" : 
                              {
                                "id" : 475,
                                "_type" : "ScreenVMFile",
                                "src" : 1,
                                "trackNumber" : 0,
                                "attributes" : {
                                  "ident" : "Rec 01-18-21"
                                },
                                "parameters" : {
                                  "cursorScale" : {
                                    "type" : "double",
                                    "defaultValue" : 0.0,
                                    "interp" : "linr"
                                  },
                                  "cursorOpacity" : {
                                    "type" : "double",
                                    "defaultValue" : 0.0,
                                    "interp" : "linr"
                                  }
                                },
                                "effects" : [

                                ],
                                "start" : 3423,
                                "duration" : 49,
                                "mediaStart" : 5028,
                                "mediaDuration" : 49,
                                "scalar" : 1,
                                "animationTracks" : {

                                }
                              },
                          "audio" : 
                              {
                                "id" : 476,
                                "_type" : "AMFile",
                                "src" : 1,
                                "trackNumber" : 1,
                                "attributes" : {
                                  "ident" : "",
                                  "gain" : 1.0,
                                  "mixToMono" : false
                                },
                                  "channelNumber" : "0,1",
                                "effects" : [

                                ],
                                "start" : 3423,
                                "duration" : 49,
                                "mediaStart" : 5028,
                                "mediaDuration" : 49,
                                "scalar" : 1,
                                "animationTracks" : {

                                }
                              }
,
                          "start" : 3423,
                          "duration" : 49,
                          "mediaStart" : 0,
                          "mediaDuration" : 13486,
                          "scalar" : 1,
                          "metadata" : {
                            "AutoAppliedSmartFocus" : "False",
                            "clipSpeedAttribute" : false
                          }
                        },
                        {
                          "id" : 477,
                          "_type" : "UnifiedMedia",
                          "video" : 
                              {
                                "id" : 478,
                                "_type" : "ScreenVMFile",
                                "src" : 1,
                                "trackNumber" : 0,
                                "attributes" : {
                                  "ident" : "Rec 01-18-21"
                                },
                                "parameters" : {
                                  "cursorScale" : {
                                    "type" : "double",
                                    "defaultValue" : 0.0,
                                    "interp" : "linr"
                                  },
                                  "cursorOpacity" : {
                                    "type" : "double",
                                    "defaultValue" : 0.0,
                                    "interp" : "linr"
                                  }
                                },
                                "effects" : [

                                ],
                                "start" : 3472,
                                "duration" : 2312,
                                "mediaStart" : 5094,
                                "mediaDuration" : 2312,
                                "scalar" : 1,
                                "animationTracks" : {

                                }
                              },
                          "audio" : 
                              {
                                "id" : 479,
                                "_type" : "AMFile",
                                "src" : 1,
                                "trackNumber" : 1,
                                "attributes" : {
                                  "ident" : "",
                                  "gain" : 1.0,
                                  "mixToMono" : false
                                },
                                  "channelNumber" : "0,1",
                                "effects" : [

                                ],
                                "start" : 3472,
                                "duration" : 2312,
                                "mediaStart" : 5094,
                                "mediaDuration" : 2312,
                                "scalar" : 1,
                                "animationTracks" : {

                                }
                              }
,
                          "start" : 3472,
                          "duration" : 2312,
                          "mediaStart" : 0,
                          "mediaDuration" : 13486,
                          "scalar" : 1,
                          "metadata" : {
                            "AutoAppliedSmartFocus" : "False",
                            "clipSpeedAttribute" : false
                          }
                        },
                        {
                          "id" : 480,
                          "_type" : "UnifiedMedia",
                          "video" : 
                              {
                                "id" : 481,
                                "_type" : "ScreenVMFile",
                                "src" : 1,
                                "trackNumber" : 0,
                                "attributes" : {
                                  "ident" : "Rec 01-18-21"
                                },
                                "parameters" : {
                                  "cursorScale" : {
                                    "type" : "double",
                                    "defaultValue" : 0.0,
                                    "interp" : "linr"
                                  },
                                  "cursorOpacity" : {
                                    "type" : "double",
                                    "defaultValue" : 0.0,
                                    "interp" : "linr"
                                  }
                                },
                                "effects" : [

                                ],
                                "start" : 5784,
                                "duration" : 44,
                                "mediaStart" : 7469,
                                "mediaDuration" : 44,
                                "scalar" : 1,
                                "animationTracks" : {

                                }
                              },
                          "audio" : 
                              {
                                "id" : 482,
                                "_type" : "AMFile",
                                "src" : 1,
                                "trackNumber" : 1,
                                "attributes" : {
                                  "ident" : "",
                                  "gain" : 1.0,
                                  "mixToMono" : false
                                },
                                  "channelNumber" : "0,1",
                                "effects" : [

                                ],
                                "start" : 5784,
                                "duration" : 44,
                                "mediaStart" : 7469,
                                "mediaDuration" : 44,
                                "scalar" : 1,
                                "animationTracks" : {

                                }
                              }
,
                          "start" : 5784,
                          "duration" : 44,
                          "mediaStart" : 0,
                          "mediaDuration" : 13486,
                          "scalar" : 1,
                          "metadata" : {
                            "AutoAppliedSmartFocus" : "False",
                            "clipSpeedAttribute" : false
                          }
                        },
                        {
                          "id" : 483,
                          "_type" : "UnifiedMedia",
                          "video" : 
                              {
                                "id" : 484,
                                "_type" : "ScreenVMFile",
                                "src" : 1,
                                "trackNumber" : 0,
                                "attributes" : {
                                  "ident" : "Rec 01-18-21"
                                },
                                "parameters" : {
                                  "cursorScale" : {
                                    "type" : "double",
                                    "defaultValue" : 0.0,
                                    "interp" : "linr"
                                  },
                                  "cursorOpacity" : {
                                    "type" : "double",
                                    "defaultValue" : 0.0,
                                    "interp" : "linr"
                                  }
                                },
                                "effects" : [

                                ],
                                "start" : 5828,
                                "duration" : 49,
                                "mediaStart" : 7552,
                                "mediaDuration" : 49,
                                "scalar" : 1,
                                "animationTracks" : {

                                }
                              },
                          "audio" : 
                              {
                                "id" : 485,
                                "_type" : "AMFile",
                                "src" : 1,
                                "trackNumber" : 1,
                                "attributes" : {
                                  "ident" : "",
                                  "gain" : 1.0,
                                  "mixToMono" : false
                                },
                                  "channelNumber" : "0,1",
                                "effects" : [

                                ],
                                "start" : 5828,
                                "duration" : 49,
                                "mediaStart" : 7552,
                                "mediaDuration" : 49,
                                "scalar" : 1,
                                "animationTracks" : {

                                }
                              }
,
                          "start" : 5828,
                          "duration" : 49,
                          "mediaStart" : 0,
                          "mediaDuration" : 13486,
                          "scalar" : 1,
                          "metadata" : {
                            "AutoAppliedSmartFocus" : "False",
                            "clipSpeedAttribute" : false
                          }
                        },
                        {
                          "id" : 486,
                          "_type" : "UnifiedMedia",
                          "video" : 
                              {
                                "id" : 487,
                                "_type" : "ScreenVMFile",
                                "src" : 1,
                                "trackNumber" : 0,
                                "attributes" : {
                                  "ident" : "Rec 01-18-21"
                                },
                                "parameters" : {
                                  "cursorScale" : {
                                    "type" : "double",
                                    "defaultValue" : 0.0,
                                    "interp" : "linr"
                                  },
                                  "cursorOpacity" : {
                                    "type" : "double",
                                    "defaultValue" : 0.0,
                                    "interp" : "linr"
                                  }
                                },
                                "effects" : [

                                ],
                                "start" : 5877,
                                "duration" : 149,
                                "mediaStart" : 7784,
                                "mediaDuration" : 149,
                                "scalar" : 1,
                                "animationTracks" : {

                                }
                              },
                          "audio" : 
                              {
                                "id" : 488,
                                "_type" : "AMFile",
                                "src" : 1,
                                "trackNumber" : 1,
                                "attributes" : {
                                  "ident" : "",
                                  "gain" : 1.0,
                                  "mixToMono" : false
                                },
                                  "channelNumber" : "0,1",
                                "effects" : [

                                ],
                                "start" : 5877,
                                "duration" : 149,
                                "mediaStart" : 7784,
                                "mediaDuration" : 149,
                                "scalar" : 1,
                                "animationTracks" : {

                                }
                              }
,
                          "start" : 5877,
                          "duration" : 149,
                          "mediaStart" : 0,
                          "mediaDuration" : 13486,
                          "scalar" : 1,
                          "metadata" : {
                            "AutoAppliedSmartFocus" : "False",
                            "clipSpeedAttribute" : false
                          }
                        },
                        {
                          "id" : 489,
                          "_type" : "UnifiedMedia",
                          "video" : 
                              {
                                "id" : 490,
                                "_type" : "ScreenVMFile",
                                "src" : 1,
                                "trackNumber" : 0,
                                "attributes" : {
                                  "ident" : "Rec 01-18-21"
                                },
                                "parameters" : {
                                  "cursorScale" : {
                                    "type" : "double",
                                    "defaultValue" : 0.0,
                                    "interp" : "linr"
                                  },
                                  "cursorOpacity" : {
                                    "type" : "double",
                                    "defaultValue" : 0.0,
                                    "interp" : "linr"
                                  }
                                },
                                "effects" : [

                                ],
                                "start" : 6026,
                                "duration" : 128,
                                "mediaStart" : 7946,
                                "mediaDuration" : 128,
                                "scalar" : 1,
                                "animationTracks" : {

                                }
                              },
                          "audio" : 
                              {
                                "id" : 491,
                                "_type" : "AMFile",
                                "src" : 1,
                                "trackNumber" : 1,
                                "attributes" : {
                                  "ident" : "",
                                  "gain" : 1.0,
                                  "mixToMono" : false
                                },
                                  "channelNumber" : "0,1",
                                "effects" : [

                                ],
                                "start" : 6026,
                                "duration" : 128,
                                "mediaStart" : 7946,
                                "mediaDuration" : 128,
                                "scalar" : 1,
                                "animationTracks" : {

                                }
                              }
,
                          "start" : 6026,
                          "duration" : 128,
                          "mediaStart" : 0,
                          "mediaDuration" : 13486,
                          "scalar" : 1,
                          "metadata" : {
                            "AutoAppliedSmartFocus" : "False",
                            "clipSpeedAttribute" : false
                          }
                        },
                        {
                          "id" : 492,
                          "_type" : "UnifiedMedia",
                          "video" : 
                              {
                                "id" : 493,
                                "_type" : "ScreenVMFile",
                                "src" : 1,
                                "trackNumber" : 0,
                                "attributes" : {
                                  "ident" : "Rec 01-18-21"
                                },
                                "parameters" : {
                                  "cursorScale" : {
                                    "type" : "double",
                                    "defaultValue" : 0.0,
                                    "interp" : "linr"
                                  },
                                  "cursorOpacity" : {
                                    "type" : "double",
                                    "defaultValue" : 0.0,
                                    "interp" : "linr"
                                  }
                                },
                                "effects" : [

                                ],
                                "start" : 6154,
                                "duration" : 387,
                                "mediaStart" : 8417,
                                "mediaDuration" : 387,
                                "scalar" : 1,
                                "animationTracks" : {

                                }
                              },
                          "audio" : 
                              {
                                "id" : 494,
                                "_type" : "AMFile",
                                "src" : 1,
                                "trackNumber" : 1,
                                "attributes" : {
                                  "ident" : "",
                                  "gain" : 1.0,
                                  "mixToMono" : false
                                },
                                  "channelNumber" : "0,1",
                                "effects" : [

                                ],
                                "start" : 6154,
                                "duration" : 387,
                                "mediaStart" : 8417,
                                "mediaDuration" : 387,
                                "scalar" : 1,
                                "animationTracks" : {

                                }
                              }
,
                          "start" : 6154,
                          "duration" : 387,
                          "mediaStart" : 0,
                          "mediaDuration" : 13486,
                          "scalar" : 1,
                          "metadata" : {
                            "AutoAppliedSmartFocus" : "False",
                            "clipSpeedAttribute" : false
                          }
                        },
                        {
                          "id" : 495,
                          "_type" : "UnifiedMedia",
                          "video" : 
                              {
                                "id" : 496,
                                "_type" : "ScreenVMFile",
                                "src" : 1,
                                "trackNumber" : 0,
                                "attributes" : {
                                  "ident" : "Rec 01-18-21"
                                },
                                "parameters" : {
                                  "cursorScale" : {
                                    "type" : "double",
                                    "defaultValue" : 0.0,
                                    "interp" : "linr"
                                  },
                                  "cursorOpacity" : {
                                    "type" : "double",
                                    "defaultValue" : 0.0,
                                    "interp" : "linr"
                                  }
                                },
                                "effects" : [

                                ],
                                "start" : 6541,
                                "duration" : 78,
                                "mediaStart" : 9020,
                                "mediaDuration" : 78,
                                "scalar" : 1,
                                "animationTracks" : {

                                }
                              },
                          "audio" : 
                              {
                                "id" : 497,
                                "_type" : "AMFile",
                                "src" : 1,
                                "trackNumber" : 1,
                                "attributes" : {
                                  "ident" : "",
                                  "gain" : 1.0,
                                  "mixToMono" : false
                                },
                                  "channelNumber" : "0,1",
                                "effects" : [

                                ],
                                "start" : 6541,
                                "duration" : 78,
                                "mediaStart" : 9020,
                                "mediaDuration" : 78,
                                "scalar" : 1,
                                "animationTracks" : {

                                }
                              }
,
                          "start" : 6541,
                          "duration" : 78,
                          "mediaStart" : 0,
                          "mediaDuration" : 13486,
                          "scalar" : 1,
                          "metadata" : {
                            "AutoAppliedSmartFocus" : "False",
                            "clipSpeedAttribute" : false
                          }
                        },
                        {
                          "id" : 498,
                          "_type" : "UnifiedMedia",
                          "video" : 
                              {
                                "id" : 499,
                                "_type" : "ScreenVMFile",
                                "src" : 1,
                                "trackNumber" : 0,
                                "attributes" : {
                                  "ident" : "Rec 01-18-21"
                                },
                                "parameters" : {
                                  "cursorScale" : {
                                    "type" : "double",
                                    "defaultValue" : 0.0,
                                    "interp" : "linr"
                                  },
                                  "cursorOpacity" : {
                                    "type" : "double",
                                    "defaultValue" : 0.0,
                                    "interp" : "linr"
                                  }
                                },
                                "effects" : [

                                ],
                                "start" : 6619,
                                "duration" : 45,
                                "mediaStart" : 9178,
                                "mediaDuration" : 45,
                                "scalar" : 1,
                                "animationTracks" : {

                                }
                              },
                          "audio" : 
                              {
                                "id" : 500,
                                "_type" : "AMFile",
                                "src" : 1,
                                "trackNumber" : 1,
                                "attributes" : {
                                  "ident" : "",
                                  "gain" : 1.0,
                                  "mixToMono" : false
                                },
                                  "channelNumber" : "0,1",
                                "effects" : [

                                ],
                                "start" : 6619,
                                "duration" : 45,
                                "mediaStart" : 9178,
                                "mediaDuration" : 45,
                                "scalar" : 1,
                                "animationTracks" : {

                                }
                              }
,
                          "start" : 6619,
                          "duration" : 45,
                          "mediaStart" : 0,
                          "mediaDuration" : 13486,
                          "scalar" : 1,
                          "metadata" : {
                            "AutoAppliedSmartFocus" : "False",
                            "clipSpeedAttribute" : false
                          }
                        },
                        {
                          "id" : 501,
                          "_type" : "UnifiedMedia",
                          "video" : 
                              {
                                "id" : 502,
                                "_type" : "ScreenVMFile",
                                "src" : 1,
                                "trackNumber" : 0,
                                "attributes" : {
                                  "ident" : "Rec 01-18-21"
                                },
                                "parameters" : {
                                  "cursorScale" : {
                                    "type" : "double",
                                    "defaultValue" : 0.0,
                                    "interp" : "linr"
                                  },
                                  "cursorOpacity" : {
                                    "type" : "double",
                                    "defaultValue" : 0.0,
                                    "interp" : "linr"
                                  }
                                },
                                "effects" : [

                                ],
                                "start" : 6664,
                                "duration" : 46,
                                "mediaStart" : 9242,
                                "mediaDuration" : 46,
                                "scalar" : 1,
                                "animationTracks" : {

                                }
                              },
                          "audio" : 
                              {
                                "id" : 503,
                                "_type" : "AMFile",
                                "src" : 1,
                                "trackNumber" : 1,
                                "attributes" : {
                                  "ident" : "",
                                  "gain" : 1.0,
                                  "mixToMono" : false
                                },
                                  "channelNumber" : "0,1",
                                "effects" : [

                                ],
                                "start" : 6664,
                                "duration" : 46,
                                "mediaStart" : 9242,
                                "mediaDuration" : 46,
                                "scalar" : 1,
                                "animationTracks" : {

                                }
                              }
,
                          "start" : 6664,
                          "duration" : 46,
                          "mediaStart" : 0,
                          "mediaDuration" : 13486,
                          "scalar" : 1,
                          "metadata" : {
                            "AutoAppliedSmartFocus" : "False",
                            "clipSpeedAttribute" : false
                          }
                        },
                        {
                          "id" : 504,
                          "_type" : "UnifiedMedia",
                          "video" : 
                              {
                                "id" : 505,
                                "_type" : "ScreenVMFile",
                                "src" : 1,
                                "trackNumber" : 0,
                                "attributes" : {
                                  "ident" : "Rec 01-18-21"
                                },
                                "parameters" : {
                                  "cursorScale" : {
                                    "type" : "double",
                                    "defaultValue" : 0.0,
                                    "interp" : "linr"
                                  },
                                  "cursorOpacity" : {
                                    "type" : "double",
                                    "defaultValue" : 0.0,
                                    "interp" : "linr"
                                  }
                                },
                                "effects" : [

                                ],
                                "start" : 6710,
                                "duration" : 28,
                                "mediaStart" : 9315,
                                "mediaDuration" : 28,
                                "scalar" : 1,
                                "animationTracks" : {

                                }
                              },
                          "audio" : 
                              {
                                "id" : 506,
                                "_type" : "AMFile",
                                "src" : 1,
                                "trackNumber" : 1,
                                "attributes" : {
                                  "ident" : "",
                                  "gain" : 1.0,
                                  "mixToMono" : false
                                },
                                  "channelNumber" : "0,1",
                                "effects" : [

                                ],
                                "start" : 6710,
                                "duration" : 28,
                                "mediaStart" : 9315,
                                "mediaDuration" : 28,
                                "scalar" : 1,
                                "animationTracks" : {

                                }
                              }
,
                          "start" : 6710,
                          "duration" : 28,
                          "mediaStart" : 0,
                          "mediaDuration" : 13486,
                          "scalar" : 1,
                          "metadata" : {
                            "AutoAppliedSmartFocus" : "False",
                            "clipSpeedAttribute" : false
                          }
                        },
                        {
                          "id" : 507,
                          "_type" : "UnifiedMedia",
                          "video" : 
                              {
                                "id" : 508,
                                "_type" : "ScreenVMFile",
                                "src" : 1,
                                "trackNumber" : 0,
                                "attributes" : {
                                  "ident" : "Rec 01-18-21"
                                },
                                "parameters" : {
                                  "cursorScale" : {
                                    "type" : "double",
                                    "defaultValue" : 0.0,
                                    "interp" : "linr"
                                  },
                                  "cursorOpacity" : {
                                    "type" : "double",
                                    "defaultValue" : 0.0,
                                    "interp" : "linr"
                                  }
                                },
                                "effects" : [

                                ],
                                "start" : 6738,
                                "duration" : 20,
                                "mediaStart" : 9354,
                                "mediaDuration" : 20,
                                "scalar" : 1,
                                "animationTracks" : {

                                }
                              },
                          "audio" : 
                              {
                                "id" : 509,
                                "_type" : "AMFile",
                                "src" : 1,
                                "trackNumber" : 1,
                                "attributes" : {
                                  "ident" : "",
                                  "gain" : 1.0,
                                  "mixToMono" : false
                                },
                                  "channelNumber" : "0,1",
                                "effects" : [

                                ],
                                "start" : 6738,
                                "duration" : 20,
                                "mediaStart" : 9354,
                                "mediaDuration" : 20,
                                "scalar" : 1,
                                "animationTracks" : {

                                }
                              }
,
                          "start" : 6738,
                          "duration" : 20,
                          "mediaStart" : 0,
                          "mediaDuration" : 13486,
                          "scalar" : 1,
                          "metadata" : {
                            "AutoAppliedSmartFocus" : "False",
                            "clipSpeedAttribute" : false
                          }
                        },
                        {
                          "id" : 510,
                          "_type" : "UnifiedMedia",
                          "video" : 
                              {
                                "id" : 511,
                                "_type" : "ScreenVMFile",
                                "src" : 1,
                                "trackNumber" : 0,
                                "attributes" : {
                                  "ident" : "Rec 01-18-21"
                                },
                                "parameters" : {
                                  "cursorScale" : {
                                    "type" : "double",
                                    "defaultValue" : 0.0,
                                    "interp" : "linr"
                                  },
                                  "cursorOpacity" : {
                                    "type" : "double",
                                    "defaultValue" : 0.0,
                                    "interp" : "linr"
                                  }
                                },
                                "effects" : [

                                ],
                                "start" : 6758,
                                "duration" : 14,
                                "mediaStart" : 9380,
                                "mediaDuration" : 14,
                                "scalar" : 1,
                                "animationTracks" : {

                                }
                              },
                          "audio" : 
                              {
                                "id" : 512,
                                "_type" : "AMFile",
                                "src" : 1,
                                "trackNumber" : 1,
                                "attributes" : {
                                  "ident" : "",
                                  "gain" : 1.0,
                                  "mixToMono" : false
                                },
                                  "channelNumber" : "0,1",
                                "effects" : [

                                ],
                                "start" : 6758,
                                "duration" : 14,
                                "mediaStart" : 9380,
                                "mediaDuration" : 14,
                                "scalar" : 1,
                                "animationTracks" : {

                                }
                              }
,
                          "start" : 6758,
                          "duration" : 14,
                          "mediaStart" : 0,
                          "mediaDuration" : 13486,
                          "scalar" : 1,
                          "metadata" : {
                            "AutoAppliedSmartFocus" : "False",
                            "clipSpeedAttribute" : false
                          }
                        },
                        {
                          "id" : 513,
                          "_type" : "UnifiedMedia",
                          "video" : 
                              {
                                "id" : 514,
                                "_type" : "ScreenVMFile",
                                "src" : 1,
                                "trackNumber" : 0,
                                "attributes" : {
                                  "ident" : "Rec 01-18-21"
                                },
                                "parameters" : {
                                  "cursorScale" : {
                                    "type" : "double",
                                    "defaultValue" : 0.0,
                                    "interp" : "linr"
                                  },
                                  "cursorOpacity" : {
                                    "type" : "double",
                                    "defaultValue" : 0.0,
                                    "interp" : "linr"
                                  }
                                },
                                "effects" : [

                                ],
                                "start" : 6772,
                                "duration" : 10,
                                "mediaStart" : 9468,
                                "mediaDuration" : 10,
                                "scalar" : 1,
                                "animationTracks" : {

                                }
                              },
                          "audio" : 
                              {
                                "id" : 515,
                                "_type" : "AMFile",
                                "src" : 1,
                                "trackNumber" : 1,
                                "attributes" : {
                                  "ident" : "",
                                  "gain" : 1.0,
                                  "mixToMono" : false
                                },
                                  "channelNumber" : "0,1",
                                "effects" : [

                                ],
                                "start" : 6772,
                                "duration" : 10,
                                "mediaStart" : 9468,
                                "mediaDuration" : 10,
                                "scalar" : 1,
                                "animationTracks" : {

                                }
                              }
,
                          "start" : 6772,
                          "duration" : 10,
                          "mediaStart" : 0,
                          "mediaDuration" : 13486,
                          "scalar" : 1,
                          "metadata" : {
                            "AutoAppliedSmartFocus" : "False",
                            "clipSpeedAttribute" : false
                          }
                        },
                        {
                          "id" : 516,
                          "_type" : "UnifiedMedia",
                          "video" : 
                              {
                                "id" : 517,
                                "_type" : "ScreenVMFile",
                                "src" : 1,
                                "trackNumber" : 0,
                                "attributes" : {
                                  "ident" : "Rec 01-18-21"
                                },
                                "parameters" : {
                                  "cursorScale" : {
                                    "type" : "double",
                                    "defaultValue" : 0.0,
                                    "interp" : "linr"
                                  },
                                  "cursorOpacity" : {
                                    "type" : "double",
                                    "defaultValue" : 0.0,
                                    "interp" : "linr"
                                  }
                                },
                                "effects" : [

                                ],
                                "start" : 6782,
                                "duration" : 3461,
                                "mediaStart" : 10025,
                                "mediaDuration" : 3461,
                                "scalar" : 1,
                                "animationTracks" : {

                                }
                              },
                          "audio" : 
                              {
                                "id" : 518,
                                "_type" : "AMFile",
                                "src" : 1,
                                "trackNumber" : 1,
                                "attributes" : {
                                  "ident" : "",
                                  "gain" : 1.0,
                                  "mixToMono" : false
                                },
                                  "channelNumber" : "0,1",
                                "effects" : [

                                ],
                                "start" : 6782,
                                "duration" : 3461,
                                "mediaStart" : 10025,
                                "mediaDuration" : 3461,
                                "scalar" : 1,
                                "animationTracks" : {

                                }
                              }
,
                          "start" : 6782,
                          "duration" : 3461,
                          "mediaStart" : 0,
                          "mediaDuration" : 13486,
                          "scalar" : 1,
                          "metadata" : {
                            "AutoAppliedSmartFocus" : "False",
                            "clipSpeedAttribute" : false
                          }
                        }
                    ],
                    "effects" : [

                    ],
                    "start" : 3846,
                    "duration" : 482,
                    "mediaStart" : 6527,
                    "mediaDuration" : 482,
                    "scalar" : 1,
                    "metadata" : {
                      "AutoAppliedSmartFocus" : "False",
                      "clipSpeedAttribute" : false
                    },
                    "animationTracks" : {

                    }
                  },
                  {
                    "id" : 519,
                    "_type" : "StitchedMedia",
                    "minMediaStart" : 0,
                    "attributes" : {
                      "ident" : "Rec 01-18-21",
                      "gain" : 1.0,
                      "mixToMono" : false
                    },
                    "parameters" : {
                      "volume" : 1.0,
                      "cursorOpacity" : 1.0,
                      "cursorScale" : 1.0
                    },
                    "medias" : [
                        {
                          "id" : 520,
                          "_type" : "UnifiedMedia",
                          "video" : 
                              {
                                "id" : 521,
                                "_type" : "ScreenVMFile",
                                "src" : 1,
                                "trackNumber" : 0,
                                "attributes" : {
                                  "ident" : "Rec 01-18-21"
                                },
                                "parameters" : {
                                  "cursorScale" : {
                                    "type" : "double",
                                    "defaultValue" : 0.0,
                                    "interp" : "linr"
                                  },
                                  "cursorOpacity" : {
                                    "type" : "double",
                                    "defaultValue" : 0.0,
                                    "interp" : "linr"
                                  }
                                },
                                "effects" : [

                                ],
                                "start" : 0,
                                "duration" : 300,
                                "mediaStart" : 0,
                                "mediaDuration" : 300,
                                "scalar" : 1,
                                "animationTracks" : {

                                }
                              },
                          "audio" : 
                              {
                                "id" : 522,
                                "_type" : "AMFile",
                                "src" : 1,
                                "trackNumber" : 1,
                                "attributes" : {
                                  "ident" : "",
                                  "gain" : 1.0,
                                  "mixToMono" : false
                                },
                                  "channelNumber" : "0,1",
                                "effects" : [

                                ],
                                "start" : 0,
                                "duration" : 300,
                                "mediaStart" : 0,
                                "mediaDuration" : 300,
                                "scalar" : 1,
                                "animationTracks" : {

                                }
                              }
,
                          "start" : 0,
                          "duration" : 300,
                          "mediaStart" : 0,
                          "mediaDuration" : 13486,
                          "scalar" : 1,
                          "metadata" : {
                            "AutoAppliedSmartFocus" : "False",
                            "clipSpeedAttribute" : false
                          }
                        },
                        {
                          "id" : 523,
                          "_type" : "UnifiedMedia",
                          "video" : 
                              {
                                "id" : 524,
                                "_type" : "ScreenVMFile",
                                "src" : 1,
                                "trackNumber" : 0,
                                "attributes" : {
                                  "ident" : "Rec 01-18-21"
                                },
                                "parameters" : {
                                  "cursorScale" : {
                                    "type" : "double",
                                    "defaultValue" : 0.0,
                                    "interp" : "linr"
                                  },
                                  "cursorOpacity" : {
                                    "type" : "double",
                                    "defaultValue" : 0.0,
                                    "interp" : "linr"
                                  }
                                },
                                "effects" : [

                                ],
                                "start" : 300,
                                "duration" : 52,
                                "mediaStart" : 313,
                                "mediaDuration" : 52,
                                "scalar" : 1,
                                "animationTracks" : {

                                }
                              },
                          "audio" : 
                              {
                                "id" : 525,
                                "_type" : "AMFile",
                                "src" : 1,
                                "trackNumber" : 1,
                                "attributes" : {
                                  "ident" : "",
                                  "gain" : 1.0,
                                  "mixToMono" : false
                                },
                                  "channelNumber" : "0,1",
                                "effects" : [

                                ],
                                "start" : 300,
                                "duration" : 52,
                                "mediaStart" : 313,
                                "mediaDuration" : 52,
                                "scalar" : 1,
                                "animationTracks" : {

                                }
                              }
,
                          "start" : 300,
                          "duration" : 52,
                          "mediaStart" : 0,
                          "mediaDuration" : 13486,
                          "scalar" : 1,
                          "metadata" : {
                            "AutoAppliedSmartFocus" : "False",
                            "clipSpeedAttribute" : false
                          }
                        },
                        {
                          "id" : 526,
                          "_type" : "UnifiedMedia",
                          "video" : 
                              {
                                "id" : 527,
                                "_type" : "ScreenVMFile",
                                "src" : 1,
                                "trackNumber" : 0,
                                "attributes" : {
                                  "ident" : "Rec 01-18-21"
                                },
                                "parameters" : {
                                  "cursorScale" : {
                                    "type" : "double",
                                    "defaultValue" : 0.0,
                                    "interp" : "linr"
                                  },
                                  "cursorOpacity" : {
                                    "type" : "double",
                                    "defaultValue" : 0.0,
                                    "interp" : "linr"
                                  }
                                },
                                "effects" : [

                                ],
                                "start" : 352,
                                "duration" : 63,
                                "mediaStart" : 439,
                                "mediaDuration" : 63,
                                "scalar" : 1,
                                "animationTracks" : {

                                }
                              },
                          "audio" : 
                              {
                                "id" : 528,
                                "_type" : "AMFile",
                                "src" : 1,
                                "trackNumber" : 1,
                                "attributes" : {
                                  "ident" : "",
                                  "gain" : 1.0,
                                  "mixToMono" : false
                                },
                                  "channelNumber" : "0,1",
                                "effects" : [

                                ],
                                "start" : 352,
                                "duration" : 63,
                                "mediaStart" : 439,
                                "mediaDuration" : 63,
                                "scalar" : 1,
                                "animationTracks" : {

                                }
                              }
,
                          "start" : 352,
                          "duration" : 63,
                          "mediaStart" : 0,
                          "mediaDuration" : 13486,
                          "scalar" : 1,
                          "metadata" : {
                            "AutoAppliedSmartFocus" : "False",
                            "clipSpeedAttribute" : false
                          }
                        },
                        {
                          "id" : 529,
                          "_type" : "UnifiedMedia",
                          "video" : 
                              {
                                "id" : 530,
                                "_type" : "ScreenVMFile",
                                "src" : 1,
                                "trackNumber" : 0,
                                "attributes" : {
                                  "ident" : "Rec 01-18-21"
                                },
                                "parameters" : {
                                  "cursorScale" : {
                                    "type" : "double",
                                    "defaultValue" : 0.0,
                                    "interp" : "linr"
                                  },
                                  "cursorOpacity" : {
                                    "type" : "double",
                                    "defaultValue" : 0.0,
                                    "interp" : "linr"
                                  }
                                },
                                "effects" : [

                                ],
                                "start" : 415,
                                "duration" : 17,
                                "mediaStart" : 573,
                                "mediaDuration" : 17,
                                "scalar" : 1,
                                "animationTracks" : {

                                }
                              },
                          "audio" : 
                              {
                                "id" : 531,
                                "_type" : "AMFile",
                                "src" : 1,
                                "trackNumber" : 1,
                                "attributes" : {
                                  "ident" : "",
                                  "gain" : 1.0,
                                  "mixToMono" : false
                                },
                                  "channelNumber" : "0,1",
                                "effects" : [

                                ],
                                "start" : 415,
                                "duration" : 17,
                                "mediaStart" : 573,
                                "mediaDuration" : 17,
                                "scalar" : 1,
                                "animationTracks" : {

                                }
                              }
,
                          "start" : 415,
                          "duration" : 17,
                          "mediaStart" : 0,
                          "mediaDuration" : 13486,
                          "scalar" : 1,
                          "metadata" : {
                            "AutoAppliedSmartFocus" : "False",
                            "clipSpeedAttribute" : false
                          }
                        },
                        {
                          "id" : 532,
                          "_type" : "UnifiedMedia",
                          "video" : 
                              {
                                "id" : 533,
                                "_type" : "ScreenVMFile",
                                "src" : 1,
                                "trackNumber" : 0,
                                "attributes" : {
                                  "ident" : "Rec 01-18-21"
                                },
                                "parameters" : {
                                  "cursorScale" : {
                                    "type" : "double",
                                    "defaultValue" : 0.0,
                                    "interp" : "linr"
                                  },
                                  "cursorOpacity" : {
                                    "type" : "double",
                                    "defaultValue" : 0.0,
                                    "interp" : "linr"
                                  }
                                },
                                "effects" : [

                                ],
                                "start" : 432,
                                "duration" : 23,
                                "mediaStart" : 597,
                                "mediaDuration" : 23,
                                "scalar" : 1,
                                "animationTracks" : {

                                }
                              },
                          "audio" : 
                              {
                                "id" : 534,
                                "_type" : "AMFile",
                                "src" : 1,
                                "trackNumber" : 1,
                                "attributes" : {
                                  "ident" : "",
                                  "gain" : 1.0,
                                  "mixToMono" : false
                                },
                                  "channelNumber" : "0,1",
                                "effects" : [

                                ],
                                "start" : 432,
                                "duration" : 23,
                                "mediaStart" : 597,
                                "mediaDuration" : 23,
                                "scalar" : 1,
                                "animationTracks" : {

                                }
                              }
,
                          "start" : 432,
                          "duration" : 23,
                          "mediaStart" : 0,
                          "mediaDuration" : 13486,
                          "scalar" : 1,
                          "metadata" : {
                            "AutoAppliedSmartFocus" : "False",
                            "clipSpeedAttribute" : false
                          }
                        },
                        {
                          "id" : 535,
                          "_type" : "UnifiedMedia",
                          "video" : 
                              {
                                "id" : 536,
                                "_type" : "ScreenVMFile",
                                "src" : 1,
                                "trackNumber" : 0,
                                "attributes" : {
                                  "ident" : "Rec 01-18-21"
                                },
                                "parameters" : {
                                  "cursorScale" : {
                                    "type" : "double",
                                    "defaultValue" : 0.0,
                                    "interp" : "linr"
                                  },
                                  "cursorOpacity" : {
                                    "type" : "double",
                                    "defaultValue" : 0.0,
                                    "interp" : "linr"
                                  }
                                },
                                "effects" : [

                                ],
                                "start" : 455,
                                "duration" : 49,
                                "mediaStart" : 627,
                                "mediaDuration" : 49,
                                "scalar" : 1,
                                "animationTracks" : {

                                }
                              },
                          "audio" : 
                              {
                                "id" : 537,
                                "_type" : "AMFile",
                                "src" : 1,
                                "trackNumber" : 1,
                                "attributes" : {
                                  "ident" : "",
                                  "gain" : 1.0,
                                  "mixToMono" : false
                                },
                                  "channelNumber" : "0,1",
                                "effects" : [

                                ],
                                "start" : 455,
                                "duration" : 49,
                                "mediaStart" : 627,
                                "mediaDuration" : 49,
                                "scalar" : 1,
                                "animationTracks" : {

                                }
                              }
,
                          "start" : 455,
                          "duration" : 49,
                          "mediaStart" : 0,
                          "mediaDuration" : 13486,
                          "scalar" : 1,
                          "metadata" : {
                            "AutoAppliedSmartFocus" : "False",
                            "clipSpeedAttribute" : false
                          }
                        },
                        {
                          "id" : 538,
                          "_type" : "UnifiedMedia",
                          "video" : 
                              {
                                "id" : 539,
                                "_type" : "ScreenVMFile",
                                "src" : 1,
                                "trackNumber" : 0,
                                "attributes" : {
                                  "ident" : "Rec 01-18-21"
                                },
                                "parameters" : {
                                  "cursorScale" : {
                                    "type" : "double",
                                    "defaultValue" : 0.0,
                                    "interp" : "linr"
                                  },
                                  "cursorOpacity" : {
                                    "type" : "double",
                                    "defaultValue" : 0.0,
                                    "interp" : "linr"
                                  }
                                },
                                "effects" : [

                                ],
                                "start" : 504,
                                "duration" : 435,
                                "mediaStart" : 820,
                                "mediaDuration" : 435,
                                "scalar" : 1,
                                "animationTracks" : {

                                }
                              },
                          "audio" : 
                              {
                                "id" : 540,
                                "_type" : "AMFile",
                                "src" : 1,
                                "trackNumber" : 1,
                                "attributes" : {
                                  "ident" : "",
                                  "gain" : 1.0,
                                  "mixToMono" : false
                                },
                                  "channelNumber" : "0,1",
                                "effects" : [

                                ],
                                "start" : 504,
                                "duration" : 435,
                                "mediaStart" : 820,
                                "mediaDuration" : 435,
                                "scalar" : 1,
                                "animationTracks" : {

                                }
                              }
,
                          "start" : 504,
                          "duration" : 435,
                          "mediaStart" : 0,
                          "mediaDuration" : 13486,
                          "scalar" : 1,
                          "metadata" : {
                            "AutoAppliedSmartFocus" : "False",
                            "clipSpeedAttribute" : false
                          }
                        },
                        {
                          "id" : 541,
                          "_type" : "UnifiedMedia",
                          "video" : 
                              {
                                "id" : 542,
                                "_type" : "ScreenVMFile",
                                "src" : 1,
                                "trackNumber" : 0,
                                "attributes" : {
                                  "ident" : "Rec 01-18-21"
                                },
                                "parameters" : {
                                  "cursorScale" : {
                                    "type" : "double",
                                    "defaultValue" : 0.0,
                                    "interp" : "linr"
                                  },
                                  "cursorOpacity" : {
                                    "type" : "double",
                                    "defaultValue" : 0.0,
                                    "interp" : "linr"
                                  }
                                },
                                "effects" : [

                                ],
                                "start" : 939,
                                "duration" : 21,
                                "mediaStart" : 1268,
                                "mediaDuration" : 21,
                                "scalar" : 1,
                                "animationTracks" : {

                                }
                              },
                          "audio" : 
                              {
                                "id" : 543,
                                "_type" : "AMFile",
                                "src" : 1,
                                "trackNumber" : 1,
                                "attributes" : {
                                  "ident" : "",
                                  "gain" : 1.0,
                                  "mixToMono" : false
                                },
                                  "channelNumber" : "0,1",
                                "effects" : [

                                ],
                                "start" : 939,
                                "duration" : 21,
                                "mediaStart" : 1268,
                                "mediaDuration" : 21,
                                "scalar" : 1,
                                "animationTracks" : {

                                }
                              }
,
                          "start" : 939,
                          "duration" : 21,
                          "mediaStart" : 0,
                          "mediaDuration" : 13486,
                          "scalar" : 1,
                          "metadata" : {
                            "AutoAppliedSmartFocus" : "False",
                            "clipSpeedAttribute" : false
                          }
                        },
                        {
                          "id" : 544,
                          "_type" : "UnifiedMedia",
                          "video" : 
                              {
                                "id" : 545,
                                "_type" : "ScreenVMFile",
                                "src" : 1,
                                "trackNumber" : 0,
                                "attributes" : {
                                  "ident" : "Rec 01-18-21"
                                },
                                "parameters" : {
                                  "cursorScale" : {
                                    "type" : "double",
                                    "defaultValue" : 0.0,
                                    "interp" : "linr"
                                  },
                                  "cursorOpacity" : {
                                    "type" : "double",
                                    "defaultValue" : 0.0,
                                    "interp" : "linr"
                                  }
                                },
                                "effects" : [

                                ],
                                "start" : 960,
                                "duration" : 68,
                                "mediaStart" : 1296,
                                "mediaDuration" : 68,
                                "scalar" : 1,
                                "animationTracks" : {

                                }
                              },
                          "audio" : 
                              {
                                "id" : 546,
                                "_type" : "AMFile",
                                "src" : 1,
                                "trackNumber" : 1,
                                "attributes" : {
                                  "ident" : "",
                                  "gain" : 1.0,
                                  "mixToMono" : false
                                },
                                  "channelNumber" : "0,1",
                                "effects" : [

                                ],
                                "start" : 960,
                                "duration" : 68,
                                "mediaStart" : 1296,
                                "mediaDuration" : 68,
                                "scalar" : 1,
                                "animationTracks" : {

                                }
                              }
,
                          "start" : 960,
                          "duration" : 68,
                          "mediaStart" : 0,
                          "mediaDuration" : 13486,
                          "scalar" : 1,
                          "metadata" : {
                            "AutoAppliedSmartFocus" : "False",
                            "clipSpeedAttribute" : false
                          }
                        },
                        {
                          "id" : 547,
                          "_type" : "UnifiedMedia",
                          "video" : 
                              {
                                "id" : 548,
                                "_type" : "ScreenVMFile",
                                "src" : 1,
                                "trackNumber" : 0,
                                "attributes" : {
                                  "ident" : "Rec 01-18-21"
                                },
                                "parameters" : {
                                  "cursorScale" : {
                                    "type" : "double",
                                    "defaultValue" : 0.0,
                                    "interp" : "linr"
                                  },
                                  "cursorOpacity" : {
                                    "type" : "double",
                                    "defaultValue" : 0.0,
                                    "interp" : "linr"
                                  }
                                },
                                "effects" : [

                                ],
                                "start" : 1028,
                                "duration" : 97,
                                "mediaStart" : 1774,
                                "mediaDuration" : 97,
                                "scalar" : 1,
                                "animationTracks" : {

                                }
                              },
                          "audio" : 
                              {
                                "id" : 549,
                                "_type" : "AMFile",
                                "src" : 1,
                                "trackNumber" : 1,
                                "attributes" : {
                                  "ident" : "",
                                  "gain" : 1.0,
                                  "mixToMono" : false
                                },
                                  "channelNumber" : "0,1",
                                "effects" : [

                                ],
                                "start" : 1028,
                                "duration" : 97,
                                "mediaStart" : 1774,
                                "mediaDuration" : 97,
                                "scalar" : 1,
                                "animationTracks" : {

                                }
                              }
,
                          "start" : 1028,
                          "duration" : 97,
                          "mediaStart" : 0,
                          "mediaDuration" : 13486,
                          "scalar" : 1,
                          "metadata" : {
                            "AutoAppliedSmartFocus" : "False",
                            "clipSpeedAttribute" : false
                          }
                        },
                        {
                          "id" : 550,
                          "_type" : "UnifiedMedia",
                          "video" : 
                              {
                                "id" : 551,
                                "_type" : "ScreenVMFile",
                                "src" : 1,
                                "trackNumber" : 0,
                                "attributes" : {
                                  "ident" : "Rec 01-18-21"
                                },
                                "parameters" : {
                                  "cursorScale" : {
                                    "type" : "double",
                                    "defaultValue" : 0.0,
                                    "interp" : "linr"
                                  },
                                  "cursorOpacity" : {
                                    "type" : "double",
                                    "defaultValue" : 0.0,
                                    "interp" : "linr"
                                  }
                                },
                                "effects" : [

                                ],
                                "start" : 1125,
                                "duration" : 40,
                                "mediaStart" : 1903,
                                "mediaDuration" : 40,
                                "scalar" : 1,
                                "animationTracks" : {

                                }
                              },
                          "audio" : 
                              {
                                "id" : 552,
                                "_type" : "AMFile",
                                "src" : 1,
                                "trackNumber" : 1,
                                "attributes" : {
                                  "ident" : "",
                                  "gain" : 1.0,
                                  "mixToMono" : false
                                },
                                  "channelNumber" : "0,1",
                                "effects" : [

                                ],
                                "start" : 1125,
                                "duration" : 40,
                                "mediaStart" : 1903,
                                "mediaDuration" : 40,
                                "scalar" : 1,
                                "animationTracks" : {

                                }
                              }
,
                          "start" : 1125,
                          "duration" : 40,
                          "mediaStart" : 0,
                          "mediaDuration" : 13486,
                          "scalar" : 1,
                          "metadata" : {
                            "AutoAppliedSmartFocus" : "False",
                            "clipSpeedAttribute" : false
                          }
                        },
                        {
                          "id" : 553,
                          "_type" : "UnifiedMedia",
                          "video" : 
                              {
                                "id" : 554,
                                "_type" : "ScreenVMFile",
                                "src" : 1,
                                "trackNumber" : 0,
                                "attributes" : {
                                  "ident" : "Rec 01-18-21"
                                },
                                "parameters" : {
                                  "cursorScale" : {
                                    "type" : "double",
                                    "defaultValue" : 0.0,
                                    "interp" : "linr"
                                  },
                                  "cursorOpacity" : {
                                    "type" : "double",
                                    "defaultValue" : 0.0,
                                    "interp" : "linr"
                                  }
                                },
                                "effects" : [

                                ],
                                "start" : 1165,
                                "duration" : 14,
                                "mediaStart" : 1954,
                                "mediaDuration" : 14,
                                "scalar" : 1,
                                "animationTracks" : {

                                }
                              },
                          "audio" : 
                              {
                                "id" : 555,
                                "_type" : "AMFile",
                                "src" : 1,
                                "trackNumber" : 1,
                                "attributes" : {
                                  "ident" : "",
                                  "gain" : 1.0,
                                  "mixToMono" : false
                                },
                                  "channelNumber" : "0,1",
                                "effects" : [

                                ],
                                "start" : 1165,
                                "duration" : 14,
                                "mediaStart" : 1954,
                                "mediaDuration" : 14,
                                "scalar" : 1,
                                "animationTracks" : {

                                }
                              }
,
                          "start" : 1165,
                          "duration" : 14,
                          "mediaStart" : 0,
                          "mediaDuration" : 13486,
                          "scalar" : 1,
                          "metadata" : {
                            "AutoAppliedSmartFocus" : "False",
                            "clipSpeedAttribute" : false
                          }
                        },
                        {
                          "id" : 556,
                          "_type" : "UnifiedMedia",
                          "video" : 
                              {
                                "id" : 557,
                                "_type" : "ScreenVMFile",
                                "src" : 1,
                                "trackNumber" : 0,
                                "attributes" : {
                                  "ident" : "Rec 01-18-21"
                                },
                                "parameters" : {
                                  "cursorScale" : {
                                    "type" : "double",
                                    "defaultValue" : 0.0,
                                    "interp" : "linr"
                                  },
                                  "cursorOpacity" : {
                                    "type" : "double",
                                    "defaultValue" : 0.0,
                                    "interp" : "linr"
                                  }
                                },
                                "effects" : [

                                ],
                                "start" : 1179,
                                "duration" : 670,
                                "mediaStart" : 1982,
                                "mediaDuration" : 670,
                                "scalar" : 1,
                                "animationTracks" : {

                                }
                              },
                          "audio" : 
                              {
                                "id" : 558,
                                "_type" : "AMFile",
                                "src" : 1,
                                "trackNumber" : 1,
                                "attributes" : {
                                  "ident" : "",
                                  "gain" : 1.0,
                                  "mixToMono" : false
                                },
                                  "channelNumber" : "0,1",
                                "effects" : [

                                ],
                                "start" : 1179,
                                "duration" : 670,
                                "mediaStart" : 1982,
                                "mediaDuration" : 670,
                                "scalar" : 1,
                                "animationTracks" : {

                                }
                              }
,
                          "start" : 1179,
                          "duration" : 670,
                          "mediaStart" : 0,
                          "mediaDuration" : 13486,
                          "scalar" : 1,
                          "metadata" : {
                            "AutoAppliedSmartFocus" : "False",
                            "clipSpeedAttribute" : false
                          }
                        },
                        {
                          "id" : 559,
                          "_type" : "UnifiedMedia",
                          "video" : 
                              {
                                "id" : 560,
                                "_type" : "ScreenVMFile",
                                "src" : 1,
                                "trackNumber" : 0,
                                "attributes" : {
                                  "ident" : "Rec 01-18-21"
                                },
                                "parameters" : {
                                  "cursorScale" : {
                                    "type" : "double",
                                    "defaultValue" : 0.0,
                                    "interp" : "linr"
                                  },
                                  "cursorOpacity" : {
                                    "type" : "double",
                                    "defaultValue" : 0.0,
                                    "interp" : "linr"
                                  }
                                },
                                "effects" : [

                                ],
                                "start" : 1849,
                                "duration" : 166,
                                "mediaStart" : 2666,
                                "mediaDuration" : 166,
                                "scalar" : 1,
                                "animationTracks" : {

                                }
                              },
                          "audio" : 
                              {
                                "id" : 561,
                                "_type" : "AMFile",
                                "src" : 1,
                                "trackNumber" : 1,
                                "attributes" : {
                                  "ident" : "",
                                  "gain" : 1.0,
                                  "mixToMono" : false
                                },
                                  "channelNumber" : "0,1",
                                "effects" : [

                                ],
                                "start" : 1849,
                                "duration" : 166,
                                "mediaStart" : 2666,
                                "mediaDuration" : 166,
                                "scalar" : 1,
                                "animationTracks" : {

                                }
                              }
,
                          "start" : 1849,
                          "duration" : 166,
                          "mediaStart" : 0,
                          "mediaDuration" : 13486,
                          "scalar" : 1,
                          "metadata" : {
                            "AutoAppliedSmartFocus" : "False",
                            "clipSpeedAttribute" : false
                          }
                        },
                        {
                          "id" : 562,
                          "_type" : "UnifiedMedia",
                          "video" : 
                              {
                                "id" : 563,
                                "_type" : "ScreenVMFile",
                                "src" : 1,
                                "trackNumber" : 0,
                                "attributes" : {
                                  "ident" : "Rec 01-18-21"
                                },
                                "parameters" : {
                                  "cursorScale" : {
                                    "type" : "double",
                                    "defaultValue" : 0.0,
                                    "interp" : "linr"
                                  },
                                  "cursorOpacity" : {
                                    "type" : "double",
                                    "defaultValue" : 0.0,
                                    "interp" : "linr"
                                  }
                                },
                                "effects" : [

                                ],
                                "start" : 2015,
                                "duration" : 276,
                                "mediaStart" : 3131,
                                "mediaDuration" : 276,
                                "scalar" : 1,
                                "animationTracks" : {

                                }
                              },
                          "audio" : 
                              {
                                "id" : 564,
                                "_type" : "AMFile",
                                "src" : 1,
                                "trackNumber" : 1,
                                "attributes" : {
                                  "ident" : "",
                                  "gain" : 1.0,
                                  "mixToMono" : false
                                },
                                  "channelNumber" : "0,1",
                                "effects" : [

                                ],
                                "start" : 2015,
                                "duration" : 276,
                                "mediaStart" : 3131,
                                "mediaDuration" : 276,
                                "scalar" : 1,
                                "animationTracks" : {

                                }
                              }
,
                          "start" : 2015,
                          "duration" : 276,
                          "mediaStart" : 0,
                          "mediaDuration" : 13486,
                          "scalar" : 1,
                          "metadata" : {
                            "AutoAppliedSmartFocus" : "False",
                            "clipSpeedAttribute" : false
                          }
                        },
                        {
                          "id" : 565,
                          "_type" : "UnifiedMedia",
                          "video" : 
                              {
                                "id" : 566,
                                "_type" : "ScreenVMFile",
                                "src" : 1,
                                "trackNumber" : 0,
                                "attributes" : {
                                  "ident" : "Rec 01-18-21"
                                },
                                "parameters" : {
                                  "cursorScale" : {
                                    "type" : "double",
                                    "defaultValue" : 0.0,
                                    "interp" : "linr"
                                  },
                                  "cursorOpacity" : {
                                    "type" : "double",
                                    "defaultValue" : 0.0,
                                    "interp" : "linr"
                                  }
                                },
                                "effects" : [

                                ],
                                "start" : 2291,
                                "duration" : 34,
                                "mediaStart" : 3433,
                                "mediaDuration" : 34,
                                "scalar" : 1,
                                "animationTracks" : {

                                }
                              },
                          "audio" : 
                              {
                                "id" : 567,
                                "_type" : "AMFile",
                                "src" : 1,
                                "trackNumber" : 1,
                                "attributes" : {
                                  "ident" : "",
                                  "gain" : 1.0,
                                  "mixToMono" : false
                                },
                                  "channelNumber" : "0,1",
                                "effects" : [

                                ],
                                "start" : 2291,
                                "duration" : 34,
                                "mediaStart" : 3433,
                                "mediaDuration" : 34,
                                "scalar" : 1,
                                "animationTracks" : {

                                }
                              }
,
                          "start" : 2291,
                          "duration" : 34,
                          "mediaStart" : 0,
                          "mediaDuration" : 13486,
                          "scalar" : 1,
                          "metadata" : {
                            "AutoAppliedSmartFocus" : "False",
                            "clipSpeedAttribute" : false
                          }
                        },
                        {
                          "id" : 568,
                          "_type" : "UnifiedMedia",
                          "video" : 
                              {
                                "id" : 569,
                                "_type" : "ScreenVMFile",
                                "src" : 1,
                                "trackNumber" : 0,
                                "attributes" : {
                                  "ident" : "Rec 01-18-21"
                                },
                                "parameters" : {
                                  "cursorScale" : {
                                    "type" : "double",
                                    "defaultValue" : 0.0,
                                    "interp" : "linr"
                                  },
                                  "cursorOpacity" : {
                                    "type" : "double",
                                    "defaultValue" : 0.0,
                                    "interp" : "linr"
                                  }
                                },
                                "effects" : [

                                ],
                                "start" : 2325,
                                "duration" : 27,
                                "mediaStart" : 3486,
                                "mediaDuration" : 27,
                                "scalar" : 1,
                                "animationTracks" : {

                                }
                              },
                          "audio" : 
                              {
                                "id" : 570,
                                "_type" : "AMFile",
                                "src" : 1,
                                "trackNumber" : 1,
                                "attributes" : {
                                  "ident" : "",
                                  "gain" : 1.0,
                                  "mixToMono" : false
                                },
                                  "channelNumber" : "0,1",
                                "effects" : [

                                ],
                                "start" : 2325,
                                "duration" : 27,
                                "mediaStart" : 3486,
                                "mediaDuration" : 27,
                                "scalar" : 1,
                                "animationTracks" : {

                                }
                              }
,
                          "start" : 2325,
                          "duration" : 27,
                          "mediaStart" : 0,
                          "mediaDuration" : 13486,
                          "scalar" : 1,
                          "metadata" : {
                            "AutoAppliedSmartFocus" : "False",
                            "clipSpeedAttribute" : false
                          }
                        },
                        {
                          "id" : 571,
                          "_type" : "UnifiedMedia",
                          "video" : 
                              {
                                "id" : 572,
                                "_type" : "ScreenVMFile",
                                "src" : 1,
                                "trackNumber" : 0,
                                "attributes" : {
                                  "ident" : "Rec 01-18-21"
                                },
                                "parameters" : {
                                  "cursorScale" : {
                                    "type" : "double",
                                    "defaultValue" : 0.0,
                                    "interp" : "linr"
                                  },
                                  "cursorOpacity" : {
                                    "type" : "double",
                                    "defaultValue" : 0.0,
                                    "interp" : "linr"
                                  }
                                },
                                "effects" : [

                                ],
                                "start" : 2352,
                                "duration" : 507,
                                "mediaStart" : 3555,
                                "mediaDuration" : 507,
                                "scalar" : 1,
                                "animationTracks" : {

                                }
                              },
                          "audio" : 
                              {
                                "id" : 573,
                                "_type" : "AMFile",
                                "src" : 1,
                                "trackNumber" : 1,
                                "attributes" : {
                                  "ident" : "",
                                  "gain" : 1.0,
                                  "mixToMono" : false
                                },
                                  "channelNumber" : "0,1",
                                "effects" : [

                                ],
                                "start" : 2352,
                                "duration" : 507,
                                "mediaStart" : 3555,
                                "mediaDuration" : 507,
                                "scalar" : 1,
                                "animationTracks" : {

                                }
                              }
,
                          "start" : 2352,
                          "duration" : 507,
                          "mediaStart" : 0,
                          "mediaDuration" : 13486,
                          "scalar" : 1,
                          "metadata" : {
                            "AutoAppliedSmartFocus" : "False",
                            "clipSpeedAttribute" : false
                          }
                        },
                        {
                          "id" : 574,
                          "_type" : "UnifiedMedia",
                          "video" : 
                              {
                                "id" : 575,
                                "_type" : "ScreenVMFile",
                                "src" : 1,
                                "trackNumber" : 0,
                                "attributes" : {
                                  "ident" : "Rec 01-18-21"
                                },
                                "parameters" : {
                                  "cursorScale" : {
                                    "type" : "double",
                                    "defaultValue" : 0.0,
                                    "interp" : "linr"
                                  },
                                  "cursorOpacity" : {
                                    "type" : "double",
                                    "defaultValue" : 0.0,
                                    "interp" : "linr"
                                  }
                                },
                                "effects" : [

                                ],
                                "start" : 2859,
                                "duration" : 60,
                                "mediaStart" : 4295,
                                "mediaDuration" : 60,
                                "scalar" : 1,
                                "animationTracks" : {

                                }
                              },
                          "audio" : 
                              {
                                "id" : 576,
                                "_type" : "AMFile",
                                "src" : 1,
                                "trackNumber" : 1,
                                "attributes" : {
                                  "ident" : "",
                                  "gain" : 1.0,
                                  "mixToMono" : false
                                },
                                  "channelNumber" : "0,1",
                                "effects" : [

                                ],
                                "start" : 2859,
                                "duration" : 60,
                                "mediaStart" : 4295,
                                "mediaDuration" : 60,
                                "scalar" : 1,
                                "animationTracks" : {

                                }
                              }
,
                          "start" : 2859,
                          "duration" : 60,
                          "mediaStart" : 0,
                          "mediaDuration" : 13486,
                          "scalar" : 1,
                          "metadata" : {
                            "AutoAppliedSmartFocus" : "False",
                            "clipSpeedAttribute" : false
                          }
                        },
                        {
                          "id" : 577,
                          "_type" : "UnifiedMedia",
                          "video" : 
                              {
                                "id" : 578,
                                "_type" : "ScreenVMFile",
                                "src" : 1,
                                "trackNumber" : 0,
                                "attributes" : {
                                  "ident" : "Rec 01-18-21"
                                },
                                "parameters" : {
                                  "cursorScale" : {
                                    "type" : "double",
                                    "defaultValue" : 0.0,
                                    "interp" : "linr"
                                  },
                                  "cursorOpacity" : {
                                    "type" : "double",
                                    "defaultValue" : 0.0,
                                    "interp" : "linr"
                                  }
                                },
                                "effects" : [

                                ],
                                "start" : 2919,
                                "duration" : 175,
                                "mediaStart" : 4387,
                                "mediaDuration" : 175,
                                "scalar" : 1,
                                "animationTracks" : {

                                }
                              },
                          "audio" : 
                              {
                                "id" : 579,
                                "_type" : "AMFile",
                                "src" : 1,
                                "trackNumber" : 1,
                                "attributes" : {
                                  "ident" : "",
                                  "gain" : 1.0,
                                  "mixToMono" : false
                                },
                                  "channelNumber" : "0,1",
                                "effects" : [

                                ],
                                "start" : 2919,
                                "duration" : 175,
                                "mediaStart" : 4387,
                                "mediaDuration" : 175,
                                "scalar" : 1,
                                "animationTracks" : {

                                }
                              }
,
                          "start" : 2919,
                          "duration" : 175,
                          "mediaStart" : 0,
                          "mediaDuration" : 13486,
                          "scalar" : 1,
                          "metadata" : {
                            "AutoAppliedSmartFocus" : "False",
                            "clipSpeedAttribute" : false
                          }
                        },
                        {
                          "id" : 580,
                          "_type" : "UnifiedMedia",
                          "video" : 
                              {
                                "id" : 581,
                                "_type" : "ScreenVMFile",
                                "src" : 1,
                                "trackNumber" : 0,
                                "attributes" : {
                                  "ident" : "Rec 01-18-21"
                                },
                                "parameters" : {
                                  "cursorScale" : {
                                    "type" : "double",
                                    "defaultValue" : 0.0,
                                    "interp" : "linr"
                                  },
                                  "cursorOpacity" : {
                                    "type" : "double",
                                    "defaultValue" : 0.0,
                                    "interp" : "linr"
                                  }
                                },
                                "effects" : [

                                ],
                                "start" : 3094,
                                "duration" : 47,
                                "mediaStart" : 4584,
                                "mediaDuration" : 47,
                                "scalar" : 1,
                                "animationTracks" : {

                                }
                              },
                          "audio" : 
                              {
                                "id" : 582,
                                "_type" : "AMFile",
                                "src" : 1,
                                "trackNumber" : 1,
                                "attributes" : {
                                  "ident" : "",
                                  "gain" : 1.0,
                                  "mixToMono" : false
                                },
                                  "channelNumber" : "0,1",
                                "effects" : [

                                ],
                                "start" : 3094,
                                "duration" : 47,
                                "mediaStart" : 4584,
                                "mediaDuration" : 47,
                                "scalar" : 1,
                                "animationTracks" : {

                                }
                              }
,
                          "start" : 3094,
                          "duration" : 47,
                          "mediaStart" : 0,
                          "mediaDuration" : 13486,
                          "scalar" : 1,
                          "metadata" : {
                            "AutoAppliedSmartFocus" : "False",
                            "clipSpeedAttribute" : false
                          }
                        },
                        {
                          "id" : 583,
                          "_type" : "UnifiedMedia",
                          "video" : 
                              {
                                "id" : 584,
                                "_type" : "ScreenVMFile",
                                "src" : 1,
                                "trackNumber" : 0,
                                "attributes" : {
                                  "ident" : "Rec 01-18-21"
                                },
                                "parameters" : {
                                  "cursorScale" : {
                                    "type" : "double",
                                    "defaultValue" : 0.0,
                                    "interp" : "linr"
                                  },
                                  "cursorOpacity" : {
                                    "type" : "double",
                                    "defaultValue" : 0.0,
                                    "interp" : "linr"
                                  }
                                },
                                "effects" : [

                                ],
                                "start" : 3141,
                                "duration" : 108,
                                "mediaStart" : 4679,
                                "mediaDuration" : 108,
                                "scalar" : 1,
                                "animationTracks" : {

                                }
                              },
                          "audio" : 
                              {
                                "id" : 585,
                                "_type" : "AMFile",
                                "src" : 1,
                                "trackNumber" : 1,
                                "attributes" : {
                                  "ident" : "",
                                  "gain" : 1.0,
                                  "mixToMono" : false
                                },
                                  "channelNumber" : "0,1",
                                "effects" : [

                                ],
                                "start" : 3141,
                                "duration" : 108,
                                "mediaStart" : 4679,
                                "mediaDuration" : 108,
                                "scalar" : 1,
                                "animationTracks" : {

                                }
                              }
,
                          "start" : 3141,
                          "duration" : 108,
                          "mediaStart" : 0,
                          "mediaDuration" : 13486,
                          "scalar" : 1,
                          "metadata" : {
                            "AutoAppliedSmartFocus" : "False",
                            "clipSpeedAttribute" : false
                          }
                        },
                        {
                          "id" : 586,
                          "_type" : "UnifiedMedia",
                          "video" : 
                              {
                                "id" : 587,
                                "_type" : "ScreenVMFile",
                                "src" : 1,
                                "trackNumber" : 0,
                                "attributes" : {
                                  "ident" : "Rec 01-18-21"
                                },
                                "parameters" : {
                                  "cursorScale" : {
                                    "type" : "double",
                                    "defaultValue" : 0.0,
                                    "interp" : "linr"
                                  },
                                  "cursorOpacity" : {
                                    "type" : "double",
                                    "defaultValue" : 0.0,
                                    "interp" : "linr"
                                  }
                                },
                                "effects" : [

                                ],
                                "start" : 3249,
                                "duration" : 174,
                                "mediaStart" : 4842,
                                "mediaDuration" : 174,
                                "scalar" : 1,
                                "animationTracks" : {

                                }
                              },
                          "audio" : 
                              {
                                "id" : 588,
                                "_type" : "AMFile",
                                "src" : 1,
                                "trackNumber" : 1,
                                "attributes" : {
                                  "ident" : "",
                                  "gain" : 1.0,
                                  "mixToMono" : false
                                },
                                  "channelNumber" : "0,1",
                                "effects" : [

                                ],
                                "start" : 3249,
                                "duration" : 174,
                                "mediaStart" : 4842,
                                "mediaDuration" : 174,
                                "scalar" : 1,
                                "animationTracks" : {

                                }
                              }
,
                          "start" : 3249,
                          "duration" : 174,
                          "mediaStart" : 0,
                          "mediaDuration" : 13486,
                          "scalar" : 1,
                          "metadata" : {
                            "AutoAppliedSmartFocus" : "False",
                            "clipSpeedAttribute" : false
                          }
                        },
                        {
                          "id" : 589,
                          "_type" : "UnifiedMedia",
                          "video" : 
                              {
                                "id" : 590,
                                "_type" : "ScreenVMFile",
                                "src" : 1,
                                "trackNumber" : 0,
                                "attributes" : {
                                  "ident" : "Rec 01-18-21"
                                },
                                "parameters" : {
                                  "cursorScale" : {
                                    "type" : "double",
                                    "defaultValue" : 0.0,
                                    "interp" : "linr"
                                  },
                                  "cursorOpacity" : {
                                    "type" : "double",
                                    "defaultValue" : 0.0,
                                    "interp" : "linr"
                                  }
                                },
                                "effects" : [

                                ],
                                "start" : 3423,
                                "duration" : 49,
                                "mediaStart" : 5028,
                                "mediaDuration" : 49,
                                "scalar" : 1,
                                "animationTracks" : {

                                }
                              },
                          "audio" : 
                              {
                                "id" : 591,
                                "_type" : "AMFile",
                                "src" : 1,
                                "trackNumber" : 1,
                                "attributes" : {
                                  "ident" : "",
                                  "gain" : 1.0,
                                  "mixToMono" : false
                                },
                                  "channelNumber" : "0,1",
                                "effects" : [

                                ],
                                "start" : 3423,
                                "duration" : 49,
                                "mediaStart" : 5028,
                                "mediaDuration" : 49,
                                "scalar" : 1,
                                "animationTracks" : {

                                }
                              }
,
                          "start" : 3423,
                          "duration" : 49,
                          "mediaStart" : 0,
                          "mediaDuration" : 13486,
                          "scalar" : 1,
                          "metadata" : {
                            "AutoAppliedSmartFocus" : "False",
                            "clipSpeedAttribute" : false
                          }
                        },
                        {
                          "id" : 592,
                          "_type" : "UnifiedMedia",
                          "video" : 
                              {
                                "id" : 593,
                                "_type" : "ScreenVMFile",
                                "src" : 1,
                                "trackNumber" : 0,
                                "attributes" : {
                                  "ident" : "Rec 01-18-21"
                                },
                                "parameters" : {
                                  "cursorScale" : {
                                    "type" : "double",
                                    "defaultValue" : 0.0,
                                    "interp" : "linr"
                                  },
                                  "cursorOpacity" : {
                                    "type" : "double",
                                    "defaultValue" : 0.0,
                                    "interp" : "linr"
                                  }
                                },
                                "effects" : [

                                ],
                                "start" : 3472,
                                "duration" : 2312,
                                "mediaStart" : 5094,
                                "mediaDuration" : 2312,
                                "scalar" : 1,
                                "animationTracks" : {

                                }
                              },
                          "audio" : 
                              {
                                "id" : 594,
                                "_type" : "AMFile",
                                "src" : 1,
                                "trackNumber" : 1,
                                "attributes" : {
                                  "ident" : "",
                                  "gain" : 1.0,
                                  "mixToMono" : false
                                },
                                  "channelNumber" : "0,1",
                                "effects" : [

                                ],
                                "start" : 3472,
                                "duration" : 2312,
                                "mediaStart" : 5094,
                                "mediaDuration" : 2312,
                                "scalar" : 1,
                                "animationTracks" : {

                                }
                              }
,
                          "start" : 3472,
                          "duration" : 2312,
                          "mediaStart" : 0,
                          "mediaDuration" : 13486,
                          "scalar" : 1,
                          "metadata" : {
                            "AutoAppliedSmartFocus" : "False",
                            "clipSpeedAttribute" : false
                          }
                        },
                        {
                          "id" : 595,
                          "_type" : "UnifiedMedia",
                          "video" : 
                              {
                                "id" : 596,
                                "_type" : "ScreenVMFile",
                                "src" : 1,
                                "trackNumber" : 0,
                                "attributes" : {
                                  "ident" : "Rec 01-18-21"
                                },
                                "parameters" : {
                                  "cursorScale" : {
                                    "type" : "double",
                                    "defaultValue" : 0.0,
                                    "interp" : "linr"
                                  },
                                  "cursorOpacity" : {
                                    "type" : "double",
                                    "defaultValue" : 0.0,
                                    "interp" : "linr"
                                  }
                                },
                                "effects" : [

                                ],
                                "start" : 5784,
                                "duration" : 44,
                                "mediaStart" : 7469,
                                "mediaDuration" : 44,
                                "scalar" : 1,
                                "animationTracks" : {

                                }
                              },
                          "audio" : 
                              {
                                "id" : 597,
                                "_type" : "AMFile",
                                "src" : 1,
                                "trackNumber" : 1,
                                "attributes" : {
                                  "ident" : "",
                                  "gain" : 1.0,
                                  "mixToMono" : false
                                },
                                  "channelNumber" : "0,1",
                                "effects" : [

                                ],
                                "start" : 5784,
                                "duration" : 44,
                                "mediaStart" : 7469,
                                "mediaDuration" : 44,
                                "scalar" : 1,
                                "animationTracks" : {

                                }
                              }
,
                          "start" : 5784,
                          "duration" : 44,
                          "mediaStart" : 0,
                          "mediaDuration" : 13486,
                          "scalar" : 1,
                          "metadata" : {
                            "AutoAppliedSmartFocus" : "False",
                            "clipSpeedAttribute" : false
                          }
                        },
                        {
                          "id" : 598,
                          "_type" : "UnifiedMedia",
                          "video" : 
                              {
                                "id" : 599,
                                "_type" : "ScreenVMFile",
                                "src" : 1,
                                "trackNumber" : 0,
                                "attributes" : {
                                  "ident" : "Rec 01-18-21"
                                },
                                "parameters" : {
                                  "cursorScale" : {
                                    "type" : "double",
                                    "defaultValue" : 0.0,
                                    "interp" : "linr"
                                  },
                                  "cursorOpacity" : {
                                    "type" : "double",
                                    "defaultValue" : 0.0,
                                    "interp" : "linr"
                                  }
                                },
                                "effects" : [

                                ],
                                "start" : 5828,
                                "duration" : 49,
                                "mediaStart" : 7552,
                                "mediaDuration" : 49,
                                "scalar" : 1,
                                "animationTracks" : {

                                }
                              },
                          "audio" : 
                              {
                                "id" : 600,
                                "_type" : "AMFile",
                                "src" : 1,
                                "trackNumber" : 1,
                                "attributes" : {
                                  "ident" : "",
                                  "gain" : 1.0,
                                  "mixToMono" : false
                                },
                                  "channelNumber" : "0,1",
                                "effects" : [

                                ],
                                "start" : 5828,
                                "duration" : 49,
                                "mediaStart" : 7552,
                                "mediaDuration" : 49,
                                "scalar" : 1,
                                "animationTracks" : {

                                }
                              }
,
                          "start" : 5828,
                          "duration" : 49,
                          "mediaStart" : 0,
                          "mediaDuration" : 13486,
                          "scalar" : 1,
                          "metadata" : {
                            "AutoAppliedSmartFocus" : "False",
                            "clipSpeedAttribute" : false
                          }
                        },
                        {
                          "id" : 601,
                          "_type" : "UnifiedMedia",
                          "video" : 
                              {
                                "id" : 602,
                                "_type" : "ScreenVMFile",
                                "src" : 1,
                                "trackNumber" : 0,
                                "attributes" : {
                                  "ident" : "Rec 01-18-21"
                                },
                                "parameters" : {
                                  "cursorScale" : {
                                    "type" : "double",
                                    "defaultValue" : 0.0,
                                    "interp" : "linr"
                                  },
                                  "cursorOpacity" : {
                                    "type" : "double",
                                    "defaultValue" : 0.0,
                                    "interp" : "linr"
                                  }
                                },
                                "effects" : [

                                ],
                                "start" : 5877,
                                "duration" : 149,
                                "mediaStart" : 7784,
                                "mediaDuration" : 149,
                                "scalar" : 1,
                                "animationTracks" : {

                                }
                              },
                          "audio" : 
                              {
                                "id" : 603,
                                "_type" : "AMFile",
                                "src" : 1,
                                "trackNumber" : 1,
                                "attributes" : {
                                  "ident" : "",
                                  "gain" : 1.0,
                                  "mixToMono" : false
                                },
                                  "channelNumber" : "0,1",
                                "effects" : [

                                ],
                                "start" : 5877,
                                "duration" : 149,
                                "mediaStart" : 7784,
                                "mediaDuration" : 149,
                                "scalar" : 1,
                                "animationTracks" : {

                                }
                              }
,
                          "start" : 5877,
                          "duration" : 149,
                          "mediaStart" : 0,
                          "mediaDuration" : 13486,
                          "scalar" : 1,
                          "metadata" : {
                            "AutoAppliedSmartFocus" : "False",
                            "clipSpeedAttribute" : false
                          }
                        },
                        {
                          "id" : 604,
                          "_type" : "UnifiedMedia",
                          "video" : 
                              {
                                "id" : 605,
                                "_type" : "ScreenVMFile",
                                "src" : 1,
                                "trackNumber" : 0,
                                "attributes" : {
                                  "ident" : "Rec 01-18-21"
                                },
                                "parameters" : {
                                  "cursorScale" : {
                                    "type" : "double",
                                    "defaultValue" : 0.0,
                                    "interp" : "linr"
                                  },
                                  "cursorOpacity" : {
                                    "type" : "double",
                                    "defaultValue" : 0.0,
                                    "interp" : "linr"
                                  }
                                },
                                "effects" : [

                                ],
                                "start" : 6026,
                                "duration" : 128,
                                "mediaStart" : 7946,
                                "mediaDuration" : 128,
                                "scalar" : 1,
                                "animationTracks" : {

                                }
                              },
                          "audio" : 
                              {
                                "id" : 606,
                                "_type" : "AMFile",
                                "src" : 1,
                                "trackNumber" : 1,
                                "attributes" : {
                                  "ident" : "",
                                  "gain" : 1.0,
                                  "mixToMono" : false
                                },
                                  "channelNumber" : "0,1",
                                "effects" : [

                                ],
                                "start" : 6026,
                                "duration" : 128,
                                "mediaStart" : 7946,
                                "mediaDuration" : 128,
                                "scalar" : 1,
                                "animationTracks" : {

                                }
                              }
,
                          "start" : 6026,
                          "duration" : 128,
                          "mediaStart" : 0,
                          "mediaDuration" : 13486,
                          "scalar" : 1,
                          "metadata" : {
                            "AutoAppliedSmartFocus" : "False",
                            "clipSpeedAttribute" : false
                          }
                        },
                        {
                          "id" : 607,
                          "_type" : "UnifiedMedia",
                          "video" : 
                              {
                                "id" : 608,
                                "_type" : "ScreenVMFile",
                                "src" : 1,
                                "trackNumber" : 0,
                                "attributes" : {
                                  "ident" : "Rec 01-18-21"
                                },
                                "parameters" : {
                                  "cursorScale" : {
                                    "type" : "double",
                                    "defaultValue" : 0.0,
                                    "interp" : "linr"
                                  },
                                  "cursorOpacity" : {
                                    "type" : "double",
                                    "defaultValue" : 0.0,
                                    "interp" : "linr"
                                  }
                                },
                                "effects" : [

                                ],
                                "start" : 6154,
                                "duration" : 387,
                                "mediaStart" : 8417,
                                "mediaDuration" : 387,
                                "scalar" : 1,
                                "animationTracks" : {

                                }
                              },
                          "audio" : 
                              {
                                "id" : 609,
                                "_type" : "AMFile",
                                "src" : 1,
                                "trackNumber" : 1,
                                "attributes" : {
                                  "ident" : "",
                                  "gain" : 1.0,
                                  "mixToMono" : false
                                },
                                  "channelNumber" : "0,1",
                                "effects" : [

                                ],
                                "start" : 6154,
                                "duration" : 387,
                                "mediaStart" : 8417,
                                "mediaDuration" : 387,
                                "scalar" : 1,
                                "animationTracks" : {

                                }
                              }
,
                          "start" : 6154,
                          "duration" : 387,
                          "mediaStart" : 0,
                          "mediaDuration" : 13486,
                          "scalar" : 1,
                          "metadata" : {
                            "AutoAppliedSmartFocus" : "False",
                            "clipSpeedAttribute" : false
                          }
                        },
                        {
                          "id" : 610,
                          "_type" : "UnifiedMedia",
                          "video" : 
                              {
                                "id" : 611,
                                "_type" : "ScreenVMFile",
                                "src" : 1,
                                "trackNumber" : 0,
                                "attributes" : {
                                  "ident" : "Rec 01-18-21"
                                },
                                "parameters" : {
                                  "cursorScale" : {
                                    "type" : "double",
                                    "defaultValue" : 0.0,
                                    "interp" : "linr"
                                  },
                                  "cursorOpacity" : {
                                    "type" : "double",
                                    "defaultValue" : 0.0,
                                    "interp" : "linr"
                                  }
                                },
                                "effects" : [

                                ],
                                "start" : 6541,
                                "duration" : 78,
                                "mediaStart" : 9020,
                                "mediaDuration" : 78,
                                "scalar" : 1,
                                "animationTracks" : {

                                }
                              },
                          "audio" : 
                              {
                                "id" : 612,
                                "_type" : "AMFile",
                                "src" : 1,
                                "trackNumber" : 1,
                                "attributes" : {
                                  "ident" : "",
                                  "gain" : 1.0,
                                  "mixToMono" : false
                                },
                                  "channelNumber" : "0,1",
                                "effects" : [

                                ],
                                "start" : 6541,
                                "duration" : 78,
                                "mediaStart" : 9020,
                                "mediaDuration" : 78,
                                "scalar" : 1,
                                "animationTracks" : {

                                }
                              }
,
                          "start" : 6541,
                          "duration" : 78,
                          "mediaStart" : 0,
                          "mediaDuration" : 13486,
                          "scalar" : 1,
                          "metadata" : {
                            "AutoAppliedSmartFocus" : "False",
                            "clipSpeedAttribute" : false
                          }
                        },
                        {
                          "id" : 613,
                          "_type" : "UnifiedMedia",
                          "video" : 
                              {
                                "id" : 614,
                                "_type" : "ScreenVMFile",
                                "src" : 1,
                                "trackNumber" : 0,
                                "attributes" : {
                                  "ident" : "Rec 01-18-21"
                                },
                                "parameters" : {
                                  "cursorScale" : {
                                    "type" : "double",
                                    "defaultValue" : 0.0,
                                    "interp" : "linr"
                                  },
                                  "cursorOpacity" : {
                                    "type" : "double",
                                    "defaultValue" : 0.0,
                                    "interp" : "linr"
                                  }
                                },
                                "effects" : [

                                ],
                                "start" : 6619,
                                "duration" : 45,
                                "mediaStart" : 9178,
                                "mediaDuration" : 45,
                                "scalar" : 1,
                                "animationTracks" : {

                                }
                              },
                          "audio" : 
                              {
                                "id" : 615,
                                "_type" : "AMFile",
                                "src" : 1,
                                "trackNumber" : 1,
                                "attributes" : {
                                  "ident" : "",
                                  "gain" : 1.0,
                                  "mixToMono" : false
                                },
                                  "channelNumber" : "0,1",
                                "effects" : [

                                ],
                                "start" : 6619,
                                "duration" : 45,
                                "mediaStart" : 9178,
                                "mediaDuration" : 45,
                                "scalar" : 1,
                                "animationTracks" : {

                                }
                              }
,
                          "start" : 6619,
                          "duration" : 45,
                          "mediaStart" : 0,
                          "mediaDuration" : 13486,
                          "scalar" : 1,
                          "metadata" : {
                            "AutoAppliedSmartFocus" : "False",
                            "clipSpeedAttribute" : false
                          }
                        },
                        {
                          "id" : 616,
                          "_type" : "UnifiedMedia",
                          "video" : 
                              {
                                "id" : 617,
                                "_type" : "ScreenVMFile",
                                "src" : 1,
                                "trackNumber" : 0,
                                "attributes" : {
                                  "ident" : "Rec 01-18-21"
                                },
                                "parameters" : {
                                  "cursorScale" : {
                                    "type" : "double",
                                    "defaultValue" : 0.0,
                                    "interp" : "linr"
                                  },
                                  "cursorOpacity" : {
                                    "type" : "double",
                                    "defaultValue" : 0.0,
                                    "interp" : "linr"
                                  }
                                },
                                "effects" : [

                                ],
                                "start" : 6664,
                                "duration" : 46,
                                "mediaStart" : 9242,
                                "mediaDuration" : 46,
                                "scalar" : 1,
                                "animationTracks" : {

                                }
                              },
                          "audio" : 
                              {
                                "id" : 618,
                                "_type" : "AMFile",
                                "src" : 1,
                                "trackNumber" : 1,
                                "attributes" : {
                                  "ident" : "",
                                  "gain" : 1.0,
                                  "mixToMono" : false
                                },
                                  "channelNumber" : "0,1",
                                "effects" : [

                                ],
                                "start" : 6664,
                                "duration" : 46,
                                "mediaStart" : 9242,
                                "mediaDuration" : 46,
                                "scalar" : 1,
                                "animationTracks" : {

                                }
                              }
,
                          "start" : 6664,
                          "duration" : 46,
                          "mediaStart" : 0,
                          "mediaDuration" : 13486,
                          "scalar" : 1,
                          "metadata" : {
                            "AutoAppliedSmartFocus" : "False",
                            "clipSpeedAttribute" : false
                          }
                        },
                        {
                          "id" : 619,
                          "_type" : "UnifiedMedia",
                          "video" : 
                              {
                                "id" : 620,
                                "_type" : "ScreenVMFile",
                                "src" : 1,
                                "trackNumber" : 0,
                                "attributes" : {
                                  "ident" : "Rec 01-18-21"
                                },
                                "parameters" : {
                                  "cursorScale" : {
                                    "type" : "double",
                                    "defaultValue" : 0.0,
                                    "interp" : "linr"
                                  },
                                  "cursorOpacity" : {
                                    "type" : "double",
                                    "defaultValue" : 0.0,
                                    "interp" : "linr"
                                  }
                                },
                                "effects" : [

                                ],
                                "start" : 6710,
                                "duration" : 28,
                                "mediaStart" : 9315,
                                "mediaDuration" : 28,
                                "scalar" : 1,
                                "animationTracks" : {

                                }
                              },
                          "audio" : 
                              {
                                "id" : 621,
                                "_type" : "AMFile",
                                "src" : 1,
                                "trackNumber" : 1,
                                "attributes" : {
                                  "ident" : "",
                                  "gain" : 1.0,
                                  "mixToMono" : false
                                },
                                  "channelNumber" : "0,1",
                                "effects" : [

                                ],
                                "start" : 6710,
                                "duration" : 28,
                                "mediaStart" : 9315,
                                "mediaDuration" : 28,
                                "scalar" : 1,
                                "animationTracks" : {

                                }
                              }
,
                          "start" : 6710,
                          "duration" : 28,
                          "mediaStart" : 0,
                          "mediaDuration" : 13486,
                          "scalar" : 1,
                          "metadata" : {
                            "AutoAppliedSmartFocus" : "False",
                            "clipSpeedAttribute" : false
                          }
                        },
                        {
                          "id" : 622,
                          "_type" : "UnifiedMedia",
                          "video" : 
                              {
                                "id" : 623,
                                "_type" : "ScreenVMFile",
                                "src" : 1,
                                "trackNumber" : 0,
                                "attributes" : {
                                  "ident" : "Rec 01-18-21"
                                },
                                "parameters" : {
                                  "cursorScale" : {
                                    "type" : "double",
                                    "defaultValue" : 0.0,
                                    "interp" : "linr"
                                  },
                                  "cursorOpacity" : {
                                    "type" : "double",
                                    "defaultValue" : 0.0,
                                    "interp" : "linr"
                                  }
                                },
                                "effects" : [

                                ],
                                "start" : 6738,
                                "duration" : 20,
                                "mediaStart" : 9354,
                                "mediaDuration" : 20,
                                "scalar" : 1,
                                "animationTracks" : {

                                }
                              },
                          "audio" : 
                              {
                                "id" : 624,
                                "_type" : "AMFile",
                                "src" : 1,
                                "trackNumber" : 1,
                                "attributes" : {
                                  "ident" : "",
                                  "gain" : 1.0,
                                  "mixToMono" : false
                                },
                                  "channelNumber" : "0,1",
                                "effects" : [

                                ],
                                "start" : 6738,
                                "duration" : 20,
                                "mediaStart" : 9354,
                                "mediaDuration" : 20,
                                "scalar" : 1,
                                "animationTracks" : {

                                }
                              }
,
                          "start" : 6738,
                          "duration" : 20,
                          "mediaStart" : 0,
                          "mediaDuration" : 13486,
                          "scalar" : 1,
                          "metadata" : {
                            "AutoAppliedSmartFocus" : "False",
                            "clipSpeedAttribute" : false
                          }
                        },
                        {
                          "id" : 625,
                          "_type" : "UnifiedMedia",
                          "video" : 
                              {
                                "id" : 626,
                                "_type" : "ScreenVMFile",
                                "src" : 1,
                                "trackNumber" : 0,
                                "attributes" : {
                                  "ident" : "Rec 01-18-21"
                                },
                                "parameters" : {
                                  "cursorScale" : {
                                    "type" : "double",
                                    "defaultValue" : 0.0,
                                    "interp" : "linr"
                                  },
                                  "cursorOpacity" : {
                                    "type" : "double",
                                    "defaultValue" : 0.0,
                                    "interp" : "linr"
                                  }
                                },
                                "effects" : [

                                ],
                                "start" : 6758,
                                "duration" : 14,
                                "mediaStart" : 9380,
                                "mediaDuration" : 14,
                                "scalar" : 1,
                                "animationTracks" : {

                                }
                              },
                          "audio" : 
                              {
                                "id" : 627,
                                "_type" : "AMFile",
                                "src" : 1,
                                "trackNumber" : 1,
                                "attributes" : {
                                  "ident" : "",
                                  "gain" : 1.0,
                                  "mixToMono" : false
                                },
                                  "channelNumber" : "0,1",
                                "effects" : [

                                ],
                                "start" : 6758,
                                "duration" : 14,
                                "mediaStart" : 9380,
                                "mediaDuration" : 14,
                                "scalar" : 1,
                                "animationTracks" : {

                                }
                              }
,
                          "start" : 6758,
                          "duration" : 14,
                          "mediaStart" : 0,
                          "mediaDuration" : 13486,
                          "scalar" : 1,
                          "metadata" : {
                            "AutoAppliedSmartFocus" : "False",
                            "clipSpeedAttribute" : false
                          }
                        },
                        {
                          "id" : 628,
                          "_type" : "UnifiedMedia",
                          "video" : 
                              {
                                "id" : 629,
                                "_type" : "ScreenVMFile",
                                "src" : 1,
                                "trackNumber" : 0,
                                "attributes" : {
                                  "ident" : "Rec 01-18-21"
                                },
                                "parameters" : {
                                  "cursorScale" : {
                                    "type" : "double",
                                    "defaultValue" : 0.0,
                                    "interp" : "linr"
                                  },
                                  "cursorOpacity" : {
                                    "type" : "double",
                                    "defaultValue" : 0.0,
                                    "interp" : "linr"
                                  }
                                },
                                "effects" : [

                                ],
                                "start" : 6772,
                                "duration" : 10,
                                "mediaStart" : 9468,
                                "mediaDuration" : 10,
                                "scalar" : 1,
                                "animationTracks" : {

                                }
                              },
                          "audio" : 
                              {
                                "id" : 630,
                                "_type" : "AMFile",
                                "src" : 1,
                                "trackNumber" : 1,
                                "attributes" : {
                                  "ident" : "",
                                  "gain" : 1.0,
                                  "mixToMono" : false
                                },
                                  "channelNumber" : "0,1",
                                "effects" : [

                                ],
                                "start" : 6772,
                                "duration" : 10,
                                "mediaStart" : 9468,
                                "mediaDuration" : 10,
                                "scalar" : 1,
                                "animationTracks" : {

                                }
                              }
,
                          "start" : 6772,
                          "duration" : 10,
                          "mediaStart" : 0,
                          "mediaDuration" : 13486,
                          "scalar" : 1,
                          "metadata" : {
                            "AutoAppliedSmartFocus" : "False",
                            "clipSpeedAttribute" : false
                          }
                        },
                        {
                          "id" : 631,
                          "_type" : "UnifiedMedia",
                          "video" : 
                              {
                                "id" : 632,
                                "_type" : "ScreenVMFile",
                                "src" : 1,
                                "trackNumber" : 0,
                                "attributes" : {
                                  "ident" : "Rec 01-18-21"
                                },
                                "parameters" : {
                                  "cursorScale" : {
                                    "type" : "double",
                                    "defaultValue" : 0.0,
                                    "interp" : "linr"
                                  },
                                  "cursorOpacity" : {
                                    "type" : "double",
                                    "defaultValue" : 0.0,
                                    "interp" : "linr"
                                  }
                                },
                                "effects" : [

                                ],
                                "start" : 6782,
                                "duration" : 955,
                                "mediaStart" : 10025,
                                "mediaDuration" : 955,
                                "scalar" : 1,
                                "animationTracks" : {

                                }
                              },
                          "audio" : 
                              {
                                "id" : 633,
                                "_type" : "AMFile",
                                "src" : 1,
                                "trackNumber" : 1,
                                "attributes" : {
                                  "ident" : "",
                                  "gain" : 1.0,
                                  "mixToMono" : false
                                },
                                  "channelNumber" : "0,1",
                                "effects" : [

                                ],
                                "start" : 6782,
                                "duration" : 955,
                                "mediaStart" : 10025,
                                "mediaDuration" : 955,
                                "scalar" : 1,
                                "animationTracks" : {

                                }
                              }
,
                          "start" : 6782,
                          "duration" : 955,
                          "mediaStart" : 0,
                          "mediaDuration" : 13486,
                          "scalar" : 1,
                          "metadata" : {
                            "AutoAppliedSmartFocus" : "False",
                            "clipSpeedAttribute" : false
                          }
                        },
                        {
                          "id" : 634,
                          "_type" : "UnifiedMedia",
                          "video" : 
                              {
                                "id" : 635,
                                "_type" : "ScreenVMFile",
                                "src" : 1,
                                "trackNumber" : 0,
                                "attributes" : {
                                  "ident" : "Rec 01-18-21"
                                },
                                "parameters" : {
                                  "cursorScale" : {
                                    "type" : "double",
                                    "defaultValue" : 0.0,
                                    "interp" : "linr"
                                  },
                                  "cursorOpacity" : {
                                    "type" : "double",
                                    "defaultValue" : 0.0,
                                    "interp" : "linr"
                                  }
                                },
                                "effects" : [

                                ],
                                "start" : 7737,
                                "duration" : 124,
                                "mediaStart" : 11410,
                                "mediaDuration" : 124,
                                "scalar" : 1,
                                "animationTracks" : {

                                }
                              },
                          "audio" : 
                              {
                                "id" : 636,
                                "_type" : "AMFile",
                                "src" : 1,
                                "trackNumber" : 1,
                                "attributes" : {
                                  "ident" : "",
                                  "gain" : 1.0,
                                  "mixToMono" : false
                                },
                                  "channelNumber" : "0,1",
                                "effects" : [

                                ],
                                "start" : 7737,
                                "duration" : 124,
                                "mediaStart" : 11410,
                                "mediaDuration" : 124,
                                "scalar" : 1,
                                "animationTracks" : {

                                }
                              }
,
                          "start" : 7737,
                          "duration" : 124,
                          "mediaStart" : 0,
                          "mediaDuration" : 13486,
                          "scalar" : 1,
                          "metadata" : {
                            "AutoAppliedSmartFocus" : "False",
                            "clipSpeedAttribute" : false
                          }
                        },
                        {
                          "id" : 637,
                          "_type" : "UnifiedMedia",
                          "video" : 
                              {
                                "id" : 638,
                                "_type" : "ScreenVMFile",
                                "src" : 1,
                                "trackNumber" : 0,
                                "attributes" : {
                                  "ident" : "Rec 01-18-21"
                                },
                                "parameters" : {
                                  "cursorScale" : {
                                    "type" : "double",
                                    "defaultValue" : 0.0,
                                    "interp" : "linr"
                                  },
                                  "cursorOpacity" : {
                                    "type" : "double",
                                    "defaultValue" : 0.0,
                                    "interp" : "linr"
                                  }
                                },
                                "effects" : [

                                ],
                                "start" : 7861,
                                "duration" : 61,
                                "mediaStart" : 11574,
                                "mediaDuration" : 61,
                                "scalar" : 1,
                                "animationTracks" : {

                                }
                              },
                          "audio" : 
                              {
                                "id" : 639,
                                "_type" : "AMFile",
                                "src" : 1,
                                "trackNumber" : 1,
                                "attributes" : {
                                  "ident" : "",
                                  "gain" : 1.0,
                                  "mixToMono" : false
                                },
                                  "channelNumber" : "0,1",
                                "effects" : [

                                ],
                                "start" : 7861,
                                "duration" : 61,
                                "mediaStart" : 11574,
                                "mediaDuration" : 61,
                                "scalar" : 1,
                                "animationTracks" : {

                                }
                              }
,
                          "start" : 7861,
                          "duration" : 61,
                          "mediaStart" : 0,
                          "mediaDuration" : 13486,
                          "scalar" : 1,
                          "metadata" : {
                            "AutoAppliedSmartFocus" : "False",
                            "clipSpeedAttribute" : false
                          }
                        },
                        {
                          "id" : 640,
                          "_type" : "UnifiedMedia",
                          "video" : 
                              {
                                "id" : 641,
                                "_type" : "ScreenVMFile",
                                "src" : 1,
                                "trackNumber" : 0,
                                "attributes" : {
                                  "ident" : "Rec 01-18-21"
                                },
                                "parameters" : {
                                  "cursorScale" : {
                                    "type" : "double",
                                    "defaultValue" : 0.0,
                                    "interp" : "linr"
                                  },
                                  "cursorOpacity" : {
                                    "type" : "double",
                                    "defaultValue" : 0.0,
                                    "interp" : "linr"
                                  }
                                },
                                "effects" : [

                                ],
                                "start" : 7922,
                                "duration" : 27,
                                "mediaStart" : 11650,
                                "mediaDuration" : 27,
                                "scalar" : 1,
                                "animationTracks" : {

                                }
                              },
                          "audio" : 
                              {
                                "id" : 642,
                                "_type" : "AMFile",
                                "src" : 1,
                                "trackNumber" : 1,
                                "attributes" : {
                                  "ident" : "",
                                  "gain" : 1.0,
                                  "mixToMono" : false
                                },
                                  "channelNumber" : "0,1",
                                "effects" : [

                                ],
                                "start" : 7922,
                                "duration" : 27,
                                "mediaStart" : 11650,
                                "mediaDuration" : 27,
                                "scalar" : 1,
                                "animationTracks" : {

                                }
                              }
,
                          "start" : 7922,
                          "duration" : 27,
                          "mediaStart" : 0,
                          "mediaDuration" : 13486,
                          "scalar" : 1,
                          "metadata" : {
                            "AutoAppliedSmartFocus" : "False",
                            "clipSpeedAttribute" : false
                          }
                        },
                        {
                          "id" : 643,
                          "_type" : "UnifiedMedia",
                          "video" : 
                              {
                                "id" : 644,
                                "_type" : "ScreenVMFile",
                                "src" : 1,
                                "trackNumber" : 0,
                                "attributes" : {
                                  "ident" : "Rec 01-18-21"
                                },
                                "parameters" : {
                                  "cursorScale" : {
                                    "type" : "double",
                                    "defaultValue" : 0.0,
                                    "interp" : "linr"
                                  },
                                  "cursorOpacity" : {
                                    "type" : "double",
                                    "defaultValue" : 0.0,
                                    "interp" : "linr"
                                  }
                                },
                                "effects" : [

                                ],
                                "start" : 7949,
                                "duration" : 105,
                                "mediaStart" : 11691,
                                "mediaDuration" : 105,
                                "scalar" : 1,
                                "animationTracks" : {

                                }
                              },
                          "audio" : 
                              {
                                "id" : 645,
                                "_type" : "AMFile",
                                "src" : 1,
                                "trackNumber" : 1,
                                "attributes" : {
                                  "ident" : "",
                                  "gain" : 1.0,
                                  "mixToMono" : false
                                },
                                  "channelNumber" : "0,1",
                                "effects" : [

                                ],
                                "start" : 7949,
                                "duration" : 105,
                                "mediaStart" : 11691,
                                "mediaDuration" : 105,
                                "scalar" : 1,
                                "animationTracks" : {

                                }
                              }
,
                          "start" : 7949,
                          "duration" : 105,
                          "mediaStart" : 0,
                          "mediaDuration" : 13486,
                          "scalar" : 1,
                          "metadata" : {
                            "AutoAppliedSmartFocus" : "False",
                            "clipSpeedAttribute" : false
                          }
                        },
                        {
                          "id" : 646,
                          "_type" : "UnifiedMedia",
                          "video" : 
                              {
                                "id" : 647,
                                "_type" : "ScreenVMFile",
                                "src" : 1,
                                "trackNumber" : 0,
                                "attributes" : {
                                  "ident" : "Rec 01-18-21"
                                },
                                "parameters" : {
                                  "cursorScale" : {
                                    "type" : "double",
                                    "defaultValue" : 0.0,
                                    "interp" : "linr"
                                  },
                                  "cursorOpacity" : {
                                    "type" : "double",
                                    "defaultValue" : 0.0,
                                    "interp" : "linr"
                                  }
                                },
                                "effects" : [

                                ],
                                "start" : 8054,
                                "duration" : 76,
                                "mediaStart" : 11807,
                                "mediaDuration" : 76,
                                "scalar" : 1,
                                "animationTracks" : {

                                }
                              },
                          "audio" : 
                              {
                                "id" : 648,
                                "_type" : "AMFile",
                                "src" : 1,
                                "trackNumber" : 1,
                                "attributes" : {
                                  "ident" : "",
                                  "gain" : 1.0,
                                  "mixToMono" : false
                                },
                                  "channelNumber" : "0,1",
                                "effects" : [

                                ],
                                "start" : 8054,
                                "duration" : 76,
                                "mediaStart" : 11807,
                                "mediaDuration" : 76,
                                "scalar" : 1,
                                "animationTracks" : {

                                }
                              }
,
                          "start" : 8054,
                          "duration" : 76,
                          "mediaStart" : 0,
                          "mediaDuration" : 13486,
                          "scalar" : 1,
                          "metadata" : {
                            "AutoAppliedSmartFocus" : "False",
                            "clipSpeedAttribute" : false
                          }
                        },
                        {
                          "id" : 649,
                          "_type" : "UnifiedMedia",
                          "video" : 
                              {
                                "id" : 650,
                                "_type" : "ScreenVMFile",
                                "src" : 1,
                                "trackNumber" : 0,
                                "attributes" : {
                                  "ident" : "Rec 01-18-21"
                                },
                                "parameters" : {
                                  "cursorScale" : {
                                    "type" : "double",
                                    "defaultValue" : 0.0,
                                    "interp" : "linr"
                                  },
                                  "cursorOpacity" : {
                                    "type" : "double",
                                    "defaultValue" : 0.0,
                                    "interp" : "linr"
                                  }
                                },
                                "effects" : [

                                ],
                                "start" : 8130,
                                "duration" : 204,
                                "mediaStart" : 11891,
                                "mediaDuration" : 204,
                                "scalar" : 1,
                                "animationTracks" : {

                                }
                              },
                          "audio" : 
                              {
                                "id" : 651,
                                "_type" : "AMFile",
                                "src" : 1,
                                "trackNumber" : 1,
                                "attributes" : {
                                  "ident" : "",
                                  "gain" : 1.0,
                                  "mixToMono" : false
                                },
                                  "channelNumber" : "0,1",
                                "effects" : [

                                ],
                                "start" : 8130,
                                "duration" : 204,
                                "mediaStart" : 11891,
                                "mediaDuration" : 204,
                                "scalar" : 1,
                                "animationTracks" : {

                                }
                              }
,
                          "start" : 8130,
                          "duration" : 204,
                          "mediaStart" : 0,
                          "mediaDuration" : 13486,
                          "scalar" : 1,
                          "metadata" : {
                            "AutoAppliedSmartFocus" : "False",
                            "clipSpeedAttribute" : false
                          }
                        },
                        {
                          "id" : 652,
                          "_type" : "UnifiedMedia",
                          "video" : 
                              {
                                "id" : 653,
                                "_type" : "ScreenVMFile",
                                "src" : 1,
                                "trackNumber" : 0,
                                "attributes" : {
                                  "ident" : "Rec 01-18-21"
                                },
                                "parameters" : {
                                  "cursorScale" : {
                                    "type" : "double",
                                    "defaultValue" : 0.0,
                                    "interp" : "linr"
                                  },
                                  "cursorOpacity" : {
                                    "type" : "double",
                                    "defaultValue" : 0.0,
                                    "interp" : "linr"
                                  }
                                },
                                "effects" : [

                                ],
                                "start" : 8334,
                                "duration" : 33,
                                "mediaStart" : 12113,
                                "mediaDuration" : 33,
                                "scalar" : 1,
                                "animationTracks" : {

                                }
                              },
                          "audio" : 
                              {
                                "id" : 654,
                                "_type" : "AMFile",
                                "src" : 1,
                                "trackNumber" : 1,
                                "attributes" : {
                                  "ident" : "",
                                  "gain" : 1.0,
                                  "mixToMono" : false
                                },
                                  "channelNumber" : "0,1",
                                "effects" : [

                                ],
                                "start" : 8334,
                                "duration" : 33,
                                "mediaStart" : 12113,
                                "mediaDuration" : 33,
                                "scalar" : 1,
                                "animationTracks" : {

                                }
                              }
,
                          "start" : 8334,
                          "duration" : 33,
                          "mediaStart" : 0,
                          "mediaDuration" : 13486,
                          "scalar" : 1,
                          "metadata" : {
                            "AutoAppliedSmartFocus" : "False",
                            "clipSpeedAttribute" : false
                          }
                        },
                        {
                          "id" : 655,
                          "_type" : "UnifiedMedia",
                          "video" : 
                              {
                                "id" : 656,
                                "_type" : "ScreenVMFile",
                                "src" : 1,
                                "trackNumber" : 0,
                                "attributes" : {
                                  "ident" : "Rec 01-18-21"
                                },
                                "parameters" : {
                                  "cursorScale" : {
                                    "type" : "double",
                                    "defaultValue" : 0.0,
                                    "interp" : "linr"
                                  },
                                  "cursorOpacity" : {
                                    "type" : "double",
                                    "defaultValue" : 0.0,
                                    "interp" : "linr"
                                  }
                                },
                                "effects" : [

                                ],
                                "start" : 8367,
                                "duration" : 1281,
                                "mediaStart" : 12205,
                                "mediaDuration" : 1281,
                                "scalar" : 1,
                                "animationTracks" : {

                                }
                              },
                          "audio" : 
                              {
                                "id" : 657,
                                "_type" : "AMFile",
                                "src" : 1,
                                "trackNumber" : 1,
                                "attributes" : {
                                  "ident" : "",
                                  "gain" : 1.0,
                                  "mixToMono" : false
                                },
                                  "channelNumber" : "0,1",
                                "effects" : [

                                ],
                                "start" : 8367,
                                "duration" : 1281,
                                "mediaStart" : 12205,
                                "mediaDuration" : 1281,
                                "scalar" : 1,
                                "animationTracks" : {

                                }
                              }
,
                          "start" : 8367,
                          "duration" : 1281,
                          "mediaStart" : 0,
                          "mediaDuration" : 13486,
                          "scalar" : 1,
                          "metadata" : {
                            "AutoAppliedSmartFocus" : "False",
                            "clipSpeedAttribute" : false
                          }
                        }
                    ],
                    "effects" : [

                    ],
                    "start" : 4328,
                    "duration" : 844,
                    "mediaStart" : 7624,
                    "mediaDuration" : 844,
                    "scalar" : 1,
                    "metadata" : {
                      "AutoAppliedSmartFocus" : "False",
                      "clipSpeedAttribute" : false
                    },
                    "animationTracks" : {

                    }
                  },
                  {
                    "id" : 658,
                    "_type" : "StitchedMedia",
                    "minMediaStart" : 0,
                    "attributes" : {
                      "ident" : "Rec 01-18-21",
                      "gain" : 1.0,
                      "mixToMono" : false
                    },
                    "parameters" : {
                      "volume" : 1.0,
                      "cursorOpacity" : 1.0,
                      "cursorScale" : 1.0
                    },
                    "medias" : [
                        {
                          "id" : 659,
                          "_type" : "UnifiedMedia",
                          "video" : 
                              {
                                "id" : 660,
                                "_type" : "ScreenVMFile",
                                "src" : 1,
                                "trackNumber" : 0,
                                "attributes" : {
                                  "ident" : "Rec 01-18-21"
                                },
                                "parameters" : {
                                  "cursorScale" : {
                                    "type" : "double",
                                    "defaultValue" : 0.0,
                                    "interp" : "linr"
                                  },
                                  "cursorOpacity" : {
                                    "type" : "double",
                                    "defaultValue" : 0.0,
                                    "interp" : "linr"
                                  }
                                },
                                "effects" : [

                                ],
                                "start" : 0,
                                "duration" : 300,
                                "mediaStart" : 0,
                                "mediaDuration" : 300,
                                "scalar" : 1,
                                "animationTracks" : {

                                }
                              },
                          "audio" : 
                              {
                                "id" : 661,
                                "_type" : "AMFile",
                                "src" : 1,
                                "trackNumber" : 1,
                                "attributes" : {
                                  "ident" : "",
                                  "gain" : 1.0,
                                  "mixToMono" : false
                                },
                                  "channelNumber" : "0,1",
                                "effects" : [

                                ],
                                "start" : 0,
                                "duration" : 300,
                                "mediaStart" : 0,
                                "mediaDuration" : 300,
                                "scalar" : 1,
                                "animationTracks" : {

                                }
                              }
,
                          "start" : 0,
                          "duration" : 300,
                          "mediaStart" : 0,
                          "mediaDuration" : 13486,
                          "scalar" : 1,
                          "metadata" : {
                            "AutoAppliedSmartFocus" : "False",
                            "clipSpeedAttribute" : false
                          }
                        },
                        {
                          "id" : 662,
                          "_type" : "UnifiedMedia",
                          "video" : 
                              {
                                "id" : 663,
                                "_type" : "ScreenVMFile",
                                "src" : 1,
                                "trackNumber" : 0,
                                "attributes" : {
                                  "ident" : "Rec 01-18-21"
                                },
                                "parameters" : {
                                  "cursorScale" : {
                                    "type" : "double",
                                    "defaultValue" : 0.0,
                                    "interp" : "linr"
                                  },
                                  "cursorOpacity" : {
                                    "type" : "double",
                                    "defaultValue" : 0.0,
                                    "interp" : "linr"
                                  }
                                },
                                "effects" : [

                                ],
                                "start" : 300,
                                "duration" : 52,
                                "mediaStart" : 313,
                                "mediaDuration" : 52,
                                "scalar" : 1,
                                "animationTracks" : {

                                }
                              },
                          "audio" : 
                              {
                                "id" : 664,
                                "_type" : "AMFile",
                                "src" : 1,
                                "trackNumber" : 1,
                                "attributes" : {
                                  "ident" : "",
                                  "gain" : 1.0,
                                  "mixToMono" : false
                                },
                                  "channelNumber" : "0,1",
                                "effects" : [

                                ],
                                "start" : 300,
                                "duration" : 52,
                                "mediaStart" : 313,
                                "mediaDuration" : 52,
                                "scalar" : 1,
                                "animationTracks" : {

                                }
                              }
,
                          "start" : 300,
                          "duration" : 52,
                          "mediaStart" : 0,
                          "mediaDuration" : 13486,
                          "scalar" : 1,
                          "metadata" : {
                            "AutoAppliedSmartFocus" : "False",
                            "clipSpeedAttribute" : false
                          }
                        },
                        {
                          "id" : 665,
                          "_type" : "UnifiedMedia",
                          "video" : 
                              {
                                "id" : 666,
                                "_type" : "ScreenVMFile",
                                "src" : 1,
                                "trackNumber" : 0,
                                "attributes" : {
                                  "ident" : "Rec 01-18-21"
                                },
                                "parameters" : {
                                  "cursorScale" : {
                                    "type" : "double",
                                    "defaultValue" : 0.0,
                                    "interp" : "linr"
                                  },
                                  "cursorOpacity" : {
                                    "type" : "double",
                                    "defaultValue" : 0.0,
                                    "interp" : "linr"
                                  }
                                },
                                "effects" : [

                                ],
                                "start" : 352,
                                "duration" : 63,
                                "mediaStart" : 439,
                                "mediaDuration" : 63,
                                "scalar" : 1,
                                "animationTracks" : {

                                }
                              },
                          "audio" : 
                              {
                                "id" : 667,
                                "_type" : "AMFile",
                                "src" : 1,
                                "trackNumber" : 1,
                                "attributes" : {
                                  "ident" : "",
                                  "gain" : 1.0,
                                  "mixToMono" : false
                                },
                                  "channelNumber" : "0,1",
                                "effects" : [

                                ],
                                "start" : 352,
                                "duration" : 63,
                                "mediaStart" : 439,
                                "mediaDuration" : 63,
                                "scalar" : 1,
                                "animationTracks" : {

                                }
                              }
,
                          "start" : 352,
                          "duration" : 63,
                          "mediaStart" : 0,
                          "mediaDuration" : 13486,
                          "scalar" : 1,
                          "metadata" : {
                            "AutoAppliedSmartFocus" : "False",
                            "clipSpeedAttribute" : false
                          }
                        },
                        {
                          "id" : 668,
                          "_type" : "UnifiedMedia",
                          "video" : 
                              {
                                "id" : 669,
                                "_type" : "ScreenVMFile",
                                "src" : 1,
                                "trackNumber" : 0,
                                "attributes" : {
                                  "ident" : "Rec 01-18-21"
                                },
                                "parameters" : {
                                  "cursorScale" : {
                                    "type" : "double",
                                    "defaultValue" : 0.0,
                                    "interp" : "linr"
                                  },
                                  "cursorOpacity" : {
                                    "type" : "double",
                                    "defaultValue" : 0.0,
                                    "interp" : "linr"
                                  }
                                },
                                "effects" : [

                                ],
                                "start" : 415,
                                "duration" : 17,
                                "mediaStart" : 573,
                                "mediaDuration" : 17,
                                "scalar" : 1,
                                "animationTracks" : {

                                }
                              },
                          "audio" : 
                              {
                                "id" : 670,
                                "_type" : "AMFile",
                                "src" : 1,
                                "trackNumber" : 1,
                                "attributes" : {
                                  "ident" : "",
                                  "gain" : 1.0,
                                  "mixToMono" : false
                                },
                                  "channelNumber" : "0,1",
                                "effects" : [

                                ],
                                "start" : 415,
                                "duration" : 17,
                                "mediaStart" : 573,
                                "mediaDuration" : 17,
                                "scalar" : 1,
                                "animationTracks" : {

                                }
                              }
,
                          "start" : 415,
                          "duration" : 17,
                          "mediaStart" : 0,
                          "mediaDuration" : 13486,
                          "scalar" : 1,
                          "metadata" : {
                            "AutoAppliedSmartFocus" : "False",
                            "clipSpeedAttribute" : false
                          }
                        },
                        {
                          "id" : 671,
                          "_type" : "UnifiedMedia",
                          "video" : 
                              {
                                "id" : 672,
                                "_type" : "ScreenVMFile",
                                "src" : 1,
                                "trackNumber" : 0,
                                "attributes" : {
                                  "ident" : "Rec 01-18-21"
                                },
                                "parameters" : {
                                  "cursorScale" : {
                                    "type" : "double",
                                    "defaultValue" : 0.0,
                                    "interp" : "linr"
                                  },
                                  "cursorOpacity" : {
                                    "type" : "double",
                                    "defaultValue" : 0.0,
                                    "interp" : "linr"
                                  }
                                },
                                "effects" : [

                                ],
                                "start" : 432,
                                "duration" : 23,
                                "mediaStart" : 597,
                                "mediaDuration" : 23,
                                "scalar" : 1,
                                "animationTracks" : {

                                }
                              },
                          "audio" : 
                              {
                                "id" : 673,
                                "_type" : "AMFile",
                                "src" : 1,
                                "trackNumber" : 1,
                                "attributes" : {
                                  "ident" : "",
                                  "gain" : 1.0,
                                  "mixToMono" : false
                                },
                                  "channelNumber" : "0,1",
                                "effects" : [

                                ],
                                "start" : 432,
                                "duration" : 23,
                                "mediaStart" : 597,
                                "mediaDuration" : 23,
                                "scalar" : 1,
                                "animationTracks" : {

                                }
                              }
,
                          "start" : 432,
                          "duration" : 23,
                          "mediaStart" : 0,
                          "mediaDuration" : 13486,
                          "scalar" : 1,
                          "metadata" : {
                            "AutoAppliedSmartFocus" : "False",
                            "clipSpeedAttribute" : false
                          }
                        },
                        {
                          "id" : 674,
                          "_type" : "UnifiedMedia",
                          "video" : 
                              {
                                "id" : 675,
                                "_type" : "ScreenVMFile",
                                "src" : 1,
                                "trackNumber" : 0,
                                "attributes" : {
                                  "ident" : "Rec 01-18-21"
                                },
                                "parameters" : {
                                  "cursorScale" : {
                                    "type" : "double",
                                    "defaultValue" : 0.0,
                                    "interp" : "linr"
                                  },
                                  "cursorOpacity" : {
                                    "type" : "double",
                                    "defaultValue" : 0.0,
                                    "interp" : "linr"
                                  }
                                },
                                "effects" : [

                                ],
                                "start" : 455,
                                "duration" : 49,
                                "mediaStart" : 627,
                                "mediaDuration" : 49,
                                "scalar" : 1,
                                "animationTracks" : {

                                }
                              },
                          "audio" : 
                              {
                                "id" : 676,
                                "_type" : "AMFile",
                                "src" : 1,
                                "trackNumber" : 1,
                                "attributes" : {
                                  "ident" : "",
                                  "gain" : 1.0,
                                  "mixToMono" : false
                                },
                                  "channelNumber" : "0,1",
                                "effects" : [

                                ],
                                "start" : 455,
                                "duration" : 49,
                                "mediaStart" : 627,
                                "mediaDuration" : 49,
                                "scalar" : 1,
                                "animationTracks" : {

                                }
                              }
,
                          "start" : 455,
                          "duration" : 49,
                          "mediaStart" : 0,
                          "mediaDuration" : 13486,
                          "scalar" : 1,
                          "metadata" : {
                            "AutoAppliedSmartFocus" : "False",
                            "clipSpeedAttribute" : false
                          }
                        },
                        {
                          "id" : 677,
                          "_type" : "UnifiedMedia",
                          "video" : 
                              {
                                "id" : 678,
                                "_type" : "ScreenVMFile",
                                "src" : 1,
                                "trackNumber" : 0,
                                "attributes" : {
                                  "ident" : "Rec 01-18-21"
                                },
                                "parameters" : {
                                  "cursorScale" : {
                                    "type" : "double",
                                    "defaultValue" : 0.0,
                                    "interp" : "linr"
                                  },
                                  "cursorOpacity" : {
                                    "type" : "double",
                                    "defaultValue" : 0.0,
                                    "interp" : "linr"
                                  }
                                },
                                "effects" : [

                                ],
                                "start" : 504,
                                "duration" : 435,
                                "mediaStart" : 820,
                                "mediaDuration" : 435,
                                "scalar" : 1,
                                "animationTracks" : {

                                }
                              },
                          "audio" : 
                              {
                                "id" : 679,
                                "_type" : "AMFile",
                                "src" : 1,
                                "trackNumber" : 1,
                                "attributes" : {
                                  "ident" : "",
                                  "gain" : 1.0,
                                  "mixToMono" : false
                                },
                                  "channelNumber" : "0,1",
                                "effects" : [

                                ],
                                "start" : 504,
                                "duration" : 435,
                                "mediaStart" : 820,
                                "mediaDuration" : 435,
                                "scalar" : 1,
                                "animationTracks" : {

                                }
                              }
,
                          "start" : 504,
                          "duration" : 435,
                          "mediaStart" : 0,
                          "mediaDuration" : 13486,
                          "scalar" : 1,
                          "metadata" : {
                            "AutoAppliedSmartFocus" : "False",
                            "clipSpeedAttribute" : false
                          }
                        },
                        {
                          "id" : 680,
                          "_type" : "UnifiedMedia",
                          "video" : 
                              {
                                "id" : 681,
                                "_type" : "ScreenVMFile",
                                "src" : 1,
                                "trackNumber" : 0,
                                "attributes" : {
                                  "ident" : "Rec 01-18-21"
                                },
                                "parameters" : {
                                  "cursorScale" : {
                                    "type" : "double",
                                    "defaultValue" : 0.0,
                                    "interp" : "linr"
                                  },
                                  "cursorOpacity" : {
                                    "type" : "double",
                                    "defaultValue" : 0.0,
                                    "interp" : "linr"
                                  }
                                },
                                "effects" : [

                                ],
                                "start" : 939,
                                "duration" : 21,
                                "mediaStart" : 1268,
                                "mediaDuration" : 21,
                                "scalar" : 1,
                                "animationTracks" : {

                                }
                              },
                          "audio" : 
                              {
                                "id" : 682,
                                "_type" : "AMFile",
                                "src" : 1,
                                "trackNumber" : 1,
                                "attributes" : {
                                  "ident" : "",
                                  "gain" : 1.0,
                                  "mixToMono" : false
                                },
                                  "channelNumber" : "0,1",
                                "effects" : [

                                ],
                                "start" : 939,
                                "duration" : 21,
                                "mediaStart" : 1268,
                                "mediaDuration" : 21,
                                "scalar" : 1,
                                "animationTracks" : {

                                }
                              }
,
                          "start" : 939,
                          "duration" : 21,
                          "mediaStart" : 0,
                          "mediaDuration" : 13486,
                          "scalar" : 1,
                          "metadata" : {
                            "AutoAppliedSmartFocus" : "False",
                            "clipSpeedAttribute" : false
                          }
                        },
                        {
                          "id" : 683,
                          "_type" : "UnifiedMedia",
                          "video" : 
                              {
                                "id" : 684,
                                "_type" : "ScreenVMFile",
                                "src" : 1,
                                "trackNumber" : 0,
                                "attributes" : {
                                  "ident" : "Rec 01-18-21"
                                },
                                "parameters" : {
                                  "cursorScale" : {
                                    "type" : "double",
                                    "defaultValue" : 0.0,
                                    "interp" : "linr"
                                  },
                                  "cursorOpacity" : {
                                    "type" : "double",
                                    "defaultValue" : 0.0,
                                    "interp" : "linr"
                                  }
                                },
                                "effects" : [

                                ],
                                "start" : 960,
                                "duration" : 68,
                                "mediaStart" : 1296,
                                "mediaDuration" : 68,
                                "scalar" : 1,
                                "animationTracks" : {

                                }
                              },
                          "audio" : 
                              {
                                "id" : 685,
                                "_type" : "AMFile",
                                "src" : 1,
                                "trackNumber" : 1,
                                "attributes" : {
                                  "ident" : "",
                                  "gain" : 1.0,
                                  "mixToMono" : false
                                },
                                  "channelNumber" : "0,1",
                                "effects" : [

                                ],
                                "start" : 960,
                                "duration" : 68,
                                "mediaStart" : 1296,
                                "mediaDuration" : 68,
                                "scalar" : 1,
                                "animationTracks" : {

                                }
                              }
,
                          "start" : 960,
                          "duration" : 68,
                          "mediaStart" : 0,
                          "mediaDuration" : 13486,
                          "scalar" : 1,
                          "metadata" : {
                            "AutoAppliedSmartFocus" : "False",
                            "clipSpeedAttribute" : false
                          }
                        },
                        {
                          "id" : 686,
                          "_type" : "UnifiedMedia",
                          "video" : 
                              {
                                "id" : 687,
                                "_type" : "ScreenVMFile",
                                "src" : 1,
                                "trackNumber" : 0,
                                "attributes" : {
                                  "ident" : "Rec 01-18-21"
                                },
                                "parameters" : {
                                  "cursorScale" : {
                                    "type" : "double",
                                    "defaultValue" : 0.0,
                                    "interp" : "linr"
                                  },
                                  "cursorOpacity" : {
                                    "type" : "double",
                                    "defaultValue" : 0.0,
                                    "interp" : "linr"
                                  }
                                },
                                "effects" : [

                                ],
                                "start" : 1028,
                                "duration" : 97,
                                "mediaStart" : 1774,
                                "mediaDuration" : 97,
                                "scalar" : 1,
                                "animationTracks" : {

                                }
                              },
                          "audio" : 
                              {
                                "id" : 688,
                                "_type" : "AMFile",
                                "src" : 1,
                                "trackNumber" : 1,
                                "attributes" : {
                                  "ident" : "",
                                  "gain" : 1.0,
                                  "mixToMono" : false
                                },
                                  "channelNumber" : "0,1",
                                "effects" : [

                                ],
                                "start" : 1028,
                                "duration" : 97,
                                "mediaStart" : 1774,
                                "mediaDuration" : 97,
                                "scalar" : 1,
                                "animationTracks" : {

                                }
                              }
,
                          "start" : 1028,
                          "duration" : 97,
                          "mediaStart" : 0,
                          "mediaDuration" : 13486,
                          "scalar" : 1,
                          "metadata" : {
                            "AutoAppliedSmartFocus" : "False",
                            "clipSpeedAttribute" : false
                          }
                        },
                        {
                          "id" : 689,
                          "_type" : "UnifiedMedia",
                          "video" : 
                              {
                                "id" : 690,
                                "_type" : "ScreenVMFile",
                                "src" : 1,
                                "trackNumber" : 0,
                                "attributes" : {
                                  "ident" : "Rec 01-18-21"
                                },
                                "parameters" : {
                                  "cursorScale" : {
                                    "type" : "double",
                                    "defaultValue" : 0.0,
                                    "interp" : "linr"
                                  },
                                  "cursorOpacity" : {
                                    "type" : "double",
                                    "defaultValue" : 0.0,
                                    "interp" : "linr"
                                  }
                                },
                                "effects" : [

                                ],
                                "start" : 1125,
                                "duration" : 40,
                                "mediaStart" : 1903,
                                "mediaDuration" : 40,
                                "scalar" : 1,
                                "animationTracks" : {

                                }
                              },
                          "audio" : 
                              {
                                "id" : 691,
                                "_type" : "AMFile",
                                "src" : 1,
                                "trackNumber" : 1,
                                "attributes" : {
                                  "ident" : "",
                                  "gain" : 1.0,
                                  "mixToMono" : false
                                },
                                  "channelNumber" : "0,1",
                                "effects" : [

                                ],
                                "start" : 1125,
                                "duration" : 40,
                                "mediaStart" : 1903,
                                "mediaDuration" : 40,
                                "scalar" : 1,
                                "animationTracks" : {

                                }
                              }
,
                          "start" : 1125,
                          "duration" : 40,
                          "mediaStart" : 0,
                          "mediaDuration" : 13486,
                          "scalar" : 1,
                          "metadata" : {
                            "AutoAppliedSmartFocus" : "False",
                            "clipSpeedAttribute" : false
                          }
                        },
                        {
                          "id" : 692,
                          "_type" : "UnifiedMedia",
                          "video" : 
                              {
                                "id" : 693,
                                "_type" : "ScreenVMFile",
                                "src" : 1,
                                "trackNumber" : 0,
                                "attributes" : {
                                  "ident" : "Rec 01-18-21"
                                },
                                "parameters" : {
                                  "cursorScale" : {
                                    "type" : "double",
                                    "defaultValue" : 0.0,
                                    "interp" : "linr"
                                  },
                                  "cursorOpacity" : {
                                    "type" : "double",
                                    "defaultValue" : 0.0,
                                    "interp" : "linr"
                                  }
                                },
                                "effects" : [

                                ],
                                "start" : 1165,
                                "duration" : 14,
                                "mediaStart" : 1954,
                                "mediaDuration" : 14,
                                "scalar" : 1,
                                "animationTracks" : {

                                }
                              },
                          "audio" : 
                              {
                                "id" : 694,
                                "_type" : "AMFile",
                                "src" : 1,
                                "trackNumber" : 1,
                                "attributes" : {
                                  "ident" : "",
                                  "gain" : 1.0,
                                  "mixToMono" : false
                                },
                                  "channelNumber" : "0,1",
                                "effects" : [

                                ],
                                "start" : 1165,
                                "duration" : 14,
                                "mediaStart" : 1954,
                                "mediaDuration" : 14,
                                "scalar" : 1,
                                "animationTracks" : {

                                }
                              }
,
                          "start" : 1165,
                          "duration" : 14,
                          "mediaStart" : 0,
                          "mediaDuration" : 13486,
                          "scalar" : 1,
                          "metadata" : {
                            "AutoAppliedSmartFocus" : "False",
                            "clipSpeedAttribute" : false
                          }
                        },
                        {
                          "id" : 695,
                          "_type" : "UnifiedMedia",
                          "video" : 
                              {
                                "id" : 696,
                                "_type" : "ScreenVMFile",
                                "src" : 1,
                                "trackNumber" : 0,
                                "attributes" : {
                                  "ident" : "Rec 01-18-21"
                                },
                                "parameters" : {
                                  "cursorScale" : {
                                    "type" : "double",
                                    "defaultValue" : 0.0,
                                    "interp" : "linr"
                                  },
                                  "cursorOpacity" : {
                                    "type" : "double",
                                    "defaultValue" : 0.0,
                                    "interp" : "linr"
                                  }
                                },
                                "effects" : [

                                ],
                                "start" : 1179,
                                "duration" : 670,
                                "mediaStart" : 1982,
                                "mediaDuration" : 670,
                                "scalar" : 1,
                                "animationTracks" : {

                                }
                              },
                          "audio" : 
                              {
                                "id" : 697,
                                "_type" : "AMFile",
                                "src" : 1,
                                "trackNumber" : 1,
                                "attributes" : {
                                  "ident" : "",
                                  "gain" : 1.0,
                                  "mixToMono" : false
                                },
                                  "channelNumber" : "0,1",
                                "effects" : [

                                ],
                                "start" : 1179,
                                "duration" : 670,
                                "mediaStart" : 1982,
                                "mediaDuration" : 670,
                                "scalar" : 1,
                                "animationTracks" : {

                                }
                              }
,
                          "start" : 1179,
                          "duration" : 670,
                          "mediaStart" : 0,
                          "mediaDuration" : 13486,
                          "scalar" : 1,
                          "metadata" : {
                            "AutoAppliedSmartFocus" : "False",
                            "clipSpeedAttribute" : false
                          }
                        },
                        {
                          "id" : 698,
                          "_type" : "UnifiedMedia",
                          "video" : 
                              {
                                "id" : 699,
                                "_type" : "ScreenVMFile",
                                "src" : 1,
                                "trackNumber" : 0,
                                "attributes" : {
                                  "ident" : "Rec 01-18-21"
                                },
                                "parameters" : {
                                  "cursorScale" : {
                                    "type" : "double",
                                    "defaultValue" : 0.0,
                                    "interp" : "linr"
                                  },
                                  "cursorOpacity" : {
                                    "type" : "double",
                                    "defaultValue" : 0.0,
                                    "interp" : "linr"
                                  }
                                },
                                "effects" : [

                                ],
                                "start" : 1849,
                                "duration" : 166,
                                "mediaStart" : 2666,
                                "mediaDuration" : 166,
                                "scalar" : 1,
                                "animationTracks" : {

                                }
                              },
                          "audio" : 
                              {
                                "id" : 700,
                                "_type" : "AMFile",
                                "src" : 1,
                                "trackNumber" : 1,
                                "attributes" : {
                                  "ident" : "",
                                  "gain" : 1.0,
                                  "mixToMono" : false
                                },
                                  "channelNumber" : "0,1",
                                "effects" : [

                                ],
                                "start" : 1849,
                                "duration" : 166,
                                "mediaStart" : 2666,
                                "mediaDuration" : 166,
                                "scalar" : 1,
                                "animationTracks" : {

                                }
                              }
,
                          "start" : 1849,
                          "duration" : 166,
                          "mediaStart" : 0,
                          "mediaDuration" : 13486,
                          "scalar" : 1,
                          "metadata" : {
                            "AutoAppliedSmartFocus" : "False",
                            "clipSpeedAttribute" : false
                          }
                        },
                        {
                          "id" : 701,
                          "_type" : "UnifiedMedia",
                          "video" : 
                              {
                                "id" : 702,
                                "_type" : "ScreenVMFile",
                                "src" : 1,
                                "trackNumber" : 0,
                                "attributes" : {
                                  "ident" : "Rec 01-18-21"
                                },
                                "parameters" : {
                                  "cursorScale" : {
                                    "type" : "double",
                                    "defaultValue" : 0.0,
                                    "interp" : "linr"
                                  },
                                  "cursorOpacity" : {
                                    "type" : "double",
                                    "defaultValue" : 0.0,
                                    "interp" : "linr"
                                  }
                                },
                                "effects" : [

                                ],
                                "start" : 2015,
                                "duration" : 276,
                                "mediaStart" : 3131,
                                "mediaDuration" : 276,
                                "scalar" : 1,
                                "animationTracks" : {

                                }
                              },
                          "audio" : 
                              {
                                "id" : 703,
                                "_type" : "AMFile",
                                "src" : 1,
                                "trackNumber" : 1,
                                "attributes" : {
                                  "ident" : "",
                                  "gain" : 1.0,
                                  "mixToMono" : false
                                },
                                  "channelNumber" : "0,1",
                                "effects" : [

                                ],
                                "start" : 2015,
                                "duration" : 276,
                                "mediaStart" : 3131,
                                "mediaDuration" : 276,
                                "scalar" : 1,
                                "animationTracks" : {

                                }
                              }
,
                          "start" : 2015,
                          "duration" : 276,
                          "mediaStart" : 0,
                          "mediaDuration" : 13486,
                          "scalar" : 1,
                          "metadata" : {
                            "AutoAppliedSmartFocus" : "False",
                            "clipSpeedAttribute" : false
                          }
                        },
                        {
                          "id" : 704,
                          "_type" : "UnifiedMedia",
                          "video" : 
                              {
                                "id" : 705,
                                "_type" : "ScreenVMFile",
                                "src" : 1,
                                "trackNumber" : 0,
                                "attributes" : {
                                  "ident" : "Rec 01-18-21"
                                },
                                "parameters" : {
                                  "cursorScale" : {
                                    "type" : "double",
                                    "defaultValue" : 0.0,
                                    "interp" : "linr"
                                  },
                                  "cursorOpacity" : {
                                    "type" : "double",
                                    "defaultValue" : 0.0,
                                    "interp" : "linr"
                                  }
                                },
                                "effects" : [

                                ],
                                "start" : 2291,
                                "duration" : 34,
                                "mediaStart" : 3433,
                                "mediaDuration" : 34,
                                "scalar" : 1,
                                "animationTracks" : {

                                }
                              },
                          "audio" : 
                              {
                                "id" : 706,
                                "_type" : "AMFile",
                                "src" : 1,
                                "trackNumber" : 1,
                                "attributes" : {
                                  "ident" : "",
                                  "gain" : 1.0,
                                  "mixToMono" : false
                                },
                                  "channelNumber" : "0,1",
                                "effects" : [

                                ],
                                "start" : 2291,
                                "duration" : 34,
                                "mediaStart" : 3433,
                                "mediaDuration" : 34,
                                "scalar" : 1,
                                "animationTracks" : {

                                }
                              }
,
                          "start" : 2291,
                          "duration" : 34,
                          "mediaStart" : 0,
                          "mediaDuration" : 13486,
                          "scalar" : 1,
                          "metadata" : {
                            "AutoAppliedSmartFocus" : "False",
                            "clipSpeedAttribute" : false
                          }
                        },
                        {
                          "id" : 707,
                          "_type" : "UnifiedMedia",
                          "video" : 
                              {
                                "id" : 708,
                                "_type" : "ScreenVMFile",
                                "src" : 1,
                                "trackNumber" : 0,
                                "attributes" : {
                                  "ident" : "Rec 01-18-21"
                                },
                                "parameters" : {
                                  "cursorScale" : {
                                    "type" : "double",
                                    "defaultValue" : 0.0,
                                    "interp" : "linr"
                                  },
                                  "cursorOpacity" : {
                                    "type" : "double",
                                    "defaultValue" : 0.0,
                                    "interp" : "linr"
                                  }
                                },
                                "effects" : [

                                ],
                                "start" : 2325,
                                "duration" : 27,
                                "mediaStart" : 3486,
                                "mediaDuration" : 27,
                                "scalar" : 1,
                                "animationTracks" : {

                                }
                              },
                          "audio" : 
                              {
                                "id" : 709,
                                "_type" : "AMFile",
                                "src" : 1,
                                "trackNumber" : 1,
                                "attributes" : {
                                  "ident" : "",
                                  "gain" : 1.0,
                                  "mixToMono" : false
                                },
                                  "channelNumber" : "0,1",
                                "effects" : [

                                ],
                                "start" : 2325,
                                "duration" : 27,
                                "mediaStart" : 3486,
                                "mediaDuration" : 27,
                                "scalar" : 1,
                                "animationTracks" : {

                                }
                              }
,
                          "start" : 2325,
                          "duration" : 27,
                          "mediaStart" : 0,
                          "mediaDuration" : 13486,
                          "scalar" : 1,
                          "metadata" : {
                            "AutoAppliedSmartFocus" : "False",
                            "clipSpeedAttribute" : false
                          }
                        },
                        {
                          "id" : 710,
                          "_type" : "UnifiedMedia",
                          "video" : 
                              {
                                "id" : 711,
                                "_type" : "ScreenVMFile",
                                "src" : 1,
                                "trackNumber" : 0,
                                "attributes" : {
                                  "ident" : "Rec 01-18-21"
                                },
                                "parameters" : {
                                  "cursorScale" : {
                                    "type" : "double",
                                    "defaultValue" : 0.0,
                                    "interp" : "linr"
                                  },
                                  "cursorOpacity" : {
                                    "type" : "double",
                                    "defaultValue" : 0.0,
                                    "interp" : "linr"
                                  }
                                },
                                "effects" : [

                                ],
                                "start" : 2352,
                                "duration" : 507,
                                "mediaStart" : 3555,
                                "mediaDuration" : 507,
                                "scalar" : 1,
                                "animationTracks" : {

                                }
                              },
                          "audio" : 
                              {
                                "id" : 712,
                                "_type" : "AMFile",
                                "src" : 1,
                                "trackNumber" : 1,
                                "attributes" : {
                                  "ident" : "",
                                  "gain" : 1.0,
                                  "mixToMono" : false
                                },
                                  "channelNumber" : "0,1",
                                "effects" : [

                                ],
                                "start" : 2352,
                                "duration" : 507,
                                "mediaStart" : 3555,
                                "mediaDuration" : 507,
                                "scalar" : 1,
                                "animationTracks" : {

                                }
                              }
,
                          "start" : 2352,
                          "duration" : 507,
                          "mediaStart" : 0,
                          "mediaDuration" : 13486,
                          "scalar" : 1,
                          "metadata" : {
                            "AutoAppliedSmartFocus" : "False",
                            "clipSpeedAttribute" : false
                          }
                        },
                        {
                          "id" : 713,
                          "_type" : "UnifiedMedia",
                          "video" : 
                              {
                                "id" : 714,
                                "_type" : "ScreenVMFile",
                                "src" : 1,
                                "trackNumber" : 0,
                                "attributes" : {
                                  "ident" : "Rec 01-18-21"
                                },
                                "parameters" : {
                                  "cursorScale" : {
                                    "type" : "double",
                                    "defaultValue" : 0.0,
                                    "interp" : "linr"
                                  },
                                  "cursorOpacity" : {
                                    "type" : "double",
                                    "defaultValue" : 0.0,
                                    "interp" : "linr"
                                  }
                                },
                                "effects" : [

                                ],
                                "start" : 2859,
                                "duration" : 60,
                                "mediaStart" : 4295,
                                "mediaDuration" : 60,
                                "scalar" : 1,
                                "animationTracks" : {

                                }
                              },
                          "audio" : 
                              {
                                "id" : 715,
                                "_type" : "AMFile",
                                "src" : 1,
                                "trackNumber" : 1,
                                "attributes" : {
                                  "ident" : "",
                                  "gain" : 1.0,
                                  "mixToMono" : false
                                },
                                  "channelNumber" : "0,1",
                                "effects" : [

                                ],
                                "start" : 2859,
                                "duration" : 60,
                                "mediaStart" : 4295,
                                "mediaDuration" : 60,
                                "scalar" : 1,
                                "animationTracks" : {

                                }
                              }
,
                          "start" : 2859,
                          "duration" : 60,
                          "mediaStart" : 0,
                          "mediaDuration" : 13486,
                          "scalar" : 1,
                          "metadata" : {
                            "AutoAppliedSmartFocus" : "False",
                            "clipSpeedAttribute" : false
                          }
                        },
                        {
                          "id" : 716,
                          "_type" : "UnifiedMedia",
                          "video" : 
                              {
                                "id" : 717,
                                "_type" : "ScreenVMFile",
                                "src" : 1,
                                "trackNumber" : 0,
                                "attributes" : {
                                  "ident" : "Rec 01-18-21"
                                },
                                "parameters" : {
                                  "cursorScale" : {
                                    "type" : "double",
                                    "defaultValue" : 0.0,
                                    "interp" : "linr"
                                  },
                                  "cursorOpacity" : {
                                    "type" : "double",
                                    "defaultValue" : 0.0,
                                    "interp" : "linr"
                                  }
                                },
                                "effects" : [

                                ],
                                "start" : 2919,
                                "duration" : 175,
                                "mediaStart" : 4387,
                                "mediaDuration" : 175,
                                "scalar" : 1,
                                "animationTracks" : {

                                }
                              },
                          "audio" : 
                              {
                                "id" : 718,
                                "_type" : "AMFile",
                                "src" : 1,
                                "trackNumber" : 1,
                                "attributes" : {
                                  "ident" : "",
                                  "gain" : 1.0,
                                  "mixToMono" : false
                                },
                                  "channelNumber" : "0,1",
                                "effects" : [

                                ],
                                "start" : 2919,
                                "duration" : 175,
                                "mediaStart" : 4387,
                                "mediaDuration" : 175,
                                "scalar" : 1,
                                "animationTracks" : {

                                }
                              }
,
                          "start" : 2919,
                          "duration" : 175,
                          "mediaStart" : 0,
                          "mediaDuration" : 13486,
                          "scalar" : 1,
                          "metadata" : {
                            "AutoAppliedSmartFocus" : "False",
                            "clipSpeedAttribute" : false
                          }
                        },
                        {
                          "id" : 719,
                          "_type" : "UnifiedMedia",
                          "video" : 
                              {
                                "id" : 720,
                                "_type" : "ScreenVMFile",
                                "src" : 1,
                                "trackNumber" : 0,
                                "attributes" : {
                                  "ident" : "Rec 01-18-21"
                                },
                                "parameters" : {
                                  "cursorScale" : {
                                    "type" : "double",
                                    "defaultValue" : 0.0,
                                    "interp" : "linr"
                                  },
                                  "cursorOpacity" : {
                                    "type" : "double",
                                    "defaultValue" : 0.0,
                                    "interp" : "linr"
                                  }
                                },
                                "effects" : [

                                ],
                                "start" : 3094,
                                "duration" : 47,
                                "mediaStart" : 4584,
                                "mediaDuration" : 47,
                                "scalar" : 1,
                                "animationTracks" : {

                                }
                              },
                          "audio" : 
                              {
                                "id" : 721,
                                "_type" : "AMFile",
                                "src" : 1,
                                "trackNumber" : 1,
                                "attributes" : {
                                  "ident" : "",
                                  "gain" : 1.0,
                                  "mixToMono" : false
                                },
                                  "channelNumber" : "0,1",
                                "effects" : [

                                ],
                                "start" : 3094,
                                "duration" : 47,
                                "mediaStart" : 4584,
                                "mediaDuration" : 47,
                                "scalar" : 1,
                                "animationTracks" : {

                                }
                              }
,
                          "start" : 3094,
                          "duration" : 47,
                          "mediaStart" : 0,
                          "mediaDuration" : 13486,
                          "scalar" : 1,
                          "metadata" : {
                            "AutoAppliedSmartFocus" : "False",
                            "clipSpeedAttribute" : false
                          }
                        },
                        {
                          "id" : 722,
                          "_type" : "UnifiedMedia",
                          "video" : 
                              {
                                "id" : 723,
                                "_type" : "ScreenVMFile",
                                "src" : 1,
                                "trackNumber" : 0,
                                "attributes" : {
                                  "ident" : "Rec 01-18-21"
                                },
                                "parameters" : {
                                  "cursorScale" : {
                                    "type" : "double",
                                    "defaultValue" : 0.0,
                                    "interp" : "linr"
                                  },
                                  "cursorOpacity" : {
                                    "type" : "double",
                                    "defaultValue" : 0.0,
                                    "interp" : "linr"
                                  }
                                },
                                "effects" : [

                                ],
                                "start" : 3141,
                                "duration" : 108,
                                "mediaStart" : 4679,
                                "mediaDuration" : 108,
                                "scalar" : 1,
                                "animationTracks" : {

                                }
                              },
                          "audio" : 
                              {
                                "id" : 724,
                                "_type" : "AMFile",
                                "src" : 1,
                                "trackNumber" : 1,
                                "attributes" : {
                                  "ident" : "",
                                  "gain" : 1.0,
                                  "mixToMono" : false
                                },
                                  "channelNumber" : "0,1",
                                "effects" : [

                                ],
                                "start" : 3141,
                                "duration" : 108,
                                "mediaStart" : 4679,
                                "mediaDuration" : 108,
                                "scalar" : 1,
                                "animationTracks" : {

                                }
                              }
,
                          "start" : 3141,
                          "duration" : 108,
                          "mediaStart" : 0,
                          "mediaDuration" : 13486,
                          "scalar" : 1,
                          "metadata" : {
                            "AutoAppliedSmartFocus" : "False",
                            "clipSpeedAttribute" : false
                          }
                        },
                        {
                          "id" : 725,
                          "_type" : "UnifiedMedia",
                          "video" : 
                              {
                                "id" : 726,
                                "_type" : "ScreenVMFile",
                                "src" : 1,
                                "trackNumber" : 0,
                                "attributes" : {
                                  "ident" : "Rec 01-18-21"
                                },
                                "parameters" : {
                                  "cursorScale" : {
                                    "type" : "double",
                                    "defaultValue" : 0.0,
                                    "interp" : "linr"
                                  },
                                  "cursorOpacity" : {
                                    "type" : "double",
                                    "defaultValue" : 0.0,
                                    "interp" : "linr"
                                  }
                                },
                                "effects" : [

                                ],
                                "start" : 3249,
                                "duration" : 174,
                                "mediaStart" : 4842,
                                "mediaDuration" : 174,
                                "scalar" : 1,
                                "animationTracks" : {

                                }
                              },
                          "audio" : 
                              {
                                "id" : 727,
                                "_type" : "AMFile",
                                "src" : 1,
                                "trackNumber" : 1,
                                "attributes" : {
                                  "ident" : "",
                                  "gain" : 1.0,
                                  "mixToMono" : false
                                },
                                  "channelNumber" : "0,1",
                                "effects" : [

                                ],
                                "start" : 3249,
                                "duration" : 174,
                                "mediaStart" : 4842,
                                "mediaDuration" : 174,
                                "scalar" : 1,
                                "animationTracks" : {

                                }
                              }
,
                          "start" : 3249,
                          "duration" : 174,
                          "mediaStart" : 0,
                          "mediaDuration" : 13486,
                          "scalar" : 1,
                          "metadata" : {
                            "AutoAppliedSmartFocus" : "False",
                            "clipSpeedAttribute" : false
                          }
                        },
                        {
                          "id" : 728,
                          "_type" : "UnifiedMedia",
                          "video" : 
                              {
                                "id" : 729,
                                "_type" : "ScreenVMFile",
                                "src" : 1,
                                "trackNumber" : 0,
                                "attributes" : {
                                  "ident" : "Rec 01-18-21"
                                },
                                "parameters" : {
                                  "cursorScale" : {
                                    "type" : "double",
                                    "defaultValue" : 0.0,
                                    "interp" : "linr"
                                  },
                                  "cursorOpacity" : {
                                    "type" : "double",
                                    "defaultValue" : 0.0,
                                    "interp" : "linr"
                                  }
                                },
                                "effects" : [

                                ],
                                "start" : 3423,
                                "duration" : 49,
                                "mediaStart" : 5028,
                                "mediaDuration" : 49,
                                "scalar" : 1,
                                "animationTracks" : {

                                }
                              },
                          "audio" : 
                              {
                                "id" : 730,
                                "_type" : "AMFile",
                                "src" : 1,
                                "trackNumber" : 1,
                                "attributes" : {
                                  "ident" : "",
                                  "gain" : 1.0,
                                  "mixToMono" : false
                                },
                                  "channelNumber" : "0,1",
                                "effects" : [

                                ],
                                "start" : 3423,
                                "duration" : 49,
                                "mediaStart" : 5028,
                                "mediaDuration" : 49,
                                "scalar" : 1,
                                "animationTracks" : {

                                }
                              }
,
                          "start" : 3423,
                          "duration" : 49,
                          "mediaStart" : 0,
                          "mediaDuration" : 13486,
                          "scalar" : 1,
                          "metadata" : {
                            "AutoAppliedSmartFocus" : "False",
                            "clipSpeedAttribute" : false
                          }
                        },
                        {
                          "id" : 731,
                          "_type" : "UnifiedMedia",
                          "video" : 
                              {
                                "id" : 732,
                                "_type" : "ScreenVMFile",
                                "src" : 1,
                                "trackNumber" : 0,
                                "attributes" : {
                                  "ident" : "Rec 01-18-21"
                                },
                                "parameters" : {
                                  "cursorScale" : {
                                    "type" : "double",
                                    "defaultValue" : 0.0,
                                    "interp" : "linr"
                                  },
                                  "cursorOpacity" : {
                                    "type" : "double",
                                    "defaultValue" : 0.0,
                                    "interp" : "linr"
                                  }
                                },
                                "effects" : [

                                ],
                                "start" : 3472,
                                "duration" : 2312,
                                "mediaStart" : 5094,
                                "mediaDuration" : 2312,
                                "scalar" : 1,
                                "animationTracks" : {

                                }
                              },
                          "audio" : 
                              {
                                "id" : 733,
                                "_type" : "AMFile",
                                "src" : 1,
                                "trackNumber" : 1,
                                "attributes" : {
                                  "ident" : "",
                                  "gain" : 1.0,
                                  "mixToMono" : false
                                },
                                  "channelNumber" : "0,1",
                                "effects" : [

                                ],
                                "start" : 3472,
                                "duration" : 2312,
                                "mediaStart" : 5094,
                                "mediaDuration" : 2312,
                                "scalar" : 1,
                                "animationTracks" : {

                                }
                              }
,
                          "start" : 3472,
                          "duration" : 2312,
                          "mediaStart" : 0,
                          "mediaDuration" : 13486,
                          "scalar" : 1,
                          "metadata" : {
                            "AutoAppliedSmartFocus" : "False",
                            "clipSpeedAttribute" : false
                          }
                        },
                        {
                          "id" : 734,
                          "_type" : "UnifiedMedia",
                          "video" : 
                              {
                                "id" : 735,
                                "_type" : "ScreenVMFile",
                                "src" : 1,
                                "trackNumber" : 0,
                                "attributes" : {
                                  "ident" : "Rec 01-18-21"
                                },
                                "parameters" : {
                                  "cursorScale" : {
                                    "type" : "double",
                                    "defaultValue" : 0.0,
                                    "interp" : "linr"
                                  },
                                  "cursorOpacity" : {
                                    "type" : "double",
                                    "defaultValue" : 0.0,
                                    "interp" : "linr"
                                  }
                                },
                                "effects" : [

                                ],
                                "start" : 5784,
                                "duration" : 44,
                                "mediaStart" : 7469,
                                "mediaDuration" : 44,
                                "scalar" : 1,
                                "animationTracks" : {

                                }
                              },
                          "audio" : 
                              {
                                "id" : 736,
                                "_type" : "AMFile",
                                "src" : 1,
                                "trackNumber" : 1,
                                "attributes" : {
                                  "ident" : "",
                                  "gain" : 1.0,
                                  "mixToMono" : false
                                },
                                  "channelNumber" : "0,1",
                                "effects" : [

                                ],
                                "start" : 5784,
                                "duration" : 44,
                                "mediaStart" : 7469,
                                "mediaDuration" : 44,
                                "scalar" : 1,
                                "animationTracks" : {

                                }
                              }
,
                          "start" : 5784,
                          "duration" : 44,
                          "mediaStart" : 0,
                          "mediaDuration" : 13486,
                          "scalar" : 1,
                          "metadata" : {
                            "AutoAppliedSmartFocus" : "False",
                            "clipSpeedAttribute" : false
                          }
                        },
                        {
                          "id" : 737,
                          "_type" : "UnifiedMedia",
                          "video" : 
                              {
                                "id" : 738,
                                "_type" : "ScreenVMFile",
                                "src" : 1,
                                "trackNumber" : 0,
                                "attributes" : {
                                  "ident" : "Rec 01-18-21"
                                },
                                "parameters" : {
                                  "cursorScale" : {
                                    "type" : "double",
                                    "defaultValue" : 0.0,
                                    "interp" : "linr"
                                  },
                                  "cursorOpacity" : {
                                    "type" : "double",
                                    "defaultValue" : 0.0,
                                    "interp" : "linr"
                                  }
                                },
                                "effects" : [

                                ],
                                "start" : 5828,
                                "duration" : 49,
                                "mediaStart" : 7552,
                                "mediaDuration" : 49,
                                "scalar" : 1,
                                "animationTracks" : {

                                }
                              },
                          "audio" : 
                              {
                                "id" : 739,
                                "_type" : "AMFile",
                                "src" : 1,
                                "trackNumber" : 1,
                                "attributes" : {
                                  "ident" : "",
                                  "gain" : 1.0,
                                  "mixToMono" : false
                                },
                                  "channelNumber" : "0,1",
                                "effects" : [

                                ],
                                "start" : 5828,
                                "duration" : 49,
                                "mediaStart" : 7552,
                                "mediaDuration" : 49,
                                "scalar" : 1,
                                "animationTracks" : {

                                }
                              }
,
                          "start" : 5828,
                          "duration" : 49,
                          "mediaStart" : 0,
                          "mediaDuration" : 13486,
                          "scalar" : 1,
                          "metadata" : {
                            "AutoAppliedSmartFocus" : "False",
                            "clipSpeedAttribute" : false
                          }
                        },
                        {
                          "id" : 740,
                          "_type" : "UnifiedMedia",
                          "video" : 
                              {
                                "id" : 741,
                                "_type" : "ScreenVMFile",
                                "src" : 1,
                                "trackNumber" : 0,
                                "attributes" : {
                                  "ident" : "Rec 01-18-21"
                                },
                                "parameters" : {
                                  "cursorScale" : {
                                    "type" : "double",
                                    "defaultValue" : 0.0,
                                    "interp" : "linr"
                                  },
                                  "cursorOpacity" : {
                                    "type" : "double",
                                    "defaultValue" : 0.0,
                                    "interp" : "linr"
                                  }
                                },
                                "effects" : [

                                ],
                                "start" : 5877,
                                "duration" : 149,
                                "mediaStart" : 7784,
                                "mediaDuration" : 149,
                                "scalar" : 1,
                                "animationTracks" : {

                                }
                              },
                          "audio" : 
                              {
                                "id" : 742,
                                "_type" : "AMFile",
                                "src" : 1,
                                "trackNumber" : 1,
                                "attributes" : {
                                  "ident" : "",
                                  "gain" : 1.0,
                                  "mixToMono" : false
                                },
                                  "channelNumber" : "0,1",
                                "effects" : [

                                ],
                                "start" : 5877,
                                "duration" : 149,
                                "mediaStart" : 7784,
                                "mediaDuration" : 149,
                                "scalar" : 1,
                                "animationTracks" : {

                                }
                              }
,
                          "start" : 5877,
                          "duration" : 149,
                          "mediaStart" : 0,
                          "mediaDuration" : 13486,
                          "scalar" : 1,
                          "metadata" : {
                            "AutoAppliedSmartFocus" : "False",
                            "clipSpeedAttribute" : false
                          }
                        },
                        {
                          "id" : 743,
                          "_type" : "UnifiedMedia",
                          "video" : 
                              {
                                "id" : 744,
                                "_type" : "ScreenVMFile",
                                "src" : 1,
                                "trackNumber" : 0,
                                "attributes" : {
                                  "ident" : "Rec 01-18-21"
                                },
                                "parameters" : {
                                  "cursorScale" : {
                                    "type" : "double",
                                    "defaultValue" : 0.0,
                                    "interp" : "linr"
                                  },
                                  "cursorOpacity" : {
                                    "type" : "double",
                                    "defaultValue" : 0.0,
                                    "interp" : "linr"
                                  }
                                },
                                "effects" : [

                                ],
                                "start" : 6026,
                                "duration" : 128,
                                "mediaStart" : 7946,
                                "mediaDuration" : 128,
                                "scalar" : 1,
                                "animationTracks" : {

                                }
                              },
                          "audio" : 
                              {
                                "id" : 745,
                                "_type" : "AMFile",
                                "src" : 1,
                                "trackNumber" : 1,
                                "attributes" : {
                                  "ident" : "",
                                  "gain" : 1.0,
                                  "mixToMono" : false
                                },
                                  "channelNumber" : "0,1",
                                "effects" : [

                                ],
                                "start" : 6026,
                                "duration" : 128,
                                "mediaStart" : 7946,
                                "mediaDuration" : 128,
                                "scalar" : 1,
                                "animationTracks" : {

                                }
                              }
,
                          "start" : 6026,
                          "duration" : 128,
                          "mediaStart" : 0,
                          "mediaDuration" : 13486,
                          "scalar" : 1,
                          "metadata" : {
                            "AutoAppliedSmartFocus" : "False",
                            "clipSpeedAttribute" : false
                          }
                        },
                        {
                          "id" : 746,
                          "_type" : "UnifiedMedia",
                          "video" : 
                              {
                                "id" : 747,
                                "_type" : "ScreenVMFile",
                                "src" : 1,
                                "trackNumber" : 0,
                                "attributes" : {
                                  "ident" : "Rec 01-18-21"
                                },
                                "parameters" : {
                                  "cursorScale" : {
                                    "type" : "double",
                                    "defaultValue" : 0.0,
                                    "interp" : "linr"
                                  },
                                  "cursorOpacity" : {
                                    "type" : "double",
                                    "defaultValue" : 0.0,
                                    "interp" : "linr"
                                  }
                                },
                                "effects" : [

                                ],
                                "start" : 6154,
                                "duration" : 387,
                                "mediaStart" : 8417,
                                "mediaDuration" : 387,
                                "scalar" : 1,
                                "animationTracks" : {

                                }
                              },
                          "audio" : 
                              {
                                "id" : 748,
                                "_type" : "AMFile",
                                "src" : 1,
                                "trackNumber" : 1,
                                "attributes" : {
                                  "ident" : "",
                                  "gain" : 1.0,
                                  "mixToMono" : false
                                },
                                  "channelNumber" : "0,1",
                                "effects" : [

                                ],
                                "start" : 6154,
                                "duration" : 387,
                                "mediaStart" : 8417,
                                "mediaDuration" : 387,
                                "scalar" : 1,
                                "animationTracks" : {

                                }
                              }
,
                          "start" : 6154,
                          "duration" : 387,
                          "mediaStart" : 0,
                          "mediaDuration" : 13486,
                          "scalar" : 1,
                          "metadata" : {
                            "AutoAppliedSmartFocus" : "False",
                            "clipSpeedAttribute" : false
                          }
                        },
                        {
                          "id" : 749,
                          "_type" : "UnifiedMedia",
                          "video" : 
                              {
                                "id" : 750,
                                "_type" : "ScreenVMFile",
                                "src" : 1,
                                "trackNumber" : 0,
                                "attributes" : {
                                  "ident" : "Rec 01-18-21"
                                },
                                "parameters" : {
                                  "cursorScale" : {
                                    "type" : "double",
                                    "defaultValue" : 0.0,
                                    "interp" : "linr"
                                  },
                                  "cursorOpacity" : {
                                    "type" : "double",
                                    "defaultValue" : 0.0,
                                    "interp" : "linr"
                                  }
                                },
                                "effects" : [

                                ],
                                "start" : 6541,
                                "duration" : 78,
                                "mediaStart" : 9020,
                                "mediaDuration" : 78,
                                "scalar" : 1,
                                "animationTracks" : {

                                }
                              },
                          "audio" : 
                              {
                                "id" : 751,
                                "_type" : "AMFile",
                                "src" : 1,
                                "trackNumber" : 1,
                                "attributes" : {
                                  "ident" : "",
                                  "gain" : 1.0,
                                  "mixToMono" : false
                                },
                                  "channelNumber" : "0,1",
                                "effects" : [

                                ],
                                "start" : 6541,
                                "duration" : 78,
                                "mediaStart" : 9020,
                                "mediaDuration" : 78,
                                "scalar" : 1,
                                "animationTracks" : {

                                }
                              }
,
                          "start" : 6541,
                          "duration" : 78,
                          "mediaStart" : 0,
                          "mediaDuration" : 13486,
                          "scalar" : 1,
                          "metadata" : {
                            "AutoAppliedSmartFocus" : "False",
                            "clipSpeedAttribute" : false
                          }
                        },
                        {
                          "id" : 752,
                          "_type" : "UnifiedMedia",
                          "video" : 
                              {
                                "id" : 753,
                                "_type" : "ScreenVMFile",
                                "src" : 1,
                                "trackNumber" : 0,
                                "attributes" : {
                                  "ident" : "Rec 01-18-21"
                                },
                                "parameters" : {
                                  "cursorScale" : {
                                    "type" : "double",
                                    "defaultValue" : 0.0,
                                    "interp" : "linr"
                                  },
                                  "cursorOpacity" : {
                                    "type" : "double",
                                    "defaultValue" : 0.0,
                                    "interp" : "linr"
                                  }
                                },
                                "effects" : [

                                ],
                                "start" : 6619,
                                "duration" : 45,
                                "mediaStart" : 9178,
                                "mediaDuration" : 45,
                                "scalar" : 1,
                                "animationTracks" : {

                                }
                              },
                          "audio" : 
                              {
                                "id" : 754,
                                "_type" : "AMFile",
                                "src" : 1,
                                "trackNumber" : 1,
                                "attributes" : {
                                  "ident" : "",
                                  "gain" : 1.0,
                                  "mixToMono" : false
                                },
                                  "channelNumber" : "0,1",
                                "effects" : [

                                ],
                                "start" : 6619,
                                "duration" : 45,
                                "mediaStart" : 9178,
                                "mediaDuration" : 45,
                                "scalar" : 1,
                                "animationTracks" : {

                                }
                              }
,
                          "start" : 6619,
                          "duration" : 45,
                          "mediaStart" : 0,
                          "mediaDuration" : 13486,
                          "scalar" : 1,
                          "metadata" : {
                            "AutoAppliedSmartFocus" : "False",
                            "clipSpeedAttribute" : false
                          }
                        },
                        {
                          "id" : 755,
                          "_type" : "UnifiedMedia",
                          "video" : 
                              {
                                "id" : 756,
                                "_type" : "ScreenVMFile",
                                "src" : 1,
                                "trackNumber" : 0,
                                "attributes" : {
                                  "ident" : "Rec 01-18-21"
                                },
                                "parameters" : {
                                  "cursorScale" : {
                                    "type" : "double",
                                    "defaultValue" : 0.0,
                                    "interp" : "linr"
                                  },
                                  "cursorOpacity" : {
                                    "type" : "double",
                                    "defaultValue" : 0.0,
                                    "interp" : "linr"
                                  }
                                },
                                "effects" : [

                                ],
                                "start" : 6664,
                                "duration" : 46,
                                "mediaStart" : 9242,
                                "mediaDuration" : 46,
                                "scalar" : 1,
                                "animationTracks" : {

                                }
                              },
                          "audio" : 
                              {
                                "id" : 757,
                                "_type" : "AMFile",
                                "src" : 1,
                                "trackNumber" : 1,
                                "attributes" : {
                                  "ident" : "",
                                  "gain" : 1.0,
                                  "mixToMono" : false
                                },
                                  "channelNumber" : "0,1",
                                "effects" : [

                                ],
                                "start" : 6664,
                                "duration" : 46,
                                "mediaStart" : 9242,
                                "mediaDuration" : 46,
                                "scalar" : 1,
                                "animationTracks" : {

                                }
                              }
,
                          "start" : 6664,
                          "duration" : 46,
                          "mediaStart" : 0,
                          "mediaDuration" : 13486,
                          "scalar" : 1,
                          "metadata" : {
                            "AutoAppliedSmartFocus" : "False",
                            "clipSpeedAttribute" : false
                          }
                        },
                        {
                          "id" : 758,
                          "_type" : "UnifiedMedia",
                          "video" : 
                              {
                                "id" : 759,
                                "_type" : "ScreenVMFile",
                                "src" : 1,
                                "trackNumber" : 0,
                                "attributes" : {
                                  "ident" : "Rec 01-18-21"
                                },
                                "parameters" : {
                                  "cursorScale" : {
                                    "type" : "double",
                                    "defaultValue" : 0.0,
                                    "interp" : "linr"
                                  },
                                  "cursorOpacity" : {
                                    "type" : "double",
                                    "defaultValue" : 0.0,
                                    "interp" : "linr"
                                  }
                                },
                                "effects" : [

                                ],
                                "start" : 6710,
                                "duration" : 28,
                                "mediaStart" : 9315,
                                "mediaDuration" : 28,
                                "scalar" : 1,
                                "animationTracks" : {

                                }
                              },
                          "audio" : 
                              {
                                "id" : 760,
                                "_type" : "AMFile",
                                "src" : 1,
                                "trackNumber" : 1,
                                "attributes" : {
                                  "ident" : "",
                                  "gain" : 1.0,
                                  "mixToMono" : false
                                },
                                  "channelNumber" : "0,1",
                                "effects" : [

                                ],
                                "start" : 6710,
                                "duration" : 28,
                                "mediaStart" : 9315,
                                "mediaDuration" : 28,
                                "scalar" : 1,
                                "animationTracks" : {

                                }
                              }
,
                          "start" : 6710,
                          "duration" : 28,
                          "mediaStart" : 0,
                          "mediaDuration" : 13486,
                          "scalar" : 1,
                          "metadata" : {
                            "AutoAppliedSmartFocus" : "False",
                            "clipSpeedAttribute" : false
                          }
                        },
                        {
                          "id" : 761,
                          "_type" : "UnifiedMedia",
                          "video" : 
                              {
                                "id" : 762,
                                "_type" : "ScreenVMFile",
                                "src" : 1,
                                "trackNumber" : 0,
                                "attributes" : {
                                  "ident" : "Rec 01-18-21"
                                },
                                "parameters" : {
                                  "cursorScale" : {
                                    "type" : "double",
                                    "defaultValue" : 0.0,
                                    "interp" : "linr"
                                  },
                                  "cursorOpacity" : {
                                    "type" : "double",
                                    "defaultValue" : 0.0,
                                    "interp" : "linr"
                                  }
                                },
                                "effects" : [

                                ],
                                "start" : 6738,
                                "duration" : 20,
                                "mediaStart" : 9354,
                                "mediaDuration" : 20,
                                "scalar" : 1,
                                "animationTracks" : {

                                }
                              },
                          "audio" : 
                              {
                                "id" : 763,
                                "_type" : "AMFile",
                                "src" : 1,
                                "trackNumber" : 1,
                                "attributes" : {
                                  "ident" : "",
                                  "gain" : 1.0,
                                  "mixToMono" : false
                                },
                                  "channelNumber" : "0,1",
                                "effects" : [

                                ],
                                "start" : 6738,
                                "duration" : 20,
                                "mediaStart" : 9354,
                                "mediaDuration" : 20,
                                "scalar" : 1,
                                "animationTracks" : {

                                }
                              }
,
                          "start" : 6738,
                          "duration" : 20,
                          "mediaStart" : 0,
                          "mediaDuration" : 13486,
                          "scalar" : 1,
                          "metadata" : {
                            "AutoAppliedSmartFocus" : "False",
                            "clipSpeedAttribute" : false
                          }
                        },
                        {
                          "id" : 764,
                          "_type" : "UnifiedMedia",
                          "video" : 
                              {
                                "id" : 765,
                                "_type" : "ScreenVMFile",
                                "src" : 1,
                                "trackNumber" : 0,
                                "attributes" : {
                                  "ident" : "Rec 01-18-21"
                                },
                                "parameters" : {
                                  "cursorScale" : {
                                    "type" : "double",
                                    "defaultValue" : 0.0,
                                    "interp" : "linr"
                                  },
                                  "cursorOpacity" : {
                                    "type" : "double",
                                    "defaultValue" : 0.0,
                                    "interp" : "linr"
                                  }
                                },
                                "effects" : [

                                ],
                                "start" : 6758,
                                "duration" : 14,
                                "mediaStart" : 9380,
                                "mediaDuration" : 14,
                                "scalar" : 1,
                                "animationTracks" : {

                                }
                              },
                          "audio" : 
                              {
                                "id" : 766,
                                "_type" : "AMFile",
                                "src" : 1,
                                "trackNumber" : 1,
                                "attributes" : {
                                  "ident" : "",
                                  "gain" : 1.0,
                                  "mixToMono" : false
                                },
                                  "channelNumber" : "0,1",
                                "effects" : [

                                ],
                                "start" : 6758,
                                "duration" : 14,
                                "mediaStart" : 9380,
                                "mediaDuration" : 14,
                                "scalar" : 1,
                                "animationTracks" : {

                                }
                              }
,
                          "start" : 6758,
                          "duration" : 14,
                          "mediaStart" : 0,
                          "mediaDuration" : 13486,
                          "scalar" : 1,
                          "metadata" : {
                            "AutoAppliedSmartFocus" : "False",
                            "clipSpeedAttribute" : false
                          }
                        },
                        {
                          "id" : 767,
                          "_type" : "UnifiedMedia",
                          "video" : 
                              {
                                "id" : 768,
                                "_type" : "ScreenVMFile",
                                "src" : 1,
                                "trackNumber" : 0,
                                "attributes" : {
                                  "ident" : "Rec 01-18-21"
                                },
                                "parameters" : {
                                  "cursorScale" : {
                                    "type" : "double",
                                    "defaultValue" : 0.0,
                                    "interp" : "linr"
                                  },
                                  "cursorOpacity" : {
                                    "type" : "double",
                                    "defaultValue" : 0.0,
                                    "interp" : "linr"
                                  }
                                },
                                "effects" : [

                                ],
                                "start" : 6772,
                                "duration" : 10,
                                "mediaStart" : 9468,
                                "mediaDuration" : 10,
                                "scalar" : 1,
                                "animationTracks" : {

                                }
                              },
                          "audio" : 
                              {
                                "id" : 769,
                                "_type" : "AMFile",
                                "src" : 1,
                                "trackNumber" : 1,
                                "attributes" : {
                                  "ident" : "",
                                  "gain" : 1.0,
                                  "mixToMono" : false
                                },
                                  "channelNumber" : "0,1",
                                "effects" : [

                                ],
                                "start" : 6772,
                                "duration" : 10,
                                "mediaStart" : 9468,
                                "mediaDuration" : 10,
                                "scalar" : 1,
                                "animationTracks" : {

                                }
                              }
,
                          "start" : 6772,
                          "duration" : 10,
                          "mediaStart" : 0,
                          "mediaDuration" : 13486,
                          "scalar" : 1,
                          "metadata" : {
                            "AutoAppliedSmartFocus" : "False",
                            "clipSpeedAttribute" : false
                          }
                        },
                        {
                          "id" : 770,
                          "_type" : "UnifiedMedia",
                          "video" : 
                              {
                                "id" : 771,
                                "_type" : "ScreenVMFile",
                                "src" : 1,
                                "trackNumber" : 0,
                                "attributes" : {
                                  "ident" : "Rec 01-18-21"
                                },
                                "parameters" : {
                                  "cursorScale" : {
                                    "type" : "double",
                                    "defaultValue" : 0.0,
                                    "interp" : "linr"
                                  },
                                  "cursorOpacity" : {
                                    "type" : "double",
                                    "defaultValue" : 0.0,
                                    "interp" : "linr"
                                  }
                                },
                                "effects" : [

                                ],
                                "start" : 6782,
                                "duration" : 955,
                                "mediaStart" : 10025,
                                "mediaDuration" : 955,
                                "scalar" : 1,
                                "animationTracks" : {

                                }
                              },
                          "audio" : 
                              {
                                "id" : 772,
                                "_type" : "AMFile",
                                "src" : 1,
                                "trackNumber" : 1,
                                "attributes" : {
                                  "ident" : "",
                                  "gain" : 1.0,
                                  "mixToMono" : false
                                },
                                  "channelNumber" : "0,1",
                                "effects" : [

                                ],
                                "start" : 6782,
                                "duration" : 955,
                                "mediaStart" : 10025,
                                "mediaDuration" : 955,
                                "scalar" : 1,
                                "animationTracks" : {

                                }
                              }
,
                          "start" : 6782,
                          "duration" : 955,
                          "mediaStart" : 0,
                          "mediaDuration" : 13486,
                          "scalar" : 1,
                          "metadata" : {
                            "AutoAppliedSmartFocus" : "False",
                            "clipSpeedAttribute" : false
                          }
                        },
                        {
                          "id" : 773,
                          "_type" : "UnifiedMedia",
                          "video" : 
                              {
                                "id" : 774,
                                "_type" : "ScreenVMFile",
                                "src" : 1,
                                "trackNumber" : 0,
                                "attributes" : {
                                  "ident" : "Rec 01-18-21"
                                },
                                "parameters" : {
                                  "cursorScale" : {
                                    "type" : "double",
                                    "defaultValue" : 0.0,
                                    "interp" : "linr"
                                  },
                                  "cursorOpacity" : {
                                    "type" : "double",
                                    "defaultValue" : 0.0,
                                    "interp" : "linr"
                                  }
                                },
                                "effects" : [

                                ],
                                "start" : 7737,
                                "duration" : 124,
                                "mediaStart" : 11410,
                                "mediaDuration" : 124,
                                "scalar" : 1,
                                "animationTracks" : {

                                }
                              },
                          "audio" : 
                              {
                                "id" : 775,
                                "_type" : "AMFile",
                                "src" : 1,
                                "trackNumber" : 1,
                                "attributes" : {
                                  "ident" : "",
                                  "gain" : 1.0,
                                  "mixToMono" : false
                                },
                                  "channelNumber" : "0,1",
                                "effects" : [

                                ],
                                "start" : 7737,
                                "duration" : 124,
                                "mediaStart" : 11410,
                                "mediaDuration" : 124,
                                "scalar" : 1,
                                "animationTracks" : {

                                }
                              }
,
                          "start" : 7737,
                          "duration" : 124,
                          "mediaStart" : 0,
                          "mediaDuration" : 13486,
                          "scalar" : 1,
                          "metadata" : {
                            "AutoAppliedSmartFocus" : "False",
                            "clipSpeedAttribute" : false
                          }
                        },
                        {
                          "id" : 776,
                          "_type" : "UnifiedMedia",
                          "video" : 
                              {
                                "id" : 777,
                                "_type" : "ScreenVMFile",
                                "src" : 1,
                                "trackNumber" : 0,
                                "attributes" : {
                                  "ident" : "Rec 01-18-21"
                                },
                                "parameters" : {
                                  "cursorScale" : {
                                    "type" : "double",
                                    "defaultValue" : 0.0,
                                    "interp" : "linr"
                                  },
                                  "cursorOpacity" : {
                                    "type" : "double",
                                    "defaultValue" : 0.0,
                                    "interp" : "linr"
                                  }
                                },
                                "effects" : [

                                ],
                                "start" : 7861,
                                "duration" : 61,
                                "mediaStart" : 11574,
                                "mediaDuration" : 61,
                                "scalar" : 1,
                                "animationTracks" : {

                                }
                              },
                          "audio" : 
                              {
                                "id" : 778,
                                "_type" : "AMFile",
                                "src" : 1,
                                "trackNumber" : 1,
                                "attributes" : {
                                  "ident" : "",
                                  "gain" : 1.0,
                                  "mixToMono" : false
                                },
                                  "channelNumber" : "0,1",
                                "effects" : [

                                ],
                                "start" : 7861,
                                "duration" : 61,
                                "mediaStart" : 11574,
                                "mediaDuration" : 61,
                                "scalar" : 1,
                                "animationTracks" : {

                                }
                              }
,
                          "start" : 7861,
                          "duration" : 61,
                          "mediaStart" : 0,
                          "mediaDuration" : 13486,
                          "scalar" : 1,
                          "metadata" : {
                            "AutoAppliedSmartFocus" : "False",
                            "clipSpeedAttribute" : false
                          }
                        },
                        {
                          "id" : 779,
                          "_type" : "UnifiedMedia",
                          "video" : 
                              {
                                "id" : 780,
                                "_type" : "ScreenVMFile",
                                "src" : 1,
                                "trackNumber" : 0,
                                "attributes" : {
                                  "ident" : "Rec 01-18-21"
                                },
                                "parameters" : {
                                  "cursorScale" : {
                                    "type" : "double",
                                    "defaultValue" : 0.0,
                                    "interp" : "linr"
                                  },
                                  "cursorOpacity" : {
                                    "type" : "double",
                                    "defaultValue" : 0.0,
                                    "interp" : "linr"
                                  }
                                },
                                "effects" : [

                                ],
                                "start" : 7922,
                                "duration" : 27,
                                "mediaStart" : 11650,
                                "mediaDuration" : 27,
                                "scalar" : 1,
                                "animationTracks" : {

                                }
                              },
                          "audio" : 
                              {
                                "id" : 781,
                                "_type" : "AMFile",
                                "src" : 1,
                                "trackNumber" : 1,
                                "attributes" : {
                                  "ident" : "",
                                  "gain" : 1.0,
                                  "mixToMono" : false
                                },
                                  "channelNumber" : "0,1",
                                "effects" : [

                                ],
                                "start" : 7922,
                                "duration" : 27,
                                "mediaStart" : 11650,
                                "mediaDuration" : 27,
                                "scalar" : 1,
                                "animationTracks" : {

                                }
                              }
,
                          "start" : 7922,
                          "duration" : 27,
                          "mediaStart" : 0,
                          "mediaDuration" : 13486,
                          "scalar" : 1,
                          "metadata" : {
                            "AutoAppliedSmartFocus" : "False",
                            "clipSpeedAttribute" : false
                          }
                        },
                        {
                          "id" : 782,
                          "_type" : "UnifiedMedia",
                          "video" : 
                              {
                                "id" : 783,
                                "_type" : "ScreenVMFile",
                                "src" : 1,
                                "trackNumber" : 0,
                                "attributes" : {
                                  "ident" : "Rec 01-18-21"
                                },
                                "parameters" : {
                                  "cursorScale" : {
                                    "type" : "double",
                                    "defaultValue" : 0.0,
                                    "interp" : "linr"
                                  },
                                  "cursorOpacity" : {
                                    "type" : "double",
                                    "defaultValue" : 0.0,
                                    "interp" : "linr"
                                  }
                                },
                                "effects" : [

                                ],
                                "start" : 7949,
                                "duration" : 105,
                                "mediaStart" : 11691,
                                "mediaDuration" : 105,
                                "scalar" : 1,
                                "animationTracks" : {

                                }
                              },
                          "audio" : 
                              {
                                "id" : 784,
                                "_type" : "AMFile",
                                "src" : 1,
                                "trackNumber" : 1,
                                "attributes" : {
                                  "ident" : "",
                                  "gain" : 1.0,
                                  "mixToMono" : false
                                },
                                  "channelNumber" : "0,1",
                                "effects" : [

                                ],
                                "start" : 7949,
                                "duration" : 105,
                                "mediaStart" : 11691,
                                "mediaDuration" : 105,
                                "scalar" : 1,
                                "animationTracks" : {

                                }
                              }
,
                          "start" : 7949,
                          "duration" : 105,
                          "mediaStart" : 0,
                          "mediaDuration" : 13486,
                          "scalar" : 1,
                          "metadata" : {
                            "AutoAppliedSmartFocus" : "False",
                            "clipSpeedAttribute" : false
                          }
                        },
                        {
                          "id" : 785,
                          "_type" : "UnifiedMedia",
                          "video" : 
                              {
                                "id" : 786,
                                "_type" : "ScreenVMFile",
                                "src" : 1,
                                "trackNumber" : 0,
                                "attributes" : {
                                  "ident" : "Rec 01-18-21"
                                },
                                "parameters" : {
                                  "cursorScale" : {
                                    "type" : "double",
                                    "defaultValue" : 0.0,
                                    "interp" : "linr"
                                  },
                                  "cursorOpacity" : {
                                    "type" : "double",
                                    "defaultValue" : 0.0,
                                    "interp" : "linr"
                                  }
                                },
                                "effects" : [

                                ],
                                "start" : 8054,
                                "duration" : 76,
                                "mediaStart" : 11807,
                                "mediaDuration" : 76,
                                "scalar" : 1,
                                "animationTracks" : {

                                }
                              },
                          "audio" : 
                              {
                                "id" : 787,
                                "_type" : "AMFile",
                                "src" : 1,
                                "trackNumber" : 1,
                                "attributes" : {
                                  "ident" : "",
                                  "gain" : 1.0,
                                  "mixToMono" : false
                                },
                                  "channelNumber" : "0,1",
                                "effects" : [

                                ],
                                "start" : 8054,
                                "duration" : 76,
                                "mediaStart" : 11807,
                                "mediaDuration" : 76,
                                "scalar" : 1,
                                "animationTracks" : {

                                }
                              }
,
                          "start" : 8054,
                          "duration" : 76,
                          "mediaStart" : 0,
                          "mediaDuration" : 13486,
                          "scalar" : 1,
                          "metadata" : {
                            "AutoAppliedSmartFocus" : "False",
                            "clipSpeedAttribute" : false
                          }
                        },
                        {
                          "id" : 788,
                          "_type" : "UnifiedMedia",
                          "video" : 
                              {
                                "id" : 789,
                                "_type" : "ScreenVMFile",
                                "src" : 1,
                                "trackNumber" : 0,
                                "attributes" : {
                                  "ident" : "Rec 01-18-21"
                                },
                                "parameters" : {
                                  "cursorScale" : {
                                    "type" : "double",
                                    "defaultValue" : 0.0,
                                    "interp" : "linr"
                                  },
                                  "cursorOpacity" : {
                                    "type" : "double",
                                    "defaultValue" : 0.0,
                                    "interp" : "linr"
                                  }
                                },
                                "effects" : [

                                ],
                                "start" : 8130,
                                "duration" : 204,
                                "mediaStart" : 11891,
                                "mediaDuration" : 204,
                                "scalar" : 1,
                                "animationTracks" : {

                                }
                              },
                          "audio" : 
                              {
                                "id" : 790,
                                "_type" : "AMFile",
                                "src" : 1,
                                "trackNumber" : 1,
                                "attributes" : {
                                  "ident" : "",
                                  "gain" : 1.0,
                                  "mixToMono" : false
                                },
                                  "channelNumber" : "0,1",
                                "effects" : [

                                ],
                                "start" : 8130,
                                "duration" : 204,
                                "mediaStart" : 11891,
                                "mediaDuration" : 204,
                                "scalar" : 1,
                                "animationTracks" : {

                                }
                              }
,
                          "start" : 8130,
                          "duration" : 204,
                          "mediaStart" : 0,
                          "mediaDuration" : 13486,
                          "scalar" : 1,
                          "metadata" : {
                            "AutoAppliedSmartFocus" : "False",
                            "clipSpeedAttribute" : false
                          }
                        },
                        {
                          "id" : 791,
                          "_type" : "UnifiedMedia",
                          "video" : 
                              {
                                "id" : 792,
                                "_type" : "ScreenVMFile",
                                "src" : 1,
                                "trackNumber" : 0,
                                "attributes" : {
                                  "ident" : "Rec 01-18-21"
                                },
                                "parameters" : {
                                  "cursorScale" : {
                                    "type" : "double",
                                    "defaultValue" : 0.0,
                                    "interp" : "linr"
                                  },
                                  "cursorOpacity" : {
                                    "type" : "double",
                                    "defaultValue" : 0.0,
                                    "interp" : "linr"
                                  }
                                },
                                "effects" : [

                                ],
                                "start" : 8334,
                                "duration" : 33,
                                "mediaStart" : 12113,
                                "mediaDuration" : 33,
                                "scalar" : 1,
                                "animationTracks" : {

                                }
                              },
                          "audio" : 
                              {
                                "id" : 793,
                                "_type" : "AMFile",
                                "src" : 1,
                                "trackNumber" : 1,
                                "attributes" : {
                                  "ident" : "",
                                  "gain" : 1.0,
                                  "mixToMono" : false
                                },
                                  "channelNumber" : "0,1",
                                "effects" : [

                                ],
                                "start" : 8334,
                                "duration" : 33,
                                "mediaStart" : 12113,
                                "mediaDuration" : 33,
                                "scalar" : 1,
                                "animationTracks" : {

                                }
                              }
,
                          "start" : 8334,
                          "duration" : 33,
                          "mediaStart" : 0,
                          "mediaDuration" : 13486,
                          "scalar" : 1,
                          "metadata" : {
                            "AutoAppliedSmartFocus" : "False",
                            "clipSpeedAttribute" : false
                          }
                        },
                        {
                          "id" : 794,
                          "_type" : "UnifiedMedia",
                          "video" : 
                              {
                                "id" : 795,
                                "_type" : "ScreenVMFile",
                                "src" : 1,
                                "trackNumber" : 0,
                                "attributes" : {
                                  "ident" : "Rec 01-18-21"
                                },
                                "parameters" : {
                                  "cursorScale" : {
                                    "type" : "double",
                                    "defaultValue" : 0.0,
                                    "interp" : "linr"
                                  },
                                  "cursorOpacity" : {
                                    "type" : "double",
                                    "defaultValue" : 0.0,
                                    "interp" : "linr"
                                  }
                                },
                                "effects" : [

                                ],
                                "start" : 8367,
                                "duration" : 896,
                                "mediaStart" : 12205,
                                "mediaDuration" : 896,
                                "scalar" : 1,
                                "animationTracks" : {

                                }
                              },
                          "audio" : 
                              {
                                "id" : 796,
                                "_type" : "AMFile",
                                "src" : 1,
                                "trackNumber" : 1,
                                "attributes" : {
                                  "ident" : "",
                                  "gain" : 1.0,
                                  "mixToMono" : false
                                },
                                  "channelNumber" : "0,1",
                                "effects" : [

                                ],
                                "start" : 8367,
                                "duration" : 896,
                                "mediaStart" : 12205,
                                "mediaDuration" : 896,
                                "scalar" : 1,
                                "animationTracks" : {

                                }
                              }
,
                          "start" : 8367,
                          "duration" : 896,
                          "mediaStart" : 0,
                          "mediaDuration" : 13486,
                          "scalar" : 1,
                          "metadata" : {
                            "AutoAppliedSmartFocus" : "False",
                            "clipSpeedAttribute" : false
                          }
                        },
                        {
                          "id" : 797,
                          "_type" : "UnifiedMedia",
                          "video" : 
                              {
                                "id" : 798,
                                "_type" : "ScreenVMFile",
                                "src" : 1,
                                "trackNumber" : 0,
                                "attributes" : {
                                  "ident" : "Rec 01-18-21"
                                },
                                "parameters" : {
                                  "cursorScale" : {
                                    "type" : "double",
                                    "defaultValue" : 0.0,
                                    "interp" : "linr"
                                  },
                                  "cursorOpacity" : {
                                    "type" : "double",
                                    "defaultValue" : 0.0,
                                    "interp" : "linr"
                                  }
                                },
                                "effects" : [

                                ],
                                "start" : 9263,
                                "duration" : 26,
                                "mediaStart" : 13122,
                                "mediaDuration" : 26,
                                "scalar" : 1,
                                "animationTracks" : {

                                }
                              },
                          "audio" : 
                              {
                                "id" : 799,
                                "_type" : "AMFile",
                                "src" : 1,
                                "trackNumber" : 1,
                                "attributes" : {
                                  "ident" : "",
                                  "gain" : 1.0,
                                  "mixToMono" : false
                                },
                                  "channelNumber" : "0,1",
                                "effects" : [

                                ],
                                "start" : 9263,
                                "duration" : 26,
                                "mediaStart" : 13122,
                                "mediaDuration" : 26,
                                "scalar" : 1,
                                "animationTracks" : {

                                }
                              }
,
                          "start" : 9263,
                          "duration" : 26,
                          "mediaStart" : 0,
                          "mediaDuration" : 13486,
                          "scalar" : 1,
                          "metadata" : {
                            "AutoAppliedSmartFocus" : "False",
                            "clipSpeedAttribute" : false
                          }
                        },
                        {
                          "id" : 800,
                          "_type" : "UnifiedMedia",
                          "video" : 
                              {
                                "id" : 801,
                                "_type" : "ScreenVMFile",
                                "src" : 1,
                                "trackNumber" : 0,
                                "attributes" : {
                                  "ident" : "Rec 01-18-21"
                                },
                                "parameters" : {
                                  "cursorScale" : {
                                    "type" : "double",
                                    "defaultValue" : 0.0,
                                    "interp" : "linr"
                                  },
                                  "cursorOpacity" : {
                                    "type" : "double",
                                    "defaultValue" : 0.0,
                                    "interp" : "linr"
                                  }
                                },
                                "effects" : [

                                ],
                                "start" : 9289,
                                "duration" : 24,
                                "mediaStart" : 13159,
                                "mediaDuration" : 24,
                                "scalar" : 1,
                                "animationTracks" : {

                                }
                              },
                          "audio" : 
                              {
                                "id" : 802,
                                "_type" : "AMFile",
                                "src" : 1,
                                "trackNumber" : 1,
                                "attributes" : {
                                  "ident" : "",
                                  "gain" : 1.0,
                                  "mixToMono" : false
                                },
                                  "channelNumber" : "0,1",
                                "effects" : [

                                ],
                                "start" : 9289,
                                "duration" : 24,
                                "mediaStart" : 13159,
                                "mediaDuration" : 24,
                                "scalar" : 1,
                                "animationTracks" : {

                                }
                              }
,
                          "start" : 9289,
                          "duration" : 24,
                          "mediaStart" : 0,
                          "mediaDuration" : 13486,
                          "scalar" : 1,
                          "metadata" : {
                            "AutoAppliedSmartFocus" : "False",
                            "clipSpeedAttribute" : false
                          }
                        },
                        {
                          "id" : 803,
                          "_type" : "UnifiedMedia",
                          "video" : 
                              {
                                "id" : 804,
                                "_type" : "ScreenVMFile",
                                "src" : 1,
                                "trackNumber" : 0,
                                "attributes" : {
                                  "ident" : "Rec 01-18-21"
                                },
                                "parameters" : {
                                  "cursorScale" : {
                                    "type" : "double",
                                    "defaultValue" : 0.0,
                                    "interp" : "linr"
                                  },
                                  "cursorOpacity" : {
                                    "type" : "double",
                                    "defaultValue" : 0.0,
                                    "interp" : "linr"
                                  }
                                },
                                "effects" : [

                                ],
                                "start" : 9313,
                                "duration" : 56,
                                "mediaStart" : 13203,
                                "mediaDuration" : 56,
                                "scalar" : 1,
                                "animationTracks" : {

                                }
                              },
                          "audio" : 
                              {
                                "id" : 805,
                                "_type" : "AMFile",
                                "src" : 1,
                                "trackNumber" : 1,
                                "attributes" : {
                                  "ident" : "",
                                  "gain" : 1.0,
                                  "mixToMono" : false
                                },
                                  "channelNumber" : "0,1",
                                "effects" : [

                                ],
                                "start" : 9313,
                                "duration" : 56,
                                "mediaStart" : 13203,
                                "mediaDuration" : 56,
                                "scalar" : 1,
                                "animationTracks" : {

                                }
                              }
,
                          "start" : 9313,
                          "duration" : 56,
                          "mediaStart" : 0,
                          "mediaDuration" : 13486,
                          "scalar" : 1,
                          "metadata" : {
                            "AutoAppliedSmartFocus" : "False",
                            "clipSpeedAttribute" : false
                          }
                        },
                        {
                          "id" : 806,
                          "_type" : "UnifiedMedia",
                          "video" : 
                              {
                                "id" : 807,
                                "_type" : "ScreenVMFile",
                                "src" : 1,
                                "trackNumber" : 0,
                                "attributes" : {
                                  "ident" : "Rec 01-18-21"
                                },
                                "parameters" : {
                                  "cursorScale" : {
                                    "type" : "double",
                                    "defaultValue" : 0.0,
                                    "interp" : "linr"
                                  },
                                  "cursorOpacity" : {
                                    "type" : "double",
                                    "defaultValue" : 0.0,
                                    "interp" : "linr"
                                  }
                                },
                                "effects" : [

                                ],
                                "start" : 9369,
                                "duration" : 34,
                                "mediaStart" : 13271,
                                "mediaDuration" : 34,
                                "scalar" : 1,
                                "animationTracks" : {

                                }
                              },
                          "audio" : 
                              {
                                "id" : 808,
                                "_type" : "AMFile",
                                "src" : 1,
                                "trackNumber" : 1,
                                "attributes" : {
                                  "ident" : "",
                                  "gain" : 1.0,
                                  "mixToMono" : false
                                },
                                  "channelNumber" : "0,1",
                                "effects" : [

                                ],
                                "start" : 9369,
                                "duration" : 34,
                                "mediaStart" : 13271,
                                "mediaDuration" : 34,
                                "scalar" : 1,
                                "animationTracks" : {

                                }
                              }
,
                          "start" : 9369,
                          "duration" : 34,
                          "mediaStart" : 0,
                          "mediaDuration" : 13486,
                          "scalar" : 1,
                          "metadata" : {
                            "AutoAppliedSmartFocus" : "False",
                            "clipSpeedAttribute" : false
                          }
                        },
                        {
                          "id" : 809,
                          "_type" : "UnifiedMedia",
                          "video" : 
                              {
                                "id" : 810,
                                "_type" : "ScreenVMFile",
                                "src" : 1,
                                "trackNumber" : 0,
                                "attributes" : {
                                  "ident" : "Rec 01-18-21"
                                },
                                "parameters" : {
                                  "cursorScale" : {
                                    "type" : "double",
                                    "defaultValue" : 0.0,
                                    "interp" : "linr"
                                  },
                                  "cursorOpacity" : {
                                    "type" : "double",
                                    "defaultValue" : 0.0,
                                    "interp" : "linr"
                                  }
                                },
                                "effects" : [

                                ],
                                "start" : 9403,
                                "duration" : 28,
                                "mediaStart" : 13324,
                                "mediaDuration" : 28,
                                "scalar" : 1,
                                "animationTracks" : {

                                }
                              },
                          "audio" : 
                              {
                                "id" : 811,
                                "_type" : "AMFile",
                                "src" : 1,
                                "trackNumber" : 1,
                                "attributes" : {
                                  "ident" : "",
                                  "gain" : 1.0,
                                  "mixToMono" : false
                                },
                                  "channelNumber" : "0,1",
                                "effects" : [

                                ],
                                "start" : 9403,
                                "duration" : 28,
                                "mediaStart" : 13324,
                                "mediaDuration" : 28,
                                "scalar" : 1,
                                "animationTracks" : {

                                }
                              }
,
                          "start" : 9403,
                          "duration" : 28,
                          "mediaStart" : 0,
                          "mediaDuration" : 13486,
                          "scalar" : 1,
                          "metadata" : {
                            "AutoAppliedSmartFocus" : "False",
                            "clipSpeedAttribute" : false
                          }
                        },
                        {
                          "id" : 812,
                          "_type" : "UnifiedMedia",
                          "video" : 
                              {
                                "id" : 813,
                                "_type" : "ScreenVMFile",
                                "src" : 1,
                                "trackNumber" : 0,
                                "attributes" : {
                                  "ident" : "Rec 01-18-21"
                                },
                                "parameters" : {
                                  "cursorScale" : {
                                    "type" : "double",
                                    "defaultValue" : 0.0,
                                    "interp" : "linr"
                                  },
                                  "cursorOpacity" : {
                                    "type" : "double",
                                    "defaultValue" : 0.0,
                                    "interp" : "linr"
                                  }
                                },
                                "effects" : [

                                ],
                                "start" : 9431,
                                "duration" : 111,
                                "mediaStart" : 13375,
                                "mediaDuration" : 111,
                                "scalar" : 1,
                                "animationTracks" : {

                                }
                              },
                          "audio" : 
                              {
                                "id" : 814,
                                "_type" : "AMFile",
                                "src" : 1,
                                "trackNumber" : 1,
                                "attributes" : {
                                  "ident" : "",
                                  "gain" : 1.0,
                                  "mixToMono" : false
                                },
                                  "channelNumber" : "0,1",
                                "effects" : [

                                ],
                                "start" : 9431,
                                "duration" : 111,
                                "mediaStart" : 13375,
                                "mediaDuration" : 111,
                                "scalar" : 1,
                                "animationTracks" : {

                                }
                              }
,
                          "start" : 9431,
                          "duration" : 111,
                          "mediaStart" : 0,
                          "mediaDuration" : 13486,
                          "scalar" : 1,
                          "metadata" : {
                            "AutoAppliedSmartFocus" : "False",
                            "clipSpeedAttribute" : false
                          }
                        }
                    ],
                    "effects" : [

                    ],
                    "start" : 5172,
                    "duration" : 319,
                    "mediaStart" : 9199,
                    "mediaDuration" : 319,
                    "scalar" : 1,
                    "metadata" : {
                      "AutoAppliedSmartFocus" : "False",
                      "clipSpeedAttribute" : false
                    },
                    "animationTracks" : {

                    }
                  }
                ]
              },
              {
                "trackIndex" : 1,
                "medias" : [
                  {
                    "id" : 815,
                    "_type" : "Group",
                    "parameters" : {
                      "volume" : 1.0
                    },
                    "tracks" : [
                      {
                        "trackIndex" : 0,
                        "medias" : [
                          {
                            "id" : 816,
                            "_type" : "Callout",
                            "def" : {
                              "kind" : "remix",
                              "shape" : "text",
                              "style" : "basic",
                              "height" : {
                                "type" : "double",
                                "defaultValue" : 250.0,
                                "interp" : "linr"
                              },
                              "line-spacing" : {
                                "type" : "double",
                                "defaultValue" : 0.0,
                                "interp" : "linr"
                              },
                              "width" : {
                                "type" : "double",
                                "defaultValue" : 998.63013698628,
                                "interp" : "linr"
                              },
                              "word-wrap" : {
                                "type" : "double",
                                "defaultValue" : 1.0,
                                "interp" : "linr"
                              },
                              "horizontal-alignment" : "center",
                              "resize-behavior" : "resizeText",
                              "text" : "Kbernetes ReplicaSet",
                              "vertical-alignment" : "center",
                              "font" : {
                                "color-blue" : {
                                  "type" : "double",
                                  "defaultValue" : 1.0,
                                  "interp" : "linr"
                                },
                                "color-green" : {
                                  "type" : "double",
                                  "defaultValue" : 1.0,
                                  "interp" : "linr"
                                },
                                "color-red" : {
                                  "type" : "double",
                                  "defaultValue" : 1.0,
                                  "interp" : "linr"
                                },
                                "size" : {
                                  "type" : "double",
                                  "defaultValue" : 96.0,
                                  "interp" : "linr"
                                },
                                "tracking" : {
                                  "type" : "double",
                                  "defaultValue" : 0.0,
                                  "interp" : "linr"
                                },
                                "name" : "Montserrat",
                                "weight" : "Regular"
                              },
                              "textAttributes" : {
                                "type" : "textAttributeList",
                                "keyframes" : [
                                  {
                                    "endTime" : 0,
                                    "time" : 0,
                                    "value" : [{"name":"underline","rangeEnd":20,"rangeStart":0,"value":0,"valueType":"int"},{"name":"fontName","rangeEnd":20,"rangeStart":0,"value":"Montserrat","valueType":"string"},{"name":"fontSize","rangeEnd":20,"rangeStart":0,"value":96,"valueType":"double"},{"name":"strikethrough","rangeEnd":20,"rangeStart":0,"value":0,"valueType":"int"},{"name":"kerning","rangeEnd":20,"rangeStart":0,"value":0,"valueType":"double"},{"name":"fontItalic","rangeEnd":20,"rangeStart":0,"value":0,"valueType":"int"},{"name":"fgColor","rangeEnd":20,"rangeStart":0,"value":"(50,108,229,255)","valueType":"color"},{"name":"fontWeight","rangeEnd":20,"rangeStart":0,"value":700,"valueType":"int"}],
                                    "duration" : 0
                                  }
                                ]
                              }
                            },
                            "attributes" : {
                              "autoRotateText" : true
                            },
                            "parameters" : {
                              "translation0" : {
                                "type" : "double",
                                "defaultValue" : -22.4178082191042,
                                "interp" : "eioe"
                              },
                              "translation1" : {
                                "type" : "double",
                                "defaultValue" : 1.319122588261e-11,
                                "interp" : "eioe"
                              }
                            },
                            "effects" : [
                                {
                                  "_type" : "GenericBehaviorEffect",
                                  "effectName" : "pulsating",
                                  "start" : -102,
                                  "duration" : 200                                ,
                                  "in" : {
                                    "attributes" : {
                                      "name" : "grow",
                                      "type" : 1,
                                      "characterOrder" : 6,
                                      "offsetBetweenCharacters" : 1,
                                      "suggestedDurationPerCharacter" : 18,
                                      "overlapProportion" : "3/4",
                                      "movement" : 30,
                                      "springDamping" : 5.0,
                                      "springStiffness" : 50.0,
                                      "bounceBounciness" : 0.45
                                    }
                                  
                                  },
                                  "center" : {
                                    "attributes" : {
                                      "name" : "pulsate",
                                      "type" : 1,
                                      "characterOrder" : 6,
                                      "offsetBetweenCharacters" : "21/10",
                                      "secondsPerLoop" : 1,
                                      "numberOfLoops" : -1,
                                      "delayBetweenLoops" : 0,
                                      "offsetBetweenCharacters" : "21/10"
                                    },
                                    "parameters" : {
                                      "movement" : {
                                        "type" : "int",
                                        "valueBounds" : {
                                          "minValue" : 0,
                                          "maxValue" : 31,
                                          "defaultValue" : 27
                                        },
                                        "uiHints" : {
                                          "userInterfaceType" : 4,
                                          "unitType" : 0
                                        },
                                        "keyframes" : [
                                          {
                                            "endTime" : 0,
                                            "time" : 0,
                                            "value" : 27,
                                            "duration" : 0
                                          }
                                        ]
                                      },
                                      "scale" : {
                                        "type" : "double",
                                        "defaultValue" : 1.08,
                                        "interp" : "linr",
                                        "valueBounds" : {
                                          "minValue" : 0.01,
                                          "maxValue" : 2.0,
                                          "defaultValue" : 1.08
                                        },
                                        "uiHints" : {
                                          "userInterfaceType" : 1,
                                          "unitType" : 1
                                        }
                                      }
                                    }
                                  
                                  },
                                  "out" : {
                                    "attributes" : {
                                      "name" : "shrink",
                                      "type" : 1,
                                      "characterOrder" : 6,
                                      "offsetBetweenCharacters" : 1,
                                      "suggestedDurationPerCharacter" : "29/2",
                                      "overlapProportion" : "1/10",
                                      "movement" : 11,
                                      "springDamping" : 5.0,
                                      "springStiffness" : 50.0,
                                      "bounceBounciness" : 0.45
                                    }
                                  
                                  }
                                }
                            ],
                            "start" : 0,
                            "duration" : 103,
                            "mediaStart" : -102,
                            "mediaDuration" : 103,
                            "scalar" : 1,
                            "metadata" : {
                              "clipSpeedAttribute" : false,
                              "default-HAlign" : "center",
                              "default-LineSpace" : 0.0,
                              "default-VAlign" : "center",
                              "default-text-attributes" : "[{\"name\":\"fontItalic\",\"rangeEnd\":21,\"rangeStart\":0,\"value\":0,\"valueType\":\"int\"},{\"name\":\"fontName\",\"rangeEnd\":21,\"rangeStart\":0,\"value\":\"Montserrat\",\"valueType\":\"string\"},{\"name\":\"fontWeight\",\"rangeEnd\":21,\"rangeStart\":0,\"value\":700,\"valueType\":\"int\"},{\"name\":\"kerning\",\"rangeEnd\":21,\"rangeStart\":0,\"value\":0,\"valueType\":\"double\"},{\"name\":\"fgColor\",\"rangeEnd\":21,\"rangeStart\":0,\"value\":\"(50,108,229,255)\",\"valueType\":\"color\"},{\"name\":\"underline\",\"rangeEnd\":21,\"rangeStart\":0,\"value\":0,\"valueType\":\"int\"},{\"name\":\"fontSize\",\"rangeEnd\":21,\"rangeStart\":0,\"value\":96,\"valueType\":\"double\"},{\"name\":\"strikethrough\",\"rangeEnd\":21,\"rangeStart\":0,\"value\":0,\"valueType\":\"int\"}]"
                            },
                            "animationTracks" : {

                            }
                          },
                          {
                            "id" : 817,
                            "_type" : "Callout",
                            "def" : {
                              "kind" : "remix",
                              "shape" : "text",
                              "style" : "basic",
                              "height" : {
                                "type" : "double",
                                "defaultValue" : 250.0,
                                "interp" : "linr"
                              },
                              "line-spacing" : {
                                "type" : "double",
                                "defaultValue" : 0.0,
                                "interp" : "linr"
                              },
                              "width" : {
                                "type" : "double",
                                "defaultValue" : 998.63013698628,
                                "interp" : "linr"
                              },
                              "word-wrap" : {
                                "type" : "double",
                                "defaultValue" : 1.0,
                                "interp" : "linr"
                              },
                              "horizontal-alignment" : "center",
                              "resize-behavior" : "resizeText",
                              "text" : "Kbernetes ReplicaSet",
                              "vertical-alignment" : "center",
                              "font" : {
                                "color-blue" : {
                                  "type" : "double",
                                  "defaultValue" : 1.0,
                                  "interp" : "linr"
                                },
                                "color-green" : {
                                  "type" : "double",
                                  "defaultValue" : 1.0,
                                  "interp" : "linr"
                                },
                                "color-red" : {
                                  "type" : "double",
                                  "defaultValue" : 1.0,
                                  "interp" : "linr"
                                },
                                "size" : {
                                  "type" : "double",
                                  "defaultValue" : 96.0,
                                  "interp" : "linr"
                                },
                                "tracking" : {
                                  "type" : "double",
                                  "defaultValue" : 0.0,
                                  "interp" : "linr"
                                },
                                "name" : "Montserrat",
                                "weight" : "Regular"
                              },
                              "textAttributes" : {
                                "type" : "textAttributeList",
                                "keyframes" : [
                                  {
                                    "endTime" : 0,
                                    "time" : 0,
                                    "value" : [{"name":"fontSize","rangeEnd":20,"rangeStart":0,"value":96,"valueType":"double"},{"name":"fontName","rangeEnd":20,"rangeStart":0,"value":"Montserrat","valueType":"string"},{"name":"underline","rangeEnd":20,"rangeStart":0,"value":0,"valueType":"int"},{"name":"strikethrough","rangeEnd":20,"rangeStart":0,"value":0,"valueType":"int"},{"name":"fgColor","rangeEnd":20,"rangeStart":0,"value":"(50,108,229,255)","valueType":"color"},{"name":"kerning","rangeEnd":20,"rangeStart":0,"value":0,"valueType":"double"},{"name":"fontWeight","rangeEnd":20,"rangeStart":0,"value":700,"valueType":"int"},{"name":"fontItalic","rangeEnd":20,"rangeStart":0,"value":0,"valueType":"int"}],
                                    "duration" : 0
                                  }
                                ]
                              }
                            },
                            "attributes" : {
                              "autoRotateText" : true
                            },
                            "parameters" : {
                              "translation0" : {
                                "type" : "double",
                                "defaultValue" : -24.4,
                                "interp" : "eioe"
                              },
                              "translation1" : {
                                "type" : "double",
                                "defaultValue" : 4.13429290734252e-11,
                                "interp" : "eioe"
                              }
                            },
                            "effects" : [
                                {
                                  "_type" : "GenericBehaviorEffect",
                                  "effectName" : "pulsating",
                                  "start" : -102,
                                  "duration" : 200                                ,
                                  "in" : {
                                    "attributes" : {
                                      "name" : "grow",
                                      "type" : 1,
                                      "characterOrder" : 6,
                                      "offsetBetweenCharacters" : 1,
                                      "suggestedDurationPerCharacter" : 18,
                                      "overlapProportion" : "3/4",
                                      "movement" : 30,
                                      "springDamping" : 5.0,
                                      "springStiffness" : 50.0,
                                      "bounceBounciness" : 0.45
                                    }
                                  
                                  },
                                  "center" : {
                                    "attributes" : {
                                      "name" : "pulsate",
                                      "type" : 1,
                                      "characterOrder" : 6,
                                      "offsetBetweenCharacters" : "21/10",
                                      "secondsPerLoop" : 1,
                                      "numberOfLoops" : -1,
                                      "delayBetweenLoops" : 0,
                                      "offsetBetweenCharacters" : "21/10"
                                    },
                                    "parameters" : {
                                      "movement" : {
                                        "type" : "int",
                                        "valueBounds" : {
                                          "minValue" : 0,
                                          "maxValue" : 31,
                                          "defaultValue" : 27
                                        },
                                        "uiHints" : {
                                          "userInterfaceType" : 4,
                                          "unitType" : 0
                                        },
                                        "keyframes" : [
                                          {
                                            "endTime" : 0,
                                            "time" : 0,
                                            "value" : 27,
                                            "duration" : 0
                                          }
                                        ]
                                      },
                                      "scale" : {
                                        "type" : "double",
                                        "defaultValue" : 1.08,
                                        "interp" : "linr",
                                        "valueBounds" : {
                                          "minValue" : 0.01,
                                          "maxValue" : 2.0,
                                          "defaultValue" : 1.08
                                        },
                                        "uiHints" : {
                                          "userInterfaceType" : 1,
                                          "unitType" : 1
                                        }
                                      }
                                    }
                                  
                                  },
                                  "out" : {
                                    "attributes" : {
                                      "name" : "shrink",
                                      "type" : 1,
                                      "characterOrder" : 6,
                                      "offsetBetweenCharacters" : 1,
                                      "suggestedDurationPerCharacter" : "29/2",
                                      "overlapProportion" : "1/10",
                                      "movement" : 11,
                                      "springDamping" : 5.0,
                                      "springStiffness" : 50.0,
                                      "bounceBounciness" : 0.45
                                    }
                                  
                                  }
                                }
                            ],
                            "start" : 103,
                            "duration" : 97,
                            "mediaStart" : 1,
                            "mediaDuration" : 97,
                            "scalar" : 1,
                            "metadata" : {
                              "clipSpeedAttribute" : false,
                              "default-HAlign" : "center",
                              "default-LineSpace" : 0.0,
                              "default-VAlign" : "center",
                              "default-text-attributes" : "[{\"name\":\"strikethrough\",\"rangeEnd\":21,\"rangeStart\":0,\"value\":0,\"valueType\":\"int\"},{\"name\":\"fontName\",\"rangeEnd\":21,\"rangeStart\":0,\"value\":\"Montserrat\",\"valueType\":\"string\"},{\"name\":\"fontSize\",\"rangeEnd\":21,\"rangeStart\":0,\"value\":96,\"valueType\":\"double\"},{\"name\":\"fontWeight\",\"rangeEnd\":21,\"rangeStart\":0,\"value\":700,\"valueType\":\"int\"},{\"name\":\"fgColor\",\"rangeEnd\":21,\"rangeStart\":0,\"value\":\"(50,108,229,255)\",\"valueType\":\"color\"},{\"name\":\"underline\",\"rangeEnd\":21,\"rangeStart\":0,\"value\":0,\"valueType\":\"int\"},{\"name\":\"kerning\",\"rangeEnd\":21,\"rangeStart\":0,\"value\":0,\"valueType\":\"double\"},{\"name\":\"fontItalic\",\"rangeEnd\":21,\"rangeStart\":0,\"value\":0,\"valueType\":\"int\"}]",
                              "default-translation0" : -74.4178082188969
                            },
                            "animationTracks" : {

                            }
                          }
                        ],
                          "ident" : "",
                          "audioMuted" : false,
                          "videoHidden" : false,
                          "magnetic" : false,
                          "matte" : 0,
                          "metadata" : {
                            "IsLocked" : "False",
                            "WinTrackHeight" : "0"
                          }
                      },
                      {
                        "trackIndex" : 1,
                        "medias" : [
                          {
                            "id" : 818,
                            "_type" : "Group",
                            "parameters" : {
                              "translation0" : {
                                "type" : "double",
                                "defaultValue" : 0.559750733332294,
                                "interp" : "eioe"
                              },
                              "translation1" : {
                                "type" : "double",
                                "defaultValue" : -34.4850472193567,
                                "interp" : "eioe"
                              },
                              "volume" : 1.0
                            },
                            "tracks" : [
                              {
                                "trackIndex" : 0,
                                "medias" : [
                                  {
                                    "id" : 819,
                                    "_type" : "Group",
                                    "parameters" : {
                                      "translation0" : {
                                        "type" : "double",
                                        "defaultValue" : 4.44089209850063e-16,
                                        "interp" : "eioe"
                                      },
                                      "translation1" : {
                                        "type" : "double",
                                        "defaultValue" : -34.4850472193565,
                                        "interp" : "eioe"
                                      },
                                      "volume" : 1.0
                                    },
                                    "tracks" : [
                                      {
                                        "trackIndex" : 0,
                                        "medias" : [
                                          {
                                            "id" : 820,
                                            "_type" : "Group",
                                            "parameters" : {
                                              "translation0" : {
                                                "type" : "double",
                                                "defaultValue" : 0.55975073333218,
                                                "interp" : "eioe"
                                              },
                                              "translation1" : {
                                                "type" : "double",
                                                "defaultValue" : -289.15133998951,
                                                "interp" : "eioe"
                                              },
                                              "volume" : 1.0
                                            },
                                            "tracks" : [
                                              {
                                                "trackIndex" : 0,
                                                "medias" : [
                                                  {
                                                    "id" : 821,
                                                    "_type" : "IMFile",
                                                    "src" : 2,
                                                    "trackNumber" : 0,
                                                    "trimStartSum" : 0,
                                                    "attributes" : {
                                                      "ident" : "wave1"
                                                    },
                                                    "parameters" : {
                                                      "translation0" : {
                                                        "type" : "double",
                                                        "defaultValue" : -2.11950146613311,
                                                        "interp" : "eioe"
                                                      },
                                                      "translation1" : {
                                                        "type" : "double",
                                                        "defaultValue" : 8.96940103546206,
                                                        "interp" : "eioe"
                                                      },
                                                      "scale0" : {
                                                        "type" : "double",
                                                        "defaultValue" : 1.02884111169424,
                                                        "interp" : "eioe"
                                                      },
                                                      "scale1" : {
                                                        "type" : "double",
                                                        "defaultValue" : 1.02884111169424,
                                                        "interp" : "eioe"
                                                      }
                                                    },
                                                    "effects" : [

                                                    ],
                                                    "start" : 0,
                                                    "duration" : 6,
                                                    "mediaStart" : 0,
                                                    "mediaDuration" : 6,
                                                    "scalar" : 1,
                                                    "metadata" : {
                                                      "clipSpeedAttribute" : false
                                                    },
                                                    "animationTracks" : {

                                                    }
                                                  },
                                                  {
                                                    "id" : 822,
                                                    "_type" : "IMFile",
                                                    "src" : 3,
                                                    "trackNumber" : 0,
                                                    "trimStartSum" : 0,
                                                    "attributes" : {
                                                      "ident" : "wave2"
                                                    },
                                                    "parameters" : {
                                                      "translation0" : {
                                                        "type" : "double",
                                                        "defaultValue" : 0.880498533167186,
                                                        "interp" : "eioe"
                                                      },
                                                      "translation1" : {
                                                        "type" : "double",
                                                        "defaultValue" : -88.087642172052,
                                                        "interp" : "eioe"
                                                      },
                                                      "scale0" : {
                                                        "type" : "double",
                                                        "defaultValue" : 1.03068101042332,
                                                        "interp" : "eioe"
                                                      },
                                                      "scale1" : {
                                                        "type" : "double",
                                                        "defaultValue" : 1.03068101042332,
                                                        "interp" : "eioe"
                                                      }
                                                    },
                                                    "effects" : [

                                                    ],
                                                    "start" : 6,
                                                    "duration" : 6,
                                                    "mediaStart" : 0,
                                                    "mediaDuration" : 6,
                                                    "scalar" : 1,
                                                    "metadata" : {
                                                      "clipSpeedAttribute" : false
                                                    },
                                                    "animationTracks" : {

                                                    }
                                                  },
                                                  {
                                                    "id" : 823,
                                                    "_type" : "IMFile",
                                                    "src" : 4,
                                                    "trackNumber" : 0,
                                                    "trimStartSum" : 0,
                                                    "attributes" : {
                                                      "ident" : "wave3"
                                                    },
                                                    "parameters" : {
                                                      "translation0" : {
                                                        "type" : "double",
                                                        "defaultValue" : -1.11950146655987,
                                                        "interp" : "eioe"
                                                      },
                                                      "translation1" : {
                                                        "type" : "double",
                                                        "defaultValue" : 8.12143442823202,
                                                        "interp" : "eioe"
                                                      },
                                                      "scale0" : {
                                                        "type" : "double",
                                                        "defaultValue" : 1.00893326326855,
                                                        "interp" : "eioe"
                                                      },
                                                      "scale1" : {
                                                        "type" : "double",
                                                        "defaultValue" : 1.00893326326855,
                                                        "interp" : "eioe"
                                                      }
                                                    },
                                                    "effects" : [

                                                    ],
                                                    "start" : 12,
                                                    "duration" : 7,
                                                    "mediaStart" : 0,
                                                    "mediaDuration" : 7,
                                                    "scalar" : 1,
                                                    "metadata" : {
                                                      "clipSpeedAttribute" : false
                                                    },
                                                    "animationTracks" : {

                                                    }
                                                  },
                                                  {
                                                    "id" : 824,
                                                    "_type" : "IMFile",
                                                    "src" : 2,
                                                    "trackNumber" : 0,
                                                    "trimStartSum" : 0,
                                                    "attributes" : {
                                                      "ident" : "wave1"
                                                    },
                                                    "parameters" : {
                                                      "translation0" : {
                                                        "type" : "double",
                                                        "defaultValue" : -2.11950146613311,
                                                        "interp" : "eioe"
                                                      },
                                                      "translation1" : {
                                                        "type" : "double",
                                                        "defaultValue" : 8.96940103546206,
                                                        "interp" : "eioe"
                                                      },
                                                      "scale0" : {
                                                        "type" : "double",
                                                        "defaultValue" : 1.02884111169424,
                                                        "interp" : "eioe"
                                                      },
                                                      "scale1" : {
                                                        "type" : "double",
                                                        "defaultValue" : 1.02884111169424,
                                                        "interp" : "eioe"
                                                      }
                                                    },
                                                    "effects" : [

                                                    ],
                                                    "start" : 19,
                                                    "duration" : 6,
                                                    "mediaStart" : 0,
                                                    "mediaDuration" : 6,
                                                    "scalar" : 1,
                                                    "metadata" : {
                                                      "clipSpeedAttribute" : false
                                                    },
                                                    "animationTracks" : {

                                                    }
                                                  },
                                                  {
                                                    "id" : 825,
                                                    "_type" : "IMFile",
                                                    "src" : 3,
                                                    "trackNumber" : 0,
                                                    "trimStartSum" : 0,
                                                    "attributes" : {
                                                      "ident" : "wave2"
                                                    },
                                                    "parameters" : {
                                                      "translation0" : {
                                                        "type" : "double",
                                                        "defaultValue" : 0.880498533167186,
                                                        "interp" : "eioe"
                                                      },
                                                      "translation1" : {
                                                        "type" : "double",
                                                        "defaultValue" : -88.087642172052,
                                                        "interp" : "eioe"
                                                      },
                                                      "scale0" : {
                                                        "type" : "double",
                                                        "defaultValue" : 1.03068101042332,
                                                        "interp" : "eioe"
                                                      },
                                                      "scale1" : {
                                                        "type" : "double",
                                                        "defaultValue" : 1.03068101042332,
                                                        "interp" : "eioe"
                                                      }
                                                    },
                                                    "effects" : [

                                                    ],
                                                    "start" : 25,
                                                    "duration" : 6,
                                                    "mediaStart" : 0,
                                                    "mediaDuration" : 6,
                                                    "scalar" : 1,
                                                    "metadata" : {
                                                      "clipSpeedAttribute" : false
                                                    },
                                                    "animationTracks" : {

                                                    }
                                                  },
                                                  {
                                                    "id" : 826,
                                                    "_type" : "IMFile",
                                                    "src" : 4,
                                                    "trackNumber" : 0,
                                                    "trimStartSum" : 0,
                                                    "attributes" : {
                                                      "ident" : "wave3"
                                                    },
                                                    "parameters" : {
                                                      "translation0" : {
                                                        "type" : "double",
                                                        "defaultValue" : -1.11950146655987,
                                                        "interp" : "eioe"
                                                      },
                                                      "translation1" : {
                                                        "type" : "double",
                                                        "defaultValue" : 8.12143442823202,
                                                        "interp" : "eioe"
                                                      },
                                                      "scale0" : {
                                                        "type" : "double",
                                                        "defaultValue" : 1.00893326326855,
                                                        "interp" : "eioe"
                                                      },
                                                      "scale1" : {
                                                        "type" : "double",
                                                        "defaultValue" : 1.00893326326855,
                                                        "interp" : "eioe"
                                                      }
                                                    },
                                                    "effects" : [

                                                    ],
                                                    "start" : 31,
                                                    "duration" : 7,
                                                    "mediaStart" : 0,
                                                    "mediaDuration" : 7,
                                                    "scalar" : 1,
                                                    "metadata" : {
                                                      "clipSpeedAttribute" : false
                                                    },
                                                    "animationTracks" : {

                                                    }
                                                  },
                                                  {
                                                    "id" : 827,
                                                    "_type" : "IMFile",
                                                    "src" : 2,
                                                    "trackNumber" : 0,
                                                    "trimStartSum" : 0,
                                                    "attributes" : {
                                                      "ident" : "wave1"
                                                    },
                                                    "parameters" : {
                                                      "translation0" : {
                                                        "type" : "double",
                                                        "defaultValue" : -2.11950146613311,
                                                        "interp" : "eioe"
                                                      },
                                                      "translation1" : {
                                                        "type" : "double",
                                                        "defaultValue" : 8.96940103546206,
                                                        "interp" : "eioe"
                                                      },
                                                      "scale0" : {
                                                        "type" : "double",
                                                        "defaultValue" : 1.02884111169424,
                                                        "interp" : "eioe"
                                                      },
                                                      "scale1" : {
                                                        "type" : "double",
                                                        "defaultValue" : 1.02884111169424,
                                                        "interp" : "eioe"
                                                      }
                                                    },
                                                    "effects" : [

                                                    ],
                                                    "start" : 38,
                                                    "duration" : 6,
                                                    "mediaStart" : 0,
                                                    "mediaDuration" : 6,
                                                    "scalar" : 1,
                                                    "metadata" : {
                                                      "clipSpeedAttribute" : false
                                                    },
                                                    "animationTracks" : {

                                                    }
                                                  },
                                                  {
                                                    "id" : 828,
                                                    "_type" : "IMFile",
                                                    "src" : 3,
                                                    "trackNumber" : 0,
                                                    "trimStartSum" : 0,
                                                    "attributes" : {
                                                      "ident" : "wave2"
                                                    },
                                                    "parameters" : {
                                                      "translation0" : {
                                                        "type" : "double",
                                                        "defaultValue" : 0.880498533167186,
                                                        "interp" : "eioe"
                                                      },
                                                      "translation1" : {
                                                        "type" : "double",
                                                        "defaultValue" : -88.087642172052,
                                                        "interp" : "eioe"
                                                      },
                                                      "scale0" : {
                                                        "type" : "double",
                                                        "defaultValue" : 1.03068101042332,
                                                        "interp" : "eioe"
                                                      },
                                                      "scale1" : {
                                                        "type" : "double",
                                                        "defaultValue" : 1.03068101042332,
                                                        "interp" : "eioe"
                                                      }
                                                    },
                                                    "effects" : [

                                                    ],
                                                    "start" : 44,
                                                    "duration" : 6,
                                                    "mediaStart" : 0,
                                                    "mediaDuration" : 6,
                                                    "scalar" : 1,
                                                    "metadata" : {
                                                      "clipSpeedAttribute" : false
                                                    },
                                                    "animationTracks" : {

                                                    }
                                                  },
                                                  {
                                                    "id" : 829,
                                                    "_type" : "IMFile",
                                                    "src" : 4,
                                                    "trackNumber" : 0,
                                                    "trimStartSum" : 0,
                                                    "attributes" : {
                                                      "ident" : "wave3"
                                                    },
                                                    "parameters" : {
                                                      "translation0" : {
                                                        "type" : "double",
                                                        "defaultValue" : -1.11950146655987,
                                                        "interp" : "eioe"
                                                      },
                                                      "translation1" : {
                                                        "type" : "double",
                                                        "defaultValue" : 8.12143442823202,
                                                        "interp" : "eioe"
                                                      },
                                                      "scale0" : {
                                                        "type" : "double",
                                                        "defaultValue" : 1.00893326326855,
                                                        "interp" : "eioe"
                                                      },
                                                      "scale1" : {
                                                        "type" : "double",
                                                        "defaultValue" : 1.00893326326855,
                                                        "interp" : "eioe"
                                                      }
                                                    },
                                                    "effects" : [

                                                    ],
                                                    "start" : 50,
                                                    "duration" : 7,
                                                    "mediaStart" : 0,
                                                    "mediaDuration" : 7,
                                                    "scalar" : 1,
                                                    "metadata" : {
                                                      "clipSpeedAttribute" : false
                                                    },
                                                    "animationTracks" : {

                                                    }
                                                  },
                                                  {
                                                    "id" : 830,
                                                    "_type" : "IMFile",
                                                    "src" : 2,
                                                    "trackNumber" : 0,
                                                    "trimStartSum" : 0,
                                                    "attributes" : {
                                                      "ident" : "wave1"
                                                    },
                                                    "parameters" : {
                                                      "translation0" : {
                                                        "type" : "double",
                                                        "defaultValue" : -2.11950146613311,
                                                        "interp" : "eioe"
                                                      },
                                                      "translation1" : {
                                                        "type" : "double",
                                                        "defaultValue" : 8.96940103546206,
                                                        "interp" : "eioe"
                                                      },
                                                      "scale0" : {
                                                        "type" : "double",
                                                        "defaultValue" : 1.02884111169424,
                                                        "interp" : "eioe"
                                                      },
                                                      "scale1" : {
                                                        "type" : "double",
                                                        "defaultValue" : 1.02884111169424,
                                                        "interp" : "eioe"
                                                      }
                                                    },
                                                    "effects" : [

                                                    ],
                                                    "start" : 57,
                                                    "duration" : 6,
                                                    "mediaStart" : 0,
                                                    "mediaDuration" : 6,
                                                    "scalar" : 1,
                                                    "metadata" : {
                                                      "clipSpeedAttribute" : false
                                                    },
                                                    "animationTracks" : {

                                                    }
                                                  },
                                                  {
                                                    "id" : 831,
                                                    "_type" : "IMFile",
                                                    "src" : 3,
                                                    "trackNumber" : 0,
                                                    "trimStartSum" : 0,
                                                    "attributes" : {
                                                      "ident" : "wave2"
                                                    },
                                                    "parameters" : {
                                                      "translation0" : {
                                                        "type" : "double",
                                                        "defaultValue" : 0.880498533167186,
                                                        "interp" : "eioe"
                                                      },
                                                      "translation1" : {
                                                        "type" : "double",
                                                        "defaultValue" : -88.087642172052,
                                                        "interp" : "eioe"
                                                      },
                                                      "scale0" : {
                                                        "type" : "double",
                                                        "defaultValue" : 1.03068101042332,
                                                        "interp" : "eioe"
                                                      },
                                                      "scale1" : {
                                                        "type" : "double",
                                                        "defaultValue" : 1.03068101042332,
                                                        "interp" : "eioe"
                                                      }
                                                    },
                                                    "effects" : [

                                                    ],
                                                    "start" : 63,
                                                    "duration" : 6,
                                                    "mediaStart" : 0,
                                                    "mediaDuration" : 6,
                                                    "scalar" : 1,
                                                    "metadata" : {
                                                      "clipSpeedAttribute" : false
                                                    },
                                                    "animationTracks" : {

                                                    }
                                                  },
                                                  {
                                                    "id" : 832,
                                                    "_type" : "IMFile",
                                                    "src" : 4,
                                                    "trackNumber" : 0,
                                                    "trimStartSum" : 0,
                                                    "attributes" : {
                                                      "ident" : "wave3"
                                                    },
                                                    "parameters" : {
                                                      "translation0" : {
                                                        "type" : "double",
                                                        "defaultValue" : -1.11950146655987,
                                                        "interp" : "eioe"
                                                      },
                                                      "translation1" : {
                                                        "type" : "double",
                                                        "defaultValue" : 8.12143442823202,
                                                        "interp" : "eioe"
                                                      },
                                                      "scale0" : {
                                                        "type" : "double",
                                                        "defaultValue" : 1.00893326326855,
                                                        "interp" : "eioe"
                                                      },
                                                      "scale1" : {
                                                        "type" : "double",
                                                        "defaultValue" : 1.00893326326855,
                                                        "interp" : "eioe"
                                                      }
                                                    },
                                                    "effects" : [

                                                    ],
                                                    "start" : 69,
                                                    "duration" : 7,
                                                    "mediaStart" : 0,
                                                    "mediaDuration" : 7,
                                                    "scalar" : 1,
                                                    "metadata" : {
                                                      "clipSpeedAttribute" : false
                                                    },
                                                    "animationTracks" : {

                                                    }
                                                  },
                                                  {
                                                    "id" : 833,
                                                    "_type" : "IMFile",
                                                    "src" : 2,
                                                    "trackNumber" : 0,
                                                    "trimStartSum" : 0,
                                                    "attributes" : {
                                                      "ident" : "wave1"
                                                    },
                                                    "parameters" : {
                                                      "translation0" : {
                                                        "type" : "double",
                                                        "defaultValue" : -2.11950146613311,
                                                        "interp" : "eioe"
                                                      },
                                                      "translation1" : {
                                                        "type" : "double",
                                                        "defaultValue" : 8.96940103546206,
                                                        "interp" : "eioe"
                                                      },
                                                      "scale0" : {
                                                        "type" : "double",
                                                        "defaultValue" : 1.02884111169424,
                                                        "interp" : "eioe"
                                                      },
                                                      "scale1" : {
                                                        "type" : "double",
                                                        "defaultValue" : 1.02884111169424,
                                                        "interp" : "eioe"
                                                      }
                                                    },
                                                    "effects" : [

                                                    ],
                                                    "start" : 76,
                                                    "duration" : 6,
                                                    "mediaStart" : 0,
                                                    "mediaDuration" : 6,
                                                    "scalar" : 1,
                                                    "metadata" : {
                                                      "clipSpeedAttribute" : false
                                                    },
                                                    "animationTracks" : {

                                                    }
                                                  },
                                                  {
                                                    "id" : 834,
                                                    "_type" : "IMFile",
                                                    "src" : 3,
                                                    "trackNumber" : 0,
                                                    "trimStartSum" : 0,
                                                    "attributes" : {
                                                      "ident" : "wave2"
                                                    },
                                                    "parameters" : {
                                                      "translation0" : {
                                                        "type" : "double",
                                                        "defaultValue" : 0.880498533167186,
                                                        "interp" : "eioe"
                                                      },
                                                      "translation1" : {
                                                        "type" : "double",
                                                        "defaultValue" : -88.087642172052,
                                                        "interp" : "eioe"
                                                      },
                                                      "scale0" : {
                                                        "type" : "double",
                                                        "defaultValue" : 1.03068101042332,
                                                        "interp" : "eioe"
                                                      },
                                                      "scale1" : {
                                                        "type" : "double",
                                                        "defaultValue" : 1.03068101042332,
                                                        "interp" : "eioe"
                                                      }
                                                    },
                                                    "effects" : [

                                                    ],
                                                    "start" : 82,
                                                    "duration" : 6,
                                                    "mediaStart" : 0,
                                                    "mediaDuration" : 6,
                                                    "scalar" : 1,
                                                    "metadata" : {
                                                      "clipSpeedAttribute" : false
                                                    },
                                                    "animationTracks" : {

                                                    }
                                                  },
                                                  {
                                                    "id" : 835,
                                                    "_type" : "IMFile",
                                                    "src" : 4,
                                                    "trackNumber" : 0,
                                                    "trimStartSum" : 0,
                                                    "attributes" : {
                                                      "ident" : "wave3"
                                                    },
                                                    "parameters" : {
                                                      "translation0" : {
                                                        "type" : "double",
                                                        "defaultValue" : -1.11950146655987,
                                                        "interp" : "eioe"
                                                      },
                                                      "translation1" : {
                                                        "type" : "double",
                                                        "defaultValue" : 8.12143442823202,
                                                        "interp" : "eioe"
                                                      },
                                                      "scale0" : {
                                                        "type" : "double",
                                                        "defaultValue" : 1.00893326326855,
                                                        "interp" : "eioe"
                                                      },
                                                      "scale1" : {
                                                        "type" : "double",
                                                        "defaultValue" : 1.00893326326855,
                                                        "interp" : "eioe"
                                                      }
                                                    },
                                                    "effects" : [

                                                    ],
                                                    "start" : 88,
                                                    "duration" : 7,
                                                    "mediaStart" : 0,
                                                    "mediaDuration" : 7,
                                                    "scalar" : 1,
                                                    "metadata" : {
                                                      "clipSpeedAttribute" : false
                                                    },
                                                    "animationTracks" : {

                                                    }
                                                  },
                                                  {
                                                    "id" : 836,
                                                    "_type" : "IMFile",
                                                    "src" : 2,
                                                    "trackNumber" : 0,
                                                    "trimStartSum" : 0,
                                                    "attributes" : {
                                                      "ident" : "wave1"
                                                    },
                                                    "parameters" : {
                                                      "translation0" : {
                                                        "type" : "double",
                                                        "defaultValue" : -2.11950146613311,
                                                        "interp" : "eioe"
                                                      },
                                                      "translation1" : {
                                                        "type" : "double",
                                                        "defaultValue" : 8.96940103546206,
                                                        "interp" : "eioe"
                                                      },
                                                      "scale0" : {
                                                        "type" : "double",
                                                        "defaultValue" : 1.02884111169424,
                                                        "interp" : "eioe"
                                                      },
                                                      "scale1" : {
                                                        "type" : "double",
                                                        "defaultValue" : 1.02884111169424,
                                                        "interp" : "eioe"
                                                      }
                                                    },
                                                    "effects" : [

                                                    ],
                                                    "start" : 95,
                                                    "duration" : 6,
                                                    "mediaStart" : 0,
                                                    "mediaDuration" : 6,
                                                    "scalar" : 1,
                                                    "metadata" : {
                                                      "clipSpeedAttribute" : false
                                                    },
                                                    "animationTracks" : {

                                                    }
                                                  },
                                                  {
                                                    "id" : 837,
                                                    "_type" : "IMFile",
                                                    "src" : 3,
                                                    "trackNumber" : 0,
                                                    "trimStartSum" : 0,
                                                    "attributes" : {
                                                      "ident" : "wave2"
                                                    },
                                                    "parameters" : {
                                                      "translation0" : {
                                                        "type" : "double",
                                                        "defaultValue" : 0.880498533167186,
                                                        "interp" : "eioe"
                                                      },
                                                      "translation1" : {
                                                        "type" : "double",
                                                        "defaultValue" : -88.087642172052,
                                                        "interp" : "eioe"
                                                      },
                                                      "scale0" : {
                                                        "type" : "double",
                                                        "defaultValue" : 1.03068101042332,
                                                        "interp" : "eioe"
                                                      },
                                                      "scale1" : {
                                                        "type" : "double",
                                                        "defaultValue" : 1.03068101042332,
                                                        "interp" : "eioe"
                                                      }
                                                    },
                                                    "effects" : [

                                                    ],
                                                    "start" : 101,
                                                    "duration" : 6,
                                                    "mediaStart" : 0,
                                                    "mediaDuration" : 6,
                                                    "scalar" : 1,
                                                    "metadata" : {
                                                      "clipSpeedAttribute" : false
                                                    },
                                                    "animationTracks" : {

                                                    }
                                                  },
                                                  {
                                                    "id" : 838,
                                                    "_type" : "IMFile",
                                                    "src" : 4,
                                                    "trackNumber" : 0,
                                                    "trimStartSum" : 0,
                                                    "attributes" : {
                                                      "ident" : "wave3"
                                                    },
                                                    "parameters" : {
                                                      "translation0" : {
                                                        "type" : "double",
                                                        "defaultValue" : -1.11950146655987,
                                                        "interp" : "eioe"
                                                      },
                                                      "translation1" : {
                                                        "type" : "double",
                                                        "defaultValue" : 8.12143442823202,
                                                        "interp" : "eioe"
                                                      },
                                                      "scale0" : {
                                                        "type" : "double",
                                                        "defaultValue" : 1.00893326326855,
                                                        "interp" : "eioe"
                                                      },
                                                      "scale1" : {
                                                        "type" : "double",
                                                        "defaultValue" : 1.00893326326855,
                                                        "interp" : "eioe"
                                                      }
                                                    },
                                                    "effects" : [

                                                    ],
                                                    "start" : 107,
                                                    "duration" : 7,
                                                    "mediaStart" : 0,
                                                    "mediaDuration" : 7,
                                                    "scalar" : 1,
                                                    "metadata" : {
                                                      "clipSpeedAttribute" : false
                                                    },
                                                    "animationTracks" : {

                                                    }
                                                  },
                                                  {
                                                    "id" : 839,
                                                    "_type" : "IMFile",
                                                    "src" : 2,
                                                    "trackNumber" : 0,
                                                    "trimStartSum" : 0,
                                                    "attributes" : {
                                                      "ident" : "wave1"
                                                    },
                                                    "parameters" : {
                                                      "translation0" : {
                                                        "type" : "double",
                                                        "defaultValue" : -2.11950146613311,
                                                        "interp" : "eioe"
                                                      },
                                                      "translation1" : {
                                                        "type" : "double",
                                                        "defaultValue" : 8.96940103546206,
                                                        "interp" : "eioe"
                                                      },
                                                      "scale0" : {
                                                        "type" : "double",
                                                        "defaultValue" : 1.02884111169424,
                                                        "interp" : "eioe"
                                                      },
                                                      "scale1" : {
                                                        "type" : "double",
                                                        "defaultValue" : 1.02884111169424,
                                                        "interp" : "eioe"
                                                      }
                                                    },
                                                    "effects" : [

                                                    ],
                                                    "start" : 114,
                                                    "duration" : 6,
                                                    "mediaStart" : 0,
                                                    "mediaDuration" : 6,
                                                    "scalar" : 1,
                                                    "metadata" : {
                                                      "clipSpeedAttribute" : false
                                                    },
                                                    "animationTracks" : {

                                                    }
                                                  },
                                                  {
                                                    "id" : 840,
                                                    "_type" : "IMFile",
                                                    "src" : 3,
                                                    "trackNumber" : 0,
                                                    "trimStartSum" : 0,
                                                    "attributes" : {
                                                      "ident" : "wave2"
                                                    },
                                                    "parameters" : {
                                                      "translation0" : {
                                                        "type" : "double",
                                                        "defaultValue" : 0.880498533167186,
                                                        "interp" : "eioe"
                                                      },
                                                      "translation1" : {
                                                        "type" : "double",
                                                        "defaultValue" : -88.087642172052,
                                                        "interp" : "eioe"
                                                      },
                                                      "scale0" : {
                                                        "type" : "double",
                                                        "defaultValue" : 1.03068101042332,
                                                        "interp" : "eioe"
                                                      },
                                                      "scale1" : {
                                                        "type" : "double",
                                                        "defaultValue" : 1.03068101042332,
                                                        "interp" : "eioe"
                                                      }
                                                    },
                                                    "effects" : [

                                                    ],
                                                    "start" : 120,
                                                    "duration" : 6,
                                                    "mediaStart" : 0,
                                                    "mediaDuration" : 6,
                                                    "scalar" : 1,
                                                    "metadata" : {
                                                      "clipSpeedAttribute" : false
                                                    },
                                                    "animationTracks" : {

                                                    }
                                                  },
                                                  {
                                                    "id" : 841,
                                                    "_type" : "IMFile",
                                                    "src" : 4,
                                                    "trackNumber" : 0,
                                                    "trimStartSum" : 0,
                                                    "attributes" : {
                                                      "ident" : "wave3"
                                                    },
                                                    "parameters" : {
                                                      "translation0" : {
                                                        "type" : "double",
                                                        "defaultValue" : -1.11950146655987,
                                                        "interp" : "eioe"
                                                      },
                                                      "translation1" : {
                                                        "type" : "double",
                                                        "defaultValue" : 8.12143442823202,
                                                        "interp" : "eioe"
                                                      },
                                                      "scale0" : {
                                                        "type" : "double",
                                                        "defaultValue" : 1.00893326326855,
                                                        "interp" : "eioe"
                                                      },
                                                      "scale1" : {
                                                        "type" : "double",
                                                        "defaultValue" : 1.00893326326855,
                                                        "interp" : "eioe"
                                                      }
                                                    },
                                                    "effects" : [

                                                    ],
                                                    "start" : 126,
                                                    "duration" : 7,
                                                    "mediaStart" : 0,
                                                    "mediaDuration" : 7,
                                                    "scalar" : 1,
                                                    "metadata" : {
                                                      "clipSpeedAttribute" : false
                                                    },
                                                    "animationTracks" : {

                                                    }
                                                  },
                                                  {
                                                    "id" : 842,
                                                    "_type" : "IMFile",
                                                    "src" : 2,
                                                    "trackNumber" : 0,
                                                    "trimStartSum" : 0,
                                                    "attributes" : {
                                                      "ident" : "wave1"
                                                    },
                                                    "parameters" : {
                                                      "translation0" : {
                                                        "type" : "double",
                                                        "defaultValue" : -2.11950146613311,
                                                        "interp" : "eioe"
                                                      },
                                                      "translation1" : {
                                                        "type" : "double",
                                                        "defaultValue" : 8.96940103546206,
                                                        "interp" : "eioe"
                                                      },
                                                      "scale0" : {
                                                        "type" : "double",
                                                        "defaultValue" : 1.02884111169424,
                                                        "interp" : "eioe"
                                                      },
                                                      "scale1" : {
                                                        "type" : "double",
                                                        "defaultValue" : 1.02884111169424,
                                                        "interp" : "eioe"
                                                      }
                                                    },
                                                    "effects" : [

                                                    ],
                                                    "start" : 133,
                                                    "duration" : 6,
                                                    "mediaStart" : 0,
                                                    "mediaDuration" : 6,
                                                    "scalar" : 1,
                                                    "metadata" : {
                                                      "clipSpeedAttribute" : false
                                                    },
                                                    "animationTracks" : {

                                                    }
                                                  },
                                                  {
                                                    "id" : 843,
                                                    "_type" : "IMFile",
                                                    "src" : 3,
                                                    "trackNumber" : 0,
                                                    "trimStartSum" : 0,
                                                    "attributes" : {
                                                      "ident" : "wave2"
                                                    },
                                                    "parameters" : {
                                                      "translation0" : {
                                                        "type" : "double",
                                                        "defaultValue" : 0.880498533167186,
                                                        "interp" : "eioe"
                                                      },
                                                      "translation1" : {
                                                        "type" : "double",
                                                        "defaultValue" : -88.087642172052,
                                                        "interp" : "eioe"
                                                      },
                                                      "scale0" : {
                                                        "type" : "double",
                                                        "defaultValue" : 1.03068101042332,
                                                        "interp" : "eioe"
                                                      },
                                                      "scale1" : {
                                                        "type" : "double",
                                                        "defaultValue" : 1.03068101042332,
                                                        "interp" : "eioe"
                                                      }
                                                    },
                                                    "effects" : [

                                                    ],
                                                    "start" : 139,
                                                    "duration" : 6,
                                                    "mediaStart" : 0,
                                                    "mediaDuration" : 6,
                                                    "scalar" : 1,
                                                    "metadata" : {
                                                      "clipSpeedAttribute" : false
                                                    },
                                                    "animationTracks" : {

                                                    }
                                                  },
                                                  {
                                                    "id" : 844,
                                                    "_type" : "IMFile",
                                                    "src" : 4,
                                                    "trackNumber" : 0,
                                                    "trimStartSum" : 0,
                                                    "attributes" : {
                                                      "ident" : "wave3"
                                                    },
                                                    "parameters" : {
                                                      "translation0" : {
                                                        "type" : "double",
                                                        "defaultValue" : -1.11950146655987,
                                                        "interp" : "eioe"
                                                      },
                                                      "translation1" : {
                                                        "type" : "double",
                                                        "defaultValue" : 8.12143442823202,
                                                        "interp" : "eioe"
                                                      },
                                                      "scale0" : {
                                                        "type" : "double",
                                                        "defaultValue" : 1.00893326326855,
                                                        "interp" : "eioe"
                                                      },
                                                      "scale1" : {
                                                        "type" : "double",
                                                        "defaultValue" : 1.00893326326855,
                                                        "interp" : "eioe"
                                                      }
                                                    },
                                                    "effects" : [

                                                    ],
                                                    "start" : 145,
                                                    "duration" : 7,
                                                    "mediaStart" : 0,
                                                    "mediaDuration" : 7,
                                                    "scalar" : 1,
                                                    "metadata" : {
                                                      "clipSpeedAttribute" : false
                                                    },
                                                    "animationTracks" : {

                                                    }
                                                  },
                                                  {
                                                    "id" : 845,
                                                    "_type" : "IMFile",
                                                    "src" : 2,
                                                    "trackNumber" : 0,
                                                    "trimStartSum" : 0,
                                                    "attributes" : {
                                                      "ident" : "wave1"
                                                    },
                                                    "parameters" : {
                                                      "translation0" : {
                                                        "type" : "double",
                                                        "defaultValue" : -2.11950146613311,
                                                        "interp" : "eioe"
                                                      },
                                                      "translation1" : {
                                                        "type" : "double",
                                                        "defaultValue" : 8.96940103546206,
                                                        "interp" : "eioe"
                                                      },
                                                      "scale0" : {
                                                        "type" : "double",
                                                        "defaultValue" : 1.02884111169424,
                                                        "interp" : "eioe"
                                                      },
                                                      "scale1" : {
                                                        "type" : "double",
                                                        "defaultValue" : 1.02884111169424,
                                                        "interp" : "eioe"
                                                      }
                                                    },
                                                    "effects" : [

                                                    ],
                                                    "start" : 152,
                                                    "duration" : 6,
                                                    "mediaStart" : 0,
                                                    "mediaDuration" : 6,
                                                    "scalar" : 1,
                                                    "metadata" : {
                                                      "clipSpeedAttribute" : false
                                                    },
                                                    "animationTracks" : {

                                                    }
                                                  },
                                                  {
                                                    "id" : 846,
                                                    "_type" : "IMFile",
                                                    "src" : 3,
                                                    "trackNumber" : 0,
                                                    "trimStartSum" : 0,
                                                    "attributes" : {
                                                      "ident" : "wave2"
                                                    },
                                                    "parameters" : {
                                                      "translation0" : {
                                                        "type" : "double",
                                                        "defaultValue" : 0.880498533167186,
                                                        "interp" : "eioe"
                                                      },
                                                      "translation1" : {
                                                        "type" : "double",
                                                        "defaultValue" : -88.087642172052,
                                                        "interp" : "eioe"
                                                      },
                                                      "scale0" : {
                                                        "type" : "double",
                                                        "defaultValue" : 1.03068101042332,
                                                        "interp" : "eioe"
                                                      },
                                                      "scale1" : {
                                                        "type" : "double",
                                                        "defaultValue" : 1.03068101042332,
                                                        "interp" : "eioe"
                                                      }
                                                    },
                                                    "effects" : [

                                                    ],
                                                    "start" : 158,
                                                    "duration" : 6,
                                                    "mediaStart" : 0,
                                                    "mediaDuration" : 6,
                                                    "scalar" : 1,
                                                    "metadata" : {
                                                      "clipSpeedAttribute" : false
                                                    },
                                                    "animationTracks" : {

                                                    }
                                                  },
                                                  {
                                                    "id" : 847,
                                                    "_type" : "IMFile",
                                                    "src" : 4,
                                                    "trackNumber" : 0,
                                                    "trimStartSum" : 0,
                                                    "attributes" : {
                                                      "ident" : "wave3"
                                                    },
                                                    "parameters" : {
                                                      "translation0" : {
                                                        "type" : "double",
                                                        "defaultValue" : -1.11950146655987,
                                                        "interp" : "eioe"
                                                      },
                                                      "translation1" : {
                                                        "type" : "double",
                                                        "defaultValue" : 8.12143442823202,
                                                        "interp" : "eioe"
                                                      },
                                                      "scale0" : {
                                                        "type" : "double",
                                                        "defaultValue" : 1.00893326326855,
                                                        "interp" : "eioe"
                                                      },
                                                      "scale1" : {
                                                        "type" : "double",
                                                        "defaultValue" : 1.00893326326855,
                                                        "interp" : "eioe"
                                                      }
                                                    },
                                                    "effects" : [

                                                    ],
                                                    "start" : 164,
                                                    "duration" : 7,
                                                    "mediaStart" : 0,
                                                    "mediaDuration" : 7,
                                                    "scalar" : 1,
                                                    "metadata" : {
                                                      "clipSpeedAttribute" : false
                                                    },
                                                    "animationTracks" : {

                                                    }
                                                  },
                                                  {
                                                    "id" : 848,
                                                    "_type" : "IMFile",
                                                    "src" : 2,
                                                    "trackNumber" : 0,
                                                    "trimStartSum" : 0,
                                                    "attributes" : {
                                                      "ident" : "wave1"
                                                    },
                                                    "parameters" : {
                                                      "translation0" : {
                                                        "type" : "double",
                                                        "defaultValue" : -2.11950146613311,
                                                        "interp" : "eioe"
                                                      },
                                                      "translation1" : {
                                                        "type" : "double",
                                                        "defaultValue" : 8.96940103546206,
                                                        "interp" : "eioe"
                                                      },
                                                      "scale0" : {
                                                        "type" : "double",
                                                        "defaultValue" : 1.02884111169424,
                                                        "interp" : "eioe"
                                                      },
                                                      "scale1" : {
                                                        "type" : "double",
                                                        "defaultValue" : 1.02884111169424,
                                                        "interp" : "eioe"
                                                      }
                                                    },
                                                    "effects" : [

                                                    ],
                                                    "start" : 171,
                                                    "duration" : 6,
                                                    "mediaStart" : 0,
                                                    "mediaDuration" : 6,
                                                    "scalar" : 1,
                                                    "metadata" : {
                                                      "clipSpeedAttribute" : false
                                                    },
                                                    "animationTracks" : {

                                                    }
                                                  },
                                                  {
                                                    "id" : 849,
                                                    "_type" : "IMFile",
                                                    "src" : 3,
                                                    "trackNumber" : 0,
                                                    "trimStartSum" : 0,
                                                    "attributes" : {
                                                      "ident" : "wave2"
                                                    },
                                                    "parameters" : {
                                                      "translation0" : {
                                                        "type" : "double",
                                                        "defaultValue" : 0.880498533167186,
                                                        "interp" : "eioe"
                                                      },
                                                      "translation1" : {
                                                        "type" : "double",
                                                        "defaultValue" : -88.087642172052,
                                                        "interp" : "eioe"
                                                      },
                                                      "scale0" : {
                                                        "type" : "double",
                                                        "defaultValue" : 1.03068101042332,
                                                        "interp" : "eioe"
                                                      },
                                                      "scale1" : {
                                                        "type" : "double",
                                                        "defaultValue" : 1.03068101042332,
                                                        "interp" : "eioe"
                                                      }
                                                    },
                                                    "effects" : [

                                                    ],
                                                    "start" : 177,
                                                    "duration" : 6,
                                                    "mediaStart" : 0,
                                                    "mediaDuration" : 6,
                                                    "scalar" : 1,
                                                    "metadata" : {
                                                      "clipSpeedAttribute" : false
                                                    },
                                                    "animationTracks" : {

                                                    }
                                                  },
                                                  {
                                                    "id" : 850,
                                                    "_type" : "IMFile",
                                                    "src" : 4,
                                                    "trackNumber" : 0,
                                                    "trimStartSum" : 0,
                                                    "attributes" : {
                                                      "ident" : "wave3"
                                                    },
                                                    "parameters" : {
                                                      "translation0" : {
                                                        "type" : "double",
                                                        "defaultValue" : -1.11950146655987,
                                                        "interp" : "eioe"
                                                      },
                                                      "translation1" : {
                                                        "type" : "double",
                                                        "defaultValue" : 8.12143442823202,
                                                        "interp" : "eioe"
                                                      },
                                                      "scale0" : {
                                                        "type" : "double",
                                                        "defaultValue" : 1.00893326326855,
                                                        "interp" : "eioe"
                                                      },
                                                      "scale1" : {
                                                        "type" : "double",
                                                        "defaultValue" : 1.00893326326855,
                                                        "interp" : "eioe"
                                                      }
                                                    },
                                                    "effects" : [

                                                    ],
                                                    "start" : 183,
                                                    "duration" : 7,
                                                    "mediaStart" : 0,
                                                    "mediaDuration" : 7,
                                                    "scalar" : 1,
                                                    "metadata" : {
                                                      "clipSpeedAttribute" : false
                                                    },
                                                    "animationTracks" : {

                                                    }
                                                  },
                                                  {
                                                    "id" : 851,
                                                    "_type" : "IMFile",
                                                    "src" : 2,
                                                    "trackNumber" : 0,
                                                    "trimStartSum" : 0,
                                                    "attributes" : {
                                                      "ident" : "wave1"
                                                    },
                                                    "parameters" : {
                                                      "translation0" : {
                                                        "type" : "double",
                                                        "defaultValue" : -2.11950146613311,
                                                        "interp" : "eioe"
                                                      },
                                                      "translation1" : {
                                                        "type" : "double",
                                                        "defaultValue" : 8.96940103546206,
                                                        "interp" : "eioe"
                                                      },
                                                      "scale0" : {
                                                        "type" : "double",
                                                        "defaultValue" : 1.02884111169424,
                                                        "interp" : "eioe"
                                                      },
                                                      "scale1" : {
                                                        "type" : "double",
                                                        "defaultValue" : 1.02884111169424,
                                                        "interp" : "eioe"
                                                      }
                                                    },
                                                    "effects" : [

                                                    ],
                                                    "start" : 190,
                                                    "duration" : 6,
                                                    "mediaStart" : 0,
                                                    "mediaDuration" : 6,
                                                    "scalar" : 1,
                                                    "metadata" : {
                                                      "clipSpeedAttribute" : false
                                                    },
                                                    "animationTracks" : {

                                                    }
                                                  },
                                                  {
                                                    "id" : 852,
                                                    "_type" : "IMFile",
                                                    "src" : 3,
                                                    "trackNumber" : 0,
                                                    "trimStartSum" : 0,
                                                    "attributes" : {
                                                      "ident" : "wave2"
                                                    },
                                                    "parameters" : {
                                                      "translation0" : {
                                                        "type" : "double",
                                                        "defaultValue" : 0.880498533167186,
                                                        "interp" : "eioe"
                                                      },
                                                      "translation1" : {
                                                        "type" : "double",
                                                        "defaultValue" : -88.087642172052,
                                                        "interp" : "eioe"
                                                      },
                                                      "scale0" : {
                                                        "type" : "double",
                                                        "defaultValue" : 1.03068101042332,
                                                        "interp" : "eioe"
                                                      },
                                                      "scale1" : {
                                                        "type" : "double",
                                                        "defaultValue" : 1.03068101042332,
                                                        "interp" : "eioe"
                                                      }
                                                    },
                                                    "effects" : [

                                                    ],
                                                    "start" : 196,
                                                    "duration" : 4,
                                                    "mediaStart" : 0,
                                                    "mediaDuration" : 4,
                                                    "scalar" : 1,
                                                    "metadata" : {
                                                      "clipSpeedAttribute" : false
                                                    },
                                                    "animationTracks" : {

                                                    }
                                                  }
                                                ],
                                                  "ident" : "",
                                                  "audioMuted" : false,
                                                  "videoHidden" : false,
                                                  "magnetic" : false,
                                                  "matte" : 0,
                                                  "metadata" : {
                                                    "IsLocked" : "False",
                                                    "WinTrackHeight" : "0"
                                                  }
                                              },
                                              {
                                                "trackIndex" : 1,
                                                "medias" : [
                                                  {
                                                    "id" : 853,
                                                    "_type" : "IMFile",
                                                    "src" : 5,
                                                    "trackNumber" : 0,
                                                    "trimStartSum" : 0,
                                                    "attributes" : {
                                                      "ident" : "control-plane-128"
                                                    },
                                                    "parameters" : {
                                                      "translation0" : {
                                                        "type" : "double",
                                                        "defaultValue" : -785.119501466663,
                                                        "interp" : "eioe"
                                                      },
                                                      "translation1" : {
                                                        "type" : "double",
                                                        "defaultValue" : 199.818754449228,
                                                        "interp" : "eioe"
                                                      }
                                                    },
                                                    "effects" : [

                                                    ],
                                                    "start" : 0,
                                                    "duration" : 19,
                                                    "mediaStart" : 0,
                                                    "mediaDuration" : 19,
                                                    "scalar" : 1,
                                                    "metadata" : {
                                                      "clipSpeedAttribute" : false
                                                    },
                                                    "animationTracks" : {

                                                    }
                                                  },
                                                  {
                                                    "id" : 854,
                                                    "_type" : "IMFile",
                                                    "src" : 6,
                                                    "trackNumber" : 0,
                                                    "trimStartSum" : 0,
                                                    "attributes" : {
                                                      "ident" : "etcd-128"
                                                    },
                                                    "parameters" : {
                                                      "translation0" : {
                                                        "type" : "double",
                                                        "defaultValue" : -655.119501466745,
                                                        "interp" : "eioe"
                                                      },
                                                      "translation1" : {
                                                        "type" : "double",
                                                        "defaultValue" : 120.373795393553,
                                                        "interp" : "eioe"
                                                      }
                                                    },
                                                    "effects" : [

                                                    ],
                                                    "start" : 19,
                                                    "duration" : 22,
                                                    "mediaStart" : 0,
                                                    "mediaDuration" : 22,
                                                    "scalar" : 1,
                                                    "metadata" : {
                                                      "clipSpeedAttribute" : false
                                                    },
                                                    "animationTracks" : {

                                                    }
                                                  },
                                                  {
                                                    "id" : 855,
                                                    "_type" : "IMFile",
                                                    "src" : 7,
                                                    "trackNumber" : 0,
                                                    "trimStartSum" : 0,
                                                    "attributes" : {
                                                      "ident" : "node-128"
                                                    },
                                                    "parameters" : {
                                                      "translation0" : {
                                                        "type" : "double",
                                                        "defaultValue" : -315.119501466444,
                                                        "interp" : "eioe"
                                                      },
                                                      "translation1" : {
                                                        "type" : "double",
                                                        "defaultValue" : 135.818754449343,
                                                        "interp" : "eioe"
                                                      }
                                                    },
                                                    "effects" : [

                                                    ],
                                                    "start" : 41,
                                                    "duration" : 18,
                                                    "mediaStart" : 0,
                                                    "mediaDuration" : 18,
                                                    "scalar" : 1,
                                                    "metadata" : {
                                                      "clipSpeedAttribute" : false
                                                    },
                                                    "animationTracks" : {

                                                    }
                                                  },
                                                  {
                                                    "id" : 856,
                                                    "_type" : "IMFile",
                                                    "src" : 8,
                                                    "trackNumber" : 0,
                                                    "trimStartSum" : 0,
                                                    "attributes" : {
                                                      "ident" : "ns-128"
                                                    },
                                                    "parameters" : {
                                                      "translation0" : {
                                                        "type" : "double",
                                                        "defaultValue" : -345.11950146672,
                                                        "interp" : "eioe"
                                                      },
                                                      "translation1" : {
                                                        "type" : "double",
                                                        "defaultValue" : 158.121434428201,
                                                        "interp" : "eioe"
                                                      }
                                                    },
                                                    "effects" : [

                                                    ],
                                                    "start" : 59,
                                                    "duration" : 23,
                                                    "mediaStart" : 0,
                                                    "mediaDuration" : 23,
                                                    "scalar" : 1,
                                                    "metadata" : {
                                                      "clipSpeedAttribute" : false
                                                    },
                                                    "animationTracks" : {

                                                    }
                                                  },
                                                  {
                                                    "id" : 857,
                                                    "_type" : "IMFile",
                                                    "src" : 9,
                                                    "trackNumber" : 0,
                                                    "trimStartSum" : 0,
                                                    "attributes" : {
                                                      "ident" : "pod-128"
                                                    },
                                                    "parameters" : {
                                                      "translation0" : {
                                                        "type" : "double",
                                                        "defaultValue" : -91.1195014666742,
                                                        "interp" : "eioe"
                                                      },
                                                      "translation1" : {
                                                        "type" : "double",
                                                        "defaultValue" : 100.121434428219,
                                                        "interp" : "eioe"
                                                      }
                                                    },
                                                    "effects" : [

                                                    ],
                                                    "start" : 82,
                                                    "duration" : 16,
                                                    "mediaStart" : 0,
                                                    "mediaDuration" : 16,
                                                    "scalar" : 1,
                                                    "metadata" : {
                                                      "clipSpeedAttribute" : false
                                                    },
                                                    "animationTracks" : {

                                                    }
                                                  },
                                                  {
                                                    "id" : 858,
                                                    "_type" : "IMFile",
                                                    "src" : 10,
                                                    "trackNumber" : 0,
                                                    "trimStartSum" : 0,
                                                    "attributes" : {
                                                      "ident" : "secret-128"
                                                    },
                                                    "parameters" : {
                                                      "translation0" : {
                                                        "type" : "double",
                                                        "defaultValue" : -1.11950146666447,
                                                        "interp" : "eioe"
                                                      },
                                                      "translation1" : {
                                                        "type" : "double",
                                                        "defaultValue" : 140.121434428194,
                                                        "interp" : "eioe"
                                                      }
                                                    },
                                                    "effects" : [

                                                    ],
                                                    "start" : 98,
                                                    "duration" : 17,
                                                    "mediaStart" : 0,
                                                    "mediaDuration" : 17,
                                                    "scalar" : 1,
                                                    "metadata" : {
                                                      "clipSpeedAttribute" : false
                                                    },
                                                    "animationTracks" : {

                                                    }
                                                  },
                                                  {
                                                    "id" : 859,
                                                    "_type" : "IMFile",
                                                    "src" : 11,
                                                    "trackNumber" : 0,
                                                    "trimStartSum" : 0,
                                                    "attributes" : {
                                                      "ident" : "svc-128"
                                                    },
                                                    "parameters" : {
                                                      "translation0" : {
                                                        "type" : "double",
                                                        "defaultValue" : 258.880498533338,
                                                        "interp" : "eioe"
                                                      },
                                                      "translation1" : {
                                                        "type" : "double",
                                                        "defaultValue" : 112.121434428216,
                                                        "interp" : "eioe"
                                                      }
                                                    },
                                                    "effects" : [

                                                    ],
                                                    "start" : 115,
                                                    "duration" : 14,
                                                    "mediaStart" : 0,
                                                    "mediaDuration" : 14,
                                                    "scalar" : 1,
                                                    "metadata" : {
                                                      "clipSpeedAttribute" : false
                                                    },
                                                    "animationTracks" : {

                                                    }
                                                  },
                                                  {
                                                    "id" : 860,
                                                    "_type" : "IMFile",
                                                    "src" : 11,
                                                    "trackNumber" : 0,
                                                    "trimStartSum" : 0,
                                                    "attributes" : {
                                                      "ident" : "svc-128"
                                                    },
                                                    "parameters" : {
                                                      "translation0" : {
                                                        "type" : "double",
                                                        "defaultValue" : 346.880498533407,
                                                        "interp" : "eioe"
                                                      },
                                                      "translation1" : {
                                                        "type" : "double",
                                                        "defaultValue" : 120.121434428205,
                                                        "interp" : "eioe"
                                                      }
                                                    },
                                                    "effects" : [

                                                    ],
                                                    "start" : 129,
                                                    "duration" : 14,
                                                    "mediaStart" : 0,
                                                    "mediaDuration" : 14,
                                                    "scalar" : 1,
                                                    "metadata" : {
                                                      "clipSpeedAttribute" : false
                                                    },
                                                    "animationTracks" : {

                                                    }
                                                  },
                                                  {
                                                    "id" : 861,
                                                    "_type" : "IMFile",
                                                    "src" : 12,
                                                    "trackNumber" : 0,
                                                    "trimStartSum" : 0,
                                                    "attributes" : {
                                                      "ident" : "rs-128"
                                                    },
                                                    "parameters" : {
                                                      "translation0" : {
                                                        "type" : "double",
                                                        "defaultValue" : 480.880498533387,
                                                        "interp" : "eioe"
                                                      },
                                                      "translation1" : {
                                                        "type" : "double",
                                                        "defaultValue" : 158.1214344282,
                                                        "interp" : "eioe"
                                                      }
                                                    },
                                                    "effects" : [

                                                    ],
                                                    "start" : 143,
                                                    "duration" : 13,
                                                    "mediaStart" : 0,
                                                    "mediaDuration" : 13,
                                                    "scalar" : 1,
                                                    "metadata" : {
                                                      "clipSpeedAttribute" : false
                                                    },
                                                    "animationTracks" : {

                                                    }
                                                  },
                                                  {
                                                    "id" : 862,
                                                    "_type" : "IMFile",
                                                    "src" : 13,
                                                    "trackNumber" : 0,
                                                    "trimStartSum" : 0,
                                                    "attributes" : {
                                                      "ident" : "vol-128"
                                                    },
                                                    "parameters" : {
                                                      "translation0" : {
                                                        "type" : "double",
                                                        "defaultValue" : 560.880498533409,
                                                        "interp" : "eioe"
                                                      },
                                                      "translation1" : {
                                                        "type" : "double",
                                                        "defaultValue" : 136.121434428193,
                                                        "interp" : "eioe"
                                                      }
                                                    },
                                                    "effects" : [

                                                    ],
                                                    "start" : 156,
                                                    "duration" : 14,
                                                    "mediaStart" : 0,
                                                    "mediaDuration" : 14,
                                                    "scalar" : 1,
                                                    "metadata" : {
                                                      "clipSpeedAttribute" : false
                                                    },
                                                    "animationTracks" : {

                                                    }
                                                  },
                                                  {
                                                    "id" : 863,
                                                    "_type" : "IMFile",
                                                    "src" : 14,
                                                    "trackNumber" : 0,
                                                    "trimStartSum" : 0,
                                                    "attributes" : {
                                                      "ident" : "deploy-128"
                                                    },
                                                    "parameters" : {
                                                      "translation0" : {
                                                        "type" : "double",
                                                        "defaultValue" : 716.880498533367,
                                                        "interp" : "eioe"
                                                      },
                                                      "translation1" : {
                                                        "type" : "double",
                                                        "defaultValue" : 84.1214344281821,
                                                        "interp" : "eioe"
                                                      }
                                                    },
                                                    "effects" : [

                                                    ],
                                                    "start" : 170,
                                                    "duration" : 13,
                                                    "mediaStart" : 0,
                                                    "mediaDuration" : 13,
                                                    "scalar" : 1,
                                                    "metadata" : {
                                                      "clipSpeedAttribute" : false
                                                    },
                                                    "animationTracks" : {

                                                    }
                                                  },
                                                  {
                                                    "id" : 864,
                                                    "_type" : "IMFile",
                                                    "src" : 15,
                                                    "trackNumber" : 0,
                                                    "trimStartSum" : 0,
                                                    "attributes" : {
                                                      "ident" : "cronjob-128"
                                                    },
                                                    "parameters" : {
                                                      "translation0" : {
                                                        "type" : "double",
                                                        "defaultValue" : 870.880498533812,
                                                        "interp" : "eioe"
                                                      },
                                                      "translation1" : {
                                                        "type" : "double",
                                                        "defaultValue" : 135.81875444932,
                                                        "interp" : "eioe"
                                                      }
                                                    },
                                                    "effects" : [

                                                    ],
                                                    "start" : 183,
                                                    "duration" : 17,
                                                    "mediaStart" : 0,
                                                    "mediaDuration" : 17,
                                                    "scalar" : 1,
                                                    "metadata" : {
                                                      "clipSpeedAttribute" : false
                                                    },
                                                    "animationTracks" : {

                                                    }
                                                  }
                                                ],
                                                  "ident" : "",
                                                  "audioMuted" : false,
                                                  "videoHidden" : false,
                                                  "magnetic" : false,
                                                  "matte" : 0,
                                                  "metadata" : {
                                                    "IsLocked" : "False",
                                                    "WinTrackHeight" : "3.6077993365582e-314"
                                                  }
                                              }
                                            ],
                                            "attributes" : {
                                              "ident" : "Group 1",
                                              "gain" : 1.0,
                                              "mixToMono" : false
                                            },
                                            "effects" : [

                                            ],
                                            "start" : 0,
                                            "duration" : 200,
                                            "mediaStart" : 0.0,
                                            "mediaDuration" : 200.0,
                                            "scalar" : 1,
                                            "metadata" : {
                                              "IsGroupExpanded" : "False"
                                            },
                                            "animationTracks" : {

                                            }
                                          }
                                        ],
                                          "ident" : "",
                                          "audioMuted" : false,
                                          "videoHidden" : false,
                                          "magnetic" : false,
                                          "matte" : 0,
                                          "metadata" : {
                                            "IsLocked" : "False",
                                            "WinTrackHeight" : "0"
                                          }
                                      },
                                      {
                                        "trackIndex" : 1,
                                        "medias" : [
                                          {
                                            "id" : 865,
                                            "_type" : "IMFile",
                                            "src" : 16,
                                            "trackNumber" : 0,
                                            "trimStartSum" : 0,
                                            "attributes" : {
                                              "ident" : "k8sfavicon"
                                            },
                                            "parameters" : {
                                              "translation0" : {
                                                "type" : "double",
                                                "defaultValue" : -822.559750733209,
                                                "interp" : "eioe"
                                              },
                                              "translation1" : {
                                                "type" : "double",
                                                "defaultValue" : 466.970094438544,
                                                "interp" : "eioe"
                                              },
                                              "scale0" : {
                                                "type" : "double",
                                                "defaultValue" : 0.335937500000757,
                                                "interp" : "eioe"
                                              },
                                              "scale1" : {
                                                "type" : "double",
                                                "defaultValue" : 0.335937500000757,
                                                "interp" : "eioe"
                                              }
                                            },
                                            "effects" : [

                                            ],
                                            "start" : 0,
                                            "duration" : 200,
                                            "mediaStart" : 0,
                                            "mediaDuration" : 200,
                                            "scalar" : 1,
                                            "metadata" : {
                                              "clipSpeedAttribute" : false
                                            },
                                            "animationTracks" : {

                                            }
                                          }
                                        ],
                                          "ident" : "",
                                          "audioMuted" : false,
                                          "videoHidden" : false,
                                          "magnetic" : false,
                                          "matte" : 0,
                                          "metadata" : {
                                            "IsLocked" : "False",
                                            "WinTrackHeight" : "3.6077993365582e-314"
                                          }
                                      }
                                    ],
                                    "attributes" : {
                                      "ident" : "Group 2",
                                      "gain" : 1.0,
                                      "mixToMono" : false
                                    },
                                    "effects" : [

                                    ],
                                    "start" : 0,
                                    "duration" : 200,
                                    "mediaStart" : 0.0,
                                    "mediaDuration" : 200.0,
                                    "scalar" : 1,
                                    "metadata" : {
                                      "IsGroupExpanded" : "False"
                                    },
                                    "animationTracks" : {

                                    }
                                  }
                                ],
                                  "ident" : "",
                                  "audioMuted" : false,
                                  "videoHidden" : false,
                                  "magnetic" : false,
                                  "matte" : 0,
                                  "metadata" : {
                                    "IsLocked" : "False",
                                    "WinTrackHeight" : "0"
                                  }
                              },
                              {
                                "trackIndex" : 1,
                                "medias" : [
                                  {
                                    "id" : 866,
                                    "_type" : "AMFile",
                                    "src" : 17,
                                    "trackNumber" : 0,
                                    "attributes" : {
                                      "ident" : "wave",
                                      "gain" : 1.0,
                                      "mixToMono" : false
                                    },
                                      "channelNumber" : "0,1",
                                    "parameters" : {
                                      "volume" : {
                                        "type" : "double",
                                        "keyframes" : [
                                          {
                                            "endTime" : -1,
                                            "time" : -1,
                                            "value" : 1.0,
                                            "duration" : 0
                                          },
                                          {
                                            "endTime" : 0,
                                            "time" : 0,
                                            "value" : 0.0,
                                            "duration" : 0
                                          },
                                          {
                                            "endTime" : 51,
                                            "time" : 51,
                                            "value" : 0.5,
                                            "duration" : 0
                                          }
                                        ]
                                      }
                                    },
                                    "effects" : [

                                    ],
                                    "start" : 0,
                                    "duration" : 103,
                                    "mediaStart" : 0,
                                    "mediaDuration" : 103,
                                    "scalar" : 1,
                                    "metadata" : {
                                      "clipSpeedAttribute" : false
                                    },
                                    "animationTracks" : {

                                    }
                                  },
                                  {
                                    "id" : 867,
                                    "_type" : "AMFile",
                                    "src" : 17,
                                    "trackNumber" : 0,
                                    "attributes" : {
                                      "ident" : "wave",
                                      "gain" : 1.0,
                                      "mixToMono" : false
                                    },
                                      "channelNumber" : "0,1",
                                    "parameters" : {
                                      "volume" : {
                                        "type" : "double",
                                        "keyframes" : [
                                          {
                                            "endTime" : 0,
                                            "time" : 0,
                                            "value" : 0.823930776854464,
                                            "duration" : 0
                                          },
                                          {
                                            "endTime" : 115,
                                            "time" : 115,
                                            "value" : 0.400853853777541,
                                            "duration" : 0
                                          },
                                          {
                                            "endTime" : 200,
                                            "time" : 200,
                                            "value" : 0.0,
                                            "duration" : 0
                                          },
                                          {
                                            "endTime" : 201,
                                            "time" : 201,
                                            "value" : 1.0,
                                            "duration" : 0
                                          }
                                        ]
                                      }
                                    },
                                    "effects" : [

                                    ],
                                    "start" : 103,
                                    "duration" : 97,
                                    "mediaStart" : 103,
                                    "mediaDuration" : 97,
                                    "scalar" : 1,
                                    "metadata" : {
                                      "clipSpeedAttribute" : false
                                    },
                                    "animationTracks" : {

                                    }
                                  }
                                ],
                                  "ident" : "",
                                  "audioMuted" : false,
                                  "videoHidden" : false,
                                  "magnetic" : false,
                                  "matte" : 0,
                                  "metadata" : {
                                    "IsLocked" : "False",
                                    "WinTrackHeight" : "2.26715762571713e-312"
                                  }
                              }
                            ],
                            "attributes" : {
                              "ident" : "Group 1",
                              "gain" : 1.0,
                              "mixToMono" : false
                            },
                            "effects" : [

                            ],
                            "start" : 0,
                            "duration" : 200,
                            "mediaStart" : 0.0,
                            "mediaDuration" : 200.0,
                            "scalar" : 1,
                            "metadata" : {
                              "IsGroupExpanded" : "False"
                            },
                            "animationTracks" : {

                            }
                          }
                        ],
                          "ident" : "",
                          "audioMuted" : false,
                          "videoHidden" : false,
                          "magnetic" : false,
                          "matte" : 0,
                          "metadata" : {
                            "IsLocked" : "False",
                            "WinTrackHeight" : "1.26570614873064e-312"
                          }
                      }
                    ],
                    "attributes" : {
                      "ident" : "start",
                      "gain" : 1.0,
                      "mixToMono" : false
                    },
                    "effects" : [

                    ],
                    "start" : 0,
                    "duration" : 200,
                    "mediaStart" : 0.0,
                    "mediaDuration" : 200.0,
                    "scalar" : 1,
                    "metadata" : {
                      "IsGroupExpanded" : "False"
                    },
                    "animationTracks" : {

                    }
                  },
                  {
                    "id" : 868,
                    "_type" : "Group",
                    "parameters" : {
                      "volume" : 1.0
                    },
                    "tracks" : [
                      {
                        "trackIndex" : 0,
                        "medias" : [
                          {
                            "id" : 869,
                            "_type" : "Callout",
                            "def" : {
                              "kind" : "remix",
                              "shape" : "text",
                              "style" : "basic",
                              "height" : {
                                "type" : "double",
                                "defaultValue" : 294.0,
                                "interp" : "linr"
                              },
                              "line-spacing" : {
                                "type" : "double",
                                "defaultValue" : 0.0,
                                "interp" : "linr"
                              },
                              "width" : {
                                "type" : "double",
                                "defaultValue" : 1174.38904109587,
                                "interp" : "linr"
                              },
                              "word-wrap" : {
                                "type" : "double",
                                "defaultValue" : 1.0,
                                "interp" : "linr"
                              },
                              "horizontal-alignment" : "center",
                              "resize-behavior" : "resizeText",
                              "text" : "Thanks",
                              "vertical-alignment" : "center",
                              "font" : {
                                "color-blue" : {
                                  "type" : "double",
                                  "defaultValue" : 1.0,
                                  "interp" : "linr"
                                },
                                "color-green" : {
                                  "type" : "double",
                                  "defaultValue" : 1.0,
                                  "interp" : "linr"
                                },
                                "color-red" : {
                                  "type" : "double",
                                  "defaultValue" : 1.0,
                                  "interp" : "linr"
                                },
                                "size" : {
                                  "type" : "double",
                                  "defaultValue" : 96.0,
                                  "interp" : "linr"
                                },
                                "tracking" : {
                                  "type" : "double",
                                  "defaultValue" : 0.0,
                                  "interp" : "linr"
                                },
                                "name" : "Montserrat",
                                "weight" : "Regular"
                              },
                              "textAttributes" : {
                                "type" : "textAttributeList",
                                "keyframes" : [
                                  {
                                    "endTime" : 0,
                                    "time" : 0,
                                    "value" : [{"name":"fontWeight","rangeEnd":6,"rangeStart":0,"value":700,"valueType":"int"},{"name":"fontName","rangeEnd":6,"rangeStart":0,"value":"Montserrat","valueType":"string"},{"name":"fontItalic","rangeEnd":6,"rangeStart":0,"value":0,"valueType":"int"},{"name":"kerning","rangeEnd":6,"rangeStart":0,"value":0,"valueType":"double"},{"name":"strikethrough","rangeEnd":6,"rangeStart":0,"value":0,"valueType":"int"},{"name":"fgColor","rangeEnd":6,"rangeStart":0,"value":"(50,108,229,255)","valueType":"color"},{"name":"underline","rangeEnd":6,"rangeStart":0,"value":0,"valueType":"int"},{"name":"fontSize","rangeEnd":6,"rangeStart":0,"value":240,"valueType":"double"}],
                                    "duration" : 0
                                  }
                                ]
                              }
                            },
                            "attributes" : {
                              "autoRotateText" : true
                            },
                            "parameters" : {
                              "translation0" : {
                                "type" : "double",
                                "defaultValue" : -22.4178082191042,
                                "interp" : "eioe"
                              },
                              "translation1" : {
                                "type" : "double",
                                "defaultValue" : 1.319122588261e-11,
                                "interp" : "eioe"
                              }
                            },
                            "effects" : [
                                {
                                  "_type" : "GenericBehaviorEffect",
                                  "effectName" : "pulsating",
                                  "start" : -102,
                                  "duration" : 200                                ,
                                  "in" : {
                                    "attributes" : {
                                      "name" : "grow",
                                      "type" : 1,
                                      "characterOrder" : 6,
                                      "offsetBetweenCharacters" : 1,
                                      "suggestedDurationPerCharacter" : 18,
                                      "overlapProportion" : "3/4",
                                      "movement" : 30,
                                      "springDamping" : 5.0,
                                      "springStiffness" : 50.0,
                                      "bounceBounciness" : 0.45
                                    }
                                  
                                  },
                                  "center" : {
                                    "attributes" : {
                                      "name" : "pulsate",
                                      "type" : 1,
                                      "characterOrder" : 6,
                                      "offsetBetweenCharacters" : "21/10",
                                      "secondsPerLoop" : 1,
                                      "numberOfLoops" : -1,
                                      "delayBetweenLoops" : 0,
                                      "offsetBetweenCharacters" : "21/10"
                                    },
                                    "parameters" : {
                                      "movement" : {
                                        "type" : "int",
                                        "valueBounds" : {
                                          "minValue" : 0,
                                          "maxValue" : 31,
                                          "defaultValue" : 27
                                        },
                                        "uiHints" : {
                                          "userInterfaceType" : 4,
                                          "unitType" : 0
                                        },
                                        "keyframes" : [
                                          {
                                            "endTime" : 0,
                                            "time" : 0,
                                            "value" : 27,
                                            "duration" : 0
                                          }
                                        ]
                                      },
                                      "scale" : {
                                        "type" : "double",
                                        "defaultValue" : 1.08,
                                        "interp" : "linr",
                                        "valueBounds" : {
                                          "minValue" : 0.01,
                                          "maxValue" : 2.0,
                                          "defaultValue" : 1.08
                                        },
                                        "uiHints" : {
                                          "userInterfaceType" : 1,
                                          "unitType" : 1
                                        }
                                      }
                                    }
                                  
                                  },
                                  "out" : {
                                    "attributes" : {
                                      "name" : "shrink",
                                      "type" : 1,
                                      "characterOrder" : 6,
                                      "offsetBetweenCharacters" : 1,
                                      "suggestedDurationPerCharacter" : "29/2",
                                      "overlapProportion" : "1/10",
                                      "movement" : 11,
                                      "springDamping" : 5.0,
                                      "springStiffness" : 50.0,
                                      "bounceBounciness" : 0.45
                                    }
                                  
                                  }
                                }
                            ],
                            "start" : 0,
                            "duration" : 103,
                            "mediaStart" : -102,
                            "mediaDuration" : 103,
                            "scalar" : 1,
                            "metadata" : {
                              "clipSpeedAttribute" : false
                            },
                            "animationTracks" : {

                            }
                          },
                          {
                            "id" : 870,
                            "_type" : "Callout",
                            "def" : {
                              "kind" : "remix",
                              "shape" : "text",
                              "style" : "basic",
                              "height" : {
                                "type" : "double",
                                "defaultValue" : 294.0,
                                "interp" : "linr"
                              },
                              "line-spacing" : {
                                "type" : "double",
                                "defaultValue" : 0.0,
                                "interp" : "linr"
                              },
                              "width" : {
                                "type" : "double",
                                "defaultValue" : 1174.38904109587,
                                "interp" : "linr"
                              },
                              "word-wrap" : {
                                "type" : "double",
                                "defaultValue" : 1.0,
                                "interp" : "linr"
                              },
                              "horizontal-alignment" : "center",
                              "resize-behavior" : "resizeText",
                              "text" : "Thanks",
                              "vertical-alignment" : "center",
                              "font" : {
                                "color-blue" : {
                                  "type" : "double",
                                  "defaultValue" : 1.0,
                                  "interp" : "linr"
                                },
                                "color-green" : {
                                  "type" : "double",
                                  "defaultValue" : 1.0,
                                  "interp" : "linr"
                                },
                                "color-red" : {
                                  "type" : "double",
                                  "defaultValue" : 1.0,
                                  "interp" : "linr"
                                },
                                "size" : {
                                  "type" : "double",
                                  "defaultValue" : 96.0,
                                  "interp" : "linr"
                                },
                                "tracking" : {
                                  "type" : "double",
                                  "defaultValue" : 0.0,
                                  "interp" : "linr"
                                },
                                "name" : "Montserrat",
                                "weight" : "Regular"
                              },
                              "textAttributes" : {
                                "type" : "textAttributeList",
                                "keyframes" : [
                                  {
                                    "endTime" : 0,
                                    "time" : 0,
                                    "value" : [{"name":"fontName","rangeEnd":6,"rangeStart":0,"value":"Montserrat","valueType":"string"},{"name":"kerning","rangeEnd":6,"rangeStart":0,"value":0,"valueType":"double"},{"name":"strikethrough","rangeEnd":6,"rangeStart":0,"value":0,"valueType":"int"},{"name":"fontSize","rangeEnd":6,"rangeStart":0,"value":240,"valueType":"double"},{"name":"fontItalic","rangeEnd":6,"rangeStart":0,"value":0,"valueType":"int"},{"name":"fontWeight","rangeEnd":6,"rangeStart":0,"value":700,"valueType":"int"},{"name":"fgColor","rangeEnd":6,"rangeStart":0,"value":"(50,108,229,255)","valueType":"color"},{"name":"underline","rangeEnd":6,"rangeStart":0,"value":0,"valueType":"int"}],
                                    "duration" : 0
                                  }
                                ]
                              }
                            },
                            "attributes" : {
                              "autoRotateText" : true
                            },
                            "parameters" : {
                              "translation0" : {
                                "type" : "double",
                                "defaultValue" : -74.4178082188969,
                                "interp" : "eioe"
                              },
                              "translation1" : {
                                "type" : "double",
                                "defaultValue" : 4.13429290734252e-11,
                                "interp" : "eioe"
                              }
                            },
                            "effects" : [
                                {
                                  "_type" : "GenericBehaviorEffect",
                                  "effectName" : "pulsating",
                                  "start" : -102,
                                  "duration" : 200                                ,
                                  "in" : {
                                    "attributes" : {
                                      "name" : "grow",
                                      "type" : 1,
                                      "characterOrder" : 6,
                                      "offsetBetweenCharacters" : 1,
                                      "suggestedDurationPerCharacter" : 18,
                                      "overlapProportion" : "3/4",
                                      "movement" : 30,
                                      "springDamping" : 5.0,
                                      "springStiffness" : 50.0,
                                      "bounceBounciness" : 0.45
                                    }
                                  
                                  },
                                  "center" : {
                                    "attributes" : {
                                      "name" : "pulsate",
                                      "type" : 1,
                                      "characterOrder" : 6,
                                      "offsetBetweenCharacters" : "21/10",
                                      "secondsPerLoop" : 1,
                                      "numberOfLoops" : -1,
                                      "delayBetweenLoops" : 0,
                                      "offsetBetweenCharacters" : "21/10"
                                    },
                                    "parameters" : {
                                      "movement" : {
                                        "type" : "int",
                                        "valueBounds" : {
                                          "minValue" : 0,
                                          "maxValue" : 31,
                                          "defaultValue" : 27
                                        },
                                        "uiHints" : {
                                          "userInterfaceType" : 4,
                                          "unitType" : 0
                                        },
                                        "keyframes" : [
                                          {
                                            "endTime" : 0,
                                            "time" : 0,
                                            "value" : 27,
                                            "duration" : 0
                                          }
                                        ]
                                      },
                                      "scale" : {
                                        "type" : "double",
                                        "defaultValue" : 1.08,
                                        "interp" : "linr",
                                        "valueBounds" : {
                                          "minValue" : 0.01,
                                          "maxValue" : 2.0,
                                          "defaultValue" : 1.08
                                        },
                                        "uiHints" : {
                                          "userInterfaceType" : 1,
                                          "unitType" : 1
                                        }
                                      }
                                    }
                                  
                                  },
                                  "out" : {
                                    "attributes" : {
                                      "name" : "shrink",
                                      "type" : 1,
                                      "characterOrder" : 6,
                                      "offsetBetweenCharacters" : 1,
                                      "suggestedDurationPerCharacter" : "29/2",
                                      "overlapProportion" : "1/10",
                                      "movement" : 11,
                                      "springDamping" : 5.0,
                                      "springStiffness" : 50.0,
                                      "bounceBounciness" : 0.45
                                    }
                                  
                                  }
                                }
                            ],
                            "start" : 103,
                            "duration" : 97,
                            "mediaStart" : 1,
                            "mediaDuration" : 97,
                            "scalar" : 1,
                            "metadata" : {
                              "clipSpeedAttribute" : false
                            },
                            "animationTracks" : {

                            }
                          }
                        ],
                          "ident" : "",
                          "audioMuted" : false,
                          "videoHidden" : false,
                          "magnetic" : false,
                          "matte" : 0,
                          "metadata" : {
                            "IsLocked" : "False",
                            "WinTrackHeight" : "0"
                          }
                      },
                      {
                        "trackIndex" : 1,
                        "medias" : [
                          {
                            "id" : 871,
                            "_type" : "Group",
                            "parameters" : {
                              "translation0" : {
                                "type" : "double",
                                "defaultValue" : 0.559750733332294,
                                "interp" : "eioe"
                              },
                              "translation1" : {
                                "type" : "double",
                                "defaultValue" : -34.4850472193567,
                                "interp" : "eioe"
                              },
                              "volume" : 1.0
                            },
                            "tracks" : [
                              {
                                "trackIndex" : 0,
                                "medias" : [
                                  {
                                    "id" : 872,
                                    "_type" : "Group",
                                    "parameters" : {
                                      "translation0" : {
                                        "type" : "double",
                                        "defaultValue" : 4.44089209850063e-16,
                                        "interp" : "eioe"
                                      },
                                      "translation1" : {
                                        "type" : "double",
                                        "defaultValue" : -34.4850472193565,
                                        "interp" : "eioe"
                                      },
                                      "volume" : 1.0
                                    },
                                    "tracks" : [
                                      {
                                        "trackIndex" : 0,
                                        "medias" : [
                                          {
                                            "id" : 873,
                                            "_type" : "Group",
                                            "parameters" : {
                                              "translation0" : {
                                                "type" : "double",
                                                "defaultValue" : 0.55975073333218,
                                                "interp" : "eioe"
                                              },
                                              "translation1" : {
                                                "type" : "double",
                                                "defaultValue" : -289.15133998951,
                                                "interp" : "eioe"
                                              },
                                              "volume" : 1.0
                                            },
                                            "tracks" : [
                                              {
                                                "trackIndex" : 0,
                                                "medias" : [
                                                  {
                                                    "id" : 874,
                                                    "_type" : "IMFile",
                                                    "src" : 18,
                                                    "trackNumber" : 0,
                                                    "trimStartSum" : 0,
                                                    "attributes" : {
                                                      "ident" : "wave1"
                                                    },
                                                    "parameters" : {
                                                      "translation0" : {
                                                        "type" : "double",
                                                        "defaultValue" : -2.11950146613311,
                                                        "interp" : "eioe"
                                                      },
                                                      "translation1" : {
                                                        "type" : "double",
                                                        "defaultValue" : 8.96940103546206,
                                                        "interp" : "eioe"
                                                      },
                                                      "scale0" : {
                                                        "type" : "double",
                                                        "defaultValue" : 1.02884111169424,
                                                        "interp" : "eioe"
                                                      },
                                                      "scale1" : {
                                                        "type" : "double",
                                                        "defaultValue" : 1.02884111169424,
                                                        "interp" : "eioe"
                                                      }
                                                    },
                                                    "effects" : [

                                                    ],
                                                    "start" : 0,
                                                    "duration" : 6,
                                                    "mediaStart" : 0,
                                                    "mediaDuration" : 6,
                                                    "scalar" : 1,
                                                    "metadata" : {
                                                      "clipSpeedAttribute" : false
                                                    },
                                                    "animationTracks" : {

                                                    }
                                                  },
                                                  {
                                                    "id" : 875,
                                                    "_type" : "IMFile",
                                                    "src" : 19,
                                                    "trackNumber" : 0,
                                                    "trimStartSum" : 0,
                                                    "attributes" : {
                                                      "ident" : "wave2"
                                                    },
                                                    "parameters" : {
                                                      "translation0" : {
                                                        "type" : "double",
                                                        "defaultValue" : 0.880498533167186,
                                                        "interp" : "eioe"
                                                      },
                                                      "translation1" : {
                                                        "type" : "double",
                                                        "defaultValue" : -88.087642172052,
                                                        "interp" : "eioe"
                                                      },
                                                      "scale0" : {
                                                        "type" : "double",
                                                        "defaultValue" : 1.03068101042332,
                                                        "interp" : "eioe"
                                                      },
                                                      "scale1" : {
                                                        "type" : "double",
                                                        "defaultValue" : 1.03068101042332,
                                                        "interp" : "eioe"
                                                      }
                                                    },
                                                    "effects" : [

                                                    ],
                                                    "start" : 6,
                                                    "duration" : 6,
                                                    "mediaStart" : 0,
                                                    "mediaDuration" : 6,
                                                    "scalar" : 1,
                                                    "metadata" : {
                                                      "clipSpeedAttribute" : false
                                                    },
                                                    "animationTracks" : {

                                                    }
                                                  },
                                                  {
                                                    "id" : 876,
                                                    "_type" : "IMFile",
                                                    "src" : 20,
                                                    "trackNumber" : 0,
                                                    "trimStartSum" : 0,
                                                    "attributes" : {
                                                      "ident" : "wave3"
                                                    },
                                                    "parameters" : {
                                                      "translation0" : {
                                                        "type" : "double",
                                                        "defaultValue" : -1.11950146655987,
                                                        "interp" : "eioe"
                                                      },
                                                      "translation1" : {
                                                        "type" : "double",
                                                        "defaultValue" : 8.12143442823202,
                                                        "interp" : "eioe"
                                                      },
                                                      "scale0" : {
                                                        "type" : "double",
                                                        "defaultValue" : 1.00893326326855,
                                                        "interp" : "eioe"
                                                      },
                                                      "scale1" : {
                                                        "type" : "double",
                                                        "defaultValue" : 1.00893326326855,
                                                        "interp" : "eioe"
                                                      }
                                                    },
                                                    "effects" : [

                                                    ],
                                                    "start" : 12,
                                                    "duration" : 7,
                                                    "mediaStart" : 0,
                                                    "mediaDuration" : 7,
                                                    "scalar" : 1,
                                                    "metadata" : {
                                                      "clipSpeedAttribute" : false
                                                    },
                                                    "animationTracks" : {

                                                    }
                                                  },
                                                  {
                                                    "id" : 877,
                                                    "_type" : "IMFile",
                                                    "src" : 18,
                                                    "trackNumber" : 0,
                                                    "trimStartSum" : 0,
                                                    "attributes" : {
                                                      "ident" : "wave1"
                                                    },
                                                    "parameters" : {
                                                      "translation0" : {
                                                        "type" : "double",
                                                        "defaultValue" : -2.11950146613311,
                                                        "interp" : "eioe"
                                                      },
                                                      "translation1" : {
                                                        "type" : "double",
                                                        "defaultValue" : 8.96940103546206,
                                                        "interp" : "eioe"
                                                      },
                                                      "scale0" : {
                                                        "type" : "double",
                                                        "defaultValue" : 1.02884111169424,
                                                        "interp" : "eioe"
                                                      },
                                                      "scale1" : {
                                                        "type" : "double",
                                                        "defaultValue" : 1.02884111169424,
                                                        "interp" : "eioe"
                                                      }
                                                    },
                                                    "effects" : [

                                                    ],
                                                    "start" : 19,
                                                    "duration" : 6,
                                                    "mediaStart" : 0,
                                                    "mediaDuration" : 6,
                                                    "scalar" : 1,
                                                    "metadata" : {
                                                      "clipSpeedAttribute" : false
                                                    },
                                                    "animationTracks" : {

                                                    }
                                                  },
                                                  {
                                                    "id" : 878,
                                                    "_type" : "IMFile",
                                                    "src" : 19,
                                                    "trackNumber" : 0,
                                                    "trimStartSum" : 0,
                                                    "attributes" : {
                                                      "ident" : "wave2"
                                                    },
                                                    "parameters" : {
                                                      "translation0" : {
                                                        "type" : "double",
                                                        "defaultValue" : 0.880498533167186,
                                                        "interp" : "eioe"
                                                      },
                                                      "translation1" : {
                                                        "type" : "double",
                                                        "defaultValue" : -88.087642172052,
                                                        "interp" : "eioe"
                                                      },
                                                      "scale0" : {
                                                        "type" : "double",
                                                        "defaultValue" : 1.03068101042332,
                                                        "interp" : "eioe"
                                                      },
                                                      "scale1" : {
                                                        "type" : "double",
                                                        "defaultValue" : 1.03068101042332,
                                                        "interp" : "eioe"
                                                      }
                                                    },
                                                    "effects" : [

                                                    ],
                                                    "start" : 25,
                                                    "duration" : 6,
                                                    "mediaStart" : 0,
                                                    "mediaDuration" : 6,
                                                    "scalar" : 1,
                                                    "metadata" : {
                                                      "clipSpeedAttribute" : false
                                                    },
                                                    "animationTracks" : {

                                                    }
                                                  },
                                                  {
                                                    "id" : 879,
                                                    "_type" : "IMFile",
                                                    "src" : 20,
                                                    "trackNumber" : 0,
                                                    "trimStartSum" : 0,
                                                    "attributes" : {
                                                      "ident" : "wave3"
                                                    },
                                                    "parameters" : {
                                                      "translation0" : {
                                                        "type" : "double",
                                                        "defaultValue" : -1.11950146655987,
                                                        "interp" : "eioe"
                                                      },
                                                      "translation1" : {
                                                        "type" : "double",
                                                        "defaultValue" : 8.12143442823202,
                                                        "interp" : "eioe"
                                                      },
                                                      "scale0" : {
                                                        "type" : "double",
                                                        "defaultValue" : 1.00893326326855,
                                                        "interp" : "eioe"
                                                      },
                                                      "scale1" : {
                                                        "type" : "double",
                                                        "defaultValue" : 1.00893326326855,
                                                        "interp" : "eioe"
                                                      }
                                                    },
                                                    "effects" : [

                                                    ],
                                                    "start" : 31,
                                                    "duration" : 7,
                                                    "mediaStart" : 0,
                                                    "mediaDuration" : 7,
                                                    "scalar" : 1,
                                                    "metadata" : {
                                                      "clipSpeedAttribute" : false
                                                    },
                                                    "animationTracks" : {

                                                    }
                                                  },
                                                  {
                                                    "id" : 880,
                                                    "_type" : "IMFile",
                                                    "src" : 18,
                                                    "trackNumber" : 0,
                                                    "trimStartSum" : 0,
                                                    "attributes" : {
                                                      "ident" : "wave1"
                                                    },
                                                    "parameters" : {
                                                      "translation0" : {
                                                        "type" : "double",
                                                        "defaultValue" : -2.11950146613311,
                                                        "interp" : "eioe"
                                                      },
                                                      "translation1" : {
                                                        "type" : "double",
                                                        "defaultValue" : 8.96940103546206,
                                                        "interp" : "eioe"
                                                      },
                                                      "scale0" : {
                                                        "type" : "double",
                                                        "defaultValue" : 1.02884111169424,
                                                        "interp" : "eioe"
                                                      },
                                                      "scale1" : {
                                                        "type" : "double",
                                                        "defaultValue" : 1.02884111169424,
                                                        "interp" : "eioe"
                                                      }
                                                    },
                                                    "effects" : [

                                                    ],
                                                    "start" : 38,
                                                    "duration" : 6,
                                                    "mediaStart" : 0,
                                                    "mediaDuration" : 6,
                                                    "scalar" : 1,
                                                    "metadata" : {
                                                      "clipSpeedAttribute" : false
                                                    },
                                                    "animationTracks" : {

                                                    }
                                                  },
                                                  {
                                                    "id" : 881,
                                                    "_type" : "IMFile",
                                                    "src" : 19,
                                                    "trackNumber" : 0,
                                                    "trimStartSum" : 0,
                                                    "attributes" : {
                                                      "ident" : "wave2"
                                                    },
                                                    "parameters" : {
                                                      "translation0" : {
                                                        "type" : "double",
                                                        "defaultValue" : 0.880498533167186,
                                                        "interp" : "eioe"
                                                      },
                                                      "translation1" : {
                                                        "type" : "double",
                                                        "defaultValue" : -88.087642172052,
                                                        "interp" : "eioe"
                                                      },
                                                      "scale0" : {
                                                        "type" : "double",
                                                        "defaultValue" : 1.03068101042332,
                                                        "interp" : "eioe"
                                                      },
                                                      "scale1" : {
                                                        "type" : "double",
                                                        "defaultValue" : 1.03068101042332,
                                                        "interp" : "eioe"
                                                      }
                                                    },
                                                    "effects" : [

                                                    ],
                                                    "start" : 44,
                                                    "duration" : 6,
                                                    "mediaStart" : 0,
                                                    "mediaDuration" : 6,
                                                    "scalar" : 1,
                                                    "metadata" : {
                                                      "clipSpeedAttribute" : false
                                                    },
                                                    "animationTracks" : {

                                                    }
                                                  },
                                                  {
                                                    "id" : 882,
                                                    "_type" : "IMFile",
                                                    "src" : 20,
                                                    "trackNumber" : 0,
                                                    "trimStartSum" : 0,
                                                    "attributes" : {
                                                      "ident" : "wave3"
                                                    },
                                                    "parameters" : {
                                                      "translation0" : {
                                                        "type" : "double",
                                                        "defaultValue" : -1.11950146655987,
                                                        "interp" : "eioe"
                                                      },
                                                      "translation1" : {
                                                        "type" : "double",
                                                        "defaultValue" : 8.12143442823202,
                                                        "interp" : "eioe"
                                                      },
                                                      "scale0" : {
                                                        "type" : "double",
                                                        "defaultValue" : 1.00893326326855,
                                                        "interp" : "eioe"
                                                      },
                                                      "scale1" : {
                                                        "type" : "double",
                                                        "defaultValue" : 1.00893326326855,
                                                        "interp" : "eioe"
                                                      }
                                                    },
                                                    "effects" : [

                                                    ],
                                                    "start" : 50,
                                                    "duration" : 7,
                                                    "mediaStart" : 0,
                                                    "mediaDuration" : 7,
                                                    "scalar" : 1,
                                                    "metadata" : {
                                                      "clipSpeedAttribute" : false
                                                    },
                                                    "animationTracks" : {

                                                    }
                                                  },
                                                  {
                                                    "id" : 883,
                                                    "_type" : "IMFile",
                                                    "src" : 18,
                                                    "trackNumber" : 0,
                                                    "trimStartSum" : 0,
                                                    "attributes" : {
                                                      "ident" : "wave1"
                                                    },
                                                    "parameters" : {
                                                      "translation0" : {
                                                        "type" : "double",
                                                        "defaultValue" : -2.11950146613311,
                                                        "interp" : "eioe"
                                                      },
                                                      "translation1" : {
                                                        "type" : "double",
                                                        "defaultValue" : 8.96940103546206,
                                                        "interp" : "eioe"
                                                      },
                                                      "scale0" : {
                                                        "type" : "double",
                                                        "defaultValue" : 1.02884111169424,
                                                        "interp" : "eioe"
                                                      },
                                                      "scale1" : {
                                                        "type" : "double",
                                                        "defaultValue" : 1.02884111169424,
                                                        "interp" : "eioe"
                                                      }
                                                    },
                                                    "effects" : [

                                                    ],
                                                    "start" : 57,
                                                    "duration" : 6,
                                                    "mediaStart" : 0,
                                                    "mediaDuration" : 6,
                                                    "scalar" : 1,
                                                    "metadata" : {
                                                      "clipSpeedAttribute" : false
                                                    },
                                                    "animationTracks" : {

                                                    }
                                                  },
                                                  {
                                                    "id" : 884,
                                                    "_type" : "IMFile",
                                                    "src" : 19,
                                                    "trackNumber" : 0,
                                                    "trimStartSum" : 0,
                                                    "attributes" : {
                                                      "ident" : "wave2"
                                                    },
                                                    "parameters" : {
                                                      "translation0" : {
                                                        "type" : "double",
                                                        "defaultValue" : 0.880498533167186,
                                                        "interp" : "eioe"
                                                      },
                                                      "translation1" : {
                                                        "type" : "double",
                                                        "defaultValue" : -88.087642172052,
                                                        "interp" : "eioe"
                                                      },
                                                      "scale0" : {
                                                        "type" : "double",
                                                        "defaultValue" : 1.03068101042332,
                                                        "interp" : "eioe"
                                                      },
                                                      "scale1" : {
                                                        "type" : "double",
                                                        "defaultValue" : 1.03068101042332,
                                                        "interp" : "eioe"
                                                      }
                                                    },
                                                    "effects" : [

                                                    ],
                                                    "start" : 63,
                                                    "duration" : 6,
                                                    "mediaStart" : 0,
                                                    "mediaDuration" : 6,
                                                    "scalar" : 1,
                                                    "metadata" : {
                                                      "clipSpeedAttribute" : false
                                                    },
                                                    "animationTracks" : {

                                                    }
                                                  },
                                                  {
                                                    "id" : 885,
                                                    "_type" : "IMFile",
                                                    "src" : 20,
                                                    "trackNumber" : 0,
                                                    "trimStartSum" : 0,
                                                    "attributes" : {
                                                      "ident" : "wave3"
                                                    },
                                                    "parameters" : {
                                                      "translation0" : {
                                                        "type" : "double",
                                                        "defaultValue" : -1.11950146655987,
                                                        "interp" : "eioe"
                                                      },
                                                      "translation1" : {
                                                        "type" : "double",
                                                        "defaultValue" : 8.12143442823202,
                                                        "interp" : "eioe"
                                                      },
                                                      "scale0" : {
                                                        "type" : "double",
                                                        "defaultValue" : 1.00893326326855,
                                                        "interp" : "eioe"
                                                      },
                                                      "scale1" : {
                                                        "type" : "double",
                                                        "defaultValue" : 1.00893326326855,
                                                        "interp" : "eioe"
                                                      }
                                                    },
                                                    "effects" : [

                                                    ],
                                                    "start" : 69,
                                                    "duration" : 7,
                                                    "mediaStart" : 0,
                                                    "mediaDuration" : 7,
                                                    "scalar" : 1,
                                                    "metadata" : {
                                                      "clipSpeedAttribute" : false
                                                    },
                                                    "animationTracks" : {

                                                    }
                                                  },
                                                  {
                                                    "id" : 886,
                                                    "_type" : "IMFile",
                                                    "src" : 18,
                                                    "trackNumber" : 0,
                                                    "trimStartSum" : 0,
                                                    "attributes" : {
                                                      "ident" : "wave1"
                                                    },
                                                    "parameters" : {
                                                      "translation0" : {
                                                        "type" : "double",
                                                        "defaultValue" : -2.11950146613311,
                                                        "interp" : "eioe"
                                                      },
                                                      "translation1" : {
                                                        "type" : "double",
                                                        "defaultValue" : 8.96940103546206,
                                                        "interp" : "eioe"
                                                      },
                                                      "scale0" : {
                                                        "type" : "double",
                                                        "defaultValue" : 1.02884111169424,
                                                        "interp" : "eioe"
                                                      },
                                                      "scale1" : {
                                                        "type" : "double",
                                                        "defaultValue" : 1.02884111169424,
                                                        "interp" : "eioe"
                                                      }
                                                    },
                                                    "effects" : [

                                                    ],
                                                    "start" : 76,
                                                    "duration" : 6,
                                                    "mediaStart" : 0,
                                                    "mediaDuration" : 6,
                                                    "scalar" : 1,
                                                    "metadata" : {
                                                      "clipSpeedAttribute" : false
                                                    },
                                                    "animationTracks" : {

                                                    }
                                                  },
                                                  {
                                                    "id" : 887,
                                                    "_type" : "IMFile",
                                                    "src" : 19,
                                                    "trackNumber" : 0,
                                                    "trimStartSum" : 0,
                                                    "attributes" : {
                                                      "ident" : "wave2"
                                                    },
                                                    "parameters" : {
                                                      "translation0" : {
                                                        "type" : "double",
                                                        "defaultValue" : 0.880498533167186,
                                                        "interp" : "eioe"
                                                      },
                                                      "translation1" : {
                                                        "type" : "double",
                                                        "defaultValue" : -88.087642172052,
                                                        "interp" : "eioe"
                                                      },
                                                      "scale0" : {
                                                        "type" : "double",
                                                        "defaultValue" : 1.03068101042332,
                                                        "interp" : "eioe"
                                                      },
                                                      "scale1" : {
                                                        "type" : "double",
                                                        "defaultValue" : 1.03068101042332,
                                                        "interp" : "eioe"
                                                      }
                                                    },
                                                    "effects" : [

                                                    ],
                                                    "start" : 82,
                                                    "duration" : 6,
                                                    "mediaStart" : 0,
                                                    "mediaDuration" : 6,
                                                    "scalar" : 1,
                                                    "metadata" : {
                                                      "clipSpeedAttribute" : false
                                                    },
                                                    "animationTracks" : {

                                                    }
                                                  },
                                                  {
                                                    "id" : 888,
                                                    "_type" : "IMFile",
                                                    "src" : 20,
                                                    "trackNumber" : 0,
                                                    "trimStartSum" : 0,
                                                    "attributes" : {
                                                      "ident" : "wave3"
                                                    },
                                                    "parameters" : {
                                                      "translation0" : {
                                                        "type" : "double",
                                                        "defaultValue" : -1.11950146655987,
                                                        "interp" : "eioe"
                                                      },
                                                      "translation1" : {
                                                        "type" : "double",
                                                        "defaultValue" : 8.12143442823202,
                                                        "interp" : "eioe"
                                                      },
                                                      "scale0" : {
                                                        "type" : "double",
                                                        "defaultValue" : 1.00893326326855,
                                                        "interp" : "eioe"
                                                      },
                                                      "scale1" : {
                                                        "type" : "double",
                                                        "defaultValue" : 1.00893326326855,
                                                        "interp" : "eioe"
                                                      }
                                                    },
                                                    "effects" : [

                                                    ],
                                                    "start" : 88,
                                                    "duration" : 7,
                                                    "mediaStart" : 0,
                                                    "mediaDuration" : 7,
                                                    "scalar" : 1,
                                                    "metadata" : {
                                                      "clipSpeedAttribute" : false
                                                    },
                                                    "animationTracks" : {

                                                    }
                                                  },
                                                  {
                                                    "id" : 889,
                                                    "_type" : "IMFile",
                                                    "src" : 18,
                                                    "trackNumber" : 0,
                                                    "trimStartSum" : 0,
                                                    "attributes" : {
                                                      "ident" : "wave1"
                                                    },
                                                    "parameters" : {
                                                      "translation0" : {
                                                        "type" : "double",
                                                        "defaultValue" : -2.11950146613311,
                                                        "interp" : "eioe"
                                                      },
                                                      "translation1" : {
                                                        "type" : "double",
                                                        "defaultValue" : 8.96940103546206,
                                                        "interp" : "eioe"
                                                      },
                                                      "scale0" : {
                                                        "type" : "double",
                                                        "defaultValue" : 1.02884111169424,
                                                        "interp" : "eioe"
                                                      },
                                                      "scale1" : {
                                                        "type" : "double",
                                                        "defaultValue" : 1.02884111169424,
                                                        "interp" : "eioe"
                                                      }
                                                    },
                                                    "effects" : [

                                                    ],
                                                    "start" : 95,
                                                    "duration" : 6,
                                                    "mediaStart" : 0,
                                                    "mediaDuration" : 6,
                                                    "scalar" : 1,
                                                    "metadata" : {
                                                      "clipSpeedAttribute" : false
                                                    },
                                                    "animationTracks" : {

                                                    }
                                                  },
                                                  {
                                                    "id" : 890,
                                                    "_type" : "IMFile",
                                                    "src" : 19,
                                                    "trackNumber" : 0,
                                                    "trimStartSum" : 0,
                                                    "attributes" : {
                                                      "ident" : "wave2"
                                                    },
                                                    "parameters" : {
                                                      "translation0" : {
                                                        "type" : "double",
                                                        "defaultValue" : 0.880498533167186,
                                                        "interp" : "eioe"
                                                      },
                                                      "translation1" : {
                                                        "type" : "double",
                                                        "defaultValue" : -88.087642172052,
                                                        "interp" : "eioe"
                                                      },
                                                      "scale0" : {
                                                        "type" : "double",
                                                        "defaultValue" : 1.03068101042332,
                                                        "interp" : "eioe"
                                                      },
                                                      "scale1" : {
                                                        "type" : "double",
                                                        "defaultValue" : 1.03068101042332,
                                                        "interp" : "eioe"
                                                      }
                                                    },
                                                    "effects" : [

                                                    ],
                                                    "start" : 101,
                                                    "duration" : 6,
                                                    "mediaStart" : 0,
                                                    "mediaDuration" : 6,
                                                    "scalar" : 1,
                                                    "metadata" : {
                                                      "clipSpeedAttribute" : false
                                                    },
                                                    "animationTracks" : {

                                                    }
                                                  },
                                                  {
                                                    "id" : 891,
                                                    "_type" : "IMFile",
                                                    "src" : 20,
                                                    "trackNumber" : 0,
                                                    "trimStartSum" : 0,
                                                    "attributes" : {
                                                      "ident" : "wave3"
                                                    },
                                                    "parameters" : {
                                                      "translation0" : {
                                                        "type" : "double",
                                                        "defaultValue" : -1.11950146655987,
                                                        "interp" : "eioe"
                                                      },
                                                      "translation1" : {
                                                        "type" : "double",
                                                        "defaultValue" : 8.12143442823202,
                                                        "interp" : "eioe"
                                                      },
                                                      "scale0" : {
                                                        "type" : "double",
                                                        "defaultValue" : 1.00893326326855,
                                                        "interp" : "eioe"
                                                      },
                                                      "scale1" : {
                                                        "type" : "double",
                                                        "defaultValue" : 1.00893326326855,
                                                        "interp" : "eioe"
                                                      }
                                                    },
                                                    "effects" : [

                                                    ],
                                                    "start" : 107,
                                                    "duration" : 7,
                                                    "mediaStart" : 0,
                                                    "mediaDuration" : 7,
                                                    "scalar" : 1,
                                                    "metadata" : {
                                                      "clipSpeedAttribute" : false
                                                    },
                                                    "animationTracks" : {

                                                    }
                                                  },
                                                  {
                                                    "id" : 892,
                                                    "_type" : "IMFile",
                                                    "src" : 18,
                                                    "trackNumber" : 0,
                                                    "trimStartSum" : 0,
                                                    "attributes" : {
                                                      "ident" : "wave1"
                                                    },
                                                    "parameters" : {
                                                      "translation0" : {
                                                        "type" : "double",
                                                        "defaultValue" : -2.11950146613311,
                                                        "interp" : "eioe"
                                                      },
                                                      "translation1" : {
                                                        "type" : "double",
                                                        "defaultValue" : 8.96940103546206,
                                                        "interp" : "eioe"
                                                      },
                                                      "scale0" : {
                                                        "type" : "double",
                                                        "defaultValue" : 1.02884111169424,
                                                        "interp" : "eioe"
                                                      },
                                                      "scale1" : {
                                                        "type" : "double",
                                                        "defaultValue" : 1.02884111169424,
                                                        "interp" : "eioe"
                                                      }
                                                    },
                                                    "effects" : [

                                                    ],
                                                    "start" : 114,
                                                    "duration" : 6,
                                                    "mediaStart" : 0,
                                                    "mediaDuration" : 6,
                                                    "scalar" : 1,
                                                    "metadata" : {
                                                      "clipSpeedAttribute" : false
                                                    },
                                                    "animationTracks" : {

                                                    }
                                                  },
                                                  {
                                                    "id" : 893,
                                                    "_type" : "IMFile",
                                                    "src" : 19,
                                                    "trackNumber" : 0,
                                                    "trimStartSum" : 0,
                                                    "attributes" : {
                                                      "ident" : "wave2"
                                                    },
                                                    "parameters" : {
                                                      "translation0" : {
                                                        "type" : "double",
                                                        "defaultValue" : 0.880498533167186,
                                                        "interp" : "eioe"
                                                      },
                                                      "translation1" : {
                                                        "type" : "double",
                                                        "defaultValue" : -88.087642172052,
                                                        "interp" : "eioe"
                                                      },
                                                      "scale0" : {
                                                        "type" : "double",
                                                        "defaultValue" : 1.03068101042332,
                                                        "interp" : "eioe"
                                                      },
                                                      "scale1" : {
                                                        "type" : "double",
                                                        "defaultValue" : 1.03068101042332,
                                                        "interp" : "eioe"
                                                      }
                                                    },
                                                    "effects" : [

                                                    ],
                                                    "start" : 120,
                                                    "duration" : 6,
                                                    "mediaStart" : 0,
                                                    "mediaDuration" : 6,
                                                    "scalar" : 1,
                                                    "metadata" : {
                                                      "clipSpeedAttribute" : false
                                                    },
                                                    "animationTracks" : {

                                                    }
                                                  },
                                                  {
                                                    "id" : 894,
                                                    "_type" : "IMFile",
                                                    "src" : 20,
                                                    "trackNumber" : 0,
                                                    "trimStartSum" : 0,
                                                    "attributes" : {
                                                      "ident" : "wave3"
                                                    },
                                                    "parameters" : {
                                                      "translation0" : {
                                                        "type" : "double",
                                                        "defaultValue" : -1.11950146655987,
                                                        "interp" : "eioe"
                                                      },
                                                      "translation1" : {
                                                        "type" : "double",
                                                        "defaultValue" : 8.12143442823202,
                                                        "interp" : "eioe"
                                                      },
                                                      "scale0" : {
                                                        "type" : "double",
                                                        "defaultValue" : 1.00893326326855,
                                                        "interp" : "eioe"
                                                      },
                                                      "scale1" : {
                                                        "type" : "double",
                                                        "defaultValue" : 1.00893326326855,
                                                        "interp" : "eioe"
                                                      }
                                                    },
                                                    "effects" : [

                                                    ],
                                                    "start" : 126,
                                                    "duration" : 7,
                                                    "mediaStart" : 0,
                                                    "mediaDuration" : 7,
                                                    "scalar" : 1,
                                                    "metadata" : {
                                                      "clipSpeedAttribute" : false
                                                    },
                                                    "animationTracks" : {

                                                    }
                                                  },
                                                  {
                                                    "id" : 895,
                                                    "_type" : "IMFile",
                                                    "src" : 18,
                                                    "trackNumber" : 0,
                                                    "trimStartSum" : 0,
                                                    "attributes" : {
                                                      "ident" : "wave1"
                                                    },
                                                    "parameters" : {
                                                      "translation0" : {
                                                        "type" : "double",
                                                        "defaultValue" : -2.11950146613311,
                                                        "interp" : "eioe"
                                                      },
                                                      "translation1" : {
                                                        "type" : "double",
                                                        "defaultValue" : 8.96940103546206,
                                                        "interp" : "eioe"
                                                      },
                                                      "scale0" : {
                                                        "type" : "double",
                                                        "defaultValue" : 1.02884111169424,
                                                        "interp" : "eioe"
                                                      },
                                                      "scale1" : {
                                                        "type" : "double",
                                                        "defaultValue" : 1.02884111169424,
                                                        "interp" : "eioe"
                                                      }
                                                    },
                                                    "effects" : [

                                                    ],
                                                    "start" : 133,
                                                    "duration" : 6,
                                                    "mediaStart" : 0,
                                                    "mediaDuration" : 6,
                                                    "scalar" : 1,
                                                    "metadata" : {
                                                      "clipSpeedAttribute" : false
                                                    },
                                                    "animationTracks" : {

                                                    }
                                                  },
                                                  {
                                                    "id" : 896,
                                                    "_type" : "IMFile",
                                                    "src" : 19,
                                                    "trackNumber" : 0,
                                                    "trimStartSum" : 0,
                                                    "attributes" : {
                                                      "ident" : "wave2"
                                                    },
                                                    "parameters" : {
                                                      "translation0" : {
                                                        "type" : "double",
                                                        "defaultValue" : 0.880498533167186,
                                                        "interp" : "eioe"
                                                      },
                                                      "translation1" : {
                                                        "type" : "double",
                                                        "defaultValue" : -88.087642172052,
                                                        "interp" : "eioe"
                                                      },
                                                      "scale0" : {
                                                        "type" : "double",
                                                        "defaultValue" : 1.03068101042332,
                                                        "interp" : "eioe"
                                                      },
                                                      "scale1" : {
                                                        "type" : "double",
                                                        "defaultValue" : 1.03068101042332,
                                                        "interp" : "eioe"
                                                      }
                                                    },
                                                    "effects" : [

                                                    ],
                                                    "start" : 139,
                                                    "duration" : 6,
                                                    "mediaStart" : 0,
                                                    "mediaDuration" : 6,
                                                    "scalar" : 1,
                                                    "metadata" : {
                                                      "clipSpeedAttribute" : false
                                                    },
                                                    "animationTracks" : {

                                                    }
                                                  },
                                                  {
                                                    "id" : 897,
                                                    "_type" : "IMFile",
                                                    "src" : 20,
                                                    "trackNumber" : 0,
                                                    "trimStartSum" : 0,
                                                    "attributes" : {
                                                      "ident" : "wave3"
                                                    },
                                                    "parameters" : {
                                                      "translation0" : {
                                                        "type" : "double",
                                                        "defaultValue" : -1.11950146655987,
                                                        "interp" : "eioe"
                                                      },
                                                      "translation1" : {
                                                        "type" : "double",
                                                        "defaultValue" : 8.12143442823202,
                                                        "interp" : "eioe"
                                                      },
                                                      "scale0" : {
                                                        "type" : "double",
                                                        "defaultValue" : 1.00893326326855,
                                                        "interp" : "eioe"
                                                      },
                                                      "scale1" : {
                                                        "type" : "double",
                                                        "defaultValue" : 1.00893326326855,
                                                        "interp" : "eioe"
                                                      }
                                                    },
                                                    "effects" : [

                                                    ],
                                                    "start" : 145,
                                                    "duration" : 7,
                                                    "mediaStart" : 0,
                                                    "mediaDuration" : 7,
                                                    "scalar" : 1,
                                                    "metadata" : {
                                                      "clipSpeedAttribute" : false
                                                    },
                                                    "animationTracks" : {

                                                    }
                                                  },
                                                  {
                                                    "id" : 898,
                                                    "_type" : "IMFile",
                                                    "src" : 18,
                                                    "trackNumber" : 0,
                                                    "trimStartSum" : 0,
                                                    "attributes" : {
                                                      "ident" : "wave1"
                                                    },
                                                    "parameters" : {
                                                      "translation0" : {
                                                        "type" : "double",
                                                        "defaultValue" : -2.11950146613311,
                                                        "interp" : "eioe"
                                                      },
                                                      "translation1" : {
                                                        "type" : "double",
                                                        "defaultValue" : 8.96940103546206,
                                                        "interp" : "eioe"
                                                      },
                                                      "scale0" : {
                                                        "type" : "double",
                                                        "defaultValue" : 1.02884111169424,
                                                        "interp" : "eioe"
                                                      },
                                                      "scale1" : {
                                                        "type" : "double",
                                                        "defaultValue" : 1.02884111169424,
                                                        "interp" : "eioe"
                                                      }
                                                    },
                                                    "effects" : [

                                                    ],
                                                    "start" : 152,
                                                    "duration" : 6,
                                                    "mediaStart" : 0,
                                                    "mediaDuration" : 6,
                                                    "scalar" : 1,
                                                    "metadata" : {
                                                      "clipSpeedAttribute" : false
                                                    },
                                                    "animationTracks" : {

                                                    }
                                                  },
                                                  {
                                                    "id" : 899,
                                                    "_type" : "IMFile",
                                                    "src" : 19,
                                                    "trackNumber" : 0,
                                                    "trimStartSum" : 0,
                                                    "attributes" : {
                                                      "ident" : "wave2"
                                                    },
                                                    "parameters" : {
                                                      "translation0" : {
                                                        "type" : "double",
                                                        "defaultValue" : 0.880498533167186,
                                                        "interp" : "eioe"
                                                      },
                                                      "translation1" : {
                                                        "type" : "double",
                                                        "defaultValue" : -88.087642172052,
                                                        "interp" : "eioe"
                                                      },
                                                      "scale0" : {
                                                        "type" : "double",
                                                        "defaultValue" : 1.03068101042332,
                                                        "interp" : "eioe"
                                                      },
                                                      "scale1" : {
                                                        "type" : "double",
                                                        "defaultValue" : 1.03068101042332,
                                                        "interp" : "eioe"
                                                      }
                                                    },
                                                    "effects" : [

                                                    ],
                                                    "start" : 158,
                                                    "duration" : 6,
                                                    "mediaStart" : 0,
                                                    "mediaDuration" : 6,
                                                    "scalar" : 1,
                                                    "metadata" : {
                                                      "clipSpeedAttribute" : false
                                                    },
                                                    "animationTracks" : {

                                                    }
                                                  },
                                                  {
                                                    "id" : 900,
                                                    "_type" : "IMFile",
                                                    "src" : 20,
                                                    "trackNumber" : 0,
                                                    "trimStartSum" : 0,
                                                    "attributes" : {
                                                      "ident" : "wave3"
                                                    },
                                                    "parameters" : {
                                                      "translation0" : {
                                                        "type" : "double",
                                                        "defaultValue" : -1.11950146655987,
                                                        "interp" : "eioe"
                                                      },
                                                      "translation1" : {
                                                        "type" : "double",
                                                        "defaultValue" : 8.12143442823202,
                                                        "interp" : "eioe"
                                                      },
                                                      "scale0" : {
                                                        "type" : "double",
                                                        "defaultValue" : 1.00893326326855,
                                                        "interp" : "eioe"
                                                      },
                                                      "scale1" : {
                                                        "type" : "double",
                                                        "defaultValue" : 1.00893326326855,
                                                        "interp" : "eioe"
                                                      }
                                                    },
                                                    "effects" : [

                                                    ],
                                                    "start" : 164,
                                                    "duration" : 7,
                                                    "mediaStart" : 0,
                                                    "mediaDuration" : 7,
                                                    "scalar" : 1,
                                                    "metadata" : {
                                                      "clipSpeedAttribute" : false
                                                    },
                                                    "animationTracks" : {

                                                    }
                                                  },
                                                  {
                                                    "id" : 901,
                                                    "_type" : "IMFile",
                                                    "src" : 18,
                                                    "trackNumber" : 0,
                                                    "trimStartSum" : 0,
                                                    "attributes" : {
                                                      "ident" : "wave1"
                                                    },
                                                    "parameters" : {
                                                      "translation0" : {
                                                        "type" : "double",
                                                        "defaultValue" : -2.11950146613311,
                                                        "interp" : "eioe"
                                                      },
                                                      "translation1" : {
                                                        "type" : "double",
                                                        "defaultValue" : 8.96940103546206,
                                                        "interp" : "eioe"
                                                      },
                                                      "scale0" : {
                                                        "type" : "double",
                                                        "defaultValue" : 1.02884111169424,
                                                        "interp" : "eioe"
                                                      },
                                                      "scale1" : {
                                                        "type" : "double",
                                                        "defaultValue" : 1.02884111169424,
                                                        "interp" : "eioe"
                                                      }
                                                    },
                                                    "effects" : [

                                                    ],
                                                    "start" : 171,
                                                    "duration" : 6,
                                                    "mediaStart" : 0,
                                                    "mediaDuration" : 6,
                                                    "scalar" : 1,
                                                    "metadata" : {
                                                      "clipSpeedAttribute" : false
                                                    },
                                                    "animationTracks" : {

                                                    }
                                                  },
                                                  {
                                                    "id" : 902,
                                                    "_type" : "IMFile",
                                                    "src" : 19,
                                                    "trackNumber" : 0,
                                                    "trimStartSum" : 0,
                                                    "attributes" : {
                                                      "ident" : "wave2"
                                                    },
                                                    "parameters" : {
                                                      "translation0" : {
                                                        "type" : "double",
                                                        "defaultValue" : 0.880498533167186,
                                                        "interp" : "eioe"
                                                      },
                                                      "translation1" : {
                                                        "type" : "double",
                                                        "defaultValue" : -88.087642172052,
                                                        "interp" : "eioe"
                                                      },
                                                      "scale0" : {
                                                        "type" : "double",
                                                        "defaultValue" : 1.03068101042332,
                                                        "interp" : "eioe"
                                                      },
                                                      "scale1" : {
                                                        "type" : "double",
                                                        "defaultValue" : 1.03068101042332,
                                                        "interp" : "eioe"
                                                      }
                                                    },
                                                    "effects" : [

                                                    ],
                                                    "start" : 177,
                                                    "duration" : 6,
                                                    "mediaStart" : 0,
                                                    "mediaDuration" : 6,
                                                    "scalar" : 1,
                                                    "metadata" : {
                                                      "clipSpeedAttribute" : false
                                                    },
                                                    "animationTracks" : {

                                                    }
                                                  },
                                                  {
                                                    "id" : 903,
                                                    "_type" : "IMFile",
                                                    "src" : 20,
                                                    "trackNumber" : 0,
                                                    "trimStartSum" : 0,
                                                    "attributes" : {
                                                      "ident" : "wave3"
                                                    },
                                                    "parameters" : {
                                                      "translation0" : {
                                                        "type" : "double",
                                                        "defaultValue" : -1.11950146655987,
                                                        "interp" : "eioe"
                                                      },
                                                      "translation1" : {
                                                        "type" : "double",
                                                        "defaultValue" : 8.12143442823202,
                                                        "interp" : "eioe"
                                                      },
                                                      "scale0" : {
                                                        "type" : "double",
                                                        "defaultValue" : 1.00893326326855,
                                                        "interp" : "eioe"
                                                      },
                                                      "scale1" : {
                                                        "type" : "double",
                                                        "defaultValue" : 1.00893326326855,
                                                        "interp" : "eioe"
                                                      }
                                                    },
                                                    "effects" : [

                                                    ],
                                                    "start" : 183,
                                                    "duration" : 7,
                                                    "mediaStart" : 0,
                                                    "mediaDuration" : 7,
                                                    "scalar" : 1,
                                                    "metadata" : {
                                                      "clipSpeedAttribute" : false
                                                    },
                                                    "animationTracks" : {

                                                    }
                                                  },
                                                  {
                                                    "id" : 904,
                                                    "_type" : "IMFile",
                                                    "src" : 18,
                                                    "trackNumber" : 0,
                                                    "trimStartSum" : 0,
                                                    "attributes" : {
                                                      "ident" : "wave1"
                                                    },
                                                    "parameters" : {
                                                      "translation0" : {
                                                        "type" : "double",
                                                        "defaultValue" : -2.11950146613311,
                                                        "interp" : "eioe"
                                                      },
                                                      "translation1" : {
                                                        "type" : "double",
                                                        "defaultValue" : 8.96940103546206,
                                                        "interp" : "eioe"
                                                      },
                                                      "scale0" : {
                                                        "type" : "double",
                                                        "defaultValue" : 1.02884111169424,
                                                        "interp" : "eioe"
                                                      },
                                                      "scale1" : {
                                                        "type" : "double",
                                                        "defaultValue" : 1.02884111169424,
                                                        "interp" : "eioe"
                                                      }
                                                    },
                                                    "effects" : [

                                                    ],
                                                    "start" : 190,
                                                    "duration" : 6,
                                                    "mediaStart" : 0,
                                                    "mediaDuration" : 6,
                                                    "scalar" : 1,
                                                    "metadata" : {
                                                      "clipSpeedAttribute" : false
                                                    },
                                                    "animationTracks" : {

                                                    }
                                                  },
                                                  {
                                                    "id" : 905,
                                                    "_type" : "IMFile",
                                                    "src" : 19,
                                                    "trackNumber" : 0,
                                                    "trimStartSum" : 0,
                                                    "attributes" : {
                                                      "ident" : "wave2"
                                                    },
                                                    "parameters" : {
                                                      "translation0" : {
                                                        "type" : "double",
                                                        "defaultValue" : 0.880498533167186,
                                                        "interp" : "eioe"
                                                      },
                                                      "translation1" : {
                                                        "type" : "double",
                                                        "defaultValue" : -88.087642172052,
                                                        "interp" : "eioe"
                                                      },
                                                      "scale0" : {
                                                        "type" : "double",
                                                        "defaultValue" : 1.03068101042332,
                                                        "interp" : "eioe"
                                                      },
                                                      "scale1" : {
                                                        "type" : "double",
                                                        "defaultValue" : 1.03068101042332,
                                                        "interp" : "eioe"
                                                      }
                                                    },
                                                    "effects" : [

                                                    ],
                                                    "start" : 196,
                                                    "duration" : 4,
                                                    "mediaStart" : 0,
                                                    "mediaDuration" : 4,
                                                    "scalar" : 1,
                                                    "metadata" : {
                                                      "clipSpeedAttribute" : false
                                                    },
                                                    "animationTracks" : {

                                                    }
                                                  }
                                                ],
                                                  "ident" : "",
                                                  "audioMuted" : false,
                                                  "videoHidden" : false,
                                                  "magnetic" : false,
                                                  "matte" : 0,
                                                  "metadata" : {
                                                    "IsLocked" : "False",
                                                    "WinTrackHeight" : "0"
                                                  }
                                              },
                                              {
                                                "trackIndex" : 1,
                                                "medias" : [
                                                  {
                                                    "id" : 906,
                                                    "_type" : "IMFile",
                                                    "src" : 21,
                                                    "trackNumber" : 0,
                                                    "trimStartSum" : 0,
                                                    "attributes" : {
                                                      "ident" : "control-plane-128"
                                                    },
                                                    "parameters" : {
                                                      "translation0" : {
                                                        "type" : "double",
                                                        "defaultValue" : -785.119501466663,
                                                        "interp" : "eioe"
                                                      },
                                                      "translation1" : {
                                                        "type" : "double",
                                                        "defaultValue" : 199.818754449228,
                                                        "interp" : "eioe"
                                                      }
                                                    },
                                                    "effects" : [

                                                    ],
                                                    "start" : 0,
                                                    "duration" : 19,
                                                    "mediaStart" : 0,
                                                    "mediaDuration" : 19,
                                                    "scalar" : 1,
                                                    "metadata" : {
                                                      "clipSpeedAttribute" : false
                                                    },
                                                    "animationTracks" : {

                                                    }
                                                  },
                                                  {
                                                    "id" : 907,
                                                    "_type" : "IMFile",
                                                    "src" : 22,
                                                    "trackNumber" : 0,
                                                    "trimStartSum" : 0,
                                                    "attributes" : {
                                                      "ident" : "etcd-128"
                                                    },
                                                    "parameters" : {
                                                      "translation0" : {
                                                        "type" : "double",
                                                        "defaultValue" : -655.119501466745,
                                                        "interp" : "eioe"
                                                      },
                                                      "translation1" : {
                                                        "type" : "double",
                                                        "defaultValue" : 120.373795393553,
                                                        "interp" : "eioe"
                                                      }
                                                    },
                                                    "effects" : [

                                                    ],
                                                    "start" : 19,
                                                    "duration" : 22,
                                                    "mediaStart" : 0,
                                                    "mediaDuration" : 22,
                                                    "scalar" : 1,
                                                    "metadata" : {
                                                      "clipSpeedAttribute" : false
                                                    },
                                                    "animationTracks" : {

                                                    }
                                                  },
                                                  {
                                                    "id" : 908,
                                                    "_type" : "IMFile",
                                                    "src" : 23,
                                                    "trackNumber" : 0,
                                                    "trimStartSum" : 0,
                                                    "attributes" : {
                                                      "ident" : "node-128"
                                                    },
                                                    "parameters" : {
                                                      "translation0" : {
                                                        "type" : "double",
                                                        "defaultValue" : -315.119501466444,
                                                        "interp" : "eioe"
                                                      },
                                                      "translation1" : {
                                                        "type" : "double",
                                                        "defaultValue" : 135.818754449343,
                                                        "interp" : "eioe"
                                                      }
                                                    },
                                                    "effects" : [

                                                    ],
                                                    "start" : 41,
                                                    "duration" : 18,
                                                    "mediaStart" : 0,
                                                    "mediaDuration" : 18,
                                                    "scalar" : 1,
                                                    "metadata" : {
                                                      "clipSpeedAttribute" : false
                                                    },
                                                    "animationTracks" : {

                                                    }
                                                  },
                                                  {
                                                    "id" : 909,
                                                    "_type" : "IMFile",
                                                    "src" : 24,
                                                    "trackNumber" : 0,
                                                    "trimStartSum" : 0,
                                                    "attributes" : {
                                                      "ident" : "ns-128"
                                                    },
                                                    "parameters" : {
                                                      "translation0" : {
                                                        "type" : "double",
                                                        "defaultValue" : -345.11950146672,
                                                        "interp" : "eioe"
                                                      },
                                                      "translation1" : {
                                                        "type" : "double",
                                                        "defaultValue" : 158.121434428201,
                                                        "interp" : "eioe"
                                                      }
                                                    },
                                                    "effects" : [

                                                    ],
                                                    "start" : 59,
                                                    "duration" : 23,
                                                    "mediaStart" : 0,
                                                    "mediaDuration" : 23,
                                                    "scalar" : 1,
                                                    "metadata" : {
                                                      "clipSpeedAttribute" : false
                                                    },
                                                    "animationTracks" : {

                                                    }
                                                  },
                                                  {
                                                    "id" : 910,
                                                    "_type" : "IMFile",
                                                    "src" : 25,
                                                    "trackNumber" : 0,
                                                    "trimStartSum" : 0,
                                                    "attributes" : {
                                                      "ident" : "pod-128"
                                                    },
                                                    "parameters" : {
                                                      "translation0" : {
                                                        "type" : "double",
                                                        "defaultValue" : -91.1195014666742,
                                                        "interp" : "eioe"
                                                      },
                                                      "translation1" : {
                                                        "type" : "double",
                                                        "defaultValue" : 100.121434428219,
                                                        "interp" : "eioe"
                                                      }
                                                    },
                                                    "effects" : [

                                                    ],
                                                    "start" : 82,
                                                    "duration" : 16,
                                                    "mediaStart" : 0,
                                                    "mediaDuration" : 16,
                                                    "scalar" : 1,
                                                    "metadata" : {
                                                      "clipSpeedAttribute" : false
                                                    },
                                                    "animationTracks" : {

                                                    }
                                                  },
                                                  {
                                                    "id" : 911,
                                                    "_type" : "IMFile",
                                                    "src" : 26,
                                                    "trackNumber" : 0,
                                                    "trimStartSum" : 0,
                                                    "attributes" : {
                                                      "ident" : "secret-128"
                                                    },
                                                    "parameters" : {
                                                      "translation0" : {
                                                        "type" : "double",
                                                        "defaultValue" : -1.11950146666447,
                                                        "interp" : "eioe"
                                                      },
                                                      "translation1" : {
                                                        "type" : "double",
                                                        "defaultValue" : 140.121434428194,
                                                        "interp" : "eioe"
                                                      }
                                                    },
                                                    "effects" : [

                                                    ],
                                                    "start" : 98,
                                                    "duration" : 17,
                                                    "mediaStart" : 0,
                                                    "mediaDuration" : 17,
                                                    "scalar" : 1,
                                                    "metadata" : {
                                                      "clipSpeedAttribute" : false
                                                    },
                                                    "animationTracks" : {

                                                    }
                                                  },
                                                  {
                                                    "id" : 912,
                                                    "_type" : "IMFile",
                                                    "src" : 27,
                                                    "trackNumber" : 0,
                                                    "trimStartSum" : 0,
                                                    "attributes" : {
                                                      "ident" : "svc-128"
                                                    },
                                                    "parameters" : {
                                                      "translation0" : {
                                                        "type" : "double",
                                                        "defaultValue" : 258.880498533338,
                                                        "interp" : "eioe"
                                                      },
                                                      "translation1" : {
                                                        "type" : "double",
                                                        "defaultValue" : 112.121434428216,
                                                        "interp" : "eioe"
                                                      }
                                                    },
                                                    "effects" : [

                                                    ],
                                                    "start" : 115,
                                                    "duration" : 14,
                                                    "mediaStart" : 0,
                                                    "mediaDuration" : 14,
                                                    "scalar" : 1,
                                                    "metadata" : {
                                                      "clipSpeedAttribute" : false
                                                    },
                                                    "animationTracks" : {

                                                    }
                                                  },
                                                  {
                                                    "id" : 913,
                                                    "_type" : "IMFile",
                                                    "src" : 27,
                                                    "trackNumber" : 0,
                                                    "trimStartSum" : 0,
                                                    "attributes" : {
                                                      "ident" : "svc-128"
                                                    },
                                                    "parameters" : {
                                                      "translation0" : {
                                                        "type" : "double",
                                                        "defaultValue" : 346.880498533407,
                                                        "interp" : "eioe"
                                                      },
                                                      "translation1" : {
                                                        "type" : "double",
                                                        "defaultValue" : 120.121434428205,
                                                        "interp" : "eioe"
                                                      }
                                                    },
                                                    "effects" : [

                                                    ],
                                                    "start" : 129,
                                                    "duration" : 14,
                                                    "mediaStart" : 0,
                                                    "mediaDuration" : 14,
                                                    "scalar" : 1,
                                                    "metadata" : {
                                                      "clipSpeedAttribute" : false
                                                    },
                                                    "animationTracks" : {

                                                    }
                                                  },
                                                  {
                                                    "id" : 914,
                                                    "_type" : "IMFile",
                                                    "src" : 28,
                                                    "trackNumber" : 0,
                                                    "trimStartSum" : 0,
                                                    "attributes" : {
                                                      "ident" : "rs-128"
                                                    },
                                                    "parameters" : {
                                                      "translation0" : {
                                                        "type" : "double",
                                                        "defaultValue" : 480.880498533387,
                                                        "interp" : "eioe"
                                                      },
                                                      "translation1" : {
                                                        "type" : "double",
                                                        "defaultValue" : 158.1214344282,
                                                        "interp" : "eioe"
                                                      }
                                                    },
                                                    "effects" : [

                                                    ],
                                                    "start" : 143,
                                                    "duration" : 13,
                                                    "mediaStart" : 0,
                                                    "mediaDuration" : 13,
                                                    "scalar" : 1,
                                                    "metadata" : {
                                                      "clipSpeedAttribute" : false
                                                    },
                                                    "animationTracks" : {

                                                    }
                                                  },
                                                  {
                                                    "id" : 915,
                                                    "_type" : "IMFile",
                                                    "src" : 29,
                                                    "trackNumber" : 0,
                                                    "trimStartSum" : 0,
                                                    "attributes" : {
                                                      "ident" : "vol-128"
                                                    },
                                                    "parameters" : {
                                                      "translation0" : {
                                                        "type" : "double",
                                                        "defaultValue" : 560.880498533409,
                                                        "interp" : "eioe"
                                                      },
                                                      "translation1" : {
                                                        "type" : "double",
                                                        "defaultValue" : 136.121434428193,
                                                        "interp" : "eioe"
                                                      }
                                                    },
                                                    "effects" : [

                                                    ],
                                                    "start" : 156,
                                                    "duration" : 14,
                                                    "mediaStart" : 0,
                                                    "mediaDuration" : 14,
                                                    "scalar" : 1,
                                                    "metadata" : {
                                                      "clipSpeedAttribute" : false
                                                    },
                                                    "animationTracks" : {

                                                    }
                                                  },
                                                  {
                                                    "id" : 916,
                                                    "_type" : "IMFile",
                                                    "src" : 30,
                                                    "trackNumber" : 0,
                                                    "trimStartSum" : 0,
                                                    "attributes" : {
                                                      "ident" : "deploy-128"
                                                    },
                                                    "parameters" : {
                                                      "translation0" : {
                                                        "type" : "double",
                                                        "defaultValue" : 716.880498533367,
                                                        "interp" : "eioe"
                                                      },
                                                      "translation1" : {
                                                        "type" : "double",
                                                        "defaultValue" : 84.1214344281821,
                                                        "interp" : "eioe"
                                                      }
                                                    },
                                                    "effects" : [

                                                    ],
                                                    "start" : 170,
                                                    "duration" : 13,
                                                    "mediaStart" : 0,
                                                    "mediaDuration" : 13,
                                                    "scalar" : 1,
                                                    "metadata" : {
                                                      "clipSpeedAttribute" : false
                                                    },
                                                    "animationTracks" : {

                                                    }
                                                  },
                                                  {
                                                    "id" : 917,
                                                    "_type" : "IMFile",
                                                    "src" : 31,
                                                    "trackNumber" : 0,
                                                    "trimStartSum" : 0,
                                                    "attributes" : {
                                                      "ident" : "cronjob-128"
                                                    },
                                                    "parameters" : {
                                                      "translation0" : {
                                                        "type" : "double",
                                                        "defaultValue" : 870.880498533812,
                                                        "interp" : "eioe"
                                                      },
                                                      "translation1" : {
                                                        "type" : "double",
                                                        "defaultValue" : 135.81875444932,
                                                        "interp" : "eioe"
                                                      }
                                                    },
                                                    "effects" : [

                                                    ],
                                                    "start" : 183,
                                                    "duration" : 17,
                                                    "mediaStart" : 0,
                                                    "mediaDuration" : 17,
                                                    "scalar" : 1,
                                                    "metadata" : {
                                                      "clipSpeedAttribute" : false
                                                    },
                                                    "animationTracks" : {

                                                    }
                                                  }
                                                ],
                                                  "ident" : "",
                                                  "audioMuted" : false,
                                                  "videoHidden" : false,
                                                  "magnetic" : false,
                                                  "matte" : 0,
                                                  "metadata" : {
                                                    "IsLocked" : "False",
                                                    "WinTrackHeight" : "3.6077993365582e-314"
                                                  }
                                              }
                                            ],
                                            "attributes" : {
                                              "ident" : "Group 1",
                                              "gain" : 1.0,
                                              "mixToMono" : false
                                            },
                                            "effects" : [

                                            ],
                                            "start" : 0,
                                            "duration" : 200,
                                            "mediaStart" : 0.0,
                                            "mediaDuration" : 200.0,
                                            "scalar" : 1,
                                            "metadata" : {
                                              "IsGroupExpanded" : "False"
                                            },
                                            "animationTracks" : {

                                            }
                                          }
                                        ],
                                          "ident" : "",
                                          "audioMuted" : false,
                                          "videoHidden" : false,
                                          "magnetic" : false,
                                          "matte" : 0,
                                          "metadata" : {
                                            "IsLocked" : "False",
                                            "WinTrackHeight" : "0"
                                          }
                                      },
                                      {
                                        "trackIndex" : 1,
                                        "medias" : [
                                          {
                                            "id" : 918,
                                            "_type" : "IMFile",
                                            "src" : 32,
                                            "trackNumber" : 0,
                                            "trimStartSum" : 0,
                                            "attributes" : {
                                              "ident" : "k8sfavicon"
                                            },
                                            "parameters" : {
                                              "translation0" : {
                                                "type" : "double",
                                                "defaultValue" : -822.559750733209,
                                                "interp" : "eioe"
                                              },
                                              "translation1" : {
                                                "type" : "double",
                                                "defaultValue" : 466.970094438544,
                                                "interp" : "eioe"
                                              },
                                              "scale0" : {
                                                "type" : "double",
                                                "defaultValue" : 0.335937500000757,
                                                "interp" : "eioe"
                                              },
                                              "scale1" : {
                                                "type" : "double",
                                                "defaultValue" : 0.335937500000757,
                                                "interp" : "eioe"
                                              }
                                            },
                                            "effects" : [

                                            ],
                                            "start" : 0,
                                            "duration" : 200,
                                            "mediaStart" : 0,
                                            "mediaDuration" : 200,
                                            "scalar" : 1,
                                            "metadata" : {
                                              "clipSpeedAttribute" : false
                                            },
                                            "animationTracks" : {

                                            }
                                          }
                                        ],
                                          "ident" : "",
                                          "audioMuted" : false,
                                          "videoHidden" : false,
                                          "magnetic" : false,
                                          "matte" : 0,
                                          "metadata" : {
                                            "IsLocked" : "False",
                                            "WinTrackHeight" : "3.6077993365582e-314"
                                          }
                                      }
                                    ],
                                    "attributes" : {
                                      "ident" : "Group 2",
                                      "gain" : 1.0,
                                      "mixToMono" : false
                                    },
                                    "effects" : [

                                    ],
                                    "start" : 0,
                                    "duration" : 200,
                                    "mediaStart" : 0.0,
                                    "mediaDuration" : 200.0,
                                    "scalar" : 1,
                                    "metadata" : {
                                      "IsGroupExpanded" : "False"
                                    },
                                    "animationTracks" : {

                                    }
                                  }
                                ],
                                  "ident" : "",
                                  "audioMuted" : false,
                                  "videoHidden" : false,
                                  "magnetic" : false,
                                  "matte" : 0,
                                  "metadata" : {
                                    "IsLocked" : "False",
                                    "WinTrackHeight" : "0"
                                  }
                              },
                              {
                                "trackIndex" : 1,
                                "medias" : [
                                  {
                                    "id" : 919,
                                    "_type" : "AMFile",
                                    "src" : 33,
                                    "trackNumber" : 0,
                                    "attributes" : {
                                      "ident" : "wave",
                                      "gain" : 1.0,
                                      "mixToMono" : false
                                    },
                                      "channelNumber" : "0,1",
                                    "parameters" : {
                                      "volume" : {
                                        "type" : "double",
                                        "keyframes" : [
                                          {
                                            "endTime" : -1,
                                            "time" : -1,
                                            "value" : 1.0,
                                            "duration" : 0
                                          },
                                          {
                                            "endTime" : 0,
                                            "time" : 0,
                                            "value" : 0.0,
                                            "duration" : 0
                                          },
                                          {
                                            "endTime" : 82,
                                            "time" : 82,
                                            "value" : 0.384615384615384,
                                            "duration" : 0
                                          }
                                        ]
                                      }
                                    },
                                    "effects" : [

                                    ],
                                    "start" : 0,
                                    "duration" : 103,
                                    "mediaStart" : 0,
                                    "mediaDuration" : 103,
                                    "scalar" : 1,
                                    "metadata" : {
                                      "clipSpeedAttribute" : false
                                    },
                                    "animationTracks" : {

                                    }
                                  },
                                  {
                                    "id" : 920,
                                    "_type" : "AMFile",
                                    "src" : 33,
                                    "trackNumber" : 0,
                                    "attributes" : {
                                      "ident" : "wave",
                                      "gain" : 1.0,
                                      "mixToMono" : false
                                    },
                                      "channelNumber" : "0,1",
                                    "parameters" : {
                                      "volume" : {
                                        "type" : "double",
                                        "keyframes" : [
                                          {
                                            "endTime" : 0,
                                            "time" : 0,
                                            "value" : 0.770507364975449,
                                            "duration" : 0
                                          },
                                          {
                                            "endTime" : 134,
                                            "time" : 134,
                                            "value" : 0.232045826513911,
                                            "duration" : 0
                                          },
                                          {
                                            "endTime" : 200,
                                            "time" : 200,
                                            "value" : 0.0,
                                            "duration" : 0
                                          },
                                          {
                                            "endTime" : 201,
                                            "time" : 201,
                                            "value" : 1.0,
                                            "duration" : 0
                                          }
                                        ]
                                      }
                                    },
                                    "effects" : [

                                    ],
                                    "start" : 103,
                                    "duration" : 97,
                                    "mediaStart" : 103,
                                    "mediaDuration" : 97,
                                    "scalar" : 1,
                                    "metadata" : {
                                      "clipSpeedAttribute" : false
                                    },
                                    "animationTracks" : {

                                    }
                                  }
                                ],
                                  "ident" : "",
                                  "audioMuted" : false,
                                  "videoHidden" : false,
                                  "magnetic" : false,
                                  "matte" : 0,
                                  "metadata" : {
                                    "IsLocked" : "False",
                                    "WinTrackHeight" : "2.26715762571713e-312"
                                  }
                              }
                            ],
                            "attributes" : {
                              "ident" : "Group 1",
                              "gain" : 1.0,
                              "mixToMono" : false
                            },
                            "effects" : [

                            ],
                            "start" : 0,
                            "duration" : 200,
                            "mediaStart" : 0.0,
                            "mediaDuration" : 200.0,
                            "scalar" : 1,
                            "metadata" : {
                              "IsGroupExpanded" : "False"
                            },
                            "animationTracks" : {

                            }
                          }
                        ],
                          "ident" : "",
                          "audioMuted" : false,
                          "videoHidden" : false,
                          "magnetic" : false,
                          "matte" : 0,
                          "metadata" : {
                            "IsLocked" : "False",
                            "WinTrackHeight" : "1.26570614873064e-312"
                          }
                      }
                    ],
                    "attributes" : {
                      "ident" : "end",
                      "gain" : 1.0,
                      "mixToMono" : false
                    },
                    "effects" : [

                    ],
                    "start" : 5432,
                    "duration" : 200,
                    "mediaStart" : 0.0,
                    "mediaDuration" : 200.0,
                    "scalar" : 1,
                    "metadata" : {
                      "IsGroupExpanded" : "False"
                    },
                    "animationTracks" : {

                    }
                  }
                ]
              },
              {
                "trackIndex" : 2,
                "medias" : [
                ]
              }
            ]
          }
        }
      ]
    },
    "trackAttributes" : [
      {
        "ident" : "",
        "audioMuted" : false,
        "videoHidden" : false,
        "magnetic" : false,
        "matte" : 0,
        "metadata" : {
          "IsLocked" : "False",
          "WinTrackHeight" : "56"
        }
      },
      {
        "ident" : "",
        "audioMuted" : false,
        "videoHidden" : false,
        "magnetic" : false,
        "matte" : 0,
        "metadata" : {
          "IsLocked" : "False",
          "WinTrackHeight" : "56"
        }
      },
      {
        "ident" : "",
        "audioMuted" : false,
        "videoHidden" : false,
        "magnetic" : false,
        "matte" : 0,
        "metadata" : {
          "IsLocked" : "False",
          "WinTrackHeight" : "56"
        }
      }
    ],
    "captionAttributes" : {
      "enabled" : true,
      "fontName" : "Arial",
      "fontSize" : 64,
      "backgroundColor" : [ 0, 0, 0, 191],
      "foregroundColor" : [ 255, 255, 255, 255],
      "lang" : "en",
      "alignment" : 0,
      "defaultFontSize" : true,
      "opacity" : 0.5,
      "backgroundEnabled" : true,
      "backgroundOnlyAroundText" : true
    },
    "backgroundColor" : [ 30, 30, 30, 255]
  },
  "metadata" : {
    "AutoSaveFile" : "C:\\Users\\lianduan\\AppData\\Local\\TechSmith\\Camtasia Studio\\19.0\\Auto-Saves\\3-2 kubernetes-ReplicaSet944f0a.autosave.tscproj",
    "CanvasZoom" : 50,
    "Date" : "2021-01-18 06:46:56 AM",
    "IsAutoSave" : "0",
    "Language" : "ENU",
    "ProfileName" : "",
    "ProjectDimensionsChanged" : "1",
    "Title" : "3-2 kubernetes-ReplicaSet",
    "audioNarrationNotes" : "",
    "calloutStyle" : "Basic",
    "canvasDetached" : "False",
    "canvasPositionHeight" : "0",
    "canvasPositionLeft" : "0",
    "canvasPositionTop" : "0",
    "canvasPositionWidth" : "0"
  }
}
