{
  "title" : "",
  "description" : "",
  "author" : "",
  "targetLoudness" : -18.0,
  "shouldApplyLoudnessNormalization" : true,
  "videoFormatFrameRate" : 30,
  "audioFormatSampleRate" : 44100,
  "width" : 1920.0,
  "height" : 1080.0,
  "version" : "3.0",
  "editRate" : 30,
  "authoringClientName" :  {
    "name" : "Camtasia",
    "platform" : "Windows",
    "version" : "19.0"
  },
  "sourceBin" : [
    {
      "id" : 1,
      "src" : "D:\\Code\\K8S\\video\\rec\\Rec 01-28-21_001.trec",
      "rect" : [0, 0, 1920, 1080],
      "lastMod" : "20210128T212818",
      "sourceTracks" : [
        {
          "range" : [0, 10421],
          "type" : 0,
          "editRate" : 30,
          "trackRect" : [0, 0, 1920, 1080],
          "sampleRate" : 24,
          "bitDepth" : 0,
          "numChannels" : 0,
          "integratedLUFS" : 100.0,
          "peakLevel" : -1.0,
          "metaData" : "2b7b6a00-7a1f-11e2-83d0-0017f200be7f;2b7b6aef-7a1f-11e2-83d0-0017f200be7f;2b7b6af0-7a1f-11e2-83d0-0017f200be7f;2b7b6af1-7a1f-11e2-83d0-0017f200be7f;2b7b6af2-7a1f-11e2-83d0-0017f200be7f;2b7b6af3-7a1f-11e2-83d0-0017f200be7f;2b7b6af5-7a1f-11e2-83d0-0017f200be7f;2b7b6af6-7a1f-11e2-83d0-0017f200be7f;2b7b6af7-7a1f-11e2-83d0-0017f200be7f;2b7b6af8-7a1f-11e2-83d0-0017f200be7f;2b7b6af9-7a1f-11e2-83d0-0017f200be7f;2b7b6afa-7a1f-11e2-83d0-0017f200be7f;"
        },
        {
          "range" : [0, 15304704],
          "type" : 2,
          "editRate" : 44100,
          "trackRect" : [0, 0, 0, 0],
          "sampleRate" : 44100,
          "bitDepth" : 16,
          "numChannels" : 2,
          "integratedLUFS" : -16.1844716856807,
          "peakLevel" : 1.0,
          "metaData" : ""
        }
      ],
      "metadata" : {
        "timeAdded" : "20210128T212819.025902"
      }
    },
    {
      "id" : 2,
      "src" : "D:\\Code\\K8S\\video\\rec\\Rec 01-28-21_002.trec",
      "rect" : [0, 0, 1920, 1080],
      "lastMod" : "20210128T213552",
      "sourceTracks" : [
        {
          "range" : [0, 12156],
          "type" : 0,
          "editRate" : 30,
          "trackRect" : [0, 0, 1920, 1080],
          "sampleRate" : 25,
          "bitDepth" : 0,
          "numChannels" : 0,
          "integratedLUFS" : 100.0,
          "peakLevel" : -1.0,
          "metaData" : "2b7b6a00-7a1f-11e2-83d0-0017f200be7f;2b7b6aef-7a1f-11e2-83d0-0017f200be7f;2b7b6af0-7a1f-11e2-83d0-0017f200be7f;2b7b6af1-7a1f-11e2-83d0-0017f200be7f;2b7b6af2-7a1f-11e2-83d0-0017f200be7f;2b7b6af3-7a1f-11e2-83d0-0017f200be7f;2b7b6af5-7a1f-11e2-83d0-0017f200be7f;2b7b6af6-7a1f-11e2-83d0-0017f200be7f;2b7b6af7-7a1f-11e2-83d0-0017f200be7f;2b7b6af8-7a1f-11e2-83d0-0017f200be7f;2b7b6af9-7a1f-11e2-83d0-0017f200be7f;2b7b6afa-7a1f-11e2-83d0-0017f200be7f;"
        },
        {
          "range" : [0, 17861632],
          "type" : 2,
          "editRate" : 44100,
          "trackRect" : [0, 0, 0, 0],
          "sampleRate" : 44100,
          "bitDepth" : 16,
          "numChannels" : 2,
          "integratedLUFS" : -19.1429451955607,
          "peakLevel" : 0.999969482421875,
          "metaData" : ""
        }
      ],
      "metadata" : {
        "timeAdded" : "20210128T213552.760619"
      }
    },
    {
      "id" : 3,
      "src" : "D:\\Code\\K8S\\video\\rec\\Rec 01-28-21_003.trec",
      "rect" : [0, 0, 1920, 1080],
      "lastMod" : "20210128T215146",
      "sourceTracks" : [
        {
          "range" : [0, 23572],
          "type" : 0,
          "editRate" : 30,
          "trackRect" : [0, 0, 1920, 1080],
          "sampleRate" : 25,
          "bitDepth" : 0,
          "numChannels" : 0,
          "integratedLUFS" : 100.0,
          "peakLevel" : -1.0,
          "metaData" : "2b7b6a00-7a1f-11e2-83d0-0017f200be7f;2b7b6aef-7a1f-11e2-83d0-0017f200be7f;2b7b6af0-7a1f-11e2-83d0-0017f200be7f;2b7b6af1-7a1f-11e2-83d0-0017f200be7f;2b7b6af2-7a1f-11e2-83d0-0017f200be7f;2b7b6af3-7a1f-11e2-83d0-0017f200be7f;2b7b6af5-7a1f-11e2-83d0-0017f200be7f;2b7b6af6-7a1f-11e2-83d0-0017f200be7f;2b7b6af7-7a1f-11e2-83d0-0017f200be7f;2b7b6af8-7a1f-11e2-83d0-0017f200be7f;2b7b6af9-7a1f-11e2-83d0-0017f200be7f;2b7b6afa-7a1f-11e2-83d0-0017f200be7f;"
        },
        {
          "range" : [0, 34641920],
          "type" : 2,
          "editRate" : 44100,
          "trackRect" : [0, 0, 0, 0],
          "sampleRate" : 44100,
          "bitDepth" : 16,
          "numChannels" : 2,
          "integratedLUFS" : -19.1111623825667,
          "peakLevel" : 0.999969482421875,
          "metaData" : ""
        }
      ],
      "metadata" : {
        "timeAdded" : "20210128T215146.902217"
      }
    },
    {
      "id" : 4,
      "src" : "D:\\Code\\K8S\\video\\3\\Narration_3-3 Kubernetes-Deployment 1.m4a",
      "rect" : [0, 0, 0, 0],
      "lastMod" : "20210131T140348",
      "sourceTracks" : [
        {
          "range" : [0, 25309750],
          "type" : 2,
          "editRate" : 10000000,
          "trackRect" : [0, 0, 0, 0],
          "sampleRate" : 44100,
          "bitDepth" : 16,
          "numChannels" : 2,
          "integratedLUFS" : -13.6034526265125,
          "peakLevel" : 1.00322914123535,
          "metaData" : ""
        }
      ],
      "metadata" : {
        "timeAdded" : "20210131T140355.279504"
      }
    },
    {
      "id" : 5,
      "src" : "D:\\Code\\K8S\\video\\3\\Narration_3-3 Kubernetes-Deployment 2.m4a",
      "rect" : [0, 0, 0, 0],
      "lastMod" : "20210131T144239",
      "sourceTracks" : [
        {
          "range" : [0, 34365532],
          "type" : 2,
          "editRate" : 10000000,
          "trackRect" : [0, 0, 0, 0],
          "sampleRate" : 44100,
          "bitDepth" : 16,
          "numChannels" : 2,
          "integratedLUFS" : -12.751290231529,
          "peakLevel" : 1.00169599056244,
          "metaData" : ""
        }
      ],
      "metadata" : {
        "timeAdded" : "20210131T144246.502690"
      }
    },
    {
      "id" : 6,
      "src" : "D:\\Code\\K8S\\video\\3\\Narration_3-3 Kubernetes-Deployment 3.m4a",
      "rect" : [0, 0, 0, 0],
      "lastMod" : "20210131T144334",
      "sourceTracks" : [
        {
          "range" : [0, 34597732],
          "type" : 2,
          "editRate" : 10000000,
          "trackRect" : [0, 0, 0, 0],
          "sampleRate" : 44100,
          "bitDepth" : 16,
          "numChannels" : 2,
          "integratedLUFS" : -12.9769421052975,
          "peakLevel" : 1.00032472610474,
          "metaData" : ""
        }
      ],
      "metadata" : {
        "timeAdded" : "20210131T144335.476579"
      }
    },
    {
      "id" : 7,
      "src" : "D:\\Code\\K8S\\video\\3\\Narration_3-3 Kubernetes-Deployment 4.m4a",
      "rect" : [0, 0, 0, 0],
      "lastMod" : "20210131T145529",
      "sourceTracks" : [
        {
          "range" : [0, 50155104],
          "type" : 2,
          "editRate" : 10000000,
          "trackRect" : [0, 0, 0, 0],
          "sampleRate" : 44100,
          "bitDepth" : 16,
          "numChannels" : 2,
          "integratedLUFS" : -14.7703171223717,
          "peakLevel" : 1.00368475914001,
          "metaData" : ""
        }
      ],
      "metadata" : {
        "timeAdded" : "20210131T145537.004466"
      }
    },
    {
      "id" : 8,
      "src" : "D:\\Code\\K8S\\video\\3\\Narration_3-3 Kubernetes-Deployment 5.m4a",
      "rect" : [0, 0, 0, 0],
      "lastMod" : "20210131T145606",
      "sourceTracks" : [
        {
          "range" : [0, 50851668],
          "type" : 2,
          "editRate" : 10000000,
          "trackRect" : [0, 0, 0, 0],
          "sampleRate" : 44100,
          "bitDepth" : 16,
          "numChannels" : 2,
          "integratedLUFS" : -16.0787231040397,
          "peakLevel" : 0.993669152259827,
          "metaData" : ""
        }
      ],
      "metadata" : {
        "timeAdded" : "20210131T145608.014406"
      }
    },
    {
      "id" : 9,
      "src" : "D:\\Code\\K8S\\video\\3\\Narration_3-3 Kubernetes-Deployment 6.m4a",
      "rect" : [0, 0, 0, 0],
      "lastMod" : "20210131T183619",
      "sourceTracks" : [
        {
          "range" : [0, 19736962],
          "type" : 2,
          "editRate" : 10000000,
          "trackRect" : [0, 0, 0, 0],
          "sampleRate" : 44100,
          "bitDepth" : 16,
          "numChannels" : 2,
          "integratedLUFS" : -12.7200558244608,
          "peakLevel" : 0.998748540878296,
          "metaData" : ""
        }
      ],
      "metadata" : {
        "timeAdded" : "20210131T183626.678436"
      }
    },
    {
      "id" : 10,
      "src" : "D:\\Code\\K8S\\video\\3\\Narration_3-3 Kubernetes-Deployment 7.m4a",
      "rect" : [0, 0, 0, 0],
      "lastMod" : "20210131T202359",
      "sourceTracks" : [
        {
          "range" : [0, 40634888],
          "type" : 2,
          "editRate" : 10000000,
          "trackRect" : [0, 0, 0, 0],
          "sampleRate" : 44100,
          "bitDepth" : 16,
          "numChannels" : 2,
          "integratedLUFS" : -15.0123090473352,
          "peakLevel" : 1.00802266597748,
          "metaData" : ""
        }
      ],
      "metadata" : {
        "timeAdded" : "20210131T202405.435505"
      }
    },
    {
      "id" : 11,
      "src" : "D:\\Code\\K8S\\video\\3\\Narration_3-3 Kubernetes-Deployment 8.m4a",
      "rect" : [0, 0, 0, 0],
      "lastMod" : "20210131T202830",
      "sourceTracks" : [
        {
          "range" : [0, 141409520],
          "type" : 2,
          "editRate" : 10000000,
          "trackRect" : [0, 0, 0, 0],
          "sampleRate" : 44100,
          "bitDepth" : 16,
          "numChannels" : 2,
          "integratedLUFS" : -15.6984096863998,
          "peakLevel" : 1.00135612487793,
          "metaData" : ""
        }
      ],
      "metadata" : {
        "timeAdded" : "20210131T202837.292424"
      }
    },
    {
      "id" : 12,
      "src" : "D:\\Code\\K8S\\video\\3\\Narration_3-3 Kubernetes-Deployment 9.m4a",
      "rect" : [0, 0, 0, 0],
      "lastMod" : "20210131T204813",
      "sourceTracks" : [
        {
          "range" : [0, 43421316],
          "type" : 2,
          "editRate" : 10000000,
          "trackRect" : [0, 0, 0, 0],
          "sampleRate" : 44100,
          "bitDepth" : 16,
          "numChannels" : 2,
          "integratedLUFS" : -14.2925312573423,
          "peakLevel" : 1.00395667552948,
          "metaData" : ""
        }
      ],
      "metadata" : {
        "timeAdded" : "20210131T204820.384508"
      }
    },
    {
      "id" : 13,
      "src" : "D:\\Code\\K8S\\video\\3\\Narration_3-3 Kubernetes-Deployment 10.m4a",
      "rect" : [0, 0, 0, 0],
      "lastMod" : "20210131T205013",
      "sourceTracks" : [
        {
          "range" : [0, 27863946],
          "type" : 2,
          "editRate" : 10000000,
          "trackRect" : [0, 0, 0, 0],
          "sampleRate" : 44100,
          "bitDepth" : 16,
          "numChannels" : 2,
          "integratedLUFS" : -14.1280224963962,
          "peakLevel" : 0.815097212791443,
          "metaData" : ""
        }
      ],
      "metadata" : {
        "timeAdded" : "20210131T205020.969234"
      }
    },
    {
      "id" : 14,
      "src" : "D:\\Code\\K8S\\video\\3\\Narration_3-3 Kubernetes-Deployment 11.m4a",
      "rect" : [0, 0, 0, 0],
      "lastMod" : "20210131T205214",
      "sourceTracks" : [
        {
          "range" : [0, 67570072],
          "type" : 2,
          "editRate" : 10000000,
          "trackRect" : [0, 0, 0, 0],
          "sampleRate" : 44100,
          "bitDepth" : 16,
          "numChannels" : 2,
          "integratedLUFS" : -16.3484741482235,
          "peakLevel" : 1.00242209434509,
          "metaData" : ""
        }
      ],
      "metadata" : {
        "timeAdded" : "20210131T205221.303320"
      }
    },
    {
      "id" : 15,
      "src" : "D:\\Code\\K8S\\video\\3\\Narration_3-3 Kubernetes-Deployment 12.m4a",
      "rect" : [0, 0, 0, 0],
      "lastMod" : "20210131T211310",
      "sourceTracks" : [
        {
          "range" : [0, 61300668],
          "type" : 2,
          "editRate" : 10000000,
          "trackRect" : [0, 0, 0, 0],
          "sampleRate" : 44100,
          "bitDepth" : 16,
          "numChannels" : 2,
          "integratedLUFS" : -18.2592857024393,
          "peakLevel" : 0.945299685001373,
          "metaData" : ""
        }
      ],
      "metadata" : {
        "timeAdded" : "20210131T211317.462073"
      }
    },
    {
      "id" : 16,
      "src" : "D:\\Code\\K8S\\video\\3\\Narration_3-3 Kubernetes-Deployment 13.m4a",
      "rect" : [0, 0, 0, 0],
      "lastMod" : "20210131T211533",
      "sourceTracks" : [
        {
          "range" : [0, 63390444],
          "type" : 2,
          "editRate" : 10000000,
          "trackRect" : [0, 0, 0, 0],
          "sampleRate" : 44100,
          "bitDepth" : 16,
          "numChannels" : 2,
          "integratedLUFS" : -18.4804963535097,
          "peakLevel" : 0.919996201992035,
          "metaData" : ""
        }
      ],
      "metadata" : {
        "timeAdded" : "20210131T211541.236261"
      }
    },
    {
      "id" : 17,
      "src" : "D:\\Code\\K8S\\video\\3\\Narration_3-3 Kubernetes-Deployment 14.m4a",
      "rect" : [0, 0, 0, 0],
      "lastMod" : "20210201T200741",
      "sourceTracks" : [
        {
          "range" : [0, 132353744],
          "type" : 2,
          "editRate" : 10000000,
          "trackRect" : [0, 0, 0, 0],
          "sampleRate" : 44100,
          "bitDepth" : 16,
          "numChannels" : 2,
          "integratedLUFS" : -15.2843851164135,
          "peakLevel" : 1.00001156330109,
          "metaData" : ""
        }
      ],
      "metadata" : {
        "timeAdded" : "20210201T200748.887111"
      }
    },
    {
      "id" : 18,
      "src" : "D:\\Code\\K8S\\video\\3\\Narration_3-3 Kubernetes-Deployment 15.m4a",
      "rect" : [0, 0, 0, 0],
      "lastMod" : "20210201T200836",
      "sourceTracks" : [
        {
          "range" : [0, 125155552],
          "type" : 2,
          "editRate" : 10000000,
          "trackRect" : [0, 0, 0, 0],
          "sampleRate" : 44100,
          "bitDepth" : 16,
          "numChannels" : 2,
          "integratedLUFS" : -16.2971716902178,
          "peakLevel" : 1.00002801418304,
          "metaData" : ""
        }
      ],
      "metadata" : {
        "timeAdded" : "20210201T200837.446488"
      }
    },
    {
      "id" : 19,
      "src" : "D:\\Code\\K8S\\video\\3\\Narration_3-3 Kubernetes-Deployment 16.m4a",
      "rect" : [0, 0, 0, 0],
      "lastMod" : "20210201T203740",
      "sourceTracks" : [
        {
          "range" : [0, 144195888],
          "type" : 2,
          "editRate" : 10000000,
          "trackRect" : [0, 0, 0, 0],
          "sampleRate" : 44100,
          "bitDepth" : 16,
          "numChannels" : 2,
          "integratedLUFS" : -17.0732153345753,
          "peakLevel" : 0.978131413459778,
          "metaData" : ""
        }
      ],
      "metadata" : {
        "timeAdded" : "20210201T203748.065922"
      }
    },
    {
      "id" : 20,
      "src" : "D:\\Code\\K8S\\video\\3\\Narration_3-3 Kubernetes-Deployment 17.m4a",
      "rect" : [0, 0, 0, 0],
      "lastMod" : "20210201T203851",
      "sourceTracks" : [
        {
          "range" : [0, 162771888],
          "type" : 2,
          "editRate" : 10000000,
          "trackRect" : [0, 0, 0, 0],
          "sampleRate" : 44100,
          "bitDepth" : 16,
          "numChannels" : 2,
          "integratedLUFS" : -19.1322861691072,
          "peakLevel" : 0.771585166454315,
          "metaData" : ""
        }
      ],
      "metadata" : {
        "timeAdded" : "20210201T203858.836558"
      }
    },
    {
      "id" : 21,
      "src" : "D:\\Code\\K8S\\video\\3\\Narration_3-3 Kubernetes-Deployment 18.m4a",
      "rect" : [0, 0, 0, 0],
      "lastMod" : "20210201T204254",
      "sourceTracks" : [
        {
          "range" : [0, 66176872],
          "type" : 2,
          "editRate" : 10000000,
          "trackRect" : [0, 0, 0, 0],
          "sampleRate" : 44100,
          "bitDepth" : 16,
          "numChannels" : 2,
          "integratedLUFS" : -17.9577286909778,
          "peakLevel" : 1.0002521276474,
          "metaData" : ""
        }
      ],
      "metadata" : {
        "timeAdded" : "20210201T204302.667329"
      }
    },
    {
      "id" : 22,
      "src" : "D:\\Code\\K8S\\video\\3\\Narration_3-3 Kubernetes-Deployment 19.m4a",
      "rect" : [0, 0, 0, 0],
      "lastMod" : "20210201T204438",
      "sourceTracks" : [
        {
          "range" : [0, 98684776],
          "type" : 2,
          "editRate" : 10000000,
          "trackRect" : [0, 0, 0, 0],
          "sampleRate" : 44100,
          "bitDepth" : 16,
          "numChannels" : 2,
          "integratedLUFS" : -18.2575547358977,
          "peakLevel" : 0.813660621643066,
          "metaData" : ""
        }
      ],
      "metadata" : {
        "timeAdded" : "20210201T204445.618145"
      }
    },
    {
      "id" : 23,
      "src" : "D:\\Code\\K8S\\video\\3\\Narration_3-3 Kubernetes-Deployment 20.m4a",
      "rect" : [0, 0, 0, 0],
      "lastMod" : "20210201T204606",
      "sourceTracks" : [
        {
          "range" : [0, 55960092],
          "type" : 2,
          "editRate" : 10000000,
          "trackRect" : [0, 0, 0, 0],
          "sampleRate" : 44100,
          "bitDepth" : 16,
          "numChannels" : 2,
          "integratedLUFS" : -17.6314509506537,
          "peakLevel" : 0.640986263751984,
          "metaData" : ""
        }
      ],
      "metadata" : {
        "timeAdded" : "20210201T204613.953567"
      }
    },
    {
      "id" : 24,
      "src" : "D:\\Code\\K8S\\video\\3\\Narration_3-3 Kubernetes-Deployment 21.m4a",
      "rect" : [0, 0, 0, 0],
      "lastMod" : "20210201T205059",
      "sourceTracks" : [
        {
          "range" : [0, 119814968],
          "type" : 2,
          "editRate" : 10000000,
          "trackRect" : [0, 0, 0, 0],
          "sampleRate" : 44100,
          "bitDepth" : 16,
          "numChannels" : 2,
          "integratedLUFS" : -18.732236020602,
          "peakLevel" : 0.710289359092712,
          "metaData" : ""
        }
      ],
      "metadata" : {
        "timeAdded" : "20210201T205107.090614"
      }
    },
    {
      "id" : 25,
      "src" : "D:\\Code\\K8S\\video\\3\\Narration_3-3 Kubernetes-Deployment 22.m4a",
      "rect" : [0, 0, 0, 0],
      "lastMod" : "20210201T220240",
      "sourceTracks" : [
        {
          "range" : [0, 169505664],
          "type" : 2,
          "editRate" : 10000000,
          "trackRect" : [0, 0, 0, 0],
          "sampleRate" : 44100,
          "bitDepth" : 16,
          "numChannels" : 2,
          "integratedLUFS" : -14.8107135631801,
          "peakLevel" : 1.00701093673706,
          "metaData" : ""
        }
      ],
      "metadata" : {
        "timeAdded" : "20210201T220247.218920"
      }
    },
    {
      "id" : 26,
      "src" : "D:\\Code\\K8S\\video\\3\\Narration_3-3 Kubernetes-Deployment 23.m4a",
      "rect" : [0, 0, 0, 0],
      "lastMod" : "20210201T220530",
      "sourceTracks" : [
        {
          "range" : [0, 77554648],
          "type" : 2,
          "editRate" : 10000000,
          "trackRect" : [0, 0, 0, 0],
          "sampleRate" : 44100,
          "bitDepth" : 16,
          "numChannels" : 2,
          "integratedLUFS" : -17.4460295822333,
          "peakLevel" : 0.893166720867157,
          "metaData" : ""
        }
      ],
      "metadata" : {
        "timeAdded" : "20210201T220531.817449"
      }
    },
    {
      "id" : 27,
      "src" : "D:\\Code\\K8S\\video\\3\\Narration_3-3 Kubernetes-Deployment 24.m4a",
      "rect" : [0, 0, 0, 0],
      "lastMod" : "20210201T221550",
      "sourceTracks" : [
        {
          "range" : [0, 84985000],
          "type" : 2,
          "editRate" : 10000000,
          "trackRect" : [0, 0, 0, 0],
          "sampleRate" : 44100,
          "bitDepth" : 16,
          "numChannels" : 2,
          "integratedLUFS" : -15.741945824852,
          "peakLevel" : 0.9983731508255,
          "metaData" : ""
        }
      ],
      "metadata" : {
        "timeAdded" : "20210201T221557.619400"
      }
    },
    {
      "id" : 28,
      "src" : "D:\\Code\\K8S\\video\\3\\Narration_3-3 Kubernetes-Deployment 25.m4a",
      "rect" : [0, 0, 0, 0],
      "lastMod" : "20210202T020421",
      "sourceTracks" : [
        {
          "range" : [0, 50387300],
          "type" : 2,
          "editRate" : 10000000,
          "trackRect" : [0, 0, 0, 0],
          "sampleRate" : 44100,
          "bitDepth" : 16,
          "numChannels" : 2,
          "integratedLUFS" : -19.7559641188609,
          "peakLevel" : 0.613292396068573,
          "metaData" : ""
        }
      ],
      "metadata" : {
        "timeAdded" : "20210202T020428.804146"
      }
    },
    {
      "id" : 29,
      "src" : "D:\\Code\\K8S\\video\\3\\Narration_3-3 Kubernetes-Deployment 26.m4a",
      "rect" : [0, 0, 0, 0],
      "lastMod" : "20210202T020701",
      "sourceTracks" : [
        {
          "range" : [0, 29257112],
          "type" : 2,
          "editRate" : 10000000,
          "trackRect" : [0, 0, 0, 0],
          "sampleRate" : 44100,
          "bitDepth" : 16,
          "numChannels" : 2,
          "integratedLUFS" : -17.8185010311706,
          "peakLevel" : 1.00058150291443,
          "metaData" : ""
        }
      ],
      "metadata" : {
        "timeAdded" : "20210202T020708.467273"
      }
    },
    {
      "id" : 30,
      "src" : "D:\\Code\\K8S\\video\\3\\Narration_3-3 Kubernetes-Deployment 27.m4a",
      "rect" : [0, 0, 0, 0],
      "lastMod" : "20210202T125404",
      "sourceTracks" : [
        {
          "range" : [0, 46207668],
          "type" : 2,
          "editRate" : 10000000,
          "trackRect" : [0, 0, 0, 0],
          "sampleRate" : 44100,
          "bitDepth" : 16,
          "numChannels" : 2,
          "integratedLUFS" : -15.4558557973412,
          "peakLevel" : 0.878523409366608,
          "metaData" : ""
        }
      ],
      "metadata" : {
        "timeAdded" : "20210202T125412.430585"
      }
    },
    {
      "id" : 31,
      "src" : "C:\\ProgramData\\TechSmith\\Camtasia Studio 19\\Library 4.0\\User Libraries\\K8s\\start.asset\\wave1.png",
      "rect" : [0, 0, 1907, 383],
      "lastMod" : "20210105T163238",
      "sourceTracks" : [
        {
          "range" : [0, 1],
          "type" : 1,
          "editRate" : 10000000,
          "trackRect" : [0, 0, 1907, 383],
          "sampleRate" : 0,
          "bitDepth" : 24,
          "numChannels" : 0,
          "integratedLUFS" : 100.0,
          "peakLevel" : -1.0,
          "metaData" : ""
        }
      ],
      "metadata" : {
        "assetLibraryId" : "75d65985-041c-43c4-a44b-f79aada87cf9",
        "timeAdded" : "20210202T130932.732053"
      }
    },
    {
      "id" : 32,
      "src" : "C:\\ProgramData\\TechSmith\\Camtasia Studio 19\\Library 4.0\\User Libraries\\K8s\\start.asset\\wave2.png",
      "rect" : [0, 0, 1906, 341],
      "lastMod" : "20210105T163731",
      "sourceTracks" : [
        {
          "range" : [0, 1],
          "type" : 1,
          "editRate" : 10000000,
          "trackRect" : [0, 0, 1906, 341],
          "sampleRate" : 0,
          "bitDepth" : 24,
          "numChannels" : 0,
          "integratedLUFS" : 100.0,
          "peakLevel" : -1.0,
          "metaData" : ""
        }
      ],
      "metadata" : {
        "assetLibraryId" : "75d65985-041c-43c4-a44b-f79aada87cf9",
        "timeAdded" : "20210202T130932.732053"
      }
    },
    {
      "id" : 33,
      "src" : "C:\\ProgramData\\TechSmith\\Camtasia Studio 19\\Library 4.0\\User Libraries\\K8s\\start.asset\\wave3.png",
      "rect" : [0, 0, 1903, 380],
      "lastMod" : "20210105T163725",
      "sourceTracks" : [
        {
          "range" : [0, 1],
          "type" : 1,
          "editRate" : 10000000,
          "trackRect" : [0, 0, 1903, 380],
          "sampleRate" : 0,
          "bitDepth" : 24,
          "numChannels" : 0,
          "integratedLUFS" : 100.0,
          "peakLevel" : -1.0,
          "metaData" : ""
        }
      ],
      "metadata" : {
        "assetLibraryId" : "75d65985-041c-43c4-a44b-f79aada87cf9",
        "timeAdded" : "20210202T130932.732053"
      }
    },
    {
      "id" : 34,
      "src" : "C:\\ProgramData\\TechSmith\\Camtasia Studio 19\\Library 4.0\\User Libraries\\K8s\\start.asset\\control-plane-128.png",
      "rect" : [0, 0, 128, 128],
      "lastMod" : "20201224T160827",
      "sourceTracks" : [
        {
          "range" : [0, 1],
          "type" : 1,
          "editRate" : 10000000,
          "trackRect" : [0, 0, 128, 128],
          "sampleRate" : 0,
          "bitDepth" : 32,
          "numChannels" : 0,
          "integratedLUFS" : 100.0,
          "peakLevel" : -1.0,
          "metaData" : ""
        }
      ],
      "metadata" : {
        "assetLibraryId" : "75d65985-041c-43c4-a44b-f79aada87cf9",
        "timeAdded" : "20210202T130932.732053"
      }
    },
    {
      "id" : 35,
      "src" : "C:\\ProgramData\\TechSmith\\Camtasia Studio 19\\Library 4.0\\User Libraries\\K8s\\start.asset\\etcd-128.png",
      "rect" : [0, 0, 128, 128],
      "lastMod" : "20201224T160827",
      "sourceTracks" : [
        {
          "range" : [0, 1],
          "type" : 1,
          "editRate" : 10000000,
          "trackRect" : [0, 0, 128, 128],
          "sampleRate" : 0,
          "bitDepth" : 32,
          "numChannels" : 0,
          "integratedLUFS" : 100.0,
          "peakLevel" : -1.0,
          "metaData" : ""
        }
      ],
      "metadata" : {
        "assetLibraryId" : "75d65985-041c-43c4-a44b-f79aada87cf9",
        "timeAdded" : "20210202T130932.732053"
      }
    },
    {
      "id" : 36,
      "src" : "C:\\ProgramData\\TechSmith\\Camtasia Studio 19\\Library 4.0\\User Libraries\\K8s\\start.asset\\node-128.png",
      "rect" : [0, 0, 128, 128],
      "lastMod" : "20201224T160827",
      "sourceTracks" : [
        {
          "range" : [0, 1],
          "type" : 1,
          "editRate" : 10000000,
          "trackRect" : [0, 0, 128, 128],
          "sampleRate" : 0,
          "bitDepth" : 32,
          "numChannels" : 0,
          "integratedLUFS" : 100.0,
          "peakLevel" : -1.0,
          "metaData" : ""
        }
      ],
      "metadata" : {
        "assetLibraryId" : "75d65985-041c-43c4-a44b-f79aada87cf9",
        "timeAdded" : "20210202T130932.732053"
      }
    },
    {
      "id" : 37,
      "src" : "C:\\ProgramData\\TechSmith\\Camtasia Studio 19\\Library 4.0\\User Libraries\\K8s\\start.asset\\ns-128.png",
      "rect" : [0, 0, 128, 128],
      "lastMod" : "20201224T160827",
      "sourceTracks" : [
        {
          "range" : [0, 1],
          "type" : 1,
          "editRate" : 10000000,
          "trackRect" : [0, 0, 128, 128],
          "sampleRate" : 0,
          "bitDepth" : 32,
          "numChannels" : 0,
          "integratedLUFS" : 100.0,
          "peakLevel" : -1.0,
          "metaData" : ""
        }
      ],
      "metadata" : {
        "assetLibraryId" : "75d65985-041c-43c4-a44b-f79aada87cf9",
        "timeAdded" : "20210202T130932.732053"
      }
    },
    {
      "id" : 38,
      "src" : "C:\\ProgramData\\TechSmith\\Camtasia Studio 19\\Library 4.0\\User Libraries\\K8s\\start.asset\\pod-128.png",
      "rect" : [0, 0, 128, 128],
      "lastMod" : "20201224T160827",
      "sourceTracks" : [
        {
          "range" : [0, 1],
          "type" : 1,
          "editRate" : 10000000,
          "trackRect" : [0, 0, 128, 128],
          "sampleRate" : 0,
          "bitDepth" : 32,
          "numChannels" : 0,
          "integratedLUFS" : 100.0,
          "peakLevel" : -1.0,
          "metaData" : ""
        }
      ],
      "metadata" : {
        "assetLibraryId" : "75d65985-041c-43c4-a44b-f79aada87cf9",
        "timeAdded" : "20210202T130932.732053"
      }
    },
    {
      "id" : 39,
      "src" : "C:\\ProgramData\\TechSmith\\Camtasia Studio 19\\Library 4.0\\User Libraries\\K8s\\start.asset\\secret-128.png",
      "rect" : [0, 0, 128, 128],
      "lastMod" : "20201224T160827",
      "sourceTracks" : [
        {
          "range" : [0, 1],
          "type" : 1,
          "editRate" : 10000000,
          "trackRect" : [0, 0, 128, 128],
          "sampleRate" : 0,
          "bitDepth" : 32,
          "numChannels" : 0,
          "integratedLUFS" : 100.0,
          "peakLevel" : -1.0,
          "metaData" : ""
        }
      ],
      "metadata" : {
        "assetLibraryId" : "75d65985-041c-43c4-a44b-f79aada87cf9",
        "timeAdded" : "20210202T130932.732053"
      }
    },
    {
      "id" : 40,
      "src" : "C:\\ProgramData\\TechSmith\\Camtasia Studio 19\\Library 4.0\\User Libraries\\K8s\\start.asset\\svc-128.png",
      "rect" : [0, 0, 128, 128],
      "lastMod" : "20201224T160827",
      "sourceTracks" : [
        {
          "range" : [0, 1],
          "type" : 1,
          "editRate" : 10000000,
          "trackRect" : [0, 0, 128, 128],
          "sampleRate" : 0,
          "bitDepth" : 32,
          "numChannels" : 0,
          "integratedLUFS" : 100.0,
          "peakLevel" : -1.0,
          "metaData" : ""
        }
      ],
      "metadata" : {
        "assetLibraryId" : "75d65985-041c-43c4-a44b-f79aada87cf9",
        "timeAdded" : "20210202T130932.732053"
      }
    },
    {
      "id" : 41,
      "src" : "C:\\ProgramData\\TechSmith\\Camtasia Studio 19\\Library 4.0\\User Libraries\\K8s\\start.asset\\rs-128.png",
      "rect" : [0, 0, 128, 128],
      "lastMod" : "20201224T160827",
      "sourceTracks" : [
        {
          "range" : [0, 1],
          "type" : 1,
          "editRate" : 10000000,
          "trackRect" : [0, 0, 128, 128],
          "sampleRate" : 0,
          "bitDepth" : 32,
          "numChannels" : 0,
          "integratedLUFS" : 100.0,
          "peakLevel" : -1.0,
          "metaData" : ""
        }
      ],
      "metadata" : {
        "assetLibraryId" : "75d65985-041c-43c4-a44b-f79aada87cf9",
        "timeAdded" : "20210202T130932.732053"
      }
    },
    {
      "id" : 42,
      "src" : "C:\\ProgramData\\TechSmith\\Camtasia Studio 19\\Library 4.0\\User Libraries\\K8s\\start.asset\\vol-128.png",
      "rect" : [0, 0, 128, 128],
      "lastMod" : "20201224T160827",
      "sourceTracks" : [
        {
          "range" : [0, 1],
          "type" : 1,
          "editRate" : 10000000,
          "trackRect" : [0, 0, 128, 128],
          "sampleRate" : 0,
          "bitDepth" : 32,
          "numChannels" : 0,
          "integratedLUFS" : 100.0,
          "peakLevel" : -1.0,
          "metaData" : ""
        }
      ],
      "metadata" : {
        "assetLibraryId" : "75d65985-041c-43c4-a44b-f79aada87cf9",
        "timeAdded" : "20210202T130932.732053"
      }
    },
    {
      "id" : 43,
      "src" : "C:\\ProgramData\\TechSmith\\Camtasia Studio 19\\Library 4.0\\User Libraries\\K8s\\start.asset\\deploy-128.png",
      "rect" : [0, 0, 128, 128],
      "lastMod" : "20201224T160827",
      "sourceTracks" : [
        {
          "range" : [0, 1],
          "type" : 1,
          "editRate" : 10000000,
          "trackRect" : [0, 0, 128, 128],
          "sampleRate" : 0,
          "bitDepth" : 32,
          "numChannels" : 0,
          "integratedLUFS" : 100.0,
          "peakLevel" : -1.0,
          "metaData" : ""
        }
      ],
      "metadata" : {
        "assetLibraryId" : "75d65985-041c-43c4-a44b-f79aada87cf9",
        "timeAdded" : "20210202T130932.732053"
      }
    },
    {
      "id" : 44,
      "src" : "C:\\ProgramData\\TechSmith\\Camtasia Studio 19\\Library 4.0\\User Libraries\\K8s\\start.asset\\cronjob-128.png",
      "rect" : [0, 0, 128, 128],
      "lastMod" : "20201224T160827",
      "sourceTracks" : [
        {
          "range" : [0, 1],
          "type" : 1,
          "editRate" : 10000000,
          "trackRect" : [0, 0, 128, 128],
          "sampleRate" : 0,
          "bitDepth" : 32,
          "numChannels" : 0,
          "integratedLUFS" : 100.0,
          "peakLevel" : -1.0,
          "metaData" : ""
        }
      ],
      "metadata" : {
        "assetLibraryId" : "75d65985-041c-43c4-a44b-f79aada87cf9",
        "timeAdded" : "20210202T130932.732053"
      }
    },
    {
      "id" : 45,
      "src" : "C:\\ProgramData\\TechSmith\\Camtasia Studio 19\\Library 4.0\\User Libraries\\K8s\\start.asset\\k8sfavicon.png",
      "rect" : [0, 0, 512, 512],
      "lastMod" : "20210105T165021",
      "sourceTracks" : [
        {
          "range" : [0, 1],
          "type" : 1,
          "editRate" : 10000000,
          "trackRect" : [0, 0, 512, 512],
          "sampleRate" : 0,
          "bitDepth" : 32,
          "numChannels" : 0,
          "integratedLUFS" : 100.0,
          "peakLevel" : -1.0,
          "metaData" : ""
        }
      ],
      "metadata" : {
        "assetLibraryId" : "75d65985-041c-43c4-a44b-f79aada87cf9",
        "timeAdded" : "20210202T130932.732053"
      }
    },
    {
      "id" : 46,
      "src" : "C:\\ProgramData\\TechSmith\\Camtasia Studio 19\\Library 4.0\\User Libraries\\K8s\\start.asset\\wave.mp3",
      "rect" : [0, 0, 0, 0],
      "lastMod" : "20210105T195352",
      "sourceTracks" : [
        {
          "range" : [0, 185467500],
          "type" : 2,
          "editRate" : 10000000,
          "trackRect" : [0, 0, 0, 0],
          "sampleRate" : 44100,
          "bitDepth" : 0,
          "numChannels" : 2,
          "integratedLUFS" : -16.6955131625049,
          "peakLevel" : 0.940275430679321,
          "metaData" : ""
        }
      ],
      "metadata" : {
        "assetLibraryId" : "75d65985-041c-43c4-a44b-f79aada87cf9",
        "timeAdded" : "20210202T130932.732053"
      }
    },
    {
      "id" : 47,
      "src" : "C:\\ProgramData\\TechSmith\\Camtasia Studio 19\\Library 4.0\\User Libraries\\K8s\\end.asset\\wave1.png",
      "rect" : [0, 0, 1907, 383],
      "lastMod" : "20210105T163238",
      "sourceTracks" : [
        {
          "range" : [0, 1],
          "type" : 1,
          "editRate" : 10000000,
          "trackRect" : [0, 0, 1907, 383],
          "sampleRate" : 0,
          "bitDepth" : 24,
          "numChannels" : 0,
          "integratedLUFS" : 100.0,
          "peakLevel" : -1.0,
          "metaData" : ""
        }
      ],
      "metadata" : {
        "assetLibraryId" : "c49e4026-371e-4445-9c95-bf86c5e3c498",
        "timeAdded" : "20210202T131334.012366"
      }
    },
    {
      "id" : 48,
      "src" : "C:\\ProgramData\\TechSmith\\Camtasia Studio 19\\Library 4.0\\User Libraries\\K8s\\end.asset\\wave2.png",
      "rect" : [0, 0, 1906, 341],
      "lastMod" : "20210105T163731",
      "sourceTracks" : [
        {
          "range" : [0, 1],
          "type" : 1,
          "editRate" : 10000000,
          "trackRect" : [0, 0, 1906, 341],
          "sampleRate" : 0,
          "bitDepth" : 24,
          "numChannels" : 0,
          "integratedLUFS" : 100.0,
          "peakLevel" : -1.0,
          "metaData" : ""
        }
      ],
      "metadata" : {
        "assetLibraryId" : "c49e4026-371e-4445-9c95-bf86c5e3c498",
        "timeAdded" : "20210202T131334.012366"
      }
    },
    {
      "id" : 49,
      "src" : "C:\\ProgramData\\TechSmith\\Camtasia Studio 19\\Library 4.0\\User Libraries\\K8s\\end.asset\\wave3.png",
      "rect" : [0, 0, 1903, 380],
      "lastMod" : "20210105T163725",
      "sourceTracks" : [
        {
          "range" : [0, 1],
          "type" : 1,
          "editRate" : 10000000,
          "trackRect" : [0, 0, 1903, 380],
          "sampleRate" : 0,
          "bitDepth" : 24,
          "numChannels" : 0,
          "integratedLUFS" : 100.0,
          "peakLevel" : -1.0,
          "metaData" : ""
        }
      ],
      "metadata" : {
        "assetLibraryId" : "c49e4026-371e-4445-9c95-bf86c5e3c498",
        "timeAdded" : "20210202T131334.012366"
      }
    },
    {
      "id" : 50,
      "src" : "C:\\ProgramData\\TechSmith\\Camtasia Studio 19\\Library 4.0\\User Libraries\\K8s\\end.asset\\control-plane-128.png",
      "rect" : [0, 0, 128, 128],
      "lastMod" : "20201224T160827",
      "sourceTracks" : [
        {
          "range" : [0, 1],
          "type" : 1,
          "editRate" : 10000000,
          "trackRect" : [0, 0, 128, 128],
          "sampleRate" : 0,
          "bitDepth" : 32,
          "numChannels" : 0,
          "integratedLUFS" : 100.0,
          "peakLevel" : -1.0,
          "metaData" : ""
        }
      ],
      "metadata" : {
        "assetLibraryId" : "c49e4026-371e-4445-9c95-bf86c5e3c498",
        "timeAdded" : "20210202T131334.012366"
      }
    },
    {
      "id" : 51,
      "src" : "C:\\ProgramData\\TechSmith\\Camtasia Studio 19\\Library 4.0\\User Libraries\\K8s\\end.asset\\etcd-128.png",
      "rect" : [0, 0, 128, 128],
      "lastMod" : "20201224T160827",
      "sourceTracks" : [
        {
          "range" : [0, 1],
          "type" : 1,
          "editRate" : 10000000,
          "trackRect" : [0, 0, 128, 128],
          "sampleRate" : 0,
          "bitDepth" : 32,
          "numChannels" : 0,
          "integratedLUFS" : 100.0,
          "peakLevel" : -1.0,
          "metaData" : ""
        }
      ],
      "metadata" : {
        "assetLibraryId" : "c49e4026-371e-4445-9c95-bf86c5e3c498",
        "timeAdded" : "20210202T131334.012366"
      }
    },
    {
      "id" : 52,
      "src" : "C:\\ProgramData\\TechSmith\\Camtasia Studio 19\\Library 4.0\\User Libraries\\K8s\\end.asset\\node-128.png",
      "rect" : [0, 0, 128, 128],
      "lastMod" : "20201224T160827",
      "sourceTracks" : [
        {
          "range" : [0, 1],
          "type" : 1,
          "editRate" : 10000000,
          "trackRect" : [0, 0, 128, 128],
          "sampleRate" : 0,
          "bitDepth" : 32,
          "numChannels" : 0,
          "integratedLUFS" : 100.0,
          "peakLevel" : -1.0,
          "metaData" : ""
        }
      ],
      "metadata" : {
        "assetLibraryId" : "c49e4026-371e-4445-9c95-bf86c5e3c498",
        "timeAdded" : "20210202T131334.012366"
      }
    },
    {
      "id" : 53,
      "src" : "C:\\ProgramData\\TechSmith\\Camtasia Studio 19\\Library 4.0\\User Libraries\\K8s\\end.asset\\ns-128.png",
      "rect" : [0, 0, 128, 128],
      "lastMod" : "20201224T160827",
      "sourceTracks" : [
        {
          "range" : [0, 1],
          "type" : 1,
          "editRate" : 10000000,
          "trackRect" : [0, 0, 128, 128],
          "sampleRate" : 0,
          "bitDepth" : 32,
          "numChannels" : 0,
          "integratedLUFS" : 100.0,
          "peakLevel" : -1.0,
          "metaData" : ""
        }
      ],
      "metadata" : {
        "assetLibraryId" : "c49e4026-371e-4445-9c95-bf86c5e3c498",
        "timeAdded" : "20210202T131334.012366"
      }
    },
    {
      "id" : 54,
      "src" : "C:\\ProgramData\\TechSmith\\Camtasia Studio 19\\Library 4.0\\User Libraries\\K8s\\end.asset\\pod-128.png",
      "rect" : [0, 0, 128, 128],
      "lastMod" : "20201224T160827",
      "sourceTracks" : [
        {
          "range" : [0, 1],
          "type" : 1,
          "editRate" : 10000000,
          "trackRect" : [0, 0, 128, 128],
          "sampleRate" : 0,
          "bitDepth" : 32,
          "numChannels" : 0,
          "integratedLUFS" : 100.0,
          "peakLevel" : -1.0,
          "metaData" : ""
        }
      ],
      "metadata" : {
        "assetLibraryId" : "c49e4026-371e-4445-9c95-bf86c5e3c498",
        "timeAdded" : "20210202T131334.012366"
      }
    },
    {
      "id" : 55,
      "src" : "C:\\ProgramData\\TechSmith\\Camtasia Studio 19\\Library 4.0\\User Libraries\\K8s\\end.asset\\secret-128.png",
      "rect" : [0, 0, 128, 128],
      "lastMod" : "20201224T160827",
      "sourceTracks" : [
        {
          "range" : [0, 1],
          "type" : 1,
          "editRate" : 10000000,
          "trackRect" : [0, 0, 128, 128],
          "sampleRate" : 0,
          "bitDepth" : 32,
          "numChannels" : 0,
          "integratedLUFS" : 100.0,
          "peakLevel" : -1.0,
          "metaData" : ""
        }
      ],
      "metadata" : {
        "assetLibraryId" : "c49e4026-371e-4445-9c95-bf86c5e3c498",
        "timeAdded" : "20210202T131334.012366"
      }
    },
    {
      "id" : 56,
      "src" : "C:\\ProgramData\\TechSmith\\Camtasia Studio 19\\Library 4.0\\User Libraries\\K8s\\end.asset\\svc-128.png",
      "rect" : [0, 0, 128, 128],
      "lastMod" : "20201224T160827",
      "sourceTracks" : [
        {
          "range" : [0, 1],
          "type" : 1,
          "editRate" : 10000000,
          "trackRect" : [0, 0, 128, 128],
          "sampleRate" : 0,
          "bitDepth" : 32,
          "numChannels" : 0,
          "integratedLUFS" : 100.0,
          "peakLevel" : -1.0,
          "metaData" : ""
        }
      ],
      "metadata" : {
        "assetLibraryId" : "c49e4026-371e-4445-9c95-bf86c5e3c498",
        "timeAdded" : "20210202T131334.012366"
      }
    },
    {
      "id" : 57,
      "src" : "C:\\ProgramData\\TechSmith\\Camtasia Studio 19\\Library 4.0\\User Libraries\\K8s\\end.asset\\rs-128.png",
      "rect" : [0, 0, 128, 128],
      "lastMod" : "20201224T160827",
      "sourceTracks" : [
        {
          "range" : [0, 1],
          "type" : 1,
          "editRate" : 10000000,
          "trackRect" : [0, 0, 128, 128],
          "sampleRate" : 0,
          "bitDepth" : 32,
          "numChannels" : 0,
          "integratedLUFS" : 100.0,
          "peakLevel" : -1.0,
          "metaData" : ""
        }
      ],
      "metadata" : {
        "assetLibraryId" : "c49e4026-371e-4445-9c95-bf86c5e3c498",
        "timeAdded" : "20210202T131334.012366"
      }
    },
    {
      "id" : 58,
      "src" : "C:\\ProgramData\\TechSmith\\Camtasia Studio 19\\Library 4.0\\User Libraries\\K8s\\end.asset\\vol-128.png",
      "rect" : [0, 0, 128, 128],
      "lastMod" : "20201224T160827",
      "sourceTracks" : [
        {
          "range" : [0, 1],
          "type" : 1,
          "editRate" : 10000000,
          "trackRect" : [0, 0, 128, 128],
          "sampleRate" : 0,
          "bitDepth" : 32,
          "numChannels" : 0,
          "integratedLUFS" : 100.0,
          "peakLevel" : -1.0,
          "metaData" : ""
        }
      ],
      "metadata" : {
        "assetLibraryId" : "c49e4026-371e-4445-9c95-bf86c5e3c498",
        "timeAdded" : "20210202T131334.012366"
      }
    },
    {
      "id" : 59,
      "src" : "C:\\ProgramData\\TechSmith\\Camtasia Studio 19\\Library 4.0\\User Libraries\\K8s\\end.asset\\deploy-128.png",
      "rect" : [0, 0, 128, 128],
      "lastMod" : "20201224T160827",
      "sourceTracks" : [
        {
          "range" : [0, 1],
          "type" : 1,
          "editRate" : 10000000,
          "trackRect" : [0, 0, 128, 128],
          "sampleRate" : 0,
          "bitDepth" : 32,
          "numChannels" : 0,
          "integratedLUFS" : 100.0,
          "peakLevel" : -1.0,
          "metaData" : ""
        }
      ],
      "metadata" : {
        "assetLibraryId" : "c49e4026-371e-4445-9c95-bf86c5e3c498",
        "timeAdded" : "20210202T131334.012366"
      }
    },
    {
      "id" : 60,
      "src" : "C:\\ProgramData\\TechSmith\\Camtasia Studio 19\\Library 4.0\\User Libraries\\K8s\\end.asset\\cronjob-128.png",
      "rect" : [0, 0, 128, 128],
      "lastMod" : "20201224T160827",
      "sourceTracks" : [
        {
          "range" : [0, 1],
          "type" : 1,
          "editRate" : 10000000,
          "trackRect" : [0, 0, 128, 128],
          "sampleRate" : 0,
          "bitDepth" : 32,
          "numChannels" : 0,
          "integratedLUFS" : 100.0,
          "peakLevel" : -1.0,
          "metaData" : ""
        }
      ],
      "metadata" : {
        "assetLibraryId" : "c49e4026-371e-4445-9c95-bf86c5e3c498",
        "timeAdded" : "20210202T131334.012366"
      }
    },
    {
      "id" : 61,
      "src" : "C:\\ProgramData\\TechSmith\\Camtasia Studio 19\\Library 4.0\\User Libraries\\K8s\\end.asset\\k8sfavicon.png",
      "rect" : [0, 0, 512, 512],
      "lastMod" : "20210105T165021",
      "sourceTracks" : [
        {
          "range" : [0, 1],
          "type" : 1,
          "editRate" : 10000000,
          "trackRect" : [0, 0, 512, 512],
          "sampleRate" : 0,
          "bitDepth" : 32,
          "numChannels" : 0,
          "integratedLUFS" : 100.0,
          "peakLevel" : -1.0,
          "metaData" : ""
        }
      ],
      "metadata" : {
        "assetLibraryId" : "c49e4026-371e-4445-9c95-bf86c5e3c498",
        "timeAdded" : "20210202T131334.012366"
      }
    },
    {
      "id" : 62,
      "src" : "C:\\ProgramData\\TechSmith\\Camtasia Studio 19\\Library 4.0\\User Libraries\\K8s\\end.asset\\wave.mp3",
      "rect" : [0, 0, 0, 0],
      "lastMod" : "20210105T195352",
      "sourceTracks" : [
        {
          "range" : [0, 185467500],
          "type" : 2,
          "editRate" : 10000000,
          "trackRect" : [0, 0, 0, 0],
          "sampleRate" : 44100,
          "bitDepth" : 0,
          "numChannels" : 2,
          "integratedLUFS" : -16.6955131625049,
          "peakLevel" : 0.940275430679321,
          "metaData" : ""
        }
      ],
      "metadata" : {
        "assetLibraryId" : "c49e4026-371e-4445-9c95-bf86c5e3c498",
        "timeAdded" : "20210202T131334.012366"
      }
    }
  ],
  "timeline" : {
    "id" : 63,
    "sceneTrack" : {
      "scenes" : [
        {
          "duration" : 654.066666666667,
          "title" : "",
          "type" : "",
          "csml" : {
            "tracks" : [
              {
                "trackIndex" : 0,
                "medias" : [
                  {
                    "id" : 64,
                    "_type" : "StitchedMedia",
                    "minMediaStart" : 0,
                    "attributes" : {
                      "ident" : "Rec 01-28-21_001",
                      "gain" : 1.0,
                      "mixToMono" : false
                    },
                    "parameters" : {
                      "volume" : 1.0,
                      "cursorOpacity" : 1.0,
                      "cursorScale" : 1.0
                    },
                    "medias" : [
                        {
                          "id" : 65,
                          "_type" : "UnifiedMedia",
                          "video" : 
                              {
                                "id" : 66,
                                "_type" : "ScreenVMFile",
                                "src" : 1,
                                "trackNumber" : 0,
                                "attributes" : {
                                  "ident" : "Rec 01-28-21_001"
                                },
                                "parameters" : {
                                  "cursorScale" : {
                                    "type" : "double",
                                    "defaultValue" : 0.0,
                                    "interp" : "linr"
                                  },
                                  "cursorOpacity" : {
                                    "type" : "double",
                                    "defaultValue" : 0.0,
                                    "interp" : "linr"
                                  }
                                },
                                "effects" : [

                                ],
                                "start" : 0,
                                "duration" : 18,
                                "mediaStart" : 0,
                                "mediaDuration" : 18,
                                "scalar" : 1,
                                "animationTracks" : {

                                }
                              },
                          "audio" : 
                              {
                                "id" : 67,
                                "_type" : "AMFile",
                                "src" : 1,
                                "trackNumber" : 1,
                                "attributes" : {
                                  "ident" : "",
                                  "gain" : 1.0,
                                  "mixToMono" : false
                                },
                                  "channelNumber" : "0,1",
                                "effects" : [

                                ],
                                "start" : 0,
                                "duration" : 18,
                                "mediaStart" : 0,
                                "mediaDuration" : 18,
                                "scalar" : 1,
                                "animationTracks" : {

                                }
                              }
,
                          "start" : 0,
                          "duration" : 18,
                          "mediaStart" : 0,
                          "mediaDuration" : 10411,
                          "scalar" : 1,
                          "metadata" : {
                            "AutoAppliedSmartFocus" : "False",
                            "clipSpeedAttribute" : false
                          }
                        },
                        {
                          "id" : 68,
                          "_type" : "UnifiedMedia",
                          "video" : 
                              {
                                "id" : 69,
                                "_type" : "ScreenVMFile",
                                "src" : 1,
                                "trackNumber" : 0,
                                "attributes" : {
                                  "ident" : "Rec 01-28-21_001"
                                },
                                "parameters" : {
                                  "cursorScale" : {
                                    "type" : "double",
                                    "defaultValue" : 0.0,
                                    "interp" : "linr"
                                  },
                                  "cursorOpacity" : {
                                    "type" : "double",
                                    "defaultValue" : 0.0,
                                    "interp" : "linr"
                                  }
                                },
                                "effects" : [

                                ],
                                "start" : 18,
                                "duration" : 10356,
                                "mediaStart" : 55,
                                "mediaDuration" : 10356,
                                "scalar" : 1,
                                "animationTracks" : {

                                }
                              },
                          "audio" : 
                              {
                                "id" : 70,
                                "_type" : "AMFile",
                                "src" : 1,
                                "trackNumber" : 1,
                                "attributes" : {
                                  "ident" : "",
                                  "gain" : 1.0,
                                  "mixToMono" : false
                                },
                                  "channelNumber" : "0,1",
                                "effects" : [

                                ],
                                "start" : 18,
                                "duration" : 10356,
                                "mediaStart" : 55,
                                "mediaDuration" : 10356,
                                "scalar" : 1,
                                "animationTracks" : {

                                }
                              }
,
                          "start" : 18,
                          "duration" : 10356,
                          "mediaStart" : 0,
                          "mediaDuration" : 10411,
                          "scalar" : 1,
                          "metadata" : {
                            "AutoAppliedSmartFocus" : "False",
                            "clipSpeedAttribute" : false
                          }
                        }
                    ],
                    "effects" : [

                    ],
                    "start" : 138,
                    "duration" : 98,
                    "mediaStart" : 0,
                    "mediaDuration" : 98,
                    "scalar" : 1,
                    "metadata" : {
                      "AutoAppliedSmartFocus" : "False",
                      "clipSpeedAttribute" : false
                    },
                    "animationTracks" : {

                    }
                  },
                  {
                    "id" : 71,
                    "_type" : "StitchedMedia",
                    "minMediaStart" : 0,
                    "attributes" : {
                      "ident" : "Rec 01-28-21_001",
                      "gain" : 1.0,
                      "mixToMono" : false
                    },
                    "parameters" : {
                      "volume" : 1.0,
                      "cursorOpacity" : 1.0,
                      "cursorScale" : 1.0
                    },
                    "medias" : [
                        {
                          "id" : 72,
                          "_type" : "UnifiedMedia",
                          "video" : 
                              {
                                "id" : 73,
                                "_type" : "ScreenVMFile",
                                "src" : 1,
                                "trackNumber" : 0,
                                "attributes" : {
                                  "ident" : "Rec 01-28-21_001"
                                },
                                "parameters" : {
                                  "cursorScale" : {
                                    "type" : "double",
                                    "defaultValue" : 0.0,
                                    "interp" : "linr"
                                  },
                                  "cursorOpacity" : {
                                    "type" : "double",
                                    "defaultValue" : 0.0,
                                    "interp" : "linr"
                                  }
                                },
                                "effects" : [

                                ],
                                "start" : 0,
                                "duration" : 18,
                                "mediaStart" : 0,
                                "mediaDuration" : 18,
                                "scalar" : 1,
                                "animationTracks" : {

                                }
                              },
                          "audio" : 
                              {
                                "id" : 74,
                                "_type" : "AMFile",
                                "src" : 1,
                                "trackNumber" : 1,
                                "attributes" : {
                                  "ident" : "",
                                  "gain" : 1.0,
                                  "mixToMono" : false
                                },
                                  "channelNumber" : "0,1",
                                "effects" : [

                                ],
                                "start" : 0,
                                "duration" : 18,
                                "mediaStart" : 0,
                                "mediaDuration" : 18,
                                "scalar" : 1,
                                "animationTracks" : {

                                }
                              }
,
                          "start" : 0,
                          "duration" : 18,
                          "mediaStart" : 0,
                          "mediaDuration" : 10411,
                          "scalar" : 1,
                          "metadata" : {
                            "AutoAppliedSmartFocus" : "False",
                            "clipSpeedAttribute" : false
                          }
                        },
                        {
                          "id" : 75,
                          "_type" : "UnifiedMedia",
                          "video" : 
                              {
                                "id" : 76,
                                "_type" : "ScreenVMFile",
                                "src" : 1,
                                "trackNumber" : 0,
                                "attributes" : {
                                  "ident" : "Rec 01-28-21_001"
                                },
                                "parameters" : {
                                  "cursorScale" : {
                                    "type" : "double",
                                    "defaultValue" : 0.0,
                                    "interp" : "linr"
                                  },
                                  "cursorOpacity" : {
                                    "type" : "double",
                                    "defaultValue" : 0.0,
                                    "interp" : "linr"
                                  }
                                },
                                "effects" : [

                                ],
                                "start" : 18,
                                "duration" : 286,
                                "mediaStart" : 55,
                                "mediaDuration" : 286,
                                "scalar" : 1,
                                "animationTracks" : {

                                }
                              },
                          "audio" : 
                              {
                                "id" : 77,
                                "_type" : "AMFile",
                                "src" : 1,
                                "trackNumber" : 1,
                                "attributes" : {
                                  "ident" : "",
                                  "gain" : 1.0,
                                  "mixToMono" : false
                                },
                                  "channelNumber" : "0,1",
                                "effects" : [

                                ],
                                "start" : 18,
                                "duration" : 286,
                                "mediaStart" : 55,
                                "mediaDuration" : 286,
                                "scalar" : 1,
                                "animationTracks" : {

                                }
                              }
,
                          "start" : 18,
                          "duration" : 286,
                          "mediaStart" : 0,
                          "mediaDuration" : 10411,
                          "scalar" : 1,
                          "metadata" : {
                            "AutoAppliedSmartFocus" : "False",
                            "clipSpeedAttribute" : false
                          }
                        },
                        {
                          "id" : 78,
                          "_type" : "UnifiedMedia",
                          "video" : 
                              {
                                "id" : 79,
                                "_type" : "ScreenVMFile",
                                "src" : 1,
                                "trackNumber" : 0,
                                "attributes" : {
                                  "ident" : "Rec 01-28-21_001"
                                },
                                "parameters" : {
                                  "cursorScale" : {
                                    "type" : "double",
                                    "defaultValue" : 0.0,
                                    "interp" : "linr"
                                  },
                                  "cursorOpacity" : {
                                    "type" : "double",
                                    "defaultValue" : 0.0,
                                    "interp" : "linr"
                                  }
                                },
                                "effects" : [

                                ],
                                "start" : 304,
                                "duration" : 53,
                                "mediaStart" : 367,
                                "mediaDuration" : 53,
                                "scalar" : 1,
                                "animationTracks" : {

                                }
                              },
                          "audio" : 
                              {
                                "id" : 80,
                                "_type" : "AMFile",
                                "src" : 1,
                                "trackNumber" : 1,
                                "attributes" : {
                                  "ident" : "",
                                  "gain" : 1.0,
                                  "mixToMono" : false
                                },
                                  "channelNumber" : "0,1",
                                "effects" : [

                                ],
                                "start" : 304,
                                "duration" : 53,
                                "mediaStart" : 367,
                                "mediaDuration" : 53,
                                "scalar" : 1,
                                "animationTracks" : {

                                }
                              }
,
                          "start" : 304,
                          "duration" : 53,
                          "mediaStart" : 0,
                          "mediaDuration" : 10411,
                          "scalar" : 1,
                          "metadata" : {
                            "AutoAppliedSmartFocus" : "False",
                            "clipSpeedAttribute" : false
                          }
                        },
                        {
                          "id" : 81,
                          "_type" : "UnifiedMedia",
                          "video" : 
                              {
                                "id" : 82,
                                "_type" : "ScreenVMFile",
                                "src" : 1,
                                "trackNumber" : 0,
                                "attributes" : {
                                  "ident" : "Rec 01-28-21_001"
                                },
                                "parameters" : {
                                  "cursorScale" : {
                                    "type" : "double",
                                    "defaultValue" : 0.0,
                                    "interp" : "linr"
                                  },
                                  "cursorOpacity" : {
                                    "type" : "double",
                                    "defaultValue" : 0.0,
                                    "interp" : "linr"
                                  }
                                },
                                "effects" : [

                                ],
                                "start" : 357,
                                "duration" : 59,
                                "mediaStart" : 477,
                                "mediaDuration" : 59,
                                "scalar" : 1,
                                "animationTracks" : {

                                }
                              },
                          "audio" : 
                              {
                                "id" : 83,
                                "_type" : "AMFile",
                                "src" : 1,
                                "trackNumber" : 1,
                                "attributes" : {
                                  "ident" : "",
                                  "gain" : 1.0,
                                  "mixToMono" : false
                                },
                                  "channelNumber" : "0,1",
                                "effects" : [

                                ],
                                "start" : 357,
                                "duration" : 59,
                                "mediaStart" : 477,
                                "mediaDuration" : 59,
                                "scalar" : 1,
                                "animationTracks" : {

                                }
                              }
,
                          "start" : 357,
                          "duration" : 59,
                          "mediaStart" : 0,
                          "mediaDuration" : 10411,
                          "scalar" : 1,
                          "metadata" : {
                            "AutoAppliedSmartFocus" : "False",
                            "clipSpeedAttribute" : false
                          }
                        },
                        {
                          "id" : 84,
                          "_type" : "UnifiedMedia",
                          "video" : 
                              {
                                "id" : 85,
                                "_type" : "ScreenVMFile",
                                "src" : 1,
                                "trackNumber" : 0,
                                "attributes" : {
                                  "ident" : "Rec 01-28-21_001"
                                },
                                "parameters" : {
                                  "cursorScale" : {
                                    "type" : "double",
                                    "defaultValue" : 0.0,
                                    "interp" : "linr"
                                  },
                                  "cursorOpacity" : {
                                    "type" : "double",
                                    "defaultValue" : 0.0,
                                    "interp" : "linr"
                                  }
                                },
                                "effects" : [

                                ],
                                "start" : 416,
                                "duration" : 42,
                                "mediaStart" : 590,
                                "mediaDuration" : 42,
                                "scalar" : 1,
                                "animationTracks" : {

                                }
                              },
                          "audio" : 
                              {
                                "id" : 86,
                                "_type" : "AMFile",
                                "src" : 1,
                                "trackNumber" : 1,
                                "attributes" : {
                                  "ident" : "",
                                  "gain" : 1.0,
                                  "mixToMono" : false
                                },
                                  "channelNumber" : "0,1",
                                "effects" : [

                                ],
                                "start" : 416,
                                "duration" : 42,
                                "mediaStart" : 590,
                                "mediaDuration" : 42,
                                "scalar" : 1,
                                "animationTracks" : {

                                }
                              }
,
                          "start" : 416,
                          "duration" : 42,
                          "mediaStart" : 0,
                          "mediaDuration" : 10411,
                          "scalar" : 1,
                          "metadata" : {
                            "AutoAppliedSmartFocus" : "False",
                            "clipSpeedAttribute" : false
                          }
                        },
                        {
                          "id" : 87,
                          "_type" : "UnifiedMedia",
                          "video" : 
                              {
                                "id" : 88,
                                "_type" : "ScreenVMFile",
                                "src" : 1,
                                "trackNumber" : 0,
                                "attributes" : {
                                  "ident" : "Rec 01-28-21_001"
                                },
                                "parameters" : {
                                  "cursorScale" : {
                                    "type" : "double",
                                    "defaultValue" : 0.0,
                                    "interp" : "linr"
                                  },
                                  "cursorOpacity" : {
                                    "type" : "double",
                                    "defaultValue" : 0.0,
                                    "interp" : "linr"
                                  }
                                },
                                "effects" : [

                                ],
                                "start" : 458,
                                "duration" : 22,
                                "mediaStart" : 646,
                                "mediaDuration" : 22,
                                "scalar" : 1,
                                "animationTracks" : {

                                }
                              },
                          "audio" : 
                              {
                                "id" : 89,
                                "_type" : "AMFile",
                                "src" : 1,
                                "trackNumber" : 1,
                                "attributes" : {
                                  "ident" : "",
                                  "gain" : 1.0,
                                  "mixToMono" : false
                                },
                                  "channelNumber" : "0,1",
                                "effects" : [

                                ],
                                "start" : 458,
                                "duration" : 22,
                                "mediaStart" : 646,
                                "mediaDuration" : 22,
                                "scalar" : 1,
                                "animationTracks" : {

                                }
                              }
,
                          "start" : 458,
                          "duration" : 22,
                          "mediaStart" : 0,
                          "mediaDuration" : 10411,
                          "scalar" : 1,
                          "metadata" : {
                            "AutoAppliedSmartFocus" : "False",
                            "clipSpeedAttribute" : false
                          }
                        },
                        {
                          "id" : 90,
                          "_type" : "UnifiedMedia",
                          "video" : 
                              {
                                "id" : 91,
                                "_type" : "ScreenVMFile",
                                "src" : 1,
                                "trackNumber" : 0,
                                "attributes" : {
                                  "ident" : "Rec 01-28-21_001"
                                },
                                "parameters" : {
                                  "cursorScale" : {
                                    "type" : "double",
                                    "defaultValue" : 0.0,
                                    "interp" : "linr"
                                  },
                                  "cursorOpacity" : {
                                    "type" : "double",
                                    "defaultValue" : 0.0,
                                    "interp" : "linr"
                                  }
                                },
                                "effects" : [

                                ],
                                "start" : 480,
                                "duration" : 115,
                                "mediaStart" : 762,
                                "mediaDuration" : 115,
                                "scalar" : 1,
                                "animationTracks" : {

                                }
                              },
                          "audio" : 
                              {
                                "id" : 92,
                                "_type" : "AMFile",
                                "src" : 1,
                                "trackNumber" : 1,
                                "attributes" : {
                                  "ident" : "",
                                  "gain" : 1.0,
                                  "mixToMono" : false
                                },
                                  "channelNumber" : "0,1",
                                "effects" : [

                                ],
                                "start" : 480,
                                "duration" : 115,
                                "mediaStart" : 762,
                                "mediaDuration" : 115,
                                "scalar" : 1,
                                "animationTracks" : {

                                }
                              }
,
                          "start" : 480,
                          "duration" : 115,
                          "mediaStart" : 0,
                          "mediaDuration" : 10411,
                          "scalar" : 1,
                          "metadata" : {
                            "AutoAppliedSmartFocus" : "False",
                            "clipSpeedAttribute" : false
                          }
                        },
                        {
                          "id" : 93,
                          "_type" : "UnifiedMedia",
                          "video" : 
                              {
                                "id" : 94,
                                "_type" : "ScreenVMFile",
                                "src" : 1,
                                "trackNumber" : 0,
                                "attributes" : {
                                  "ident" : "Rec 01-28-21_001"
                                },
                                "parameters" : {
                                  "cursorScale" : {
                                    "type" : "double",
                                    "defaultValue" : 0.0,
                                    "interp" : "linr"
                                  },
                                  "cursorOpacity" : {
                                    "type" : "double",
                                    "defaultValue" : 0.0,
                                    "interp" : "linr"
                                  }
                                },
                                "effects" : [

                                ],
                                "start" : 595,
                                "duration" : 154,
                                "mediaStart" : 1024,
                                "mediaDuration" : 154,
                                "scalar" : 1,
                                "animationTracks" : {

                                }
                              },
                          "audio" : 
                              {
                                "id" : 95,
                                "_type" : "AMFile",
                                "src" : 1,
                                "trackNumber" : 1,
                                "attributes" : {
                                  "ident" : "",
                                  "gain" : 1.0,
                                  "mixToMono" : false
                                },
                                  "channelNumber" : "0,1",
                                "effects" : [

                                ],
                                "start" : 595,
                                "duration" : 154,
                                "mediaStart" : 1024,
                                "mediaDuration" : 154,
                                "scalar" : 1,
                                "animationTracks" : {

                                }
                              }
,
                          "start" : 595,
                          "duration" : 154,
                          "mediaStart" : 0,
                          "mediaDuration" : 10411,
                          "scalar" : 1,
                          "metadata" : {
                            "AutoAppliedSmartFocus" : "False",
                            "clipSpeedAttribute" : false
                          }
                        },
                        {
                          "id" : 96,
                          "_type" : "UnifiedMedia",
                          "video" : 
                              {
                                "id" : 97,
                                "_type" : "ScreenVMFile",
                                "src" : 1,
                                "trackNumber" : 0,
                                "attributes" : {
                                  "ident" : "Rec 01-28-21_001"
                                },
                                "parameters" : {
                                  "cursorScale" : {
                                    "type" : "double",
                                    "defaultValue" : 0.0,
                                    "interp" : "linr"
                                  },
                                  "cursorOpacity" : {
                                    "type" : "double",
                                    "defaultValue" : 0.0,
                                    "interp" : "linr"
                                  }
                                },
                                "effects" : [

                                ],
                                "start" : 749,
                                "duration" : 135,
                                "mediaStart" : 1207,
                                "mediaDuration" : 135,
                                "scalar" : 1,
                                "animationTracks" : {

                                }
                              },
                          "audio" : 
                              {
                                "id" : 98,
                                "_type" : "AMFile",
                                "src" : 1,
                                "trackNumber" : 1,
                                "attributes" : {
                                  "ident" : "",
                                  "gain" : 1.0,
                                  "mixToMono" : false
                                },
                                  "channelNumber" : "0,1",
                                "effects" : [

                                ],
                                "start" : 749,
                                "duration" : 135,
                                "mediaStart" : 1207,
                                "mediaDuration" : 135,
                                "scalar" : 1,
                                "animationTracks" : {

                                }
                              }
,
                          "start" : 749,
                          "duration" : 135,
                          "mediaStart" : 0,
                          "mediaDuration" : 10411,
                          "scalar" : 1,
                          "metadata" : {
                            "AutoAppliedSmartFocus" : "False",
                            "clipSpeedAttribute" : false
                          }
                        },
                        {
                          "id" : 99,
                          "_type" : "UnifiedMedia",
                          "video" : 
                              {
                                "id" : 100,
                                "_type" : "ScreenVMFile",
                                "src" : 1,
                                "trackNumber" : 0,
                                "attributes" : {
                                  "ident" : "Rec 01-28-21_001"
                                },
                                "parameters" : {
                                  "cursorScale" : {
                                    "type" : "double",
                                    "defaultValue" : 0.0,
                                    "interp" : "linr"
                                  },
                                  "cursorOpacity" : {
                                    "type" : "double",
                                    "defaultValue" : 0.0,
                                    "interp" : "linr"
                                  }
                                },
                                "effects" : [

                                ],
                                "start" : 884,
                                "duration" : 150,
                                "mediaStart" : 1383,
                                "mediaDuration" : 150,
                                "scalar" : 1,
                                "animationTracks" : {

                                }
                              },
                          "audio" : 
                              {
                                "id" : 101,
                                "_type" : "AMFile",
                                "src" : 1,
                                "trackNumber" : 1,
                                "attributes" : {
                                  "ident" : "",
                                  "gain" : 1.0,
                                  "mixToMono" : false
                                },
                                  "channelNumber" : "0,1",
                                "effects" : [

                                ],
                                "start" : 884,
                                "duration" : 150,
                                "mediaStart" : 1383,
                                "mediaDuration" : 150,
                                "scalar" : 1,
                                "animationTracks" : {

                                }
                              }
,
                          "start" : 884,
                          "duration" : 150,
                          "mediaStart" : 0,
                          "mediaDuration" : 10411,
                          "scalar" : 1,
                          "metadata" : {
                            "AutoAppliedSmartFocus" : "False",
                            "clipSpeedAttribute" : false
                          }
                        },
                        {
                          "id" : 102,
                          "_type" : "UnifiedMedia",
                          "video" : 
                              {
                                "id" : 103,
                                "_type" : "ScreenVMFile",
                                "src" : 1,
                                "trackNumber" : 0,
                                "attributes" : {
                                  "ident" : "Rec 01-28-21_001"
                                },
                                "parameters" : {
                                  "cursorScale" : {
                                    "type" : "double",
                                    "defaultValue" : 0.0,
                                    "interp" : "linr"
                                  },
                                  "cursorOpacity" : {
                                    "type" : "double",
                                    "defaultValue" : 0.0,
                                    "interp" : "linr"
                                  }
                                },
                                "effects" : [

                                ],
                                "start" : 1034,
                                "duration" : 89,
                                "mediaStart" : 1607,
                                "mediaDuration" : 89,
                                "scalar" : 1,
                                "animationTracks" : {

                                }
                              },
                          "audio" : 
                              {
                                "id" : 104,
                                "_type" : "AMFile",
                                "src" : 1,
                                "trackNumber" : 1,
                                "attributes" : {
                                  "ident" : "",
                                  "gain" : 1.0,
                                  "mixToMono" : false
                                },
                                  "channelNumber" : "0,1",
                                "effects" : [

                                ],
                                "start" : 1034,
                                "duration" : 89,
                                "mediaStart" : 1607,
                                "mediaDuration" : 89,
                                "scalar" : 1,
                                "animationTracks" : {

                                }
                              }
,
                          "start" : 1034,
                          "duration" : 89,
                          "mediaStart" : 0,
                          "mediaDuration" : 10411,
                          "scalar" : 1,
                          "metadata" : {
                            "AutoAppliedSmartFocus" : "False",
                            "clipSpeedAttribute" : false
                          }
                        },
                        {
                          "id" : 105,
                          "_type" : "UnifiedMedia",
                          "video" : 
                              {
                                "id" : 106,
                                "_type" : "ScreenVMFile",
                                "src" : 1,
                                "trackNumber" : 0,
                                "attributes" : {
                                  "ident" : "Rec 01-28-21_001"
                                },
                                "parameters" : {
                                  "cursorScale" : {
                                    "type" : "double",
                                    "defaultValue" : 0.0,
                                    "interp" : "linr"
                                  },
                                  "cursorOpacity" : {
                                    "type" : "double",
                                    "defaultValue" : 0.0,
                                    "interp" : "linr"
                                  }
                                },
                                "effects" : [

                                ],
                                "start" : 1123,
                                "duration" : 37,
                                "mediaStart" : 1752,
                                "mediaDuration" : 37,
                                "scalar" : 1,
                                "animationTracks" : {

                                }
                              },
                          "audio" : 
                              {
                                "id" : 107,
                                "_type" : "AMFile",
                                "src" : 1,
                                "trackNumber" : 1,
                                "attributes" : {
                                  "ident" : "",
                                  "gain" : 1.0,
                                  "mixToMono" : false
                                },
                                  "channelNumber" : "0,1",
                                "effects" : [

                                ],
                                "start" : 1123,
                                "duration" : 37,
                                "mediaStart" : 1752,
                                "mediaDuration" : 37,
                                "scalar" : 1,
                                "animationTracks" : {

                                }
                              }
,
                          "start" : 1123,
                          "duration" : 37,
                          "mediaStart" : 0,
                          "mediaDuration" : 10411,
                          "scalar" : 1,
                          "metadata" : {
                            "AutoAppliedSmartFocus" : "False",
                            "clipSpeedAttribute" : false
                          }
                        },
                        {
                          "id" : 108,
                          "_type" : "UnifiedMedia",
                          "video" : 
                              {
                                "id" : 109,
                                "_type" : "ScreenVMFile",
                                "src" : 1,
                                "trackNumber" : 0,
                                "attributes" : {
                                  "ident" : "Rec 01-28-21_001"
                                },
                                "parameters" : {
                                  "cursorScale" : {
                                    "type" : "double",
                                    "defaultValue" : 0.0,
                                    "interp" : "linr"
                                  },
                                  "cursorOpacity" : {
                                    "type" : "double",
                                    "defaultValue" : 0.0,
                                    "interp" : "linr"
                                  }
                                },
                                "effects" : [

                                ],
                                "start" : 1160,
                                "duration" : 34,
                                "mediaStart" : 1836,
                                "mediaDuration" : 34,
                                "scalar" : 1,
                                "animationTracks" : {

                                }
                              },
                          "audio" : 
                              {
                                "id" : 110,
                                "_type" : "AMFile",
                                "src" : 1,
                                "trackNumber" : 1,
                                "attributes" : {
                                  "ident" : "",
                                  "gain" : 1.0,
                                  "mixToMono" : false
                                },
                                  "channelNumber" : "0,1",
                                "effects" : [

                                ],
                                "start" : 1160,
                                "duration" : 34,
                                "mediaStart" : 1836,
                                "mediaDuration" : 34,
                                "scalar" : 1,
                                "animationTracks" : {

                                }
                              }
,
                          "start" : 1160,
                          "duration" : 34,
                          "mediaStart" : 0,
                          "mediaDuration" : 10411,
                          "scalar" : 1,
                          "metadata" : {
                            "AutoAppliedSmartFocus" : "False",
                            "clipSpeedAttribute" : false
                          }
                        },
                        {
                          "id" : 111,
                          "_type" : "UnifiedMedia",
                          "video" : 
                              {
                                "id" : 112,
                                "_type" : "ScreenVMFile",
                                "src" : 1,
                                "trackNumber" : 0,
                                "attributes" : {
                                  "ident" : "Rec 01-28-21_001"
                                },
                                "parameters" : {
                                  "cursorScale" : {
                                    "type" : "double",
                                    "defaultValue" : 0.0,
                                    "interp" : "linr"
                                  },
                                  "cursorOpacity" : {
                                    "type" : "double",
                                    "defaultValue" : 0.0,
                                    "interp" : "linr"
                                  }
                                },
                                "effects" : [

                                ],
                                "start" : 1194,
                                "duration" : 41,
                                "mediaStart" : 1882,
                                "mediaDuration" : 41,
                                "scalar" : 1,
                                "animationTracks" : {

                                }
                              },
                          "audio" : 
                              {
                                "id" : 113,
                                "_type" : "AMFile",
                                "src" : 1,
                                "trackNumber" : 1,
                                "attributes" : {
                                  "ident" : "",
                                  "gain" : 1.0,
                                  "mixToMono" : false
                                },
                                  "channelNumber" : "0,1",
                                "effects" : [

                                ],
                                "start" : 1194,
                                "duration" : 41,
                                "mediaStart" : 1882,
                                "mediaDuration" : 41,
                                "scalar" : 1,
                                "animationTracks" : {

                                }
                              }
,
                          "start" : 1194,
                          "duration" : 41,
                          "mediaStart" : 0,
                          "mediaDuration" : 10411,
                          "scalar" : 1,
                          "metadata" : {
                            "AutoAppliedSmartFocus" : "False",
                            "clipSpeedAttribute" : false
                          }
                        },
                        {
                          "id" : 114,
                          "_type" : "UnifiedMedia",
                          "video" : 
                              {
                                "id" : 115,
                                "_type" : "ScreenVMFile",
                                "src" : 1,
                                "trackNumber" : 0,
                                "attributes" : {
                                  "ident" : "Rec 01-28-21_001"
                                },
                                "parameters" : {
                                  "cursorScale" : {
                                    "type" : "double",
                                    "defaultValue" : 0.0,
                                    "interp" : "linr"
                                  },
                                  "cursorOpacity" : {
                                    "type" : "double",
                                    "defaultValue" : 0.0,
                                    "interp" : "linr"
                                  }
                                },
                                "effects" : [

                                ],
                                "start" : 1235,
                                "duration" : 41,
                                "mediaStart" : 1948,
                                "mediaDuration" : 41,
                                "scalar" : 1,
                                "animationTracks" : {

                                }
                              },
                          "audio" : 
                              {
                                "id" : 116,
                                "_type" : "AMFile",
                                "src" : 1,
                                "trackNumber" : 1,
                                "attributes" : {
                                  "ident" : "",
                                  "gain" : 1.0,
                                  "mixToMono" : false
                                },
                                  "channelNumber" : "0,1",
                                "effects" : [

                                ],
                                "start" : 1235,
                                "duration" : 41,
                                "mediaStart" : 1948,
                                "mediaDuration" : 41,
                                "scalar" : 1,
                                "animationTracks" : {

                                }
                              }
,
                          "start" : 1235,
                          "duration" : 41,
                          "mediaStart" : 0,
                          "mediaDuration" : 10411,
                          "scalar" : 1,
                          "metadata" : {
                            "AutoAppliedSmartFocus" : "False",
                            "clipSpeedAttribute" : false
                          }
                        },
                        {
                          "id" : 117,
                          "_type" : "UnifiedMedia",
                          "video" : 
                              {
                                "id" : 118,
                                "_type" : "ScreenVMFile",
                                "src" : 1,
                                "trackNumber" : 0,
                                "attributes" : {
                                  "ident" : "Rec 01-28-21_001"
                                },
                                "parameters" : {
                                  "cursorScale" : {
                                    "type" : "double",
                                    "defaultValue" : 0.0,
                                    "interp" : "linr"
                                  },
                                  "cursorOpacity" : {
                                    "type" : "double",
                                    "defaultValue" : 0.0,
                                    "interp" : "linr"
                                  }
                                },
                                "effects" : [

                                ],
                                "start" : 1276,
                                "duration" : 55,
                                "mediaStart" : 2015,
                                "mediaDuration" : 55,
                                "scalar" : 1,
                                "animationTracks" : {

                                }
                              },
                          "audio" : 
                              {
                                "id" : 119,
                                "_type" : "AMFile",
                                "src" : 1,
                                "trackNumber" : 1,
                                "attributes" : {
                                  "ident" : "",
                                  "gain" : 1.0,
                                  "mixToMono" : false
                                },
                                  "channelNumber" : "0,1",
                                "effects" : [

                                ],
                                "start" : 1276,
                                "duration" : 55,
                                "mediaStart" : 2015,
                                "mediaDuration" : 55,
                                "scalar" : 1,
                                "animationTracks" : {

                                }
                              }
,
                          "start" : 1276,
                          "duration" : 55,
                          "mediaStart" : 0,
                          "mediaDuration" : 10411,
                          "scalar" : 1,
                          "metadata" : {
                            "AutoAppliedSmartFocus" : "False",
                            "clipSpeedAttribute" : false
                          }
                        },
                        {
                          "id" : 120,
                          "_type" : "UnifiedMedia",
                          "video" : 
                              {
                                "id" : 121,
                                "_type" : "ScreenVMFile",
                                "src" : 1,
                                "trackNumber" : 0,
                                "attributes" : {
                                  "ident" : "Rec 01-28-21_001"
                                },
                                "parameters" : {
                                  "cursorScale" : {
                                    "type" : "double",
                                    "defaultValue" : 0.0,
                                    "interp" : "linr"
                                  },
                                  "cursorOpacity" : {
                                    "type" : "double",
                                    "defaultValue" : 0.0,
                                    "interp" : "linr"
                                  }
                                },
                                "effects" : [

                                ],
                                "start" : 1331,
                                "duration" : 42,
                                "mediaStart" : 2110,
                                "mediaDuration" : 42,
                                "scalar" : 1,
                                "animationTracks" : {

                                }
                              },
                          "audio" : 
                              {
                                "id" : 122,
                                "_type" : "AMFile",
                                "src" : 1,
                                "trackNumber" : 1,
                                "attributes" : {
                                  "ident" : "",
                                  "gain" : 1.0,
                                  "mixToMono" : false
                                },
                                  "channelNumber" : "0,1",
                                "effects" : [

                                ],
                                "start" : 1331,
                                "duration" : 42,
                                "mediaStart" : 2110,
                                "mediaDuration" : 42,
                                "scalar" : 1,
                                "animationTracks" : {

                                }
                              }
,
                          "start" : 1331,
                          "duration" : 42,
                          "mediaStart" : 0,
                          "mediaDuration" : 10411,
                          "scalar" : 1,
                          "metadata" : {
                            "AutoAppliedSmartFocus" : "False",
                            "clipSpeedAttribute" : false
                          }
                        },
                        {
                          "id" : 123,
                          "_type" : "UnifiedMedia",
                          "video" : 
                              {
                                "id" : 124,
                                "_type" : "ScreenVMFile",
                                "src" : 1,
                                "trackNumber" : 0,
                                "attributes" : {
                                  "ident" : "Rec 01-28-21_001"
                                },
                                "parameters" : {
                                  "cursorScale" : {
                                    "type" : "double",
                                    "defaultValue" : 0.0,
                                    "interp" : "linr"
                                  },
                                  "cursorOpacity" : {
                                    "type" : "double",
                                    "defaultValue" : 0.0,
                                    "interp" : "linr"
                                  }
                                },
                                "effects" : [

                                ],
                                "start" : 1373,
                                "duration" : 23,
                                "mediaStart" : 2250,
                                "mediaDuration" : 23,
                                "scalar" : 1,
                                "animationTracks" : {

                                }
                              },
                          "audio" : 
                              {
                                "id" : 125,
                                "_type" : "AMFile",
                                "src" : 1,
                                "trackNumber" : 1,
                                "attributes" : {
                                  "ident" : "",
                                  "gain" : 1.0,
                                  "mixToMono" : false
                                },
                                  "channelNumber" : "0,1",
                                "effects" : [

                                ],
                                "start" : 1373,
                                "duration" : 23,
                                "mediaStart" : 2250,
                                "mediaDuration" : 23,
                                "scalar" : 1,
                                "animationTracks" : {

                                }
                              }
,
                          "start" : 1373,
                          "duration" : 23,
                          "mediaStart" : 0,
                          "mediaDuration" : 10411,
                          "scalar" : 1,
                          "metadata" : {
                            "AutoAppliedSmartFocus" : "False",
                            "clipSpeedAttribute" : false
                          }
                        },
                        {
                          "id" : 126,
                          "_type" : "UnifiedMedia",
                          "video" : 
                              {
                                "id" : 127,
                                "_type" : "ScreenVMFile",
                                "src" : 1,
                                "trackNumber" : 0,
                                "attributes" : {
                                  "ident" : "Rec 01-28-21_001"
                                },
                                "parameters" : {
                                  "cursorScale" : {
                                    "type" : "double",
                                    "defaultValue" : 0.0,
                                    "interp" : "linr"
                                  },
                                  "cursorOpacity" : {
                                    "type" : "double",
                                    "defaultValue" : 0.0,
                                    "interp" : "linr"
                                  }
                                },
                                "effects" : [

                                ],
                                "start" : 1396,
                                "duration" : 79,
                                "mediaStart" : 2299,
                                "mediaDuration" : 79,
                                "scalar" : 1,
                                "animationTracks" : {

                                }
                              },
                          "audio" : 
                              {
                                "id" : 128,
                                "_type" : "AMFile",
                                "src" : 1,
                                "trackNumber" : 1,
                                "attributes" : {
                                  "ident" : "",
                                  "gain" : 1.0,
                                  "mixToMono" : false
                                },
                                  "channelNumber" : "0,1",
                                "effects" : [

                                ],
                                "start" : 1396,
                                "duration" : 79,
                                "mediaStart" : 2299,
                                "mediaDuration" : 79,
                                "scalar" : 1,
                                "animationTracks" : {

                                }
                              }
,
                          "start" : 1396,
                          "duration" : 79,
                          "mediaStart" : 0,
                          "mediaDuration" : 10411,
                          "scalar" : 1,
                          "metadata" : {
                            "AutoAppliedSmartFocus" : "False",
                            "clipSpeedAttribute" : false
                          }
                        },
                        {
                          "id" : 129,
                          "_type" : "UnifiedMedia",
                          "video" : 
                              {
                                "id" : 130,
                                "_type" : "ScreenVMFile",
                                "src" : 1,
                                "trackNumber" : 0,
                                "attributes" : {
                                  "ident" : "Rec 01-28-21_001"
                                },
                                "parameters" : {
                                  "cursorScale" : {
                                    "type" : "double",
                                    "defaultValue" : 0.0,
                                    "interp" : "linr"
                                  },
                                  "cursorOpacity" : {
                                    "type" : "double",
                                    "defaultValue" : 0.0,
                                    "interp" : "linr"
                                  }
                                },
                                "effects" : [

                                ],
                                "start" : 1475,
                                "duration" : 64,
                                "mediaStart" : 2409,
                                "mediaDuration" : 64,
                                "scalar" : 1,
                                "animationTracks" : {

                                }
                              },
                          "audio" : 
                              {
                                "id" : 131,
                                "_type" : "AMFile",
                                "src" : 1,
                                "trackNumber" : 1,
                                "attributes" : {
                                  "ident" : "",
                                  "gain" : 1.0,
                                  "mixToMono" : false
                                },
                                  "channelNumber" : "0,1",
                                "effects" : [

                                ],
                                "start" : 1475,
                                "duration" : 64,
                                "mediaStart" : 2409,
                                "mediaDuration" : 64,
                                "scalar" : 1,
                                "animationTracks" : {

                                }
                              }
,
                          "start" : 1475,
                          "duration" : 64,
                          "mediaStart" : 0,
                          "mediaDuration" : 10411,
                          "scalar" : 1,
                          "metadata" : {
                            "AutoAppliedSmartFocus" : "False",
                            "clipSpeedAttribute" : false
                          }
                        },
                        {
                          "id" : 132,
                          "_type" : "UnifiedMedia",
                          "video" : 
                              {
                                "id" : 133,
                                "_type" : "ScreenVMFile",
                                "src" : 1,
                                "trackNumber" : 0,
                                "attributes" : {
                                  "ident" : "Rec 01-28-21_001"
                                },
                                "parameters" : {
                                  "cursorScale" : {
                                    "type" : "double",
                                    "defaultValue" : 0.0,
                                    "interp" : "linr"
                                  },
                                  "cursorOpacity" : {
                                    "type" : "double",
                                    "defaultValue" : 0.0,
                                    "interp" : "linr"
                                  }
                                },
                                "effects" : [

                                ],
                                "start" : 1539,
                                "duration" : 43,
                                "mediaStart" : 2478,
                                "mediaDuration" : 43,
                                "scalar" : 1,
                                "animationTracks" : {

                                }
                              },
                          "audio" : 
                              {
                                "id" : 134,
                                "_type" : "AMFile",
                                "src" : 1,
                                "trackNumber" : 1,
                                "attributes" : {
                                  "ident" : "",
                                  "gain" : 1.0,
                                  "mixToMono" : false
                                },
                                  "channelNumber" : "0,1",
                                "effects" : [

                                ],
                                "start" : 1539,
                                "duration" : 43,
                                "mediaStart" : 2478,
                                "mediaDuration" : 43,
                                "scalar" : 1,
                                "animationTracks" : {

                                }
                              }
,
                          "start" : 1539,
                          "duration" : 43,
                          "mediaStart" : 0,
                          "mediaDuration" : 10411,
                          "scalar" : 1,
                          "metadata" : {
                            "AutoAppliedSmartFocus" : "False",
                            "clipSpeedAttribute" : false
                          }
                        },
                        {
                          "id" : 135,
                          "_type" : "UnifiedMedia",
                          "video" : 
                              {
                                "id" : 136,
                                "_type" : "ScreenVMFile",
                                "src" : 1,
                                "trackNumber" : 0,
                                "attributes" : {
                                  "ident" : "Rec 01-28-21_001"
                                },
                                "parameters" : {
                                  "cursorScale" : {
                                    "type" : "double",
                                    "defaultValue" : 0.0,
                                    "interp" : "linr"
                                  },
                                  "cursorOpacity" : {
                                    "type" : "double",
                                    "defaultValue" : 0.0,
                                    "interp" : "linr"
                                  }
                                },
                                "effects" : [

                                ],
                                "start" : 1582,
                                "duration" : 47,
                                "mediaStart" : 2538,
                                "mediaDuration" : 47,
                                "scalar" : 1,
                                "animationTracks" : {

                                }
                              },
                          "audio" : 
                              {
                                "id" : 137,
                                "_type" : "AMFile",
                                "src" : 1,
                                "trackNumber" : 1,
                                "attributes" : {
                                  "ident" : "",
                                  "gain" : 1.0,
                                  "mixToMono" : false
                                },
                                  "channelNumber" : "0,1",
                                "effects" : [

                                ],
                                "start" : 1582,
                                "duration" : 47,
                                "mediaStart" : 2538,
                                "mediaDuration" : 47,
                                "scalar" : 1,
                                "animationTracks" : {

                                }
                              }
,
                          "start" : 1582,
                          "duration" : 47,
                          "mediaStart" : 0,
                          "mediaDuration" : 10411,
                          "scalar" : 1,
                          "metadata" : {
                            "AutoAppliedSmartFocus" : "False",
                            "clipSpeedAttribute" : false
                          }
                        },
                        {
                          "id" : 138,
                          "_type" : "UnifiedMedia",
                          "video" : 
                              {
                                "id" : 139,
                                "_type" : "ScreenVMFile",
                                "src" : 1,
                                "trackNumber" : 0,
                                "attributes" : {
                                  "ident" : "Rec 01-28-21_001"
                                },
                                "parameters" : {
                                  "cursorScale" : {
                                    "type" : "double",
                                    "defaultValue" : 0.0,
                                    "interp" : "linr"
                                  },
                                  "cursorOpacity" : {
                                    "type" : "double",
                                    "defaultValue" : 0.0,
                                    "interp" : "linr"
                                  }
                                },
                                "effects" : [

                                ],
                                "start" : 1629,
                                "duration" : 7798,
                                "mediaStart" : 2613,
                                "mediaDuration" : 7798,
                                "scalar" : 1,
                                "animationTracks" : {

                                }
                              },
                          "audio" : 
                              {
                                "id" : 140,
                                "_type" : "AMFile",
                                "src" : 1,
                                "trackNumber" : 1,
                                "attributes" : {
                                  "ident" : "",
                                  "gain" : 1.0,
                                  "mixToMono" : false
                                },
                                  "channelNumber" : "0,1",
                                "effects" : [

                                ],
                                "start" : 1629,
                                "duration" : 7798,
                                "mediaStart" : 2613,
                                "mediaDuration" : 7798,
                                "scalar" : 1,
                                "animationTracks" : {

                                }
                              }
,
                          "start" : 1629,
                          "duration" : 7798,
                          "mediaStart" : 0,
                          "mediaDuration" : 10411,
                          "scalar" : 1,
                          "metadata" : {
                            "AutoAppliedSmartFocus" : "False",
                            "clipSpeedAttribute" : false
                          }
                        }
                    ],
                    "effects" : [

                    ],
                    "start" : 236,
                    "duration" : 1418,
                    "mediaStart" : 262,
                    "mediaDuration" : 1418,
                    "scalar" : 1,
                    "metadata" : {
                      "AutoAppliedSmartFocus" : "False",
                      "clipSpeedAttribute" : false
                    },
                    "animationTracks" : {

                    }
                  },
                  {
                    "id" : 141,
                    "_type" : "Group",
                    "parameters" : {
                      "volume" : 1.0
                    },
                    "tracks" : [
                      {
                        "trackIndex" : 0,
                        "medias" : [
                          {
                            "id" : 142,
                            "_type" : "StitchedMedia",
                            "minMediaStart" : 0,
                            "attributes" : {
                              "ident" : "Rec 01-28-21_001",
                              "gain" : 1.0,
                              "mixToMono" : false
                            },
                            "parameters" : {
                              "volume" : 1.0,
                              "cursorOpacity" : 1.0,
                              "cursorScale" : 1.0
                            },
                            "medias" : [
                                {
                                  "id" : 143,
                                  "_type" : "UnifiedMedia",
                                  "video" : 
                                      {
                                        "id" : 144,
                                        "_type" : "ScreenVMFile",
                                        "src" : 1,
                                        "trackNumber" : 0,
                                        "attributes" : {
                                          "ident" : "Rec 01-28-21_001"
                                        },
                                        "parameters" : {
                                          "cursorScale" : {
                                            "type" : "double",
                                            "defaultValue" : 0.0,
                                            "interp" : "linr"
                                          },
                                          "cursorOpacity" : {
                                            "type" : "double",
                                            "defaultValue" : 0.0,
                                            "interp" : "linr"
                                          }
                                        },
                                        "effects" : [

                                        ],
                                        "start" : 0,
                                        "duration" : 18,
                                        "mediaStart" : 0,
                                        "mediaDuration" : 18,
                                        "scalar" : 1,
                                        "animationTracks" : {

                                        }
                                      },
                                  "audio" : 
                                      {
                                        "id" : 145,
                                        "_type" : "AMFile",
                                        "src" : 1,
                                        "trackNumber" : 1,
                                        "attributes" : {
                                          "ident" : "",
                                          "gain" : 1.0,
                                          "mixToMono" : false
                                        },
                                          "channelNumber" : "0,1",
                                        "effects" : [

                                        ],
                                        "start" : 0,
                                        "duration" : 18,
                                        "mediaStart" : 0,
                                        "mediaDuration" : 18,
                                        "scalar" : 1,
                                        "animationTracks" : {

                                        }
                                      }
,
                                  "start" : 0,
                                  "duration" : 18,
                                  "mediaStart" : 0,
                                  "mediaDuration" : 10411,
                                  "scalar" : 1,
                                  "metadata" : {
                                    "AutoAppliedSmartFocus" : "False",
                                    "clipSpeedAttribute" : false
                                  }
                                },
                                {
                                  "id" : 146,
                                  "_type" : "UnifiedMedia",
                                  "video" : 
                                      {
                                        "id" : 147,
                                        "_type" : "ScreenVMFile",
                                        "src" : 1,
                                        "trackNumber" : 0,
                                        "attributes" : {
                                          "ident" : "Rec 01-28-21_001"
                                        },
                                        "parameters" : {
                                          "cursorScale" : {
                                            "type" : "double",
                                            "defaultValue" : 0.0,
                                            "interp" : "linr"
                                          },
                                          "cursorOpacity" : {
                                            "type" : "double",
                                            "defaultValue" : 0.0,
                                            "interp" : "linr"
                                          }
                                        },
                                        "effects" : [

                                        ],
                                        "start" : 18,
                                        "duration" : 286,
                                        "mediaStart" : 55,
                                        "mediaDuration" : 286,
                                        "scalar" : 1,
                                        "animationTracks" : {

                                        }
                                      },
                                  "audio" : 
                                      {
                                        "id" : 148,
                                        "_type" : "AMFile",
                                        "src" : 1,
                                        "trackNumber" : 1,
                                        "attributes" : {
                                          "ident" : "",
                                          "gain" : 1.0,
                                          "mixToMono" : false
                                        },
                                          "channelNumber" : "0,1",
                                        "effects" : [

                                        ],
                                        "start" : 18,
                                        "duration" : 286,
                                        "mediaStart" : 55,
                                        "mediaDuration" : 286,
                                        "scalar" : 1,
                                        "animationTracks" : {

                                        }
                                      }
,
                                  "start" : 18,
                                  "duration" : 286,
                                  "mediaStart" : 0,
                                  "mediaDuration" : 10411,
                                  "scalar" : 1,
                                  "metadata" : {
                                    "AutoAppliedSmartFocus" : "False",
                                    "clipSpeedAttribute" : false
                                  }
                                },
                                {
                                  "id" : 149,
                                  "_type" : "UnifiedMedia",
                                  "video" : 
                                      {
                                        "id" : 150,
                                        "_type" : "ScreenVMFile",
                                        "src" : 1,
                                        "trackNumber" : 0,
                                        "attributes" : {
                                          "ident" : "Rec 01-28-21_001"
                                        },
                                        "parameters" : {
                                          "cursorScale" : {
                                            "type" : "double",
                                            "defaultValue" : 0.0,
                                            "interp" : "linr"
                                          },
                                          "cursorOpacity" : {
                                            "type" : "double",
                                            "defaultValue" : 0.0,
                                            "interp" : "linr"
                                          }
                                        },
                                        "effects" : [

                                        ],
                                        "start" : 304,
                                        "duration" : 53,
                                        "mediaStart" : 367,
                                        "mediaDuration" : 53,
                                        "scalar" : 1,
                                        "animationTracks" : {

                                        }
                                      },
                                  "audio" : 
                                      {
                                        "id" : 151,
                                        "_type" : "AMFile",
                                        "src" : 1,
                                        "trackNumber" : 1,
                                        "attributes" : {
                                          "ident" : "",
                                          "gain" : 1.0,
                                          "mixToMono" : false
                                        },
                                          "channelNumber" : "0,1",
                                        "effects" : [

                                        ],
                                        "start" : 304,
                                        "duration" : 53,
                                        "mediaStart" : 367,
                                        "mediaDuration" : 53,
                                        "scalar" : 1,
                                        "animationTracks" : {

                                        }
                                      }
,
                                  "start" : 304,
                                  "duration" : 53,
                                  "mediaStart" : 0,
                                  "mediaDuration" : 10411,
                                  "scalar" : 1,
                                  "metadata" : {
                                    "AutoAppliedSmartFocus" : "False",
                                    "clipSpeedAttribute" : false
                                  }
                                },
                                {
                                  "id" : 152,
                                  "_type" : "UnifiedMedia",
                                  "video" : 
                                      {
                                        "id" : 153,
                                        "_type" : "ScreenVMFile",
                                        "src" : 1,
                                        "trackNumber" : 0,
                                        "attributes" : {
                                          "ident" : "Rec 01-28-21_001"
                                        },
                                        "parameters" : {
                                          "cursorScale" : {
                                            "type" : "double",
                                            "defaultValue" : 0.0,
                                            "interp" : "linr"
                                          },
                                          "cursorOpacity" : {
                                            "type" : "double",
                                            "defaultValue" : 0.0,
                                            "interp" : "linr"
                                          }
                                        },
                                        "effects" : [

                                        ],
                                        "start" : 357,
                                        "duration" : 59,
                                        "mediaStart" : 477,
                                        "mediaDuration" : 59,
                                        "scalar" : 1,
                                        "animationTracks" : {

                                        }
                                      },
                                  "audio" : 
                                      {
                                        "id" : 154,
                                        "_type" : "AMFile",
                                        "src" : 1,
                                        "trackNumber" : 1,
                                        "attributes" : {
                                          "ident" : "",
                                          "gain" : 1.0,
                                          "mixToMono" : false
                                        },
                                          "channelNumber" : "0,1",
                                        "effects" : [

                                        ],
                                        "start" : 357,
                                        "duration" : 59,
                                        "mediaStart" : 477,
                                        "mediaDuration" : 59,
                                        "scalar" : 1,
                                        "animationTracks" : {

                                        }
                                      }
,
                                  "start" : 357,
                                  "duration" : 59,
                                  "mediaStart" : 0,
                                  "mediaDuration" : 10411,
                                  "scalar" : 1,
                                  "metadata" : {
                                    "AutoAppliedSmartFocus" : "False",
                                    "clipSpeedAttribute" : false
                                  }
                                },
                                {
                                  "id" : 155,
                                  "_type" : "UnifiedMedia",
                                  "video" : 
                                      {
                                        "id" : 156,
                                        "_type" : "ScreenVMFile",
                                        "src" : 1,
                                        "trackNumber" : 0,
                                        "attributes" : {
                                          "ident" : "Rec 01-28-21_001"
                                        },
                                        "parameters" : {
                                          "cursorScale" : {
                                            "type" : "double",
                                            "defaultValue" : 0.0,
                                            "interp" : "linr"
                                          },
                                          "cursorOpacity" : {
                                            "type" : "double",
                                            "defaultValue" : 0.0,
                                            "interp" : "linr"
                                          }
                                        },
                                        "effects" : [

                                        ],
                                        "start" : 416,
                                        "duration" : 42,
                                        "mediaStart" : 590,
                                        "mediaDuration" : 42,
                                        "scalar" : 1,
                                        "animationTracks" : {

                                        }
                                      },
                                  "audio" : 
                                      {
                                        "id" : 157,
                                        "_type" : "AMFile",
                                        "src" : 1,
                                        "trackNumber" : 1,
                                        "attributes" : {
                                          "ident" : "",
                                          "gain" : 1.0,
                                          "mixToMono" : false
                                        },
                                          "channelNumber" : "0,1",
                                        "effects" : [

                                        ],
                                        "start" : 416,
                                        "duration" : 42,
                                        "mediaStart" : 590,
                                        "mediaDuration" : 42,
                                        "scalar" : 1,
                                        "animationTracks" : {

                                        }
                                      }
,
                                  "start" : 416,
                                  "duration" : 42,
                                  "mediaStart" : 0,
                                  "mediaDuration" : 10411,
                                  "scalar" : 1,
                                  "metadata" : {
                                    "AutoAppliedSmartFocus" : "False",
                                    "clipSpeedAttribute" : false
                                  }
                                },
                                {
                                  "id" : 158,
                                  "_type" : "UnifiedMedia",
                                  "video" : 
                                      {
                                        "id" : 159,
                                        "_type" : "ScreenVMFile",
                                        "src" : 1,
                                        "trackNumber" : 0,
                                        "attributes" : {
                                          "ident" : "Rec 01-28-21_001"
                                        },
                                        "parameters" : {
                                          "cursorScale" : {
                                            "type" : "double",
                                            "defaultValue" : 0.0,
                                            "interp" : "linr"
                                          },
                                          "cursorOpacity" : {
                                            "type" : "double",
                                            "defaultValue" : 0.0,
                                            "interp" : "linr"
                                          }
                                        },
                                        "effects" : [

                                        ],
                                        "start" : 458,
                                        "duration" : 22,
                                        "mediaStart" : 646,
                                        "mediaDuration" : 22,
                                        "scalar" : 1,
                                        "animationTracks" : {

                                        }
                                      },
                                  "audio" : 
                                      {
                                        "id" : 160,
                                        "_type" : "AMFile",
                                        "src" : 1,
                                        "trackNumber" : 1,
                                        "attributes" : {
                                          "ident" : "",
                                          "gain" : 1.0,
                                          "mixToMono" : false
                                        },
                                          "channelNumber" : "0,1",
                                        "effects" : [

                                        ],
                                        "start" : 458,
                                        "duration" : 22,
                                        "mediaStart" : 646,
                                        "mediaDuration" : 22,
                                        "scalar" : 1,
                                        "animationTracks" : {

                                        }
                                      }
,
                                  "start" : 458,
                                  "duration" : 22,
                                  "mediaStart" : 0,
                                  "mediaDuration" : 10411,
                                  "scalar" : 1,
                                  "metadata" : {
                                    "AutoAppliedSmartFocus" : "False",
                                    "clipSpeedAttribute" : false
                                  }
                                },
                                {
                                  "id" : 161,
                                  "_type" : "UnifiedMedia",
                                  "video" : 
                                      {
                                        "id" : 162,
                                        "_type" : "ScreenVMFile",
                                        "src" : 1,
                                        "trackNumber" : 0,
                                        "attributes" : {
                                          "ident" : "Rec 01-28-21_001"
                                        },
                                        "parameters" : {
                                          "cursorScale" : {
                                            "type" : "double",
                                            "defaultValue" : 0.0,
                                            "interp" : "linr"
                                          },
                                          "cursorOpacity" : {
                                            "type" : "double",
                                            "defaultValue" : 0.0,
                                            "interp" : "linr"
                                          }
                                        },
                                        "effects" : [

                                        ],
                                        "start" : 480,
                                        "duration" : 115,
                                        "mediaStart" : 762,
                                        "mediaDuration" : 115,
                                        "scalar" : 1,
                                        "animationTracks" : {

                                        }
                                      },
                                  "audio" : 
                                      {
                                        "id" : 163,
                                        "_type" : "AMFile",
                                        "src" : 1,
                                        "trackNumber" : 1,
                                        "attributes" : {
                                          "ident" : "",
                                          "gain" : 1.0,
                                          "mixToMono" : false
                                        },
                                          "channelNumber" : "0,1",
                                        "effects" : [

                                        ],
                                        "start" : 480,
                                        "duration" : 115,
                                        "mediaStart" : 762,
                                        "mediaDuration" : 115,
                                        "scalar" : 1,
                                        "animationTracks" : {

                                        }
                                      }
,
                                  "start" : 480,
                                  "duration" : 115,
                                  "mediaStart" : 0,
                                  "mediaDuration" : 10411,
                                  "scalar" : 1,
                                  "metadata" : {
                                    "AutoAppliedSmartFocus" : "False",
                                    "clipSpeedAttribute" : false
                                  }
                                },
                                {
                                  "id" : 164,
                                  "_type" : "UnifiedMedia",
                                  "video" : 
                                      {
                                        "id" : 165,
                                        "_type" : "ScreenVMFile",
                                        "src" : 1,
                                        "trackNumber" : 0,
                                        "attributes" : {
                                          "ident" : "Rec 01-28-21_001"
                                        },
                                        "parameters" : {
                                          "cursorScale" : {
                                            "type" : "double",
                                            "defaultValue" : 0.0,
                                            "interp" : "linr"
                                          },
                                          "cursorOpacity" : {
                                            "type" : "double",
                                            "defaultValue" : 0.0,
                                            "interp" : "linr"
                                          }
                                        },
                                        "effects" : [

                                        ],
                                        "start" : 595,
                                        "duration" : 154,
                                        "mediaStart" : 1024,
                                        "mediaDuration" : 154,
                                        "scalar" : 1,
                                        "animationTracks" : {

                                        }
                                      },
                                  "audio" : 
                                      {
                                        "id" : 166,
                                        "_type" : "AMFile",
                                        "src" : 1,
                                        "trackNumber" : 1,
                                        "attributes" : {
                                          "ident" : "",
                                          "gain" : 1.0,
                                          "mixToMono" : false
                                        },
                                          "channelNumber" : "0,1",
                                        "effects" : [

                                        ],
                                        "start" : 595,
                                        "duration" : 154,
                                        "mediaStart" : 1024,
                                        "mediaDuration" : 154,
                                        "scalar" : 1,
                                        "animationTracks" : {

                                        }
                                      }
,
                                  "start" : 595,
                                  "duration" : 154,
                                  "mediaStart" : 0,
                                  "mediaDuration" : 10411,
                                  "scalar" : 1,
                                  "metadata" : {
                                    "AutoAppliedSmartFocus" : "False",
                                    "clipSpeedAttribute" : false
                                  }
                                },
                                {
                                  "id" : 167,
                                  "_type" : "UnifiedMedia",
                                  "video" : 
                                      {
                                        "id" : 168,
                                        "_type" : "ScreenVMFile",
                                        "src" : 1,
                                        "trackNumber" : 0,
                                        "attributes" : {
                                          "ident" : "Rec 01-28-21_001"
                                        },
                                        "parameters" : {
                                          "cursorScale" : {
                                            "type" : "double",
                                            "defaultValue" : 0.0,
                                            "interp" : "linr"
                                          },
                                          "cursorOpacity" : {
                                            "type" : "double",
                                            "defaultValue" : 0.0,
                                            "interp" : "linr"
                                          }
                                        },
                                        "effects" : [

                                        ],
                                        "start" : 749,
                                        "duration" : 135,
                                        "mediaStart" : 1207,
                                        "mediaDuration" : 135,
                                        "scalar" : 1,
                                        "animationTracks" : {

                                        }
                                      },
                                  "audio" : 
                                      {
                                        "id" : 169,
                                        "_type" : "AMFile",
                                        "src" : 1,
                                        "trackNumber" : 1,
                                        "attributes" : {
                                          "ident" : "",
                                          "gain" : 1.0,
                                          "mixToMono" : false
                                        },
                                          "channelNumber" : "0,1",
                                        "effects" : [

                                        ],
                                        "start" : 749,
                                        "duration" : 135,
                                        "mediaStart" : 1207,
                                        "mediaDuration" : 135,
                                        "scalar" : 1,
                                        "animationTracks" : {

                                        }
                                      }
,
                                  "start" : 749,
                                  "duration" : 135,
                                  "mediaStart" : 0,
                                  "mediaDuration" : 10411,
                                  "scalar" : 1,
                                  "metadata" : {
                                    "AutoAppliedSmartFocus" : "False",
                                    "clipSpeedAttribute" : false
                                  }
                                },
                                {
                                  "id" : 170,
                                  "_type" : "UnifiedMedia",
                                  "video" : 
                                      {
                                        "id" : 171,
                                        "_type" : "ScreenVMFile",
                                        "src" : 1,
                                        "trackNumber" : 0,
                                        "attributes" : {
                                          "ident" : "Rec 01-28-21_001"
                                        },
                                        "parameters" : {
                                          "cursorScale" : {
                                            "type" : "double",
                                            "defaultValue" : 0.0,
                                            "interp" : "linr"
                                          },
                                          "cursorOpacity" : {
                                            "type" : "double",
                                            "defaultValue" : 0.0,
                                            "interp" : "linr"
                                          }
                                        },
                                        "effects" : [

                                        ],
                                        "start" : 884,
                                        "duration" : 150,
                                        "mediaStart" : 1383,
                                        "mediaDuration" : 150,
                                        "scalar" : 1,
                                        "animationTracks" : {

                                        }
                                      },
                                  "audio" : 
                                      {
                                        "id" : 172,
                                        "_type" : "AMFile",
                                        "src" : 1,
                                        "trackNumber" : 1,
                                        "attributes" : {
                                          "ident" : "",
                                          "gain" : 1.0,
                                          "mixToMono" : false
                                        },
                                          "channelNumber" : "0,1",
                                        "effects" : [

                                        ],
                                        "start" : 884,
                                        "duration" : 150,
                                        "mediaStart" : 1383,
                                        "mediaDuration" : 150,
                                        "scalar" : 1,
                                        "animationTracks" : {

                                        }
                                      }
,
                                  "start" : 884,
                                  "duration" : 150,
                                  "mediaStart" : 0,
                                  "mediaDuration" : 10411,
                                  "scalar" : 1,
                                  "metadata" : {
                                    "AutoAppliedSmartFocus" : "False",
                                    "clipSpeedAttribute" : false
                                  }
                                },
                                {
                                  "id" : 173,
                                  "_type" : "UnifiedMedia",
                                  "video" : 
                                      {
                                        "id" : 174,
                                        "_type" : "ScreenVMFile",
                                        "src" : 1,
                                        "trackNumber" : 0,
                                        "attributes" : {
                                          "ident" : "Rec 01-28-21_001"
                                        },
                                        "parameters" : {
                                          "cursorScale" : {
                                            "type" : "double",
                                            "defaultValue" : 0.0,
                                            "interp" : "linr"
                                          },
                                          "cursorOpacity" : {
                                            "type" : "double",
                                            "defaultValue" : 0.0,
                                            "interp" : "linr"
                                          }
                                        },
                                        "effects" : [

                                        ],
                                        "start" : 1034,
                                        "duration" : 89,
                                        "mediaStart" : 1607,
                                        "mediaDuration" : 89,
                                        "scalar" : 1,
                                        "animationTracks" : {

                                        }
                                      },
                                  "audio" : 
                                      {
                                        "id" : 175,
                                        "_type" : "AMFile",
                                        "src" : 1,
                                        "trackNumber" : 1,
                                        "attributes" : {
                                          "ident" : "",
                                          "gain" : 1.0,
                                          "mixToMono" : false
                                        },
                                          "channelNumber" : "0,1",
                                        "effects" : [

                                        ],
                                        "start" : 1034,
                                        "duration" : 89,
                                        "mediaStart" : 1607,
                                        "mediaDuration" : 89,
                                        "scalar" : 1,
                                        "animationTracks" : {

                                        }
                                      }
,
                                  "start" : 1034,
                                  "duration" : 89,
                                  "mediaStart" : 0,
                                  "mediaDuration" : 10411,
                                  "scalar" : 1,
                                  "metadata" : {
                                    "AutoAppliedSmartFocus" : "False",
                                    "clipSpeedAttribute" : false
                                  }
                                },
                                {
                                  "id" : 176,
                                  "_type" : "UnifiedMedia",
                                  "video" : 
                                      {
                                        "id" : 177,
                                        "_type" : "ScreenVMFile",
                                        "src" : 1,
                                        "trackNumber" : 0,
                                        "attributes" : {
                                          "ident" : "Rec 01-28-21_001"
                                        },
                                        "parameters" : {
                                          "cursorScale" : {
                                            "type" : "double",
                                            "defaultValue" : 0.0,
                                            "interp" : "linr"
                                          },
                                          "cursorOpacity" : {
                                            "type" : "double",
                                            "defaultValue" : 0.0,
                                            "interp" : "linr"
                                          }
                                        },
                                        "effects" : [

                                        ],
                                        "start" : 1123,
                                        "duration" : 37,
                                        "mediaStart" : 1752,
                                        "mediaDuration" : 37,
                                        "scalar" : 1,
                                        "animationTracks" : {

                                        }
                                      },
                                  "audio" : 
                                      {
                                        "id" : 178,
                                        "_type" : "AMFile",
                                        "src" : 1,
                                        "trackNumber" : 1,
                                        "attributes" : {
                                          "ident" : "",
                                          "gain" : 1.0,
                                          "mixToMono" : false
                                        },
                                          "channelNumber" : "0,1",
                                        "effects" : [

                                        ],
                                        "start" : 1123,
                                        "duration" : 37,
                                        "mediaStart" : 1752,
                                        "mediaDuration" : 37,
                                        "scalar" : 1,
                                        "animationTracks" : {

                                        }
                                      }
,
                                  "start" : 1123,
                                  "duration" : 37,
                                  "mediaStart" : 0,
                                  "mediaDuration" : 10411,
                                  "scalar" : 1,
                                  "metadata" : {
                                    "AutoAppliedSmartFocus" : "False",
                                    "clipSpeedAttribute" : false
                                  }
                                },
                                {
                                  "id" : 179,
                                  "_type" : "UnifiedMedia",
                                  "video" : 
                                      {
                                        "id" : 180,
                                        "_type" : "ScreenVMFile",
                                        "src" : 1,
                                        "trackNumber" : 0,
                                        "attributes" : {
                                          "ident" : "Rec 01-28-21_001"
                                        },
                                        "parameters" : {
                                          "cursorScale" : {
                                            "type" : "double",
                                            "defaultValue" : 0.0,
                                            "interp" : "linr"
                                          },
                                          "cursorOpacity" : {
                                            "type" : "double",
                                            "defaultValue" : 0.0,
                                            "interp" : "linr"
                                          }
                                        },
                                        "effects" : [

                                        ],
                                        "start" : 1160,
                                        "duration" : 34,
                                        "mediaStart" : 1836,
                                        "mediaDuration" : 34,
                                        "scalar" : 1,
                                        "animationTracks" : {

                                        }
                                      },
                                  "audio" : 
                                      {
                                        "id" : 181,
                                        "_type" : "AMFile",
                                        "src" : 1,
                                        "trackNumber" : 1,
                                        "attributes" : {
                                          "ident" : "",
                                          "gain" : 1.0,
                                          "mixToMono" : false
                                        },
                                          "channelNumber" : "0,1",
                                        "effects" : [

                                        ],
                                        "start" : 1160,
                                        "duration" : 34,
                                        "mediaStart" : 1836,
                                        "mediaDuration" : 34,
                                        "scalar" : 1,
                                        "animationTracks" : {

                                        }
                                      }
,
                                  "start" : 1160,
                                  "duration" : 34,
                                  "mediaStart" : 0,
                                  "mediaDuration" : 10411,
                                  "scalar" : 1,
                                  "metadata" : {
                                    "AutoAppliedSmartFocus" : "False",
                                    "clipSpeedAttribute" : false
                                  }
                                },
                                {
                                  "id" : 182,
                                  "_type" : "UnifiedMedia",
                                  "video" : 
                                      {
                                        "id" : 183,
                                        "_type" : "ScreenVMFile",
                                        "src" : 1,
                                        "trackNumber" : 0,
                                        "attributes" : {
                                          "ident" : "Rec 01-28-21_001"
                                        },
                                        "parameters" : {
                                          "cursorScale" : {
                                            "type" : "double",
                                            "defaultValue" : 0.0,
                                            "interp" : "linr"
                                          },
                                          "cursorOpacity" : {
                                            "type" : "double",
                                            "defaultValue" : 0.0,
                                            "interp" : "linr"
                                          }
                                        },
                                        "effects" : [

                                        ],
                                        "start" : 1194,
                                        "duration" : 41,
                                        "mediaStart" : 1882,
                                        "mediaDuration" : 41,
                                        "scalar" : 1,
                                        "animationTracks" : {

                                        }
                                      },
                                  "audio" : 
                                      {
                                        "id" : 184,
                                        "_type" : "AMFile",
                                        "src" : 1,
                                        "trackNumber" : 1,
                                        "attributes" : {
                                          "ident" : "",
                                          "gain" : 1.0,
                                          "mixToMono" : false
                                        },
                                          "channelNumber" : "0,1",
                                        "effects" : [

                                        ],
                                        "start" : 1194,
                                        "duration" : 41,
                                        "mediaStart" : 1882,
                                        "mediaDuration" : 41,
                                        "scalar" : 1,
                                        "animationTracks" : {

                                        }
                                      }
,
                                  "start" : 1194,
                                  "duration" : 41,
                                  "mediaStart" : 0,
                                  "mediaDuration" : 10411,
                                  "scalar" : 1,
                                  "metadata" : {
                                    "AutoAppliedSmartFocus" : "False",
                                    "clipSpeedAttribute" : false
                                  }
                                },
                                {
                                  "id" : 185,
                                  "_type" : "UnifiedMedia",
                                  "video" : 
                                      {
                                        "id" : 186,
                                        "_type" : "ScreenVMFile",
                                        "src" : 1,
                                        "trackNumber" : 0,
                                        "attributes" : {
                                          "ident" : "Rec 01-28-21_001"
                                        },
                                        "parameters" : {
                                          "cursorScale" : {
                                            "type" : "double",
                                            "defaultValue" : 0.0,
                                            "interp" : "linr"
                                          },
                                          "cursorOpacity" : {
                                            "type" : "double",
                                            "defaultValue" : 0.0,
                                            "interp" : "linr"
                                          }
                                        },
                                        "effects" : [

                                        ],
                                        "start" : 1235,
                                        "duration" : 41,
                                        "mediaStart" : 1948,
                                        "mediaDuration" : 41,
                                        "scalar" : 1,
                                        "animationTracks" : {

                                        }
                                      },
                                  "audio" : 
                                      {
                                        "id" : 187,
                                        "_type" : "AMFile",
                                        "src" : 1,
                                        "trackNumber" : 1,
                                        "attributes" : {
                                          "ident" : "",
                                          "gain" : 1.0,
                                          "mixToMono" : false
                                        },
                                          "channelNumber" : "0,1",
                                        "effects" : [

                                        ],
                                        "start" : 1235,
                                        "duration" : 41,
                                        "mediaStart" : 1948,
                                        "mediaDuration" : 41,
                                        "scalar" : 1,
                                        "animationTracks" : {

                                        }
                                      }
,
                                  "start" : 1235,
                                  "duration" : 41,
                                  "mediaStart" : 0,
                                  "mediaDuration" : 10411,
                                  "scalar" : 1,
                                  "metadata" : {
                                    "AutoAppliedSmartFocus" : "False",
                                    "clipSpeedAttribute" : false
                                  }
                                },
                                {
                                  "id" : 188,
                                  "_type" : "UnifiedMedia",
                                  "video" : 
                                      {
                                        "id" : 189,
                                        "_type" : "ScreenVMFile",
                                        "src" : 1,
                                        "trackNumber" : 0,
                                        "attributes" : {
                                          "ident" : "Rec 01-28-21_001"
                                        },
                                        "parameters" : {
                                          "cursorScale" : {
                                            "type" : "double",
                                            "defaultValue" : 0.0,
                                            "interp" : "linr"
                                          },
                                          "cursorOpacity" : {
                                            "type" : "double",
                                            "defaultValue" : 0.0,
                                            "interp" : "linr"
                                          }
                                        },
                                        "effects" : [

                                        ],
                                        "start" : 1276,
                                        "duration" : 55,
                                        "mediaStart" : 2015,
                                        "mediaDuration" : 55,
                                        "scalar" : 1,
                                        "animationTracks" : {

                                        }
                                      },
                                  "audio" : 
                                      {
                                        "id" : 190,
                                        "_type" : "AMFile",
                                        "src" : 1,
                                        "trackNumber" : 1,
                                        "attributes" : {
                                          "ident" : "",
                                          "gain" : 1.0,
                                          "mixToMono" : false
                                        },
                                          "channelNumber" : "0,1",
                                        "effects" : [

                                        ],
                                        "start" : 1276,
                                        "duration" : 55,
                                        "mediaStart" : 2015,
                                        "mediaDuration" : 55,
                                        "scalar" : 1,
                                        "animationTracks" : {

                                        }
                                      }
,
                                  "start" : 1276,
                                  "duration" : 55,
                                  "mediaStart" : 0,
                                  "mediaDuration" : 10411,
                                  "scalar" : 1,
                                  "metadata" : {
                                    "AutoAppliedSmartFocus" : "False",
                                    "clipSpeedAttribute" : false
                                  }
                                },
                                {
                                  "id" : 191,
                                  "_type" : "UnifiedMedia",
                                  "video" : 
                                      {
                                        "id" : 192,
                                        "_type" : "ScreenVMFile",
                                        "src" : 1,
                                        "trackNumber" : 0,
                                        "attributes" : {
                                          "ident" : "Rec 01-28-21_001"
                                        },
                                        "parameters" : {
                                          "cursorScale" : {
                                            "type" : "double",
                                            "defaultValue" : 0.0,
                                            "interp" : "linr"
                                          },
                                          "cursorOpacity" : {
                                            "type" : "double",
                                            "defaultValue" : 0.0,
                                            "interp" : "linr"
                                          }
                                        },
                                        "effects" : [

                                        ],
                                        "start" : 1331,
                                        "duration" : 42,
                                        "mediaStart" : 2110,
                                        "mediaDuration" : 42,
                                        "scalar" : 1,
                                        "animationTracks" : {

                                        }
                                      },
                                  "audio" : 
                                      {
                                        "id" : 193,
                                        "_type" : "AMFile",
                                        "src" : 1,
                                        "trackNumber" : 1,
                                        "attributes" : {
                                          "ident" : "",
                                          "gain" : 1.0,
                                          "mixToMono" : false
                                        },
                                          "channelNumber" : "0,1",
                                        "effects" : [

                                        ],
                                        "start" : 1331,
                                        "duration" : 42,
                                        "mediaStart" : 2110,
                                        "mediaDuration" : 42,
                                        "scalar" : 1,
                                        "animationTracks" : {

                                        }
                                      }
,
                                  "start" : 1331,
                                  "duration" : 42,
                                  "mediaStart" : 0,
                                  "mediaDuration" : 10411,
                                  "scalar" : 1,
                                  "metadata" : {
                                    "AutoAppliedSmartFocus" : "False",
                                    "clipSpeedAttribute" : false
                                  }
                                },
                                {
                                  "id" : 194,
                                  "_type" : "UnifiedMedia",
                                  "video" : 
                                      {
                                        "id" : 195,
                                        "_type" : "ScreenVMFile",
                                        "src" : 1,
                                        "trackNumber" : 0,
                                        "attributes" : {
                                          "ident" : "Rec 01-28-21_001"
                                        },
                                        "parameters" : {
                                          "cursorScale" : {
                                            "type" : "double",
                                            "defaultValue" : 0.0,
                                            "interp" : "linr"
                                          },
                                          "cursorOpacity" : {
                                            "type" : "double",
                                            "defaultValue" : 0.0,
                                            "interp" : "linr"
                                          }
                                        },
                                        "effects" : [

                                        ],
                                        "start" : 1373,
                                        "duration" : 23,
                                        "mediaStart" : 2250,
                                        "mediaDuration" : 23,
                                        "scalar" : 1,
                                        "animationTracks" : {

                                        }
                                      },
                                  "audio" : 
                                      {
                                        "id" : 196,
                                        "_type" : "AMFile",
                                        "src" : 1,
                                        "trackNumber" : 1,
                                        "attributes" : {
                                          "ident" : "",
                                          "gain" : 1.0,
                                          "mixToMono" : false
                                        },
                                          "channelNumber" : "0,1",
                                        "effects" : [

                                        ],
                                        "start" : 1373,
                                        "duration" : 23,
                                        "mediaStart" : 2250,
                                        "mediaDuration" : 23,
                                        "scalar" : 1,
                                        "animationTracks" : {

                                        }
                                      }
,
                                  "start" : 1373,
                                  "duration" : 23,
                                  "mediaStart" : 0,
                                  "mediaDuration" : 10411,
                                  "scalar" : 1,
                                  "metadata" : {
                                    "AutoAppliedSmartFocus" : "False",
                                    "clipSpeedAttribute" : false
                                  }
                                },
                                {
                                  "id" : 197,
                                  "_type" : "UnifiedMedia",
                                  "video" : 
                                      {
                                        "id" : 198,
                                        "_type" : "ScreenVMFile",
                                        "src" : 1,
                                        "trackNumber" : 0,
                                        "attributes" : {
                                          "ident" : "Rec 01-28-21_001"
                                        },
                                        "parameters" : {
                                          "cursorScale" : {
                                            "type" : "double",
                                            "defaultValue" : 0.0,
                                            "interp" : "linr"
                                          },
                                          "cursorOpacity" : {
                                            "type" : "double",
                                            "defaultValue" : 0.0,
                                            "interp" : "linr"
                                          }
                                        },
                                        "effects" : [

                                        ],
                                        "start" : 1396,
                                        "duration" : 79,
                                        "mediaStart" : 2299,
                                        "mediaDuration" : 79,
                                        "scalar" : 1,
                                        "animationTracks" : {

                                        }
                                      },
                                  "audio" : 
                                      {
                                        "id" : 199,
                                        "_type" : "AMFile",
                                        "src" : 1,
                                        "trackNumber" : 1,
                                        "attributes" : {
                                          "ident" : "",
                                          "gain" : 1.0,
                                          "mixToMono" : false
                                        },
                                          "channelNumber" : "0,1",
                                        "effects" : [

                                        ],
                                        "start" : 1396,
                                        "duration" : 79,
                                        "mediaStart" : 2299,
                                        "mediaDuration" : 79,
                                        "scalar" : 1,
                                        "animationTracks" : {

                                        }
                                      }
,
                                  "start" : 1396,
                                  "duration" : 79,
                                  "mediaStart" : 0,
                                  "mediaDuration" : 10411,
                                  "scalar" : 1,
                                  "metadata" : {
                                    "AutoAppliedSmartFocus" : "False",
                                    "clipSpeedAttribute" : false
                                  }
                                },
                                {
                                  "id" : 200,
                                  "_type" : "UnifiedMedia",
                                  "video" : 
                                      {
                                        "id" : 201,
                                        "_type" : "ScreenVMFile",
                                        "src" : 1,
                                        "trackNumber" : 0,
                                        "attributes" : {
                                          "ident" : "Rec 01-28-21_001"
                                        },
                                        "parameters" : {
                                          "cursorScale" : {
                                            "type" : "double",
                                            "defaultValue" : 0.0,
                                            "interp" : "linr"
                                          },
                                          "cursorOpacity" : {
                                            "type" : "double",
                                            "defaultValue" : 0.0,
                                            "interp" : "linr"
                                          }
                                        },
                                        "effects" : [

                                        ],
                                        "start" : 1475,
                                        "duration" : 64,
                                        "mediaStart" : 2409,
                                        "mediaDuration" : 64,
                                        "scalar" : 1,
                                        "animationTracks" : {

                                        }
                                      },
                                  "audio" : 
                                      {
                                        "id" : 202,
                                        "_type" : "AMFile",
                                        "src" : 1,
                                        "trackNumber" : 1,
                                        "attributes" : {
                                          "ident" : "",
                                          "gain" : 1.0,
                                          "mixToMono" : false
                                        },
                                          "channelNumber" : "0,1",
                                        "effects" : [

                                        ],
                                        "start" : 1475,
                                        "duration" : 64,
                                        "mediaStart" : 2409,
                                        "mediaDuration" : 64,
                                        "scalar" : 1,
                                        "animationTracks" : {

                                        }
                                      }
,
                                  "start" : 1475,
                                  "duration" : 64,
                                  "mediaStart" : 0,
                                  "mediaDuration" : 10411,
                                  "scalar" : 1,
                                  "metadata" : {
                                    "AutoAppliedSmartFocus" : "False",
                                    "clipSpeedAttribute" : false
                                  }
                                },
                                {
                                  "id" : 203,
                                  "_type" : "UnifiedMedia",
                                  "video" : 
                                      {
                                        "id" : 204,
                                        "_type" : "ScreenVMFile",
                                        "src" : 1,
                                        "trackNumber" : 0,
                                        "attributes" : {
                                          "ident" : "Rec 01-28-21_001"
                                        },
                                        "parameters" : {
                                          "cursorScale" : {
                                            "type" : "double",
                                            "defaultValue" : 0.0,
                                            "interp" : "linr"
                                          },
                                          "cursorOpacity" : {
                                            "type" : "double",
                                            "defaultValue" : 0.0,
                                            "interp" : "linr"
                                          }
                                        },
                                        "effects" : [

                                        ],
                                        "start" : 1539,
                                        "duration" : 43,
                                        "mediaStart" : 2478,
                                        "mediaDuration" : 43,
                                        "scalar" : 1,
                                        "animationTracks" : {

                                        }
                                      },
                                  "audio" : 
                                      {
                                        "id" : 205,
                                        "_type" : "AMFile",
                                        "src" : 1,
                                        "trackNumber" : 1,
                                        "attributes" : {
                                          "ident" : "",
                                          "gain" : 1.0,
                                          "mixToMono" : false
                                        },
                                          "channelNumber" : "0,1",
                                        "effects" : [

                                        ],
                                        "start" : 1539,
                                        "duration" : 43,
                                        "mediaStart" : 2478,
                                        "mediaDuration" : 43,
                                        "scalar" : 1,
                                        "animationTracks" : {

                                        }
                                      }
,
                                  "start" : 1539,
                                  "duration" : 43,
                                  "mediaStart" : 0,
                                  "mediaDuration" : 10411,
                                  "scalar" : 1,
                                  "metadata" : {
                                    "AutoAppliedSmartFocus" : "False",
                                    "clipSpeedAttribute" : false
                                  }
                                },
                                {
                                  "id" : 206,
                                  "_type" : "UnifiedMedia",
                                  "video" : 
                                      {
                                        "id" : 207,
                                        "_type" : "ScreenVMFile",
                                        "src" : 1,
                                        "trackNumber" : 0,
                                        "attributes" : {
                                          "ident" : "Rec 01-28-21_001"
                                        },
                                        "parameters" : {
                                          "cursorScale" : {
                                            "type" : "double",
                                            "defaultValue" : 0.0,
                                            "interp" : "linr"
                                          },
                                          "cursorOpacity" : {
                                            "type" : "double",
                                            "defaultValue" : 0.0,
                                            "interp" : "linr"
                                          }
                                        },
                                        "effects" : [

                                        ],
                                        "start" : 1582,
                                        "duration" : 47,
                                        "mediaStart" : 2538,
                                        "mediaDuration" : 47,
                                        "scalar" : 1,
                                        "animationTracks" : {

                                        }
                                      },
                                  "audio" : 
                                      {
                                        "id" : 208,
                                        "_type" : "AMFile",
                                        "src" : 1,
                                        "trackNumber" : 1,
                                        "attributes" : {
                                          "ident" : "",
                                          "gain" : 1.0,
                                          "mixToMono" : false
                                        },
                                          "channelNumber" : "0,1",
                                        "effects" : [

                                        ],
                                        "start" : 1582,
                                        "duration" : 47,
                                        "mediaStart" : 2538,
                                        "mediaDuration" : 47,
                                        "scalar" : 1,
                                        "animationTracks" : {

                                        }
                                      }
,
                                  "start" : 1582,
                                  "duration" : 47,
                                  "mediaStart" : 0,
                                  "mediaDuration" : 10411,
                                  "scalar" : 1,
                                  "metadata" : {
                                    "AutoAppliedSmartFocus" : "False",
                                    "clipSpeedAttribute" : false
                                  }
                                },
                                {
                                  "id" : 209,
                                  "_type" : "UnifiedMedia",
                                  "video" : 
                                      {
                                        "id" : 210,
                                        "_type" : "ScreenVMFile",
                                        "src" : 1,
                                        "trackNumber" : 0,
                                        "attributes" : {
                                          "ident" : "Rec 01-28-21_001"
                                        },
                                        "parameters" : {
                                          "cursorScale" : {
                                            "type" : "double",
                                            "defaultValue" : 0.0,
                                            "interp" : "linr"
                                          },
                                          "cursorOpacity" : {
                                            "type" : "double",
                                            "defaultValue" : 0.0,
                                            "interp" : "linr"
                                          }
                                        },
                                        "effects" : [

                                        ],
                                        "start" : 1629,
                                        "duration" : 7798,
                                        "mediaStart" : 2613,
                                        "mediaDuration" : 7798,
                                        "scalar" : 1,
                                        "animationTracks" : {

                                        }
                                      },
                                  "audio" : 
                                      {
                                        "id" : 211,
                                        "_type" : "AMFile",
                                        "src" : 1,
                                        "trackNumber" : 1,
                                        "attributes" : {
                                          "ident" : "",
                                          "gain" : 1.0,
                                          "mixToMono" : false
                                        },
                                          "channelNumber" : "0,1",
                                        "effects" : [

                                        ],
                                        "start" : 1629,
                                        "duration" : 7798,
                                        "mediaStart" : 2613,
                                        "mediaDuration" : 7798,
                                        "scalar" : 1,
                                        "animationTracks" : {

                                        }
                                      }
,
                                  "start" : 1629,
                                  "duration" : 7798,
                                  "mediaStart" : 0,
                                  "mediaDuration" : 10411,
                                  "scalar" : 1,
                                  "metadata" : {
                                    "AutoAppliedSmartFocus" : "False",
                                    "clipSpeedAttribute" : false
                                  }
                                }
                            ],
                            "effects" : [

                            ],
                            "start" : 0,
                            "duration" : 75,
                            "mediaStart" : 1773,
                            "mediaDuration" : 75,
                            "scalar" : 1,
                            "metadata" : {
                              "AutoAppliedSmartFocus" : "False",
                              "clipSpeedAttribute" : false
                            },
                            "animationTracks" : {

                            }
                          }
                        ],
                          "ident" : "",
                          "audioMuted" : false,
                          "videoHidden" : false,
                          "magnetic" : false,
                          "matte" : 0,
                          "metadata" : {
                            "IsLocked" : "False",
                            "WinTrackHeight" : "0"
                          }
                      },
                      {
                        "trackIndex" : 1,
                        "medias" : [
                          {
                            "id" : 212,
                            "_type" : "AMFile",
                            "src" : 4,
                            "trackNumber" : 0,
                            "attributes" : {
                              "ident" : "Narration_3-3 Kubernetes-Deployment 1",
                              "gain" : 1.0,
                              "mixToMono" : false
                            },
                              "channelNumber" : "0,1",
                            "effects" : [

                            ],
                            "start" : 0,
                            "duration" : 75,
                            "mediaStart" : 0,
                            "mediaDuration" : 75,
                            "scalar" : 1,
                            "metadata" : {
                              "clipSpeedAttribute" : false
                            },
                            "animationTracks" : {

                            }
                          }
                        ],
                          "ident" : "",
                          "audioMuted" : false,
                          "videoHidden" : false,
                          "magnetic" : false,
                          "matte" : 0,
                          "metadata" : {
                            "IsLocked" : "False",
                            "WinTrackHeight" : "2.05933052782345e-312"
                          }
                      }
                    ],
                    "attributes" : {
                      "ident" : "Group 1",
                      "gain" : 1.0,
                      "mixToMono" : false
                    },
                    "effects" : [

                    ],
                    "start" : 1654,
                    "duration" : 75,
                    "mediaStart" : 0.0,
                    "mediaDuration" : 75.0,
                    "scalar" : 1,
                    "metadata" : {
                      "IsGroupExpanded" : "False"
                    },
                    "animationTracks" : {

                    }
                  },
                  {
                    "id" : 213,
                    "_type" : "StitchedMedia",
                    "minMediaStart" : 0,
                    "attributes" : {
                      "ident" : "Rec 01-28-21_001",
                      "gain" : 1.0,
                      "mixToMono" : false
                    },
                    "parameters" : {
                      "volume" : 1.0,
                      "cursorOpacity" : 1.0,
                      "cursorScale" : 1.0
                    },
                    "medias" : [
                        {
                          "id" : 214,
                          "_type" : "UnifiedMedia",
                          "video" : 
                              {
                                "id" : 215,
                                "_type" : "ScreenVMFile",
                                "src" : 1,
                                "trackNumber" : 0,
                                "attributes" : {
                                  "ident" : "Rec 01-28-21_001"
                                },
                                "parameters" : {
                                  "cursorScale" : {
                                    "type" : "double",
                                    "defaultValue" : 0.0,
                                    "interp" : "linr"
                                  },
                                  "cursorOpacity" : {
                                    "type" : "double",
                                    "defaultValue" : 0.0,
                                    "interp" : "linr"
                                  }
                                },
                                "effects" : [

                                ],
                                "start" : 0,
                                "duration" : 18,
                                "mediaStart" : 0,
                                "mediaDuration" : 18,
                                "scalar" : 1,
                                "animationTracks" : {

                                }
                              },
                          "audio" : 
                              {
                                "id" : 216,
                                "_type" : "AMFile",
                                "src" : 1,
                                "trackNumber" : 1,
                                "attributes" : {
                                  "ident" : "",
                                  "gain" : 1.0,
                                  "mixToMono" : false
                                },
                                  "channelNumber" : "0,1",
                                "effects" : [

                                ],
                                "start" : 0,
                                "duration" : 18,
                                "mediaStart" : 0,
                                "mediaDuration" : 18,
                                "scalar" : 1,
                                "animationTracks" : {

                                }
                              }
,
                          "start" : 0,
                          "duration" : 18,
                          "mediaStart" : 0,
                          "mediaDuration" : 10411,
                          "scalar" : 1,
                          "metadata" : {
                            "AutoAppliedSmartFocus" : "False",
                            "clipSpeedAttribute" : false
                          }
                        },
                        {
                          "id" : 217,
                          "_type" : "UnifiedMedia",
                          "video" : 
                              {
                                "id" : 218,
                                "_type" : "ScreenVMFile",
                                "src" : 1,
                                "trackNumber" : 0,
                                "attributes" : {
                                  "ident" : "Rec 01-28-21_001"
                                },
                                "parameters" : {
                                  "cursorScale" : {
                                    "type" : "double",
                                    "defaultValue" : 0.0,
                                    "interp" : "linr"
                                  },
                                  "cursorOpacity" : {
                                    "type" : "double",
                                    "defaultValue" : 0.0,
                                    "interp" : "linr"
                                  }
                                },
                                "effects" : [

                                ],
                                "start" : 18,
                                "duration" : 286,
                                "mediaStart" : 55,
                                "mediaDuration" : 286,
                                "scalar" : 1,
                                "animationTracks" : {

                                }
                              },
                          "audio" : 
                              {
                                "id" : 219,
                                "_type" : "AMFile",
                                "src" : 1,
                                "trackNumber" : 1,
                                "attributes" : {
                                  "ident" : "",
                                  "gain" : 1.0,
                                  "mixToMono" : false
                                },
                                  "channelNumber" : "0,1",
                                "effects" : [

                                ],
                                "start" : 18,
                                "duration" : 286,
                                "mediaStart" : 55,
                                "mediaDuration" : 286,
                                "scalar" : 1,
                                "animationTracks" : {

                                }
                              }
,
                          "start" : 18,
                          "duration" : 286,
                          "mediaStart" : 0,
                          "mediaDuration" : 10411,
                          "scalar" : 1,
                          "metadata" : {
                            "AutoAppliedSmartFocus" : "False",
                            "clipSpeedAttribute" : false
                          }
                        },
                        {
                          "id" : 220,
                          "_type" : "UnifiedMedia",
                          "video" : 
                              {
                                "id" : 221,
                                "_type" : "ScreenVMFile",
                                "src" : 1,
                                "trackNumber" : 0,
                                "attributes" : {
                                  "ident" : "Rec 01-28-21_001"
                                },
                                "parameters" : {
                                  "cursorScale" : {
                                    "type" : "double",
                                    "defaultValue" : 0.0,
                                    "interp" : "linr"
                                  },
                                  "cursorOpacity" : {
                                    "type" : "double",
                                    "defaultValue" : 0.0,
                                    "interp" : "linr"
                                  }
                                },
                                "effects" : [

                                ],
                                "start" : 304,
                                "duration" : 53,
                                "mediaStart" : 367,
                                "mediaDuration" : 53,
                                "scalar" : 1,
                                "animationTracks" : {

                                }
                              },
                          "audio" : 
                              {
                                "id" : 222,
                                "_type" : "AMFile",
                                "src" : 1,
                                "trackNumber" : 1,
                                "attributes" : {
                                  "ident" : "",
                                  "gain" : 1.0,
                                  "mixToMono" : false
                                },
                                  "channelNumber" : "0,1",
                                "effects" : [

                                ],
                                "start" : 304,
                                "duration" : 53,
                                "mediaStart" : 367,
                                "mediaDuration" : 53,
                                "scalar" : 1,
                                "animationTracks" : {

                                }
                              }
,
                          "start" : 304,
                          "duration" : 53,
                          "mediaStart" : 0,
                          "mediaDuration" : 10411,
                          "scalar" : 1,
                          "metadata" : {
                            "AutoAppliedSmartFocus" : "False",
                            "clipSpeedAttribute" : false
                          }
                        },
                        {
                          "id" : 223,
                          "_type" : "UnifiedMedia",
                          "video" : 
                              {
                                "id" : 224,
                                "_type" : "ScreenVMFile",
                                "src" : 1,
                                "trackNumber" : 0,
                                "attributes" : {
                                  "ident" : "Rec 01-28-21_001"
                                },
                                "parameters" : {
                                  "cursorScale" : {
                                    "type" : "double",
                                    "defaultValue" : 0.0,
                                    "interp" : "linr"
                                  },
                                  "cursorOpacity" : {
                                    "type" : "double",
                                    "defaultValue" : 0.0,
                                    "interp" : "linr"
                                  }
                                },
                                "effects" : [

                                ],
                                "start" : 357,
                                "duration" : 59,
                                "mediaStart" : 477,
                                "mediaDuration" : 59,
                                "scalar" : 1,
                                "animationTracks" : {

                                }
                              },
                          "audio" : 
                              {
                                "id" : 225,
                                "_type" : "AMFile",
                                "src" : 1,
                                "trackNumber" : 1,
                                "attributes" : {
                                  "ident" : "",
                                  "gain" : 1.0,
                                  "mixToMono" : false
                                },
                                  "channelNumber" : "0,1",
                                "effects" : [

                                ],
                                "start" : 357,
                                "duration" : 59,
                                "mediaStart" : 477,
                                "mediaDuration" : 59,
                                "scalar" : 1,
                                "animationTracks" : {

                                }
                              }
,
                          "start" : 357,
                          "duration" : 59,
                          "mediaStart" : 0,
                          "mediaDuration" : 10411,
                          "scalar" : 1,
                          "metadata" : {
                            "AutoAppliedSmartFocus" : "False",
                            "clipSpeedAttribute" : false
                          }
                        },
                        {
                          "id" : 226,
                          "_type" : "UnifiedMedia",
                          "video" : 
                              {
                                "id" : 227,
                                "_type" : "ScreenVMFile",
                                "src" : 1,
                                "trackNumber" : 0,
                                "attributes" : {
                                  "ident" : "Rec 01-28-21_001"
                                },
                                "parameters" : {
                                  "cursorScale" : {
                                    "type" : "double",
                                    "defaultValue" : 0.0,
                                    "interp" : "linr"
                                  },
                                  "cursorOpacity" : {
                                    "type" : "double",
                                    "defaultValue" : 0.0,
                                    "interp" : "linr"
                                  }
                                },
                                "effects" : [

                                ],
                                "start" : 416,
                                "duration" : 42,
                                "mediaStart" : 590,
                                "mediaDuration" : 42,
                                "scalar" : 1,
                                "animationTracks" : {

                                }
                              },
                          "audio" : 
                              {
                                "id" : 228,
                                "_type" : "AMFile",
                                "src" : 1,
                                "trackNumber" : 1,
                                "attributes" : {
                                  "ident" : "",
                                  "gain" : 1.0,
                                  "mixToMono" : false
                                },
                                  "channelNumber" : "0,1",
                                "effects" : [

                                ],
                                "start" : 416,
                                "duration" : 42,
                                "mediaStart" : 590,
                                "mediaDuration" : 42,
                                "scalar" : 1,
                                "animationTracks" : {

                                }
                              }
,
                          "start" : 416,
                          "duration" : 42,
                          "mediaStart" : 0,
                          "mediaDuration" : 10411,
                          "scalar" : 1,
                          "metadata" : {
                            "AutoAppliedSmartFocus" : "False",
                            "clipSpeedAttribute" : false
                          }
                        },
                        {
                          "id" : 229,
                          "_type" : "UnifiedMedia",
                          "video" : 
                              {
                                "id" : 230,
                                "_type" : "ScreenVMFile",
                                "src" : 1,
                                "trackNumber" : 0,
                                "attributes" : {
                                  "ident" : "Rec 01-28-21_001"
                                },
                                "parameters" : {
                                  "cursorScale" : {
                                    "type" : "double",
                                    "defaultValue" : 0.0,
                                    "interp" : "linr"
                                  },
                                  "cursorOpacity" : {
                                    "type" : "double",
                                    "defaultValue" : 0.0,
                                    "interp" : "linr"
                                  }
                                },
                                "effects" : [

                                ],
                                "start" : 458,
                                "duration" : 22,
                                "mediaStart" : 646,
                                "mediaDuration" : 22,
                                "scalar" : 1,
                                "animationTracks" : {

                                }
                              },
                          "audio" : 
                              {
                                "id" : 231,
                                "_type" : "AMFile",
                                "src" : 1,
                                "trackNumber" : 1,
                                "attributes" : {
                                  "ident" : "",
                                  "gain" : 1.0,
                                  "mixToMono" : false
                                },
                                  "channelNumber" : "0,1",
                                "effects" : [

                                ],
                                "start" : 458,
                                "duration" : 22,
                                "mediaStart" : 646,
                                "mediaDuration" : 22,
                                "scalar" : 1,
                                "animationTracks" : {

                                }
                              }
,
                          "start" : 458,
                          "duration" : 22,
                          "mediaStart" : 0,
                          "mediaDuration" : 10411,
                          "scalar" : 1,
                          "metadata" : {
                            "AutoAppliedSmartFocus" : "False",
                            "clipSpeedAttribute" : false
                          }
                        },
                        {
                          "id" : 232,
                          "_type" : "UnifiedMedia",
                          "video" : 
                              {
                                "id" : 233,
                                "_type" : "ScreenVMFile",
                                "src" : 1,
                                "trackNumber" : 0,
                                "attributes" : {
                                  "ident" : "Rec 01-28-21_001"
                                },
                                "parameters" : {
                                  "cursorScale" : {
                                    "type" : "double",
                                    "defaultValue" : 0.0,
                                    "interp" : "linr"
                                  },
                                  "cursorOpacity" : {
                                    "type" : "double",
                                    "defaultValue" : 0.0,
                                    "interp" : "linr"
                                  }
                                },
                                "effects" : [

                                ],
                                "start" : 480,
                                "duration" : 115,
                                "mediaStart" : 762,
                                "mediaDuration" : 115,
                                "scalar" : 1,
                                "animationTracks" : {

                                }
                              },
                          "audio" : 
                              {
                                "id" : 234,
                                "_type" : "AMFile",
                                "src" : 1,
                                "trackNumber" : 1,
                                "attributes" : {
                                  "ident" : "",
                                  "gain" : 1.0,
                                  "mixToMono" : false
                                },
                                  "channelNumber" : "0,1",
                                "effects" : [

                                ],
                                "start" : 480,
                                "duration" : 115,
                                "mediaStart" : 762,
                                "mediaDuration" : 115,
                                "scalar" : 1,
                                "animationTracks" : {

                                }
                              }
,
                          "start" : 480,
                          "duration" : 115,
                          "mediaStart" : 0,
                          "mediaDuration" : 10411,
                          "scalar" : 1,
                          "metadata" : {
                            "AutoAppliedSmartFocus" : "False",
                            "clipSpeedAttribute" : false
                          }
                        },
                        {
                          "id" : 235,
                          "_type" : "UnifiedMedia",
                          "video" : 
                              {
                                "id" : 236,
                                "_type" : "ScreenVMFile",
                                "src" : 1,
                                "trackNumber" : 0,
                                "attributes" : {
                                  "ident" : "Rec 01-28-21_001"
                                },
                                "parameters" : {
                                  "cursorScale" : {
                                    "type" : "double",
                                    "defaultValue" : 0.0,
                                    "interp" : "linr"
                                  },
                                  "cursorOpacity" : {
                                    "type" : "double",
                                    "defaultValue" : 0.0,
                                    "interp" : "linr"
                                  }
                                },
                                "effects" : [

                                ],
                                "start" : 595,
                                "duration" : 154,
                                "mediaStart" : 1024,
                                "mediaDuration" : 154,
                                "scalar" : 1,
                                "animationTracks" : {

                                }
                              },
                          "audio" : 
                              {
                                "id" : 237,
                                "_type" : "AMFile",
                                "src" : 1,
                                "trackNumber" : 1,
                                "attributes" : {
                                  "ident" : "",
                                  "gain" : 1.0,
                                  "mixToMono" : false
                                },
                                  "channelNumber" : "0,1",
                                "effects" : [

                                ],
                                "start" : 595,
                                "duration" : 154,
                                "mediaStart" : 1024,
                                "mediaDuration" : 154,
                                "scalar" : 1,
                                "animationTracks" : {

                                }
                              }
,
                          "start" : 595,
                          "duration" : 154,
                          "mediaStart" : 0,
                          "mediaDuration" : 10411,
                          "scalar" : 1,
                          "metadata" : {
                            "AutoAppliedSmartFocus" : "False",
                            "clipSpeedAttribute" : false
                          }
                        },
                        {
                          "id" : 238,
                          "_type" : "UnifiedMedia",
                          "video" : 
                              {
                                "id" : 239,
                                "_type" : "ScreenVMFile",
                                "src" : 1,
                                "trackNumber" : 0,
                                "attributes" : {
                                  "ident" : "Rec 01-28-21_001"
                                },
                                "parameters" : {
                                  "cursorScale" : {
                                    "type" : "double",
                                    "defaultValue" : 0.0,
                                    "interp" : "linr"
                                  },
                                  "cursorOpacity" : {
                                    "type" : "double",
                                    "defaultValue" : 0.0,
                                    "interp" : "linr"
                                  }
                                },
                                "effects" : [

                                ],
                                "start" : 749,
                                "duration" : 135,
                                "mediaStart" : 1207,
                                "mediaDuration" : 135,
                                "scalar" : 1,
                                "animationTracks" : {

                                }
                              },
                          "audio" : 
                              {
                                "id" : 240,
                                "_type" : "AMFile",
                                "src" : 1,
                                "trackNumber" : 1,
                                "attributes" : {
                                  "ident" : "",
                                  "gain" : 1.0,
                                  "mixToMono" : false
                                },
                                  "channelNumber" : "0,1",
                                "effects" : [

                                ],
                                "start" : 749,
                                "duration" : 135,
                                "mediaStart" : 1207,
                                "mediaDuration" : 135,
                                "scalar" : 1,
                                "animationTracks" : {

                                }
                              }
,
                          "start" : 749,
                          "duration" : 135,
                          "mediaStart" : 0,
                          "mediaDuration" : 10411,
                          "scalar" : 1,
                          "metadata" : {
                            "AutoAppliedSmartFocus" : "False",
                            "clipSpeedAttribute" : false
                          }
                        },
                        {
                          "id" : 241,
                          "_type" : "UnifiedMedia",
                          "video" : 
                              {
                                "id" : 242,
                                "_type" : "ScreenVMFile",
                                "src" : 1,
                                "trackNumber" : 0,
                                "attributes" : {
                                  "ident" : "Rec 01-28-21_001"
                                },
                                "parameters" : {
                                  "cursorScale" : {
                                    "type" : "double",
                                    "defaultValue" : 0.0,
                                    "interp" : "linr"
                                  },
                                  "cursorOpacity" : {
                                    "type" : "double",
                                    "defaultValue" : 0.0,
                                    "interp" : "linr"
                                  }
                                },
                                "effects" : [

                                ],
                                "start" : 884,
                                "duration" : 150,
                                "mediaStart" : 1383,
                                "mediaDuration" : 150,
                                "scalar" : 1,
                                "animationTracks" : {

                                }
                              },
                          "audio" : 
                              {
                                "id" : 243,
                                "_type" : "AMFile",
                                "src" : 1,
                                "trackNumber" : 1,
                                "attributes" : {
                                  "ident" : "",
                                  "gain" : 1.0,
                                  "mixToMono" : false
                                },
                                  "channelNumber" : "0,1",
                                "effects" : [

                                ],
                                "start" : 884,
                                "duration" : 150,
                                "mediaStart" : 1383,
                                "mediaDuration" : 150,
                                "scalar" : 1,
                                "animationTracks" : {

                                }
                              }
,
                          "start" : 884,
                          "duration" : 150,
                          "mediaStart" : 0,
                          "mediaDuration" : 10411,
                          "scalar" : 1,
                          "metadata" : {
                            "AutoAppliedSmartFocus" : "False",
                            "clipSpeedAttribute" : false
                          }
                        },
                        {
                          "id" : 244,
                          "_type" : "UnifiedMedia",
                          "video" : 
                              {
                                "id" : 245,
                                "_type" : "ScreenVMFile",
                                "src" : 1,
                                "trackNumber" : 0,
                                "attributes" : {
                                  "ident" : "Rec 01-28-21_001"
                                },
                                "parameters" : {
                                  "cursorScale" : {
                                    "type" : "double",
                                    "defaultValue" : 0.0,
                                    "interp" : "linr"
                                  },
                                  "cursorOpacity" : {
                                    "type" : "double",
                                    "defaultValue" : 0.0,
                                    "interp" : "linr"
                                  }
                                },
                                "effects" : [

                                ],
                                "start" : 1034,
                                "duration" : 89,
                                "mediaStart" : 1607,
                                "mediaDuration" : 89,
                                "scalar" : 1,
                                "animationTracks" : {

                                }
                              },
                          "audio" : 
                              {
                                "id" : 246,
                                "_type" : "AMFile",
                                "src" : 1,
                                "trackNumber" : 1,
                                "attributes" : {
                                  "ident" : "",
                                  "gain" : 1.0,
                                  "mixToMono" : false
                                },
                                  "channelNumber" : "0,1",
                                "effects" : [

                                ],
                                "start" : 1034,
                                "duration" : 89,
                                "mediaStart" : 1607,
                                "mediaDuration" : 89,
                                "scalar" : 1,
                                "animationTracks" : {

                                }
                              }
,
                          "start" : 1034,
                          "duration" : 89,
                          "mediaStart" : 0,
                          "mediaDuration" : 10411,
                          "scalar" : 1,
                          "metadata" : {
                            "AutoAppliedSmartFocus" : "False",
                            "clipSpeedAttribute" : false
                          }
                        },
                        {
                          "id" : 247,
                          "_type" : "UnifiedMedia",
                          "video" : 
                              {
                                "id" : 248,
                                "_type" : "ScreenVMFile",
                                "src" : 1,
                                "trackNumber" : 0,
                                "attributes" : {
                                  "ident" : "Rec 01-28-21_001"
                                },
                                "parameters" : {
                                  "cursorScale" : {
                                    "type" : "double",
                                    "defaultValue" : 0.0,
                                    "interp" : "linr"
                                  },
                                  "cursorOpacity" : {
                                    "type" : "double",
                                    "defaultValue" : 0.0,
                                    "interp" : "linr"
                                  }
                                },
                                "effects" : [

                                ],
                                "start" : 1123,
                                "duration" : 37,
                                "mediaStart" : 1752,
                                "mediaDuration" : 37,
                                "scalar" : 1,
                                "animationTracks" : {

                                }
                              },
                          "audio" : 
                              {
                                "id" : 249,
                                "_type" : "AMFile",
                                "src" : 1,
                                "trackNumber" : 1,
                                "attributes" : {
                                  "ident" : "",
                                  "gain" : 1.0,
                                  "mixToMono" : false
                                },
                                  "channelNumber" : "0,1",
                                "effects" : [

                                ],
                                "start" : 1123,
                                "duration" : 37,
                                "mediaStart" : 1752,
                                "mediaDuration" : 37,
                                "scalar" : 1,
                                "animationTracks" : {

                                }
                              }
,
                          "start" : 1123,
                          "duration" : 37,
                          "mediaStart" : 0,
                          "mediaDuration" : 10411,
                          "scalar" : 1,
                          "metadata" : {
                            "AutoAppliedSmartFocus" : "False",
                            "clipSpeedAttribute" : false
                          }
                        },
                        {
                          "id" : 250,
                          "_type" : "UnifiedMedia",
                          "video" : 
                              {
                                "id" : 251,
                                "_type" : "ScreenVMFile",
                                "src" : 1,
                                "trackNumber" : 0,
                                "attributes" : {
                                  "ident" : "Rec 01-28-21_001"
                                },
                                "parameters" : {
                                  "cursorScale" : {
                                    "type" : "double",
                                    "defaultValue" : 0.0,
                                    "interp" : "linr"
                                  },
                                  "cursorOpacity" : {
                                    "type" : "double",
                                    "defaultValue" : 0.0,
                                    "interp" : "linr"
                                  }
                                },
                                "effects" : [

                                ],
                                "start" : 1160,
                                "duration" : 34,
                                "mediaStart" : 1836,
                                "mediaDuration" : 34,
                                "scalar" : 1,
                                "animationTracks" : {

                                }
                              },
                          "audio" : 
                              {
                                "id" : 252,
                                "_type" : "AMFile",
                                "src" : 1,
                                "trackNumber" : 1,
                                "attributes" : {
                                  "ident" : "",
                                  "gain" : 1.0,
                                  "mixToMono" : false
                                },
                                  "channelNumber" : "0,1",
                                "effects" : [

                                ],
                                "start" : 1160,
                                "duration" : 34,
                                "mediaStart" : 1836,
                                "mediaDuration" : 34,
                                "scalar" : 1,
                                "animationTracks" : {

                                }
                              }
,
                          "start" : 1160,
                          "duration" : 34,
                          "mediaStart" : 0,
                          "mediaDuration" : 10411,
                          "scalar" : 1,
                          "metadata" : {
                            "AutoAppliedSmartFocus" : "False",
                            "clipSpeedAttribute" : false
                          }
                        },
                        {
                          "id" : 253,
                          "_type" : "UnifiedMedia",
                          "video" : 
                              {
                                "id" : 254,
                                "_type" : "ScreenVMFile",
                                "src" : 1,
                                "trackNumber" : 0,
                                "attributes" : {
                                  "ident" : "Rec 01-28-21_001"
                                },
                                "parameters" : {
                                  "cursorScale" : {
                                    "type" : "double",
                                    "defaultValue" : 0.0,
                                    "interp" : "linr"
                                  },
                                  "cursorOpacity" : {
                                    "type" : "double",
                                    "defaultValue" : 0.0,
                                    "interp" : "linr"
                                  }
                                },
                                "effects" : [

                                ],
                                "start" : 1194,
                                "duration" : 41,
                                "mediaStart" : 1882,
                                "mediaDuration" : 41,
                                "scalar" : 1,
                                "animationTracks" : {

                                }
                              },
                          "audio" : 
                              {
                                "id" : 255,
                                "_type" : "AMFile",
                                "src" : 1,
                                "trackNumber" : 1,
                                "attributes" : {
                                  "ident" : "",
                                  "gain" : 1.0,
                                  "mixToMono" : false
                                },
                                  "channelNumber" : "0,1",
                                "effects" : [

                                ],
                                "start" : 1194,
                                "duration" : 41,
                                "mediaStart" : 1882,
                                "mediaDuration" : 41,
                                "scalar" : 1,
                                "animationTracks" : {

                                }
                              }
,
                          "start" : 1194,
                          "duration" : 41,
                          "mediaStart" : 0,
                          "mediaDuration" : 10411,
                          "scalar" : 1,
                          "metadata" : {
                            "AutoAppliedSmartFocus" : "False",
                            "clipSpeedAttribute" : false
                          }
                        },
                        {
                          "id" : 256,
                          "_type" : "UnifiedMedia",
                          "video" : 
                              {
                                "id" : 257,
                                "_type" : "ScreenVMFile",
                                "src" : 1,
                                "trackNumber" : 0,
                                "attributes" : {
                                  "ident" : "Rec 01-28-21_001"
                                },
                                "parameters" : {
                                  "cursorScale" : {
                                    "type" : "double",
                                    "defaultValue" : 0.0,
                                    "interp" : "linr"
                                  },
                                  "cursorOpacity" : {
                                    "type" : "double",
                                    "defaultValue" : 0.0,
                                    "interp" : "linr"
                                  }
                                },
                                "effects" : [

                                ],
                                "start" : 1235,
                                "duration" : 41,
                                "mediaStart" : 1948,
                                "mediaDuration" : 41,
                                "scalar" : 1,
                                "animationTracks" : {

                                }
                              },
                          "audio" : 
                              {
                                "id" : 258,
                                "_type" : "AMFile",
                                "src" : 1,
                                "trackNumber" : 1,
                                "attributes" : {
                                  "ident" : "",
                                  "gain" : 1.0,
                                  "mixToMono" : false
                                },
                                  "channelNumber" : "0,1",
                                "effects" : [

                                ],
                                "start" : 1235,
                                "duration" : 41,
                                "mediaStart" : 1948,
                                "mediaDuration" : 41,
                                "scalar" : 1,
                                "animationTracks" : {

                                }
                              }
,
                          "start" : 1235,
                          "duration" : 41,
                          "mediaStart" : 0,
                          "mediaDuration" : 10411,
                          "scalar" : 1,
                          "metadata" : {
                            "AutoAppliedSmartFocus" : "False",
                            "clipSpeedAttribute" : false
                          }
                        },
                        {
                          "id" : 259,
                          "_type" : "UnifiedMedia",
                          "video" : 
                              {
                                "id" : 260,
                                "_type" : "ScreenVMFile",
                                "src" : 1,
                                "trackNumber" : 0,
                                "attributes" : {
                                  "ident" : "Rec 01-28-21_001"
                                },
                                "parameters" : {
                                  "cursorScale" : {
                                    "type" : "double",
                                    "defaultValue" : 0.0,
                                    "interp" : "linr"
                                  },
                                  "cursorOpacity" : {
                                    "type" : "double",
                                    "defaultValue" : 0.0,
                                    "interp" : "linr"
                                  }
                                },
                                "effects" : [

                                ],
                                "start" : 1276,
                                "duration" : 55,
                                "mediaStart" : 2015,
                                "mediaDuration" : 55,
                                "scalar" : 1,
                                "animationTracks" : {

                                }
                              },
                          "audio" : 
                              {
                                "id" : 261,
                                "_type" : "AMFile",
                                "src" : 1,
                                "trackNumber" : 1,
                                "attributes" : {
                                  "ident" : "",
                                  "gain" : 1.0,
                                  "mixToMono" : false
                                },
                                  "channelNumber" : "0,1",
                                "effects" : [

                                ],
                                "start" : 1276,
                                "duration" : 55,
                                "mediaStart" : 2015,
                                "mediaDuration" : 55,
                                "scalar" : 1,
                                "animationTracks" : {

                                }
                              }
,
                          "start" : 1276,
                          "duration" : 55,
                          "mediaStart" : 0,
                          "mediaDuration" : 10411,
                          "scalar" : 1,
                          "metadata" : {
                            "AutoAppliedSmartFocus" : "False",
                            "clipSpeedAttribute" : false
                          }
                        },
                        {
                          "id" : 262,
                          "_type" : "UnifiedMedia",
                          "video" : 
                              {
                                "id" : 263,
                                "_type" : "ScreenVMFile",
                                "src" : 1,
                                "trackNumber" : 0,
                                "attributes" : {
                                  "ident" : "Rec 01-28-21_001"
                                },
                                "parameters" : {
                                  "cursorScale" : {
                                    "type" : "double",
                                    "defaultValue" : 0.0,
                                    "interp" : "linr"
                                  },
                                  "cursorOpacity" : {
                                    "type" : "double",
                                    "defaultValue" : 0.0,
                                    "interp" : "linr"
                                  }
                                },
                                "effects" : [

                                ],
                                "start" : 1331,
                                "duration" : 42,
                                "mediaStart" : 2110,
                                "mediaDuration" : 42,
                                "scalar" : 1,
                                "animationTracks" : {

                                }
                              },
                          "audio" : 
                              {
                                "id" : 264,
                                "_type" : "AMFile",
                                "src" : 1,
                                "trackNumber" : 1,
                                "attributes" : {
                                  "ident" : "",
                                  "gain" : 1.0,
                                  "mixToMono" : false
                                },
                                  "channelNumber" : "0,1",
                                "effects" : [

                                ],
                                "start" : 1331,
                                "duration" : 42,
                                "mediaStart" : 2110,
                                "mediaDuration" : 42,
                                "scalar" : 1,
                                "animationTracks" : {

                                }
                              }
,
                          "start" : 1331,
                          "duration" : 42,
                          "mediaStart" : 0,
                          "mediaDuration" : 10411,
                          "scalar" : 1,
                          "metadata" : {
                            "AutoAppliedSmartFocus" : "False",
                            "clipSpeedAttribute" : false
                          }
                        },
                        {
                          "id" : 265,
                          "_type" : "UnifiedMedia",
                          "video" : 
                              {
                                "id" : 266,
                                "_type" : "ScreenVMFile",
                                "src" : 1,
                                "trackNumber" : 0,
                                "attributes" : {
                                  "ident" : "Rec 01-28-21_001"
                                },
                                "parameters" : {
                                  "cursorScale" : {
                                    "type" : "double",
                                    "defaultValue" : 0.0,
                                    "interp" : "linr"
                                  },
                                  "cursorOpacity" : {
                                    "type" : "double",
                                    "defaultValue" : 0.0,
                                    "interp" : "linr"
                                  }
                                },
                                "effects" : [

                                ],
                                "start" : 1373,
                                "duration" : 23,
                                "mediaStart" : 2250,
                                "mediaDuration" : 23,
                                "scalar" : 1,
                                "animationTracks" : {

                                }
                              },
                          "audio" : 
                              {
                                "id" : 267,
                                "_type" : "AMFile",
                                "src" : 1,
                                "trackNumber" : 1,
                                "attributes" : {
                                  "ident" : "",
                                  "gain" : 1.0,
                                  "mixToMono" : false
                                },
                                  "channelNumber" : "0,1",
                                "effects" : [

                                ],
                                "start" : 1373,
                                "duration" : 23,
                                "mediaStart" : 2250,
                                "mediaDuration" : 23,
                                "scalar" : 1,
                                "animationTracks" : {

                                }
                              }
,
                          "start" : 1373,
                          "duration" : 23,
                          "mediaStart" : 0,
                          "mediaDuration" : 10411,
                          "scalar" : 1,
                          "metadata" : {
                            "AutoAppliedSmartFocus" : "False",
                            "clipSpeedAttribute" : false
                          }
                        },
                        {
                          "id" : 268,
                          "_type" : "UnifiedMedia",
                          "video" : 
                              {
                                "id" : 269,
                                "_type" : "ScreenVMFile",
                                "src" : 1,
                                "trackNumber" : 0,
                                "attributes" : {
                                  "ident" : "Rec 01-28-21_001"
                                },
                                "parameters" : {
                                  "cursorScale" : {
                                    "type" : "double",
                                    "defaultValue" : 0.0,
                                    "interp" : "linr"
                                  },
                                  "cursorOpacity" : {
                                    "type" : "double",
                                    "defaultValue" : 0.0,
                                    "interp" : "linr"
                                  }
                                },
                                "effects" : [

                                ],
                                "start" : 1396,
                                "duration" : 79,
                                "mediaStart" : 2299,
                                "mediaDuration" : 79,
                                "scalar" : 1,
                                "animationTracks" : {

                                }
                              },
                          "audio" : 
                              {
                                "id" : 270,
                                "_type" : "AMFile",
                                "src" : 1,
                                "trackNumber" : 1,
                                "attributes" : {
                                  "ident" : "",
                                  "gain" : 1.0,
                                  "mixToMono" : false
                                },
                                  "channelNumber" : "0,1",
                                "effects" : [

                                ],
                                "start" : 1396,
                                "duration" : 79,
                                "mediaStart" : 2299,
                                "mediaDuration" : 79,
                                "scalar" : 1,
                                "animationTracks" : {

                                }
                              }
,
                          "start" : 1396,
                          "duration" : 79,
                          "mediaStart" : 0,
                          "mediaDuration" : 10411,
                          "scalar" : 1,
                          "metadata" : {
                            "AutoAppliedSmartFocus" : "False",
                            "clipSpeedAttribute" : false
                          }
                        },
                        {
                          "id" : 271,
                          "_type" : "UnifiedMedia",
                          "video" : 
                              {
                                "id" : 272,
                                "_type" : "ScreenVMFile",
                                "src" : 1,
                                "trackNumber" : 0,
                                "attributes" : {
                                  "ident" : "Rec 01-28-21_001"
                                },
                                "parameters" : {
                                  "cursorScale" : {
                                    "type" : "double",
                                    "defaultValue" : 0.0,
                                    "interp" : "linr"
                                  },
                                  "cursorOpacity" : {
                                    "type" : "double",
                                    "defaultValue" : 0.0,
                                    "interp" : "linr"
                                  }
                                },
                                "effects" : [

                                ],
                                "start" : 1475,
                                "duration" : 64,
                                "mediaStart" : 2409,
                                "mediaDuration" : 64,
                                "scalar" : 1,
                                "animationTracks" : {

                                }
                              },
                          "audio" : 
                              {
                                "id" : 273,
                                "_type" : "AMFile",
                                "src" : 1,
                                "trackNumber" : 1,
                                "attributes" : {
                                  "ident" : "",
                                  "gain" : 1.0,
                                  "mixToMono" : false
                                },
                                  "channelNumber" : "0,1",
                                "effects" : [

                                ],
                                "start" : 1475,
                                "duration" : 64,
                                "mediaStart" : 2409,
                                "mediaDuration" : 64,
                                "scalar" : 1,
                                "animationTracks" : {

                                }
                              }
,
                          "start" : 1475,
                          "duration" : 64,
                          "mediaStart" : 0,
                          "mediaDuration" : 10411,
                          "scalar" : 1,
                          "metadata" : {
                            "AutoAppliedSmartFocus" : "False",
                            "clipSpeedAttribute" : false
                          }
                        },
                        {
                          "id" : 274,
                          "_type" : "UnifiedMedia",
                          "video" : 
                              {
                                "id" : 275,
                                "_type" : "ScreenVMFile",
                                "src" : 1,
                                "trackNumber" : 0,
                                "attributes" : {
                                  "ident" : "Rec 01-28-21_001"
                                },
                                "parameters" : {
                                  "cursorScale" : {
                                    "type" : "double",
                                    "defaultValue" : 0.0,
                                    "interp" : "linr"
                                  },
                                  "cursorOpacity" : {
                                    "type" : "double",
                                    "defaultValue" : 0.0,
                                    "interp" : "linr"
                                  }
                                },
                                "effects" : [

                                ],
                                "start" : 1539,
                                "duration" : 43,
                                "mediaStart" : 2478,
                                "mediaDuration" : 43,
                                "scalar" : 1,
                                "animationTracks" : {

                                }
                              },
                          "audio" : 
                              {
                                "id" : 276,
                                "_type" : "AMFile",
                                "src" : 1,
                                "trackNumber" : 1,
                                "attributes" : {
                                  "ident" : "",
                                  "gain" : 1.0,
                                  "mixToMono" : false
                                },
                                  "channelNumber" : "0,1",
                                "effects" : [

                                ],
                                "start" : 1539,
                                "duration" : 43,
                                "mediaStart" : 2478,
                                "mediaDuration" : 43,
                                "scalar" : 1,
                                "animationTracks" : {

                                }
                              }
,
                          "start" : 1539,
                          "duration" : 43,
                          "mediaStart" : 0,
                          "mediaDuration" : 10411,
                          "scalar" : 1,
                          "metadata" : {
                            "AutoAppliedSmartFocus" : "False",
                            "clipSpeedAttribute" : false
                          }
                        },
                        {
                          "id" : 277,
                          "_type" : "UnifiedMedia",
                          "video" : 
                              {
                                "id" : 278,
                                "_type" : "ScreenVMFile",
                                "src" : 1,
                                "trackNumber" : 0,
                                "attributes" : {
                                  "ident" : "Rec 01-28-21_001"
                                },
                                "parameters" : {
                                  "cursorScale" : {
                                    "type" : "double",
                                    "defaultValue" : 0.0,
                                    "interp" : "linr"
                                  },
                                  "cursorOpacity" : {
                                    "type" : "double",
                                    "defaultValue" : 0.0,
                                    "interp" : "linr"
                                  }
                                },
                                "effects" : [

                                ],
                                "start" : 1582,
                                "duration" : 47,
                                "mediaStart" : 2538,
                                "mediaDuration" : 47,
                                "scalar" : 1,
                                "animationTracks" : {

                                }
                              },
                          "audio" : 
                              {
                                "id" : 279,
                                "_type" : "AMFile",
                                "src" : 1,
                                "trackNumber" : 1,
                                "attributes" : {
                                  "ident" : "",
                                  "gain" : 1.0,
                                  "mixToMono" : false
                                },
                                  "channelNumber" : "0,1",
                                "effects" : [

                                ],
                                "start" : 1582,
                                "duration" : 47,
                                "mediaStart" : 2538,
                                "mediaDuration" : 47,
                                "scalar" : 1,
                                "animationTracks" : {

                                }
                              }
,
                          "start" : 1582,
                          "duration" : 47,
                          "mediaStart" : 0,
                          "mediaDuration" : 10411,
                          "scalar" : 1,
                          "metadata" : {
                            "AutoAppliedSmartFocus" : "False",
                            "clipSpeedAttribute" : false
                          }
                        },
                        {
                          "id" : 280,
                          "_type" : "UnifiedMedia",
                          "video" : 
                              {
                                "id" : 281,
                                "_type" : "ScreenVMFile",
                                "src" : 1,
                                "trackNumber" : 0,
                                "attributes" : {
                                  "ident" : "Rec 01-28-21_001"
                                },
                                "parameters" : {
                                  "cursorScale" : {
                                    "type" : "double",
                                    "defaultValue" : 0.0,
                                    "interp" : "linr"
                                  },
                                  "cursorOpacity" : {
                                    "type" : "double",
                                    "defaultValue" : 0.0,
                                    "interp" : "linr"
                                  }
                                },
                                "effects" : [

                                ],
                                "start" : 1629,
                                "duration" : 299,
                                "mediaStart" : 2613,
                                "mediaDuration" : 299,
                                "scalar" : 1,
                                "animationTracks" : {

                                }
                              },
                          "audio" : 
                              {
                                "id" : 282,
                                "_type" : "AMFile",
                                "src" : 1,
                                "trackNumber" : 1,
                                "attributes" : {
                                  "ident" : "",
                                  "gain" : 1.0,
                                  "mixToMono" : false
                                },
                                  "channelNumber" : "0,1",
                                "effects" : [

                                ],
                                "start" : 1629,
                                "duration" : 299,
                                "mediaStart" : 2613,
                                "mediaDuration" : 299,
                                "scalar" : 1,
                                "animationTracks" : {

                                }
                              }
,
                          "start" : 1629,
                          "duration" : 299,
                          "mediaStart" : 0,
                          "mediaDuration" : 10411,
                          "scalar" : 1,
                          "metadata" : {
                            "AutoAppliedSmartFocus" : "False",
                            "clipSpeedAttribute" : false
                          }
                        },
                        {
                          "id" : 283,
                          "_type" : "UnifiedMedia",
                          "video" : 
                              {
                                "id" : 284,
                                "_type" : "ScreenVMFile",
                                "src" : 1,
                                "trackNumber" : 0,
                                "attributes" : {
                                  "ident" : "Rec 01-28-21_001"
                                },
                                "parameters" : {
                                  "cursorScale" : {
                                    "type" : "double",
                                    "defaultValue" : 0.0,
                                    "interp" : "linr"
                                  },
                                  "cursorOpacity" : {
                                    "type" : "double",
                                    "defaultValue" : 0.0,
                                    "interp" : "linr"
                                  }
                                },
                                "effects" : [

                                ],
                                "start" : 1928,
                                "duration" : 53,
                                "mediaStart" : 3209,
                                "mediaDuration" : 53,
                                "scalar" : 1,
                                "animationTracks" : {

                                }
                              },
                          "audio" : 
                              {
                                "id" : 285,
                                "_type" : "AMFile",
                                "src" : 1,
                                "trackNumber" : 1,
                                "attributes" : {
                                  "ident" : "",
                                  "gain" : 1.0,
                                  "mixToMono" : false
                                },
                                  "channelNumber" : "0,1",
                                "effects" : [

                                ],
                                "start" : 1928,
                                "duration" : 53,
                                "mediaStart" : 3209,
                                "mediaDuration" : 53,
                                "scalar" : 1,
                                "animationTracks" : {

                                }
                              }
,
                          "start" : 1928,
                          "duration" : 53,
                          "mediaStart" : 0,
                          "mediaDuration" : 10411,
                          "scalar" : 1,
                          "metadata" : {
                            "AutoAppliedSmartFocus" : "False",
                            "clipSpeedAttribute" : false
                          }
                        },
                        {
                          "id" : 286,
                          "_type" : "UnifiedMedia",
                          "video" : 
                              {
                                "id" : 287,
                                "_type" : "ScreenVMFile",
                                "src" : 1,
                                "trackNumber" : 0,
                                "attributes" : {
                                  "ident" : "Rec 01-28-21_001"
                                },
                                "parameters" : {
                                  "cursorScale" : {
                                    "type" : "double",
                                    "defaultValue" : 0.0,
                                    "interp" : "linr"
                                  },
                                  "cursorOpacity" : {
                                    "type" : "double",
                                    "defaultValue" : 0.0,
                                    "interp" : "linr"
                                  }
                                },
                                "effects" : [

                                ],
                                "start" : 1981,
                                "duration" : 47,
                                "mediaStart" : 3282,
                                "mediaDuration" : 47,
                                "scalar" : 1,
                                "animationTracks" : {

                                }
                              },
                          "audio" : 
                              {
                                "id" : 288,
                                "_type" : "AMFile",
                                "src" : 1,
                                "trackNumber" : 1,
                                "attributes" : {
                                  "ident" : "",
                                  "gain" : 1.0,
                                  "mixToMono" : false
                                },
                                  "channelNumber" : "0,1",
                                "effects" : [

                                ],
                                "start" : 1981,
                                "duration" : 47,
                                "mediaStart" : 3282,
                                "mediaDuration" : 47,
                                "scalar" : 1,
                                "animationTracks" : {

                                }
                              }
,
                          "start" : 1981,
                          "duration" : 47,
                          "mediaStart" : 0,
                          "mediaDuration" : 10411,
                          "scalar" : 1,
                          "metadata" : {
                            "AutoAppliedSmartFocus" : "False",
                            "clipSpeedAttribute" : false
                          }
                        },
                        {
                          "id" : 289,
                          "_type" : "UnifiedMedia",
                          "video" : 
                              {
                                "id" : 290,
                                "_type" : "ScreenVMFile",
                                "src" : 1,
                                "trackNumber" : 0,
                                "attributes" : {
                                  "ident" : "Rec 01-28-21_001"
                                },
                                "parameters" : {
                                  "cursorScale" : {
                                    "type" : "double",
                                    "defaultValue" : 0.0,
                                    "interp" : "linr"
                                  },
                                  "cursorOpacity" : {
                                    "type" : "double",
                                    "defaultValue" : 0.0,
                                    "interp" : "linr"
                                  }
                                },
                                "effects" : [

                                ],
                                "start" : 2028,
                                "duration" : 103,
                                "mediaStart" : 3341,
                                "mediaDuration" : 103,
                                "scalar" : 1,
                                "animationTracks" : {

                                }
                              },
                          "audio" : 
                              {
                                "id" : 291,
                                "_type" : "AMFile",
                                "src" : 1,
                                "trackNumber" : 1,
                                "attributes" : {
                                  "ident" : "",
                                  "gain" : 1.0,
                                  "mixToMono" : false
                                },
                                  "channelNumber" : "0,1",
                                "effects" : [

                                ],
                                "start" : 2028,
                                "duration" : 103,
                                "mediaStart" : 3341,
                                "mediaDuration" : 103,
                                "scalar" : 1,
                                "animationTracks" : {

                                }
                              }
,
                          "start" : 2028,
                          "duration" : 103,
                          "mediaStart" : 0,
                          "mediaDuration" : 10411,
                          "scalar" : 1,
                          "metadata" : {
                            "AutoAppliedSmartFocus" : "False",
                            "clipSpeedAttribute" : false
                          }
                        },
                        {
                          "id" : 292,
                          "_type" : "UnifiedMedia",
                          "video" : 
                              {
                                "id" : 293,
                                "_type" : "ScreenVMFile",
                                "src" : 1,
                                "trackNumber" : 0,
                                "attributes" : {
                                  "ident" : "Rec 01-28-21_001"
                                },
                                "parameters" : {
                                  "cursorScale" : {
                                    "type" : "double",
                                    "defaultValue" : 0.0,
                                    "interp" : "linr"
                                  },
                                  "cursorOpacity" : {
                                    "type" : "double",
                                    "defaultValue" : 0.0,
                                    "interp" : "linr"
                                  }
                                },
                                "effects" : [

                                ],
                                "start" : 2131,
                                "duration" : 26,
                                "mediaStart" : 3468,
                                "mediaDuration" : 26,
                                "scalar" : 1,
                                "animationTracks" : {

                                }
                              },
                          "audio" : 
                              {
                                "id" : 294,
                                "_type" : "AMFile",
                                "src" : 1,
                                "trackNumber" : 1,
                                "attributes" : {
                                  "ident" : "",
                                  "gain" : 1.0,
                                  "mixToMono" : false
                                },
                                  "channelNumber" : "0,1",
                                "effects" : [

                                ],
                                "start" : 2131,
                                "duration" : 26,
                                "mediaStart" : 3468,
                                "mediaDuration" : 26,
                                "scalar" : 1,
                                "animationTracks" : {

                                }
                              }
,
                          "start" : 2131,
                          "duration" : 26,
                          "mediaStart" : 0,
                          "mediaDuration" : 10411,
                          "scalar" : 1,
                          "metadata" : {
                            "AutoAppliedSmartFocus" : "False",
                            "clipSpeedAttribute" : false
                          }
                        },
                        {
                          "id" : 295,
                          "_type" : "UnifiedMedia",
                          "video" : 
                              {
                                "id" : 296,
                                "_type" : "ScreenVMFile",
                                "src" : 1,
                                "trackNumber" : 0,
                                "attributes" : {
                                  "ident" : "Rec 01-28-21_001"
                                },
                                "parameters" : {
                                  "cursorScale" : {
                                    "type" : "double",
                                    "defaultValue" : 0.0,
                                    "interp" : "linr"
                                  },
                                  "cursorOpacity" : {
                                    "type" : "double",
                                    "defaultValue" : 0.0,
                                    "interp" : "linr"
                                  }
                                },
                                "effects" : [

                                ],
                                "start" : 2157,
                                "duration" : 41,
                                "mediaStart" : 3504,
                                "mediaDuration" : 41,
                                "scalar" : 1,
                                "animationTracks" : {

                                }
                              },
                          "audio" : 
                              {
                                "id" : 297,
                                "_type" : "AMFile",
                                "src" : 1,
                                "trackNumber" : 1,
                                "attributes" : {
                                  "ident" : "",
                                  "gain" : 1.0,
                                  "mixToMono" : false
                                },
                                  "channelNumber" : "0,1",
                                "effects" : [

                                ],
                                "start" : 2157,
                                "duration" : 41,
                                "mediaStart" : 3504,
                                "mediaDuration" : 41,
                                "scalar" : 1,
                                "animationTracks" : {

                                }
                              }
,
                          "start" : 2157,
                          "duration" : 41,
                          "mediaStart" : 0,
                          "mediaDuration" : 10411,
                          "scalar" : 1,
                          "metadata" : {
                            "AutoAppliedSmartFocus" : "False",
                            "clipSpeedAttribute" : false
                          }
                        },
                        {
                          "id" : 298,
                          "_type" : "UnifiedMedia",
                          "video" : 
                              {
                                "id" : 299,
                                "_type" : "ScreenVMFile",
                                "src" : 1,
                                "trackNumber" : 0,
                                "attributes" : {
                                  "ident" : "Rec 01-28-21_001"
                                },
                                "parameters" : {
                                  "cursorScale" : {
                                    "type" : "double",
                                    "defaultValue" : 0.0,
                                    "interp" : "linr"
                                  },
                                  "cursorOpacity" : {
                                    "type" : "double",
                                    "defaultValue" : 0.0,
                                    "interp" : "linr"
                                  }
                                },
                                "effects" : [

                                ],
                                "start" : 2198,
                                "duration" : 108,
                                "mediaStart" : 3657,
                                "mediaDuration" : 108,
                                "scalar" : 1,
                                "animationTracks" : {

                                }
                              },
                          "audio" : 
                              {
                                "id" : 300,
                                "_type" : "AMFile",
                                "src" : 1,
                                "trackNumber" : 1,
                                "attributes" : {
                                  "ident" : "",
                                  "gain" : 1.0,
                                  "mixToMono" : false
                                },
                                  "channelNumber" : "0,1",
                                "effects" : [

                                ],
                                "start" : 2198,
                                "duration" : 108,
                                "mediaStart" : 3657,
                                "mediaDuration" : 108,
                                "scalar" : 1,
                                "animationTracks" : {

                                }
                              }
,
                          "start" : 2198,
                          "duration" : 108,
                          "mediaStart" : 0,
                          "mediaDuration" : 10411,
                          "scalar" : 1,
                          "metadata" : {
                            "AutoAppliedSmartFocus" : "False",
                            "clipSpeedAttribute" : false
                          }
                        },
                        {
                          "id" : 301,
                          "_type" : "UnifiedMedia",
                          "video" : 
                              {
                                "id" : 302,
                                "_type" : "ScreenVMFile",
                                "src" : 1,
                                "trackNumber" : 0,
                                "attributes" : {
                                  "ident" : "Rec 01-28-21_001"
                                },
                                "parameters" : {
                                  "cursorScale" : {
                                    "type" : "double",
                                    "defaultValue" : 0.0,
                                    "interp" : "linr"
                                  },
                                  "cursorOpacity" : {
                                    "type" : "double",
                                    "defaultValue" : 0.0,
                                    "interp" : "linr"
                                  }
                                },
                                "effects" : [

                                ],
                                "start" : 2306,
                                "duration" : 124,
                                "mediaStart" : 3787,
                                "mediaDuration" : 124,
                                "scalar" : 1,
                                "animationTracks" : {

                                }
                              },
                          "audio" : 
                              {
                                "id" : 303,
                                "_type" : "AMFile",
                                "src" : 1,
                                "trackNumber" : 1,
                                "attributes" : {
                                  "ident" : "",
                                  "gain" : 1.0,
                                  "mixToMono" : false
                                },
                                  "channelNumber" : "0,1",
                                "effects" : [

                                ],
                                "start" : 2306,
                                "duration" : 124,
                                "mediaStart" : 3787,
                                "mediaDuration" : 124,
                                "scalar" : 1,
                                "animationTracks" : {

                                }
                              }
,
                          "start" : 2306,
                          "duration" : 124,
                          "mediaStart" : 0,
                          "mediaDuration" : 10411,
                          "scalar" : 1,
                          "metadata" : {
                            "AutoAppliedSmartFocus" : "False",
                            "clipSpeedAttribute" : false
                          }
                        },
                        {
                          "id" : 304,
                          "_type" : "UnifiedMedia",
                          "video" : 
                              {
                                "id" : 305,
                                "_type" : "ScreenVMFile",
                                "src" : 1,
                                "trackNumber" : 0,
                                "attributes" : {
                                  "ident" : "Rec 01-28-21_001"
                                },
                                "parameters" : {
                                  "cursorScale" : {
                                    "type" : "double",
                                    "defaultValue" : 0.0,
                                    "interp" : "linr"
                                  },
                                  "cursorOpacity" : {
                                    "type" : "double",
                                    "defaultValue" : 0.0,
                                    "interp" : "linr"
                                  }
                                },
                                "effects" : [

                                ],
                                "start" : 2430,
                                "duration" : 6420,
                                "mediaStart" : 3991,
                                "mediaDuration" : 6420,
                                "scalar" : 1,
                                "animationTracks" : {

                                }
                              },
                          "audio" : 
                              {
                                "id" : 306,
                                "_type" : "AMFile",
                                "src" : 1,
                                "trackNumber" : 1,
                                "attributes" : {
                                  "ident" : "",
                                  "gain" : 1.0,
                                  "mixToMono" : false
                                },
                                  "channelNumber" : "0,1",
                                "effects" : [

                                ],
                                "start" : 2430,
                                "duration" : 6420,
                                "mediaStart" : 3991,
                                "mediaDuration" : 6420,
                                "scalar" : 1,
                                "animationTracks" : {

                                }
                              }
,
                          "start" : 2430,
                          "duration" : 6420,
                          "mediaStart" : 0,
                          "mediaDuration" : 10411,
                          "scalar" : 1,
                          "metadata" : {
                            "AutoAppliedSmartFocus" : "False",
                            "clipSpeedAttribute" : false
                          }
                        }
                    ],
                    "effects" : [

                    ],
                    "start" : 1729,
                    "duration" : 578,
                    "mediaStart" : 1848,
                    "mediaDuration" : 578,
                    "scalar" : 1,
                    "metadata" : {
                      "AutoAppliedSmartFocus" : "False",
                      "clipSpeedAttribute" : false
                    },
                    "animationTracks" : {

                    }
                  },
                  {
                    "id" : 307,
                    "_type" : "Group",
                    "parameters" : {
                      "volume" : 1.0
                    },
                    "tracks" : [
                      {
                        "trackIndex" : 0,
                        "medias" : [
                          {
                            "id" : 308,
                            "_type" : "StitchedMedia",
                            "minMediaStart" : 0,
                            "attributes" : {
                              "ident" : "Rec 01-28-21_001",
                              "gain" : 1.0,
                              "mixToMono" : false
                            },
                            "parameters" : {
                              "cursorOpacity" : 1.0,
                              "cursorScale" : 1.0
                            },
                            "medias" : [
                                {
                                  "id" : 309,
                                  "_type" : "ScreenVMFile",
                                  "src" : 1,
                                  "trackNumber" : 0,
                                  "attributes" : {
                                    "ident" : "Rec 01-28-21_001"
                                  },
                                  "parameters" : {
                                    "cursorScale" : {
                                      "type" : "double",
                                      "defaultValue" : 0.0,
                                      "interp" : "linr"
                                    },
                                    "cursorOpacity" : {
                                      "type" : "double",
                                      "defaultValue" : 0.0,
                                      "interp" : "linr"
                                    }
                                  },
                                  "effects" : [

                                  ],
                                  "start" : 0,
                                  "duration" : 18,
                                  "mediaStart" : 0,
                                  "mediaDuration" : 18,
                                  "scalar" : 1,
                                  "metadata" : {
                                    "AutoAppliedSmartFocus" : "False"
                                  },
                                  "animationTracks" : {

                                  }
                                },
                                {
                                  "id" : 310,
                                  "_type" : "ScreenVMFile",
                                  "src" : 1,
                                  "trackNumber" : 0,
                                  "attributes" : {
                                    "ident" : "Rec 01-28-21_001"
                                  },
                                  "parameters" : {
                                    "cursorScale" : {
                                      "type" : "double",
                                      "defaultValue" : 0.0,
                                      "interp" : "linr"
                                    },
                                    "cursorOpacity" : {
                                      "type" : "double",
                                      "defaultValue" : 0.0,
                                      "interp" : "linr"
                                    }
                                  },
                                  "effects" : [

                                  ],
                                  "start" : 18,
                                  "duration" : 286,
                                  "mediaStart" : 55,
                                  "mediaDuration" : 286,
                                  "scalar" : 1,
                                  "metadata" : {
                                    "AutoAppliedSmartFocus" : "False"
                                  },
                                  "animationTracks" : {

                                  }
                                },
                                {
                                  "id" : 311,
                                  "_type" : "ScreenVMFile",
                                  "src" : 1,
                                  "trackNumber" : 0,
                                  "attributes" : {
                                    "ident" : "Rec 01-28-21_001"
                                  },
                                  "parameters" : {
                                    "cursorScale" : {
                                      "type" : "double",
                                      "defaultValue" : 0.0,
                                      "interp" : "linr"
                                    },
                                    "cursorOpacity" : {
                                      "type" : "double",
                                      "defaultValue" : 0.0,
                                      "interp" : "linr"
                                    }
                                  },
                                  "effects" : [

                                  ],
                                  "start" : 304,
                                  "duration" : 53,
                                  "mediaStart" : 367,
                                  "mediaDuration" : 53,
                                  "scalar" : 1,
                                  "metadata" : {
                                    "AutoAppliedSmartFocus" : "False"
                                  },
                                  "animationTracks" : {

                                  }
                                },
                                {
                                  "id" : 312,
                                  "_type" : "ScreenVMFile",
                                  "src" : 1,
                                  "trackNumber" : 0,
                                  "attributes" : {
                                    "ident" : "Rec 01-28-21_001"
                                  },
                                  "parameters" : {
                                    "cursorScale" : {
                                      "type" : "double",
                                      "defaultValue" : 0.0,
                                      "interp" : "linr"
                                    },
                                    "cursorOpacity" : {
                                      "type" : "double",
                                      "defaultValue" : 0.0,
                                      "interp" : "linr"
                                    }
                                  },
                                  "effects" : [

                                  ],
                                  "start" : 357,
                                  "duration" : 59,
                                  "mediaStart" : 477,
                                  "mediaDuration" : 59,
                                  "scalar" : 1,
                                  "metadata" : {
                                    "AutoAppliedSmartFocus" : "False"
                                  },
                                  "animationTracks" : {

                                  }
                                },
                                {
                                  "id" : 313,
                                  "_type" : "ScreenVMFile",
                                  "src" : 1,
                                  "trackNumber" : 0,
                                  "attributes" : {
                                    "ident" : "Rec 01-28-21_001"
                                  },
                                  "parameters" : {
                                    "cursorScale" : {
                                      "type" : "double",
                                      "defaultValue" : 0.0,
                                      "interp" : "linr"
                                    },
                                    "cursorOpacity" : {
                                      "type" : "double",
                                      "defaultValue" : 0.0,
                                      "interp" : "linr"
                                    }
                                  },
                                  "effects" : [

                                  ],
                                  "start" : 416,
                                  "duration" : 42,
                                  "mediaStart" : 590,
                                  "mediaDuration" : 42,
                                  "scalar" : 1,
                                  "metadata" : {
                                    "AutoAppliedSmartFocus" : "False"
                                  },
                                  "animationTracks" : {

                                  }
                                },
                                {
                                  "id" : 314,
                                  "_type" : "ScreenVMFile",
                                  "src" : 1,
                                  "trackNumber" : 0,
                                  "attributes" : {
                                    "ident" : "Rec 01-28-21_001"
                                  },
                                  "parameters" : {
                                    "cursorScale" : {
                                      "type" : "double",
                                      "defaultValue" : 0.0,
                                      "interp" : "linr"
                                    },
                                    "cursorOpacity" : {
                                      "type" : "double",
                                      "defaultValue" : 0.0,
                                      "interp" : "linr"
                                    }
                                  },
                                  "effects" : [

                                  ],
                                  "start" : 458,
                                  "duration" : 22,
                                  "mediaStart" : 646,
                                  "mediaDuration" : 22,
                                  "scalar" : 1,
                                  "metadata" : {
                                    "AutoAppliedSmartFocus" : "False"
                                  },
                                  "animationTracks" : {

                                  }
                                },
                                {
                                  "id" : 315,
                                  "_type" : "ScreenVMFile",
                                  "src" : 1,
                                  "trackNumber" : 0,
                                  "attributes" : {
                                    "ident" : "Rec 01-28-21_001"
                                  },
                                  "parameters" : {
                                    "cursorScale" : {
                                      "type" : "double",
                                      "defaultValue" : 0.0,
                                      "interp" : "linr"
                                    },
                                    "cursorOpacity" : {
                                      "type" : "double",
                                      "defaultValue" : 0.0,
                                      "interp" : "linr"
                                    }
                                  },
                                  "effects" : [

                                  ],
                                  "start" : 480,
                                  "duration" : 115,
                                  "mediaStart" : 762,
                                  "mediaDuration" : 115,
                                  "scalar" : 1,
                                  "metadata" : {
                                    "AutoAppliedSmartFocus" : "False"
                                  },
                                  "animationTracks" : {

                                  }
                                },
                                {
                                  "id" : 316,
                                  "_type" : "ScreenVMFile",
                                  "src" : 1,
                                  "trackNumber" : 0,
                                  "attributes" : {
                                    "ident" : "Rec 01-28-21_001"
                                  },
                                  "parameters" : {
                                    "cursorScale" : {
                                      "type" : "double",
                                      "defaultValue" : 0.0,
                                      "interp" : "linr"
                                    },
                                    "cursorOpacity" : {
                                      "type" : "double",
                                      "defaultValue" : 0.0,
                                      "interp" : "linr"
                                    }
                                  },
                                  "effects" : [

                                  ],
                                  "start" : 595,
                                  "duration" : 154,
                                  "mediaStart" : 1024,
                                  "mediaDuration" : 154,
                                  "scalar" : 1,
                                  "metadata" : {
                                    "AutoAppliedSmartFocus" : "False"
                                  },
                                  "animationTracks" : {

                                  }
                                },
                                {
                                  "id" : 317,
                                  "_type" : "ScreenVMFile",
                                  "src" : 1,
                                  "trackNumber" : 0,
                                  "attributes" : {
                                    "ident" : "Rec 01-28-21_001"
                                  },
                                  "parameters" : {
                                    "cursorScale" : {
                                      "type" : "double",
                                      "defaultValue" : 0.0,
                                      "interp" : "linr"
                                    },
                                    "cursorOpacity" : {
                                      "type" : "double",
                                      "defaultValue" : 0.0,
                                      "interp" : "linr"
                                    }
                                  },
                                  "effects" : [

                                  ],
                                  "start" : 749,
                                  "duration" : 135,
                                  "mediaStart" : 1207,
                                  "mediaDuration" : 135,
                                  "scalar" : 1,
                                  "metadata" : {
                                    "AutoAppliedSmartFocus" : "False"
                                  },
                                  "animationTracks" : {

                                  }
                                },
                                {
                                  "id" : 318,
                                  "_type" : "ScreenVMFile",
                                  "src" : 1,
                                  "trackNumber" : 0,
                                  "attributes" : {
                                    "ident" : "Rec 01-28-21_001"
                                  },
                                  "parameters" : {
                                    "cursorScale" : {
                                      "type" : "double",
                                      "defaultValue" : 0.0,
                                      "interp" : "linr"
                                    },
                                    "cursorOpacity" : {
                                      "type" : "double",
                                      "defaultValue" : 0.0,
                                      "interp" : "linr"
                                    }
                                  },
                                  "effects" : [

                                  ],
                                  "start" : 884,
                                  "duration" : 150,
                                  "mediaStart" : 1383,
                                  "mediaDuration" : 150,
                                  "scalar" : 1,
                                  "metadata" : {
                                    "AutoAppliedSmartFocus" : "False"
                                  },
                                  "animationTracks" : {

                                  }
                                },
                                {
                                  "id" : 319,
                                  "_type" : "ScreenVMFile",
                                  "src" : 1,
                                  "trackNumber" : 0,
                                  "attributes" : {
                                    "ident" : "Rec 01-28-21_001"
                                  },
                                  "parameters" : {
                                    "cursorScale" : {
                                      "type" : "double",
                                      "defaultValue" : 0.0,
                                      "interp" : "linr"
                                    },
                                    "cursorOpacity" : {
                                      "type" : "double",
                                      "defaultValue" : 0.0,
                                      "interp" : "linr"
                                    }
                                  },
                                  "effects" : [

                                  ],
                                  "start" : 1034,
                                  "duration" : 89,
                                  "mediaStart" : 1607,
                                  "mediaDuration" : 89,
                                  "scalar" : 1,
                                  "metadata" : {
                                    "AutoAppliedSmartFocus" : "False"
                                  },
                                  "animationTracks" : {

                                  }
                                },
                                {
                                  "id" : 320,
                                  "_type" : "ScreenVMFile",
                                  "src" : 1,
                                  "trackNumber" : 0,
                                  "attributes" : {
                                    "ident" : "Rec 01-28-21_001"
                                  },
                                  "parameters" : {
                                    "cursorScale" : {
                                      "type" : "double",
                                      "defaultValue" : 0.0,
                                      "interp" : "linr"
                                    },
                                    "cursorOpacity" : {
                                      "type" : "double",
                                      "defaultValue" : 0.0,
                                      "interp" : "linr"
                                    }
                                  },
                                  "effects" : [

                                  ],
                                  "start" : 1123,
                                  "duration" : 37,
                                  "mediaStart" : 1752,
                                  "mediaDuration" : 37,
                                  "scalar" : 1,
                                  "metadata" : {
                                    "AutoAppliedSmartFocus" : "False"
                                  },
                                  "animationTracks" : {

                                  }
                                },
                                {
                                  "id" : 321,
                                  "_type" : "ScreenVMFile",
                                  "src" : 1,
                                  "trackNumber" : 0,
                                  "attributes" : {
                                    "ident" : "Rec 01-28-21_001"
                                  },
                                  "parameters" : {
                                    "cursorScale" : {
                                      "type" : "double",
                                      "defaultValue" : 0.0,
                                      "interp" : "linr"
                                    },
                                    "cursorOpacity" : {
                                      "type" : "double",
                                      "defaultValue" : 0.0,
                                      "interp" : "linr"
                                    }
                                  },
                                  "effects" : [

                                  ],
                                  "start" : 1160,
                                  "duration" : 34,
                                  "mediaStart" : 1836,
                                  "mediaDuration" : 34,
                                  "scalar" : 1,
                                  "metadata" : {
                                    "AutoAppliedSmartFocus" : "False"
                                  },
                                  "animationTracks" : {

                                  }
                                },
                                {
                                  "id" : 322,
                                  "_type" : "ScreenVMFile",
                                  "src" : 1,
                                  "trackNumber" : 0,
                                  "attributes" : {
                                    "ident" : "Rec 01-28-21_001"
                                  },
                                  "parameters" : {
                                    "cursorScale" : {
                                      "type" : "double",
                                      "defaultValue" : 0.0,
                                      "interp" : "linr"
                                    },
                                    "cursorOpacity" : {
                                      "type" : "double",
                                      "defaultValue" : 0.0,
                                      "interp" : "linr"
                                    }
                                  },
                                  "effects" : [

                                  ],
                                  "start" : 1194,
                                  "duration" : 41,
                                  "mediaStart" : 1882,
                                  "mediaDuration" : 41,
                                  "scalar" : 1,
                                  "metadata" : {
                                    "AutoAppliedSmartFocus" : "False"
                                  },
                                  "animationTracks" : {

                                  }
                                },
                                {
                                  "id" : 323,
                                  "_type" : "ScreenVMFile",
                                  "src" : 1,
                                  "trackNumber" : 0,
                                  "attributes" : {
                                    "ident" : "Rec 01-28-21_001"
                                  },
                                  "parameters" : {
                                    "cursorScale" : {
                                      "type" : "double",
                                      "defaultValue" : 0.0,
                                      "interp" : "linr"
                                    },
                                    "cursorOpacity" : {
                                      "type" : "double",
                                      "defaultValue" : 0.0,
                                      "interp" : "linr"
                                    }
                                  },
                                  "effects" : [

                                  ],
                                  "start" : 1235,
                                  "duration" : 41,
                                  "mediaStart" : 1948,
                                  "mediaDuration" : 41,
                                  "scalar" : 1,
                                  "metadata" : {
                                    "AutoAppliedSmartFocus" : "False"
                                  },
                                  "animationTracks" : {

                                  }
                                },
                                {
                                  "id" : 324,
                                  "_type" : "ScreenVMFile",
                                  "src" : 1,
                                  "trackNumber" : 0,
                                  "attributes" : {
                                    "ident" : "Rec 01-28-21_001"
                                  },
                                  "parameters" : {
                                    "cursorScale" : {
                                      "type" : "double",
                                      "defaultValue" : 0.0,
                                      "interp" : "linr"
                                    },
                                    "cursorOpacity" : {
                                      "type" : "double",
                                      "defaultValue" : 0.0,
                                      "interp" : "linr"
                                    }
                                  },
                                  "effects" : [

                                  ],
                                  "start" : 1276,
                                  "duration" : 55,
                                  "mediaStart" : 2015,
                                  "mediaDuration" : 55,
                                  "scalar" : 1,
                                  "metadata" : {
                                    "AutoAppliedSmartFocus" : "False"
                                  },
                                  "animationTracks" : {

                                  }
                                },
                                {
                                  "id" : 325,
                                  "_type" : "ScreenVMFile",
                                  "src" : 1,
                                  "trackNumber" : 0,
                                  "attributes" : {
                                    "ident" : "Rec 01-28-21_001"
                                  },
                                  "parameters" : {
                                    "cursorScale" : {
                                      "type" : "double",
                                      "defaultValue" : 0.0,
                                      "interp" : "linr"
                                    },
                                    "cursorOpacity" : {
                                      "type" : "double",
                                      "defaultValue" : 0.0,
                                      "interp" : "linr"
                                    }
                                  },
                                  "effects" : [

                                  ],
                                  "start" : 1331,
                                  "duration" : 42,
                                  "mediaStart" : 2110,
                                  "mediaDuration" : 42,
                                  "scalar" : 1,
                                  "metadata" : {
                                    "AutoAppliedSmartFocus" : "False"
                                  },
                                  "animationTracks" : {

                                  }
                                },
                                {
                                  "id" : 326,
                                  "_type" : "ScreenVMFile",
                                  "src" : 1,
                                  "trackNumber" : 0,
                                  "attributes" : {
                                    "ident" : "Rec 01-28-21_001"
                                  },
                                  "parameters" : {
                                    "cursorScale" : {
                                      "type" : "double",
                                      "defaultValue" : 0.0,
                                      "interp" : "linr"
                                    },
                                    "cursorOpacity" : {
                                      "type" : "double",
                                      "defaultValue" : 0.0,
                                      "interp" : "linr"
                                    }
                                  },
                                  "effects" : [

                                  ],
                                  "start" : 1373,
                                  "duration" : 23,
                                  "mediaStart" : 2250,
                                  "mediaDuration" : 23,
                                  "scalar" : 1,
                                  "metadata" : {
                                    "AutoAppliedSmartFocus" : "False"
                                  },
                                  "animationTracks" : {

                                  }
                                },
                                {
                                  "id" : 327,
                                  "_type" : "ScreenVMFile",
                                  "src" : 1,
                                  "trackNumber" : 0,
                                  "attributes" : {
                                    "ident" : "Rec 01-28-21_001"
                                  },
                                  "parameters" : {
                                    "cursorScale" : {
                                      "type" : "double",
                                      "defaultValue" : 0.0,
                                      "interp" : "linr"
                                    },
                                    "cursorOpacity" : {
                                      "type" : "double",
                                      "defaultValue" : 0.0,
                                      "interp" : "linr"
                                    }
                                  },
                                  "effects" : [

                                  ],
                                  "start" : 1396,
                                  "duration" : 79,
                                  "mediaStart" : 2299,
                                  "mediaDuration" : 79,
                                  "scalar" : 1,
                                  "metadata" : {
                                    "AutoAppliedSmartFocus" : "False"
                                  },
                                  "animationTracks" : {

                                  }
                                },
                                {
                                  "id" : 328,
                                  "_type" : "ScreenVMFile",
                                  "src" : 1,
                                  "trackNumber" : 0,
                                  "attributes" : {
                                    "ident" : "Rec 01-28-21_001"
                                  },
                                  "parameters" : {
                                    "cursorScale" : {
                                      "type" : "double",
                                      "defaultValue" : 0.0,
                                      "interp" : "linr"
                                    },
                                    "cursorOpacity" : {
                                      "type" : "double",
                                      "defaultValue" : 0.0,
                                      "interp" : "linr"
                                    }
                                  },
                                  "effects" : [

                                  ],
                                  "start" : 1475,
                                  "duration" : 64,
                                  "mediaStart" : 2409,
                                  "mediaDuration" : 64,
                                  "scalar" : 1,
                                  "metadata" : {
                                    "AutoAppliedSmartFocus" : "False"
                                  },
                                  "animationTracks" : {

                                  }
                                },
                                {
                                  "id" : 329,
                                  "_type" : "ScreenVMFile",
                                  "src" : 1,
                                  "trackNumber" : 0,
                                  "attributes" : {
                                    "ident" : "Rec 01-28-21_001"
                                  },
                                  "parameters" : {
                                    "cursorScale" : {
                                      "type" : "double",
                                      "defaultValue" : 0.0,
                                      "interp" : "linr"
                                    },
                                    "cursorOpacity" : {
                                      "type" : "double",
                                      "defaultValue" : 0.0,
                                      "interp" : "linr"
                                    }
                                  },
                                  "effects" : [

                                  ],
                                  "start" : 1539,
                                  "duration" : 43,
                                  "mediaStart" : 2478,
                                  "mediaDuration" : 43,
                                  "scalar" : 1,
                                  "metadata" : {
                                    "AutoAppliedSmartFocus" : "False"
                                  },
                                  "animationTracks" : {

                                  }
                                },
                                {
                                  "id" : 330,
                                  "_type" : "ScreenVMFile",
                                  "src" : 1,
                                  "trackNumber" : 0,
                                  "attributes" : {
                                    "ident" : "Rec 01-28-21_001"
                                  },
                                  "parameters" : {
                                    "cursorScale" : {
                                      "type" : "double",
                                      "defaultValue" : 0.0,
                                      "interp" : "linr"
                                    },
                                    "cursorOpacity" : {
                                      "type" : "double",
                                      "defaultValue" : 0.0,
                                      "interp" : "linr"
                                    }
                                  },
                                  "effects" : [

                                  ],
                                  "start" : 1582,
                                  "duration" : 47,
                                  "mediaStart" : 2538,
                                  "mediaDuration" : 47,
                                  "scalar" : 1,
                                  "metadata" : {
                                    "AutoAppliedSmartFocus" : "False"
                                  },
                                  "animationTracks" : {

                                  }
                                },
                                {
                                  "id" : 331,
                                  "_type" : "ScreenVMFile",
                                  "src" : 1,
                                  "trackNumber" : 0,
                                  "attributes" : {
                                    "ident" : "Rec 01-28-21_001"
                                  },
                                  "parameters" : {
                                    "cursorScale" : {
                                      "type" : "double",
                                      "defaultValue" : 0.0,
                                      "interp" : "linr"
                                    },
                                    "cursorOpacity" : {
                                      "type" : "double",
                                      "defaultValue" : 0.0,
                                      "interp" : "linr"
                                    }
                                  },
                                  "effects" : [

                                  ],
                                  "start" : 1629,
                                  "duration" : 299,
                                  "mediaStart" : 2613,
                                  "mediaDuration" : 299,
                                  "scalar" : 1,
                                  "metadata" : {
                                    "AutoAppliedSmartFocus" : "False"
                                  },
                                  "animationTracks" : {

                                  }
                                },
                                {
                                  "id" : 332,
                                  "_type" : "ScreenVMFile",
                                  "src" : 1,
                                  "trackNumber" : 0,
                                  "attributes" : {
                                    "ident" : "Rec 01-28-21_001"
                                  },
                                  "parameters" : {
                                    "cursorScale" : {
                                      "type" : "double",
                                      "defaultValue" : 0.0,
                                      "interp" : "linr"
                                    },
                                    "cursorOpacity" : {
                                      "type" : "double",
                                      "defaultValue" : 0.0,
                                      "interp" : "linr"
                                    }
                                  },
                                  "effects" : [

                                  ],
                                  "start" : 1928,
                                  "duration" : 53,
                                  "mediaStart" : 3209,
                                  "mediaDuration" : 53,
                                  "scalar" : 1,
                                  "metadata" : {
                                    "AutoAppliedSmartFocus" : "False"
                                  },
                                  "animationTracks" : {

                                  }
                                },
                                {
                                  "id" : 333,
                                  "_type" : "ScreenVMFile",
                                  "src" : 1,
                                  "trackNumber" : 0,
                                  "attributes" : {
                                    "ident" : "Rec 01-28-21_001"
                                  },
                                  "parameters" : {
                                    "cursorScale" : {
                                      "type" : "double",
                                      "defaultValue" : 0.0,
                                      "interp" : "linr"
                                    },
                                    "cursorOpacity" : {
                                      "type" : "double",
                                      "defaultValue" : 0.0,
                                      "interp" : "linr"
                                    }
                                  },
                                  "effects" : [

                                  ],
                                  "start" : 1981,
                                  "duration" : 47,
                                  "mediaStart" : 3282,
                                  "mediaDuration" : 47,
                                  "scalar" : 1,
                                  "metadata" : {
                                    "AutoAppliedSmartFocus" : "False"
                                  },
                                  "animationTracks" : {

                                  }
                                },
                                {
                                  "id" : 334,
                                  "_type" : "ScreenVMFile",
                                  "src" : 1,
                                  "trackNumber" : 0,
                                  "attributes" : {
                                    "ident" : "Rec 01-28-21_001"
                                  },
                                  "parameters" : {
                                    "cursorScale" : {
                                      "type" : "double",
                                      "defaultValue" : 0.0,
                                      "interp" : "linr"
                                    },
                                    "cursorOpacity" : {
                                      "type" : "double",
                                      "defaultValue" : 0.0,
                                      "interp" : "linr"
                                    }
                                  },
                                  "effects" : [

                                  ],
                                  "start" : 2028,
                                  "duration" : 103,
                                  "mediaStart" : 3341,
                                  "mediaDuration" : 103,
                                  "scalar" : 1,
                                  "metadata" : {
                                    "AutoAppliedSmartFocus" : "False"
                                  },
                                  "animationTracks" : {

                                  }
                                },
                                {
                                  "id" : 335,
                                  "_type" : "ScreenVMFile",
                                  "src" : 1,
                                  "trackNumber" : 0,
                                  "attributes" : {
                                    "ident" : "Rec 01-28-21_001"
                                  },
                                  "parameters" : {
                                    "cursorScale" : {
                                      "type" : "double",
                                      "defaultValue" : 0.0,
                                      "interp" : "linr"
                                    },
                                    "cursorOpacity" : {
                                      "type" : "double",
                                      "defaultValue" : 0.0,
                                      "interp" : "linr"
                                    }
                                  },
                                  "effects" : [

                                  ],
                                  "start" : 2131,
                                  "duration" : 26,
                                  "mediaStart" : 3468,
                                  "mediaDuration" : 26,
                                  "scalar" : 1,
                                  "metadata" : {
                                    "AutoAppliedSmartFocus" : "False"
                                  },
                                  "animationTracks" : {

                                  }
                                },
                                {
                                  "id" : 336,
                                  "_type" : "ScreenVMFile",
                                  "src" : 1,
                                  "trackNumber" : 0,
                                  "attributes" : {
                                    "ident" : "Rec 01-28-21_001"
                                  },
                                  "parameters" : {
                                    "cursorScale" : {
                                      "type" : "double",
                                      "defaultValue" : 0.0,
                                      "interp" : "linr"
                                    },
                                    "cursorOpacity" : {
                                      "type" : "double",
                                      "defaultValue" : 0.0,
                                      "interp" : "linr"
                                    }
                                  },
                                  "effects" : [

                                  ],
                                  "start" : 2157,
                                  "duration" : 41,
                                  "mediaStart" : 3504,
                                  "mediaDuration" : 41,
                                  "scalar" : 1,
                                  "metadata" : {
                                    "AutoAppliedSmartFocus" : "False"
                                  },
                                  "animationTracks" : {

                                  }
                                },
                                {
                                  "id" : 337,
                                  "_type" : "ScreenVMFile",
                                  "src" : 1,
                                  "trackNumber" : 0,
                                  "attributes" : {
                                    "ident" : "Rec 01-28-21_001"
                                  },
                                  "parameters" : {
                                    "cursorScale" : {
                                      "type" : "double",
                                      "defaultValue" : 0.0,
                                      "interp" : "linr"
                                    },
                                    "cursorOpacity" : {
                                      "type" : "double",
                                      "defaultValue" : 0.0,
                                      "interp" : "linr"
                                    }
                                  },
                                  "effects" : [

                                  ],
                                  "start" : 2198,
                                  "duration" : 108,
                                  "mediaStart" : 3657,
                                  "mediaDuration" : 108,
                                  "scalar" : 1,
                                  "metadata" : {
                                    "AutoAppliedSmartFocus" : "False"
                                  },
                                  "animationTracks" : {

                                  }
                                },
                                {
                                  "id" : 338,
                                  "_type" : "ScreenVMFile",
                                  "src" : 1,
                                  "trackNumber" : 0,
                                  "attributes" : {
                                    "ident" : "Rec 01-28-21_001"
                                  },
                                  "parameters" : {
                                    "cursorScale" : {
                                      "type" : "double",
                                      "defaultValue" : 0.0,
                                      "interp" : "linr"
                                    },
                                    "cursorOpacity" : {
                                      "type" : "double",
                                      "defaultValue" : 0.0,
                                      "interp" : "linr"
                                    }
                                  },
                                  "effects" : [

                                  ],
                                  "start" : 2306,
                                  "duration" : 124,
                                  "mediaStart" : 3787,
                                  "mediaDuration" : 124,
                                  "scalar" : 1,
                                  "metadata" : {
                                    "AutoAppliedSmartFocus" : "False"
                                  },
                                  "animationTracks" : {

                                  }
                                },
                                {
                                  "id" : 339,
                                  "_type" : "ScreenVMFile",
                                  "src" : 1,
                                  "trackNumber" : 0,
                                  "attributes" : {
                                    "ident" : "Rec 01-28-21_001"
                                  },
                                  "parameters" : {
                                    "cursorScale" : {
                                      "type" : "double",
                                      "defaultValue" : 0.0,
                                      "interp" : "linr"
                                    },
                                    "cursorOpacity" : {
                                      "type" : "double",
                                      "defaultValue" : 0.0,
                                      "interp" : "linr"
                                    }
                                  },
                                  "effects" : [

                                  ],
                                  "start" : 2430,
                                  "duration" : 6420,
                                  "mediaStart" : 3991,
                                  "mediaDuration" : 6420,
                                  "scalar" : 1,
                                  "metadata" : {
                                    "AutoAppliedSmartFocus" : "False"
                                  },
                                  "animationTracks" : {

                                  }
                                }
                            ],
                            "effects" : [

                            ],
                            "start" : 0,
                            "duration" : 81,
                            "mediaStart" : 2426,
                            "mediaDuration" : 81,
                            "scalar" : 1,
                            "metadata" : {
                              "AutoAppliedSmartFocus" : "False",
                              "clipSpeedAttribute" : false
                            },
                            "animationTracks" : {

                            }
                          }
                        ],
                          "ident" : "",
                          "audioMuted" : false,
                          "videoHidden" : false,
                          "magnetic" : false,
                          "matte" : 0,
                          "metadata" : {
                            "IsLocked" : "False",
                            "WinTrackHeight" : "0"
                          }
                      },
                      {
                        "trackIndex" : 1,
                        "medias" : [
                          {
                            "id" : 340,
                            "_type" : "AMFile",
                            "src" : 6,
                            "trackNumber" : 0,
                            "attributes" : {
                              "ident" : "Narration_3-3 Kubernetes-Deployment 3",
                              "gain" : 0.7,
                              "mixToMono" : false
                            },
                              "channelNumber" : "0,1",
                            "effects" : [

                            ],
                            "start" : 3,
                            "duration" : 78,
                            "mediaStart" : 26,
                            "mediaDuration" : 78,
                            "scalar" : 1,
                            "metadata" : {
                              "clipSpeedAttribute" : false
                            },
                            "animationTracks" : {

                            }
                          }
                        ],
                          "ident" : "",
                          "audioMuted" : false,
                          "videoHidden" : false,
                          "magnetic" : false,
                          "matte" : 0,
                          "metadata" : {
                            "IsLocked" : "False",
                            "WinTrackHeight" : "2.7341832106175e-312"
                          }
                      }
                    ],
                    "attributes" : {
                      "ident" : "Group 1",
                      "gain" : 1.0,
                      "mixToMono" : false
                    },
                    "effects" : [

                    ],
                    "start" : 2307,
                    "duration" : 81,
                    "mediaStart" : 0.0,
                    "mediaDuration" : 81.0,
                    "scalar" : 1,
                    "metadata" : {
                      "IsGroupExpanded" : "False"
                    },
                    "animationTracks" : {

                    }
                  },
                  {
                    "id" : 341,
                    "_type" : "StitchedMedia",
                    "minMediaStart" : 0,
                    "attributes" : {
                      "ident" : "Rec 01-28-21_001",
                      "gain" : 1.0,
                      "mixToMono" : false
                    },
                    "parameters" : {
                      "volume" : 1.0,
                      "cursorOpacity" : 1.0,
                      "cursorScale" : 1.0
                    },
                    "medias" : [
                        {
                          "id" : 342,
                          "_type" : "UnifiedMedia",
                          "video" : 
                              {
                                "id" : 343,
                                "_type" : "ScreenVMFile",
                                "src" : 1,
                                "trackNumber" : 0,
                                "attributes" : {
                                  "ident" : "Rec 01-28-21_001"
                                },
                                "parameters" : {
                                  "cursorScale" : {
                                    "type" : "double",
                                    "defaultValue" : 0.0,
                                    "interp" : "linr"
                                  },
                                  "cursorOpacity" : {
                                    "type" : "double",
                                    "defaultValue" : 0.0,
                                    "interp" : "linr"
                                  }
                                },
                                "effects" : [

                                ],
                                "start" : 0,
                                "duration" : 18,
                                "mediaStart" : 0,
                                "mediaDuration" : 18,
                                "scalar" : 1,
                                "animationTracks" : {

                                }
                              },
                          "audio" : 
                              {
                                "id" : 344,
                                "_type" : "AMFile",
                                "src" : 1,
                                "trackNumber" : 1,
                                "attributes" : {
                                  "ident" : "",
                                  "gain" : 1.0,
                                  "mixToMono" : false
                                },
                                  "channelNumber" : "0,1",
                                "effects" : [

                                ],
                                "start" : 0,
                                "duration" : 18,
                                "mediaStart" : 0,
                                "mediaDuration" : 18,
                                "scalar" : 1,
                                "animationTracks" : {

                                }
                              }
,
                          "start" : 0,
                          "duration" : 18,
                          "mediaStart" : 0,
                          "mediaDuration" : 10411,
                          "scalar" : 1,
                          "metadata" : {
                            "AutoAppliedSmartFocus" : "False",
                            "clipSpeedAttribute" : false
                          }
                        },
                        {
                          "id" : 345,
                          "_type" : "UnifiedMedia",
                          "video" : 
                              {
                                "id" : 346,
                                "_type" : "ScreenVMFile",
                                "src" : 1,
                                "trackNumber" : 0,
                                "attributes" : {
                                  "ident" : "Rec 01-28-21_001"
                                },
                                "parameters" : {
                                  "cursorScale" : {
                                    "type" : "double",
                                    "defaultValue" : 0.0,
                                    "interp" : "linr"
                                  },
                                  "cursorOpacity" : {
                                    "type" : "double",
                                    "defaultValue" : 0.0,
                                    "interp" : "linr"
                                  }
                                },
                                "effects" : [

                                ],
                                "start" : 18,
                                "duration" : 286,
                                "mediaStart" : 55,
                                "mediaDuration" : 286,
                                "scalar" : 1,
                                "animationTracks" : {

                                }
                              },
                          "audio" : 
                              {
                                "id" : 347,
                                "_type" : "AMFile",
                                "src" : 1,
                                "trackNumber" : 1,
                                "attributes" : {
                                  "ident" : "",
                                  "gain" : 1.0,
                                  "mixToMono" : false
                                },
                                  "channelNumber" : "0,1",
                                "effects" : [

                                ],
                                "start" : 18,
                                "duration" : 286,
                                "mediaStart" : 55,
                                "mediaDuration" : 286,
                                "scalar" : 1,
                                "animationTracks" : {

                                }
                              }
,
                          "start" : 18,
                          "duration" : 286,
                          "mediaStart" : 0,
                          "mediaDuration" : 10411,
                          "scalar" : 1,
                          "metadata" : {
                            "AutoAppliedSmartFocus" : "False",
                            "clipSpeedAttribute" : false
                          }
                        },
                        {
                          "id" : 348,
                          "_type" : "UnifiedMedia",
                          "video" : 
                              {
                                "id" : 349,
                                "_type" : "ScreenVMFile",
                                "src" : 1,
                                "trackNumber" : 0,
                                "attributes" : {
                                  "ident" : "Rec 01-28-21_001"
                                },
                                "parameters" : {
                                  "cursorScale" : {
                                    "type" : "double",
                                    "defaultValue" : 0.0,
                                    "interp" : "linr"
                                  },
                                  "cursorOpacity" : {
                                    "type" : "double",
                                    "defaultValue" : 0.0,
                                    "interp" : "linr"
                                  }
                                },
                                "effects" : [

                                ],
                                "start" : 304,
                                "duration" : 53,
                                "mediaStart" : 367,
                                "mediaDuration" : 53,
                                "scalar" : 1,
                                "animationTracks" : {

                                }
                              },
                          "audio" : 
                              {
                                "id" : 350,
                                "_type" : "AMFile",
                                "src" : 1,
                                "trackNumber" : 1,
                                "attributes" : {
                                  "ident" : "",
                                  "gain" : 1.0,
                                  "mixToMono" : false
                                },
                                  "channelNumber" : "0,1",
                                "effects" : [

                                ],
                                "start" : 304,
                                "duration" : 53,
                                "mediaStart" : 367,
                                "mediaDuration" : 53,
                                "scalar" : 1,
                                "animationTracks" : {

                                }
                              }
,
                          "start" : 304,
                          "duration" : 53,
                          "mediaStart" : 0,
                          "mediaDuration" : 10411,
                          "scalar" : 1,
                          "metadata" : {
                            "AutoAppliedSmartFocus" : "False",
                            "clipSpeedAttribute" : false
                          }
                        },
                        {
                          "id" : 351,
                          "_type" : "UnifiedMedia",
                          "video" : 
                              {
                                "id" : 352,
                                "_type" : "ScreenVMFile",
                                "src" : 1,
                                "trackNumber" : 0,
                                "attributes" : {
                                  "ident" : "Rec 01-28-21_001"
                                },
                                "parameters" : {
                                  "cursorScale" : {
                                    "type" : "double",
                                    "defaultValue" : 0.0,
                                    "interp" : "linr"
                                  },
                                  "cursorOpacity" : {
                                    "type" : "double",
                                    "defaultValue" : 0.0,
                                    "interp" : "linr"
                                  }
                                },
                                "effects" : [

                                ],
                                "start" : 357,
                                "duration" : 59,
                                "mediaStart" : 477,
                                "mediaDuration" : 59,
                                "scalar" : 1,
                                "animationTracks" : {

                                }
                              },
                          "audio" : 
                              {
                                "id" : 353,
                                "_type" : "AMFile",
                                "src" : 1,
                                "trackNumber" : 1,
                                "attributes" : {
                                  "ident" : "",
                                  "gain" : 1.0,
                                  "mixToMono" : false
                                },
                                  "channelNumber" : "0,1",
                                "effects" : [

                                ],
                                "start" : 357,
                                "duration" : 59,
                                "mediaStart" : 477,
                                "mediaDuration" : 59,
                                "scalar" : 1,
                                "animationTracks" : {

                                }
                              }
,
                          "start" : 357,
                          "duration" : 59,
                          "mediaStart" : 0,
                          "mediaDuration" : 10411,
                          "scalar" : 1,
                          "metadata" : {
                            "AutoAppliedSmartFocus" : "False",
                            "clipSpeedAttribute" : false
                          }
                        },
                        {
                          "id" : 354,
                          "_type" : "UnifiedMedia",
                          "video" : 
                              {
                                "id" : 355,
                                "_type" : "ScreenVMFile",
                                "src" : 1,
                                "trackNumber" : 0,
                                "attributes" : {
                                  "ident" : "Rec 01-28-21_001"
                                },
                                "parameters" : {
                                  "cursorScale" : {
                                    "type" : "double",
                                    "defaultValue" : 0.0,
                                    "interp" : "linr"
                                  },
                                  "cursorOpacity" : {
                                    "type" : "double",
                                    "defaultValue" : 0.0,
                                    "interp" : "linr"
                                  }
                                },
                                "effects" : [

                                ],
                                "start" : 416,
                                "duration" : 42,
                                "mediaStart" : 590,
                                "mediaDuration" : 42,
                                "scalar" : 1,
                                "animationTracks" : {

                                }
                              },
                          "audio" : 
                              {
                                "id" : 356,
                                "_type" : "AMFile",
                                "src" : 1,
                                "trackNumber" : 1,
                                "attributes" : {
                                  "ident" : "",
                                  "gain" : 1.0,
                                  "mixToMono" : false
                                },
                                  "channelNumber" : "0,1",
                                "effects" : [

                                ],
                                "start" : 416,
                                "duration" : 42,
                                "mediaStart" : 590,
                                "mediaDuration" : 42,
                                "scalar" : 1,
                                "animationTracks" : {

                                }
                              }
,
                          "start" : 416,
                          "duration" : 42,
                          "mediaStart" : 0,
                          "mediaDuration" : 10411,
                          "scalar" : 1,
                          "metadata" : {
                            "AutoAppliedSmartFocus" : "False",
                            "clipSpeedAttribute" : false
                          }
                        },
                        {
                          "id" : 357,
                          "_type" : "UnifiedMedia",
                          "video" : 
                              {
                                "id" : 358,
                                "_type" : "ScreenVMFile",
                                "src" : 1,
                                "trackNumber" : 0,
                                "attributes" : {
                                  "ident" : "Rec 01-28-21_001"
                                },
                                "parameters" : {
                                  "cursorScale" : {
                                    "type" : "double",
                                    "defaultValue" : 0.0,
                                    "interp" : "linr"
                                  },
                                  "cursorOpacity" : {
                                    "type" : "double",
                                    "defaultValue" : 0.0,
                                    "interp" : "linr"
                                  }
                                },
                                "effects" : [

                                ],
                                "start" : 458,
                                "duration" : 22,
                                "mediaStart" : 646,
                                "mediaDuration" : 22,
                                "scalar" : 1,
                                "animationTracks" : {

                                }
                              },
                          "audio" : 
                              {
                                "id" : 359,
                                "_type" : "AMFile",
                                "src" : 1,
                                "trackNumber" : 1,
                                "attributes" : {
                                  "ident" : "",
                                  "gain" : 1.0,
                                  "mixToMono" : false
                                },
                                  "channelNumber" : "0,1",
                                "effects" : [

                                ],
                                "start" : 458,
                                "duration" : 22,
                                "mediaStart" : 646,
                                "mediaDuration" : 22,
                                "scalar" : 1,
                                "animationTracks" : {

                                }
                              }
,
                          "start" : 458,
                          "duration" : 22,
                          "mediaStart" : 0,
                          "mediaDuration" : 10411,
                          "scalar" : 1,
                          "metadata" : {
                            "AutoAppliedSmartFocus" : "False",
                            "clipSpeedAttribute" : false
                          }
                        },
                        {
                          "id" : 360,
                          "_type" : "UnifiedMedia",
                          "video" : 
                              {
                                "id" : 361,
                                "_type" : "ScreenVMFile",
                                "src" : 1,
                                "trackNumber" : 0,
                                "attributes" : {
                                  "ident" : "Rec 01-28-21_001"
                                },
                                "parameters" : {
                                  "cursorScale" : {
                                    "type" : "double",
                                    "defaultValue" : 0.0,
                                    "interp" : "linr"
                                  },
                                  "cursorOpacity" : {
                                    "type" : "double",
                                    "defaultValue" : 0.0,
                                    "interp" : "linr"
                                  }
                                },
                                "effects" : [

                                ],
                                "start" : 480,
                                "duration" : 115,
                                "mediaStart" : 762,
                                "mediaDuration" : 115,
                                "scalar" : 1,
                                "animationTracks" : {

                                }
                              },
                          "audio" : 
                              {
                                "id" : 362,
                                "_type" : "AMFile",
                                "src" : 1,
                                "trackNumber" : 1,
                                "attributes" : {
                                  "ident" : "",
                                  "gain" : 1.0,
                                  "mixToMono" : false
                                },
                                  "channelNumber" : "0,1",
                                "effects" : [

                                ],
                                "start" : 480,
                                "duration" : 115,
                                "mediaStart" : 762,
                                "mediaDuration" : 115,
                                "scalar" : 1,
                                "animationTracks" : {

                                }
                              }
,
                          "start" : 480,
                          "duration" : 115,
                          "mediaStart" : 0,
                          "mediaDuration" : 10411,
                          "scalar" : 1,
                          "metadata" : {
                            "AutoAppliedSmartFocus" : "False",
                            "clipSpeedAttribute" : false
                          }
                        },
                        {
                          "id" : 363,
                          "_type" : "UnifiedMedia",
                          "video" : 
                              {
                                "id" : 364,
                                "_type" : "ScreenVMFile",
                                "src" : 1,
                                "trackNumber" : 0,
                                "attributes" : {
                                  "ident" : "Rec 01-28-21_001"
                                },
                                "parameters" : {
                                  "cursorScale" : {
                                    "type" : "double",
                                    "defaultValue" : 0.0,
                                    "interp" : "linr"
                                  },
                                  "cursorOpacity" : {
                                    "type" : "double",
                                    "defaultValue" : 0.0,
                                    "interp" : "linr"
                                  }
                                },
                                "effects" : [

                                ],
                                "start" : 595,
                                "duration" : 154,
                                "mediaStart" : 1024,
                                "mediaDuration" : 154,
                                "scalar" : 1,
                                "animationTracks" : {

                                }
                              },
                          "audio" : 
                              {
                                "id" : 365,
                                "_type" : "AMFile",
                                "src" : 1,
                                "trackNumber" : 1,
                                "attributes" : {
                                  "ident" : "",
                                  "gain" : 1.0,
                                  "mixToMono" : false
                                },
                                  "channelNumber" : "0,1",
                                "effects" : [

                                ],
                                "start" : 595,
                                "duration" : 154,
                                "mediaStart" : 1024,
                                "mediaDuration" : 154,
                                "scalar" : 1,
                                "animationTracks" : {

                                }
                              }
,
                          "start" : 595,
                          "duration" : 154,
                          "mediaStart" : 0,
                          "mediaDuration" : 10411,
                          "scalar" : 1,
                          "metadata" : {
                            "AutoAppliedSmartFocus" : "False",
                            "clipSpeedAttribute" : false
                          }
                        },
                        {
                          "id" : 366,
                          "_type" : "UnifiedMedia",
                          "video" : 
                              {
                                "id" : 367,
                                "_type" : "ScreenVMFile",
                                "src" : 1,
                                "trackNumber" : 0,
                                "attributes" : {
                                  "ident" : "Rec 01-28-21_001"
                                },
                                "parameters" : {
                                  "cursorScale" : {
                                    "type" : "double",
                                    "defaultValue" : 0.0,
                                    "interp" : "linr"
                                  },
                                  "cursorOpacity" : {
                                    "type" : "double",
                                    "defaultValue" : 0.0,
                                    "interp" : "linr"
                                  }
                                },
                                "effects" : [

                                ],
                                "start" : 749,
                                "duration" : 135,
                                "mediaStart" : 1207,
                                "mediaDuration" : 135,
                                "scalar" : 1,
                                "animationTracks" : {

                                }
                              },
                          "audio" : 
                              {
                                "id" : 368,
                                "_type" : "AMFile",
                                "src" : 1,
                                "trackNumber" : 1,
                                "attributes" : {
                                  "ident" : "",
                                  "gain" : 1.0,
                                  "mixToMono" : false
                                },
                                  "channelNumber" : "0,1",
                                "effects" : [

                                ],
                                "start" : 749,
                                "duration" : 135,
                                "mediaStart" : 1207,
                                "mediaDuration" : 135,
                                "scalar" : 1,
                                "animationTracks" : {

                                }
                              }
,
                          "start" : 749,
                          "duration" : 135,
                          "mediaStart" : 0,
                          "mediaDuration" : 10411,
                          "scalar" : 1,
                          "metadata" : {
                            "AutoAppliedSmartFocus" : "False",
                            "clipSpeedAttribute" : false
                          }
                        },
                        {
                          "id" : 369,
                          "_type" : "UnifiedMedia",
                          "video" : 
                              {
                                "id" : 370,
                                "_type" : "ScreenVMFile",
                                "src" : 1,
                                "trackNumber" : 0,
                                "attributes" : {
                                  "ident" : "Rec 01-28-21_001"
                                },
                                "parameters" : {
                                  "cursorScale" : {
                                    "type" : "double",
                                    "defaultValue" : 0.0,
                                    "interp" : "linr"
                                  },
                                  "cursorOpacity" : {
                                    "type" : "double",
                                    "defaultValue" : 0.0,
                                    "interp" : "linr"
                                  }
                                },
                                "effects" : [

                                ],
                                "start" : 884,
                                "duration" : 150,
                                "mediaStart" : 1383,
                                "mediaDuration" : 150,
                                "scalar" : 1,
                                "animationTracks" : {

                                }
                              },
                          "audio" : 
                              {
                                "id" : 371,
                                "_type" : "AMFile",
                                "src" : 1,
                                "trackNumber" : 1,
                                "attributes" : {
                                  "ident" : "",
                                  "gain" : 1.0,
                                  "mixToMono" : false
                                },
                                  "channelNumber" : "0,1",
                                "effects" : [

                                ],
                                "start" : 884,
                                "duration" : 150,
                                "mediaStart" : 1383,
                                "mediaDuration" : 150,
                                "scalar" : 1,
                                "animationTracks" : {

                                }
                              }
,
                          "start" : 884,
                          "duration" : 150,
                          "mediaStart" : 0,
                          "mediaDuration" : 10411,
                          "scalar" : 1,
                          "metadata" : {
                            "AutoAppliedSmartFocus" : "False",
                            "clipSpeedAttribute" : false
                          }
                        },
                        {
                          "id" : 372,
                          "_type" : "UnifiedMedia",
                          "video" : 
                              {
                                "id" : 373,
                                "_type" : "ScreenVMFile",
                                "src" : 1,
                                "trackNumber" : 0,
                                "attributes" : {
                                  "ident" : "Rec 01-28-21_001"
                                },
                                "parameters" : {
                                  "cursorScale" : {
                                    "type" : "double",
                                    "defaultValue" : 0.0,
                                    "interp" : "linr"
                                  },
                                  "cursorOpacity" : {
                                    "type" : "double",
                                    "defaultValue" : 0.0,
                                    "interp" : "linr"
                                  }
                                },
                                "effects" : [

                                ],
                                "start" : 1034,
                                "duration" : 89,
                                "mediaStart" : 1607,
                                "mediaDuration" : 89,
                                "scalar" : 1,
                                "animationTracks" : {

                                }
                              },
                          "audio" : 
                              {
                                "id" : 374,
                                "_type" : "AMFile",
                                "src" : 1,
                                "trackNumber" : 1,
                                "attributes" : {
                                  "ident" : "",
                                  "gain" : 1.0,
                                  "mixToMono" : false
                                },
                                  "channelNumber" : "0,1",
                                "effects" : [

                                ],
                                "start" : 1034,
                                "duration" : 89,
                                "mediaStart" : 1607,
                                "mediaDuration" : 89,
                                "scalar" : 1,
                                "animationTracks" : {

                                }
                              }
,
                          "start" : 1034,
                          "duration" : 89,
                          "mediaStart" : 0,
                          "mediaDuration" : 10411,
                          "scalar" : 1,
                          "metadata" : {
                            "AutoAppliedSmartFocus" : "False",
                            "clipSpeedAttribute" : false
                          }
                        },
                        {
                          "id" : 375,
                          "_type" : "UnifiedMedia",
                          "video" : 
                              {
                                "id" : 376,
                                "_type" : "ScreenVMFile",
                                "src" : 1,
                                "trackNumber" : 0,
                                "attributes" : {
                                  "ident" : "Rec 01-28-21_001"
                                },
                                "parameters" : {
                                  "cursorScale" : {
                                    "type" : "double",
                                    "defaultValue" : 0.0,
                                    "interp" : "linr"
                                  },
                                  "cursorOpacity" : {
                                    "type" : "double",
                                    "defaultValue" : 0.0,
                                    "interp" : "linr"
                                  }
                                },
                                "effects" : [

                                ],
                                "start" : 1123,
                                "duration" : 37,
                                "mediaStart" : 1752,
                                "mediaDuration" : 37,
                                "scalar" : 1,
                                "animationTracks" : {

                                }
                              },
                          "audio" : 
                              {
                                "id" : 377,
                                "_type" : "AMFile",
                                "src" : 1,
                                "trackNumber" : 1,
                                "attributes" : {
                                  "ident" : "",
                                  "gain" : 1.0,
                                  "mixToMono" : false
                                },
                                  "channelNumber" : "0,1",
                                "effects" : [

                                ],
                                "start" : 1123,
                                "duration" : 37,
                                "mediaStart" : 1752,
                                "mediaDuration" : 37,
                                "scalar" : 1,
                                "animationTracks" : {

                                }
                              }
,
                          "start" : 1123,
                          "duration" : 37,
                          "mediaStart" : 0,
                          "mediaDuration" : 10411,
                          "scalar" : 1,
                          "metadata" : {
                            "AutoAppliedSmartFocus" : "False",
                            "clipSpeedAttribute" : false
                          }
                        },
                        {
                          "id" : 378,
                          "_type" : "UnifiedMedia",
                          "video" : 
                              {
                                "id" : 379,
                                "_type" : "ScreenVMFile",
                                "src" : 1,
                                "trackNumber" : 0,
                                "attributes" : {
                                  "ident" : "Rec 01-28-21_001"
                                },
                                "parameters" : {
                                  "cursorScale" : {
                                    "type" : "double",
                                    "defaultValue" : 0.0,
                                    "interp" : "linr"
                                  },
                                  "cursorOpacity" : {
                                    "type" : "double",
                                    "defaultValue" : 0.0,
                                    "interp" : "linr"
                                  }
                                },
                                "effects" : [

                                ],
                                "start" : 1160,
                                "duration" : 34,
                                "mediaStart" : 1836,
                                "mediaDuration" : 34,
                                "scalar" : 1,
                                "animationTracks" : {

                                }
                              },
                          "audio" : 
                              {
                                "id" : 380,
                                "_type" : "AMFile",
                                "src" : 1,
                                "trackNumber" : 1,
                                "attributes" : {
                                  "ident" : "",
                                  "gain" : 1.0,
                                  "mixToMono" : false
                                },
                                  "channelNumber" : "0,1",
                                "effects" : [

                                ],
                                "start" : 1160,
                                "duration" : 34,
                                "mediaStart" : 1836,
                                "mediaDuration" : 34,
                                "scalar" : 1,
                                "animationTracks" : {

                                }
                              }
,
                          "start" : 1160,
                          "duration" : 34,
                          "mediaStart" : 0,
                          "mediaDuration" : 10411,
                          "scalar" : 1,
                          "metadata" : {
                            "AutoAppliedSmartFocus" : "False",
                            "clipSpeedAttribute" : false
                          }
                        },
                        {
                          "id" : 381,
                          "_type" : "UnifiedMedia",
                          "video" : 
                              {
                                "id" : 382,
                                "_type" : "ScreenVMFile",
                                "src" : 1,
                                "trackNumber" : 0,
                                "attributes" : {
                                  "ident" : "Rec 01-28-21_001"
                                },
                                "parameters" : {
                                  "cursorScale" : {
                                    "type" : "double",
                                    "defaultValue" : 0.0,
                                    "interp" : "linr"
                                  },
                                  "cursorOpacity" : {
                                    "type" : "double",
                                    "defaultValue" : 0.0,
                                    "interp" : "linr"
                                  }
                                },
                                "effects" : [

                                ],
                                "start" : 1194,
                                "duration" : 41,
                                "mediaStart" : 1882,
                                "mediaDuration" : 41,
                                "scalar" : 1,
                                "animationTracks" : {

                                }
                              },
                          "audio" : 
                              {
                                "id" : 383,
                                "_type" : "AMFile",
                                "src" : 1,
                                "trackNumber" : 1,
                                "attributes" : {
                                  "ident" : "",
                                  "gain" : 1.0,
                                  "mixToMono" : false
                                },
                                  "channelNumber" : "0,1",
                                "effects" : [

                                ],
                                "start" : 1194,
                                "duration" : 41,
                                "mediaStart" : 1882,
                                "mediaDuration" : 41,
                                "scalar" : 1,
                                "animationTracks" : {

                                }
                              }
,
                          "start" : 1194,
                          "duration" : 41,
                          "mediaStart" : 0,
                          "mediaDuration" : 10411,
                          "scalar" : 1,
                          "metadata" : {
                            "AutoAppliedSmartFocus" : "False",
                            "clipSpeedAttribute" : false
                          }
                        },
                        {
                          "id" : 384,
                          "_type" : "UnifiedMedia",
                          "video" : 
                              {
                                "id" : 385,
                                "_type" : "ScreenVMFile",
                                "src" : 1,
                                "trackNumber" : 0,
                                "attributes" : {
                                  "ident" : "Rec 01-28-21_001"
                                },
                                "parameters" : {
                                  "cursorScale" : {
                                    "type" : "double",
                                    "defaultValue" : 0.0,
                                    "interp" : "linr"
                                  },
                                  "cursorOpacity" : {
                                    "type" : "double",
                                    "defaultValue" : 0.0,
                                    "interp" : "linr"
                                  }
                                },
                                "effects" : [

                                ],
                                "start" : 1235,
                                "duration" : 41,
                                "mediaStart" : 1948,
                                "mediaDuration" : 41,
                                "scalar" : 1,
                                "animationTracks" : {

                                }
                              },
                          "audio" : 
                              {
                                "id" : 386,
                                "_type" : "AMFile",
                                "src" : 1,
                                "trackNumber" : 1,
                                "attributes" : {
                                  "ident" : "",
                                  "gain" : 1.0,
                                  "mixToMono" : false
                                },
                                  "channelNumber" : "0,1",
                                "effects" : [

                                ],
                                "start" : 1235,
                                "duration" : 41,
                                "mediaStart" : 1948,
                                "mediaDuration" : 41,
                                "scalar" : 1,
                                "animationTracks" : {

                                }
                              }
,
                          "start" : 1235,
                          "duration" : 41,
                          "mediaStart" : 0,
                          "mediaDuration" : 10411,
                          "scalar" : 1,
                          "metadata" : {
                            "AutoAppliedSmartFocus" : "False",
                            "clipSpeedAttribute" : false
                          }
                        },
                        {
                          "id" : 387,
                          "_type" : "UnifiedMedia",
                          "video" : 
                              {
                                "id" : 388,
                                "_type" : "ScreenVMFile",
                                "src" : 1,
                                "trackNumber" : 0,
                                "attributes" : {
                                  "ident" : "Rec 01-28-21_001"
                                },
                                "parameters" : {
                                  "cursorScale" : {
                                    "type" : "double",
                                    "defaultValue" : 0.0,
                                    "interp" : "linr"
                                  },
                                  "cursorOpacity" : {
                                    "type" : "double",
                                    "defaultValue" : 0.0,
                                    "interp" : "linr"
                                  }
                                },
                                "effects" : [

                                ],
                                "start" : 1276,
                                "duration" : 55,
                                "mediaStart" : 2015,
                                "mediaDuration" : 55,
                                "scalar" : 1,
                                "animationTracks" : {

                                }
                              },
                          "audio" : 
                              {
                                "id" : 389,
                                "_type" : "AMFile",
                                "src" : 1,
                                "trackNumber" : 1,
                                "attributes" : {
                                  "ident" : "",
                                  "gain" : 1.0,
                                  "mixToMono" : false
                                },
                                  "channelNumber" : "0,1",
                                "effects" : [

                                ],
                                "start" : 1276,
                                "duration" : 55,
                                "mediaStart" : 2015,
                                "mediaDuration" : 55,
                                "scalar" : 1,
                                "animationTracks" : {

                                }
                              }
,
                          "start" : 1276,
                          "duration" : 55,
                          "mediaStart" : 0,
                          "mediaDuration" : 10411,
                          "scalar" : 1,
                          "metadata" : {
                            "AutoAppliedSmartFocus" : "False",
                            "clipSpeedAttribute" : false
                          }
                        },
                        {
                          "id" : 390,
                          "_type" : "UnifiedMedia",
                          "video" : 
                              {
                                "id" : 391,
                                "_type" : "ScreenVMFile",
                                "src" : 1,
                                "trackNumber" : 0,
                                "attributes" : {
                                  "ident" : "Rec 01-28-21_001"
                                },
                                "parameters" : {
                                  "cursorScale" : {
                                    "type" : "double",
                                    "defaultValue" : 0.0,
                                    "interp" : "linr"
                                  },
                                  "cursorOpacity" : {
                                    "type" : "double",
                                    "defaultValue" : 0.0,
                                    "interp" : "linr"
                                  }
                                },
                                "effects" : [

                                ],
                                "start" : 1331,
                                "duration" : 42,
                                "mediaStart" : 2110,
                                "mediaDuration" : 42,
                                "scalar" : 1,
                                "animationTracks" : {

                                }
                              },
                          "audio" : 
                              {
                                "id" : 392,
                                "_type" : "AMFile",
                                "src" : 1,
                                "trackNumber" : 1,
                                "attributes" : {
                                  "ident" : "",
                                  "gain" : 1.0,
                                  "mixToMono" : false
                                },
                                  "channelNumber" : "0,1",
                                "effects" : [

                                ],
                                "start" : 1331,
                                "duration" : 42,
                                "mediaStart" : 2110,
                                "mediaDuration" : 42,
                                "scalar" : 1,
                                "animationTracks" : {

                                }
                              }
,
                          "start" : 1331,
                          "duration" : 42,
                          "mediaStart" : 0,
                          "mediaDuration" : 10411,
                          "scalar" : 1,
                          "metadata" : {
                            "AutoAppliedSmartFocus" : "False",
                            "clipSpeedAttribute" : false
                          }
                        },
                        {
                          "id" : 393,
                          "_type" : "UnifiedMedia",
                          "video" : 
                              {
                                "id" : 394,
                                "_type" : "ScreenVMFile",
                                "src" : 1,
                                "trackNumber" : 0,
                                "attributes" : {
                                  "ident" : "Rec 01-28-21_001"
                                },
                                "parameters" : {
                                  "cursorScale" : {
                                    "type" : "double",
                                    "defaultValue" : 0.0,
                                    "interp" : "linr"
                                  },
                                  "cursorOpacity" : {
                                    "type" : "double",
                                    "defaultValue" : 0.0,
                                    "interp" : "linr"
                                  }
                                },
                                "effects" : [

                                ],
                                "start" : 1373,
                                "duration" : 23,
                                "mediaStart" : 2250,
                                "mediaDuration" : 23,
                                "scalar" : 1,
                                "animationTracks" : {

                                }
                              },
                          "audio" : 
                              {
                                "id" : 395,
                                "_type" : "AMFile",
                                "src" : 1,
                                "trackNumber" : 1,
                                "attributes" : {
                                  "ident" : "",
                                  "gain" : 1.0,
                                  "mixToMono" : false
                                },
                                  "channelNumber" : "0,1",
                                "effects" : [

                                ],
                                "start" : 1373,
                                "duration" : 23,
                                "mediaStart" : 2250,
                                "mediaDuration" : 23,
                                "scalar" : 1,
                                "animationTracks" : {

                                }
                              }
,
                          "start" : 1373,
                          "duration" : 23,
                          "mediaStart" : 0,
                          "mediaDuration" : 10411,
                          "scalar" : 1,
                          "metadata" : {
                            "AutoAppliedSmartFocus" : "False",
                            "clipSpeedAttribute" : false
                          }
                        },
                        {
                          "id" : 396,
                          "_type" : "UnifiedMedia",
                          "video" : 
                              {
                                "id" : 397,
                                "_type" : "ScreenVMFile",
                                "src" : 1,
                                "trackNumber" : 0,
                                "attributes" : {
                                  "ident" : "Rec 01-28-21_001"
                                },
                                "parameters" : {
                                  "cursorScale" : {
                                    "type" : "double",
                                    "defaultValue" : 0.0,
                                    "interp" : "linr"
                                  },
                                  "cursorOpacity" : {
                                    "type" : "double",
                                    "defaultValue" : 0.0,
                                    "interp" : "linr"
                                  }
                                },
                                "effects" : [

                                ],
                                "start" : 1396,
                                "duration" : 79,
                                "mediaStart" : 2299,
                                "mediaDuration" : 79,
                                "scalar" : 1,
                                "animationTracks" : {

                                }
                              },
                          "audio" : 
                              {
                                "id" : 398,
                                "_type" : "AMFile",
                                "src" : 1,
                                "trackNumber" : 1,
                                "attributes" : {
                                  "ident" : "",
                                  "gain" : 1.0,
                                  "mixToMono" : false
                                },
                                  "channelNumber" : "0,1",
                                "effects" : [

                                ],
                                "start" : 1396,
                                "duration" : 79,
                                "mediaStart" : 2299,
                                "mediaDuration" : 79,
                                "scalar" : 1,
                                "animationTracks" : {

                                }
                              }
,
                          "start" : 1396,
                          "duration" : 79,
                          "mediaStart" : 0,
                          "mediaDuration" : 10411,
                          "scalar" : 1,
                          "metadata" : {
                            "AutoAppliedSmartFocus" : "False",
                            "clipSpeedAttribute" : false
                          }
                        },
                        {
                          "id" : 399,
                          "_type" : "UnifiedMedia",
                          "video" : 
                              {
                                "id" : 400,
                                "_type" : "ScreenVMFile",
                                "src" : 1,
                                "trackNumber" : 0,
                                "attributes" : {
                                  "ident" : "Rec 01-28-21_001"
                                },
                                "parameters" : {
                                  "cursorScale" : {
                                    "type" : "double",
                                    "defaultValue" : 0.0,
                                    "interp" : "linr"
                                  },
                                  "cursorOpacity" : {
                                    "type" : "double",
                                    "defaultValue" : 0.0,
                                    "interp" : "linr"
                                  }
                                },
                                "effects" : [

                                ],
                                "start" : 1475,
                                "duration" : 64,
                                "mediaStart" : 2409,
                                "mediaDuration" : 64,
                                "scalar" : 1,
                                "animationTracks" : {

                                }
                              },
                          "audio" : 
                              {
                                "id" : 401,
                                "_type" : "AMFile",
                                "src" : 1,
                                "trackNumber" : 1,
                                "attributes" : {
                                  "ident" : "",
                                  "gain" : 1.0,
                                  "mixToMono" : false
                                },
                                  "channelNumber" : "0,1",
                                "effects" : [

                                ],
                                "start" : 1475,
                                "duration" : 64,
                                "mediaStart" : 2409,
                                "mediaDuration" : 64,
                                "scalar" : 1,
                                "animationTracks" : {

                                }
                              }
,
                          "start" : 1475,
                          "duration" : 64,
                          "mediaStart" : 0,
                          "mediaDuration" : 10411,
                          "scalar" : 1,
                          "metadata" : {
                            "AutoAppliedSmartFocus" : "False",
                            "clipSpeedAttribute" : false
                          }
                        },
                        {
                          "id" : 402,
                          "_type" : "UnifiedMedia",
                          "video" : 
                              {
                                "id" : 403,
                                "_type" : "ScreenVMFile",
                                "src" : 1,
                                "trackNumber" : 0,
                                "attributes" : {
                                  "ident" : "Rec 01-28-21_001"
                                },
                                "parameters" : {
                                  "cursorScale" : {
                                    "type" : "double",
                                    "defaultValue" : 0.0,
                                    "interp" : "linr"
                                  },
                                  "cursorOpacity" : {
                                    "type" : "double",
                                    "defaultValue" : 0.0,
                                    "interp" : "linr"
                                  }
                                },
                                "effects" : [

                                ],
                                "start" : 1539,
                                "duration" : 43,
                                "mediaStart" : 2478,
                                "mediaDuration" : 43,
                                "scalar" : 1,
                                "animationTracks" : {

                                }
                              },
                          "audio" : 
                              {
                                "id" : 404,
                                "_type" : "AMFile",
                                "src" : 1,
                                "trackNumber" : 1,
                                "attributes" : {
                                  "ident" : "",
                                  "gain" : 1.0,
                                  "mixToMono" : false
                                },
                                  "channelNumber" : "0,1",
                                "effects" : [

                                ],
                                "start" : 1539,
                                "duration" : 43,
                                "mediaStart" : 2478,
                                "mediaDuration" : 43,
                                "scalar" : 1,
                                "animationTracks" : {

                                }
                              }
,
                          "start" : 1539,
                          "duration" : 43,
                          "mediaStart" : 0,
                          "mediaDuration" : 10411,
                          "scalar" : 1,
                          "metadata" : {
                            "AutoAppliedSmartFocus" : "False",
                            "clipSpeedAttribute" : false
                          }
                        },
                        {
                          "id" : 405,
                          "_type" : "UnifiedMedia",
                          "video" : 
                              {
                                "id" : 406,
                                "_type" : "ScreenVMFile",
                                "src" : 1,
                                "trackNumber" : 0,
                                "attributes" : {
                                  "ident" : "Rec 01-28-21_001"
                                },
                                "parameters" : {
                                  "cursorScale" : {
                                    "type" : "double",
                                    "defaultValue" : 0.0,
                                    "interp" : "linr"
                                  },
                                  "cursorOpacity" : {
                                    "type" : "double",
                                    "defaultValue" : 0.0,
                                    "interp" : "linr"
                                  }
                                },
                                "effects" : [

                                ],
                                "start" : 1582,
                                "duration" : 47,
                                "mediaStart" : 2538,
                                "mediaDuration" : 47,
                                "scalar" : 1,
                                "animationTracks" : {

                                }
                              },
                          "audio" : 
                              {
                                "id" : 407,
                                "_type" : "AMFile",
                                "src" : 1,
                                "trackNumber" : 1,
                                "attributes" : {
                                  "ident" : "",
                                  "gain" : 1.0,
                                  "mixToMono" : false
                                },
                                  "channelNumber" : "0,1",
                                "effects" : [

                                ],
                                "start" : 1582,
                                "duration" : 47,
                                "mediaStart" : 2538,
                                "mediaDuration" : 47,
                                "scalar" : 1,
                                "animationTracks" : {

                                }
                              }
,
                          "start" : 1582,
                          "duration" : 47,
                          "mediaStart" : 0,
                          "mediaDuration" : 10411,
                          "scalar" : 1,
                          "metadata" : {
                            "AutoAppliedSmartFocus" : "False",
                            "clipSpeedAttribute" : false
                          }
                        },
                        {
                          "id" : 408,
                          "_type" : "UnifiedMedia",
                          "video" : 
                              {
                                "id" : 409,
                                "_type" : "ScreenVMFile",
                                "src" : 1,
                                "trackNumber" : 0,
                                "attributes" : {
                                  "ident" : "Rec 01-28-21_001"
                                },
                                "parameters" : {
                                  "cursorScale" : {
                                    "type" : "double",
                                    "defaultValue" : 0.0,
                                    "interp" : "linr"
                                  },
                                  "cursorOpacity" : {
                                    "type" : "double",
                                    "defaultValue" : 0.0,
                                    "interp" : "linr"
                                  }
                                },
                                "effects" : [

                                ],
                                "start" : 1629,
                                "duration" : 299,
                                "mediaStart" : 2613,
                                "mediaDuration" : 299,
                                "scalar" : 1,
                                "animationTracks" : {

                                }
                              },
                          "audio" : 
                              {
                                "id" : 410,
                                "_type" : "AMFile",
                                "src" : 1,
                                "trackNumber" : 1,
                                "attributes" : {
                                  "ident" : "",
                                  "gain" : 1.0,
                                  "mixToMono" : false
                                },
                                  "channelNumber" : "0,1",
                                "effects" : [

                                ],
                                "start" : 1629,
                                "duration" : 299,
                                "mediaStart" : 2613,
                                "mediaDuration" : 299,
                                "scalar" : 1,
                                "animationTracks" : {

                                }
                              }
,
                          "start" : 1629,
                          "duration" : 299,
                          "mediaStart" : 0,
                          "mediaDuration" : 10411,
                          "scalar" : 1,
                          "metadata" : {
                            "AutoAppliedSmartFocus" : "False",
                            "clipSpeedAttribute" : false
                          }
                        },
                        {
                          "id" : 411,
                          "_type" : "UnifiedMedia",
                          "video" : 
                              {
                                "id" : 412,
                                "_type" : "ScreenVMFile",
                                "src" : 1,
                                "trackNumber" : 0,
                                "attributes" : {
                                  "ident" : "Rec 01-28-21_001"
                                },
                                "parameters" : {
                                  "cursorScale" : {
                                    "type" : "double",
                                    "defaultValue" : 0.0,
                                    "interp" : "linr"
                                  },
                                  "cursorOpacity" : {
                                    "type" : "double",
                                    "defaultValue" : 0.0,
                                    "interp" : "linr"
                                  }
                                },
                                "effects" : [

                                ],
                                "start" : 1928,
                                "duration" : 53,
                                "mediaStart" : 3209,
                                "mediaDuration" : 53,
                                "scalar" : 1,
                                "animationTracks" : {

                                }
                              },
                          "audio" : 
                              {
                                "id" : 413,
                                "_type" : "AMFile",
                                "src" : 1,
                                "trackNumber" : 1,
                                "attributes" : {
                                  "ident" : "",
                                  "gain" : 1.0,
                                  "mixToMono" : false
                                },
                                  "channelNumber" : "0,1",
                                "effects" : [

                                ],
                                "start" : 1928,
                                "duration" : 53,
                                "mediaStart" : 3209,
                                "mediaDuration" : 53,
                                "scalar" : 1,
                                "animationTracks" : {

                                }
                              }
,
                          "start" : 1928,
                          "duration" : 53,
                          "mediaStart" : 0,
                          "mediaDuration" : 10411,
                          "scalar" : 1,
                          "metadata" : {
                            "AutoAppliedSmartFocus" : "False",
                            "clipSpeedAttribute" : false
                          }
                        },
                        {
                          "id" : 414,
                          "_type" : "UnifiedMedia",
                          "video" : 
                              {
                                "id" : 415,
                                "_type" : "ScreenVMFile",
                                "src" : 1,
                                "trackNumber" : 0,
                                "attributes" : {
                                  "ident" : "Rec 01-28-21_001"
                                },
                                "parameters" : {
                                  "cursorScale" : {
                                    "type" : "double",
                                    "defaultValue" : 0.0,
                                    "interp" : "linr"
                                  },
                                  "cursorOpacity" : {
                                    "type" : "double",
                                    "defaultValue" : 0.0,
                                    "interp" : "linr"
                                  }
                                },
                                "effects" : [

                                ],
                                "start" : 1981,
                                "duration" : 47,
                                "mediaStart" : 3282,
                                "mediaDuration" : 47,
                                "scalar" : 1,
                                "animationTracks" : {

                                }
                              },
                          "audio" : 
                              {
                                "id" : 416,
                                "_type" : "AMFile",
                                "src" : 1,
                                "trackNumber" : 1,
                                "attributes" : {
                                  "ident" : "",
                                  "gain" : 1.0,
                                  "mixToMono" : false
                                },
                                  "channelNumber" : "0,1",
                                "effects" : [

                                ],
                                "start" : 1981,
                                "duration" : 47,
                                "mediaStart" : 3282,
                                "mediaDuration" : 47,
                                "scalar" : 1,
                                "animationTracks" : {

                                }
                              }
,
                          "start" : 1981,
                          "duration" : 47,
                          "mediaStart" : 0,
                          "mediaDuration" : 10411,
                          "scalar" : 1,
                          "metadata" : {
                            "AutoAppliedSmartFocus" : "False",
                            "clipSpeedAttribute" : false
                          }
                        },
                        {
                          "id" : 417,
                          "_type" : "UnifiedMedia",
                          "video" : 
                              {
                                "id" : 418,
                                "_type" : "ScreenVMFile",
                                "src" : 1,
                                "trackNumber" : 0,
                                "attributes" : {
                                  "ident" : "Rec 01-28-21_001"
                                },
                                "parameters" : {
                                  "cursorScale" : {
                                    "type" : "double",
                                    "defaultValue" : 0.0,
                                    "interp" : "linr"
                                  },
                                  "cursorOpacity" : {
                                    "type" : "double",
                                    "defaultValue" : 0.0,
                                    "interp" : "linr"
                                  }
                                },
                                "effects" : [

                                ],
                                "start" : 2028,
                                "duration" : 103,
                                "mediaStart" : 3341,
                                "mediaDuration" : 103,
                                "scalar" : 1,
                                "animationTracks" : {

                                }
                              },
                          "audio" : 
                              {
                                "id" : 419,
                                "_type" : "AMFile",
                                "src" : 1,
                                "trackNumber" : 1,
                                "attributes" : {
                                  "ident" : "",
                                  "gain" : 1.0,
                                  "mixToMono" : false
                                },
                                  "channelNumber" : "0,1",
                                "effects" : [

                                ],
                                "start" : 2028,
                                "duration" : 103,
                                "mediaStart" : 3341,
                                "mediaDuration" : 103,
                                "scalar" : 1,
                                "animationTracks" : {

                                }
                              }
,
                          "start" : 2028,
                          "duration" : 103,
                          "mediaStart" : 0,
                          "mediaDuration" : 10411,
                          "scalar" : 1,
                          "metadata" : {
                            "AutoAppliedSmartFocus" : "False",
                            "clipSpeedAttribute" : false
                          }
                        },
                        {
                          "id" : 420,
                          "_type" : "UnifiedMedia",
                          "video" : 
                              {
                                "id" : 421,
                                "_type" : "ScreenVMFile",
                                "src" : 1,
                                "trackNumber" : 0,
                                "attributes" : {
                                  "ident" : "Rec 01-28-21_001"
                                },
                                "parameters" : {
                                  "cursorScale" : {
                                    "type" : "double",
                                    "defaultValue" : 0.0,
                                    "interp" : "linr"
                                  },
                                  "cursorOpacity" : {
                                    "type" : "double",
                                    "defaultValue" : 0.0,
                                    "interp" : "linr"
                                  }
                                },
                                "effects" : [

                                ],
                                "start" : 2131,
                                "duration" : 26,
                                "mediaStart" : 3468,
                                "mediaDuration" : 26,
                                "scalar" : 1,
                                "animationTracks" : {

                                }
                              },
                          "audio" : 
                              {
                                "id" : 422,
                                "_type" : "AMFile",
                                "src" : 1,
                                "trackNumber" : 1,
                                "attributes" : {
                                  "ident" : "",
                                  "gain" : 1.0,
                                  "mixToMono" : false
                                },
                                  "channelNumber" : "0,1",
                                "effects" : [

                                ],
                                "start" : 2131,
                                "duration" : 26,
                                "mediaStart" : 3468,
                                "mediaDuration" : 26,
                                "scalar" : 1,
                                "animationTracks" : {

                                }
                              }
,
                          "start" : 2131,
                          "duration" : 26,
                          "mediaStart" : 0,
                          "mediaDuration" : 10411,
                          "scalar" : 1,
                          "metadata" : {
                            "AutoAppliedSmartFocus" : "False",
                            "clipSpeedAttribute" : false
                          }
                        },
                        {
                          "id" : 423,
                          "_type" : "UnifiedMedia",
                          "video" : 
                              {
                                "id" : 424,
                                "_type" : "ScreenVMFile",
                                "src" : 1,
                                "trackNumber" : 0,
                                "attributes" : {
                                  "ident" : "Rec 01-28-21_001"
                                },
                                "parameters" : {
                                  "cursorScale" : {
                                    "type" : "double",
                                    "defaultValue" : 0.0,
                                    "interp" : "linr"
                                  },
                                  "cursorOpacity" : {
                                    "type" : "double",
                                    "defaultValue" : 0.0,
                                    "interp" : "linr"
                                  }
                                },
                                "effects" : [

                                ],
                                "start" : 2157,
                                "duration" : 41,
                                "mediaStart" : 3504,
                                "mediaDuration" : 41,
                                "scalar" : 1,
                                "animationTracks" : {

                                }
                              },
                          "audio" : 
                              {
                                "id" : 425,
                                "_type" : "AMFile",
                                "src" : 1,
                                "trackNumber" : 1,
                                "attributes" : {
                                  "ident" : "",
                                  "gain" : 1.0,
                                  "mixToMono" : false
                                },
                                  "channelNumber" : "0,1",
                                "effects" : [

                                ],
                                "start" : 2157,
                                "duration" : 41,
                                "mediaStart" : 3504,
                                "mediaDuration" : 41,
                                "scalar" : 1,
                                "animationTracks" : {

                                }
                              }
,
                          "start" : 2157,
                          "duration" : 41,
                          "mediaStart" : 0,
                          "mediaDuration" : 10411,
                          "scalar" : 1,
                          "metadata" : {
                            "AutoAppliedSmartFocus" : "False",
                            "clipSpeedAttribute" : false
                          }
                        },
                        {
                          "id" : 426,
                          "_type" : "UnifiedMedia",
                          "video" : 
                              {
                                "id" : 427,
                                "_type" : "ScreenVMFile",
                                "src" : 1,
                                "trackNumber" : 0,
                                "attributes" : {
                                  "ident" : "Rec 01-28-21_001"
                                },
                                "parameters" : {
                                  "cursorScale" : {
                                    "type" : "double",
                                    "defaultValue" : 0.0,
                                    "interp" : "linr"
                                  },
                                  "cursorOpacity" : {
                                    "type" : "double",
                                    "defaultValue" : 0.0,
                                    "interp" : "linr"
                                  }
                                },
                                "effects" : [

                                ],
                                "start" : 2198,
                                "duration" : 108,
                                "mediaStart" : 3657,
                                "mediaDuration" : 108,
                                "scalar" : 1,
                                "animationTracks" : {

                                }
                              },
                          "audio" : 
                              {
                                "id" : 428,
                                "_type" : "AMFile",
                                "src" : 1,
                                "trackNumber" : 1,
                                "attributes" : {
                                  "ident" : "",
                                  "gain" : 1.0,
                                  "mixToMono" : false
                                },
                                  "channelNumber" : "0,1",
                                "effects" : [

                                ],
                                "start" : 2198,
                                "duration" : 108,
                                "mediaStart" : 3657,
                                "mediaDuration" : 108,
                                "scalar" : 1,
                                "animationTracks" : {

                                }
                              }
,
                          "start" : 2198,
                          "duration" : 108,
                          "mediaStart" : 0,
                          "mediaDuration" : 10411,
                          "scalar" : 1,
                          "metadata" : {
                            "AutoAppliedSmartFocus" : "False",
                            "clipSpeedAttribute" : false
                          }
                        },
                        {
                          "id" : 429,
                          "_type" : "UnifiedMedia",
                          "video" : 
                              {
                                "id" : 430,
                                "_type" : "ScreenVMFile",
                                "src" : 1,
                                "trackNumber" : 0,
                                "attributes" : {
                                  "ident" : "Rec 01-28-21_001"
                                },
                                "parameters" : {
                                  "cursorScale" : {
                                    "type" : "double",
                                    "defaultValue" : 0.0,
                                    "interp" : "linr"
                                  },
                                  "cursorOpacity" : {
                                    "type" : "double",
                                    "defaultValue" : 0.0,
                                    "interp" : "linr"
                                  }
                                },
                                "effects" : [

                                ],
                                "start" : 2306,
                                "duration" : 124,
                                "mediaStart" : 3787,
                                "mediaDuration" : 124,
                                "scalar" : 1,
                                "animationTracks" : {

                                }
                              },
                          "audio" : 
                              {
                                "id" : 431,
                                "_type" : "AMFile",
                                "src" : 1,
                                "trackNumber" : 1,
                                "attributes" : {
                                  "ident" : "",
                                  "gain" : 1.0,
                                  "mixToMono" : false
                                },
                                  "channelNumber" : "0,1",
                                "effects" : [

                                ],
                                "start" : 2306,
                                "duration" : 124,
                                "mediaStart" : 3787,
                                "mediaDuration" : 124,
                                "scalar" : 1,
                                "animationTracks" : {

                                }
                              }
,
                          "start" : 2306,
                          "duration" : 124,
                          "mediaStart" : 0,
                          "mediaDuration" : 10411,
                          "scalar" : 1,
                          "metadata" : {
                            "AutoAppliedSmartFocus" : "False",
                            "clipSpeedAttribute" : false
                          }
                        },
                        {
                          "id" : 432,
                          "_type" : "UnifiedMedia",
                          "video" : 
                              {
                                "id" : 433,
                                "_type" : "ScreenVMFile",
                                "src" : 1,
                                "trackNumber" : 0,
                                "attributes" : {
                                  "ident" : "Rec 01-28-21_001"
                                },
                                "parameters" : {
                                  "cursorScale" : {
                                    "type" : "double",
                                    "defaultValue" : 0.0,
                                    "interp" : "linr"
                                  },
                                  "cursorOpacity" : {
                                    "type" : "double",
                                    "defaultValue" : 0.0,
                                    "interp" : "linr"
                                  }
                                },
                                "effects" : [

                                ],
                                "start" : 2430,
                                "duration" : 6420,
                                "mediaStart" : 3991,
                                "mediaDuration" : 6420,
                                "scalar" : 1,
                                "animationTracks" : {

                                }
                              },
                          "audio" : 
                              {
                                "id" : 434,
                                "_type" : "AMFile",
                                "src" : 1,
                                "trackNumber" : 1,
                                "attributes" : {
                                  "ident" : "",
                                  "gain" : 1.0,
                                  "mixToMono" : false
                                },
                                  "channelNumber" : "0,1",
                                "effects" : [

                                ],
                                "start" : 2430,
                                "duration" : 6420,
                                "mediaStart" : 3991,
                                "mediaDuration" : 6420,
                                "scalar" : 1,
                                "animationTracks" : {

                                }
                              }
,
                          "start" : 2430,
                          "duration" : 6420,
                          "mediaStart" : 0,
                          "mediaDuration" : 10411,
                          "scalar" : 1,
                          "metadata" : {
                            "AutoAppliedSmartFocus" : "False",
                            "clipSpeedAttribute" : false
                          }
                        }
                    ],
                    "effects" : [

                    ],
                    "start" : 2388,
                    "duration" : 65,
                    "mediaStart" : 2639,
                    "mediaDuration" : 65,
                    "scalar" : 1,
                    "metadata" : {
                      "AutoAppliedSmartFocus" : "False",
                      "clipSpeedAttribute" : false
                    },
                    "animationTracks" : {

                    }
                  },
                  {
                    "id" : 435,
                    "_type" : "StitchedMedia",
                    "minMediaStart" : 0,
                    "attributes" : {
                      "ident" : "Rec 01-28-21_001",
                      "gain" : 1.0,
                      "mixToMono" : false
                    },
                    "parameters" : {
                      "volume" : 1.0,
                      "cursorOpacity" : 1.0,
                      "cursorScale" : 1.0
                    },
                    "medias" : [
                        {
                          "id" : 436,
                          "_type" : "UnifiedMedia",
                          "video" : 
                              {
                                "id" : 437,
                                "_type" : "ScreenVMFile",
                                "src" : 1,
                                "trackNumber" : 0,
                                "attributes" : {
                                  "ident" : "Rec 01-28-21_001"
                                },
                                "parameters" : {
                                  "cursorScale" : {
                                    "type" : "double",
                                    "defaultValue" : 0.0,
                                    "interp" : "linr"
                                  },
                                  "cursorOpacity" : {
                                    "type" : "double",
                                    "defaultValue" : 0.0,
                                    "interp" : "linr"
                                  }
                                },
                                "effects" : [

                                ],
                                "start" : 0,
                                "duration" : 18,
                                "mediaStart" : 0,
                                "mediaDuration" : 18,
                                "scalar" : 1,
                                "animationTracks" : {

                                }
                              },
                          "audio" : 
                              {
                                "id" : 438,
                                "_type" : "AMFile",
                                "src" : 1,
                                "trackNumber" : 1,
                                "attributes" : {
                                  "ident" : "",
                                  "gain" : 1.0,
                                  "mixToMono" : false
                                },
                                  "channelNumber" : "0,1",
                                "effects" : [

                                ],
                                "start" : 0,
                                "duration" : 18,
                                "mediaStart" : 0,
                                "mediaDuration" : 18,
                                "scalar" : 1,
                                "animationTracks" : {

                                }
                              }
,
                          "start" : 0,
                          "duration" : 18,
                          "mediaStart" : 0,
                          "mediaDuration" : 10411,
                          "scalar" : 1,
                          "metadata" : {
                            "AutoAppliedSmartFocus" : "False",
                            "clipSpeedAttribute" : false
                          }
                        },
                        {
                          "id" : 439,
                          "_type" : "UnifiedMedia",
                          "video" : 
                              {
                                "id" : 440,
                                "_type" : "ScreenVMFile",
                                "src" : 1,
                                "trackNumber" : 0,
                                "attributes" : {
                                  "ident" : "Rec 01-28-21_001"
                                },
                                "parameters" : {
                                  "cursorScale" : {
                                    "type" : "double",
                                    "defaultValue" : 0.0,
                                    "interp" : "linr"
                                  },
                                  "cursorOpacity" : {
                                    "type" : "double",
                                    "defaultValue" : 0.0,
                                    "interp" : "linr"
                                  }
                                },
                                "effects" : [

                                ],
                                "start" : 18,
                                "duration" : 286,
                                "mediaStart" : 55,
                                "mediaDuration" : 286,
                                "scalar" : 1,
                                "animationTracks" : {

                                }
                              },
                          "audio" : 
                              {
                                "id" : 441,
                                "_type" : "AMFile",
                                "src" : 1,
                                "trackNumber" : 1,
                                "attributes" : {
                                  "ident" : "",
                                  "gain" : 1.0,
                                  "mixToMono" : false
                                },
                                  "channelNumber" : "0,1",
                                "effects" : [

                                ],
                                "start" : 18,
                                "duration" : 286,
                                "mediaStart" : 55,
                                "mediaDuration" : 286,
                                "scalar" : 1,
                                "animationTracks" : {

                                }
                              }
,
                          "start" : 18,
                          "duration" : 286,
                          "mediaStart" : 0,
                          "mediaDuration" : 10411,
                          "scalar" : 1,
                          "metadata" : {
                            "AutoAppliedSmartFocus" : "False",
                            "clipSpeedAttribute" : false
                          }
                        },
                        {
                          "id" : 442,
                          "_type" : "UnifiedMedia",
                          "video" : 
                              {
                                "id" : 443,
                                "_type" : "ScreenVMFile",
                                "src" : 1,
                                "trackNumber" : 0,
                                "attributes" : {
                                  "ident" : "Rec 01-28-21_001"
                                },
                                "parameters" : {
                                  "cursorScale" : {
                                    "type" : "double",
                                    "defaultValue" : 0.0,
                                    "interp" : "linr"
                                  },
                                  "cursorOpacity" : {
                                    "type" : "double",
                                    "defaultValue" : 0.0,
                                    "interp" : "linr"
                                  }
                                },
                                "effects" : [

                                ],
                                "start" : 304,
                                "duration" : 53,
                                "mediaStart" : 367,
                                "mediaDuration" : 53,
                                "scalar" : 1,
                                "animationTracks" : {

                                }
                              },
                          "audio" : 
                              {
                                "id" : 444,
                                "_type" : "AMFile",
                                "src" : 1,
                                "trackNumber" : 1,
                                "attributes" : {
                                  "ident" : "",
                                  "gain" : 1.0,
                                  "mixToMono" : false
                                },
                                  "channelNumber" : "0,1",
                                "effects" : [

                                ],
                                "start" : 304,
                                "duration" : 53,
                                "mediaStart" : 367,
                                "mediaDuration" : 53,
                                "scalar" : 1,
                                "animationTracks" : {

                                }
                              }
,
                          "start" : 304,
                          "duration" : 53,
                          "mediaStart" : 0,
                          "mediaDuration" : 10411,
                          "scalar" : 1,
                          "metadata" : {
                            "AutoAppliedSmartFocus" : "False",
                            "clipSpeedAttribute" : false
                          }
                        },
                        {
                          "id" : 445,
                          "_type" : "UnifiedMedia",
                          "video" : 
                              {
                                "id" : 446,
                                "_type" : "ScreenVMFile",
                                "src" : 1,
                                "trackNumber" : 0,
                                "attributes" : {
                                  "ident" : "Rec 01-28-21_001"
                                },
                                "parameters" : {
                                  "cursorScale" : {
                                    "type" : "double",
                                    "defaultValue" : 0.0,
                                    "interp" : "linr"
                                  },
                                  "cursorOpacity" : {
                                    "type" : "double",
                                    "defaultValue" : 0.0,
                                    "interp" : "linr"
                                  }
                                },
                                "effects" : [

                                ],
                                "start" : 357,
                                "duration" : 59,
                                "mediaStart" : 477,
                                "mediaDuration" : 59,
                                "scalar" : 1,
                                "animationTracks" : {

                                }
                              },
                          "audio" : 
                              {
                                "id" : 447,
                                "_type" : "AMFile",
                                "src" : 1,
                                "trackNumber" : 1,
                                "attributes" : {
                                  "ident" : "",
                                  "gain" : 1.0,
                                  "mixToMono" : false
                                },
                                  "channelNumber" : "0,1",
                                "effects" : [

                                ],
                                "start" : 357,
                                "duration" : 59,
                                "mediaStart" : 477,
                                "mediaDuration" : 59,
                                "scalar" : 1,
                                "animationTracks" : {

                                }
                              }
,
                          "start" : 357,
                          "duration" : 59,
                          "mediaStart" : 0,
                          "mediaDuration" : 10411,
                          "scalar" : 1,
                          "metadata" : {
                            "AutoAppliedSmartFocus" : "False",
                            "clipSpeedAttribute" : false
                          }
                        },
                        {
                          "id" : 448,
                          "_type" : "UnifiedMedia",
                          "video" : 
                              {
                                "id" : 449,
                                "_type" : "ScreenVMFile",
                                "src" : 1,
                                "trackNumber" : 0,
                                "attributes" : {
                                  "ident" : "Rec 01-28-21_001"
                                },
                                "parameters" : {
                                  "cursorScale" : {
                                    "type" : "double",
                                    "defaultValue" : 0.0,
                                    "interp" : "linr"
                                  },
                                  "cursorOpacity" : {
                                    "type" : "double",
                                    "defaultValue" : 0.0,
                                    "interp" : "linr"
                                  }
                                },
                                "effects" : [

                                ],
                                "start" : 416,
                                "duration" : 42,
                                "mediaStart" : 590,
                                "mediaDuration" : 42,
                                "scalar" : 1,
                                "animationTracks" : {

                                }
                              },
                          "audio" : 
                              {
                                "id" : 450,
                                "_type" : "AMFile",
                                "src" : 1,
                                "trackNumber" : 1,
                                "attributes" : {
                                  "ident" : "",
                                  "gain" : 1.0,
                                  "mixToMono" : false
                                },
                                  "channelNumber" : "0,1",
                                "effects" : [

                                ],
                                "start" : 416,
                                "duration" : 42,
                                "mediaStart" : 590,
                                "mediaDuration" : 42,
                                "scalar" : 1,
                                "animationTracks" : {

                                }
                              }
,
                          "start" : 416,
                          "duration" : 42,
                          "mediaStart" : 0,
                          "mediaDuration" : 10411,
                          "scalar" : 1,
                          "metadata" : {
                            "AutoAppliedSmartFocus" : "False",
                            "clipSpeedAttribute" : false
                          }
                        },
                        {
                          "id" : 451,
                          "_type" : "UnifiedMedia",
                          "video" : 
                              {
                                "id" : 452,
                                "_type" : "ScreenVMFile",
                                "src" : 1,
                                "trackNumber" : 0,
                                "attributes" : {
                                  "ident" : "Rec 01-28-21_001"
                                },
                                "parameters" : {
                                  "cursorScale" : {
                                    "type" : "double",
                                    "defaultValue" : 0.0,
                                    "interp" : "linr"
                                  },
                                  "cursorOpacity" : {
                                    "type" : "double",
                                    "defaultValue" : 0.0,
                                    "interp" : "linr"
                                  }
                                },
                                "effects" : [

                                ],
                                "start" : 458,
                                "duration" : 22,
                                "mediaStart" : 646,
                                "mediaDuration" : 22,
                                "scalar" : 1,
                                "animationTracks" : {

                                }
                              },
                          "audio" : 
                              {
                                "id" : 453,
                                "_type" : "AMFile",
                                "src" : 1,
                                "trackNumber" : 1,
                                "attributes" : {
                                  "ident" : "",
                                  "gain" : 1.0,
                                  "mixToMono" : false
                                },
                                  "channelNumber" : "0,1",
                                "effects" : [

                                ],
                                "start" : 458,
                                "duration" : 22,
                                "mediaStart" : 646,
                                "mediaDuration" : 22,
                                "scalar" : 1,
                                "animationTracks" : {

                                }
                              }
,
                          "start" : 458,
                          "duration" : 22,
                          "mediaStart" : 0,
                          "mediaDuration" : 10411,
                          "scalar" : 1,
                          "metadata" : {
                            "AutoAppliedSmartFocus" : "False",
                            "clipSpeedAttribute" : false
                          }
                        },
                        {
                          "id" : 454,
                          "_type" : "UnifiedMedia",
                          "video" : 
                              {
                                "id" : 455,
                                "_type" : "ScreenVMFile",
                                "src" : 1,
                                "trackNumber" : 0,
                                "attributes" : {
                                  "ident" : "Rec 01-28-21_001"
                                },
                                "parameters" : {
                                  "cursorScale" : {
                                    "type" : "double",
                                    "defaultValue" : 0.0,
                                    "interp" : "linr"
                                  },
                                  "cursorOpacity" : {
                                    "type" : "double",
                                    "defaultValue" : 0.0,
                                    "interp" : "linr"
                                  }
                                },
                                "effects" : [

                                ],
                                "start" : 480,
                                "duration" : 115,
                                "mediaStart" : 762,
                                "mediaDuration" : 115,
                                "scalar" : 1,
                                "animationTracks" : {

                                }
                              },
                          "audio" : 
                              {
                                "id" : 456,
                                "_type" : "AMFile",
                                "src" : 1,
                                "trackNumber" : 1,
                                "attributes" : {
                                  "ident" : "",
                                  "gain" : 1.0,
                                  "mixToMono" : false
                                },
                                  "channelNumber" : "0,1",
                                "effects" : [

                                ],
                                "start" : 480,
                                "duration" : 115,
                                "mediaStart" : 762,
                                "mediaDuration" : 115,
                                "scalar" : 1,
                                "animationTracks" : {

                                }
                              }
,
                          "start" : 480,
                          "duration" : 115,
                          "mediaStart" : 0,
                          "mediaDuration" : 10411,
                          "scalar" : 1,
                          "metadata" : {
                            "AutoAppliedSmartFocus" : "False",
                            "clipSpeedAttribute" : false
                          }
                        },
                        {
                          "id" : 457,
                          "_type" : "UnifiedMedia",
                          "video" : 
                              {
                                "id" : 458,
                                "_type" : "ScreenVMFile",
                                "src" : 1,
                                "trackNumber" : 0,
                                "attributes" : {
                                  "ident" : "Rec 01-28-21_001"
                                },
                                "parameters" : {
                                  "cursorScale" : {
                                    "type" : "double",
                                    "defaultValue" : 0.0,
                                    "interp" : "linr"
                                  },
                                  "cursorOpacity" : {
                                    "type" : "double",
                                    "defaultValue" : 0.0,
                                    "interp" : "linr"
                                  }
                                },
                                "effects" : [

                                ],
                                "start" : 595,
                                "duration" : 154,
                                "mediaStart" : 1024,
                                "mediaDuration" : 154,
                                "scalar" : 1,
                                "animationTracks" : {

                                }
                              },
                          "audio" : 
                              {
                                "id" : 459,
                                "_type" : "AMFile",
                                "src" : 1,
                                "trackNumber" : 1,
                                "attributes" : {
                                  "ident" : "",
                                  "gain" : 1.0,
                                  "mixToMono" : false
                                },
                                  "channelNumber" : "0,1",
                                "effects" : [

                                ],
                                "start" : 595,
                                "duration" : 154,
                                "mediaStart" : 1024,
                                "mediaDuration" : 154,
                                "scalar" : 1,
                                "animationTracks" : {

                                }
                              }
,
                          "start" : 595,
                          "duration" : 154,
                          "mediaStart" : 0,
                          "mediaDuration" : 10411,
                          "scalar" : 1,
                          "metadata" : {
                            "AutoAppliedSmartFocus" : "False",
                            "clipSpeedAttribute" : false
                          }
                        },
                        {
                          "id" : 460,
                          "_type" : "UnifiedMedia",
                          "video" : 
                              {
                                "id" : 461,
                                "_type" : "ScreenVMFile",
                                "src" : 1,
                                "trackNumber" : 0,
                                "attributes" : {
                                  "ident" : "Rec 01-28-21_001"
                                },
                                "parameters" : {
                                  "cursorScale" : {
                                    "type" : "double",
                                    "defaultValue" : 0.0,
                                    "interp" : "linr"
                                  },
                                  "cursorOpacity" : {
                                    "type" : "double",
                                    "defaultValue" : 0.0,
                                    "interp" : "linr"
                                  }
                                },
                                "effects" : [

                                ],
                                "start" : 749,
                                "duration" : 135,
                                "mediaStart" : 1207,
                                "mediaDuration" : 135,
                                "scalar" : 1,
                                "animationTracks" : {

                                }
                              },
                          "audio" : 
                              {
                                "id" : 462,
                                "_type" : "AMFile",
                                "src" : 1,
                                "trackNumber" : 1,
                                "attributes" : {
                                  "ident" : "",
                                  "gain" : 1.0,
                                  "mixToMono" : false
                                },
                                  "channelNumber" : "0,1",
                                "effects" : [

                                ],
                                "start" : 749,
                                "duration" : 135,
                                "mediaStart" : 1207,
                                "mediaDuration" : 135,
                                "scalar" : 1,
                                "animationTracks" : {

                                }
                              }
,
                          "start" : 749,
                          "duration" : 135,
                          "mediaStart" : 0,
                          "mediaDuration" : 10411,
                          "scalar" : 1,
                          "metadata" : {
                            "AutoAppliedSmartFocus" : "False",
                            "clipSpeedAttribute" : false
                          }
                        },
                        {
                          "id" : 463,
                          "_type" : "UnifiedMedia",
                          "video" : 
                              {
                                "id" : 464,
                                "_type" : "ScreenVMFile",
                                "src" : 1,
                                "trackNumber" : 0,
                                "attributes" : {
                                  "ident" : "Rec 01-28-21_001"
                                },
                                "parameters" : {
                                  "cursorScale" : {
                                    "type" : "double",
                                    "defaultValue" : 0.0,
                                    "interp" : "linr"
                                  },
                                  "cursorOpacity" : {
                                    "type" : "double",
                                    "defaultValue" : 0.0,
                                    "interp" : "linr"
                                  }
                                },
                                "effects" : [

                                ],
                                "start" : 884,
                                "duration" : 150,
                                "mediaStart" : 1383,
                                "mediaDuration" : 150,
                                "scalar" : 1,
                                "animationTracks" : {

                                }
                              },
                          "audio" : 
                              {
                                "id" : 465,
                                "_type" : "AMFile",
                                "src" : 1,
                                "trackNumber" : 1,
                                "attributes" : {
                                  "ident" : "",
                                  "gain" : 1.0,
                                  "mixToMono" : false
                                },
                                  "channelNumber" : "0,1",
                                "effects" : [

                                ],
                                "start" : 884,
                                "duration" : 150,
                                "mediaStart" : 1383,
                                "mediaDuration" : 150,
                                "scalar" : 1,
                                "animationTracks" : {

                                }
                              }
,
                          "start" : 884,
                          "duration" : 150,
                          "mediaStart" : 0,
                          "mediaDuration" : 10411,
                          "scalar" : 1,
                          "metadata" : {
                            "AutoAppliedSmartFocus" : "False",
                            "clipSpeedAttribute" : false
                          }
                        },
                        {
                          "id" : 466,
                          "_type" : "UnifiedMedia",
                          "video" : 
                              {
                                "id" : 467,
                                "_type" : "ScreenVMFile",
                                "src" : 1,
                                "trackNumber" : 0,
                                "attributes" : {
                                  "ident" : "Rec 01-28-21_001"
                                },
                                "parameters" : {
                                  "cursorScale" : {
                                    "type" : "double",
                                    "defaultValue" : 0.0,
                                    "interp" : "linr"
                                  },
                                  "cursorOpacity" : {
                                    "type" : "double",
                                    "defaultValue" : 0.0,
                                    "interp" : "linr"
                                  }
                                },
                                "effects" : [

                                ],
                                "start" : 1034,
                                "duration" : 89,
                                "mediaStart" : 1607,
                                "mediaDuration" : 89,
                                "scalar" : 1,
                                "animationTracks" : {

                                }
                              },
                          "audio" : 
                              {
                                "id" : 468,
                                "_type" : "AMFile",
                                "src" : 1,
                                "trackNumber" : 1,
                                "attributes" : {
                                  "ident" : "",
                                  "gain" : 1.0,
                                  "mixToMono" : false
                                },
                                  "channelNumber" : "0,1",
                                "effects" : [

                                ],
                                "start" : 1034,
                                "duration" : 89,
                                "mediaStart" : 1607,
                                "mediaDuration" : 89,
                                "scalar" : 1,
                                "animationTracks" : {

                                }
                              }
,
                          "start" : 1034,
                          "duration" : 89,
                          "mediaStart" : 0,
                          "mediaDuration" : 10411,
                          "scalar" : 1,
                          "metadata" : {
                            "AutoAppliedSmartFocus" : "False",
                            "clipSpeedAttribute" : false
                          }
                        },
                        {
                          "id" : 469,
                          "_type" : "UnifiedMedia",
                          "video" : 
                              {
                                "id" : 470,
                                "_type" : "ScreenVMFile",
                                "src" : 1,
                                "trackNumber" : 0,
                                "attributes" : {
                                  "ident" : "Rec 01-28-21_001"
                                },
                                "parameters" : {
                                  "cursorScale" : {
                                    "type" : "double",
                                    "defaultValue" : 0.0,
                                    "interp" : "linr"
                                  },
                                  "cursorOpacity" : {
                                    "type" : "double",
                                    "defaultValue" : 0.0,
                                    "interp" : "linr"
                                  }
                                },
                                "effects" : [

                                ],
                                "start" : 1123,
                                "duration" : 37,
                                "mediaStart" : 1752,
                                "mediaDuration" : 37,
                                "scalar" : 1,
                                "animationTracks" : {

                                }
                              },
                          "audio" : 
                              {
                                "id" : 471,
                                "_type" : "AMFile",
                                "src" : 1,
                                "trackNumber" : 1,
                                "attributes" : {
                                  "ident" : "",
                                  "gain" : 1.0,
                                  "mixToMono" : false
                                },
                                  "channelNumber" : "0,1",
                                "effects" : [

                                ],
                                "start" : 1123,
                                "duration" : 37,
                                "mediaStart" : 1752,
                                "mediaDuration" : 37,
                                "scalar" : 1,
                                "animationTracks" : {

                                }
                              }
,
                          "start" : 1123,
                          "duration" : 37,
                          "mediaStart" : 0,
                          "mediaDuration" : 10411,
                          "scalar" : 1,
                          "metadata" : {
                            "AutoAppliedSmartFocus" : "False",
                            "clipSpeedAttribute" : false
                          }
                        },
                        {
                          "id" : 472,
                          "_type" : "UnifiedMedia",
                          "video" : 
                              {
                                "id" : 473,
                                "_type" : "ScreenVMFile",
                                "src" : 1,
                                "trackNumber" : 0,
                                "attributes" : {
                                  "ident" : "Rec 01-28-21_001"
                                },
                                "parameters" : {
                                  "cursorScale" : {
                                    "type" : "double",
                                    "defaultValue" : 0.0,
                                    "interp" : "linr"
                                  },
                                  "cursorOpacity" : {
                                    "type" : "double",
                                    "defaultValue" : 0.0,
                                    "interp" : "linr"
                                  }
                                },
                                "effects" : [

                                ],
                                "start" : 1160,
                                "duration" : 34,
                                "mediaStart" : 1836,
                                "mediaDuration" : 34,
                                "scalar" : 1,
                                "animationTracks" : {

                                }
                              },
                          "audio" : 
                              {
                                "id" : 474,
                                "_type" : "AMFile",
                                "src" : 1,
                                "trackNumber" : 1,
                                "attributes" : {
                                  "ident" : "",
                                  "gain" : 1.0,
                                  "mixToMono" : false
                                },
                                  "channelNumber" : "0,1",
                                "effects" : [

                                ],
                                "start" : 1160,
                                "duration" : 34,
                                "mediaStart" : 1836,
                                "mediaDuration" : 34,
                                "scalar" : 1,
                                "animationTracks" : {

                                }
                              }
,
                          "start" : 1160,
                          "duration" : 34,
                          "mediaStart" : 0,
                          "mediaDuration" : 10411,
                          "scalar" : 1,
                          "metadata" : {
                            "AutoAppliedSmartFocus" : "False",
                            "clipSpeedAttribute" : false
                          }
                        },
                        {
                          "id" : 475,
                          "_type" : "UnifiedMedia",
                          "video" : 
                              {
                                "id" : 476,
                                "_type" : "ScreenVMFile",
                                "src" : 1,
                                "trackNumber" : 0,
                                "attributes" : {
                                  "ident" : "Rec 01-28-21_001"
                                },
                                "parameters" : {
                                  "cursorScale" : {
                                    "type" : "double",
                                    "defaultValue" : 0.0,
                                    "interp" : "linr"
                                  },
                                  "cursorOpacity" : {
                                    "type" : "double",
                                    "defaultValue" : 0.0,
                                    "interp" : "linr"
                                  }
                                },
                                "effects" : [

                                ],
                                "start" : 1194,
                                "duration" : 41,
                                "mediaStart" : 1882,
                                "mediaDuration" : 41,
                                "scalar" : 1,
                                "animationTracks" : {

                                }
                              },
                          "audio" : 
                              {
                                "id" : 477,
                                "_type" : "AMFile",
                                "src" : 1,
                                "trackNumber" : 1,
                                "attributes" : {
                                  "ident" : "",
                                  "gain" : 1.0,
                                  "mixToMono" : false
                                },
                                  "channelNumber" : "0,1",
                                "effects" : [

                                ],
                                "start" : 1194,
                                "duration" : 41,
                                "mediaStart" : 1882,
                                "mediaDuration" : 41,
                                "scalar" : 1,
                                "animationTracks" : {

                                }
                              }
,
                          "start" : 1194,
                          "duration" : 41,
                          "mediaStart" : 0,
                          "mediaDuration" : 10411,
                          "scalar" : 1,
                          "metadata" : {
                            "AutoAppliedSmartFocus" : "False",
                            "clipSpeedAttribute" : false
                          }
                        },
                        {
                          "id" : 478,
                          "_type" : "UnifiedMedia",
                          "video" : 
                              {
                                "id" : 479,
                                "_type" : "ScreenVMFile",
                                "src" : 1,
                                "trackNumber" : 0,
                                "attributes" : {
                                  "ident" : "Rec 01-28-21_001"
                                },
                                "parameters" : {
                                  "cursorScale" : {
                                    "type" : "double",
                                    "defaultValue" : 0.0,
                                    "interp" : "linr"
                                  },
                                  "cursorOpacity" : {
                                    "type" : "double",
                                    "defaultValue" : 0.0,
                                    "interp" : "linr"
                                  }
                                },
                                "effects" : [

                                ],
                                "start" : 1235,
                                "duration" : 41,
                                "mediaStart" : 1948,
                                "mediaDuration" : 41,
                                "scalar" : 1,
                                "animationTracks" : {

                                }
                              },
                          "audio" : 
                              {
                                "id" : 480,
                                "_type" : "AMFile",
                                "src" : 1,
                                "trackNumber" : 1,
                                "attributes" : {
                                  "ident" : "",
                                  "gain" : 1.0,
                                  "mixToMono" : false
                                },
                                  "channelNumber" : "0,1",
                                "effects" : [

                                ],
                                "start" : 1235,
                                "duration" : 41,
                                "mediaStart" : 1948,
                                "mediaDuration" : 41,
                                "scalar" : 1,
                                "animationTracks" : {

                                }
                              }
,
                          "start" : 1235,
                          "duration" : 41,
                          "mediaStart" : 0,
                          "mediaDuration" : 10411,
                          "scalar" : 1,
                          "metadata" : {
                            "AutoAppliedSmartFocus" : "False",
                            "clipSpeedAttribute" : false
                          }
                        },
                        {
                          "id" : 481,
                          "_type" : "UnifiedMedia",
                          "video" : 
                              {
                                "id" : 482,
                                "_type" : "ScreenVMFile",
                                "src" : 1,
                                "trackNumber" : 0,
                                "attributes" : {
                                  "ident" : "Rec 01-28-21_001"
                                },
                                "parameters" : {
                                  "cursorScale" : {
                                    "type" : "double",
                                    "defaultValue" : 0.0,
                                    "interp" : "linr"
                                  },
                                  "cursorOpacity" : {
                                    "type" : "double",
                                    "defaultValue" : 0.0,
                                    "interp" : "linr"
                                  }
                                },
                                "effects" : [

                                ],
                                "start" : 1276,
                                "duration" : 55,
                                "mediaStart" : 2015,
                                "mediaDuration" : 55,
                                "scalar" : 1,
                                "animationTracks" : {

                                }
                              },
                          "audio" : 
                              {
                                "id" : 483,
                                "_type" : "AMFile",
                                "src" : 1,
                                "trackNumber" : 1,
                                "attributes" : {
                                  "ident" : "",
                                  "gain" : 1.0,
                                  "mixToMono" : false
                                },
                                  "channelNumber" : "0,1",
                                "effects" : [

                                ],
                                "start" : 1276,
                                "duration" : 55,
                                "mediaStart" : 2015,
                                "mediaDuration" : 55,
                                "scalar" : 1,
                                "animationTracks" : {

                                }
                              }
,
                          "start" : 1276,
                          "duration" : 55,
                          "mediaStart" : 0,
                          "mediaDuration" : 10411,
                          "scalar" : 1,
                          "metadata" : {
                            "AutoAppliedSmartFocus" : "False",
                            "clipSpeedAttribute" : false
                          }
                        },
                        {
                          "id" : 484,
                          "_type" : "UnifiedMedia",
                          "video" : 
                              {
                                "id" : 485,
                                "_type" : "ScreenVMFile",
                                "src" : 1,
                                "trackNumber" : 0,
                                "attributes" : {
                                  "ident" : "Rec 01-28-21_001"
                                },
                                "parameters" : {
                                  "cursorScale" : {
                                    "type" : "double",
                                    "defaultValue" : 0.0,
                                    "interp" : "linr"
                                  },
                                  "cursorOpacity" : {
                                    "type" : "double",
                                    "defaultValue" : 0.0,
                                    "interp" : "linr"
                                  }
                                },
                                "effects" : [

                                ],
                                "start" : 1331,
                                "duration" : 42,
                                "mediaStart" : 2110,
                                "mediaDuration" : 42,
                                "scalar" : 1,
                                "animationTracks" : {

                                }
                              },
                          "audio" : 
                              {
                                "id" : 486,
                                "_type" : "AMFile",
                                "src" : 1,
                                "trackNumber" : 1,
                                "attributes" : {
                                  "ident" : "",
                                  "gain" : 1.0,
                                  "mixToMono" : false
                                },
                                  "channelNumber" : "0,1",
                                "effects" : [

                                ],
                                "start" : 1331,
                                "duration" : 42,
                                "mediaStart" : 2110,
                                "mediaDuration" : 42,
                                "scalar" : 1,
                                "animationTracks" : {

                                }
                              }
,
                          "start" : 1331,
                          "duration" : 42,
                          "mediaStart" : 0,
                          "mediaDuration" : 10411,
                          "scalar" : 1,
                          "metadata" : {
                            "AutoAppliedSmartFocus" : "False",
                            "clipSpeedAttribute" : false
                          }
                        },
                        {
                          "id" : 487,
                          "_type" : "UnifiedMedia",
                          "video" : 
                              {
                                "id" : 488,
                                "_type" : "ScreenVMFile",
                                "src" : 1,
                                "trackNumber" : 0,
                                "attributes" : {
                                  "ident" : "Rec 01-28-21_001"
                                },
                                "parameters" : {
                                  "cursorScale" : {
                                    "type" : "double",
                                    "defaultValue" : 0.0,
                                    "interp" : "linr"
                                  },
                                  "cursorOpacity" : {
                                    "type" : "double",
                                    "defaultValue" : 0.0,
                                    "interp" : "linr"
                                  }
                                },
                                "effects" : [

                                ],
                                "start" : 1373,
                                "duration" : 23,
                                "mediaStart" : 2250,
                                "mediaDuration" : 23,
                                "scalar" : 1,
                                "animationTracks" : {

                                }
                              },
                          "audio" : 
                              {
                                "id" : 489,
                                "_type" : "AMFile",
                                "src" : 1,
                                "trackNumber" : 1,
                                "attributes" : {
                                  "ident" : "",
                                  "gain" : 1.0,
                                  "mixToMono" : false
                                },
                                  "channelNumber" : "0,1",
                                "effects" : [

                                ],
                                "start" : 1373,
                                "duration" : 23,
                                "mediaStart" : 2250,
                                "mediaDuration" : 23,
                                "scalar" : 1,
                                "animationTracks" : {

                                }
                              }
,
                          "start" : 1373,
                          "duration" : 23,
                          "mediaStart" : 0,
                          "mediaDuration" : 10411,
                          "scalar" : 1,
                          "metadata" : {
                            "AutoAppliedSmartFocus" : "False",
                            "clipSpeedAttribute" : false
                          }
                        },
                        {
                          "id" : 490,
                          "_type" : "UnifiedMedia",
                          "video" : 
                              {
                                "id" : 491,
                                "_type" : "ScreenVMFile",
                                "src" : 1,
                                "trackNumber" : 0,
                                "attributes" : {
                                  "ident" : "Rec 01-28-21_001"
                                },
                                "parameters" : {
                                  "cursorScale" : {
                                    "type" : "double",
                                    "defaultValue" : 0.0,
                                    "interp" : "linr"
                                  },
                                  "cursorOpacity" : {
                                    "type" : "double",
                                    "defaultValue" : 0.0,
                                    "interp" : "linr"
                                  }
                                },
                                "effects" : [

                                ],
                                "start" : 1396,
                                "duration" : 79,
                                "mediaStart" : 2299,
                                "mediaDuration" : 79,
                                "scalar" : 1,
                                "animationTracks" : {

                                }
                              },
                          "audio" : 
                              {
                                "id" : 492,
                                "_type" : "AMFile",
                                "src" : 1,
                                "trackNumber" : 1,
                                "attributes" : {
                                  "ident" : "",
                                  "gain" : 1.0,
                                  "mixToMono" : false
                                },
                                  "channelNumber" : "0,1",
                                "effects" : [

                                ],
                                "start" : 1396,
                                "duration" : 79,
                                "mediaStart" : 2299,
                                "mediaDuration" : 79,
                                "scalar" : 1,
                                "animationTracks" : {

                                }
                              }
,
                          "start" : 1396,
                          "duration" : 79,
                          "mediaStart" : 0,
                          "mediaDuration" : 10411,
                          "scalar" : 1,
                          "metadata" : {
                            "AutoAppliedSmartFocus" : "False",
                            "clipSpeedAttribute" : false
                          }
                        },
                        {
                          "id" : 493,
                          "_type" : "UnifiedMedia",
                          "video" : 
                              {
                                "id" : 494,
                                "_type" : "ScreenVMFile",
                                "src" : 1,
                                "trackNumber" : 0,
                                "attributes" : {
                                  "ident" : "Rec 01-28-21_001"
                                },
                                "parameters" : {
                                  "cursorScale" : {
                                    "type" : "double",
                                    "defaultValue" : 0.0,
                                    "interp" : "linr"
                                  },
                                  "cursorOpacity" : {
                                    "type" : "double",
                                    "defaultValue" : 0.0,
                                    "interp" : "linr"
                                  }
                                },
                                "effects" : [

                                ],
                                "start" : 1475,
                                "duration" : 64,
                                "mediaStart" : 2409,
                                "mediaDuration" : 64,
                                "scalar" : 1,
                                "animationTracks" : {

                                }
                              },
                          "audio" : 
                              {
                                "id" : 495,
                                "_type" : "AMFile",
                                "src" : 1,
                                "trackNumber" : 1,
                                "attributes" : {
                                  "ident" : "",
                                  "gain" : 1.0,
                                  "mixToMono" : false
                                },
                                  "channelNumber" : "0,1",
                                "effects" : [

                                ],
                                "start" : 1475,
                                "duration" : 64,
                                "mediaStart" : 2409,
                                "mediaDuration" : 64,
                                "scalar" : 1,
                                "animationTracks" : {

                                }
                              }
,
                          "start" : 1475,
                          "duration" : 64,
                          "mediaStart" : 0,
                          "mediaDuration" : 10411,
                          "scalar" : 1,
                          "metadata" : {
                            "AutoAppliedSmartFocus" : "False",
                            "clipSpeedAttribute" : false
                          }
                        },
                        {
                          "id" : 496,
                          "_type" : "UnifiedMedia",
                          "video" : 
                              {
                                "id" : 497,
                                "_type" : "ScreenVMFile",
                                "src" : 1,
                                "trackNumber" : 0,
                                "attributes" : {
                                  "ident" : "Rec 01-28-21_001"
                                },
                                "parameters" : {
                                  "cursorScale" : {
                                    "type" : "double",
                                    "defaultValue" : 0.0,
                                    "interp" : "linr"
                                  },
                                  "cursorOpacity" : {
                                    "type" : "double",
                                    "defaultValue" : 0.0,
                                    "interp" : "linr"
                                  }
                                },
                                "effects" : [

                                ],
                                "start" : 1539,
                                "duration" : 43,
                                "mediaStart" : 2478,
                                "mediaDuration" : 43,
                                "scalar" : 1,
                                "animationTracks" : {

                                }
                              },
                          "audio" : 
                              {
                                "id" : 498,
                                "_type" : "AMFile",
                                "src" : 1,
                                "trackNumber" : 1,
                                "attributes" : {
                                  "ident" : "",
                                  "gain" : 1.0,
                                  "mixToMono" : false
                                },
                                  "channelNumber" : "0,1",
                                "effects" : [

                                ],
                                "start" : 1539,
                                "duration" : 43,
                                "mediaStart" : 2478,
                                "mediaDuration" : 43,
                                "scalar" : 1,
                                "animationTracks" : {

                                }
                              }
,
                          "start" : 1539,
                          "duration" : 43,
                          "mediaStart" : 0,
                          "mediaDuration" : 10411,
                          "scalar" : 1,
                          "metadata" : {
                            "AutoAppliedSmartFocus" : "False",
                            "clipSpeedAttribute" : false
                          }
                        },
                        {
                          "id" : 499,
                          "_type" : "UnifiedMedia",
                          "video" : 
                              {
                                "id" : 500,
                                "_type" : "ScreenVMFile",
                                "src" : 1,
                                "trackNumber" : 0,
                                "attributes" : {
                                  "ident" : "Rec 01-28-21_001"
                                },
                                "parameters" : {
                                  "cursorScale" : {
                                    "type" : "double",
                                    "defaultValue" : 0.0,
                                    "interp" : "linr"
                                  },
                                  "cursorOpacity" : {
                                    "type" : "double",
                                    "defaultValue" : 0.0,
                                    "interp" : "linr"
                                  }
                                },
                                "effects" : [

                                ],
                                "start" : 1582,
                                "duration" : 47,
                                "mediaStart" : 2538,
                                "mediaDuration" : 47,
                                "scalar" : 1,
                                "animationTracks" : {

                                }
                              },
                          "audio" : 
                              {
                                "id" : 501,
                                "_type" : "AMFile",
                                "src" : 1,
                                "trackNumber" : 1,
                                "attributes" : {
                                  "ident" : "",
                                  "gain" : 1.0,
                                  "mixToMono" : false
                                },
                                  "channelNumber" : "0,1",
                                "effects" : [

                                ],
                                "start" : 1582,
                                "duration" : 47,
                                "mediaStart" : 2538,
                                "mediaDuration" : 47,
                                "scalar" : 1,
                                "animationTracks" : {

                                }
                              }
,
                          "start" : 1582,
                          "duration" : 47,
                          "mediaStart" : 0,
                          "mediaDuration" : 10411,
                          "scalar" : 1,
                          "metadata" : {
                            "AutoAppliedSmartFocus" : "False",
                            "clipSpeedAttribute" : false
                          }
                        },
                        {
                          "id" : 502,
                          "_type" : "UnifiedMedia",
                          "video" : 
                              {
                                "id" : 503,
                                "_type" : "ScreenVMFile",
                                "src" : 1,
                                "trackNumber" : 0,
                                "attributes" : {
                                  "ident" : "Rec 01-28-21_001"
                                },
                                "parameters" : {
                                  "cursorScale" : {
                                    "type" : "double",
                                    "defaultValue" : 0.0,
                                    "interp" : "linr"
                                  },
                                  "cursorOpacity" : {
                                    "type" : "double",
                                    "defaultValue" : 0.0,
                                    "interp" : "linr"
                                  }
                                },
                                "effects" : [

                                ],
                                "start" : 1629,
                                "duration" : 299,
                                "mediaStart" : 2613,
                                "mediaDuration" : 299,
                                "scalar" : 1,
                                "animationTracks" : {

                                }
                              },
                          "audio" : 
                              {
                                "id" : 504,
                                "_type" : "AMFile",
                                "src" : 1,
                                "trackNumber" : 1,
                                "attributes" : {
                                  "ident" : "",
                                  "gain" : 1.0,
                                  "mixToMono" : false
                                },
                                  "channelNumber" : "0,1",
                                "effects" : [

                                ],
                                "start" : 1629,
                                "duration" : 299,
                                "mediaStart" : 2613,
                                "mediaDuration" : 299,
                                "scalar" : 1,
                                "animationTracks" : {

                                }
                              }
,
                          "start" : 1629,
                          "duration" : 299,
                          "mediaStart" : 0,
                          "mediaDuration" : 10411,
                          "scalar" : 1,
                          "metadata" : {
                            "AutoAppliedSmartFocus" : "False",
                            "clipSpeedAttribute" : false
                          }
                        },
                        {
                          "id" : 505,
                          "_type" : "UnifiedMedia",
                          "video" : 
                              {
                                "id" : 506,
                                "_type" : "ScreenVMFile",
                                "src" : 1,
                                "trackNumber" : 0,
                                "attributes" : {
                                  "ident" : "Rec 01-28-21_001"
                                },
                                "parameters" : {
                                  "cursorScale" : {
                                    "type" : "double",
                                    "defaultValue" : 0.0,
                                    "interp" : "linr"
                                  },
                                  "cursorOpacity" : {
                                    "type" : "double",
                                    "defaultValue" : 0.0,
                                    "interp" : "linr"
                                  }
                                },
                                "effects" : [

                                ],
                                "start" : 1928,
                                "duration" : 53,
                                "mediaStart" : 3209,
                                "mediaDuration" : 53,
                                "scalar" : 1,
                                "animationTracks" : {

                                }
                              },
                          "audio" : 
                              {
                                "id" : 507,
                                "_type" : "AMFile",
                                "src" : 1,
                                "trackNumber" : 1,
                                "attributes" : {
                                  "ident" : "",
                                  "gain" : 1.0,
                                  "mixToMono" : false
                                },
                                  "channelNumber" : "0,1",
                                "effects" : [

                                ],
                                "start" : 1928,
                                "duration" : 53,
                                "mediaStart" : 3209,
                                "mediaDuration" : 53,
                                "scalar" : 1,
                                "animationTracks" : {

                                }
                              }
,
                          "start" : 1928,
                          "duration" : 53,
                          "mediaStart" : 0,
                          "mediaDuration" : 10411,
                          "scalar" : 1,
                          "metadata" : {
                            "AutoAppliedSmartFocus" : "False",
                            "clipSpeedAttribute" : false
                          }
                        },
                        {
                          "id" : 508,
                          "_type" : "UnifiedMedia",
                          "video" : 
                              {
                                "id" : 509,
                                "_type" : "ScreenVMFile",
                                "src" : 1,
                                "trackNumber" : 0,
                                "attributes" : {
                                  "ident" : "Rec 01-28-21_001"
                                },
                                "parameters" : {
                                  "cursorScale" : {
                                    "type" : "double",
                                    "defaultValue" : 0.0,
                                    "interp" : "linr"
                                  },
                                  "cursorOpacity" : {
                                    "type" : "double",
                                    "defaultValue" : 0.0,
                                    "interp" : "linr"
                                  }
                                },
                                "effects" : [

                                ],
                                "start" : 1981,
                                "duration" : 47,
                                "mediaStart" : 3282,
                                "mediaDuration" : 47,
                                "scalar" : 1,
                                "animationTracks" : {

                                }
                              },
                          "audio" : 
                              {
                                "id" : 510,
                                "_type" : "AMFile",
                                "src" : 1,
                                "trackNumber" : 1,
                                "attributes" : {
                                  "ident" : "",
                                  "gain" : 1.0,
                                  "mixToMono" : false
                                },
                                  "channelNumber" : "0,1",
                                "effects" : [

                                ],
                                "start" : 1981,
                                "duration" : 47,
                                "mediaStart" : 3282,
                                "mediaDuration" : 47,
                                "scalar" : 1,
                                "animationTracks" : {

                                }
                              }
,
                          "start" : 1981,
                          "duration" : 47,
                          "mediaStart" : 0,
                          "mediaDuration" : 10411,
                          "scalar" : 1,
                          "metadata" : {
                            "AutoAppliedSmartFocus" : "False",
                            "clipSpeedAttribute" : false
                          }
                        },
                        {
                          "id" : 511,
                          "_type" : "UnifiedMedia",
                          "video" : 
                              {
                                "id" : 512,
                                "_type" : "ScreenVMFile",
                                "src" : 1,
                                "trackNumber" : 0,
                                "attributes" : {
                                  "ident" : "Rec 01-28-21_001"
                                },
                                "parameters" : {
                                  "cursorScale" : {
                                    "type" : "double",
                                    "defaultValue" : 0.0,
                                    "interp" : "linr"
                                  },
                                  "cursorOpacity" : {
                                    "type" : "double",
                                    "defaultValue" : 0.0,
                                    "interp" : "linr"
                                  }
                                },
                                "effects" : [

                                ],
                                "start" : 2028,
                                "duration" : 103,
                                "mediaStart" : 3341,
                                "mediaDuration" : 103,
                                "scalar" : 1,
                                "animationTracks" : {

                                }
                              },
                          "audio" : 
                              {
                                "id" : 513,
                                "_type" : "AMFile",
                                "src" : 1,
                                "trackNumber" : 1,
                                "attributes" : {
                                  "ident" : "",
                                  "gain" : 1.0,
                                  "mixToMono" : false
                                },
                                  "channelNumber" : "0,1",
                                "effects" : [

                                ],
                                "start" : 2028,
                                "duration" : 103,
                                "mediaStart" : 3341,
                                "mediaDuration" : 103,
                                "scalar" : 1,
                                "animationTracks" : {

                                }
                              }
,
                          "start" : 2028,
                          "duration" : 103,
                          "mediaStart" : 0,
                          "mediaDuration" : 10411,
                          "scalar" : 1,
                          "metadata" : {
                            "AutoAppliedSmartFocus" : "False",
                            "clipSpeedAttribute" : false
                          }
                        },
                        {
                          "id" : 514,
                          "_type" : "UnifiedMedia",
                          "video" : 
                              {
                                "id" : 515,
                                "_type" : "ScreenVMFile",
                                "src" : 1,
                                "trackNumber" : 0,
                                "attributes" : {
                                  "ident" : "Rec 01-28-21_001"
                                },
                                "parameters" : {
                                  "cursorScale" : {
                                    "type" : "double",
                                    "defaultValue" : 0.0,
                                    "interp" : "linr"
                                  },
                                  "cursorOpacity" : {
                                    "type" : "double",
                                    "defaultValue" : 0.0,
                                    "interp" : "linr"
                                  }
                                },
                                "effects" : [

                                ],
                                "start" : 2131,
                                "duration" : 26,
                                "mediaStart" : 3468,
                                "mediaDuration" : 26,
                                "scalar" : 1,
                                "animationTracks" : {

                                }
                              },
                          "audio" : 
                              {
                                "id" : 516,
                                "_type" : "AMFile",
                                "src" : 1,
                                "trackNumber" : 1,
                                "attributes" : {
                                  "ident" : "",
                                  "gain" : 1.0,
                                  "mixToMono" : false
                                },
                                  "channelNumber" : "0,1",
                                "effects" : [

                                ],
                                "start" : 2131,
                                "duration" : 26,
                                "mediaStart" : 3468,
                                "mediaDuration" : 26,
                                "scalar" : 1,
                                "animationTracks" : {

                                }
                              }
,
                          "start" : 2131,
                          "duration" : 26,
                          "mediaStart" : 0,
                          "mediaDuration" : 10411,
                          "scalar" : 1,
                          "metadata" : {
                            "AutoAppliedSmartFocus" : "False",
                            "clipSpeedAttribute" : false
                          }
                        },
                        {
                          "id" : 517,
                          "_type" : "UnifiedMedia",
                          "video" : 
                              {
                                "id" : 518,
                                "_type" : "ScreenVMFile",
                                "src" : 1,
                                "trackNumber" : 0,
                                "attributes" : {
                                  "ident" : "Rec 01-28-21_001"
                                },
                                "parameters" : {
                                  "cursorScale" : {
                                    "type" : "double",
                                    "defaultValue" : 0.0,
                                    "interp" : "linr"
                                  },
                                  "cursorOpacity" : {
                                    "type" : "double",
                                    "defaultValue" : 0.0,
                                    "interp" : "linr"
                                  }
                                },
                                "effects" : [

                                ],
                                "start" : 2157,
                                "duration" : 41,
                                "mediaStart" : 3504,
                                "mediaDuration" : 41,
                                "scalar" : 1,
                                "animationTracks" : {

                                }
                              },
                          "audio" : 
                              {
                                "id" : 519,
                                "_type" : "AMFile",
                                "src" : 1,
                                "trackNumber" : 1,
                                "attributes" : {
                                  "ident" : "",
                                  "gain" : 1.0,
                                  "mixToMono" : false
                                },
                                  "channelNumber" : "0,1",
                                "effects" : [

                                ],
                                "start" : 2157,
                                "duration" : 41,
                                "mediaStart" : 3504,
                                "mediaDuration" : 41,
                                "scalar" : 1,
                                "animationTracks" : {

                                }
                              }
,
                          "start" : 2157,
                          "duration" : 41,
                          "mediaStart" : 0,
                          "mediaDuration" : 10411,
                          "scalar" : 1,
                          "metadata" : {
                            "AutoAppliedSmartFocus" : "False",
                            "clipSpeedAttribute" : false
                          }
                        },
                        {
                          "id" : 520,
                          "_type" : "UnifiedMedia",
                          "video" : 
                              {
                                "id" : 521,
                                "_type" : "ScreenVMFile",
                                "src" : 1,
                                "trackNumber" : 0,
                                "attributes" : {
                                  "ident" : "Rec 01-28-21_001"
                                },
                                "parameters" : {
                                  "cursorScale" : {
                                    "type" : "double",
                                    "defaultValue" : 0.0,
                                    "interp" : "linr"
                                  },
                                  "cursorOpacity" : {
                                    "type" : "double",
                                    "defaultValue" : 0.0,
                                    "interp" : "linr"
                                  }
                                },
                                "effects" : [

                                ],
                                "start" : 2198,
                                "duration" : 108,
                                "mediaStart" : 3657,
                                "mediaDuration" : 108,
                                "scalar" : 1,
                                "animationTracks" : {

                                }
                              },
                          "audio" : 
                              {
                                "id" : 522,
                                "_type" : "AMFile",
                                "src" : 1,
                                "trackNumber" : 1,
                                "attributes" : {
                                  "ident" : "",
                                  "gain" : 1.0,
                                  "mixToMono" : false
                                },
                                  "channelNumber" : "0,1",
                                "effects" : [

                                ],
                                "start" : 2198,
                                "duration" : 108,
                                "mediaStart" : 3657,
                                "mediaDuration" : 108,
                                "scalar" : 1,
                                "animationTracks" : {

                                }
                              }
,
                          "start" : 2198,
                          "duration" : 108,
                          "mediaStart" : 0,
                          "mediaDuration" : 10411,
                          "scalar" : 1,
                          "metadata" : {
                            "AutoAppliedSmartFocus" : "False",
                            "clipSpeedAttribute" : false
                          }
                        },
                        {
                          "id" : 523,
                          "_type" : "UnifiedMedia",
                          "video" : 
                              {
                                "id" : 524,
                                "_type" : "ScreenVMFile",
                                "src" : 1,
                                "trackNumber" : 0,
                                "attributes" : {
                                  "ident" : "Rec 01-28-21_001"
                                },
                                "parameters" : {
                                  "cursorScale" : {
                                    "type" : "double",
                                    "defaultValue" : 0.0,
                                    "interp" : "linr"
                                  },
                                  "cursorOpacity" : {
                                    "type" : "double",
                                    "defaultValue" : 0.0,
                                    "interp" : "linr"
                                  }
                                },
                                "effects" : [

                                ],
                                "start" : 2306,
                                "duration" : 124,
                                "mediaStart" : 3787,
                                "mediaDuration" : 124,
                                "scalar" : 1,
                                "animationTracks" : {

                                }
                              },
                          "audio" : 
                              {
                                "id" : 525,
                                "_type" : "AMFile",
                                "src" : 1,
                                "trackNumber" : 1,
                                "attributes" : {
                                  "ident" : "",
                                  "gain" : 1.0,
                                  "mixToMono" : false
                                },
                                  "channelNumber" : "0,1",
                                "effects" : [

                                ],
                                "start" : 2306,
                                "duration" : 124,
                                "mediaStart" : 3787,
                                "mediaDuration" : 124,
                                "scalar" : 1,
                                "animationTracks" : {

                                }
                              }
,
                          "start" : 2306,
                          "duration" : 124,
                          "mediaStart" : 0,
                          "mediaDuration" : 10411,
                          "scalar" : 1,
                          "metadata" : {
                            "AutoAppliedSmartFocus" : "False",
                            "clipSpeedAttribute" : false
                          }
                        },
                        {
                          "id" : 526,
                          "_type" : "UnifiedMedia",
                          "video" : 
                              {
                                "id" : 527,
                                "_type" : "ScreenVMFile",
                                "src" : 1,
                                "trackNumber" : 0,
                                "attributes" : {
                                  "ident" : "Rec 01-28-21_001"
                                },
                                "parameters" : {
                                  "cursorScale" : {
                                    "type" : "double",
                                    "defaultValue" : 0.0,
                                    "interp" : "linr"
                                  },
                                  "cursorOpacity" : {
                                    "type" : "double",
                                    "defaultValue" : 0.0,
                                    "interp" : "linr"
                                  }
                                },
                                "effects" : [

                                ],
                                "start" : 2430,
                                "duration" : 282,
                                "mediaStart" : 3991,
                                "mediaDuration" : 282,
                                "scalar" : 1,
                                "animationTracks" : {

                                }
                              },
                          "audio" : 
                              {
                                "id" : 528,
                                "_type" : "AMFile",
                                "src" : 1,
                                "trackNumber" : 1,
                                "attributes" : {
                                  "ident" : "",
                                  "gain" : 1.0,
                                  "mixToMono" : false
                                },
                                  "channelNumber" : "0,1",
                                "effects" : [

                                ],
                                "start" : 2430,
                                "duration" : 282,
                                "mediaStart" : 3991,
                                "mediaDuration" : 282,
                                "scalar" : 1,
                                "animationTracks" : {

                                }
                              }
,
                          "start" : 2430,
                          "duration" : 282,
                          "mediaStart" : 0,
                          "mediaDuration" : 10411,
                          "scalar" : 1,
                          "metadata" : {
                            "AutoAppliedSmartFocus" : "False",
                            "clipSpeedAttribute" : false
                          }
                        },
                        {
                          "id" : 529,
                          "_type" : "UnifiedMedia",
                          "video" : 
                              {
                                "id" : 530,
                                "_type" : "ScreenVMFile",
                                "src" : 1,
                                "trackNumber" : 0,
                                "attributes" : {
                                  "ident" : "Rec 01-28-21_001"
                                },
                                "parameters" : {
                                  "cursorScale" : {
                                    "type" : "double",
                                    "defaultValue" : 0.0,
                                    "interp" : "linr"
                                  },
                                  "cursorOpacity" : {
                                    "type" : "double",
                                    "defaultValue" : 0.0,
                                    "interp" : "linr"
                                  }
                                },
                                "effects" : [

                                ],
                                "start" : 2712,
                                "duration" : 205,
                                "mediaStart" : 4397,
                                "mediaDuration" : 205,
                                "scalar" : 1,
                                "animationTracks" : {

                                }
                              },
                          "audio" : 
                              {
                                "id" : 531,
                                "_type" : "AMFile",
                                "src" : 1,
                                "trackNumber" : 1,
                                "attributes" : {
                                  "ident" : "",
                                  "gain" : 1.0,
                                  "mixToMono" : false
                                },
                                  "channelNumber" : "0,1",
                                "effects" : [

                                ],
                                "start" : 2712,
                                "duration" : 205,
                                "mediaStart" : 4397,
                                "mediaDuration" : 205,
                                "scalar" : 1,
                                "animationTracks" : {

                                }
                              }
,
                          "start" : 2712,
                          "duration" : 205,
                          "mediaStart" : 0,
                          "mediaDuration" : 10411,
                          "scalar" : 1,
                          "metadata" : {
                            "AutoAppliedSmartFocus" : "False",
                            "clipSpeedAttribute" : false
                          }
                        },
                        {
                          "id" : 532,
                          "_type" : "UnifiedMedia",
                          "video" : 
                              {
                                "id" : 533,
                                "_type" : "ScreenVMFile",
                                "src" : 1,
                                "trackNumber" : 0,
                                "attributes" : {
                                  "ident" : "Rec 01-28-21_001"
                                },
                                "parameters" : {
                                  "cursorScale" : {
                                    "type" : "double",
                                    "defaultValue" : 0.0,
                                    "interp" : "linr"
                                  },
                                  "cursorOpacity" : {
                                    "type" : "double",
                                    "defaultValue" : 0.0,
                                    "interp" : "linr"
                                  }
                                },
                                "effects" : [

                                ],
                                "start" : 2917,
                                "duration" : 61,
                                "mediaStart" : 4960,
                                "mediaDuration" : 61,
                                "scalar" : 1,
                                "animationTracks" : {

                                }
                              },
                          "audio" : 
                              {
                                "id" : 534,
                                "_type" : "AMFile",
                                "src" : 1,
                                "trackNumber" : 1,
                                "attributes" : {
                                  "ident" : "",
                                  "gain" : 1.0,
                                  "mixToMono" : false
                                },
                                  "channelNumber" : "0,1",
                                "effects" : [

                                ],
                                "start" : 2917,
                                "duration" : 61,
                                "mediaStart" : 4960,
                                "mediaDuration" : 61,
                                "scalar" : 1,
                                "animationTracks" : {

                                }
                              }
,
                          "start" : 2917,
                          "duration" : 61,
                          "mediaStart" : 0,
                          "mediaDuration" : 10411,
                          "scalar" : 1,
                          "metadata" : {
                            "AutoAppliedSmartFocus" : "False",
                            "clipSpeedAttribute" : false
                          }
                        },
                        {
                          "id" : 535,
                          "_type" : "UnifiedMedia",
                          "video" : 
                              {
                                "id" : 536,
                                "_type" : "ScreenVMFile",
                                "src" : 1,
                                "trackNumber" : 0,
                                "attributes" : {
                                  "ident" : "Rec 01-28-21_001"
                                },
                                "parameters" : {
                                  "cursorScale" : {
                                    "type" : "double",
                                    "defaultValue" : 0.0,
                                    "interp" : "linr"
                                  },
                                  "cursorOpacity" : {
                                    "type" : "double",
                                    "defaultValue" : 0.0,
                                    "interp" : "linr"
                                  }
                                },
                                "effects" : [

                                ],
                                "start" : 2978,
                                "duration" : 5376,
                                "mediaStart" : 5035,
                                "mediaDuration" : 5376,
                                "scalar" : 1,
                                "animationTracks" : {

                                }
                              },
                          "audio" : 
                              {
                                "id" : 537,
                                "_type" : "AMFile",
                                "src" : 1,
                                "trackNumber" : 1,
                                "attributes" : {
                                  "ident" : "",
                                  "gain" : 1.0,
                                  "mixToMono" : false
                                },
                                  "channelNumber" : "0,1",
                                "effects" : [

                                ],
                                "start" : 2978,
                                "duration" : 5376,
                                "mediaStart" : 5035,
                                "mediaDuration" : 5376,
                                "scalar" : 1,
                                "animationTracks" : {

                                }
                              }
,
                          "start" : 2978,
                          "duration" : 5376,
                          "mediaStart" : 0,
                          "mediaDuration" : 10411,
                          "scalar" : 1,
                          "metadata" : {
                            "AutoAppliedSmartFocus" : "False",
                            "clipSpeedAttribute" : false
                          }
                        }
                    ],
                    "effects" : [

                    ],
                    "start" : 2453,
                    "duration" : 295,
                    "mediaStart" : 2704,
                    "mediaDuration" : 295,
                    "scalar" : 1,
                    "metadata" : {
                      "AutoAppliedSmartFocus" : "False",
                      "clipSpeedAttribute" : false
                    },
                    "animationTracks" : {

                    }
                  },
                  {
                    "id" : 538,
                    "_type" : "Group",
                    "parameters" : {
                      "volume" : 1.0
                    },
                    "tracks" : [
                      {
                        "trackIndex" : 0,
                        "medias" : [
                          {
                            "id" : 539,
                            "_type" : "StitchedMedia",
                            "minMediaStart" : 0,
                            "attributes" : {
                              "ident" : "Rec 01-28-21_001",
                              "gain" : 1.0,
                              "mixToMono" : false
                            },
                            "parameters" : {
                              "cursorOpacity" : 1.0,
                              "cursorScale" : 1.0
                            },
                            "medias" : [
                                {
                                  "id" : 540,
                                  "_type" : "ScreenVMFile",
                                  "src" : 1,
                                  "trackNumber" : 0,
                                  "attributes" : {
                                    "ident" : "Rec 01-28-21_001"
                                  },
                                  "parameters" : {
                                    "cursorScale" : {
                                      "type" : "double",
                                      "defaultValue" : 0.0,
                                      "interp" : "linr"
                                    },
                                    "cursorOpacity" : {
                                      "type" : "double",
                                      "defaultValue" : 0.0,
                                      "interp" : "linr"
                                    }
                                  },
                                  "effects" : [

                                  ],
                                  "start" : 0,
                                  "duration" : 18,
                                  "mediaStart" : 0,
                                  "mediaDuration" : 18,
                                  "scalar" : 1,
                                  "metadata" : {
                                    "AutoAppliedSmartFocus" : "False"
                                  },
                                  "animationTracks" : {

                                  }
                                },
                                {
                                  "id" : 541,
                                  "_type" : "ScreenVMFile",
                                  "src" : 1,
                                  "trackNumber" : 0,
                                  "attributes" : {
                                    "ident" : "Rec 01-28-21_001"
                                  },
                                  "parameters" : {
                                    "cursorScale" : {
                                      "type" : "double",
                                      "defaultValue" : 0.0,
                                      "interp" : "linr"
                                    },
                                    "cursorOpacity" : {
                                      "type" : "double",
                                      "defaultValue" : 0.0,
                                      "interp" : "linr"
                                    }
                                  },
                                  "effects" : [

                                  ],
                                  "start" : 18,
                                  "duration" : 286,
                                  "mediaStart" : 55,
                                  "mediaDuration" : 286,
                                  "scalar" : 1,
                                  "metadata" : {
                                    "AutoAppliedSmartFocus" : "False"
                                  },
                                  "animationTracks" : {

                                  }
                                },
                                {
                                  "id" : 542,
                                  "_type" : "ScreenVMFile",
                                  "src" : 1,
                                  "trackNumber" : 0,
                                  "attributes" : {
                                    "ident" : "Rec 01-28-21_001"
                                  },
                                  "parameters" : {
                                    "cursorScale" : {
                                      "type" : "double",
                                      "defaultValue" : 0.0,
                                      "interp" : "linr"
                                    },
                                    "cursorOpacity" : {
                                      "type" : "double",
                                      "defaultValue" : 0.0,
                                      "interp" : "linr"
                                    }
                                  },
                                  "effects" : [

                                  ],
                                  "start" : 304,
                                  "duration" : 53,
                                  "mediaStart" : 367,
                                  "mediaDuration" : 53,
                                  "scalar" : 1,
                                  "metadata" : {
                                    "AutoAppliedSmartFocus" : "False"
                                  },
                                  "animationTracks" : {

                                  }
                                },
                                {
                                  "id" : 543,
                                  "_type" : "ScreenVMFile",
                                  "src" : 1,
                                  "trackNumber" : 0,
                                  "attributes" : {
                                    "ident" : "Rec 01-28-21_001"
                                  },
                                  "parameters" : {
                                    "cursorScale" : {
                                      "type" : "double",
                                      "defaultValue" : 0.0,
                                      "interp" : "linr"
                                    },
                                    "cursorOpacity" : {
                                      "type" : "double",
                                      "defaultValue" : 0.0,
                                      "interp" : "linr"
                                    }
                                  },
                                  "effects" : [

                                  ],
                                  "start" : 357,
                                  "duration" : 59,
                                  "mediaStart" : 477,
                                  "mediaDuration" : 59,
                                  "scalar" : 1,
                                  "metadata" : {
                                    "AutoAppliedSmartFocus" : "False"
                                  },
                                  "animationTracks" : {

                                  }
                                },
                                {
                                  "id" : 544,
                                  "_type" : "ScreenVMFile",
                                  "src" : 1,
                                  "trackNumber" : 0,
                                  "attributes" : {
                                    "ident" : "Rec 01-28-21_001"
                                  },
                                  "parameters" : {
                                    "cursorScale" : {
                                      "type" : "double",
                                      "defaultValue" : 0.0,
                                      "interp" : "linr"
                                    },
                                    "cursorOpacity" : {
                                      "type" : "double",
                                      "defaultValue" : 0.0,
                                      "interp" : "linr"
                                    }
                                  },
                                  "effects" : [

                                  ],
                                  "start" : 416,
                                  "duration" : 42,
                                  "mediaStart" : 590,
                                  "mediaDuration" : 42,
                                  "scalar" : 1,
                                  "metadata" : {
                                    "AutoAppliedSmartFocus" : "False"
                                  },
                                  "animationTracks" : {

                                  }
                                },
                                {
                                  "id" : 545,
                                  "_type" : "ScreenVMFile",
                                  "src" : 1,
                                  "trackNumber" : 0,
                                  "attributes" : {
                                    "ident" : "Rec 01-28-21_001"
                                  },
                                  "parameters" : {
                                    "cursorScale" : {
                                      "type" : "double",
                                      "defaultValue" : 0.0,
                                      "interp" : "linr"
                                    },
                                    "cursorOpacity" : {
                                      "type" : "double",
                                      "defaultValue" : 0.0,
                                      "interp" : "linr"
                                    }
                                  },
                                  "effects" : [

                                  ],
                                  "start" : 458,
                                  "duration" : 22,
                                  "mediaStart" : 646,
                                  "mediaDuration" : 22,
                                  "scalar" : 1,
                                  "metadata" : {
                                    "AutoAppliedSmartFocus" : "False"
                                  },
                                  "animationTracks" : {

                                  }
                                },
                                {
                                  "id" : 546,
                                  "_type" : "ScreenVMFile",
                                  "src" : 1,
                                  "trackNumber" : 0,
                                  "attributes" : {
                                    "ident" : "Rec 01-28-21_001"
                                  },
                                  "parameters" : {
                                    "cursorScale" : {
                                      "type" : "double",
                                      "defaultValue" : 0.0,
                                      "interp" : "linr"
                                    },
                                    "cursorOpacity" : {
                                      "type" : "double",
                                      "defaultValue" : 0.0,
                                      "interp" : "linr"
                                    }
                                  },
                                  "effects" : [

                                  ],
                                  "start" : 480,
                                  "duration" : 115,
                                  "mediaStart" : 762,
                                  "mediaDuration" : 115,
                                  "scalar" : 1,
                                  "metadata" : {
                                    "AutoAppliedSmartFocus" : "False"
                                  },
                                  "animationTracks" : {

                                  }
                                },
                                {
                                  "id" : 547,
                                  "_type" : "ScreenVMFile",
                                  "src" : 1,
                                  "trackNumber" : 0,
                                  "attributes" : {
                                    "ident" : "Rec 01-28-21_001"
                                  },
                                  "parameters" : {
                                    "cursorScale" : {
                                      "type" : "double",
                                      "defaultValue" : 0.0,
                                      "interp" : "linr"
                                    },
                                    "cursorOpacity" : {
                                      "type" : "double",
                                      "defaultValue" : 0.0,
                                      "interp" : "linr"
                                    }
                                  },
                                  "effects" : [

                                  ],
                                  "start" : 595,
                                  "duration" : 154,
                                  "mediaStart" : 1024,
                                  "mediaDuration" : 154,
                                  "scalar" : 1,
                                  "metadata" : {
                                    "AutoAppliedSmartFocus" : "False"
                                  },
                                  "animationTracks" : {

                                  }
                                },
                                {
                                  "id" : 548,
                                  "_type" : "ScreenVMFile",
                                  "src" : 1,
                                  "trackNumber" : 0,
                                  "attributes" : {
                                    "ident" : "Rec 01-28-21_001"
                                  },
                                  "parameters" : {
                                    "cursorScale" : {
                                      "type" : "double",
                                      "defaultValue" : 0.0,
                                      "interp" : "linr"
                                    },
                                    "cursorOpacity" : {
                                      "type" : "double",
                                      "defaultValue" : 0.0,
                                      "interp" : "linr"
                                    }
                                  },
                                  "effects" : [

                                  ],
                                  "start" : 749,
                                  "duration" : 135,
                                  "mediaStart" : 1207,
                                  "mediaDuration" : 135,
                                  "scalar" : 1,
                                  "metadata" : {
                                    "AutoAppliedSmartFocus" : "False"
                                  },
                                  "animationTracks" : {

                                  }
                                },
                                {
                                  "id" : 549,
                                  "_type" : "ScreenVMFile",
                                  "src" : 1,
                                  "trackNumber" : 0,
                                  "attributes" : {
                                    "ident" : "Rec 01-28-21_001"
                                  },
                                  "parameters" : {
                                    "cursorScale" : {
                                      "type" : "double",
                                      "defaultValue" : 0.0,
                                      "interp" : "linr"
                                    },
                                    "cursorOpacity" : {
                                      "type" : "double",
                                      "defaultValue" : 0.0,
                                      "interp" : "linr"
                                    }
                                  },
                                  "effects" : [

                                  ],
                                  "start" : 884,
                                  "duration" : 150,
                                  "mediaStart" : 1383,
                                  "mediaDuration" : 150,
                                  "scalar" : 1,
                                  "metadata" : {
                                    "AutoAppliedSmartFocus" : "False"
                                  },
                                  "animationTracks" : {

                                  }
                                },
                                {
                                  "id" : 550,
                                  "_type" : "ScreenVMFile",
                                  "src" : 1,
                                  "trackNumber" : 0,
                                  "attributes" : {
                                    "ident" : "Rec 01-28-21_001"
                                  },
                                  "parameters" : {
                                    "cursorScale" : {
                                      "type" : "double",
                                      "defaultValue" : 0.0,
                                      "interp" : "linr"
                                    },
                                    "cursorOpacity" : {
                                      "type" : "double",
                                      "defaultValue" : 0.0,
                                      "interp" : "linr"
                                    }
                                  },
                                  "effects" : [

                                  ],
                                  "start" : 1034,
                                  "duration" : 89,
                                  "mediaStart" : 1607,
                                  "mediaDuration" : 89,
                                  "scalar" : 1,
                                  "metadata" : {
                                    "AutoAppliedSmartFocus" : "False"
                                  },
                                  "animationTracks" : {

                                  }
                                },
                                {
                                  "id" : 551,
                                  "_type" : "ScreenVMFile",
                                  "src" : 1,
                                  "trackNumber" : 0,
                                  "attributes" : {
                                    "ident" : "Rec 01-28-21_001"
                                  },
                                  "parameters" : {
                                    "cursorScale" : {
                                      "type" : "double",
                                      "defaultValue" : 0.0,
                                      "interp" : "linr"
                                    },
                                    "cursorOpacity" : {
                                      "type" : "double",
                                      "defaultValue" : 0.0,
                                      "interp" : "linr"
                                    }
                                  },
                                  "effects" : [

                                  ],
                                  "start" : 1123,
                                  "duration" : 37,
                                  "mediaStart" : 1752,
                                  "mediaDuration" : 37,
                                  "scalar" : 1,
                                  "metadata" : {
                                    "AutoAppliedSmartFocus" : "False"
                                  },
                                  "animationTracks" : {

                                  }
                                },
                                {
                                  "id" : 552,
                                  "_type" : "ScreenVMFile",
                                  "src" : 1,
                                  "trackNumber" : 0,
                                  "attributes" : {
                                    "ident" : "Rec 01-28-21_001"
                                  },
                                  "parameters" : {
                                    "cursorScale" : {
                                      "type" : "double",
                                      "defaultValue" : 0.0,
                                      "interp" : "linr"
                                    },
                                    "cursorOpacity" : {
                                      "type" : "double",
                                      "defaultValue" : 0.0,
                                      "interp" : "linr"
                                    }
                                  },
                                  "effects" : [

                                  ],
                                  "start" : 1160,
                                  "duration" : 34,
                                  "mediaStart" : 1836,
                                  "mediaDuration" : 34,
                                  "scalar" : 1,
                                  "metadata" : {
                                    "AutoAppliedSmartFocus" : "False"
                                  },
                                  "animationTracks" : {

                                  }
                                },
                                {
                                  "id" : 553,
                                  "_type" : "ScreenVMFile",
                                  "src" : 1,
                                  "trackNumber" : 0,
                                  "attributes" : {
                                    "ident" : "Rec 01-28-21_001"
                                  },
                                  "parameters" : {
                                    "cursorScale" : {
                                      "type" : "double",
                                      "defaultValue" : 0.0,
                                      "interp" : "linr"
                                    },
                                    "cursorOpacity" : {
                                      "type" : "double",
                                      "defaultValue" : 0.0,
                                      "interp" : "linr"
                                    }
                                  },
                                  "effects" : [

                                  ],
                                  "start" : 1194,
                                  "duration" : 41,
                                  "mediaStart" : 1882,
                                  "mediaDuration" : 41,
                                  "scalar" : 1,
                                  "metadata" : {
                                    "AutoAppliedSmartFocus" : "False"
                                  },
                                  "animationTracks" : {

                                  }
                                },
                                {
                                  "id" : 554,
                                  "_type" : "ScreenVMFile",
                                  "src" : 1,
                                  "trackNumber" : 0,
                                  "attributes" : {
                                    "ident" : "Rec 01-28-21_001"
                                  },
                                  "parameters" : {
                                    "cursorScale" : {
                                      "type" : "double",
                                      "defaultValue" : 0.0,
                                      "interp" : "linr"
                                    },
                                    "cursorOpacity" : {
                                      "type" : "double",
                                      "defaultValue" : 0.0,
                                      "interp" : "linr"
                                    }
                                  },
                                  "effects" : [

                                  ],
                                  "start" : 1235,
                                  "duration" : 41,
                                  "mediaStart" : 1948,
                                  "mediaDuration" : 41,
                                  "scalar" : 1,
                                  "metadata" : {
                                    "AutoAppliedSmartFocus" : "False"
                                  },
                                  "animationTracks" : {

                                  }
                                },
                                {
                                  "id" : 555,
                                  "_type" : "ScreenVMFile",
                                  "src" : 1,
                                  "trackNumber" : 0,
                                  "attributes" : {
                                    "ident" : "Rec 01-28-21_001"
                                  },
                                  "parameters" : {
                                    "cursorScale" : {
                                      "type" : "double",
                                      "defaultValue" : 0.0,
                                      "interp" : "linr"
                                    },
                                    "cursorOpacity" : {
                                      "type" : "double",
                                      "defaultValue" : 0.0,
                                      "interp" : "linr"
                                    }
                                  },
                                  "effects" : [

                                  ],
                                  "start" : 1276,
                                  "duration" : 55,
                                  "mediaStart" : 2015,
                                  "mediaDuration" : 55,
                                  "scalar" : 1,
                                  "metadata" : {
                                    "AutoAppliedSmartFocus" : "False"
                                  },
                                  "animationTracks" : {

                                  }
                                },
                                {
                                  "id" : 556,
                                  "_type" : "ScreenVMFile",
                                  "src" : 1,
                                  "trackNumber" : 0,
                                  "attributes" : {
                                    "ident" : "Rec 01-28-21_001"
                                  },
                                  "parameters" : {
                                    "cursorScale" : {
                                      "type" : "double",
                                      "defaultValue" : 0.0,
                                      "interp" : "linr"
                                    },
                                    "cursorOpacity" : {
                                      "type" : "double",
                                      "defaultValue" : 0.0,
                                      "interp" : "linr"
                                    }
                                  },
                                  "effects" : [

                                  ],
                                  "start" : 1331,
                                  "duration" : 42,
                                  "mediaStart" : 2110,
                                  "mediaDuration" : 42,
                                  "scalar" : 1,
                                  "metadata" : {
                                    "AutoAppliedSmartFocus" : "False"
                                  },
                                  "animationTracks" : {

                                  }
                                },
                                {
                                  "id" : 557,
                                  "_type" : "ScreenVMFile",
                                  "src" : 1,
                                  "trackNumber" : 0,
                                  "attributes" : {
                                    "ident" : "Rec 01-28-21_001"
                                  },
                                  "parameters" : {
                                    "cursorScale" : {
                                      "type" : "double",
                                      "defaultValue" : 0.0,
                                      "interp" : "linr"
                                    },
                                    "cursorOpacity" : {
                                      "type" : "double",
                                      "defaultValue" : 0.0,
                                      "interp" : "linr"
                                    }
                                  },
                                  "effects" : [

                                  ],
                                  "start" : 1373,
                                  "duration" : 23,
                                  "mediaStart" : 2250,
                                  "mediaDuration" : 23,
                                  "scalar" : 1,
                                  "metadata" : {
                                    "AutoAppliedSmartFocus" : "False"
                                  },
                                  "animationTracks" : {

                                  }
                                },
                                {
                                  "id" : 558,
                                  "_type" : "ScreenVMFile",
                                  "src" : 1,
                                  "trackNumber" : 0,
                                  "attributes" : {
                                    "ident" : "Rec 01-28-21_001"
                                  },
                                  "parameters" : {
                                    "cursorScale" : {
                                      "type" : "double",
                                      "defaultValue" : 0.0,
                                      "interp" : "linr"
                                    },
                                    "cursorOpacity" : {
                                      "type" : "double",
                                      "defaultValue" : 0.0,
                                      "interp" : "linr"
                                    }
                                  },
                                  "effects" : [

                                  ],
                                  "start" : 1396,
                                  "duration" : 79,
                                  "mediaStart" : 2299,
                                  "mediaDuration" : 79,
                                  "scalar" : 1,
                                  "metadata" : {
                                    "AutoAppliedSmartFocus" : "False"
                                  },
                                  "animationTracks" : {

                                  }
                                },
                                {
                                  "id" : 559,
                                  "_type" : "ScreenVMFile",
                                  "src" : 1,
                                  "trackNumber" : 0,
                                  "attributes" : {
                                    "ident" : "Rec 01-28-21_001"
                                  },
                                  "parameters" : {
                                    "cursorScale" : {
                                      "type" : "double",
                                      "defaultValue" : 0.0,
                                      "interp" : "linr"
                                    },
                                    "cursorOpacity" : {
                                      "type" : "double",
                                      "defaultValue" : 0.0,
                                      "interp" : "linr"
                                    }
                                  },
                                  "effects" : [

                                  ],
                                  "start" : 1475,
                                  "duration" : 64,
                                  "mediaStart" : 2409,
                                  "mediaDuration" : 64,
                                  "scalar" : 1,
                                  "metadata" : {
                                    "AutoAppliedSmartFocus" : "False"
                                  },
                                  "animationTracks" : {

                                  }
                                },
                                {
                                  "id" : 560,
                                  "_type" : "ScreenVMFile",
                                  "src" : 1,
                                  "trackNumber" : 0,
                                  "attributes" : {
                                    "ident" : "Rec 01-28-21_001"
                                  },
                                  "parameters" : {
                                    "cursorScale" : {
                                      "type" : "double",
                                      "defaultValue" : 0.0,
                                      "interp" : "linr"
                                    },
                                    "cursorOpacity" : {
                                      "type" : "double",
                                      "defaultValue" : 0.0,
                                      "interp" : "linr"
                                    }
                                  },
                                  "effects" : [

                                  ],
                                  "start" : 1539,
                                  "duration" : 43,
                                  "mediaStart" : 2478,
                                  "mediaDuration" : 43,
                                  "scalar" : 1,
                                  "metadata" : {
                                    "AutoAppliedSmartFocus" : "False"
                                  },
                                  "animationTracks" : {

                                  }
                                },
                                {
                                  "id" : 561,
                                  "_type" : "ScreenVMFile",
                                  "src" : 1,
                                  "trackNumber" : 0,
                                  "attributes" : {
                                    "ident" : "Rec 01-28-21_001"
                                  },
                                  "parameters" : {
                                    "cursorScale" : {
                                      "type" : "double",
                                      "defaultValue" : 0.0,
                                      "interp" : "linr"
                                    },
                                    "cursorOpacity" : {
                                      "type" : "double",
                                      "defaultValue" : 0.0,
                                      "interp" : "linr"
                                    }
                                  },
                                  "effects" : [

                                  ],
                                  "start" : 1582,
                                  "duration" : 47,
                                  "mediaStart" : 2538,
                                  "mediaDuration" : 47,
                                  "scalar" : 1,
                                  "metadata" : {
                                    "AutoAppliedSmartFocus" : "False"
                                  },
                                  "animationTracks" : {

                                  }
                                },
                                {
                                  "id" : 562,
                                  "_type" : "ScreenVMFile",
                                  "src" : 1,
                                  "trackNumber" : 0,
                                  "attributes" : {
                                    "ident" : "Rec 01-28-21_001"
                                  },
                                  "parameters" : {
                                    "cursorScale" : {
                                      "type" : "double",
                                      "defaultValue" : 0.0,
                                      "interp" : "linr"
                                    },
                                    "cursorOpacity" : {
                                      "type" : "double",
                                      "defaultValue" : 0.0,
                                      "interp" : "linr"
                                    }
                                  },
                                  "effects" : [

                                  ],
                                  "start" : 1629,
                                  "duration" : 299,
                                  "mediaStart" : 2613,
                                  "mediaDuration" : 299,
                                  "scalar" : 1,
                                  "metadata" : {
                                    "AutoAppliedSmartFocus" : "False"
                                  },
                                  "animationTracks" : {

                                  }
                                },
                                {
                                  "id" : 563,
                                  "_type" : "ScreenVMFile",
                                  "src" : 1,
                                  "trackNumber" : 0,
                                  "attributes" : {
                                    "ident" : "Rec 01-28-21_001"
                                  },
                                  "parameters" : {
                                    "cursorScale" : {
                                      "type" : "double",
                                      "defaultValue" : 0.0,
                                      "interp" : "linr"
                                    },
                                    "cursorOpacity" : {
                                      "type" : "double",
                                      "defaultValue" : 0.0,
                                      "interp" : "linr"
                                    }
                                  },
                                  "effects" : [

                                  ],
                                  "start" : 1928,
                                  "duration" : 53,
                                  "mediaStart" : 3209,
                                  "mediaDuration" : 53,
                                  "scalar" : 1,
                                  "metadata" : {
                                    "AutoAppliedSmartFocus" : "False"
                                  },
                                  "animationTracks" : {

                                  }
                                },
                                {
                                  "id" : 564,
                                  "_type" : "ScreenVMFile",
                                  "src" : 1,
                                  "trackNumber" : 0,
                                  "attributes" : {
                                    "ident" : "Rec 01-28-21_001"
                                  },
                                  "parameters" : {
                                    "cursorScale" : {
                                      "type" : "double",
                                      "defaultValue" : 0.0,
                                      "interp" : "linr"
                                    },
                                    "cursorOpacity" : {
                                      "type" : "double",
                                      "defaultValue" : 0.0,
                                      "interp" : "linr"
                                    }
                                  },
                                  "effects" : [

                                  ],
                                  "start" : 1981,
                                  "duration" : 47,
                                  "mediaStart" : 3282,
                                  "mediaDuration" : 47,
                                  "scalar" : 1,
                                  "metadata" : {
                                    "AutoAppliedSmartFocus" : "False"
                                  },
                                  "animationTracks" : {

                                  }
                                },
                                {
                                  "id" : 565,
                                  "_type" : "ScreenVMFile",
                                  "src" : 1,
                                  "trackNumber" : 0,
                                  "attributes" : {
                                    "ident" : "Rec 01-28-21_001"
                                  },
                                  "parameters" : {
                                    "cursorScale" : {
                                      "type" : "double",
                                      "defaultValue" : 0.0,
                                      "interp" : "linr"
                                    },
                                    "cursorOpacity" : {
                                      "type" : "double",
                                      "defaultValue" : 0.0,
                                      "interp" : "linr"
                                    }
                                  },
                                  "effects" : [

                                  ],
                                  "start" : 2028,
                                  "duration" : 103,
                                  "mediaStart" : 3341,
                                  "mediaDuration" : 103,
                                  "scalar" : 1,
                                  "metadata" : {
                                    "AutoAppliedSmartFocus" : "False"
                                  },
                                  "animationTracks" : {

                                  }
                                },
                                {
                                  "id" : 566,
                                  "_type" : "ScreenVMFile",
                                  "src" : 1,
                                  "trackNumber" : 0,
                                  "attributes" : {
                                    "ident" : "Rec 01-28-21_001"
                                  },
                                  "parameters" : {
                                    "cursorScale" : {
                                      "type" : "double",
                                      "defaultValue" : 0.0,
                                      "interp" : "linr"
                                    },
                                    "cursorOpacity" : {
                                      "type" : "double",
                                      "defaultValue" : 0.0,
                                      "interp" : "linr"
                                    }
                                  },
                                  "effects" : [

                                  ],
                                  "start" : 2131,
                                  "duration" : 26,
                                  "mediaStart" : 3468,
                                  "mediaDuration" : 26,
                                  "scalar" : 1,
                                  "metadata" : {
                                    "AutoAppliedSmartFocus" : "False"
                                  },
                                  "animationTracks" : {

                                  }
                                },
                                {
                                  "id" : 567,
                                  "_type" : "ScreenVMFile",
                                  "src" : 1,
                                  "trackNumber" : 0,
                                  "attributes" : {
                                    "ident" : "Rec 01-28-21_001"
                                  },
                                  "parameters" : {
                                    "cursorScale" : {
                                      "type" : "double",
                                      "defaultValue" : 0.0,
                                      "interp" : "linr"
                                    },
                                    "cursorOpacity" : {
                                      "type" : "double",
                                      "defaultValue" : 0.0,
                                      "interp" : "linr"
                                    }
                                  },
                                  "effects" : [

                                  ],
                                  "start" : 2157,
                                  "duration" : 41,
                                  "mediaStart" : 3504,
                                  "mediaDuration" : 41,
                                  "scalar" : 1,
                                  "metadata" : {
                                    "AutoAppliedSmartFocus" : "False"
                                  },
                                  "animationTracks" : {

                                  }
                                },
                                {
                                  "id" : 568,
                                  "_type" : "ScreenVMFile",
                                  "src" : 1,
                                  "trackNumber" : 0,
                                  "attributes" : {
                                    "ident" : "Rec 01-28-21_001"
                                  },
                                  "parameters" : {
                                    "cursorScale" : {
                                      "type" : "double",
                                      "defaultValue" : 0.0,
                                      "interp" : "linr"
                                    },
                                    "cursorOpacity" : {
                                      "type" : "double",
                                      "defaultValue" : 0.0,
                                      "interp" : "linr"
                                    }
                                  },
                                  "effects" : [

                                  ],
                                  "start" : 2198,
                                  "duration" : 108,
                                  "mediaStart" : 3657,
                                  "mediaDuration" : 108,
                                  "scalar" : 1,
                                  "metadata" : {
                                    "AutoAppliedSmartFocus" : "False"
                                  },
                                  "animationTracks" : {

                                  }
                                },
                                {
                                  "id" : 569,
                                  "_type" : "ScreenVMFile",
                                  "src" : 1,
                                  "trackNumber" : 0,
                                  "attributes" : {
                                    "ident" : "Rec 01-28-21_001"
                                  },
                                  "parameters" : {
                                    "cursorScale" : {
                                      "type" : "double",
                                      "defaultValue" : 0.0,
                                      "interp" : "linr"
                                    },
                                    "cursorOpacity" : {
                                      "type" : "double",
                                      "defaultValue" : 0.0,
                                      "interp" : "linr"
                                    }
                                  },
                                  "effects" : [

                                  ],
                                  "start" : 2306,
                                  "duration" : 124,
                                  "mediaStart" : 3787,
                                  "mediaDuration" : 124,
                                  "scalar" : 1,
                                  "metadata" : {
                                    "AutoAppliedSmartFocus" : "False"
                                  },
                                  "animationTracks" : {

                                  }
                                },
                                {
                                  "id" : 570,
                                  "_type" : "ScreenVMFile",
                                  "src" : 1,
                                  "trackNumber" : 0,
                                  "attributes" : {
                                    "ident" : "Rec 01-28-21_001"
                                  },
                                  "parameters" : {
                                    "cursorScale" : {
                                      "type" : "double",
                                      "defaultValue" : 0.0,
                                      "interp" : "linr"
                                    },
                                    "cursorOpacity" : {
                                      "type" : "double",
                                      "defaultValue" : 0.0,
                                      "interp" : "linr"
                                    }
                                  },
                                  "effects" : [

                                  ],
                                  "start" : 2430,
                                  "duration" : 282,
                                  "mediaStart" : 3991,
                                  "mediaDuration" : 282,
                                  "scalar" : 1,
                                  "metadata" : {
                                    "AutoAppliedSmartFocus" : "False"
                                  },
                                  "animationTracks" : {

                                  }
                                },
                                {
                                  "id" : 571,
                                  "_type" : "ScreenVMFile",
                                  "src" : 1,
                                  "trackNumber" : 0,
                                  "attributes" : {
                                    "ident" : "Rec 01-28-21_001"
                                  },
                                  "parameters" : {
                                    "cursorScale" : {
                                      "type" : "double",
                                      "defaultValue" : 0.0,
                                      "interp" : "linr"
                                    },
                                    "cursorOpacity" : {
                                      "type" : "double",
                                      "defaultValue" : 0.0,
                                      "interp" : "linr"
                                    }
                                  },
                                  "effects" : [

                                  ],
                                  "start" : 2712,
                                  "duration" : 205,
                                  "mediaStart" : 4397,
                                  "mediaDuration" : 205,
                                  "scalar" : 1,
                                  "metadata" : {
                                    "AutoAppliedSmartFocus" : "False"
                                  },
                                  "animationTracks" : {

                                  }
                                },
                                {
                                  "id" : 572,
                                  "_type" : "ScreenVMFile",
                                  "src" : 1,
                                  "trackNumber" : 0,
                                  "attributes" : {
                                    "ident" : "Rec 01-28-21_001"
                                  },
                                  "parameters" : {
                                    "cursorScale" : {
                                      "type" : "double",
                                      "defaultValue" : 0.0,
                                      "interp" : "linr"
                                    },
                                    "cursorOpacity" : {
                                      "type" : "double",
                                      "defaultValue" : 0.0,
                                      "interp" : "linr"
                                    }
                                  },
                                  "effects" : [

                                  ],
                                  "start" : 2917,
                                  "duration" : 61,
                                  "mediaStart" : 4960,
                                  "mediaDuration" : 61,
                                  "scalar" : 1,
                                  "metadata" : {
                                    "AutoAppliedSmartFocus" : "False"
                                  },
                                  "animationTracks" : {

                                  }
                                },
                                {
                                  "id" : 573,
                                  "_type" : "ScreenVMFile",
                                  "src" : 1,
                                  "trackNumber" : 0,
                                  "attributes" : {
                                    "ident" : "Rec 01-28-21_001"
                                  },
                                  "parameters" : {
                                    "cursorScale" : {
                                      "type" : "double",
                                      "defaultValue" : 0.0,
                                      "interp" : "linr"
                                    },
                                    "cursorOpacity" : {
                                      "type" : "double",
                                      "defaultValue" : 0.0,
                                      "interp" : "linr"
                                    }
                                  },
                                  "effects" : [

                                  ],
                                  "start" : 2978,
                                  "duration" : 5376,
                                  "mediaStart" : 5035,
                                  "mediaDuration" : 5376,
                                  "scalar" : 1,
                                  "metadata" : {
                                    "AutoAppliedSmartFocus" : "False"
                                  },
                                  "animationTracks" : {

                                  }
                                }
                            ],
                            "effects" : [

                            ],
                            "start" : 0,
                            "duration" : 133,
                            "mediaStart" : 2999,
                            "mediaDuration" : 133,
                            "scalar" : 1,
                            "metadata" : {
                              "AutoAppliedSmartFocus" : "False",
                              "clipSpeedAttribute" : false
                            },
                            "animationTracks" : {

                            }
                          }
                        ],
                          "ident" : "",
                          "audioMuted" : false,
                          "videoHidden" : false,
                          "magnetic" : false,
                          "matte" : 0,
                          "metadata" : {
                            "IsLocked" : "False",
                            "WinTrackHeight" : "0"
                          }
                      },
                      {
                        "trackIndex" : 1,
                        "medias" : [
                          {
                            "id" : 574,
                            "_type" : "AMFile",
                            "src" : 8,
                            "trackNumber" : 0,
                            "attributes" : {
                              "ident" : "Narration_3-3 Kubernetes-Deployment 5",
                              "gain" : 1.0,
                              "mixToMono" : false
                            },
                              "channelNumber" : "0,1",
                            "effects" : [

                            ],
                            "start" : 0,
                            "duration" : 133,
                            "mediaStart" : 20,
                            "mediaDuration" : 133,
                            "scalar" : 1,
                            "metadata" : {
                              "clipSpeedAttribute" : false
                            },
                            "animationTracks" : {

                            }
                          }
                        ],
                          "ident" : "",
                          "audioMuted" : false,
                          "videoHidden" : false,
                          "magnetic" : false,
                          "matte" : 0,
                          "metadata" : {
                            "IsLocked" : "False",
                            "WinTrackHeight" : "2.05933052592624e-312"
                          }
                      }
                    ],
                    "attributes" : {
                      "ident" : "Group 4",
                      "gain" : 1.0,
                      "mixToMono" : false
                    },
                    "effects" : [

                    ],
                    "start" : 2748,
                    "duration" : 133,
                    "mediaStart" : 0.0,
                    "mediaDuration" : 133.0,
                    "scalar" : 1,
                    "metadata" : {
                      "IsGroupExpanded" : "False"
                    },
                    "animationTracks" : {

                    }
                  },
                  {
                    "id" : 575,
                    "_type" : "StitchedMedia",
                    "minMediaStart" : 0,
                    "attributes" : {
                      "ident" : "Rec 01-28-21_001",
                      "gain" : 1.0,
                      "mixToMono" : false
                    },
                    "parameters" : {
                      "volume" : 1.0,
                      "cursorOpacity" : 1.0,
                      "cursorScale" : 1.0
                    },
                    "medias" : [
                        {
                          "id" : 576,
                          "_type" : "UnifiedMedia",
                          "video" : 
                              {
                                "id" : 577,
                                "_type" : "ScreenVMFile",
                                "src" : 1,
                                "trackNumber" : 0,
                                "attributes" : {
                                  "ident" : "Rec 01-28-21_001"
                                },
                                "parameters" : {
                                  "cursorScale" : {
                                    "type" : "double",
                                    "defaultValue" : 0.0,
                                    "interp" : "linr"
                                  },
                                  "cursorOpacity" : {
                                    "type" : "double",
                                    "defaultValue" : 0.0,
                                    "interp" : "linr"
                                  }
                                },
                                "effects" : [

                                ],
                                "start" : 0,
                                "duration" : 18,
                                "mediaStart" : 0,
                                "mediaDuration" : 18,
                                "scalar" : 1,
                                "animationTracks" : {

                                }
                              },
                          "audio" : 
                              {
                                "id" : 578,
                                "_type" : "AMFile",
                                "src" : 1,
                                "trackNumber" : 1,
                                "attributes" : {
                                  "ident" : "",
                                  "gain" : 1.0,
                                  "mixToMono" : false
                                },
                                  "channelNumber" : "0,1",
                                "effects" : [

                                ],
                                "start" : 0,
                                "duration" : 18,
                                "mediaStart" : 0,
                                "mediaDuration" : 18,
                                "scalar" : 1,
                                "animationTracks" : {

                                }
                              }
,
                          "start" : 0,
                          "duration" : 18,
                          "mediaStart" : 0,
                          "mediaDuration" : 10411,
                          "scalar" : 1,
                          "metadata" : {
                            "AutoAppliedSmartFocus" : "False",
                            "clipSpeedAttribute" : false
                          }
                        },
                        {
                          "id" : 579,
                          "_type" : "UnifiedMedia",
                          "video" : 
                              {
                                "id" : 580,
                                "_type" : "ScreenVMFile",
                                "src" : 1,
                                "trackNumber" : 0,
                                "attributes" : {
                                  "ident" : "Rec 01-28-21_001"
                                },
                                "parameters" : {
                                  "cursorScale" : {
                                    "type" : "double",
                                    "defaultValue" : 0.0,
                                    "interp" : "linr"
                                  },
                                  "cursorOpacity" : {
                                    "type" : "double",
                                    "defaultValue" : 0.0,
                                    "interp" : "linr"
                                  }
                                },
                                "effects" : [

                                ],
                                "start" : 18,
                                "duration" : 286,
                                "mediaStart" : 55,
                                "mediaDuration" : 286,
                                "scalar" : 1,
                                "animationTracks" : {

                                }
                              },
                          "audio" : 
                              {
                                "id" : 581,
                                "_type" : "AMFile",
                                "src" : 1,
                                "trackNumber" : 1,
                                "attributes" : {
                                  "ident" : "",
                                  "gain" : 1.0,
                                  "mixToMono" : false
                                },
                                  "channelNumber" : "0,1",
                                "effects" : [

                                ],
                                "start" : 18,
                                "duration" : 286,
                                "mediaStart" : 55,
                                "mediaDuration" : 286,
                                "scalar" : 1,
                                "animationTracks" : {

                                }
                              }
,
                          "start" : 18,
                          "duration" : 286,
                          "mediaStart" : 0,
                          "mediaDuration" : 10411,
                          "scalar" : 1,
                          "metadata" : {
                            "AutoAppliedSmartFocus" : "False",
                            "clipSpeedAttribute" : false
                          }
                        },
                        {
                          "id" : 582,
                          "_type" : "UnifiedMedia",
                          "video" : 
                              {
                                "id" : 583,
                                "_type" : "ScreenVMFile",
                                "src" : 1,
                                "trackNumber" : 0,
                                "attributes" : {
                                  "ident" : "Rec 01-28-21_001"
                                },
                                "parameters" : {
                                  "cursorScale" : {
                                    "type" : "double",
                                    "defaultValue" : 0.0,
                                    "interp" : "linr"
                                  },
                                  "cursorOpacity" : {
                                    "type" : "double",
                                    "defaultValue" : 0.0,
                                    "interp" : "linr"
                                  }
                                },
                                "effects" : [

                                ],
                                "start" : 304,
                                "duration" : 53,
                                "mediaStart" : 367,
                                "mediaDuration" : 53,
                                "scalar" : 1,
                                "animationTracks" : {

                                }
                              },
                          "audio" : 
                              {
                                "id" : 584,
                                "_type" : "AMFile",
                                "src" : 1,
                                "trackNumber" : 1,
                                "attributes" : {
                                  "ident" : "",
                                  "gain" : 1.0,
                                  "mixToMono" : false
                                },
                                  "channelNumber" : "0,1",
                                "effects" : [

                                ],
                                "start" : 304,
                                "duration" : 53,
                                "mediaStart" : 367,
                                "mediaDuration" : 53,
                                "scalar" : 1,
                                "animationTracks" : {

                                }
                              }
,
                          "start" : 304,
                          "duration" : 53,
                          "mediaStart" : 0,
                          "mediaDuration" : 10411,
                          "scalar" : 1,
                          "metadata" : {
                            "AutoAppliedSmartFocus" : "False",
                            "clipSpeedAttribute" : false
                          }
                        },
                        {
                          "id" : 585,
                          "_type" : "UnifiedMedia",
                          "video" : 
                              {
                                "id" : 586,
                                "_type" : "ScreenVMFile",
                                "src" : 1,
                                "trackNumber" : 0,
                                "attributes" : {
                                  "ident" : "Rec 01-28-21_001"
                                },
                                "parameters" : {
                                  "cursorScale" : {
                                    "type" : "double",
                                    "defaultValue" : 0.0,
                                    "interp" : "linr"
                                  },
                                  "cursorOpacity" : {
                                    "type" : "double",
                                    "defaultValue" : 0.0,
                                    "interp" : "linr"
                                  }
                                },
                                "effects" : [

                                ],
                                "start" : 357,
                                "duration" : 59,
                                "mediaStart" : 477,
                                "mediaDuration" : 59,
                                "scalar" : 1,
                                "animationTracks" : {

                                }
                              },
                          "audio" : 
                              {
                                "id" : 587,
                                "_type" : "AMFile",
                                "src" : 1,
                                "trackNumber" : 1,
                                "attributes" : {
                                  "ident" : "",
                                  "gain" : 1.0,
                                  "mixToMono" : false
                                },
                                  "channelNumber" : "0,1",
                                "effects" : [

                                ],
                                "start" : 357,
                                "duration" : 59,
                                "mediaStart" : 477,
                                "mediaDuration" : 59,
                                "scalar" : 1,
                                "animationTracks" : {

                                }
                              }
,
                          "start" : 357,
                          "duration" : 59,
                          "mediaStart" : 0,
                          "mediaDuration" : 10411,
                          "scalar" : 1,
                          "metadata" : {
                            "AutoAppliedSmartFocus" : "False",
                            "clipSpeedAttribute" : false
                          }
                        },
                        {
                          "id" : 588,
                          "_type" : "UnifiedMedia",
                          "video" : 
                              {
                                "id" : 589,
                                "_type" : "ScreenVMFile",
                                "src" : 1,
                                "trackNumber" : 0,
                                "attributes" : {
                                  "ident" : "Rec 01-28-21_001"
                                },
                                "parameters" : {
                                  "cursorScale" : {
                                    "type" : "double",
                                    "defaultValue" : 0.0,
                                    "interp" : "linr"
                                  },
                                  "cursorOpacity" : {
                                    "type" : "double",
                                    "defaultValue" : 0.0,
                                    "interp" : "linr"
                                  }
                                },
                                "effects" : [

                                ],
                                "start" : 416,
                                "duration" : 42,
                                "mediaStart" : 590,
                                "mediaDuration" : 42,
                                "scalar" : 1,
                                "animationTracks" : {

                                }
                              },
                          "audio" : 
                              {
                                "id" : 590,
                                "_type" : "AMFile",
                                "src" : 1,
                                "trackNumber" : 1,
                                "attributes" : {
                                  "ident" : "",
                                  "gain" : 1.0,
                                  "mixToMono" : false
                                },
                                  "channelNumber" : "0,1",
                                "effects" : [

                                ],
                                "start" : 416,
                                "duration" : 42,
                                "mediaStart" : 590,
                                "mediaDuration" : 42,
                                "scalar" : 1,
                                "animationTracks" : {

                                }
                              }
,
                          "start" : 416,
                          "duration" : 42,
                          "mediaStart" : 0,
                          "mediaDuration" : 10411,
                          "scalar" : 1,
                          "metadata" : {
                            "AutoAppliedSmartFocus" : "False",
                            "clipSpeedAttribute" : false
                          }
                        },
                        {
                          "id" : 591,
                          "_type" : "UnifiedMedia",
                          "video" : 
                              {
                                "id" : 592,
                                "_type" : "ScreenVMFile",
                                "src" : 1,
                                "trackNumber" : 0,
                                "attributes" : {
                                  "ident" : "Rec 01-28-21_001"
                                },
                                "parameters" : {
                                  "cursorScale" : {
                                    "type" : "double",
                                    "defaultValue" : 0.0,
                                    "interp" : "linr"
                                  },
                                  "cursorOpacity" : {
                                    "type" : "double",
                                    "defaultValue" : 0.0,
                                    "interp" : "linr"
                                  }
                                },
                                "effects" : [

                                ],
                                "start" : 458,
                                "duration" : 22,
                                "mediaStart" : 646,
                                "mediaDuration" : 22,
                                "scalar" : 1,
                                "animationTracks" : {

                                }
                              },
                          "audio" : 
                              {
                                "id" : 593,
                                "_type" : "AMFile",
                                "src" : 1,
                                "trackNumber" : 1,
                                "attributes" : {
                                  "ident" : "",
                                  "gain" : 1.0,
                                  "mixToMono" : false
                                },
                                  "channelNumber" : "0,1",
                                "effects" : [

                                ],
                                "start" : 458,
                                "duration" : 22,
                                "mediaStart" : 646,
                                "mediaDuration" : 22,
                                "scalar" : 1,
                                "animationTracks" : {

                                }
                              }
,
                          "start" : 458,
                          "duration" : 22,
                          "mediaStart" : 0,
                          "mediaDuration" : 10411,
                          "scalar" : 1,
                          "metadata" : {
                            "AutoAppliedSmartFocus" : "False",
                            "clipSpeedAttribute" : false
                          }
                        },
                        {
                          "id" : 594,
                          "_type" : "UnifiedMedia",
                          "video" : 
                              {
                                "id" : 595,
                                "_type" : "ScreenVMFile",
                                "src" : 1,
                                "trackNumber" : 0,
                                "attributes" : {
                                  "ident" : "Rec 01-28-21_001"
                                },
                                "parameters" : {
                                  "cursorScale" : {
                                    "type" : "double",
                                    "defaultValue" : 0.0,
                                    "interp" : "linr"
                                  },
                                  "cursorOpacity" : {
                                    "type" : "double",
                                    "defaultValue" : 0.0,
                                    "interp" : "linr"
                                  }
                                },
                                "effects" : [

                                ],
                                "start" : 480,
                                "duration" : 115,
                                "mediaStart" : 762,
                                "mediaDuration" : 115,
                                "scalar" : 1,
                                "animationTracks" : {

                                }
                              },
                          "audio" : 
                              {
                                "id" : 596,
                                "_type" : "AMFile",
                                "src" : 1,
                                "trackNumber" : 1,
                                "attributes" : {
                                  "ident" : "",
                                  "gain" : 1.0,
                                  "mixToMono" : false
                                },
                                  "channelNumber" : "0,1",
                                "effects" : [

                                ],
                                "start" : 480,
                                "duration" : 115,
                                "mediaStart" : 762,
                                "mediaDuration" : 115,
                                "scalar" : 1,
                                "animationTracks" : {

                                }
                              }
,
                          "start" : 480,
                          "duration" : 115,
                          "mediaStart" : 0,
                          "mediaDuration" : 10411,
                          "scalar" : 1,
                          "metadata" : {
                            "AutoAppliedSmartFocus" : "False",
                            "clipSpeedAttribute" : false
                          }
                        },
                        {
                          "id" : 597,
                          "_type" : "UnifiedMedia",
                          "video" : 
                              {
                                "id" : 598,
                                "_type" : "ScreenVMFile",
                                "src" : 1,
                                "trackNumber" : 0,
                                "attributes" : {
                                  "ident" : "Rec 01-28-21_001"
                                },
                                "parameters" : {
                                  "cursorScale" : {
                                    "type" : "double",
                                    "defaultValue" : 0.0,
                                    "interp" : "linr"
                                  },
                                  "cursorOpacity" : {
                                    "type" : "double",
                                    "defaultValue" : 0.0,
                                    "interp" : "linr"
                                  }
                                },
                                "effects" : [

                                ],
                                "start" : 595,
                                "duration" : 154,
                                "mediaStart" : 1024,
                                "mediaDuration" : 154,
                                "scalar" : 1,
                                "animationTracks" : {

                                }
                              },
                          "audio" : 
                              {
                                "id" : 599,
                                "_type" : "AMFile",
                                "src" : 1,
                                "trackNumber" : 1,
                                "attributes" : {
                                  "ident" : "",
                                  "gain" : 1.0,
                                  "mixToMono" : false
                                },
                                  "channelNumber" : "0,1",
                                "effects" : [

                                ],
                                "start" : 595,
                                "duration" : 154,
                                "mediaStart" : 1024,
                                "mediaDuration" : 154,
                                "scalar" : 1,
                                "animationTracks" : {

                                }
                              }
,
                          "start" : 595,
                          "duration" : 154,
                          "mediaStart" : 0,
                          "mediaDuration" : 10411,
                          "scalar" : 1,
                          "metadata" : {
                            "AutoAppliedSmartFocus" : "False",
                            "clipSpeedAttribute" : false
                          }
                        },
                        {
                          "id" : 600,
                          "_type" : "UnifiedMedia",
                          "video" : 
                              {
                                "id" : 601,
                                "_type" : "ScreenVMFile",
                                "src" : 1,
                                "trackNumber" : 0,
                                "attributes" : {
                                  "ident" : "Rec 01-28-21_001"
                                },
                                "parameters" : {
                                  "cursorScale" : {
                                    "type" : "double",
                                    "defaultValue" : 0.0,
                                    "interp" : "linr"
                                  },
                                  "cursorOpacity" : {
                                    "type" : "double",
                                    "defaultValue" : 0.0,
                                    "interp" : "linr"
                                  }
                                },
                                "effects" : [

                                ],
                                "start" : 749,
                                "duration" : 135,
                                "mediaStart" : 1207,
                                "mediaDuration" : 135,
                                "scalar" : 1,
                                "animationTracks" : {

                                }
                              },
                          "audio" : 
                              {
                                "id" : 602,
                                "_type" : "AMFile",
                                "src" : 1,
                                "trackNumber" : 1,
                                "attributes" : {
                                  "ident" : "",
                                  "gain" : 1.0,
                                  "mixToMono" : false
                                },
                                  "channelNumber" : "0,1",
                                "effects" : [

                                ],
                                "start" : 749,
                                "duration" : 135,
                                "mediaStart" : 1207,
                                "mediaDuration" : 135,
                                "scalar" : 1,
                                "animationTracks" : {

                                }
                              }
,
                          "start" : 749,
                          "duration" : 135,
                          "mediaStart" : 0,
                          "mediaDuration" : 10411,
                          "scalar" : 1,
                          "metadata" : {
                            "AutoAppliedSmartFocus" : "False",
                            "clipSpeedAttribute" : false
                          }
                        },
                        {
                          "id" : 603,
                          "_type" : "UnifiedMedia",
                          "video" : 
                              {
                                "id" : 604,
                                "_type" : "ScreenVMFile",
                                "src" : 1,
                                "trackNumber" : 0,
                                "attributes" : {
                                  "ident" : "Rec 01-28-21_001"
                                },
                                "parameters" : {
                                  "cursorScale" : {
                                    "type" : "double",
                                    "defaultValue" : 0.0,
                                    "interp" : "linr"
                                  },
                                  "cursorOpacity" : {
                                    "type" : "double",
                                    "defaultValue" : 0.0,
                                    "interp" : "linr"
                                  }
                                },
                                "effects" : [

                                ],
                                "start" : 884,
                                "duration" : 150,
                                "mediaStart" : 1383,
                                "mediaDuration" : 150,
                                "scalar" : 1,
                                "animationTracks" : {

                                }
                              },
                          "audio" : 
                              {
                                "id" : 605,
                                "_type" : "AMFile",
                                "src" : 1,
                                "trackNumber" : 1,
                                "attributes" : {
                                  "ident" : "",
                                  "gain" : 1.0,
                                  "mixToMono" : false
                                },
                                  "channelNumber" : "0,1",
                                "effects" : [

                                ],
                                "start" : 884,
                                "duration" : 150,
                                "mediaStart" : 1383,
                                "mediaDuration" : 150,
                                "scalar" : 1,
                                "animationTracks" : {

                                }
                              }
,
                          "start" : 884,
                          "duration" : 150,
                          "mediaStart" : 0,
                          "mediaDuration" : 10411,
                          "scalar" : 1,
                          "metadata" : {
                            "AutoAppliedSmartFocus" : "False",
                            "clipSpeedAttribute" : false
                          }
                        },
                        {
                          "id" : 606,
                          "_type" : "UnifiedMedia",
                          "video" : 
                              {
                                "id" : 607,
                                "_type" : "ScreenVMFile",
                                "src" : 1,
                                "trackNumber" : 0,
                                "attributes" : {
                                  "ident" : "Rec 01-28-21_001"
                                },
                                "parameters" : {
                                  "cursorScale" : {
                                    "type" : "double",
                                    "defaultValue" : 0.0,
                                    "interp" : "linr"
                                  },
                                  "cursorOpacity" : {
                                    "type" : "double",
                                    "defaultValue" : 0.0,
                                    "interp" : "linr"
                                  }
                                },
                                "effects" : [

                                ],
                                "start" : 1034,
                                "duration" : 89,
                                "mediaStart" : 1607,
                                "mediaDuration" : 89,
                                "scalar" : 1,
                                "animationTracks" : {

                                }
                              },
                          "audio" : 
                              {
                                "id" : 608,
                                "_type" : "AMFile",
                                "src" : 1,
                                "trackNumber" : 1,
                                "attributes" : {
                                  "ident" : "",
                                  "gain" : 1.0,
                                  "mixToMono" : false
                                },
                                  "channelNumber" : "0,1",
                                "effects" : [

                                ],
                                "start" : 1034,
                                "duration" : 89,
                                "mediaStart" : 1607,
                                "mediaDuration" : 89,
                                "scalar" : 1,
                                "animationTracks" : {

                                }
                              }
,
                          "start" : 1034,
                          "duration" : 89,
                          "mediaStart" : 0,
                          "mediaDuration" : 10411,
                          "scalar" : 1,
                          "metadata" : {
                            "AutoAppliedSmartFocus" : "False",
                            "clipSpeedAttribute" : false
                          }
                        },
                        {
                          "id" : 609,
                          "_type" : "UnifiedMedia",
                          "video" : 
                              {
                                "id" : 610,
                                "_type" : "ScreenVMFile",
                                "src" : 1,
                                "trackNumber" : 0,
                                "attributes" : {
                                  "ident" : "Rec 01-28-21_001"
                                },
                                "parameters" : {
                                  "cursorScale" : {
                                    "type" : "double",
                                    "defaultValue" : 0.0,
                                    "interp" : "linr"
                                  },
                                  "cursorOpacity" : {
                                    "type" : "double",
                                    "defaultValue" : 0.0,
                                    "interp" : "linr"
                                  }
                                },
                                "effects" : [

                                ],
                                "start" : 1123,
                                "duration" : 37,
                                "mediaStart" : 1752,
                                "mediaDuration" : 37,
                                "scalar" : 1,
                                "animationTracks" : {

                                }
                              },
                          "audio" : 
                              {
                                "id" : 611,
                                "_type" : "AMFile",
                                "src" : 1,
                                "trackNumber" : 1,
                                "attributes" : {
                                  "ident" : "",
                                  "gain" : 1.0,
                                  "mixToMono" : false
                                },
                                  "channelNumber" : "0,1",
                                "effects" : [

                                ],
                                "start" : 1123,
                                "duration" : 37,
                                "mediaStart" : 1752,
                                "mediaDuration" : 37,
                                "scalar" : 1,
                                "animationTracks" : {

                                }
                              }
,
                          "start" : 1123,
                          "duration" : 37,
                          "mediaStart" : 0,
                          "mediaDuration" : 10411,
                          "scalar" : 1,
                          "metadata" : {
                            "AutoAppliedSmartFocus" : "False",
                            "clipSpeedAttribute" : false
                          }
                        },
                        {
                          "id" : 612,
                          "_type" : "UnifiedMedia",
                          "video" : 
                              {
                                "id" : 613,
                                "_type" : "ScreenVMFile",
                                "src" : 1,
                                "trackNumber" : 0,
                                "attributes" : {
                                  "ident" : "Rec 01-28-21_001"
                                },
                                "parameters" : {
                                  "cursorScale" : {
                                    "type" : "double",
                                    "defaultValue" : 0.0,
                                    "interp" : "linr"
                                  },
                                  "cursorOpacity" : {
                                    "type" : "double",
                                    "defaultValue" : 0.0,
                                    "interp" : "linr"
                                  }
                                },
                                "effects" : [

                                ],
                                "start" : 1160,
                                "duration" : 34,
                                "mediaStart" : 1836,
                                "mediaDuration" : 34,
                                "scalar" : 1,
                                "animationTracks" : {

                                }
                              },
                          "audio" : 
                              {
                                "id" : 614,
                                "_type" : "AMFile",
                                "src" : 1,
                                "trackNumber" : 1,
                                "attributes" : {
                                  "ident" : "",
                                  "gain" : 1.0,
                                  "mixToMono" : false
                                },
                                  "channelNumber" : "0,1",
                                "effects" : [

                                ],
                                "start" : 1160,
                                "duration" : 34,
                                "mediaStart" : 1836,
                                "mediaDuration" : 34,
                                "scalar" : 1,
                                "animationTracks" : {

                                }
                              }
,
                          "start" : 1160,
                          "duration" : 34,
                          "mediaStart" : 0,
                          "mediaDuration" : 10411,
                          "scalar" : 1,
                          "metadata" : {
                            "AutoAppliedSmartFocus" : "False",
                            "clipSpeedAttribute" : false
                          }
                        },
                        {
                          "id" : 615,
                          "_type" : "UnifiedMedia",
                          "video" : 
                              {
                                "id" : 616,
                                "_type" : "ScreenVMFile",
                                "src" : 1,
                                "trackNumber" : 0,
                                "attributes" : {
                                  "ident" : "Rec 01-28-21_001"
                                },
                                "parameters" : {
                                  "cursorScale" : {
                                    "type" : "double",
                                    "defaultValue" : 0.0,
                                    "interp" : "linr"
                                  },
                                  "cursorOpacity" : {
                                    "type" : "double",
                                    "defaultValue" : 0.0,
                                    "interp" : "linr"
                                  }
                                },
                                "effects" : [

                                ],
                                "start" : 1194,
                                "duration" : 41,
                                "mediaStart" : 1882,
                                "mediaDuration" : 41,
                                "scalar" : 1,
                                "animationTracks" : {

                                }
                              },
                          "audio" : 
                              {
                                "id" : 617,
                                "_type" : "AMFile",
                                "src" : 1,
                                "trackNumber" : 1,
                                "attributes" : {
                                  "ident" : "",
                                  "gain" : 1.0,
                                  "mixToMono" : false
                                },
                                  "channelNumber" : "0,1",
                                "effects" : [

                                ],
                                "start" : 1194,
                                "duration" : 41,
                                "mediaStart" : 1882,
                                "mediaDuration" : 41,
                                "scalar" : 1,
                                "animationTracks" : {

                                }
                              }
,
                          "start" : 1194,
                          "duration" : 41,
                          "mediaStart" : 0,
                          "mediaDuration" : 10411,
                          "scalar" : 1,
                          "metadata" : {
                            "AutoAppliedSmartFocus" : "False",
                            "clipSpeedAttribute" : false
                          }
                        },
                        {
                          "id" : 618,
                          "_type" : "UnifiedMedia",
                          "video" : 
                              {
                                "id" : 619,
                                "_type" : "ScreenVMFile",
                                "src" : 1,
                                "trackNumber" : 0,
                                "attributes" : {
                                  "ident" : "Rec 01-28-21_001"
                                },
                                "parameters" : {
                                  "cursorScale" : {
                                    "type" : "double",
                                    "defaultValue" : 0.0,
                                    "interp" : "linr"
                                  },
                                  "cursorOpacity" : {
                                    "type" : "double",
                                    "defaultValue" : 0.0,
                                    "interp" : "linr"
                                  }
                                },
                                "effects" : [

                                ],
                                "start" : 1235,
                                "duration" : 41,
                                "mediaStart" : 1948,
                                "mediaDuration" : 41,
                                "scalar" : 1,
                                "animationTracks" : {

                                }
                              },
                          "audio" : 
                              {
                                "id" : 620,
                                "_type" : "AMFile",
                                "src" : 1,
                                "trackNumber" : 1,
                                "attributes" : {
                                  "ident" : "",
                                  "gain" : 1.0,
                                  "mixToMono" : false
                                },
                                  "channelNumber" : "0,1",
                                "effects" : [

                                ],
                                "start" : 1235,
                                "duration" : 41,
                                "mediaStart" : 1948,
                                "mediaDuration" : 41,
                                "scalar" : 1,
                                "animationTracks" : {

                                }
                              }
,
                          "start" : 1235,
                          "duration" : 41,
                          "mediaStart" : 0,
                          "mediaDuration" : 10411,
                          "scalar" : 1,
                          "metadata" : {
                            "AutoAppliedSmartFocus" : "False",
                            "clipSpeedAttribute" : false
                          }
                        },
                        {
                          "id" : 621,
                          "_type" : "UnifiedMedia",
                          "video" : 
                              {
                                "id" : 622,
                                "_type" : "ScreenVMFile",
                                "src" : 1,
                                "trackNumber" : 0,
                                "attributes" : {
                                  "ident" : "Rec 01-28-21_001"
                                },
                                "parameters" : {
                                  "cursorScale" : {
                                    "type" : "double",
                                    "defaultValue" : 0.0,
                                    "interp" : "linr"
                                  },
                                  "cursorOpacity" : {
                                    "type" : "double",
                                    "defaultValue" : 0.0,
                                    "interp" : "linr"
                                  }
                                },
                                "effects" : [

                                ],
                                "start" : 1276,
                                "duration" : 55,
                                "mediaStart" : 2015,
                                "mediaDuration" : 55,
                                "scalar" : 1,
                                "animationTracks" : {

                                }
                              },
                          "audio" : 
                              {
                                "id" : 623,
                                "_type" : "AMFile",
                                "src" : 1,
                                "trackNumber" : 1,
                                "attributes" : {
                                  "ident" : "",
                                  "gain" : 1.0,
                                  "mixToMono" : false
                                },
                                  "channelNumber" : "0,1",
                                "effects" : [

                                ],
                                "start" : 1276,
                                "duration" : 55,
                                "mediaStart" : 2015,
                                "mediaDuration" : 55,
                                "scalar" : 1,
                                "animationTracks" : {

                                }
                              }
,
                          "start" : 1276,
                          "duration" : 55,
                          "mediaStart" : 0,
                          "mediaDuration" : 10411,
                          "scalar" : 1,
                          "metadata" : {
                            "AutoAppliedSmartFocus" : "False",
                            "clipSpeedAttribute" : false
                          }
                        },
                        {
                          "id" : 624,
                          "_type" : "UnifiedMedia",
                          "video" : 
                              {
                                "id" : 625,
                                "_type" : "ScreenVMFile",
                                "src" : 1,
                                "trackNumber" : 0,
                                "attributes" : {
                                  "ident" : "Rec 01-28-21_001"
                                },
                                "parameters" : {
                                  "cursorScale" : {
                                    "type" : "double",
                                    "defaultValue" : 0.0,
                                    "interp" : "linr"
                                  },
                                  "cursorOpacity" : {
                                    "type" : "double",
                                    "defaultValue" : 0.0,
                                    "interp" : "linr"
                                  }
                                },
                                "effects" : [

                                ],
                                "start" : 1331,
                                "duration" : 42,
                                "mediaStart" : 2110,
                                "mediaDuration" : 42,
                                "scalar" : 1,
                                "animationTracks" : {

                                }
                              },
                          "audio" : 
                              {
                                "id" : 626,
                                "_type" : "AMFile",
                                "src" : 1,
                                "trackNumber" : 1,
                                "attributes" : {
                                  "ident" : "",
                                  "gain" : 1.0,
                                  "mixToMono" : false
                                },
                                  "channelNumber" : "0,1",
                                "effects" : [

                                ],
                                "start" : 1331,
                                "duration" : 42,
                                "mediaStart" : 2110,
                                "mediaDuration" : 42,
                                "scalar" : 1,
                                "animationTracks" : {

                                }
                              }
,
                          "start" : 1331,
                          "duration" : 42,
                          "mediaStart" : 0,
                          "mediaDuration" : 10411,
                          "scalar" : 1,
                          "metadata" : {
                            "AutoAppliedSmartFocus" : "False",
                            "clipSpeedAttribute" : false
                          }
                        },
                        {
                          "id" : 627,
                          "_type" : "UnifiedMedia",
                          "video" : 
                              {
                                "id" : 628,
                                "_type" : "ScreenVMFile",
                                "src" : 1,
                                "trackNumber" : 0,
                                "attributes" : {
                                  "ident" : "Rec 01-28-21_001"
                                },
                                "parameters" : {
                                  "cursorScale" : {
                                    "type" : "double",
                                    "defaultValue" : 0.0,
                                    "interp" : "linr"
                                  },
                                  "cursorOpacity" : {
                                    "type" : "double",
                                    "defaultValue" : 0.0,
                                    "interp" : "linr"
                                  }
                                },
                                "effects" : [

                                ],
                                "start" : 1373,
                                "duration" : 23,
                                "mediaStart" : 2250,
                                "mediaDuration" : 23,
                                "scalar" : 1,
                                "animationTracks" : {

                                }
                              },
                          "audio" : 
                              {
                                "id" : 629,
                                "_type" : "AMFile",
                                "src" : 1,
                                "trackNumber" : 1,
                                "attributes" : {
                                  "ident" : "",
                                  "gain" : 1.0,
                                  "mixToMono" : false
                                },
                                  "channelNumber" : "0,1",
                                "effects" : [

                                ],
                                "start" : 1373,
                                "duration" : 23,
                                "mediaStart" : 2250,
                                "mediaDuration" : 23,
                                "scalar" : 1,
                                "animationTracks" : {

                                }
                              }
,
                          "start" : 1373,
                          "duration" : 23,
                          "mediaStart" : 0,
                          "mediaDuration" : 10411,
                          "scalar" : 1,
                          "metadata" : {
                            "AutoAppliedSmartFocus" : "False",
                            "clipSpeedAttribute" : false
                          }
                        },
                        {
                          "id" : 630,
                          "_type" : "UnifiedMedia",
                          "video" : 
                              {
                                "id" : 631,
                                "_type" : "ScreenVMFile",
                                "src" : 1,
                                "trackNumber" : 0,
                                "attributes" : {
                                  "ident" : "Rec 01-28-21_001"
                                },
                                "parameters" : {
                                  "cursorScale" : {
                                    "type" : "double",
                                    "defaultValue" : 0.0,
                                    "interp" : "linr"
                                  },
                                  "cursorOpacity" : {
                                    "type" : "double",
                                    "defaultValue" : 0.0,
                                    "interp" : "linr"
                                  }
                                },
                                "effects" : [

                                ],
                                "start" : 1396,
                                "duration" : 79,
                                "mediaStart" : 2299,
                                "mediaDuration" : 79,
                                "scalar" : 1,
                                "animationTracks" : {

                                }
                              },
                          "audio" : 
                              {
                                "id" : 632,
                                "_type" : "AMFile",
                                "src" : 1,
                                "trackNumber" : 1,
                                "attributes" : {
                                  "ident" : "",
                                  "gain" : 1.0,
                                  "mixToMono" : false
                                },
                                  "channelNumber" : "0,1",
                                "effects" : [

                                ],
                                "start" : 1396,
                                "duration" : 79,
                                "mediaStart" : 2299,
                                "mediaDuration" : 79,
                                "scalar" : 1,
                                "animationTracks" : {

                                }
                              }
,
                          "start" : 1396,
                          "duration" : 79,
                          "mediaStart" : 0,
                          "mediaDuration" : 10411,
                          "scalar" : 1,
                          "metadata" : {
                            "AutoAppliedSmartFocus" : "False",
                            "clipSpeedAttribute" : false
                          }
                        },
                        {
                          "id" : 633,
                          "_type" : "UnifiedMedia",
                          "video" : 
                              {
                                "id" : 634,
                                "_type" : "ScreenVMFile",
                                "src" : 1,
                                "trackNumber" : 0,
                                "attributes" : {
                                  "ident" : "Rec 01-28-21_001"
                                },
                                "parameters" : {
                                  "cursorScale" : {
                                    "type" : "double",
                                    "defaultValue" : 0.0,
                                    "interp" : "linr"
                                  },
                                  "cursorOpacity" : {
                                    "type" : "double",
                                    "defaultValue" : 0.0,
                                    "interp" : "linr"
                                  }
                                },
                                "effects" : [

                                ],
                                "start" : 1475,
                                "duration" : 64,
                                "mediaStart" : 2409,
                                "mediaDuration" : 64,
                                "scalar" : 1,
                                "animationTracks" : {

                                }
                              },
                          "audio" : 
                              {
                                "id" : 635,
                                "_type" : "AMFile",
                                "src" : 1,
                                "trackNumber" : 1,
                                "attributes" : {
                                  "ident" : "",
                                  "gain" : 1.0,
                                  "mixToMono" : false
                                },
                                  "channelNumber" : "0,1",
                                "effects" : [

                                ],
                                "start" : 1475,
                                "duration" : 64,
                                "mediaStart" : 2409,
                                "mediaDuration" : 64,
                                "scalar" : 1,
                                "animationTracks" : {

                                }
                              }
,
                          "start" : 1475,
                          "duration" : 64,
                          "mediaStart" : 0,
                          "mediaDuration" : 10411,
                          "scalar" : 1,
                          "metadata" : {
                            "AutoAppliedSmartFocus" : "False",
                            "clipSpeedAttribute" : false
                          }
                        },
                        {
                          "id" : 636,
                          "_type" : "UnifiedMedia",
                          "video" : 
                              {
                                "id" : 637,
                                "_type" : "ScreenVMFile",
                                "src" : 1,
                                "trackNumber" : 0,
                                "attributes" : {
                                  "ident" : "Rec 01-28-21_001"
                                },
                                "parameters" : {
                                  "cursorScale" : {
                                    "type" : "double",
                                    "defaultValue" : 0.0,
                                    "interp" : "linr"
                                  },
                                  "cursorOpacity" : {
                                    "type" : "double",
                                    "defaultValue" : 0.0,
                                    "interp" : "linr"
                                  }
                                },
                                "effects" : [

                                ],
                                "start" : 1539,
                                "duration" : 43,
                                "mediaStart" : 2478,
                                "mediaDuration" : 43,
                                "scalar" : 1,
                                "animationTracks" : {

                                }
                              },
                          "audio" : 
                              {
                                "id" : 638,
                                "_type" : "AMFile",
                                "src" : 1,
                                "trackNumber" : 1,
                                "attributes" : {
                                  "ident" : "",
                                  "gain" : 1.0,
                                  "mixToMono" : false
                                },
                                  "channelNumber" : "0,1",
                                "effects" : [

                                ],
                                "start" : 1539,
                                "duration" : 43,
                                "mediaStart" : 2478,
                                "mediaDuration" : 43,
                                "scalar" : 1,
                                "animationTracks" : {

                                }
                              }
,
                          "start" : 1539,
                          "duration" : 43,
                          "mediaStart" : 0,
                          "mediaDuration" : 10411,
                          "scalar" : 1,
                          "metadata" : {
                            "AutoAppliedSmartFocus" : "False",
                            "clipSpeedAttribute" : false
                          }
                        },
                        {
                          "id" : 639,
                          "_type" : "UnifiedMedia",
                          "video" : 
                              {
                                "id" : 640,
                                "_type" : "ScreenVMFile",
                                "src" : 1,
                                "trackNumber" : 0,
                                "attributes" : {
                                  "ident" : "Rec 01-28-21_001"
                                },
                                "parameters" : {
                                  "cursorScale" : {
                                    "type" : "double",
                                    "defaultValue" : 0.0,
                                    "interp" : "linr"
                                  },
                                  "cursorOpacity" : {
                                    "type" : "double",
                                    "defaultValue" : 0.0,
                                    "interp" : "linr"
                                  }
                                },
                                "effects" : [

                                ],
                                "start" : 1582,
                                "duration" : 47,
                                "mediaStart" : 2538,
                                "mediaDuration" : 47,
                                "scalar" : 1,
                                "animationTracks" : {

                                }
                              },
                          "audio" : 
                              {
                                "id" : 641,
                                "_type" : "AMFile",
                                "src" : 1,
                                "trackNumber" : 1,
                                "attributes" : {
                                  "ident" : "",
                                  "gain" : 1.0,
                                  "mixToMono" : false
                                },
                                  "channelNumber" : "0,1",
                                "effects" : [

                                ],
                                "start" : 1582,
                                "duration" : 47,
                                "mediaStart" : 2538,
                                "mediaDuration" : 47,
                                "scalar" : 1,
                                "animationTracks" : {

                                }
                              }
,
                          "start" : 1582,
                          "duration" : 47,
                          "mediaStart" : 0,
                          "mediaDuration" : 10411,
                          "scalar" : 1,
                          "metadata" : {
                            "AutoAppliedSmartFocus" : "False",
                            "clipSpeedAttribute" : false
                          }
                        },
                        {
                          "id" : 642,
                          "_type" : "UnifiedMedia",
                          "video" : 
                              {
                                "id" : 643,
                                "_type" : "ScreenVMFile",
                                "src" : 1,
                                "trackNumber" : 0,
                                "attributes" : {
                                  "ident" : "Rec 01-28-21_001"
                                },
                                "parameters" : {
                                  "cursorScale" : {
                                    "type" : "double",
                                    "defaultValue" : 0.0,
                                    "interp" : "linr"
                                  },
                                  "cursorOpacity" : {
                                    "type" : "double",
                                    "defaultValue" : 0.0,
                                    "interp" : "linr"
                                  }
                                },
                                "effects" : [

                                ],
                                "start" : 1629,
                                "duration" : 299,
                                "mediaStart" : 2613,
                                "mediaDuration" : 299,
                                "scalar" : 1,
                                "animationTracks" : {

                                }
                              },
                          "audio" : 
                              {
                                "id" : 644,
                                "_type" : "AMFile",
                                "src" : 1,
                                "trackNumber" : 1,
                                "attributes" : {
                                  "ident" : "",
                                  "gain" : 1.0,
                                  "mixToMono" : false
                                },
                                  "channelNumber" : "0,1",
                                "effects" : [

                                ],
                                "start" : 1629,
                                "duration" : 299,
                                "mediaStart" : 2613,
                                "mediaDuration" : 299,
                                "scalar" : 1,
                                "animationTracks" : {

                                }
                              }
,
                          "start" : 1629,
                          "duration" : 299,
                          "mediaStart" : 0,
                          "mediaDuration" : 10411,
                          "scalar" : 1,
                          "metadata" : {
                            "AutoAppliedSmartFocus" : "False",
                            "clipSpeedAttribute" : false
                          }
                        },
                        {
                          "id" : 645,
                          "_type" : "UnifiedMedia",
                          "video" : 
                              {
                                "id" : 646,
                                "_type" : "ScreenVMFile",
                                "src" : 1,
                                "trackNumber" : 0,
                                "attributes" : {
                                  "ident" : "Rec 01-28-21_001"
                                },
                                "parameters" : {
                                  "cursorScale" : {
                                    "type" : "double",
                                    "defaultValue" : 0.0,
                                    "interp" : "linr"
                                  },
                                  "cursorOpacity" : {
                                    "type" : "double",
                                    "defaultValue" : 0.0,
                                    "interp" : "linr"
                                  }
                                },
                                "effects" : [

                                ],
                                "start" : 1928,
                                "duration" : 53,
                                "mediaStart" : 3209,
                                "mediaDuration" : 53,
                                "scalar" : 1,
                                "animationTracks" : {

                                }
                              },
                          "audio" : 
                              {
                                "id" : 647,
                                "_type" : "AMFile",
                                "src" : 1,
                                "trackNumber" : 1,
                                "attributes" : {
                                  "ident" : "",
                                  "gain" : 1.0,
                                  "mixToMono" : false
                                },
                                  "channelNumber" : "0,1",
                                "effects" : [

                                ],
                                "start" : 1928,
                                "duration" : 53,
                                "mediaStart" : 3209,
                                "mediaDuration" : 53,
                                "scalar" : 1,
                                "animationTracks" : {

                                }
                              }
,
                          "start" : 1928,
                          "duration" : 53,
                          "mediaStart" : 0,
                          "mediaDuration" : 10411,
                          "scalar" : 1,
                          "metadata" : {
                            "AutoAppliedSmartFocus" : "False",
                            "clipSpeedAttribute" : false
                          }
                        },
                        {
                          "id" : 648,
                          "_type" : "UnifiedMedia",
                          "video" : 
                              {
                                "id" : 649,
                                "_type" : "ScreenVMFile",
                                "src" : 1,
                                "trackNumber" : 0,
                                "attributes" : {
                                  "ident" : "Rec 01-28-21_001"
                                },
                                "parameters" : {
                                  "cursorScale" : {
                                    "type" : "double",
                                    "defaultValue" : 0.0,
                                    "interp" : "linr"
                                  },
                                  "cursorOpacity" : {
                                    "type" : "double",
                                    "defaultValue" : 0.0,
                                    "interp" : "linr"
                                  }
                                },
                                "effects" : [

                                ],
                                "start" : 1981,
                                "duration" : 47,
                                "mediaStart" : 3282,
                                "mediaDuration" : 47,
                                "scalar" : 1,
                                "animationTracks" : {

                                }
                              },
                          "audio" : 
                              {
                                "id" : 650,
                                "_type" : "AMFile",
                                "src" : 1,
                                "trackNumber" : 1,
                                "attributes" : {
                                  "ident" : "",
                                  "gain" : 1.0,
                                  "mixToMono" : false
                                },
                                  "channelNumber" : "0,1",
                                "effects" : [

                                ],
                                "start" : 1981,
                                "duration" : 47,
                                "mediaStart" : 3282,
                                "mediaDuration" : 47,
                                "scalar" : 1,
                                "animationTracks" : {

                                }
                              }
,
                          "start" : 1981,
                          "duration" : 47,
                          "mediaStart" : 0,
                          "mediaDuration" : 10411,
                          "scalar" : 1,
                          "metadata" : {
                            "AutoAppliedSmartFocus" : "False",
                            "clipSpeedAttribute" : false
                          }
                        },
                        {
                          "id" : 651,
                          "_type" : "UnifiedMedia",
                          "video" : 
                              {
                                "id" : 652,
                                "_type" : "ScreenVMFile",
                                "src" : 1,
                                "trackNumber" : 0,
                                "attributes" : {
                                  "ident" : "Rec 01-28-21_001"
                                },
                                "parameters" : {
                                  "cursorScale" : {
                                    "type" : "double",
                                    "defaultValue" : 0.0,
                                    "interp" : "linr"
                                  },
                                  "cursorOpacity" : {
                                    "type" : "double",
                                    "defaultValue" : 0.0,
                                    "interp" : "linr"
                                  }
                                },
                                "effects" : [

                                ],
                                "start" : 2028,
                                "duration" : 103,
                                "mediaStart" : 3341,
                                "mediaDuration" : 103,
                                "scalar" : 1,
                                "animationTracks" : {

                                }
                              },
                          "audio" : 
                              {
                                "id" : 653,
                                "_type" : "AMFile",
                                "src" : 1,
                                "trackNumber" : 1,
                                "attributes" : {
                                  "ident" : "",
                                  "gain" : 1.0,
                                  "mixToMono" : false
                                },
                                  "channelNumber" : "0,1",
                                "effects" : [

                                ],
                                "start" : 2028,
                                "duration" : 103,
                                "mediaStart" : 3341,
                                "mediaDuration" : 103,
                                "scalar" : 1,
                                "animationTracks" : {

                                }
                              }
,
                          "start" : 2028,
                          "duration" : 103,
                          "mediaStart" : 0,
                          "mediaDuration" : 10411,
                          "scalar" : 1,
                          "metadata" : {
                            "AutoAppliedSmartFocus" : "False",
                            "clipSpeedAttribute" : false
                          }
                        },
                        {
                          "id" : 654,
                          "_type" : "UnifiedMedia",
                          "video" : 
                              {
                                "id" : 655,
                                "_type" : "ScreenVMFile",
                                "src" : 1,
                                "trackNumber" : 0,
                                "attributes" : {
                                  "ident" : "Rec 01-28-21_001"
                                },
                                "parameters" : {
                                  "cursorScale" : {
                                    "type" : "double",
                                    "defaultValue" : 0.0,
                                    "interp" : "linr"
                                  },
                                  "cursorOpacity" : {
                                    "type" : "double",
                                    "defaultValue" : 0.0,
                                    "interp" : "linr"
                                  }
                                },
                                "effects" : [

                                ],
                                "start" : 2131,
                                "duration" : 26,
                                "mediaStart" : 3468,
                                "mediaDuration" : 26,
                                "scalar" : 1,
                                "animationTracks" : {

                                }
                              },
                          "audio" : 
                              {
                                "id" : 656,
                                "_type" : "AMFile",
                                "src" : 1,
                                "trackNumber" : 1,
                                "attributes" : {
                                  "ident" : "",
                                  "gain" : 1.0,
                                  "mixToMono" : false
                                },
                                  "channelNumber" : "0,1",
                                "effects" : [

                                ],
                                "start" : 2131,
                                "duration" : 26,
                                "mediaStart" : 3468,
                                "mediaDuration" : 26,
                                "scalar" : 1,
                                "animationTracks" : {

                                }
                              }
,
                          "start" : 2131,
                          "duration" : 26,
                          "mediaStart" : 0,
                          "mediaDuration" : 10411,
                          "scalar" : 1,
                          "metadata" : {
                            "AutoAppliedSmartFocus" : "False",
                            "clipSpeedAttribute" : false
                          }
                        },
                        {
                          "id" : 657,
                          "_type" : "UnifiedMedia",
                          "video" : 
                              {
                                "id" : 658,
                                "_type" : "ScreenVMFile",
                                "src" : 1,
                                "trackNumber" : 0,
                                "attributes" : {
                                  "ident" : "Rec 01-28-21_001"
                                },
                                "parameters" : {
                                  "cursorScale" : {
                                    "type" : "double",
                                    "defaultValue" : 0.0,
                                    "interp" : "linr"
                                  },
                                  "cursorOpacity" : {
                                    "type" : "double",
                                    "defaultValue" : 0.0,
                                    "interp" : "linr"
                                  }
                                },
                                "effects" : [

                                ],
                                "start" : 2157,
                                "duration" : 41,
                                "mediaStart" : 3504,
                                "mediaDuration" : 41,
                                "scalar" : 1,
                                "animationTracks" : {

                                }
                              },
                          "audio" : 
                              {
                                "id" : 659,
                                "_type" : "AMFile",
                                "src" : 1,
                                "trackNumber" : 1,
                                "attributes" : {
                                  "ident" : "",
                                  "gain" : 1.0,
                                  "mixToMono" : false
                                },
                                  "channelNumber" : "0,1",
                                "effects" : [

                                ],
                                "start" : 2157,
                                "duration" : 41,
                                "mediaStart" : 3504,
                                "mediaDuration" : 41,
                                "scalar" : 1,
                                "animationTracks" : {

                                }
                              }
,
                          "start" : 2157,
                          "duration" : 41,
                          "mediaStart" : 0,
                          "mediaDuration" : 10411,
                          "scalar" : 1,
                          "metadata" : {
                            "AutoAppliedSmartFocus" : "False",
                            "clipSpeedAttribute" : false
                          }
                        },
                        {
                          "id" : 660,
                          "_type" : "UnifiedMedia",
                          "video" : 
                              {
                                "id" : 661,
                                "_type" : "ScreenVMFile",
                                "src" : 1,
                                "trackNumber" : 0,
                                "attributes" : {
                                  "ident" : "Rec 01-28-21_001"
                                },
                                "parameters" : {
                                  "cursorScale" : {
                                    "type" : "double",
                                    "defaultValue" : 0.0,
                                    "interp" : "linr"
                                  },
                                  "cursorOpacity" : {
                                    "type" : "double",
                                    "defaultValue" : 0.0,
                                    "interp" : "linr"
                                  }
                                },
                                "effects" : [

                                ],
                                "start" : 2198,
                                "duration" : 108,
                                "mediaStart" : 3657,
                                "mediaDuration" : 108,
                                "scalar" : 1,
                                "animationTracks" : {

                                }
                              },
                          "audio" : 
                              {
                                "id" : 662,
                                "_type" : "AMFile",
                                "src" : 1,
                                "trackNumber" : 1,
                                "attributes" : {
                                  "ident" : "",
                                  "gain" : 1.0,
                                  "mixToMono" : false
                                },
                                  "channelNumber" : "0,1",
                                "effects" : [

                                ],
                                "start" : 2198,
                                "duration" : 108,
                                "mediaStart" : 3657,
                                "mediaDuration" : 108,
                                "scalar" : 1,
                                "animationTracks" : {

                                }
                              }
,
                          "start" : 2198,
                          "duration" : 108,
                          "mediaStart" : 0,
                          "mediaDuration" : 10411,
                          "scalar" : 1,
                          "metadata" : {
                            "AutoAppliedSmartFocus" : "False",
                            "clipSpeedAttribute" : false
                          }
                        },
                        {
                          "id" : 663,
                          "_type" : "UnifiedMedia",
                          "video" : 
                              {
                                "id" : 664,
                                "_type" : "ScreenVMFile",
                                "src" : 1,
                                "trackNumber" : 0,
                                "attributes" : {
                                  "ident" : "Rec 01-28-21_001"
                                },
                                "parameters" : {
                                  "cursorScale" : {
                                    "type" : "double",
                                    "defaultValue" : 0.0,
                                    "interp" : "linr"
                                  },
                                  "cursorOpacity" : {
                                    "type" : "double",
                                    "defaultValue" : 0.0,
                                    "interp" : "linr"
                                  }
                                },
                                "effects" : [

                                ],
                                "start" : 2306,
                                "duration" : 124,
                                "mediaStart" : 3787,
                                "mediaDuration" : 124,
                                "scalar" : 1,
                                "animationTracks" : {

                                }
                              },
                          "audio" : 
                              {
                                "id" : 665,
                                "_type" : "AMFile",
                                "src" : 1,
                                "trackNumber" : 1,
                                "attributes" : {
                                  "ident" : "",
                                  "gain" : 1.0,
                                  "mixToMono" : false
                                },
                                  "channelNumber" : "0,1",
                                "effects" : [

                                ],
                                "start" : 2306,
                                "duration" : 124,
                                "mediaStart" : 3787,
                                "mediaDuration" : 124,
                                "scalar" : 1,
                                "animationTracks" : {

                                }
                              }
,
                          "start" : 2306,
                          "duration" : 124,
                          "mediaStart" : 0,
                          "mediaDuration" : 10411,
                          "scalar" : 1,
                          "metadata" : {
                            "AutoAppliedSmartFocus" : "False",
                            "clipSpeedAttribute" : false
                          }
                        },
                        {
                          "id" : 666,
                          "_type" : "UnifiedMedia",
                          "video" : 
                              {
                                "id" : 667,
                                "_type" : "ScreenVMFile",
                                "src" : 1,
                                "trackNumber" : 0,
                                "attributes" : {
                                  "ident" : "Rec 01-28-21_001"
                                },
                                "parameters" : {
                                  "cursorScale" : {
                                    "type" : "double",
                                    "defaultValue" : 0.0,
                                    "interp" : "linr"
                                  },
                                  "cursorOpacity" : {
                                    "type" : "double",
                                    "defaultValue" : 0.0,
                                    "interp" : "linr"
                                  }
                                },
                                "effects" : [

                                ],
                                "start" : 2430,
                                "duration" : 282,
                                "mediaStart" : 3991,
                                "mediaDuration" : 282,
                                "scalar" : 1,
                                "animationTracks" : {

                                }
                              },
                          "audio" : 
                              {
                                "id" : 668,
                                "_type" : "AMFile",
                                "src" : 1,
                                "trackNumber" : 1,
                                "attributes" : {
                                  "ident" : "",
                                  "gain" : 1.0,
                                  "mixToMono" : false
                                },
                                  "channelNumber" : "0,1",
                                "effects" : [

                                ],
                                "start" : 2430,
                                "duration" : 282,
                                "mediaStart" : 3991,
                                "mediaDuration" : 282,
                                "scalar" : 1,
                                "animationTracks" : {

                                }
                              }
,
                          "start" : 2430,
                          "duration" : 282,
                          "mediaStart" : 0,
                          "mediaDuration" : 10411,
                          "scalar" : 1,
                          "metadata" : {
                            "AutoAppliedSmartFocus" : "False",
                            "clipSpeedAttribute" : false
                          }
                        },
                        {
                          "id" : 669,
                          "_type" : "UnifiedMedia",
                          "video" : 
                              {
                                "id" : 670,
                                "_type" : "ScreenVMFile",
                                "src" : 1,
                                "trackNumber" : 0,
                                "attributes" : {
                                  "ident" : "Rec 01-28-21_001"
                                },
                                "parameters" : {
                                  "cursorScale" : {
                                    "type" : "double",
                                    "defaultValue" : 0.0,
                                    "interp" : "linr"
                                  },
                                  "cursorOpacity" : {
                                    "type" : "double",
                                    "defaultValue" : 0.0,
                                    "interp" : "linr"
                                  }
                                },
                                "effects" : [

                                ],
                                "start" : 2712,
                                "duration" : 205,
                                "mediaStart" : 4397,
                                "mediaDuration" : 205,
                                "scalar" : 1,
                                "animationTracks" : {

                                }
                              },
                          "audio" : 
                              {
                                "id" : 671,
                                "_type" : "AMFile",
                                "src" : 1,
                                "trackNumber" : 1,
                                "attributes" : {
                                  "ident" : "",
                                  "gain" : 1.0,
                                  "mixToMono" : false
                                },
                                  "channelNumber" : "0,1",
                                "effects" : [

                                ],
                                "start" : 2712,
                                "duration" : 205,
                                "mediaStart" : 4397,
                                "mediaDuration" : 205,
                                "scalar" : 1,
                                "animationTracks" : {

                                }
                              }
,
                          "start" : 2712,
                          "duration" : 205,
                          "mediaStart" : 0,
                          "mediaDuration" : 10411,
                          "scalar" : 1,
                          "metadata" : {
                            "AutoAppliedSmartFocus" : "False",
                            "clipSpeedAttribute" : false
                          }
                        },
                        {
                          "id" : 672,
                          "_type" : "UnifiedMedia",
                          "video" : 
                              {
                                "id" : 673,
                                "_type" : "ScreenVMFile",
                                "src" : 1,
                                "trackNumber" : 0,
                                "attributes" : {
                                  "ident" : "Rec 01-28-21_001"
                                },
                                "parameters" : {
                                  "cursorScale" : {
                                    "type" : "double",
                                    "defaultValue" : 0.0,
                                    "interp" : "linr"
                                  },
                                  "cursorOpacity" : {
                                    "type" : "double",
                                    "defaultValue" : 0.0,
                                    "interp" : "linr"
                                  }
                                },
                                "effects" : [

                                ],
                                "start" : 2917,
                                "duration" : 61,
                                "mediaStart" : 4960,
                                "mediaDuration" : 61,
                                "scalar" : 1,
                                "animationTracks" : {

                                }
                              },
                          "audio" : 
                              {
                                "id" : 674,
                                "_type" : "AMFile",
                                "src" : 1,
                                "trackNumber" : 1,
                                "attributes" : {
                                  "ident" : "",
                                  "gain" : 1.0,
                                  "mixToMono" : false
                                },
                                  "channelNumber" : "0,1",
                                "effects" : [

                                ],
                                "start" : 2917,
                                "duration" : 61,
                                "mediaStart" : 4960,
                                "mediaDuration" : 61,
                                "scalar" : 1,
                                "animationTracks" : {

                                }
                              }
,
                          "start" : 2917,
                          "duration" : 61,
                          "mediaStart" : 0,
                          "mediaDuration" : 10411,
                          "scalar" : 1,
                          "metadata" : {
                            "AutoAppliedSmartFocus" : "False",
                            "clipSpeedAttribute" : false
                          }
                        },
                        {
                          "id" : 675,
                          "_type" : "UnifiedMedia",
                          "video" : 
                              {
                                "id" : 676,
                                "_type" : "ScreenVMFile",
                                "src" : 1,
                                "trackNumber" : 0,
                                "attributes" : {
                                  "ident" : "Rec 01-28-21_001"
                                },
                                "parameters" : {
                                  "cursorScale" : {
                                    "type" : "double",
                                    "defaultValue" : 0.0,
                                    "interp" : "linr"
                                  },
                                  "cursorOpacity" : {
                                    "type" : "double",
                                    "defaultValue" : 0.0,
                                    "interp" : "linr"
                                  }
                                },
                                "effects" : [

                                ],
                                "start" : 2978,
                                "duration" : 172,
                                "mediaStart" : 5035,
                                "mediaDuration" : 172,
                                "scalar" : 1,
                                "animationTracks" : {

                                }
                              },
                          "audio" : 
                              {
                                "id" : 677,
                                "_type" : "AMFile",
                                "src" : 1,
                                "trackNumber" : 1,
                                "attributes" : {
                                  "ident" : "",
                                  "gain" : 1.0,
                                  "mixToMono" : false
                                },
                                  "channelNumber" : "0,1",
                                "effects" : [

                                ],
                                "start" : 2978,
                                "duration" : 172,
                                "mediaStart" : 5035,
                                "mediaDuration" : 172,
                                "scalar" : 1,
                                "animationTracks" : {

                                }
                              }
,
                          "start" : 2978,
                          "duration" : 172,
                          "mediaStart" : 0,
                          "mediaDuration" : 10411,
                          "scalar" : 1,
                          "metadata" : {
                            "AutoAppliedSmartFocus" : "False",
                            "clipSpeedAttribute" : false
                          }
                        },
                        {
                          "id" : 678,
                          "_type" : "UnifiedMedia",
                          "video" : 
                              {
                                "id" : 679,
                                "_type" : "ScreenVMFile",
                                "src" : 1,
                                "trackNumber" : 0,
                                "attributes" : {
                                  "ident" : "Rec 01-28-21_001"
                                },
                                "parameters" : {
                                  "cursorScale" : {
                                    "type" : "double",
                                    "defaultValue" : 0.0,
                                    "interp" : "linr"
                                  },
                                  "cursorOpacity" : {
                                    "type" : "double",
                                    "defaultValue" : 0.0,
                                    "interp" : "linr"
                                  }
                                },
                                "effects" : [

                                ],
                                "start" : 3150,
                                "duration" : 199,
                                "mediaStart" : 5255,
                                "mediaDuration" : 199,
                                "scalar" : 1,
                                "animationTracks" : {

                                }
                              },
                          "audio" : 
                              {
                                "id" : 680,
                                "_type" : "AMFile",
                                "src" : 1,
                                "trackNumber" : 1,
                                "attributes" : {
                                  "ident" : "",
                                  "gain" : 1.0,
                                  "mixToMono" : false
                                },
                                  "channelNumber" : "0,1",
                                "effects" : [

                                ],
                                "start" : 3150,
                                "duration" : 199,
                                "mediaStart" : 5255,
                                "mediaDuration" : 199,
                                "scalar" : 1,
                                "animationTracks" : {

                                }
                              }
,
                          "start" : 3150,
                          "duration" : 199,
                          "mediaStart" : 0,
                          "mediaDuration" : 10411,
                          "scalar" : 1,
                          "metadata" : {
                            "AutoAppliedSmartFocus" : "False",
                            "clipSpeedAttribute" : false
                          }
                        },
                        {
                          "id" : 681,
                          "_type" : "UnifiedMedia",
                          "video" : 
                              {
                                "id" : 682,
                                "_type" : "ScreenVMFile",
                                "src" : 1,
                                "trackNumber" : 0,
                                "attributes" : {
                                  "ident" : "Rec 01-28-21_001"
                                },
                                "parameters" : {
                                  "cursorScale" : {
                                    "type" : "double",
                                    "defaultValue" : 0.0,
                                    "interp" : "linr"
                                  },
                                  "cursorOpacity" : {
                                    "type" : "double",
                                    "defaultValue" : 0.0,
                                    "interp" : "linr"
                                  }
                                },
                                "effects" : [

                                ],
                                "start" : 3349,
                                "duration" : 150,
                                "mediaStart" : 5507,
                                "mediaDuration" : 150,
                                "scalar" : 1,
                                "animationTracks" : {

                                }
                              },
                          "audio" : 
                              {
                                "id" : 683,
                                "_type" : "AMFile",
                                "src" : 1,
                                "trackNumber" : 1,
                                "attributes" : {
                                  "ident" : "",
                                  "gain" : 1.0,
                                  "mixToMono" : false
                                },
                                  "channelNumber" : "0,1",
                                "effects" : [

                                ],
                                "start" : 3349,
                                "duration" : 150,
                                "mediaStart" : 5507,
                                "mediaDuration" : 150,
                                "scalar" : 1,
                                "animationTracks" : {

                                }
                              }
,
                          "start" : 3349,
                          "duration" : 150,
                          "mediaStart" : 0,
                          "mediaDuration" : 10411,
                          "scalar" : 1,
                          "metadata" : {
                            "AutoAppliedSmartFocus" : "False",
                            "clipSpeedAttribute" : false
                          }
                        },
                        {
                          "id" : 684,
                          "_type" : "UnifiedMedia",
                          "video" : 
                              {
                                "id" : 685,
                                "_type" : "ScreenVMFile",
                                "src" : 1,
                                "trackNumber" : 0,
                                "attributes" : {
                                  "ident" : "Rec 01-28-21_001"
                                },
                                "parameters" : {
                                  "cursorScale" : {
                                    "type" : "double",
                                    "defaultValue" : 0.0,
                                    "interp" : "linr"
                                  },
                                  "cursorOpacity" : {
                                    "type" : "double",
                                    "defaultValue" : 0.0,
                                    "interp" : "linr"
                                  }
                                },
                                "effects" : [

                                ],
                                "start" : 3499,
                                "duration" : 336,
                                "mediaStart" : 6158,
                                "mediaDuration" : 336,
                                "scalar" : 1,
                                "animationTracks" : {

                                }
                              },
                          "audio" : 
                              {
                                "id" : 686,
                                "_type" : "AMFile",
                                "src" : 1,
                                "trackNumber" : 1,
                                "attributes" : {
                                  "ident" : "",
                                  "gain" : 1.0,
                                  "mixToMono" : false
                                },
                                  "channelNumber" : "0,1",
                                "effects" : [

                                ],
                                "start" : 3499,
                                "duration" : 336,
                                "mediaStart" : 6158,
                                "mediaDuration" : 336,
                                "scalar" : 1,
                                "animationTracks" : {

                                }
                              }
,
                          "start" : 3499,
                          "duration" : 336,
                          "mediaStart" : 0,
                          "mediaDuration" : 10411,
                          "scalar" : 1,
                          "metadata" : {
                            "AutoAppliedSmartFocus" : "False",
                            "clipSpeedAttribute" : false
                          }
                        },
                        {
                          "id" : 687,
                          "_type" : "UnifiedMedia",
                          "video" : 
                              {
                                "id" : 688,
                                "_type" : "ScreenVMFile",
                                "src" : 1,
                                "trackNumber" : 0,
                                "attributes" : {
                                  "ident" : "Rec 01-28-21_001"
                                },
                                "parameters" : {
                                  "cursorScale" : {
                                    "type" : "double",
                                    "defaultValue" : 0.0,
                                    "interp" : "linr"
                                  },
                                  "cursorOpacity" : {
                                    "type" : "double",
                                    "defaultValue" : 0.0,
                                    "interp" : "linr"
                                  }
                                },
                                "effects" : [

                                ],
                                "start" : 3835,
                                "duration" : 73,
                                "mediaStart" : 6577,
                                "mediaDuration" : 73,
                                "scalar" : 1,
                                "animationTracks" : {

                                }
                              },
                          "audio" : 
                              {
                                "id" : 689,
                                "_type" : "AMFile",
                                "src" : 1,
                                "trackNumber" : 1,
                                "attributes" : {
                                  "ident" : "",
                                  "gain" : 1.0,
                                  "mixToMono" : false
                                },
                                  "channelNumber" : "0,1",
                                "effects" : [

                                ],
                                "start" : 3835,
                                "duration" : 73,
                                "mediaStart" : 6577,
                                "mediaDuration" : 73,
                                "scalar" : 1,
                                "animationTracks" : {

                                }
                              }
,
                          "start" : 3835,
                          "duration" : 73,
                          "mediaStart" : 0,
                          "mediaDuration" : 10411,
                          "scalar" : 1,
                          "metadata" : {
                            "AutoAppliedSmartFocus" : "False",
                            "clipSpeedAttribute" : false
                          }
                        },
                        {
                          "id" : 690,
                          "_type" : "UnifiedMedia",
                          "video" : 
                              {
                                "id" : 691,
                                "_type" : "ScreenVMFile",
                                "src" : 1,
                                "trackNumber" : 0,
                                "attributes" : {
                                  "ident" : "Rec 01-28-21_001"
                                },
                                "parameters" : {
                                  "cursorScale" : {
                                    "type" : "double",
                                    "defaultValue" : 0.0,
                                    "interp" : "linr"
                                  },
                                  "cursorOpacity" : {
                                    "type" : "double",
                                    "defaultValue" : 0.0,
                                    "interp" : "linr"
                                  }
                                },
                                "effects" : [

                                ],
                                "start" : 3908,
                                "duration" : 3732,
                                "mediaStart" : 6679,
                                "mediaDuration" : 3732,
                                "scalar" : 1,
                                "animationTracks" : {

                                }
                              },
                          "audio" : 
                              {
                                "id" : 692,
                                "_type" : "AMFile",
                                "src" : 1,
                                "trackNumber" : 1,
                                "attributes" : {
                                  "ident" : "",
                                  "gain" : 1.0,
                                  "mixToMono" : false
                                },
                                  "channelNumber" : "0,1",
                                "effects" : [

                                ],
                                "start" : 3908,
                                "duration" : 3732,
                                "mediaStart" : 6679,
                                "mediaDuration" : 3732,
                                "scalar" : 1,
                                "animationTracks" : {

                                }
                              }
,
                          "start" : 3908,
                          "duration" : 3732,
                          "mediaStart" : 0,
                          "mediaDuration" : 10411,
                          "scalar" : 1,
                          "metadata" : {
                            "AutoAppliedSmartFocus" : "False",
                            "clipSpeedAttribute" : false
                          }
                        }
                    ],
                    "effects" : [

                    ],
                    "start" : 2881,
                    "duration" : 479,
                    "mediaStart" : 3060,
                    "mediaDuration" : 479,
                    "scalar" : 1,
                    "metadata" : {
                      "AutoAppliedSmartFocus" : "False",
                      "clipSpeedAttribute" : false
                    },
                    "animationTracks" : {

                    }
                  },
                  {
                    "id" : 693,
                    "_type" : "Group",
                    "parameters" : {
                      "volume" : 1.0
                    },
                    "tracks" : [
                      {
                        "trackIndex" : 0,
                        "medias" : [
                          {
                            "id" : 694,
                            "_type" : "StitchedMedia",
                            "minMediaStart" : 0,
                            "attributes" : {
                              "ident" : "Rec 01-28-21_001",
                              "gain" : 1.0,
                              "mixToMono" : false
                            },
                            "parameters" : {
                              "cursorOpacity" : 1.0,
                              "cursorScale" : 1.0
                            },
                            "medias" : [
                                {
                                  "id" : 695,
                                  "_type" : "ScreenVMFile",
                                  "src" : 1,
                                  "trackNumber" : 0,
                                  "attributes" : {
                                    "ident" : "Rec 01-28-21_001"
                                  },
                                  "parameters" : {
                                    "cursorScale" : {
                                      "type" : "double",
                                      "defaultValue" : 0.0,
                                      "interp" : "linr"
                                    },
                                    "cursorOpacity" : {
                                      "type" : "double",
                                      "defaultValue" : 0.0,
                                      "interp" : "linr"
                                    }
                                  },
                                  "effects" : [

                                  ],
                                  "start" : 0,
                                  "duration" : 18,
                                  "mediaStart" : 0,
                                  "mediaDuration" : 18,
                                  "scalar" : 1,
                                  "metadata" : {
                                    "AutoAppliedSmartFocus" : "False"
                                  },
                                  "animationTracks" : {

                                  }
                                },
                                {
                                  "id" : 696,
                                  "_type" : "ScreenVMFile",
                                  "src" : 1,
                                  "trackNumber" : 0,
                                  "attributes" : {
                                    "ident" : "Rec 01-28-21_001"
                                  },
                                  "parameters" : {
                                    "cursorScale" : {
                                      "type" : "double",
                                      "defaultValue" : 0.0,
                                      "interp" : "linr"
                                    },
                                    "cursorOpacity" : {
                                      "type" : "double",
                                      "defaultValue" : 0.0,
                                      "interp" : "linr"
                                    }
                                  },
                                  "effects" : [

                                  ],
                                  "start" : 18,
                                  "duration" : 286,
                                  "mediaStart" : 55,
                                  "mediaDuration" : 286,
                                  "scalar" : 1,
                                  "metadata" : {
                                    "AutoAppliedSmartFocus" : "False"
                                  },
                                  "animationTracks" : {

                                  }
                                },
                                {
                                  "id" : 697,
                                  "_type" : "ScreenVMFile",
                                  "src" : 1,
                                  "trackNumber" : 0,
                                  "attributes" : {
                                    "ident" : "Rec 01-28-21_001"
                                  },
                                  "parameters" : {
                                    "cursorScale" : {
                                      "type" : "double",
                                      "defaultValue" : 0.0,
                                      "interp" : "linr"
                                    },
                                    "cursorOpacity" : {
                                      "type" : "double",
                                      "defaultValue" : 0.0,
                                      "interp" : "linr"
                                    }
                                  },
                                  "effects" : [

                                  ],
                                  "start" : 304,
                                  "duration" : 53,
                                  "mediaStart" : 367,
                                  "mediaDuration" : 53,
                                  "scalar" : 1,
                                  "metadata" : {
                                    "AutoAppliedSmartFocus" : "False"
                                  },
                                  "animationTracks" : {

                                  }
                                },
                                {
                                  "id" : 698,
                                  "_type" : "ScreenVMFile",
                                  "src" : 1,
                                  "trackNumber" : 0,
                                  "attributes" : {
                                    "ident" : "Rec 01-28-21_001"
                                  },
                                  "parameters" : {
                                    "cursorScale" : {
                                      "type" : "double",
                                      "defaultValue" : 0.0,
                                      "interp" : "linr"
                                    },
                                    "cursorOpacity" : {
                                      "type" : "double",
                                      "defaultValue" : 0.0,
                                      "interp" : "linr"
                                    }
                                  },
                                  "effects" : [

                                  ],
                                  "start" : 357,
                                  "duration" : 59,
                                  "mediaStart" : 477,
                                  "mediaDuration" : 59,
                                  "scalar" : 1,
                                  "metadata" : {
                                    "AutoAppliedSmartFocus" : "False"
                                  },
                                  "animationTracks" : {

                                  }
                                },
                                {
                                  "id" : 699,
                                  "_type" : "ScreenVMFile",
                                  "src" : 1,
                                  "trackNumber" : 0,
                                  "attributes" : {
                                    "ident" : "Rec 01-28-21_001"
                                  },
                                  "parameters" : {
                                    "cursorScale" : {
                                      "type" : "double",
                                      "defaultValue" : 0.0,
                                      "interp" : "linr"
                                    },
                                    "cursorOpacity" : {
                                      "type" : "double",
                                      "defaultValue" : 0.0,
                                      "interp" : "linr"
                                    }
                                  },
                                  "effects" : [

                                  ],
                                  "start" : 416,
                                  "duration" : 42,
                                  "mediaStart" : 590,
                                  "mediaDuration" : 42,
                                  "scalar" : 1,
                                  "metadata" : {
                                    "AutoAppliedSmartFocus" : "False"
                                  },
                                  "animationTracks" : {

                                  }
                                },
                                {
                                  "id" : 700,
                                  "_type" : "ScreenVMFile",
                                  "src" : 1,
                                  "trackNumber" : 0,
                                  "attributes" : {
                                    "ident" : "Rec 01-28-21_001"
                                  },
                                  "parameters" : {
                                    "cursorScale" : {
                                      "type" : "double",
                                      "defaultValue" : 0.0,
                                      "interp" : "linr"
                                    },
                                    "cursorOpacity" : {
                                      "type" : "double",
                                      "defaultValue" : 0.0,
                                      "interp" : "linr"
                                    }
                                  },
                                  "effects" : [

                                  ],
                                  "start" : 458,
                                  "duration" : 22,
                                  "mediaStart" : 646,
                                  "mediaDuration" : 22,
                                  "scalar" : 1,
                                  "metadata" : {
                                    "AutoAppliedSmartFocus" : "False"
                                  },
                                  "animationTracks" : {

                                  }
                                },
                                {
                                  "id" : 701,
                                  "_type" : "ScreenVMFile",
                                  "src" : 1,
                                  "trackNumber" : 0,
                                  "attributes" : {
                                    "ident" : "Rec 01-28-21_001"
                                  },
                                  "parameters" : {
                                    "cursorScale" : {
                                      "type" : "double",
                                      "defaultValue" : 0.0,
                                      "interp" : "linr"
                                    },
                                    "cursorOpacity" : {
                                      "type" : "double",
                                      "defaultValue" : 0.0,
                                      "interp" : "linr"
                                    }
                                  },
                                  "effects" : [

                                  ],
                                  "start" : 480,
                                  "duration" : 115,
                                  "mediaStart" : 762,
                                  "mediaDuration" : 115,
                                  "scalar" : 1,
                                  "metadata" : {
                                    "AutoAppliedSmartFocus" : "False"
                                  },
                                  "animationTracks" : {

                                  }
                                },
                                {
                                  "id" : 702,
                                  "_type" : "ScreenVMFile",
                                  "src" : 1,
                                  "trackNumber" : 0,
                                  "attributes" : {
                                    "ident" : "Rec 01-28-21_001"
                                  },
                                  "parameters" : {
                                    "cursorScale" : {
                                      "type" : "double",
                                      "defaultValue" : 0.0,
                                      "interp" : "linr"
                                    },
                                    "cursorOpacity" : {
                                      "type" : "double",
                                      "defaultValue" : 0.0,
                                      "interp" : "linr"
                                    }
                                  },
                                  "effects" : [

                                  ],
                                  "start" : 595,
                                  "duration" : 154,
                                  "mediaStart" : 1024,
                                  "mediaDuration" : 154,
                                  "scalar" : 1,
                                  "metadata" : {
                                    "AutoAppliedSmartFocus" : "False"
                                  },
                                  "animationTracks" : {

                                  }
                                },
                                {
                                  "id" : 703,
                                  "_type" : "ScreenVMFile",
                                  "src" : 1,
                                  "trackNumber" : 0,
                                  "attributes" : {
                                    "ident" : "Rec 01-28-21_001"
                                  },
                                  "parameters" : {
                                    "cursorScale" : {
                                      "type" : "double",
                                      "defaultValue" : 0.0,
                                      "interp" : "linr"
                                    },
                                    "cursorOpacity" : {
                                      "type" : "double",
                                      "defaultValue" : 0.0,
                                      "interp" : "linr"
                                    }
                                  },
                                  "effects" : [

                                  ],
                                  "start" : 749,
                                  "duration" : 135,
                                  "mediaStart" : 1207,
                                  "mediaDuration" : 135,
                                  "scalar" : 1,
                                  "metadata" : {
                                    "AutoAppliedSmartFocus" : "False"
                                  },
                                  "animationTracks" : {

                                  }
                                },
                                {
                                  "id" : 704,
                                  "_type" : "ScreenVMFile",
                                  "src" : 1,
                                  "trackNumber" : 0,
                                  "attributes" : {
                                    "ident" : "Rec 01-28-21_001"
                                  },
                                  "parameters" : {
                                    "cursorScale" : {
                                      "type" : "double",
                                      "defaultValue" : 0.0,
                                      "interp" : "linr"
                                    },
                                    "cursorOpacity" : {
                                      "type" : "double",
                                      "defaultValue" : 0.0,
                                      "interp" : "linr"
                                    }
                                  },
                                  "effects" : [

                                  ],
                                  "start" : 884,
                                  "duration" : 150,
                                  "mediaStart" : 1383,
                                  "mediaDuration" : 150,
                                  "scalar" : 1,
                                  "metadata" : {
                                    "AutoAppliedSmartFocus" : "False"
                                  },
                                  "animationTracks" : {

                                  }
                                },
                                {
                                  "id" : 705,
                                  "_type" : "ScreenVMFile",
                                  "src" : 1,
                                  "trackNumber" : 0,
                                  "attributes" : {
                                    "ident" : "Rec 01-28-21_001"
                                  },
                                  "parameters" : {
                                    "cursorScale" : {
                                      "type" : "double",
                                      "defaultValue" : 0.0,
                                      "interp" : "linr"
                                    },
                                    "cursorOpacity" : {
                                      "type" : "double",
                                      "defaultValue" : 0.0,
                                      "interp" : "linr"
                                    }
                                  },
                                  "effects" : [

                                  ],
                                  "start" : 1034,
                                  "duration" : 89,
                                  "mediaStart" : 1607,
                                  "mediaDuration" : 89,
                                  "scalar" : 1,
                                  "metadata" : {
                                    "AutoAppliedSmartFocus" : "False"
                                  },
                                  "animationTracks" : {

                                  }
                                },
                                {
                                  "id" : 706,
                                  "_type" : "ScreenVMFile",
                                  "src" : 1,
                                  "trackNumber" : 0,
                                  "attributes" : {
                                    "ident" : "Rec 01-28-21_001"
                                  },
                                  "parameters" : {
                                    "cursorScale" : {
                                      "type" : "double",
                                      "defaultValue" : 0.0,
                                      "interp" : "linr"
                                    },
                                    "cursorOpacity" : {
                                      "type" : "double",
                                      "defaultValue" : 0.0,
                                      "interp" : "linr"
                                    }
                                  },
                                  "effects" : [

                                  ],
                                  "start" : 1123,
                                  "duration" : 37,
                                  "mediaStart" : 1752,
                                  "mediaDuration" : 37,
                                  "scalar" : 1,
                                  "metadata" : {
                                    "AutoAppliedSmartFocus" : "False"
                                  },
                                  "animationTracks" : {

                                  }
                                },
                                {
                                  "id" : 707,
                                  "_type" : "ScreenVMFile",
                                  "src" : 1,
                                  "trackNumber" : 0,
                                  "attributes" : {
                                    "ident" : "Rec 01-28-21_001"
                                  },
                                  "parameters" : {
                                    "cursorScale" : {
                                      "type" : "double",
                                      "defaultValue" : 0.0,
                                      "interp" : "linr"
                                    },
                                    "cursorOpacity" : {
                                      "type" : "double",
                                      "defaultValue" : 0.0,
                                      "interp" : "linr"
                                    }
                                  },
                                  "effects" : [

                                  ],
                                  "start" : 1160,
                                  "duration" : 34,
                                  "mediaStart" : 1836,
                                  "mediaDuration" : 34,
                                  "scalar" : 1,
                                  "metadata" : {
                                    "AutoAppliedSmartFocus" : "False"
                                  },
                                  "animationTracks" : {

                                  }
                                },
                                {
                                  "id" : 708,
                                  "_type" : "ScreenVMFile",
                                  "src" : 1,
                                  "trackNumber" : 0,
                                  "attributes" : {
                                    "ident" : "Rec 01-28-21_001"
                                  },
                                  "parameters" : {
                                    "cursorScale" : {
                                      "type" : "double",
                                      "defaultValue" : 0.0,
                                      "interp" : "linr"
                                    },
                                    "cursorOpacity" : {
                                      "type" : "double",
                                      "defaultValue" : 0.0,
                                      "interp" : "linr"
                                    }
                                  },
                                  "effects" : [

                                  ],
                                  "start" : 1194,
                                  "duration" : 41,
                                  "mediaStart" : 1882,
                                  "mediaDuration" : 41,
                                  "scalar" : 1,
                                  "metadata" : {
                                    "AutoAppliedSmartFocus" : "False"
                                  },
                                  "animationTracks" : {

                                  }
                                },
                                {
                                  "id" : 709,
                                  "_type" : "ScreenVMFile",
                                  "src" : 1,
                                  "trackNumber" : 0,
                                  "attributes" : {
                                    "ident" : "Rec 01-28-21_001"
                                  },
                                  "parameters" : {
                                    "cursorScale" : {
                                      "type" : "double",
                                      "defaultValue" : 0.0,
                                      "interp" : "linr"
                                    },
                                    "cursorOpacity" : {
                                      "type" : "double",
                                      "defaultValue" : 0.0,
                                      "interp" : "linr"
                                    }
                                  },
                                  "effects" : [

                                  ],
                                  "start" : 1235,
                                  "duration" : 41,
                                  "mediaStart" : 1948,
                                  "mediaDuration" : 41,
                                  "scalar" : 1,
                                  "metadata" : {
                                    "AutoAppliedSmartFocus" : "False"
                                  },
                                  "animationTracks" : {

                                  }
                                },
                                {
                                  "id" : 710,
                                  "_type" : "ScreenVMFile",
                                  "src" : 1,
                                  "trackNumber" : 0,
                                  "attributes" : {
                                    "ident" : "Rec 01-28-21_001"
                                  },
                                  "parameters" : {
                                    "cursorScale" : {
                                      "type" : "double",
                                      "defaultValue" : 0.0,
                                      "interp" : "linr"
                                    },
                                    "cursorOpacity" : {
                                      "type" : "double",
                                      "defaultValue" : 0.0,
                                      "interp" : "linr"
                                    }
                                  },
                                  "effects" : [

                                  ],
                                  "start" : 1276,
                                  "duration" : 55,
                                  "mediaStart" : 2015,
                                  "mediaDuration" : 55,
                                  "scalar" : 1,
                                  "metadata" : {
                                    "AutoAppliedSmartFocus" : "False"
                                  },
                                  "animationTracks" : {

                                  }
                                },
                                {
                                  "id" : 711,
                                  "_type" : "ScreenVMFile",
                                  "src" : 1,
                                  "trackNumber" : 0,
                                  "attributes" : {
                                    "ident" : "Rec 01-28-21_001"
                                  },
                                  "parameters" : {
                                    "cursorScale" : {
                                      "type" : "double",
                                      "defaultValue" : 0.0,
                                      "interp" : "linr"
                                    },
                                    "cursorOpacity" : {
                                      "type" : "double",
                                      "defaultValue" : 0.0,
                                      "interp" : "linr"
                                    }
                                  },
                                  "effects" : [

                                  ],
                                  "start" : 1331,
                                  "duration" : 42,
                                  "mediaStart" : 2110,
                                  "mediaDuration" : 42,
                                  "scalar" : 1,
                                  "metadata" : {
                                    "AutoAppliedSmartFocus" : "False"
                                  },
                                  "animationTracks" : {

                                  }
                                },
                                {
                                  "id" : 712,
                                  "_type" : "ScreenVMFile",
                                  "src" : 1,
                                  "trackNumber" : 0,
                                  "attributes" : {
                                    "ident" : "Rec 01-28-21_001"
                                  },
                                  "parameters" : {
                                    "cursorScale" : {
                                      "type" : "double",
                                      "defaultValue" : 0.0,
                                      "interp" : "linr"
                                    },
                                    "cursorOpacity" : {
                                      "type" : "double",
                                      "defaultValue" : 0.0,
                                      "interp" : "linr"
                                    }
                                  },
                                  "effects" : [

                                  ],
                                  "start" : 1373,
                                  "duration" : 23,
                                  "mediaStart" : 2250,
                                  "mediaDuration" : 23,
                                  "scalar" : 1,
                                  "metadata" : {
                                    "AutoAppliedSmartFocus" : "False"
                                  },
                                  "animationTracks" : {

                                  }
                                },
                                {
                                  "id" : 713,
                                  "_type" : "ScreenVMFile",
                                  "src" : 1,
                                  "trackNumber" : 0,
                                  "attributes" : {
                                    "ident" : "Rec 01-28-21_001"
                                  },
                                  "parameters" : {
                                    "cursorScale" : {
                                      "type" : "double",
                                      "defaultValue" : 0.0,
                                      "interp" : "linr"
                                    },
                                    "cursorOpacity" : {
                                      "type" : "double",
                                      "defaultValue" : 0.0,
                                      "interp" : "linr"
                                    }
                                  },
                                  "effects" : [

                                  ],
                                  "start" : 1396,
                                  "duration" : 79,
                                  "mediaStart" : 2299,
                                  "mediaDuration" : 79,
                                  "scalar" : 1,
                                  "metadata" : {
                                    "AutoAppliedSmartFocus" : "False"
                                  },
                                  "animationTracks" : {

                                  }
                                },
                                {
                                  "id" : 714,
                                  "_type" : "ScreenVMFile",
                                  "src" : 1,
                                  "trackNumber" : 0,
                                  "attributes" : {
                                    "ident" : "Rec 01-28-21_001"
                                  },
                                  "parameters" : {
                                    "cursorScale" : {
                                      "type" : "double",
                                      "defaultValue" : 0.0,
                                      "interp" : "linr"
                                    },
                                    "cursorOpacity" : {
                                      "type" : "double",
                                      "defaultValue" : 0.0,
                                      "interp" : "linr"
                                    }
                                  },
                                  "effects" : [

                                  ],
                                  "start" : 1475,
                                  "duration" : 64,
                                  "mediaStart" : 2409,
                                  "mediaDuration" : 64,
                                  "scalar" : 1,
                                  "metadata" : {
                                    "AutoAppliedSmartFocus" : "False"
                                  },
                                  "animationTracks" : {

                                  }
                                },
                                {
                                  "id" : 715,
                                  "_type" : "ScreenVMFile",
                                  "src" : 1,
                                  "trackNumber" : 0,
                                  "attributes" : {
                                    "ident" : "Rec 01-28-21_001"
                                  },
                                  "parameters" : {
                                    "cursorScale" : {
                                      "type" : "double",
                                      "defaultValue" : 0.0,
                                      "interp" : "linr"
                                    },
                                    "cursorOpacity" : {
                                      "type" : "double",
                                      "defaultValue" : 0.0,
                                      "interp" : "linr"
                                    }
                                  },
                                  "effects" : [

                                  ],
                                  "start" : 1539,
                                  "duration" : 43,
                                  "mediaStart" : 2478,
                                  "mediaDuration" : 43,
                                  "scalar" : 1,
                                  "metadata" : {
                                    "AutoAppliedSmartFocus" : "False"
                                  },
                                  "animationTracks" : {

                                  }
                                },
                                {
                                  "id" : 716,
                                  "_type" : "ScreenVMFile",
                                  "src" : 1,
                                  "trackNumber" : 0,
                                  "attributes" : {
                                    "ident" : "Rec 01-28-21_001"
                                  },
                                  "parameters" : {
                                    "cursorScale" : {
                                      "type" : "double",
                                      "defaultValue" : 0.0,
                                      "interp" : "linr"
                                    },
                                    "cursorOpacity" : {
                                      "type" : "double",
                                      "defaultValue" : 0.0,
                                      "interp" : "linr"
                                    }
                                  },
                                  "effects" : [

                                  ],
                                  "start" : 1582,
                                  "duration" : 47,
                                  "mediaStart" : 2538,
                                  "mediaDuration" : 47,
                                  "scalar" : 1,
                                  "metadata" : {
                                    "AutoAppliedSmartFocus" : "False"
                                  },
                                  "animationTracks" : {

                                  }
                                },
                                {
                                  "id" : 717,
                                  "_type" : "ScreenVMFile",
                                  "src" : 1,
                                  "trackNumber" : 0,
                                  "attributes" : {
                                    "ident" : "Rec 01-28-21_001"
                                  },
                                  "parameters" : {
                                    "cursorScale" : {
                                      "type" : "double",
                                      "defaultValue" : 0.0,
                                      "interp" : "linr"
                                    },
                                    "cursorOpacity" : {
                                      "type" : "double",
                                      "defaultValue" : 0.0,
                                      "interp" : "linr"
                                    }
                                  },
                                  "effects" : [

                                  ],
                                  "start" : 1629,
                                  "duration" : 299,
                                  "mediaStart" : 2613,
                                  "mediaDuration" : 299,
                                  "scalar" : 1,
                                  "metadata" : {
                                    "AutoAppliedSmartFocus" : "False"
                                  },
                                  "animationTracks" : {

                                  }
                                },
                                {
                                  "id" : 718,
                                  "_type" : "ScreenVMFile",
                                  "src" : 1,
                                  "trackNumber" : 0,
                                  "attributes" : {
                                    "ident" : "Rec 01-28-21_001"
                                  },
                                  "parameters" : {
                                    "cursorScale" : {
                                      "type" : "double",
                                      "defaultValue" : 0.0,
                                      "interp" : "linr"
                                    },
                                    "cursorOpacity" : {
                                      "type" : "double",
                                      "defaultValue" : 0.0,
                                      "interp" : "linr"
                                    }
                                  },
                                  "effects" : [

                                  ],
                                  "start" : 1928,
                                  "duration" : 53,
                                  "mediaStart" : 3209,
                                  "mediaDuration" : 53,
                                  "scalar" : 1,
                                  "metadata" : {
                                    "AutoAppliedSmartFocus" : "False"
                                  },
                                  "animationTracks" : {

                                  }
                                },
                                {
                                  "id" : 719,
                                  "_type" : "ScreenVMFile",
                                  "src" : 1,
                                  "trackNumber" : 0,
                                  "attributes" : {
                                    "ident" : "Rec 01-28-21_001"
                                  },
                                  "parameters" : {
                                    "cursorScale" : {
                                      "type" : "double",
                                      "defaultValue" : 0.0,
                                      "interp" : "linr"
                                    },
                                    "cursorOpacity" : {
                                      "type" : "double",
                                      "defaultValue" : 0.0,
                                      "interp" : "linr"
                                    }
                                  },
                                  "effects" : [

                                  ],
                                  "start" : 1981,
                                  "duration" : 47,
                                  "mediaStart" : 3282,
                                  "mediaDuration" : 47,
                                  "scalar" : 1,
                                  "metadata" : {
                                    "AutoAppliedSmartFocus" : "False"
                                  },
                                  "animationTracks" : {

                                  }
                                },
                                {
                                  "id" : 720,
                                  "_type" : "ScreenVMFile",
                                  "src" : 1,
                                  "trackNumber" : 0,
                                  "attributes" : {
                                    "ident" : "Rec 01-28-21_001"
                                  },
                                  "parameters" : {
                                    "cursorScale" : {
                                      "type" : "double",
                                      "defaultValue" : 0.0,
                                      "interp" : "linr"
                                    },
                                    "cursorOpacity" : {
                                      "type" : "double",
                                      "defaultValue" : 0.0,
                                      "interp" : "linr"
                                    }
                                  },
                                  "effects" : [

                                  ],
                                  "start" : 2028,
                                  "duration" : 103,
                                  "mediaStart" : 3341,
                                  "mediaDuration" : 103,
                                  "scalar" : 1,
                                  "metadata" : {
                                    "AutoAppliedSmartFocus" : "False"
                                  },
                                  "animationTracks" : {

                                  }
                                },
                                {
                                  "id" : 721,
                                  "_type" : "ScreenVMFile",
                                  "src" : 1,
                                  "trackNumber" : 0,
                                  "attributes" : {
                                    "ident" : "Rec 01-28-21_001"
                                  },
                                  "parameters" : {
                                    "cursorScale" : {
                                      "type" : "double",
                                      "defaultValue" : 0.0,
                                      "interp" : "linr"
                                    },
                                    "cursorOpacity" : {
                                      "type" : "double",
                                      "defaultValue" : 0.0,
                                      "interp" : "linr"
                                    }
                                  },
                                  "effects" : [

                                  ],
                                  "start" : 2131,
                                  "duration" : 26,
                                  "mediaStart" : 3468,
                                  "mediaDuration" : 26,
                                  "scalar" : 1,
                                  "metadata" : {
                                    "AutoAppliedSmartFocus" : "False"
                                  },
                                  "animationTracks" : {

                                  }
                                },
                                {
                                  "id" : 722,
                                  "_type" : "ScreenVMFile",
                                  "src" : 1,
                                  "trackNumber" : 0,
                                  "attributes" : {
                                    "ident" : "Rec 01-28-21_001"
                                  },
                                  "parameters" : {
                                    "cursorScale" : {
                                      "type" : "double",
                                      "defaultValue" : 0.0,
                                      "interp" : "linr"
                                    },
                                    "cursorOpacity" : {
                                      "type" : "double",
                                      "defaultValue" : 0.0,
                                      "interp" : "linr"
                                    }
                                  },
                                  "effects" : [

                                  ],
                                  "start" : 2157,
                                  "duration" : 41,
                                  "mediaStart" : 3504,
                                  "mediaDuration" : 41,
                                  "scalar" : 1,
                                  "metadata" : {
                                    "AutoAppliedSmartFocus" : "False"
                                  },
                                  "animationTracks" : {

                                  }
                                },
                                {
                                  "id" : 723,
                                  "_type" : "ScreenVMFile",
                                  "src" : 1,
                                  "trackNumber" : 0,
                                  "attributes" : {
                                    "ident" : "Rec 01-28-21_001"
                                  },
                                  "parameters" : {
                                    "cursorScale" : {
                                      "type" : "double",
                                      "defaultValue" : 0.0,
                                      "interp" : "linr"
                                    },
                                    "cursorOpacity" : {
                                      "type" : "double",
                                      "defaultValue" : 0.0,
                                      "interp" : "linr"
                                    }
                                  },
                                  "effects" : [

                                  ],
                                  "start" : 2198,
                                  "duration" : 108,
                                  "mediaStart" : 3657,
                                  "mediaDuration" : 108,
                                  "scalar" : 1,
                                  "metadata" : {
                                    "AutoAppliedSmartFocus" : "False"
                                  },
                                  "animationTracks" : {

                                  }
                                },
                                {
                                  "id" : 724,
                                  "_type" : "ScreenVMFile",
                                  "src" : 1,
                                  "trackNumber" : 0,
                                  "attributes" : {
                                    "ident" : "Rec 01-28-21_001"
                                  },
                                  "parameters" : {
                                    "cursorScale" : {
                                      "type" : "double",
                                      "defaultValue" : 0.0,
                                      "interp" : "linr"
                                    },
                                    "cursorOpacity" : {
                                      "type" : "double",
                                      "defaultValue" : 0.0,
                                      "interp" : "linr"
                                    }
                                  },
                                  "effects" : [

                                  ],
                                  "start" : 2306,
                                  "duration" : 124,
                                  "mediaStart" : 3787,
                                  "mediaDuration" : 124,
                                  "scalar" : 1,
                                  "metadata" : {
                                    "AutoAppliedSmartFocus" : "False"
                                  },
                                  "animationTracks" : {

                                  }
                                },
                                {
                                  "id" : 725,
                                  "_type" : "ScreenVMFile",
                                  "src" : 1,
                                  "trackNumber" : 0,
                                  "attributes" : {
                                    "ident" : "Rec 01-28-21_001"
                                  },
                                  "parameters" : {
                                    "cursorScale" : {
                                      "type" : "double",
                                      "defaultValue" : 0.0,
                                      "interp" : "linr"
                                    },
                                    "cursorOpacity" : {
                                      "type" : "double",
                                      "defaultValue" : 0.0,
                                      "interp" : "linr"
                                    }
                                  },
                                  "effects" : [

                                  ],
                                  "start" : 2430,
                                  "duration" : 282,
                                  "mediaStart" : 3991,
                                  "mediaDuration" : 282,
                                  "scalar" : 1,
                                  "metadata" : {
                                    "AutoAppliedSmartFocus" : "False"
                                  },
                                  "animationTracks" : {

                                  }
                                },
                                {
                                  "id" : 726,
                                  "_type" : "ScreenVMFile",
                                  "src" : 1,
                                  "trackNumber" : 0,
                                  "attributes" : {
                                    "ident" : "Rec 01-28-21_001"
                                  },
                                  "parameters" : {
                                    "cursorScale" : {
                                      "type" : "double",
                                      "defaultValue" : 0.0,
                                      "interp" : "linr"
                                    },
                                    "cursorOpacity" : {
                                      "type" : "double",
                                      "defaultValue" : 0.0,
                                      "interp" : "linr"
                                    }
                                  },
                                  "effects" : [

                                  ],
                                  "start" : 2712,
                                  "duration" : 205,
                                  "mediaStart" : 4397,
                                  "mediaDuration" : 205,
                                  "scalar" : 1,
                                  "metadata" : {
                                    "AutoAppliedSmartFocus" : "False"
                                  },
                                  "animationTracks" : {

                                  }
                                },
                                {
                                  "id" : 727,
                                  "_type" : "ScreenVMFile",
                                  "src" : 1,
                                  "trackNumber" : 0,
                                  "attributes" : {
                                    "ident" : "Rec 01-28-21_001"
                                  },
                                  "parameters" : {
                                    "cursorScale" : {
                                      "type" : "double",
                                      "defaultValue" : 0.0,
                                      "interp" : "linr"
                                    },
                                    "cursorOpacity" : {
                                      "type" : "double",
                                      "defaultValue" : 0.0,
                                      "interp" : "linr"
                                    }
                                  },
                                  "effects" : [

                                  ],
                                  "start" : 2917,
                                  "duration" : 61,
                                  "mediaStart" : 4960,
                                  "mediaDuration" : 61,
                                  "scalar" : 1,
                                  "metadata" : {
                                    "AutoAppliedSmartFocus" : "False"
                                  },
                                  "animationTracks" : {

                                  }
                                },
                                {
                                  "id" : 728,
                                  "_type" : "ScreenVMFile",
                                  "src" : 1,
                                  "trackNumber" : 0,
                                  "attributes" : {
                                    "ident" : "Rec 01-28-21_001"
                                  },
                                  "parameters" : {
                                    "cursorScale" : {
                                      "type" : "double",
                                      "defaultValue" : 0.0,
                                      "interp" : "linr"
                                    },
                                    "cursorOpacity" : {
                                      "type" : "double",
                                      "defaultValue" : 0.0,
                                      "interp" : "linr"
                                    }
                                  },
                                  "effects" : [

                                  ],
                                  "start" : 2978,
                                  "duration" : 172,
                                  "mediaStart" : 5035,
                                  "mediaDuration" : 172,
                                  "scalar" : 1,
                                  "metadata" : {
                                    "AutoAppliedSmartFocus" : "False"
                                  },
                                  "animationTracks" : {

                                  }
                                },
                                {
                                  "id" : 729,
                                  "_type" : "ScreenVMFile",
                                  "src" : 1,
                                  "trackNumber" : 0,
                                  "attributes" : {
                                    "ident" : "Rec 01-28-21_001"
                                  },
                                  "parameters" : {
                                    "cursorScale" : {
                                      "type" : "double",
                                      "defaultValue" : 0.0,
                                      "interp" : "linr"
                                    },
                                    "cursorOpacity" : {
                                      "type" : "double",
                                      "defaultValue" : 0.0,
                                      "interp" : "linr"
                                    }
                                  },
                                  "effects" : [

                                  ],
                                  "start" : 3150,
                                  "duration" : 199,
                                  "mediaStart" : 5255,
                                  "mediaDuration" : 199,
                                  "scalar" : 1,
                                  "metadata" : {
                                    "AutoAppliedSmartFocus" : "False"
                                  },
                                  "animationTracks" : {

                                  }
                                },
                                {
                                  "id" : 730,
                                  "_type" : "ScreenVMFile",
                                  "src" : 1,
                                  "trackNumber" : 0,
                                  "attributes" : {
                                    "ident" : "Rec 01-28-21_001"
                                  },
                                  "parameters" : {
                                    "cursorScale" : {
                                      "type" : "double",
                                      "defaultValue" : 0.0,
                                      "interp" : "linr"
                                    },
                                    "cursorOpacity" : {
                                      "type" : "double",
                                      "defaultValue" : 0.0,
                                      "interp" : "linr"
                                    }
                                  },
                                  "effects" : [

                                  ],
                                  "start" : 3349,
                                  "duration" : 150,
                                  "mediaStart" : 5507,
                                  "mediaDuration" : 150,
                                  "scalar" : 1,
                                  "metadata" : {
                                    "AutoAppliedSmartFocus" : "False"
                                  },
                                  "animationTracks" : {

                                  }
                                },
                                {
                                  "id" : 731,
                                  "_type" : "ScreenVMFile",
                                  "src" : 1,
                                  "trackNumber" : 0,
                                  "attributes" : {
                                    "ident" : "Rec 01-28-21_001"
                                  },
                                  "parameters" : {
                                    "cursorScale" : {
                                      "type" : "double",
                                      "defaultValue" : 0.0,
                                      "interp" : "linr"
                                    },
                                    "cursorOpacity" : {
                                      "type" : "double",
                                      "defaultValue" : 0.0,
                                      "interp" : "linr"
                                    }
                                  },
                                  "effects" : [

                                  ],
                                  "start" : 3499,
                                  "duration" : 336,
                                  "mediaStart" : 6158,
                                  "mediaDuration" : 336,
                                  "scalar" : 1,
                                  "metadata" : {
                                    "AutoAppliedSmartFocus" : "False"
                                  },
                                  "animationTracks" : {

                                  }
                                },
                                {
                                  "id" : 732,
                                  "_type" : "ScreenVMFile",
                                  "src" : 1,
                                  "trackNumber" : 0,
                                  "attributes" : {
                                    "ident" : "Rec 01-28-21_001"
                                  },
                                  "parameters" : {
                                    "cursorScale" : {
                                      "type" : "double",
                                      "defaultValue" : 0.0,
                                      "interp" : "linr"
                                    },
                                    "cursorOpacity" : {
                                      "type" : "double",
                                      "defaultValue" : 0.0,
                                      "interp" : "linr"
                                    }
                                  },
                                  "effects" : [

                                  ],
                                  "start" : 3835,
                                  "duration" : 73,
                                  "mediaStart" : 6577,
                                  "mediaDuration" : 73,
                                  "scalar" : 1,
                                  "metadata" : {
                                    "AutoAppliedSmartFocus" : "False"
                                  },
                                  "animationTracks" : {

                                  }
                                },
                                {
                                  "id" : 733,
                                  "_type" : "ScreenVMFile",
                                  "src" : 1,
                                  "trackNumber" : 0,
                                  "attributes" : {
                                    "ident" : "Rec 01-28-21_001"
                                  },
                                  "parameters" : {
                                    "cursorScale" : {
                                      "type" : "double",
                                      "defaultValue" : 0.0,
                                      "interp" : "linr"
                                    },
                                    "cursorOpacity" : {
                                      "type" : "double",
                                      "defaultValue" : 0.0,
                                      "interp" : "linr"
                                    }
                                  },
                                  "effects" : [

                                  ],
                                  "start" : 3908,
                                  "duration" : 3732,
                                  "mediaStart" : 6679,
                                  "mediaDuration" : 3732,
                                  "scalar" : 1,
                                  "metadata" : {
                                    "AutoAppliedSmartFocus" : "False"
                                  },
                                  "animationTracks" : {

                                  }
                                }
                            ],
                            "effects" : [

                            ],
                            "start" : 0,
                            "duration" : 139,
                            "mediaStart" : 3539,
                            "mediaDuration" : 139,
                            "scalar" : 1,
                            "metadata" : {
                              "AutoAppliedSmartFocus" : "False",
                              "clipSpeedAttribute" : false
                            },
                            "animationTracks" : {

                            }
                          }
                        ],
                          "ident" : "",
                          "audioMuted" : false,
                          "videoHidden" : false,
                          "magnetic" : false,
                          "matte" : 0,
                          "metadata" : {
                            "IsLocked" : "False",
                            "WinTrackHeight" : "0"
                          }
                      },
                      {
                        "trackIndex" : 1,
                        "medias" : [
                          {
                            "id" : 734,
                            "_type" : "AMFile",
                            "src" : 10,
                            "trackNumber" : 0,
                            "attributes" : {
                              "ident" : "Narration_3-3 Kubernetes-Deployment 7",
                              "gain" : 1.0,
                              "mixToMono" : false
                            },
                              "channelNumber" : "0,1",
                            "effects" : [

                            ],
                            "start" : 0,
                            "duration" : 122,
                            "mediaStart" : 0,
                            "mediaDuration" : 122,
                            "scalar" : 1,
                            "metadata" : {
                              "clipSpeedAttribute" : false
                            },
                            "animationTracks" : {

                            }
                          }
                        ],
                          "ident" : "",
                          "audioMuted" : false,
                          "videoHidden" : false,
                          "magnetic" : false,
                          "matte" : 0,
                          "metadata" : {
                            "IsLocked" : "False",
                            "WinTrackHeight" : "2.67715389184567e-313"
                          }
                      }
                    ],
                    "attributes" : {
                      "ident" : "Group 1",
                      "gain" : 1.0,
                      "mixToMono" : false
                    },
                    "effects" : [

                    ],
                    "start" : 3360,
                    "duration" : 139,
                    "mediaStart" : 0.0,
                    "mediaDuration" : 139.0,
                    "scalar" : 1,
                    "metadata" : {
                      "IsGroupExpanded" : "False"
                    },
                    "animationTracks" : {

                    }
                  },
                  {
                    "id" : 735,
                    "_type" : "StitchedMedia",
                    "minMediaStart" : 0,
                    "attributes" : {
                      "ident" : "Rec 01-28-21_001",
                      "gain" : 1.0,
                      "mixToMono" : false
                    },
                    "parameters" : {
                      "volume" : 1.0,
                      "cursorOpacity" : 1.0,
                      "cursorScale" : 1.0
                    },
                    "medias" : [
                        {
                          "id" : 736,
                          "_type" : "UnifiedMedia",
                          "video" : 
                              {
                                "id" : 737,
                                "_type" : "ScreenVMFile",
                                "src" : 1,
                                "trackNumber" : 0,
                                "attributes" : {
                                  "ident" : "Rec 01-28-21_001"
                                },
                                "parameters" : {
                                  "cursorScale" : {
                                    "type" : "double",
                                    "defaultValue" : 0.0,
                                    "interp" : "linr"
                                  },
                                  "cursorOpacity" : {
                                    "type" : "double",
                                    "defaultValue" : 0.0,
                                    "interp" : "linr"
                                  }
                                },
                                "effects" : [

                                ],
                                "start" : 0,
                                "duration" : 18,
                                "mediaStart" : 0,
                                "mediaDuration" : 18,
                                "scalar" : 1,
                                "animationTracks" : {

                                }
                              },
                          "audio" : 
                              {
                                "id" : 738,
                                "_type" : "AMFile",
                                "src" : 1,
                                "trackNumber" : 1,
                                "attributes" : {
                                  "ident" : "",
                                  "gain" : 1.0,
                                  "mixToMono" : false
                                },
                                  "channelNumber" : "0,1",
                                "effects" : [

                                ],
                                "start" : 0,
                                "duration" : 18,
                                "mediaStart" : 0,
                                "mediaDuration" : 18,
                                "scalar" : 1,
                                "animationTracks" : {

                                }
                              }
,
                          "start" : 0,
                          "duration" : 18,
                          "mediaStart" : 0,
                          "mediaDuration" : 10411,
                          "scalar" : 1,
                          "metadata" : {
                            "AutoAppliedSmartFocus" : "False",
                            "clipSpeedAttribute" : false
                          }
                        },
                        {
                          "id" : 739,
                          "_type" : "UnifiedMedia",
                          "video" : 
                              {
                                "id" : 740,
                                "_type" : "ScreenVMFile",
                                "src" : 1,
                                "trackNumber" : 0,
                                "attributes" : {
                                  "ident" : "Rec 01-28-21_001"
                                },
                                "parameters" : {
                                  "cursorScale" : {
                                    "type" : "double",
                                    "defaultValue" : 0.0,
                                    "interp" : "linr"
                                  },
                                  "cursorOpacity" : {
                                    "type" : "double",
                                    "defaultValue" : 0.0,
                                    "interp" : "linr"
                                  }
                                },
                                "effects" : [

                                ],
                                "start" : 18,
                                "duration" : 286,
                                "mediaStart" : 55,
                                "mediaDuration" : 286,
                                "scalar" : 1,
                                "animationTracks" : {

                                }
                              },
                          "audio" : 
                              {
                                "id" : 741,
                                "_type" : "AMFile",
                                "src" : 1,
                                "trackNumber" : 1,
                                "attributes" : {
                                  "ident" : "",
                                  "gain" : 1.0,
                                  "mixToMono" : false
                                },
                                  "channelNumber" : "0,1",
                                "effects" : [

                                ],
                                "start" : 18,
                                "duration" : 286,
                                "mediaStart" : 55,
                                "mediaDuration" : 286,
                                "scalar" : 1,
                                "animationTracks" : {

                                }
                              }
,
                          "start" : 18,
                          "duration" : 286,
                          "mediaStart" : 0,
                          "mediaDuration" : 10411,
                          "scalar" : 1,
                          "metadata" : {
                            "AutoAppliedSmartFocus" : "False",
                            "clipSpeedAttribute" : false
                          }
                        },
                        {
                          "id" : 742,
                          "_type" : "UnifiedMedia",
                          "video" : 
                              {
                                "id" : 743,
                                "_type" : "ScreenVMFile",
                                "src" : 1,
                                "trackNumber" : 0,
                                "attributes" : {
                                  "ident" : "Rec 01-28-21_001"
                                },
                                "parameters" : {
                                  "cursorScale" : {
                                    "type" : "double",
                                    "defaultValue" : 0.0,
                                    "interp" : "linr"
                                  },
                                  "cursorOpacity" : {
                                    "type" : "double",
                                    "defaultValue" : 0.0,
                                    "interp" : "linr"
                                  }
                                },
                                "effects" : [

                                ],
                                "start" : 304,
                                "duration" : 53,
                                "mediaStart" : 367,
                                "mediaDuration" : 53,
                                "scalar" : 1,
                                "animationTracks" : {

                                }
                              },
                          "audio" : 
                              {
                                "id" : 744,
                                "_type" : "AMFile",
                                "src" : 1,
                                "trackNumber" : 1,
                                "attributes" : {
                                  "ident" : "",
                                  "gain" : 1.0,
                                  "mixToMono" : false
                                },
                                  "channelNumber" : "0,1",
                                "effects" : [

                                ],
                                "start" : 304,
                                "duration" : 53,
                                "mediaStart" : 367,
                                "mediaDuration" : 53,
                                "scalar" : 1,
                                "animationTracks" : {

                                }
                              }
,
                          "start" : 304,
                          "duration" : 53,
                          "mediaStart" : 0,
                          "mediaDuration" : 10411,
                          "scalar" : 1,
                          "metadata" : {
                            "AutoAppliedSmartFocus" : "False",
                            "clipSpeedAttribute" : false
                          }
                        },
                        {
                          "id" : 745,
                          "_type" : "UnifiedMedia",
                          "video" : 
                              {
                                "id" : 746,
                                "_type" : "ScreenVMFile",
                                "src" : 1,
                                "trackNumber" : 0,
                                "attributes" : {
                                  "ident" : "Rec 01-28-21_001"
                                },
                                "parameters" : {
                                  "cursorScale" : {
                                    "type" : "double",
                                    "defaultValue" : 0.0,
                                    "interp" : "linr"
                                  },
                                  "cursorOpacity" : {
                                    "type" : "double",
                                    "defaultValue" : 0.0,
                                    "interp" : "linr"
                                  }
                                },
                                "effects" : [

                                ],
                                "start" : 357,
                                "duration" : 59,
                                "mediaStart" : 477,
                                "mediaDuration" : 59,
                                "scalar" : 1,
                                "animationTracks" : {

                                }
                              },
                          "audio" : 
                              {
                                "id" : 747,
                                "_type" : "AMFile",
                                "src" : 1,
                                "trackNumber" : 1,
                                "attributes" : {
                                  "ident" : "",
                                  "gain" : 1.0,
                                  "mixToMono" : false
                                },
                                  "channelNumber" : "0,1",
                                "effects" : [

                                ],
                                "start" : 357,
                                "duration" : 59,
                                "mediaStart" : 477,
                                "mediaDuration" : 59,
                                "scalar" : 1,
                                "animationTracks" : {

                                }
                              }
,
                          "start" : 357,
                          "duration" : 59,
                          "mediaStart" : 0,
                          "mediaDuration" : 10411,
                          "scalar" : 1,
                          "metadata" : {
                            "AutoAppliedSmartFocus" : "False",
                            "clipSpeedAttribute" : false
                          }
                        },
                        {
                          "id" : 748,
                          "_type" : "UnifiedMedia",
                          "video" : 
                              {
                                "id" : 749,
                                "_type" : "ScreenVMFile",
                                "src" : 1,
                                "trackNumber" : 0,
                                "attributes" : {
                                  "ident" : "Rec 01-28-21_001"
                                },
                                "parameters" : {
                                  "cursorScale" : {
                                    "type" : "double",
                                    "defaultValue" : 0.0,
                                    "interp" : "linr"
                                  },
                                  "cursorOpacity" : {
                                    "type" : "double",
                                    "defaultValue" : 0.0,
                                    "interp" : "linr"
                                  }
                                },
                                "effects" : [

                                ],
                                "start" : 416,
                                "duration" : 42,
                                "mediaStart" : 590,
                                "mediaDuration" : 42,
                                "scalar" : 1,
                                "animationTracks" : {

                                }
                              },
                          "audio" : 
                              {
                                "id" : 750,
                                "_type" : "AMFile",
                                "src" : 1,
                                "trackNumber" : 1,
                                "attributes" : {
                                  "ident" : "",
                                  "gain" : 1.0,
                                  "mixToMono" : false
                                },
                                  "channelNumber" : "0,1",
                                "effects" : [

                                ],
                                "start" : 416,
                                "duration" : 42,
                                "mediaStart" : 590,
                                "mediaDuration" : 42,
                                "scalar" : 1,
                                "animationTracks" : {

                                }
                              }
,
                          "start" : 416,
                          "duration" : 42,
                          "mediaStart" : 0,
                          "mediaDuration" : 10411,
                          "scalar" : 1,
                          "metadata" : {
                            "AutoAppliedSmartFocus" : "False",
                            "clipSpeedAttribute" : false
                          }
                        },
                        {
                          "id" : 751,
                          "_type" : "UnifiedMedia",
                          "video" : 
                              {
                                "id" : 752,
                                "_type" : "ScreenVMFile",
                                "src" : 1,
                                "trackNumber" : 0,
                                "attributes" : {
                                  "ident" : "Rec 01-28-21_001"
                                },
                                "parameters" : {
                                  "cursorScale" : {
                                    "type" : "double",
                                    "defaultValue" : 0.0,
                                    "interp" : "linr"
                                  },
                                  "cursorOpacity" : {
                                    "type" : "double",
                                    "defaultValue" : 0.0,
                                    "interp" : "linr"
                                  }
                                },
                                "effects" : [

                                ],
                                "start" : 458,
                                "duration" : 22,
                                "mediaStart" : 646,
                                "mediaDuration" : 22,
                                "scalar" : 1,
                                "animationTracks" : {

                                }
                              },
                          "audio" : 
                              {
                                "id" : 753,
                                "_type" : "AMFile",
                                "src" : 1,
                                "trackNumber" : 1,
                                "attributes" : {
                                  "ident" : "",
                                  "gain" : 1.0,
                                  "mixToMono" : false
                                },
                                  "channelNumber" : "0,1",
                                "effects" : [

                                ],
                                "start" : 458,
                                "duration" : 22,
                                "mediaStart" : 646,
                                "mediaDuration" : 22,
                                "scalar" : 1,
                                "animationTracks" : {

                                }
                              }
,
                          "start" : 458,
                          "duration" : 22,
                          "mediaStart" : 0,
                          "mediaDuration" : 10411,
                          "scalar" : 1,
                          "metadata" : {
                            "AutoAppliedSmartFocus" : "False",
                            "clipSpeedAttribute" : false
                          }
                        },
                        {
                          "id" : 754,
                          "_type" : "UnifiedMedia",
                          "video" : 
                              {
                                "id" : 755,
                                "_type" : "ScreenVMFile",
                                "src" : 1,
                                "trackNumber" : 0,
                                "attributes" : {
                                  "ident" : "Rec 01-28-21_001"
                                },
                                "parameters" : {
                                  "cursorScale" : {
                                    "type" : "double",
                                    "defaultValue" : 0.0,
                                    "interp" : "linr"
                                  },
                                  "cursorOpacity" : {
                                    "type" : "double",
                                    "defaultValue" : 0.0,
                                    "interp" : "linr"
                                  }
                                },
                                "effects" : [

                                ],
                                "start" : 480,
                                "duration" : 115,
                                "mediaStart" : 762,
                                "mediaDuration" : 115,
                                "scalar" : 1,
                                "animationTracks" : {

                                }
                              },
                          "audio" : 
                              {
                                "id" : 756,
                                "_type" : "AMFile",
                                "src" : 1,
                                "trackNumber" : 1,
                                "attributes" : {
                                  "ident" : "",
                                  "gain" : 1.0,
                                  "mixToMono" : false
                                },
                                  "channelNumber" : "0,1",
                                "effects" : [

                                ],
                                "start" : 480,
                                "duration" : 115,
                                "mediaStart" : 762,
                                "mediaDuration" : 115,
                                "scalar" : 1,
                                "animationTracks" : {

                                }
                              }
,
                          "start" : 480,
                          "duration" : 115,
                          "mediaStart" : 0,
                          "mediaDuration" : 10411,
                          "scalar" : 1,
                          "metadata" : {
                            "AutoAppliedSmartFocus" : "False",
                            "clipSpeedAttribute" : false
                          }
                        },
                        {
                          "id" : 757,
                          "_type" : "UnifiedMedia",
                          "video" : 
                              {
                                "id" : 758,
                                "_type" : "ScreenVMFile",
                                "src" : 1,
                                "trackNumber" : 0,
                                "attributes" : {
                                  "ident" : "Rec 01-28-21_001"
                                },
                                "parameters" : {
                                  "cursorScale" : {
                                    "type" : "double",
                                    "defaultValue" : 0.0,
                                    "interp" : "linr"
                                  },
                                  "cursorOpacity" : {
                                    "type" : "double",
                                    "defaultValue" : 0.0,
                                    "interp" : "linr"
                                  }
                                },
                                "effects" : [

                                ],
                                "start" : 595,
                                "duration" : 154,
                                "mediaStart" : 1024,
                                "mediaDuration" : 154,
                                "scalar" : 1,
                                "animationTracks" : {

                                }
                              },
                          "audio" : 
                              {
                                "id" : 759,
                                "_type" : "AMFile",
                                "src" : 1,
                                "trackNumber" : 1,
                                "attributes" : {
                                  "ident" : "",
                                  "gain" : 1.0,
                                  "mixToMono" : false
                                },
                                  "channelNumber" : "0,1",
                                "effects" : [

                                ],
                                "start" : 595,
                                "duration" : 154,
                                "mediaStart" : 1024,
                                "mediaDuration" : 154,
                                "scalar" : 1,
                                "animationTracks" : {

                                }
                              }
,
                          "start" : 595,
                          "duration" : 154,
                          "mediaStart" : 0,
                          "mediaDuration" : 10411,
                          "scalar" : 1,
                          "metadata" : {
                            "AutoAppliedSmartFocus" : "False",
                            "clipSpeedAttribute" : false
                          }
                        },
                        {
                          "id" : 760,
                          "_type" : "UnifiedMedia",
                          "video" : 
                              {
                                "id" : 761,
                                "_type" : "ScreenVMFile",
                                "src" : 1,
                                "trackNumber" : 0,
                                "attributes" : {
                                  "ident" : "Rec 01-28-21_001"
                                },
                                "parameters" : {
                                  "cursorScale" : {
                                    "type" : "double",
                                    "defaultValue" : 0.0,
                                    "interp" : "linr"
                                  },
                                  "cursorOpacity" : {
                                    "type" : "double",
                                    "defaultValue" : 0.0,
                                    "interp" : "linr"
                                  }
                                },
                                "effects" : [

                                ],
                                "start" : 749,
                                "duration" : 135,
                                "mediaStart" : 1207,
                                "mediaDuration" : 135,
                                "scalar" : 1,
                                "animationTracks" : {

                                }
                              },
                          "audio" : 
                              {
                                "id" : 762,
                                "_type" : "AMFile",
                                "src" : 1,
                                "trackNumber" : 1,
                                "attributes" : {
                                  "ident" : "",
                                  "gain" : 1.0,
                                  "mixToMono" : false
                                },
                                  "channelNumber" : "0,1",
                                "effects" : [

                                ],
                                "start" : 749,
                                "duration" : 135,
                                "mediaStart" : 1207,
                                "mediaDuration" : 135,
                                "scalar" : 1,
                                "animationTracks" : {

                                }
                              }
,
                          "start" : 749,
                          "duration" : 135,
                          "mediaStart" : 0,
                          "mediaDuration" : 10411,
                          "scalar" : 1,
                          "metadata" : {
                            "AutoAppliedSmartFocus" : "False",
                            "clipSpeedAttribute" : false
                          }
                        },
                        {
                          "id" : 763,
                          "_type" : "UnifiedMedia",
                          "video" : 
                              {
                                "id" : 764,
                                "_type" : "ScreenVMFile",
                                "src" : 1,
                                "trackNumber" : 0,
                                "attributes" : {
                                  "ident" : "Rec 01-28-21_001"
                                },
                                "parameters" : {
                                  "cursorScale" : {
                                    "type" : "double",
                                    "defaultValue" : 0.0,
                                    "interp" : "linr"
                                  },
                                  "cursorOpacity" : {
                                    "type" : "double",
                                    "defaultValue" : 0.0,
                                    "interp" : "linr"
                                  }
                                },
                                "effects" : [

                                ],
                                "start" : 884,
                                "duration" : 150,
                                "mediaStart" : 1383,
                                "mediaDuration" : 150,
                                "scalar" : 1,
                                "animationTracks" : {

                                }
                              },
                          "audio" : 
                              {
                                "id" : 765,
                                "_type" : "AMFile",
                                "src" : 1,
                                "trackNumber" : 1,
                                "attributes" : {
                                  "ident" : "",
                                  "gain" : 1.0,
                                  "mixToMono" : false
                                },
                                  "channelNumber" : "0,1",
                                "effects" : [

                                ],
                                "start" : 884,
                                "duration" : 150,
                                "mediaStart" : 1383,
                                "mediaDuration" : 150,
                                "scalar" : 1,
                                "animationTracks" : {

                                }
                              }
,
                          "start" : 884,
                          "duration" : 150,
                          "mediaStart" : 0,
                          "mediaDuration" : 10411,
                          "scalar" : 1,
                          "metadata" : {
                            "AutoAppliedSmartFocus" : "False",
                            "clipSpeedAttribute" : false
                          }
                        },
                        {
                          "id" : 766,
                          "_type" : "UnifiedMedia",
                          "video" : 
                              {
                                "id" : 767,
                                "_type" : "ScreenVMFile",
                                "src" : 1,
                                "trackNumber" : 0,
                                "attributes" : {
                                  "ident" : "Rec 01-28-21_001"
                                },
                                "parameters" : {
                                  "cursorScale" : {
                                    "type" : "double",
                                    "defaultValue" : 0.0,
                                    "interp" : "linr"
                                  },
                                  "cursorOpacity" : {
                                    "type" : "double",
                                    "defaultValue" : 0.0,
                                    "interp" : "linr"
                                  }
                                },
                                "effects" : [

                                ],
                                "start" : 1034,
                                "duration" : 89,
                                "mediaStart" : 1607,
                                "mediaDuration" : 89,
                                "scalar" : 1,
                                "animationTracks" : {

                                }
                              },
                          "audio" : 
                              {
                                "id" : 768,
                                "_type" : "AMFile",
                                "src" : 1,
                                "trackNumber" : 1,
                                "attributes" : {
                                  "ident" : "",
                                  "gain" : 1.0,
                                  "mixToMono" : false
                                },
                                  "channelNumber" : "0,1",
                                "effects" : [

                                ],
                                "start" : 1034,
                                "duration" : 89,
                                "mediaStart" : 1607,
                                "mediaDuration" : 89,
                                "scalar" : 1,
                                "animationTracks" : {

                                }
                              }
,
                          "start" : 1034,
                          "duration" : 89,
                          "mediaStart" : 0,
                          "mediaDuration" : 10411,
                          "scalar" : 1,
                          "metadata" : {
                            "AutoAppliedSmartFocus" : "False",
                            "clipSpeedAttribute" : false
                          }
                        },
                        {
                          "id" : 769,
                          "_type" : "UnifiedMedia",
                          "video" : 
                              {
                                "id" : 770,
                                "_type" : "ScreenVMFile",
                                "src" : 1,
                                "trackNumber" : 0,
                                "attributes" : {
                                  "ident" : "Rec 01-28-21_001"
                                },
                                "parameters" : {
                                  "cursorScale" : {
                                    "type" : "double",
                                    "defaultValue" : 0.0,
                                    "interp" : "linr"
                                  },
                                  "cursorOpacity" : {
                                    "type" : "double",
                                    "defaultValue" : 0.0,
                                    "interp" : "linr"
                                  }
                                },
                                "effects" : [

                                ],
                                "start" : 1123,
                                "duration" : 37,
                                "mediaStart" : 1752,
                                "mediaDuration" : 37,
                                "scalar" : 1,
                                "animationTracks" : {

                                }
                              },
                          "audio" : 
                              {
                                "id" : 771,
                                "_type" : "AMFile",
                                "src" : 1,
                                "trackNumber" : 1,
                                "attributes" : {
                                  "ident" : "",
                                  "gain" : 1.0,
                                  "mixToMono" : false
                                },
                                  "channelNumber" : "0,1",
                                "effects" : [

                                ],
                                "start" : 1123,
                                "duration" : 37,
                                "mediaStart" : 1752,
                                "mediaDuration" : 37,
                                "scalar" : 1,
                                "animationTracks" : {

                                }
                              }
,
                          "start" : 1123,
                          "duration" : 37,
                          "mediaStart" : 0,
                          "mediaDuration" : 10411,
                          "scalar" : 1,
                          "metadata" : {
                            "AutoAppliedSmartFocus" : "False",
                            "clipSpeedAttribute" : false
                          }
                        },
                        {
                          "id" : 772,
                          "_type" : "UnifiedMedia",
                          "video" : 
                              {
                                "id" : 773,
                                "_type" : "ScreenVMFile",
                                "src" : 1,
                                "trackNumber" : 0,
                                "attributes" : {
                                  "ident" : "Rec 01-28-21_001"
                                },
                                "parameters" : {
                                  "cursorScale" : {
                                    "type" : "double",
                                    "defaultValue" : 0.0,
                                    "interp" : "linr"
                                  },
                                  "cursorOpacity" : {
                                    "type" : "double",
                                    "defaultValue" : 0.0,
                                    "interp" : "linr"
                                  }
                                },
                                "effects" : [

                                ],
                                "start" : 1160,
                                "duration" : 34,
                                "mediaStart" : 1836,
                                "mediaDuration" : 34,
                                "scalar" : 1,
                                "animationTracks" : {

                                }
                              },
                          "audio" : 
                              {
                                "id" : 774,
                                "_type" : "AMFile",
                                "src" : 1,
                                "trackNumber" : 1,
                                "attributes" : {
                                  "ident" : "",
                                  "gain" : 1.0,
                                  "mixToMono" : false
                                },
                                  "channelNumber" : "0,1",
                                "effects" : [

                                ],
                                "start" : 1160,
                                "duration" : 34,
                                "mediaStart" : 1836,
                                "mediaDuration" : 34,
                                "scalar" : 1,
                                "animationTracks" : {

                                }
                              }
,
                          "start" : 1160,
                          "duration" : 34,
                          "mediaStart" : 0,
                          "mediaDuration" : 10411,
                          "scalar" : 1,
                          "metadata" : {
                            "AutoAppliedSmartFocus" : "False",
                            "clipSpeedAttribute" : false
                          }
                        },
                        {
                          "id" : 775,
                          "_type" : "UnifiedMedia",
                          "video" : 
                              {
                                "id" : 776,
                                "_type" : "ScreenVMFile",
                                "src" : 1,
                                "trackNumber" : 0,
                                "attributes" : {
                                  "ident" : "Rec 01-28-21_001"
                                },
                                "parameters" : {
                                  "cursorScale" : {
                                    "type" : "double",
                                    "defaultValue" : 0.0,
                                    "interp" : "linr"
                                  },
                                  "cursorOpacity" : {
                                    "type" : "double",
                                    "defaultValue" : 0.0,
                                    "interp" : "linr"
                                  }
                                },
                                "effects" : [

                                ],
                                "start" : 1194,
                                "duration" : 41,
                                "mediaStart" : 1882,
                                "mediaDuration" : 41,
                                "scalar" : 1,
                                "animationTracks" : {

                                }
                              },
                          "audio" : 
                              {
                                "id" : 777,
                                "_type" : "AMFile",
                                "src" : 1,
                                "trackNumber" : 1,
                                "attributes" : {
                                  "ident" : "",
                                  "gain" : 1.0,
                                  "mixToMono" : false
                                },
                                  "channelNumber" : "0,1",
                                "effects" : [

                                ],
                                "start" : 1194,
                                "duration" : 41,
                                "mediaStart" : 1882,
                                "mediaDuration" : 41,
                                "scalar" : 1,
                                "animationTracks" : {

                                }
                              }
,
                          "start" : 1194,
                          "duration" : 41,
                          "mediaStart" : 0,
                          "mediaDuration" : 10411,
                          "scalar" : 1,
                          "metadata" : {
                            "AutoAppliedSmartFocus" : "False",
                            "clipSpeedAttribute" : false
                          }
                        },
                        {
                          "id" : 778,
                          "_type" : "UnifiedMedia",
                          "video" : 
                              {
                                "id" : 779,
                                "_type" : "ScreenVMFile",
                                "src" : 1,
                                "trackNumber" : 0,
                                "attributes" : {
                                  "ident" : "Rec 01-28-21_001"
                                },
                                "parameters" : {
                                  "cursorScale" : {
                                    "type" : "double",
                                    "defaultValue" : 0.0,
                                    "interp" : "linr"
                                  },
                                  "cursorOpacity" : {
                                    "type" : "double",
                                    "defaultValue" : 0.0,
                                    "interp" : "linr"
                                  }
                                },
                                "effects" : [

                                ],
                                "start" : 1235,
                                "duration" : 41,
                                "mediaStart" : 1948,
                                "mediaDuration" : 41,
                                "scalar" : 1,
                                "animationTracks" : {

                                }
                              },
                          "audio" : 
                              {
                                "id" : 780,
                                "_type" : "AMFile",
                                "src" : 1,
                                "trackNumber" : 1,
                                "attributes" : {
                                  "ident" : "",
                                  "gain" : 1.0,
                                  "mixToMono" : false
                                },
                                  "channelNumber" : "0,1",
                                "effects" : [

                                ],
                                "start" : 1235,
                                "duration" : 41,
                                "mediaStart" : 1948,
                                "mediaDuration" : 41,
                                "scalar" : 1,
                                "animationTracks" : {

                                }
                              }
,
                          "start" : 1235,
                          "duration" : 41,
                          "mediaStart" : 0,
                          "mediaDuration" : 10411,
                          "scalar" : 1,
                          "metadata" : {
                            "AutoAppliedSmartFocus" : "False",
                            "clipSpeedAttribute" : false
                          }
                        },
                        {
                          "id" : 781,
                          "_type" : "UnifiedMedia",
                          "video" : 
                              {
                                "id" : 782,
                                "_type" : "ScreenVMFile",
                                "src" : 1,
                                "trackNumber" : 0,
                                "attributes" : {
                                  "ident" : "Rec 01-28-21_001"
                                },
                                "parameters" : {
                                  "cursorScale" : {
                                    "type" : "double",
                                    "defaultValue" : 0.0,
                                    "interp" : "linr"
                                  },
                                  "cursorOpacity" : {
                                    "type" : "double",
                                    "defaultValue" : 0.0,
                                    "interp" : "linr"
                                  }
                                },
                                "effects" : [

                                ],
                                "start" : 1276,
                                "duration" : 55,
                                "mediaStart" : 2015,
                                "mediaDuration" : 55,
                                "scalar" : 1,
                                "animationTracks" : {

                                }
                              },
                          "audio" : 
                              {
                                "id" : 783,
                                "_type" : "AMFile",
                                "src" : 1,
                                "trackNumber" : 1,
                                "attributes" : {
                                  "ident" : "",
                                  "gain" : 1.0,
                                  "mixToMono" : false
                                },
                                  "channelNumber" : "0,1",
                                "effects" : [

                                ],
                                "start" : 1276,
                                "duration" : 55,
                                "mediaStart" : 2015,
                                "mediaDuration" : 55,
                                "scalar" : 1,
                                "animationTracks" : {

                                }
                              }
,
                          "start" : 1276,
                          "duration" : 55,
                          "mediaStart" : 0,
                          "mediaDuration" : 10411,
                          "scalar" : 1,
                          "metadata" : {
                            "AutoAppliedSmartFocus" : "False",
                            "clipSpeedAttribute" : false
                          }
                        },
                        {
                          "id" : 784,
                          "_type" : "UnifiedMedia",
                          "video" : 
                              {
                                "id" : 785,
                                "_type" : "ScreenVMFile",
                                "src" : 1,
                                "trackNumber" : 0,
                                "attributes" : {
                                  "ident" : "Rec 01-28-21_001"
                                },
                                "parameters" : {
                                  "cursorScale" : {
                                    "type" : "double",
                                    "defaultValue" : 0.0,
                                    "interp" : "linr"
                                  },
                                  "cursorOpacity" : {
                                    "type" : "double",
                                    "defaultValue" : 0.0,
                                    "interp" : "linr"
                                  }
                                },
                                "effects" : [

                                ],
                                "start" : 1331,
                                "duration" : 42,
                                "mediaStart" : 2110,
                                "mediaDuration" : 42,
                                "scalar" : 1,
                                "animationTracks" : {

                                }
                              },
                          "audio" : 
                              {
                                "id" : 786,
                                "_type" : "AMFile",
                                "src" : 1,
                                "trackNumber" : 1,
                                "attributes" : {
                                  "ident" : "",
                                  "gain" : 1.0,
                                  "mixToMono" : false
                                },
                                  "channelNumber" : "0,1",
                                "effects" : [

                                ],
                                "start" : 1331,
                                "duration" : 42,
                                "mediaStart" : 2110,
                                "mediaDuration" : 42,
                                "scalar" : 1,
                                "animationTracks" : {

                                }
                              }
,
                          "start" : 1331,
                          "duration" : 42,
                          "mediaStart" : 0,
                          "mediaDuration" : 10411,
                          "scalar" : 1,
                          "metadata" : {
                            "AutoAppliedSmartFocus" : "False",
                            "clipSpeedAttribute" : false
                          }
                        },
                        {
                          "id" : 787,
                          "_type" : "UnifiedMedia",
                          "video" : 
                              {
                                "id" : 788,
                                "_type" : "ScreenVMFile",
                                "src" : 1,
                                "trackNumber" : 0,
                                "attributes" : {
                                  "ident" : "Rec 01-28-21_001"
                                },
                                "parameters" : {
                                  "cursorScale" : {
                                    "type" : "double",
                                    "defaultValue" : 0.0,
                                    "interp" : "linr"
                                  },
                                  "cursorOpacity" : {
                                    "type" : "double",
                                    "defaultValue" : 0.0,
                                    "interp" : "linr"
                                  }
                                },
                                "effects" : [

                                ],
                                "start" : 1373,
                                "duration" : 23,
                                "mediaStart" : 2250,
                                "mediaDuration" : 23,
                                "scalar" : 1,
                                "animationTracks" : {

                                }
                              },
                          "audio" : 
                              {
                                "id" : 789,
                                "_type" : "AMFile",
                                "src" : 1,
                                "trackNumber" : 1,
                                "attributes" : {
                                  "ident" : "",
                                  "gain" : 1.0,
                                  "mixToMono" : false
                                },
                                  "channelNumber" : "0,1",
                                "effects" : [

                                ],
                                "start" : 1373,
                                "duration" : 23,
                                "mediaStart" : 2250,
                                "mediaDuration" : 23,
                                "scalar" : 1,
                                "animationTracks" : {

                                }
                              }
,
                          "start" : 1373,
                          "duration" : 23,
                          "mediaStart" : 0,
                          "mediaDuration" : 10411,
                          "scalar" : 1,
                          "metadata" : {
                            "AutoAppliedSmartFocus" : "False",
                            "clipSpeedAttribute" : false
                          }
                        },
                        {
                          "id" : 790,
                          "_type" : "UnifiedMedia",
                          "video" : 
                              {
                                "id" : 791,
                                "_type" : "ScreenVMFile",
                                "src" : 1,
                                "trackNumber" : 0,
                                "attributes" : {
                                  "ident" : "Rec 01-28-21_001"
                                },
                                "parameters" : {
                                  "cursorScale" : {
                                    "type" : "double",
                                    "defaultValue" : 0.0,
                                    "interp" : "linr"
                                  },
                                  "cursorOpacity" : {
                                    "type" : "double",
                                    "defaultValue" : 0.0,
                                    "interp" : "linr"
                                  }
                                },
                                "effects" : [

                                ],
                                "start" : 1396,
                                "duration" : 79,
                                "mediaStart" : 2299,
                                "mediaDuration" : 79,
                                "scalar" : 1,
                                "animationTracks" : {

                                }
                              },
                          "audio" : 
                              {
                                "id" : 792,
                                "_type" : "AMFile",
                                "src" : 1,
                                "trackNumber" : 1,
                                "attributes" : {
                                  "ident" : "",
                                  "gain" : 1.0,
                                  "mixToMono" : false
                                },
                                  "channelNumber" : "0,1",
                                "effects" : [

                                ],
                                "start" : 1396,
                                "duration" : 79,
                                "mediaStart" : 2299,
                                "mediaDuration" : 79,
                                "scalar" : 1,
                                "animationTracks" : {

                                }
                              }
,
                          "start" : 1396,
                          "duration" : 79,
                          "mediaStart" : 0,
                          "mediaDuration" : 10411,
                          "scalar" : 1,
                          "metadata" : {
                            "AutoAppliedSmartFocus" : "False",
                            "clipSpeedAttribute" : false
                          }
                        },
                        {
                          "id" : 793,
                          "_type" : "UnifiedMedia",
                          "video" : 
                              {
                                "id" : 794,
                                "_type" : "ScreenVMFile",
                                "src" : 1,
                                "trackNumber" : 0,
                                "attributes" : {
                                  "ident" : "Rec 01-28-21_001"
                                },
                                "parameters" : {
                                  "cursorScale" : {
                                    "type" : "double",
                                    "defaultValue" : 0.0,
                                    "interp" : "linr"
                                  },
                                  "cursorOpacity" : {
                                    "type" : "double",
                                    "defaultValue" : 0.0,
                                    "interp" : "linr"
                                  }
                                },
                                "effects" : [

                                ],
                                "start" : 1475,
                                "duration" : 64,
                                "mediaStart" : 2409,
                                "mediaDuration" : 64,
                                "scalar" : 1,
                                "animationTracks" : {

                                }
                              },
                          "audio" : 
                              {
                                "id" : 795,
                                "_type" : "AMFile",
                                "src" : 1,
                                "trackNumber" : 1,
                                "attributes" : {
                                  "ident" : "",
                                  "gain" : 1.0,
                                  "mixToMono" : false
                                },
                                  "channelNumber" : "0,1",
                                "effects" : [

                                ],
                                "start" : 1475,
                                "duration" : 64,
                                "mediaStart" : 2409,
                                "mediaDuration" : 64,
                                "scalar" : 1,
                                "animationTracks" : {

                                }
                              }
,
                          "start" : 1475,
                          "duration" : 64,
                          "mediaStart" : 0,
                          "mediaDuration" : 10411,
                          "scalar" : 1,
                          "metadata" : {
                            "AutoAppliedSmartFocus" : "False",
                            "clipSpeedAttribute" : false
                          }
                        },
                        {
                          "id" : 796,
                          "_type" : "UnifiedMedia",
                          "video" : 
                              {
                                "id" : 797,
                                "_type" : "ScreenVMFile",
                                "src" : 1,
                                "trackNumber" : 0,
                                "attributes" : {
                                  "ident" : "Rec 01-28-21_001"
                                },
                                "parameters" : {
                                  "cursorScale" : {
                                    "type" : "double",
                                    "defaultValue" : 0.0,
                                    "interp" : "linr"
                                  },
                                  "cursorOpacity" : {
                                    "type" : "double",
                                    "defaultValue" : 0.0,
                                    "interp" : "linr"
                                  }
                                },
                                "effects" : [

                                ],
                                "start" : 1539,
                                "duration" : 43,
                                "mediaStart" : 2478,
                                "mediaDuration" : 43,
                                "scalar" : 1,
                                "animationTracks" : {

                                }
                              },
                          "audio" : 
                              {
                                "id" : 798,
                                "_type" : "AMFile",
                                "src" : 1,
                                "trackNumber" : 1,
                                "attributes" : {
                                  "ident" : "",
                                  "gain" : 1.0,
                                  "mixToMono" : false
                                },
                                  "channelNumber" : "0,1",
                                "effects" : [

                                ],
                                "start" : 1539,
                                "duration" : 43,
                                "mediaStart" : 2478,
                                "mediaDuration" : 43,
                                "scalar" : 1,
                                "animationTracks" : {

                                }
                              }
,
                          "start" : 1539,
                          "duration" : 43,
                          "mediaStart" : 0,
                          "mediaDuration" : 10411,
                          "scalar" : 1,
                          "metadata" : {
                            "AutoAppliedSmartFocus" : "False",
                            "clipSpeedAttribute" : false
                          }
                        },
                        {
                          "id" : 799,
                          "_type" : "UnifiedMedia",
                          "video" : 
                              {
                                "id" : 800,
                                "_type" : "ScreenVMFile",
                                "src" : 1,
                                "trackNumber" : 0,
                                "attributes" : {
                                  "ident" : "Rec 01-28-21_001"
                                },
                                "parameters" : {
                                  "cursorScale" : {
                                    "type" : "double",
                                    "defaultValue" : 0.0,
                                    "interp" : "linr"
                                  },
                                  "cursorOpacity" : {
                                    "type" : "double",
                                    "defaultValue" : 0.0,
                                    "interp" : "linr"
                                  }
                                },
                                "effects" : [

                                ],
                                "start" : 1582,
                                "duration" : 47,
                                "mediaStart" : 2538,
                                "mediaDuration" : 47,
                                "scalar" : 1,
                                "animationTracks" : {

                                }
                              },
                          "audio" : 
                              {
                                "id" : 801,
                                "_type" : "AMFile",
                                "src" : 1,
                                "trackNumber" : 1,
                                "attributes" : {
                                  "ident" : "",
                                  "gain" : 1.0,
                                  "mixToMono" : false
                                },
                                  "channelNumber" : "0,1",
                                "effects" : [

                                ],
                                "start" : 1582,
                                "duration" : 47,
                                "mediaStart" : 2538,
                                "mediaDuration" : 47,
                                "scalar" : 1,
                                "animationTracks" : {

                                }
                              }
,
                          "start" : 1582,
                          "duration" : 47,
                          "mediaStart" : 0,
                          "mediaDuration" : 10411,
                          "scalar" : 1,
                          "metadata" : {
                            "AutoAppliedSmartFocus" : "False",
                            "clipSpeedAttribute" : false
                          }
                        },
                        {
                          "id" : 802,
                          "_type" : "UnifiedMedia",
                          "video" : 
                              {
                                "id" : 803,
                                "_type" : "ScreenVMFile",
                                "src" : 1,
                                "trackNumber" : 0,
                                "attributes" : {
                                  "ident" : "Rec 01-28-21_001"
                                },
                                "parameters" : {
                                  "cursorScale" : {
                                    "type" : "double",
                                    "defaultValue" : 0.0,
                                    "interp" : "linr"
                                  },
                                  "cursorOpacity" : {
                                    "type" : "double",
                                    "defaultValue" : 0.0,
                                    "interp" : "linr"
                                  }
                                },
                                "effects" : [

                                ],
                                "start" : 1629,
                                "duration" : 299,
                                "mediaStart" : 2613,
                                "mediaDuration" : 299,
                                "scalar" : 1,
                                "animationTracks" : {

                                }
                              },
                          "audio" : 
                              {
                                "id" : 804,
                                "_type" : "AMFile",
                                "src" : 1,
                                "trackNumber" : 1,
                                "attributes" : {
                                  "ident" : "",
                                  "gain" : 1.0,
                                  "mixToMono" : false
                                },
                                  "channelNumber" : "0,1",
                                "effects" : [

                                ],
                                "start" : 1629,
                                "duration" : 299,
                                "mediaStart" : 2613,
                                "mediaDuration" : 299,
                                "scalar" : 1,
                                "animationTracks" : {

                                }
                              }
,
                          "start" : 1629,
                          "duration" : 299,
                          "mediaStart" : 0,
                          "mediaDuration" : 10411,
                          "scalar" : 1,
                          "metadata" : {
                            "AutoAppliedSmartFocus" : "False",
                            "clipSpeedAttribute" : false
                          }
                        },
                        {
                          "id" : 805,
                          "_type" : "UnifiedMedia",
                          "video" : 
                              {
                                "id" : 806,
                                "_type" : "ScreenVMFile",
                                "src" : 1,
                                "trackNumber" : 0,
                                "attributes" : {
                                  "ident" : "Rec 01-28-21_001"
                                },
                                "parameters" : {
                                  "cursorScale" : {
                                    "type" : "double",
                                    "defaultValue" : 0.0,
                                    "interp" : "linr"
                                  },
                                  "cursorOpacity" : {
                                    "type" : "double",
                                    "defaultValue" : 0.0,
                                    "interp" : "linr"
                                  }
                                },
                                "effects" : [

                                ],
                                "start" : 1928,
                                "duration" : 53,
                                "mediaStart" : 3209,
                                "mediaDuration" : 53,
                                "scalar" : 1,
                                "animationTracks" : {

                                }
                              },
                          "audio" : 
                              {
                                "id" : 807,
                                "_type" : "AMFile",
                                "src" : 1,
                                "trackNumber" : 1,
                                "attributes" : {
                                  "ident" : "",
                                  "gain" : 1.0,
                                  "mixToMono" : false
                                },
                                  "channelNumber" : "0,1",
                                "effects" : [

                                ],
                                "start" : 1928,
                                "duration" : 53,
                                "mediaStart" : 3209,
                                "mediaDuration" : 53,
                                "scalar" : 1,
                                "animationTracks" : {

                                }
                              }
,
                          "start" : 1928,
                          "duration" : 53,
                          "mediaStart" : 0,
                          "mediaDuration" : 10411,
                          "scalar" : 1,
                          "metadata" : {
                            "AutoAppliedSmartFocus" : "False",
                            "clipSpeedAttribute" : false
                          }
                        },
                        {
                          "id" : 808,
                          "_type" : "UnifiedMedia",
                          "video" : 
                              {
                                "id" : 809,
                                "_type" : "ScreenVMFile",
                                "src" : 1,
                                "trackNumber" : 0,
                                "attributes" : {
                                  "ident" : "Rec 01-28-21_001"
                                },
                                "parameters" : {
                                  "cursorScale" : {
                                    "type" : "double",
                                    "defaultValue" : 0.0,
                                    "interp" : "linr"
                                  },
                                  "cursorOpacity" : {
                                    "type" : "double",
                                    "defaultValue" : 0.0,
                                    "interp" : "linr"
                                  }
                                },
                                "effects" : [

                                ],
                                "start" : 1981,
                                "duration" : 47,
                                "mediaStart" : 3282,
                                "mediaDuration" : 47,
                                "scalar" : 1,
                                "animationTracks" : {

                                }
                              },
                          "audio" : 
                              {
                                "id" : 810,
                                "_type" : "AMFile",
                                "src" : 1,
                                "trackNumber" : 1,
                                "attributes" : {
                                  "ident" : "",
                                  "gain" : 1.0,
                                  "mixToMono" : false
                                },
                                  "channelNumber" : "0,1",
                                "effects" : [

                                ],
                                "start" : 1981,
                                "duration" : 47,
                                "mediaStart" : 3282,
                                "mediaDuration" : 47,
                                "scalar" : 1,
                                "animationTracks" : {

                                }
                              }
,
                          "start" : 1981,
                          "duration" : 47,
                          "mediaStart" : 0,
                          "mediaDuration" : 10411,
                          "scalar" : 1,
                          "metadata" : {
                            "AutoAppliedSmartFocus" : "False",
                            "clipSpeedAttribute" : false
                          }
                        },
                        {
                          "id" : 811,
                          "_type" : "UnifiedMedia",
                          "video" : 
                              {
                                "id" : 812,
                                "_type" : "ScreenVMFile",
                                "src" : 1,
                                "trackNumber" : 0,
                                "attributes" : {
                                  "ident" : "Rec 01-28-21_001"
                                },
                                "parameters" : {
                                  "cursorScale" : {
                                    "type" : "double",
                                    "defaultValue" : 0.0,
                                    "interp" : "linr"
                                  },
                                  "cursorOpacity" : {
                                    "type" : "double",
                                    "defaultValue" : 0.0,
                                    "interp" : "linr"
                                  }
                                },
                                "effects" : [

                                ],
                                "start" : 2028,
                                "duration" : 103,
                                "mediaStart" : 3341,
                                "mediaDuration" : 103,
                                "scalar" : 1,
                                "animationTracks" : {

                                }
                              },
                          "audio" : 
                              {
                                "id" : 813,
                                "_type" : "AMFile",
                                "src" : 1,
                                "trackNumber" : 1,
                                "attributes" : {
                                  "ident" : "",
                                  "gain" : 1.0,
                                  "mixToMono" : false
                                },
                                  "channelNumber" : "0,1",
                                "effects" : [

                                ],
                                "start" : 2028,
                                "duration" : 103,
                                "mediaStart" : 3341,
                                "mediaDuration" : 103,
                                "scalar" : 1,
                                "animationTracks" : {

                                }
                              }
,
                          "start" : 2028,
                          "duration" : 103,
                          "mediaStart" : 0,
                          "mediaDuration" : 10411,
                          "scalar" : 1,
                          "metadata" : {
                            "AutoAppliedSmartFocus" : "False",
                            "clipSpeedAttribute" : false
                          }
                        },
                        {
                          "id" : 814,
                          "_type" : "UnifiedMedia",
                          "video" : 
                              {
                                "id" : 815,
                                "_type" : "ScreenVMFile",
                                "src" : 1,
                                "trackNumber" : 0,
                                "attributes" : {
                                  "ident" : "Rec 01-28-21_001"
                                },
                                "parameters" : {
                                  "cursorScale" : {
                                    "type" : "double",
                                    "defaultValue" : 0.0,
                                    "interp" : "linr"
                                  },
                                  "cursorOpacity" : {
                                    "type" : "double",
                                    "defaultValue" : 0.0,
                                    "interp" : "linr"
                                  }
                                },
                                "effects" : [

                                ],
                                "start" : 2131,
                                "duration" : 26,
                                "mediaStart" : 3468,
                                "mediaDuration" : 26,
                                "scalar" : 1,
                                "animationTracks" : {

                                }
                              },
                          "audio" : 
                              {
                                "id" : 816,
                                "_type" : "AMFile",
                                "src" : 1,
                                "trackNumber" : 1,
                                "attributes" : {
                                  "ident" : "",
                                  "gain" : 1.0,
                                  "mixToMono" : false
                                },
                                  "channelNumber" : "0,1",
                                "effects" : [

                                ],
                                "start" : 2131,
                                "duration" : 26,
                                "mediaStart" : 3468,
                                "mediaDuration" : 26,
                                "scalar" : 1,
                                "animationTracks" : {

                                }
                              }
,
                          "start" : 2131,
                          "duration" : 26,
                          "mediaStart" : 0,
                          "mediaDuration" : 10411,
                          "scalar" : 1,
                          "metadata" : {
                            "AutoAppliedSmartFocus" : "False",
                            "clipSpeedAttribute" : false
                          }
                        },
                        {
                          "id" : 817,
                          "_type" : "UnifiedMedia",
                          "video" : 
                              {
                                "id" : 818,
                                "_type" : "ScreenVMFile",
                                "src" : 1,
                                "trackNumber" : 0,
                                "attributes" : {
                                  "ident" : "Rec 01-28-21_001"
                                },
                                "parameters" : {
                                  "cursorScale" : {
                                    "type" : "double",
                                    "defaultValue" : 0.0,
                                    "interp" : "linr"
                                  },
                                  "cursorOpacity" : {
                                    "type" : "double",
                                    "defaultValue" : 0.0,
                                    "interp" : "linr"
                                  }
                                },
                                "effects" : [

                                ],
                                "start" : 2157,
                                "duration" : 41,
                                "mediaStart" : 3504,
                                "mediaDuration" : 41,
                                "scalar" : 1,
                                "animationTracks" : {

                                }
                              },
                          "audio" : 
                              {
                                "id" : 819,
                                "_type" : "AMFile",
                                "src" : 1,
                                "trackNumber" : 1,
                                "attributes" : {
                                  "ident" : "",
                                  "gain" : 1.0,
                                  "mixToMono" : false
                                },
                                  "channelNumber" : "0,1",
                                "effects" : [

                                ],
                                "start" : 2157,
                                "duration" : 41,
                                "mediaStart" : 3504,
                                "mediaDuration" : 41,
                                "scalar" : 1,
                                "animationTracks" : {

                                }
                              }
,
                          "start" : 2157,
                          "duration" : 41,
                          "mediaStart" : 0,
                          "mediaDuration" : 10411,
                          "scalar" : 1,
                          "metadata" : {
                            "AutoAppliedSmartFocus" : "False",
                            "clipSpeedAttribute" : false
                          }
                        },
                        {
                          "id" : 820,
                          "_type" : "UnifiedMedia",
                          "video" : 
                              {
                                "id" : 821,
                                "_type" : "ScreenVMFile",
                                "src" : 1,
                                "trackNumber" : 0,
                                "attributes" : {
                                  "ident" : "Rec 01-28-21_001"
                                },
                                "parameters" : {
                                  "cursorScale" : {
                                    "type" : "double",
                                    "defaultValue" : 0.0,
                                    "interp" : "linr"
                                  },
                                  "cursorOpacity" : {
                                    "type" : "double",
                                    "defaultValue" : 0.0,
                                    "interp" : "linr"
                                  }
                                },
                                "effects" : [

                                ],
                                "start" : 2198,
                                "duration" : 108,
                                "mediaStart" : 3657,
                                "mediaDuration" : 108,
                                "scalar" : 1,
                                "animationTracks" : {

                                }
                              },
                          "audio" : 
                              {
                                "id" : 822,
                                "_type" : "AMFile",
                                "src" : 1,
                                "trackNumber" : 1,
                                "attributes" : {
                                  "ident" : "",
                                  "gain" : 1.0,
                                  "mixToMono" : false
                                },
                                  "channelNumber" : "0,1",
                                "effects" : [

                                ],
                                "start" : 2198,
                                "duration" : 108,
                                "mediaStart" : 3657,
                                "mediaDuration" : 108,
                                "scalar" : 1,
                                "animationTracks" : {

                                }
                              }
,
                          "start" : 2198,
                          "duration" : 108,
                          "mediaStart" : 0,
                          "mediaDuration" : 10411,
                          "scalar" : 1,
                          "metadata" : {
                            "AutoAppliedSmartFocus" : "False",
                            "clipSpeedAttribute" : false
                          }
                        },
                        {
                          "id" : 823,
                          "_type" : "UnifiedMedia",
                          "video" : 
                              {
                                "id" : 824,
                                "_type" : "ScreenVMFile",
                                "src" : 1,
                                "trackNumber" : 0,
                                "attributes" : {
                                  "ident" : "Rec 01-28-21_001"
                                },
                                "parameters" : {
                                  "cursorScale" : {
                                    "type" : "double",
                                    "defaultValue" : 0.0,
                                    "interp" : "linr"
                                  },
                                  "cursorOpacity" : {
                                    "type" : "double",
                                    "defaultValue" : 0.0,
                                    "interp" : "linr"
                                  }
                                },
                                "effects" : [

                                ],
                                "start" : 2306,
                                "duration" : 124,
                                "mediaStart" : 3787,
                                "mediaDuration" : 124,
                                "scalar" : 1,
                                "animationTracks" : {

                                }
                              },
                          "audio" : 
                              {
                                "id" : 825,
                                "_type" : "AMFile",
                                "src" : 1,
                                "trackNumber" : 1,
                                "attributes" : {
                                  "ident" : "",
                                  "gain" : 1.0,
                                  "mixToMono" : false
                                },
                                  "channelNumber" : "0,1",
                                "effects" : [

                                ],
                                "start" : 2306,
                                "duration" : 124,
                                "mediaStart" : 3787,
                                "mediaDuration" : 124,
                                "scalar" : 1,
                                "animationTracks" : {

                                }
                              }
,
                          "start" : 2306,
                          "duration" : 124,
                          "mediaStart" : 0,
                          "mediaDuration" : 10411,
                          "scalar" : 1,
                          "metadata" : {
                            "AutoAppliedSmartFocus" : "False",
                            "clipSpeedAttribute" : false
                          }
                        },
                        {
                          "id" : 826,
                          "_type" : "UnifiedMedia",
                          "video" : 
                              {
                                "id" : 827,
                                "_type" : "ScreenVMFile",
                                "src" : 1,
                                "trackNumber" : 0,
                                "attributes" : {
                                  "ident" : "Rec 01-28-21_001"
                                },
                                "parameters" : {
                                  "cursorScale" : {
                                    "type" : "double",
                                    "defaultValue" : 0.0,
                                    "interp" : "linr"
                                  },
                                  "cursorOpacity" : {
                                    "type" : "double",
                                    "defaultValue" : 0.0,
                                    "interp" : "linr"
                                  }
                                },
                                "effects" : [

                                ],
                                "start" : 2430,
                                "duration" : 282,
                                "mediaStart" : 3991,
                                "mediaDuration" : 282,
                                "scalar" : 1,
                                "animationTracks" : {

                                }
                              },
                          "audio" : 
                              {
                                "id" : 828,
                                "_type" : "AMFile",
                                "src" : 1,
                                "trackNumber" : 1,
                                "attributes" : {
                                  "ident" : "",
                                  "gain" : 1.0,
                                  "mixToMono" : false
                                },
                                  "channelNumber" : "0,1",
                                "effects" : [

                                ],
                                "start" : 2430,
                                "duration" : 282,
                                "mediaStart" : 3991,
                                "mediaDuration" : 282,
                                "scalar" : 1,
                                "animationTracks" : {

                                }
                              }
,
                          "start" : 2430,
                          "duration" : 282,
                          "mediaStart" : 0,
                          "mediaDuration" : 10411,
                          "scalar" : 1,
                          "metadata" : {
                            "AutoAppliedSmartFocus" : "False",
                            "clipSpeedAttribute" : false
                          }
                        },
                        {
                          "id" : 829,
                          "_type" : "UnifiedMedia",
                          "video" : 
                              {
                                "id" : 830,
                                "_type" : "ScreenVMFile",
                                "src" : 1,
                                "trackNumber" : 0,
                                "attributes" : {
                                  "ident" : "Rec 01-28-21_001"
                                },
                                "parameters" : {
                                  "cursorScale" : {
                                    "type" : "double",
                                    "defaultValue" : 0.0,
                                    "interp" : "linr"
                                  },
                                  "cursorOpacity" : {
                                    "type" : "double",
                                    "defaultValue" : 0.0,
                                    "interp" : "linr"
                                  }
                                },
                                "effects" : [

                                ],
                                "start" : 2712,
                                "duration" : 205,
                                "mediaStart" : 4397,
                                "mediaDuration" : 205,
                                "scalar" : 1,
                                "animationTracks" : {

                                }
                              },
                          "audio" : 
                              {
                                "id" : 831,
                                "_type" : "AMFile",
                                "src" : 1,
                                "trackNumber" : 1,
                                "attributes" : {
                                  "ident" : "",
                                  "gain" : 1.0,
                                  "mixToMono" : false
                                },
                                  "channelNumber" : "0,1",
                                "effects" : [

                                ],
                                "start" : 2712,
                                "duration" : 205,
                                "mediaStart" : 4397,
                                "mediaDuration" : 205,
                                "scalar" : 1,
                                "animationTracks" : {

                                }
                              }
,
                          "start" : 2712,
                          "duration" : 205,
                          "mediaStart" : 0,
                          "mediaDuration" : 10411,
                          "scalar" : 1,
                          "metadata" : {
                            "AutoAppliedSmartFocus" : "False",
                            "clipSpeedAttribute" : false
                          }
                        },
                        {
                          "id" : 832,
                          "_type" : "UnifiedMedia",
                          "video" : 
                              {
                                "id" : 833,
                                "_type" : "ScreenVMFile",
                                "src" : 1,
                                "trackNumber" : 0,
                                "attributes" : {
                                  "ident" : "Rec 01-28-21_001"
                                },
                                "parameters" : {
                                  "cursorScale" : {
                                    "type" : "double",
                                    "defaultValue" : 0.0,
                                    "interp" : "linr"
                                  },
                                  "cursorOpacity" : {
                                    "type" : "double",
                                    "defaultValue" : 0.0,
                                    "interp" : "linr"
                                  }
                                },
                                "effects" : [

                                ],
                                "start" : 2917,
                                "duration" : 61,
                                "mediaStart" : 4960,
                                "mediaDuration" : 61,
                                "scalar" : 1,
                                "animationTracks" : {

                                }
                              },
                          "audio" : 
                              {
                                "id" : 834,
                                "_type" : "AMFile",
                                "src" : 1,
                                "trackNumber" : 1,
                                "attributes" : {
                                  "ident" : "",
                                  "gain" : 1.0,
                                  "mixToMono" : false
                                },
                                  "channelNumber" : "0,1",
                                "effects" : [

                                ],
                                "start" : 2917,
                                "duration" : 61,
                                "mediaStart" : 4960,
                                "mediaDuration" : 61,
                                "scalar" : 1,
                                "animationTracks" : {

                                }
                              }
,
                          "start" : 2917,
                          "duration" : 61,
                          "mediaStart" : 0,
                          "mediaDuration" : 10411,
                          "scalar" : 1,
                          "metadata" : {
                            "AutoAppliedSmartFocus" : "False",
                            "clipSpeedAttribute" : false
                          }
                        },
                        {
                          "id" : 835,
                          "_type" : "UnifiedMedia",
                          "video" : 
                              {
                                "id" : 836,
                                "_type" : "ScreenVMFile",
                                "src" : 1,
                                "trackNumber" : 0,
                                "attributes" : {
                                  "ident" : "Rec 01-28-21_001"
                                },
                                "parameters" : {
                                  "cursorScale" : {
                                    "type" : "double",
                                    "defaultValue" : 0.0,
                                    "interp" : "linr"
                                  },
                                  "cursorOpacity" : {
                                    "type" : "double",
                                    "defaultValue" : 0.0,
                                    "interp" : "linr"
                                  }
                                },
                                "effects" : [

                                ],
                                "start" : 2978,
                                "duration" : 172,
                                "mediaStart" : 5035,
                                "mediaDuration" : 172,
                                "scalar" : 1,
                                "animationTracks" : {

                                }
                              },
                          "audio" : 
                              {
                                "id" : 837,
                                "_type" : "AMFile",
                                "src" : 1,
                                "trackNumber" : 1,
                                "attributes" : {
                                  "ident" : "",
                                  "gain" : 1.0,
                                  "mixToMono" : false
                                },
                                  "channelNumber" : "0,1",
                                "effects" : [

                                ],
                                "start" : 2978,
                                "duration" : 172,
                                "mediaStart" : 5035,
                                "mediaDuration" : 172,
                                "scalar" : 1,
                                "animationTracks" : {

                                }
                              }
,
                          "start" : 2978,
                          "duration" : 172,
                          "mediaStart" : 0,
                          "mediaDuration" : 10411,
                          "scalar" : 1,
                          "metadata" : {
                            "AutoAppliedSmartFocus" : "False",
                            "clipSpeedAttribute" : false
                          }
                        },
                        {
                          "id" : 838,
                          "_type" : "UnifiedMedia",
                          "video" : 
                              {
                                "id" : 839,
                                "_type" : "ScreenVMFile",
                                "src" : 1,
                                "trackNumber" : 0,
                                "attributes" : {
                                  "ident" : "Rec 01-28-21_001"
                                },
                                "parameters" : {
                                  "cursorScale" : {
                                    "type" : "double",
                                    "defaultValue" : 0.0,
                                    "interp" : "linr"
                                  },
                                  "cursorOpacity" : {
                                    "type" : "double",
                                    "defaultValue" : 0.0,
                                    "interp" : "linr"
                                  }
                                },
                                "effects" : [

                                ],
                                "start" : 3150,
                                "duration" : 199,
                                "mediaStart" : 5255,
                                "mediaDuration" : 199,
                                "scalar" : 1,
                                "animationTracks" : {

                                }
                              },
                          "audio" : 
                              {
                                "id" : 840,
                                "_type" : "AMFile",
                                "src" : 1,
                                "trackNumber" : 1,
                                "attributes" : {
                                  "ident" : "",
                                  "gain" : 1.0,
                                  "mixToMono" : false
                                },
                                  "channelNumber" : "0,1",
                                "effects" : [

                                ],
                                "start" : 3150,
                                "duration" : 199,
                                "mediaStart" : 5255,
                                "mediaDuration" : 199,
                                "scalar" : 1,
                                "animationTracks" : {

                                }
                              }
,
                          "start" : 3150,
                          "duration" : 199,
                          "mediaStart" : 0,
                          "mediaDuration" : 10411,
                          "scalar" : 1,
                          "metadata" : {
                            "AutoAppliedSmartFocus" : "False",
                            "clipSpeedAttribute" : false
                          }
                        },
                        {
                          "id" : 841,
                          "_type" : "UnifiedMedia",
                          "video" : 
                              {
                                "id" : 842,
                                "_type" : "ScreenVMFile",
                                "src" : 1,
                                "trackNumber" : 0,
                                "attributes" : {
                                  "ident" : "Rec 01-28-21_001"
                                },
                                "parameters" : {
                                  "cursorScale" : {
                                    "type" : "double",
                                    "defaultValue" : 0.0,
                                    "interp" : "linr"
                                  },
                                  "cursorOpacity" : {
                                    "type" : "double",
                                    "defaultValue" : 0.0,
                                    "interp" : "linr"
                                  }
                                },
                                "effects" : [

                                ],
                                "start" : 3349,
                                "duration" : 150,
                                "mediaStart" : 5507,
                                "mediaDuration" : 150,
                                "scalar" : 1,
                                "animationTracks" : {

                                }
                              },
                          "audio" : 
                              {
                                "id" : 843,
                                "_type" : "AMFile",
                                "src" : 1,
                                "trackNumber" : 1,
                                "attributes" : {
                                  "ident" : "",
                                  "gain" : 1.0,
                                  "mixToMono" : false
                                },
                                  "channelNumber" : "0,1",
                                "effects" : [

                                ],
                                "start" : 3349,
                                "duration" : 150,
                                "mediaStart" : 5507,
                                "mediaDuration" : 150,
                                "scalar" : 1,
                                "animationTracks" : {

                                }
                              }
,
                          "start" : 3349,
                          "duration" : 150,
                          "mediaStart" : 0,
                          "mediaDuration" : 10411,
                          "scalar" : 1,
                          "metadata" : {
                            "AutoAppliedSmartFocus" : "False",
                            "clipSpeedAttribute" : false
                          }
                        },
                        {
                          "id" : 844,
                          "_type" : "UnifiedMedia",
                          "video" : 
                              {
                                "id" : 845,
                                "_type" : "ScreenVMFile",
                                "src" : 1,
                                "trackNumber" : 0,
                                "attributes" : {
                                  "ident" : "Rec 01-28-21_001"
                                },
                                "parameters" : {
                                  "cursorScale" : {
                                    "type" : "double",
                                    "defaultValue" : 0.0,
                                    "interp" : "linr"
                                  },
                                  "cursorOpacity" : {
                                    "type" : "double",
                                    "defaultValue" : 0.0,
                                    "interp" : "linr"
                                  }
                                },
                                "effects" : [

                                ],
                                "start" : 3499,
                                "duration" : 336,
                                "mediaStart" : 6158,
                                "mediaDuration" : 336,
                                "scalar" : 1,
                                "animationTracks" : {

                                }
                              },
                          "audio" : 
                              {
                                "id" : 846,
                                "_type" : "AMFile",
                                "src" : 1,
                                "trackNumber" : 1,
                                "attributes" : {
                                  "ident" : "",
                                  "gain" : 1.0,
                                  "mixToMono" : false
                                },
                                  "channelNumber" : "0,1",
                                "effects" : [

                                ],
                                "start" : 3499,
                                "duration" : 336,
                                "mediaStart" : 6158,
                                "mediaDuration" : 336,
                                "scalar" : 1,
                                "animationTracks" : {

                                }
                              }
,
                          "start" : 3499,
                          "duration" : 336,
                          "mediaStart" : 0,
                          "mediaDuration" : 10411,
                          "scalar" : 1,
                          "metadata" : {
                            "AutoAppliedSmartFocus" : "False",
                            "clipSpeedAttribute" : false
                          }
                        },
                        {
                          "id" : 847,
                          "_type" : "UnifiedMedia",
                          "video" : 
                              {
                                "id" : 848,
                                "_type" : "ScreenVMFile",
                                "src" : 1,
                                "trackNumber" : 0,
                                "attributes" : {
                                  "ident" : "Rec 01-28-21_001"
                                },
                                "parameters" : {
                                  "cursorScale" : {
                                    "type" : "double",
                                    "defaultValue" : 0.0,
                                    "interp" : "linr"
                                  },
                                  "cursorOpacity" : {
                                    "type" : "double",
                                    "defaultValue" : 0.0,
                                    "interp" : "linr"
                                  }
                                },
                                "effects" : [

                                ],
                                "start" : 3835,
                                "duration" : 73,
                                "mediaStart" : 6577,
                                "mediaDuration" : 73,
                                "scalar" : 1,
                                "animationTracks" : {

                                }
                              },
                          "audio" : 
                              {
                                "id" : 849,
                                "_type" : "AMFile",
                                "src" : 1,
                                "trackNumber" : 1,
                                "attributes" : {
                                  "ident" : "",
                                  "gain" : 1.0,
                                  "mixToMono" : false
                                },
                                  "channelNumber" : "0,1",
                                "effects" : [

                                ],
                                "start" : 3835,
                                "duration" : 73,
                                "mediaStart" : 6577,
                                "mediaDuration" : 73,
                                "scalar" : 1,
                                "animationTracks" : {

                                }
                              }
,
                          "start" : 3835,
                          "duration" : 73,
                          "mediaStart" : 0,
                          "mediaDuration" : 10411,
                          "scalar" : 1,
                          "metadata" : {
                            "AutoAppliedSmartFocus" : "False",
                            "clipSpeedAttribute" : false
                          }
                        },
                        {
                          "id" : 850,
                          "_type" : "UnifiedMedia",
                          "video" : 
                              {
                                "id" : 851,
                                "_type" : "ScreenVMFile",
                                "src" : 1,
                                "trackNumber" : 0,
                                "attributes" : {
                                  "ident" : "Rec 01-28-21_001"
                                },
                                "parameters" : {
                                  "cursorScale" : {
                                    "type" : "double",
                                    "defaultValue" : 0.0,
                                    "interp" : "linr"
                                  },
                                  "cursorOpacity" : {
                                    "type" : "double",
                                    "defaultValue" : 0.0,
                                    "interp" : "linr"
                                  }
                                },
                                "effects" : [

                                ],
                                "start" : 3908,
                                "duration" : 3732,
                                "mediaStart" : 6679,
                                "mediaDuration" : 3732,
                                "scalar" : 1,
                                "animationTracks" : {

                                }
                              },
                          "audio" : 
                              {
                                "id" : 852,
                                "_type" : "AMFile",
                                "src" : 1,
                                "trackNumber" : 1,
                                "attributes" : {
                                  "ident" : "",
                                  "gain" : 1.0,
                                  "mixToMono" : false
                                },
                                  "channelNumber" : "0,1",
                                "effects" : [

                                ],
                                "start" : 3908,
                                "duration" : 3732,
                                "mediaStart" : 6679,
                                "mediaDuration" : 3732,
                                "scalar" : 1,
                                "animationTracks" : {

                                }
                              }
,
                          "start" : 3908,
                          "duration" : 3732,
                          "mediaStart" : 0,
                          "mediaDuration" : 10411,
                          "scalar" : 1,
                          "metadata" : {
                            "AutoAppliedSmartFocus" : "False",
                            "clipSpeedAttribute" : false
                          }
                        }
                    ],
                    "effects" : [

                    ],
                    "start" : 3499,
                    "duration" : 155,
                    "mediaStart" : 3678,
                    "mediaDuration" : 155,
                    "scalar" : 1,
                    "metadata" : {
                      "AutoAppliedSmartFocus" : "False",
                      "clipSpeedAttribute" : false
                    },
                    "animationTracks" : {

                    }
                  },
                  {
                    "id" : 853,
                    "_type" : "Group",
                    "parameters" : {
                      "volume" : 1.0
                    },
                    "tracks" : [
                      {
                        "trackIndex" : 0,
                        "medias" : [
                          {
                            "id" : 854,
                            "_type" : "StitchedMedia",
                            "minMediaStart" : 0,
                            "attributes" : {
                              "ident" : "Rec 01-28-21_001",
                              "gain" : 1.0,
                              "mixToMono" : false
                            },
                            "parameters" : {
                              "cursorOpacity" : 1.0,
                              "cursorScale" : 1.0
                            },
                            "medias" : [
                                {
                                  "id" : 855,
                                  "_type" : "ScreenVMFile",
                                  "src" : 1,
                                  "trackNumber" : 0,
                                  "attributes" : {
                                    "ident" : "Rec 01-28-21_001"
                                  },
                                  "parameters" : {
                                    "cursorScale" : {
                                      "type" : "double",
                                      "defaultValue" : 0.0,
                                      "interp" : "linr"
                                    },
                                    "cursorOpacity" : {
                                      "type" : "double",
                                      "defaultValue" : 0.0,
                                      "interp" : "linr"
                                    }
                                  },
                                  "effects" : [

                                  ],
                                  "start" : 0,
                                  "duration" : 18,
                                  "mediaStart" : 0,
                                  "mediaDuration" : 18,
                                  "scalar" : 1,
                                  "metadata" : {
                                    "AutoAppliedSmartFocus" : "False"
                                  },
                                  "animationTracks" : {

                                  }
                                },
                                {
                                  "id" : 856,
                                  "_type" : "ScreenVMFile",
                                  "src" : 1,
                                  "trackNumber" : 0,
                                  "attributes" : {
                                    "ident" : "Rec 01-28-21_001"
                                  },
                                  "parameters" : {
                                    "cursorScale" : {
                                      "type" : "double",
                                      "defaultValue" : 0.0,
                                      "interp" : "linr"
                                    },
                                    "cursorOpacity" : {
                                      "type" : "double",
                                      "defaultValue" : 0.0,
                                      "interp" : "linr"
                                    }
                                  },
                                  "effects" : [

                                  ],
                                  "start" : 18,
                                  "duration" : 286,
                                  "mediaStart" : 55,
                                  "mediaDuration" : 286,
                                  "scalar" : 1,
                                  "metadata" : {
                                    "AutoAppliedSmartFocus" : "False"
                                  },
                                  "animationTracks" : {

                                  }
                                },
                                {
                                  "id" : 857,
                                  "_type" : "ScreenVMFile",
                                  "src" : 1,
                                  "trackNumber" : 0,
                                  "attributes" : {
                                    "ident" : "Rec 01-28-21_001"
                                  },
                                  "parameters" : {
                                    "cursorScale" : {
                                      "type" : "double",
                                      "defaultValue" : 0.0,
                                      "interp" : "linr"
                                    },
                                    "cursorOpacity" : {
                                      "type" : "double",
                                      "defaultValue" : 0.0,
                                      "interp" : "linr"
                                    }
                                  },
                                  "effects" : [

                                  ],
                                  "start" : 304,
                                  "duration" : 53,
                                  "mediaStart" : 367,
                                  "mediaDuration" : 53,
                                  "scalar" : 1,
                                  "metadata" : {
                                    "AutoAppliedSmartFocus" : "False"
                                  },
                                  "animationTracks" : {

                                  }
                                },
                                {
                                  "id" : 858,
                                  "_type" : "ScreenVMFile",
                                  "src" : 1,
                                  "trackNumber" : 0,
                                  "attributes" : {
                                    "ident" : "Rec 01-28-21_001"
                                  },
                                  "parameters" : {
                                    "cursorScale" : {
                                      "type" : "double",
                                      "defaultValue" : 0.0,
                                      "interp" : "linr"
                                    },
                                    "cursorOpacity" : {
                                      "type" : "double",
                                      "defaultValue" : 0.0,
                                      "interp" : "linr"
                                    }
                                  },
                                  "effects" : [

                                  ],
                                  "start" : 357,
                                  "duration" : 59,
                                  "mediaStart" : 477,
                                  "mediaDuration" : 59,
                                  "scalar" : 1,
                                  "metadata" : {
                                    "AutoAppliedSmartFocus" : "False"
                                  },
                                  "animationTracks" : {

                                  }
                                },
                                {
                                  "id" : 859,
                                  "_type" : "ScreenVMFile",
                                  "src" : 1,
                                  "trackNumber" : 0,
                                  "attributes" : {
                                    "ident" : "Rec 01-28-21_001"
                                  },
                                  "parameters" : {
                                    "cursorScale" : {
                                      "type" : "double",
                                      "defaultValue" : 0.0,
                                      "interp" : "linr"
                                    },
                                    "cursorOpacity" : {
                                      "type" : "double",
                                      "defaultValue" : 0.0,
                                      "interp" : "linr"
                                    }
                                  },
                                  "effects" : [

                                  ],
                                  "start" : 416,
                                  "duration" : 42,
                                  "mediaStart" : 590,
                                  "mediaDuration" : 42,
                                  "scalar" : 1,
                                  "metadata" : {
                                    "AutoAppliedSmartFocus" : "False"
                                  },
                                  "animationTracks" : {

                                  }
                                },
                                {
                                  "id" : 860,
                                  "_type" : "ScreenVMFile",
                                  "src" : 1,
                                  "trackNumber" : 0,
                                  "attributes" : {
                                    "ident" : "Rec 01-28-21_001"
                                  },
                                  "parameters" : {
                                    "cursorScale" : {
                                      "type" : "double",
                                      "defaultValue" : 0.0,
                                      "interp" : "linr"
                                    },
                                    "cursorOpacity" : {
                                      "type" : "double",
                                      "defaultValue" : 0.0,
                                      "interp" : "linr"
                                    }
                                  },
                                  "effects" : [

                                  ],
                                  "start" : 458,
                                  "duration" : 22,
                                  "mediaStart" : 646,
                                  "mediaDuration" : 22,
                                  "scalar" : 1,
                                  "metadata" : {
                                    "AutoAppliedSmartFocus" : "False"
                                  },
                                  "animationTracks" : {

                                  }
                                },
                                {
                                  "id" : 861,
                                  "_type" : "ScreenVMFile",
                                  "src" : 1,
                                  "trackNumber" : 0,
                                  "attributes" : {
                                    "ident" : "Rec 01-28-21_001"
                                  },
                                  "parameters" : {
                                    "cursorScale" : {
                                      "type" : "double",
                                      "defaultValue" : 0.0,
                                      "interp" : "linr"
                                    },
                                    "cursorOpacity" : {
                                      "type" : "double",
                                      "defaultValue" : 0.0,
                                      "interp" : "linr"
                                    }
                                  },
                                  "effects" : [

                                  ],
                                  "start" : 480,
                                  "duration" : 115,
                                  "mediaStart" : 762,
                                  "mediaDuration" : 115,
                                  "scalar" : 1,
                                  "metadata" : {
                                    "AutoAppliedSmartFocus" : "False"
                                  },
                                  "animationTracks" : {

                                  }
                                },
                                {
                                  "id" : 862,
                                  "_type" : "ScreenVMFile",
                                  "src" : 1,
                                  "trackNumber" : 0,
                                  "attributes" : {
                                    "ident" : "Rec 01-28-21_001"
                                  },
                                  "parameters" : {
                                    "cursorScale" : {
                                      "type" : "double",
                                      "defaultValue" : 0.0,
                                      "interp" : "linr"
                                    },
                                    "cursorOpacity" : {
                                      "type" : "double",
                                      "defaultValue" : 0.0,
                                      "interp" : "linr"
                                    }
                                  },
                                  "effects" : [

                                  ],
                                  "start" : 595,
                                  "duration" : 154,
                                  "mediaStart" : 1024,
                                  "mediaDuration" : 154,
                                  "scalar" : 1,
                                  "metadata" : {
                                    "AutoAppliedSmartFocus" : "False"
                                  },
                                  "animationTracks" : {

                                  }
                                },
                                {
                                  "id" : 863,
                                  "_type" : "ScreenVMFile",
                                  "src" : 1,
                                  "trackNumber" : 0,
                                  "attributes" : {
                                    "ident" : "Rec 01-28-21_001"
                                  },
                                  "parameters" : {
                                    "cursorScale" : {
                                      "type" : "double",
                                      "defaultValue" : 0.0,
                                      "interp" : "linr"
                                    },
                                    "cursorOpacity" : {
                                      "type" : "double",
                                      "defaultValue" : 0.0,
                                      "interp" : "linr"
                                    }
                                  },
                                  "effects" : [

                                  ],
                                  "start" : 749,
                                  "duration" : 135,
                                  "mediaStart" : 1207,
                                  "mediaDuration" : 135,
                                  "scalar" : 1,
                                  "metadata" : {
                                    "AutoAppliedSmartFocus" : "False"
                                  },
                                  "animationTracks" : {

                                  }
                                },
                                {
                                  "id" : 864,
                                  "_type" : "ScreenVMFile",
                                  "src" : 1,
                                  "trackNumber" : 0,
                                  "attributes" : {
                                    "ident" : "Rec 01-28-21_001"
                                  },
                                  "parameters" : {
                                    "cursorScale" : {
                                      "type" : "double",
                                      "defaultValue" : 0.0,
                                      "interp" : "linr"
                                    },
                                    "cursorOpacity" : {
                                      "type" : "double",
                                      "defaultValue" : 0.0,
                                      "interp" : "linr"
                                    }
                                  },
                                  "effects" : [

                                  ],
                                  "start" : 884,
                                  "duration" : 150,
                                  "mediaStart" : 1383,
                                  "mediaDuration" : 150,
                                  "scalar" : 1,
                                  "metadata" : {
                                    "AutoAppliedSmartFocus" : "False"
                                  },
                                  "animationTracks" : {

                                  }
                                },
                                {
                                  "id" : 865,
                                  "_type" : "ScreenVMFile",
                                  "src" : 1,
                                  "trackNumber" : 0,
                                  "attributes" : {
                                    "ident" : "Rec 01-28-21_001"
                                  },
                                  "parameters" : {
                                    "cursorScale" : {
                                      "type" : "double",
                                      "defaultValue" : 0.0,
                                      "interp" : "linr"
                                    },
                                    "cursorOpacity" : {
                                      "type" : "double",
                                      "defaultValue" : 0.0,
                                      "interp" : "linr"
                                    }
                                  },
                                  "effects" : [

                                  ],
                                  "start" : 1034,
                                  "duration" : 89,
                                  "mediaStart" : 1607,
                                  "mediaDuration" : 89,
                                  "scalar" : 1,
                                  "metadata" : {
                                    "AutoAppliedSmartFocus" : "False"
                                  },
                                  "animationTracks" : {

                                  }
                                },
                                {
                                  "id" : 866,
                                  "_type" : "ScreenVMFile",
                                  "src" : 1,
                                  "trackNumber" : 0,
                                  "attributes" : {
                                    "ident" : "Rec 01-28-21_001"
                                  },
                                  "parameters" : {
                                    "cursorScale" : {
                                      "type" : "double",
                                      "defaultValue" : 0.0,
                                      "interp" : "linr"
                                    },
                                    "cursorOpacity" : {
                                      "type" : "double",
                                      "defaultValue" : 0.0,
                                      "interp" : "linr"
                                    }
                                  },
                                  "effects" : [

                                  ],
                                  "start" : 1123,
                                  "duration" : 37,
                                  "mediaStart" : 1752,
                                  "mediaDuration" : 37,
                                  "scalar" : 1,
                                  "metadata" : {
                                    "AutoAppliedSmartFocus" : "False"
                                  },
                                  "animationTracks" : {

                                  }
                                },
                                {
                                  "id" : 867,
                                  "_type" : "ScreenVMFile",
                                  "src" : 1,
                                  "trackNumber" : 0,
                                  "attributes" : {
                                    "ident" : "Rec 01-28-21_001"
                                  },
                                  "parameters" : {
                                    "cursorScale" : {
                                      "type" : "double",
                                      "defaultValue" : 0.0,
                                      "interp" : "linr"
                                    },
                                    "cursorOpacity" : {
                                      "type" : "double",
                                      "defaultValue" : 0.0,
                                      "interp" : "linr"
                                    }
                                  },
                                  "effects" : [

                                  ],
                                  "start" : 1160,
                                  "duration" : 34,
                                  "mediaStart" : 1836,
                                  "mediaDuration" : 34,
                                  "scalar" : 1,
                                  "metadata" : {
                                    "AutoAppliedSmartFocus" : "False"
                                  },
                                  "animationTracks" : {

                                  }
                                },
                                {
                                  "id" : 868,
                                  "_type" : "ScreenVMFile",
                                  "src" : 1,
                                  "trackNumber" : 0,
                                  "attributes" : {
                                    "ident" : "Rec 01-28-21_001"
                                  },
                                  "parameters" : {
                                    "cursorScale" : {
                                      "type" : "double",
                                      "defaultValue" : 0.0,
                                      "interp" : "linr"
                                    },
                                    "cursorOpacity" : {
                                      "type" : "double",
                                      "defaultValue" : 0.0,
                                      "interp" : "linr"
                                    }
                                  },
                                  "effects" : [

                                  ],
                                  "start" : 1194,
                                  "duration" : 41,
                                  "mediaStart" : 1882,
                                  "mediaDuration" : 41,
                                  "scalar" : 1,
                                  "metadata" : {
                                    "AutoAppliedSmartFocus" : "False"
                                  },
                                  "animationTracks" : {

                                  }
                                },
                                {
                                  "id" : 869,
                                  "_type" : "ScreenVMFile",
                                  "src" : 1,
                                  "trackNumber" : 0,
                                  "attributes" : {
                                    "ident" : "Rec 01-28-21_001"
                                  },
                                  "parameters" : {
                                    "cursorScale" : {
                                      "type" : "double",
                                      "defaultValue" : 0.0,
                                      "interp" : "linr"
                                    },
                                    "cursorOpacity" : {
                                      "type" : "double",
                                      "defaultValue" : 0.0,
                                      "interp" : "linr"
                                    }
                                  },
                                  "effects" : [

                                  ],
                                  "start" : 1235,
                                  "duration" : 41,
                                  "mediaStart" : 1948,
                                  "mediaDuration" : 41,
                                  "scalar" : 1,
                                  "metadata" : {
                                    "AutoAppliedSmartFocus" : "False"
                                  },
                                  "animationTracks" : {

                                  }
                                },
                                {
                                  "id" : 870,
                                  "_type" : "ScreenVMFile",
                                  "src" : 1,
                                  "trackNumber" : 0,
                                  "attributes" : {
                                    "ident" : "Rec 01-28-21_001"
                                  },
                                  "parameters" : {
                                    "cursorScale" : {
                                      "type" : "double",
                                      "defaultValue" : 0.0,
                                      "interp" : "linr"
                                    },
                                    "cursorOpacity" : {
                                      "type" : "double",
                                      "defaultValue" : 0.0,
                                      "interp" : "linr"
                                    }
                                  },
                                  "effects" : [

                                  ],
                                  "start" : 1276,
                                  "duration" : 55,
                                  "mediaStart" : 2015,
                                  "mediaDuration" : 55,
                                  "scalar" : 1,
                                  "metadata" : {
                                    "AutoAppliedSmartFocus" : "False"
                                  },
                                  "animationTracks" : {

                                  }
                                },
                                {
                                  "id" : 871,
                                  "_type" : "ScreenVMFile",
                                  "src" : 1,
                                  "trackNumber" : 0,
                                  "attributes" : {
                                    "ident" : "Rec 01-28-21_001"
                                  },
                                  "parameters" : {
                                    "cursorScale" : {
                                      "type" : "double",
                                      "defaultValue" : 0.0,
                                      "interp" : "linr"
                                    },
                                    "cursorOpacity" : {
                                      "type" : "double",
                                      "defaultValue" : 0.0,
                                      "interp" : "linr"
                                    }
                                  },
                                  "effects" : [

                                  ],
                                  "start" : 1331,
                                  "duration" : 42,
                                  "mediaStart" : 2110,
                                  "mediaDuration" : 42,
                                  "scalar" : 1,
                                  "metadata" : {
                                    "AutoAppliedSmartFocus" : "False"
                                  },
                                  "animationTracks" : {

                                  }
                                },
                                {
                                  "id" : 872,
                                  "_type" : "ScreenVMFile",
                                  "src" : 1,
                                  "trackNumber" : 0,
                                  "attributes" : {
                                    "ident" : "Rec 01-28-21_001"
                                  },
                                  "parameters" : {
                                    "cursorScale" : {
                                      "type" : "double",
                                      "defaultValue" : 0.0,
                                      "interp" : "linr"
                                    },
                                    "cursorOpacity" : {
                                      "type" : "double",
                                      "defaultValue" : 0.0,
                                      "interp" : "linr"
                                    }
                                  },
                                  "effects" : [

                                  ],
                                  "start" : 1373,
                                  "duration" : 23,
                                  "mediaStart" : 2250,
                                  "mediaDuration" : 23,
                                  "scalar" : 1,
                                  "metadata" : {
                                    "AutoAppliedSmartFocus" : "False"
                                  },
                                  "animationTracks" : {

                                  }
                                },
                                {
                                  "id" : 873,
                                  "_type" : "ScreenVMFile",
                                  "src" : 1,
                                  "trackNumber" : 0,
                                  "attributes" : {
                                    "ident" : "Rec 01-28-21_001"
                                  },
                                  "parameters" : {
                                    "cursorScale" : {
                                      "type" : "double",
                                      "defaultValue" : 0.0,
                                      "interp" : "linr"
                                    },
                                    "cursorOpacity" : {
                                      "type" : "double",
                                      "defaultValue" : 0.0,
                                      "interp" : "linr"
                                    }
                                  },
                                  "effects" : [

                                  ],
                                  "start" : 1396,
                                  "duration" : 79,
                                  "mediaStart" : 2299,
                                  "mediaDuration" : 79,
                                  "scalar" : 1,
                                  "metadata" : {
                                    "AutoAppliedSmartFocus" : "False"
                                  },
                                  "animationTracks" : {

                                  }
                                },
                                {
                                  "id" : 874,
                                  "_type" : "ScreenVMFile",
                                  "src" : 1,
                                  "trackNumber" : 0,
                                  "attributes" : {
                                    "ident" : "Rec 01-28-21_001"
                                  },
                                  "parameters" : {
                                    "cursorScale" : {
                                      "type" : "double",
                                      "defaultValue" : 0.0,
                                      "interp" : "linr"
                                    },
                                    "cursorOpacity" : {
                                      "type" : "double",
                                      "defaultValue" : 0.0,
                                      "interp" : "linr"
                                    }
                                  },
                                  "effects" : [

                                  ],
                                  "start" : 1475,
                                  "duration" : 64,
                                  "mediaStart" : 2409,
                                  "mediaDuration" : 64,
                                  "scalar" : 1,
                                  "metadata" : {
                                    "AutoAppliedSmartFocus" : "False"
                                  },
                                  "animationTracks" : {

                                  }
                                },
                                {
                                  "id" : 875,
                                  "_type" : "ScreenVMFile",
                                  "src" : 1,
                                  "trackNumber" : 0,
                                  "attributes" : {
                                    "ident" : "Rec 01-28-21_001"
                                  },
                                  "parameters" : {
                                    "cursorScale" : {
                                      "type" : "double",
                                      "defaultValue" : 0.0,
                                      "interp" : "linr"
                                    },
                                    "cursorOpacity" : {
                                      "type" : "double",
                                      "defaultValue" : 0.0,
                                      "interp" : "linr"
                                    }
                                  },
                                  "effects" : [

                                  ],
                                  "start" : 1539,
                                  "duration" : 43,
                                  "mediaStart" : 2478,
                                  "mediaDuration" : 43,
                                  "scalar" : 1,
                                  "metadata" : {
                                    "AutoAppliedSmartFocus" : "False"
                                  },
                                  "animationTracks" : {

                                  }
                                },
                                {
                                  "id" : 876,
                                  "_type" : "ScreenVMFile",
                                  "src" : 1,
                                  "trackNumber" : 0,
                                  "attributes" : {
                                    "ident" : "Rec 01-28-21_001"
                                  },
                                  "parameters" : {
                                    "cursorScale" : {
                                      "type" : "double",
                                      "defaultValue" : 0.0,
                                      "interp" : "linr"
                                    },
                                    "cursorOpacity" : {
                                      "type" : "double",
                                      "defaultValue" : 0.0,
                                      "interp" : "linr"
                                    }
                                  },
                                  "effects" : [

                                  ],
                                  "start" : 1582,
                                  "duration" : 47,
                                  "mediaStart" : 2538,
                                  "mediaDuration" : 47,
                                  "scalar" : 1,
                                  "metadata" : {
                                    "AutoAppliedSmartFocus" : "False"
                                  },
                                  "animationTracks" : {

                                  }
                                },
                                {
                                  "id" : 877,
                                  "_type" : "ScreenVMFile",
                                  "src" : 1,
                                  "trackNumber" : 0,
                                  "attributes" : {
                                    "ident" : "Rec 01-28-21_001"
                                  },
                                  "parameters" : {
                                    "cursorScale" : {
                                      "type" : "double",
                                      "defaultValue" : 0.0,
                                      "interp" : "linr"
                                    },
                                    "cursorOpacity" : {
                                      "type" : "double",
                                      "defaultValue" : 0.0,
                                      "interp" : "linr"
                                    }
                                  },
                                  "effects" : [

                                  ],
                                  "start" : 1629,
                                  "duration" : 299,
                                  "mediaStart" : 2613,
                                  "mediaDuration" : 299,
                                  "scalar" : 1,
                                  "metadata" : {
                                    "AutoAppliedSmartFocus" : "False"
                                  },
                                  "animationTracks" : {

                                  }
                                },
                                {
                                  "id" : 878,
                                  "_type" : "ScreenVMFile",
                                  "src" : 1,
                                  "trackNumber" : 0,
                                  "attributes" : {
                                    "ident" : "Rec 01-28-21_001"
                                  },
                                  "parameters" : {
                                    "cursorScale" : {
                                      "type" : "double",
                                      "defaultValue" : 0.0,
                                      "interp" : "linr"
                                    },
                                    "cursorOpacity" : {
                                      "type" : "double",
                                      "defaultValue" : 0.0,
                                      "interp" : "linr"
                                    }
                                  },
                                  "effects" : [

                                  ],
                                  "start" : 1928,
                                  "duration" : 53,
                                  "mediaStart" : 3209,
                                  "mediaDuration" : 53,
                                  "scalar" : 1,
                                  "metadata" : {
                                    "AutoAppliedSmartFocus" : "False"
                                  },
                                  "animationTracks" : {

                                  }
                                },
                                {
                                  "id" : 879,
                                  "_type" : "ScreenVMFile",
                                  "src" : 1,
                                  "trackNumber" : 0,
                                  "attributes" : {
                                    "ident" : "Rec 01-28-21_001"
                                  },
                                  "parameters" : {
                                    "cursorScale" : {
                                      "type" : "double",
                                      "defaultValue" : 0.0,
                                      "interp" : "linr"
                                    },
                                    "cursorOpacity" : {
                                      "type" : "double",
                                      "defaultValue" : 0.0,
                                      "interp" : "linr"
                                    }
                                  },
                                  "effects" : [

                                  ],
                                  "start" : 1981,
                                  "duration" : 47,
                                  "mediaStart" : 3282,
                                  "mediaDuration" : 47,
                                  "scalar" : 1,
                                  "metadata" : {
                                    "AutoAppliedSmartFocus" : "False"
                                  },
                                  "animationTracks" : {

                                  }
                                },
                                {
                                  "id" : 880,
                                  "_type" : "ScreenVMFile",
                                  "src" : 1,
                                  "trackNumber" : 0,
                                  "attributes" : {
                                    "ident" : "Rec 01-28-21_001"
                                  },
                                  "parameters" : {
                                    "cursorScale" : {
                                      "type" : "double",
                                      "defaultValue" : 0.0,
                                      "interp" : "linr"
                                    },
                                    "cursorOpacity" : {
                                      "type" : "double",
                                      "defaultValue" : 0.0,
                                      "interp" : "linr"
                                    }
                                  },
                                  "effects" : [

                                  ],
                                  "start" : 2028,
                                  "duration" : 103,
                                  "mediaStart" : 3341,
                                  "mediaDuration" : 103,
                                  "scalar" : 1,
                                  "metadata" : {
                                    "AutoAppliedSmartFocus" : "False"
                                  },
                                  "animationTracks" : {

                                  }
                                },
                                {
                                  "id" : 881,
                                  "_type" : "ScreenVMFile",
                                  "src" : 1,
                                  "trackNumber" : 0,
                                  "attributes" : {
                                    "ident" : "Rec 01-28-21_001"
                                  },
                                  "parameters" : {
                                    "cursorScale" : {
                                      "type" : "double",
                                      "defaultValue" : 0.0,
                                      "interp" : "linr"
                                    },
                                    "cursorOpacity" : {
                                      "type" : "double",
                                      "defaultValue" : 0.0,
                                      "interp" : "linr"
                                    }
                                  },
                                  "effects" : [

                                  ],
                                  "start" : 2131,
                                  "duration" : 26,
                                  "mediaStart" : 3468,
                                  "mediaDuration" : 26,
                                  "scalar" : 1,
                                  "metadata" : {
                                    "AutoAppliedSmartFocus" : "False"
                                  },
                                  "animationTracks" : {

                                  }
                                },
                                {
                                  "id" : 882,
                                  "_type" : "ScreenVMFile",
                                  "src" : 1,
                                  "trackNumber" : 0,
                                  "attributes" : {
                                    "ident" : "Rec 01-28-21_001"
                                  },
                                  "parameters" : {
                                    "cursorScale" : {
                                      "type" : "double",
                                      "defaultValue" : 0.0,
                                      "interp" : "linr"
                                    },
                                    "cursorOpacity" : {
                                      "type" : "double",
                                      "defaultValue" : 0.0,
                                      "interp" : "linr"
                                    }
                                  },
                                  "effects" : [

                                  ],
                                  "start" : 2157,
                                  "duration" : 41,
                                  "mediaStart" : 3504,
                                  "mediaDuration" : 41,
                                  "scalar" : 1,
                                  "metadata" : {
                                    "AutoAppliedSmartFocus" : "False"
                                  },
                                  "animationTracks" : {

                                  }
                                },
                                {
                                  "id" : 883,
                                  "_type" : "ScreenVMFile",
                                  "src" : 1,
                                  "trackNumber" : 0,
                                  "attributes" : {
                                    "ident" : "Rec 01-28-21_001"
                                  },
                                  "parameters" : {
                                    "cursorScale" : {
                                      "type" : "double",
                                      "defaultValue" : 0.0,
                                      "interp" : "linr"
                                    },
                                    "cursorOpacity" : {
                                      "type" : "double",
                                      "defaultValue" : 0.0,
                                      "interp" : "linr"
                                    }
                                  },
                                  "effects" : [

                                  ],
                                  "start" : 2198,
                                  "duration" : 108,
                                  "mediaStart" : 3657,
                                  "mediaDuration" : 108,
                                  "scalar" : 1,
                                  "metadata" : {
                                    "AutoAppliedSmartFocus" : "False"
                                  },
                                  "animationTracks" : {

                                  }
                                },
                                {
                                  "id" : 884,
                                  "_type" : "ScreenVMFile",
                                  "src" : 1,
                                  "trackNumber" : 0,
                                  "attributes" : {
                                    "ident" : "Rec 01-28-21_001"
                                  },
                                  "parameters" : {
                                    "cursorScale" : {
                                      "type" : "double",
                                      "defaultValue" : 0.0,
                                      "interp" : "linr"
                                    },
                                    "cursorOpacity" : {
                                      "type" : "double",
                                      "defaultValue" : 0.0,
                                      "interp" : "linr"
                                    }
                                  },
                                  "effects" : [

                                  ],
                                  "start" : 2306,
                                  "duration" : 124,
                                  "mediaStart" : 3787,
                                  "mediaDuration" : 124,
                                  "scalar" : 1,
                                  "metadata" : {
                                    "AutoAppliedSmartFocus" : "False"
                                  },
                                  "animationTracks" : {

                                  }
                                },
                                {
                                  "id" : 885,
                                  "_type" : "ScreenVMFile",
                                  "src" : 1,
                                  "trackNumber" : 0,
                                  "attributes" : {
                                    "ident" : "Rec 01-28-21_001"
                                  },
                                  "parameters" : {
                                    "cursorScale" : {
                                      "type" : "double",
                                      "defaultValue" : 0.0,
                                      "interp" : "linr"
                                    },
                                    "cursorOpacity" : {
                                      "type" : "double",
                                      "defaultValue" : 0.0,
                                      "interp" : "linr"
                                    }
                                  },
                                  "effects" : [

                                  ],
                                  "start" : 2430,
                                  "duration" : 282,
                                  "mediaStart" : 3991,
                                  "mediaDuration" : 282,
                                  "scalar" : 1,
                                  "metadata" : {
                                    "AutoAppliedSmartFocus" : "False"
                                  },
                                  "animationTracks" : {

                                  }
                                },
                                {
                                  "id" : 886,
                                  "_type" : "ScreenVMFile",
                                  "src" : 1,
                                  "trackNumber" : 0,
                                  "attributes" : {
                                    "ident" : "Rec 01-28-21_001"
                                  },
                                  "parameters" : {
                                    "cursorScale" : {
                                      "type" : "double",
                                      "defaultValue" : 0.0,
                                      "interp" : "linr"
                                    },
                                    "cursorOpacity" : {
                                      "type" : "double",
                                      "defaultValue" : 0.0,
                                      "interp" : "linr"
                                    }
                                  },
                                  "effects" : [

                                  ],
                                  "start" : 2712,
                                  "duration" : 205,
                                  "mediaStart" : 4397,
                                  "mediaDuration" : 205,
                                  "scalar" : 1,
                                  "metadata" : {
                                    "AutoAppliedSmartFocus" : "False"
                                  },
                                  "animationTracks" : {

                                  }
                                },
                                {
                                  "id" : 887,
                                  "_type" : "ScreenVMFile",
                                  "src" : 1,
                                  "trackNumber" : 0,
                                  "attributes" : {
                                    "ident" : "Rec 01-28-21_001"
                                  },
                                  "parameters" : {
                                    "cursorScale" : {
                                      "type" : "double",
                                      "defaultValue" : 0.0,
                                      "interp" : "linr"
                                    },
                                    "cursorOpacity" : {
                                      "type" : "double",
                                      "defaultValue" : 0.0,
                                      "interp" : "linr"
                                    }
                                  },
                                  "effects" : [

                                  ],
                                  "start" : 2917,
                                  "duration" : 61,
                                  "mediaStart" : 4960,
                                  "mediaDuration" : 61,
                                  "scalar" : 1,
                                  "metadata" : {
                                    "AutoAppliedSmartFocus" : "False"
                                  },
                                  "animationTracks" : {

                                  }
                                },
                                {
                                  "id" : 888,
                                  "_type" : "ScreenVMFile",
                                  "src" : 1,
                                  "trackNumber" : 0,
                                  "attributes" : {
                                    "ident" : "Rec 01-28-21_001"
                                  },
                                  "parameters" : {
                                    "cursorScale" : {
                                      "type" : "double",
                                      "defaultValue" : 0.0,
                                      "interp" : "linr"
                                    },
                                    "cursorOpacity" : {
                                      "type" : "double",
                                      "defaultValue" : 0.0,
                                      "interp" : "linr"
                                    }
                                  },
                                  "effects" : [

                                  ],
                                  "start" : 2978,
                                  "duration" : 172,
                                  "mediaStart" : 5035,
                                  "mediaDuration" : 172,
                                  "scalar" : 1,
                                  "metadata" : {
                                    "AutoAppliedSmartFocus" : "False"
                                  },
                                  "animationTracks" : {

                                  }
                                },
                                {
                                  "id" : 889,
                                  "_type" : "ScreenVMFile",
                                  "src" : 1,
                                  "trackNumber" : 0,
                                  "attributes" : {
                                    "ident" : "Rec 01-28-21_001"
                                  },
                                  "parameters" : {
                                    "cursorScale" : {
                                      "type" : "double",
                                      "defaultValue" : 0.0,
                                      "interp" : "linr"
                                    },
                                    "cursorOpacity" : {
                                      "type" : "double",
                                      "defaultValue" : 0.0,
                                      "interp" : "linr"
                                    }
                                  },
                                  "effects" : [

                                  ],
                                  "start" : 3150,
                                  "duration" : 199,
                                  "mediaStart" : 5255,
                                  "mediaDuration" : 199,
                                  "scalar" : 1,
                                  "metadata" : {
                                    "AutoAppliedSmartFocus" : "False"
                                  },
                                  "animationTracks" : {

                                  }
                                },
                                {
                                  "id" : 890,
                                  "_type" : "ScreenVMFile",
                                  "src" : 1,
                                  "trackNumber" : 0,
                                  "attributes" : {
                                    "ident" : "Rec 01-28-21_001"
                                  },
                                  "parameters" : {
                                    "cursorScale" : {
                                      "type" : "double",
                                      "defaultValue" : 0.0,
                                      "interp" : "linr"
                                    },
                                    "cursorOpacity" : {
                                      "type" : "double",
                                      "defaultValue" : 0.0,
                                      "interp" : "linr"
                                    }
                                  },
                                  "effects" : [

                                  ],
                                  "start" : 3349,
                                  "duration" : 150,
                                  "mediaStart" : 5507,
                                  "mediaDuration" : 150,
                                  "scalar" : 1,
                                  "metadata" : {
                                    "AutoAppliedSmartFocus" : "False"
                                  },
                                  "animationTracks" : {

                                  }
                                },
                                {
                                  "id" : 891,
                                  "_type" : "ScreenVMFile",
                                  "src" : 1,
                                  "trackNumber" : 0,
                                  "attributes" : {
                                    "ident" : "Rec 01-28-21_001"
                                  },
                                  "parameters" : {
                                    "cursorScale" : {
                                      "type" : "double",
                                      "defaultValue" : 0.0,
                                      "interp" : "linr"
                                    },
                                    "cursorOpacity" : {
                                      "type" : "double",
                                      "defaultValue" : 0.0,
                                      "interp" : "linr"
                                    }
                                  },
                                  "effects" : [

                                  ],
                                  "start" : 3499,
                                  "duration" : 336,
                                  "mediaStart" : 6158,
                                  "mediaDuration" : 336,
                                  "scalar" : 1,
                                  "metadata" : {
                                    "AutoAppliedSmartFocus" : "False"
                                  },
                                  "animationTracks" : {

                                  }
                                },
                                {
                                  "id" : 892,
                                  "_type" : "ScreenVMFile",
                                  "src" : 1,
                                  "trackNumber" : 0,
                                  "attributes" : {
                                    "ident" : "Rec 01-28-21_001"
                                  },
                                  "parameters" : {
                                    "cursorScale" : {
                                      "type" : "double",
                                      "defaultValue" : 0.0,
                                      "interp" : "linr"
                                    },
                                    "cursorOpacity" : {
                                      "type" : "double",
                                      "defaultValue" : 0.0,
                                      "interp" : "linr"
                                    }
                                  },
                                  "effects" : [

                                  ],
                                  "start" : 3835,
                                  "duration" : 73,
                                  "mediaStart" : 6577,
                                  "mediaDuration" : 73,
                                  "scalar" : 1,
                                  "metadata" : {
                                    "AutoAppliedSmartFocus" : "False"
                                  },
                                  "animationTracks" : {

                                  }
                                },
                                {
                                  "id" : 893,
                                  "_type" : "ScreenVMFile",
                                  "src" : 1,
                                  "trackNumber" : 0,
                                  "attributes" : {
                                    "ident" : "Rec 01-28-21_001"
                                  },
                                  "parameters" : {
                                    "cursorScale" : {
                                      "type" : "double",
                                      "defaultValue" : 0.0,
                                      "interp" : "linr"
                                    },
                                    "cursorOpacity" : {
                                      "type" : "double",
                                      "defaultValue" : 0.0,
                                      "interp" : "linr"
                                    }
                                  },
                                  "effects" : [

                                  ],
                                  "start" : 3908,
                                  "duration" : 14,
                                  "mediaStart" : 6679,
                                  "mediaDuration" : 14,
                                  "scalar" : 1,
                                  "metadata" : {
                                    "AutoAppliedSmartFocus" : "False"
                                  },
                                  "animationTracks" : {

                                  }
                                },
                                {
                                  "id" : 894,
                                  "_type" : "ScreenVMFile",
                                  "src" : 1,
                                  "trackNumber" : 0,
                                  "attributes" : {
                                    "ident" : "Rec 01-28-21_001"
                                  },
                                  "parameters" : {
                                    "cursorScale" : {
                                      "type" : "double",
                                      "defaultValue" : 0.0,
                                      "interp" : "linr"
                                    },
                                    "cursorOpacity" : {
                                      "type" : "double",
                                      "defaultValue" : 0.0,
                                      "interp" : "linr"
                                    }
                                  },
                                  "effects" : [

                                  ],
                                  "start" : 3922,
                                  "duration" : 3710,
                                  "mediaStart" : 6711,
                                  "mediaDuration" : 3710,
                                  "scalar" : 1,
                                  "metadata" : {
                                    "AutoAppliedSmartFocus" : "False"
                                  },
                                  "animationTracks" : {

                                  }
                                }
                            ],
                            "effects" : [

                            ],
                            "start" : 0,
                            "duration" : 403,
                            "mediaStart" : 3833,
                            "mediaDuration" : 403,
                            "scalar" : 1,
                            "metadata" : {
                              "AutoAppliedSmartFocus" : "False",
                              "clipSpeedAttribute" : false
                            },
                            "animationTracks" : {

                            }
                          }
                        ],
                          "ident" : "",
                          "audioMuted" : false,
                          "videoHidden" : false,
                          "magnetic" : false,
                          "matte" : 0,
                          "metadata" : {
                            "IsLocked" : "False",
                            "WinTrackHeight" : "0"
                          }
                      },
                      {
                        "trackIndex" : 1,
                        "medias" : [
                          {
                            "id" : 895,
                            "_type" : "StitchedMedia",
                            "minMediaStart" : 0,
                            "attributes" : {
                              "ident" : "Narration_3-3 Kubernetes-Deployment 8",
                              "gain" : 1.0,
                              "mixToMono" : false
                            },
                            "parameters" : {
                              "volume" : 1.0,
                              "cursorOpacity" : 1.0,
                              "cursorScale" : 1.0
                            },
                            "medias" : [
                                {
                                  "id" : 896,
                                  "_type" : "AMFile",
                                  "src" : 11,
                                  "trackNumber" : 0,
                                  "attributes" : {
                                    "ident" : "Narration_3-3 Kubernetes-Deployment 8",
                                    "gain" : 1.0,
                                    "mixToMono" : false
                                  },
                                    "channelNumber" : "0,1",
                                  "effects" : [

                                  ],
                                  "start" : 0,
                                  "duration" : 89,
                                  "mediaStart" : 0,
                                  "mediaDuration" : 89,
                                  "scalar" : 1,
                                  "metadata" : {
                                    "clipSpeedAttribute" : false
                                  },
                                  "animationTracks" : {

                                  }
                                },
                                {
                                  "id" : 897,
                                  "_type" : "AMFile",
                                  "src" : 11,
                                  "trackNumber" : 0,
                                  "attributes" : {
                                    "ident" : "Narration_3-3 Kubernetes-Deployment 8",
                                    "gain" : 1.0,
                                    "mixToMono" : false
                                  },
                                    "channelNumber" : "0,1",
                                  "effects" : [

                                  ],
                                  "start" : 89,
                                  "duration" : 316,
                                  "mediaStart" : 107,
                                  "mediaDuration" : 316,
                                  "scalar" : 1,
                                  "metadata" : {
                                    "clipSpeedAttribute" : false
                                  },
                                  "animationTracks" : {

                                  }
                                }
                            ],
                            "effects" : [

                            ],
                            "start" : 0,
                            "duration" : 405,
                            "mediaStart" : 0,
                            "mediaDuration" : 405,
                            "scalar" : 1,
                            "metadata" : {
                              "clipSpeedAttribute" : false
                            },
                            "animationTracks" : {

                            }
                          }
                        ],
                          "ident" : "",
                          "audioMuted" : false,
                          "videoHidden" : false,
                          "magnetic" : false,
                          "matte" : 0,
                          "metadata" : {
                            "IsLocked" : "False",
                            "WinTrackHeight" : "2.67715388710264e-313"
                          }
                      }
                    ],
                    "attributes" : {
                      "ident" : "Group 2",
                      "gain" : 1.0,
                      "mixToMono" : false
                    },
                    "effects" : [

                    ],
                    "start" : 3654,
                    "duration" : 405,
                    "mediaStart" : 0.0,
                    "mediaDuration" : 405.0,
                    "scalar" : 1,
                    "metadata" : {
                      "IsGroupExpanded" : "False"
                    },
                    "animationTracks" : {

                    }
                  },
                  {
                    "id" : 898,
                    "_type" : "StitchedMedia",
                    "minMediaStart" : 0,
                    "attributes" : {
                      "ident" : "Rec 01-28-21_001",
                      "gain" : 1.0,
                      "mixToMono" : false
                    },
                    "parameters" : {
                      "volume" : 1.0,
                      "cursorOpacity" : 1.0,
                      "cursorScale" : 1.0
                    },
                    "medias" : [
                        {
                          "id" : 899,
                          "_type" : "UnifiedMedia",
                          "video" : 
                              {
                                "id" : 900,
                                "_type" : "ScreenVMFile",
                                "src" : 1,
                                "trackNumber" : 0,
                                "attributes" : {
                                  "ident" : "Rec 01-28-21_001"
                                },
                                "parameters" : {
                                  "cursorScale" : {
                                    "type" : "double",
                                    "defaultValue" : 0.0,
                                    "interp" : "linr"
                                  },
                                  "cursorOpacity" : {
                                    "type" : "double",
                                    "defaultValue" : 0.0,
                                    "interp" : "linr"
                                  }
                                },
                                "effects" : [

                                ],
                                "start" : 0,
                                "duration" : 18,
                                "mediaStart" : 0,
                                "mediaDuration" : 18,
                                "scalar" : 1,
                                "animationTracks" : {

                                }
                              },
                          "audio" : 
                              {
                                "id" : 901,
                                "_type" : "AMFile",
                                "src" : 1,
                                "trackNumber" : 1,
                                "attributes" : {
                                  "ident" : "",
                                  "gain" : 1.0,
                                  "mixToMono" : false
                                },
                                  "channelNumber" : "0,1",
                                "effects" : [

                                ],
                                "start" : 0,
                                "duration" : 18,
                                "mediaStart" : 0,
                                "mediaDuration" : 18,
                                "scalar" : 1,
                                "animationTracks" : {

                                }
                              }
,
                          "start" : 0,
                          "duration" : 18,
                          "mediaStart" : 0,
                          "mediaDuration" : 10411,
                          "scalar" : 1,
                          "metadata" : {
                            "AutoAppliedSmartFocus" : "False",
                            "clipSpeedAttribute" : false
                          }
                        },
                        {
                          "id" : 902,
                          "_type" : "UnifiedMedia",
                          "video" : 
                              {
                                "id" : 903,
                                "_type" : "ScreenVMFile",
                                "src" : 1,
                                "trackNumber" : 0,
                                "attributes" : {
                                  "ident" : "Rec 01-28-21_001"
                                },
                                "parameters" : {
                                  "cursorScale" : {
                                    "type" : "double",
                                    "defaultValue" : 0.0,
                                    "interp" : "linr"
                                  },
                                  "cursorOpacity" : {
                                    "type" : "double",
                                    "defaultValue" : 0.0,
                                    "interp" : "linr"
                                  }
                                },
                                "effects" : [

                                ],
                                "start" : 18,
                                "duration" : 286,
                                "mediaStart" : 55,
                                "mediaDuration" : 286,
                                "scalar" : 1,
                                "animationTracks" : {

                                }
                              },
                          "audio" : 
                              {
                                "id" : 904,
                                "_type" : "AMFile",
                                "src" : 1,
                                "trackNumber" : 1,
                                "attributes" : {
                                  "ident" : "",
                                  "gain" : 1.0,
                                  "mixToMono" : false
                                },
                                  "channelNumber" : "0,1",
                                "effects" : [

                                ],
                                "start" : 18,
                                "duration" : 286,
                                "mediaStart" : 55,
                                "mediaDuration" : 286,
                                "scalar" : 1,
                                "animationTracks" : {

                                }
                              }
,
                          "start" : 18,
                          "duration" : 286,
                          "mediaStart" : 0,
                          "mediaDuration" : 10411,
                          "scalar" : 1,
                          "metadata" : {
                            "AutoAppliedSmartFocus" : "False",
                            "clipSpeedAttribute" : false
                          }
                        },
                        {
                          "id" : 905,
                          "_type" : "UnifiedMedia",
                          "video" : 
                              {
                                "id" : 906,
                                "_type" : "ScreenVMFile",
                                "src" : 1,
                                "trackNumber" : 0,
                                "attributes" : {
                                  "ident" : "Rec 01-28-21_001"
                                },
                                "parameters" : {
                                  "cursorScale" : {
                                    "type" : "double",
                                    "defaultValue" : 0.0,
                                    "interp" : "linr"
                                  },
                                  "cursorOpacity" : {
                                    "type" : "double",
                                    "defaultValue" : 0.0,
                                    "interp" : "linr"
                                  }
                                },
                                "effects" : [

                                ],
                                "start" : 304,
                                "duration" : 53,
                                "mediaStart" : 367,
                                "mediaDuration" : 53,
                                "scalar" : 1,
                                "animationTracks" : {

                                }
                              },
                          "audio" : 
                              {
                                "id" : 907,
                                "_type" : "AMFile",
                                "src" : 1,
                                "trackNumber" : 1,
                                "attributes" : {
                                  "ident" : "",
                                  "gain" : 1.0,
                                  "mixToMono" : false
                                },
                                  "channelNumber" : "0,1",
                                "effects" : [

                                ],
                                "start" : 304,
                                "duration" : 53,
                                "mediaStart" : 367,
                                "mediaDuration" : 53,
                                "scalar" : 1,
                                "animationTracks" : {

                                }
                              }
,
                          "start" : 304,
                          "duration" : 53,
                          "mediaStart" : 0,
                          "mediaDuration" : 10411,
                          "scalar" : 1,
                          "metadata" : {
                            "AutoAppliedSmartFocus" : "False",
                            "clipSpeedAttribute" : false
                          }
                        },
                        {
                          "id" : 908,
                          "_type" : "UnifiedMedia",
                          "video" : 
                              {
                                "id" : 909,
                                "_type" : "ScreenVMFile",
                                "src" : 1,
                                "trackNumber" : 0,
                                "attributes" : {
                                  "ident" : "Rec 01-28-21_001"
                                },
                                "parameters" : {
                                  "cursorScale" : {
                                    "type" : "double",
                                    "defaultValue" : 0.0,
                                    "interp" : "linr"
                                  },
                                  "cursorOpacity" : {
                                    "type" : "double",
                                    "defaultValue" : 0.0,
                                    "interp" : "linr"
                                  }
                                },
                                "effects" : [

                                ],
                                "start" : 357,
                                "duration" : 59,
                                "mediaStart" : 477,
                                "mediaDuration" : 59,
                                "scalar" : 1,
                                "animationTracks" : {

                                }
                              },
                          "audio" : 
                              {
                                "id" : 910,
                                "_type" : "AMFile",
                                "src" : 1,
                                "trackNumber" : 1,
                                "attributes" : {
                                  "ident" : "",
                                  "gain" : 1.0,
                                  "mixToMono" : false
                                },
                                  "channelNumber" : "0,1",
                                "effects" : [

                                ],
                                "start" : 357,
                                "duration" : 59,
                                "mediaStart" : 477,
                                "mediaDuration" : 59,
                                "scalar" : 1,
                                "animationTracks" : {

                                }
                              }
,
                          "start" : 357,
                          "duration" : 59,
                          "mediaStart" : 0,
                          "mediaDuration" : 10411,
                          "scalar" : 1,
                          "metadata" : {
                            "AutoAppliedSmartFocus" : "False",
                            "clipSpeedAttribute" : false
                          }
                        },
                        {
                          "id" : 911,
                          "_type" : "UnifiedMedia",
                          "video" : 
                              {
                                "id" : 912,
                                "_type" : "ScreenVMFile",
                                "src" : 1,
                                "trackNumber" : 0,
                                "attributes" : {
                                  "ident" : "Rec 01-28-21_001"
                                },
                                "parameters" : {
                                  "cursorScale" : {
                                    "type" : "double",
                                    "defaultValue" : 0.0,
                                    "interp" : "linr"
                                  },
                                  "cursorOpacity" : {
                                    "type" : "double",
                                    "defaultValue" : 0.0,
                                    "interp" : "linr"
                                  }
                                },
                                "effects" : [

                                ],
                                "start" : 416,
                                "duration" : 42,
                                "mediaStart" : 590,
                                "mediaDuration" : 42,
                                "scalar" : 1,
                                "animationTracks" : {

                                }
                              },
                          "audio" : 
                              {
                                "id" : 913,
                                "_type" : "AMFile",
                                "src" : 1,
                                "trackNumber" : 1,
                                "attributes" : {
                                  "ident" : "",
                                  "gain" : 1.0,
                                  "mixToMono" : false
                                },
                                  "channelNumber" : "0,1",
                                "effects" : [

                                ],
                                "start" : 416,
                                "duration" : 42,
                                "mediaStart" : 590,
                                "mediaDuration" : 42,
                                "scalar" : 1,
                                "animationTracks" : {

                                }
                              }
,
                          "start" : 416,
                          "duration" : 42,
                          "mediaStart" : 0,
                          "mediaDuration" : 10411,
                          "scalar" : 1,
                          "metadata" : {
                            "AutoAppliedSmartFocus" : "False",
                            "clipSpeedAttribute" : false
                          }
                        },
                        {
                          "id" : 914,
                          "_type" : "UnifiedMedia",
                          "video" : 
                              {
                                "id" : 915,
                                "_type" : "ScreenVMFile",
                                "src" : 1,
                                "trackNumber" : 0,
                                "attributes" : {
                                  "ident" : "Rec 01-28-21_001"
                                },
                                "parameters" : {
                                  "cursorScale" : {
                                    "type" : "double",
                                    "defaultValue" : 0.0,
                                    "interp" : "linr"
                                  },
                                  "cursorOpacity" : {
                                    "type" : "double",
                                    "defaultValue" : 0.0,
                                    "interp" : "linr"
                                  }
                                },
                                "effects" : [

                                ],
                                "start" : 458,
                                "duration" : 22,
                                "mediaStart" : 646,
                                "mediaDuration" : 22,
                                "scalar" : 1,
                                "animationTracks" : {

                                }
                              },
                          "audio" : 
                              {
                                "id" : 916,
                                "_type" : "AMFile",
                                "src" : 1,
                                "trackNumber" : 1,
                                "attributes" : {
                                  "ident" : "",
                                  "gain" : 1.0,
                                  "mixToMono" : false
                                },
                                  "channelNumber" : "0,1",
                                "effects" : [

                                ],
                                "start" : 458,
                                "duration" : 22,
                                "mediaStart" : 646,
                                "mediaDuration" : 22,
                                "scalar" : 1,
                                "animationTracks" : {

                                }
                              }
,
                          "start" : 458,
                          "duration" : 22,
                          "mediaStart" : 0,
                          "mediaDuration" : 10411,
                          "scalar" : 1,
                          "metadata" : {
                            "AutoAppliedSmartFocus" : "False",
                            "clipSpeedAttribute" : false
                          }
                        },
                        {
                          "id" : 917,
                          "_type" : "UnifiedMedia",
                          "video" : 
                              {
                                "id" : 918,
                                "_type" : "ScreenVMFile",
                                "src" : 1,
                                "trackNumber" : 0,
                                "attributes" : {
                                  "ident" : "Rec 01-28-21_001"
                                },
                                "parameters" : {
                                  "cursorScale" : {
                                    "type" : "double",
                                    "defaultValue" : 0.0,
                                    "interp" : "linr"
                                  },
                                  "cursorOpacity" : {
                                    "type" : "double",
                                    "defaultValue" : 0.0,
                                    "interp" : "linr"
                                  }
                                },
                                "effects" : [

                                ],
                                "start" : 480,
                                "duration" : 115,
                                "mediaStart" : 762,
                                "mediaDuration" : 115,
                                "scalar" : 1,
                                "animationTracks" : {

                                }
                              },
                          "audio" : 
                              {
                                "id" : 919,
                                "_type" : "AMFile",
                                "src" : 1,
                                "trackNumber" : 1,
                                "attributes" : {
                                  "ident" : "",
                                  "gain" : 1.0,
                                  "mixToMono" : false
                                },
                                  "channelNumber" : "0,1",
                                "effects" : [

                                ],
                                "start" : 480,
                                "duration" : 115,
                                "mediaStart" : 762,
                                "mediaDuration" : 115,
                                "scalar" : 1,
                                "animationTracks" : {

                                }
                              }
,
                          "start" : 480,
                          "duration" : 115,
                          "mediaStart" : 0,
                          "mediaDuration" : 10411,
                          "scalar" : 1,
                          "metadata" : {
                            "AutoAppliedSmartFocus" : "False",
                            "clipSpeedAttribute" : false
                          }
                        },
                        {
                          "id" : 920,
                          "_type" : "UnifiedMedia",
                          "video" : 
                              {
                                "id" : 921,
                                "_type" : "ScreenVMFile",
                                "src" : 1,
                                "trackNumber" : 0,
                                "attributes" : {
                                  "ident" : "Rec 01-28-21_001"
                                },
                                "parameters" : {
                                  "cursorScale" : {
                                    "type" : "double",
                                    "defaultValue" : 0.0,
                                    "interp" : "linr"
                                  },
                                  "cursorOpacity" : {
                                    "type" : "double",
                                    "defaultValue" : 0.0,
                                    "interp" : "linr"
                                  }
                                },
                                "effects" : [

                                ],
                                "start" : 595,
                                "duration" : 154,
                                "mediaStart" : 1024,
                                "mediaDuration" : 154,
                                "scalar" : 1,
                                "animationTracks" : {

                                }
                              },
                          "audio" : 
                              {
                                "id" : 922,
                                "_type" : "AMFile",
                                "src" : 1,
                                "trackNumber" : 1,
                                "attributes" : {
                                  "ident" : "",
                                  "gain" : 1.0,
                                  "mixToMono" : false
                                },
                                  "channelNumber" : "0,1",
                                "effects" : [

                                ],
                                "start" : 595,
                                "duration" : 154,
                                "mediaStart" : 1024,
                                "mediaDuration" : 154,
                                "scalar" : 1,
                                "animationTracks" : {

                                }
                              }
,
                          "start" : 595,
                          "duration" : 154,
                          "mediaStart" : 0,
                          "mediaDuration" : 10411,
                          "scalar" : 1,
                          "metadata" : {
                            "AutoAppliedSmartFocus" : "False",
                            "clipSpeedAttribute" : false
                          }
                        },
                        {
                          "id" : 923,
                          "_type" : "UnifiedMedia",
                          "video" : 
                              {
                                "id" : 924,
                                "_type" : "ScreenVMFile",
                                "src" : 1,
                                "trackNumber" : 0,
                                "attributes" : {
                                  "ident" : "Rec 01-28-21_001"
                                },
                                "parameters" : {
                                  "cursorScale" : {
                                    "type" : "double",
                                    "defaultValue" : 0.0,
                                    "interp" : "linr"
                                  },
                                  "cursorOpacity" : {
                                    "type" : "double",
                                    "defaultValue" : 0.0,
                                    "interp" : "linr"
                                  }
                                },
                                "effects" : [

                                ],
                                "start" : 749,
                                "duration" : 135,
                                "mediaStart" : 1207,
                                "mediaDuration" : 135,
                                "scalar" : 1,
                                "animationTracks" : {

                                }
                              },
                          "audio" : 
                              {
                                "id" : 925,
                                "_type" : "AMFile",
                                "src" : 1,
                                "trackNumber" : 1,
                                "attributes" : {
                                  "ident" : "",
                                  "gain" : 1.0,
                                  "mixToMono" : false
                                },
                                  "channelNumber" : "0,1",
                                "effects" : [

                                ],
                                "start" : 749,
                                "duration" : 135,
                                "mediaStart" : 1207,
                                "mediaDuration" : 135,
                                "scalar" : 1,
                                "animationTracks" : {

                                }
                              }
,
                          "start" : 749,
                          "duration" : 135,
                          "mediaStart" : 0,
                          "mediaDuration" : 10411,
                          "scalar" : 1,
                          "metadata" : {
                            "AutoAppliedSmartFocus" : "False",
                            "clipSpeedAttribute" : false
                          }
                        },
                        {
                          "id" : 926,
                          "_type" : "UnifiedMedia",
                          "video" : 
                              {
                                "id" : 927,
                                "_type" : "ScreenVMFile",
                                "src" : 1,
                                "trackNumber" : 0,
                                "attributes" : {
                                  "ident" : "Rec 01-28-21_001"
                                },
                                "parameters" : {
                                  "cursorScale" : {
                                    "type" : "double",
                                    "defaultValue" : 0.0,
                                    "interp" : "linr"
                                  },
                                  "cursorOpacity" : {
                                    "type" : "double",
                                    "defaultValue" : 0.0,
                                    "interp" : "linr"
                                  }
                                },
                                "effects" : [

                                ],
                                "start" : 884,
                                "duration" : 150,
                                "mediaStart" : 1383,
                                "mediaDuration" : 150,
                                "scalar" : 1,
                                "animationTracks" : {

                                }
                              },
                          "audio" : 
                              {
                                "id" : 928,
                                "_type" : "AMFile",
                                "src" : 1,
                                "trackNumber" : 1,
                                "attributes" : {
                                  "ident" : "",
                                  "gain" : 1.0,
                                  "mixToMono" : false
                                },
                                  "channelNumber" : "0,1",
                                "effects" : [

                                ],
                                "start" : 884,
                                "duration" : 150,
                                "mediaStart" : 1383,
                                "mediaDuration" : 150,
                                "scalar" : 1,
                                "animationTracks" : {

                                }
                              }
,
                          "start" : 884,
                          "duration" : 150,
                          "mediaStart" : 0,
                          "mediaDuration" : 10411,
                          "scalar" : 1,
                          "metadata" : {
                            "AutoAppliedSmartFocus" : "False",
                            "clipSpeedAttribute" : false
                          }
                        },
                        {
                          "id" : 929,
                          "_type" : "UnifiedMedia",
                          "video" : 
                              {
                                "id" : 930,
                                "_type" : "ScreenVMFile",
                                "src" : 1,
                                "trackNumber" : 0,
                                "attributes" : {
                                  "ident" : "Rec 01-28-21_001"
                                },
                                "parameters" : {
                                  "cursorScale" : {
                                    "type" : "double",
                                    "defaultValue" : 0.0,
                                    "interp" : "linr"
                                  },
                                  "cursorOpacity" : {
                                    "type" : "double",
                                    "defaultValue" : 0.0,
                                    "interp" : "linr"
                                  }
                                },
                                "effects" : [

                                ],
                                "start" : 1034,
                                "duration" : 89,
                                "mediaStart" : 1607,
                                "mediaDuration" : 89,
                                "scalar" : 1,
                                "animationTracks" : {

                                }
                              },
                          "audio" : 
                              {
                                "id" : 931,
                                "_type" : "AMFile",
                                "src" : 1,
                                "trackNumber" : 1,
                                "attributes" : {
                                  "ident" : "",
                                  "gain" : 1.0,
                                  "mixToMono" : false
                                },
                                  "channelNumber" : "0,1",
                                "effects" : [

                                ],
                                "start" : 1034,
                                "duration" : 89,
                                "mediaStart" : 1607,
                                "mediaDuration" : 89,
                                "scalar" : 1,
                                "animationTracks" : {

                                }
                              }
,
                          "start" : 1034,
                          "duration" : 89,
                          "mediaStart" : 0,
                          "mediaDuration" : 10411,
                          "scalar" : 1,
                          "metadata" : {
                            "AutoAppliedSmartFocus" : "False",
                            "clipSpeedAttribute" : false
                          }
                        },
                        {
                          "id" : 932,
                          "_type" : "UnifiedMedia",
                          "video" : 
                              {
                                "id" : 933,
                                "_type" : "ScreenVMFile",
                                "src" : 1,
                                "trackNumber" : 0,
                                "attributes" : {
                                  "ident" : "Rec 01-28-21_001"
                                },
                                "parameters" : {
                                  "cursorScale" : {
                                    "type" : "double",
                                    "defaultValue" : 0.0,
                                    "interp" : "linr"
                                  },
                                  "cursorOpacity" : {
                                    "type" : "double",
                                    "defaultValue" : 0.0,
                                    "interp" : "linr"
                                  }
                                },
                                "effects" : [

                                ],
                                "start" : 1123,
                                "duration" : 37,
                                "mediaStart" : 1752,
                                "mediaDuration" : 37,
                                "scalar" : 1,
                                "animationTracks" : {

                                }
                              },
                          "audio" : 
                              {
                                "id" : 934,
                                "_type" : "AMFile",
                                "src" : 1,
                                "trackNumber" : 1,
                                "attributes" : {
                                  "ident" : "",
                                  "gain" : 1.0,
                                  "mixToMono" : false
                                },
                                  "channelNumber" : "0,1",
                                "effects" : [

                                ],
                                "start" : 1123,
                                "duration" : 37,
                                "mediaStart" : 1752,
                                "mediaDuration" : 37,
                                "scalar" : 1,
                                "animationTracks" : {

                                }
                              }
,
                          "start" : 1123,
                          "duration" : 37,
                          "mediaStart" : 0,
                          "mediaDuration" : 10411,
                          "scalar" : 1,
                          "metadata" : {
                            "AutoAppliedSmartFocus" : "False",
                            "clipSpeedAttribute" : false
                          }
                        },
                        {
                          "id" : 935,
                          "_type" : "UnifiedMedia",
                          "video" : 
                              {
                                "id" : 936,
                                "_type" : "ScreenVMFile",
                                "src" : 1,
                                "trackNumber" : 0,
                                "attributes" : {
                                  "ident" : "Rec 01-28-21_001"
                                },
                                "parameters" : {
                                  "cursorScale" : {
                                    "type" : "double",
                                    "defaultValue" : 0.0,
                                    "interp" : "linr"
                                  },
                                  "cursorOpacity" : {
                                    "type" : "double",
                                    "defaultValue" : 0.0,
                                    "interp" : "linr"
                                  }
                                },
                                "effects" : [

                                ],
                                "start" : 1160,
                                "duration" : 34,
                                "mediaStart" : 1836,
                                "mediaDuration" : 34,
                                "scalar" : 1,
                                "animationTracks" : {

                                }
                              },
                          "audio" : 
                              {
                                "id" : 937,
                                "_type" : "AMFile",
                                "src" : 1,
                                "trackNumber" : 1,
                                "attributes" : {
                                  "ident" : "",
                                  "gain" : 1.0,
                                  "mixToMono" : false
                                },
                                  "channelNumber" : "0,1",
                                "effects" : [

                                ],
                                "start" : 1160,
                                "duration" : 34,
                                "mediaStart" : 1836,
                                "mediaDuration" : 34,
                                "scalar" : 1,
                                "animationTracks" : {

                                }
                              }
,
                          "start" : 1160,
                          "duration" : 34,
                          "mediaStart" : 0,
                          "mediaDuration" : 10411,
                          "scalar" : 1,
                          "metadata" : {
                            "AutoAppliedSmartFocus" : "False",
                            "clipSpeedAttribute" : false
                          }
                        },
                        {
                          "id" : 938,
                          "_type" : "UnifiedMedia",
                          "video" : 
                              {
                                "id" : 939,
                                "_type" : "ScreenVMFile",
                                "src" : 1,
                                "trackNumber" : 0,
                                "attributes" : {
                                  "ident" : "Rec 01-28-21_001"
                                },
                                "parameters" : {
                                  "cursorScale" : {
                                    "type" : "double",
                                    "defaultValue" : 0.0,
                                    "interp" : "linr"
                                  },
                                  "cursorOpacity" : {
                                    "type" : "double",
                                    "defaultValue" : 0.0,
                                    "interp" : "linr"
                                  }
                                },
                                "effects" : [

                                ],
                                "start" : 1194,
                                "duration" : 41,
                                "mediaStart" : 1882,
                                "mediaDuration" : 41,
                                "scalar" : 1,
                                "animationTracks" : {

                                }
                              },
                          "audio" : 
                              {
                                "id" : 940,
                                "_type" : "AMFile",
                                "src" : 1,
                                "trackNumber" : 1,
                                "attributes" : {
                                  "ident" : "",
                                  "gain" : 1.0,
                                  "mixToMono" : false
                                },
                                  "channelNumber" : "0,1",
                                "effects" : [

                                ],
                                "start" : 1194,
                                "duration" : 41,
                                "mediaStart" : 1882,
                                "mediaDuration" : 41,
                                "scalar" : 1,
                                "animationTracks" : {

                                }
                              }
,
                          "start" : 1194,
                          "duration" : 41,
                          "mediaStart" : 0,
                          "mediaDuration" : 10411,
                          "scalar" : 1,
                          "metadata" : {
                            "AutoAppliedSmartFocus" : "False",
                            "clipSpeedAttribute" : false
                          }
                        },
                        {
                          "id" : 941,
                          "_type" : "UnifiedMedia",
                          "video" : 
                              {
                                "id" : 942,
                                "_type" : "ScreenVMFile",
                                "src" : 1,
                                "trackNumber" : 0,
                                "attributes" : {
                                  "ident" : "Rec 01-28-21_001"
                                },
                                "parameters" : {
                                  "cursorScale" : {
                                    "type" : "double",
                                    "defaultValue" : 0.0,
                                    "interp" : "linr"
                                  },
                                  "cursorOpacity" : {
                                    "type" : "double",
                                    "defaultValue" : 0.0,
                                    "interp" : "linr"
                                  }
                                },
                                "effects" : [

                                ],
                                "start" : 1235,
                                "duration" : 41,
                                "mediaStart" : 1948,
                                "mediaDuration" : 41,
                                "scalar" : 1,
                                "animationTracks" : {

                                }
                              },
                          "audio" : 
                              {
                                "id" : 943,
                                "_type" : "AMFile",
                                "src" : 1,
                                "trackNumber" : 1,
                                "attributes" : {
                                  "ident" : "",
                                  "gain" : 1.0,
                                  "mixToMono" : false
                                },
                                  "channelNumber" : "0,1",
                                "effects" : [

                                ],
                                "start" : 1235,
                                "duration" : 41,
                                "mediaStart" : 1948,
                                "mediaDuration" : 41,
                                "scalar" : 1,
                                "animationTracks" : {

                                }
                              }
,
                          "start" : 1235,
                          "duration" : 41,
                          "mediaStart" : 0,
                          "mediaDuration" : 10411,
                          "scalar" : 1,
                          "metadata" : {
                            "AutoAppliedSmartFocus" : "False",
                            "clipSpeedAttribute" : false
                          }
                        },
                        {
                          "id" : 944,
                          "_type" : "UnifiedMedia",
                          "video" : 
                              {
                                "id" : 945,
                                "_type" : "ScreenVMFile",
                                "src" : 1,
                                "trackNumber" : 0,
                                "attributes" : {
                                  "ident" : "Rec 01-28-21_001"
                                },
                                "parameters" : {
                                  "cursorScale" : {
                                    "type" : "double",
                                    "defaultValue" : 0.0,
                                    "interp" : "linr"
                                  },
                                  "cursorOpacity" : {
                                    "type" : "double",
                                    "defaultValue" : 0.0,
                                    "interp" : "linr"
                                  }
                                },
                                "effects" : [

                                ],
                                "start" : 1276,
                                "duration" : 55,
                                "mediaStart" : 2015,
                                "mediaDuration" : 55,
                                "scalar" : 1,
                                "animationTracks" : {

                                }
                              },
                          "audio" : 
                              {
                                "id" : 946,
                                "_type" : "AMFile",
                                "src" : 1,
                                "trackNumber" : 1,
                                "attributes" : {
                                  "ident" : "",
                                  "gain" : 1.0,
                                  "mixToMono" : false
                                },
                                  "channelNumber" : "0,1",
                                "effects" : [

                                ],
                                "start" : 1276,
                                "duration" : 55,
                                "mediaStart" : 2015,
                                "mediaDuration" : 55,
                                "scalar" : 1,
                                "animationTracks" : {

                                }
                              }
,
                          "start" : 1276,
                          "duration" : 55,
                          "mediaStart" : 0,
                          "mediaDuration" : 10411,
                          "scalar" : 1,
                          "metadata" : {
                            "AutoAppliedSmartFocus" : "False",
                            "clipSpeedAttribute" : false
                          }
                        },
                        {
                          "id" : 947,
                          "_type" : "UnifiedMedia",
                          "video" : 
                              {
                                "id" : 948,
                                "_type" : "ScreenVMFile",
                                "src" : 1,
                                "trackNumber" : 0,
                                "attributes" : {
                                  "ident" : "Rec 01-28-21_001"
                                },
                                "parameters" : {
                                  "cursorScale" : {
                                    "type" : "double",
                                    "defaultValue" : 0.0,
                                    "interp" : "linr"
                                  },
                                  "cursorOpacity" : {
                                    "type" : "double",
                                    "defaultValue" : 0.0,
                                    "interp" : "linr"
                                  }
                                },
                                "effects" : [

                                ],
                                "start" : 1331,
                                "duration" : 42,
                                "mediaStart" : 2110,
                                "mediaDuration" : 42,
                                "scalar" : 1,
                                "animationTracks" : {

                                }
                              },
                          "audio" : 
                              {
                                "id" : 949,
                                "_type" : "AMFile",
                                "src" : 1,
                                "trackNumber" : 1,
                                "attributes" : {
                                  "ident" : "",
                                  "gain" : 1.0,
                                  "mixToMono" : false
                                },
                                  "channelNumber" : "0,1",
                                "effects" : [

                                ],
                                "start" : 1331,
                                "duration" : 42,
                                "mediaStart" : 2110,
                                "mediaDuration" : 42,
                                "scalar" : 1,
                                "animationTracks" : {

                                }
                              }
,
                          "start" : 1331,
                          "duration" : 42,
                          "mediaStart" : 0,
                          "mediaDuration" : 10411,
                          "scalar" : 1,
                          "metadata" : {
                            "AutoAppliedSmartFocus" : "False",
                            "clipSpeedAttribute" : false
                          }
                        },
                        {
                          "id" : 950,
                          "_type" : "UnifiedMedia",
                          "video" : 
                              {
                                "id" : 951,
                                "_type" : "ScreenVMFile",
                                "src" : 1,
                                "trackNumber" : 0,
                                "attributes" : {
                                  "ident" : "Rec 01-28-21_001"
                                },
                                "parameters" : {
                                  "cursorScale" : {
                                    "type" : "double",
                                    "defaultValue" : 0.0,
                                    "interp" : "linr"
                                  },
                                  "cursorOpacity" : {
                                    "type" : "double",
                                    "defaultValue" : 0.0,
                                    "interp" : "linr"
                                  }
                                },
                                "effects" : [

                                ],
                                "start" : 1373,
                                "duration" : 23,
                                "mediaStart" : 2250,
                                "mediaDuration" : 23,
                                "scalar" : 1,
                                "animationTracks" : {

                                }
                              },
                          "audio" : 
                              {
                                "id" : 952,
                                "_type" : "AMFile",
                                "src" : 1,
                                "trackNumber" : 1,
                                "attributes" : {
                                  "ident" : "",
                                  "gain" : 1.0,
                                  "mixToMono" : false
                                },
                                  "channelNumber" : "0,1",
                                "effects" : [

                                ],
                                "start" : 1373,
                                "duration" : 23,
                                "mediaStart" : 2250,
                                "mediaDuration" : 23,
                                "scalar" : 1,
                                "animationTracks" : {

                                }
                              }
,
                          "start" : 1373,
                          "duration" : 23,
                          "mediaStart" : 0,
                          "mediaDuration" : 10411,
                          "scalar" : 1,
                          "metadata" : {
                            "AutoAppliedSmartFocus" : "False",
                            "clipSpeedAttribute" : false
                          }
                        },
                        {
                          "id" : 953,
                          "_type" : "UnifiedMedia",
                          "video" : 
                              {
                                "id" : 954,
                                "_type" : "ScreenVMFile",
                                "src" : 1,
                                "trackNumber" : 0,
                                "attributes" : {
                                  "ident" : "Rec 01-28-21_001"
                                },
                                "parameters" : {
                                  "cursorScale" : {
                                    "type" : "double",
                                    "defaultValue" : 0.0,
                                    "interp" : "linr"
                                  },
                                  "cursorOpacity" : {
                                    "type" : "double",
                                    "defaultValue" : 0.0,
                                    "interp" : "linr"
                                  }
                                },
                                "effects" : [

                                ],
                                "start" : 1396,
                                "duration" : 79,
                                "mediaStart" : 2299,
                                "mediaDuration" : 79,
                                "scalar" : 1,
                                "animationTracks" : {

                                }
                              },
                          "audio" : 
                              {
                                "id" : 955,
                                "_type" : "AMFile",
                                "src" : 1,
                                "trackNumber" : 1,
                                "attributes" : {
                                  "ident" : "",
                                  "gain" : 1.0,
                                  "mixToMono" : false
                                },
                                  "channelNumber" : "0,1",
                                "effects" : [

                                ],
                                "start" : 1396,
                                "duration" : 79,
                                "mediaStart" : 2299,
                                "mediaDuration" : 79,
                                "scalar" : 1,
                                "animationTracks" : {

                                }
                              }
,
                          "start" : 1396,
                          "duration" : 79,
                          "mediaStart" : 0,
                          "mediaDuration" : 10411,
                          "scalar" : 1,
                          "metadata" : {
                            "AutoAppliedSmartFocus" : "False",
                            "clipSpeedAttribute" : false
                          }
                        },
                        {
                          "id" : 956,
                          "_type" : "UnifiedMedia",
                          "video" : 
                              {
                                "id" : 957,
                                "_type" : "ScreenVMFile",
                                "src" : 1,
                                "trackNumber" : 0,
                                "attributes" : {
                                  "ident" : "Rec 01-28-21_001"
                                },
                                "parameters" : {
                                  "cursorScale" : {
                                    "type" : "double",
                                    "defaultValue" : 0.0,
                                    "interp" : "linr"
                                  },
                                  "cursorOpacity" : {
                                    "type" : "double",
                                    "defaultValue" : 0.0,
                                    "interp" : "linr"
                                  }
                                },
                                "effects" : [

                                ],
                                "start" : 1475,
                                "duration" : 64,
                                "mediaStart" : 2409,
                                "mediaDuration" : 64,
                                "scalar" : 1,
                                "animationTracks" : {

                                }
                              },
                          "audio" : 
                              {
                                "id" : 958,
                                "_type" : "AMFile",
                                "src" : 1,
                                "trackNumber" : 1,
                                "attributes" : {
                                  "ident" : "",
                                  "gain" : 1.0,
                                  "mixToMono" : false
                                },
                                  "channelNumber" : "0,1",
                                "effects" : [

                                ],
                                "start" : 1475,
                                "duration" : 64,
                                "mediaStart" : 2409,
                                "mediaDuration" : 64,
                                "scalar" : 1,
                                "animationTracks" : {

                                }
                              }
,
                          "start" : 1475,
                          "duration" : 64,
                          "mediaStart" : 0,
                          "mediaDuration" : 10411,
                          "scalar" : 1,
                          "metadata" : {
                            "AutoAppliedSmartFocus" : "False",
                            "clipSpeedAttribute" : false
                          }
                        },
                        {
                          "id" : 959,
                          "_type" : "UnifiedMedia",
                          "video" : 
                              {
                                "id" : 960,
                                "_type" : "ScreenVMFile",
                                "src" : 1,
                                "trackNumber" : 0,
                                "attributes" : {
                                  "ident" : "Rec 01-28-21_001"
                                },
                                "parameters" : {
                                  "cursorScale" : {
                                    "type" : "double",
                                    "defaultValue" : 0.0,
                                    "interp" : "linr"
                                  },
                                  "cursorOpacity" : {
                                    "type" : "double",
                                    "defaultValue" : 0.0,
                                    "interp" : "linr"
                                  }
                                },
                                "effects" : [

                                ],
                                "start" : 1539,
                                "duration" : 43,
                                "mediaStart" : 2478,
                                "mediaDuration" : 43,
                                "scalar" : 1,
                                "animationTracks" : {

                                }
                              },
                          "audio" : 
                              {
                                "id" : 961,
                                "_type" : "AMFile",
                                "src" : 1,
                                "trackNumber" : 1,
                                "attributes" : {
                                  "ident" : "",
                                  "gain" : 1.0,
                                  "mixToMono" : false
                                },
                                  "channelNumber" : "0,1",
                                "effects" : [

                                ],
                                "start" : 1539,
                                "duration" : 43,
                                "mediaStart" : 2478,
                                "mediaDuration" : 43,
                                "scalar" : 1,
                                "animationTracks" : {

                                }
                              }
,
                          "start" : 1539,
                          "duration" : 43,
                          "mediaStart" : 0,
                          "mediaDuration" : 10411,
                          "scalar" : 1,
                          "metadata" : {
                            "AutoAppliedSmartFocus" : "False",
                            "clipSpeedAttribute" : false
                          }
                        },
                        {
                          "id" : 962,
                          "_type" : "UnifiedMedia",
                          "video" : 
                              {
                                "id" : 963,
                                "_type" : "ScreenVMFile",
                                "src" : 1,
                                "trackNumber" : 0,
                                "attributes" : {
                                  "ident" : "Rec 01-28-21_001"
                                },
                                "parameters" : {
                                  "cursorScale" : {
                                    "type" : "double",
                                    "defaultValue" : 0.0,
                                    "interp" : "linr"
                                  },
                                  "cursorOpacity" : {
                                    "type" : "double",
                                    "defaultValue" : 0.0,
                                    "interp" : "linr"
                                  }
                                },
                                "effects" : [

                                ],
                                "start" : 1582,
                                "duration" : 47,
                                "mediaStart" : 2538,
                                "mediaDuration" : 47,
                                "scalar" : 1,
                                "animationTracks" : {

                                }
                              },
                          "audio" : 
                              {
                                "id" : 964,
                                "_type" : "AMFile",
                                "src" : 1,
                                "trackNumber" : 1,
                                "attributes" : {
                                  "ident" : "",
                                  "gain" : 1.0,
                                  "mixToMono" : false
                                },
                                  "channelNumber" : "0,1",
                                "effects" : [

                                ],
                                "start" : 1582,
                                "duration" : 47,
                                "mediaStart" : 2538,
                                "mediaDuration" : 47,
                                "scalar" : 1,
                                "animationTracks" : {

                                }
                              }
,
                          "start" : 1582,
                          "duration" : 47,
                          "mediaStart" : 0,
                          "mediaDuration" : 10411,
                          "scalar" : 1,
                          "metadata" : {
                            "AutoAppliedSmartFocus" : "False",
                            "clipSpeedAttribute" : false
                          }
                        },
                        {
                          "id" : 965,
                          "_type" : "UnifiedMedia",
                          "video" : 
                              {
                                "id" : 966,
                                "_type" : "ScreenVMFile",
                                "src" : 1,
                                "trackNumber" : 0,
                                "attributes" : {
                                  "ident" : "Rec 01-28-21_001"
                                },
                                "parameters" : {
                                  "cursorScale" : {
                                    "type" : "double",
                                    "defaultValue" : 0.0,
                                    "interp" : "linr"
                                  },
                                  "cursorOpacity" : {
                                    "type" : "double",
                                    "defaultValue" : 0.0,
                                    "interp" : "linr"
                                  }
                                },
                                "effects" : [

                                ],
                                "start" : 1629,
                                "duration" : 299,
                                "mediaStart" : 2613,
                                "mediaDuration" : 299,
                                "scalar" : 1,
                                "animationTracks" : {

                                }
                              },
                          "audio" : 
                              {
                                "id" : 967,
                                "_type" : "AMFile",
                                "src" : 1,
                                "trackNumber" : 1,
                                "attributes" : {
                                  "ident" : "",
                                  "gain" : 1.0,
                                  "mixToMono" : false
                                },
                                  "channelNumber" : "0,1",
                                "effects" : [

                                ],
                                "start" : 1629,
                                "duration" : 299,
                                "mediaStart" : 2613,
                                "mediaDuration" : 299,
                                "scalar" : 1,
                                "animationTracks" : {

                                }
                              }
,
                          "start" : 1629,
                          "duration" : 299,
                          "mediaStart" : 0,
                          "mediaDuration" : 10411,
                          "scalar" : 1,
                          "metadata" : {
                            "AutoAppliedSmartFocus" : "False",
                            "clipSpeedAttribute" : false
                          }
                        },
                        {
                          "id" : 968,
                          "_type" : "UnifiedMedia",
                          "video" : 
                              {
                                "id" : 969,
                                "_type" : "ScreenVMFile",
                                "src" : 1,
                                "trackNumber" : 0,
                                "attributes" : {
                                  "ident" : "Rec 01-28-21_001"
                                },
                                "parameters" : {
                                  "cursorScale" : {
                                    "type" : "double",
                                    "defaultValue" : 0.0,
                                    "interp" : "linr"
                                  },
                                  "cursorOpacity" : {
                                    "type" : "double",
                                    "defaultValue" : 0.0,
                                    "interp" : "linr"
                                  }
                                },
                                "effects" : [

                                ],
                                "start" : 1928,
                                "duration" : 53,
                                "mediaStart" : 3209,
                                "mediaDuration" : 53,
                                "scalar" : 1,
                                "animationTracks" : {

                                }
                              },
                          "audio" : 
                              {
                                "id" : 970,
                                "_type" : "AMFile",
                                "src" : 1,
                                "trackNumber" : 1,
                                "attributes" : {
                                  "ident" : "",
                                  "gain" : 1.0,
                                  "mixToMono" : false
                                },
                                  "channelNumber" : "0,1",
                                "effects" : [

                                ],
                                "start" : 1928,
                                "duration" : 53,
                                "mediaStart" : 3209,
                                "mediaDuration" : 53,
                                "scalar" : 1,
                                "animationTracks" : {

                                }
                              }
,
                          "start" : 1928,
                          "duration" : 53,
                          "mediaStart" : 0,
                          "mediaDuration" : 10411,
                          "scalar" : 1,
                          "metadata" : {
                            "AutoAppliedSmartFocus" : "False",
                            "clipSpeedAttribute" : false
                          }
                        },
                        {
                          "id" : 971,
                          "_type" : "UnifiedMedia",
                          "video" : 
                              {
                                "id" : 972,
                                "_type" : "ScreenVMFile",
                                "src" : 1,
                                "trackNumber" : 0,
                                "attributes" : {
                                  "ident" : "Rec 01-28-21_001"
                                },
                                "parameters" : {
                                  "cursorScale" : {
                                    "type" : "double",
                                    "defaultValue" : 0.0,
                                    "interp" : "linr"
                                  },
                                  "cursorOpacity" : {
                                    "type" : "double",
                                    "defaultValue" : 0.0,
                                    "interp" : "linr"
                                  }
                                },
                                "effects" : [

                                ],
                                "start" : 1981,
                                "duration" : 47,
                                "mediaStart" : 3282,
                                "mediaDuration" : 47,
                                "scalar" : 1,
                                "animationTracks" : {

                                }
                              },
                          "audio" : 
                              {
                                "id" : 973,
                                "_type" : "AMFile",
                                "src" : 1,
                                "trackNumber" : 1,
                                "attributes" : {
                                  "ident" : "",
                                  "gain" : 1.0,
                                  "mixToMono" : false
                                },
                                  "channelNumber" : "0,1",
                                "effects" : [

                                ],
                                "start" : 1981,
                                "duration" : 47,
                                "mediaStart" : 3282,
                                "mediaDuration" : 47,
                                "scalar" : 1,
                                "animationTracks" : {

                                }
                              }
,
                          "start" : 1981,
                          "duration" : 47,
                          "mediaStart" : 0,
                          "mediaDuration" : 10411,
                          "scalar" : 1,
                          "metadata" : {
                            "AutoAppliedSmartFocus" : "False",
                            "clipSpeedAttribute" : false
                          }
                        },
                        {
                          "id" : 974,
                          "_type" : "UnifiedMedia",
                          "video" : 
                              {
                                "id" : 975,
                                "_type" : "ScreenVMFile",
                                "src" : 1,
                                "trackNumber" : 0,
                                "attributes" : {
                                  "ident" : "Rec 01-28-21_001"
                                },
                                "parameters" : {
                                  "cursorScale" : {
                                    "type" : "double",
                                    "defaultValue" : 0.0,
                                    "interp" : "linr"
                                  },
                                  "cursorOpacity" : {
                                    "type" : "double",
                                    "defaultValue" : 0.0,
                                    "interp" : "linr"
                                  }
                                },
                                "effects" : [

                                ],
                                "start" : 2028,
                                "duration" : 103,
                                "mediaStart" : 3341,
                                "mediaDuration" : 103,
                                "scalar" : 1,
                                "animationTracks" : {

                                }
                              },
                          "audio" : 
                              {
                                "id" : 976,
                                "_type" : "AMFile",
                                "src" : 1,
                                "trackNumber" : 1,
                                "attributes" : {
                                  "ident" : "",
                                  "gain" : 1.0,
                                  "mixToMono" : false
                                },
                                  "channelNumber" : "0,1",
                                "effects" : [

                                ],
                                "start" : 2028,
                                "duration" : 103,
                                "mediaStart" : 3341,
                                "mediaDuration" : 103,
                                "scalar" : 1,
                                "animationTracks" : {

                                }
                              }
,
                          "start" : 2028,
                          "duration" : 103,
                          "mediaStart" : 0,
                          "mediaDuration" : 10411,
                          "scalar" : 1,
                          "metadata" : {
                            "AutoAppliedSmartFocus" : "False",
                            "clipSpeedAttribute" : false
                          }
                        },
                        {
                          "id" : 977,
                          "_type" : "UnifiedMedia",
                          "video" : 
                              {
                                "id" : 978,
                                "_type" : "ScreenVMFile",
                                "src" : 1,
                                "trackNumber" : 0,
                                "attributes" : {
                                  "ident" : "Rec 01-28-21_001"
                                },
                                "parameters" : {
                                  "cursorScale" : {
                                    "type" : "double",
                                    "defaultValue" : 0.0,
                                    "interp" : "linr"
                                  },
                                  "cursorOpacity" : {
                                    "type" : "double",
                                    "defaultValue" : 0.0,
                                    "interp" : "linr"
                                  }
                                },
                                "effects" : [

                                ],
                                "start" : 2131,
                                "duration" : 26,
                                "mediaStart" : 3468,
                                "mediaDuration" : 26,
                                "scalar" : 1,
                                "animationTracks" : {

                                }
                              },
                          "audio" : 
                              {
                                "id" : 979,
                                "_type" : "AMFile",
                                "src" : 1,
                                "trackNumber" : 1,
                                "attributes" : {
                                  "ident" : "",
                                  "gain" : 1.0,
                                  "mixToMono" : false
                                },
                                  "channelNumber" : "0,1",
                                "effects" : [

                                ],
                                "start" : 2131,
                                "duration" : 26,
                                "mediaStart" : 3468,
                                "mediaDuration" : 26,
                                "scalar" : 1,
                                "animationTracks" : {

                                }
                              }
,
                          "start" : 2131,
                          "duration" : 26,
                          "mediaStart" : 0,
                          "mediaDuration" : 10411,
                          "scalar" : 1,
                          "metadata" : {
                            "AutoAppliedSmartFocus" : "False",
                            "clipSpeedAttribute" : false
                          }
                        },
                        {
                          "id" : 980,
                          "_type" : "UnifiedMedia",
                          "video" : 
                              {
                                "id" : 981,
                                "_type" : "ScreenVMFile",
                                "src" : 1,
                                "trackNumber" : 0,
                                "attributes" : {
                                  "ident" : "Rec 01-28-21_001"
                                },
                                "parameters" : {
                                  "cursorScale" : {
                                    "type" : "double",
                                    "defaultValue" : 0.0,
                                    "interp" : "linr"
                                  },
                                  "cursorOpacity" : {
                                    "type" : "double",
                                    "defaultValue" : 0.0,
                                    "interp" : "linr"
                                  }
                                },
                                "effects" : [

                                ],
                                "start" : 2157,
                                "duration" : 41,
                                "mediaStart" : 3504,
                                "mediaDuration" : 41,
                                "scalar" : 1,
                                "animationTracks" : {

                                }
                              },
                          "audio" : 
                              {
                                "id" : 982,
                                "_type" : "AMFile",
                                "src" : 1,
                                "trackNumber" : 1,
                                "attributes" : {
                                  "ident" : "",
                                  "gain" : 1.0,
                                  "mixToMono" : false
                                },
                                  "channelNumber" : "0,1",
                                "effects" : [

                                ],
                                "start" : 2157,
                                "duration" : 41,
                                "mediaStart" : 3504,
                                "mediaDuration" : 41,
                                "scalar" : 1,
                                "animationTracks" : {

                                }
                              }
,
                          "start" : 2157,
                          "duration" : 41,
                          "mediaStart" : 0,
                          "mediaDuration" : 10411,
                          "scalar" : 1,
                          "metadata" : {
                            "AutoAppliedSmartFocus" : "False",
                            "clipSpeedAttribute" : false
                          }
                        },
                        {
                          "id" : 983,
                          "_type" : "UnifiedMedia",
                          "video" : 
                              {
                                "id" : 984,
                                "_type" : "ScreenVMFile",
                                "src" : 1,
                                "trackNumber" : 0,
                                "attributes" : {
                                  "ident" : "Rec 01-28-21_001"
                                },
                                "parameters" : {
                                  "cursorScale" : {
                                    "type" : "double",
                                    "defaultValue" : 0.0,
                                    "interp" : "linr"
                                  },
                                  "cursorOpacity" : {
                                    "type" : "double",
                                    "defaultValue" : 0.0,
                                    "interp" : "linr"
                                  }
                                },
                                "effects" : [

                                ],
                                "start" : 2198,
                                "duration" : 108,
                                "mediaStart" : 3657,
                                "mediaDuration" : 108,
                                "scalar" : 1,
                                "animationTracks" : {

                                }
                              },
                          "audio" : 
                              {
                                "id" : 985,
                                "_type" : "AMFile",
                                "src" : 1,
                                "trackNumber" : 1,
                                "attributes" : {
                                  "ident" : "",
                                  "gain" : 1.0,
                                  "mixToMono" : false
                                },
                                  "channelNumber" : "0,1",
                                "effects" : [

                                ],
                                "start" : 2198,
                                "duration" : 108,
                                "mediaStart" : 3657,
                                "mediaDuration" : 108,
                                "scalar" : 1,
                                "animationTracks" : {

                                }
                              }
,
                          "start" : 2198,
                          "duration" : 108,
                          "mediaStart" : 0,
                          "mediaDuration" : 10411,
                          "scalar" : 1,
                          "metadata" : {
                            "AutoAppliedSmartFocus" : "False",
                            "clipSpeedAttribute" : false
                          }
                        },
                        {
                          "id" : 986,
                          "_type" : "UnifiedMedia",
                          "video" : 
                              {
                                "id" : 987,
                                "_type" : "ScreenVMFile",
                                "src" : 1,
                                "trackNumber" : 0,
                                "attributes" : {
                                  "ident" : "Rec 01-28-21_001"
                                },
                                "parameters" : {
                                  "cursorScale" : {
                                    "type" : "double",
                                    "defaultValue" : 0.0,
                                    "interp" : "linr"
                                  },
                                  "cursorOpacity" : {
                                    "type" : "double",
                                    "defaultValue" : 0.0,
                                    "interp" : "linr"
                                  }
                                },
                                "effects" : [

                                ],
                                "start" : 2306,
                                "duration" : 124,
                                "mediaStart" : 3787,
                                "mediaDuration" : 124,
                                "scalar" : 1,
                                "animationTracks" : {

                                }
                              },
                          "audio" : 
                              {
                                "id" : 988,
                                "_type" : "AMFile",
                                "src" : 1,
                                "trackNumber" : 1,
                                "attributes" : {
                                  "ident" : "",
                                  "gain" : 1.0,
                                  "mixToMono" : false
                                },
                                  "channelNumber" : "0,1",
                                "effects" : [

                                ],
                                "start" : 2306,
                                "duration" : 124,
                                "mediaStart" : 3787,
                                "mediaDuration" : 124,
                                "scalar" : 1,
                                "animationTracks" : {

                                }
                              }
,
                          "start" : 2306,
                          "duration" : 124,
                          "mediaStart" : 0,
                          "mediaDuration" : 10411,
                          "scalar" : 1,
                          "metadata" : {
                            "AutoAppliedSmartFocus" : "False",
                            "clipSpeedAttribute" : false
                          }
                        },
                        {
                          "id" : 989,
                          "_type" : "UnifiedMedia",
                          "video" : 
                              {
                                "id" : 990,
                                "_type" : "ScreenVMFile",
                                "src" : 1,
                                "trackNumber" : 0,
                                "attributes" : {
                                  "ident" : "Rec 01-28-21_001"
                                },
                                "parameters" : {
                                  "cursorScale" : {
                                    "type" : "double",
                                    "defaultValue" : 0.0,
                                    "interp" : "linr"
                                  },
                                  "cursorOpacity" : {
                                    "type" : "double",
                                    "defaultValue" : 0.0,
                                    "interp" : "linr"
                                  }
                                },
                                "effects" : [

                                ],
                                "start" : 2430,
                                "duration" : 282,
                                "mediaStart" : 3991,
                                "mediaDuration" : 282,
                                "scalar" : 1,
                                "animationTracks" : {

                                }
                              },
                          "audio" : 
                              {
                                "id" : 991,
                                "_type" : "AMFile",
                                "src" : 1,
                                "trackNumber" : 1,
                                "attributes" : {
                                  "ident" : "",
                                  "gain" : 1.0,
                                  "mixToMono" : false
                                },
                                  "channelNumber" : "0,1",
                                "effects" : [

                                ],
                                "start" : 2430,
                                "duration" : 282,
                                "mediaStart" : 3991,
                                "mediaDuration" : 282,
                                "scalar" : 1,
                                "animationTracks" : {

                                }
                              }
,
                          "start" : 2430,
                          "duration" : 282,
                          "mediaStart" : 0,
                          "mediaDuration" : 10411,
                          "scalar" : 1,
                          "metadata" : {
                            "AutoAppliedSmartFocus" : "False",
                            "clipSpeedAttribute" : false
                          }
                        },
                        {
                          "id" : 992,
                          "_type" : "UnifiedMedia",
                          "video" : 
                              {
                                "id" : 993,
                                "_type" : "ScreenVMFile",
                                "src" : 1,
                                "trackNumber" : 0,
                                "attributes" : {
                                  "ident" : "Rec 01-28-21_001"
                                },
                                "parameters" : {
                                  "cursorScale" : {
                                    "type" : "double",
                                    "defaultValue" : 0.0,
                                    "interp" : "linr"
                                  },
                                  "cursorOpacity" : {
                                    "type" : "double",
                                    "defaultValue" : 0.0,
                                    "interp" : "linr"
                                  }
                                },
                                "effects" : [

                                ],
                                "start" : 2712,
                                "duration" : 205,
                                "mediaStart" : 4397,
                                "mediaDuration" : 205,
                                "scalar" : 1,
                                "animationTracks" : {

                                }
                              },
                          "audio" : 
                              {
                                "id" : 994,
                                "_type" : "AMFile",
                                "src" : 1,
                                "trackNumber" : 1,
                                "attributes" : {
                                  "ident" : "",
                                  "gain" : 1.0,
                                  "mixToMono" : false
                                },
                                  "channelNumber" : "0,1",
                                "effects" : [

                                ],
                                "start" : 2712,
                                "duration" : 205,
                                "mediaStart" : 4397,
                                "mediaDuration" : 205,
                                "scalar" : 1,
                                "animationTracks" : {

                                }
                              }
,
                          "start" : 2712,
                          "duration" : 205,
                          "mediaStart" : 0,
                          "mediaDuration" : 10411,
                          "scalar" : 1,
                          "metadata" : {
                            "AutoAppliedSmartFocus" : "False",
                            "clipSpeedAttribute" : false
                          }
                        },
                        {
                          "id" : 995,
                          "_type" : "UnifiedMedia",
                          "video" : 
                              {
                                "id" : 996,
                                "_type" : "ScreenVMFile",
                                "src" : 1,
                                "trackNumber" : 0,
                                "attributes" : {
                                  "ident" : "Rec 01-28-21_001"
                                },
                                "parameters" : {
                                  "cursorScale" : {
                                    "type" : "double",
                                    "defaultValue" : 0.0,
                                    "interp" : "linr"
                                  },
                                  "cursorOpacity" : {
                                    "type" : "double",
                                    "defaultValue" : 0.0,
                                    "interp" : "linr"
                                  }
                                },
                                "effects" : [

                                ],
                                "start" : 2917,
                                "duration" : 61,
                                "mediaStart" : 4960,
                                "mediaDuration" : 61,
                                "scalar" : 1,
                                "animationTracks" : {

                                }
                              },
                          "audio" : 
                              {
                                "id" : 997,
                                "_type" : "AMFile",
                                "src" : 1,
                                "trackNumber" : 1,
                                "attributes" : {
                                  "ident" : "",
                                  "gain" : 1.0,
                                  "mixToMono" : false
                                },
                                  "channelNumber" : "0,1",
                                "effects" : [

                                ],
                                "start" : 2917,
                                "duration" : 61,
                                "mediaStart" : 4960,
                                "mediaDuration" : 61,
                                "scalar" : 1,
                                "animationTracks" : {

                                }
                              }
,
                          "start" : 2917,
                          "duration" : 61,
                          "mediaStart" : 0,
                          "mediaDuration" : 10411,
                          "scalar" : 1,
                          "metadata" : {
                            "AutoAppliedSmartFocus" : "False",
                            "clipSpeedAttribute" : false
                          }
                        },
                        {
                          "id" : 998,
                          "_type" : "UnifiedMedia",
                          "video" : 
                              {
                                "id" : 999,
                                "_type" : "ScreenVMFile",
                                "src" : 1,
                                "trackNumber" : 0,
                                "attributes" : {
                                  "ident" : "Rec 01-28-21_001"
                                },
                                "parameters" : {
                                  "cursorScale" : {
                                    "type" : "double",
                                    "defaultValue" : 0.0,
                                    "interp" : "linr"
                                  },
                                  "cursorOpacity" : {
                                    "type" : "double",
                                    "defaultValue" : 0.0,
                                    "interp" : "linr"
                                  }
                                },
                                "effects" : [

                                ],
                                "start" : 2978,
                                "duration" : 172,
                                "mediaStart" : 5035,
                                "mediaDuration" : 172,
                                "scalar" : 1,
                                "animationTracks" : {

                                }
                              },
                          "audio" : 
                              {
                                "id" : 1000,
                                "_type" : "AMFile",
                                "src" : 1,
                                "trackNumber" : 1,
                                "attributes" : {
                                  "ident" : "",
                                  "gain" : 1.0,
                                  "mixToMono" : false
                                },
                                  "channelNumber" : "0,1",
                                "effects" : [

                                ],
                                "start" : 2978,
                                "duration" : 172,
                                "mediaStart" : 5035,
                                "mediaDuration" : 172,
                                "scalar" : 1,
                                "animationTracks" : {

                                }
                              }
,
                          "start" : 2978,
                          "duration" : 172,
                          "mediaStart" : 0,
                          "mediaDuration" : 10411,
                          "scalar" : 1,
                          "metadata" : {
                            "AutoAppliedSmartFocus" : "False",
                            "clipSpeedAttribute" : false
                          }
                        },
                        {
                          "id" : 1001,
                          "_type" : "UnifiedMedia",
                          "video" : 
                              {
                                "id" : 1002,
                                "_type" : "ScreenVMFile",
                                "src" : 1,
                                "trackNumber" : 0,
                                "attributes" : {
                                  "ident" : "Rec 01-28-21_001"
                                },
                                "parameters" : {
                                  "cursorScale" : {
                                    "type" : "double",
                                    "defaultValue" : 0.0,
                                    "interp" : "linr"
                                  },
                                  "cursorOpacity" : {
                                    "type" : "double",
                                    "defaultValue" : 0.0,
                                    "interp" : "linr"
                                  }
                                },
                                "effects" : [

                                ],
                                "start" : 3150,
                                "duration" : 199,
                                "mediaStart" : 5255,
                                "mediaDuration" : 199,
                                "scalar" : 1,
                                "animationTracks" : {

                                }
                              },
                          "audio" : 
                              {
                                "id" : 1003,
                                "_type" : "AMFile",
                                "src" : 1,
                                "trackNumber" : 1,
                                "attributes" : {
                                  "ident" : "",
                                  "gain" : 1.0,
                                  "mixToMono" : false
                                },
                                  "channelNumber" : "0,1",
                                "effects" : [

                                ],
                                "start" : 3150,
                                "duration" : 199,
                                "mediaStart" : 5255,
                                "mediaDuration" : 199,
                                "scalar" : 1,
                                "animationTracks" : {

                                }
                              }
,
                          "start" : 3150,
                          "duration" : 199,
                          "mediaStart" : 0,
                          "mediaDuration" : 10411,
                          "scalar" : 1,
                          "metadata" : {
                            "AutoAppliedSmartFocus" : "False",
                            "clipSpeedAttribute" : false
                          }
                        },
                        {
                          "id" : 1004,
                          "_type" : "UnifiedMedia",
                          "video" : 
                              {
                                "id" : 1005,
                                "_type" : "ScreenVMFile",
                                "src" : 1,
                                "trackNumber" : 0,
                                "attributes" : {
                                  "ident" : "Rec 01-28-21_001"
                                },
                                "parameters" : {
                                  "cursorScale" : {
                                    "type" : "double",
                                    "defaultValue" : 0.0,
                                    "interp" : "linr"
                                  },
                                  "cursorOpacity" : {
                                    "type" : "double",
                                    "defaultValue" : 0.0,
                                    "interp" : "linr"
                                  }
                                },
                                "effects" : [

                                ],
                                "start" : 3349,
                                "duration" : 150,
                                "mediaStart" : 5507,
                                "mediaDuration" : 150,
                                "scalar" : 1,
                                "animationTracks" : {

                                }
                              },
                          "audio" : 
                              {
                                "id" : 1006,
                                "_type" : "AMFile",
                                "src" : 1,
                                "trackNumber" : 1,
                                "attributes" : {
                                  "ident" : "",
                                  "gain" : 1.0,
                                  "mixToMono" : false
                                },
                                  "channelNumber" : "0,1",
                                "effects" : [

                                ],
                                "start" : 3349,
                                "duration" : 150,
                                "mediaStart" : 5507,
                                "mediaDuration" : 150,
                                "scalar" : 1,
                                "animationTracks" : {

                                }
                              }
,
                          "start" : 3349,
                          "duration" : 150,
                          "mediaStart" : 0,
                          "mediaDuration" : 10411,
                          "scalar" : 1,
                          "metadata" : {
                            "AutoAppliedSmartFocus" : "False",
                            "clipSpeedAttribute" : false
                          }
                        },
                        {
                          "id" : 1007,
                          "_type" : "UnifiedMedia",
                          "video" : 
                              {
                                "id" : 1008,
                                "_type" : "ScreenVMFile",
                                "src" : 1,
                                "trackNumber" : 0,
                                "attributes" : {
                                  "ident" : "Rec 01-28-21_001"
                                },
                                "parameters" : {
                                  "cursorScale" : {
                                    "type" : "double",
                                    "defaultValue" : 0.0,
                                    "interp" : "linr"
                                  },
                                  "cursorOpacity" : {
                                    "type" : "double",
                                    "defaultValue" : 0.0,
                                    "interp" : "linr"
                                  }
                                },
                                "effects" : [

                                ],
                                "start" : 3499,
                                "duration" : 336,
                                "mediaStart" : 6158,
                                "mediaDuration" : 336,
                                "scalar" : 1,
                                "animationTracks" : {

                                }
                              },
                          "audio" : 
                              {
                                "id" : 1009,
                                "_type" : "AMFile",
                                "src" : 1,
                                "trackNumber" : 1,
                                "attributes" : {
                                  "ident" : "",
                                  "gain" : 1.0,
                                  "mixToMono" : false
                                },
                                  "channelNumber" : "0,1",
                                "effects" : [

                                ],
                                "start" : 3499,
                                "duration" : 336,
                                "mediaStart" : 6158,
                                "mediaDuration" : 336,
                                "scalar" : 1,
                                "animationTracks" : {

                                }
                              }
,
                          "start" : 3499,
                          "duration" : 336,
                          "mediaStart" : 0,
                          "mediaDuration" : 10411,
                          "scalar" : 1,
                          "metadata" : {
                            "AutoAppliedSmartFocus" : "False",
                            "clipSpeedAttribute" : false
                          }
                        },
                        {
                          "id" : 1010,
                          "_type" : "UnifiedMedia",
                          "video" : 
                              {
                                "id" : 1011,
                                "_type" : "ScreenVMFile",
                                "src" : 1,
                                "trackNumber" : 0,
                                "attributes" : {
                                  "ident" : "Rec 01-28-21_001"
                                },
                                "parameters" : {
                                  "cursorScale" : {
                                    "type" : "double",
                                    "defaultValue" : 0.0,
                                    "interp" : "linr"
                                  },
                                  "cursorOpacity" : {
                                    "type" : "double",
                                    "defaultValue" : 0.0,
                                    "interp" : "linr"
                                  }
                                },
                                "effects" : [

                                ],
                                "start" : 3835,
                                "duration" : 73,
                                "mediaStart" : 6577,
                                "mediaDuration" : 73,
                                "scalar" : 1,
                                "animationTracks" : {

                                }
                              },
                          "audio" : 
                              {
                                "id" : 1012,
                                "_type" : "AMFile",
                                "src" : 1,
                                "trackNumber" : 1,
                                "attributes" : {
                                  "ident" : "",
                                  "gain" : 1.0,
                                  "mixToMono" : false
                                },
                                  "channelNumber" : "0,1",
                                "effects" : [

                                ],
                                "start" : 3835,
                                "duration" : 73,
                                "mediaStart" : 6577,
                                "mediaDuration" : 73,
                                "scalar" : 1,
                                "animationTracks" : {

                                }
                              }
,
                          "start" : 3835,
                          "duration" : 73,
                          "mediaStart" : 0,
                          "mediaDuration" : 10411,
                          "scalar" : 1,
                          "metadata" : {
                            "AutoAppliedSmartFocus" : "False",
                            "clipSpeedAttribute" : false
                          }
                        },
                        {
                          "id" : 1013,
                          "_type" : "UnifiedMedia",
                          "video" : 
                              {
                                "id" : 1014,
                                "_type" : "ScreenVMFile",
                                "src" : 1,
                                "trackNumber" : 0,
                                "attributes" : {
                                  "ident" : "Rec 01-28-21_001"
                                },
                                "parameters" : {
                                  "cursorScale" : {
                                    "type" : "double",
                                    "defaultValue" : 0.0,
                                    "interp" : "linr"
                                  },
                                  "cursorOpacity" : {
                                    "type" : "double",
                                    "defaultValue" : 0.0,
                                    "interp" : "linr"
                                  }
                                },
                                "effects" : [

                                ],
                                "start" : 3908,
                                "duration" : 401,
                                "mediaStart" : 6679,
                                "mediaDuration" : 401,
                                "scalar" : 1,
                                "animationTracks" : {

                                }
                              },
                          "audio" : 
                              {
                                "id" : 1015,
                                "_type" : "AMFile",
                                "src" : 1,
                                "trackNumber" : 1,
                                "attributes" : {
                                  "ident" : "",
                                  "gain" : 1.0,
                                  "mixToMono" : false
                                },
                                  "channelNumber" : "0,1",
                                "effects" : [

                                ],
                                "start" : 3908,
                                "duration" : 401,
                                "mediaStart" : 6679,
                                "mediaDuration" : 401,
                                "scalar" : 1,
                                "animationTracks" : {

                                }
                              }
,
                          "start" : 3908,
                          "duration" : 401,
                          "mediaStart" : 0,
                          "mediaDuration" : 10411,
                          "scalar" : 1,
                          "metadata" : {
                            "AutoAppliedSmartFocus" : "False",
                            "clipSpeedAttribute" : false
                          }
                        },
                        {
                          "id" : 1016,
                          "_type" : "UnifiedMedia",
                          "video" : 
                              {
                                "id" : 1017,
                                "_type" : "ScreenVMFile",
                                "src" : 1,
                                "trackNumber" : 0,
                                "attributes" : {
                                  "ident" : "Rec 01-28-21_001"
                                },
                                "parameters" : {
                                  "cursorScale" : {
                                    "type" : "double",
                                    "defaultValue" : 0.0,
                                    "interp" : "linr"
                                  },
                                  "cursorOpacity" : {
                                    "type" : "double",
                                    "defaultValue" : 0.0,
                                    "interp" : "linr"
                                  }
                                },
                                "effects" : [

                                ],
                                "start" : 4309,
                                "duration" : 98,
                                "mediaStart" : 7143,
                                "mediaDuration" : 98,
                                "scalar" : 1,
                                "animationTracks" : {

                                }
                              },
                          "audio" : 
                              {
                                "id" : 1018,
                                "_type" : "AMFile",
                                "src" : 1,
                                "trackNumber" : 1,
                                "attributes" : {
                                  "ident" : "",
                                  "gain" : 1.0,
                                  "mixToMono" : false
                                },
                                  "channelNumber" : "0,1",
                                "effects" : [

                                ],
                                "start" : 4309,
                                "duration" : 98,
                                "mediaStart" : 7143,
                                "mediaDuration" : 98,
                                "scalar" : 1,
                                "animationTracks" : {

                                }
                              }
,
                          "start" : 4309,
                          "duration" : 98,
                          "mediaStart" : 0,
                          "mediaDuration" : 10411,
                          "scalar" : 1,
                          "metadata" : {
                            "AutoAppliedSmartFocus" : "False",
                            "clipSpeedAttribute" : false
                          }
                        },
                        {
                          "id" : 1019,
                          "_type" : "UnifiedMedia",
                          "video" : 
                              {
                                "id" : 1020,
                                "_type" : "ScreenVMFile",
                                "src" : 1,
                                "trackNumber" : 0,
                                "attributes" : {
                                  "ident" : "Rec 01-28-21_001"
                                },
                                "parameters" : {
                                  "cursorScale" : {
                                    "type" : "double",
                                    "defaultValue" : 0.0,
                                    "interp" : "linr"
                                  },
                                  "cursorOpacity" : {
                                    "type" : "double",
                                    "defaultValue" : 0.0,
                                    "interp" : "linr"
                                  }
                                },
                                "effects" : [

                                ],
                                "start" : 4407,
                                "duration" : 108,
                                "mediaStart" : 7264,
                                "mediaDuration" : 108,
                                "scalar" : 1,
                                "animationTracks" : {

                                }
                              },
                          "audio" : 
                              {
                                "id" : 1021,
                                "_type" : "AMFile",
                                "src" : 1,
                                "trackNumber" : 1,
                                "attributes" : {
                                  "ident" : "",
                                  "gain" : 1.0,
                                  "mixToMono" : false
                                },
                                  "channelNumber" : "0,1",
                                "effects" : [

                                ],
                                "start" : 4407,
                                "duration" : 108,
                                "mediaStart" : 7264,
                                "mediaDuration" : 108,
                                "scalar" : 1,
                                "animationTracks" : {

                                }
                              }
,
                          "start" : 4407,
                          "duration" : 108,
                          "mediaStart" : 0,
                          "mediaDuration" : 10411,
                          "scalar" : 1,
                          "metadata" : {
                            "AutoAppliedSmartFocus" : "False",
                            "clipSpeedAttribute" : false
                          }
                        },
                        {
                          "id" : 1022,
                          "_type" : "UnifiedMedia",
                          "video" : 
                              {
                                "id" : 1023,
                                "_type" : "ScreenVMFile",
                                "src" : 1,
                                "trackNumber" : 0,
                                "attributes" : {
                                  "ident" : "Rec 01-28-21_001"
                                },
                                "parameters" : {
                                  "cursorScale" : {
                                    "type" : "double",
                                    "defaultValue" : 0.0,
                                    "interp" : "linr"
                                  },
                                  "cursorOpacity" : {
                                    "type" : "double",
                                    "defaultValue" : 0.0,
                                    "interp" : "linr"
                                  }
                                },
                                "effects" : [

                                ],
                                "start" : 4515,
                                "duration" : 66,
                                "mediaStart" : 7571,
                                "mediaDuration" : 66,
                                "scalar" : 1,
                                "animationTracks" : {

                                }
                              },
                          "audio" : 
                              {
                                "id" : 1024,
                                "_type" : "AMFile",
                                "src" : 1,
                                "trackNumber" : 1,
                                "attributes" : {
                                  "ident" : "",
                                  "gain" : 1.0,
                                  "mixToMono" : false
                                },
                                  "channelNumber" : "0,1",
                                "effects" : [

                                ],
                                "start" : 4515,
                                "duration" : 66,
                                "mediaStart" : 7571,
                                "mediaDuration" : 66,
                                "scalar" : 1,
                                "animationTracks" : {

                                }
                              }
,
                          "start" : 4515,
                          "duration" : 66,
                          "mediaStart" : 0,
                          "mediaDuration" : 10411,
                          "scalar" : 1,
                          "metadata" : {
                            "AutoAppliedSmartFocus" : "False",
                            "clipSpeedAttribute" : false
                          }
                        },
                        {
                          "id" : 1025,
                          "_type" : "UnifiedMedia",
                          "video" : 
                              {
                                "id" : 1026,
                                "_type" : "ScreenVMFile",
                                "src" : 1,
                                "trackNumber" : 0,
                                "attributes" : {
                                  "ident" : "Rec 01-28-21_001"
                                },
                                "parameters" : {
                                  "cursorScale" : {
                                    "type" : "double",
                                    "defaultValue" : 0.0,
                                    "interp" : "linr"
                                  },
                                  "cursorOpacity" : {
                                    "type" : "double",
                                    "defaultValue" : 0.0,
                                    "interp" : "linr"
                                  }
                                },
                                "effects" : [

                                ],
                                "start" : 4581,
                                "duration" : 19,
                                "mediaStart" : 7670,
                                "mediaDuration" : 19,
                                "scalar" : 1,
                                "animationTracks" : {

                                }
                              },
                          "audio" : 
                              {
                                "id" : 1027,
                                "_type" : "AMFile",
                                "src" : 1,
                                "trackNumber" : 1,
                                "attributes" : {
                                  "ident" : "",
                                  "gain" : 1.0,
                                  "mixToMono" : false
                                },
                                  "channelNumber" : "0,1",
                                "effects" : [

                                ],
                                "start" : 4581,
                                "duration" : 19,
                                "mediaStart" : 7670,
                                "mediaDuration" : 19,
                                "scalar" : 1,
                                "animationTracks" : {

                                }
                              }
,
                          "start" : 4581,
                          "duration" : 19,
                          "mediaStart" : 0,
                          "mediaDuration" : 10411,
                          "scalar" : 1,
                          "metadata" : {
                            "AutoAppliedSmartFocus" : "False",
                            "clipSpeedAttribute" : false
                          }
                        },
                        {
                          "id" : 1028,
                          "_type" : "UnifiedMedia",
                          "video" : 
                              {
                                "id" : 1029,
                                "_type" : "ScreenVMFile",
                                "src" : 1,
                                "trackNumber" : 0,
                                "attributes" : {
                                  "ident" : "Rec 01-28-21_001"
                                },
                                "parameters" : {
                                  "cursorScale" : {
                                    "type" : "double",
                                    "defaultValue" : 0.0,
                                    "interp" : "linr"
                                  },
                                  "cursorOpacity" : {
                                    "type" : "double",
                                    "defaultValue" : 0.0,
                                    "interp" : "linr"
                                  }
                                },
                                "effects" : [

                                ],
                                "start" : 4600,
                                "duration" : 2440,
                                "mediaStart" : 7971,
                                "mediaDuration" : 2440,
                                "scalar" : 1,
                                "animationTracks" : {

                                }
                              },
                          "audio" : 
                              {
                                "id" : 1030,
                                "_type" : "AMFile",
                                "src" : 1,
                                "trackNumber" : 1,
                                "attributes" : {
                                  "ident" : "",
                                  "gain" : 1.0,
                                  "mixToMono" : false
                                },
                                  "channelNumber" : "0,1",
                                "effects" : [

                                ],
                                "start" : 4600,
                                "duration" : 2440,
                                "mediaStart" : 7971,
                                "mediaDuration" : 2440,
                                "scalar" : 1,
                                "animationTracks" : {

                                }
                              }
,
                          "start" : 4600,
                          "duration" : 2440,
                          "mediaStart" : 0,
                          "mediaDuration" : 10411,
                          "scalar" : 1,
                          "metadata" : {
                            "AutoAppliedSmartFocus" : "False",
                            "clipSpeedAttribute" : false
                          }
                        }
                    ],
                    "effects" : [

                    ],
                    "start" : 4059,
                    "duration" : 482,
                    "mediaStart" : 4284,
                    "mediaDuration" : 482,
                    "scalar" : 1,
                    "metadata" : {
                      "AutoAppliedSmartFocus" : "False",
                      "clipSpeedAttribute" : false
                    },
                    "animationTracks" : {

                    }
                  },
                  {
                    "id" : 1031,
                    "_type" : "Group",
                    "parameters" : {
                      "volume" : 1.0
                    },
                    "tracks" : [
                      {
                        "trackIndex" : 0,
                        "medias" : [
                          {
                            "id" : 1032,
                            "_type" : "StitchedMedia",
                            "minMediaStart" : 0,
                            "attributes" : {
                              "ident" : "Rec 01-28-21_001",
                              "gain" : 1.0,
                              "mixToMono" : false
                            },
                            "parameters" : {
                              "cursorOpacity" : 1.0,
                              "cursorScale" : 1.0
                            },
                            "medias" : [
                                {
                                  "id" : 1033,
                                  "_type" : "ScreenVMFile",
                                  "src" : 1,
                                  "trackNumber" : 0,
                                  "attributes" : {
                                    "ident" : "Rec 01-28-21_001"
                                  },
                                  "parameters" : {
                                    "cursorScale" : {
                                      "type" : "double",
                                      "defaultValue" : 0.0,
                                      "interp" : "linr"
                                    },
                                    "cursorOpacity" : {
                                      "type" : "double",
                                      "defaultValue" : 0.0,
                                      "interp" : "linr"
                                    }
                                  },
                                  "effects" : [

                                  ],
                                  "start" : 0,
                                  "duration" : 18,
                                  "mediaStart" : 0,
                                  "mediaDuration" : 18,
                                  "scalar" : 1,
                                  "metadata" : {
                                    "AutoAppliedSmartFocus" : "False"
                                  },
                                  "animationTracks" : {

                                  }
                                },
                                {
                                  "id" : 1034,
                                  "_type" : "ScreenVMFile",
                                  "src" : 1,
                                  "trackNumber" : 0,
                                  "attributes" : {
                                    "ident" : "Rec 01-28-21_001"
                                  },
                                  "parameters" : {
                                    "cursorScale" : {
                                      "type" : "double",
                                      "defaultValue" : 0.0,
                                      "interp" : "linr"
                                    },
                                    "cursorOpacity" : {
                                      "type" : "double",
                                      "defaultValue" : 0.0,
                                      "interp" : "linr"
                                    }
                                  },
                                  "effects" : [

                                  ],
                                  "start" : 18,
                                  "duration" : 286,
                                  "mediaStart" : 55,
                                  "mediaDuration" : 286,
                                  "scalar" : 1,
                                  "metadata" : {
                                    "AutoAppliedSmartFocus" : "False"
                                  },
                                  "animationTracks" : {

                                  }
                                },
                                {
                                  "id" : 1035,
                                  "_type" : "ScreenVMFile",
                                  "src" : 1,
                                  "trackNumber" : 0,
                                  "attributes" : {
                                    "ident" : "Rec 01-28-21_001"
                                  },
                                  "parameters" : {
                                    "cursorScale" : {
                                      "type" : "double",
                                      "defaultValue" : 0.0,
                                      "interp" : "linr"
                                    },
                                    "cursorOpacity" : {
                                      "type" : "double",
                                      "defaultValue" : 0.0,
                                      "interp" : "linr"
                                    }
                                  },
                                  "effects" : [

                                  ],
                                  "start" : 304,
                                  "duration" : 53,
                                  "mediaStart" : 367,
                                  "mediaDuration" : 53,
                                  "scalar" : 1,
                                  "metadata" : {
                                    "AutoAppliedSmartFocus" : "False"
                                  },
                                  "animationTracks" : {

                                  }
                                },
                                {
                                  "id" : 1036,
                                  "_type" : "ScreenVMFile",
                                  "src" : 1,
                                  "trackNumber" : 0,
                                  "attributes" : {
                                    "ident" : "Rec 01-28-21_001"
                                  },
                                  "parameters" : {
                                    "cursorScale" : {
                                      "type" : "double",
                                      "defaultValue" : 0.0,
                                      "interp" : "linr"
                                    },
                                    "cursorOpacity" : {
                                      "type" : "double",
                                      "defaultValue" : 0.0,
                                      "interp" : "linr"
                                    }
                                  },
                                  "effects" : [

                                  ],
                                  "start" : 357,
                                  "duration" : 59,
                                  "mediaStart" : 477,
                                  "mediaDuration" : 59,
                                  "scalar" : 1,
                                  "metadata" : {
                                    "AutoAppliedSmartFocus" : "False"
                                  },
                                  "animationTracks" : {

                                  }
                                },
                                {
                                  "id" : 1037,
                                  "_type" : "ScreenVMFile",
                                  "src" : 1,
                                  "trackNumber" : 0,
                                  "attributes" : {
                                    "ident" : "Rec 01-28-21_001"
                                  },
                                  "parameters" : {
                                    "cursorScale" : {
                                      "type" : "double",
                                      "defaultValue" : 0.0,
                                      "interp" : "linr"
                                    },
                                    "cursorOpacity" : {
                                      "type" : "double",
                                      "defaultValue" : 0.0,
                                      "interp" : "linr"
                                    }
                                  },
                                  "effects" : [

                                  ],
                                  "start" : 416,
                                  "duration" : 42,
                                  "mediaStart" : 590,
                                  "mediaDuration" : 42,
                                  "scalar" : 1,
                                  "metadata" : {
                                    "AutoAppliedSmartFocus" : "False"
                                  },
                                  "animationTracks" : {

                                  }
                                },
                                {
                                  "id" : 1038,
                                  "_type" : "ScreenVMFile",
                                  "src" : 1,
                                  "trackNumber" : 0,
                                  "attributes" : {
                                    "ident" : "Rec 01-28-21_001"
                                  },
                                  "parameters" : {
                                    "cursorScale" : {
                                      "type" : "double",
                                      "defaultValue" : 0.0,
                                      "interp" : "linr"
                                    },
                                    "cursorOpacity" : {
                                      "type" : "double",
                                      "defaultValue" : 0.0,
                                      "interp" : "linr"
                                    }
                                  },
                                  "effects" : [

                                  ],
                                  "start" : 458,
                                  "duration" : 22,
                                  "mediaStart" : 646,
                                  "mediaDuration" : 22,
                                  "scalar" : 1,
                                  "metadata" : {
                                    "AutoAppliedSmartFocus" : "False"
                                  },
                                  "animationTracks" : {

                                  }
                                },
                                {
                                  "id" : 1039,
                                  "_type" : "ScreenVMFile",
                                  "src" : 1,
                                  "trackNumber" : 0,
                                  "attributes" : {
                                    "ident" : "Rec 01-28-21_001"
                                  },
                                  "parameters" : {
                                    "cursorScale" : {
                                      "type" : "double",
                                      "defaultValue" : 0.0,
                                      "interp" : "linr"
                                    },
                                    "cursorOpacity" : {
                                      "type" : "double",
                                      "defaultValue" : 0.0,
                                      "interp" : "linr"
                                    }
                                  },
                                  "effects" : [

                                  ],
                                  "start" : 480,
                                  "duration" : 115,
                                  "mediaStart" : 762,
                                  "mediaDuration" : 115,
                                  "scalar" : 1,
                                  "metadata" : {
                                    "AutoAppliedSmartFocus" : "False"
                                  },
                                  "animationTracks" : {

                                  }
                                },
                                {
                                  "id" : 1040,
                                  "_type" : "ScreenVMFile",
                                  "src" : 1,
                                  "trackNumber" : 0,
                                  "attributes" : {
                                    "ident" : "Rec 01-28-21_001"
                                  },
                                  "parameters" : {
                                    "cursorScale" : {
                                      "type" : "double",
                                      "defaultValue" : 0.0,
                                      "interp" : "linr"
                                    },
                                    "cursorOpacity" : {
                                      "type" : "double",
                                      "defaultValue" : 0.0,
                                      "interp" : "linr"
                                    }
                                  },
                                  "effects" : [

                                  ],
                                  "start" : 595,
                                  "duration" : 154,
                                  "mediaStart" : 1024,
                                  "mediaDuration" : 154,
                                  "scalar" : 1,
                                  "metadata" : {
                                    "AutoAppliedSmartFocus" : "False"
                                  },
                                  "animationTracks" : {

                                  }
                                },
                                {
                                  "id" : 1041,
                                  "_type" : "ScreenVMFile",
                                  "src" : 1,
                                  "trackNumber" : 0,
                                  "attributes" : {
                                    "ident" : "Rec 01-28-21_001"
                                  },
                                  "parameters" : {
                                    "cursorScale" : {
                                      "type" : "double",
                                      "defaultValue" : 0.0,
                                      "interp" : "linr"
                                    },
                                    "cursorOpacity" : {
                                      "type" : "double",
                                      "defaultValue" : 0.0,
                                      "interp" : "linr"
                                    }
                                  },
                                  "effects" : [

                                  ],
                                  "start" : 749,
                                  "duration" : 135,
                                  "mediaStart" : 1207,
                                  "mediaDuration" : 135,
                                  "scalar" : 1,
                                  "metadata" : {
                                    "AutoAppliedSmartFocus" : "False"
                                  },
                                  "animationTracks" : {

                                  }
                                },
                                {
                                  "id" : 1042,
                                  "_type" : "ScreenVMFile",
                                  "src" : 1,
                                  "trackNumber" : 0,
                                  "attributes" : {
                                    "ident" : "Rec 01-28-21_001"
                                  },
                                  "parameters" : {
                                    "cursorScale" : {
                                      "type" : "double",
                                      "defaultValue" : 0.0,
                                      "interp" : "linr"
                                    },
                                    "cursorOpacity" : {
                                      "type" : "double",
                                      "defaultValue" : 0.0,
                                      "interp" : "linr"
                                    }
                                  },
                                  "effects" : [

                                  ],
                                  "start" : 884,
                                  "duration" : 150,
                                  "mediaStart" : 1383,
                                  "mediaDuration" : 150,
                                  "scalar" : 1,
                                  "metadata" : {
                                    "AutoAppliedSmartFocus" : "False"
                                  },
                                  "animationTracks" : {

                                  }
                                },
                                {
                                  "id" : 1043,
                                  "_type" : "ScreenVMFile",
                                  "src" : 1,
                                  "trackNumber" : 0,
                                  "attributes" : {
                                    "ident" : "Rec 01-28-21_001"
                                  },
                                  "parameters" : {
                                    "cursorScale" : {
                                      "type" : "double",
                                      "defaultValue" : 0.0,
                                      "interp" : "linr"
                                    },
                                    "cursorOpacity" : {
                                      "type" : "double",
                                      "defaultValue" : 0.0,
                                      "interp" : "linr"
                                    }
                                  },
                                  "effects" : [

                                  ],
                                  "start" : 1034,
                                  "duration" : 89,
                                  "mediaStart" : 1607,
                                  "mediaDuration" : 89,
                                  "scalar" : 1,
                                  "metadata" : {
                                    "AutoAppliedSmartFocus" : "False"
                                  },
                                  "animationTracks" : {

                                  }
                                },
                                {
                                  "id" : 1044,
                                  "_type" : "ScreenVMFile",
                                  "src" : 1,
                                  "trackNumber" : 0,
                                  "attributes" : {
                                    "ident" : "Rec 01-28-21_001"
                                  },
                                  "parameters" : {
                                    "cursorScale" : {
                                      "type" : "double",
                                      "defaultValue" : 0.0,
                                      "interp" : "linr"
                                    },
                                    "cursorOpacity" : {
                                      "type" : "double",
                                      "defaultValue" : 0.0,
                                      "interp" : "linr"
                                    }
                                  },
                                  "effects" : [

                                  ],
                                  "start" : 1123,
                                  "duration" : 37,
                                  "mediaStart" : 1752,
                                  "mediaDuration" : 37,
                                  "scalar" : 1,
                                  "metadata" : {
                                    "AutoAppliedSmartFocus" : "False"
                                  },
                                  "animationTracks" : {

                                  }
                                },
                                {
                                  "id" : 1045,
                                  "_type" : "ScreenVMFile",
                                  "src" : 1,
                                  "trackNumber" : 0,
                                  "attributes" : {
                                    "ident" : "Rec 01-28-21_001"
                                  },
                                  "parameters" : {
                                    "cursorScale" : {
                                      "type" : "double",
                                      "defaultValue" : 0.0,
                                      "interp" : "linr"
                                    },
                                    "cursorOpacity" : {
                                      "type" : "double",
                                      "defaultValue" : 0.0,
                                      "interp" : "linr"
                                    }
                                  },
                                  "effects" : [

                                  ],
                                  "start" : 1160,
                                  "duration" : 34,
                                  "mediaStart" : 1836,
                                  "mediaDuration" : 34,
                                  "scalar" : 1,
                                  "metadata" : {
                                    "AutoAppliedSmartFocus" : "False"
                                  },
                                  "animationTracks" : {

                                  }
                                },
                                {
                                  "id" : 1046,
                                  "_type" : "ScreenVMFile",
                                  "src" : 1,
                                  "trackNumber" : 0,
                                  "attributes" : {
                                    "ident" : "Rec 01-28-21_001"
                                  },
                                  "parameters" : {
                                    "cursorScale" : {
                                      "type" : "double",
                                      "defaultValue" : 0.0,
                                      "interp" : "linr"
                                    },
                                    "cursorOpacity" : {
                                      "type" : "double",
                                      "defaultValue" : 0.0,
                                      "interp" : "linr"
                                    }
                                  },
                                  "effects" : [

                                  ],
                                  "start" : 1194,
                                  "duration" : 41,
                                  "mediaStart" : 1882,
                                  "mediaDuration" : 41,
                                  "scalar" : 1,
                                  "metadata" : {
                                    "AutoAppliedSmartFocus" : "False"
                                  },
                                  "animationTracks" : {

                                  }
                                },
                                {
                                  "id" : 1047,
                                  "_type" : "ScreenVMFile",
                                  "src" : 1,
                                  "trackNumber" : 0,
                                  "attributes" : {
                                    "ident" : "Rec 01-28-21_001"
                                  },
                                  "parameters" : {
                                    "cursorScale" : {
                                      "type" : "double",
                                      "defaultValue" : 0.0,
                                      "interp" : "linr"
                                    },
                                    "cursorOpacity" : {
                                      "type" : "double",
                                      "defaultValue" : 0.0,
                                      "interp" : "linr"
                                    }
                                  },
                                  "effects" : [

                                  ],
                                  "start" : 1235,
                                  "duration" : 41,
                                  "mediaStart" : 1948,
                                  "mediaDuration" : 41,
                                  "scalar" : 1,
                                  "metadata" : {
                                    "AutoAppliedSmartFocus" : "False"
                                  },
                                  "animationTracks" : {

                                  }
                                },
                                {
                                  "id" : 1048,
                                  "_type" : "ScreenVMFile",
                                  "src" : 1,
                                  "trackNumber" : 0,
                                  "attributes" : {
                                    "ident" : "Rec 01-28-21_001"
                                  },
                                  "parameters" : {
                                    "cursorScale" : {
                                      "type" : "double",
                                      "defaultValue" : 0.0,
                                      "interp" : "linr"
                                    },
                                    "cursorOpacity" : {
                                      "type" : "double",
                                      "defaultValue" : 0.0,
                                      "interp" : "linr"
                                    }
                                  },
                                  "effects" : [

                                  ],
                                  "start" : 1276,
                                  "duration" : 55,
                                  "mediaStart" : 2015,
                                  "mediaDuration" : 55,
                                  "scalar" : 1,
                                  "metadata" : {
                                    "AutoAppliedSmartFocus" : "False"
                                  },
                                  "animationTracks" : {

                                  }
                                },
                                {
                                  "id" : 1049,
                                  "_type" : "ScreenVMFile",
                                  "src" : 1,
                                  "trackNumber" : 0,
                                  "attributes" : {
                                    "ident" : "Rec 01-28-21_001"
                                  },
                                  "parameters" : {
                                    "cursorScale" : {
                                      "type" : "double",
                                      "defaultValue" : 0.0,
                                      "interp" : "linr"
                                    },
                                    "cursorOpacity" : {
                                      "type" : "double",
                                      "defaultValue" : 0.0,
                                      "interp" : "linr"
                                    }
                                  },
                                  "effects" : [

                                  ],
                                  "start" : 1331,
                                  "duration" : 42,
                                  "mediaStart" : 2110,
                                  "mediaDuration" : 42,
                                  "scalar" : 1,
                                  "metadata" : {
                                    "AutoAppliedSmartFocus" : "False"
                                  },
                                  "animationTracks" : {

                                  }
                                },
                                {
                                  "id" : 1050,
                                  "_type" : "ScreenVMFile",
                                  "src" : 1,
                                  "trackNumber" : 0,
                                  "attributes" : {
                                    "ident" : "Rec 01-28-21_001"
                                  },
                                  "parameters" : {
                                    "cursorScale" : {
                                      "type" : "double",
                                      "defaultValue" : 0.0,
                                      "interp" : "linr"
                                    },
                                    "cursorOpacity" : {
                                      "type" : "double",
                                      "defaultValue" : 0.0,
                                      "interp" : "linr"
                                    }
                                  },
                                  "effects" : [

                                  ],
                                  "start" : 1373,
                                  "duration" : 23,
                                  "mediaStart" : 2250,
                                  "mediaDuration" : 23,
                                  "scalar" : 1,
                                  "metadata" : {
                                    "AutoAppliedSmartFocus" : "False"
                                  },
                                  "animationTracks" : {

                                  }
                                },
                                {
                                  "id" : 1051,
                                  "_type" : "ScreenVMFile",
                                  "src" : 1,
                                  "trackNumber" : 0,
                                  "attributes" : {
                                    "ident" : "Rec 01-28-21_001"
                                  },
                                  "parameters" : {
                                    "cursorScale" : {
                                      "type" : "double",
                                      "defaultValue" : 0.0,
                                      "interp" : "linr"
                                    },
                                    "cursorOpacity" : {
                                      "type" : "double",
                                      "defaultValue" : 0.0,
                                      "interp" : "linr"
                                    }
                                  },
                                  "effects" : [

                                  ],
                                  "start" : 1396,
                                  "duration" : 79,
                                  "mediaStart" : 2299,
                                  "mediaDuration" : 79,
                                  "scalar" : 1,
                                  "metadata" : {
                                    "AutoAppliedSmartFocus" : "False"
                                  },
                                  "animationTracks" : {

                                  }
                                },
                                {
                                  "id" : 1052,
                                  "_type" : "ScreenVMFile",
                                  "src" : 1,
                                  "trackNumber" : 0,
                                  "attributes" : {
                                    "ident" : "Rec 01-28-21_001"
                                  },
                                  "parameters" : {
                                    "cursorScale" : {
                                      "type" : "double",
                                      "defaultValue" : 0.0,
                                      "interp" : "linr"
                                    },
                                    "cursorOpacity" : {
                                      "type" : "double",
                                      "defaultValue" : 0.0,
                                      "interp" : "linr"
                                    }
                                  },
                                  "effects" : [

                                  ],
                                  "start" : 1475,
                                  "duration" : 64,
                                  "mediaStart" : 2409,
                                  "mediaDuration" : 64,
                                  "scalar" : 1,
                                  "metadata" : {
                                    "AutoAppliedSmartFocus" : "False"
                                  },
                                  "animationTracks" : {

                                  }
                                },
                                {
                                  "id" : 1053,
                                  "_type" : "ScreenVMFile",
                                  "src" : 1,
                                  "trackNumber" : 0,
                                  "attributes" : {
                                    "ident" : "Rec 01-28-21_001"
                                  },
                                  "parameters" : {
                                    "cursorScale" : {
                                      "type" : "double",
                                      "defaultValue" : 0.0,
                                      "interp" : "linr"
                                    },
                                    "cursorOpacity" : {
                                      "type" : "double",
                                      "defaultValue" : 0.0,
                                      "interp" : "linr"
                                    }
                                  },
                                  "effects" : [

                                  ],
                                  "start" : 1539,
                                  "duration" : 43,
                                  "mediaStart" : 2478,
                                  "mediaDuration" : 43,
                                  "scalar" : 1,
                                  "metadata" : {
                                    "AutoAppliedSmartFocus" : "False"
                                  },
                                  "animationTracks" : {

                                  }
                                },
                                {
                                  "id" : 1054,
                                  "_type" : "ScreenVMFile",
                                  "src" : 1,
                                  "trackNumber" : 0,
                                  "attributes" : {
                                    "ident" : "Rec 01-28-21_001"
                                  },
                                  "parameters" : {
                                    "cursorScale" : {
                                      "type" : "double",
                                      "defaultValue" : 0.0,
                                      "interp" : "linr"
                                    },
                                    "cursorOpacity" : {
                                      "type" : "double",
                                      "defaultValue" : 0.0,
                                      "interp" : "linr"
                                    }
                                  },
                                  "effects" : [

                                  ],
                                  "start" : 1582,
                                  "duration" : 47,
                                  "mediaStart" : 2538,
                                  "mediaDuration" : 47,
                                  "scalar" : 1,
                                  "metadata" : {
                                    "AutoAppliedSmartFocus" : "False"
                                  },
                                  "animationTracks" : {

                                  }
                                },
                                {
                                  "id" : 1055,
                                  "_type" : "ScreenVMFile",
                                  "src" : 1,
                                  "trackNumber" : 0,
                                  "attributes" : {
                                    "ident" : "Rec 01-28-21_001"
                                  },
                                  "parameters" : {
                                    "cursorScale" : {
                                      "type" : "double",
                                      "defaultValue" : 0.0,
                                      "interp" : "linr"
                                    },
                                    "cursorOpacity" : {
                                      "type" : "double",
                                      "defaultValue" : 0.0,
                                      "interp" : "linr"
                                    }
                                  },
                                  "effects" : [

                                  ],
                                  "start" : 1629,
                                  "duration" : 299,
                                  "mediaStart" : 2613,
                                  "mediaDuration" : 299,
                                  "scalar" : 1,
                                  "metadata" : {
                                    "AutoAppliedSmartFocus" : "False"
                                  },
                                  "animationTracks" : {

                                  }
                                },
                                {
                                  "id" : 1056,
                                  "_type" : "ScreenVMFile",
                                  "src" : 1,
                                  "trackNumber" : 0,
                                  "attributes" : {
                                    "ident" : "Rec 01-28-21_001"
                                  },
                                  "parameters" : {
                                    "cursorScale" : {
                                      "type" : "double",
                                      "defaultValue" : 0.0,
                                      "interp" : "linr"
                                    },
                                    "cursorOpacity" : {
                                      "type" : "double",
                                      "defaultValue" : 0.0,
                                      "interp" : "linr"
                                    }
                                  },
                                  "effects" : [

                                  ],
                                  "start" : 1928,
                                  "duration" : 53,
                                  "mediaStart" : 3209,
                                  "mediaDuration" : 53,
                                  "scalar" : 1,
                                  "metadata" : {
                                    "AutoAppliedSmartFocus" : "False"
                                  },
                                  "animationTracks" : {

                                  }
                                },
                                {
                                  "id" : 1057,
                                  "_type" : "ScreenVMFile",
                                  "src" : 1,
                                  "trackNumber" : 0,
                                  "attributes" : {
                                    "ident" : "Rec 01-28-21_001"
                                  },
                                  "parameters" : {
                                    "cursorScale" : {
                                      "type" : "double",
                                      "defaultValue" : 0.0,
                                      "interp" : "linr"
                                    },
                                    "cursorOpacity" : {
                                      "type" : "double",
                                      "defaultValue" : 0.0,
                                      "interp" : "linr"
                                    }
                                  },
                                  "effects" : [

                                  ],
                                  "start" : 1981,
                                  "duration" : 47,
                                  "mediaStart" : 3282,
                                  "mediaDuration" : 47,
                                  "scalar" : 1,
                                  "metadata" : {
                                    "AutoAppliedSmartFocus" : "False"
                                  },
                                  "animationTracks" : {

                                  }
                                },
                                {
                                  "id" : 1058,
                                  "_type" : "ScreenVMFile",
                                  "src" : 1,
                                  "trackNumber" : 0,
                                  "attributes" : {
                                    "ident" : "Rec 01-28-21_001"
                                  },
                                  "parameters" : {
                                    "cursorScale" : {
                                      "type" : "double",
                                      "defaultValue" : 0.0,
                                      "interp" : "linr"
                                    },
                                    "cursorOpacity" : {
                                      "type" : "double",
                                      "defaultValue" : 0.0,
                                      "interp" : "linr"
                                    }
                                  },
                                  "effects" : [

                                  ],
                                  "start" : 2028,
                                  "duration" : 103,
                                  "mediaStart" : 3341,
                                  "mediaDuration" : 103,
                                  "scalar" : 1,
                                  "metadata" : {
                                    "AutoAppliedSmartFocus" : "False"
                                  },
                                  "animationTracks" : {

                                  }
                                },
                                {
                                  "id" : 1059,
                                  "_type" : "ScreenVMFile",
                                  "src" : 1,
                                  "trackNumber" : 0,
                                  "attributes" : {
                                    "ident" : "Rec 01-28-21_001"
                                  },
                                  "parameters" : {
                                    "cursorScale" : {
                                      "type" : "double",
                                      "defaultValue" : 0.0,
                                      "interp" : "linr"
                                    },
                                    "cursorOpacity" : {
                                      "type" : "double",
                                      "defaultValue" : 0.0,
                                      "interp" : "linr"
                                    }
                                  },
                                  "effects" : [

                                  ],
                                  "start" : 2131,
                                  "duration" : 26,
                                  "mediaStart" : 3468,
                                  "mediaDuration" : 26,
                                  "scalar" : 1,
                                  "metadata" : {
                                    "AutoAppliedSmartFocus" : "False"
                                  },
                                  "animationTracks" : {

                                  }
                                },
                                {
                                  "id" : 1060,
                                  "_type" : "ScreenVMFile",
                                  "src" : 1,
                                  "trackNumber" : 0,
                                  "attributes" : {
                                    "ident" : "Rec 01-28-21_001"
                                  },
                                  "parameters" : {
                                    "cursorScale" : {
                                      "type" : "double",
                                      "defaultValue" : 0.0,
                                      "interp" : "linr"
                                    },
                                    "cursorOpacity" : {
                                      "type" : "double",
                                      "defaultValue" : 0.0,
                                      "interp" : "linr"
                                    }
                                  },
                                  "effects" : [

                                  ],
                                  "start" : 2157,
                                  "duration" : 41,
                                  "mediaStart" : 3504,
                                  "mediaDuration" : 41,
                                  "scalar" : 1,
                                  "metadata" : {
                                    "AutoAppliedSmartFocus" : "False"
                                  },
                                  "animationTracks" : {

                                  }
                                },
                                {
                                  "id" : 1061,
                                  "_type" : "ScreenVMFile",
                                  "src" : 1,
                                  "trackNumber" : 0,
                                  "attributes" : {
                                    "ident" : "Rec 01-28-21_001"
                                  },
                                  "parameters" : {
                                    "cursorScale" : {
                                      "type" : "double",
                                      "defaultValue" : 0.0,
                                      "interp" : "linr"
                                    },
                                    "cursorOpacity" : {
                                      "type" : "double",
                                      "defaultValue" : 0.0,
                                      "interp" : "linr"
                                    }
                                  },
                                  "effects" : [

                                  ],
                                  "start" : 2198,
                                  "duration" : 108,
                                  "mediaStart" : 3657,
                                  "mediaDuration" : 108,
                                  "scalar" : 1,
                                  "metadata" : {
                                    "AutoAppliedSmartFocus" : "False"
                                  },
                                  "animationTracks" : {

                                  }
                                },
                                {
                                  "id" : 1062,
                                  "_type" : "ScreenVMFile",
                                  "src" : 1,
                                  "trackNumber" : 0,
                                  "attributes" : {
                                    "ident" : "Rec 01-28-21_001"
                                  },
                                  "parameters" : {
                                    "cursorScale" : {
                                      "type" : "double",
                                      "defaultValue" : 0.0,
                                      "interp" : "linr"
                                    },
                                    "cursorOpacity" : {
                                      "type" : "double",
                                      "defaultValue" : 0.0,
                                      "interp" : "linr"
                                    }
                                  },
                                  "effects" : [

                                  ],
                                  "start" : 2306,
                                  "duration" : 124,
                                  "mediaStart" : 3787,
                                  "mediaDuration" : 124,
                                  "scalar" : 1,
                                  "metadata" : {
                                    "AutoAppliedSmartFocus" : "False"
                                  },
                                  "animationTracks" : {

                                  }
                                },
                                {
                                  "id" : 1063,
                                  "_type" : "ScreenVMFile",
                                  "src" : 1,
                                  "trackNumber" : 0,
                                  "attributes" : {
                                    "ident" : "Rec 01-28-21_001"
                                  },
                                  "parameters" : {
                                    "cursorScale" : {
                                      "type" : "double",
                                      "defaultValue" : 0.0,
                                      "interp" : "linr"
                                    },
                                    "cursorOpacity" : {
                                      "type" : "double",
                                      "defaultValue" : 0.0,
                                      "interp" : "linr"
                                    }
                                  },
                                  "effects" : [

                                  ],
                                  "start" : 2430,
                                  "duration" : 282,
                                  "mediaStart" : 3991,
                                  "mediaDuration" : 282,
                                  "scalar" : 1,
                                  "metadata" : {
                                    "AutoAppliedSmartFocus" : "False"
                                  },
                                  "animationTracks" : {

                                  }
                                },
                                {
                                  "id" : 1064,
                                  "_type" : "ScreenVMFile",
                                  "src" : 1,
                                  "trackNumber" : 0,
                                  "attributes" : {
                                    "ident" : "Rec 01-28-21_001"
                                  },
                                  "parameters" : {
                                    "cursorScale" : {
                                      "type" : "double",
                                      "defaultValue" : 0.0,
                                      "interp" : "linr"
                                    },
                                    "cursorOpacity" : {
                                      "type" : "double",
                                      "defaultValue" : 0.0,
                                      "interp" : "linr"
                                    }
                                  },
                                  "effects" : [

                                  ],
                                  "start" : 2712,
                                  "duration" : 205,
                                  "mediaStart" : 4397,
                                  "mediaDuration" : 205,
                                  "scalar" : 1,
                                  "metadata" : {
                                    "AutoAppliedSmartFocus" : "False"
                                  },
                                  "animationTracks" : {

                                  }
                                },
                                {
                                  "id" : 1065,
                                  "_type" : "ScreenVMFile",
                                  "src" : 1,
                                  "trackNumber" : 0,
                                  "attributes" : {
                                    "ident" : "Rec 01-28-21_001"
                                  },
                                  "parameters" : {
                                    "cursorScale" : {
                                      "type" : "double",
                                      "defaultValue" : 0.0,
                                      "interp" : "linr"
                                    },
                                    "cursorOpacity" : {
                                      "type" : "double",
                                      "defaultValue" : 0.0,
                                      "interp" : "linr"
                                    }
                                  },
                                  "effects" : [

                                  ],
                                  "start" : 2917,
                                  "duration" : 61,
                                  "mediaStart" : 4960,
                                  "mediaDuration" : 61,
                                  "scalar" : 1,
                                  "metadata" : {
                                    "AutoAppliedSmartFocus" : "False"
                                  },
                                  "animationTracks" : {

                                  }
                                },
                                {
                                  "id" : 1066,
                                  "_type" : "ScreenVMFile",
                                  "src" : 1,
                                  "trackNumber" : 0,
                                  "attributes" : {
                                    "ident" : "Rec 01-28-21_001"
                                  },
                                  "parameters" : {
                                    "cursorScale" : {
                                      "type" : "double",
                                      "defaultValue" : 0.0,
                                      "interp" : "linr"
                                    },
                                    "cursorOpacity" : {
                                      "type" : "double",
                                      "defaultValue" : 0.0,
                                      "interp" : "linr"
                                    }
                                  },
                                  "effects" : [

                                  ],
                                  "start" : 2978,
                                  "duration" : 172,
                                  "mediaStart" : 5035,
                                  "mediaDuration" : 172,
                                  "scalar" : 1,
                                  "metadata" : {
                                    "AutoAppliedSmartFocus" : "False"
                                  },
                                  "animationTracks" : {

                                  }
                                },
                                {
                                  "id" : 1067,
                                  "_type" : "ScreenVMFile",
                                  "src" : 1,
                                  "trackNumber" : 0,
                                  "attributes" : {
                                    "ident" : "Rec 01-28-21_001"
                                  },
                                  "parameters" : {
                                    "cursorScale" : {
                                      "type" : "double",
                                      "defaultValue" : 0.0,
                                      "interp" : "linr"
                                    },
                                    "cursorOpacity" : {
                                      "type" : "double",
                                      "defaultValue" : 0.0,
                                      "interp" : "linr"
                                    }
                                  },
                                  "effects" : [

                                  ],
                                  "start" : 3150,
                                  "duration" : 199,
                                  "mediaStart" : 5255,
                                  "mediaDuration" : 199,
                                  "scalar" : 1,
                                  "metadata" : {
                                    "AutoAppliedSmartFocus" : "False"
                                  },
                                  "animationTracks" : {

                                  }
                                },
                                {
                                  "id" : 1068,
                                  "_type" : "ScreenVMFile",
                                  "src" : 1,
                                  "trackNumber" : 0,
                                  "attributes" : {
                                    "ident" : "Rec 01-28-21_001"
                                  },
                                  "parameters" : {
                                    "cursorScale" : {
                                      "type" : "double",
                                      "defaultValue" : 0.0,
                                      "interp" : "linr"
                                    },
                                    "cursorOpacity" : {
                                      "type" : "double",
                                      "defaultValue" : 0.0,
                                      "interp" : "linr"
                                    }
                                  },
                                  "effects" : [

                                  ],
                                  "start" : 3349,
                                  "duration" : 150,
                                  "mediaStart" : 5507,
                                  "mediaDuration" : 150,
                                  "scalar" : 1,
                                  "metadata" : {
                                    "AutoAppliedSmartFocus" : "False"
                                  },
                                  "animationTracks" : {

                                  }
                                },
                                {
                                  "id" : 1069,
                                  "_type" : "ScreenVMFile",
                                  "src" : 1,
                                  "trackNumber" : 0,
                                  "attributes" : {
                                    "ident" : "Rec 01-28-21_001"
                                  },
                                  "parameters" : {
                                    "cursorScale" : {
                                      "type" : "double",
                                      "defaultValue" : 0.0,
                                      "interp" : "linr"
                                    },
                                    "cursorOpacity" : {
                                      "type" : "double",
                                      "defaultValue" : 0.0,
                                      "interp" : "linr"
                                    }
                                  },
                                  "effects" : [

                                  ],
                                  "start" : 3499,
                                  "duration" : 336,
                                  "mediaStart" : 6158,
                                  "mediaDuration" : 336,
                                  "scalar" : 1,
                                  "metadata" : {
                                    "AutoAppliedSmartFocus" : "False"
                                  },
                                  "animationTracks" : {

                                  }
                                },
                                {
                                  "id" : 1070,
                                  "_type" : "ScreenVMFile",
                                  "src" : 1,
                                  "trackNumber" : 0,
                                  "attributes" : {
                                    "ident" : "Rec 01-28-21_001"
                                  },
                                  "parameters" : {
                                    "cursorScale" : {
                                      "type" : "double",
                                      "defaultValue" : 0.0,
                                      "interp" : "linr"
                                    },
                                    "cursorOpacity" : {
                                      "type" : "double",
                                      "defaultValue" : 0.0,
                                      "interp" : "linr"
                                    }
                                  },
                                  "effects" : [

                                  ],
                                  "start" : 3835,
                                  "duration" : 73,
                                  "mediaStart" : 6577,
                                  "mediaDuration" : 73,
                                  "scalar" : 1,
                                  "metadata" : {
                                    "AutoAppliedSmartFocus" : "False"
                                  },
                                  "animationTracks" : {

                                  }
                                },
                                {
                                  "id" : 1071,
                                  "_type" : "ScreenVMFile",
                                  "src" : 1,
                                  "trackNumber" : 0,
                                  "attributes" : {
                                    "ident" : "Rec 01-28-21_001"
                                  },
                                  "parameters" : {
                                    "cursorScale" : {
                                      "type" : "double",
                                      "defaultValue" : 0.0,
                                      "interp" : "linr"
                                    },
                                    "cursorOpacity" : {
                                      "type" : "double",
                                      "defaultValue" : 0.0,
                                      "interp" : "linr"
                                    }
                                  },
                                  "effects" : [

                                  ],
                                  "start" : 3908,
                                  "duration" : 401,
                                  "mediaStart" : 6679,
                                  "mediaDuration" : 401,
                                  "scalar" : 1,
                                  "metadata" : {
                                    "AutoAppliedSmartFocus" : "False"
                                  },
                                  "animationTracks" : {

                                  }
                                },
                                {
                                  "id" : 1072,
                                  "_type" : "ScreenVMFile",
                                  "src" : 1,
                                  "trackNumber" : 0,
                                  "attributes" : {
                                    "ident" : "Rec 01-28-21_001"
                                  },
                                  "parameters" : {
                                    "cursorScale" : {
                                      "type" : "double",
                                      "defaultValue" : 0.0,
                                      "interp" : "linr"
                                    },
                                    "cursorOpacity" : {
                                      "type" : "double",
                                      "defaultValue" : 0.0,
                                      "interp" : "linr"
                                    }
                                  },
                                  "effects" : [

                                  ],
                                  "start" : 4309,
                                  "duration" : 98,
                                  "mediaStart" : 7143,
                                  "mediaDuration" : 98,
                                  "scalar" : 1,
                                  "metadata" : {
                                    "AutoAppliedSmartFocus" : "False"
                                  },
                                  "animationTracks" : {

                                  }
                                },
                                {
                                  "id" : 1073,
                                  "_type" : "ScreenVMFile",
                                  "src" : 1,
                                  "trackNumber" : 0,
                                  "attributes" : {
                                    "ident" : "Rec 01-28-21_001"
                                  },
                                  "parameters" : {
                                    "cursorScale" : {
                                      "type" : "double",
                                      "defaultValue" : 0.0,
                                      "interp" : "linr"
                                    },
                                    "cursorOpacity" : {
                                      "type" : "double",
                                      "defaultValue" : 0.0,
                                      "interp" : "linr"
                                    }
                                  },
                                  "effects" : [

                                  ],
                                  "start" : 4407,
                                  "duration" : 108,
                                  "mediaStart" : 7264,
                                  "mediaDuration" : 108,
                                  "scalar" : 1,
                                  "metadata" : {
                                    "AutoAppliedSmartFocus" : "False"
                                  },
                                  "animationTracks" : {

                                  }
                                },
                                {
                                  "id" : 1074,
                                  "_type" : "ScreenVMFile",
                                  "src" : 1,
                                  "trackNumber" : 0,
                                  "attributes" : {
                                    "ident" : "Rec 01-28-21_001"
                                  },
                                  "parameters" : {
                                    "cursorScale" : {
                                      "type" : "double",
                                      "defaultValue" : 0.0,
                                      "interp" : "linr"
                                    },
                                    "cursorOpacity" : {
                                      "type" : "double",
                                      "defaultValue" : 0.0,
                                      "interp" : "linr"
                                    }
                                  },
                                  "effects" : [

                                  ],
                                  "start" : 4515,
                                  "duration" : 66,
                                  "mediaStart" : 7571,
                                  "mediaDuration" : 66,
                                  "scalar" : 1,
                                  "metadata" : {
                                    "AutoAppliedSmartFocus" : "False"
                                  },
                                  "animationTracks" : {

                                  }
                                },
                                {
                                  "id" : 1075,
                                  "_type" : "ScreenVMFile",
                                  "src" : 1,
                                  "trackNumber" : 0,
                                  "attributes" : {
                                    "ident" : "Rec 01-28-21_001"
                                  },
                                  "parameters" : {
                                    "cursorScale" : {
                                      "type" : "double",
                                      "defaultValue" : 0.0,
                                      "interp" : "linr"
                                    },
                                    "cursorOpacity" : {
                                      "type" : "double",
                                      "defaultValue" : 0.0,
                                      "interp" : "linr"
                                    }
                                  },
                                  "effects" : [

                                  ],
                                  "start" : 4581,
                                  "duration" : 19,
                                  "mediaStart" : 7670,
                                  "mediaDuration" : 19,
                                  "scalar" : 1,
                                  "metadata" : {
                                    "AutoAppliedSmartFocus" : "False"
                                  },
                                  "animationTracks" : {

                                  }
                                },
                                {
                                  "id" : 1076,
                                  "_type" : "ScreenVMFile",
                                  "src" : 1,
                                  "trackNumber" : 0,
                                  "attributes" : {
                                    "ident" : "Rec 01-28-21_001"
                                  },
                                  "parameters" : {
                                    "cursorScale" : {
                                      "type" : "double",
                                      "defaultValue" : 0.0,
                                      "interp" : "linr"
                                    },
                                    "cursorOpacity" : {
                                      "type" : "double",
                                      "defaultValue" : 0.0,
                                      "interp" : "linr"
                                    }
                                  },
                                  "effects" : [

                                  ],
                                  "start" : 4600,
                                  "duration" : 2440,
                                  "mediaStart" : 7971,
                                  "mediaDuration" : 2440,
                                  "scalar" : 1,
                                  "metadata" : {
                                    "AutoAppliedSmartFocus" : "False"
                                  },
                                  "animationTracks" : {

                                  }
                                }
                            ],
                            "effects" : [

                            ],
                            "start" : 0,
                            "duration" : 147,
                            "mediaStart" : 4766,
                            "mediaDuration" : 147,
                            "scalar" : 1,
                            "metadata" : {
                              "AutoAppliedSmartFocus" : "False",
                              "clipSpeedAttribute" : false
                            },
                            "animationTracks" : {

                            }
                          }
                        ],
                          "ident" : "",
                          "audioMuted" : false,
                          "videoHidden" : false,
                          "magnetic" : false,
                          "matte" : 0,
                          "metadata" : {
                            "IsLocked" : "False",
                            "WinTrackHeight" : "0"
                          }
                      },
                      {
                        "trackIndex" : 1,
                        "medias" : [
                          {
                            "id" : 1077,
                            "_type" : "AMFile",
                            "src" : 12,
                            "trackNumber" : 0,
                            "attributes" : {
                              "ident" : "Narration_3-3 Kubernetes-Deployment 9",
                              "gain" : 1.0,
                              "mixToMono" : false
                            },
                              "channelNumber" : "0,1",
                            "effects" : [

                            ],
                            "start" : 0,
                            "duration" : 129,
                            "mediaStart" : 0,
                            "mediaDuration" : 129,
                            "scalar" : 1,
                            "metadata" : {
                              "clipSpeedAttribute" : false
                            },
                            "animationTracks" : {

                            }
                          }
                        ],
                          "ident" : "",
                          "audioMuted" : false,
                          "videoHidden" : false,
                          "magnetic" : false,
                          "matte" : 0,
                          "metadata" : {
                            "IsLocked" : "False",
                            "WinTrackHeight" : "2.67715388235961e-313"
                          }
                      }
                    ],
                    "attributes" : {
                      "ident" : "Group 3",
                      "gain" : 1.0,
                      "mixToMono" : false
                    },
                    "effects" : [

                    ],
                    "start" : 4541,
                    "duration" : 147,
                    "mediaStart" : 0.0,
                    "mediaDuration" : 147.0,
                    "scalar" : 1,
                    "metadata" : {
                      "IsGroupExpanded" : "False"
                    },
                    "animationTracks" : {

                    }
                  },
                  {
                    "id" : 1078,
                    "_type" : "StitchedMedia",
                    "minMediaStart" : 0,
                    "attributes" : {
                      "ident" : "Rec 01-28-21_001",
                      "gain" : 1.0,
                      "mixToMono" : false
                    },
                    "parameters" : {
                      "volume" : 1.0,
                      "cursorOpacity" : 1.0,
                      "cursorScale" : 1.0
                    },
                    "medias" : [
                        {
                          "id" : 1079,
                          "_type" : "UnifiedMedia",
                          "video" : 
                              {
                                "id" : 1080,
                                "_type" : "ScreenVMFile",
                                "src" : 1,
                                "trackNumber" : 0,
                                "attributes" : {
                                  "ident" : "Rec 01-28-21_001"
                                },
                                "parameters" : {
                                  "cursorScale" : {
                                    "type" : "double",
                                    "defaultValue" : 0.0,
                                    "interp" : "linr"
                                  },
                                  "cursorOpacity" : {
                                    "type" : "double",
                                    "defaultValue" : 0.0,
                                    "interp" : "linr"
                                  }
                                },
                                "effects" : [

                                ],
                                "start" : 0,
                                "duration" : 18,
                                "mediaStart" : 0,
                                "mediaDuration" : 18,
                                "scalar" : 1,
                                "animationTracks" : {

                                }
                              },
                          "audio" : 
                              {
                                "id" : 1081,
                                "_type" : "AMFile",
                                "src" : 1,
                                "trackNumber" : 1,
                                "attributes" : {
                                  "ident" : "",
                                  "gain" : 1.0,
                                  "mixToMono" : false
                                },
                                  "channelNumber" : "0,1",
                                "effects" : [

                                ],
                                "start" : 0,
                                "duration" : 18,
                                "mediaStart" : 0,
                                "mediaDuration" : 18,
                                "scalar" : 1,
                                "animationTracks" : {

                                }
                              }
,
                          "start" : 0,
                          "duration" : 18,
                          "mediaStart" : 0,
                          "mediaDuration" : 10411,
                          "scalar" : 1,
                          "metadata" : {
                            "AutoAppliedSmartFocus" : "False",
                            "clipSpeedAttribute" : false
                          }
                        },
                        {
                          "id" : 1082,
                          "_type" : "UnifiedMedia",
                          "video" : 
                              {
                                "id" : 1083,
                                "_type" : "ScreenVMFile",
                                "src" : 1,
                                "trackNumber" : 0,
                                "attributes" : {
                                  "ident" : "Rec 01-28-21_001"
                                },
                                "parameters" : {
                                  "cursorScale" : {
                                    "type" : "double",
                                    "defaultValue" : 0.0,
                                    "interp" : "linr"
                                  },
                                  "cursorOpacity" : {
                                    "type" : "double",
                                    "defaultValue" : 0.0,
                                    "interp" : "linr"
                                  }
                                },
                                "effects" : [

                                ],
                                "start" : 18,
                                "duration" : 286,
                                "mediaStart" : 55,
                                "mediaDuration" : 286,
                                "scalar" : 1,
                                "animationTracks" : {

                                }
                              },
                          "audio" : 
                              {
                                "id" : 1084,
                                "_type" : "AMFile",
                                "src" : 1,
                                "trackNumber" : 1,
                                "attributes" : {
                                  "ident" : "",
                                  "gain" : 1.0,
                                  "mixToMono" : false
                                },
                                  "channelNumber" : "0,1",
                                "effects" : [

                                ],
                                "start" : 18,
                                "duration" : 286,
                                "mediaStart" : 55,
                                "mediaDuration" : 286,
                                "scalar" : 1,
                                "animationTracks" : {

                                }
                              }
,
                          "start" : 18,
                          "duration" : 286,
                          "mediaStart" : 0,
                          "mediaDuration" : 10411,
                          "scalar" : 1,
                          "metadata" : {
                            "AutoAppliedSmartFocus" : "False",
                            "clipSpeedAttribute" : false
                          }
                        },
                        {
                          "id" : 1085,
                          "_type" : "UnifiedMedia",
                          "video" : 
                              {
                                "id" : 1086,
                                "_type" : "ScreenVMFile",
                                "src" : 1,
                                "trackNumber" : 0,
                                "attributes" : {
                                  "ident" : "Rec 01-28-21_001"
                                },
                                "parameters" : {
                                  "cursorScale" : {
                                    "type" : "double",
                                    "defaultValue" : 0.0,
                                    "interp" : "linr"
                                  },
                                  "cursorOpacity" : {
                                    "type" : "double",
                                    "defaultValue" : 0.0,
                                    "interp" : "linr"
                                  }
                                },
                                "effects" : [

                                ],
                                "start" : 304,
                                "duration" : 53,
                                "mediaStart" : 367,
                                "mediaDuration" : 53,
                                "scalar" : 1,
                                "animationTracks" : {

                                }
                              },
                          "audio" : 
                              {
                                "id" : 1087,
                                "_type" : "AMFile",
                                "src" : 1,
                                "trackNumber" : 1,
                                "attributes" : {
                                  "ident" : "",
                                  "gain" : 1.0,
                                  "mixToMono" : false
                                },
                                  "channelNumber" : "0,1",
                                "effects" : [

                                ],
                                "start" : 304,
                                "duration" : 53,
                                "mediaStart" : 367,
                                "mediaDuration" : 53,
                                "scalar" : 1,
                                "animationTracks" : {

                                }
                              }
,
                          "start" : 304,
                          "duration" : 53,
                          "mediaStart" : 0,
                          "mediaDuration" : 10411,
                          "scalar" : 1,
                          "metadata" : {
                            "AutoAppliedSmartFocus" : "False",
                            "clipSpeedAttribute" : false
                          }
                        },
                        {
                          "id" : 1088,
                          "_type" : "UnifiedMedia",
                          "video" : 
                              {
                                "id" : 1089,
                                "_type" : "ScreenVMFile",
                                "src" : 1,
                                "trackNumber" : 0,
                                "attributes" : {
                                  "ident" : "Rec 01-28-21_001"
                                },
                                "parameters" : {
                                  "cursorScale" : {
                                    "type" : "double",
                                    "defaultValue" : 0.0,
                                    "interp" : "linr"
                                  },
                                  "cursorOpacity" : {
                                    "type" : "double",
                                    "defaultValue" : 0.0,
                                    "interp" : "linr"
                                  }
                                },
                                "effects" : [

                                ],
                                "start" : 357,
                                "duration" : 59,
                                "mediaStart" : 477,
                                "mediaDuration" : 59,
                                "scalar" : 1,
                                "animationTracks" : {

                                }
                              },
                          "audio" : 
                              {
                                "id" : 1090,
                                "_type" : "AMFile",
                                "src" : 1,
                                "trackNumber" : 1,
                                "attributes" : {
                                  "ident" : "",
                                  "gain" : 1.0,
                                  "mixToMono" : false
                                },
                                  "channelNumber" : "0,1",
                                "effects" : [

                                ],
                                "start" : 357,
                                "duration" : 59,
                                "mediaStart" : 477,
                                "mediaDuration" : 59,
                                "scalar" : 1,
                                "animationTracks" : {

                                }
                              }
,
                          "start" : 357,
                          "duration" : 59,
                          "mediaStart" : 0,
                          "mediaDuration" : 10411,
                          "scalar" : 1,
                          "metadata" : {
                            "AutoAppliedSmartFocus" : "False",
                            "clipSpeedAttribute" : false
                          }
                        },
                        {
                          "id" : 1091,
                          "_type" : "UnifiedMedia",
                          "video" : 
                              {
                                "id" : 1092,
                                "_type" : "ScreenVMFile",
                                "src" : 1,
                                "trackNumber" : 0,
                                "attributes" : {
                                  "ident" : "Rec 01-28-21_001"
                                },
                                "parameters" : {
                                  "cursorScale" : {
                                    "type" : "double",
                                    "defaultValue" : 0.0,
                                    "interp" : "linr"
                                  },
                                  "cursorOpacity" : {
                                    "type" : "double",
                                    "defaultValue" : 0.0,
                                    "interp" : "linr"
                                  }
                                },
                                "effects" : [

                                ],
                                "start" : 416,
                                "duration" : 42,
                                "mediaStart" : 590,
                                "mediaDuration" : 42,
                                "scalar" : 1,
                                "animationTracks" : {

                                }
                              },
                          "audio" : 
                              {
                                "id" : 1093,
                                "_type" : "AMFile",
                                "src" : 1,
                                "trackNumber" : 1,
                                "attributes" : {
                                  "ident" : "",
                                  "gain" : 1.0,
                                  "mixToMono" : false
                                },
                                  "channelNumber" : "0,1",
                                "effects" : [

                                ],
                                "start" : 416,
                                "duration" : 42,
                                "mediaStart" : 590,
                                "mediaDuration" : 42,
                                "scalar" : 1,
                                "animationTracks" : {

                                }
                              }
,
                          "start" : 416,
                          "duration" : 42,
                          "mediaStart" : 0,
                          "mediaDuration" : 10411,
                          "scalar" : 1,
                          "metadata" : {
                            "AutoAppliedSmartFocus" : "False",
                            "clipSpeedAttribute" : false
                          }
                        },
                        {
                          "id" : 1094,
                          "_type" : "UnifiedMedia",
                          "video" : 
                              {
                                "id" : 1095,
                                "_type" : "ScreenVMFile",
                                "src" : 1,
                                "trackNumber" : 0,
                                "attributes" : {
                                  "ident" : "Rec 01-28-21_001"
                                },
                                "parameters" : {
                                  "cursorScale" : {
                                    "type" : "double",
                                    "defaultValue" : 0.0,
                                    "interp" : "linr"
                                  },
                                  "cursorOpacity" : {
                                    "type" : "double",
                                    "defaultValue" : 0.0,
                                    "interp" : "linr"
                                  }
                                },
                                "effects" : [

                                ],
                                "start" : 458,
                                "duration" : 22,
                                "mediaStart" : 646,
                                "mediaDuration" : 22,
                                "scalar" : 1,
                                "animationTracks" : {

                                }
                              },
                          "audio" : 
                              {
                                "id" : 1096,
                                "_type" : "AMFile",
                                "src" : 1,
                                "trackNumber" : 1,
                                "attributes" : {
                                  "ident" : "",
                                  "gain" : 1.0,
                                  "mixToMono" : false
                                },
                                  "channelNumber" : "0,1",
                                "effects" : [

                                ],
                                "start" : 458,
                                "duration" : 22,
                                "mediaStart" : 646,
                                "mediaDuration" : 22,
                                "scalar" : 1,
                                "animationTracks" : {

                                }
                              }
,
                          "start" : 458,
                          "duration" : 22,
                          "mediaStart" : 0,
                          "mediaDuration" : 10411,
                          "scalar" : 1,
                          "metadata" : {
                            "AutoAppliedSmartFocus" : "False",
                            "clipSpeedAttribute" : false
                          }
                        },
                        {
                          "id" : 1097,
                          "_type" : "UnifiedMedia",
                          "video" : 
                              {
                                "id" : 1098,
                                "_type" : "ScreenVMFile",
                                "src" : 1,
                                "trackNumber" : 0,
                                "attributes" : {
                                  "ident" : "Rec 01-28-21_001"
                                },
                                "parameters" : {
                                  "cursorScale" : {
                                    "type" : "double",
                                    "defaultValue" : 0.0,
                                    "interp" : "linr"
                                  },
                                  "cursorOpacity" : {
                                    "type" : "double",
                                    "defaultValue" : 0.0,
                                    "interp" : "linr"
                                  }
                                },
                                "effects" : [

                                ],
                                "start" : 480,
                                "duration" : 115,
                                "mediaStart" : 762,
                                "mediaDuration" : 115,
                                "scalar" : 1,
                                "animationTracks" : {

                                }
                              },
                          "audio" : 
                              {
                                "id" : 1099,
                                "_type" : "AMFile",
                                "src" : 1,
                                "trackNumber" : 1,
                                "attributes" : {
                                  "ident" : "",
                                  "gain" : 1.0,
                                  "mixToMono" : false
                                },
                                  "channelNumber" : "0,1",
                                "effects" : [

                                ],
                                "start" : 480,
                                "duration" : 115,
                                "mediaStart" : 762,
                                "mediaDuration" : 115,
                                "scalar" : 1,
                                "animationTracks" : {

                                }
                              }
,
                          "start" : 480,
                          "duration" : 115,
                          "mediaStart" : 0,
                          "mediaDuration" : 10411,
                          "scalar" : 1,
                          "metadata" : {
                            "AutoAppliedSmartFocus" : "False",
                            "clipSpeedAttribute" : false
                          }
                        },
                        {
                          "id" : 1100,
                          "_type" : "UnifiedMedia",
                          "video" : 
                              {
                                "id" : 1101,
                                "_type" : "ScreenVMFile",
                                "src" : 1,
                                "trackNumber" : 0,
                                "attributes" : {
                                  "ident" : "Rec 01-28-21_001"
                                },
                                "parameters" : {
                                  "cursorScale" : {
                                    "type" : "double",
                                    "defaultValue" : 0.0,
                                    "interp" : "linr"
                                  },
                                  "cursorOpacity" : {
                                    "type" : "double",
                                    "defaultValue" : 0.0,
                                    "interp" : "linr"
                                  }
                                },
                                "effects" : [

                                ],
                                "start" : 595,
                                "duration" : 154,
                                "mediaStart" : 1024,
                                "mediaDuration" : 154,
                                "scalar" : 1,
                                "animationTracks" : {

                                }
                              },
                          "audio" : 
                              {
                                "id" : 1102,
                                "_type" : "AMFile",
                                "src" : 1,
                                "trackNumber" : 1,
                                "attributes" : {
                                  "ident" : "",
                                  "gain" : 1.0,
                                  "mixToMono" : false
                                },
                                  "channelNumber" : "0,1",
                                "effects" : [

                                ],
                                "start" : 595,
                                "duration" : 154,
                                "mediaStart" : 1024,
                                "mediaDuration" : 154,
                                "scalar" : 1,
                                "animationTracks" : {

                                }
                              }
,
                          "start" : 595,
                          "duration" : 154,
                          "mediaStart" : 0,
                          "mediaDuration" : 10411,
                          "scalar" : 1,
                          "metadata" : {
                            "AutoAppliedSmartFocus" : "False",
                            "clipSpeedAttribute" : false
                          }
                        },
                        {
                          "id" : 1103,
                          "_type" : "UnifiedMedia",
                          "video" : 
                              {
                                "id" : 1104,
                                "_type" : "ScreenVMFile",
                                "src" : 1,
                                "trackNumber" : 0,
                                "attributes" : {
                                  "ident" : "Rec 01-28-21_001"
                                },
                                "parameters" : {
                                  "cursorScale" : {
                                    "type" : "double",
                                    "defaultValue" : 0.0,
                                    "interp" : "linr"
                                  },
                                  "cursorOpacity" : {
                                    "type" : "double",
                                    "defaultValue" : 0.0,
                                    "interp" : "linr"
                                  }
                                },
                                "effects" : [

                                ],
                                "start" : 749,
                                "duration" : 135,
                                "mediaStart" : 1207,
                                "mediaDuration" : 135,
                                "scalar" : 1,
                                "animationTracks" : {

                                }
                              },
                          "audio" : 
                              {
                                "id" : 1105,
                                "_type" : "AMFile",
                                "src" : 1,
                                "trackNumber" : 1,
                                "attributes" : {
                                  "ident" : "",
                                  "gain" : 1.0,
                                  "mixToMono" : false
                                },
                                  "channelNumber" : "0,1",
                                "effects" : [

                                ],
                                "start" : 749,
                                "duration" : 135,
                                "mediaStart" : 1207,
                                "mediaDuration" : 135,
                                "scalar" : 1,
                                "animationTracks" : {

                                }
                              }
,
                          "start" : 749,
                          "duration" : 135,
                          "mediaStart" : 0,
                          "mediaDuration" : 10411,
                          "scalar" : 1,
                          "metadata" : {
                            "AutoAppliedSmartFocus" : "False",
                            "clipSpeedAttribute" : false
                          }
                        },
                        {
                          "id" : 1106,
                          "_type" : "UnifiedMedia",
                          "video" : 
                              {
                                "id" : 1107,
                                "_type" : "ScreenVMFile",
                                "src" : 1,
                                "trackNumber" : 0,
                                "attributes" : {
                                  "ident" : "Rec 01-28-21_001"
                                },
                                "parameters" : {
                                  "cursorScale" : {
                                    "type" : "double",
                                    "defaultValue" : 0.0,
                                    "interp" : "linr"
                                  },
                                  "cursorOpacity" : {
                                    "type" : "double",
                                    "defaultValue" : 0.0,
                                    "interp" : "linr"
                                  }
                                },
                                "effects" : [

                                ],
                                "start" : 884,
                                "duration" : 150,
                                "mediaStart" : 1383,
                                "mediaDuration" : 150,
                                "scalar" : 1,
                                "animationTracks" : {

                                }
                              },
                          "audio" : 
                              {
                                "id" : 1108,
                                "_type" : "AMFile",
                                "src" : 1,
                                "trackNumber" : 1,
                                "attributes" : {
                                  "ident" : "",
                                  "gain" : 1.0,
                                  "mixToMono" : false
                                },
                                  "channelNumber" : "0,1",
                                "effects" : [

                                ],
                                "start" : 884,
                                "duration" : 150,
                                "mediaStart" : 1383,
                                "mediaDuration" : 150,
                                "scalar" : 1,
                                "animationTracks" : {

                                }
                              }
,
                          "start" : 884,
                          "duration" : 150,
                          "mediaStart" : 0,
                          "mediaDuration" : 10411,
                          "scalar" : 1,
                          "metadata" : {
                            "AutoAppliedSmartFocus" : "False",
                            "clipSpeedAttribute" : false
                          }
                        },
                        {
                          "id" : 1109,
                          "_type" : "UnifiedMedia",
                          "video" : 
                              {
                                "id" : 1110,
                                "_type" : "ScreenVMFile",
                                "src" : 1,
                                "trackNumber" : 0,
                                "attributes" : {
                                  "ident" : "Rec 01-28-21_001"
                                },
                                "parameters" : {
                                  "cursorScale" : {
                                    "type" : "double",
                                    "defaultValue" : 0.0,
                                    "interp" : "linr"
                                  },
                                  "cursorOpacity" : {
                                    "type" : "double",
                                    "defaultValue" : 0.0,
                                    "interp" : "linr"
                                  }
                                },
                                "effects" : [

                                ],
                                "start" : 1034,
                                "duration" : 89,
                                "mediaStart" : 1607,
                                "mediaDuration" : 89,
                                "scalar" : 1,
                                "animationTracks" : {

                                }
                              },
                          "audio" : 
                              {
                                "id" : 1111,
                                "_type" : "AMFile",
                                "src" : 1,
                                "trackNumber" : 1,
                                "attributes" : {
                                  "ident" : "",
                                  "gain" : 1.0,
                                  "mixToMono" : false
                                },
                                  "channelNumber" : "0,1",
                                "effects" : [

                                ],
                                "start" : 1034,
                                "duration" : 89,
                                "mediaStart" : 1607,
                                "mediaDuration" : 89,
                                "scalar" : 1,
                                "animationTracks" : {

                                }
                              }
,
                          "start" : 1034,
                          "duration" : 89,
                          "mediaStart" : 0,
                          "mediaDuration" : 10411,
                          "scalar" : 1,
                          "metadata" : {
                            "AutoAppliedSmartFocus" : "False",
                            "clipSpeedAttribute" : false
                          }
                        },
                        {
                          "id" : 1112,
                          "_type" : "UnifiedMedia",
                          "video" : 
                              {
                                "id" : 1113,
                                "_type" : "ScreenVMFile",
                                "src" : 1,
                                "trackNumber" : 0,
                                "attributes" : {
                                  "ident" : "Rec 01-28-21_001"
                                },
                                "parameters" : {
                                  "cursorScale" : {
                                    "type" : "double",
                                    "defaultValue" : 0.0,
                                    "interp" : "linr"
                                  },
                                  "cursorOpacity" : {
                                    "type" : "double",
                                    "defaultValue" : 0.0,
                                    "interp" : "linr"
                                  }
                                },
                                "effects" : [

                                ],
                                "start" : 1123,
                                "duration" : 37,
                                "mediaStart" : 1752,
                                "mediaDuration" : 37,
                                "scalar" : 1,
                                "animationTracks" : {

                                }
                              },
                          "audio" : 
                              {
                                "id" : 1114,
                                "_type" : "AMFile",
                                "src" : 1,
                                "trackNumber" : 1,
                                "attributes" : {
                                  "ident" : "",
                                  "gain" : 1.0,
                                  "mixToMono" : false
                                },
                                  "channelNumber" : "0,1",
                                "effects" : [

                                ],
                                "start" : 1123,
                                "duration" : 37,
                                "mediaStart" : 1752,
                                "mediaDuration" : 37,
                                "scalar" : 1,
                                "animationTracks" : {

                                }
                              }
,
                          "start" : 1123,
                          "duration" : 37,
                          "mediaStart" : 0,
                          "mediaDuration" : 10411,
                          "scalar" : 1,
                          "metadata" : {
                            "AutoAppliedSmartFocus" : "False",
                            "clipSpeedAttribute" : false
                          }
                        },
                        {
                          "id" : 1115,
                          "_type" : "UnifiedMedia",
                          "video" : 
                              {
                                "id" : 1116,
                                "_type" : "ScreenVMFile",
                                "src" : 1,
                                "trackNumber" : 0,
                                "attributes" : {
                                  "ident" : "Rec 01-28-21_001"
                                },
                                "parameters" : {
                                  "cursorScale" : {
                                    "type" : "double",
                                    "defaultValue" : 0.0,
                                    "interp" : "linr"
                                  },
                                  "cursorOpacity" : {
                                    "type" : "double",
                                    "defaultValue" : 0.0,
                                    "interp" : "linr"
                                  }
                                },
                                "effects" : [

                                ],
                                "start" : 1160,
                                "duration" : 34,
                                "mediaStart" : 1836,
                                "mediaDuration" : 34,
                                "scalar" : 1,
                                "animationTracks" : {

                                }
                              },
                          "audio" : 
                              {
                                "id" : 1117,
                                "_type" : "AMFile",
                                "src" : 1,
                                "trackNumber" : 1,
                                "attributes" : {
                                  "ident" : "",
                                  "gain" : 1.0,
                                  "mixToMono" : false
                                },
                                  "channelNumber" : "0,1",
                                "effects" : [

                                ],
                                "start" : 1160,
                                "duration" : 34,
                                "mediaStart" : 1836,
                                "mediaDuration" : 34,
                                "scalar" : 1,
                                "animationTracks" : {

                                }
                              }
,
                          "start" : 1160,
                          "duration" : 34,
                          "mediaStart" : 0,
                          "mediaDuration" : 10411,
                          "scalar" : 1,
                          "metadata" : {
                            "AutoAppliedSmartFocus" : "False",
                            "clipSpeedAttribute" : false
                          }
                        },
                        {
                          "id" : 1118,
                          "_type" : "UnifiedMedia",
                          "video" : 
                              {
                                "id" : 1119,
                                "_type" : "ScreenVMFile",
                                "src" : 1,
                                "trackNumber" : 0,
                                "attributes" : {
                                  "ident" : "Rec 01-28-21_001"
                                },
                                "parameters" : {
                                  "cursorScale" : {
                                    "type" : "double",
                                    "defaultValue" : 0.0,
                                    "interp" : "linr"
                                  },
                                  "cursorOpacity" : {
                                    "type" : "double",
                                    "defaultValue" : 0.0,
                                    "interp" : "linr"
                                  }
                                },
                                "effects" : [

                                ],
                                "start" : 1194,
                                "duration" : 41,
                                "mediaStart" : 1882,
                                "mediaDuration" : 41,
                                "scalar" : 1,
                                "animationTracks" : {

                                }
                              },
                          "audio" : 
                              {
                                "id" : 1120,
                                "_type" : "AMFile",
                                "src" : 1,
                                "trackNumber" : 1,
                                "attributes" : {
                                  "ident" : "",
                                  "gain" : 1.0,
                                  "mixToMono" : false
                                },
                                  "channelNumber" : "0,1",
                                "effects" : [

                                ],
                                "start" : 1194,
                                "duration" : 41,
                                "mediaStart" : 1882,
                                "mediaDuration" : 41,
                                "scalar" : 1,
                                "animationTracks" : {

                                }
                              }
,
                          "start" : 1194,
                          "duration" : 41,
                          "mediaStart" : 0,
                          "mediaDuration" : 10411,
                          "scalar" : 1,
                          "metadata" : {
                            "AutoAppliedSmartFocus" : "False",
                            "clipSpeedAttribute" : false
                          }
                        },
                        {
                          "id" : 1121,
                          "_type" : "UnifiedMedia",
                          "video" : 
                              {
                                "id" : 1122,
                                "_type" : "ScreenVMFile",
                                "src" : 1,
                                "trackNumber" : 0,
                                "attributes" : {
                                  "ident" : "Rec 01-28-21_001"
                                },
                                "parameters" : {
                                  "cursorScale" : {
                                    "type" : "double",
                                    "defaultValue" : 0.0,
                                    "interp" : "linr"
                                  },
                                  "cursorOpacity" : {
                                    "type" : "double",
                                    "defaultValue" : 0.0,
                                    "interp" : "linr"
                                  }
                                },
                                "effects" : [

                                ],
                                "start" : 1235,
                                "duration" : 41,
                                "mediaStart" : 1948,
                                "mediaDuration" : 41,
                                "scalar" : 1,
                                "animationTracks" : {

                                }
                              },
                          "audio" : 
                              {
                                "id" : 1123,
                                "_type" : "AMFile",
                                "src" : 1,
                                "trackNumber" : 1,
                                "attributes" : {
                                  "ident" : "",
                                  "gain" : 1.0,
                                  "mixToMono" : false
                                },
                                  "channelNumber" : "0,1",
                                "effects" : [

                                ],
                                "start" : 1235,
                                "duration" : 41,
                                "mediaStart" : 1948,
                                "mediaDuration" : 41,
                                "scalar" : 1,
                                "animationTracks" : {

                                }
                              }
,
                          "start" : 1235,
                          "duration" : 41,
                          "mediaStart" : 0,
                          "mediaDuration" : 10411,
                          "scalar" : 1,
                          "metadata" : {
                            "AutoAppliedSmartFocus" : "False",
                            "clipSpeedAttribute" : false
                          }
                        },
                        {
                          "id" : 1124,
                          "_type" : "UnifiedMedia",
                          "video" : 
                              {
                                "id" : 1125,
                                "_type" : "ScreenVMFile",
                                "src" : 1,
                                "trackNumber" : 0,
                                "attributes" : {
                                  "ident" : "Rec 01-28-21_001"
                                },
                                "parameters" : {
                                  "cursorScale" : {
                                    "type" : "double",
                                    "defaultValue" : 0.0,
                                    "interp" : "linr"
                                  },
                                  "cursorOpacity" : {
                                    "type" : "double",
                                    "defaultValue" : 0.0,
                                    "interp" : "linr"
                                  }
                                },
                                "effects" : [

                                ],
                                "start" : 1276,
                                "duration" : 55,
                                "mediaStart" : 2015,
                                "mediaDuration" : 55,
                                "scalar" : 1,
                                "animationTracks" : {

                                }
                              },
                          "audio" : 
                              {
                                "id" : 1126,
                                "_type" : "AMFile",
                                "src" : 1,
                                "trackNumber" : 1,
                                "attributes" : {
                                  "ident" : "",
                                  "gain" : 1.0,
                                  "mixToMono" : false
                                },
                                  "channelNumber" : "0,1",
                                "effects" : [

                                ],
                                "start" : 1276,
                                "duration" : 55,
                                "mediaStart" : 2015,
                                "mediaDuration" : 55,
                                "scalar" : 1,
                                "animationTracks" : {

                                }
                              }
,
                          "start" : 1276,
                          "duration" : 55,
                          "mediaStart" : 0,
                          "mediaDuration" : 10411,
                          "scalar" : 1,
                          "metadata" : {
                            "AutoAppliedSmartFocus" : "False",
                            "clipSpeedAttribute" : false
                          }
                        },
                        {
                          "id" : 1127,
                          "_type" : "UnifiedMedia",
                          "video" : 
                              {
                                "id" : 1128,
                                "_type" : "ScreenVMFile",
                                "src" : 1,
                                "trackNumber" : 0,
                                "attributes" : {
                                  "ident" : "Rec 01-28-21_001"
                                },
                                "parameters" : {
                                  "cursorScale" : {
                                    "type" : "double",
                                    "defaultValue" : 0.0,
                                    "interp" : "linr"
                                  },
                                  "cursorOpacity" : {
                                    "type" : "double",
                                    "defaultValue" : 0.0,
                                    "interp" : "linr"
                                  }
                                },
                                "effects" : [

                                ],
                                "start" : 1331,
                                "duration" : 42,
                                "mediaStart" : 2110,
                                "mediaDuration" : 42,
                                "scalar" : 1,
                                "animationTracks" : {

                                }
                              },
                          "audio" : 
                              {
                                "id" : 1129,
                                "_type" : "AMFile",
                                "src" : 1,
                                "trackNumber" : 1,
                                "attributes" : {
                                  "ident" : "",
                                  "gain" : 1.0,
                                  "mixToMono" : false
                                },
                                  "channelNumber" : "0,1",
                                "effects" : [

                                ],
                                "start" : 1331,
                                "duration" : 42,
                                "mediaStart" : 2110,
                                "mediaDuration" : 42,
                                "scalar" : 1,
                                "animationTracks" : {

                                }
                              }
,
                          "start" : 1331,
                          "duration" : 42,
                          "mediaStart" : 0,
                          "mediaDuration" : 10411,
                          "scalar" : 1,
                          "metadata" : {
                            "AutoAppliedSmartFocus" : "False",
                            "clipSpeedAttribute" : false
                          }
                        },
                        {
                          "id" : 1130,
                          "_type" : "UnifiedMedia",
                          "video" : 
                              {
                                "id" : 1131,
                                "_type" : "ScreenVMFile",
                                "src" : 1,
                                "trackNumber" : 0,
                                "attributes" : {
                                  "ident" : "Rec 01-28-21_001"
                                },
                                "parameters" : {
                                  "cursorScale" : {
                                    "type" : "double",
                                    "defaultValue" : 0.0,
                                    "interp" : "linr"
                                  },
                                  "cursorOpacity" : {
                                    "type" : "double",
                                    "defaultValue" : 0.0,
                                    "interp" : "linr"
                                  }
                                },
                                "effects" : [

                                ],
                                "start" : 1373,
                                "duration" : 23,
                                "mediaStart" : 2250,
                                "mediaDuration" : 23,
                                "scalar" : 1,
                                "animationTracks" : {

                                }
                              },
                          "audio" : 
                              {
                                "id" : 1132,
                                "_type" : "AMFile",
                                "src" : 1,
                                "trackNumber" : 1,
                                "attributes" : {
                                  "ident" : "",
                                  "gain" : 1.0,
                                  "mixToMono" : false
                                },
                                  "channelNumber" : "0,1",
                                "effects" : [

                                ],
                                "start" : 1373,
                                "duration" : 23,
                                "mediaStart" : 2250,
                                "mediaDuration" : 23,
                                "scalar" : 1,
                                "animationTracks" : {

                                }
                              }
,
                          "start" : 1373,
                          "duration" : 23,
                          "mediaStart" : 0,
                          "mediaDuration" : 10411,
                          "scalar" : 1,
                          "metadata" : {
                            "AutoAppliedSmartFocus" : "False",
                            "clipSpeedAttribute" : false
                          }
                        },
                        {
                          "id" : 1133,
                          "_type" : "UnifiedMedia",
                          "video" : 
                              {
                                "id" : 1134,
                                "_type" : "ScreenVMFile",
                                "src" : 1,
                                "trackNumber" : 0,
                                "attributes" : {
                                  "ident" : "Rec 01-28-21_001"
                                },
                                "parameters" : {
                                  "cursorScale" : {
                                    "type" : "double",
                                    "defaultValue" : 0.0,
                                    "interp" : "linr"
                                  },
                                  "cursorOpacity" : {
                                    "type" : "double",
                                    "defaultValue" : 0.0,
                                    "interp" : "linr"
                                  }
                                },
                                "effects" : [

                                ],
                                "start" : 1396,
                                "duration" : 79,
                                "mediaStart" : 2299,
                                "mediaDuration" : 79,
                                "scalar" : 1,
                                "animationTracks" : {

                                }
                              },
                          "audio" : 
                              {
                                "id" : 1135,
                                "_type" : "AMFile",
                                "src" : 1,
                                "trackNumber" : 1,
                                "attributes" : {
                                  "ident" : "",
                                  "gain" : 1.0,
                                  "mixToMono" : false
                                },
                                  "channelNumber" : "0,1",
                                "effects" : [

                                ],
                                "start" : 1396,
                                "duration" : 79,
                                "mediaStart" : 2299,
                                "mediaDuration" : 79,
                                "scalar" : 1,
                                "animationTracks" : {

                                }
                              }
,
                          "start" : 1396,
                          "duration" : 79,
                          "mediaStart" : 0,
                          "mediaDuration" : 10411,
                          "scalar" : 1,
                          "metadata" : {
                            "AutoAppliedSmartFocus" : "False",
                            "clipSpeedAttribute" : false
                          }
                        },
                        {
                          "id" : 1136,
                          "_type" : "UnifiedMedia",
                          "video" : 
                              {
                                "id" : 1137,
                                "_type" : "ScreenVMFile",
                                "src" : 1,
                                "trackNumber" : 0,
                                "attributes" : {
                                  "ident" : "Rec 01-28-21_001"
                                },
                                "parameters" : {
                                  "cursorScale" : {
                                    "type" : "double",
                                    "defaultValue" : 0.0,
                                    "interp" : "linr"
                                  },
                                  "cursorOpacity" : {
                                    "type" : "double",
                                    "defaultValue" : 0.0,
                                    "interp" : "linr"
                                  }
                                },
                                "effects" : [

                                ],
                                "start" : 1475,
                                "duration" : 64,
                                "mediaStart" : 2409,
                                "mediaDuration" : 64,
                                "scalar" : 1,
                                "animationTracks" : {

                                }
                              },
                          "audio" : 
                              {
                                "id" : 1138,
                                "_type" : "AMFile",
                                "src" : 1,
                                "trackNumber" : 1,
                                "attributes" : {
                                  "ident" : "",
                                  "gain" : 1.0,
                                  "mixToMono" : false
                                },
                                  "channelNumber" : "0,1",
                                "effects" : [

                                ],
                                "start" : 1475,
                                "duration" : 64,
                                "mediaStart" : 2409,
                                "mediaDuration" : 64,
                                "scalar" : 1,
                                "animationTracks" : {

                                }
                              }
,
                          "start" : 1475,
                          "duration" : 64,
                          "mediaStart" : 0,
                          "mediaDuration" : 10411,
                          "scalar" : 1,
                          "metadata" : {
                            "AutoAppliedSmartFocus" : "False",
                            "clipSpeedAttribute" : false
                          }
                        },
                        {
                          "id" : 1139,
                          "_type" : "UnifiedMedia",
                          "video" : 
                              {
                                "id" : 1140,
                                "_type" : "ScreenVMFile",
                                "src" : 1,
                                "trackNumber" : 0,
                                "attributes" : {
                                  "ident" : "Rec 01-28-21_001"
                                },
                                "parameters" : {
                                  "cursorScale" : {
                                    "type" : "double",
                                    "defaultValue" : 0.0,
                                    "interp" : "linr"
                                  },
                                  "cursorOpacity" : {
                                    "type" : "double",
                                    "defaultValue" : 0.0,
                                    "interp" : "linr"
                                  }
                                },
                                "effects" : [

                                ],
                                "start" : 1539,
                                "duration" : 43,
                                "mediaStart" : 2478,
                                "mediaDuration" : 43,
                                "scalar" : 1,
                                "animationTracks" : {

                                }
                              },
                          "audio" : 
                              {
                                "id" : 1141,
                                "_type" : "AMFile",
                                "src" : 1,
                                "trackNumber" : 1,
                                "attributes" : {
                                  "ident" : "",
                                  "gain" : 1.0,
                                  "mixToMono" : false
                                },
                                  "channelNumber" : "0,1",
                                "effects" : [

                                ],
                                "start" : 1539,
                                "duration" : 43,
                                "mediaStart" : 2478,
                                "mediaDuration" : 43,
                                "scalar" : 1,
                                "animationTracks" : {

                                }
                              }
,
                          "start" : 1539,
                          "duration" : 43,
                          "mediaStart" : 0,
                          "mediaDuration" : 10411,
                          "scalar" : 1,
                          "metadata" : {
                            "AutoAppliedSmartFocus" : "False",
                            "clipSpeedAttribute" : false
                          }
                        },
                        {
                          "id" : 1142,
                          "_type" : "UnifiedMedia",
                          "video" : 
                              {
                                "id" : 1143,
                                "_type" : "ScreenVMFile",
                                "src" : 1,
                                "trackNumber" : 0,
                                "attributes" : {
                                  "ident" : "Rec 01-28-21_001"
                                },
                                "parameters" : {
                                  "cursorScale" : {
                                    "type" : "double",
                                    "defaultValue" : 0.0,
                                    "interp" : "linr"
                                  },
                                  "cursorOpacity" : {
                                    "type" : "double",
                                    "defaultValue" : 0.0,
                                    "interp" : "linr"
                                  }
                                },
                                "effects" : [

                                ],
                                "start" : 1582,
                                "duration" : 47,
                                "mediaStart" : 2538,
                                "mediaDuration" : 47,
                                "scalar" : 1,
                                "animationTracks" : {

                                }
                              },
                          "audio" : 
                              {
                                "id" : 1144,
                                "_type" : "AMFile",
                                "src" : 1,
                                "trackNumber" : 1,
                                "attributes" : {
                                  "ident" : "",
                                  "gain" : 1.0,
                                  "mixToMono" : false
                                },
                                  "channelNumber" : "0,1",
                                "effects" : [

                                ],
                                "start" : 1582,
                                "duration" : 47,
                                "mediaStart" : 2538,
                                "mediaDuration" : 47,
                                "scalar" : 1,
                                "animationTracks" : {

                                }
                              }
,
                          "start" : 1582,
                          "duration" : 47,
                          "mediaStart" : 0,
                          "mediaDuration" : 10411,
                          "scalar" : 1,
                          "metadata" : {
                            "AutoAppliedSmartFocus" : "False",
                            "clipSpeedAttribute" : false
                          }
                        },
                        {
                          "id" : 1145,
                          "_type" : "UnifiedMedia",
                          "video" : 
                              {
                                "id" : 1146,
                                "_type" : "ScreenVMFile",
                                "src" : 1,
                                "trackNumber" : 0,
                                "attributes" : {
                                  "ident" : "Rec 01-28-21_001"
                                },
                                "parameters" : {
                                  "cursorScale" : {
                                    "type" : "double",
                                    "defaultValue" : 0.0,
                                    "interp" : "linr"
                                  },
                                  "cursorOpacity" : {
                                    "type" : "double",
                                    "defaultValue" : 0.0,
                                    "interp" : "linr"
                                  }
                                },
                                "effects" : [

                                ],
                                "start" : 1629,
                                "duration" : 299,
                                "mediaStart" : 2613,
                                "mediaDuration" : 299,
                                "scalar" : 1,
                                "animationTracks" : {

                                }
                              },
                          "audio" : 
                              {
                                "id" : 1147,
                                "_type" : "AMFile",
                                "src" : 1,
                                "trackNumber" : 1,
                                "attributes" : {
                                  "ident" : "",
                                  "gain" : 1.0,
                                  "mixToMono" : false
                                },
                                  "channelNumber" : "0,1",
                                "effects" : [

                                ],
                                "start" : 1629,
                                "duration" : 299,
                                "mediaStart" : 2613,
                                "mediaDuration" : 299,
                                "scalar" : 1,
                                "animationTracks" : {

                                }
                              }
,
                          "start" : 1629,
                          "duration" : 299,
                          "mediaStart" : 0,
                          "mediaDuration" : 10411,
                          "scalar" : 1,
                          "metadata" : {
                            "AutoAppliedSmartFocus" : "False",
                            "clipSpeedAttribute" : false
                          }
                        },
                        {
                          "id" : 1148,
                          "_type" : "UnifiedMedia",
                          "video" : 
                              {
                                "id" : 1149,
                                "_type" : "ScreenVMFile",
                                "src" : 1,
                                "trackNumber" : 0,
                                "attributes" : {
                                  "ident" : "Rec 01-28-21_001"
                                },
                                "parameters" : {
                                  "cursorScale" : {
                                    "type" : "double",
                                    "defaultValue" : 0.0,
                                    "interp" : "linr"
                                  },
                                  "cursorOpacity" : {
                                    "type" : "double",
                                    "defaultValue" : 0.0,
                                    "interp" : "linr"
                                  }
                                },
                                "effects" : [

                                ],
                                "start" : 1928,
                                "duration" : 53,
                                "mediaStart" : 3209,
                                "mediaDuration" : 53,
                                "scalar" : 1,
                                "animationTracks" : {

                                }
                              },
                          "audio" : 
                              {
                                "id" : 1150,
                                "_type" : "AMFile",
                                "src" : 1,
                                "trackNumber" : 1,
                                "attributes" : {
                                  "ident" : "",
                                  "gain" : 1.0,
                                  "mixToMono" : false
                                },
                                  "channelNumber" : "0,1",
                                "effects" : [

                                ],
                                "start" : 1928,
                                "duration" : 53,
                                "mediaStart" : 3209,
                                "mediaDuration" : 53,
                                "scalar" : 1,
                                "animationTracks" : {

                                }
                              }
,
                          "start" : 1928,
                          "duration" : 53,
                          "mediaStart" : 0,
                          "mediaDuration" : 10411,
                          "scalar" : 1,
                          "metadata" : {
                            "AutoAppliedSmartFocus" : "False",
                            "clipSpeedAttribute" : false
                          }
                        },
                        {
                          "id" : 1151,
                          "_type" : "UnifiedMedia",
                          "video" : 
                              {
                                "id" : 1152,
                                "_type" : "ScreenVMFile",
                                "src" : 1,
                                "trackNumber" : 0,
                                "attributes" : {
                                  "ident" : "Rec 01-28-21_001"
                                },
                                "parameters" : {
                                  "cursorScale" : {
                                    "type" : "double",
                                    "defaultValue" : 0.0,
                                    "interp" : "linr"
                                  },
                                  "cursorOpacity" : {
                                    "type" : "double",
                                    "defaultValue" : 0.0,
                                    "interp" : "linr"
                                  }
                                },
                                "effects" : [

                                ],
                                "start" : 1981,
                                "duration" : 47,
                                "mediaStart" : 3282,
                                "mediaDuration" : 47,
                                "scalar" : 1,
                                "animationTracks" : {

                                }
                              },
                          "audio" : 
                              {
                                "id" : 1153,
                                "_type" : "AMFile",
                                "src" : 1,
                                "trackNumber" : 1,
                                "attributes" : {
                                  "ident" : "",
                                  "gain" : 1.0,
                                  "mixToMono" : false
                                },
                                  "channelNumber" : "0,1",
                                "effects" : [

                                ],
                                "start" : 1981,
                                "duration" : 47,
                                "mediaStart" : 3282,
                                "mediaDuration" : 47,
                                "scalar" : 1,
                                "animationTracks" : {

                                }
                              }
,
                          "start" : 1981,
                          "duration" : 47,
                          "mediaStart" : 0,
                          "mediaDuration" : 10411,
                          "scalar" : 1,
                          "metadata" : {
                            "AutoAppliedSmartFocus" : "False",
                            "clipSpeedAttribute" : false
                          }
                        },
                        {
                          "id" : 1154,
                          "_type" : "UnifiedMedia",
                          "video" : 
                              {
                                "id" : 1155,
                                "_type" : "ScreenVMFile",
                                "src" : 1,
                                "trackNumber" : 0,
                                "attributes" : {
                                  "ident" : "Rec 01-28-21_001"
                                },
                                "parameters" : {
                                  "cursorScale" : {
                                    "type" : "double",
                                    "defaultValue" : 0.0,
                                    "interp" : "linr"
                                  },
                                  "cursorOpacity" : {
                                    "type" : "double",
                                    "defaultValue" : 0.0,
                                    "interp" : "linr"
                                  }
                                },
                                "effects" : [

                                ],
                                "start" : 2028,
                                "duration" : 103,
                                "mediaStart" : 3341,
                                "mediaDuration" : 103,
                                "scalar" : 1,
                                "animationTracks" : {

                                }
                              },
                          "audio" : 
                              {
                                "id" : 1156,
                                "_type" : "AMFile",
                                "src" : 1,
                                "trackNumber" : 1,
                                "attributes" : {
                                  "ident" : "",
                                  "gain" : 1.0,
                                  "mixToMono" : false
                                },
                                  "channelNumber" : "0,1",
                                "effects" : [

                                ],
                                "start" : 2028,
                                "duration" : 103,
                                "mediaStart" : 3341,
                                "mediaDuration" : 103,
                                "scalar" : 1,
                                "animationTracks" : {

                                }
                              }
,
                          "start" : 2028,
                          "duration" : 103,
                          "mediaStart" : 0,
                          "mediaDuration" : 10411,
                          "scalar" : 1,
                          "metadata" : {
                            "AutoAppliedSmartFocus" : "False",
                            "clipSpeedAttribute" : false
                          }
                        },
                        {
                          "id" : 1157,
                          "_type" : "UnifiedMedia",
                          "video" : 
                              {
                                "id" : 1158,
                                "_type" : "ScreenVMFile",
                                "src" : 1,
                                "trackNumber" : 0,
                                "attributes" : {
                                  "ident" : "Rec 01-28-21_001"
                                },
                                "parameters" : {
                                  "cursorScale" : {
                                    "type" : "double",
                                    "defaultValue" : 0.0,
                                    "interp" : "linr"
                                  },
                                  "cursorOpacity" : {
                                    "type" : "double",
                                    "defaultValue" : 0.0,
                                    "interp" : "linr"
                                  }
                                },
                                "effects" : [

                                ],
                                "start" : 2131,
                                "duration" : 26,
                                "mediaStart" : 3468,
                                "mediaDuration" : 26,
                                "scalar" : 1,
                                "animationTracks" : {

                                }
                              },
                          "audio" : 
                              {
                                "id" : 1159,
                                "_type" : "AMFile",
                                "src" : 1,
                                "trackNumber" : 1,
                                "attributes" : {
                                  "ident" : "",
                                  "gain" : 1.0,
                                  "mixToMono" : false
                                },
                                  "channelNumber" : "0,1",
                                "effects" : [

                                ],
                                "start" : 2131,
                                "duration" : 26,
                                "mediaStart" : 3468,
                                "mediaDuration" : 26,
                                "scalar" : 1,
                                "animationTracks" : {

                                }
                              }
,
                          "start" : 2131,
                          "duration" : 26,
                          "mediaStart" : 0,
                          "mediaDuration" : 10411,
                          "scalar" : 1,
                          "metadata" : {
                            "AutoAppliedSmartFocus" : "False",
                            "clipSpeedAttribute" : false
                          }
                        },
                        {
                          "id" : 1160,
                          "_type" : "UnifiedMedia",
                          "video" : 
                              {
                                "id" : 1161,
                                "_type" : "ScreenVMFile",
                                "src" : 1,
                                "trackNumber" : 0,
                                "attributes" : {
                                  "ident" : "Rec 01-28-21_001"
                                },
                                "parameters" : {
                                  "cursorScale" : {
                                    "type" : "double",
                                    "defaultValue" : 0.0,
                                    "interp" : "linr"
                                  },
                                  "cursorOpacity" : {
                                    "type" : "double",
                                    "defaultValue" : 0.0,
                                    "interp" : "linr"
                                  }
                                },
                                "effects" : [

                                ],
                                "start" : 2157,
                                "duration" : 41,
                                "mediaStart" : 3504,
                                "mediaDuration" : 41,
                                "scalar" : 1,
                                "animationTracks" : {

                                }
                              },
                          "audio" : 
                              {
                                "id" : 1162,
                                "_type" : "AMFile",
                                "src" : 1,
                                "trackNumber" : 1,
                                "attributes" : {
                                  "ident" : "",
                                  "gain" : 1.0,
                                  "mixToMono" : false
                                },
                                  "channelNumber" : "0,1",
                                "effects" : [

                                ],
                                "start" : 2157,
                                "duration" : 41,
                                "mediaStart" : 3504,
                                "mediaDuration" : 41,
                                "scalar" : 1,
                                "animationTracks" : {

                                }
                              }
,
                          "start" : 2157,
                          "duration" : 41,
                          "mediaStart" : 0,
                          "mediaDuration" : 10411,
                          "scalar" : 1,
                          "metadata" : {
                            "AutoAppliedSmartFocus" : "False",
                            "clipSpeedAttribute" : false
                          }
                        },
                        {
                          "id" : 1163,
                          "_type" : "UnifiedMedia",
                          "video" : 
                              {
                                "id" : 1164,
                                "_type" : "ScreenVMFile",
                                "src" : 1,
                                "trackNumber" : 0,
                                "attributes" : {
                                  "ident" : "Rec 01-28-21_001"
                                },
                                "parameters" : {
                                  "cursorScale" : {
                                    "type" : "double",
                                    "defaultValue" : 0.0,
                                    "interp" : "linr"
                                  },
                                  "cursorOpacity" : {
                                    "type" : "double",
                                    "defaultValue" : 0.0,
                                    "interp" : "linr"
                                  }
                                },
                                "effects" : [

                                ],
                                "start" : 2198,
                                "duration" : 108,
                                "mediaStart" : 3657,
                                "mediaDuration" : 108,
                                "scalar" : 1,
                                "animationTracks" : {

                                }
                              },
                          "audio" : 
                              {
                                "id" : 1165,
                                "_type" : "AMFile",
                                "src" : 1,
                                "trackNumber" : 1,
                                "attributes" : {
                                  "ident" : "",
                                  "gain" : 1.0,
                                  "mixToMono" : false
                                },
                                  "channelNumber" : "0,1",
                                "effects" : [

                                ],
                                "start" : 2198,
                                "duration" : 108,
                                "mediaStart" : 3657,
                                "mediaDuration" : 108,
                                "scalar" : 1,
                                "animationTracks" : {

                                }
                              }
,
                          "start" : 2198,
                          "duration" : 108,
                          "mediaStart" : 0,
                          "mediaDuration" : 10411,
                          "scalar" : 1,
                          "metadata" : {
                            "AutoAppliedSmartFocus" : "False",
                            "clipSpeedAttribute" : false
                          }
                        },
                        {
                          "id" : 1166,
                          "_type" : "UnifiedMedia",
                          "video" : 
                              {
                                "id" : 1167,
                                "_type" : "ScreenVMFile",
                                "src" : 1,
                                "trackNumber" : 0,
                                "attributes" : {
                                  "ident" : "Rec 01-28-21_001"
                                },
                                "parameters" : {
                                  "cursorScale" : {
                                    "type" : "double",
                                    "defaultValue" : 0.0,
                                    "interp" : "linr"
                                  },
                                  "cursorOpacity" : {
                                    "type" : "double",
                                    "defaultValue" : 0.0,
                                    "interp" : "linr"
                                  }
                                },
                                "effects" : [

                                ],
                                "start" : 2306,
                                "duration" : 124,
                                "mediaStart" : 3787,
                                "mediaDuration" : 124,
                                "scalar" : 1,
                                "animationTracks" : {

                                }
                              },
                          "audio" : 
                              {
                                "id" : 1168,
                                "_type" : "AMFile",
                                "src" : 1,
                                "trackNumber" : 1,
                                "attributes" : {
                                  "ident" : "",
                                  "gain" : 1.0,
                                  "mixToMono" : false
                                },
                                  "channelNumber" : "0,1",
                                "effects" : [

                                ],
                                "start" : 2306,
                                "duration" : 124,
                                "mediaStart" : 3787,
                                "mediaDuration" : 124,
                                "scalar" : 1,
                                "animationTracks" : {

                                }
                              }
,
                          "start" : 2306,
                          "duration" : 124,
                          "mediaStart" : 0,
                          "mediaDuration" : 10411,
                          "scalar" : 1,
                          "metadata" : {
                            "AutoAppliedSmartFocus" : "False",
                            "clipSpeedAttribute" : false
                          }
                        },
                        {
                          "id" : 1169,
                          "_type" : "UnifiedMedia",
                          "video" : 
                              {
                                "id" : 1170,
                                "_type" : "ScreenVMFile",
                                "src" : 1,
                                "trackNumber" : 0,
                                "attributes" : {
                                  "ident" : "Rec 01-28-21_001"
                                },
                                "parameters" : {
                                  "cursorScale" : {
                                    "type" : "double",
                                    "defaultValue" : 0.0,
                                    "interp" : "linr"
                                  },
                                  "cursorOpacity" : {
                                    "type" : "double",
                                    "defaultValue" : 0.0,
                                    "interp" : "linr"
                                  }
                                },
                                "effects" : [

                                ],
                                "start" : 2430,
                                "duration" : 282,
                                "mediaStart" : 3991,
                                "mediaDuration" : 282,
                                "scalar" : 1,
                                "animationTracks" : {

                                }
                              },
                          "audio" : 
                              {
                                "id" : 1171,
                                "_type" : "AMFile",
                                "src" : 1,
                                "trackNumber" : 1,
                                "attributes" : {
                                  "ident" : "",
                                  "gain" : 1.0,
                                  "mixToMono" : false
                                },
                                  "channelNumber" : "0,1",
                                "effects" : [

                                ],
                                "start" : 2430,
                                "duration" : 282,
                                "mediaStart" : 3991,
                                "mediaDuration" : 282,
                                "scalar" : 1,
                                "animationTracks" : {

                                }
                              }
,
                          "start" : 2430,
                          "duration" : 282,
                          "mediaStart" : 0,
                          "mediaDuration" : 10411,
                          "scalar" : 1,
                          "metadata" : {
                            "AutoAppliedSmartFocus" : "False",
                            "clipSpeedAttribute" : false
                          }
                        },
                        {
                          "id" : 1172,
                          "_type" : "UnifiedMedia",
                          "video" : 
                              {
                                "id" : 1173,
                                "_type" : "ScreenVMFile",
                                "src" : 1,
                                "trackNumber" : 0,
                                "attributes" : {
                                  "ident" : "Rec 01-28-21_001"
                                },
                                "parameters" : {
                                  "cursorScale" : {
                                    "type" : "double",
                                    "defaultValue" : 0.0,
                                    "interp" : "linr"
                                  },
                                  "cursorOpacity" : {
                                    "type" : "double",
                                    "defaultValue" : 0.0,
                                    "interp" : "linr"
                                  }
                                },
                                "effects" : [

                                ],
                                "start" : 2712,
                                "duration" : 205,
                                "mediaStart" : 4397,
                                "mediaDuration" : 205,
                                "scalar" : 1,
                                "animationTracks" : {

                                }
                              },
                          "audio" : 
                              {
                                "id" : 1174,
                                "_type" : "AMFile",
                                "src" : 1,
                                "trackNumber" : 1,
                                "attributes" : {
                                  "ident" : "",
                                  "gain" : 1.0,
                                  "mixToMono" : false
                                },
                                  "channelNumber" : "0,1",
                                "effects" : [

                                ],
                                "start" : 2712,
                                "duration" : 205,
                                "mediaStart" : 4397,
                                "mediaDuration" : 205,
                                "scalar" : 1,
                                "animationTracks" : {

                                }
                              }
,
                          "start" : 2712,
                          "duration" : 205,
                          "mediaStart" : 0,
                          "mediaDuration" : 10411,
                          "scalar" : 1,
                          "metadata" : {
                            "AutoAppliedSmartFocus" : "False",
                            "clipSpeedAttribute" : false
                          }
                        },
                        {
                          "id" : 1175,
                          "_type" : "UnifiedMedia",
                          "video" : 
                              {
                                "id" : 1176,
                                "_type" : "ScreenVMFile",
                                "src" : 1,
                                "trackNumber" : 0,
                                "attributes" : {
                                  "ident" : "Rec 01-28-21_001"
                                },
                                "parameters" : {
                                  "cursorScale" : {
                                    "type" : "double",
                                    "defaultValue" : 0.0,
                                    "interp" : "linr"
                                  },
                                  "cursorOpacity" : {
                                    "type" : "double",
                                    "defaultValue" : 0.0,
                                    "interp" : "linr"
                                  }
                                },
                                "effects" : [

                                ],
                                "start" : 2917,
                                "duration" : 61,
                                "mediaStart" : 4960,
                                "mediaDuration" : 61,
                                "scalar" : 1,
                                "animationTracks" : {

                                }
                              },
                          "audio" : 
                              {
                                "id" : 1177,
                                "_type" : "AMFile",
                                "src" : 1,
                                "trackNumber" : 1,
                                "attributes" : {
                                  "ident" : "",
                                  "gain" : 1.0,
                                  "mixToMono" : false
                                },
                                  "channelNumber" : "0,1",
                                "effects" : [

                                ],
                                "start" : 2917,
                                "duration" : 61,
                                "mediaStart" : 4960,
                                "mediaDuration" : 61,
                                "scalar" : 1,
                                "animationTracks" : {

                                }
                              }
,
                          "start" : 2917,
                          "duration" : 61,
                          "mediaStart" : 0,
                          "mediaDuration" : 10411,
                          "scalar" : 1,
                          "metadata" : {
                            "AutoAppliedSmartFocus" : "False",
                            "clipSpeedAttribute" : false
                          }
                        },
                        {
                          "id" : 1178,
                          "_type" : "UnifiedMedia",
                          "video" : 
                              {
                                "id" : 1179,
                                "_type" : "ScreenVMFile",
                                "src" : 1,
                                "trackNumber" : 0,
                                "attributes" : {
                                  "ident" : "Rec 01-28-21_001"
                                },
                                "parameters" : {
                                  "cursorScale" : {
                                    "type" : "double",
                                    "defaultValue" : 0.0,
                                    "interp" : "linr"
                                  },
                                  "cursorOpacity" : {
                                    "type" : "double",
                                    "defaultValue" : 0.0,
                                    "interp" : "linr"
                                  }
                                },
                                "effects" : [

                                ],
                                "start" : 2978,
                                "duration" : 172,
                                "mediaStart" : 5035,
                                "mediaDuration" : 172,
                                "scalar" : 1,
                                "animationTracks" : {

                                }
                              },
                          "audio" : 
                              {
                                "id" : 1180,
                                "_type" : "AMFile",
                                "src" : 1,
                                "trackNumber" : 1,
                                "attributes" : {
                                  "ident" : "",
                                  "gain" : 1.0,
                                  "mixToMono" : false
                                },
                                  "channelNumber" : "0,1",
                                "effects" : [

                                ],
                                "start" : 2978,
                                "duration" : 172,
                                "mediaStart" : 5035,
                                "mediaDuration" : 172,
                                "scalar" : 1,
                                "animationTracks" : {

                                }
                              }
,
                          "start" : 2978,
                          "duration" : 172,
                          "mediaStart" : 0,
                          "mediaDuration" : 10411,
                          "scalar" : 1,
                          "metadata" : {
                            "AutoAppliedSmartFocus" : "False",
                            "clipSpeedAttribute" : false
                          }
                        },
                        {
                          "id" : 1181,
                          "_type" : "UnifiedMedia",
                          "video" : 
                              {
                                "id" : 1182,
                                "_type" : "ScreenVMFile",
                                "src" : 1,
                                "trackNumber" : 0,
                                "attributes" : {
                                  "ident" : "Rec 01-28-21_001"
                                },
                                "parameters" : {
                                  "cursorScale" : {
                                    "type" : "double",
                                    "defaultValue" : 0.0,
                                    "interp" : "linr"
                                  },
                                  "cursorOpacity" : {
                                    "type" : "double",
                                    "defaultValue" : 0.0,
                                    "interp" : "linr"
                                  }
                                },
                                "effects" : [

                                ],
                                "start" : 3150,
                                "duration" : 199,
                                "mediaStart" : 5255,
                                "mediaDuration" : 199,
                                "scalar" : 1,
                                "animationTracks" : {

                                }
                              },
                          "audio" : 
                              {
                                "id" : 1183,
                                "_type" : "AMFile",
                                "src" : 1,
                                "trackNumber" : 1,
                                "attributes" : {
                                  "ident" : "",
                                  "gain" : 1.0,
                                  "mixToMono" : false
                                },
                                  "channelNumber" : "0,1",
                                "effects" : [

                                ],
                                "start" : 3150,
                                "duration" : 199,
                                "mediaStart" : 5255,
                                "mediaDuration" : 199,
                                "scalar" : 1,
                                "animationTracks" : {

                                }
                              }
,
                          "start" : 3150,
                          "duration" : 199,
                          "mediaStart" : 0,
                          "mediaDuration" : 10411,
                          "scalar" : 1,
                          "metadata" : {
                            "AutoAppliedSmartFocus" : "False",
                            "clipSpeedAttribute" : false
                          }
                        },
                        {
                          "id" : 1184,
                          "_type" : "UnifiedMedia",
                          "video" : 
                              {
                                "id" : 1185,
                                "_type" : "ScreenVMFile",
                                "src" : 1,
                                "trackNumber" : 0,
                                "attributes" : {
                                  "ident" : "Rec 01-28-21_001"
                                },
                                "parameters" : {
                                  "cursorScale" : {
                                    "type" : "double",
                                    "defaultValue" : 0.0,
                                    "interp" : "linr"
                                  },
                                  "cursorOpacity" : {
                                    "type" : "double",
                                    "defaultValue" : 0.0,
                                    "interp" : "linr"
                                  }
                                },
                                "effects" : [

                                ],
                                "start" : 3349,
                                "duration" : 150,
                                "mediaStart" : 5507,
                                "mediaDuration" : 150,
                                "scalar" : 1,
                                "animationTracks" : {

                                }
                              },
                          "audio" : 
                              {
                                "id" : 1186,
                                "_type" : "AMFile",
                                "src" : 1,
                                "trackNumber" : 1,
                                "attributes" : {
                                  "ident" : "",
                                  "gain" : 1.0,
                                  "mixToMono" : false
                                },
                                  "channelNumber" : "0,1",
                                "effects" : [

                                ],
                                "start" : 3349,
                                "duration" : 150,
                                "mediaStart" : 5507,
                                "mediaDuration" : 150,
                                "scalar" : 1,
                                "animationTracks" : {

                                }
                              }
,
                          "start" : 3349,
                          "duration" : 150,
                          "mediaStart" : 0,
                          "mediaDuration" : 10411,
                          "scalar" : 1,
                          "metadata" : {
                            "AutoAppliedSmartFocus" : "False",
                            "clipSpeedAttribute" : false
                          }
                        },
                        {
                          "id" : 1187,
                          "_type" : "UnifiedMedia",
                          "video" : 
                              {
                                "id" : 1188,
                                "_type" : "ScreenVMFile",
                                "src" : 1,
                                "trackNumber" : 0,
                                "attributes" : {
                                  "ident" : "Rec 01-28-21_001"
                                },
                                "parameters" : {
                                  "cursorScale" : {
                                    "type" : "double",
                                    "defaultValue" : 0.0,
                                    "interp" : "linr"
                                  },
                                  "cursorOpacity" : {
                                    "type" : "double",
                                    "defaultValue" : 0.0,
                                    "interp" : "linr"
                                  }
                                },
                                "effects" : [

                                ],
                                "start" : 3499,
                                "duration" : 336,
                                "mediaStart" : 6158,
                                "mediaDuration" : 336,
                                "scalar" : 1,
                                "animationTracks" : {

                                }
                              },
                          "audio" : 
                              {
                                "id" : 1189,
                                "_type" : "AMFile",
                                "src" : 1,
                                "trackNumber" : 1,
                                "attributes" : {
                                  "ident" : "",
                                  "gain" : 1.0,
                                  "mixToMono" : false
                                },
                                  "channelNumber" : "0,1",
                                "effects" : [

                                ],
                                "start" : 3499,
                                "duration" : 336,
                                "mediaStart" : 6158,
                                "mediaDuration" : 336,
                                "scalar" : 1,
                                "animationTracks" : {

                                }
                              }
,
                          "start" : 3499,
                          "duration" : 336,
                          "mediaStart" : 0,
                          "mediaDuration" : 10411,
                          "scalar" : 1,
                          "metadata" : {
                            "AutoAppliedSmartFocus" : "False",
                            "clipSpeedAttribute" : false
                          }
                        },
                        {
                          "id" : 1190,
                          "_type" : "UnifiedMedia",
                          "video" : 
                              {
                                "id" : 1191,
                                "_type" : "ScreenVMFile",
                                "src" : 1,
                                "trackNumber" : 0,
                                "attributes" : {
                                  "ident" : "Rec 01-28-21_001"
                                },
                                "parameters" : {
                                  "cursorScale" : {
                                    "type" : "double",
                                    "defaultValue" : 0.0,
                                    "interp" : "linr"
                                  },
                                  "cursorOpacity" : {
                                    "type" : "double",
                                    "defaultValue" : 0.0,
                                    "interp" : "linr"
                                  }
                                },
                                "effects" : [

                                ],
                                "start" : 3835,
                                "duration" : 73,
                                "mediaStart" : 6577,
                                "mediaDuration" : 73,
                                "scalar" : 1,
                                "animationTracks" : {

                                }
                              },
                          "audio" : 
                              {
                                "id" : 1192,
                                "_type" : "AMFile",
                                "src" : 1,
                                "trackNumber" : 1,
                                "attributes" : {
                                  "ident" : "",
                                  "gain" : 1.0,
                                  "mixToMono" : false
                                },
                                  "channelNumber" : "0,1",
                                "effects" : [

                                ],
                                "start" : 3835,
                                "duration" : 73,
                                "mediaStart" : 6577,
                                "mediaDuration" : 73,
                                "scalar" : 1,
                                "animationTracks" : {

                                }
                              }
,
                          "start" : 3835,
                          "duration" : 73,
                          "mediaStart" : 0,
                          "mediaDuration" : 10411,
                          "scalar" : 1,
                          "metadata" : {
                            "AutoAppliedSmartFocus" : "False",
                            "clipSpeedAttribute" : false
                          }
                        },
                        {
                          "id" : 1193,
                          "_type" : "UnifiedMedia",
                          "video" : 
                              {
                                "id" : 1194,
                                "_type" : "ScreenVMFile",
                                "src" : 1,
                                "trackNumber" : 0,
                                "attributes" : {
                                  "ident" : "Rec 01-28-21_001"
                                },
                                "parameters" : {
                                  "cursorScale" : {
                                    "type" : "double",
                                    "defaultValue" : 0.0,
                                    "interp" : "linr"
                                  },
                                  "cursorOpacity" : {
                                    "type" : "double",
                                    "defaultValue" : 0.0,
                                    "interp" : "linr"
                                  }
                                },
                                "effects" : [

                                ],
                                "start" : 3908,
                                "duration" : 401,
                                "mediaStart" : 6679,
                                "mediaDuration" : 401,
                                "scalar" : 1,
                                "animationTracks" : {

                                }
                              },
                          "audio" : 
                              {
                                "id" : 1195,
                                "_type" : "AMFile",
                                "src" : 1,
                                "trackNumber" : 1,
                                "attributes" : {
                                  "ident" : "",
                                  "gain" : 1.0,
                                  "mixToMono" : false
                                },
                                  "channelNumber" : "0,1",
                                "effects" : [

                                ],
                                "start" : 3908,
                                "duration" : 401,
                                "mediaStart" : 6679,
                                "mediaDuration" : 401,
                                "scalar" : 1,
                                "animationTracks" : {

                                }
                              }
,
                          "start" : 3908,
                          "duration" : 401,
                          "mediaStart" : 0,
                          "mediaDuration" : 10411,
                          "scalar" : 1,
                          "metadata" : {
                            "AutoAppliedSmartFocus" : "False",
                            "clipSpeedAttribute" : false
                          }
                        },
                        {
                          "id" : 1196,
                          "_type" : "UnifiedMedia",
                          "video" : 
                              {
                                "id" : 1197,
                                "_type" : "ScreenVMFile",
                                "src" : 1,
                                "trackNumber" : 0,
                                "attributes" : {
                                  "ident" : "Rec 01-28-21_001"
                                },
                                "parameters" : {
                                  "cursorScale" : {
                                    "type" : "double",
                                    "defaultValue" : 0.0,
                                    "interp" : "linr"
                                  },
                                  "cursorOpacity" : {
                                    "type" : "double",
                                    "defaultValue" : 0.0,
                                    "interp" : "linr"
                                  }
                                },
                                "effects" : [

                                ],
                                "start" : 4309,
                                "duration" : 98,
                                "mediaStart" : 7143,
                                "mediaDuration" : 98,
                                "scalar" : 1,
                                "animationTracks" : {

                                }
                              },
                          "audio" : 
                              {
                                "id" : 1198,
                                "_type" : "AMFile",
                                "src" : 1,
                                "trackNumber" : 1,
                                "attributes" : {
                                  "ident" : "",
                                  "gain" : 1.0,
                                  "mixToMono" : false
                                },
                                  "channelNumber" : "0,1",
                                "effects" : [

                                ],
                                "start" : 4309,
                                "duration" : 98,
                                "mediaStart" : 7143,
                                "mediaDuration" : 98,
                                "scalar" : 1,
                                "animationTracks" : {

                                }
                              }
,
                          "start" : 4309,
                          "duration" : 98,
                          "mediaStart" : 0,
                          "mediaDuration" : 10411,
                          "scalar" : 1,
                          "metadata" : {
                            "AutoAppliedSmartFocus" : "False",
                            "clipSpeedAttribute" : false
                          }
                        },
                        {
                          "id" : 1199,
                          "_type" : "UnifiedMedia",
                          "video" : 
                              {
                                "id" : 1200,
                                "_type" : "ScreenVMFile",
                                "src" : 1,
                                "trackNumber" : 0,
                                "attributes" : {
                                  "ident" : "Rec 01-28-21_001"
                                },
                                "parameters" : {
                                  "cursorScale" : {
                                    "type" : "double",
                                    "defaultValue" : 0.0,
                                    "interp" : "linr"
                                  },
                                  "cursorOpacity" : {
                                    "type" : "double",
                                    "defaultValue" : 0.0,
                                    "interp" : "linr"
                                  }
                                },
                                "effects" : [

                                ],
                                "start" : 4407,
                                "duration" : 108,
                                "mediaStart" : 7264,
                                "mediaDuration" : 108,
                                "scalar" : 1,
                                "animationTracks" : {

                                }
                              },
                          "audio" : 
                              {
                                "id" : 1201,
                                "_type" : "AMFile",
                                "src" : 1,
                                "trackNumber" : 1,
                                "attributes" : {
                                  "ident" : "",
                                  "gain" : 1.0,
                                  "mixToMono" : false
                                },
                                  "channelNumber" : "0,1",
                                "effects" : [

                                ],
                                "start" : 4407,
                                "duration" : 108,
                                "mediaStart" : 7264,
                                "mediaDuration" : 108,
                                "scalar" : 1,
                                "animationTracks" : {

                                }
                              }
,
                          "start" : 4407,
                          "duration" : 108,
                          "mediaStart" : 0,
                          "mediaDuration" : 10411,
                          "scalar" : 1,
                          "metadata" : {
                            "AutoAppliedSmartFocus" : "False",
                            "clipSpeedAttribute" : false
                          }
                        },
                        {
                          "id" : 1202,
                          "_type" : "UnifiedMedia",
                          "video" : 
                              {
                                "id" : 1203,
                                "_type" : "ScreenVMFile",
                                "src" : 1,
                                "trackNumber" : 0,
                                "attributes" : {
                                  "ident" : "Rec 01-28-21_001"
                                },
                                "parameters" : {
                                  "cursorScale" : {
                                    "type" : "double",
                                    "defaultValue" : 0.0,
                                    "interp" : "linr"
                                  },
                                  "cursorOpacity" : {
                                    "type" : "double",
                                    "defaultValue" : 0.0,
                                    "interp" : "linr"
                                  }
                                },
                                "effects" : [

                                ],
                                "start" : 4515,
                                "duration" : 66,
                                "mediaStart" : 7571,
                                "mediaDuration" : 66,
                                "scalar" : 1,
                                "animationTracks" : {

                                }
                              },
                          "audio" : 
                              {
                                "id" : 1204,
                                "_type" : "AMFile",
                                "src" : 1,
                                "trackNumber" : 1,
                                "attributes" : {
                                  "ident" : "",
                                  "gain" : 1.0,
                                  "mixToMono" : false
                                },
                                  "channelNumber" : "0,1",
                                "effects" : [

                                ],
                                "start" : 4515,
                                "duration" : 66,
                                "mediaStart" : 7571,
                                "mediaDuration" : 66,
                                "scalar" : 1,
                                "animationTracks" : {

                                }
                              }
,
                          "start" : 4515,
                          "duration" : 66,
                          "mediaStart" : 0,
                          "mediaDuration" : 10411,
                          "scalar" : 1,
                          "metadata" : {
                            "AutoAppliedSmartFocus" : "False",
                            "clipSpeedAttribute" : false
                          }
                        },
                        {
                          "id" : 1205,
                          "_type" : "UnifiedMedia",
                          "video" : 
                              {
                                "id" : 1206,
                                "_type" : "ScreenVMFile",
                                "src" : 1,
                                "trackNumber" : 0,
                                "attributes" : {
                                  "ident" : "Rec 01-28-21_001"
                                },
                                "parameters" : {
                                  "cursorScale" : {
                                    "type" : "double",
                                    "defaultValue" : 0.0,
                                    "interp" : "linr"
                                  },
                                  "cursorOpacity" : {
                                    "type" : "double",
                                    "defaultValue" : 0.0,
                                    "interp" : "linr"
                                  }
                                },
                                "effects" : [

                                ],
                                "start" : 4581,
                                "duration" : 19,
                                "mediaStart" : 7670,
                                "mediaDuration" : 19,
                                "scalar" : 1,
                                "animationTracks" : {

                                }
                              },
                          "audio" : 
                              {
                                "id" : 1207,
                                "_type" : "AMFile",
                                "src" : 1,
                                "trackNumber" : 1,
                                "attributes" : {
                                  "ident" : "",
                                  "gain" : 1.0,
                                  "mixToMono" : false
                                },
                                  "channelNumber" : "0,1",
                                "effects" : [

                                ],
                                "start" : 4581,
                                "duration" : 19,
                                "mediaStart" : 7670,
                                "mediaDuration" : 19,
                                "scalar" : 1,
                                "animationTracks" : {

                                }
                              }
,
                          "start" : 4581,
                          "duration" : 19,
                          "mediaStart" : 0,
                          "mediaDuration" : 10411,
                          "scalar" : 1,
                          "metadata" : {
                            "AutoAppliedSmartFocus" : "False",
                            "clipSpeedAttribute" : false
                          }
                        },
                        {
                          "id" : 1208,
                          "_type" : "UnifiedMedia",
                          "video" : 
                              {
                                "id" : 1209,
                                "_type" : "ScreenVMFile",
                                "src" : 1,
                                "trackNumber" : 0,
                                "attributes" : {
                                  "ident" : "Rec 01-28-21_001"
                                },
                                "parameters" : {
                                  "cursorScale" : {
                                    "type" : "double",
                                    "defaultValue" : 0.0,
                                    "interp" : "linr"
                                  },
                                  "cursorOpacity" : {
                                    "type" : "double",
                                    "defaultValue" : 0.0,
                                    "interp" : "linr"
                                  }
                                },
                                "effects" : [

                                ],
                                "start" : 4600,
                                "duration" : 2440,
                                "mediaStart" : 7971,
                                "mediaDuration" : 2440,
                                "scalar" : 1,
                                "animationTracks" : {

                                }
                              },
                          "audio" : 
                              {
                                "id" : 1210,
                                "_type" : "AMFile",
                                "src" : 1,
                                "trackNumber" : 1,
                                "attributes" : {
                                  "ident" : "",
                                  "gain" : 1.0,
                                  "mixToMono" : false
                                },
                                  "channelNumber" : "0,1",
                                "effects" : [

                                ],
                                "start" : 4600,
                                "duration" : 2440,
                                "mediaStart" : 7971,
                                "mediaDuration" : 2440,
                                "scalar" : 1,
                                "animationTracks" : {

                                }
                              }
,
                          "start" : 4600,
                          "duration" : 2440,
                          "mediaStart" : 0,
                          "mediaDuration" : 10411,
                          "scalar" : 1,
                          "metadata" : {
                            "AutoAppliedSmartFocus" : "False",
                            "clipSpeedAttribute" : false
                          }
                        }
                    ],
                    "effects" : [

                    ],
                    "start" : 4688,
                    "duration" : 64,
                    "mediaStart" : 4962,
                    "mediaDuration" : 64,
                    "scalar" : 1,
                    "metadata" : {
                      "AutoAppliedSmartFocus" : "False",
                      "clipSpeedAttribute" : false
                    },
                    "animationTracks" : {

                    }
                  },
                  {
                    "id" : 1211,
                    "_type" : "Group",
                    "parameters" : {
                      "volume" : 1.0
                    },
                    "tracks" : [
                      {
                        "trackIndex" : 0,
                        "medias" : [
                          {
                            "id" : 1212,
                            "_type" : "StitchedMedia",
                            "minMediaStart" : 0,
                            "attributes" : {
                              "ident" : "Rec 01-28-21_001",
                              "gain" : 1.0,
                              "mixToMono" : false
                            },
                            "parameters" : {
                              "cursorOpacity" : 1.0,
                              "cursorScale" : 1.0
                            },
                            "medias" : [
                                {
                                  "id" : 1213,
                                  "_type" : "ScreenVMFile",
                                  "src" : 1,
                                  "trackNumber" : 0,
                                  "attributes" : {
                                    "ident" : "Rec 01-28-21_001"
                                  },
                                  "parameters" : {
                                    "cursorScale" : {
                                      "type" : "double",
                                      "defaultValue" : 0.0,
                                      "interp" : "linr"
                                    },
                                    "cursorOpacity" : {
                                      "type" : "double",
                                      "defaultValue" : 0.0,
                                      "interp" : "linr"
                                    }
                                  },
                                  "effects" : [

                                  ],
                                  "start" : 0,
                                  "duration" : 18,
                                  "mediaStart" : 0,
                                  "mediaDuration" : 18,
                                  "scalar" : 1,
                                  "metadata" : {
                                    "AutoAppliedSmartFocus" : "False"
                                  },
                                  "animationTracks" : {

                                  }
                                },
                                {
                                  "id" : 1214,
                                  "_type" : "ScreenVMFile",
                                  "src" : 1,
                                  "trackNumber" : 0,
                                  "attributes" : {
                                    "ident" : "Rec 01-28-21_001"
                                  },
                                  "parameters" : {
                                    "cursorScale" : {
                                      "type" : "double",
                                      "defaultValue" : 0.0,
                                      "interp" : "linr"
                                    },
                                    "cursorOpacity" : {
                                      "type" : "double",
                                      "defaultValue" : 0.0,
                                      "interp" : "linr"
                                    }
                                  },
                                  "effects" : [

                                  ],
                                  "start" : 18,
                                  "duration" : 286,
                                  "mediaStart" : 55,
                                  "mediaDuration" : 286,
                                  "scalar" : 1,
                                  "metadata" : {
                                    "AutoAppliedSmartFocus" : "False"
                                  },
                                  "animationTracks" : {

                                  }
                                },
                                {
                                  "id" : 1215,
                                  "_type" : "ScreenVMFile",
                                  "src" : 1,
                                  "trackNumber" : 0,
                                  "attributes" : {
                                    "ident" : "Rec 01-28-21_001"
                                  },
                                  "parameters" : {
                                    "cursorScale" : {
                                      "type" : "double",
                                      "defaultValue" : 0.0,
                                      "interp" : "linr"
                                    },
                                    "cursorOpacity" : {
                                      "type" : "double",
                                      "defaultValue" : 0.0,
                                      "interp" : "linr"
                                    }
                                  },
                                  "effects" : [

                                  ],
                                  "start" : 304,
                                  "duration" : 53,
                                  "mediaStart" : 367,
                                  "mediaDuration" : 53,
                                  "scalar" : 1,
                                  "metadata" : {
                                    "AutoAppliedSmartFocus" : "False"
                                  },
                                  "animationTracks" : {

                                  }
                                },
                                {
                                  "id" : 1216,
                                  "_type" : "ScreenVMFile",
                                  "src" : 1,
                                  "trackNumber" : 0,
                                  "attributes" : {
                                    "ident" : "Rec 01-28-21_001"
                                  },
                                  "parameters" : {
                                    "cursorScale" : {
                                      "type" : "double",
                                      "defaultValue" : 0.0,
                                      "interp" : "linr"
                                    },
                                    "cursorOpacity" : {
                                      "type" : "double",
                                      "defaultValue" : 0.0,
                                      "interp" : "linr"
                                    }
                                  },
                                  "effects" : [

                                  ],
                                  "start" : 357,
                                  "duration" : 59,
                                  "mediaStart" : 477,
                                  "mediaDuration" : 59,
                                  "scalar" : 1,
                                  "metadata" : {
                                    "AutoAppliedSmartFocus" : "False"
                                  },
                                  "animationTracks" : {

                                  }
                                },
                                {
                                  "id" : 1217,
                                  "_type" : "ScreenVMFile",
                                  "src" : 1,
                                  "trackNumber" : 0,
                                  "attributes" : {
                                    "ident" : "Rec 01-28-21_001"
                                  },
                                  "parameters" : {
                                    "cursorScale" : {
                                      "type" : "double",
                                      "defaultValue" : 0.0,
                                      "interp" : "linr"
                                    },
                                    "cursorOpacity" : {
                                      "type" : "double",
                                      "defaultValue" : 0.0,
                                      "interp" : "linr"
                                    }
                                  },
                                  "effects" : [

                                  ],
                                  "start" : 416,
                                  "duration" : 42,
                                  "mediaStart" : 590,
                                  "mediaDuration" : 42,
                                  "scalar" : 1,
                                  "metadata" : {
                                    "AutoAppliedSmartFocus" : "False"
                                  },
                                  "animationTracks" : {

                                  }
                                },
                                {
                                  "id" : 1218,
                                  "_type" : "ScreenVMFile",
                                  "src" : 1,
                                  "trackNumber" : 0,
                                  "attributes" : {
                                    "ident" : "Rec 01-28-21_001"
                                  },
                                  "parameters" : {
                                    "cursorScale" : {
                                      "type" : "double",
                                      "defaultValue" : 0.0,
                                      "interp" : "linr"
                                    },
                                    "cursorOpacity" : {
                                      "type" : "double",
                                      "defaultValue" : 0.0,
                                      "interp" : "linr"
                                    }
                                  },
                                  "effects" : [

                                  ],
                                  "start" : 458,
                                  "duration" : 22,
                                  "mediaStart" : 646,
                                  "mediaDuration" : 22,
                                  "scalar" : 1,
                                  "metadata" : {
                                    "AutoAppliedSmartFocus" : "False"
                                  },
                                  "animationTracks" : {

                                  }
                                },
                                {
                                  "id" : 1219,
                                  "_type" : "ScreenVMFile",
                                  "src" : 1,
                                  "trackNumber" : 0,
                                  "attributes" : {
                                    "ident" : "Rec 01-28-21_001"
                                  },
                                  "parameters" : {
                                    "cursorScale" : {
                                      "type" : "double",
                                      "defaultValue" : 0.0,
                                      "interp" : "linr"
                                    },
                                    "cursorOpacity" : {
                                      "type" : "double",
                                      "defaultValue" : 0.0,
                                      "interp" : "linr"
                                    }
                                  },
                                  "effects" : [

                                  ],
                                  "start" : 480,
                                  "duration" : 115,
                                  "mediaStart" : 762,
                                  "mediaDuration" : 115,
                                  "scalar" : 1,
                                  "metadata" : {
                                    "AutoAppliedSmartFocus" : "False"
                                  },
                                  "animationTracks" : {

                                  }
                                },
                                {
                                  "id" : 1220,
                                  "_type" : "ScreenVMFile",
                                  "src" : 1,
                                  "trackNumber" : 0,
                                  "attributes" : {
                                    "ident" : "Rec 01-28-21_001"
                                  },
                                  "parameters" : {
                                    "cursorScale" : {
                                      "type" : "double",
                                      "defaultValue" : 0.0,
                                      "interp" : "linr"
                                    },
                                    "cursorOpacity" : {
                                      "type" : "double",
                                      "defaultValue" : 0.0,
                                      "interp" : "linr"
                                    }
                                  },
                                  "effects" : [

                                  ],
                                  "start" : 595,
                                  "duration" : 154,
                                  "mediaStart" : 1024,
                                  "mediaDuration" : 154,
                                  "scalar" : 1,
                                  "metadata" : {
                                    "AutoAppliedSmartFocus" : "False"
                                  },
                                  "animationTracks" : {

                                  }
                                },
                                {
                                  "id" : 1221,
                                  "_type" : "ScreenVMFile",
                                  "src" : 1,
                                  "trackNumber" : 0,
                                  "attributes" : {
                                    "ident" : "Rec 01-28-21_001"
                                  },
                                  "parameters" : {
                                    "cursorScale" : {
                                      "type" : "double",
                                      "defaultValue" : 0.0,
                                      "interp" : "linr"
                                    },
                                    "cursorOpacity" : {
                                      "type" : "double",
                                      "defaultValue" : 0.0,
                                      "interp" : "linr"
                                    }
                                  },
                                  "effects" : [

                                  ],
                                  "start" : 749,
                                  "duration" : 135,
                                  "mediaStart" : 1207,
                                  "mediaDuration" : 135,
                                  "scalar" : 1,
                                  "metadata" : {
                                    "AutoAppliedSmartFocus" : "False"
                                  },
                                  "animationTracks" : {

                                  }
                                },
                                {
                                  "id" : 1222,
                                  "_type" : "ScreenVMFile",
                                  "src" : 1,
                                  "trackNumber" : 0,
                                  "attributes" : {
                                    "ident" : "Rec 01-28-21_001"
                                  },
                                  "parameters" : {
                                    "cursorScale" : {
                                      "type" : "double",
                                      "defaultValue" : 0.0,
                                      "interp" : "linr"
                                    },
                                    "cursorOpacity" : {
                                      "type" : "double",
                                      "defaultValue" : 0.0,
                                      "interp" : "linr"
                                    }
                                  },
                                  "effects" : [

                                  ],
                                  "start" : 884,
                                  "duration" : 150,
                                  "mediaStart" : 1383,
                                  "mediaDuration" : 150,
                                  "scalar" : 1,
                                  "metadata" : {
                                    "AutoAppliedSmartFocus" : "False"
                                  },
                                  "animationTracks" : {

                                  }
                                },
                                {
                                  "id" : 1223,
                                  "_type" : "ScreenVMFile",
                                  "src" : 1,
                                  "trackNumber" : 0,
                                  "attributes" : {
                                    "ident" : "Rec 01-28-21_001"
                                  },
                                  "parameters" : {
                                    "cursorScale" : {
                                      "type" : "double",
                                      "defaultValue" : 0.0,
                                      "interp" : "linr"
                                    },
                                    "cursorOpacity" : {
                                      "type" : "double",
                                      "defaultValue" : 0.0,
                                      "interp" : "linr"
                                    }
                                  },
                                  "effects" : [

                                  ],
                                  "start" : 1034,
                                  "duration" : 89,
                                  "mediaStart" : 1607,
                                  "mediaDuration" : 89,
                                  "scalar" : 1,
                                  "metadata" : {
                                    "AutoAppliedSmartFocus" : "False"
                                  },
                                  "animationTracks" : {

                                  }
                                },
                                {
                                  "id" : 1224,
                                  "_type" : "ScreenVMFile",
                                  "src" : 1,
                                  "trackNumber" : 0,
                                  "attributes" : {
                                    "ident" : "Rec 01-28-21_001"
                                  },
                                  "parameters" : {
                                    "cursorScale" : {
                                      "type" : "double",
                                      "defaultValue" : 0.0,
                                      "interp" : "linr"
                                    },
                                    "cursorOpacity" : {
                                      "type" : "double",
                                      "defaultValue" : 0.0,
                                      "interp" : "linr"
                                    }
                                  },
                                  "effects" : [

                                  ],
                                  "start" : 1123,
                                  "duration" : 37,
                                  "mediaStart" : 1752,
                                  "mediaDuration" : 37,
                                  "scalar" : 1,
                                  "metadata" : {
                                    "AutoAppliedSmartFocus" : "False"
                                  },
                                  "animationTracks" : {

                                  }
                                },
                                {
                                  "id" : 1225,
                                  "_type" : "ScreenVMFile",
                                  "src" : 1,
                                  "trackNumber" : 0,
                                  "attributes" : {
                                    "ident" : "Rec 01-28-21_001"
                                  },
                                  "parameters" : {
                                    "cursorScale" : {
                                      "type" : "double",
                                      "defaultValue" : 0.0,
                                      "interp" : "linr"
                                    },
                                    "cursorOpacity" : {
                                      "type" : "double",
                                      "defaultValue" : 0.0,
                                      "interp" : "linr"
                                    }
                                  },
                                  "effects" : [

                                  ],
                                  "start" : 1160,
                                  "duration" : 34,
                                  "mediaStart" : 1836,
                                  "mediaDuration" : 34,
                                  "scalar" : 1,
                                  "metadata" : {
                                    "AutoAppliedSmartFocus" : "False"
                                  },
                                  "animationTracks" : {

                                  }
                                },
                                {
                                  "id" : 1226,
                                  "_type" : "ScreenVMFile",
                                  "src" : 1,
                                  "trackNumber" : 0,
                                  "attributes" : {
                                    "ident" : "Rec 01-28-21_001"
                                  },
                                  "parameters" : {
                                    "cursorScale" : {
                                      "type" : "double",
                                      "defaultValue" : 0.0,
                                      "interp" : "linr"
                                    },
                                    "cursorOpacity" : {
                                      "type" : "double",
                                      "defaultValue" : 0.0,
                                      "interp" : "linr"
                                    }
                                  },
                                  "effects" : [

                                  ],
                                  "start" : 1194,
                                  "duration" : 41,
                                  "mediaStart" : 1882,
                                  "mediaDuration" : 41,
                                  "scalar" : 1,
                                  "metadata" : {
                                    "AutoAppliedSmartFocus" : "False"
                                  },
                                  "animationTracks" : {

                                  }
                                },
                                {
                                  "id" : 1227,
                                  "_type" : "ScreenVMFile",
                                  "src" : 1,
                                  "trackNumber" : 0,
                                  "attributes" : {
                                    "ident" : "Rec 01-28-21_001"
                                  },
                                  "parameters" : {
                                    "cursorScale" : {
                                      "type" : "double",
                                      "defaultValue" : 0.0,
                                      "interp" : "linr"
                                    },
                                    "cursorOpacity" : {
                                      "type" : "double",
                                      "defaultValue" : 0.0,
                                      "interp" : "linr"
                                    }
                                  },
                                  "effects" : [

                                  ],
                                  "start" : 1235,
                                  "duration" : 41,
                                  "mediaStart" : 1948,
                                  "mediaDuration" : 41,
                                  "scalar" : 1,
                                  "metadata" : {
                                    "AutoAppliedSmartFocus" : "False"
                                  },
                                  "animationTracks" : {

                                  }
                                },
                                {
                                  "id" : 1228,
                                  "_type" : "ScreenVMFile",
                                  "src" : 1,
                                  "trackNumber" : 0,
                                  "attributes" : {
                                    "ident" : "Rec 01-28-21_001"
                                  },
                                  "parameters" : {
                                    "cursorScale" : {
                                      "type" : "double",
                                      "defaultValue" : 0.0,
                                      "interp" : "linr"
                                    },
                                    "cursorOpacity" : {
                                      "type" : "double",
                                      "defaultValue" : 0.0,
                                      "interp" : "linr"
                                    }
                                  },
                                  "effects" : [

                                  ],
                                  "start" : 1276,
                                  "duration" : 55,
                                  "mediaStart" : 2015,
                                  "mediaDuration" : 55,
                                  "scalar" : 1,
                                  "metadata" : {
                                    "AutoAppliedSmartFocus" : "False"
                                  },
                                  "animationTracks" : {

                                  }
                                },
                                {
                                  "id" : 1229,
                                  "_type" : "ScreenVMFile",
                                  "src" : 1,
                                  "trackNumber" : 0,
                                  "attributes" : {
                                    "ident" : "Rec 01-28-21_001"
                                  },
                                  "parameters" : {
                                    "cursorScale" : {
                                      "type" : "double",
                                      "defaultValue" : 0.0,
                                      "interp" : "linr"
                                    },
                                    "cursorOpacity" : {
                                      "type" : "double",
                                      "defaultValue" : 0.0,
                                      "interp" : "linr"
                                    }
                                  },
                                  "effects" : [

                                  ],
                                  "start" : 1331,
                                  "duration" : 42,
                                  "mediaStart" : 2110,
                                  "mediaDuration" : 42,
                                  "scalar" : 1,
                                  "metadata" : {
                                    "AutoAppliedSmartFocus" : "False"
                                  },
                                  "animationTracks" : {

                                  }
                                },
                                {
                                  "id" : 1230,
                                  "_type" : "ScreenVMFile",
                                  "src" : 1,
                                  "trackNumber" : 0,
                                  "attributes" : {
                                    "ident" : "Rec 01-28-21_001"
                                  },
                                  "parameters" : {
                                    "cursorScale" : {
                                      "type" : "double",
                                      "defaultValue" : 0.0,
                                      "interp" : "linr"
                                    },
                                    "cursorOpacity" : {
                                      "type" : "double",
                                      "defaultValue" : 0.0,
                                      "interp" : "linr"
                                    }
                                  },
                                  "effects" : [

                                  ],
                                  "start" : 1373,
                                  "duration" : 23,
                                  "mediaStart" : 2250,
                                  "mediaDuration" : 23,
                                  "scalar" : 1,
                                  "metadata" : {
                                    "AutoAppliedSmartFocus" : "False"
                                  },
                                  "animationTracks" : {

                                  }
                                },
                                {
                                  "id" : 1231,
                                  "_type" : "ScreenVMFile",
                                  "src" : 1,
                                  "trackNumber" : 0,
                                  "attributes" : {
                                    "ident" : "Rec 01-28-21_001"
                                  },
                                  "parameters" : {
                                    "cursorScale" : {
                                      "type" : "double",
                                      "defaultValue" : 0.0,
                                      "interp" : "linr"
                                    },
                                    "cursorOpacity" : {
                                      "type" : "double",
                                      "defaultValue" : 0.0,
                                      "interp" : "linr"
                                    }
                                  },
                                  "effects" : [

                                  ],
                                  "start" : 1396,
                                  "duration" : 79,
                                  "mediaStart" : 2299,
                                  "mediaDuration" : 79,
                                  "scalar" : 1,
                                  "metadata" : {
                                    "AutoAppliedSmartFocus" : "False"
                                  },
                                  "animationTracks" : {

                                  }
                                },
                                {
                                  "id" : 1232,
                                  "_type" : "ScreenVMFile",
                                  "src" : 1,
                                  "trackNumber" : 0,
                                  "attributes" : {
                                    "ident" : "Rec 01-28-21_001"
                                  },
                                  "parameters" : {
                                    "cursorScale" : {
                                      "type" : "double",
                                      "defaultValue" : 0.0,
                                      "interp" : "linr"
                                    },
                                    "cursorOpacity" : {
                                      "type" : "double",
                                      "defaultValue" : 0.0,
                                      "interp" : "linr"
                                    }
                                  },
                                  "effects" : [

                                  ],
                                  "start" : 1475,
                                  "duration" : 64,
                                  "mediaStart" : 2409,
                                  "mediaDuration" : 64,
                                  "scalar" : 1,
                                  "metadata" : {
                                    "AutoAppliedSmartFocus" : "False"
                                  },
                                  "animationTracks" : {

                                  }
                                },
                                {
                                  "id" : 1233,
                                  "_type" : "ScreenVMFile",
                                  "src" : 1,
                                  "trackNumber" : 0,
                                  "attributes" : {
                                    "ident" : "Rec 01-28-21_001"
                                  },
                                  "parameters" : {
                                    "cursorScale" : {
                                      "type" : "double",
                                      "defaultValue" : 0.0,
                                      "interp" : "linr"
                                    },
                                    "cursorOpacity" : {
                                      "type" : "double",
                                      "defaultValue" : 0.0,
                                      "interp" : "linr"
                                    }
                                  },
                                  "effects" : [

                                  ],
                                  "start" : 1539,
                                  "duration" : 43,
                                  "mediaStart" : 2478,
                                  "mediaDuration" : 43,
                                  "scalar" : 1,
                                  "metadata" : {
                                    "AutoAppliedSmartFocus" : "False"
                                  },
                                  "animationTracks" : {

                                  }
                                },
                                {
                                  "id" : 1234,
                                  "_type" : "ScreenVMFile",
                                  "src" : 1,
                                  "trackNumber" : 0,
                                  "attributes" : {
                                    "ident" : "Rec 01-28-21_001"
                                  },
                                  "parameters" : {
                                    "cursorScale" : {
                                      "type" : "double",
                                      "defaultValue" : 0.0,
                                      "interp" : "linr"
                                    },
                                    "cursorOpacity" : {
                                      "type" : "double",
                                      "defaultValue" : 0.0,
                                      "interp" : "linr"
                                    }
                                  },
                                  "effects" : [

                                  ],
                                  "start" : 1582,
                                  "duration" : 47,
                                  "mediaStart" : 2538,
                                  "mediaDuration" : 47,
                                  "scalar" : 1,
                                  "metadata" : {
                                    "AutoAppliedSmartFocus" : "False"
                                  },
                                  "animationTracks" : {

                                  }
                                },
                                {
                                  "id" : 1235,
                                  "_type" : "ScreenVMFile",
                                  "src" : 1,
                                  "trackNumber" : 0,
                                  "attributes" : {
                                    "ident" : "Rec 01-28-21_001"
                                  },
                                  "parameters" : {
                                    "cursorScale" : {
                                      "type" : "double",
                                      "defaultValue" : 0.0,
                                      "interp" : "linr"
                                    },
                                    "cursorOpacity" : {
                                      "type" : "double",
                                      "defaultValue" : 0.0,
                                      "interp" : "linr"
                                    }
                                  },
                                  "effects" : [

                                  ],
                                  "start" : 1629,
                                  "duration" : 299,
                                  "mediaStart" : 2613,
                                  "mediaDuration" : 299,
                                  "scalar" : 1,
                                  "metadata" : {
                                    "AutoAppliedSmartFocus" : "False"
                                  },
                                  "animationTracks" : {

                                  }
                                },
                                {
                                  "id" : 1236,
                                  "_type" : "ScreenVMFile",
                                  "src" : 1,
                                  "trackNumber" : 0,
                                  "attributes" : {
                                    "ident" : "Rec 01-28-21_001"
                                  },
                                  "parameters" : {
                                    "cursorScale" : {
                                      "type" : "double",
                                      "defaultValue" : 0.0,
                                      "interp" : "linr"
                                    },
                                    "cursorOpacity" : {
                                      "type" : "double",
                                      "defaultValue" : 0.0,
                                      "interp" : "linr"
                                    }
                                  },
                                  "effects" : [

                                  ],
                                  "start" : 1928,
                                  "duration" : 53,
                                  "mediaStart" : 3209,
                                  "mediaDuration" : 53,
                                  "scalar" : 1,
                                  "metadata" : {
                                    "AutoAppliedSmartFocus" : "False"
                                  },
                                  "animationTracks" : {

                                  }
                                },
                                {
                                  "id" : 1237,
                                  "_type" : "ScreenVMFile",
                                  "src" : 1,
                                  "trackNumber" : 0,
                                  "attributes" : {
                                    "ident" : "Rec 01-28-21_001"
                                  },
                                  "parameters" : {
                                    "cursorScale" : {
                                      "type" : "double",
                                      "defaultValue" : 0.0,
                                      "interp" : "linr"
                                    },
                                    "cursorOpacity" : {
                                      "type" : "double",
                                      "defaultValue" : 0.0,
                                      "interp" : "linr"
                                    }
                                  },
                                  "effects" : [

                                  ],
                                  "start" : 1981,
                                  "duration" : 47,
                                  "mediaStart" : 3282,
                                  "mediaDuration" : 47,
                                  "scalar" : 1,
                                  "metadata" : {
                                    "AutoAppliedSmartFocus" : "False"
                                  },
                                  "animationTracks" : {

                                  }
                                },
                                {
                                  "id" : 1238,
                                  "_type" : "ScreenVMFile",
                                  "src" : 1,
                                  "trackNumber" : 0,
                                  "attributes" : {
                                    "ident" : "Rec 01-28-21_001"
                                  },
                                  "parameters" : {
                                    "cursorScale" : {
                                      "type" : "double",
                                      "defaultValue" : 0.0,
                                      "interp" : "linr"
                                    },
                                    "cursorOpacity" : {
                                      "type" : "double",
                                      "defaultValue" : 0.0,
                                      "interp" : "linr"
                                    }
                                  },
                                  "effects" : [

                                  ],
                                  "start" : 2028,
                                  "duration" : 103,
                                  "mediaStart" : 3341,
                                  "mediaDuration" : 103,
                                  "scalar" : 1,
                                  "metadata" : {
                                    "AutoAppliedSmartFocus" : "False"
                                  },
                                  "animationTracks" : {

                                  }
                                },
                                {
                                  "id" : 1239,
                                  "_type" : "ScreenVMFile",
                                  "src" : 1,
                                  "trackNumber" : 0,
                                  "attributes" : {
                                    "ident" : "Rec 01-28-21_001"
                                  },
                                  "parameters" : {
                                    "cursorScale" : {
                                      "type" : "double",
                                      "defaultValue" : 0.0,
                                      "interp" : "linr"
                                    },
                                    "cursorOpacity" : {
                                      "type" : "double",
                                      "defaultValue" : 0.0,
                                      "interp" : "linr"
                                    }
                                  },
                                  "effects" : [

                                  ],
                                  "start" : 2131,
                                  "duration" : 26,
                                  "mediaStart" : 3468,
                                  "mediaDuration" : 26,
                                  "scalar" : 1,
                                  "metadata" : {
                                    "AutoAppliedSmartFocus" : "False"
                                  },
                                  "animationTracks" : {

                                  }
                                },
                                {
                                  "id" : 1240,
                                  "_type" : "ScreenVMFile",
                                  "src" : 1,
                                  "trackNumber" : 0,
                                  "attributes" : {
                                    "ident" : "Rec 01-28-21_001"
                                  },
                                  "parameters" : {
                                    "cursorScale" : {
                                      "type" : "double",
                                      "defaultValue" : 0.0,
                                      "interp" : "linr"
                                    },
                                    "cursorOpacity" : {
                                      "type" : "double",
                                      "defaultValue" : 0.0,
                                      "interp" : "linr"
                                    }
                                  },
                                  "effects" : [

                                  ],
                                  "start" : 2157,
                                  "duration" : 41,
                                  "mediaStart" : 3504,
                                  "mediaDuration" : 41,
                                  "scalar" : 1,
                                  "metadata" : {
                                    "AutoAppliedSmartFocus" : "False"
                                  },
                                  "animationTracks" : {

                                  }
                                },
                                {
                                  "id" : 1241,
                                  "_type" : "ScreenVMFile",
                                  "src" : 1,
                                  "trackNumber" : 0,
                                  "attributes" : {
                                    "ident" : "Rec 01-28-21_001"
                                  },
                                  "parameters" : {
                                    "cursorScale" : {
                                      "type" : "double",
                                      "defaultValue" : 0.0,
                                      "interp" : "linr"
                                    },
                                    "cursorOpacity" : {
                                      "type" : "double",
                                      "defaultValue" : 0.0,
                                      "interp" : "linr"
                                    }
                                  },
                                  "effects" : [

                                  ],
                                  "start" : 2198,
                                  "duration" : 108,
                                  "mediaStart" : 3657,
                                  "mediaDuration" : 108,
                                  "scalar" : 1,
                                  "metadata" : {
                                    "AutoAppliedSmartFocus" : "False"
                                  },
                                  "animationTracks" : {

                                  }
                                },
                                {
                                  "id" : 1242,
                                  "_type" : "ScreenVMFile",
                                  "src" : 1,
                                  "trackNumber" : 0,
                                  "attributes" : {
                                    "ident" : "Rec 01-28-21_001"
                                  },
                                  "parameters" : {
                                    "cursorScale" : {
                                      "type" : "double",
                                      "defaultValue" : 0.0,
                                      "interp" : "linr"
                                    },
                                    "cursorOpacity" : {
                                      "type" : "double",
                                      "defaultValue" : 0.0,
                                      "interp" : "linr"
                                    }
                                  },
                                  "effects" : [

                                  ],
                                  "start" : 2306,
                                  "duration" : 124,
                                  "mediaStart" : 3787,
                                  "mediaDuration" : 124,
                                  "scalar" : 1,
                                  "metadata" : {
                                    "AutoAppliedSmartFocus" : "False"
                                  },
                                  "animationTracks" : {

                                  }
                                },
                                {
                                  "id" : 1243,
                                  "_type" : "ScreenVMFile",
                                  "src" : 1,
                                  "trackNumber" : 0,
                                  "attributes" : {
                                    "ident" : "Rec 01-28-21_001"
                                  },
                                  "parameters" : {
                                    "cursorScale" : {
                                      "type" : "double",
                                      "defaultValue" : 0.0,
                                      "interp" : "linr"
                                    },
                                    "cursorOpacity" : {
                                      "type" : "double",
                                      "defaultValue" : 0.0,
                                      "interp" : "linr"
                                    }
                                  },
                                  "effects" : [

                                  ],
                                  "start" : 2430,
                                  "duration" : 282,
                                  "mediaStart" : 3991,
                                  "mediaDuration" : 282,
                                  "scalar" : 1,
                                  "metadata" : {
                                    "AutoAppliedSmartFocus" : "False"
                                  },
                                  "animationTracks" : {

                                  }
                                },
                                {
                                  "id" : 1244,
                                  "_type" : "ScreenVMFile",
                                  "src" : 1,
                                  "trackNumber" : 0,
                                  "attributes" : {
                                    "ident" : "Rec 01-28-21_001"
                                  },
                                  "parameters" : {
                                    "cursorScale" : {
                                      "type" : "double",
                                      "defaultValue" : 0.0,
                                      "interp" : "linr"
                                    },
                                    "cursorOpacity" : {
                                      "type" : "double",
                                      "defaultValue" : 0.0,
                                      "interp" : "linr"
                                    }
                                  },
                                  "effects" : [

                                  ],
                                  "start" : 2712,
                                  "duration" : 205,
                                  "mediaStart" : 4397,
                                  "mediaDuration" : 205,
                                  "scalar" : 1,
                                  "metadata" : {
                                    "AutoAppliedSmartFocus" : "False"
                                  },
                                  "animationTracks" : {

                                  }
                                },
                                {
                                  "id" : 1245,
                                  "_type" : "ScreenVMFile",
                                  "src" : 1,
                                  "trackNumber" : 0,
                                  "attributes" : {
                                    "ident" : "Rec 01-28-21_001"
                                  },
                                  "parameters" : {
                                    "cursorScale" : {
                                      "type" : "double",
                                      "defaultValue" : 0.0,
                                      "interp" : "linr"
                                    },
                                    "cursorOpacity" : {
                                      "type" : "double",
                                      "defaultValue" : 0.0,
                                      "interp" : "linr"
                                    }
                                  },
                                  "effects" : [

                                  ],
                                  "start" : 2917,
                                  "duration" : 61,
                                  "mediaStart" : 4960,
                                  "mediaDuration" : 61,
                                  "scalar" : 1,
                                  "metadata" : {
                                    "AutoAppliedSmartFocus" : "False"
                                  },
                                  "animationTracks" : {

                                  }
                                },
                                {
                                  "id" : 1246,
                                  "_type" : "ScreenVMFile",
                                  "src" : 1,
                                  "trackNumber" : 0,
                                  "attributes" : {
                                    "ident" : "Rec 01-28-21_001"
                                  },
                                  "parameters" : {
                                    "cursorScale" : {
                                      "type" : "double",
                                      "defaultValue" : 0.0,
                                      "interp" : "linr"
                                    },
                                    "cursorOpacity" : {
                                      "type" : "double",
                                      "defaultValue" : 0.0,
                                      "interp" : "linr"
                                    }
                                  },
                                  "effects" : [

                                  ],
                                  "start" : 2978,
                                  "duration" : 172,
                                  "mediaStart" : 5035,
                                  "mediaDuration" : 172,
                                  "scalar" : 1,
                                  "metadata" : {
                                    "AutoAppliedSmartFocus" : "False"
                                  },
                                  "animationTracks" : {

                                  }
                                },
                                {
                                  "id" : 1247,
                                  "_type" : "ScreenVMFile",
                                  "src" : 1,
                                  "trackNumber" : 0,
                                  "attributes" : {
                                    "ident" : "Rec 01-28-21_001"
                                  },
                                  "parameters" : {
                                    "cursorScale" : {
                                      "type" : "double",
                                      "defaultValue" : 0.0,
                                      "interp" : "linr"
                                    },
                                    "cursorOpacity" : {
                                      "type" : "double",
                                      "defaultValue" : 0.0,
                                      "interp" : "linr"
                                    }
                                  },
                                  "effects" : [

                                  ],
                                  "start" : 3150,
                                  "duration" : 199,
                                  "mediaStart" : 5255,
                                  "mediaDuration" : 199,
                                  "scalar" : 1,
                                  "metadata" : {
                                    "AutoAppliedSmartFocus" : "False"
                                  },
                                  "animationTracks" : {

                                  }
                                },
                                {
                                  "id" : 1248,
                                  "_type" : "ScreenVMFile",
                                  "src" : 1,
                                  "trackNumber" : 0,
                                  "attributes" : {
                                    "ident" : "Rec 01-28-21_001"
                                  },
                                  "parameters" : {
                                    "cursorScale" : {
                                      "type" : "double",
                                      "defaultValue" : 0.0,
                                      "interp" : "linr"
                                    },
                                    "cursorOpacity" : {
                                      "type" : "double",
                                      "defaultValue" : 0.0,
                                      "interp" : "linr"
                                    }
                                  },
                                  "effects" : [

                                  ],
                                  "start" : 3349,
                                  "duration" : 150,
                                  "mediaStart" : 5507,
                                  "mediaDuration" : 150,
                                  "scalar" : 1,
                                  "metadata" : {
                                    "AutoAppliedSmartFocus" : "False"
                                  },
                                  "animationTracks" : {

                                  }
                                },
                                {
                                  "id" : 1249,
                                  "_type" : "ScreenVMFile",
                                  "src" : 1,
                                  "trackNumber" : 0,
                                  "attributes" : {
                                    "ident" : "Rec 01-28-21_001"
                                  },
                                  "parameters" : {
                                    "cursorScale" : {
                                      "type" : "double",
                                      "defaultValue" : 0.0,
                                      "interp" : "linr"
                                    },
                                    "cursorOpacity" : {
                                      "type" : "double",
                                      "defaultValue" : 0.0,
                                      "interp" : "linr"
                                    }
                                  },
                                  "effects" : [

                                  ],
                                  "start" : 3499,
                                  "duration" : 336,
                                  "mediaStart" : 6158,
                                  "mediaDuration" : 336,
                                  "scalar" : 1,
                                  "metadata" : {
                                    "AutoAppliedSmartFocus" : "False"
                                  },
                                  "animationTracks" : {

                                  }
                                },
                                {
                                  "id" : 1250,
                                  "_type" : "ScreenVMFile",
                                  "src" : 1,
                                  "trackNumber" : 0,
                                  "attributes" : {
                                    "ident" : "Rec 01-28-21_001"
                                  },
                                  "parameters" : {
                                    "cursorScale" : {
                                      "type" : "double",
                                      "defaultValue" : 0.0,
                                      "interp" : "linr"
                                    },
                                    "cursorOpacity" : {
                                      "type" : "double",
                                      "defaultValue" : 0.0,
                                      "interp" : "linr"
                                    }
                                  },
                                  "effects" : [

                                  ],
                                  "start" : 3835,
                                  "duration" : 73,
                                  "mediaStart" : 6577,
                                  "mediaDuration" : 73,
                                  "scalar" : 1,
                                  "metadata" : {
                                    "AutoAppliedSmartFocus" : "False"
                                  },
                                  "animationTracks" : {

                                  }
                                },
                                {
                                  "id" : 1251,
                                  "_type" : "ScreenVMFile",
                                  "src" : 1,
                                  "trackNumber" : 0,
                                  "attributes" : {
                                    "ident" : "Rec 01-28-21_001"
                                  },
                                  "parameters" : {
                                    "cursorScale" : {
                                      "type" : "double",
                                      "defaultValue" : 0.0,
                                      "interp" : "linr"
                                    },
                                    "cursorOpacity" : {
                                      "type" : "double",
                                      "defaultValue" : 0.0,
                                      "interp" : "linr"
                                    }
                                  },
                                  "effects" : [

                                  ],
                                  "start" : 3908,
                                  "duration" : 401,
                                  "mediaStart" : 6679,
                                  "mediaDuration" : 401,
                                  "scalar" : 1,
                                  "metadata" : {
                                    "AutoAppliedSmartFocus" : "False"
                                  },
                                  "animationTracks" : {

                                  }
                                },
                                {
                                  "id" : 1252,
                                  "_type" : "ScreenVMFile",
                                  "src" : 1,
                                  "trackNumber" : 0,
                                  "attributes" : {
                                    "ident" : "Rec 01-28-21_001"
                                  },
                                  "parameters" : {
                                    "cursorScale" : {
                                      "type" : "double",
                                      "defaultValue" : 0.0,
                                      "interp" : "linr"
                                    },
                                    "cursorOpacity" : {
                                      "type" : "double",
                                      "defaultValue" : 0.0,
                                      "interp" : "linr"
                                    }
                                  },
                                  "effects" : [

                                  ],
                                  "start" : 4309,
                                  "duration" : 98,
                                  "mediaStart" : 7143,
                                  "mediaDuration" : 98,
                                  "scalar" : 1,
                                  "metadata" : {
                                    "AutoAppliedSmartFocus" : "False"
                                  },
                                  "animationTracks" : {

                                  }
                                },
                                {
                                  "id" : 1253,
                                  "_type" : "ScreenVMFile",
                                  "src" : 1,
                                  "trackNumber" : 0,
                                  "attributes" : {
                                    "ident" : "Rec 01-28-21_001"
                                  },
                                  "parameters" : {
                                    "cursorScale" : {
                                      "type" : "double",
                                      "defaultValue" : 0.0,
                                      "interp" : "linr"
                                    },
                                    "cursorOpacity" : {
                                      "type" : "double",
                                      "defaultValue" : 0.0,
                                      "interp" : "linr"
                                    }
                                  },
                                  "effects" : [

                                  ],
                                  "start" : 4407,
                                  "duration" : 108,
                                  "mediaStart" : 7264,
                                  "mediaDuration" : 108,
                                  "scalar" : 1,
                                  "metadata" : {
                                    "AutoAppliedSmartFocus" : "False"
                                  },
                                  "animationTracks" : {

                                  }
                                },
                                {
                                  "id" : 1254,
                                  "_type" : "ScreenVMFile",
                                  "src" : 1,
                                  "trackNumber" : 0,
                                  "attributes" : {
                                    "ident" : "Rec 01-28-21_001"
                                  },
                                  "parameters" : {
                                    "cursorScale" : {
                                      "type" : "double",
                                      "defaultValue" : 0.0,
                                      "interp" : "linr"
                                    },
                                    "cursorOpacity" : {
                                      "type" : "double",
                                      "defaultValue" : 0.0,
                                      "interp" : "linr"
                                    }
                                  },
                                  "effects" : [

                                  ],
                                  "start" : 4515,
                                  "duration" : 66,
                                  "mediaStart" : 7571,
                                  "mediaDuration" : 66,
                                  "scalar" : 1,
                                  "metadata" : {
                                    "AutoAppliedSmartFocus" : "False"
                                  },
                                  "animationTracks" : {

                                  }
                                },
                                {
                                  "id" : 1255,
                                  "_type" : "ScreenVMFile",
                                  "src" : 1,
                                  "trackNumber" : 0,
                                  "attributes" : {
                                    "ident" : "Rec 01-28-21_001"
                                  },
                                  "parameters" : {
                                    "cursorScale" : {
                                      "type" : "double",
                                      "defaultValue" : 0.0,
                                      "interp" : "linr"
                                    },
                                    "cursorOpacity" : {
                                      "type" : "double",
                                      "defaultValue" : 0.0,
                                      "interp" : "linr"
                                    }
                                  },
                                  "effects" : [

                                  ],
                                  "start" : 4581,
                                  "duration" : 19,
                                  "mediaStart" : 7670,
                                  "mediaDuration" : 19,
                                  "scalar" : 1,
                                  "metadata" : {
                                    "AutoAppliedSmartFocus" : "False"
                                  },
                                  "animationTracks" : {

                                  }
                                },
                                {
                                  "id" : 1256,
                                  "_type" : "ScreenVMFile",
                                  "src" : 1,
                                  "trackNumber" : 0,
                                  "attributes" : {
                                    "ident" : "Rec 01-28-21_001"
                                  },
                                  "parameters" : {
                                    "cursorScale" : {
                                      "type" : "double",
                                      "defaultValue" : 0.0,
                                      "interp" : "linr"
                                    },
                                    "cursorOpacity" : {
                                      "type" : "double",
                                      "defaultValue" : 0.0,
                                      "interp" : "linr"
                                    }
                                  },
                                  "effects" : [

                                  ],
                                  "start" : 4600,
                                  "duration" : 2440,
                                  "mediaStart" : 7971,
                                  "mediaDuration" : 2440,
                                  "scalar" : 1,
                                  "metadata" : {
                                    "AutoAppliedSmartFocus" : "False"
                                  },
                                  "animationTracks" : {

                                  }
                                }
                            ],
                            "effects" : [

                            ],
                            "start" : 0,
                            "duration" : 84,
                            "mediaStart" : 5026,
                            "mediaDuration" : 84,
                            "scalar" : 1,
                            "metadata" : {
                              "AutoAppliedSmartFocus" : "False",
                              "clipSpeedAttribute" : false
                            },
                            "animationTracks" : {

                            }
                          }
                        ],
                          "ident" : "",
                          "audioMuted" : false,
                          "videoHidden" : false,
                          "magnetic" : false,
                          "matte" : 0,
                          "metadata" : {
                            "IsLocked" : "False",
                            "WinTrackHeight" : "0"
                          }
                      },
                      {
                        "trackIndex" : 1,
                        "medias" : [
                          {
                            "id" : 1257,
                            "_type" : "AMFile",
                            "src" : 13,
                            "trackNumber" : 0,
                            "attributes" : {
                              "ident" : "Narration_3-3 Kubernetes-Deployment 10",
                              "gain" : 1.0,
                              "mixToMono" : false
                            },
                              "channelNumber" : "0,1",
                            "effects" : [

                            ],
                            "start" : 0,
                            "duration" : 84,
                            "mediaStart" : 0,
                            "mediaDuration" : 84,
                            "scalar" : 1,
                            "metadata" : {
                              "clipSpeedAttribute" : false
                            },
                            "animationTracks" : {

                            }
                          }
                        ],
                          "ident" : "",
                          "audioMuted" : false,
                          "videoHidden" : false,
                          "magnetic" : false,
                          "matte" : 0,
                          "metadata" : {
                            "IsLocked" : "False",
                            "WinTrackHeight" : "2.67715387761658e-313"
                          }
                      }
                    ],
                    "attributes" : {
                      "ident" : "Group 5",
                      "gain" : 1.0,
                      "mixToMono" : false
                    },
                    "effects" : [

                    ],
                    "start" : 4752,
                    "duration" : 84,
                    "mediaStart" : 0.0,
                    "mediaDuration" : 84.0,
                    "scalar" : 1,
                    "metadata" : {
                      "IsGroupExpanded" : "False"
                    },
                    "animationTracks" : {

                    }
                  },
                  {
                    "id" : 1258,
                    "_type" : "StitchedMedia",
                    "minMediaStart" : 0,
                    "attributes" : {
                      "ident" : "Rec 01-28-21_001",
                      "gain" : 1.0,
                      "mixToMono" : false
                    },
                    "parameters" : {
                      "volume" : 1.0,
                      "cursorOpacity" : 1.0,
                      "cursorScale" : 1.0
                    },
                    "medias" : [
                        {
                          "id" : 1259,
                          "_type" : "UnifiedMedia",
                          "video" : 
                              {
                                "id" : 1260,
                                "_type" : "ScreenVMFile",
                                "src" : 1,
                                "trackNumber" : 0,
                                "attributes" : {
                                  "ident" : "Rec 01-28-21_001"
                                },
                                "parameters" : {
                                  "cursorScale" : {
                                    "type" : "double",
                                    "defaultValue" : 0.0,
                                    "interp" : "linr"
                                  },
                                  "cursorOpacity" : {
                                    "type" : "double",
                                    "defaultValue" : 0.0,
                                    "interp" : "linr"
                                  }
                                },
                                "effects" : [

                                ],
                                "start" : 0,
                                "duration" : 18,
                                "mediaStart" : 0,
                                "mediaDuration" : 18,
                                "scalar" : 1,
                                "animationTracks" : {

                                }
                              },
                          "audio" : 
                              {
                                "id" : 1261,
                                "_type" : "AMFile",
                                "src" : 1,
                                "trackNumber" : 1,
                                "attributes" : {
                                  "ident" : "",
                                  "gain" : 1.0,
                                  "mixToMono" : false
                                },
                                  "channelNumber" : "0,1",
                                "effects" : [

                                ],
                                "start" : 0,
                                "duration" : 18,
                                "mediaStart" : 0,
                                "mediaDuration" : 18,
                                "scalar" : 1,
                                "animationTracks" : {

                                }
                              }
,
                          "start" : 0,
                          "duration" : 18,
                          "mediaStart" : 0,
                          "mediaDuration" : 10411,
                          "scalar" : 1,
                          "metadata" : {
                            "AutoAppliedSmartFocus" : "False",
                            "clipSpeedAttribute" : false
                          }
                        },
                        {
                          "id" : 1262,
                          "_type" : "UnifiedMedia",
                          "video" : 
                              {
                                "id" : 1263,
                                "_type" : "ScreenVMFile",
                                "src" : 1,
                                "trackNumber" : 0,
                                "attributes" : {
                                  "ident" : "Rec 01-28-21_001"
                                },
                                "parameters" : {
                                  "cursorScale" : {
                                    "type" : "double",
                                    "defaultValue" : 0.0,
                                    "interp" : "linr"
                                  },
                                  "cursorOpacity" : {
                                    "type" : "double",
                                    "defaultValue" : 0.0,
                                    "interp" : "linr"
                                  }
                                },
                                "effects" : [

                                ],
                                "start" : 18,
                                "duration" : 286,
                                "mediaStart" : 55,
                                "mediaDuration" : 286,
                                "scalar" : 1,
                                "animationTracks" : {

                                }
                              },
                          "audio" : 
                              {
                                "id" : 1264,
                                "_type" : "AMFile",
                                "src" : 1,
                                "trackNumber" : 1,
                                "attributes" : {
                                  "ident" : "",
                                  "gain" : 1.0,
                                  "mixToMono" : false
                                },
                                  "channelNumber" : "0,1",
                                "effects" : [

                                ],
                                "start" : 18,
                                "duration" : 286,
                                "mediaStart" : 55,
                                "mediaDuration" : 286,
                                "scalar" : 1,
                                "animationTracks" : {

                                }
                              }
,
                          "start" : 18,
                          "duration" : 286,
                          "mediaStart" : 0,
                          "mediaDuration" : 10411,
                          "scalar" : 1,
                          "metadata" : {
                            "AutoAppliedSmartFocus" : "False",
                            "clipSpeedAttribute" : false
                          }
                        },
                        {
                          "id" : 1265,
                          "_type" : "UnifiedMedia",
                          "video" : 
                              {
                                "id" : 1266,
                                "_type" : "ScreenVMFile",
                                "src" : 1,
                                "trackNumber" : 0,
                                "attributes" : {
                                  "ident" : "Rec 01-28-21_001"
                                },
                                "parameters" : {
                                  "cursorScale" : {
                                    "type" : "double",
                                    "defaultValue" : 0.0,
                                    "interp" : "linr"
                                  },
                                  "cursorOpacity" : {
                                    "type" : "double",
                                    "defaultValue" : 0.0,
                                    "interp" : "linr"
                                  }
                                },
                                "effects" : [

                                ],
                                "start" : 304,
                                "duration" : 53,
                                "mediaStart" : 367,
                                "mediaDuration" : 53,
                                "scalar" : 1,
                                "animationTracks" : {

                                }
                              },
                          "audio" : 
                              {
                                "id" : 1267,
                                "_type" : "AMFile",
                                "src" : 1,
                                "trackNumber" : 1,
                                "attributes" : {
                                  "ident" : "",
                                  "gain" : 1.0,
                                  "mixToMono" : false
                                },
                                  "channelNumber" : "0,1",
                                "effects" : [

                                ],
                                "start" : 304,
                                "duration" : 53,
                                "mediaStart" : 367,
                                "mediaDuration" : 53,
                                "scalar" : 1,
                                "animationTracks" : {

                                }
                              }
,
                          "start" : 304,
                          "duration" : 53,
                          "mediaStart" : 0,
                          "mediaDuration" : 10411,
                          "scalar" : 1,
                          "metadata" : {
                            "AutoAppliedSmartFocus" : "False",
                            "clipSpeedAttribute" : false
                          }
                        },
                        {
                          "id" : 1268,
                          "_type" : "UnifiedMedia",
                          "video" : 
                              {
                                "id" : 1269,
                                "_type" : "ScreenVMFile",
                                "src" : 1,
                                "trackNumber" : 0,
                                "attributes" : {
                                  "ident" : "Rec 01-28-21_001"
                                },
                                "parameters" : {
                                  "cursorScale" : {
                                    "type" : "double",
                                    "defaultValue" : 0.0,
                                    "interp" : "linr"
                                  },
                                  "cursorOpacity" : {
                                    "type" : "double",
                                    "defaultValue" : 0.0,
                                    "interp" : "linr"
                                  }
                                },
                                "effects" : [

                                ],
                                "start" : 357,
                                "duration" : 59,
                                "mediaStart" : 477,
                                "mediaDuration" : 59,
                                "scalar" : 1,
                                "animationTracks" : {

                                }
                              },
                          "audio" : 
                              {
                                "id" : 1270,
                                "_type" : "AMFile",
                                "src" : 1,
                                "trackNumber" : 1,
                                "attributes" : {
                                  "ident" : "",
                                  "gain" : 1.0,
                                  "mixToMono" : false
                                },
                                  "channelNumber" : "0,1",
                                "effects" : [

                                ],
                                "start" : 357,
                                "duration" : 59,
                                "mediaStart" : 477,
                                "mediaDuration" : 59,
                                "scalar" : 1,
                                "animationTracks" : {

                                }
                              }
,
                          "start" : 357,
                          "duration" : 59,
                          "mediaStart" : 0,
                          "mediaDuration" : 10411,
                          "scalar" : 1,
                          "metadata" : {
                            "AutoAppliedSmartFocus" : "False",
                            "clipSpeedAttribute" : false
                          }
                        },
                        {
                          "id" : 1271,
                          "_type" : "UnifiedMedia",
                          "video" : 
                              {
                                "id" : 1272,
                                "_type" : "ScreenVMFile",
                                "src" : 1,
                                "trackNumber" : 0,
                                "attributes" : {
                                  "ident" : "Rec 01-28-21_001"
                                },
                                "parameters" : {
                                  "cursorScale" : {
                                    "type" : "double",
                                    "defaultValue" : 0.0,
                                    "interp" : "linr"
                                  },
                                  "cursorOpacity" : {
                                    "type" : "double",
                                    "defaultValue" : 0.0,
                                    "interp" : "linr"
                                  }
                                },
                                "effects" : [

                                ],
                                "start" : 416,
                                "duration" : 42,
                                "mediaStart" : 590,
                                "mediaDuration" : 42,
                                "scalar" : 1,
                                "animationTracks" : {

                                }
                              },
                          "audio" : 
                              {
                                "id" : 1273,
                                "_type" : "AMFile",
                                "src" : 1,
                                "trackNumber" : 1,
                                "attributes" : {
                                  "ident" : "",
                                  "gain" : 1.0,
                                  "mixToMono" : false
                                },
                                  "channelNumber" : "0,1",
                                "effects" : [

                                ],
                                "start" : 416,
                                "duration" : 42,
                                "mediaStart" : 590,
                                "mediaDuration" : 42,
                                "scalar" : 1,
                                "animationTracks" : {

                                }
                              }
,
                          "start" : 416,
                          "duration" : 42,
                          "mediaStart" : 0,
                          "mediaDuration" : 10411,
                          "scalar" : 1,
                          "metadata" : {
                            "AutoAppliedSmartFocus" : "False",
                            "clipSpeedAttribute" : false
                          }
                        },
                        {
                          "id" : 1274,
                          "_type" : "UnifiedMedia",
                          "video" : 
                              {
                                "id" : 1275,
                                "_type" : "ScreenVMFile",
                                "src" : 1,
                                "trackNumber" : 0,
                                "attributes" : {
                                  "ident" : "Rec 01-28-21_001"
                                },
                                "parameters" : {
                                  "cursorScale" : {
                                    "type" : "double",
                                    "defaultValue" : 0.0,
                                    "interp" : "linr"
                                  },
                                  "cursorOpacity" : {
                                    "type" : "double",
                                    "defaultValue" : 0.0,
                                    "interp" : "linr"
                                  }
                                },
                                "effects" : [

                                ],
                                "start" : 458,
                                "duration" : 22,
                                "mediaStart" : 646,
                                "mediaDuration" : 22,
                                "scalar" : 1,
                                "animationTracks" : {

                                }
                              },
                          "audio" : 
                              {
                                "id" : 1276,
                                "_type" : "AMFile",
                                "src" : 1,
                                "trackNumber" : 1,
                                "attributes" : {
                                  "ident" : "",
                                  "gain" : 1.0,
                                  "mixToMono" : false
                                },
                                  "channelNumber" : "0,1",
                                "effects" : [

                                ],
                                "start" : 458,
                                "duration" : 22,
                                "mediaStart" : 646,
                                "mediaDuration" : 22,
                                "scalar" : 1,
                                "animationTracks" : {

                                }
                              }
,
                          "start" : 458,
                          "duration" : 22,
                          "mediaStart" : 0,
                          "mediaDuration" : 10411,
                          "scalar" : 1,
                          "metadata" : {
                            "AutoAppliedSmartFocus" : "False",
                            "clipSpeedAttribute" : false
                          }
                        },
                        {
                          "id" : 1277,
                          "_type" : "UnifiedMedia",
                          "video" : 
                              {
                                "id" : 1278,
                                "_type" : "ScreenVMFile",
                                "src" : 1,
                                "trackNumber" : 0,
                                "attributes" : {
                                  "ident" : "Rec 01-28-21_001"
                                },
                                "parameters" : {
                                  "cursorScale" : {
                                    "type" : "double",
                                    "defaultValue" : 0.0,
                                    "interp" : "linr"
                                  },
                                  "cursorOpacity" : {
                                    "type" : "double",
                                    "defaultValue" : 0.0,
                                    "interp" : "linr"
                                  }
                                },
                                "effects" : [

                                ],
                                "start" : 480,
                                "duration" : 115,
                                "mediaStart" : 762,
                                "mediaDuration" : 115,
                                "scalar" : 1,
                                "animationTracks" : {

                                }
                              },
                          "audio" : 
                              {
                                "id" : 1279,
                                "_type" : "AMFile",
                                "src" : 1,
                                "trackNumber" : 1,
                                "attributes" : {
                                  "ident" : "",
                                  "gain" : 1.0,
                                  "mixToMono" : false
                                },
                                  "channelNumber" : "0,1",
                                "effects" : [

                                ],
                                "start" : 480,
                                "duration" : 115,
                                "mediaStart" : 762,
                                "mediaDuration" : 115,
                                "scalar" : 1,
                                "animationTracks" : {

                                }
                              }
,
                          "start" : 480,
                          "duration" : 115,
                          "mediaStart" : 0,
                          "mediaDuration" : 10411,
                          "scalar" : 1,
                          "metadata" : {
                            "AutoAppliedSmartFocus" : "False",
                            "clipSpeedAttribute" : false
                          }
                        },
                        {
                          "id" : 1280,
                          "_type" : "UnifiedMedia",
                          "video" : 
                              {
                                "id" : 1281,
                                "_type" : "ScreenVMFile",
                                "src" : 1,
                                "trackNumber" : 0,
                                "attributes" : {
                                  "ident" : "Rec 01-28-21_001"
                                },
                                "parameters" : {
                                  "cursorScale" : {
                                    "type" : "double",
                                    "defaultValue" : 0.0,
                                    "interp" : "linr"
                                  },
                                  "cursorOpacity" : {
                                    "type" : "double",
                                    "defaultValue" : 0.0,
                                    "interp" : "linr"
                                  }
                                },
                                "effects" : [

                                ],
                                "start" : 595,
                                "duration" : 154,
                                "mediaStart" : 1024,
                                "mediaDuration" : 154,
                                "scalar" : 1,
                                "animationTracks" : {

                                }
                              },
                          "audio" : 
                              {
                                "id" : 1282,
                                "_type" : "AMFile",
                                "src" : 1,
                                "trackNumber" : 1,
                                "attributes" : {
                                  "ident" : "",
                                  "gain" : 1.0,
                                  "mixToMono" : false
                                },
                                  "channelNumber" : "0,1",
                                "effects" : [

                                ],
                                "start" : 595,
                                "duration" : 154,
                                "mediaStart" : 1024,
                                "mediaDuration" : 154,
                                "scalar" : 1,
                                "animationTracks" : {

                                }
                              }
,
                          "start" : 595,
                          "duration" : 154,
                          "mediaStart" : 0,
                          "mediaDuration" : 10411,
                          "scalar" : 1,
                          "metadata" : {
                            "AutoAppliedSmartFocus" : "False",
                            "clipSpeedAttribute" : false
                          }
                        },
                        {
                          "id" : 1283,
                          "_type" : "UnifiedMedia",
                          "video" : 
                              {
                                "id" : 1284,
                                "_type" : "ScreenVMFile",
                                "src" : 1,
                                "trackNumber" : 0,
                                "attributes" : {
                                  "ident" : "Rec 01-28-21_001"
                                },
                                "parameters" : {
                                  "cursorScale" : {
                                    "type" : "double",
                                    "defaultValue" : 0.0,
                                    "interp" : "linr"
                                  },
                                  "cursorOpacity" : {
                                    "type" : "double",
                                    "defaultValue" : 0.0,
                                    "interp" : "linr"
                                  }
                                },
                                "effects" : [

                                ],
                                "start" : 749,
                                "duration" : 135,
                                "mediaStart" : 1207,
                                "mediaDuration" : 135,
                                "scalar" : 1,
                                "animationTracks" : {

                                }
                              },
                          "audio" : 
                              {
                                "id" : 1285,
                                "_type" : "AMFile",
                                "src" : 1,
                                "trackNumber" : 1,
                                "attributes" : {
                                  "ident" : "",
                                  "gain" : 1.0,
                                  "mixToMono" : false
                                },
                                  "channelNumber" : "0,1",
                                "effects" : [

                                ],
                                "start" : 749,
                                "duration" : 135,
                                "mediaStart" : 1207,
                                "mediaDuration" : 135,
                                "scalar" : 1,
                                "animationTracks" : {

                                }
                              }
,
                          "start" : 749,
                          "duration" : 135,
                          "mediaStart" : 0,
                          "mediaDuration" : 10411,
                          "scalar" : 1,
                          "metadata" : {
                            "AutoAppliedSmartFocus" : "False",
                            "clipSpeedAttribute" : false
                          }
                        },
                        {
                          "id" : 1286,
                          "_type" : "UnifiedMedia",
                          "video" : 
                              {
                                "id" : 1287,
                                "_type" : "ScreenVMFile",
                                "src" : 1,
                                "trackNumber" : 0,
                                "attributes" : {
                                  "ident" : "Rec 01-28-21_001"
                                },
                                "parameters" : {
                                  "cursorScale" : {
                                    "type" : "double",
                                    "defaultValue" : 0.0,
                                    "interp" : "linr"
                                  },
                                  "cursorOpacity" : {
                                    "type" : "double",
                                    "defaultValue" : 0.0,
                                    "interp" : "linr"
                                  }
                                },
                                "effects" : [

                                ],
                                "start" : 884,
                                "duration" : 150,
                                "mediaStart" : 1383,
                                "mediaDuration" : 150,
                                "scalar" : 1,
                                "animationTracks" : {

                                }
                              },
                          "audio" : 
                              {
                                "id" : 1288,
                                "_type" : "AMFile",
                                "src" : 1,
                                "trackNumber" : 1,
                                "attributes" : {
                                  "ident" : "",
                                  "gain" : 1.0,
                                  "mixToMono" : false
                                },
                                  "channelNumber" : "0,1",
                                "effects" : [

                                ],
                                "start" : 884,
                                "duration" : 150,
                                "mediaStart" : 1383,
                                "mediaDuration" : 150,
                                "scalar" : 1,
                                "animationTracks" : {

                                }
                              }
,
                          "start" : 884,
                          "duration" : 150,
                          "mediaStart" : 0,
                          "mediaDuration" : 10411,
                          "scalar" : 1,
                          "metadata" : {
                            "AutoAppliedSmartFocus" : "False",
                            "clipSpeedAttribute" : false
                          }
                        },
                        {
                          "id" : 1289,
                          "_type" : "UnifiedMedia",
                          "video" : 
                              {
                                "id" : 1290,
                                "_type" : "ScreenVMFile",
                                "src" : 1,
                                "trackNumber" : 0,
                                "attributes" : {
                                  "ident" : "Rec 01-28-21_001"
                                },
                                "parameters" : {
                                  "cursorScale" : {
                                    "type" : "double",
                                    "defaultValue" : 0.0,
                                    "interp" : "linr"
                                  },
                                  "cursorOpacity" : {
                                    "type" : "double",
                                    "defaultValue" : 0.0,
                                    "interp" : "linr"
                                  }
                                },
                                "effects" : [

                                ],
                                "start" : 1034,
                                "duration" : 89,
                                "mediaStart" : 1607,
                                "mediaDuration" : 89,
                                "scalar" : 1,
                                "animationTracks" : {

                                }
                              },
                          "audio" : 
                              {
                                "id" : 1291,
                                "_type" : "AMFile",
                                "src" : 1,
                                "trackNumber" : 1,
                                "attributes" : {
                                  "ident" : "",
                                  "gain" : 1.0,
                                  "mixToMono" : false
                                },
                                  "channelNumber" : "0,1",
                                "effects" : [

                                ],
                                "start" : 1034,
                                "duration" : 89,
                                "mediaStart" : 1607,
                                "mediaDuration" : 89,
                                "scalar" : 1,
                                "animationTracks" : {

                                }
                              }
,
                          "start" : 1034,
                          "duration" : 89,
                          "mediaStart" : 0,
                          "mediaDuration" : 10411,
                          "scalar" : 1,
                          "metadata" : {
                            "AutoAppliedSmartFocus" : "False",
                            "clipSpeedAttribute" : false
                          }
                        },
                        {
                          "id" : 1292,
                          "_type" : "UnifiedMedia",
                          "video" : 
                              {
                                "id" : 1293,
                                "_type" : "ScreenVMFile",
                                "src" : 1,
                                "trackNumber" : 0,
                                "attributes" : {
                                  "ident" : "Rec 01-28-21_001"
                                },
                                "parameters" : {
                                  "cursorScale" : {
                                    "type" : "double",
                                    "defaultValue" : 0.0,
                                    "interp" : "linr"
                                  },
                                  "cursorOpacity" : {
                                    "type" : "double",
                                    "defaultValue" : 0.0,
                                    "interp" : "linr"
                                  }
                                },
                                "effects" : [

                                ],
                                "start" : 1123,
                                "duration" : 37,
                                "mediaStart" : 1752,
                                "mediaDuration" : 37,
                                "scalar" : 1,
                                "animationTracks" : {

                                }
                              },
                          "audio" : 
                              {
                                "id" : 1294,
                                "_type" : "AMFile",
                                "src" : 1,
                                "trackNumber" : 1,
                                "attributes" : {
                                  "ident" : "",
                                  "gain" : 1.0,
                                  "mixToMono" : false
                                },
                                  "channelNumber" : "0,1",
                                "effects" : [

                                ],
                                "start" : 1123,
                                "duration" : 37,
                                "mediaStart" : 1752,
                                "mediaDuration" : 37,
                                "scalar" : 1,
                                "animationTracks" : {

                                }
                              }
,
                          "start" : 1123,
                          "duration" : 37,
                          "mediaStart" : 0,
                          "mediaDuration" : 10411,
                          "scalar" : 1,
                          "metadata" : {
                            "AutoAppliedSmartFocus" : "False",
                            "clipSpeedAttribute" : false
                          }
                        },
                        {
                          "id" : 1295,
                          "_type" : "UnifiedMedia",
                          "video" : 
                              {
                                "id" : 1296,
                                "_type" : "ScreenVMFile",
                                "src" : 1,
                                "trackNumber" : 0,
                                "attributes" : {
                                  "ident" : "Rec 01-28-21_001"
                                },
                                "parameters" : {
                                  "cursorScale" : {
                                    "type" : "double",
                                    "defaultValue" : 0.0,
                                    "interp" : "linr"
                                  },
                                  "cursorOpacity" : {
                                    "type" : "double",
                                    "defaultValue" : 0.0,
                                    "interp" : "linr"
                                  }
                                },
                                "effects" : [

                                ],
                                "start" : 1160,
                                "duration" : 34,
                                "mediaStart" : 1836,
                                "mediaDuration" : 34,
                                "scalar" : 1,
                                "animationTracks" : {

                                }
                              },
                          "audio" : 
                              {
                                "id" : 1297,
                                "_type" : "AMFile",
                                "src" : 1,
                                "trackNumber" : 1,
                                "attributes" : {
                                  "ident" : "",
                                  "gain" : 1.0,
                                  "mixToMono" : false
                                },
                                  "channelNumber" : "0,1",
                                "effects" : [

                                ],
                                "start" : 1160,
                                "duration" : 34,
                                "mediaStart" : 1836,
                                "mediaDuration" : 34,
                                "scalar" : 1,
                                "animationTracks" : {

                                }
                              }
,
                          "start" : 1160,
                          "duration" : 34,
                          "mediaStart" : 0,
                          "mediaDuration" : 10411,
                          "scalar" : 1,
                          "metadata" : {
                            "AutoAppliedSmartFocus" : "False",
                            "clipSpeedAttribute" : false
                          }
                        },
                        {
                          "id" : 1298,
                          "_type" : "UnifiedMedia",
                          "video" : 
                              {
                                "id" : 1299,
                                "_type" : "ScreenVMFile",
                                "src" : 1,
                                "trackNumber" : 0,
                                "attributes" : {
                                  "ident" : "Rec 01-28-21_001"
                                },
                                "parameters" : {
                                  "cursorScale" : {
                                    "type" : "double",
                                    "defaultValue" : 0.0,
                                    "interp" : "linr"
                                  },
                                  "cursorOpacity" : {
                                    "type" : "double",
                                    "defaultValue" : 0.0,
                                    "interp" : "linr"
                                  }
                                },
                                "effects" : [

                                ],
                                "start" : 1194,
                                "duration" : 41,
                                "mediaStart" : 1882,
                                "mediaDuration" : 41,
                                "scalar" : 1,
                                "animationTracks" : {

                                }
                              },
                          "audio" : 
                              {
                                "id" : 1300,
                                "_type" : "AMFile",
                                "src" : 1,
                                "trackNumber" : 1,
                                "attributes" : {
                                  "ident" : "",
                                  "gain" : 1.0,
                                  "mixToMono" : false
                                },
                                  "channelNumber" : "0,1",
                                "effects" : [

                                ],
                                "start" : 1194,
                                "duration" : 41,
                                "mediaStart" : 1882,
                                "mediaDuration" : 41,
                                "scalar" : 1,
                                "animationTracks" : {

                                }
                              }
,
                          "start" : 1194,
                          "duration" : 41,
                          "mediaStart" : 0,
                          "mediaDuration" : 10411,
                          "scalar" : 1,
                          "metadata" : {
                            "AutoAppliedSmartFocus" : "False",
                            "clipSpeedAttribute" : false
                          }
                        },
                        {
                          "id" : 1301,
                          "_type" : "UnifiedMedia",
                          "video" : 
                              {
                                "id" : 1302,
                                "_type" : "ScreenVMFile",
                                "src" : 1,
                                "trackNumber" : 0,
                                "attributes" : {
                                  "ident" : "Rec 01-28-21_001"
                                },
                                "parameters" : {
                                  "cursorScale" : {
                                    "type" : "double",
                                    "defaultValue" : 0.0,
                                    "interp" : "linr"
                                  },
                                  "cursorOpacity" : {
                                    "type" : "double",
                                    "defaultValue" : 0.0,
                                    "interp" : "linr"
                                  }
                                },
                                "effects" : [

                                ],
                                "start" : 1235,
                                "duration" : 41,
                                "mediaStart" : 1948,
                                "mediaDuration" : 41,
                                "scalar" : 1,
                                "animationTracks" : {

                                }
                              },
                          "audio" : 
                              {
                                "id" : 1303,
                                "_type" : "AMFile",
                                "src" : 1,
                                "trackNumber" : 1,
                                "attributes" : {
                                  "ident" : "",
                                  "gain" : 1.0,
                                  "mixToMono" : false
                                },
                                  "channelNumber" : "0,1",
                                "effects" : [

                                ],
                                "start" : 1235,
                                "duration" : 41,
                                "mediaStart" : 1948,
                                "mediaDuration" : 41,
                                "scalar" : 1,
                                "animationTracks" : {

                                }
                              }
,
                          "start" : 1235,
                          "duration" : 41,
                          "mediaStart" : 0,
                          "mediaDuration" : 10411,
                          "scalar" : 1,
                          "metadata" : {
                            "AutoAppliedSmartFocus" : "False",
                            "clipSpeedAttribute" : false
                          }
                        },
                        {
                          "id" : 1304,
                          "_type" : "UnifiedMedia",
                          "video" : 
                              {
                                "id" : 1305,
                                "_type" : "ScreenVMFile",
                                "src" : 1,
                                "trackNumber" : 0,
                                "attributes" : {
                                  "ident" : "Rec 01-28-21_001"
                                },
                                "parameters" : {
                                  "cursorScale" : {
                                    "type" : "double",
                                    "defaultValue" : 0.0,
                                    "interp" : "linr"
                                  },
                                  "cursorOpacity" : {
                                    "type" : "double",
                                    "defaultValue" : 0.0,
                                    "interp" : "linr"
                                  }
                                },
                                "effects" : [

                                ],
                                "start" : 1276,
                                "duration" : 55,
                                "mediaStart" : 2015,
                                "mediaDuration" : 55,
                                "scalar" : 1,
                                "animationTracks" : {

                                }
                              },
                          "audio" : 
                              {
                                "id" : 1306,
                                "_type" : "AMFile",
                                "src" : 1,
                                "trackNumber" : 1,
                                "attributes" : {
                                  "ident" : "",
                                  "gain" : 1.0,
                                  "mixToMono" : false
                                },
                                  "channelNumber" : "0,1",
                                "effects" : [

                                ],
                                "start" : 1276,
                                "duration" : 55,
                                "mediaStart" : 2015,
                                "mediaDuration" : 55,
                                "scalar" : 1,
                                "animationTracks" : {

                                }
                              }
,
                          "start" : 1276,
                          "duration" : 55,
                          "mediaStart" : 0,
                          "mediaDuration" : 10411,
                          "scalar" : 1,
                          "metadata" : {
                            "AutoAppliedSmartFocus" : "False",
                            "clipSpeedAttribute" : false
                          }
                        },
                        {
                          "id" : 1307,
                          "_type" : "UnifiedMedia",
                          "video" : 
                              {
                                "id" : 1308,
                                "_type" : "ScreenVMFile",
                                "src" : 1,
                                "trackNumber" : 0,
                                "attributes" : {
                                  "ident" : "Rec 01-28-21_001"
                                },
                                "parameters" : {
                                  "cursorScale" : {
                                    "type" : "double",
                                    "defaultValue" : 0.0,
                                    "interp" : "linr"
                                  },
                                  "cursorOpacity" : {
                                    "type" : "double",
                                    "defaultValue" : 0.0,
                                    "interp" : "linr"
                                  }
                                },
                                "effects" : [

                                ],
                                "start" : 1331,
                                "duration" : 42,
                                "mediaStart" : 2110,
                                "mediaDuration" : 42,
                                "scalar" : 1,
                                "animationTracks" : {

                                }
                              },
                          "audio" : 
                              {
                                "id" : 1309,
                                "_type" : "AMFile",
                                "src" : 1,
                                "trackNumber" : 1,
                                "attributes" : {
                                  "ident" : "",
                                  "gain" : 1.0,
                                  "mixToMono" : false
                                },
                                  "channelNumber" : "0,1",
                                "effects" : [

                                ],
                                "start" : 1331,
                                "duration" : 42,
                                "mediaStart" : 2110,
                                "mediaDuration" : 42,
                                "scalar" : 1,
                                "animationTracks" : {

                                }
                              }
,
                          "start" : 1331,
                          "duration" : 42,
                          "mediaStart" : 0,
                          "mediaDuration" : 10411,
                          "scalar" : 1,
                          "metadata" : {
                            "AutoAppliedSmartFocus" : "False",
                            "clipSpeedAttribute" : false
                          }
                        },
                        {
                          "id" : 1310,
                          "_type" : "UnifiedMedia",
                          "video" : 
                              {
                                "id" : 1311,
                                "_type" : "ScreenVMFile",
                                "src" : 1,
                                "trackNumber" : 0,
                                "attributes" : {
                                  "ident" : "Rec 01-28-21_001"
                                },
                                "parameters" : {
                                  "cursorScale" : {
                                    "type" : "double",
                                    "defaultValue" : 0.0,
                                    "interp" : "linr"
                                  },
                                  "cursorOpacity" : {
                                    "type" : "double",
                                    "defaultValue" : 0.0,
                                    "interp" : "linr"
                                  }
                                },
                                "effects" : [

                                ],
                                "start" : 1373,
                                "duration" : 23,
                                "mediaStart" : 2250,
                                "mediaDuration" : 23,
                                "scalar" : 1,
                                "animationTracks" : {

                                }
                              },
                          "audio" : 
                              {
                                "id" : 1312,
                                "_type" : "AMFile",
                                "src" : 1,
                                "trackNumber" : 1,
                                "attributes" : {
                                  "ident" : "",
                                  "gain" : 1.0,
                                  "mixToMono" : false
                                },
                                  "channelNumber" : "0,1",
                                "effects" : [

                                ],
                                "start" : 1373,
                                "duration" : 23,
                                "mediaStart" : 2250,
                                "mediaDuration" : 23,
                                "scalar" : 1,
                                "animationTracks" : {

                                }
                              }
,
                          "start" : 1373,
                          "duration" : 23,
                          "mediaStart" : 0,
                          "mediaDuration" : 10411,
                          "scalar" : 1,
                          "metadata" : {
                            "AutoAppliedSmartFocus" : "False",
                            "clipSpeedAttribute" : false
                          }
                        },
                        {
                          "id" : 1313,
                          "_type" : "UnifiedMedia",
                          "video" : 
                              {
                                "id" : 1314,
                                "_type" : "ScreenVMFile",
                                "src" : 1,
                                "trackNumber" : 0,
                                "attributes" : {
                                  "ident" : "Rec 01-28-21_001"
                                },
                                "parameters" : {
                                  "cursorScale" : {
                                    "type" : "double",
                                    "defaultValue" : 0.0,
                                    "interp" : "linr"
                                  },
                                  "cursorOpacity" : {
                                    "type" : "double",
                                    "defaultValue" : 0.0,
                                    "interp" : "linr"
                                  }
                                },
                                "effects" : [

                                ],
                                "start" : 1396,
                                "duration" : 79,
                                "mediaStart" : 2299,
                                "mediaDuration" : 79,
                                "scalar" : 1,
                                "animationTracks" : {

                                }
                              },
                          "audio" : 
                              {
                                "id" : 1315,
                                "_type" : "AMFile",
                                "src" : 1,
                                "trackNumber" : 1,
                                "attributes" : {
                                  "ident" : "",
                                  "gain" : 1.0,
                                  "mixToMono" : false
                                },
                                  "channelNumber" : "0,1",
                                "effects" : [

                                ],
                                "start" : 1396,
                                "duration" : 79,
                                "mediaStart" : 2299,
                                "mediaDuration" : 79,
                                "scalar" : 1,
                                "animationTracks" : {

                                }
                              }
,
                          "start" : 1396,
                          "duration" : 79,
                          "mediaStart" : 0,
                          "mediaDuration" : 10411,
                          "scalar" : 1,
                          "metadata" : {
                            "AutoAppliedSmartFocus" : "False",
                            "clipSpeedAttribute" : false
                          }
                        },
                        {
                          "id" : 1316,
                          "_type" : "UnifiedMedia",
                          "video" : 
                              {
                                "id" : 1317,
                                "_type" : "ScreenVMFile",
                                "src" : 1,
                                "trackNumber" : 0,
                                "attributes" : {
                                  "ident" : "Rec 01-28-21_001"
                                },
                                "parameters" : {
                                  "cursorScale" : {
                                    "type" : "double",
                                    "defaultValue" : 0.0,
                                    "interp" : "linr"
                                  },
                                  "cursorOpacity" : {
                                    "type" : "double",
                                    "defaultValue" : 0.0,
                                    "interp" : "linr"
                                  }
                                },
                                "effects" : [

                                ],
                                "start" : 1475,
                                "duration" : 64,
                                "mediaStart" : 2409,
                                "mediaDuration" : 64,
                                "scalar" : 1,
                                "animationTracks" : {

                                }
                              },
                          "audio" : 
                              {
                                "id" : 1318,
                                "_type" : "AMFile",
                                "src" : 1,
                                "trackNumber" : 1,
                                "attributes" : {
                                  "ident" : "",
                                  "gain" : 1.0,
                                  "mixToMono" : false
                                },
                                  "channelNumber" : "0,1",
                                "effects" : [

                                ],
                                "start" : 1475,
                                "duration" : 64,
                                "mediaStart" : 2409,
                                "mediaDuration" : 64,
                                "scalar" : 1,
                                "animationTracks" : {

                                }
                              }
,
                          "start" : 1475,
                          "duration" : 64,
                          "mediaStart" : 0,
                          "mediaDuration" : 10411,
                          "scalar" : 1,
                          "metadata" : {
                            "AutoAppliedSmartFocus" : "False",
                            "clipSpeedAttribute" : false
                          }
                        },
                        {
                          "id" : 1319,
                          "_type" : "UnifiedMedia",
                          "video" : 
                              {
                                "id" : 1320,
                                "_type" : "ScreenVMFile",
                                "src" : 1,
                                "trackNumber" : 0,
                                "attributes" : {
                                  "ident" : "Rec 01-28-21_001"
                                },
                                "parameters" : {
                                  "cursorScale" : {
                                    "type" : "double",
                                    "defaultValue" : 0.0,
                                    "interp" : "linr"
                                  },
                                  "cursorOpacity" : {
                                    "type" : "double",
                                    "defaultValue" : 0.0,
                                    "interp" : "linr"
                                  }
                                },
                                "effects" : [

                                ],
                                "start" : 1539,
                                "duration" : 43,
                                "mediaStart" : 2478,
                                "mediaDuration" : 43,
                                "scalar" : 1,
                                "animationTracks" : {

                                }
                              },
                          "audio" : 
                              {
                                "id" : 1321,
                                "_type" : "AMFile",
                                "src" : 1,
                                "trackNumber" : 1,
                                "attributes" : {
                                  "ident" : "",
                                  "gain" : 1.0,
                                  "mixToMono" : false
                                },
                                  "channelNumber" : "0,1",
                                "effects" : [

                                ],
                                "start" : 1539,
                                "duration" : 43,
                                "mediaStart" : 2478,
                                "mediaDuration" : 43,
                                "scalar" : 1,
                                "animationTracks" : {

                                }
                              }
,
                          "start" : 1539,
                          "duration" : 43,
                          "mediaStart" : 0,
                          "mediaDuration" : 10411,
                          "scalar" : 1,
                          "metadata" : {
                            "AutoAppliedSmartFocus" : "False",
                            "clipSpeedAttribute" : false
                          }
                        },
                        {
                          "id" : 1322,
                          "_type" : "UnifiedMedia",
                          "video" : 
                              {
                                "id" : 1323,
                                "_type" : "ScreenVMFile",
                                "src" : 1,
                                "trackNumber" : 0,
                                "attributes" : {
                                  "ident" : "Rec 01-28-21_001"
                                },
                                "parameters" : {
                                  "cursorScale" : {
                                    "type" : "double",
                                    "defaultValue" : 0.0,
                                    "interp" : "linr"
                                  },
                                  "cursorOpacity" : {
                                    "type" : "double",
                                    "defaultValue" : 0.0,
                                    "interp" : "linr"
                                  }
                                },
                                "effects" : [

                                ],
                                "start" : 1582,
                                "duration" : 47,
                                "mediaStart" : 2538,
                                "mediaDuration" : 47,
                                "scalar" : 1,
                                "animationTracks" : {

                                }
                              },
                          "audio" : 
                              {
                                "id" : 1324,
                                "_type" : "AMFile",
                                "src" : 1,
                                "trackNumber" : 1,
                                "attributes" : {
                                  "ident" : "",
                                  "gain" : 1.0,
                                  "mixToMono" : false
                                },
                                  "channelNumber" : "0,1",
                                "effects" : [

                                ],
                                "start" : 1582,
                                "duration" : 47,
                                "mediaStart" : 2538,
                                "mediaDuration" : 47,
                                "scalar" : 1,
                                "animationTracks" : {

                                }
                              }
,
                          "start" : 1582,
                          "duration" : 47,
                          "mediaStart" : 0,
                          "mediaDuration" : 10411,
                          "scalar" : 1,
                          "metadata" : {
                            "AutoAppliedSmartFocus" : "False",
                            "clipSpeedAttribute" : false
                          }
                        },
                        {
                          "id" : 1325,
                          "_type" : "UnifiedMedia",
                          "video" : 
                              {
                                "id" : 1326,
                                "_type" : "ScreenVMFile",
                                "src" : 1,
                                "trackNumber" : 0,
                                "attributes" : {
                                  "ident" : "Rec 01-28-21_001"
                                },
                                "parameters" : {
                                  "cursorScale" : {
                                    "type" : "double",
                                    "defaultValue" : 0.0,
                                    "interp" : "linr"
                                  },
                                  "cursorOpacity" : {
                                    "type" : "double",
                                    "defaultValue" : 0.0,
                                    "interp" : "linr"
                                  }
                                },
                                "effects" : [

                                ],
                                "start" : 1629,
                                "duration" : 299,
                                "mediaStart" : 2613,
                                "mediaDuration" : 299,
                                "scalar" : 1,
                                "animationTracks" : {

                                }
                              },
                          "audio" : 
                              {
                                "id" : 1327,
                                "_type" : "AMFile",
                                "src" : 1,
                                "trackNumber" : 1,
                                "attributes" : {
                                  "ident" : "",
                                  "gain" : 1.0,
                                  "mixToMono" : false
                                },
                                  "channelNumber" : "0,1",
                                "effects" : [

                                ],
                                "start" : 1629,
                                "duration" : 299,
                                "mediaStart" : 2613,
                                "mediaDuration" : 299,
                                "scalar" : 1,
                                "animationTracks" : {

                                }
                              }
,
                          "start" : 1629,
                          "duration" : 299,
                          "mediaStart" : 0,
                          "mediaDuration" : 10411,
                          "scalar" : 1,
                          "metadata" : {
                            "AutoAppliedSmartFocus" : "False",
                            "clipSpeedAttribute" : false
                          }
                        },
                        {
                          "id" : 1328,
                          "_type" : "UnifiedMedia",
                          "video" : 
                              {
                                "id" : 1329,
                                "_type" : "ScreenVMFile",
                                "src" : 1,
                                "trackNumber" : 0,
                                "attributes" : {
                                  "ident" : "Rec 01-28-21_001"
                                },
                                "parameters" : {
                                  "cursorScale" : {
                                    "type" : "double",
                                    "defaultValue" : 0.0,
                                    "interp" : "linr"
                                  },
                                  "cursorOpacity" : {
                                    "type" : "double",
                                    "defaultValue" : 0.0,
                                    "interp" : "linr"
                                  }
                                },
                                "effects" : [

                                ],
                                "start" : 1928,
                                "duration" : 53,
                                "mediaStart" : 3209,
                                "mediaDuration" : 53,
                                "scalar" : 1,
                                "animationTracks" : {

                                }
                              },
                          "audio" : 
                              {
                                "id" : 1330,
                                "_type" : "AMFile",
                                "src" : 1,
                                "trackNumber" : 1,
                                "attributes" : {
                                  "ident" : "",
                                  "gain" : 1.0,
                                  "mixToMono" : false
                                },
                                  "channelNumber" : "0,1",
                                "effects" : [

                                ],
                                "start" : 1928,
                                "duration" : 53,
                                "mediaStart" : 3209,
                                "mediaDuration" : 53,
                                "scalar" : 1,
                                "animationTracks" : {

                                }
                              }
,
                          "start" : 1928,
                          "duration" : 53,
                          "mediaStart" : 0,
                          "mediaDuration" : 10411,
                          "scalar" : 1,
                          "metadata" : {
                            "AutoAppliedSmartFocus" : "False",
                            "clipSpeedAttribute" : false
                          }
                        },
                        {
                          "id" : 1331,
                          "_type" : "UnifiedMedia",
                          "video" : 
                              {
                                "id" : 1332,
                                "_type" : "ScreenVMFile",
                                "src" : 1,
                                "trackNumber" : 0,
                                "attributes" : {
                                  "ident" : "Rec 01-28-21_001"
                                },
                                "parameters" : {
                                  "cursorScale" : {
                                    "type" : "double",
                                    "defaultValue" : 0.0,
                                    "interp" : "linr"
                                  },
                                  "cursorOpacity" : {
                                    "type" : "double",
                                    "defaultValue" : 0.0,
                                    "interp" : "linr"
                                  }
                                },
                                "effects" : [

                                ],
                                "start" : 1981,
                                "duration" : 47,
                                "mediaStart" : 3282,
                                "mediaDuration" : 47,
                                "scalar" : 1,
                                "animationTracks" : {

                                }
                              },
                          "audio" : 
                              {
                                "id" : 1333,
                                "_type" : "AMFile",
                                "src" : 1,
                                "trackNumber" : 1,
                                "attributes" : {
                                  "ident" : "",
                                  "gain" : 1.0,
                                  "mixToMono" : false
                                },
                                  "channelNumber" : "0,1",
                                "effects" : [

                                ],
                                "start" : 1981,
                                "duration" : 47,
                                "mediaStart" : 3282,
                                "mediaDuration" : 47,
                                "scalar" : 1,
                                "animationTracks" : {

                                }
                              }
,
                          "start" : 1981,
                          "duration" : 47,
                          "mediaStart" : 0,
                          "mediaDuration" : 10411,
                          "scalar" : 1,
                          "metadata" : {
                            "AutoAppliedSmartFocus" : "False",
                            "clipSpeedAttribute" : false
                          }
                        },
                        {
                          "id" : 1334,
                          "_type" : "UnifiedMedia",
                          "video" : 
                              {
                                "id" : 1335,
                                "_type" : "ScreenVMFile",
                                "src" : 1,
                                "trackNumber" : 0,
                                "attributes" : {
                                  "ident" : "Rec 01-28-21_001"
                                },
                                "parameters" : {
                                  "cursorScale" : {
                                    "type" : "double",
                                    "defaultValue" : 0.0,
                                    "interp" : "linr"
                                  },
                                  "cursorOpacity" : {
                                    "type" : "double",
                                    "defaultValue" : 0.0,
                                    "interp" : "linr"
                                  }
                                },
                                "effects" : [

                                ],
                                "start" : 2028,
                                "duration" : 103,
                                "mediaStart" : 3341,
                                "mediaDuration" : 103,
                                "scalar" : 1,
                                "animationTracks" : {

                                }
                              },
                          "audio" : 
                              {
                                "id" : 1336,
                                "_type" : "AMFile",
                                "src" : 1,
                                "trackNumber" : 1,
                                "attributes" : {
                                  "ident" : "",
                                  "gain" : 1.0,
                                  "mixToMono" : false
                                },
                                  "channelNumber" : "0,1",
                                "effects" : [

                                ],
                                "start" : 2028,
                                "duration" : 103,
                                "mediaStart" : 3341,
                                "mediaDuration" : 103,
                                "scalar" : 1,
                                "animationTracks" : {

                                }
                              }
,
                          "start" : 2028,
                          "duration" : 103,
                          "mediaStart" : 0,
                          "mediaDuration" : 10411,
                          "scalar" : 1,
                          "metadata" : {
                            "AutoAppliedSmartFocus" : "False",
                            "clipSpeedAttribute" : false
                          }
                        },
                        {
                          "id" : 1337,
                          "_type" : "UnifiedMedia",
                          "video" : 
                              {
                                "id" : 1338,
                                "_type" : "ScreenVMFile",
                                "src" : 1,
                                "trackNumber" : 0,
                                "attributes" : {
                                  "ident" : "Rec 01-28-21_001"
                                },
                                "parameters" : {
                                  "cursorScale" : {
                                    "type" : "double",
                                    "defaultValue" : 0.0,
                                    "interp" : "linr"
                                  },
                                  "cursorOpacity" : {
                                    "type" : "double",
                                    "defaultValue" : 0.0,
                                    "interp" : "linr"
                                  }
                                },
                                "effects" : [

                                ],
                                "start" : 2131,
                                "duration" : 26,
                                "mediaStart" : 3468,
                                "mediaDuration" : 26,
                                "scalar" : 1,
                                "animationTracks" : {

                                }
                              },
                          "audio" : 
                              {
                                "id" : 1339,
                                "_type" : "AMFile",
                                "src" : 1,
                                "trackNumber" : 1,
                                "attributes" : {
                                  "ident" : "",
                                  "gain" : 1.0,
                                  "mixToMono" : false
                                },
                                  "channelNumber" : "0,1",
                                "effects" : [

                                ],
                                "start" : 2131,
                                "duration" : 26,
                                "mediaStart" : 3468,
                                "mediaDuration" : 26,
                                "scalar" : 1,
                                "animationTracks" : {

                                }
                              }
,
                          "start" : 2131,
                          "duration" : 26,
                          "mediaStart" : 0,
                          "mediaDuration" : 10411,
                          "scalar" : 1,
                          "metadata" : {
                            "AutoAppliedSmartFocus" : "False",
                            "clipSpeedAttribute" : false
                          }
                        },
                        {
                          "id" : 1340,
                          "_type" : "UnifiedMedia",
                          "video" : 
                              {
                                "id" : 1341,
                                "_type" : "ScreenVMFile",
                                "src" : 1,
                                "trackNumber" : 0,
                                "attributes" : {
                                  "ident" : "Rec 01-28-21_001"
                                },
                                "parameters" : {
                                  "cursorScale" : {
                                    "type" : "double",
                                    "defaultValue" : 0.0,
                                    "interp" : "linr"
                                  },
                                  "cursorOpacity" : {
                                    "type" : "double",
                                    "defaultValue" : 0.0,
                                    "interp" : "linr"
                                  }
                                },
                                "effects" : [

                                ],
                                "start" : 2157,
                                "duration" : 41,
                                "mediaStart" : 3504,
                                "mediaDuration" : 41,
                                "scalar" : 1,
                                "animationTracks" : {

                                }
                              },
                          "audio" : 
                              {
                                "id" : 1342,
                                "_type" : "AMFile",
                                "src" : 1,
                                "trackNumber" : 1,
                                "attributes" : {
                                  "ident" : "",
                                  "gain" : 1.0,
                                  "mixToMono" : false
                                },
                                  "channelNumber" : "0,1",
                                "effects" : [

                                ],
                                "start" : 2157,
                                "duration" : 41,
                                "mediaStart" : 3504,
                                "mediaDuration" : 41,
                                "scalar" : 1,
                                "animationTracks" : {

                                }
                              }
,
                          "start" : 2157,
                          "duration" : 41,
                          "mediaStart" : 0,
                          "mediaDuration" : 10411,
                          "scalar" : 1,
                          "metadata" : {
                            "AutoAppliedSmartFocus" : "False",
                            "clipSpeedAttribute" : false
                          }
                        },
                        {
                          "id" : 1343,
                          "_type" : "UnifiedMedia",
                          "video" : 
                              {
                                "id" : 1344,
                                "_type" : "ScreenVMFile",
                                "src" : 1,
                                "trackNumber" : 0,
                                "attributes" : {
                                  "ident" : "Rec 01-28-21_001"
                                },
                                "parameters" : {
                                  "cursorScale" : {
                                    "type" : "double",
                                    "defaultValue" : 0.0,
                                    "interp" : "linr"
                                  },
                                  "cursorOpacity" : {
                                    "type" : "double",
                                    "defaultValue" : 0.0,
                                    "interp" : "linr"
                                  }
                                },
                                "effects" : [

                                ],
                                "start" : 2198,
                                "duration" : 108,
                                "mediaStart" : 3657,
                                "mediaDuration" : 108,
                                "scalar" : 1,
                                "animationTracks" : {

                                }
                              },
                          "audio" : 
                              {
                                "id" : 1345,
                                "_type" : "AMFile",
                                "src" : 1,
                                "trackNumber" : 1,
                                "attributes" : {
                                  "ident" : "",
                                  "gain" : 1.0,
                                  "mixToMono" : false
                                },
                                  "channelNumber" : "0,1",
                                "effects" : [

                                ],
                                "start" : 2198,
                                "duration" : 108,
                                "mediaStart" : 3657,
                                "mediaDuration" : 108,
                                "scalar" : 1,
                                "animationTracks" : {

                                }
                              }
,
                          "start" : 2198,
                          "duration" : 108,
                          "mediaStart" : 0,
                          "mediaDuration" : 10411,
                          "scalar" : 1,
                          "metadata" : {
                            "AutoAppliedSmartFocus" : "False",
                            "clipSpeedAttribute" : false
                          }
                        },
                        {
                          "id" : 1346,
                          "_type" : "UnifiedMedia",
                          "video" : 
                              {
                                "id" : 1347,
                                "_type" : "ScreenVMFile",
                                "src" : 1,
                                "trackNumber" : 0,
                                "attributes" : {
                                  "ident" : "Rec 01-28-21_001"
                                },
                                "parameters" : {
                                  "cursorScale" : {
                                    "type" : "double",
                                    "defaultValue" : 0.0,
                                    "interp" : "linr"
                                  },
                                  "cursorOpacity" : {
                                    "type" : "double",
                                    "defaultValue" : 0.0,
                                    "interp" : "linr"
                                  }
                                },
                                "effects" : [

                                ],
                                "start" : 2306,
                                "duration" : 124,
                                "mediaStart" : 3787,
                                "mediaDuration" : 124,
                                "scalar" : 1,
                                "animationTracks" : {

                                }
                              },
                          "audio" : 
                              {
                                "id" : 1348,
                                "_type" : "AMFile",
                                "src" : 1,
                                "trackNumber" : 1,
                                "attributes" : {
                                  "ident" : "",
                                  "gain" : 1.0,
                                  "mixToMono" : false
                                },
                                  "channelNumber" : "0,1",
                                "effects" : [

                                ],
                                "start" : 2306,
                                "duration" : 124,
                                "mediaStart" : 3787,
                                "mediaDuration" : 124,
                                "scalar" : 1,
                                "animationTracks" : {

                                }
                              }
,
                          "start" : 2306,
                          "duration" : 124,
                          "mediaStart" : 0,
                          "mediaDuration" : 10411,
                          "scalar" : 1,
                          "metadata" : {
                            "AutoAppliedSmartFocus" : "False",
                            "clipSpeedAttribute" : false
                          }
                        },
                        {
                          "id" : 1349,
                          "_type" : "UnifiedMedia",
                          "video" : 
                              {
                                "id" : 1350,
                                "_type" : "ScreenVMFile",
                                "src" : 1,
                                "trackNumber" : 0,
                                "attributes" : {
                                  "ident" : "Rec 01-28-21_001"
                                },
                                "parameters" : {
                                  "cursorScale" : {
                                    "type" : "double",
                                    "defaultValue" : 0.0,
                                    "interp" : "linr"
                                  },
                                  "cursorOpacity" : {
                                    "type" : "double",
                                    "defaultValue" : 0.0,
                                    "interp" : "linr"
                                  }
                                },
                                "effects" : [

                                ],
                                "start" : 2430,
                                "duration" : 282,
                                "mediaStart" : 3991,
                                "mediaDuration" : 282,
                                "scalar" : 1,
                                "animationTracks" : {

                                }
                              },
                          "audio" : 
                              {
                                "id" : 1351,
                                "_type" : "AMFile",
                                "src" : 1,
                                "trackNumber" : 1,
                                "attributes" : {
                                  "ident" : "",
                                  "gain" : 1.0,
                                  "mixToMono" : false
                                },
                                  "channelNumber" : "0,1",
                                "effects" : [

                                ],
                                "start" : 2430,
                                "duration" : 282,
                                "mediaStart" : 3991,
                                "mediaDuration" : 282,
                                "scalar" : 1,
                                "animationTracks" : {

                                }
                              }
,
                          "start" : 2430,
                          "duration" : 282,
                          "mediaStart" : 0,
                          "mediaDuration" : 10411,
                          "scalar" : 1,
                          "metadata" : {
                            "AutoAppliedSmartFocus" : "False",
                            "clipSpeedAttribute" : false
                          }
                        },
                        {
                          "id" : 1352,
                          "_type" : "UnifiedMedia",
                          "video" : 
                              {
                                "id" : 1353,
                                "_type" : "ScreenVMFile",
                                "src" : 1,
                                "trackNumber" : 0,
                                "attributes" : {
                                  "ident" : "Rec 01-28-21_001"
                                },
                                "parameters" : {
                                  "cursorScale" : {
                                    "type" : "double",
                                    "defaultValue" : 0.0,
                                    "interp" : "linr"
                                  },
                                  "cursorOpacity" : {
                                    "type" : "double",
                                    "defaultValue" : 0.0,
                                    "interp" : "linr"
                                  }
                                },
                                "effects" : [

                                ],
                                "start" : 2712,
                                "duration" : 205,
                                "mediaStart" : 4397,
                                "mediaDuration" : 205,
                                "scalar" : 1,
                                "animationTracks" : {

                                }
                              },
                          "audio" : 
                              {
                                "id" : 1354,
                                "_type" : "AMFile",
                                "src" : 1,
                                "trackNumber" : 1,
                                "attributes" : {
                                  "ident" : "",
                                  "gain" : 1.0,
                                  "mixToMono" : false
                                },
                                  "channelNumber" : "0,1",
                                "effects" : [

                                ],
                                "start" : 2712,
                                "duration" : 205,
                                "mediaStart" : 4397,
                                "mediaDuration" : 205,
                                "scalar" : 1,
                                "animationTracks" : {

                                }
                              }
,
                          "start" : 2712,
                          "duration" : 205,
                          "mediaStart" : 0,
                          "mediaDuration" : 10411,
                          "scalar" : 1,
                          "metadata" : {
                            "AutoAppliedSmartFocus" : "False",
                            "clipSpeedAttribute" : false
                          }
                        },
                        {
                          "id" : 1355,
                          "_type" : "UnifiedMedia",
                          "video" : 
                              {
                                "id" : 1356,
                                "_type" : "ScreenVMFile",
                                "src" : 1,
                                "trackNumber" : 0,
                                "attributes" : {
                                  "ident" : "Rec 01-28-21_001"
                                },
                                "parameters" : {
                                  "cursorScale" : {
                                    "type" : "double",
                                    "defaultValue" : 0.0,
                                    "interp" : "linr"
                                  },
                                  "cursorOpacity" : {
                                    "type" : "double",
                                    "defaultValue" : 0.0,
                                    "interp" : "linr"
                                  }
                                },
                                "effects" : [

                                ],
                                "start" : 2917,
                                "duration" : 61,
                                "mediaStart" : 4960,
                                "mediaDuration" : 61,
                                "scalar" : 1,
                                "animationTracks" : {

                                }
                              },
                          "audio" : 
                              {
                                "id" : 1357,
                                "_type" : "AMFile",
                                "src" : 1,
                                "trackNumber" : 1,
                                "attributes" : {
                                  "ident" : "",
                                  "gain" : 1.0,
                                  "mixToMono" : false
                                },
                                  "channelNumber" : "0,1",
                                "effects" : [

                                ],
                                "start" : 2917,
                                "duration" : 61,
                                "mediaStart" : 4960,
                                "mediaDuration" : 61,
                                "scalar" : 1,
                                "animationTracks" : {

                                }
                              }
,
                          "start" : 2917,
                          "duration" : 61,
                          "mediaStart" : 0,
                          "mediaDuration" : 10411,
                          "scalar" : 1,
                          "metadata" : {
                            "AutoAppliedSmartFocus" : "False",
                            "clipSpeedAttribute" : false
                          }
                        },
                        {
                          "id" : 1358,
                          "_type" : "UnifiedMedia",
                          "video" : 
                              {
                                "id" : 1359,
                                "_type" : "ScreenVMFile",
                                "src" : 1,
                                "trackNumber" : 0,
                                "attributes" : {
                                  "ident" : "Rec 01-28-21_001"
                                },
                                "parameters" : {
                                  "cursorScale" : {
                                    "type" : "double",
                                    "defaultValue" : 0.0,
                                    "interp" : "linr"
                                  },
                                  "cursorOpacity" : {
                                    "type" : "double",
                                    "defaultValue" : 0.0,
                                    "interp" : "linr"
                                  }
                                },
                                "effects" : [

                                ],
                                "start" : 2978,
                                "duration" : 172,
                                "mediaStart" : 5035,
                                "mediaDuration" : 172,
                                "scalar" : 1,
                                "animationTracks" : {

                                }
                              },
                          "audio" : 
                              {
                                "id" : 1360,
                                "_type" : "AMFile",
                                "src" : 1,
                                "trackNumber" : 1,
                                "attributes" : {
                                  "ident" : "",
                                  "gain" : 1.0,
                                  "mixToMono" : false
                                },
                                  "channelNumber" : "0,1",
                                "effects" : [

                                ],
                                "start" : 2978,
                                "duration" : 172,
                                "mediaStart" : 5035,
                                "mediaDuration" : 172,
                                "scalar" : 1,
                                "animationTracks" : {

                                }
                              }
,
                          "start" : 2978,
                          "duration" : 172,
                          "mediaStart" : 0,
                          "mediaDuration" : 10411,
                          "scalar" : 1,
                          "metadata" : {
                            "AutoAppliedSmartFocus" : "False",
                            "clipSpeedAttribute" : false
                          }
                        },
                        {
                          "id" : 1361,
                          "_type" : "UnifiedMedia",
                          "video" : 
                              {
                                "id" : 1362,
                                "_type" : "ScreenVMFile",
                                "src" : 1,
                                "trackNumber" : 0,
                                "attributes" : {
                                  "ident" : "Rec 01-28-21_001"
                                },
                                "parameters" : {
                                  "cursorScale" : {
                                    "type" : "double",
                                    "defaultValue" : 0.0,
                                    "interp" : "linr"
                                  },
                                  "cursorOpacity" : {
                                    "type" : "double",
                                    "defaultValue" : 0.0,
                                    "interp" : "linr"
                                  }
                                },
                                "effects" : [

                                ],
                                "start" : 3150,
                                "duration" : 199,
                                "mediaStart" : 5255,
                                "mediaDuration" : 199,
                                "scalar" : 1,
                                "animationTracks" : {

                                }
                              },
                          "audio" : 
                              {
                                "id" : 1363,
                                "_type" : "AMFile",
                                "src" : 1,
                                "trackNumber" : 1,
                                "attributes" : {
                                  "ident" : "",
                                  "gain" : 1.0,
                                  "mixToMono" : false
                                },
                                  "channelNumber" : "0,1",
                                "effects" : [

                                ],
                                "start" : 3150,
                                "duration" : 199,
                                "mediaStart" : 5255,
                                "mediaDuration" : 199,
                                "scalar" : 1,
                                "animationTracks" : {

                                }
                              }
,
                          "start" : 3150,
                          "duration" : 199,
                          "mediaStart" : 0,
                          "mediaDuration" : 10411,
                          "scalar" : 1,
                          "metadata" : {
                            "AutoAppliedSmartFocus" : "False",
                            "clipSpeedAttribute" : false
                          }
                        },
                        {
                          "id" : 1364,
                          "_type" : "UnifiedMedia",
                          "video" : 
                              {
                                "id" : 1365,
                                "_type" : "ScreenVMFile",
                                "src" : 1,
                                "trackNumber" : 0,
                                "attributes" : {
                                  "ident" : "Rec 01-28-21_001"
                                },
                                "parameters" : {
                                  "cursorScale" : {
                                    "type" : "double",
                                    "defaultValue" : 0.0,
                                    "interp" : "linr"
                                  },
                                  "cursorOpacity" : {
                                    "type" : "double",
                                    "defaultValue" : 0.0,
                                    "interp" : "linr"
                                  }
                                },
                                "effects" : [

                                ],
                                "start" : 3349,
                                "duration" : 150,
                                "mediaStart" : 5507,
                                "mediaDuration" : 150,
                                "scalar" : 1,
                                "animationTracks" : {

                                }
                              },
                          "audio" : 
                              {
                                "id" : 1366,
                                "_type" : "AMFile",
                                "src" : 1,
                                "trackNumber" : 1,
                                "attributes" : {
                                  "ident" : "",
                                  "gain" : 1.0,
                                  "mixToMono" : false
                                },
                                  "channelNumber" : "0,1",
                                "effects" : [

                                ],
                                "start" : 3349,
                                "duration" : 150,
                                "mediaStart" : 5507,
                                "mediaDuration" : 150,
                                "scalar" : 1,
                                "animationTracks" : {

                                }
                              }
,
                          "start" : 3349,
                          "duration" : 150,
                          "mediaStart" : 0,
                          "mediaDuration" : 10411,
                          "scalar" : 1,
                          "metadata" : {
                            "AutoAppliedSmartFocus" : "False",
                            "clipSpeedAttribute" : false
                          }
                        },
                        {
                          "id" : 1367,
                          "_type" : "UnifiedMedia",
                          "video" : 
                              {
                                "id" : 1368,
                                "_type" : "ScreenVMFile",
                                "src" : 1,
                                "trackNumber" : 0,
                                "attributes" : {
                                  "ident" : "Rec 01-28-21_001"
                                },
                                "parameters" : {
                                  "cursorScale" : {
                                    "type" : "double",
                                    "defaultValue" : 0.0,
                                    "interp" : "linr"
                                  },
                                  "cursorOpacity" : {
                                    "type" : "double",
                                    "defaultValue" : 0.0,
                                    "interp" : "linr"
                                  }
                                },
                                "effects" : [

                                ],
                                "start" : 3499,
                                "duration" : 336,
                                "mediaStart" : 6158,
                                "mediaDuration" : 336,
                                "scalar" : 1,
                                "animationTracks" : {

                                }
                              },
                          "audio" : 
                              {
                                "id" : 1369,
                                "_type" : "AMFile",
                                "src" : 1,
                                "trackNumber" : 1,
                                "attributes" : {
                                  "ident" : "",
                                  "gain" : 1.0,
                                  "mixToMono" : false
                                },
                                  "channelNumber" : "0,1",
                                "effects" : [

                                ],
                                "start" : 3499,
                                "duration" : 336,
                                "mediaStart" : 6158,
                                "mediaDuration" : 336,
                                "scalar" : 1,
                                "animationTracks" : {

                                }
                              }
,
                          "start" : 3499,
                          "duration" : 336,
                          "mediaStart" : 0,
                          "mediaDuration" : 10411,
                          "scalar" : 1,
                          "metadata" : {
                            "AutoAppliedSmartFocus" : "False",
                            "clipSpeedAttribute" : false
                          }
                        },
                        {
                          "id" : 1370,
                          "_type" : "UnifiedMedia",
                          "video" : 
                              {
                                "id" : 1371,
                                "_type" : "ScreenVMFile",
                                "src" : 1,
                                "trackNumber" : 0,
                                "attributes" : {
                                  "ident" : "Rec 01-28-21_001"
                                },
                                "parameters" : {
                                  "cursorScale" : {
                                    "type" : "double",
                                    "defaultValue" : 0.0,
                                    "interp" : "linr"
                                  },
                                  "cursorOpacity" : {
                                    "type" : "double",
                                    "defaultValue" : 0.0,
                                    "interp" : "linr"
                                  }
                                },
                                "effects" : [

                                ],
                                "start" : 3835,
                                "duration" : 73,
                                "mediaStart" : 6577,
                                "mediaDuration" : 73,
                                "scalar" : 1,
                                "animationTracks" : {

                                }
                              },
                          "audio" : 
                              {
                                "id" : 1372,
                                "_type" : "AMFile",
                                "src" : 1,
                                "trackNumber" : 1,
                                "attributes" : {
                                  "ident" : "",
                                  "gain" : 1.0,
                                  "mixToMono" : false
                                },
                                  "channelNumber" : "0,1",
                                "effects" : [

                                ],
                                "start" : 3835,
                                "duration" : 73,
                                "mediaStart" : 6577,
                                "mediaDuration" : 73,
                                "scalar" : 1,
                                "animationTracks" : {

                                }
                              }
,
                          "start" : 3835,
                          "duration" : 73,
                          "mediaStart" : 0,
                          "mediaDuration" : 10411,
                          "scalar" : 1,
                          "metadata" : {
                            "AutoAppliedSmartFocus" : "False",
                            "clipSpeedAttribute" : false
                          }
                        },
                        {
                          "id" : 1373,
                          "_type" : "UnifiedMedia",
                          "video" : 
                              {
                                "id" : 1374,
                                "_type" : "ScreenVMFile",
                                "src" : 1,
                                "trackNumber" : 0,
                                "attributes" : {
                                  "ident" : "Rec 01-28-21_001"
                                },
                                "parameters" : {
                                  "cursorScale" : {
                                    "type" : "double",
                                    "defaultValue" : 0.0,
                                    "interp" : "linr"
                                  },
                                  "cursorOpacity" : {
                                    "type" : "double",
                                    "defaultValue" : 0.0,
                                    "interp" : "linr"
                                  }
                                },
                                "effects" : [

                                ],
                                "start" : 3908,
                                "duration" : 401,
                                "mediaStart" : 6679,
                                "mediaDuration" : 401,
                                "scalar" : 1,
                                "animationTracks" : {

                                }
                              },
                          "audio" : 
                              {
                                "id" : 1375,
                                "_type" : "AMFile",
                                "src" : 1,
                                "trackNumber" : 1,
                                "attributes" : {
                                  "ident" : "",
                                  "gain" : 1.0,
                                  "mixToMono" : false
                                },
                                  "channelNumber" : "0,1",
                                "effects" : [

                                ],
                                "start" : 3908,
                                "duration" : 401,
                                "mediaStart" : 6679,
                                "mediaDuration" : 401,
                                "scalar" : 1,
                                "animationTracks" : {

                                }
                              }
,
                          "start" : 3908,
                          "duration" : 401,
                          "mediaStart" : 0,
                          "mediaDuration" : 10411,
                          "scalar" : 1,
                          "metadata" : {
                            "AutoAppliedSmartFocus" : "False",
                            "clipSpeedAttribute" : false
                          }
                        },
                        {
                          "id" : 1376,
                          "_type" : "UnifiedMedia",
                          "video" : 
                              {
                                "id" : 1377,
                                "_type" : "ScreenVMFile",
                                "src" : 1,
                                "trackNumber" : 0,
                                "attributes" : {
                                  "ident" : "Rec 01-28-21_001"
                                },
                                "parameters" : {
                                  "cursorScale" : {
                                    "type" : "double",
                                    "defaultValue" : 0.0,
                                    "interp" : "linr"
                                  },
                                  "cursorOpacity" : {
                                    "type" : "double",
                                    "defaultValue" : 0.0,
                                    "interp" : "linr"
                                  }
                                },
                                "effects" : [

                                ],
                                "start" : 4309,
                                "duration" : 98,
                                "mediaStart" : 7143,
                                "mediaDuration" : 98,
                                "scalar" : 1,
                                "animationTracks" : {

                                }
                              },
                          "audio" : 
                              {
                                "id" : 1378,
                                "_type" : "AMFile",
                                "src" : 1,
                                "trackNumber" : 1,
                                "attributes" : {
                                  "ident" : "",
                                  "gain" : 1.0,
                                  "mixToMono" : false
                                },
                                  "channelNumber" : "0,1",
                                "effects" : [

                                ],
                                "start" : 4309,
                                "duration" : 98,
                                "mediaStart" : 7143,
                                "mediaDuration" : 98,
                                "scalar" : 1,
                                "animationTracks" : {

                                }
                              }
,
                          "start" : 4309,
                          "duration" : 98,
                          "mediaStart" : 0,
                          "mediaDuration" : 10411,
                          "scalar" : 1,
                          "metadata" : {
                            "AutoAppliedSmartFocus" : "False",
                            "clipSpeedAttribute" : false
                          }
                        },
                        {
                          "id" : 1379,
                          "_type" : "UnifiedMedia",
                          "video" : 
                              {
                                "id" : 1380,
                                "_type" : "ScreenVMFile",
                                "src" : 1,
                                "trackNumber" : 0,
                                "attributes" : {
                                  "ident" : "Rec 01-28-21_001"
                                },
                                "parameters" : {
                                  "cursorScale" : {
                                    "type" : "double",
                                    "defaultValue" : 0.0,
                                    "interp" : "linr"
                                  },
                                  "cursorOpacity" : {
                                    "type" : "double",
                                    "defaultValue" : 0.0,
                                    "interp" : "linr"
                                  }
                                },
                                "effects" : [

                                ],
                                "start" : 4407,
                                "duration" : 108,
                                "mediaStart" : 7264,
                                "mediaDuration" : 108,
                                "scalar" : 1,
                                "animationTracks" : {

                                }
                              },
                          "audio" : 
                              {
                                "id" : 1381,
                                "_type" : "AMFile",
                                "src" : 1,
                                "trackNumber" : 1,
                                "attributes" : {
                                  "ident" : "",
                                  "gain" : 1.0,
                                  "mixToMono" : false
                                },
                                  "channelNumber" : "0,1",
                                "effects" : [

                                ],
                                "start" : 4407,
                                "duration" : 108,
                                "mediaStart" : 7264,
                                "mediaDuration" : 108,
                                "scalar" : 1,
                                "animationTracks" : {

                                }
                              }
,
                          "start" : 4407,
                          "duration" : 108,
                          "mediaStart" : 0,
                          "mediaDuration" : 10411,
                          "scalar" : 1,
                          "metadata" : {
                            "AutoAppliedSmartFocus" : "False",
                            "clipSpeedAttribute" : false
                          }
                        },
                        {
                          "id" : 1382,
                          "_type" : "UnifiedMedia",
                          "video" : 
                              {
                                "id" : 1383,
                                "_type" : "ScreenVMFile",
                                "src" : 1,
                                "trackNumber" : 0,
                                "attributes" : {
                                  "ident" : "Rec 01-28-21_001"
                                },
                                "parameters" : {
                                  "cursorScale" : {
                                    "type" : "double",
                                    "defaultValue" : 0.0,
                                    "interp" : "linr"
                                  },
                                  "cursorOpacity" : {
                                    "type" : "double",
                                    "defaultValue" : 0.0,
                                    "interp" : "linr"
                                  }
                                },
                                "effects" : [

                                ],
                                "start" : 4515,
                                "duration" : 66,
                                "mediaStart" : 7571,
                                "mediaDuration" : 66,
                                "scalar" : 1,
                                "animationTracks" : {

                                }
                              },
                          "audio" : 
                              {
                                "id" : 1384,
                                "_type" : "AMFile",
                                "src" : 1,
                                "trackNumber" : 1,
                                "attributes" : {
                                  "ident" : "",
                                  "gain" : 1.0,
                                  "mixToMono" : false
                                },
                                  "channelNumber" : "0,1",
                                "effects" : [

                                ],
                                "start" : 4515,
                                "duration" : 66,
                                "mediaStart" : 7571,
                                "mediaDuration" : 66,
                                "scalar" : 1,
                                "animationTracks" : {

                                }
                              }
,
                          "start" : 4515,
                          "duration" : 66,
                          "mediaStart" : 0,
                          "mediaDuration" : 10411,
                          "scalar" : 1,
                          "metadata" : {
                            "AutoAppliedSmartFocus" : "False",
                            "clipSpeedAttribute" : false
                          }
                        },
                        {
                          "id" : 1385,
                          "_type" : "UnifiedMedia",
                          "video" : 
                              {
                                "id" : 1386,
                                "_type" : "ScreenVMFile",
                                "src" : 1,
                                "trackNumber" : 0,
                                "attributes" : {
                                  "ident" : "Rec 01-28-21_001"
                                },
                                "parameters" : {
                                  "cursorScale" : {
                                    "type" : "double",
                                    "defaultValue" : 0.0,
                                    "interp" : "linr"
                                  },
                                  "cursorOpacity" : {
                                    "type" : "double",
                                    "defaultValue" : 0.0,
                                    "interp" : "linr"
                                  }
                                },
                                "effects" : [

                                ],
                                "start" : 4581,
                                "duration" : 19,
                                "mediaStart" : 7670,
                                "mediaDuration" : 19,
                                "scalar" : 1,
                                "animationTracks" : {

                                }
                              },
                          "audio" : 
                              {
                                "id" : 1387,
                                "_type" : "AMFile",
                                "src" : 1,
                                "trackNumber" : 1,
                                "attributes" : {
                                  "ident" : "",
                                  "gain" : 1.0,
                                  "mixToMono" : false
                                },
                                  "channelNumber" : "0,1",
                                "effects" : [

                                ],
                                "start" : 4581,
                                "duration" : 19,
                                "mediaStart" : 7670,
                                "mediaDuration" : 19,
                                "scalar" : 1,
                                "animationTracks" : {

                                }
                              }
,
                          "start" : 4581,
                          "duration" : 19,
                          "mediaStart" : 0,
                          "mediaDuration" : 10411,
                          "scalar" : 1,
                          "metadata" : {
                            "AutoAppliedSmartFocus" : "False",
                            "clipSpeedAttribute" : false
                          }
                        },
                        {
                          "id" : 1388,
                          "_type" : "UnifiedMedia",
                          "video" : 
                              {
                                "id" : 1389,
                                "_type" : "ScreenVMFile",
                                "src" : 1,
                                "trackNumber" : 0,
                                "attributes" : {
                                  "ident" : "Rec 01-28-21_001"
                                },
                                "parameters" : {
                                  "cursorScale" : {
                                    "type" : "double",
                                    "defaultValue" : 0.0,
                                    "interp" : "linr"
                                  },
                                  "cursorOpacity" : {
                                    "type" : "double",
                                    "defaultValue" : 0.0,
                                    "interp" : "linr"
                                  }
                                },
                                "effects" : [

                                ],
                                "start" : 4600,
                                "duration" : 2440,
                                "mediaStart" : 7971,
                                "mediaDuration" : 2440,
                                "scalar" : 1,
                                "animationTracks" : {

                                }
                              },
                          "audio" : 
                              {
                                "id" : 1390,
                                "_type" : "AMFile",
                                "src" : 1,
                                "trackNumber" : 1,
                                "attributes" : {
                                  "ident" : "",
                                  "gain" : 1.0,
                                  "mixToMono" : false
                                },
                                  "channelNumber" : "0,1",
                                "effects" : [

                                ],
                                "start" : 4600,
                                "duration" : 2440,
                                "mediaStart" : 7971,
                                "mediaDuration" : 2440,
                                "scalar" : 1,
                                "animationTracks" : {

                                }
                              }
,
                          "start" : 4600,
                          "duration" : 2440,
                          "mediaStart" : 0,
                          "mediaDuration" : 10411,
                          "scalar" : 1,
                          "metadata" : {
                            "AutoAppliedSmartFocus" : "False",
                            "clipSpeedAttribute" : false
                          }
                        }
                    ],
                    "effects" : [

                    ],
                    "start" : 4836,
                    "duration" : 284,
                    "mediaStart" : 5399,
                    "mediaDuration" : 284,
                    "scalar" : 1,
                    "metadata" : {
                      "AutoAppliedSmartFocus" : "False",
                      "clipSpeedAttribute" : false
                    },
                    "animationTracks" : {

                    }
                  },
                  {
                    "id" : 1391,
                    "_type" : "Group",
                    "parameters" : {
                      "volume" : 1.0
                    },
                    "tracks" : [
                      {
                        "trackIndex" : 0,
                        "medias" : [
                          {
                            "id" : 1392,
                            "_type" : "StitchedMedia",
                            "minMediaStart" : 0,
                            "attributes" : {
                              "ident" : "Rec 01-28-21_001",
                              "gain" : 1.0,
                              "mixToMono" : false
                            },
                            "parameters" : {
                              "cursorOpacity" : 1.0,
                              "cursorScale" : 1.0
                            },
                            "medias" : [
                                {
                                  "id" : 1393,
                                  "_type" : "ScreenVMFile",
                                  "src" : 1,
                                  "trackNumber" : 0,
                                  "attributes" : {
                                    "ident" : "Rec 01-28-21_001"
                                  },
                                  "parameters" : {
                                    "cursorScale" : {
                                      "type" : "double",
                                      "defaultValue" : 0.0,
                                      "interp" : "linr"
                                    },
                                    "cursorOpacity" : {
                                      "type" : "double",
                                      "defaultValue" : 0.0,
                                      "interp" : "linr"
                                    }
                                  },
                                  "effects" : [

                                  ],
                                  "start" : 0,
                                  "duration" : 18,
                                  "mediaStart" : 0,
                                  "mediaDuration" : 18,
                                  "scalar" : 1,
                                  "metadata" : {
                                    "AutoAppliedSmartFocus" : "False"
                                  },
                                  "animationTracks" : {

                                  }
                                },
                                {
                                  "id" : 1394,
                                  "_type" : "ScreenVMFile",
                                  "src" : 1,
                                  "trackNumber" : 0,
                                  "attributes" : {
                                    "ident" : "Rec 01-28-21_001"
                                  },
                                  "parameters" : {
                                    "cursorScale" : {
                                      "type" : "double",
                                      "defaultValue" : 0.0,
                                      "interp" : "linr"
                                    },
                                    "cursorOpacity" : {
                                      "type" : "double",
                                      "defaultValue" : 0.0,
                                      "interp" : "linr"
                                    }
                                  },
                                  "effects" : [

                                  ],
                                  "start" : 18,
                                  "duration" : 286,
                                  "mediaStart" : 55,
                                  "mediaDuration" : 286,
                                  "scalar" : 1,
                                  "metadata" : {
                                    "AutoAppliedSmartFocus" : "False"
                                  },
                                  "animationTracks" : {

                                  }
                                },
                                {
                                  "id" : 1395,
                                  "_type" : "ScreenVMFile",
                                  "src" : 1,
                                  "trackNumber" : 0,
                                  "attributes" : {
                                    "ident" : "Rec 01-28-21_001"
                                  },
                                  "parameters" : {
                                    "cursorScale" : {
                                      "type" : "double",
                                      "defaultValue" : 0.0,
                                      "interp" : "linr"
                                    },
                                    "cursorOpacity" : {
                                      "type" : "double",
                                      "defaultValue" : 0.0,
                                      "interp" : "linr"
                                    }
                                  },
                                  "effects" : [

                                  ],
                                  "start" : 304,
                                  "duration" : 53,
                                  "mediaStart" : 367,
                                  "mediaDuration" : 53,
                                  "scalar" : 1,
                                  "metadata" : {
                                    "AutoAppliedSmartFocus" : "False"
                                  },
                                  "animationTracks" : {

                                  }
                                },
                                {
                                  "id" : 1396,
                                  "_type" : "ScreenVMFile",
                                  "src" : 1,
                                  "trackNumber" : 0,
                                  "attributes" : {
                                    "ident" : "Rec 01-28-21_001"
                                  },
                                  "parameters" : {
                                    "cursorScale" : {
                                      "type" : "double",
                                      "defaultValue" : 0.0,
                                      "interp" : "linr"
                                    },
                                    "cursorOpacity" : {
                                      "type" : "double",
                                      "defaultValue" : 0.0,
                                      "interp" : "linr"
                                    }
                                  },
                                  "effects" : [

                                  ],
                                  "start" : 357,
                                  "duration" : 59,
                                  "mediaStart" : 477,
                                  "mediaDuration" : 59,
                                  "scalar" : 1,
                                  "metadata" : {
                                    "AutoAppliedSmartFocus" : "False"
                                  },
                                  "animationTracks" : {

                                  }
                                },
                                {
                                  "id" : 1397,
                                  "_type" : "ScreenVMFile",
                                  "src" : 1,
                                  "trackNumber" : 0,
                                  "attributes" : {
                                    "ident" : "Rec 01-28-21_001"
                                  },
                                  "parameters" : {
                                    "cursorScale" : {
                                      "type" : "double",
                                      "defaultValue" : 0.0,
                                      "interp" : "linr"
                                    },
                                    "cursorOpacity" : {
                                      "type" : "double",
                                      "defaultValue" : 0.0,
                                      "interp" : "linr"
                                    }
                                  },
                                  "effects" : [

                                  ],
                                  "start" : 416,
                                  "duration" : 42,
                                  "mediaStart" : 590,
                                  "mediaDuration" : 42,
                                  "scalar" : 1,
                                  "metadata" : {
                                    "AutoAppliedSmartFocus" : "False"
                                  },
                                  "animationTracks" : {

                                  }
                                },
                                {
                                  "id" : 1398,
                                  "_type" : "ScreenVMFile",
                                  "src" : 1,
                                  "trackNumber" : 0,
                                  "attributes" : {
                                    "ident" : "Rec 01-28-21_001"
                                  },
                                  "parameters" : {
                                    "cursorScale" : {
                                      "type" : "double",
                                      "defaultValue" : 0.0,
                                      "interp" : "linr"
                                    },
                                    "cursorOpacity" : {
                                      "type" : "double",
                                      "defaultValue" : 0.0,
                                      "interp" : "linr"
                                    }
                                  },
                                  "effects" : [

                                  ],
                                  "start" : 458,
                                  "duration" : 22,
                                  "mediaStart" : 646,
                                  "mediaDuration" : 22,
                                  "scalar" : 1,
                                  "metadata" : {
                                    "AutoAppliedSmartFocus" : "False"
                                  },
                                  "animationTracks" : {

                                  }
                                },
                                {
                                  "id" : 1399,
                                  "_type" : "ScreenVMFile",
                                  "src" : 1,
                                  "trackNumber" : 0,
                                  "attributes" : {
                                    "ident" : "Rec 01-28-21_001"
                                  },
                                  "parameters" : {
                                    "cursorScale" : {
                                      "type" : "double",
                                      "defaultValue" : 0.0,
                                      "interp" : "linr"
                                    },
                                    "cursorOpacity" : {
                                      "type" : "double",
                                      "defaultValue" : 0.0,
                                      "interp" : "linr"
                                    }
                                  },
                                  "effects" : [

                                  ],
                                  "start" : 480,
                                  "duration" : 115,
                                  "mediaStart" : 762,
                                  "mediaDuration" : 115,
                                  "scalar" : 1,
                                  "metadata" : {
                                    "AutoAppliedSmartFocus" : "False"
                                  },
                                  "animationTracks" : {

                                  }
                                },
                                {
                                  "id" : 1400,
                                  "_type" : "ScreenVMFile",
                                  "src" : 1,
                                  "trackNumber" : 0,
                                  "attributes" : {
                                    "ident" : "Rec 01-28-21_001"
                                  },
                                  "parameters" : {
                                    "cursorScale" : {
                                      "type" : "double",
                                      "defaultValue" : 0.0,
                                      "interp" : "linr"
                                    },
                                    "cursorOpacity" : {
                                      "type" : "double",
                                      "defaultValue" : 0.0,
                                      "interp" : "linr"
                                    }
                                  },
                                  "effects" : [

                                  ],
                                  "start" : 595,
                                  "duration" : 154,
                                  "mediaStart" : 1024,
                                  "mediaDuration" : 154,
                                  "scalar" : 1,
                                  "metadata" : {
                                    "AutoAppliedSmartFocus" : "False"
                                  },
                                  "animationTracks" : {

                                  }
                                },
                                {
                                  "id" : 1401,
                                  "_type" : "ScreenVMFile",
                                  "src" : 1,
                                  "trackNumber" : 0,
                                  "attributes" : {
                                    "ident" : "Rec 01-28-21_001"
                                  },
                                  "parameters" : {
                                    "cursorScale" : {
                                      "type" : "double",
                                      "defaultValue" : 0.0,
                                      "interp" : "linr"
                                    },
                                    "cursorOpacity" : {
                                      "type" : "double",
                                      "defaultValue" : 0.0,
                                      "interp" : "linr"
                                    }
                                  },
                                  "effects" : [

                                  ],
                                  "start" : 749,
                                  "duration" : 135,
                                  "mediaStart" : 1207,
                                  "mediaDuration" : 135,
                                  "scalar" : 1,
                                  "metadata" : {
                                    "AutoAppliedSmartFocus" : "False"
                                  },
                                  "animationTracks" : {

                                  }
                                },
                                {
                                  "id" : 1402,
                                  "_type" : "ScreenVMFile",
                                  "src" : 1,
                                  "trackNumber" : 0,
                                  "attributes" : {
                                    "ident" : "Rec 01-28-21_001"
                                  },
                                  "parameters" : {
                                    "cursorScale" : {
                                      "type" : "double",
                                      "defaultValue" : 0.0,
                                      "interp" : "linr"
                                    },
                                    "cursorOpacity" : {
                                      "type" : "double",
                                      "defaultValue" : 0.0,
                                      "interp" : "linr"
                                    }
                                  },
                                  "effects" : [

                                  ],
                                  "start" : 884,
                                  "duration" : 150,
                                  "mediaStart" : 1383,
                                  "mediaDuration" : 150,
                                  "scalar" : 1,
                                  "metadata" : {
                                    "AutoAppliedSmartFocus" : "False"
                                  },
                                  "animationTracks" : {

                                  }
                                },
                                {
                                  "id" : 1403,
                                  "_type" : "ScreenVMFile",
                                  "src" : 1,
                                  "trackNumber" : 0,
                                  "attributes" : {
                                    "ident" : "Rec 01-28-21_001"
                                  },
                                  "parameters" : {
                                    "cursorScale" : {
                                      "type" : "double",
                                      "defaultValue" : 0.0,
                                      "interp" : "linr"
                                    },
                                    "cursorOpacity" : {
                                      "type" : "double",
                                      "defaultValue" : 0.0,
                                      "interp" : "linr"
                                    }
                                  },
                                  "effects" : [

                                  ],
                                  "start" : 1034,
                                  "duration" : 89,
                                  "mediaStart" : 1607,
                                  "mediaDuration" : 89,
                                  "scalar" : 1,
                                  "metadata" : {
                                    "AutoAppliedSmartFocus" : "False"
                                  },
                                  "animationTracks" : {

                                  }
                                },
                                {
                                  "id" : 1404,
                                  "_type" : "ScreenVMFile",
                                  "src" : 1,
                                  "trackNumber" : 0,
                                  "attributes" : {
                                    "ident" : "Rec 01-28-21_001"
                                  },
                                  "parameters" : {
                                    "cursorScale" : {
                                      "type" : "double",
                                      "defaultValue" : 0.0,
                                      "interp" : "linr"
                                    },
                                    "cursorOpacity" : {
                                      "type" : "double",
                                      "defaultValue" : 0.0,
                                      "interp" : "linr"
                                    }
                                  },
                                  "effects" : [

                                  ],
                                  "start" : 1123,
                                  "duration" : 37,
                                  "mediaStart" : 1752,
                                  "mediaDuration" : 37,
                                  "scalar" : 1,
                                  "metadata" : {
                                    "AutoAppliedSmartFocus" : "False"
                                  },
                                  "animationTracks" : {

                                  }
                                },
                                {
                                  "id" : 1405,
                                  "_type" : "ScreenVMFile",
                                  "src" : 1,
                                  "trackNumber" : 0,
                                  "attributes" : {
                                    "ident" : "Rec 01-28-21_001"
                                  },
                                  "parameters" : {
                                    "cursorScale" : {
                                      "type" : "double",
                                      "defaultValue" : 0.0,
                                      "interp" : "linr"
                                    },
                                    "cursorOpacity" : {
                                      "type" : "double",
                                      "defaultValue" : 0.0,
                                      "interp" : "linr"
                                    }
                                  },
                                  "effects" : [

                                  ],
                                  "start" : 1160,
                                  "duration" : 34,
                                  "mediaStart" : 1836,
                                  "mediaDuration" : 34,
                                  "scalar" : 1,
                                  "metadata" : {
                                    "AutoAppliedSmartFocus" : "False"
                                  },
                                  "animationTracks" : {

                                  }
                                },
                                {
                                  "id" : 1406,
                                  "_type" : "ScreenVMFile",
                                  "src" : 1,
                                  "trackNumber" : 0,
                                  "attributes" : {
                                    "ident" : "Rec 01-28-21_001"
                                  },
                                  "parameters" : {
                                    "cursorScale" : {
                                      "type" : "double",
                                      "defaultValue" : 0.0,
                                      "interp" : "linr"
                                    },
                                    "cursorOpacity" : {
                                      "type" : "double",
                                      "defaultValue" : 0.0,
                                      "interp" : "linr"
                                    }
                                  },
                                  "effects" : [

                                  ],
                                  "start" : 1194,
                                  "duration" : 41,
                                  "mediaStart" : 1882,
                                  "mediaDuration" : 41,
                                  "scalar" : 1,
                                  "metadata" : {
                                    "AutoAppliedSmartFocus" : "False"
                                  },
                                  "animationTracks" : {

                                  }
                                },
                                {
                                  "id" : 1407,
                                  "_type" : "ScreenVMFile",
                                  "src" : 1,
                                  "trackNumber" : 0,
                                  "attributes" : {
                                    "ident" : "Rec 01-28-21_001"
                                  },
                                  "parameters" : {
                                    "cursorScale" : {
                                      "type" : "double",
                                      "defaultValue" : 0.0,
                                      "interp" : "linr"
                                    },
                                    "cursorOpacity" : {
                                      "type" : "double",
                                      "defaultValue" : 0.0,
                                      "interp" : "linr"
                                    }
                                  },
                                  "effects" : [

                                  ],
                                  "start" : 1235,
                                  "duration" : 41,
                                  "mediaStart" : 1948,
                                  "mediaDuration" : 41,
                                  "scalar" : 1,
                                  "metadata" : {
                                    "AutoAppliedSmartFocus" : "False"
                                  },
                                  "animationTracks" : {

                                  }
                                },
                                {
                                  "id" : 1408,
                                  "_type" : "ScreenVMFile",
                                  "src" : 1,
                                  "trackNumber" : 0,
                                  "attributes" : {
                                    "ident" : "Rec 01-28-21_001"
                                  },
                                  "parameters" : {
                                    "cursorScale" : {
                                      "type" : "double",
                                      "defaultValue" : 0.0,
                                      "interp" : "linr"
                                    },
                                    "cursorOpacity" : {
                                      "type" : "double",
                                      "defaultValue" : 0.0,
                                      "interp" : "linr"
                                    }
                                  },
                                  "effects" : [

                                  ],
                                  "start" : 1276,
                                  "duration" : 55,
                                  "mediaStart" : 2015,
                                  "mediaDuration" : 55,
                                  "scalar" : 1,
                                  "metadata" : {
                                    "AutoAppliedSmartFocus" : "False"
                                  },
                                  "animationTracks" : {

                                  }
                                },
                                {
                                  "id" : 1409,
                                  "_type" : "ScreenVMFile",
                                  "src" : 1,
                                  "trackNumber" : 0,
                                  "attributes" : {
                                    "ident" : "Rec 01-28-21_001"
                                  },
                                  "parameters" : {
                                    "cursorScale" : {
                                      "type" : "double",
                                      "defaultValue" : 0.0,
                                      "interp" : "linr"
                                    },
                                    "cursorOpacity" : {
                                      "type" : "double",
                                      "defaultValue" : 0.0,
                                      "interp" : "linr"
                                    }
                                  },
                                  "effects" : [

                                  ],
                                  "start" : 1331,
                                  "duration" : 42,
                                  "mediaStart" : 2110,
                                  "mediaDuration" : 42,
                                  "scalar" : 1,
                                  "metadata" : {
                                    "AutoAppliedSmartFocus" : "False"
                                  },
                                  "animationTracks" : {

                                  }
                                },
                                {
                                  "id" : 1410,
                                  "_type" : "ScreenVMFile",
                                  "src" : 1,
                                  "trackNumber" : 0,
                                  "attributes" : {
                                    "ident" : "Rec 01-28-21_001"
                                  },
                                  "parameters" : {
                                    "cursorScale" : {
                                      "type" : "double",
                                      "defaultValue" : 0.0,
                                      "interp" : "linr"
                                    },
                                    "cursorOpacity" : {
                                      "type" : "double",
                                      "defaultValue" : 0.0,
                                      "interp" : "linr"
                                    }
                                  },
                                  "effects" : [

                                  ],
                                  "start" : 1373,
                                  "duration" : 23,
                                  "mediaStart" : 2250,
                                  "mediaDuration" : 23,
                                  "scalar" : 1,
                                  "metadata" : {
                                    "AutoAppliedSmartFocus" : "False"
                                  },
                                  "animationTracks" : {

                                  }
                                },
                                {
                                  "id" : 1411,
                                  "_type" : "ScreenVMFile",
                                  "src" : 1,
                                  "trackNumber" : 0,
                                  "attributes" : {
                                    "ident" : "Rec 01-28-21_001"
                                  },
                                  "parameters" : {
                                    "cursorScale" : {
                                      "type" : "double",
                                      "defaultValue" : 0.0,
                                      "interp" : "linr"
                                    },
                                    "cursorOpacity" : {
                                      "type" : "double",
                                      "defaultValue" : 0.0,
                                      "interp" : "linr"
                                    }
                                  },
                                  "effects" : [

                                  ],
                                  "start" : 1396,
                                  "duration" : 79,
                                  "mediaStart" : 2299,
                                  "mediaDuration" : 79,
                                  "scalar" : 1,
                                  "metadata" : {
                                    "AutoAppliedSmartFocus" : "False"
                                  },
                                  "animationTracks" : {

                                  }
                                },
                                {
                                  "id" : 1412,
                                  "_type" : "ScreenVMFile",
                                  "src" : 1,
                                  "trackNumber" : 0,
                                  "attributes" : {
                                    "ident" : "Rec 01-28-21_001"
                                  },
                                  "parameters" : {
                                    "cursorScale" : {
                                      "type" : "double",
                                      "defaultValue" : 0.0,
                                      "interp" : "linr"
                                    },
                                    "cursorOpacity" : {
                                      "type" : "double",
                                      "defaultValue" : 0.0,
                                      "interp" : "linr"
                                    }
                                  },
                                  "effects" : [

                                  ],
                                  "start" : 1475,
                                  "duration" : 64,
                                  "mediaStart" : 2409,
                                  "mediaDuration" : 64,
                                  "scalar" : 1,
                                  "metadata" : {
                                    "AutoAppliedSmartFocus" : "False"
                                  },
                                  "animationTracks" : {

                                  }
                                },
                                {
                                  "id" : 1413,
                                  "_type" : "ScreenVMFile",
                                  "src" : 1,
                                  "trackNumber" : 0,
                                  "attributes" : {
                                    "ident" : "Rec 01-28-21_001"
                                  },
                                  "parameters" : {
                                    "cursorScale" : {
                                      "type" : "double",
                                      "defaultValue" : 0.0,
                                      "interp" : "linr"
                                    },
                                    "cursorOpacity" : {
                                      "type" : "double",
                                      "defaultValue" : 0.0,
                                      "interp" : "linr"
                                    }
                                  },
                                  "effects" : [

                                  ],
                                  "start" : 1539,
                                  "duration" : 43,
                                  "mediaStart" : 2478,
                                  "mediaDuration" : 43,
                                  "scalar" : 1,
                                  "metadata" : {
                                    "AutoAppliedSmartFocus" : "False"
                                  },
                                  "animationTracks" : {

                                  }
                                },
                                {
                                  "id" : 1414,
                                  "_type" : "ScreenVMFile",
                                  "src" : 1,
                                  "trackNumber" : 0,
                                  "attributes" : {
                                    "ident" : "Rec 01-28-21_001"
                                  },
                                  "parameters" : {
                                    "cursorScale" : {
                                      "type" : "double",
                                      "defaultValue" : 0.0,
                                      "interp" : "linr"
                                    },
                                    "cursorOpacity" : {
                                      "type" : "double",
                                      "defaultValue" : 0.0,
                                      "interp" : "linr"
                                    }
                                  },
                                  "effects" : [

                                  ],
                                  "start" : 1582,
                                  "duration" : 47,
                                  "mediaStart" : 2538,
                                  "mediaDuration" : 47,
                                  "scalar" : 1,
                                  "metadata" : {
                                    "AutoAppliedSmartFocus" : "False"
                                  },
                                  "animationTracks" : {

                                  }
                                },
                                {
                                  "id" : 1415,
                                  "_type" : "ScreenVMFile",
                                  "src" : 1,
                                  "trackNumber" : 0,
                                  "attributes" : {
                                    "ident" : "Rec 01-28-21_001"
                                  },
                                  "parameters" : {
                                    "cursorScale" : {
                                      "type" : "double",
                                      "defaultValue" : 0.0,
                                      "interp" : "linr"
                                    },
                                    "cursorOpacity" : {
                                      "type" : "double",
                                      "defaultValue" : 0.0,
                                      "interp" : "linr"
                                    }
                                  },
                                  "effects" : [

                                  ],
                                  "start" : 1629,
                                  "duration" : 299,
                                  "mediaStart" : 2613,
                                  "mediaDuration" : 299,
                                  "scalar" : 1,
                                  "metadata" : {
                                    "AutoAppliedSmartFocus" : "False"
                                  },
                                  "animationTracks" : {

                                  }
                                },
                                {
                                  "id" : 1416,
                                  "_type" : "ScreenVMFile",
                                  "src" : 1,
                                  "trackNumber" : 0,
                                  "attributes" : {
                                    "ident" : "Rec 01-28-21_001"
                                  },
                                  "parameters" : {
                                    "cursorScale" : {
                                      "type" : "double",
                                      "defaultValue" : 0.0,
                                      "interp" : "linr"
                                    },
                                    "cursorOpacity" : {
                                      "type" : "double",
                                      "defaultValue" : 0.0,
                                      "interp" : "linr"
                                    }
                                  },
                                  "effects" : [

                                  ],
                                  "start" : 1928,
                                  "duration" : 53,
                                  "mediaStart" : 3209,
                                  "mediaDuration" : 53,
                                  "scalar" : 1,
                                  "metadata" : {
                                    "AutoAppliedSmartFocus" : "False"
                                  },
                                  "animationTracks" : {

                                  }
                                },
                                {
                                  "id" : 1417,
                                  "_type" : "ScreenVMFile",
                                  "src" : 1,
                                  "trackNumber" : 0,
                                  "attributes" : {
                                    "ident" : "Rec 01-28-21_001"
                                  },
                                  "parameters" : {
                                    "cursorScale" : {
                                      "type" : "double",
                                      "defaultValue" : 0.0,
                                      "interp" : "linr"
                                    },
                                    "cursorOpacity" : {
                                      "type" : "double",
                                      "defaultValue" : 0.0,
                                      "interp" : "linr"
                                    }
                                  },
                                  "effects" : [

                                  ],
                                  "start" : 1981,
                                  "duration" : 47,
                                  "mediaStart" : 3282,
                                  "mediaDuration" : 47,
                                  "scalar" : 1,
                                  "metadata" : {
                                    "AutoAppliedSmartFocus" : "False"
                                  },
                                  "animationTracks" : {

                                  }
                                },
                                {
                                  "id" : 1418,
                                  "_type" : "ScreenVMFile",
                                  "src" : 1,
                                  "trackNumber" : 0,
                                  "attributes" : {
                                    "ident" : "Rec 01-28-21_001"
                                  },
                                  "parameters" : {
                                    "cursorScale" : {
                                      "type" : "double",
                                      "defaultValue" : 0.0,
                                      "interp" : "linr"
                                    },
                                    "cursorOpacity" : {
                                      "type" : "double",
                                      "defaultValue" : 0.0,
                                      "interp" : "linr"
                                    }
                                  },
                                  "effects" : [

                                  ],
                                  "start" : 2028,
                                  "duration" : 103,
                                  "mediaStart" : 3341,
                                  "mediaDuration" : 103,
                                  "scalar" : 1,
                                  "metadata" : {
                                    "AutoAppliedSmartFocus" : "False"
                                  },
                                  "animationTracks" : {

                                  }
                                },
                                {
                                  "id" : 1419,
                                  "_type" : "ScreenVMFile",
                                  "src" : 1,
                                  "trackNumber" : 0,
                                  "attributes" : {
                                    "ident" : "Rec 01-28-21_001"
                                  },
                                  "parameters" : {
                                    "cursorScale" : {
                                      "type" : "double",
                                      "defaultValue" : 0.0,
                                      "interp" : "linr"
                                    },
                                    "cursorOpacity" : {
                                      "type" : "double",
                                      "defaultValue" : 0.0,
                                      "interp" : "linr"
                                    }
                                  },
                                  "effects" : [

                                  ],
                                  "start" : 2131,
                                  "duration" : 26,
                                  "mediaStart" : 3468,
                                  "mediaDuration" : 26,
                                  "scalar" : 1,
                                  "metadata" : {
                                    "AutoAppliedSmartFocus" : "False"
                                  },
                                  "animationTracks" : {

                                  }
                                },
                                {
                                  "id" : 1420,
                                  "_type" : "ScreenVMFile",
                                  "src" : 1,
                                  "trackNumber" : 0,
                                  "attributes" : {
                                    "ident" : "Rec 01-28-21_001"
                                  },
                                  "parameters" : {
                                    "cursorScale" : {
                                      "type" : "double",
                                      "defaultValue" : 0.0,
                                      "interp" : "linr"
                                    },
                                    "cursorOpacity" : {
                                      "type" : "double",
                                      "defaultValue" : 0.0,
                                      "interp" : "linr"
                                    }
                                  },
                                  "effects" : [

                                  ],
                                  "start" : 2157,
                                  "duration" : 41,
                                  "mediaStart" : 3504,
                                  "mediaDuration" : 41,
                                  "scalar" : 1,
                                  "metadata" : {
                                    "AutoAppliedSmartFocus" : "False"
                                  },
                                  "animationTracks" : {

                                  }
                                },
                                {
                                  "id" : 1421,
                                  "_type" : "ScreenVMFile",
                                  "src" : 1,
                                  "trackNumber" : 0,
                                  "attributes" : {
                                    "ident" : "Rec 01-28-21_001"
                                  },
                                  "parameters" : {
                                    "cursorScale" : {
                                      "type" : "double",
                                      "defaultValue" : 0.0,
                                      "interp" : "linr"
                                    },
                                    "cursorOpacity" : {
                                      "type" : "double",
                                      "defaultValue" : 0.0,
                                      "interp" : "linr"
                                    }
                                  },
                                  "effects" : [

                                  ],
                                  "start" : 2198,
                                  "duration" : 108,
                                  "mediaStart" : 3657,
                                  "mediaDuration" : 108,
                                  "scalar" : 1,
                                  "metadata" : {
                                    "AutoAppliedSmartFocus" : "False"
                                  },
                                  "animationTracks" : {

                                  }
                                },
                                {
                                  "id" : 1422,
                                  "_type" : "ScreenVMFile",
                                  "src" : 1,
                                  "trackNumber" : 0,
                                  "attributes" : {
                                    "ident" : "Rec 01-28-21_001"
                                  },
                                  "parameters" : {
                                    "cursorScale" : {
                                      "type" : "double",
                                      "defaultValue" : 0.0,
                                      "interp" : "linr"
                                    },
                                    "cursorOpacity" : {
                                      "type" : "double",
                                      "defaultValue" : 0.0,
                                      "interp" : "linr"
                                    }
                                  },
                                  "effects" : [

                                  ],
                                  "start" : 2306,
                                  "duration" : 124,
                                  "mediaStart" : 3787,
                                  "mediaDuration" : 124,
                                  "scalar" : 1,
                                  "metadata" : {
                                    "AutoAppliedSmartFocus" : "False"
                                  },
                                  "animationTracks" : {

                                  }
                                },
                                {
                                  "id" : 1423,
                                  "_type" : "ScreenVMFile",
                                  "src" : 1,
                                  "trackNumber" : 0,
                                  "attributes" : {
                                    "ident" : "Rec 01-28-21_001"
                                  },
                                  "parameters" : {
                                    "cursorScale" : {
                                      "type" : "double",
                                      "defaultValue" : 0.0,
                                      "interp" : "linr"
                                    },
                                    "cursorOpacity" : {
                                      "type" : "double",
                                      "defaultValue" : 0.0,
                                      "interp" : "linr"
                                    }
                                  },
                                  "effects" : [

                                  ],
                                  "start" : 2430,
                                  "duration" : 282,
                                  "mediaStart" : 3991,
                                  "mediaDuration" : 282,
                                  "scalar" : 1,
                                  "metadata" : {
                                    "AutoAppliedSmartFocus" : "False"
                                  },
                                  "animationTracks" : {

                                  }
                                },
                                {
                                  "id" : 1424,
                                  "_type" : "ScreenVMFile",
                                  "src" : 1,
                                  "trackNumber" : 0,
                                  "attributes" : {
                                    "ident" : "Rec 01-28-21_001"
                                  },
                                  "parameters" : {
                                    "cursorScale" : {
                                      "type" : "double",
                                      "defaultValue" : 0.0,
                                      "interp" : "linr"
                                    },
                                    "cursorOpacity" : {
                                      "type" : "double",
                                      "defaultValue" : 0.0,
                                      "interp" : "linr"
                                    }
                                  },
                                  "effects" : [

                                  ],
                                  "start" : 2712,
                                  "duration" : 205,
                                  "mediaStart" : 4397,
                                  "mediaDuration" : 205,
                                  "scalar" : 1,
                                  "metadata" : {
                                    "AutoAppliedSmartFocus" : "False"
                                  },
                                  "animationTracks" : {

                                  }
                                },
                                {
                                  "id" : 1425,
                                  "_type" : "ScreenVMFile",
                                  "src" : 1,
                                  "trackNumber" : 0,
                                  "attributes" : {
                                    "ident" : "Rec 01-28-21_001"
                                  },
                                  "parameters" : {
                                    "cursorScale" : {
                                      "type" : "double",
                                      "defaultValue" : 0.0,
                                      "interp" : "linr"
                                    },
                                    "cursorOpacity" : {
                                      "type" : "double",
                                      "defaultValue" : 0.0,
                                      "interp" : "linr"
                                    }
                                  },
                                  "effects" : [

                                  ],
                                  "start" : 2917,
                                  "duration" : 61,
                                  "mediaStart" : 4960,
                                  "mediaDuration" : 61,
                                  "scalar" : 1,
                                  "metadata" : {
                                    "AutoAppliedSmartFocus" : "False"
                                  },
                                  "animationTracks" : {

                                  }
                                },
                                {
                                  "id" : 1426,
                                  "_type" : "ScreenVMFile",
                                  "src" : 1,
                                  "trackNumber" : 0,
                                  "attributes" : {
                                    "ident" : "Rec 01-28-21_001"
                                  },
                                  "parameters" : {
                                    "cursorScale" : {
                                      "type" : "double",
                                      "defaultValue" : 0.0,
                                      "interp" : "linr"
                                    },
                                    "cursorOpacity" : {
                                      "type" : "double",
                                      "defaultValue" : 0.0,
                                      "interp" : "linr"
                                    }
                                  },
                                  "effects" : [

                                  ],
                                  "start" : 2978,
                                  "duration" : 172,
                                  "mediaStart" : 5035,
                                  "mediaDuration" : 172,
                                  "scalar" : 1,
                                  "metadata" : {
                                    "AutoAppliedSmartFocus" : "False"
                                  },
                                  "animationTracks" : {

                                  }
                                },
                                {
                                  "id" : 1427,
                                  "_type" : "ScreenVMFile",
                                  "src" : 1,
                                  "trackNumber" : 0,
                                  "attributes" : {
                                    "ident" : "Rec 01-28-21_001"
                                  },
                                  "parameters" : {
                                    "cursorScale" : {
                                      "type" : "double",
                                      "defaultValue" : 0.0,
                                      "interp" : "linr"
                                    },
                                    "cursorOpacity" : {
                                      "type" : "double",
                                      "defaultValue" : 0.0,
                                      "interp" : "linr"
                                    }
                                  },
                                  "effects" : [

                                  ],
                                  "start" : 3150,
                                  "duration" : 199,
                                  "mediaStart" : 5255,
                                  "mediaDuration" : 199,
                                  "scalar" : 1,
                                  "metadata" : {
                                    "AutoAppliedSmartFocus" : "False"
                                  },
                                  "animationTracks" : {

                                  }
                                },
                                {
                                  "id" : 1428,
                                  "_type" : "ScreenVMFile",
                                  "src" : 1,
                                  "trackNumber" : 0,
                                  "attributes" : {
                                    "ident" : "Rec 01-28-21_001"
                                  },
                                  "parameters" : {
                                    "cursorScale" : {
                                      "type" : "double",
                                      "defaultValue" : 0.0,
                                      "interp" : "linr"
                                    },
                                    "cursorOpacity" : {
                                      "type" : "double",
                                      "defaultValue" : 0.0,
                                      "interp" : "linr"
                                    }
                                  },
                                  "effects" : [

                                  ],
                                  "start" : 3349,
                                  "duration" : 150,
                                  "mediaStart" : 5507,
                                  "mediaDuration" : 150,
                                  "scalar" : 1,
                                  "metadata" : {
                                    "AutoAppliedSmartFocus" : "False"
                                  },
                                  "animationTracks" : {

                                  }
                                },
                                {
                                  "id" : 1429,
                                  "_type" : "ScreenVMFile",
                                  "src" : 1,
                                  "trackNumber" : 0,
                                  "attributes" : {
                                    "ident" : "Rec 01-28-21_001"
                                  },
                                  "parameters" : {
                                    "cursorScale" : {
                                      "type" : "double",
                                      "defaultValue" : 0.0,
                                      "interp" : "linr"
                                    },
                                    "cursorOpacity" : {
                                      "type" : "double",
                                      "defaultValue" : 0.0,
                                      "interp" : "linr"
                                    }
                                  },
                                  "effects" : [

                                  ],
                                  "start" : 3499,
                                  "duration" : 336,
                                  "mediaStart" : 6158,
                                  "mediaDuration" : 336,
                                  "scalar" : 1,
                                  "metadata" : {
                                    "AutoAppliedSmartFocus" : "False"
                                  },
                                  "animationTracks" : {

                                  }
                                },
                                {
                                  "id" : 1430,
                                  "_type" : "ScreenVMFile",
                                  "src" : 1,
                                  "trackNumber" : 0,
                                  "attributes" : {
                                    "ident" : "Rec 01-28-21_001"
                                  },
                                  "parameters" : {
                                    "cursorScale" : {
                                      "type" : "double",
                                      "defaultValue" : 0.0,
                                      "interp" : "linr"
                                    },
                                    "cursorOpacity" : {
                                      "type" : "double",
                                      "defaultValue" : 0.0,
                                      "interp" : "linr"
                                    }
                                  },
                                  "effects" : [

                                  ],
                                  "start" : 3835,
                                  "duration" : 73,
                                  "mediaStart" : 6577,
                                  "mediaDuration" : 73,
                                  "scalar" : 1,
                                  "metadata" : {
                                    "AutoAppliedSmartFocus" : "False"
                                  },
                                  "animationTracks" : {

                                  }
                                },
                                {
                                  "id" : 1431,
                                  "_type" : "ScreenVMFile",
                                  "src" : 1,
                                  "trackNumber" : 0,
                                  "attributes" : {
                                    "ident" : "Rec 01-28-21_001"
                                  },
                                  "parameters" : {
                                    "cursorScale" : {
                                      "type" : "double",
                                      "defaultValue" : 0.0,
                                      "interp" : "linr"
                                    },
                                    "cursorOpacity" : {
                                      "type" : "double",
                                      "defaultValue" : 0.0,
                                      "interp" : "linr"
                                    }
                                  },
                                  "effects" : [

                                  ],
                                  "start" : 3908,
                                  "duration" : 401,
                                  "mediaStart" : 6679,
                                  "mediaDuration" : 401,
                                  "scalar" : 1,
                                  "metadata" : {
                                    "AutoAppliedSmartFocus" : "False"
                                  },
                                  "animationTracks" : {

                                  }
                                },
                                {
                                  "id" : 1432,
                                  "_type" : "ScreenVMFile",
                                  "src" : 1,
                                  "trackNumber" : 0,
                                  "attributes" : {
                                    "ident" : "Rec 01-28-21_001"
                                  },
                                  "parameters" : {
                                    "cursorScale" : {
                                      "type" : "double",
                                      "defaultValue" : 0.0,
                                      "interp" : "linr"
                                    },
                                    "cursorOpacity" : {
                                      "type" : "double",
                                      "defaultValue" : 0.0,
                                      "interp" : "linr"
                                    }
                                  },
                                  "effects" : [

                                  ],
                                  "start" : 4309,
                                  "duration" : 98,
                                  "mediaStart" : 7143,
                                  "mediaDuration" : 98,
                                  "scalar" : 1,
                                  "metadata" : {
                                    "AutoAppliedSmartFocus" : "False"
                                  },
                                  "animationTracks" : {

                                  }
                                },
                                {
                                  "id" : 1433,
                                  "_type" : "ScreenVMFile",
                                  "src" : 1,
                                  "trackNumber" : 0,
                                  "attributes" : {
                                    "ident" : "Rec 01-28-21_001"
                                  },
                                  "parameters" : {
                                    "cursorScale" : {
                                      "type" : "double",
                                      "defaultValue" : 0.0,
                                      "interp" : "linr"
                                    },
                                    "cursorOpacity" : {
                                      "type" : "double",
                                      "defaultValue" : 0.0,
                                      "interp" : "linr"
                                    }
                                  },
                                  "effects" : [

                                  ],
                                  "start" : 4407,
                                  "duration" : 108,
                                  "mediaStart" : 7264,
                                  "mediaDuration" : 108,
                                  "scalar" : 1,
                                  "metadata" : {
                                    "AutoAppliedSmartFocus" : "False"
                                  },
                                  "animationTracks" : {

                                  }
                                },
                                {
                                  "id" : 1434,
                                  "_type" : "ScreenVMFile",
                                  "src" : 1,
                                  "trackNumber" : 0,
                                  "attributes" : {
                                    "ident" : "Rec 01-28-21_001"
                                  },
                                  "parameters" : {
                                    "cursorScale" : {
                                      "type" : "double",
                                      "defaultValue" : 0.0,
                                      "interp" : "linr"
                                    },
                                    "cursorOpacity" : {
                                      "type" : "double",
                                      "defaultValue" : 0.0,
                                      "interp" : "linr"
                                    }
                                  },
                                  "effects" : [

                                  ],
                                  "start" : 4515,
                                  "duration" : 66,
                                  "mediaStart" : 7571,
                                  "mediaDuration" : 66,
                                  "scalar" : 1,
                                  "metadata" : {
                                    "AutoAppliedSmartFocus" : "False"
                                  },
                                  "animationTracks" : {

                                  }
                                },
                                {
                                  "id" : 1435,
                                  "_type" : "ScreenVMFile",
                                  "src" : 1,
                                  "trackNumber" : 0,
                                  "attributes" : {
                                    "ident" : "Rec 01-28-21_001"
                                  },
                                  "parameters" : {
                                    "cursorScale" : {
                                      "type" : "double",
                                      "defaultValue" : 0.0,
                                      "interp" : "linr"
                                    },
                                    "cursorOpacity" : {
                                      "type" : "double",
                                      "defaultValue" : 0.0,
                                      "interp" : "linr"
                                    }
                                  },
                                  "effects" : [

                                  ],
                                  "start" : 4581,
                                  "duration" : 19,
                                  "mediaStart" : 7670,
                                  "mediaDuration" : 19,
                                  "scalar" : 1,
                                  "metadata" : {
                                    "AutoAppliedSmartFocus" : "False"
                                  },
                                  "animationTracks" : {

                                  }
                                },
                                {
                                  "id" : 1436,
                                  "_type" : "ScreenVMFile",
                                  "src" : 1,
                                  "trackNumber" : 0,
                                  "attributes" : {
                                    "ident" : "Rec 01-28-21_001"
                                  },
                                  "parameters" : {
                                    "cursorScale" : {
                                      "type" : "double",
                                      "defaultValue" : 0.0,
                                      "interp" : "linr"
                                    },
                                    "cursorOpacity" : {
                                      "type" : "double",
                                      "defaultValue" : 0.0,
                                      "interp" : "linr"
                                    }
                                  },
                                  "effects" : [

                                  ],
                                  "start" : 4600,
                                  "duration" : 2440,
                                  "mediaStart" : 7971,
                                  "mediaDuration" : 2440,
                                  "scalar" : 1,
                                  "metadata" : {
                                    "AutoAppliedSmartFocus" : "False"
                                  },
                                  "animationTracks" : {

                                  }
                                }
                            ],
                            "effects" : [

                            ],
                            "start" : 0,
                            "duration" : 203,
                            "mediaStart" : 5683,
                            "mediaDuration" : 203,
                            "scalar" : 1,
                            "metadata" : {
                              "AutoAppliedSmartFocus" : "False",
                              "clipSpeedAttribute" : false
                            },
                            "animationTracks" : {

                            }
                          }
                        ],
                          "ident" : "",
                          "audioMuted" : false,
                          "videoHidden" : false,
                          "magnetic" : false,
                          "matte" : 0,
                          "metadata" : {
                            "IsLocked" : "False",
                            "WinTrackHeight" : "0"
                          }
                      },
                      {
                        "trackIndex" : 1,
                        "medias" : [
                          {
                            "id" : 1437,
                            "_type" : "AMFile",
                            "src" : 14,
                            "trackNumber" : 0,
                            "attributes" : {
                              "ident" : "Narration_3-3 Kubernetes-Deployment 11",
                              "gain" : 1.0,
                              "mixToMono" : false
                            },
                              "channelNumber" : "0,1",
                            "effects" : [

                            ],
                            "start" : 0,
                            "duration" : 203,
                            "mediaStart" : 0,
                            "mediaDuration" : 203,
                            "scalar" : 1,
                            "metadata" : {
                              "clipSpeedAttribute" : false
                            },
                            "animationTracks" : {

                            }
                          }
                        ],
                          "ident" : "",
                          "audioMuted" : false,
                          "videoHidden" : false,
                          "magnetic" : false,
                          "matte" : 0,
                          "metadata" : {
                            "IsLocked" : "False",
                            "WinTrackHeight" : "2.67715387287355e-313"
                          }
                      }
                    ],
                    "attributes" : {
                      "ident" : "Group 6",
                      "gain" : 1.0,
                      "mixToMono" : false
                    },
                    "effects" : [

                    ],
                    "start" : 5120,
                    "duration" : 203,
                    "mediaStart" : 0.0,
                    "mediaDuration" : 203.0,
                    "scalar" : 1,
                    "metadata" : {
                      "IsGroupExpanded" : "False"
                    },
                    "animationTracks" : {

                    }
                  },
                  {
                    "id" : 1438,
                    "_type" : "StitchedMedia",
                    "minMediaStart" : 0,
                    "attributes" : {
                      "ident" : "Rec 01-28-21_001",
                      "gain" : 1.0,
                      "mixToMono" : false
                    },
                    "parameters" : {
                      "volume" : 1.0,
                      "cursorOpacity" : 1.0,
                      "cursorScale" : 1.0
                    },
                    "medias" : [
                        {
                          "id" : 1439,
                          "_type" : "UnifiedMedia",
                          "video" : 
                              {
                                "id" : 1440,
                                "_type" : "ScreenVMFile",
                                "src" : 1,
                                "trackNumber" : 0,
                                "attributes" : {
                                  "ident" : "Rec 01-28-21_001"
                                },
                                "parameters" : {
                                  "cursorScale" : {
                                    "type" : "double",
                                    "defaultValue" : 0.0,
                                    "interp" : "linr"
                                  },
                                  "cursorOpacity" : {
                                    "type" : "double",
                                    "defaultValue" : 0.0,
                                    "interp" : "linr"
                                  }
                                },
                                "effects" : [

                                ],
                                "start" : 0,
                                "duration" : 18,
                                "mediaStart" : 0,
                                "mediaDuration" : 18,
                                "scalar" : 1,
                                "animationTracks" : {

                                }
                              },
                          "audio" : 
                              {
                                "id" : 1441,
                                "_type" : "AMFile",
                                "src" : 1,
                                "trackNumber" : 1,
                                "attributes" : {
                                  "ident" : "",
                                  "gain" : 1.0,
                                  "mixToMono" : false
                                },
                                  "channelNumber" : "0,1",
                                "effects" : [

                                ],
                                "start" : 0,
                                "duration" : 18,
                                "mediaStart" : 0,
                                "mediaDuration" : 18,
                                "scalar" : 1,
                                "animationTracks" : {

                                }
                              }
,
                          "start" : 0,
                          "duration" : 18,
                          "mediaStart" : 0,
                          "mediaDuration" : 10411,
                          "scalar" : 1,
                          "metadata" : {
                            "AutoAppliedSmartFocus" : "False",
                            "clipSpeedAttribute" : false
                          }
                        },
                        {
                          "id" : 1442,
                          "_type" : "UnifiedMedia",
                          "video" : 
                              {
                                "id" : 1443,
                                "_type" : "ScreenVMFile",
                                "src" : 1,
                                "trackNumber" : 0,
                                "attributes" : {
                                  "ident" : "Rec 01-28-21_001"
                                },
                                "parameters" : {
                                  "cursorScale" : {
                                    "type" : "double",
                                    "defaultValue" : 0.0,
                                    "interp" : "linr"
                                  },
                                  "cursorOpacity" : {
                                    "type" : "double",
                                    "defaultValue" : 0.0,
                                    "interp" : "linr"
                                  }
                                },
                                "effects" : [

                                ],
                                "start" : 18,
                                "duration" : 286,
                                "mediaStart" : 55,
                                "mediaDuration" : 286,
                                "scalar" : 1,
                                "animationTracks" : {

                                }
                              },
                          "audio" : 
                              {
                                "id" : 1444,
                                "_type" : "AMFile",
                                "src" : 1,
                                "trackNumber" : 1,
                                "attributes" : {
                                  "ident" : "",
                                  "gain" : 1.0,
                                  "mixToMono" : false
                                },
                                  "channelNumber" : "0,1",
                                "effects" : [

                                ],
                                "start" : 18,
                                "duration" : 286,
                                "mediaStart" : 55,
                                "mediaDuration" : 286,
                                "scalar" : 1,
                                "animationTracks" : {

                                }
                              }
,
                          "start" : 18,
                          "duration" : 286,
                          "mediaStart" : 0,
                          "mediaDuration" : 10411,
                          "scalar" : 1,
                          "metadata" : {
                            "AutoAppliedSmartFocus" : "False",
                            "clipSpeedAttribute" : false
                          }
                        },
                        {
                          "id" : 1445,
                          "_type" : "UnifiedMedia",
                          "video" : 
                              {
                                "id" : 1446,
                                "_type" : "ScreenVMFile",
                                "src" : 1,
                                "trackNumber" : 0,
                                "attributes" : {
                                  "ident" : "Rec 01-28-21_001"
                                },
                                "parameters" : {
                                  "cursorScale" : {
                                    "type" : "double",
                                    "defaultValue" : 0.0,
                                    "interp" : "linr"
                                  },
                                  "cursorOpacity" : {
                                    "type" : "double",
                                    "defaultValue" : 0.0,
                                    "interp" : "linr"
                                  }
                                },
                                "effects" : [

                                ],
                                "start" : 304,
                                "duration" : 53,
                                "mediaStart" : 367,
                                "mediaDuration" : 53,
                                "scalar" : 1,
                                "animationTracks" : {

                                }
                              },
                          "audio" : 
                              {
                                "id" : 1447,
                                "_type" : "AMFile",
                                "src" : 1,
                                "trackNumber" : 1,
                                "attributes" : {
                                  "ident" : "",
                                  "gain" : 1.0,
                                  "mixToMono" : false
                                },
                                  "channelNumber" : "0,1",
                                "effects" : [

                                ],
                                "start" : 304,
                                "duration" : 53,
                                "mediaStart" : 367,
                                "mediaDuration" : 53,
                                "scalar" : 1,
                                "animationTracks" : {

                                }
                              }
,
                          "start" : 304,
                          "duration" : 53,
                          "mediaStart" : 0,
                          "mediaDuration" : 10411,
                          "scalar" : 1,
                          "metadata" : {
                            "AutoAppliedSmartFocus" : "False",
                            "clipSpeedAttribute" : false
                          }
                        },
                        {
                          "id" : 1448,
                          "_type" : "UnifiedMedia",
                          "video" : 
                              {
                                "id" : 1449,
                                "_type" : "ScreenVMFile",
                                "src" : 1,
                                "trackNumber" : 0,
                                "attributes" : {
                                  "ident" : "Rec 01-28-21_001"
                                },
                                "parameters" : {
                                  "cursorScale" : {
                                    "type" : "double",
                                    "defaultValue" : 0.0,
                                    "interp" : "linr"
                                  },
                                  "cursorOpacity" : {
                                    "type" : "double",
                                    "defaultValue" : 0.0,
                                    "interp" : "linr"
                                  }
                                },
                                "effects" : [

                                ],
                                "start" : 357,
                                "duration" : 59,
                                "mediaStart" : 477,
                                "mediaDuration" : 59,
                                "scalar" : 1,
                                "animationTracks" : {

                                }
                              },
                          "audio" : 
                              {
                                "id" : 1450,
                                "_type" : "AMFile",
                                "src" : 1,
                                "trackNumber" : 1,
                                "attributes" : {
                                  "ident" : "",
                                  "gain" : 1.0,
                                  "mixToMono" : false
                                },
                                  "channelNumber" : "0,1",
                                "effects" : [

                                ],
                                "start" : 357,
                                "duration" : 59,
                                "mediaStart" : 477,
                                "mediaDuration" : 59,
                                "scalar" : 1,
                                "animationTracks" : {

                                }
                              }
,
                          "start" : 357,
                          "duration" : 59,
                          "mediaStart" : 0,
                          "mediaDuration" : 10411,
                          "scalar" : 1,
                          "metadata" : {
                            "AutoAppliedSmartFocus" : "False",
                            "clipSpeedAttribute" : false
                          }
                        },
                        {
                          "id" : 1451,
                          "_type" : "UnifiedMedia",
                          "video" : 
                              {
                                "id" : 1452,
                                "_type" : "ScreenVMFile",
                                "src" : 1,
                                "trackNumber" : 0,
                                "attributes" : {
                                  "ident" : "Rec 01-28-21_001"
                                },
                                "parameters" : {
                                  "cursorScale" : {
                                    "type" : "double",
                                    "defaultValue" : 0.0,
                                    "interp" : "linr"
                                  },
                                  "cursorOpacity" : {
                                    "type" : "double",
                                    "defaultValue" : 0.0,
                                    "interp" : "linr"
                                  }
                                },
                                "effects" : [

                                ],
                                "start" : 416,
                                "duration" : 42,
                                "mediaStart" : 590,
                                "mediaDuration" : 42,
                                "scalar" : 1,
                                "animationTracks" : {

                                }
                              },
                          "audio" : 
                              {
                                "id" : 1453,
                                "_type" : "AMFile",
                                "src" : 1,
                                "trackNumber" : 1,
                                "attributes" : {
                                  "ident" : "",
                                  "gain" : 1.0,
                                  "mixToMono" : false
                                },
                                  "channelNumber" : "0,1",
                                "effects" : [

                                ],
                                "start" : 416,
                                "duration" : 42,
                                "mediaStart" : 590,
                                "mediaDuration" : 42,
                                "scalar" : 1,
                                "animationTracks" : {

                                }
                              }
,
                          "start" : 416,
                          "duration" : 42,
                          "mediaStart" : 0,
                          "mediaDuration" : 10411,
                          "scalar" : 1,
                          "metadata" : {
                            "AutoAppliedSmartFocus" : "False",
                            "clipSpeedAttribute" : false
                          }
                        },
                        {
                          "id" : 1454,
                          "_type" : "UnifiedMedia",
                          "video" : 
                              {
                                "id" : 1455,
                                "_type" : "ScreenVMFile",
                                "src" : 1,
                                "trackNumber" : 0,
                                "attributes" : {
                                  "ident" : "Rec 01-28-21_001"
                                },
                                "parameters" : {
                                  "cursorScale" : {
                                    "type" : "double",
                                    "defaultValue" : 0.0,
                                    "interp" : "linr"
                                  },
                                  "cursorOpacity" : {
                                    "type" : "double",
                                    "defaultValue" : 0.0,
                                    "interp" : "linr"
                                  }
                                },
                                "effects" : [

                                ],
                                "start" : 458,
                                "duration" : 22,
                                "mediaStart" : 646,
                                "mediaDuration" : 22,
                                "scalar" : 1,
                                "animationTracks" : {

                                }
                              },
                          "audio" : 
                              {
                                "id" : 1456,
                                "_type" : "AMFile",
                                "src" : 1,
                                "trackNumber" : 1,
                                "attributes" : {
                                  "ident" : "",
                                  "gain" : 1.0,
                                  "mixToMono" : false
                                },
                                  "channelNumber" : "0,1",
                                "effects" : [

                                ],
                                "start" : 458,
                                "duration" : 22,
                                "mediaStart" : 646,
                                "mediaDuration" : 22,
                                "scalar" : 1,
                                "animationTracks" : {

                                }
                              }
,
                          "start" : 458,
                          "duration" : 22,
                          "mediaStart" : 0,
                          "mediaDuration" : 10411,
                          "scalar" : 1,
                          "metadata" : {
                            "AutoAppliedSmartFocus" : "False",
                            "clipSpeedAttribute" : false
                          }
                        },
                        {
                          "id" : 1457,
                          "_type" : "UnifiedMedia",
                          "video" : 
                              {
                                "id" : 1458,
                                "_type" : "ScreenVMFile",
                                "src" : 1,
                                "trackNumber" : 0,
                                "attributes" : {
                                  "ident" : "Rec 01-28-21_001"
                                },
                                "parameters" : {
                                  "cursorScale" : {
                                    "type" : "double",
                                    "defaultValue" : 0.0,
                                    "interp" : "linr"
                                  },
                                  "cursorOpacity" : {
                                    "type" : "double",
                                    "defaultValue" : 0.0,
                                    "interp" : "linr"
                                  }
                                },
                                "effects" : [

                                ],
                                "start" : 480,
                                "duration" : 115,
                                "mediaStart" : 762,
                                "mediaDuration" : 115,
                                "scalar" : 1,
                                "animationTracks" : {

                                }
                              },
                          "audio" : 
                              {
                                "id" : 1459,
                                "_type" : "AMFile",
                                "src" : 1,
                                "trackNumber" : 1,
                                "attributes" : {
                                  "ident" : "",
                                  "gain" : 1.0,
                                  "mixToMono" : false
                                },
                                  "channelNumber" : "0,1",
                                "effects" : [

                                ],
                                "start" : 480,
                                "duration" : 115,
                                "mediaStart" : 762,
                                "mediaDuration" : 115,
                                "scalar" : 1,
                                "animationTracks" : {

                                }
                              }
,
                          "start" : 480,
                          "duration" : 115,
                          "mediaStart" : 0,
                          "mediaDuration" : 10411,
                          "scalar" : 1,
                          "metadata" : {
                            "AutoAppliedSmartFocus" : "False",
                            "clipSpeedAttribute" : false
                          }
                        },
                        {
                          "id" : 1460,
                          "_type" : "UnifiedMedia",
                          "video" : 
                              {
                                "id" : 1461,
                                "_type" : "ScreenVMFile",
                                "src" : 1,
                                "trackNumber" : 0,
                                "attributes" : {
                                  "ident" : "Rec 01-28-21_001"
                                },
                                "parameters" : {
                                  "cursorScale" : {
                                    "type" : "double",
                                    "defaultValue" : 0.0,
                                    "interp" : "linr"
                                  },
                                  "cursorOpacity" : {
                                    "type" : "double",
                                    "defaultValue" : 0.0,
                                    "interp" : "linr"
                                  }
                                },
                                "effects" : [

                                ],
                                "start" : 595,
                                "duration" : 154,
                                "mediaStart" : 1024,
                                "mediaDuration" : 154,
                                "scalar" : 1,
                                "animationTracks" : {

                                }
                              },
                          "audio" : 
                              {
                                "id" : 1462,
                                "_type" : "AMFile",
                                "src" : 1,
                                "trackNumber" : 1,
                                "attributes" : {
                                  "ident" : "",
                                  "gain" : 1.0,
                                  "mixToMono" : false
                                },
                                  "channelNumber" : "0,1",
                                "effects" : [

                                ],
                                "start" : 595,
                                "duration" : 154,
                                "mediaStart" : 1024,
                                "mediaDuration" : 154,
                                "scalar" : 1,
                                "animationTracks" : {

                                }
                              }
,
                          "start" : 595,
                          "duration" : 154,
                          "mediaStart" : 0,
                          "mediaDuration" : 10411,
                          "scalar" : 1,
                          "metadata" : {
                            "AutoAppliedSmartFocus" : "False",
                            "clipSpeedAttribute" : false
                          }
                        },
                        {
                          "id" : 1463,
                          "_type" : "UnifiedMedia",
                          "video" : 
                              {
                                "id" : 1464,
                                "_type" : "ScreenVMFile",
                                "src" : 1,
                                "trackNumber" : 0,
                                "attributes" : {
                                  "ident" : "Rec 01-28-21_001"
                                },
                                "parameters" : {
                                  "cursorScale" : {
                                    "type" : "double",
                                    "defaultValue" : 0.0,
                                    "interp" : "linr"
                                  },
                                  "cursorOpacity" : {
                                    "type" : "double",
                                    "defaultValue" : 0.0,
                                    "interp" : "linr"
                                  }
                                },
                                "effects" : [

                                ],
                                "start" : 749,
                                "duration" : 135,
                                "mediaStart" : 1207,
                                "mediaDuration" : 135,
                                "scalar" : 1,
                                "animationTracks" : {

                                }
                              },
                          "audio" : 
                              {
                                "id" : 1465,
                                "_type" : "AMFile",
                                "src" : 1,
                                "trackNumber" : 1,
                                "attributes" : {
                                  "ident" : "",
                                  "gain" : 1.0,
                                  "mixToMono" : false
                                },
                                  "channelNumber" : "0,1",
                                "effects" : [

                                ],
                                "start" : 749,
                                "duration" : 135,
                                "mediaStart" : 1207,
                                "mediaDuration" : 135,
                                "scalar" : 1,
                                "animationTracks" : {

                                }
                              }
,
                          "start" : 749,
                          "duration" : 135,
                          "mediaStart" : 0,
                          "mediaDuration" : 10411,
                          "scalar" : 1,
                          "metadata" : {
                            "AutoAppliedSmartFocus" : "False",
                            "clipSpeedAttribute" : false
                          }
                        },
                        {
                          "id" : 1466,
                          "_type" : "UnifiedMedia",
                          "video" : 
                              {
                                "id" : 1467,
                                "_type" : "ScreenVMFile",
                                "src" : 1,
                                "trackNumber" : 0,
                                "attributes" : {
                                  "ident" : "Rec 01-28-21_001"
                                },
                                "parameters" : {
                                  "cursorScale" : {
                                    "type" : "double",
                                    "defaultValue" : 0.0,
                                    "interp" : "linr"
                                  },
                                  "cursorOpacity" : {
                                    "type" : "double",
                                    "defaultValue" : 0.0,
                                    "interp" : "linr"
                                  }
                                },
                                "effects" : [

                                ],
                                "start" : 884,
                                "duration" : 150,
                                "mediaStart" : 1383,
                                "mediaDuration" : 150,
                                "scalar" : 1,
                                "animationTracks" : {

                                }
                              },
                          "audio" : 
                              {
                                "id" : 1468,
                                "_type" : "AMFile",
                                "src" : 1,
                                "trackNumber" : 1,
                                "attributes" : {
                                  "ident" : "",
                                  "gain" : 1.0,
                                  "mixToMono" : false
                                },
                                  "channelNumber" : "0,1",
                                "effects" : [

                                ],
                                "start" : 884,
                                "duration" : 150,
                                "mediaStart" : 1383,
                                "mediaDuration" : 150,
                                "scalar" : 1,
                                "animationTracks" : {

                                }
                              }
,
                          "start" : 884,
                          "duration" : 150,
                          "mediaStart" : 0,
                          "mediaDuration" : 10411,
                          "scalar" : 1,
                          "metadata" : {
                            "AutoAppliedSmartFocus" : "False",
                            "clipSpeedAttribute" : false
                          }
                        },
                        {
                          "id" : 1469,
                          "_type" : "UnifiedMedia",
                          "video" : 
                              {
                                "id" : 1470,
                                "_type" : "ScreenVMFile",
                                "src" : 1,
                                "trackNumber" : 0,
                                "attributes" : {
                                  "ident" : "Rec 01-28-21_001"
                                },
                                "parameters" : {
                                  "cursorScale" : {
                                    "type" : "double",
                                    "defaultValue" : 0.0,
                                    "interp" : "linr"
                                  },
                                  "cursorOpacity" : {
                                    "type" : "double",
                                    "defaultValue" : 0.0,
                                    "interp" : "linr"
                                  }
                                },
                                "effects" : [

                                ],
                                "start" : 1034,
                                "duration" : 89,
                                "mediaStart" : 1607,
                                "mediaDuration" : 89,
                                "scalar" : 1,
                                "animationTracks" : {

                                }
                              },
                          "audio" : 
                              {
                                "id" : 1471,
                                "_type" : "AMFile",
                                "src" : 1,
                                "trackNumber" : 1,
                                "attributes" : {
                                  "ident" : "",
                                  "gain" : 1.0,
                                  "mixToMono" : false
                                },
                                  "channelNumber" : "0,1",
                                "effects" : [

                                ],
                                "start" : 1034,
                                "duration" : 89,
                                "mediaStart" : 1607,
                                "mediaDuration" : 89,
                                "scalar" : 1,
                                "animationTracks" : {

                                }
                              }
,
                          "start" : 1034,
                          "duration" : 89,
                          "mediaStart" : 0,
                          "mediaDuration" : 10411,
                          "scalar" : 1,
                          "metadata" : {
                            "AutoAppliedSmartFocus" : "False",
                            "clipSpeedAttribute" : false
                          }
                        },
                        {
                          "id" : 1472,
                          "_type" : "UnifiedMedia",
                          "video" : 
                              {
                                "id" : 1473,
                                "_type" : "ScreenVMFile",
                                "src" : 1,
                                "trackNumber" : 0,
                                "attributes" : {
                                  "ident" : "Rec 01-28-21_001"
                                },
                                "parameters" : {
                                  "cursorScale" : {
                                    "type" : "double",
                                    "defaultValue" : 0.0,
                                    "interp" : "linr"
                                  },
                                  "cursorOpacity" : {
                                    "type" : "double",
                                    "defaultValue" : 0.0,
                                    "interp" : "linr"
                                  }
                                },
                                "effects" : [

                                ],
                                "start" : 1123,
                                "duration" : 37,
                                "mediaStart" : 1752,
                                "mediaDuration" : 37,
                                "scalar" : 1,
                                "animationTracks" : {

                                }
                              },
                          "audio" : 
                              {
                                "id" : 1474,
                                "_type" : "AMFile",
                                "src" : 1,
                                "trackNumber" : 1,
                                "attributes" : {
                                  "ident" : "",
                                  "gain" : 1.0,
                                  "mixToMono" : false
                                },
                                  "channelNumber" : "0,1",
                                "effects" : [

                                ],
                                "start" : 1123,
                                "duration" : 37,
                                "mediaStart" : 1752,
                                "mediaDuration" : 37,
                                "scalar" : 1,
                                "animationTracks" : {

                                }
                              }
,
                          "start" : 1123,
                          "duration" : 37,
                          "mediaStart" : 0,
                          "mediaDuration" : 10411,
                          "scalar" : 1,
                          "metadata" : {
                            "AutoAppliedSmartFocus" : "False",
                            "clipSpeedAttribute" : false
                          }
                        },
                        {
                          "id" : 1475,
                          "_type" : "UnifiedMedia",
                          "video" : 
                              {
                                "id" : 1476,
                                "_type" : "ScreenVMFile",
                                "src" : 1,
                                "trackNumber" : 0,
                                "attributes" : {
                                  "ident" : "Rec 01-28-21_001"
                                },
                                "parameters" : {
                                  "cursorScale" : {
                                    "type" : "double",
                                    "defaultValue" : 0.0,
                                    "interp" : "linr"
                                  },
                                  "cursorOpacity" : {
                                    "type" : "double",
                                    "defaultValue" : 0.0,
                                    "interp" : "linr"
                                  }
                                },
                                "effects" : [

                                ],
                                "start" : 1160,
                                "duration" : 34,
                                "mediaStart" : 1836,
                                "mediaDuration" : 34,
                                "scalar" : 1,
                                "animationTracks" : {

                                }
                              },
                          "audio" : 
                              {
                                "id" : 1477,
                                "_type" : "AMFile",
                                "src" : 1,
                                "trackNumber" : 1,
                                "attributes" : {
                                  "ident" : "",
                                  "gain" : 1.0,
                                  "mixToMono" : false
                                },
                                  "channelNumber" : "0,1",
                                "effects" : [

                                ],
                                "start" : 1160,
                                "duration" : 34,
                                "mediaStart" : 1836,
                                "mediaDuration" : 34,
                                "scalar" : 1,
                                "animationTracks" : {

                                }
                              }
,
                          "start" : 1160,
                          "duration" : 34,
                          "mediaStart" : 0,
                          "mediaDuration" : 10411,
                          "scalar" : 1,
                          "metadata" : {
                            "AutoAppliedSmartFocus" : "False",
                            "clipSpeedAttribute" : false
                          }
                        },
                        {
                          "id" : 1478,
                          "_type" : "UnifiedMedia",
                          "video" : 
                              {
                                "id" : 1479,
                                "_type" : "ScreenVMFile",
                                "src" : 1,
                                "trackNumber" : 0,
                                "attributes" : {
                                  "ident" : "Rec 01-28-21_001"
                                },
                                "parameters" : {
                                  "cursorScale" : {
                                    "type" : "double",
                                    "defaultValue" : 0.0,
                                    "interp" : "linr"
                                  },
                                  "cursorOpacity" : {
                                    "type" : "double",
                                    "defaultValue" : 0.0,
                                    "interp" : "linr"
                                  }
                                },
                                "effects" : [

                                ],
                                "start" : 1194,
                                "duration" : 41,
                                "mediaStart" : 1882,
                                "mediaDuration" : 41,
                                "scalar" : 1,
                                "animationTracks" : {

                                }
                              },
                          "audio" : 
                              {
                                "id" : 1480,
                                "_type" : "AMFile",
                                "src" : 1,
                                "trackNumber" : 1,
                                "attributes" : {
                                  "ident" : "",
                                  "gain" : 1.0,
                                  "mixToMono" : false
                                },
                                  "channelNumber" : "0,1",
                                "effects" : [

                                ],
                                "start" : 1194,
                                "duration" : 41,
                                "mediaStart" : 1882,
                                "mediaDuration" : 41,
                                "scalar" : 1,
                                "animationTracks" : {

                                }
                              }
,
                          "start" : 1194,
                          "duration" : 41,
                          "mediaStart" : 0,
                          "mediaDuration" : 10411,
                          "scalar" : 1,
                          "metadata" : {
                            "AutoAppliedSmartFocus" : "False",
                            "clipSpeedAttribute" : false
                          }
                        },
                        {
                          "id" : 1481,
                          "_type" : "UnifiedMedia",
                          "video" : 
                              {
                                "id" : 1482,
                                "_type" : "ScreenVMFile",
                                "src" : 1,
                                "trackNumber" : 0,
                                "attributes" : {
                                  "ident" : "Rec 01-28-21_001"
                                },
                                "parameters" : {
                                  "cursorScale" : {
                                    "type" : "double",
                                    "defaultValue" : 0.0,
                                    "interp" : "linr"
                                  },
                                  "cursorOpacity" : {
                                    "type" : "double",
                                    "defaultValue" : 0.0,
                                    "interp" : "linr"
                                  }
                                },
                                "effects" : [

                                ],
                                "start" : 1235,
                                "duration" : 41,
                                "mediaStart" : 1948,
                                "mediaDuration" : 41,
                                "scalar" : 1,
                                "animationTracks" : {

                                }
                              },
                          "audio" : 
                              {
                                "id" : 1483,
                                "_type" : "AMFile",
                                "src" : 1,
                                "trackNumber" : 1,
                                "attributes" : {
                                  "ident" : "",
                                  "gain" : 1.0,
                                  "mixToMono" : false
                                },
                                  "channelNumber" : "0,1",
                                "effects" : [

                                ],
                                "start" : 1235,
                                "duration" : 41,
                                "mediaStart" : 1948,
                                "mediaDuration" : 41,
                                "scalar" : 1,
                                "animationTracks" : {

                                }
                              }
,
                          "start" : 1235,
                          "duration" : 41,
                          "mediaStart" : 0,
                          "mediaDuration" : 10411,
                          "scalar" : 1,
                          "metadata" : {
                            "AutoAppliedSmartFocus" : "False",
                            "clipSpeedAttribute" : false
                          }
                        },
                        {
                          "id" : 1484,
                          "_type" : "UnifiedMedia",
                          "video" : 
                              {
                                "id" : 1485,
                                "_type" : "ScreenVMFile",
                                "src" : 1,
                                "trackNumber" : 0,
                                "attributes" : {
                                  "ident" : "Rec 01-28-21_001"
                                },
                                "parameters" : {
                                  "cursorScale" : {
                                    "type" : "double",
                                    "defaultValue" : 0.0,
                                    "interp" : "linr"
                                  },
                                  "cursorOpacity" : {
                                    "type" : "double",
                                    "defaultValue" : 0.0,
                                    "interp" : "linr"
                                  }
                                },
                                "effects" : [

                                ],
                                "start" : 1276,
                                "duration" : 55,
                                "mediaStart" : 2015,
                                "mediaDuration" : 55,
                                "scalar" : 1,
                                "animationTracks" : {

                                }
                              },
                          "audio" : 
                              {
                                "id" : 1486,
                                "_type" : "AMFile",
                                "src" : 1,
                                "trackNumber" : 1,
                                "attributes" : {
                                  "ident" : "",
                                  "gain" : 1.0,
                                  "mixToMono" : false
                                },
                                  "channelNumber" : "0,1",
                                "effects" : [

                                ],
                                "start" : 1276,
                                "duration" : 55,
                                "mediaStart" : 2015,
                                "mediaDuration" : 55,
                                "scalar" : 1,
                                "animationTracks" : {

                                }
                              }
,
                          "start" : 1276,
                          "duration" : 55,
                          "mediaStart" : 0,
                          "mediaDuration" : 10411,
                          "scalar" : 1,
                          "metadata" : {
                            "AutoAppliedSmartFocus" : "False",
                            "clipSpeedAttribute" : false
                          }
                        },
                        {
                          "id" : 1487,
                          "_type" : "UnifiedMedia",
                          "video" : 
                              {
                                "id" : 1488,
                                "_type" : "ScreenVMFile",
                                "src" : 1,
                                "trackNumber" : 0,
                                "attributes" : {
                                  "ident" : "Rec 01-28-21_001"
                                },
                                "parameters" : {
                                  "cursorScale" : {
                                    "type" : "double",
                                    "defaultValue" : 0.0,
                                    "interp" : "linr"
                                  },
                                  "cursorOpacity" : {
                                    "type" : "double",
                                    "defaultValue" : 0.0,
                                    "interp" : "linr"
                                  }
                                },
                                "effects" : [

                                ],
                                "start" : 1331,
                                "duration" : 42,
                                "mediaStart" : 2110,
                                "mediaDuration" : 42,
                                "scalar" : 1,
                                "animationTracks" : {

                                }
                              },
                          "audio" : 
                              {
                                "id" : 1489,
                                "_type" : "AMFile",
                                "src" : 1,
                                "trackNumber" : 1,
                                "attributes" : {
                                  "ident" : "",
                                  "gain" : 1.0,
                                  "mixToMono" : false
                                },
                                  "channelNumber" : "0,1",
                                "effects" : [

                                ],
                                "start" : 1331,
                                "duration" : 42,
                                "mediaStart" : 2110,
                                "mediaDuration" : 42,
                                "scalar" : 1,
                                "animationTracks" : {

                                }
                              }
,
                          "start" : 1331,
                          "duration" : 42,
                          "mediaStart" : 0,
                          "mediaDuration" : 10411,
                          "scalar" : 1,
                          "metadata" : {
                            "AutoAppliedSmartFocus" : "False",
                            "clipSpeedAttribute" : false
                          }
                        },
                        {
                          "id" : 1490,
                          "_type" : "UnifiedMedia",
                          "video" : 
                              {
                                "id" : 1491,
                                "_type" : "ScreenVMFile",
                                "src" : 1,
                                "trackNumber" : 0,
                                "attributes" : {
                                  "ident" : "Rec 01-28-21_001"
                                },
                                "parameters" : {
                                  "cursorScale" : {
                                    "type" : "double",
                                    "defaultValue" : 0.0,
                                    "interp" : "linr"
                                  },
                                  "cursorOpacity" : {
                                    "type" : "double",
                                    "defaultValue" : 0.0,
                                    "interp" : "linr"
                                  }
                                },
                                "effects" : [

                                ],
                                "start" : 1373,
                                "duration" : 23,
                                "mediaStart" : 2250,
                                "mediaDuration" : 23,
                                "scalar" : 1,
                                "animationTracks" : {

                                }
                              },
                          "audio" : 
                              {
                                "id" : 1492,
                                "_type" : "AMFile",
                                "src" : 1,
                                "trackNumber" : 1,
                                "attributes" : {
                                  "ident" : "",
                                  "gain" : 1.0,
                                  "mixToMono" : false
                                },
                                  "channelNumber" : "0,1",
                                "effects" : [

                                ],
                                "start" : 1373,
                                "duration" : 23,
                                "mediaStart" : 2250,
                                "mediaDuration" : 23,
                                "scalar" : 1,
                                "animationTracks" : {

                                }
                              }
,
                          "start" : 1373,
                          "duration" : 23,
                          "mediaStart" : 0,
                          "mediaDuration" : 10411,
                          "scalar" : 1,
                          "metadata" : {
                            "AutoAppliedSmartFocus" : "False",
                            "clipSpeedAttribute" : false
                          }
                        },
                        {
                          "id" : 1493,
                          "_type" : "UnifiedMedia",
                          "video" : 
                              {
                                "id" : 1494,
                                "_type" : "ScreenVMFile",
                                "src" : 1,
                                "trackNumber" : 0,
                                "attributes" : {
                                  "ident" : "Rec 01-28-21_001"
                                },
                                "parameters" : {
                                  "cursorScale" : {
                                    "type" : "double",
                                    "defaultValue" : 0.0,
                                    "interp" : "linr"
                                  },
                                  "cursorOpacity" : {
                                    "type" : "double",
                                    "defaultValue" : 0.0,
                                    "interp" : "linr"
                                  }
                                },
                                "effects" : [

                                ],
                                "start" : 1396,
                                "duration" : 79,
                                "mediaStart" : 2299,
                                "mediaDuration" : 79,
                                "scalar" : 1,
                                "animationTracks" : {

                                }
                              },
                          "audio" : 
                              {
                                "id" : 1495,
                                "_type" : "AMFile",
                                "src" : 1,
                                "trackNumber" : 1,
                                "attributes" : {
                                  "ident" : "",
                                  "gain" : 1.0,
                                  "mixToMono" : false
                                },
                                  "channelNumber" : "0,1",
                                "effects" : [

                                ],
                                "start" : 1396,
                                "duration" : 79,
                                "mediaStart" : 2299,
                                "mediaDuration" : 79,
                                "scalar" : 1,
                                "animationTracks" : {

                                }
                              }
,
                          "start" : 1396,
                          "duration" : 79,
                          "mediaStart" : 0,
                          "mediaDuration" : 10411,
                          "scalar" : 1,
                          "metadata" : {
                            "AutoAppliedSmartFocus" : "False",
                            "clipSpeedAttribute" : false
                          }
                        },
                        {
                          "id" : 1496,
                          "_type" : "UnifiedMedia",
                          "video" : 
                              {
                                "id" : 1497,
                                "_type" : "ScreenVMFile",
                                "src" : 1,
                                "trackNumber" : 0,
                                "attributes" : {
                                  "ident" : "Rec 01-28-21_001"
                                },
                                "parameters" : {
                                  "cursorScale" : {
                                    "type" : "double",
                                    "defaultValue" : 0.0,
                                    "interp" : "linr"
                                  },
                                  "cursorOpacity" : {
                                    "type" : "double",
                                    "defaultValue" : 0.0,
                                    "interp" : "linr"
                                  }
                                },
                                "effects" : [

                                ],
                                "start" : 1475,
                                "duration" : 64,
                                "mediaStart" : 2409,
                                "mediaDuration" : 64,
                                "scalar" : 1,
                                "animationTracks" : {

                                }
                              },
                          "audio" : 
                              {
                                "id" : 1498,
                                "_type" : "AMFile",
                                "src" : 1,
                                "trackNumber" : 1,
                                "attributes" : {
                                  "ident" : "",
                                  "gain" : 1.0,
                                  "mixToMono" : false
                                },
                                  "channelNumber" : "0,1",
                                "effects" : [

                                ],
                                "start" : 1475,
                                "duration" : 64,
                                "mediaStart" : 2409,
                                "mediaDuration" : 64,
                                "scalar" : 1,
                                "animationTracks" : {

                                }
                              }
,
                          "start" : 1475,
                          "duration" : 64,
                          "mediaStart" : 0,
                          "mediaDuration" : 10411,
                          "scalar" : 1,
                          "metadata" : {
                            "AutoAppliedSmartFocus" : "False",
                            "clipSpeedAttribute" : false
                          }
                        },
                        {
                          "id" : 1499,
                          "_type" : "UnifiedMedia",
                          "video" : 
                              {
                                "id" : 1500,
                                "_type" : "ScreenVMFile",
                                "src" : 1,
                                "trackNumber" : 0,
                                "attributes" : {
                                  "ident" : "Rec 01-28-21_001"
                                },
                                "parameters" : {
                                  "cursorScale" : {
                                    "type" : "double",
                                    "defaultValue" : 0.0,
                                    "interp" : "linr"
                                  },
                                  "cursorOpacity" : {
                                    "type" : "double",
                                    "defaultValue" : 0.0,
                                    "interp" : "linr"
                                  }
                                },
                                "effects" : [

                                ],
                                "start" : 1539,
                                "duration" : 43,
                                "mediaStart" : 2478,
                                "mediaDuration" : 43,
                                "scalar" : 1,
                                "animationTracks" : {

                                }
                              },
                          "audio" : 
                              {
                                "id" : 1501,
                                "_type" : "AMFile",
                                "src" : 1,
                                "trackNumber" : 1,
                                "attributes" : {
                                  "ident" : "",
                                  "gain" : 1.0,
                                  "mixToMono" : false
                                },
                                  "channelNumber" : "0,1",
                                "effects" : [

                                ],
                                "start" : 1539,
                                "duration" : 43,
                                "mediaStart" : 2478,
                                "mediaDuration" : 43,
                                "scalar" : 1,
                                "animationTracks" : {

                                }
                              }
,
                          "start" : 1539,
                          "duration" : 43,
                          "mediaStart" : 0,
                          "mediaDuration" : 10411,
                          "scalar" : 1,
                          "metadata" : {
                            "AutoAppliedSmartFocus" : "False",
                            "clipSpeedAttribute" : false
                          }
                        },
                        {
                          "id" : 1502,
                          "_type" : "UnifiedMedia",
                          "video" : 
                              {
                                "id" : 1503,
                                "_type" : "ScreenVMFile",
                                "src" : 1,
                                "trackNumber" : 0,
                                "attributes" : {
                                  "ident" : "Rec 01-28-21_001"
                                },
                                "parameters" : {
                                  "cursorScale" : {
                                    "type" : "double",
                                    "defaultValue" : 0.0,
                                    "interp" : "linr"
                                  },
                                  "cursorOpacity" : {
                                    "type" : "double",
                                    "defaultValue" : 0.0,
                                    "interp" : "linr"
                                  }
                                },
                                "effects" : [

                                ],
                                "start" : 1582,
                                "duration" : 47,
                                "mediaStart" : 2538,
                                "mediaDuration" : 47,
                                "scalar" : 1,
                                "animationTracks" : {

                                }
                              },
                          "audio" : 
                              {
                                "id" : 1504,
                                "_type" : "AMFile",
                                "src" : 1,
                                "trackNumber" : 1,
                                "attributes" : {
                                  "ident" : "",
                                  "gain" : 1.0,
                                  "mixToMono" : false
                                },
                                  "channelNumber" : "0,1",
                                "effects" : [

                                ],
                                "start" : 1582,
                                "duration" : 47,
                                "mediaStart" : 2538,
                                "mediaDuration" : 47,
                                "scalar" : 1,
                                "animationTracks" : {

                                }
                              }
,
                          "start" : 1582,
                          "duration" : 47,
                          "mediaStart" : 0,
                          "mediaDuration" : 10411,
                          "scalar" : 1,
                          "metadata" : {
                            "AutoAppliedSmartFocus" : "False",
                            "clipSpeedAttribute" : false
                          }
                        },
                        {
                          "id" : 1505,
                          "_type" : "UnifiedMedia",
                          "video" : 
                              {
                                "id" : 1506,
                                "_type" : "ScreenVMFile",
                                "src" : 1,
                                "trackNumber" : 0,
                                "attributes" : {
                                  "ident" : "Rec 01-28-21_001"
                                },
                                "parameters" : {
                                  "cursorScale" : {
                                    "type" : "double",
                                    "defaultValue" : 0.0,
                                    "interp" : "linr"
                                  },
                                  "cursorOpacity" : {
                                    "type" : "double",
                                    "defaultValue" : 0.0,
                                    "interp" : "linr"
                                  }
                                },
                                "effects" : [

                                ],
                                "start" : 1629,
                                "duration" : 299,
                                "mediaStart" : 2613,
                                "mediaDuration" : 299,
                                "scalar" : 1,
                                "animationTracks" : {

                                }
                              },
                          "audio" : 
                              {
                                "id" : 1507,
                                "_type" : "AMFile",
                                "src" : 1,
                                "trackNumber" : 1,
                                "attributes" : {
                                  "ident" : "",
                                  "gain" : 1.0,
                                  "mixToMono" : false
                                },
                                  "channelNumber" : "0,1",
                                "effects" : [

                                ],
                                "start" : 1629,
                                "duration" : 299,
                                "mediaStart" : 2613,
                                "mediaDuration" : 299,
                                "scalar" : 1,
                                "animationTracks" : {

                                }
                              }
,
                          "start" : 1629,
                          "duration" : 299,
                          "mediaStart" : 0,
                          "mediaDuration" : 10411,
                          "scalar" : 1,
                          "metadata" : {
                            "AutoAppliedSmartFocus" : "False",
                            "clipSpeedAttribute" : false
                          }
                        },
                        {
                          "id" : 1508,
                          "_type" : "UnifiedMedia",
                          "video" : 
                              {
                                "id" : 1509,
                                "_type" : "ScreenVMFile",
                                "src" : 1,
                                "trackNumber" : 0,
                                "attributes" : {
                                  "ident" : "Rec 01-28-21_001"
                                },
                                "parameters" : {
                                  "cursorScale" : {
                                    "type" : "double",
                                    "defaultValue" : 0.0,
                                    "interp" : "linr"
                                  },
                                  "cursorOpacity" : {
                                    "type" : "double",
                                    "defaultValue" : 0.0,
                                    "interp" : "linr"
                                  }
                                },
                                "effects" : [

                                ],
                                "start" : 1928,
                                "duration" : 53,
                                "mediaStart" : 3209,
                                "mediaDuration" : 53,
                                "scalar" : 1,
                                "animationTracks" : {

                                }
                              },
                          "audio" : 
                              {
                                "id" : 1510,
                                "_type" : "AMFile",
                                "src" : 1,
                                "trackNumber" : 1,
                                "attributes" : {
                                  "ident" : "",
                                  "gain" : 1.0,
                                  "mixToMono" : false
                                },
                                  "channelNumber" : "0,1",
                                "effects" : [

                                ],
                                "start" : 1928,
                                "duration" : 53,
                                "mediaStart" : 3209,
                                "mediaDuration" : 53,
                                "scalar" : 1,
                                "animationTracks" : {

                                }
                              }
,
                          "start" : 1928,
                          "duration" : 53,
                          "mediaStart" : 0,
                          "mediaDuration" : 10411,
                          "scalar" : 1,
                          "metadata" : {
                            "AutoAppliedSmartFocus" : "False",
                            "clipSpeedAttribute" : false
                          }
                        },
                        {
                          "id" : 1511,
                          "_type" : "UnifiedMedia",
                          "video" : 
                              {
                                "id" : 1512,
                                "_type" : "ScreenVMFile",
                                "src" : 1,
                                "trackNumber" : 0,
                                "attributes" : {
                                  "ident" : "Rec 01-28-21_001"
                                },
                                "parameters" : {
                                  "cursorScale" : {
                                    "type" : "double",
                                    "defaultValue" : 0.0,
                                    "interp" : "linr"
                                  },
                                  "cursorOpacity" : {
                                    "type" : "double",
                                    "defaultValue" : 0.0,
                                    "interp" : "linr"
                                  }
                                },
                                "effects" : [

                                ],
                                "start" : 1981,
                                "duration" : 47,
                                "mediaStart" : 3282,
                                "mediaDuration" : 47,
                                "scalar" : 1,
                                "animationTracks" : {

                                }
                              },
                          "audio" : 
                              {
                                "id" : 1513,
                                "_type" : "AMFile",
                                "src" : 1,
                                "trackNumber" : 1,
                                "attributes" : {
                                  "ident" : "",
                                  "gain" : 1.0,
                                  "mixToMono" : false
                                },
                                  "channelNumber" : "0,1",
                                "effects" : [

                                ],
                                "start" : 1981,
                                "duration" : 47,
                                "mediaStart" : 3282,
                                "mediaDuration" : 47,
                                "scalar" : 1,
                                "animationTracks" : {

                                }
                              }
,
                          "start" : 1981,
                          "duration" : 47,
                          "mediaStart" : 0,
                          "mediaDuration" : 10411,
                          "scalar" : 1,
                          "metadata" : {
                            "AutoAppliedSmartFocus" : "False",
                            "clipSpeedAttribute" : false
                          }
                        },
                        {
                          "id" : 1514,
                          "_type" : "UnifiedMedia",
                          "video" : 
                              {
                                "id" : 1515,
                                "_type" : "ScreenVMFile",
                                "src" : 1,
                                "trackNumber" : 0,
                                "attributes" : {
                                  "ident" : "Rec 01-28-21_001"
                                },
                                "parameters" : {
                                  "cursorScale" : {
                                    "type" : "double",
                                    "defaultValue" : 0.0,
                                    "interp" : "linr"
                                  },
                                  "cursorOpacity" : {
                                    "type" : "double",
                                    "defaultValue" : 0.0,
                                    "interp" : "linr"
                                  }
                                },
                                "effects" : [

                                ],
                                "start" : 2028,
                                "duration" : 103,
                                "mediaStart" : 3341,
                                "mediaDuration" : 103,
                                "scalar" : 1,
                                "animationTracks" : {

                                }
                              },
                          "audio" : 
                              {
                                "id" : 1516,
                                "_type" : "AMFile",
                                "src" : 1,
                                "trackNumber" : 1,
                                "attributes" : {
                                  "ident" : "",
                                  "gain" : 1.0,
                                  "mixToMono" : false
                                },
                                  "channelNumber" : "0,1",
                                "effects" : [

                                ],
                                "start" : 2028,
                                "duration" : 103,
                                "mediaStart" : 3341,
                                "mediaDuration" : 103,
                                "scalar" : 1,
                                "animationTracks" : {

                                }
                              }
,
                          "start" : 2028,
                          "duration" : 103,
                          "mediaStart" : 0,
                          "mediaDuration" : 10411,
                          "scalar" : 1,
                          "metadata" : {
                            "AutoAppliedSmartFocus" : "False",
                            "clipSpeedAttribute" : false
                          }
                        },
                        {
                          "id" : 1517,
                          "_type" : "UnifiedMedia",
                          "video" : 
                              {
                                "id" : 1518,
                                "_type" : "ScreenVMFile",
                                "src" : 1,
                                "trackNumber" : 0,
                                "attributes" : {
                                  "ident" : "Rec 01-28-21_001"
                                },
                                "parameters" : {
                                  "cursorScale" : {
                                    "type" : "double",
                                    "defaultValue" : 0.0,
                                    "interp" : "linr"
                                  },
                                  "cursorOpacity" : {
                                    "type" : "double",
                                    "defaultValue" : 0.0,
                                    "interp" : "linr"
                                  }
                                },
                                "effects" : [

                                ],
                                "start" : 2131,
                                "duration" : 26,
                                "mediaStart" : 3468,
                                "mediaDuration" : 26,
                                "scalar" : 1,
                                "animationTracks" : {

                                }
                              },
                          "audio" : 
                              {
                                "id" : 1519,
                                "_type" : "AMFile",
                                "src" : 1,
                                "trackNumber" : 1,
                                "attributes" : {
                                  "ident" : "",
                                  "gain" : 1.0,
                                  "mixToMono" : false
                                },
                                  "channelNumber" : "0,1",
                                "effects" : [

                                ],
                                "start" : 2131,
                                "duration" : 26,
                                "mediaStart" : 3468,
                                "mediaDuration" : 26,
                                "scalar" : 1,
                                "animationTracks" : {

                                }
                              }
,
                          "start" : 2131,
                          "duration" : 26,
                          "mediaStart" : 0,
                          "mediaDuration" : 10411,
                          "scalar" : 1,
                          "metadata" : {
                            "AutoAppliedSmartFocus" : "False",
                            "clipSpeedAttribute" : false
                          }
                        },
                        {
                          "id" : 1520,
                          "_type" : "UnifiedMedia",
                          "video" : 
                              {
                                "id" : 1521,
                                "_type" : "ScreenVMFile",
                                "src" : 1,
                                "trackNumber" : 0,
                                "attributes" : {
                                  "ident" : "Rec 01-28-21_001"
                                },
                                "parameters" : {
                                  "cursorScale" : {
                                    "type" : "double",
                                    "defaultValue" : 0.0,
                                    "interp" : "linr"
                                  },
                                  "cursorOpacity" : {
                                    "type" : "double",
                                    "defaultValue" : 0.0,
                                    "interp" : "linr"
                                  }
                                },
                                "effects" : [

                                ],
                                "start" : 2157,
                                "duration" : 41,
                                "mediaStart" : 3504,
                                "mediaDuration" : 41,
                                "scalar" : 1,
                                "animationTracks" : {

                                }
                              },
                          "audio" : 
                              {
                                "id" : 1522,
                                "_type" : "AMFile",
                                "src" : 1,
                                "trackNumber" : 1,
                                "attributes" : {
                                  "ident" : "",
                                  "gain" : 1.0,
                                  "mixToMono" : false
                                },
                                  "channelNumber" : "0,1",
                                "effects" : [

                                ],
                                "start" : 2157,
                                "duration" : 41,
                                "mediaStart" : 3504,
                                "mediaDuration" : 41,
                                "scalar" : 1,
                                "animationTracks" : {

                                }
                              }
,
                          "start" : 2157,
                          "duration" : 41,
                          "mediaStart" : 0,
                          "mediaDuration" : 10411,
                          "scalar" : 1,
                          "metadata" : {
                            "AutoAppliedSmartFocus" : "False",
                            "clipSpeedAttribute" : false
                          }
                        },
                        {
                          "id" : 1523,
                          "_type" : "UnifiedMedia",
                          "video" : 
                              {
                                "id" : 1524,
                                "_type" : "ScreenVMFile",
                                "src" : 1,
                                "trackNumber" : 0,
                                "attributes" : {
                                  "ident" : "Rec 01-28-21_001"
                                },
                                "parameters" : {
                                  "cursorScale" : {
                                    "type" : "double",
                                    "defaultValue" : 0.0,
                                    "interp" : "linr"
                                  },
                                  "cursorOpacity" : {
                                    "type" : "double",
                                    "defaultValue" : 0.0,
                                    "interp" : "linr"
                                  }
                                },
                                "effects" : [

                                ],
                                "start" : 2198,
                                "duration" : 108,
                                "mediaStart" : 3657,
                                "mediaDuration" : 108,
                                "scalar" : 1,
                                "animationTracks" : {

                                }
                              },
                          "audio" : 
                              {
                                "id" : 1525,
                                "_type" : "AMFile",
                                "src" : 1,
                                "trackNumber" : 1,
                                "attributes" : {
                                  "ident" : "",
                                  "gain" : 1.0,
                                  "mixToMono" : false
                                },
                                  "channelNumber" : "0,1",
                                "effects" : [

                                ],
                                "start" : 2198,
                                "duration" : 108,
                                "mediaStart" : 3657,
                                "mediaDuration" : 108,
                                "scalar" : 1,
                                "animationTracks" : {

                                }
                              }
,
                          "start" : 2198,
                          "duration" : 108,
                          "mediaStart" : 0,
                          "mediaDuration" : 10411,
                          "scalar" : 1,
                          "metadata" : {
                            "AutoAppliedSmartFocus" : "False",
                            "clipSpeedAttribute" : false
                          }
                        },
                        {
                          "id" : 1526,
                          "_type" : "UnifiedMedia",
                          "video" : 
                              {
                                "id" : 1527,
                                "_type" : "ScreenVMFile",
                                "src" : 1,
                                "trackNumber" : 0,
                                "attributes" : {
                                  "ident" : "Rec 01-28-21_001"
                                },
                                "parameters" : {
                                  "cursorScale" : {
                                    "type" : "double",
                                    "defaultValue" : 0.0,
                                    "interp" : "linr"
                                  },
                                  "cursorOpacity" : {
                                    "type" : "double",
                                    "defaultValue" : 0.0,
                                    "interp" : "linr"
                                  }
                                },
                                "effects" : [

                                ],
                                "start" : 2306,
                                "duration" : 124,
                                "mediaStart" : 3787,
                                "mediaDuration" : 124,
                                "scalar" : 1,
                                "animationTracks" : {

                                }
                              },
                          "audio" : 
                              {
                                "id" : 1528,
                                "_type" : "AMFile",
                                "src" : 1,
                                "trackNumber" : 1,
                                "attributes" : {
                                  "ident" : "",
                                  "gain" : 1.0,
                                  "mixToMono" : false
                                },
                                  "channelNumber" : "0,1",
                                "effects" : [

                                ],
                                "start" : 2306,
                                "duration" : 124,
                                "mediaStart" : 3787,
                                "mediaDuration" : 124,
                                "scalar" : 1,
                                "animationTracks" : {

                                }
                              }
,
                          "start" : 2306,
                          "duration" : 124,
                          "mediaStart" : 0,
                          "mediaDuration" : 10411,
                          "scalar" : 1,
                          "metadata" : {
                            "AutoAppliedSmartFocus" : "False",
                            "clipSpeedAttribute" : false
                          }
                        },
                        {
                          "id" : 1529,
                          "_type" : "UnifiedMedia",
                          "video" : 
                              {
                                "id" : 1530,
                                "_type" : "ScreenVMFile",
                                "src" : 1,
                                "trackNumber" : 0,
                                "attributes" : {
                                  "ident" : "Rec 01-28-21_001"
                                },
                                "parameters" : {
                                  "cursorScale" : {
                                    "type" : "double",
                                    "defaultValue" : 0.0,
                                    "interp" : "linr"
                                  },
                                  "cursorOpacity" : {
                                    "type" : "double",
                                    "defaultValue" : 0.0,
                                    "interp" : "linr"
                                  }
                                },
                                "effects" : [

                                ],
                                "start" : 2430,
                                "duration" : 282,
                                "mediaStart" : 3991,
                                "mediaDuration" : 282,
                                "scalar" : 1,
                                "animationTracks" : {

                                }
                              },
                          "audio" : 
                              {
                                "id" : 1531,
                                "_type" : "AMFile",
                                "src" : 1,
                                "trackNumber" : 1,
                                "attributes" : {
                                  "ident" : "",
                                  "gain" : 1.0,
                                  "mixToMono" : false
                                },
                                  "channelNumber" : "0,1",
                                "effects" : [

                                ],
                                "start" : 2430,
                                "duration" : 282,
                                "mediaStart" : 3991,
                                "mediaDuration" : 282,
                                "scalar" : 1,
                                "animationTracks" : {

                                }
                              }
,
                          "start" : 2430,
                          "duration" : 282,
                          "mediaStart" : 0,
                          "mediaDuration" : 10411,
                          "scalar" : 1,
                          "metadata" : {
                            "AutoAppliedSmartFocus" : "False",
                            "clipSpeedAttribute" : false
                          }
                        },
                        {
                          "id" : 1532,
                          "_type" : "UnifiedMedia",
                          "video" : 
                              {
                                "id" : 1533,
                                "_type" : "ScreenVMFile",
                                "src" : 1,
                                "trackNumber" : 0,
                                "attributes" : {
                                  "ident" : "Rec 01-28-21_001"
                                },
                                "parameters" : {
                                  "cursorScale" : {
                                    "type" : "double",
                                    "defaultValue" : 0.0,
                                    "interp" : "linr"
                                  },
                                  "cursorOpacity" : {
                                    "type" : "double",
                                    "defaultValue" : 0.0,
                                    "interp" : "linr"
                                  }
                                },
                                "effects" : [

                                ],
                                "start" : 2712,
                                "duration" : 205,
                                "mediaStart" : 4397,
                                "mediaDuration" : 205,
                                "scalar" : 1,
                                "animationTracks" : {

                                }
                              },
                          "audio" : 
                              {
                                "id" : 1534,
                                "_type" : "AMFile",
                                "src" : 1,
                                "trackNumber" : 1,
                                "attributes" : {
                                  "ident" : "",
                                  "gain" : 1.0,
                                  "mixToMono" : false
                                },
                                  "channelNumber" : "0,1",
                                "effects" : [

                                ],
                                "start" : 2712,
                                "duration" : 205,
                                "mediaStart" : 4397,
                                "mediaDuration" : 205,
                                "scalar" : 1,
                                "animationTracks" : {

                                }
                              }
,
                          "start" : 2712,
                          "duration" : 205,
                          "mediaStart" : 0,
                          "mediaDuration" : 10411,
                          "scalar" : 1,
                          "metadata" : {
                            "AutoAppliedSmartFocus" : "False",
                            "clipSpeedAttribute" : false
                          }
                        },
                        {
                          "id" : 1535,
                          "_type" : "UnifiedMedia",
                          "video" : 
                              {
                                "id" : 1536,
                                "_type" : "ScreenVMFile",
                                "src" : 1,
                                "trackNumber" : 0,
                                "attributes" : {
                                  "ident" : "Rec 01-28-21_001"
                                },
                                "parameters" : {
                                  "cursorScale" : {
                                    "type" : "double",
                                    "defaultValue" : 0.0,
                                    "interp" : "linr"
                                  },
                                  "cursorOpacity" : {
                                    "type" : "double",
                                    "defaultValue" : 0.0,
                                    "interp" : "linr"
                                  }
                                },
                                "effects" : [

                                ],
                                "start" : 2917,
                                "duration" : 61,
                                "mediaStart" : 4960,
                                "mediaDuration" : 61,
                                "scalar" : 1,
                                "animationTracks" : {

                                }
                              },
                          "audio" : 
                              {
                                "id" : 1537,
                                "_type" : "AMFile",
                                "src" : 1,
                                "trackNumber" : 1,
                                "attributes" : {
                                  "ident" : "",
                                  "gain" : 1.0,
                                  "mixToMono" : false
                                },
                                  "channelNumber" : "0,1",
                                "effects" : [

                                ],
                                "start" : 2917,
                                "duration" : 61,
                                "mediaStart" : 4960,
                                "mediaDuration" : 61,
                                "scalar" : 1,
                                "animationTracks" : {

                                }
                              }
,
                          "start" : 2917,
                          "duration" : 61,
                          "mediaStart" : 0,
                          "mediaDuration" : 10411,
                          "scalar" : 1,
                          "metadata" : {
                            "AutoAppliedSmartFocus" : "False",
                            "clipSpeedAttribute" : false
                          }
                        },
                        {
                          "id" : 1538,
                          "_type" : "UnifiedMedia",
                          "video" : 
                              {
                                "id" : 1539,
                                "_type" : "ScreenVMFile",
                                "src" : 1,
                                "trackNumber" : 0,
                                "attributes" : {
                                  "ident" : "Rec 01-28-21_001"
                                },
                                "parameters" : {
                                  "cursorScale" : {
                                    "type" : "double",
                                    "defaultValue" : 0.0,
                                    "interp" : "linr"
                                  },
                                  "cursorOpacity" : {
                                    "type" : "double",
                                    "defaultValue" : 0.0,
                                    "interp" : "linr"
                                  }
                                },
                                "effects" : [

                                ],
                                "start" : 2978,
                                "duration" : 172,
                                "mediaStart" : 5035,
                                "mediaDuration" : 172,
                                "scalar" : 1,
                                "animationTracks" : {

                                }
                              },
                          "audio" : 
                              {
                                "id" : 1540,
                                "_type" : "AMFile",
                                "src" : 1,
                                "trackNumber" : 1,
                                "attributes" : {
                                  "ident" : "",
                                  "gain" : 1.0,
                                  "mixToMono" : false
                                },
                                  "channelNumber" : "0,1",
                                "effects" : [

                                ],
                                "start" : 2978,
                                "duration" : 172,
                                "mediaStart" : 5035,
                                "mediaDuration" : 172,
                                "scalar" : 1,
                                "animationTracks" : {

                                }
                              }
,
                          "start" : 2978,
                          "duration" : 172,
                          "mediaStart" : 0,
                          "mediaDuration" : 10411,
                          "scalar" : 1,
                          "metadata" : {
                            "AutoAppliedSmartFocus" : "False",
                            "clipSpeedAttribute" : false
                          }
                        },
                        {
                          "id" : 1541,
                          "_type" : "UnifiedMedia",
                          "video" : 
                              {
                                "id" : 1542,
                                "_type" : "ScreenVMFile",
                                "src" : 1,
                                "trackNumber" : 0,
                                "attributes" : {
                                  "ident" : "Rec 01-28-21_001"
                                },
                                "parameters" : {
                                  "cursorScale" : {
                                    "type" : "double",
                                    "defaultValue" : 0.0,
                                    "interp" : "linr"
                                  },
                                  "cursorOpacity" : {
                                    "type" : "double",
                                    "defaultValue" : 0.0,
                                    "interp" : "linr"
                                  }
                                },
                                "effects" : [

                                ],
                                "start" : 3150,
                                "duration" : 199,
                                "mediaStart" : 5255,
                                "mediaDuration" : 199,
                                "scalar" : 1,
                                "animationTracks" : {

                                }
                              },
                          "audio" : 
                              {
                                "id" : 1543,
                                "_type" : "AMFile",
                                "src" : 1,
                                "trackNumber" : 1,
                                "attributes" : {
                                  "ident" : "",
                                  "gain" : 1.0,
                                  "mixToMono" : false
                                },
                                  "channelNumber" : "0,1",
                                "effects" : [

                                ],
                                "start" : 3150,
                                "duration" : 199,
                                "mediaStart" : 5255,
                                "mediaDuration" : 199,
                                "scalar" : 1,
                                "animationTracks" : {

                                }
                              }
,
                          "start" : 3150,
                          "duration" : 199,
                          "mediaStart" : 0,
                          "mediaDuration" : 10411,
                          "scalar" : 1,
                          "metadata" : {
                            "AutoAppliedSmartFocus" : "False",
                            "clipSpeedAttribute" : false
                          }
                        },
                        {
                          "id" : 1544,
                          "_type" : "UnifiedMedia",
                          "video" : 
                              {
                                "id" : 1545,
                                "_type" : "ScreenVMFile",
                                "src" : 1,
                                "trackNumber" : 0,
                                "attributes" : {
                                  "ident" : "Rec 01-28-21_001"
                                },
                                "parameters" : {
                                  "cursorScale" : {
                                    "type" : "double",
                                    "defaultValue" : 0.0,
                                    "interp" : "linr"
                                  },
                                  "cursorOpacity" : {
                                    "type" : "double",
                                    "defaultValue" : 0.0,
                                    "interp" : "linr"
                                  }
                                },
                                "effects" : [

                                ],
                                "start" : 3349,
                                "duration" : 150,
                                "mediaStart" : 5507,
                                "mediaDuration" : 150,
                                "scalar" : 1,
                                "animationTracks" : {

                                }
                              },
                          "audio" : 
                              {
                                "id" : 1546,
                                "_type" : "AMFile",
                                "src" : 1,
                                "trackNumber" : 1,
                                "attributes" : {
                                  "ident" : "",
                                  "gain" : 1.0,
                                  "mixToMono" : false
                                },
                                  "channelNumber" : "0,1",
                                "effects" : [

                                ],
                                "start" : 3349,
                                "duration" : 150,
                                "mediaStart" : 5507,
                                "mediaDuration" : 150,
                                "scalar" : 1,
                                "animationTracks" : {

                                }
                              }
,
                          "start" : 3349,
                          "duration" : 150,
                          "mediaStart" : 0,
                          "mediaDuration" : 10411,
                          "scalar" : 1,
                          "metadata" : {
                            "AutoAppliedSmartFocus" : "False",
                            "clipSpeedAttribute" : false
                          }
                        },
                        {
                          "id" : 1547,
                          "_type" : "UnifiedMedia",
                          "video" : 
                              {
                                "id" : 1548,
                                "_type" : "ScreenVMFile",
                                "src" : 1,
                                "trackNumber" : 0,
                                "attributes" : {
                                  "ident" : "Rec 01-28-21_001"
                                },
                                "parameters" : {
                                  "cursorScale" : {
                                    "type" : "double",
                                    "defaultValue" : 0.0,
                                    "interp" : "linr"
                                  },
                                  "cursorOpacity" : {
                                    "type" : "double",
                                    "defaultValue" : 0.0,
                                    "interp" : "linr"
                                  }
                                },
                                "effects" : [

                                ],
                                "start" : 3499,
                                "duration" : 336,
                                "mediaStart" : 6158,
                                "mediaDuration" : 336,
                                "scalar" : 1,
                                "animationTracks" : {

                                }
                              },
                          "audio" : 
                              {
                                "id" : 1549,
                                "_type" : "AMFile",
                                "src" : 1,
                                "trackNumber" : 1,
                                "attributes" : {
                                  "ident" : "",
                                  "gain" : 1.0,
                                  "mixToMono" : false
                                },
                                  "channelNumber" : "0,1",
                                "effects" : [

                                ],
                                "start" : 3499,
                                "duration" : 336,
                                "mediaStart" : 6158,
                                "mediaDuration" : 336,
                                "scalar" : 1,
                                "animationTracks" : {

                                }
                              }
,
                          "start" : 3499,
                          "duration" : 336,
                          "mediaStart" : 0,
                          "mediaDuration" : 10411,
                          "scalar" : 1,
                          "metadata" : {
                            "AutoAppliedSmartFocus" : "False",
                            "clipSpeedAttribute" : false
                          }
                        },
                        {
                          "id" : 1550,
                          "_type" : "UnifiedMedia",
                          "video" : 
                              {
                                "id" : 1551,
                                "_type" : "ScreenVMFile",
                                "src" : 1,
                                "trackNumber" : 0,
                                "attributes" : {
                                  "ident" : "Rec 01-28-21_001"
                                },
                                "parameters" : {
                                  "cursorScale" : {
                                    "type" : "double",
                                    "defaultValue" : 0.0,
                                    "interp" : "linr"
                                  },
                                  "cursorOpacity" : {
                                    "type" : "double",
                                    "defaultValue" : 0.0,
                                    "interp" : "linr"
                                  }
                                },
                                "effects" : [

                                ],
                                "start" : 3835,
                                "duration" : 73,
                                "mediaStart" : 6577,
                                "mediaDuration" : 73,
                                "scalar" : 1,
                                "animationTracks" : {

                                }
                              },
                          "audio" : 
                              {
                                "id" : 1552,
                                "_type" : "AMFile",
                                "src" : 1,
                                "trackNumber" : 1,
                                "attributes" : {
                                  "ident" : "",
                                  "gain" : 1.0,
                                  "mixToMono" : false
                                },
                                  "channelNumber" : "0,1",
                                "effects" : [

                                ],
                                "start" : 3835,
                                "duration" : 73,
                                "mediaStart" : 6577,
                                "mediaDuration" : 73,
                                "scalar" : 1,
                                "animationTracks" : {

                                }
                              }
,
                          "start" : 3835,
                          "duration" : 73,
                          "mediaStart" : 0,
                          "mediaDuration" : 10411,
                          "scalar" : 1,
                          "metadata" : {
                            "AutoAppliedSmartFocus" : "False",
                            "clipSpeedAttribute" : false
                          }
                        },
                        {
                          "id" : 1553,
                          "_type" : "UnifiedMedia",
                          "video" : 
                              {
                                "id" : 1554,
                                "_type" : "ScreenVMFile",
                                "src" : 1,
                                "trackNumber" : 0,
                                "attributes" : {
                                  "ident" : "Rec 01-28-21_001"
                                },
                                "parameters" : {
                                  "cursorScale" : {
                                    "type" : "double",
                                    "defaultValue" : 0.0,
                                    "interp" : "linr"
                                  },
                                  "cursorOpacity" : {
                                    "type" : "double",
                                    "defaultValue" : 0.0,
                                    "interp" : "linr"
                                  }
                                },
                                "effects" : [

                                ],
                                "start" : 3908,
                                "duration" : 401,
                                "mediaStart" : 6679,
                                "mediaDuration" : 401,
                                "scalar" : 1,
                                "animationTracks" : {

                                }
                              },
                          "audio" : 
                              {
                                "id" : 1555,
                                "_type" : "AMFile",
                                "src" : 1,
                                "trackNumber" : 1,
                                "attributes" : {
                                  "ident" : "",
                                  "gain" : 1.0,
                                  "mixToMono" : false
                                },
                                  "channelNumber" : "0,1",
                                "effects" : [

                                ],
                                "start" : 3908,
                                "duration" : 401,
                                "mediaStart" : 6679,
                                "mediaDuration" : 401,
                                "scalar" : 1,
                                "animationTracks" : {

                                }
                              }
,
                          "start" : 3908,
                          "duration" : 401,
                          "mediaStart" : 0,
                          "mediaDuration" : 10411,
                          "scalar" : 1,
                          "metadata" : {
                            "AutoAppliedSmartFocus" : "False",
                            "clipSpeedAttribute" : false
                          }
                        },
                        {
                          "id" : 1556,
                          "_type" : "UnifiedMedia",
                          "video" : 
                              {
                                "id" : 1557,
                                "_type" : "ScreenVMFile",
                                "src" : 1,
                                "trackNumber" : 0,
                                "attributes" : {
                                  "ident" : "Rec 01-28-21_001"
                                },
                                "parameters" : {
                                  "cursorScale" : {
                                    "type" : "double",
                                    "defaultValue" : 0.0,
                                    "interp" : "linr"
                                  },
                                  "cursorOpacity" : {
                                    "type" : "double",
                                    "defaultValue" : 0.0,
                                    "interp" : "linr"
                                  }
                                },
                                "effects" : [

                                ],
                                "start" : 4309,
                                "duration" : 98,
                                "mediaStart" : 7143,
                                "mediaDuration" : 98,
                                "scalar" : 1,
                                "animationTracks" : {

                                }
                              },
                          "audio" : 
                              {
                                "id" : 1558,
                                "_type" : "AMFile",
                                "src" : 1,
                                "trackNumber" : 1,
                                "attributes" : {
                                  "ident" : "",
                                  "gain" : 1.0,
                                  "mixToMono" : false
                                },
                                  "channelNumber" : "0,1",
                                "effects" : [

                                ],
                                "start" : 4309,
                                "duration" : 98,
                                "mediaStart" : 7143,
                                "mediaDuration" : 98,
                                "scalar" : 1,
                                "animationTracks" : {

                                }
                              }
,
                          "start" : 4309,
                          "duration" : 98,
                          "mediaStart" : 0,
                          "mediaDuration" : 10411,
                          "scalar" : 1,
                          "metadata" : {
                            "AutoAppliedSmartFocus" : "False",
                            "clipSpeedAttribute" : false
                          }
                        },
                        {
                          "id" : 1559,
                          "_type" : "UnifiedMedia",
                          "video" : 
                              {
                                "id" : 1560,
                                "_type" : "ScreenVMFile",
                                "src" : 1,
                                "trackNumber" : 0,
                                "attributes" : {
                                  "ident" : "Rec 01-28-21_001"
                                },
                                "parameters" : {
                                  "cursorScale" : {
                                    "type" : "double",
                                    "defaultValue" : 0.0,
                                    "interp" : "linr"
                                  },
                                  "cursorOpacity" : {
                                    "type" : "double",
                                    "defaultValue" : 0.0,
                                    "interp" : "linr"
                                  }
                                },
                                "effects" : [

                                ],
                                "start" : 4407,
                                "duration" : 108,
                                "mediaStart" : 7264,
                                "mediaDuration" : 108,
                                "scalar" : 1,
                                "animationTracks" : {

                                }
                              },
                          "audio" : 
                              {
                                "id" : 1561,
                                "_type" : "AMFile",
                                "src" : 1,
                                "trackNumber" : 1,
                                "attributes" : {
                                  "ident" : "",
                                  "gain" : 1.0,
                                  "mixToMono" : false
                                },
                                  "channelNumber" : "0,1",
                                "effects" : [

                                ],
                                "start" : 4407,
                                "duration" : 108,
                                "mediaStart" : 7264,
                                "mediaDuration" : 108,
                                "scalar" : 1,
                                "animationTracks" : {

                                }
                              }
,
                          "start" : 4407,
                          "duration" : 108,
                          "mediaStart" : 0,
                          "mediaDuration" : 10411,
                          "scalar" : 1,
                          "metadata" : {
                            "AutoAppliedSmartFocus" : "False",
                            "clipSpeedAttribute" : false
                          }
                        },
                        {
                          "id" : 1562,
                          "_type" : "UnifiedMedia",
                          "video" : 
                              {
                                "id" : 1563,
                                "_type" : "ScreenVMFile",
                                "src" : 1,
                                "trackNumber" : 0,
                                "attributes" : {
                                  "ident" : "Rec 01-28-21_001"
                                },
                                "parameters" : {
                                  "cursorScale" : {
                                    "type" : "double",
                                    "defaultValue" : 0.0,
                                    "interp" : "linr"
                                  },
                                  "cursorOpacity" : {
                                    "type" : "double",
                                    "defaultValue" : 0.0,
                                    "interp" : "linr"
                                  }
                                },
                                "effects" : [

                                ],
                                "start" : 4515,
                                "duration" : 66,
                                "mediaStart" : 7571,
                                "mediaDuration" : 66,
                                "scalar" : 1,
                                "animationTracks" : {

                                }
                              },
                          "audio" : 
                              {
                                "id" : 1564,
                                "_type" : "AMFile",
                                "src" : 1,
                                "trackNumber" : 1,
                                "attributes" : {
                                  "ident" : "",
                                  "gain" : 1.0,
                                  "mixToMono" : false
                                },
                                  "channelNumber" : "0,1",
                                "effects" : [

                                ],
                                "start" : 4515,
                                "duration" : 66,
                                "mediaStart" : 7571,
                                "mediaDuration" : 66,
                                "scalar" : 1,
                                "animationTracks" : {

                                }
                              }
,
                          "start" : 4515,
                          "duration" : 66,
                          "mediaStart" : 0,
                          "mediaDuration" : 10411,
                          "scalar" : 1,
                          "metadata" : {
                            "AutoAppliedSmartFocus" : "False",
                            "clipSpeedAttribute" : false
                          }
                        },
                        {
                          "id" : 1565,
                          "_type" : "UnifiedMedia",
                          "video" : 
                              {
                                "id" : 1566,
                                "_type" : "ScreenVMFile",
                                "src" : 1,
                                "trackNumber" : 0,
                                "attributes" : {
                                  "ident" : "Rec 01-28-21_001"
                                },
                                "parameters" : {
                                  "cursorScale" : {
                                    "type" : "double",
                                    "defaultValue" : 0.0,
                                    "interp" : "linr"
                                  },
                                  "cursorOpacity" : {
                                    "type" : "double",
                                    "defaultValue" : 0.0,
                                    "interp" : "linr"
                                  }
                                },
                                "effects" : [

                                ],
                                "start" : 4581,
                                "duration" : 19,
                                "mediaStart" : 7670,
                                "mediaDuration" : 19,
                                "scalar" : 1,
                                "animationTracks" : {

                                }
                              },
                          "audio" : 
                              {
                                "id" : 1567,
                                "_type" : "AMFile",
                                "src" : 1,
                                "trackNumber" : 1,
                                "attributes" : {
                                  "ident" : "",
                                  "gain" : 1.0,
                                  "mixToMono" : false
                                },
                                  "channelNumber" : "0,1",
                                "effects" : [

                                ],
                                "start" : 4581,
                                "duration" : 19,
                                "mediaStart" : 7670,
                                "mediaDuration" : 19,
                                "scalar" : 1,
                                "animationTracks" : {

                                }
                              }
,
                          "start" : 4581,
                          "duration" : 19,
                          "mediaStart" : 0,
                          "mediaDuration" : 10411,
                          "scalar" : 1,
                          "metadata" : {
                            "AutoAppliedSmartFocus" : "False",
                            "clipSpeedAttribute" : false
                          }
                        },
                        {
                          "id" : 1568,
                          "_type" : "UnifiedMedia",
                          "video" : 
                              {
                                "id" : 1569,
                                "_type" : "ScreenVMFile",
                                "src" : 1,
                                "trackNumber" : 0,
                                "attributes" : {
                                  "ident" : "Rec 01-28-21_001"
                                },
                                "parameters" : {
                                  "cursorScale" : {
                                    "type" : "double",
                                    "defaultValue" : 0.0,
                                    "interp" : "linr"
                                  },
                                  "cursorOpacity" : {
                                    "type" : "double",
                                    "defaultValue" : 0.0,
                                    "interp" : "linr"
                                  }
                                },
                                "effects" : [

                                ],
                                "start" : 4600,
                                "duration" : 1343,
                                "mediaStart" : 7971,
                                "mediaDuration" : 1343,
                                "scalar" : 1,
                                "animationTracks" : {

                                }
                              },
                          "audio" : 
                              {
                                "id" : 1570,
                                "_type" : "AMFile",
                                "src" : 1,
                                "trackNumber" : 1,
                                "attributes" : {
                                  "ident" : "",
                                  "gain" : 1.0,
                                  "mixToMono" : false
                                },
                                  "channelNumber" : "0,1",
                                "effects" : [

                                ],
                                "start" : 4600,
                                "duration" : 1343,
                                "mediaStart" : 7971,
                                "mediaDuration" : 1343,
                                "scalar" : 1,
                                "animationTracks" : {

                                }
                              }
,
                          "start" : 4600,
                          "duration" : 1343,
                          "mediaStart" : 0,
                          "mediaDuration" : 10411,
                          "scalar" : 1,
                          "metadata" : {
                            "AutoAppliedSmartFocus" : "False",
                            "clipSpeedAttribute" : false
                          }
                        },
                        {
                          "id" : 1571,
                          "_type" : "UnifiedMedia",
                          "video" : 
                              {
                                "id" : 1572,
                                "_type" : "ScreenVMFile",
                                "src" : 1,
                                "trackNumber" : 0,
                                "attributes" : {
                                  "ident" : "Rec 01-28-21_001"
                                },
                                "parameters" : {
                                  "cursorScale" : {
                                    "type" : "double",
                                    "defaultValue" : 0.0,
                                    "interp" : "linr"
                                  },
                                  "cursorOpacity" : {
                                    "type" : "double",
                                    "defaultValue" : 0.0,
                                    "interp" : "linr"
                                  }
                                },
                                "effects" : [

                                ],
                                "start" : 5943,
                                "duration" : 111,
                                "mediaStart" : 9422,
                                "mediaDuration" : 111,
                                "scalar" : 1,
                                "animationTracks" : {

                                }
                              },
                          "audio" : 
                              {
                                "id" : 1573,
                                "_type" : "AMFile",
                                "src" : 1,
                                "trackNumber" : 1,
                                "attributes" : {
                                  "ident" : "",
                                  "gain" : 1.0,
                                  "mixToMono" : false
                                },
                                  "channelNumber" : "0,1",
                                "effects" : [

                                ],
                                "start" : 5943,
                                "duration" : 111,
                                "mediaStart" : 9422,
                                "mediaDuration" : 111,
                                "scalar" : 1,
                                "animationTracks" : {

                                }
                              }
,
                          "start" : 5943,
                          "duration" : 111,
                          "mediaStart" : 0,
                          "mediaDuration" : 10411,
                          "scalar" : 1,
                          "metadata" : {
                            "AutoAppliedSmartFocus" : "False",
                            "clipSpeedAttribute" : false
                          }
                        },
                        {
                          "id" : 1574,
                          "_type" : "UnifiedMedia",
                          "video" : 
                              {
                                "id" : 1575,
                                "_type" : "ScreenVMFile",
                                "src" : 1,
                                "trackNumber" : 0,
                                "attributes" : {
                                  "ident" : "Rec 01-28-21_001"
                                },
                                "parameters" : {
                                  "cursorScale" : {
                                    "type" : "double",
                                    "defaultValue" : 0.0,
                                    "interp" : "linr"
                                  },
                                  "cursorOpacity" : {
                                    "type" : "double",
                                    "defaultValue" : 0.0,
                                    "interp" : "linr"
                                  }
                                },
                                "effects" : [

                                ],
                                "start" : 6054,
                                "duration" : 110,
                                "mediaStart" : 9589,
                                "mediaDuration" : 110,
                                "scalar" : 1,
                                "animationTracks" : {

                                }
                              },
                          "audio" : 
                              {
                                "id" : 1576,
                                "_type" : "AMFile",
                                "src" : 1,
                                "trackNumber" : 1,
                                "attributes" : {
                                  "ident" : "",
                                  "gain" : 1.0,
                                  "mixToMono" : false
                                },
                                  "channelNumber" : "0,1",
                                "effects" : [

                                ],
                                "start" : 6054,
                                "duration" : 110,
                                "mediaStart" : 9589,
                                "mediaDuration" : 110,
                                "scalar" : 1,
                                "animationTracks" : {

                                }
                              }
,
                          "start" : 6054,
                          "duration" : 110,
                          "mediaStart" : 0,
                          "mediaDuration" : 10411,
                          "scalar" : 1,
                          "metadata" : {
                            "AutoAppliedSmartFocus" : "False",
                            "clipSpeedAttribute" : false
                          }
                        },
                        {
                          "id" : 1577,
                          "_type" : "UnifiedMedia",
                          "video" : 
                              {
                                "id" : 1578,
                                "_type" : "ScreenVMFile",
                                "src" : 1,
                                "trackNumber" : 0,
                                "attributes" : {
                                  "ident" : "Rec 01-28-21_001"
                                },
                                "parameters" : {
                                  "cursorScale" : {
                                    "type" : "double",
                                    "defaultValue" : 0.0,
                                    "interp" : "linr"
                                  },
                                  "cursorOpacity" : {
                                    "type" : "double",
                                    "defaultValue" : 0.0,
                                    "interp" : "linr"
                                  }
                                },
                                "effects" : [

                                ],
                                "start" : 6164,
                                "duration" : 126,
                                "mediaStart" : 9757,
                                "mediaDuration" : 126,
                                "scalar" : 1,
                                "animationTracks" : {

                                }
                              },
                          "audio" : 
                              {
                                "id" : 1579,
                                "_type" : "AMFile",
                                "src" : 1,
                                "trackNumber" : 1,
                                "attributes" : {
                                  "ident" : "",
                                  "gain" : 1.0,
                                  "mixToMono" : false
                                },
                                  "channelNumber" : "0,1",
                                "effects" : [

                                ],
                                "start" : 6164,
                                "duration" : 126,
                                "mediaStart" : 9757,
                                "mediaDuration" : 126,
                                "scalar" : 1,
                                "animationTracks" : {

                                }
                              }
,
                          "start" : 6164,
                          "duration" : 126,
                          "mediaStart" : 0,
                          "mediaDuration" : 10411,
                          "scalar" : 1,
                          "metadata" : {
                            "AutoAppliedSmartFocus" : "False",
                            "clipSpeedAttribute" : false
                          }
                        },
                        {
                          "id" : 1580,
                          "_type" : "UnifiedMedia",
                          "video" : 
                              {
                                "id" : 1581,
                                "_type" : "ScreenVMFile",
                                "src" : 1,
                                "trackNumber" : 0,
                                "attributes" : {
                                  "ident" : "Rec 01-28-21_001"
                                },
                                "parameters" : {
                                  "cursorScale" : {
                                    "type" : "double",
                                    "defaultValue" : 0.0,
                                    "interp" : "linr"
                                  },
                                  "cursorOpacity" : {
                                    "type" : "double",
                                    "defaultValue" : 0.0,
                                    "interp" : "linr"
                                  }
                                },
                                "effects" : [

                                ],
                                "start" : 6290,
                                "duration" : 52,
                                "mediaStart" : 9907,
                                "mediaDuration" : 52,
                                "scalar" : 1,
                                "animationTracks" : {

                                }
                              },
                          "audio" : 
                              {
                                "id" : 1582,
                                "_type" : "AMFile",
                                "src" : 1,
                                "trackNumber" : 1,
                                "attributes" : {
                                  "ident" : "",
                                  "gain" : 1.0,
                                  "mixToMono" : false
                                },
                                  "channelNumber" : "0,1",
                                "effects" : [

                                ],
                                "start" : 6290,
                                "duration" : 52,
                                "mediaStart" : 9907,
                                "mediaDuration" : 52,
                                "scalar" : 1,
                                "animationTracks" : {

                                }
                              }
,
                          "start" : 6290,
                          "duration" : 52,
                          "mediaStart" : 0,
                          "mediaDuration" : 10411,
                          "scalar" : 1,
                          "metadata" : {
                            "AutoAppliedSmartFocus" : "False",
                            "clipSpeedAttribute" : false
                          }
                        },
                        {
                          "id" : 1583,
                          "_type" : "UnifiedMedia",
                          "video" : 
                              {
                                "id" : 1584,
                                "_type" : "ScreenVMFile",
                                "src" : 1,
                                "trackNumber" : 0,
                                "attributes" : {
                                  "ident" : "Rec 01-28-21_001"
                                },
                                "parameters" : {
                                  "cursorScale" : {
                                    "type" : "double",
                                    "defaultValue" : 0.0,
                                    "interp" : "linr"
                                  },
                                  "cursorOpacity" : {
                                    "type" : "double",
                                    "defaultValue" : 0.0,
                                    "interp" : "linr"
                                  }
                                },
                                "effects" : [

                                ],
                                "start" : 6342,
                                "duration" : 372,
                                "mediaStart" : 10039,
                                "mediaDuration" : 372,
                                "scalar" : 1,
                                "animationTracks" : {

                                }
                              },
                          "audio" : 
                              {
                                "id" : 1585,
                                "_type" : "AMFile",
                                "src" : 1,
                                "trackNumber" : 1,
                                "attributes" : {
                                  "ident" : "",
                                  "gain" : 1.0,
                                  "mixToMono" : false
                                },
                                  "channelNumber" : "0,1",
                                "effects" : [

                                ],
                                "start" : 6342,
                                "duration" : 372,
                                "mediaStart" : 10039,
                                "mediaDuration" : 372,
                                "scalar" : 1,
                                "animationTracks" : {

                                }
                              }
,
                          "start" : 6342,
                          "duration" : 372,
                          "mediaStart" : 0,
                          "mediaDuration" : 10411,
                          "scalar" : 1,
                          "metadata" : {
                            "AutoAppliedSmartFocus" : "False",
                            "clipSpeedAttribute" : false
                          }
                        }
                    ],
                    "effects" : [

                    ],
                    "start" : 5323,
                    "duration" : 512,
                    "mediaStart" : 5832,
                    "mediaDuration" : 512,
                    "scalar" : 1,
                    "metadata" : {
                      "AutoAppliedSmartFocus" : "False",
                      "clipSpeedAttribute" : false
                    },
                    "animationTracks" : {

                    }
                  },
                  {
                    "id" : 1586,
                    "_type" : "UnifiedMedia",
                    "video" : 
                        {
                          "id" : 1587,
                          "_type" : "ScreenVMFile",
                          "src" : 2,
                          "trackNumber" : 0,
                          "attributes" : {
                            "ident" : "Rec 01-28-21_002"
                          },
                          "parameters" : {
                            "cursorScale" : {
                              "type" : "double",
                              "defaultValue" : 1.0,
                              "interp" : "linr"
                            },
                            "cursorOpacity" : {
                              "type" : "double",
                              "defaultValue" : 1.0,
                              "interp" : "linr"
                            }
                          },
                          "effects" : [

                          ],
                          "start" : 5835,
                          "duration" : 125,
                          "mediaStart" : 164,
                          "mediaDuration" : 125,
                          "scalar" : 1,
                          "animationTracks" : {

                          }
                        },
                    "audio" : 
                        {
                          "id" : 1588,
                          "_type" : "AMFile",
                          "src" : 2,
                          "trackNumber" : 1,
                          "attributes" : {
                            "ident" : "",
                            "gain" : 1.0,
                            "mixToMono" : false
                          },
                            "channelNumber" : "0,1",
                          "effects" : [

                          ],
                          "start" : 5835,
                          "duration" : 125,
                          "mediaStart" : 164,
                          "mediaDuration" : 125,
                          "scalar" : 1,
                          "animationTracks" : {

                          }
                        }
,
                    "start" : 5835,
                    "duration" : 125,
                    "mediaStart" : 0,
                    "mediaDuration" : 12151,
                    "scalar" : 1,
                    "metadata" : {
                      "AutoAppliedSmartFocus" : "False",
                      "clipSpeedAttribute" : false
                    }
                  },
                  {
                    "id" : 1589,
                    "_type" : "Group",
                    "parameters" : {
                      "volume" : 1.0
                    },
                    "tracks" : [
                      {
                        "trackIndex" : 0,
                        "medias" : [
                          {
                            "id" : 1590,
                            "_type" : "UnifiedMedia",
                            "video" : 
                                {
                                  "id" : 1591,
                                  "_type" : "ScreenVMFile",
                                  "src" : 2,
                                  "trackNumber" : 0,
                                  "attributes" : {
                                    "ident" : "Rec 01-28-21_002"
                                  },
                                  "parameters" : {
                                    "cursorScale" : {
                                      "type" : "double",
                                      "defaultValue" : 1.0,
                                      "interp" : "linr"
                                    },
                                    "cursorOpacity" : {
                                      "type" : "double",
                                      "defaultValue" : 1.0,
                                      "interp" : "linr"
                                    }
                                  },
                                  "effects" : [

                                  ],
                                  "start" : 0,
                                  "duration" : 183,
                                  "mediaStart" : 289,
                                  "mediaDuration" : 183,
                                  "scalar" : 1,
                                  "animationTracks" : {

                                  }
                                },
                            "audio" : 
                                {
                                  "id" : 1592,
                                  "_type" : "AMFile",
                                  "src" : 2,
                                  "trackNumber" : 1,
                                  "attributes" : {
                                    "ident" : "",
                                    "gain" : 1.0,
                                    "mixToMono" : false
                                  },
                                    "channelNumber" : "0,1",
                                  "effects" : [

                                  ],
                                  "start" : 0,
                                  "duration" : 183,
                                  "mediaStart" : 289,
                                  "mediaDuration" : 183,
                                  "scalar" : 1,
                                  "animationTracks" : {

                                  }
                                }
,
                            "start" : 0,
                            "duration" : 183,
                            "mediaStart" : 0,
                            "mediaDuration" : 12151,
                            "scalar" : 1,
                            "metadata" : {
                              "AutoAppliedSmartFocus" : "False",
                              "clipSpeedAttribute" : false
                            }
                          }
                        ],
                          "ident" : "",
                          "audioMuted" : false,
                          "videoHidden" : false,
                          "magnetic" : false,
                          "matte" : 0,
                          "metadata" : {
                            "IsLocked" : "False",
                            "WinTrackHeight" : "0"
                          }
                      },
                      {
                        "trackIndex" : 1,
                        "medias" : [
                          {
                            "id" : 1593,
                            "_type" : "AMFile",
                            "src" : 15,
                            "trackNumber" : 0,
                            "attributes" : {
                              "ident" : "Narration_3-3 Kubernetes-Deployment 12",
                              "gain" : 1.0,
                              "mixToMono" : false
                            },
                              "channelNumber" : "0,1",
                            "effects" : [

                            ],
                            "start" : 0,
                            "duration" : 183,
                            "mediaStart" : 0,
                            "mediaDuration" : 183,
                            "scalar" : 1,
                            "metadata" : {
                              "clipSpeedAttribute" : false
                            },
                            "animationTracks" : {

                            }
                          }
                        ],
                          "ident" : "",
                          "audioMuted" : false,
                          "videoHidden" : false,
                          "magnetic" : false,
                          "matte" : 0,
                          "metadata" : {
                            "IsLocked" : "False",
                            "WinTrackHeight" : "2.67715386813052e-313"
                          }
                      }
                    ],
                    "attributes" : {
                      "ident" : "Group 7",
                      "gain" : 1.0,
                      "mixToMono" : false
                    },
                    "effects" : [

                    ],
                    "start" : 5960,
                    "duration" : 183,
                    "mediaStart" : 0.0,
                    "mediaDuration" : 183.0,
                    "scalar" : 1,
                    "metadata" : {
                      "IsGroupExpanded" : "False"
                    },
                    "animationTracks" : {

                    }
                  },
                  {
                    "id" : 1594,
                    "_type" : "Group",
                    "parameters" : {
                      "volume" : 1.0
                    },
                    "tracks" : [
                      {
                        "trackIndex" : 0,
                        "medias" : [
                          {
                            "id" : 1595,
                            "_type" : "UnifiedMedia",
                            "video" : 
                                {
                                  "id" : 1596,
                                  "_type" : "ScreenVMFile",
                                  "src" : 2,
                                  "trackNumber" : 0,
                                  "attributes" : {
                                    "ident" : "Rec 01-28-21_002"
                                  },
                                  "parameters" : {
                                    "cursorScale" : {
                                      "type" : "double",
                                      "defaultValue" : 1.0,
                                      "interp" : "linr"
                                    },
                                    "cursorOpacity" : {
                                      "type" : "double",
                                      "defaultValue" : 1.0,
                                      "interp" : "linr"
                                    }
                                  },
                                  "effects" : [

                                  ],
                                  "start" : 2,
                                  "duration" : 187,
                                  "mediaStart" : 472,
                                  "mediaDuration" : 187,
                                  "scalar" : 1,
                                  "animationTracks" : {

                                  }
                                },
                            "audio" : 
                                {
                                  "id" : 1597,
                                  "_type" : "AMFile",
                                  "src" : 2,
                                  "trackNumber" : 1,
                                  "attributes" : {
                                    "ident" : "",
                                    "gain" : 1.0,
                                    "mixToMono" : false
                                  },
                                    "channelNumber" : "0,1",
                                  "effects" : [

                                  ],
                                  "start" : 2,
                                  "duration" : 187,
                                  "mediaStart" : 472,
                                  "mediaDuration" : 187,
                                  "scalar" : 1,
                                  "animationTracks" : {

                                  }
                                }
,
                            "start" : 2,
                            "duration" : 187,
                            "mediaStart" : 0,
                            "mediaDuration" : 12151,
                            "scalar" : 1,
                            "metadata" : {
                              "AutoAppliedSmartFocus" : "False",
                              "clipSpeedAttribute" : false
                            }
                          }
                        ],
                          "ident" : "",
                          "audioMuted" : false,
                          "videoHidden" : false,
                          "magnetic" : false,
                          "matte" : 0,
                          "metadata" : {
                            "IsLocked" : "False",
                            "WinTrackHeight" : "0"
                          }
                      },
                      {
                        "trackIndex" : 1,
                        "medias" : [
                          {
                            "id" : 1598,
                            "_type" : "AMFile",
                            "src" : 16,
                            "trackNumber" : 0,
                            "attributes" : {
                              "ident" : "Narration_3-3 Kubernetes-Deployment 13",
                              "gain" : 1.0,
                              "mixToMono" : false
                            },
                              "channelNumber" : "0,1",
                            "effects" : [

                            ],
                            "start" : 0,
                            "duration" : 189,
                            "mediaStart" : 0,
                            "mediaDuration" : 189,
                            "scalar" : 1,
                            "metadata" : {
                              "clipSpeedAttribute" : false
                            },
                            "animationTracks" : {

                            }
                          }
                        ],
                          "ident" : "",
                          "audioMuted" : false,
                          "videoHidden" : false,
                          "magnetic" : false,
                          "matte" : 0,
                          "metadata" : {
                            "IsLocked" : "False",
                            "WinTrackHeight" : "2.67715385390143e-313"
                          }
                      }
                    ],
                    "attributes" : {
                      "ident" : "Group 8",
                      "gain" : 1.0,
                      "mixToMono" : false
                    },
                    "effects" : [

                    ],
                    "start" : 6143,
                    "duration" : 189,
                    "mediaStart" : 0.0,
                    "mediaDuration" : 189.0,
                    "scalar" : 1,
                    "metadata" : {
                      "IsGroupExpanded" : "False"
                    },
                    "animationTracks" : {

                    }
                  },
                  {
                    "id" : 1599,
                    "_type" : "UnifiedMedia",
                    "video" : 
                        {
                          "id" : 1600,
                          "_type" : "ScreenVMFile",
                          "src" : 2,
                          "trackNumber" : 0,
                          "attributes" : {
                            "ident" : "Rec 01-28-21_002"
                          },
                          "parameters" : {
                            "cursorScale" : {
                              "type" : "double",
                              "defaultValue" : 1.0,
                              "interp" : "linr"
                            },
                            "cursorOpacity" : {
                              "type" : "double",
                              "defaultValue" : 1.0,
                              "interp" : "linr"
                            }
                          },
                          "effects" : [

                          ],
                          "start" : 6332,
                          "duration" : 277,
                          "mediaStart" : 659,
                          "mediaDuration" : 832,
                          "scalar" : "277/832",
                          "animationTracks" : {

                          }
                        },
                    "audio" : 
                        {
                          "id" : 1601,
                          "_type" : "AMFile",
                          "src" : 2,
                          "trackNumber" : 1,
                          "attributes" : {
                            "ident" : "",
                            "gain" : 0.3,
                            "mixToMono" : false
                          },
                            "channelNumber" : "0,1",
                          "effects" : [

                          ],
                          "start" : 6332,
                          "duration" : 277,
                          "mediaStart" : 659,
                          "mediaDuration" : 832,
                          "scalar" : "277/832",
                          "animationTracks" : {

                          }
                        }
,
                    "start" : 6332,
                    "duration" : 277,
                    "mediaStart" : 0,
                    "mediaDuration" : 12151,
                    "scalar" : "277/832",
                    "metadata" : {
                      "AutoAppliedSmartFocus" : "False",
                      "clipSpeedAttribute" : true
                    }
                  },
                  {
                    "id" : 1602,
                    "_type" : "UnifiedMedia",
                    "video" : 
                        {
                          "id" : 1603,
                          "_type" : "ScreenVMFile",
                          "src" : 2,
                          "trackNumber" : 0,
                          "attributes" : {
                            "ident" : "Rec 01-28-21_002"
                          },
                          "parameters" : {
                            "cursorScale" : {
                              "type" : "double",
                              "defaultValue" : 1.0,
                              "interp" : "linr"
                            },
                            "cursorOpacity" : {
                              "type" : "double",
                              "defaultValue" : 1.0,
                              "interp" : "linr"
                            }
                          },
                          "effects" : [

                          ],
                          "start" : 6609,
                          "duration" : 65,
                          "mediaStart" : 1491,
                          "mediaDuration" : 65,
                          "scalar" : 1,
                          "animationTracks" : {

                          }
                        },
                    "audio" : 
                        {
                          "id" : 1604,
                          "_type" : "AMFile",
                          "src" : 2,
                          "trackNumber" : 1,
                          "attributes" : {
                            "ident" : "",
                            "gain" : 1.0,
                            "mixToMono" : false
                          },
                            "channelNumber" : "0,1",
                          "effects" : [

                          ],
                          "start" : 6609,
                          "duration" : 65,
                          "mediaStart" : 1491,
                          "mediaDuration" : 65,
                          "scalar" : 1,
                          "animationTracks" : {

                          }
                        }
,
                    "start" : 6609,
                    "duration" : 65,
                    "mediaStart" : 0,
                    "mediaDuration" : 12151,
                    "scalar" : 1,
                    "metadata" : {
                      "AutoAppliedSmartFocus" : "False",
                      "clipSpeedAttribute" : false
                    }
                  },
                  {
                    "id" : 1605,
                    "_type" : "UnifiedMedia",
                    "video" : 
                        {
                          "id" : 1606,
                          "_type" : "ScreenVMFile",
                          "src" : 2,
                          "trackNumber" : 0,
                          "attributes" : {
                            "ident" : "Rec 01-28-21_002"
                          },
                          "parameters" : {
                            "cursorScale" : {
                              "type" : "double",
                              "defaultValue" : 1.0,
                              "interp" : "linr"
                            },
                            "cursorOpacity" : {
                              "type" : "double",
                              "defaultValue" : 1.0,
                              "interp" : "linr"
                            }
                          },
                          "effects" : [

                          ],
                          "start" : 6674,
                          "duration" : 195,
                          "mediaStart" : 1556,
                          "mediaDuration" : 585,
                          "scalar" : "1/3",
                          "animationTracks" : {

                          }
                        },
                    "audio" : 
                        {
                          "id" : 1607,
                          "_type" : "AMFile",
                          "src" : 2,
                          "trackNumber" : 1,
                          "attributes" : {
                            "ident" : "",
                            "gain" : 0.3,
                            "mixToMono" : false
                          },
                            "channelNumber" : "0,1",
                          "effects" : [

                          ],
                          "start" : 6674,
                          "duration" : 195,
                          "mediaStart" : 1556,
                          "mediaDuration" : 585,
                          "scalar" : "1/3",
                          "animationTracks" : {

                          }
                        }
,
                    "start" : 6674,
                    "duration" : 195,
                    "mediaStart" : 0,
                    "mediaDuration" : 12151,
                    "scalar" : "1/3",
                    "metadata" : {
                      "AutoAppliedSmartFocus" : "False",
                      "clipSpeedAttribute" : true
                    }
                  },
                  {
                    "id" : 1608,
                    "_type" : "Group",
                    "parameters" : {
                      "volume" : 1.0
                    },
                    "tracks" : [
                      {
                        "trackIndex" : 0,
                        "medias" : [
                          {
                            "id" : 1609,
                            "_type" : "UnifiedMedia",
                            "video" : 
                                {
                                  "id" : 1610,
                                  "_type" : "ScreenVMFile",
                                  "src" : 2,
                                  "trackNumber" : 0,
                                  "attributes" : {
                                    "ident" : "Rec 01-28-21_002"
                                  },
                                  "parameters" : {
                                    "cursorScale" : {
                                      "type" : "double",
                                      "defaultValue" : 1.0,
                                      "interp" : "linr"
                                    },
                                    "cursorOpacity" : {
                                      "type" : "double",
                                      "defaultValue" : 1.0,
                                      "interp" : "linr"
                                    }
                                  },
                                  "effects" : [

                                  ],
                                  "start" : 0,
                                  "duration" : 360,
                                  "mediaStart" : 2684,
                                  "mediaDuration" : 360,
                                  "scalar" : 1,
                                  "animationTracks" : {

                                  }
                                },
                            "audio" : 
                                {
                                  "id" : 1611,
                                  "_type" : "AMFile",
                                  "src" : 2,
                                  "trackNumber" : 1,
                                  "attributes" : {
                                    "ident" : "",
                                    "gain" : 1.0,
                                    "mixToMono" : false
                                  },
                                    "channelNumber" : "0,1",
                                  "effects" : [

                                  ],
                                  "start" : 0,
                                  "duration" : 360,
                                  "mediaStart" : 2684,
                                  "mediaDuration" : 360,
                                  "scalar" : 1,
                                  "animationTracks" : {

                                  }
                                }
,
                            "start" : 0,
                            "duration" : 360,
                            "mediaStart" : 0,
                            "mediaDuration" : 12151,
                            "scalar" : 1,
                            "metadata" : {
                              "AutoAppliedSmartFocus" : "False",
                              "clipSpeedAttribute" : false
                            }
                          }
                        ],
                          "ident" : "",
                          "audioMuted" : false,
                          "videoHidden" : false,
                          "magnetic" : false,
                          "matte" : 0,
                          "metadata" : {
                            "IsLocked" : "False",
                            "WinTrackHeight" : "0"
                          }
                      },
                      {
                        "trackIndex" : 1,
                        "medias" : [
                          {
                            "id" : 1612,
                            "_type" : "StitchedMedia",
                            "minMediaStart" : 0,
                            "attributes" : {
                              "ident" : "Narration_3-3 Kubernetes-Deployment 15",
                              "gain" : 1.0,
                              "mixToMono" : false
                            },
                            "parameters" : {
                              "volume" : 1.0,
                              "cursorOpacity" : 1.0,
                              "cursorScale" : 1.0
                            },
                            "medias" : [
                                {
                                  "id" : 1613,
                                  "_type" : "AMFile",
                                  "src" : 18,
                                  "trackNumber" : 0,
                                  "attributes" : {
                                    "ident" : "Narration_3-3 Kubernetes-Deployment 15",
                                    "gain" : 1.0,
                                    "mixToMono" : false
                                  },
                                    "channelNumber" : "0,1",
                                  "effects" : [

                                  ],
                                  "start" : 0,
                                  "duration" : 109,
                                  "mediaStart" : 0,
                                  "mediaDuration" : 109,
                                  "scalar" : 1,
                                  "metadata" : {
                                    "clipSpeedAttribute" : false
                                  },
                                  "animationTracks" : {

                                  }
                                },
                                {
                                  "id" : 1614,
                                  "_type" : "AMFile",
                                  "src" : 18,
                                  "trackNumber" : 0,
                                  "attributes" : {
                                    "ident" : "Narration_3-3 Kubernetes-Deployment 15",
                                    "gain" : 1.0,
                                    "mixToMono" : false
                                  },
                                    "channelNumber" : "0,1",
                                  "effects" : [

                                  ],
                                  "start" : 109,
                                  "duration" : 228,
                                  "mediaStart" : 147,
                                  "mediaDuration" : 228,
                                  "scalar" : 1,
                                  "metadata" : {
                                    "clipSpeedAttribute" : false
                                  },
                                  "animationTracks" : {

                                  }
                                }
                            ],
                            "effects" : [

                            ],
                            "start" : 0,
                            "duration" : 278,
                            "mediaStart" : 30,
                            "mediaDuration" : 278,
                            "scalar" : 1,
                            "metadata" : {
                              "clipSpeedAttribute" : false
                            },
                            "animationTracks" : {

                            }
                          }
                        ],
                          "ident" : "",
                          "audioMuted" : false,
                          "videoHidden" : false,
                          "magnetic" : false,
                          "matte" : 0,
                          "metadata" : {
                            "IsLocked" : "False",
                            "WinTrackHeight" : "2.73433862525092e-312"
                          }
                      }
                    ],
                    "attributes" : {
                      "ident" : "Group 1",
                      "gain" : 1.0,
                      "mixToMono" : false
                    },
                    "effects" : [

                    ],
                    "start" : 6869,
                    "duration" : 360,
                    "mediaStart" : 0.0,
                    "mediaDuration" : 360.0,
                    "scalar" : 1,
                    "metadata" : {
                      "IsGroupExpanded" : "False"
                    },
                    "animationTracks" : {

                    }
                  },
                  {
                    "id" : 1615,
                    "_type" : "StitchedMedia",
                    "minMediaStart" : 0,
                    "attributes" : {
                      "ident" : "Rec 01-28-21_002",
                      "gain" : 1.0,
                      "mixToMono" : false
                    },
                    "parameters" : {
                      "volume" : 1.0,
                      "cursorOpacity" : 1.0,
                      "cursorScale" : 1.0
                    },
                    "medias" : [
                        {
                          "id" : 1616,
                          "_type" : "UnifiedMedia",
                          "video" : 
                              {
                                "id" : 1617,
                                "_type" : "ScreenVMFile",
                                "src" : 2,
                                "trackNumber" : 0,
                                "attributes" : {
                                  "ident" : "Rec 01-28-21_002"
                                },
                                "parameters" : {
                                  "cursorScale" : {
                                    "type" : "double",
                                    "defaultValue" : 0.0,
                                    "interp" : "linr"
                                  },
                                  "cursorOpacity" : {
                                    "type" : "double",
                                    "defaultValue" : 0.0,
                                    "interp" : "linr"
                                  }
                                },
                                "effects" : [

                                ],
                                "start" : 0,
                                "duration" : 3216,
                                "mediaStart" : 0,
                                "mediaDuration" : 3216,
                                "scalar" : 1,
                                "animationTracks" : {

                                }
                              },
                          "audio" : 
                              {
                                "id" : 1618,
                                "_type" : "AMFile",
                                "src" : 2,
                                "trackNumber" : 1,
                                "attributes" : {
                                  "ident" : "",
                                  "gain" : 1.0,
                                  "mixToMono" : false
                                },
                                  "channelNumber" : "0,1",
                                "effects" : [

                                ],
                                "start" : 0,
                                "duration" : 3216,
                                "mediaStart" : 0,
                                "mediaDuration" : 3216,
                                "scalar" : 1,
                                "animationTracks" : {

                                }
                              }
,
                          "start" : 0,
                          "duration" : 3216,
                          "mediaStart" : 0,
                          "mediaDuration" : 12151,
                          "scalar" : 1,
                          "metadata" : {
                            "AutoAppliedSmartFocus" : "False",
                            "clipSpeedAttribute" : false
                          }
                        },
                        {
                          "id" : 1619,
                          "_type" : "UnifiedMedia",
                          "video" : 
                              {
                                "id" : 1620,
                                "_type" : "ScreenVMFile",
                                "src" : 2,
                                "trackNumber" : 0,
                                "attributes" : {
                                  "ident" : "Rec 01-28-21_002"
                                },
                                "parameters" : {
                                  "cursorScale" : {
                                    "type" : "double",
                                    "defaultValue" : 0.0,
                                    "interp" : "linr"
                                  },
                                  "cursorOpacity" : {
                                    "type" : "double",
                                    "defaultValue" : 0.0,
                                    "interp" : "linr"
                                  }
                                },
                                "effects" : [

                                ],
                                "start" : 3216,
                                "duration" : 17,
                                "mediaStart" : 3236,
                                "mediaDuration" : 17,
                                "scalar" : 1,
                                "animationTracks" : {

                                }
                              },
                          "audio" : 
                              {
                                "id" : 1621,
                                "_type" : "AMFile",
                                "src" : 2,
                                "trackNumber" : 1,
                                "attributes" : {
                                  "ident" : "",
                                  "gain" : 1.0,
                                  "mixToMono" : false
                                },
                                  "channelNumber" : "0,1",
                                "effects" : [

                                ],
                                "start" : 3216,
                                "duration" : 17,
                                "mediaStart" : 3236,
                                "mediaDuration" : 17,
                                "scalar" : 1,
                                "animationTracks" : {

                                }
                              }
,
                          "start" : 3216,
                          "duration" : 17,
                          "mediaStart" : 0,
                          "mediaDuration" : 12151,
                          "scalar" : 1,
                          "metadata" : {
                            "AutoAppliedSmartFocus" : "False",
                            "clipSpeedAttribute" : false
                          }
                        },
                        {
                          "id" : 1622,
                          "_type" : "UnifiedMedia",
                          "video" : 
                              {
                                "id" : 1623,
                                "_type" : "ScreenVMFile",
                                "src" : 2,
                                "trackNumber" : 0,
                                "attributes" : {
                                  "ident" : "Rec 01-28-21_002"
                                },
                                "parameters" : {
                                  "cursorScale" : {
                                    "type" : "double",
                                    "defaultValue" : 0.0,
                                    "interp" : "linr"
                                  },
                                  "cursorOpacity" : {
                                    "type" : "double",
                                    "defaultValue" : 0.0,
                                    "interp" : "linr"
                                  }
                                },
                                "effects" : [

                                ],
                                "start" : 3233,
                                "duration" : 174,
                                "mediaStart" : 3261,
                                "mediaDuration" : 174,
                                "scalar" : 1,
                                "animationTracks" : {

                                }
                              },
                          "audio" : 
                              {
                                "id" : 1624,
                                "_type" : "AMFile",
                                "src" : 2,
                                "trackNumber" : 1,
                                "attributes" : {
                                  "ident" : "",
                                  "gain" : 1.0,
                                  "mixToMono" : false
                                },
                                  "channelNumber" : "0,1",
                                "effects" : [

                                ],
                                "start" : 3233,
                                "duration" : 174,
                                "mediaStart" : 3261,
                                "mediaDuration" : 174,
                                "scalar" : 1,
                                "animationTracks" : {

                                }
                              }
,
                          "start" : 3233,
                          "duration" : 174,
                          "mediaStart" : 0,
                          "mediaDuration" : 12151,
                          "scalar" : 1,
                          "metadata" : {
                            "AutoAppliedSmartFocus" : "False",
                            "clipSpeedAttribute" : false
                          }
                        },
                        {
                          "id" : 1625,
                          "_type" : "UnifiedMedia",
                          "video" : 
                              {
                                "id" : 1626,
                                "_type" : "ScreenVMFile",
                                "src" : 2,
                                "trackNumber" : 0,
                                "attributes" : {
                                  "ident" : "Rec 01-28-21_002"
                                },
                                "parameters" : {
                                  "cursorScale" : {
                                    "type" : "double",
                                    "defaultValue" : 0.0,
                                    "interp" : "linr"
                                  },
                                  "cursorOpacity" : {
                                    "type" : "double",
                                    "defaultValue" : 0.0,
                                    "interp" : "linr"
                                  }
                                },
                                "effects" : [

                                ],
                                "start" : 3407,
                                "duration" : 124,
                                "mediaStart" : 3510,
                                "mediaDuration" : 124,
                                "scalar" : 1,
                                "animationTracks" : {

                                }
                              },
                          "audio" : 
                              {
                                "id" : 1627,
                                "_type" : "AMFile",
                                "src" : 2,
                                "trackNumber" : 1,
                                "attributes" : {
                                  "ident" : "",
                                  "gain" : 1.0,
                                  "mixToMono" : false
                                },
                                  "channelNumber" : "0,1",
                                "effects" : [

                                ],
                                "start" : 3407,
                                "duration" : 124,
                                "mediaStart" : 3510,
                                "mediaDuration" : 124,
                                "scalar" : 1,
                                "animationTracks" : {

                                }
                              }
,
                          "start" : 3407,
                          "duration" : 124,
                          "mediaStart" : 0,
                          "mediaDuration" : 12151,
                          "scalar" : 1,
                          "metadata" : {
                            "AutoAppliedSmartFocus" : "False",
                            "clipSpeedAttribute" : false
                          }
                        },
                        {
                          "id" : 1628,
                          "_type" : "UnifiedMedia",
                          "video" : 
                              {
                                "id" : 1629,
                                "_type" : "ScreenVMFile",
                                "src" : 2,
                                "trackNumber" : 0,
                                "attributes" : {
                                  "ident" : "Rec 01-28-21_002"
                                },
                                "parameters" : {
                                  "cursorScale" : {
                                    "type" : "double",
                                    "defaultValue" : 0.0,
                                    "interp" : "linr"
                                  },
                                  "cursorOpacity" : {
                                    "type" : "double",
                                    "defaultValue" : 0.0,
                                    "interp" : "linr"
                                  }
                                },
                                "effects" : [

                                ],
                                "start" : 3531,
                                "duration" : 16,
                                "mediaStart" : 3664,
                                "mediaDuration" : 16,
                                "scalar" : 1,
                                "animationTracks" : {

                                }
                              },
                          "audio" : 
                              {
                                "id" : 1630,
                                "_type" : "AMFile",
                                "src" : 2,
                                "trackNumber" : 1,
                                "attributes" : {
                                  "ident" : "",
                                  "gain" : 1.0,
                                  "mixToMono" : false
                                },
                                  "channelNumber" : "0,1",
                                "effects" : [

                                ],
                                "start" : 3531,
                                "duration" : 16,
                                "mediaStart" : 3664,
                                "mediaDuration" : 16,
                                "scalar" : 1,
                                "animationTracks" : {

                                }
                              }
,
                          "start" : 3531,
                          "duration" : 16,
                          "mediaStart" : 0,
                          "mediaDuration" : 12151,
                          "scalar" : 1,
                          "metadata" : {
                            "AutoAppliedSmartFocus" : "False",
                            "clipSpeedAttribute" : false
                          }
                        },
                        {
                          "id" : 1631,
                          "_type" : "UnifiedMedia",
                          "video" : 
                              {
                                "id" : 1632,
                                "_type" : "ScreenVMFile",
                                "src" : 2,
                                "trackNumber" : 0,
                                "attributes" : {
                                  "ident" : "Rec 01-28-21_002"
                                },
                                "parameters" : {
                                  "cursorScale" : {
                                    "type" : "double",
                                    "defaultValue" : 0.0,
                                    "interp" : "linr"
                                  },
                                  "cursorOpacity" : {
                                    "type" : "double",
                                    "defaultValue" : 0.0,
                                    "interp" : "linr"
                                  }
                                },
                                "effects" : [

                                ],
                                "start" : 3547,
                                "duration" : 8464,
                                "mediaStart" : 3687,
                                "mediaDuration" : 8464,
                                "scalar" : 1,
                                "animationTracks" : {

                                }
                              },
                          "audio" : 
                              {
                                "id" : 1633,
                                "_type" : "AMFile",
                                "src" : 2,
                                "trackNumber" : 1,
                                "attributes" : {
                                  "ident" : "",
                                  "gain" : 1.0,
                                  "mixToMono" : false
                                },
                                  "channelNumber" : "0,1",
                                "effects" : [

                                ],
                                "start" : 3547,
                                "duration" : 8464,
                                "mediaStart" : 3687,
                                "mediaDuration" : 8464,
                                "scalar" : 1,
                                "animationTracks" : {

                                }
                              }
,
                          "start" : 3547,
                          "duration" : 8464,
                          "mediaStart" : 0,
                          "mediaDuration" : 12151,
                          "scalar" : 1,
                          "metadata" : {
                            "AutoAppliedSmartFocus" : "False",
                            "clipSpeedAttribute" : false
                          }
                        }
                    ],
                    "effects" : [

                    ],
                    "start" : 7229,
                    "duration" : 252,
                    "mediaStart" : 3710,
                    "mediaDuration" : 252,
                    "scalar" : 1,
                    "metadata" : {
                      "AutoAppliedSmartFocus" : "False",
                      "clipSpeedAttribute" : false
                    },
                    "animationTracks" : {

                    }
                  },
                  {
                    "id" : 1634,
                    "_type" : "StitchedMedia",
                    "minMediaStart" : 0,
                    "attributes" : {
                      "ident" : "Rec 01-28-21_002",
                      "gain" : 1.0,
                      "mixToMono" : false
                    },
                    "parameters" : {
                      "volume" : 1.0,
                      "cursorOpacity" : 1.0,
                      "cursorScale" : 1.0
                    },
                    "medias" : [
                        {
                          "id" : 1635,
                          "_type" : "UnifiedMedia",
                          "video" : 
                              {
                                "id" : 1636,
                                "_type" : "ScreenVMFile",
                                "src" : 2,
                                "trackNumber" : 0,
                                "attributes" : {
                                  "ident" : "Rec 01-28-21_002"
                                },
                                "parameters" : {
                                  "cursorScale" : {
                                    "type" : "double",
                                    "defaultValue" : 0.0,
                                    "interp" : "linr"
                                  },
                                  "cursorOpacity" : {
                                    "type" : "double",
                                    "defaultValue" : 0.0,
                                    "interp" : "linr"
                                  }
                                },
                                "effects" : [

                                ],
                                "start" : 0,
                                "duration" : 3216,
                                "mediaStart" : 0,
                                "mediaDuration" : 3216,
                                "scalar" : 1,
                                "animationTracks" : {

                                }
                              },
                          "audio" : 
                              {
                                "id" : 1637,
                                "_type" : "AMFile",
                                "src" : 2,
                                "trackNumber" : 1,
                                "attributes" : {
                                  "ident" : "",
                                  "gain" : 1.0,
                                  "mixToMono" : false
                                },
                                  "channelNumber" : "0,1",
                                "effects" : [

                                ],
                                "start" : 0,
                                "duration" : 3216,
                                "mediaStart" : 0,
                                "mediaDuration" : 3216,
                                "scalar" : 1,
                                "animationTracks" : {

                                }
                              }
,
                          "start" : 0,
                          "duration" : 3216,
                          "mediaStart" : 0,
                          "mediaDuration" : 12151,
                          "scalar" : 1,
                          "metadata" : {
                            "AutoAppliedSmartFocus" : "False",
                            "clipSpeedAttribute" : false
                          }
                        },
                        {
                          "id" : 1638,
                          "_type" : "UnifiedMedia",
                          "video" : 
                              {
                                "id" : 1639,
                                "_type" : "ScreenVMFile",
                                "src" : 2,
                                "trackNumber" : 0,
                                "attributes" : {
                                  "ident" : "Rec 01-28-21_002"
                                },
                                "parameters" : {
                                  "cursorScale" : {
                                    "type" : "double",
                                    "defaultValue" : 0.0,
                                    "interp" : "linr"
                                  },
                                  "cursorOpacity" : {
                                    "type" : "double",
                                    "defaultValue" : 0.0,
                                    "interp" : "linr"
                                  }
                                },
                                "effects" : [

                                ],
                                "start" : 3216,
                                "duration" : 17,
                                "mediaStart" : 3236,
                                "mediaDuration" : 17,
                                "scalar" : 1,
                                "animationTracks" : {

                                }
                              },
                          "audio" : 
                              {
                                "id" : 1640,
                                "_type" : "AMFile",
                                "src" : 2,
                                "trackNumber" : 1,
                                "attributes" : {
                                  "ident" : "",
                                  "gain" : 1.0,
                                  "mixToMono" : false
                                },
                                  "channelNumber" : "0,1",
                                "effects" : [

                                ],
                                "start" : 3216,
                                "duration" : 17,
                                "mediaStart" : 3236,
                                "mediaDuration" : 17,
                                "scalar" : 1,
                                "animationTracks" : {

                                }
                              }
,
                          "start" : 3216,
                          "duration" : 17,
                          "mediaStart" : 0,
                          "mediaDuration" : 12151,
                          "scalar" : 1,
                          "metadata" : {
                            "AutoAppliedSmartFocus" : "False",
                            "clipSpeedAttribute" : false
                          }
                        },
                        {
                          "id" : 1641,
                          "_type" : "UnifiedMedia",
                          "video" : 
                              {
                                "id" : 1642,
                                "_type" : "ScreenVMFile",
                                "src" : 2,
                                "trackNumber" : 0,
                                "attributes" : {
                                  "ident" : "Rec 01-28-21_002"
                                },
                                "parameters" : {
                                  "cursorScale" : {
                                    "type" : "double",
                                    "defaultValue" : 0.0,
                                    "interp" : "linr"
                                  },
                                  "cursorOpacity" : {
                                    "type" : "double",
                                    "defaultValue" : 0.0,
                                    "interp" : "linr"
                                  }
                                },
                                "effects" : [

                                ],
                                "start" : 3233,
                                "duration" : 174,
                                "mediaStart" : 3261,
                                "mediaDuration" : 174,
                                "scalar" : 1,
                                "animationTracks" : {

                                }
                              },
                          "audio" : 
                              {
                                "id" : 1643,
                                "_type" : "AMFile",
                                "src" : 2,
                                "trackNumber" : 1,
                                "attributes" : {
                                  "ident" : "",
                                  "gain" : 1.0,
                                  "mixToMono" : false
                                },
                                  "channelNumber" : "0,1",
                                "effects" : [

                                ],
                                "start" : 3233,
                                "duration" : 174,
                                "mediaStart" : 3261,
                                "mediaDuration" : 174,
                                "scalar" : 1,
                                "animationTracks" : {

                                }
                              }
,
                          "start" : 3233,
                          "duration" : 174,
                          "mediaStart" : 0,
                          "mediaDuration" : 12151,
                          "scalar" : 1,
                          "metadata" : {
                            "AutoAppliedSmartFocus" : "False",
                            "clipSpeedAttribute" : false
                          }
                        },
                        {
                          "id" : 1644,
                          "_type" : "UnifiedMedia",
                          "video" : 
                              {
                                "id" : 1645,
                                "_type" : "ScreenVMFile",
                                "src" : 2,
                                "trackNumber" : 0,
                                "attributes" : {
                                  "ident" : "Rec 01-28-21_002"
                                },
                                "parameters" : {
                                  "cursorScale" : {
                                    "type" : "double",
                                    "defaultValue" : 0.0,
                                    "interp" : "linr"
                                  },
                                  "cursorOpacity" : {
                                    "type" : "double",
                                    "defaultValue" : 0.0,
                                    "interp" : "linr"
                                  }
                                },
                                "effects" : [

                                ],
                                "start" : 3407,
                                "duration" : 124,
                                "mediaStart" : 3510,
                                "mediaDuration" : 124,
                                "scalar" : 1,
                                "animationTracks" : {

                                }
                              },
                          "audio" : 
                              {
                                "id" : 1646,
                                "_type" : "AMFile",
                                "src" : 2,
                                "trackNumber" : 1,
                                "attributes" : {
                                  "ident" : "",
                                  "gain" : 1.0,
                                  "mixToMono" : false
                                },
                                  "channelNumber" : "0,1",
                                "effects" : [

                                ],
                                "start" : 3407,
                                "duration" : 124,
                                "mediaStart" : 3510,
                                "mediaDuration" : 124,
                                "scalar" : 1,
                                "animationTracks" : {

                                }
                              }
,
                          "start" : 3407,
                          "duration" : 124,
                          "mediaStart" : 0,
                          "mediaDuration" : 12151,
                          "scalar" : 1,
                          "metadata" : {
                            "AutoAppliedSmartFocus" : "False",
                            "clipSpeedAttribute" : false
                          }
                        },
                        {
                          "id" : 1647,
                          "_type" : "UnifiedMedia",
                          "video" : 
                              {
                                "id" : 1648,
                                "_type" : "ScreenVMFile",
                                "src" : 2,
                                "trackNumber" : 0,
                                "attributes" : {
                                  "ident" : "Rec 01-28-21_002"
                                },
                                "parameters" : {
                                  "cursorScale" : {
                                    "type" : "double",
                                    "defaultValue" : 0.0,
                                    "interp" : "linr"
                                  },
                                  "cursorOpacity" : {
                                    "type" : "double",
                                    "defaultValue" : 0.0,
                                    "interp" : "linr"
                                  }
                                },
                                "effects" : [

                                ],
                                "start" : 3531,
                                "duration" : 16,
                                "mediaStart" : 3664,
                                "mediaDuration" : 16,
                                "scalar" : 1,
                                "animationTracks" : {

                                }
                              },
                          "audio" : 
                              {
                                "id" : 1649,
                                "_type" : "AMFile",
                                "src" : 2,
                                "trackNumber" : 1,
                                "attributes" : {
                                  "ident" : "",
                                  "gain" : 1.0,
                                  "mixToMono" : false
                                },
                                  "channelNumber" : "0,1",
                                "effects" : [

                                ],
                                "start" : 3531,
                                "duration" : 16,
                                "mediaStart" : 3664,
                                "mediaDuration" : 16,
                                "scalar" : 1,
                                "animationTracks" : {

                                }
                              }
,
                          "start" : 3531,
                          "duration" : 16,
                          "mediaStart" : 0,
                          "mediaDuration" : 12151,
                          "scalar" : 1,
                          "metadata" : {
                            "AutoAppliedSmartFocus" : "False",
                            "clipSpeedAttribute" : false
                          }
                        },
                        {
                          "id" : 1650,
                          "_type" : "UnifiedMedia",
                          "video" : 
                              {
                                "id" : 1651,
                                "_type" : "ScreenVMFile",
                                "src" : 2,
                                "trackNumber" : 0,
                                "attributes" : {
                                  "ident" : "Rec 01-28-21_002"
                                },
                                "parameters" : {
                                  "cursorScale" : {
                                    "type" : "double",
                                    "defaultValue" : 0.0,
                                    "interp" : "linr"
                                  },
                                  "cursorOpacity" : {
                                    "type" : "double",
                                    "defaultValue" : 0.0,
                                    "interp" : "linr"
                                  }
                                },
                                "effects" : [

                                ],
                                "start" : 3547,
                                "duration" : 8464,
                                "mediaStart" : 3687,
                                "mediaDuration" : 8464,
                                "scalar" : 1,
                                "animationTracks" : {

                                }
                              },
                          "audio" : 
                              {
                                "id" : 1652,
                                "_type" : "AMFile",
                                "src" : 2,
                                "trackNumber" : 1,
                                "attributes" : {
                                  "ident" : "",
                                  "gain" : 1.0,
                                  "mixToMono" : false
                                },
                                  "channelNumber" : "0,1",
                                "effects" : [

                                ],
                                "start" : 3547,
                                "duration" : 8464,
                                "mediaStart" : 3687,
                                "mediaDuration" : 8464,
                                "scalar" : 1,
                                "animationTracks" : {

                                }
                              }
,
                          "start" : 3547,
                          "duration" : 8464,
                          "mediaStart" : 0,
                          "mediaDuration" : 12151,
                          "scalar" : 1,
                          "metadata" : {
                            "AutoAppliedSmartFocus" : "False",
                            "clipSpeedAttribute" : false
                          }
                        }
                    ],
                    "effects" : [

                    ],
                    "start" : 7481,
                    "duration" : 357,
                    "mediaStart" : 3044,
                    "mediaDuration" : 357,
                    "scalar" : 1,
                    "metadata" : {
                      "AutoAppliedSmartFocus" : "False",
                      "clipSpeedAttribute" : false
                    },
                    "animationTracks" : {

                    }
                  },
                  {
                    "id" : 1653,
                    "_type" : "StitchedMedia",
                    "minMediaStart" : 0,
                    "attributes" : {
                      "ident" : "Rec 01-28-21_002",
                      "gain" : 1.0,
                      "mixToMono" : false
                    },
                    "parameters" : {
                      "volume" : 1.0,
                      "cursorOpacity" : 1.0,
                      "cursorScale" : 1.0
                    },
                    "medias" : [
                        {
                          "id" : 1654,
                          "_type" : "UnifiedMedia",
                          "video" : 
                              {
                                "id" : 1655,
                                "_type" : "ScreenVMFile",
                                "src" : 2,
                                "trackNumber" : 0,
                                "attributes" : {
                                  "ident" : "Rec 01-28-21_002"
                                },
                                "parameters" : {
                                  "cursorScale" : {
                                    "type" : "double",
                                    "defaultValue" : 0.0,
                                    "interp" : "linr"
                                  },
                                  "cursorOpacity" : {
                                    "type" : "double",
                                    "defaultValue" : 0.0,
                                    "interp" : "linr"
                                  }
                                },
                                "effects" : [

                                ],
                                "start" : 0,
                                "duration" : 3216,
                                "mediaStart" : 0,
                                "mediaDuration" : 3216,
                                "scalar" : 1,
                                "animationTracks" : {

                                }
                              },
                          "audio" : 
                              {
                                "id" : 1656,
                                "_type" : "AMFile",
                                "src" : 2,
                                "trackNumber" : 1,
                                "attributes" : {
                                  "ident" : "",
                                  "gain" : 1.0,
                                  "mixToMono" : false
                                },
                                  "channelNumber" : "0,1",
                                "effects" : [

                                ],
                                "start" : 0,
                                "duration" : 3216,
                                "mediaStart" : 0,
                                "mediaDuration" : 3216,
                                "scalar" : 1,
                                "animationTracks" : {

                                }
                              }
,
                          "start" : 0,
                          "duration" : 3216,
                          "mediaStart" : 0,
                          "mediaDuration" : 12151,
                          "scalar" : 1,
                          "metadata" : {
                            "AutoAppliedSmartFocus" : "False",
                            "clipSpeedAttribute" : false
                          }
                        },
                        {
                          "id" : 1657,
                          "_type" : "UnifiedMedia",
                          "video" : 
                              {
                                "id" : 1658,
                                "_type" : "ScreenVMFile",
                                "src" : 2,
                                "trackNumber" : 0,
                                "attributes" : {
                                  "ident" : "Rec 01-28-21_002"
                                },
                                "parameters" : {
                                  "cursorScale" : {
                                    "type" : "double",
                                    "defaultValue" : 0.0,
                                    "interp" : "linr"
                                  },
                                  "cursorOpacity" : {
                                    "type" : "double",
                                    "defaultValue" : 0.0,
                                    "interp" : "linr"
                                  }
                                },
                                "effects" : [

                                ],
                                "start" : 3216,
                                "duration" : 17,
                                "mediaStart" : 3236,
                                "mediaDuration" : 17,
                                "scalar" : 1,
                                "animationTracks" : {

                                }
                              },
                          "audio" : 
                              {
                                "id" : 1659,
                                "_type" : "AMFile",
                                "src" : 2,
                                "trackNumber" : 1,
                                "attributes" : {
                                  "ident" : "",
                                  "gain" : 1.0,
                                  "mixToMono" : false
                                },
                                  "channelNumber" : "0,1",
                                "effects" : [

                                ],
                                "start" : 3216,
                                "duration" : 17,
                                "mediaStart" : 3236,
                                "mediaDuration" : 17,
                                "scalar" : 1,
                                "animationTracks" : {

                                }
                              }
,
                          "start" : 3216,
                          "duration" : 17,
                          "mediaStart" : 0,
                          "mediaDuration" : 12151,
                          "scalar" : 1,
                          "metadata" : {
                            "AutoAppliedSmartFocus" : "False",
                            "clipSpeedAttribute" : false
                          }
                        },
                        {
                          "id" : 1660,
                          "_type" : "UnifiedMedia",
                          "video" : 
                              {
                                "id" : 1661,
                                "_type" : "ScreenVMFile",
                                "src" : 2,
                                "trackNumber" : 0,
                                "attributes" : {
                                  "ident" : "Rec 01-28-21_002"
                                },
                                "parameters" : {
                                  "cursorScale" : {
                                    "type" : "double",
                                    "defaultValue" : 0.0,
                                    "interp" : "linr"
                                  },
                                  "cursorOpacity" : {
                                    "type" : "double",
                                    "defaultValue" : 0.0,
                                    "interp" : "linr"
                                  }
                                },
                                "effects" : [

                                ],
                                "start" : 3233,
                                "duration" : 174,
                                "mediaStart" : 3261,
                                "mediaDuration" : 174,
                                "scalar" : 1,
                                "animationTracks" : {

                                }
                              },
                          "audio" : 
                              {
                                "id" : 1662,
                                "_type" : "AMFile",
                                "src" : 2,
                                "trackNumber" : 1,
                                "attributes" : {
                                  "ident" : "",
                                  "gain" : 1.0,
                                  "mixToMono" : false
                                },
                                  "channelNumber" : "0,1",
                                "effects" : [

                                ],
                                "start" : 3233,
                                "duration" : 174,
                                "mediaStart" : 3261,
                                "mediaDuration" : 174,
                                "scalar" : 1,
                                "animationTracks" : {

                                }
                              }
,
                          "start" : 3233,
                          "duration" : 174,
                          "mediaStart" : 0,
                          "mediaDuration" : 12151,
                          "scalar" : 1,
                          "metadata" : {
                            "AutoAppliedSmartFocus" : "False",
                            "clipSpeedAttribute" : false
                          }
                        },
                        {
                          "id" : 1663,
                          "_type" : "UnifiedMedia",
                          "video" : 
                              {
                                "id" : 1664,
                                "_type" : "ScreenVMFile",
                                "src" : 2,
                                "trackNumber" : 0,
                                "attributes" : {
                                  "ident" : "Rec 01-28-21_002"
                                },
                                "parameters" : {
                                  "cursorScale" : {
                                    "type" : "double",
                                    "defaultValue" : 0.0,
                                    "interp" : "linr"
                                  },
                                  "cursorOpacity" : {
                                    "type" : "double",
                                    "defaultValue" : 0.0,
                                    "interp" : "linr"
                                  }
                                },
                                "effects" : [

                                ],
                                "start" : 3407,
                                "duration" : 124,
                                "mediaStart" : 3510,
                                "mediaDuration" : 124,
                                "scalar" : 1,
                                "animationTracks" : {

                                }
                              },
                          "audio" : 
                              {
                                "id" : 1665,
                                "_type" : "AMFile",
                                "src" : 2,
                                "trackNumber" : 1,
                                "attributes" : {
                                  "ident" : "",
                                  "gain" : 1.0,
                                  "mixToMono" : false
                                },
                                  "channelNumber" : "0,1",
                                "effects" : [

                                ],
                                "start" : 3407,
                                "duration" : 124,
                                "mediaStart" : 3510,
                                "mediaDuration" : 124,
                                "scalar" : 1,
                                "animationTracks" : {

                                }
                              }
,
                          "start" : 3407,
                          "duration" : 124,
                          "mediaStart" : 0,
                          "mediaDuration" : 12151,
                          "scalar" : 1,
                          "metadata" : {
                            "AutoAppliedSmartFocus" : "False",
                            "clipSpeedAttribute" : false
                          }
                        },
                        {
                          "id" : 1666,
                          "_type" : "UnifiedMedia",
                          "video" : 
                              {
                                "id" : 1667,
                                "_type" : "ScreenVMFile",
                                "src" : 2,
                                "trackNumber" : 0,
                                "attributes" : {
                                  "ident" : "Rec 01-28-21_002"
                                },
                                "parameters" : {
                                  "cursorScale" : {
                                    "type" : "double",
                                    "defaultValue" : 0.0,
                                    "interp" : "linr"
                                  },
                                  "cursorOpacity" : {
                                    "type" : "double",
                                    "defaultValue" : 0.0,
                                    "interp" : "linr"
                                  }
                                },
                                "effects" : [

                                ],
                                "start" : 3531,
                                "duration" : 16,
                                "mediaStart" : 3664,
                                "mediaDuration" : 16,
                                "scalar" : 1,
                                "animationTracks" : {

                                }
                              },
                          "audio" : 
                              {
                                "id" : 1668,
                                "_type" : "AMFile",
                                "src" : 2,
                                "trackNumber" : 1,
                                "attributes" : {
                                  "ident" : "",
                                  "gain" : 1.0,
                                  "mixToMono" : false
                                },
                                  "channelNumber" : "0,1",
                                "effects" : [

                                ],
                                "start" : 3531,
                                "duration" : 16,
                                "mediaStart" : 3664,
                                "mediaDuration" : 16,
                                "scalar" : 1,
                                "animationTracks" : {

                                }
                              }
,
                          "start" : 3531,
                          "duration" : 16,
                          "mediaStart" : 0,
                          "mediaDuration" : 12151,
                          "scalar" : 1,
                          "metadata" : {
                            "AutoAppliedSmartFocus" : "False",
                            "clipSpeedAttribute" : false
                          }
                        },
                        {
                          "id" : 1669,
                          "_type" : "UnifiedMedia",
                          "video" : 
                              {
                                "id" : 1670,
                                "_type" : "ScreenVMFile",
                                "src" : 2,
                                "trackNumber" : 0,
                                "attributes" : {
                                  "ident" : "Rec 01-28-21_002"
                                },
                                "parameters" : {
                                  "cursorScale" : {
                                    "type" : "double",
                                    "defaultValue" : 0.0,
                                    "interp" : "linr"
                                  },
                                  "cursorOpacity" : {
                                    "type" : "double",
                                    "defaultValue" : 0.0,
                                    "interp" : "linr"
                                  }
                                },
                                "effects" : [

                                ],
                                "start" : 3547,
                                "duration" : 1202,
                                "mediaStart" : 3687,
                                "mediaDuration" : 1202,
                                "scalar" : 1,
                                "animationTracks" : {

                                }
                              },
                          "audio" : 
                              {
                                "id" : 1671,
                                "_type" : "AMFile",
                                "src" : 2,
                                "trackNumber" : 1,
                                "attributes" : {
                                  "ident" : "",
                                  "gain" : 1.0,
                                  "mixToMono" : false
                                },
                                  "channelNumber" : "0,1",
                                "effects" : [

                                ],
                                "start" : 3547,
                                "duration" : 1202,
                                "mediaStart" : 3687,
                                "mediaDuration" : 1202,
                                "scalar" : 1,
                                "animationTracks" : {

                                }
                              }
,
                          "start" : 3547,
                          "duration" : 1202,
                          "mediaStart" : 0,
                          "mediaDuration" : 12151,
                          "scalar" : 1,
                          "metadata" : {
                            "AutoAppliedSmartFocus" : "False",
                            "clipSpeedAttribute" : false
                          }
                        },
                        {
                          "id" : 1672,
                          "_type" : "UnifiedMedia",
                          "video" : 
                              {
                                "id" : 1673,
                                "_type" : "ScreenVMFile",
                                "src" : 2,
                                "trackNumber" : 0,
                                "attributes" : {
                                  "ident" : "Rec 01-28-21_002"
                                },
                                "parameters" : {
                                  "cursorScale" : {
                                    "type" : "double",
                                    "defaultValue" : 0.0,
                                    "interp" : "linr"
                                  },
                                  "cursorOpacity" : {
                                    "type" : "double",
                                    "defaultValue" : 0.0,
                                    "interp" : "linr"
                                  }
                                },
                                "effects" : [

                                ],
                                "start" : 4749,
                                "duration" : 65,
                                "mediaStart" : 4924,
                                "mediaDuration" : 65,
                                "scalar" : 1,
                                "animationTracks" : {

                                }
                              },
                          "audio" : 
                              {
                                "id" : 1674,
                                "_type" : "AMFile",
                                "src" : 2,
                                "trackNumber" : 1,
                                "attributes" : {
                                  "ident" : "",
                                  "gain" : 1.0,
                                  "mixToMono" : false
                                },
                                  "channelNumber" : "0,1",
                                "effects" : [

                                ],
                                "start" : 4749,
                                "duration" : 65,
                                "mediaStart" : 4924,
                                "mediaDuration" : 65,
                                "scalar" : 1,
                                "animationTracks" : {

                                }
                              }
,
                          "start" : 4749,
                          "duration" : 65,
                          "mediaStart" : 0,
                          "mediaDuration" : 12151,
                          "scalar" : 1,
                          "metadata" : {
                            "AutoAppliedSmartFocus" : "False",
                            "clipSpeedAttribute" : false
                          }
                        },
                        {
                          "id" : 1675,
                          "_type" : "UnifiedMedia",
                          "video" : 
                              {
                                "id" : 1676,
                                "_type" : "ScreenVMFile",
                                "src" : 2,
                                "trackNumber" : 0,
                                "attributes" : {
                                  "ident" : "Rec 01-28-21_002"
                                },
                                "parameters" : {
                                  "cursorScale" : {
                                    "type" : "double",
                                    "defaultValue" : 0.0,
                                    "interp" : "linr"
                                  },
                                  "cursorOpacity" : {
                                    "type" : "double",
                                    "defaultValue" : 0.0,
                                    "interp" : "linr"
                                  }
                                },
                                "effects" : [

                                ],
                                "start" : 4814,
                                "duration" : 7,
                                "mediaStart" : 5226,
                                "mediaDuration" : 7,
                                "scalar" : 1,
                                "animationTracks" : {

                                }
                              },
                          "audio" : 
                              {
                                "id" : 1677,
                                "_type" : "AMFile",
                                "src" : 2,
                                "trackNumber" : 1,
                                "attributes" : {
                                  "ident" : "",
                                  "gain" : 1.0,
                                  "mixToMono" : false
                                },
                                  "channelNumber" : "0,1",
                                "effects" : [

                                ],
                                "start" : 4814,
                                "duration" : 7,
                                "mediaStart" : 5226,
                                "mediaDuration" : 7,
                                "scalar" : 1,
                                "animationTracks" : {

                                }
                              }
,
                          "start" : 4814,
                          "duration" : 7,
                          "mediaStart" : 0,
                          "mediaDuration" : 12151,
                          "scalar" : 1,
                          "metadata" : {
                            "AutoAppliedSmartFocus" : "False",
                            "clipSpeedAttribute" : false
                          }
                        },
                        {
                          "id" : 1678,
                          "_type" : "UnifiedMedia",
                          "video" : 
                              {
                                "id" : 1679,
                                "_type" : "ScreenVMFile",
                                "src" : 2,
                                "trackNumber" : 0,
                                "attributes" : {
                                  "ident" : "Rec 01-28-21_002"
                                },
                                "parameters" : {
                                  "cursorScale" : {
                                    "type" : "double",
                                    "defaultValue" : 0.0,
                                    "interp" : "linr"
                                  },
                                  "cursorOpacity" : {
                                    "type" : "double",
                                    "defaultValue" : 0.0,
                                    "interp" : "linr"
                                  }
                                },
                                "effects" : [

                                ],
                                "start" : 4821,
                                "duration" : 179,
                                "mediaStart" : 5388,
                                "mediaDuration" : 179,
                                "scalar" : 1,
                                "animationTracks" : {

                                }
                              },
                          "audio" : 
                              {
                                "id" : 1680,
                                "_type" : "AMFile",
                                "src" : 2,
                                "trackNumber" : 1,
                                "attributes" : {
                                  "ident" : "",
                                  "gain" : 1.0,
                                  "mixToMono" : false
                                },
                                  "channelNumber" : "0,1",
                                "effects" : [

                                ],
                                "start" : 4821,
                                "duration" : 179,
                                "mediaStart" : 5388,
                                "mediaDuration" : 179,
                                "scalar" : 1,
                                "animationTracks" : {

                                }
                              }
,
                          "start" : 4821,
                          "duration" : 179,
                          "mediaStart" : 0,
                          "mediaDuration" : 12151,
                          "scalar" : 1,
                          "metadata" : {
                            "AutoAppliedSmartFocus" : "False",
                            "clipSpeedAttribute" : false
                          }
                        },
                        {
                          "id" : 1681,
                          "_type" : "UnifiedMedia",
                          "video" : 
                              {
                                "id" : 1682,
                                "_type" : "ScreenVMFile",
                                "src" : 2,
                                "trackNumber" : 0,
                                "attributes" : {
                                  "ident" : "Rec 01-28-21_002"
                                },
                                "parameters" : {
                                  "cursorScale" : {
                                    "type" : "double",
                                    "defaultValue" : 0.0,
                                    "interp" : "linr"
                                  },
                                  "cursorOpacity" : {
                                    "type" : "double",
                                    "defaultValue" : 0.0,
                                    "interp" : "linr"
                                  }
                                },
                                "effects" : [

                                ],
                                "start" : 5000,
                                "duration" : 6448,
                                "mediaStart" : 5703,
                                "mediaDuration" : 6448,
                                "scalar" : 1,
                                "animationTracks" : {

                                }
                              },
                          "audio" : 
                              {
                                "id" : 1683,
                                "_type" : "AMFile",
                                "src" : 2,
                                "trackNumber" : 1,
                                "attributes" : {
                                  "ident" : "",
                                  "gain" : 1.0,
                                  "mixToMono" : false
                                },
                                  "channelNumber" : "0,1",
                                "effects" : [

                                ],
                                "start" : 5000,
                                "duration" : 6448,
                                "mediaStart" : 5703,
                                "mediaDuration" : 6448,
                                "scalar" : 1,
                                "animationTracks" : {

                                }
                              }
,
                          "start" : 5000,
                          "duration" : 6448,
                          "mediaStart" : 0,
                          "mediaDuration" : 12151,
                          "scalar" : 1,
                          "metadata" : {
                            "AutoAppliedSmartFocus" : "False",
                            "clipSpeedAttribute" : false
                          }
                        }
                    ],
                    "effects" : [

                    ],
                    "start" : 7838,
                    "duration" : 581,
                    "mediaStart" : 4539,
                    "mediaDuration" : 581,
                    "scalar" : 1,
                    "metadata" : {
                      "AutoAppliedSmartFocus" : "False",
                      "clipSpeedAttribute" : false
                    },
                    "animationTracks" : {

                    }
                  },
                  {
                    "id" : 1684,
                    "_type" : "StitchedMedia",
                    "minMediaStart" : 0,
                    "attributes" : {
                      "ident" : "Rec 01-28-21_002",
                      "gain" : 0.3,
                      "mixToMono" : false
                    },
                    "parameters" : {
                      "volume" : 1.0,
                      "cursorOpacity" : 1.0,
                      "cursorScale" : 1.0
                    },
                    "medias" : [
                        {
                          "id" : 1685,
                          "_type" : "UnifiedMedia",
                          "video" : 
                              {
                                "id" : 1686,
                                "_type" : "ScreenVMFile",
                                "src" : 2,
                                "trackNumber" : 0,
                                "attributes" : {
                                  "ident" : "Rec 01-28-21_002"
                                },
                                "parameters" : {
                                  "cursorScale" : {
                                    "type" : "double",
                                    "defaultValue" : 0.0,
                                    "interp" : "linr"
                                  },
                                  "cursorOpacity" : {
                                    "type" : "double",
                                    "defaultValue" : 0.0,
                                    "interp" : "linr"
                                  }
                                },
                                "effects" : [

                                ],
                                "start" : 0,
                                "duration" : 3216,
                                "mediaStart" : 0,
                                "mediaDuration" : 3216,
                                "scalar" : 1,
                                "animationTracks" : {

                                }
                              },
                          "audio" : 
                              {
                                "id" : 1687,
                                "_type" : "AMFile",
                                "src" : 2,
                                "trackNumber" : 1,
                                "attributes" : {
                                  "ident" : "",
                                  "gain" : 1.0,
                                  "mixToMono" : false
                                },
                                  "channelNumber" : "0,1",
                                "effects" : [

                                ],
                                "start" : 0,
                                "duration" : 3216,
                                "mediaStart" : 0,
                                "mediaDuration" : 3216,
                                "scalar" : 1,
                                "animationTracks" : {

                                }
                              }
,
                          "start" : 0,
                          "duration" : 3216,
                          "mediaStart" : 0,
                          "mediaDuration" : 12151,
                          "scalar" : 1,
                          "metadata" : {
                            "AutoAppliedSmartFocus" : "False",
                            "clipSpeedAttribute" : false
                          }
                        },
                        {
                          "id" : 1688,
                          "_type" : "UnifiedMedia",
                          "video" : 
                              {
                                "id" : 1689,
                                "_type" : "ScreenVMFile",
                                "src" : 2,
                                "trackNumber" : 0,
                                "attributes" : {
                                  "ident" : "Rec 01-28-21_002"
                                },
                                "parameters" : {
                                  "cursorScale" : {
                                    "type" : "double",
                                    "defaultValue" : 0.0,
                                    "interp" : "linr"
                                  },
                                  "cursorOpacity" : {
                                    "type" : "double",
                                    "defaultValue" : 0.0,
                                    "interp" : "linr"
                                  }
                                },
                                "effects" : [

                                ],
                                "start" : 3216,
                                "duration" : 17,
                                "mediaStart" : 3236,
                                "mediaDuration" : 17,
                                "scalar" : 1,
                                "animationTracks" : {

                                }
                              },
                          "audio" : 
                              {
                                "id" : 1690,
                                "_type" : "AMFile",
                                "src" : 2,
                                "trackNumber" : 1,
                                "attributes" : {
                                  "ident" : "",
                                  "gain" : 1.0,
                                  "mixToMono" : false
                                },
                                  "channelNumber" : "0,1",
                                "effects" : [

                                ],
                                "start" : 3216,
                                "duration" : 17,
                                "mediaStart" : 3236,
                                "mediaDuration" : 17,
                                "scalar" : 1,
                                "animationTracks" : {

                                }
                              }
,
                          "start" : 3216,
                          "duration" : 17,
                          "mediaStart" : 0,
                          "mediaDuration" : 12151,
                          "scalar" : 1,
                          "metadata" : {
                            "AutoAppliedSmartFocus" : "False",
                            "clipSpeedAttribute" : false
                          }
                        },
                        {
                          "id" : 1691,
                          "_type" : "UnifiedMedia",
                          "video" : 
                              {
                                "id" : 1692,
                                "_type" : "ScreenVMFile",
                                "src" : 2,
                                "trackNumber" : 0,
                                "attributes" : {
                                  "ident" : "Rec 01-28-21_002"
                                },
                                "parameters" : {
                                  "cursorScale" : {
                                    "type" : "double",
                                    "defaultValue" : 0.0,
                                    "interp" : "linr"
                                  },
                                  "cursorOpacity" : {
                                    "type" : "double",
                                    "defaultValue" : 0.0,
                                    "interp" : "linr"
                                  }
                                },
                                "effects" : [

                                ],
                                "start" : 3233,
                                "duration" : 174,
                                "mediaStart" : 3261,
                                "mediaDuration" : 174,
                                "scalar" : 1,
                                "animationTracks" : {

                                }
                              },
                          "audio" : 
                              {
                                "id" : 1693,
                                "_type" : "AMFile",
                                "src" : 2,
                                "trackNumber" : 1,
                                "attributes" : {
                                  "ident" : "",
                                  "gain" : 1.0,
                                  "mixToMono" : false
                                },
                                  "channelNumber" : "0,1",
                                "effects" : [

                                ],
                                "start" : 3233,
                                "duration" : 174,
                                "mediaStart" : 3261,
                                "mediaDuration" : 174,
                                "scalar" : 1,
                                "animationTracks" : {

                                }
                              }
,
                          "start" : 3233,
                          "duration" : 174,
                          "mediaStart" : 0,
                          "mediaDuration" : 12151,
                          "scalar" : 1,
                          "metadata" : {
                            "AutoAppliedSmartFocus" : "False",
                            "clipSpeedAttribute" : false
                          }
                        },
                        {
                          "id" : 1694,
                          "_type" : "UnifiedMedia",
                          "video" : 
                              {
                                "id" : 1695,
                                "_type" : "ScreenVMFile",
                                "src" : 2,
                                "trackNumber" : 0,
                                "attributes" : {
                                  "ident" : "Rec 01-28-21_002"
                                },
                                "parameters" : {
                                  "cursorScale" : {
                                    "type" : "double",
                                    "defaultValue" : 0.0,
                                    "interp" : "linr"
                                  },
                                  "cursorOpacity" : {
                                    "type" : "double",
                                    "defaultValue" : 0.0,
                                    "interp" : "linr"
                                  }
                                },
                                "effects" : [

                                ],
                                "start" : 3407,
                                "duration" : 124,
                                "mediaStart" : 3510,
                                "mediaDuration" : 124,
                                "scalar" : 1,
                                "animationTracks" : {

                                }
                              },
                          "audio" : 
                              {
                                "id" : 1696,
                                "_type" : "AMFile",
                                "src" : 2,
                                "trackNumber" : 1,
                                "attributes" : {
                                  "ident" : "",
                                  "gain" : 1.0,
                                  "mixToMono" : false
                                },
                                  "channelNumber" : "0,1",
                                "effects" : [

                                ],
                                "start" : 3407,
                                "duration" : 124,
                                "mediaStart" : 3510,
                                "mediaDuration" : 124,
                                "scalar" : 1,
                                "animationTracks" : {

                                }
                              }
,
                          "start" : 3407,
                          "duration" : 124,
                          "mediaStart" : 0,
                          "mediaDuration" : 12151,
                          "scalar" : 1,
                          "metadata" : {
                            "AutoAppliedSmartFocus" : "False",
                            "clipSpeedAttribute" : false
                          }
                        },
                        {
                          "id" : 1697,
                          "_type" : "UnifiedMedia",
                          "video" : 
                              {
                                "id" : 1698,
                                "_type" : "ScreenVMFile",
                                "src" : 2,
                                "trackNumber" : 0,
                                "attributes" : {
                                  "ident" : "Rec 01-28-21_002"
                                },
                                "parameters" : {
                                  "cursorScale" : {
                                    "type" : "double",
                                    "defaultValue" : 0.0,
                                    "interp" : "linr"
                                  },
                                  "cursorOpacity" : {
                                    "type" : "double",
                                    "defaultValue" : 0.0,
                                    "interp" : "linr"
                                  }
                                },
                                "effects" : [

                                ],
                                "start" : 3531,
                                "duration" : 16,
                                "mediaStart" : 3664,
                                "mediaDuration" : 16,
                                "scalar" : 1,
                                "animationTracks" : {

                                }
                              },
                          "audio" : 
                              {
                                "id" : 1699,
                                "_type" : "AMFile",
                                "src" : 2,
                                "trackNumber" : 1,
                                "attributes" : {
                                  "ident" : "",
                                  "gain" : 1.0,
                                  "mixToMono" : false
                                },
                                  "channelNumber" : "0,1",
                                "effects" : [

                                ],
                                "start" : 3531,
                                "duration" : 16,
                                "mediaStart" : 3664,
                                "mediaDuration" : 16,
                                "scalar" : 1,
                                "animationTracks" : {

                                }
                              }
,
                          "start" : 3531,
                          "duration" : 16,
                          "mediaStart" : 0,
                          "mediaDuration" : 12151,
                          "scalar" : 1,
                          "metadata" : {
                            "AutoAppliedSmartFocus" : "False",
                            "clipSpeedAttribute" : false
                          }
                        },
                        {
                          "id" : 1700,
                          "_type" : "UnifiedMedia",
                          "video" : 
                              {
                                "id" : 1701,
                                "_type" : "ScreenVMFile",
                                "src" : 2,
                                "trackNumber" : 0,
                                "attributes" : {
                                  "ident" : "Rec 01-28-21_002"
                                },
                                "parameters" : {
                                  "cursorScale" : {
                                    "type" : "double",
                                    "defaultValue" : 0.0,
                                    "interp" : "linr"
                                  },
                                  "cursorOpacity" : {
                                    "type" : "double",
                                    "defaultValue" : 0.0,
                                    "interp" : "linr"
                                  }
                                },
                                "effects" : [

                                ],
                                "start" : 3547,
                                "duration" : 1202,
                                "mediaStart" : 3687,
                                "mediaDuration" : 1202,
                                "scalar" : 1,
                                "animationTracks" : {

                                }
                              },
                          "audio" : 
                              {
                                "id" : 1702,
                                "_type" : "AMFile",
                                "src" : 2,
                                "trackNumber" : 1,
                                "attributes" : {
                                  "ident" : "",
                                  "gain" : 1.0,
                                  "mixToMono" : false
                                },
                                  "channelNumber" : "0,1",
                                "effects" : [

                                ],
                                "start" : 3547,
                                "duration" : 1202,
                                "mediaStart" : 3687,
                                "mediaDuration" : 1202,
                                "scalar" : 1,
                                "animationTracks" : {

                                }
                              }
,
                          "start" : 3547,
                          "duration" : 1202,
                          "mediaStart" : 0,
                          "mediaDuration" : 12151,
                          "scalar" : 1,
                          "metadata" : {
                            "AutoAppliedSmartFocus" : "False",
                            "clipSpeedAttribute" : false
                          }
                        },
                        {
                          "id" : 1703,
                          "_type" : "UnifiedMedia",
                          "video" : 
                              {
                                "id" : 1704,
                                "_type" : "ScreenVMFile",
                                "src" : 2,
                                "trackNumber" : 0,
                                "attributes" : {
                                  "ident" : "Rec 01-28-21_002"
                                },
                                "parameters" : {
                                  "cursorScale" : {
                                    "type" : "double",
                                    "defaultValue" : 0.0,
                                    "interp" : "linr"
                                  },
                                  "cursorOpacity" : {
                                    "type" : "double",
                                    "defaultValue" : 0.0,
                                    "interp" : "linr"
                                  }
                                },
                                "effects" : [

                                ],
                                "start" : 4749,
                                "duration" : 65,
                                "mediaStart" : 4924,
                                "mediaDuration" : 65,
                                "scalar" : 1,
                                "animationTracks" : {

                                }
                              },
                          "audio" : 
                              {
                                "id" : 1705,
                                "_type" : "AMFile",
                                "src" : 2,
                                "trackNumber" : 1,
                                "attributes" : {
                                  "ident" : "",
                                  "gain" : 1.0,
                                  "mixToMono" : false
                                },
                                  "channelNumber" : "0,1",
                                "effects" : [

                                ],
                                "start" : 4749,
                                "duration" : 65,
                                "mediaStart" : 4924,
                                "mediaDuration" : 65,
                                "scalar" : 1,
                                "animationTracks" : {

                                }
                              }
,
                          "start" : 4749,
                          "duration" : 65,
                          "mediaStart" : 0,
                          "mediaDuration" : 12151,
                          "scalar" : 1,
                          "metadata" : {
                            "AutoAppliedSmartFocus" : "False",
                            "clipSpeedAttribute" : false
                          }
                        },
                        {
                          "id" : 1706,
                          "_type" : "UnifiedMedia",
                          "video" : 
                              {
                                "id" : 1707,
                                "_type" : "ScreenVMFile",
                                "src" : 2,
                                "trackNumber" : 0,
                                "attributes" : {
                                  "ident" : "Rec 01-28-21_002"
                                },
                                "parameters" : {
                                  "cursorScale" : {
                                    "type" : "double",
                                    "defaultValue" : 0.0,
                                    "interp" : "linr"
                                  },
                                  "cursorOpacity" : {
                                    "type" : "double",
                                    "defaultValue" : 0.0,
                                    "interp" : "linr"
                                  }
                                },
                                "effects" : [

                                ],
                                "start" : 4814,
                                "duration" : 7,
                                "mediaStart" : 5226,
                                "mediaDuration" : 7,
                                "scalar" : 1,
                                "animationTracks" : {

                                }
                              },
                          "audio" : 
                              {
                                "id" : 1708,
                                "_type" : "AMFile",
                                "src" : 2,
                                "trackNumber" : 1,
                                "attributes" : {
                                  "ident" : "",
                                  "gain" : 1.0,
                                  "mixToMono" : false
                                },
                                  "channelNumber" : "0,1",
                                "effects" : [

                                ],
                                "start" : 4814,
                                "duration" : 7,
                                "mediaStart" : 5226,
                                "mediaDuration" : 7,
                                "scalar" : 1,
                                "animationTracks" : {

                                }
                              }
,
                          "start" : 4814,
                          "duration" : 7,
                          "mediaStart" : 0,
                          "mediaDuration" : 12151,
                          "scalar" : 1,
                          "metadata" : {
                            "AutoAppliedSmartFocus" : "False",
                            "clipSpeedAttribute" : false
                          }
                        },
                        {
                          "id" : 1709,
                          "_type" : "UnifiedMedia",
                          "video" : 
                              {
                                "id" : 1710,
                                "_type" : "ScreenVMFile",
                                "src" : 2,
                                "trackNumber" : 0,
                                "attributes" : {
                                  "ident" : "Rec 01-28-21_002"
                                },
                                "parameters" : {
                                  "cursorScale" : {
                                    "type" : "double",
                                    "defaultValue" : 0.0,
                                    "interp" : "linr"
                                  },
                                  "cursorOpacity" : {
                                    "type" : "double",
                                    "defaultValue" : 0.0,
                                    "interp" : "linr"
                                  }
                                },
                                "effects" : [

                                ],
                                "start" : 4821,
                                "duration" : 179,
                                "mediaStart" : 5388,
                                "mediaDuration" : 179,
                                "scalar" : 1,
                                "animationTracks" : {

                                }
                              },
                          "audio" : 
                              {
                                "id" : 1711,
                                "_type" : "AMFile",
                                "src" : 2,
                                "trackNumber" : 1,
                                "attributes" : {
                                  "ident" : "",
                                  "gain" : 1.0,
                                  "mixToMono" : false
                                },
                                  "channelNumber" : "0,1",
                                "effects" : [

                                ],
                                "start" : 4821,
                                "duration" : 179,
                                "mediaStart" : 5388,
                                "mediaDuration" : 179,
                                "scalar" : 1,
                                "animationTracks" : {

                                }
                              }
,
                          "start" : 4821,
                          "duration" : 179,
                          "mediaStart" : 0,
                          "mediaDuration" : 12151,
                          "scalar" : 1,
                          "metadata" : {
                            "AutoAppliedSmartFocus" : "False",
                            "clipSpeedAttribute" : false
                          }
                        },
                        {
                          "id" : 1712,
                          "_type" : "UnifiedMedia",
                          "video" : 
                              {
                                "id" : 1713,
                                "_type" : "ScreenVMFile",
                                "src" : 2,
                                "trackNumber" : 0,
                                "attributes" : {
                                  "ident" : "Rec 01-28-21_002"
                                },
                                "parameters" : {
                                  "cursorScale" : {
                                    "type" : "double",
                                    "defaultValue" : 0.0,
                                    "interp" : "linr"
                                  },
                                  "cursorOpacity" : {
                                    "type" : "double",
                                    "defaultValue" : 0.0,
                                    "interp" : "linr"
                                  }
                                },
                                "effects" : [

                                ],
                                "start" : 5000,
                                "duration" : 6448,
                                "mediaStart" : 5703,
                                "mediaDuration" : 6448,
                                "scalar" : 1,
                                "animationTracks" : {

                                }
                              },
                          "audio" : 
                              {
                                "id" : 1714,
                                "_type" : "AMFile",
                                "src" : 2,
                                "trackNumber" : 1,
                                "attributes" : {
                                  "ident" : "",
                                  "gain" : 1.0,
                                  "mixToMono" : false
                                },
                                  "channelNumber" : "0,1",
                                "effects" : [

                                ],
                                "start" : 5000,
                                "duration" : 6448,
                                "mediaStart" : 5703,
                                "mediaDuration" : 6448,
                                "scalar" : 1,
                                "animationTracks" : {

                                }
                              }
,
                          "start" : 5000,
                          "duration" : 6448,
                          "mediaStart" : 0,
                          "mediaDuration" : 12151,
                          "scalar" : 1,
                          "metadata" : {
                            "AutoAppliedSmartFocus" : "False",
                            "clipSpeedAttribute" : false
                          }
                        }
                    ],
                    "effects" : [

                    ],
                    "start" : 8419,
                    "duration" : 104,
                    "mediaStart" : 5120,
                    "mediaDuration" : 313,
                    "scalar" : "104/313",
                    "metadata" : {
                      "AutoAppliedSmartFocus" : "False",
                      "clipSpeedAttribute" : true
                    },
                    "animationTracks" : {

                    }
                  },
                  {
                    "id" : 1715,
                    "_type" : "Group",
                    "parameters" : {
                      "volume" : 1.0
                    },
                    "tracks" : [
                      {
                        "trackIndex" : 0,
                        "medias" : [
                          {
                            "id" : 1716,
                            "_type" : "StitchedMedia",
                            "minMediaStart" : 0,
                            "attributes" : {
                              "ident" : "Rec 01-28-21_002",
                              "gain" : 1.0,
                              "mixToMono" : false
                            },
                            "parameters" : {
                              "cursorOpacity" : 1.0,
                              "cursorScale" : 1.0
                            },
                            "medias" : [
                                {
                                  "id" : 1717,
                                  "_type" : "ScreenVMFile",
                                  "src" : 2,
                                  "trackNumber" : 0,
                                  "attributes" : {
                                    "ident" : "Rec 01-28-21_002"
                                  },
                                  "parameters" : {
                                    "cursorScale" : {
                                      "type" : "double",
                                      "defaultValue" : 0.0,
                                      "interp" : "linr"
                                    },
                                    "cursorOpacity" : {
                                      "type" : "double",
                                      "defaultValue" : 0.0,
                                      "interp" : "linr"
                                    }
                                  },
                                  "effects" : [

                                  ],
                                  "start" : 0,
                                  "duration" : 3216,
                                  "mediaStart" : 0,
                                  "mediaDuration" : 3216,
                                  "scalar" : 1,
                                  "metadata" : {
                                    "AutoAppliedSmartFocus" : "False"
                                  },
                                  "animationTracks" : {

                                  }
                                },
                                {
                                  "id" : 1718,
                                  "_type" : "ScreenVMFile",
                                  "src" : 2,
                                  "trackNumber" : 0,
                                  "attributes" : {
                                    "ident" : "Rec 01-28-21_002"
                                  },
                                  "parameters" : {
                                    "cursorScale" : {
                                      "type" : "double",
                                      "defaultValue" : 0.0,
                                      "interp" : "linr"
                                    },
                                    "cursorOpacity" : {
                                      "type" : "double",
                                      "defaultValue" : 0.0,
                                      "interp" : "linr"
                                    }
                                  },
                                  "effects" : [

                                  ],
                                  "start" : 3216,
                                  "duration" : 17,
                                  "mediaStart" : 3236,
                                  "mediaDuration" : 17,
                                  "scalar" : 1,
                                  "metadata" : {
                                    "AutoAppliedSmartFocus" : "False"
                                  },
                                  "animationTracks" : {

                                  }
                                },
                                {
                                  "id" : 1719,
                                  "_type" : "ScreenVMFile",
                                  "src" : 2,
                                  "trackNumber" : 0,
                                  "attributes" : {
                                    "ident" : "Rec 01-28-21_002"
                                  },
                                  "parameters" : {
                                    "cursorScale" : {
                                      "type" : "double",
                                      "defaultValue" : 0.0,
                                      "interp" : "linr"
                                    },
                                    "cursorOpacity" : {
                                      "type" : "double",
                                      "defaultValue" : 0.0,
                                      "interp" : "linr"
                                    }
                                  },
                                  "effects" : [

                                  ],
                                  "start" : 3233,
                                  "duration" : 174,
                                  "mediaStart" : 3261,
                                  "mediaDuration" : 174,
                                  "scalar" : 1,
                                  "metadata" : {
                                    "AutoAppliedSmartFocus" : "False"
                                  },
                                  "animationTracks" : {

                                  }
                                },
                                {
                                  "id" : 1720,
                                  "_type" : "ScreenVMFile",
                                  "src" : 2,
                                  "trackNumber" : 0,
                                  "attributes" : {
                                    "ident" : "Rec 01-28-21_002"
                                  },
                                  "parameters" : {
                                    "cursorScale" : {
                                      "type" : "double",
                                      "defaultValue" : 0.0,
                                      "interp" : "linr"
                                    },
                                    "cursorOpacity" : {
                                      "type" : "double",
                                      "defaultValue" : 0.0,
                                      "interp" : "linr"
                                    }
                                  },
                                  "effects" : [

                                  ],
                                  "start" : 3407,
                                  "duration" : 124,
                                  "mediaStart" : 3510,
                                  "mediaDuration" : 124,
                                  "scalar" : 1,
                                  "metadata" : {
                                    "AutoAppliedSmartFocus" : "False"
                                  },
                                  "animationTracks" : {

                                  }
                                },
                                {
                                  "id" : 1721,
                                  "_type" : "ScreenVMFile",
                                  "src" : 2,
                                  "trackNumber" : 0,
                                  "attributes" : {
                                    "ident" : "Rec 01-28-21_002"
                                  },
                                  "parameters" : {
                                    "cursorScale" : {
                                      "type" : "double",
                                      "defaultValue" : 0.0,
                                      "interp" : "linr"
                                    },
                                    "cursorOpacity" : {
                                      "type" : "double",
                                      "defaultValue" : 0.0,
                                      "interp" : "linr"
                                    }
                                  },
                                  "effects" : [

                                  ],
                                  "start" : 3531,
                                  "duration" : 16,
                                  "mediaStart" : 3664,
                                  "mediaDuration" : 16,
                                  "scalar" : 1,
                                  "metadata" : {
                                    "AutoAppliedSmartFocus" : "False"
                                  },
                                  "animationTracks" : {

                                  }
                                },
                                {
                                  "id" : 1722,
                                  "_type" : "ScreenVMFile",
                                  "src" : 2,
                                  "trackNumber" : 0,
                                  "attributes" : {
                                    "ident" : "Rec 01-28-21_002"
                                  },
                                  "parameters" : {
                                    "cursorScale" : {
                                      "type" : "double",
                                      "defaultValue" : 0.0,
                                      "interp" : "linr"
                                    },
                                    "cursorOpacity" : {
                                      "type" : "double",
                                      "defaultValue" : 0.0,
                                      "interp" : "linr"
                                    }
                                  },
                                  "effects" : [

                                  ],
                                  "start" : 3547,
                                  "duration" : 1202,
                                  "mediaStart" : 3687,
                                  "mediaDuration" : 1202,
                                  "scalar" : 1,
                                  "metadata" : {
                                    "AutoAppliedSmartFocus" : "False"
                                  },
                                  "animationTracks" : {

                                  }
                                },
                                {
                                  "id" : 1723,
                                  "_type" : "ScreenVMFile",
                                  "src" : 2,
                                  "trackNumber" : 0,
                                  "attributes" : {
                                    "ident" : "Rec 01-28-21_002"
                                  },
                                  "parameters" : {
                                    "cursorScale" : {
                                      "type" : "double",
                                      "defaultValue" : 0.0,
                                      "interp" : "linr"
                                    },
                                    "cursorOpacity" : {
                                      "type" : "double",
                                      "defaultValue" : 0.0,
                                      "interp" : "linr"
                                    }
                                  },
                                  "effects" : [

                                  ],
                                  "start" : 4749,
                                  "duration" : 65,
                                  "mediaStart" : 4924,
                                  "mediaDuration" : 65,
                                  "scalar" : 1,
                                  "metadata" : {
                                    "AutoAppliedSmartFocus" : "False"
                                  },
                                  "animationTracks" : {

                                  }
                                },
                                {
                                  "id" : 1724,
                                  "_type" : "ScreenVMFile",
                                  "src" : 2,
                                  "trackNumber" : 0,
                                  "attributes" : {
                                    "ident" : "Rec 01-28-21_002"
                                  },
                                  "parameters" : {
                                    "cursorScale" : {
                                      "type" : "double",
                                      "defaultValue" : 0.0,
                                      "interp" : "linr"
                                    },
                                    "cursorOpacity" : {
                                      "type" : "double",
                                      "defaultValue" : 0.0,
                                      "interp" : "linr"
                                    }
                                  },
                                  "effects" : [

                                  ],
                                  "start" : 4814,
                                  "duration" : 7,
                                  "mediaStart" : 5226,
                                  "mediaDuration" : 7,
                                  "scalar" : 1,
                                  "metadata" : {
                                    "AutoAppliedSmartFocus" : "False"
                                  },
                                  "animationTracks" : {

                                  }
                                },
                                {
                                  "id" : 1725,
                                  "_type" : "ScreenVMFile",
                                  "src" : 2,
                                  "trackNumber" : 0,
                                  "attributes" : {
                                    "ident" : "Rec 01-28-21_002"
                                  },
                                  "parameters" : {
                                    "cursorScale" : {
                                      "type" : "double",
                                      "defaultValue" : 0.0,
                                      "interp" : "linr"
                                    },
                                    "cursorOpacity" : {
                                      "type" : "double",
                                      "defaultValue" : 0.0,
                                      "interp" : "linr"
                                    }
                                  },
                                  "effects" : [

                                  ],
                                  "start" : 4821,
                                  "duration" : 179,
                                  "mediaStart" : 5388,
                                  "mediaDuration" : 179,
                                  "scalar" : 1,
                                  "metadata" : {
                                    "AutoAppliedSmartFocus" : "False"
                                  },
                                  "animationTracks" : {

                                  }
                                },
                                {
                                  "id" : 1726,
                                  "_type" : "ScreenVMFile",
                                  "src" : 2,
                                  "trackNumber" : 0,
                                  "attributes" : {
                                    "ident" : "Rec 01-28-21_002"
                                  },
                                  "parameters" : {
                                    "cursorScale" : {
                                      "type" : "double",
                                      "defaultValue" : 0.0,
                                      "interp" : "linr"
                                    },
                                    "cursorOpacity" : {
                                      "type" : "double",
                                      "defaultValue" : 0.0,
                                      "interp" : "linr"
                                    }
                                  },
                                  "effects" : [

                                  ],
                                  "start" : 5000,
                                  "duration" : 6453,
                                  "mediaStart" : 5703,
                                  "mediaDuration" : 6453,
                                  "scalar" : 1,
                                  "metadata" : {
                                    "AutoAppliedSmartFocus" : "False"
                                  },
                                  "animationTracks" : {

                                  }
                                }
                            ],
                            "effects" : [

                            ],
                            "start" : 0,
                            "duration" : 410,
                            "mediaStart" : 5433,
                            "mediaDuration" : 410,
                            "scalar" : 1,
                            "metadata" : {
                              "AutoAppliedSmartFocus" : "False",
                              "clipSpeedAttribute" : false
                            },
                            "animationTracks" : {

                            }
                          }
                        ],
                          "ident" : "",
                          "audioMuted" : false,
                          "videoHidden" : false,
                          "magnetic" : false,
                          "matte" : 0,
                          "metadata" : {
                            "IsLocked" : "False",
                            "WinTrackHeight" : "0"
                          }
                      },
                      {
                        "trackIndex" : 1,
                        "medias" : [
                          {
                            "id" : 1727,
                            "_type" : "StitchedMedia",
                            "minMediaStart" : 0,
                            "attributes" : {
                              "ident" : "Narration_3-3 Kubernetes-Deployment 17",
                              "gain" : 1.0,
                              "mixToMono" : false
                            },
                            "parameters" : {
                              "volume" : 1.0,
                              "cursorOpacity" : 1.0,
                              "cursorScale" : 1.0
                            },
                            "medias" : [
                                {
                                  "id" : 1728,
                                  "_type" : "AMFile",
                                  "src" : 20,
                                  "trackNumber" : 0,
                                  "attributes" : {
                                    "ident" : "Narration_3-3 Kubernetes-Deployment 17",
                                    "gain" : 1.0,
                                    "mixToMono" : false
                                  },
                                    "channelNumber" : "0,1",
                                  "effects" : [

                                  ],
                                  "start" : 0,
                                  "duration" : 81,
                                  "mediaStart" : 0,
                                  "mediaDuration" : 81,
                                  "scalar" : 1,
                                  "metadata" : {
                                    "clipSpeedAttribute" : false
                                  },
                                  "animationTracks" : {

                                  }
                                },
                                {
                                  "id" : 1729,
                                  "_type" : "AMFile",
                                  "src" : 20,
                                  "trackNumber" : 0,
                                  "attributes" : {
                                    "ident" : "Narration_3-3 Kubernetes-Deployment 17",
                                    "gain" : 1.0,
                                    "mixToMono" : false
                                  },
                                    "channelNumber" : "0,1",
                                  "effects" : [

                                  ],
                                  "start" : 81,
                                  "duration" : 155,
                                  "mediaStart" : 101,
                                  "mediaDuration" : 155,
                                  "scalar" : 1,
                                  "metadata" : {
                                    "clipSpeedAttribute" : false
                                  },
                                  "animationTracks" : {

                                  }
                                },
                                {
                                  "id" : 1730,
                                  "_type" : "AMFile",
                                  "src" : 20,
                                  "trackNumber" : 0,
                                  "attributes" : {
                                    "ident" : "Narration_3-3 Kubernetes-Deployment 17",
                                    "gain" : 1.0,
                                    "mixToMono" : false
                                  },
                                    "channelNumber" : "0,1",
                                  "effects" : [

                                  ],
                                  "start" : 236,
                                  "duration" : 174,
                                  "mediaStart" : 314,
                                  "mediaDuration" : 174,
                                  "scalar" : 1,
                                  "metadata" : {
                                    "clipSpeedAttribute" : false
                                  },
                                  "animationTracks" : {

                                  }
                                }
                            ],
                            "effects" : [

                            ],
                            "start" : 0,
                            "duration" : 410,
                            "mediaStart" : 0,
                            "mediaDuration" : 410,
                            "scalar" : 1,
                            "metadata" : {
                              "clipSpeedAttribute" : false
                            },
                            "animationTracks" : {

                            }
                          }
                        ],
                          "ident" : "",
                          "audioMuted" : false,
                          "videoHidden" : false,
                          "magnetic" : false,
                          "matte" : 0,
                          "metadata" : {
                            "IsLocked" : "False",
                            "WinTrackHeight" : "2.7343386228794e-312"
                          }
                      }
                    ],
                    "attributes" : {
                      "ident" : "Group 2",
                      "gain" : 1.0,
                      "mixToMono" : false
                    },
                    "effects" : [

                    ],
                    "start" : 8523,
                    "duration" : 410,
                    "mediaStart" : 0.0,
                    "mediaDuration" : 410.0,
                    "scalar" : 1,
                    "metadata" : {
                      "IsGroupExpanded" : "False"
                    },
                    "animationTracks" : {

                    }
                  },
                  {
                    "id" : 1731,
                    "_type" : "StitchedMedia",
                    "minMediaStart" : 0,
                    "attributes" : {
                      "ident" : "Rec 01-28-21_002",
                      "gain" : 1.0,
                      "mixToMono" : false
                    },
                    "parameters" : {
                      "volume" : 1.0,
                      "cursorOpacity" : 1.0,
                      "cursorScale" : 1.0
                    },
                    "medias" : [
                        {
                          "id" : 1732,
                          "_type" : "UnifiedMedia",
                          "video" : 
                              {
                                "id" : 1733,
                                "_type" : "ScreenVMFile",
                                "src" : 2,
                                "trackNumber" : 0,
                                "attributes" : {
                                  "ident" : "Rec 01-28-21_002"
                                },
                                "parameters" : {
                                  "cursorScale" : {
                                    "type" : "double",
                                    "defaultValue" : 0.0,
                                    "interp" : "linr"
                                  },
                                  "cursorOpacity" : {
                                    "type" : "double",
                                    "defaultValue" : 0.0,
                                    "interp" : "linr"
                                  }
                                },
                                "effects" : [

                                ],
                                "start" : 0,
                                "duration" : 6948,
                                "mediaStart" : 0,
                                "mediaDuration" : 6948,
                                "scalar" : 1,
                                "animationTracks" : {

                                }
                              },
                          "audio" : 
                              {
                                "id" : 1734,
                                "_type" : "AMFile",
                                "src" : 2,
                                "trackNumber" : 1,
                                "attributes" : {
                                  "ident" : "",
                                  "gain" : 1.0,
                                  "mixToMono" : false
                                },
                                  "channelNumber" : "0,1",
                                "effects" : [

                                ],
                                "start" : 0,
                                "duration" : 6948,
                                "mediaStart" : 0,
                                "mediaDuration" : 6948,
                                "scalar" : 1,
                                "animationTracks" : {

                                }
                              }
,
                          "start" : 0,
                          "duration" : 6948,
                          "mediaStart" : 0,
                          "mediaDuration" : 12151,
                          "scalar" : 1,
                          "metadata" : {
                            "AutoAppliedSmartFocus" : "False",
                            "clipSpeedAttribute" : false
                          }
                        },
                        {
                          "id" : 1735,
                          "_type" : "UnifiedMedia",
                          "video" : 
                              {
                                "id" : 1736,
                                "_type" : "ScreenVMFile",
                                "src" : 2,
                                "trackNumber" : 0,
                                "attributes" : {
                                  "ident" : "Rec 01-28-21_002"
                                },
                                "parameters" : {
                                  "cursorScale" : {
                                    "type" : "double",
                                    "defaultValue" : 0.0,
                                    "interp" : "linr"
                                  },
                                  "cursorOpacity" : {
                                    "type" : "double",
                                    "defaultValue" : 0.0,
                                    "interp" : "linr"
                                  }
                                },
                                "effects" : [

                                ],
                                "start" : 6948,
                                "duration" : 174,
                                "mediaStart" : 6966,
                                "mediaDuration" : 174,
                                "scalar" : 1,
                                "animationTracks" : {

                                }
                              },
                          "audio" : 
                              {
                                "id" : 1737,
                                "_type" : "AMFile",
                                "src" : 2,
                                "trackNumber" : 1,
                                "attributes" : {
                                  "ident" : "",
                                  "gain" : 1.0,
                                  "mixToMono" : false
                                },
                                  "channelNumber" : "0,1",
                                "effects" : [

                                ],
                                "start" : 6948,
                                "duration" : 174,
                                "mediaStart" : 6966,
                                "mediaDuration" : 174,
                                "scalar" : 1,
                                "animationTracks" : {

                                }
                              }
,
                          "start" : 6948,
                          "duration" : 174,
                          "mediaStart" : 0,
                          "mediaDuration" : 12151,
                          "scalar" : 1,
                          "metadata" : {
                            "AutoAppliedSmartFocus" : "False",
                            "clipSpeedAttribute" : false
                          }
                        },
                        {
                          "id" : 1738,
                          "_type" : "UnifiedMedia",
                          "video" : 
                              {
                                "id" : 1739,
                                "_type" : "ScreenVMFile",
                                "src" : 2,
                                "trackNumber" : 0,
                                "attributes" : {
                                  "ident" : "Rec 01-28-21_002"
                                },
                                "parameters" : {
                                  "cursorScale" : {
                                    "type" : "double",
                                    "defaultValue" : 0.0,
                                    "interp" : "linr"
                                  },
                                  "cursorOpacity" : {
                                    "type" : "double",
                                    "defaultValue" : 0.0,
                                    "interp" : "linr"
                                  }
                                },
                                "effects" : [

                                ],
                                "start" : 7122,
                                "duration" : 4813,
                                "mediaStart" : 7338,
                                "mediaDuration" : 4813,
                                "scalar" : 1,
                                "animationTracks" : {

                                }
                              },
                          "audio" : 
                              {
                                "id" : 1740,
                                "_type" : "AMFile",
                                "src" : 2,
                                "trackNumber" : 1,
                                "attributes" : {
                                  "ident" : "",
                                  "gain" : 1.0,
                                  "mixToMono" : false
                                },
                                  "channelNumber" : "0,1",
                                "effects" : [

                                ],
                                "start" : 7122,
                                "duration" : 4813,
                                "mediaStart" : 7338,
                                "mediaDuration" : 4813,
                                "scalar" : 1,
                                "animationTracks" : {

                                }
                              }
,
                          "start" : 7122,
                          "duration" : 4813,
                          "mediaStart" : 0,
                          "mediaDuration" : 12151,
                          "scalar" : 1,
                          "metadata" : {
                            "AutoAppliedSmartFocus" : "False",
                            "clipSpeedAttribute" : false
                          }
                        }
                    ],
                    "effects" : [

                    ],
                    "start" : 8933,
                    "duration" : 230,
                    "mediaStart" : 6891,
                    "mediaDuration" : 230,
                    "scalar" : 1,
                    "metadata" : {
                      "AutoAppliedSmartFocus" : "False",
                      "clipSpeedAttribute" : false
                    },
                    "animationTracks" : {

                    }
                  },
                  {
                    "id" : 1741,
                    "_type" : "Group",
                    "parameters" : {
                      "volume" : 1.0
                    },
                    "tracks" : [
                      {
                        "trackIndex" : 0,
                        "medias" : [
                          {
                            "id" : 1742,
                            "_type" : "StitchedMedia",
                            "minMediaStart" : 0,
                            "attributes" : {
                              "ident" : "Rec 01-28-21_002",
                              "gain" : 1.0,
                              "mixToMono" : false
                            },
                            "parameters" : {
                              "cursorOpacity" : 1.0,
                              "cursorScale" : 1.0
                            },
                            "medias" : [
                                {
                                  "id" : 1743,
                                  "_type" : "ScreenVMFile",
                                  "src" : 2,
                                  "trackNumber" : 0,
                                  "attributes" : {
                                    "ident" : "Rec 01-28-21_002"
                                  },
                                  "parameters" : {
                                    "cursorScale" : {
                                      "type" : "double",
                                      "defaultValue" : 0.0,
                                      "interp" : "linr"
                                    },
                                    "cursorOpacity" : {
                                      "type" : "double",
                                      "defaultValue" : 0.0,
                                      "interp" : "linr"
                                    }
                                  },
                                  "effects" : [

                                  ],
                                  "start" : 0,
                                  "duration" : 6948,
                                  "mediaStart" : 0,
                                  "mediaDuration" : 6948,
                                  "scalar" : 1,
                                  "metadata" : {
                                    "AutoAppliedSmartFocus" : "False"
                                  },
                                  "animationTracks" : {

                                  }
                                },
                                {
                                  "id" : 1744,
                                  "_type" : "ScreenVMFile",
                                  "src" : 2,
                                  "trackNumber" : 0,
                                  "attributes" : {
                                    "ident" : "Rec 01-28-21_002"
                                  },
                                  "parameters" : {
                                    "cursorScale" : {
                                      "type" : "double",
                                      "defaultValue" : 0.0,
                                      "interp" : "linr"
                                    },
                                    "cursorOpacity" : {
                                      "type" : "double",
                                      "defaultValue" : 0.0,
                                      "interp" : "linr"
                                    }
                                  },
                                  "effects" : [

                                  ],
                                  "start" : 6948,
                                  "duration" : 174,
                                  "mediaStart" : 6966,
                                  "mediaDuration" : 174,
                                  "scalar" : 1,
                                  "metadata" : {
                                    "AutoAppliedSmartFocus" : "False"
                                  },
                                  "animationTracks" : {

                                  }
                                },
                                {
                                  "id" : 1745,
                                  "_type" : "ScreenVMFile",
                                  "src" : 2,
                                  "trackNumber" : 0,
                                  "attributes" : {
                                    "ident" : "Rec 01-28-21_002"
                                  },
                                  "parameters" : {
                                    "cursorScale" : {
                                      "type" : "double",
                                      "defaultValue" : 0.0,
                                      "interp" : "linr"
                                    },
                                    "cursorOpacity" : {
                                      "type" : "double",
                                      "defaultValue" : 0.0,
                                      "interp" : "linr"
                                    }
                                  },
                                  "effects" : [

                                  ],
                                  "start" : 7122,
                                  "duration" : 4813,
                                  "mediaStart" : 7338,
                                  "mediaDuration" : 4813,
                                  "scalar" : 1,
                                  "metadata" : {
                                    "AutoAppliedSmartFocus" : "False"
                                  },
                                  "animationTracks" : {

                                  }
                                }
                            ],
                            "effects" : [

                            ],
                            "start" : 0,
                            "duration" : 85,
                            "mediaStart" : 7121,
                            "mediaDuration" : 85,
                            "scalar" : 1,
                            "metadata" : {
                              "AutoAppliedSmartFocus" : "False",
                              "clipSpeedAttribute" : false
                            },
                            "animationTracks" : {

                            }
                          }
                        ],
                          "ident" : "",
                          "audioMuted" : false,
                          "videoHidden" : false,
                          "magnetic" : false,
                          "matte" : 0,
                          "metadata" : {
                            "IsLocked" : "False",
                            "WinTrackHeight" : "0"
                          }
                      },
                      {
                        "trackIndex" : 1,
                        "medias" : [
                          {
                            "id" : 1746,
                            "_type" : "StitchedMedia",
                            "minMediaStart" : 0,
                            "attributes" : {
                              "ident" : "Narration_3-3 Kubernetes-Deployment 18",
                              "gain" : 1.0,
                              "mixToMono" : false
                            },
                            "parameters" : {
                              "volume" : 1.0,
                              "cursorOpacity" : 1.0,
                              "cursorScale" : 1.0
                            },
                            "medias" : [
                                {
                                  "id" : 1747,
                                  "_type" : "AMFile",
                                  "src" : 21,
                                  "trackNumber" : 0,
                                  "attributes" : {
                                    "ident" : "Narration_3-3 Kubernetes-Deployment 18",
                                    "gain" : 1.0,
                                    "mixToMono" : false
                                  },
                                    "channelNumber" : "0,1",
                                  "effects" : [

                                  ],
                                  "start" : 0,
                                  "duration" : 20,
                                  "mediaStart" : 0,
                                  "mediaDuration" : 20,
                                  "scalar" : 1,
                                  "metadata" : {
                                    "clipSpeedAttribute" : false
                                  },
                                  "animationTracks" : {

                                  }
                                },
                                {
                                  "id" : 1748,
                                  "_type" : "AMFile",
                                  "src" : 21,
                                  "trackNumber" : 0,
                                  "attributes" : {
                                    "ident" : "Narration_3-3 Kubernetes-Deployment 18",
                                    "gain" : 1.0,
                                    "mixToMono" : false
                                  },
                                    "channelNumber" : "0,1",
                                  "effects" : [

                                  ],
                                  "start" : 20,
                                  "duration" : 156,
                                  "mediaStart" : 42,
                                  "mediaDuration" : 156,
                                  "scalar" : 1,
                                  "metadata" : {
                                    "clipSpeedAttribute" : false
                                  },
                                  "animationTracks" : {

                                  }
                                }
                            ],
                            "effects" : [

                            ],
                            "start" : 0,
                            "duration" : 85,
                            "mediaStart" : 20,
                            "mediaDuration" : 85,
                            "scalar" : 1,
                            "metadata" : {
                              "clipSpeedAttribute" : false
                            },
                            "animationTracks" : {

                            }
                          }
                        ],
                          "ident" : "",
                          "audioMuted" : false,
                          "videoHidden" : false,
                          "magnetic" : false,
                          "matte" : 0,
                          "metadata" : {
                            "IsLocked" : "False",
                            "WinTrackHeight" : "2.7343386224051e-312"
                          }
                      }
                    ],
                    "attributes" : {
                      "ident" : "Group 3",
                      "gain" : 1.0,
                      "mixToMono" : false
                    },
                    "effects" : [

                    ],
                    "start" : 9163,
                    "duration" : 85,
                    "mediaStart" : 0.0,
                    "mediaDuration" : 85.0,
                    "scalar" : 1,
                    "metadata" : {
                      "IsGroupExpanded" : "False"
                    },
                    "animationTracks" : {

                    }
                  },
                  {
                    "id" : 1749,
                    "_type" : "Group",
                    "parameters" : {
                      "volume" : 1.0
                    },
                    "tracks" : [
                      {
                        "trackIndex" : 0,
                        "medias" : [
                          {
                            "id" : 1750,
                            "_type" : "StitchedMedia",
                            "minMediaStart" : 0,
                            "attributes" : {
                              "ident" : "Rec 01-28-21_002",
                              "gain" : 1.0,
                              "mixToMono" : false
                            },
                            "parameters" : {
                              "cursorOpacity" : 1.0,
                              "cursorScale" : 1.0
                            },
                            "medias" : [
                                {
                                  "id" : 1751,
                                  "_type" : "ScreenVMFile",
                                  "src" : 2,
                                  "trackNumber" : 0,
                                  "attributes" : {
                                    "ident" : "Rec 01-28-21_002"
                                  },
                                  "parameters" : {
                                    "cursorScale" : {
                                      "type" : "double",
                                      "defaultValue" : 0.0,
                                      "interp" : "linr"
                                    },
                                    "cursorOpacity" : {
                                      "type" : "double",
                                      "defaultValue" : 0.0,
                                      "interp" : "linr"
                                    }
                                  },
                                  "effects" : [

                                  ],
                                  "start" : 0,
                                  "duration" : 6948,
                                  "mediaStart" : 0,
                                  "mediaDuration" : 6948,
                                  "scalar" : 1,
                                  "metadata" : {
                                    "AutoAppliedSmartFocus" : "False"
                                  },
                                  "animationTracks" : {

                                  }
                                },
                                {
                                  "id" : 1752,
                                  "_type" : "ScreenVMFile",
                                  "src" : 2,
                                  "trackNumber" : 0,
                                  "attributes" : {
                                    "ident" : "Rec 01-28-21_002"
                                  },
                                  "parameters" : {
                                    "cursorScale" : {
                                      "type" : "double",
                                      "defaultValue" : 0.0,
                                      "interp" : "linr"
                                    },
                                    "cursorOpacity" : {
                                      "type" : "double",
                                      "defaultValue" : 0.0,
                                      "interp" : "linr"
                                    }
                                  },
                                  "effects" : [

                                  ],
                                  "start" : 6948,
                                  "duration" : 174,
                                  "mediaStart" : 6966,
                                  "mediaDuration" : 174,
                                  "scalar" : 1,
                                  "metadata" : {
                                    "AutoAppliedSmartFocus" : "False"
                                  },
                                  "animationTracks" : {

                                  }
                                },
                                {
                                  "id" : 1753,
                                  "_type" : "ScreenVMFile",
                                  "src" : 2,
                                  "trackNumber" : 0,
                                  "attributes" : {
                                    "ident" : "Rec 01-28-21_002"
                                  },
                                  "parameters" : {
                                    "cursorScale" : {
                                      "type" : "double",
                                      "defaultValue" : 0.0,
                                      "interp" : "linr"
                                    },
                                    "cursorOpacity" : {
                                      "type" : "double",
                                      "defaultValue" : 0.0,
                                      "interp" : "linr"
                                    }
                                  },
                                  "effects" : [

                                  ],
                                  "start" : 7122,
                                  "duration" : 4813,
                                  "mediaStart" : 7338,
                                  "mediaDuration" : 4813,
                                  "scalar" : 1,
                                  "metadata" : {
                                    "AutoAppliedSmartFocus" : "False"
                                  },
                                  "animationTracks" : {

                                  }
                                }
                            ],
                            "effects" : [

                            ],
                            "start" : 0,
                            "duration" : 319,
                            "mediaStart" : 7206,
                            "mediaDuration" : 319,
                            "scalar" : 1,
                            "metadata" : {
                              "AutoAppliedSmartFocus" : "False",
                              "clipSpeedAttribute" : false
                            },
                            "animationTracks" : {

                            }
                          }
                        ],
                          "ident" : "",
                          "audioMuted" : false,
                          "videoHidden" : false,
                          "magnetic" : false,
                          "matte" : 0,
                          "metadata" : {
                            "IsLocked" : "False",
                            "WinTrackHeight" : "0"
                          }
                      },
                      {
                        "trackIndex" : 1,
                        "medias" : [
                          {
                            "id" : 1754,
                            "_type" : "StitchedMedia",
                            "minMediaStart" : 0,
                            "attributes" : {
                              "ident" : "Narration_3-3 Kubernetes-Deployment 19",
                              "gain" : 1.0,
                              "mixToMono" : false
                            },
                            "parameters" : {
                              "volume" : 1.0,
                              "cursorOpacity" : 1.0,
                              "cursorScale" : 1.0
                            },
                            "medias" : [
                                {
                                  "id" : 1755,
                                  "_type" : "AMFile",
                                  "src" : 22,
                                  "trackNumber" : 0,
                                  "attributes" : {
                                    "ident" : "Narration_3-3 Kubernetes-Deployment 19",
                                    "gain" : 1.0,
                                    "mixToMono" : false
                                  },
                                    "channelNumber" : "0,1",
                                  "effects" : [

                                  ],
                                  "start" : 0,
                                  "duration" : 119,
                                  "mediaStart" : 0,
                                  "mediaDuration" : 119,
                                  "scalar" : 1,
                                  "metadata" : {
                                    "clipSpeedAttribute" : false
                                  },
                                  "animationTracks" : {

                                  }
                                },
                                {
                                  "id" : 1756,
                                  "_type" : "AMFile",
                                  "src" : 22,
                                  "trackNumber" : 0,
                                  "attributes" : {
                                    "ident" : "Narration_3-3 Kubernetes-Deployment 19",
                                    "gain" : 1.0,
                                    "mixToMono" : false
                                  },
                                    "channelNumber" : "0,1",
                                  "effects" : [

                                  ],
                                  "start" : 119,
                                  "duration" : 30,
                                  "mediaStart" : 153,
                                  "mediaDuration" : 30,
                                  "scalar" : 1,
                                  "metadata" : {
                                    "clipSpeedAttribute" : false
                                  },
                                  "animationTracks" : {

                                  }
                                },
                                {
                                  "id" : 1757,
                                  "_type" : "AMFile",
                                  "src" : 22,
                                  "trackNumber" : 0,
                                  "attributes" : {
                                    "ident" : "Narration_3-3 Kubernetes-Deployment 19",
                                    "gain" : 1.0,
                                    "mixToMono" : false
                                  },
                                    "channelNumber" : "0,1",
                                  "effects" : [

                                  ],
                                  "start" : 149,
                                  "duration" : 82,
                                  "mediaStart" : 214,
                                  "mediaDuration" : 82,
                                  "scalar" : 1,
                                  "metadata" : {
                                    "clipSpeedAttribute" : false
                                  },
                                  "animationTracks" : {

                                  }
                                }
                            ],
                            "effects" : [

                            ],
                            "start" : 0,
                            "duration" : 204,
                            "mediaStart" : 27,
                            "mediaDuration" : 204,
                            "scalar" : 1,
                            "metadata" : {
                              "clipSpeedAttribute" : false
                            },
                            "animationTracks" : {

                            }
                          },
                          {
                            "id" : 1758,
                            "_type" : "StitchedMedia",
                            "minMediaStart" : 0,
                            "attributes" : {
                              "ident" : "Narration_3-3 Kubernetes-Deployment 20",
                              "gain" : 1.0,
                              "mixToMono" : false
                            },
                            "parameters" : {
                              "volume" : 1.0,
                              "cursorOpacity" : 1.0,
                              "cursorScale" : 1.0
                            },
                            "medias" : [
                                {
                                  "id" : 1759,
                                  "_type" : "AMFile",
                                  "src" : 23,
                                  "trackNumber" : 0,
                                  "attributes" : {
                                    "ident" : "Narration_3-3 Kubernetes-Deployment 20",
                                    "gain" : 1.0,
                                    "mixToMono" : false
                                  },
                                    "channelNumber" : "0,1",
                                  "effects" : [

                                  ],
                                  "start" : 0,
                                  "duration" : 86,
                                  "mediaStart" : 0,
                                  "mediaDuration" : 86,
                                  "scalar" : 1,
                                  "metadata" : {
                                    "clipSpeedAttribute" : false
                                  },
                                  "animationTracks" : {

                                  }
                                },
                                {
                                  "id" : 1760,
                                  "_type" : "AMFile",
                                  "src" : 23,
                                  "trackNumber" : 0,
                                  "attributes" : {
                                    "ident" : "Narration_3-3 Kubernetes-Deployment 20",
                                    "gain" : 1.0,
                                    "mixToMono" : false
                                  },
                                    "channelNumber" : "0,1",
                                  "effects" : [

                                  ],
                                  "start" : 86,
                                  "duration" : 60,
                                  "mediaStart" : 108,
                                  "mediaDuration" : 60,
                                  "scalar" : 1,
                                  "metadata" : {
                                    "clipSpeedAttribute" : false
                                  },
                                  "animationTracks" : {

                                  }
                                }
                            ],
                            "effects" : [

                            ],
                            "start" : 204,
                            "duration" : 115,
                            "mediaStart" : 31,
                            "mediaDuration" : 115,
                            "scalar" : 1,
                            "metadata" : {
                              "clipSpeedAttribute" : false
                            },
                            "animationTracks" : {

                            }
                          }
                        ],
                          "ident" : "",
                          "audioMuted" : false,
                          "videoHidden" : false,
                          "magnetic" : false,
                          "matte" : 0,
                          "metadata" : {
                            "IsLocked" : "False",
                            "WinTrackHeight" : "2.73433862145649e-312"
                          }
                      }
                    ],
                    "attributes" : {
                      "ident" : "Group 4",
                      "gain" : 1.0,
                      "mixToMono" : false
                    },
                    "effects" : [

                    ],
                    "start" : 9248,
                    "duration" : 319,
                    "mediaStart" : 0.0,
                    "mediaDuration" : 319.0,
                    "scalar" : 1,
                    "metadata" : {
                      "IsGroupExpanded" : "False"
                    },
                    "animationTracks" : {

                    }
                  },
                  {
                    "id" : 1761,
                    "_type" : "Group",
                    "parameters" : {
                      "volume" : 1.0
                    },
                    "tracks" : [
                      {
                        "trackIndex" : 0,
                        "medias" : [
                          {
                            "id" : 1762,
                            "_type" : "StitchedMedia",
                            "minMediaStart" : 0,
                            "attributes" : {
                              "ident" : "Rec 01-28-21_002",
                              "gain" : 1.0,
                              "mixToMono" : false
                            },
                            "parameters" : {
                              "cursorOpacity" : 1.0,
                              "cursorScale" : 1.0
                            },
                            "medias" : [
                                {
                                  "id" : 1763,
                                  "_type" : "ScreenVMFile",
                                  "src" : 2,
                                  "trackNumber" : 0,
                                  "attributes" : {
                                    "ident" : "Rec 01-28-21_002"
                                  },
                                  "parameters" : {
                                    "cursorScale" : {
                                      "type" : "double",
                                      "defaultValue" : 0.0,
                                      "interp" : "linr"
                                    },
                                    "cursorOpacity" : {
                                      "type" : "double",
                                      "defaultValue" : 0.0,
                                      "interp" : "linr"
                                    }
                                  },
                                  "effects" : [

                                  ],
                                  "start" : 0,
                                  "duration" : 6948,
                                  "mediaStart" : 0,
                                  "mediaDuration" : 6948,
                                  "scalar" : 1,
                                  "metadata" : {
                                    "AutoAppliedSmartFocus" : "False"
                                  },
                                  "animationTracks" : {

                                  }
                                },
                                {
                                  "id" : 1764,
                                  "_type" : "ScreenVMFile",
                                  "src" : 2,
                                  "trackNumber" : 0,
                                  "attributes" : {
                                    "ident" : "Rec 01-28-21_002"
                                  },
                                  "parameters" : {
                                    "cursorScale" : {
                                      "type" : "double",
                                      "defaultValue" : 0.0,
                                      "interp" : "linr"
                                    },
                                    "cursorOpacity" : {
                                      "type" : "double",
                                      "defaultValue" : 0.0,
                                      "interp" : "linr"
                                    }
                                  },
                                  "effects" : [

                                  ],
                                  "start" : 6948,
                                  "duration" : 174,
                                  "mediaStart" : 6966,
                                  "mediaDuration" : 174,
                                  "scalar" : 1,
                                  "metadata" : {
                                    "AutoAppliedSmartFocus" : "False"
                                  },
                                  "animationTracks" : {

                                  }
                                },
                                {
                                  "id" : 1765,
                                  "_type" : "ScreenVMFile",
                                  "src" : 2,
                                  "trackNumber" : 0,
                                  "attributes" : {
                                    "ident" : "Rec 01-28-21_002"
                                  },
                                  "parameters" : {
                                    "cursorScale" : {
                                      "type" : "double",
                                      "defaultValue" : 0.0,
                                      "interp" : "linr"
                                    },
                                    "cursorOpacity" : {
                                      "type" : "double",
                                      "defaultValue" : 0.0,
                                      "interp" : "linr"
                                    }
                                  },
                                  "effects" : [

                                  ],
                                  "start" : 7122,
                                  "duration" : 4813,
                                  "mediaStart" : 7338,
                                  "mediaDuration" : 4813,
                                  "scalar" : 1,
                                  "metadata" : {
                                    "AutoAppliedSmartFocus" : "False"
                                  },
                                  "animationTracks" : {

                                  }
                                }
                            ],
                            "effects" : [

                            ],
                            "start" : 0,
                            "duration" : 258,
                            "mediaStart" : 7487,
                            "mediaDuration" : 258,
                            "scalar" : 1,
                            "metadata" : {
                              "AutoAppliedSmartFocus" : "False",
                              "clipSpeedAttribute" : false
                            },
                            "animationTracks" : {

                            }
                          }
                        ],
                          "ident" : "",
                          "audioMuted" : false,
                          "videoHidden" : false,
                          "magnetic" : false,
                          "matte" : 0,
                          "metadata" : {
                            "IsLocked" : "False",
                            "WinTrackHeight" : "0"
                          }
                      },
                      {
                        "trackIndex" : 1,
                        "medias" : [
                          {
                            "id" : 1766,
                            "_type" : "StitchedMedia",
                            "minMediaStart" : 0,
                            "attributes" : {
                              "ident" : "Narration_3-3 Kubernetes-Deployment 21",
                              "gain" : 1.0,
                              "mixToMono" : false
                            },
                            "parameters" : {
                              "volume" : 1.0,
                              "cursorOpacity" : 1.0,
                              "cursorScale" : 1.0
                            },
                            "medias" : [
                                {
                                  "id" : 1767,
                                  "_type" : "AMFile",
                                  "src" : 24,
                                  "trackNumber" : 0,
                                  "attributes" : {
                                    "ident" : "Narration_3-3 Kubernetes-Deployment 21",
                                    "gain" : 1.0,
                                    "mixToMono" : false
                                  },
                                    "channelNumber" : "0,1",
                                  "effects" : [

                                  ],
                                  "start" : 0,
                                  "duration" : 69,
                                  "mediaStart" : 0,
                                  "mediaDuration" : 69,
                                  "scalar" : 1,
                                  "metadata" : {
                                    "clipSpeedAttribute" : false
                                  },
                                  "animationTracks" : {

                                  }
                                },
                                {
                                  "id" : 1768,
                                  "_type" : "AMFile",
                                  "src" : 24,
                                  "trackNumber" : 0,
                                  "attributes" : {
                                    "ident" : "Narration_3-3 Kubernetes-Deployment 21",
                                    "gain" : 1.0,
                                    "mixToMono" : false
                                  },
                                    "channelNumber" : "0,1",
                                  "effects" : [

                                  ],
                                  "start" : 69,
                                  "duration" : 60,
                                  "mediaStart" : 79,
                                  "mediaDuration" : 60,
                                  "scalar" : 1,
                                  "metadata" : {
                                    "clipSpeedAttribute" : false
                                  },
                                  "animationTracks" : {

                                  }
                                },
                                {
                                  "id" : 1769,
                                  "_type" : "AMFile",
                                  "src" : 24,
                                  "trackNumber" : 0,
                                  "attributes" : {
                                    "ident" : "Narration_3-3 Kubernetes-Deployment 21",
                                    "gain" : 1.0,
                                    "mixToMono" : false
                                  },
                                    "channelNumber" : "0,1",
                                  "effects" : [

                                  ],
                                  "start" : 129,
                                  "duration" : 61,
                                  "mediaStart" : 154,
                                  "mediaDuration" : 61,
                                  "scalar" : 1,
                                  "metadata" : {
                                    "clipSpeedAttribute" : false
                                  },
                                  "animationTracks" : {

                                  }
                                },
                                {
                                  "id" : 1770,
                                  "_type" : "AMFile",
                                  "src" : 24,
                                  "trackNumber" : 0,
                                  "attributes" : {
                                    "ident" : "Narration_3-3 Kubernetes-Deployment 21",
                                    "gain" : 1.0,
                                    "mixToMono" : false
                                  },
                                    "channelNumber" : "0,1",
                                  "effects" : [

                                  ],
                                  "start" : 190,
                                  "duration" : 96,
                                  "mediaStart" : 263,
                                  "mediaDuration" : 96,
                                  "scalar" : 1,
                                  "metadata" : {
                                    "clipSpeedAttribute" : false
                                  },
                                  "animationTracks" : {

                                  }
                                }
                            ],
                            "effects" : [

                            ],
                            "start" : 0,
                            "duration" : 255,
                            "mediaStart" : 31,
                            "mediaDuration" : 255,
                            "scalar" : 1,
                            "metadata" : {
                              "clipSpeedAttribute" : false
                            },
                            "animationTracks" : {

                            }
                          }
                        ],
                          "ident" : "",
                          "audioMuted" : false,
                          "videoHidden" : false,
                          "magnetic" : false,
                          "matte" : 0,
                          "metadata" : {
                            "IsLocked" : "False",
                            "WinTrackHeight" : "2.73433862098219e-312"
                          }
                      }
                    ],
                    "attributes" : {
                      "ident" : "Group 5",
                      "gain" : 1.0,
                      "mixToMono" : false
                    },
                    "effects" : [

                    ],
                    "start" : 9567,
                    "duration" : 258,
                    "mediaStart" : 0.0,
                    "mediaDuration" : 258.0,
                    "scalar" : 1,
                    "metadata" : {
                      "IsGroupExpanded" : "False"
                    },
                    "animationTracks" : {

                    }
                  },
                  {
                    "id" : 1771,
                    "_type" : "Group",
                    "parameters" : {
                      "volume" : 1.0
                    },
                    "tracks" : [
                      {
                        "trackIndex" : 0,
                        "medias" : [
                          {
                            "id" : 1772,
                            "_type" : "StitchedMedia",
                            "minMediaStart" : 0,
                            "attributes" : {
                              "ident" : "Rec 01-28-21_002",
                              "gain" : 1.0,
                              "mixToMono" : false
                            },
                            "parameters" : {
                              "cursorOpacity" : 1.0,
                              "cursorScale" : 1.0
                            },
                            "medias" : [
                                {
                                  "id" : 1773,
                                  "_type" : "ScreenVMFile",
                                  "src" : 2,
                                  "trackNumber" : 0,
                                  "attributes" : {
                                    "ident" : "Rec 01-28-21_002"
                                  },
                                  "parameters" : {
                                    "cursorScale" : {
                                      "type" : "double",
                                      "defaultValue" : 0.0,
                                      "interp" : "linr"
                                    },
                                    "cursorOpacity" : {
                                      "type" : "double",
                                      "defaultValue" : 0.0,
                                      "interp" : "linr"
                                    }
                                  },
                                  "effects" : [

                                  ],
                                  "start" : 0,
                                  "duration" : 6948,
                                  "mediaStart" : 0,
                                  "mediaDuration" : 6948,
                                  "scalar" : 1,
                                  "metadata" : {
                                    "AutoAppliedSmartFocus" : "False"
                                  },
                                  "animationTracks" : {

                                  }
                                },
                                {
                                  "id" : 1774,
                                  "_type" : "ScreenVMFile",
                                  "src" : 2,
                                  "trackNumber" : 0,
                                  "attributes" : {
                                    "ident" : "Rec 01-28-21_002"
                                  },
                                  "parameters" : {
                                    "cursorScale" : {
                                      "type" : "double",
                                      "defaultValue" : 0.0,
                                      "interp" : "linr"
                                    },
                                    "cursorOpacity" : {
                                      "type" : "double",
                                      "defaultValue" : 0.0,
                                      "interp" : "linr"
                                    }
                                  },
                                  "effects" : [

                                  ],
                                  "start" : 6948,
                                  "duration" : 174,
                                  "mediaStart" : 6966,
                                  "mediaDuration" : 174,
                                  "scalar" : 1,
                                  "metadata" : {
                                    "AutoAppliedSmartFocus" : "False"
                                  },
                                  "animationTracks" : {

                                  }
                                },
                                {
                                  "id" : 1775,
                                  "_type" : "ScreenVMFile",
                                  "src" : 2,
                                  "trackNumber" : 0,
                                  "attributes" : {
                                    "ident" : "Rec 01-28-21_002"
                                  },
                                  "parameters" : {
                                    "cursorScale" : {
                                      "type" : "double",
                                      "defaultValue" : 0.0,
                                      "interp" : "linr"
                                    },
                                    "cursorOpacity" : {
                                      "type" : "double",
                                      "defaultValue" : 0.0,
                                      "interp" : "linr"
                                    }
                                  },
                                  "effects" : [

                                  ],
                                  "start" : 7122,
                                  "duration" : 4813,
                                  "mediaStart" : 7338,
                                  "mediaDuration" : 4813,
                                  "scalar" : 1,
                                  "metadata" : {
                                    "AutoAppliedSmartFocus" : "False"
                                  },
                                  "animationTracks" : {

                                  }
                                }
                            ],
                            "effects" : [

                            ],
                            "start" : 0,
                            "duration" : 317,
                            "mediaStart" : 7745,
                            "mediaDuration" : 317,
                            "scalar" : 1,
                            "metadata" : {
                              "AutoAppliedSmartFocus" : "False",
                              "clipSpeedAttribute" : false
                            },
                            "animationTracks" : {

                            }
                          }
                        ],
                          "ident" : "",
                          "audioMuted" : false,
                          "videoHidden" : false,
                          "magnetic" : false,
                          "matte" : 0,
                          "metadata" : {
                            "IsLocked" : "False",
                            "WinTrackHeight" : "0"
                          }
                      },
                      {
                        "trackIndex" : 1,
                        "medias" : [
                          {
                            "id" : 1776,
                            "_type" : "StitchedMedia",
                            "minMediaStart" : 0,
                            "attributes" : {
                              "ident" : "Narration_3-3 Kubernetes-Deployment 22",
                              "gain" : 1.0,
                              "mixToMono" : false
                            },
                            "parameters" : {
                              "volume" : 1.0,
                              "cursorOpacity" : 1.0,
                              "cursorScale" : 1.0
                            },
                            "medias" : [
                                {
                                  "id" : 1777,
                                  "_type" : "AMFile",
                                  "src" : 25,
                                  "trackNumber" : 0,
                                  "attributes" : {
                                    "ident" : "Narration_3-3 Kubernetes-Deployment 22",
                                    "gain" : 1.0,
                                    "mixToMono" : false
                                  },
                                    "channelNumber" : "0,1",
                                  "effects" : [

                                  ],
                                  "start" : 0,
                                  "duration" : 156,
                                  "mediaStart" : 0,
                                  "mediaDuration" : 156,
                                  "scalar" : 1,
                                  "metadata" : {
                                    "clipSpeedAttribute" : false
                                  },
                                  "animationTracks" : {

                                  }
                                },
                                {
                                  "id" : 1778,
                                  "_type" : "AMFile",
                                  "src" : 25,
                                  "trackNumber" : 0,
                                  "attributes" : {
                                    "ident" : "Narration_3-3 Kubernetes-Deployment 22",
                                    "gain" : 1.0,
                                    "mixToMono" : false
                                  },
                                    "channelNumber" : "0,1",
                                  "effects" : [

                                  ],
                                  "start" : 156,
                                  "duration" : 236,
                                  "mediaStart" : 273,
                                  "mediaDuration" : 236,
                                  "scalar" : 1,
                                  "metadata" : {
                                    "clipSpeedAttribute" : false
                                  },
                                  "animationTracks" : {

                                  }
                                }
                            ],
                            "effects" : [

                            ],
                            "start" : 0,
                            "duration" : 317,
                            "mediaStart" : 29,
                            "mediaDuration" : 317,
                            "scalar" : 1,
                            "metadata" : {
                              "clipSpeedAttribute" : false
                            },
                            "animationTracks" : {

                            }
                          }
                        ],
                          "ident" : "",
                          "audioMuted" : false,
                          "videoHidden" : false,
                          "magnetic" : false,
                          "matte" : 0,
                          "metadata" : {
                            "IsLocked" : "False",
                            "WinTrackHeight" : "2.73433862050789e-312"
                          }
                      }
                    ],
                    "attributes" : {
                      "ident" : "Group 6",
                      "gain" : 1.0,
                      "mixToMono" : false
                    },
                    "effects" : [

                    ],
                    "start" : 9825,
                    "duration" : 317,
                    "mediaStart" : 0.0,
                    "mediaDuration" : 317.0,
                    "scalar" : 1,
                    "metadata" : {
                      "IsGroupExpanded" : "False"
                    },
                    "animationTracks" : {

                    }
                  },
                  {
                    "id" : 1779,
                    "_type" : "Group",
                    "parameters" : {
                      "volume" : 1.0
                    },
                    "tracks" : [
                      {
                        "trackIndex" : 0,
                        "medias" : [
                          {
                            "id" : 1780,
                            "_type" : "StitchedMedia",
                            "minMediaStart" : 0,
                            "attributes" : {
                              "ident" : "Rec 01-28-21_002",
                              "gain" : 1.0,
                              "mixToMono" : false
                            },
                            "parameters" : {
                              "cursorOpacity" : 1.0,
                              "cursorScale" : 1.0
                            },
                            "medias" : [
                                {
                                  "id" : 1781,
                                  "_type" : "ScreenVMFile",
                                  "src" : 2,
                                  "trackNumber" : 0,
                                  "attributes" : {
                                    "ident" : "Rec 01-28-21_002"
                                  },
                                  "parameters" : {
                                    "cursorScale" : {
                                      "type" : "double",
                                      "defaultValue" : 0.0,
                                      "interp" : "linr"
                                    },
                                    "cursorOpacity" : {
                                      "type" : "double",
                                      "defaultValue" : 0.0,
                                      "interp" : "linr"
                                    }
                                  },
                                  "effects" : [

                                  ],
                                  "start" : 0,
                                  "duration" : 6948,
                                  "mediaStart" : 0,
                                  "mediaDuration" : 6948,
                                  "scalar" : 1,
                                  "metadata" : {
                                    "AutoAppliedSmartFocus" : "False"
                                  },
                                  "animationTracks" : {

                                  }
                                },
                                {
                                  "id" : 1782,
                                  "_type" : "ScreenVMFile",
                                  "src" : 2,
                                  "trackNumber" : 0,
                                  "attributes" : {
                                    "ident" : "Rec 01-28-21_002"
                                  },
                                  "parameters" : {
                                    "cursorScale" : {
                                      "type" : "double",
                                      "defaultValue" : 0.0,
                                      "interp" : "linr"
                                    },
                                    "cursorOpacity" : {
                                      "type" : "double",
                                      "defaultValue" : 0.0,
                                      "interp" : "linr"
                                    }
                                  },
                                  "effects" : [

                                  ],
                                  "start" : 6948,
                                  "duration" : 174,
                                  "mediaStart" : 6966,
                                  "mediaDuration" : 174,
                                  "scalar" : 1,
                                  "metadata" : {
                                    "AutoAppliedSmartFocus" : "False"
                                  },
                                  "animationTracks" : {

                                  }
                                },
                                {
                                  "id" : 1783,
                                  "_type" : "ScreenVMFile",
                                  "src" : 2,
                                  "trackNumber" : 0,
                                  "attributes" : {
                                    "ident" : "Rec 01-28-21_002"
                                  },
                                  "parameters" : {
                                    "cursorScale" : {
                                      "type" : "double",
                                      "defaultValue" : 0.0,
                                      "interp" : "linr"
                                    },
                                    "cursorOpacity" : {
                                      "type" : "double",
                                      "defaultValue" : 0.0,
                                      "interp" : "linr"
                                    }
                                  },
                                  "effects" : [

                                  ],
                                  "start" : 7122,
                                  "duration" : 4813,
                                  "mediaStart" : 7338,
                                  "mediaDuration" : 4813,
                                  "scalar" : 1,
                                  "metadata" : {
                                    "AutoAppliedSmartFocus" : "False"
                                  },
                                  "animationTracks" : {

                                  }
                                }
                            ],
                            "effects" : [

                            ],
                            "start" : 0,
                            "duration" : 263,
                            "mediaStart" : 8145,
                            "mediaDuration" : 525,
                            "scalar" : "263/525",
                            "metadata" : {
                              "AutoAppliedSmartFocus" : "False",
                              "clipSpeedAttribute" : true
                            },
                            "animationTracks" : {

                            }
                          }
                        ],
                          "ident" : "",
                          "audioMuted" : false,
                          "videoHidden" : false,
                          "magnetic" : false,
                          "matte" : 0,
                          "metadata" : {
                            "IsLocked" : "False",
                            "WinTrackHeight" : "0"
                          }
                      },
                      {
                        "trackIndex" : 1,
                        "medias" : [
                          {
                            "id" : 1784,
                            "_type" : "AMFile",
                            "src" : 26,
                            "trackNumber" : 0,
                            "attributes" : {
                              "ident" : "Narration_3-3 Kubernetes-Deployment 23",
                              "gain" : 1.0,
                              "mixToMono" : false
                            },
                              "channelNumber" : "0,1",
                            "effects" : [

                            ],
                            "start" : 0,
                            "duration" : 233,
                            "mediaStart" : 0,
                            "mediaDuration" : 233,
                            "scalar" : 1,
                            "metadata" : {
                              "clipSpeedAttribute" : false
                            },
                            "animationTracks" : {

                            }
                          }
                        ],
                          "ident" : "",
                          "audioMuted" : false,
                          "videoHidden" : false,
                          "magnetic" : false,
                          "matte" : 0,
                          "metadata" : {
                            "IsLocked" : "False",
                            "WinTrackHeight" : "2.73433861813637e-312"
                          }
                      }
                    ],
                    "attributes" : {
                      "ident" : "Group 7",
                      "gain" : 1.0,
                      "mixToMono" : false
                    },
                    "effects" : [

                    ],
                    "start" : 10142,
                    "duration" : 263,
                    "mediaStart" : 0.0,
                    "mediaDuration" : 263.0,
                    "scalar" : 1,
                    "metadata" : {
                      "IsGroupExpanded" : "False"
                    },
                    "animationTracks" : {

                    }
                  },
                  {
                    "id" : 1785,
                    "_type" : "StitchedMedia",
                    "minMediaStart" : 0,
                    "attributes" : {
                      "ident" : "Rec 01-28-21_002",
                      "gain" : 1.0,
                      "mixToMono" : false
                    },
                    "parameters" : {
                      "volume" : 1.0,
                      "cursorOpacity" : 1.0,
                      "cursorScale" : 1.0
                    },
                    "medias" : [
                        {
                          "id" : 1786,
                          "_type" : "UnifiedMedia",
                          "video" : 
                              {
                                "id" : 1787,
                                "_type" : "ScreenVMFile",
                                "src" : 2,
                                "trackNumber" : 0,
                                "attributes" : {
                                  "ident" : "Rec 01-28-21_002"
                                },
                                "parameters" : {
                                  "cursorScale" : {
                                    "type" : "double",
                                    "defaultValue" : 0.0,
                                    "interp" : "linr"
                                  },
                                  "cursorOpacity" : {
                                    "type" : "double",
                                    "defaultValue" : 0.0,
                                    "interp" : "linr"
                                  }
                                },
                                "effects" : [

                                ],
                                "start" : 0,
                                "duration" : 6948,
                                "mediaStart" : 0,
                                "mediaDuration" : 6948,
                                "scalar" : 1,
                                "animationTracks" : {

                                }
                              },
                          "audio" : 
                              {
                                "id" : 1788,
                                "_type" : "AMFile",
                                "src" : 2,
                                "trackNumber" : 1,
                                "attributes" : {
                                  "ident" : "",
                                  "gain" : 1.0,
                                  "mixToMono" : false
                                },
                                  "channelNumber" : "0,1",
                                "effects" : [

                                ],
                                "start" : 0,
                                "duration" : 6948,
                                "mediaStart" : 0,
                                "mediaDuration" : 6948,
                                "scalar" : 1,
                                "animationTracks" : {

                                }
                              }
,
                          "start" : 0,
                          "duration" : 6948,
                          "mediaStart" : 0,
                          "mediaDuration" : 12151,
                          "scalar" : 1,
                          "metadata" : {
                            "AutoAppliedSmartFocus" : "False",
                            "clipSpeedAttribute" : false
                          }
                        },
                        {
                          "id" : 1789,
                          "_type" : "UnifiedMedia",
                          "video" : 
                              {
                                "id" : 1790,
                                "_type" : "ScreenVMFile",
                                "src" : 2,
                                "trackNumber" : 0,
                                "attributes" : {
                                  "ident" : "Rec 01-28-21_002"
                                },
                                "parameters" : {
                                  "cursorScale" : {
                                    "type" : "double",
                                    "defaultValue" : 0.0,
                                    "interp" : "linr"
                                  },
                                  "cursorOpacity" : {
                                    "type" : "double",
                                    "defaultValue" : 0.0,
                                    "interp" : "linr"
                                  }
                                },
                                "effects" : [

                                ],
                                "start" : 6948,
                                "duration" : 174,
                                "mediaStart" : 6966,
                                "mediaDuration" : 174,
                                "scalar" : 1,
                                "animationTracks" : {

                                }
                              },
                          "audio" : 
                              {
                                "id" : 1791,
                                "_type" : "AMFile",
                                "src" : 2,
                                "trackNumber" : 1,
                                "attributes" : {
                                  "ident" : "",
                                  "gain" : 1.0,
                                  "mixToMono" : false
                                },
                                  "channelNumber" : "0,1",
                                "effects" : [

                                ],
                                "start" : 6948,
                                "duration" : 174,
                                "mediaStart" : 6966,
                                "mediaDuration" : 174,
                                "scalar" : 1,
                                "animationTracks" : {

                                }
                              }
,
                          "start" : 6948,
                          "duration" : 174,
                          "mediaStart" : 0,
                          "mediaDuration" : 12151,
                          "scalar" : 1,
                          "metadata" : {
                            "AutoAppliedSmartFocus" : "False",
                            "clipSpeedAttribute" : false
                          }
                        },
                        {
                          "id" : 1792,
                          "_type" : "UnifiedMedia",
                          "video" : 
                              {
                                "id" : 1793,
                                "_type" : "ScreenVMFile",
                                "src" : 2,
                                "trackNumber" : 0,
                                "attributes" : {
                                  "ident" : "Rec 01-28-21_002"
                                },
                                "parameters" : {
                                  "cursorScale" : {
                                    "type" : "double",
                                    "defaultValue" : 0.0,
                                    "interp" : "linr"
                                  },
                                  "cursorOpacity" : {
                                    "type" : "double",
                                    "defaultValue" : 0.0,
                                    "interp" : "linr"
                                  }
                                },
                                "effects" : [

                                ],
                                "start" : 7122,
                                "duration" : 1797,
                                "mediaStart" : 7338,
                                "mediaDuration" : 1797,
                                "scalar" : 1,
                                "animationTracks" : {

                                }
                              },
                          "audio" : 
                              {
                                "id" : 1794,
                                "_type" : "AMFile",
                                "src" : 2,
                                "trackNumber" : 1,
                                "attributes" : {
                                  "ident" : "",
                                  "gain" : 1.0,
                                  "mixToMono" : false
                                },
                                  "channelNumber" : "0,1",
                                "effects" : [

                                ],
                                "start" : 7122,
                                "duration" : 1797,
                                "mediaStart" : 7338,
                                "mediaDuration" : 1797,
                                "scalar" : 1,
                                "animationTracks" : {

                                }
                              }
,
                          "start" : 7122,
                          "duration" : 1797,
                          "mediaStart" : 0,
                          "mediaDuration" : 12151,
                          "scalar" : 1,
                          "metadata" : {
                            "AutoAppliedSmartFocus" : "False",
                            "clipSpeedAttribute" : false
                          }
                        },
                        {
                          "id" : 1795,
                          "_type" : "UnifiedMedia",
                          "video" : 
                              {
                                "id" : 1796,
                                "_type" : "ScreenVMFile",
                                "src" : 2,
                                "trackNumber" : 0,
                                "attributes" : {
                                  "ident" : "Rec 01-28-21_002"
                                },
                                "parameters" : {
                                  "cursorScale" : {
                                    "type" : "double",
                                    "defaultValue" : 0.0,
                                    "interp" : "linr"
                                  },
                                  "cursorOpacity" : {
                                    "type" : "double",
                                    "defaultValue" : 0.0,
                                    "interp" : "linr"
                                  }
                                },
                                "effects" : [

                                ],
                                "start" : 8919,
                                "duration" : 19,
                                "mediaStart" : 9144,
                                "mediaDuration" : 19,
                                "scalar" : 1,
                                "animationTracks" : {

                                }
                              },
                          "audio" : 
                              {
                                "id" : 1797,
                                "_type" : "AMFile",
                                "src" : 2,
                                "trackNumber" : 1,
                                "attributes" : {
                                  "ident" : "",
                                  "gain" : 1.0,
                                  "mixToMono" : false
                                },
                                  "channelNumber" : "0,1",
                                "effects" : [

                                ],
                                "start" : 8919,
                                "duration" : 19,
                                "mediaStart" : 9144,
                                "mediaDuration" : 19,
                                "scalar" : 1,
                                "animationTracks" : {

                                }
                              }
,
                          "start" : 8919,
                          "duration" : 19,
                          "mediaStart" : 0,
                          "mediaDuration" : 12151,
                          "scalar" : 1,
                          "metadata" : {
                            "AutoAppliedSmartFocus" : "False",
                            "clipSpeedAttribute" : false
                          }
                        },
                        {
                          "id" : 1798,
                          "_type" : "UnifiedMedia",
                          "video" : 
                              {
                                "id" : 1799,
                                "_type" : "ScreenVMFile",
                                "src" : 2,
                                "trackNumber" : 0,
                                "attributes" : {
                                  "ident" : "Rec 01-28-21_002"
                                },
                                "parameters" : {
                                  "cursorScale" : {
                                    "type" : "double",
                                    "defaultValue" : 0.0,
                                    "interp" : "linr"
                                  },
                                  "cursorOpacity" : {
                                    "type" : "double",
                                    "defaultValue" : 0.0,
                                    "interp" : "linr"
                                  }
                                },
                                "effects" : [

                                ],
                                "start" : 8938,
                                "duration" : 80,
                                "mediaStart" : 9187,
                                "mediaDuration" : 80,
                                "scalar" : 1,
                                "animationTracks" : {

                                }
                              },
                          "audio" : 
                              {
                                "id" : 1800,
                                "_type" : "AMFile",
                                "src" : 2,
                                "trackNumber" : 1,
                                "attributes" : {
                                  "ident" : "",
                                  "gain" : 1.0,
                                  "mixToMono" : false
                                },
                                  "channelNumber" : "0,1",
                                "effects" : [

                                ],
                                "start" : 8938,
                                "duration" : 80,
                                "mediaStart" : 9187,
                                "mediaDuration" : 80,
                                "scalar" : 1,
                                "animationTracks" : {

                                }
                              }
,
                          "start" : 8938,
                          "duration" : 80,
                          "mediaStart" : 0,
                          "mediaDuration" : 12151,
                          "scalar" : 1,
                          "metadata" : {
                            "AutoAppliedSmartFocus" : "False",
                            "clipSpeedAttribute" : false
                          }
                        },
                        {
                          "id" : 1801,
                          "_type" : "UnifiedMedia",
                          "video" : 
                              {
                                "id" : 1802,
                                "_type" : "ScreenVMFile",
                                "src" : 2,
                                "trackNumber" : 0,
                                "attributes" : {
                                  "ident" : "Rec 01-28-21_002"
                                },
                                "parameters" : {
                                  "cursorScale" : {
                                    "type" : "double",
                                    "defaultValue" : 0.0,
                                    "interp" : "linr"
                                  },
                                  "cursorOpacity" : {
                                    "type" : "double",
                                    "defaultValue" : 0.0,
                                    "interp" : "linr"
                                  }
                                },
                                "effects" : [

                                ],
                                "start" : 9018,
                                "duration" : 58,
                                "mediaStart" : 9358,
                                "mediaDuration" : 58,
                                "scalar" : 1,
                                "animationTracks" : {

                                }
                              },
                          "audio" : 
                              {
                                "id" : 1803,
                                "_type" : "AMFile",
                                "src" : 2,
                                "trackNumber" : 1,
                                "attributes" : {
                                  "ident" : "",
                                  "gain" : 1.0,
                                  "mixToMono" : false
                                },
                                  "channelNumber" : "0,1",
                                "effects" : [

                                ],
                                "start" : 9018,
                                "duration" : 58,
                                "mediaStart" : 9358,
                                "mediaDuration" : 58,
                                "scalar" : 1,
                                "animationTracks" : {

                                }
                              }
,
                          "start" : 9018,
                          "duration" : 58,
                          "mediaStart" : 0,
                          "mediaDuration" : 12151,
                          "scalar" : 1,
                          "metadata" : {
                            "AutoAppliedSmartFocus" : "False",
                            "clipSpeedAttribute" : false
                          }
                        },
                        {
                          "id" : 1804,
                          "_type" : "UnifiedMedia",
                          "video" : 
                              {
                                "id" : 1805,
                                "_type" : "ScreenVMFile",
                                "src" : 2,
                                "trackNumber" : 0,
                                "attributes" : {
                                  "ident" : "Rec 01-28-21_002"
                                },
                                "parameters" : {
                                  "cursorScale" : {
                                    "type" : "double",
                                    "defaultValue" : 0.0,
                                    "interp" : "linr"
                                  },
                                  "cursorOpacity" : {
                                    "type" : "double",
                                    "defaultValue" : 0.0,
                                    "interp" : "linr"
                                  }
                                },
                                "effects" : [

                                ],
                                "start" : 9076,
                                "duration" : 3,
                                "mediaStart" : 9537,
                                "mediaDuration" : 3,
                                "scalar" : 1,
                                "animationTracks" : {

                                }
                              },
                          "audio" : 
                              {
                                "id" : 1806,
                                "_type" : "AMFile",
                                "src" : 2,
                                "trackNumber" : 1,
                                "attributes" : {
                                  "ident" : "",
                                  "gain" : 1.0,
                                  "mixToMono" : false
                                },
                                  "channelNumber" : "0,1",
                                "effects" : [

                                ],
                                "start" : 9076,
                                "duration" : 3,
                                "mediaStart" : 9537,
                                "mediaDuration" : 3,
                                "scalar" : 1,
                                "animationTracks" : {

                                }
                              }
,
                          "start" : 9076,
                          "duration" : 3,
                          "mediaStart" : 0,
                          "mediaDuration" : 12151,
                          "scalar" : 1,
                          "metadata" : {
                            "AutoAppliedSmartFocus" : "False",
                            "clipSpeedAttribute" : false
                          }
                        },
                        {
                          "id" : 1807,
                          "_type" : "UnifiedMedia",
                          "video" : 
                              {
                                "id" : 1808,
                                "_type" : "ScreenVMFile",
                                "src" : 2,
                                "trackNumber" : 0,
                                "attributes" : {
                                  "ident" : "Rec 01-28-21_002"
                                },
                                "parameters" : {
                                  "cursorScale" : {
                                    "type" : "double",
                                    "defaultValue" : 0.0,
                                    "interp" : "linr"
                                  },
                                  "cursorOpacity" : {
                                    "type" : "double",
                                    "defaultValue" : 0.0,
                                    "interp" : "linr"
                                  }
                                },
                                "effects" : [

                                ],
                                "start" : 9079,
                                "duration" : 155,
                                "mediaStart" : 9754,
                                "mediaDuration" : 155,
                                "scalar" : 1,
                                "animationTracks" : {

                                }
                              },
                          "audio" : 
                              {
                                "id" : 1809,
                                "_type" : "AMFile",
                                "src" : 2,
                                "trackNumber" : 1,
                                "attributes" : {
                                  "ident" : "",
                                  "gain" : 1.0,
                                  "mixToMono" : false
                                },
                                  "channelNumber" : "0,1",
                                "effects" : [

                                ],
                                "start" : 9079,
                                "duration" : 155,
                                "mediaStart" : 9754,
                                "mediaDuration" : 155,
                                "scalar" : 1,
                                "animationTracks" : {

                                }
                              }
,
                          "start" : 9079,
                          "duration" : 155,
                          "mediaStart" : 0,
                          "mediaDuration" : 12151,
                          "scalar" : 1,
                          "metadata" : {
                            "AutoAppliedSmartFocus" : "False",
                            "clipSpeedAttribute" : false
                          }
                        },
                        {
                          "id" : 1810,
                          "_type" : "UnifiedMedia",
                          "video" : 
                              {
                                "id" : 1811,
                                "_type" : "ScreenVMFile",
                                "src" : 2,
                                "trackNumber" : 0,
                                "attributes" : {
                                  "ident" : "Rec 01-28-21_002"
                                },
                                "parameters" : {
                                  "cursorScale" : {
                                    "type" : "double",
                                    "defaultValue" : 0.0,
                                    "interp" : "linr"
                                  },
                                  "cursorOpacity" : {
                                    "type" : "double",
                                    "defaultValue" : 0.0,
                                    "interp" : "linr"
                                  }
                                },
                                "effects" : [

                                ],
                                "start" : 9234,
                                "duration" : 140,
                                "mediaStart" : 9929,
                                "mediaDuration" : 140,
                                "scalar" : 1,
                                "animationTracks" : {

                                }
                              },
                          "audio" : 
                              {
                                "id" : 1812,
                                "_type" : "AMFile",
                                "src" : 2,
                                "trackNumber" : 1,
                                "attributes" : {
                                  "ident" : "",
                                  "gain" : 1.0,
                                  "mixToMono" : false
                                },
                                  "channelNumber" : "0,1",
                                "effects" : [

                                ],
                                "start" : 9234,
                                "duration" : 140,
                                "mediaStart" : 9929,
                                "mediaDuration" : 140,
                                "scalar" : 1,
                                "animationTracks" : {

                                }
                              }
,
                          "start" : 9234,
                          "duration" : 140,
                          "mediaStart" : 0,
                          "mediaDuration" : 12151,
                          "scalar" : 1,
                          "metadata" : {
                            "AutoAppliedSmartFocus" : "False",
                            "clipSpeedAttribute" : false
                          }
                        },
                        {
                          "id" : 1813,
                          "_type" : "UnifiedMedia",
                          "video" : 
                              {
                                "id" : 1814,
                                "_type" : "ScreenVMFile",
                                "src" : 2,
                                "trackNumber" : 0,
                                "attributes" : {
                                  "ident" : "Rec 01-28-21_002"
                                },
                                "parameters" : {
                                  "cursorScale" : {
                                    "type" : "double",
                                    "defaultValue" : 0.0,
                                    "interp" : "linr"
                                  },
                                  "cursorOpacity" : {
                                    "type" : "double",
                                    "defaultValue" : 0.0,
                                    "interp" : "linr"
                                  }
                                },
                                "effects" : [

                                ],
                                "start" : 9374,
                                "duration" : 93,
                                "mediaStart" : 10080,
                                "mediaDuration" : 93,
                                "scalar" : 1,
                                "animationTracks" : {

                                }
                              },
                          "audio" : 
                              {
                                "id" : 1815,
                                "_type" : "AMFile",
                                "src" : 2,
                                "trackNumber" : 1,
                                "attributes" : {
                                  "ident" : "",
                                  "gain" : 1.0,
                                  "mixToMono" : false
                                },
                                  "channelNumber" : "0,1",
                                "effects" : [

                                ],
                                "start" : 9374,
                                "duration" : 93,
                                "mediaStart" : 10080,
                                "mediaDuration" : 93,
                                "scalar" : 1,
                                "animationTracks" : {

                                }
                              }
,
                          "start" : 9374,
                          "duration" : 93,
                          "mediaStart" : 0,
                          "mediaDuration" : 12151,
                          "scalar" : 1,
                          "metadata" : {
                            "AutoAppliedSmartFocus" : "False",
                            "clipSpeedAttribute" : false
                          }
                        },
                        {
                          "id" : 1816,
                          "_type" : "UnifiedMedia",
                          "video" : 
                              {
                                "id" : 1817,
                                "_type" : "ScreenVMFile",
                                "src" : 2,
                                "trackNumber" : 0,
                                "attributes" : {
                                  "ident" : "Rec 01-28-21_002"
                                },
                                "parameters" : {
                                  "cursorScale" : {
                                    "type" : "double",
                                    "defaultValue" : 0.0,
                                    "interp" : "linr"
                                  },
                                  "cursorOpacity" : {
                                    "type" : "double",
                                    "defaultValue" : 0.0,
                                    "interp" : "linr"
                                  }
                                },
                                "effects" : [

                                ],
                                "start" : 9467,
                                "duration" : 41,
                                "mediaStart" : 10216,
                                "mediaDuration" : 41,
                                "scalar" : 1,
                                "animationTracks" : {

                                }
                              },
                          "audio" : 
                              {
                                "id" : 1818,
                                "_type" : "AMFile",
                                "src" : 2,
                                "trackNumber" : 1,
                                "attributes" : {
                                  "ident" : "",
                                  "gain" : 1.0,
                                  "mixToMono" : false
                                },
                                  "channelNumber" : "0,1",
                                "effects" : [

                                ],
                                "start" : 9467,
                                "duration" : 41,
                                "mediaStart" : 10216,
                                "mediaDuration" : 41,
                                "scalar" : 1,
                                "animationTracks" : {

                                }
                              }
,
                          "start" : 9467,
                          "duration" : 41,
                          "mediaStart" : 0,
                          "mediaDuration" : 12151,
                          "scalar" : 1,
                          "metadata" : {
                            "AutoAppliedSmartFocus" : "False",
                            "clipSpeedAttribute" : false
                          }
                        },
                        {
                          "id" : 1819,
                          "_type" : "UnifiedMedia",
                          "video" : 
                              {
                                "id" : 1820,
                                "_type" : "ScreenVMFile",
                                "src" : 2,
                                "trackNumber" : 0,
                                "attributes" : {
                                  "ident" : "Rec 01-28-21_002"
                                },
                                "parameters" : {
                                  "cursorScale" : {
                                    "type" : "double",
                                    "defaultValue" : 0.0,
                                    "interp" : "linr"
                                  },
                                  "cursorOpacity" : {
                                    "type" : "double",
                                    "defaultValue" : 0.0,
                                    "interp" : "linr"
                                  }
                                },
                                "effects" : [

                                ],
                                "start" : 9508,
                                "duration" : 96,
                                "mediaStart" : 10298,
                                "mediaDuration" : 96,
                                "scalar" : 1,
                                "animationTracks" : {

                                }
                              },
                          "audio" : 
                              {
                                "id" : 1821,
                                "_type" : "AMFile",
                                "src" : 2,
                                "trackNumber" : 1,
                                "attributes" : {
                                  "ident" : "",
                                  "gain" : 1.0,
                                  "mixToMono" : false
                                },
                                  "channelNumber" : "0,1",
                                "effects" : [

                                ],
                                "start" : 9508,
                                "duration" : 96,
                                "mediaStart" : 10298,
                                "mediaDuration" : 96,
                                "scalar" : 1,
                                "animationTracks" : {

                                }
                              }
,
                          "start" : 9508,
                          "duration" : 96,
                          "mediaStart" : 0,
                          "mediaDuration" : 12151,
                          "scalar" : 1,
                          "metadata" : {
                            "AutoAppliedSmartFocus" : "False",
                            "clipSpeedAttribute" : false
                          }
                        },
                        {
                          "id" : 1822,
                          "_type" : "UnifiedMedia",
                          "video" : 
                              {
                                "id" : 1823,
                                "_type" : "ScreenVMFile",
                                "src" : 2,
                                "trackNumber" : 0,
                                "attributes" : {
                                  "ident" : "Rec 01-28-21_002"
                                },
                                "parameters" : {
                                  "cursorScale" : {
                                    "type" : "double",
                                    "defaultValue" : 0.0,
                                    "interp" : "linr"
                                  },
                                  "cursorOpacity" : {
                                    "type" : "double",
                                    "defaultValue" : 0.0,
                                    "interp" : "linr"
                                  }
                                },
                                "effects" : [

                                ],
                                "start" : 9604,
                                "duration" : 86,
                                "mediaStart" : 10407,
                                "mediaDuration" : 86,
                                "scalar" : 1,
                                "animationTracks" : {

                                }
                              },
                          "audio" : 
                              {
                                "id" : 1824,
                                "_type" : "AMFile",
                                "src" : 2,
                                "trackNumber" : 1,
                                "attributes" : {
                                  "ident" : "",
                                  "gain" : 1.0,
                                  "mixToMono" : false
                                },
                                  "channelNumber" : "0,1",
                                "effects" : [

                                ],
                                "start" : 9604,
                                "duration" : 86,
                                "mediaStart" : 10407,
                                "mediaDuration" : 86,
                                "scalar" : 1,
                                "animationTracks" : {

                                }
                              }
,
                          "start" : 9604,
                          "duration" : 86,
                          "mediaStart" : 0,
                          "mediaDuration" : 12151,
                          "scalar" : 1,
                          "metadata" : {
                            "AutoAppliedSmartFocus" : "False",
                            "clipSpeedAttribute" : false
                          }
                        },
                        {
                          "id" : 1825,
                          "_type" : "UnifiedMedia",
                          "video" : 
                              {
                                "id" : 1826,
                                "_type" : "ScreenVMFile",
                                "src" : 2,
                                "trackNumber" : 0,
                                "attributes" : {
                                  "ident" : "Rec 01-28-21_002"
                                },
                                "parameters" : {
                                  "cursorScale" : {
                                    "type" : "double",
                                    "defaultValue" : 0.0,
                                    "interp" : "linr"
                                  },
                                  "cursorOpacity" : {
                                    "type" : "double",
                                    "defaultValue" : 0.0,
                                    "interp" : "linr"
                                  }
                                },
                                "effects" : [

                                ],
                                "start" : 9690,
                                "duration" : 36,
                                "mediaStart" : 10511,
                                "mediaDuration" : 36,
                                "scalar" : 1,
                                "animationTracks" : {

                                }
                              },
                          "audio" : 
                              {
                                "id" : 1827,
                                "_type" : "AMFile",
                                "src" : 2,
                                "trackNumber" : 1,
                                "attributes" : {
                                  "ident" : "",
                                  "gain" : 1.0,
                                  "mixToMono" : false
                                },
                                  "channelNumber" : "0,1",
                                "effects" : [

                                ],
                                "start" : 9690,
                                "duration" : 36,
                                "mediaStart" : 10511,
                                "mediaDuration" : 36,
                                "scalar" : 1,
                                "animationTracks" : {

                                }
                              }
,
                          "start" : 9690,
                          "duration" : 36,
                          "mediaStart" : 0,
                          "mediaDuration" : 12151,
                          "scalar" : 1,
                          "metadata" : {
                            "AutoAppliedSmartFocus" : "False",
                            "clipSpeedAttribute" : false
                          }
                        },
                        {
                          "id" : 1828,
                          "_type" : "UnifiedMedia",
                          "video" : 
                              {
                                "id" : 1829,
                                "_type" : "ScreenVMFile",
                                "src" : 2,
                                "trackNumber" : 0,
                                "attributes" : {
                                  "ident" : "Rec 01-28-21_002"
                                },
                                "parameters" : {
                                  "cursorScale" : {
                                    "type" : "double",
                                    "defaultValue" : 0.0,
                                    "interp" : "linr"
                                  },
                                  "cursorOpacity" : {
                                    "type" : "double",
                                    "defaultValue" : 0.0,
                                    "interp" : "linr"
                                  }
                                },
                                "effects" : [

                                ],
                                "start" : 9726,
                                "duration" : 39,
                                "mediaStart" : 10619,
                                "mediaDuration" : 39,
                                "scalar" : 1,
                                "animationTracks" : {

                                }
                              },
                          "audio" : 
                              {
                                "id" : 1830,
                                "_type" : "AMFile",
                                "src" : 2,
                                "trackNumber" : 1,
                                "attributes" : {
                                  "ident" : "",
                                  "gain" : 1.0,
                                  "mixToMono" : false
                                },
                                  "channelNumber" : "0,1",
                                "effects" : [

                                ],
                                "start" : 9726,
                                "duration" : 39,
                                "mediaStart" : 10619,
                                "mediaDuration" : 39,
                                "scalar" : 1,
                                "animationTracks" : {

                                }
                              }
,
                          "start" : 9726,
                          "duration" : 39,
                          "mediaStart" : 0,
                          "mediaDuration" : 12151,
                          "scalar" : 1,
                          "metadata" : {
                            "AutoAppliedSmartFocus" : "False",
                            "clipSpeedAttribute" : false
                          }
                        },
                        {
                          "id" : 1831,
                          "_type" : "UnifiedMedia",
                          "video" : 
                              {
                                "id" : 1832,
                                "_type" : "ScreenVMFile",
                                "src" : 2,
                                "trackNumber" : 0,
                                "attributes" : {
                                  "ident" : "Rec 01-28-21_002"
                                },
                                "parameters" : {
                                  "cursorScale" : {
                                    "type" : "double",
                                    "defaultValue" : 0.0,
                                    "interp" : "linr"
                                  },
                                  "cursorOpacity" : {
                                    "type" : "double",
                                    "defaultValue" : 0.0,
                                    "interp" : "linr"
                                  }
                                },
                                "effects" : [

                                ],
                                "start" : 9765,
                                "duration" : 174,
                                "mediaStart" : 10684,
                                "mediaDuration" : 174,
                                "scalar" : 1,
                                "animationTracks" : {

                                }
                              },
                          "audio" : 
                              {
                                "id" : 1833,
                                "_type" : "AMFile",
                                "src" : 2,
                                "trackNumber" : 1,
                                "attributes" : {
                                  "ident" : "",
                                  "gain" : 1.0,
                                  "mixToMono" : false
                                },
                                  "channelNumber" : "0,1",
                                "effects" : [

                                ],
                                "start" : 9765,
                                "duration" : 174,
                                "mediaStart" : 10684,
                                "mediaDuration" : 174,
                                "scalar" : 1,
                                "animationTracks" : {

                                }
                              }
,
                          "start" : 9765,
                          "duration" : 174,
                          "mediaStart" : 0,
                          "mediaDuration" : 12151,
                          "scalar" : 1,
                          "metadata" : {
                            "AutoAppliedSmartFocus" : "False",
                            "clipSpeedAttribute" : false
                          }
                        },
                        {
                          "id" : 1834,
                          "_type" : "UnifiedMedia",
                          "video" : 
                              {
                                "id" : 1835,
                                "_type" : "ScreenVMFile",
                                "src" : 2,
                                "trackNumber" : 0,
                                "attributes" : {
                                  "ident" : "Rec 01-28-21_002"
                                },
                                "parameters" : {
                                  "cursorScale" : {
                                    "type" : "double",
                                    "defaultValue" : 0.0,
                                    "interp" : "linr"
                                  },
                                  "cursorOpacity" : {
                                    "type" : "double",
                                    "defaultValue" : 0.0,
                                    "interp" : "linr"
                                  }
                                },
                                "effects" : [

                                ],
                                "start" : 9939,
                                "duration" : 93,
                                "mediaStart" : 11099,
                                "mediaDuration" : 93,
                                "scalar" : 1,
                                "animationTracks" : {

                                }
                              },
                          "audio" : 
                              {
                                "id" : 1836,
                                "_type" : "AMFile",
                                "src" : 2,
                                "trackNumber" : 1,
                                "attributes" : {
                                  "ident" : "",
                                  "gain" : 1.0,
                                  "mixToMono" : false
                                },
                                  "channelNumber" : "0,1",
                                "effects" : [

                                ],
                                "start" : 9939,
                                "duration" : 93,
                                "mediaStart" : 11099,
                                "mediaDuration" : 93,
                                "scalar" : 1,
                                "animationTracks" : {

                                }
                              }
,
                          "start" : 9939,
                          "duration" : 93,
                          "mediaStart" : 0,
                          "mediaDuration" : 12151,
                          "scalar" : 1,
                          "metadata" : {
                            "AutoAppliedSmartFocus" : "False",
                            "clipSpeedAttribute" : false
                          }
                        },
                        {
                          "id" : 1837,
                          "_type" : "UnifiedMedia",
                          "video" : 
                              {
                                "id" : 1838,
                                "_type" : "ScreenVMFile",
                                "src" : 2,
                                "trackNumber" : 0,
                                "attributes" : {
                                  "ident" : "Rec 01-28-21_002"
                                },
                                "parameters" : {
                                  "cursorScale" : {
                                    "type" : "double",
                                    "defaultValue" : 0.0,
                                    "interp" : "linr"
                                  },
                                  "cursorOpacity" : {
                                    "type" : "double",
                                    "defaultValue" : 0.0,
                                    "interp" : "linr"
                                  }
                                },
                                "effects" : [

                                ],
                                "start" : 10032,
                                "duration" : 635,
                                "mediaStart" : 11516,
                                "mediaDuration" : 635,
                                "scalar" : 1,
                                "animationTracks" : {

                                }
                              },
                          "audio" : 
                              {
                                "id" : 1839,
                                "_type" : "AMFile",
                                "src" : 2,
                                "trackNumber" : 1,
                                "attributes" : {
                                  "ident" : "",
                                  "gain" : 1.0,
                                  "mixToMono" : false
                                },
                                  "channelNumber" : "0,1",
                                "effects" : [

                                ],
                                "start" : 10032,
                                "duration" : 635,
                                "mediaStart" : 11516,
                                "mediaDuration" : 635,
                                "scalar" : 1,
                                "animationTracks" : {

                                }
                              }
,
                          "start" : 10032,
                          "duration" : 635,
                          "mediaStart" : 0,
                          "mediaDuration" : 12151,
                          "scalar" : 1,
                          "metadata" : {
                            "AutoAppliedSmartFocus" : "False",
                            "clipSpeedAttribute" : false
                          }
                        }
                    ],
                    "effects" : [

                    ],
                    "start" : 10405,
                    "duration" : 135,
                    "mediaStart" : 8884,
                    "mediaDuration" : 135,
                    "scalar" : 1,
                    "metadata" : {
                      "AutoAppliedSmartFocus" : "False",
                      "clipSpeedAttribute" : false
                    },
                    "animationTracks" : {

                    }
                  },
                  {
                    "id" : 1840,
                    "_type" : "Group",
                    "parameters" : {
                      "volume" : 1.0
                    },
                    "tracks" : [
                      {
                        "trackIndex" : 0,
                        "medias" : [
                          {
                            "id" : 1841,
                            "_type" : "StitchedMedia",
                            "minMediaStart" : 0,
                            "attributes" : {
                              "ident" : "Rec 01-28-21_002",
                              "gain" : 1.0,
                              "mixToMono" : false
                            },
                            "parameters" : {
                              "cursorOpacity" : 1.0,
                              "cursorScale" : 1.0
                            },
                            "medias" : [
                                {
                                  "id" : 1842,
                                  "_type" : "ScreenVMFile",
                                  "src" : 2,
                                  "trackNumber" : 0,
                                  "attributes" : {
                                    "ident" : "Rec 01-28-21_002"
                                  },
                                  "parameters" : {
                                    "cursorScale" : {
                                      "type" : "double",
                                      "defaultValue" : 0.0,
                                      "interp" : "linr"
                                    },
                                    "cursorOpacity" : {
                                      "type" : "double",
                                      "defaultValue" : 0.0,
                                      "interp" : "linr"
                                    }
                                  },
                                  "effects" : [

                                  ],
                                  "start" : 0,
                                  "duration" : 6948,
                                  "mediaStart" : 0,
                                  "mediaDuration" : 6948,
                                  "scalar" : 1,
                                  "metadata" : {
                                    "AutoAppliedSmartFocus" : "False"
                                  },
                                  "animationTracks" : {

                                  }
                                },
                                {
                                  "id" : 1843,
                                  "_type" : "ScreenVMFile",
                                  "src" : 2,
                                  "trackNumber" : 0,
                                  "attributes" : {
                                    "ident" : "Rec 01-28-21_002"
                                  },
                                  "parameters" : {
                                    "cursorScale" : {
                                      "type" : "double",
                                      "defaultValue" : 0.0,
                                      "interp" : "linr"
                                    },
                                    "cursorOpacity" : {
                                      "type" : "double",
                                      "defaultValue" : 0.0,
                                      "interp" : "linr"
                                    }
                                  },
                                  "effects" : [

                                  ],
                                  "start" : 6948,
                                  "duration" : 174,
                                  "mediaStart" : 6966,
                                  "mediaDuration" : 174,
                                  "scalar" : 1,
                                  "metadata" : {
                                    "AutoAppliedSmartFocus" : "False"
                                  },
                                  "animationTracks" : {

                                  }
                                },
                                {
                                  "id" : 1844,
                                  "_type" : "ScreenVMFile",
                                  "src" : 2,
                                  "trackNumber" : 0,
                                  "attributes" : {
                                    "ident" : "Rec 01-28-21_002"
                                  },
                                  "parameters" : {
                                    "cursorScale" : {
                                      "type" : "double",
                                      "defaultValue" : 0.0,
                                      "interp" : "linr"
                                    },
                                    "cursorOpacity" : {
                                      "type" : "double",
                                      "defaultValue" : 0.0,
                                      "interp" : "linr"
                                    }
                                  },
                                  "effects" : [

                                  ],
                                  "start" : 7122,
                                  "duration" : 1797,
                                  "mediaStart" : 7338,
                                  "mediaDuration" : 1797,
                                  "scalar" : 1,
                                  "metadata" : {
                                    "AutoAppliedSmartFocus" : "False"
                                  },
                                  "animationTracks" : {

                                  }
                                },
                                {
                                  "id" : 1845,
                                  "_type" : "ScreenVMFile",
                                  "src" : 2,
                                  "trackNumber" : 0,
                                  "attributes" : {
                                    "ident" : "Rec 01-28-21_002"
                                  },
                                  "parameters" : {
                                    "cursorScale" : {
                                      "type" : "double",
                                      "defaultValue" : 0.0,
                                      "interp" : "linr"
                                    },
                                    "cursorOpacity" : {
                                      "type" : "double",
                                      "defaultValue" : 0.0,
                                      "interp" : "linr"
                                    }
                                  },
                                  "effects" : [

                                  ],
                                  "start" : 8919,
                                  "duration" : 19,
                                  "mediaStart" : 9144,
                                  "mediaDuration" : 19,
                                  "scalar" : 1,
                                  "metadata" : {
                                    "AutoAppliedSmartFocus" : "False"
                                  },
                                  "animationTracks" : {

                                  }
                                },
                                {
                                  "id" : 1846,
                                  "_type" : "ScreenVMFile",
                                  "src" : 2,
                                  "trackNumber" : 0,
                                  "attributes" : {
                                    "ident" : "Rec 01-28-21_002"
                                  },
                                  "parameters" : {
                                    "cursorScale" : {
                                      "type" : "double",
                                      "defaultValue" : 0.0,
                                      "interp" : "linr"
                                    },
                                    "cursorOpacity" : {
                                      "type" : "double",
                                      "defaultValue" : 0.0,
                                      "interp" : "linr"
                                    }
                                  },
                                  "effects" : [

                                  ],
                                  "start" : 8938,
                                  "duration" : 80,
                                  "mediaStart" : 9187,
                                  "mediaDuration" : 80,
                                  "scalar" : 1,
                                  "metadata" : {
                                    "AutoAppliedSmartFocus" : "False"
                                  },
                                  "animationTracks" : {

                                  }
                                },
                                {
                                  "id" : 1847,
                                  "_type" : "ScreenVMFile",
                                  "src" : 2,
                                  "trackNumber" : 0,
                                  "attributes" : {
                                    "ident" : "Rec 01-28-21_002"
                                  },
                                  "parameters" : {
                                    "cursorScale" : {
                                      "type" : "double",
                                      "defaultValue" : 0.0,
                                      "interp" : "linr"
                                    },
                                    "cursorOpacity" : {
                                      "type" : "double",
                                      "defaultValue" : 0.0,
                                      "interp" : "linr"
                                    }
                                  },
                                  "effects" : [

                                  ],
                                  "start" : 9018,
                                  "duration" : 58,
                                  "mediaStart" : 9358,
                                  "mediaDuration" : 58,
                                  "scalar" : 1,
                                  "metadata" : {
                                    "AutoAppliedSmartFocus" : "False"
                                  },
                                  "animationTracks" : {

                                  }
                                },
                                {
                                  "id" : 1848,
                                  "_type" : "ScreenVMFile",
                                  "src" : 2,
                                  "trackNumber" : 0,
                                  "attributes" : {
                                    "ident" : "Rec 01-28-21_002"
                                  },
                                  "parameters" : {
                                    "cursorScale" : {
                                      "type" : "double",
                                      "defaultValue" : 0.0,
                                      "interp" : "linr"
                                    },
                                    "cursorOpacity" : {
                                      "type" : "double",
                                      "defaultValue" : 0.0,
                                      "interp" : "linr"
                                    }
                                  },
                                  "effects" : [

                                  ],
                                  "start" : 9076,
                                  "duration" : 3,
                                  "mediaStart" : 9537,
                                  "mediaDuration" : 3,
                                  "scalar" : 1,
                                  "metadata" : {
                                    "AutoAppliedSmartFocus" : "False"
                                  },
                                  "animationTracks" : {

                                  }
                                },
                                {
                                  "id" : 1849,
                                  "_type" : "ScreenVMFile",
                                  "src" : 2,
                                  "trackNumber" : 0,
                                  "attributes" : {
                                    "ident" : "Rec 01-28-21_002"
                                  },
                                  "parameters" : {
                                    "cursorScale" : {
                                      "type" : "double",
                                      "defaultValue" : 0.0,
                                      "interp" : "linr"
                                    },
                                    "cursorOpacity" : {
                                      "type" : "double",
                                      "defaultValue" : 0.0,
                                      "interp" : "linr"
                                    }
                                  },
                                  "effects" : [

                                  ],
                                  "start" : 9079,
                                  "duration" : 155,
                                  "mediaStart" : 9754,
                                  "mediaDuration" : 155,
                                  "scalar" : 1,
                                  "metadata" : {
                                    "AutoAppliedSmartFocus" : "False"
                                  },
                                  "animationTracks" : {

                                  }
                                },
                                {
                                  "id" : 1850,
                                  "_type" : "ScreenVMFile",
                                  "src" : 2,
                                  "trackNumber" : 0,
                                  "attributes" : {
                                    "ident" : "Rec 01-28-21_002"
                                  },
                                  "parameters" : {
                                    "cursorScale" : {
                                      "type" : "double",
                                      "defaultValue" : 0.0,
                                      "interp" : "linr"
                                    },
                                    "cursorOpacity" : {
                                      "type" : "double",
                                      "defaultValue" : 0.0,
                                      "interp" : "linr"
                                    }
                                  },
                                  "effects" : [

                                  ],
                                  "start" : 9234,
                                  "duration" : 140,
                                  "mediaStart" : 9929,
                                  "mediaDuration" : 140,
                                  "scalar" : 1,
                                  "metadata" : {
                                    "AutoAppliedSmartFocus" : "False"
                                  },
                                  "animationTracks" : {

                                  }
                                },
                                {
                                  "id" : 1851,
                                  "_type" : "ScreenVMFile",
                                  "src" : 2,
                                  "trackNumber" : 0,
                                  "attributes" : {
                                    "ident" : "Rec 01-28-21_002"
                                  },
                                  "parameters" : {
                                    "cursorScale" : {
                                      "type" : "double",
                                      "defaultValue" : 0.0,
                                      "interp" : "linr"
                                    },
                                    "cursorOpacity" : {
                                      "type" : "double",
                                      "defaultValue" : 0.0,
                                      "interp" : "linr"
                                    }
                                  },
                                  "effects" : [

                                  ],
                                  "start" : 9374,
                                  "duration" : 93,
                                  "mediaStart" : 10080,
                                  "mediaDuration" : 93,
                                  "scalar" : 1,
                                  "metadata" : {
                                    "AutoAppliedSmartFocus" : "False"
                                  },
                                  "animationTracks" : {

                                  }
                                },
                                {
                                  "id" : 1852,
                                  "_type" : "ScreenVMFile",
                                  "src" : 2,
                                  "trackNumber" : 0,
                                  "attributes" : {
                                    "ident" : "Rec 01-28-21_002"
                                  },
                                  "parameters" : {
                                    "cursorScale" : {
                                      "type" : "double",
                                      "defaultValue" : 0.0,
                                      "interp" : "linr"
                                    },
                                    "cursorOpacity" : {
                                      "type" : "double",
                                      "defaultValue" : 0.0,
                                      "interp" : "linr"
                                    }
                                  },
                                  "effects" : [

                                  ],
                                  "start" : 9467,
                                  "duration" : 41,
                                  "mediaStart" : 10216,
                                  "mediaDuration" : 41,
                                  "scalar" : 1,
                                  "metadata" : {
                                    "AutoAppliedSmartFocus" : "False"
                                  },
                                  "animationTracks" : {

                                  }
                                },
                                {
                                  "id" : 1853,
                                  "_type" : "ScreenVMFile",
                                  "src" : 2,
                                  "trackNumber" : 0,
                                  "attributes" : {
                                    "ident" : "Rec 01-28-21_002"
                                  },
                                  "parameters" : {
                                    "cursorScale" : {
                                      "type" : "double",
                                      "defaultValue" : 0.0,
                                      "interp" : "linr"
                                    },
                                    "cursorOpacity" : {
                                      "type" : "double",
                                      "defaultValue" : 0.0,
                                      "interp" : "linr"
                                    }
                                  },
                                  "effects" : [

                                  ],
                                  "start" : 9508,
                                  "duration" : 96,
                                  "mediaStart" : 10298,
                                  "mediaDuration" : 96,
                                  "scalar" : 1,
                                  "metadata" : {
                                    "AutoAppliedSmartFocus" : "False"
                                  },
                                  "animationTracks" : {

                                  }
                                },
                                {
                                  "id" : 1854,
                                  "_type" : "ScreenVMFile",
                                  "src" : 2,
                                  "trackNumber" : 0,
                                  "attributes" : {
                                    "ident" : "Rec 01-28-21_002"
                                  },
                                  "parameters" : {
                                    "cursorScale" : {
                                      "type" : "double",
                                      "defaultValue" : 0.0,
                                      "interp" : "linr"
                                    },
                                    "cursorOpacity" : {
                                      "type" : "double",
                                      "defaultValue" : 0.0,
                                      "interp" : "linr"
                                    }
                                  },
                                  "effects" : [

                                  ],
                                  "start" : 9604,
                                  "duration" : 86,
                                  "mediaStart" : 10407,
                                  "mediaDuration" : 86,
                                  "scalar" : 1,
                                  "metadata" : {
                                    "AutoAppliedSmartFocus" : "False"
                                  },
                                  "animationTracks" : {

                                  }
                                },
                                {
                                  "id" : 1855,
                                  "_type" : "ScreenVMFile",
                                  "src" : 2,
                                  "trackNumber" : 0,
                                  "attributes" : {
                                    "ident" : "Rec 01-28-21_002"
                                  },
                                  "parameters" : {
                                    "cursorScale" : {
                                      "type" : "double",
                                      "defaultValue" : 0.0,
                                      "interp" : "linr"
                                    },
                                    "cursorOpacity" : {
                                      "type" : "double",
                                      "defaultValue" : 0.0,
                                      "interp" : "linr"
                                    }
                                  },
                                  "effects" : [

                                  ],
                                  "start" : 9690,
                                  "duration" : 36,
                                  "mediaStart" : 10511,
                                  "mediaDuration" : 36,
                                  "scalar" : 1,
                                  "metadata" : {
                                    "AutoAppliedSmartFocus" : "False"
                                  },
                                  "animationTracks" : {

                                  }
                                },
                                {
                                  "id" : 1856,
                                  "_type" : "ScreenVMFile",
                                  "src" : 2,
                                  "trackNumber" : 0,
                                  "attributes" : {
                                    "ident" : "Rec 01-28-21_002"
                                  },
                                  "parameters" : {
                                    "cursorScale" : {
                                      "type" : "double",
                                      "defaultValue" : 0.0,
                                      "interp" : "linr"
                                    },
                                    "cursorOpacity" : {
                                      "type" : "double",
                                      "defaultValue" : 0.0,
                                      "interp" : "linr"
                                    }
                                  },
                                  "effects" : [

                                  ],
                                  "start" : 9726,
                                  "duration" : 39,
                                  "mediaStart" : 10619,
                                  "mediaDuration" : 39,
                                  "scalar" : 1,
                                  "metadata" : {
                                    "AutoAppliedSmartFocus" : "False"
                                  },
                                  "animationTracks" : {

                                  }
                                },
                                {
                                  "id" : 1857,
                                  "_type" : "ScreenVMFile",
                                  "src" : 2,
                                  "trackNumber" : 0,
                                  "attributes" : {
                                    "ident" : "Rec 01-28-21_002"
                                  },
                                  "parameters" : {
                                    "cursorScale" : {
                                      "type" : "double",
                                      "defaultValue" : 0.0,
                                      "interp" : "linr"
                                    },
                                    "cursorOpacity" : {
                                      "type" : "double",
                                      "defaultValue" : 0.0,
                                      "interp" : "linr"
                                    }
                                  },
                                  "effects" : [

                                  ],
                                  "start" : 9765,
                                  "duration" : 174,
                                  "mediaStart" : 10684,
                                  "mediaDuration" : 174,
                                  "scalar" : 1,
                                  "metadata" : {
                                    "AutoAppliedSmartFocus" : "False"
                                  },
                                  "animationTracks" : {

                                  }
                                },
                                {
                                  "id" : 1858,
                                  "_type" : "ScreenVMFile",
                                  "src" : 2,
                                  "trackNumber" : 0,
                                  "attributes" : {
                                    "ident" : "Rec 01-28-21_002"
                                  },
                                  "parameters" : {
                                    "cursorScale" : {
                                      "type" : "double",
                                      "defaultValue" : 0.0,
                                      "interp" : "linr"
                                    },
                                    "cursorOpacity" : {
                                      "type" : "double",
                                      "defaultValue" : 0.0,
                                      "interp" : "linr"
                                    }
                                  },
                                  "effects" : [

                                  ],
                                  "start" : 9939,
                                  "duration" : 93,
                                  "mediaStart" : 11099,
                                  "mediaDuration" : 93,
                                  "scalar" : 1,
                                  "metadata" : {
                                    "AutoAppliedSmartFocus" : "False"
                                  },
                                  "animationTracks" : {

                                  }
                                },
                                {
                                  "id" : 1859,
                                  "_type" : "ScreenVMFile",
                                  "src" : 2,
                                  "trackNumber" : 0,
                                  "attributes" : {
                                    "ident" : "Rec 01-28-21_002"
                                  },
                                  "parameters" : {
                                    "cursorScale" : {
                                      "type" : "double",
                                      "defaultValue" : 0.0,
                                      "interp" : "linr"
                                    },
                                    "cursorOpacity" : {
                                      "type" : "double",
                                      "defaultValue" : 0.0,
                                      "interp" : "linr"
                                    }
                                  },
                                  "effects" : [

                                  ],
                                  "start" : 10032,
                                  "duration" : 635,
                                  "mediaStart" : 11516,
                                  "mediaDuration" : 635,
                                  "scalar" : 1,
                                  "metadata" : {
                                    "AutoAppliedSmartFocus" : "False"
                                  },
                                  "animationTracks" : {

                                  }
                                }
                            ],
                            "effects" : [

                            ],
                            "start" : 0,
                            "duration" : 101,
                            "mediaStart" : 9019,
                            "mediaDuration" : 101,
                            "scalar" : 1,
                            "metadata" : {
                              "AutoAppliedSmartFocus" : "False",
                              "clipSpeedAttribute" : false
                            },
                            "animationTracks" : {

                            }
                          }
                        ],
                          "ident" : "",
                          "audioMuted" : false,
                          "videoHidden" : false,
                          "magnetic" : false,
                          "matte" : 0,
                          "metadata" : {
                            "IsLocked" : "False",
                            "WinTrackHeight" : "0"
                          }
                      },
                      {
                        "trackIndex" : 1,
                        "medias" : [
                          {
                            "id" : 1860,
                            "_type" : "AMFile",
                            "src" : 30,
                            "trackNumber" : 0,
                            "attributes" : {
                              "ident" : "Narration_3-3 Kubernetes-Deployment 27",
                              "gain" : 1.0,
                              "mixToMono" : false
                            },
                              "channelNumber" : "0,1",
                            "effects" : [

                            ],
                            "start" : 0,
                            "duration" : 101,
                            "mediaStart" : 37,
                            "mediaDuration" : 101,
                            "scalar" : 1,
                            "metadata" : {
                              "clipSpeedAttribute" : false
                            },
                            "animationTracks" : {

                            }
                          }
                        ],
                          "ident" : "",
                          "audioMuted" : false,
                          "videoHidden" : false,
                          "magnetic" : false,
                          "matte" : 0,
                          "metadata" : {
                            "IsLocked" : "False",
                            "WinTrackHeight" : "2.7341832101432e-312"
                          }
                      }
                    ],
                    "attributes" : {
                      "ident" : "Group 2",
                      "gain" : 1.0,
                      "mixToMono" : false
                    },
                    "effects" : [

                    ],
                    "start" : 10540,
                    "duration" : 101,
                    "mediaStart" : 0.0,
                    "mediaDuration" : 101.0,
                    "scalar" : 1,
                    "metadata" : {
                      "IsGroupExpanded" : "False"
                    },
                    "animationTracks" : {

                    }
                  },
                  {
                    "id" : 1861,
                    "_type" : "Group",
                    "parameters" : {
                      "volume" : 1.0
                    },
                    "tracks" : [
                      {
                        "trackIndex" : 0,
                        "medias" : [
                          {
                            "id" : 1862,
                            "_type" : "StitchedMedia",
                            "minMediaStart" : 0,
                            "attributes" : {
                              "ident" : "Rec 01-28-21_002",
                              "gain" : 1.0,
                              "mixToMono" : false
                            },
                            "parameters" : {
                              "cursorOpacity" : 1.0,
                              "cursorScale" : 1.0
                            },
                            "medias" : [
                                {
                                  "id" : 1863,
                                  "_type" : "ScreenVMFile",
                                  "src" : 2,
                                  "trackNumber" : 0,
                                  "attributes" : {
                                    "ident" : "Rec 01-28-21_002"
                                  },
                                  "parameters" : {
                                    "cursorScale" : {
                                      "type" : "double",
                                      "defaultValue" : 0.0,
                                      "interp" : "linr"
                                    },
                                    "cursorOpacity" : {
                                      "type" : "double",
                                      "defaultValue" : 0.0,
                                      "interp" : "linr"
                                    }
                                  },
                                  "effects" : [

                                  ],
                                  "start" : 0,
                                  "duration" : 6948,
                                  "mediaStart" : 0,
                                  "mediaDuration" : 6948,
                                  "scalar" : 1,
                                  "metadata" : {
                                    "AutoAppliedSmartFocus" : "False"
                                  },
                                  "animationTracks" : {

                                  }
                                },
                                {
                                  "id" : 1864,
                                  "_type" : "ScreenVMFile",
                                  "src" : 2,
                                  "trackNumber" : 0,
                                  "attributes" : {
                                    "ident" : "Rec 01-28-21_002"
                                  },
                                  "parameters" : {
                                    "cursorScale" : {
                                      "type" : "double",
                                      "defaultValue" : 0.0,
                                      "interp" : "linr"
                                    },
                                    "cursorOpacity" : {
                                      "type" : "double",
                                      "defaultValue" : 0.0,
                                      "interp" : "linr"
                                    }
                                  },
                                  "effects" : [

                                  ],
                                  "start" : 6948,
                                  "duration" : 174,
                                  "mediaStart" : 6966,
                                  "mediaDuration" : 174,
                                  "scalar" : 1,
                                  "metadata" : {
                                    "AutoAppliedSmartFocus" : "False"
                                  },
                                  "animationTracks" : {

                                  }
                                },
                                {
                                  "id" : 1865,
                                  "_type" : "ScreenVMFile",
                                  "src" : 2,
                                  "trackNumber" : 0,
                                  "attributes" : {
                                    "ident" : "Rec 01-28-21_002"
                                  },
                                  "parameters" : {
                                    "cursorScale" : {
                                      "type" : "double",
                                      "defaultValue" : 0.0,
                                      "interp" : "linr"
                                    },
                                    "cursorOpacity" : {
                                      "type" : "double",
                                      "defaultValue" : 0.0,
                                      "interp" : "linr"
                                    }
                                  },
                                  "effects" : [

                                  ],
                                  "start" : 7122,
                                  "duration" : 1797,
                                  "mediaStart" : 7338,
                                  "mediaDuration" : 1797,
                                  "scalar" : 1,
                                  "metadata" : {
                                    "AutoAppliedSmartFocus" : "False"
                                  },
                                  "animationTracks" : {

                                  }
                                },
                                {
                                  "id" : 1866,
                                  "_type" : "ScreenVMFile",
                                  "src" : 2,
                                  "trackNumber" : 0,
                                  "attributes" : {
                                    "ident" : "Rec 01-28-21_002"
                                  },
                                  "parameters" : {
                                    "cursorScale" : {
                                      "type" : "double",
                                      "defaultValue" : 0.0,
                                      "interp" : "linr"
                                    },
                                    "cursorOpacity" : {
                                      "type" : "double",
                                      "defaultValue" : 0.0,
                                      "interp" : "linr"
                                    }
                                  },
                                  "effects" : [

                                  ],
                                  "start" : 8919,
                                  "duration" : 19,
                                  "mediaStart" : 9144,
                                  "mediaDuration" : 19,
                                  "scalar" : 1,
                                  "metadata" : {
                                    "AutoAppliedSmartFocus" : "False"
                                  },
                                  "animationTracks" : {

                                  }
                                },
                                {
                                  "id" : 1867,
                                  "_type" : "ScreenVMFile",
                                  "src" : 2,
                                  "trackNumber" : 0,
                                  "attributes" : {
                                    "ident" : "Rec 01-28-21_002"
                                  },
                                  "parameters" : {
                                    "cursorScale" : {
                                      "type" : "double",
                                      "defaultValue" : 0.0,
                                      "interp" : "linr"
                                    },
                                    "cursorOpacity" : {
                                      "type" : "double",
                                      "defaultValue" : 0.0,
                                      "interp" : "linr"
                                    }
                                  },
                                  "effects" : [

                                  ],
                                  "start" : 8938,
                                  "duration" : 80,
                                  "mediaStart" : 9187,
                                  "mediaDuration" : 80,
                                  "scalar" : 1,
                                  "metadata" : {
                                    "AutoAppliedSmartFocus" : "False"
                                  },
                                  "animationTracks" : {

                                  }
                                },
                                {
                                  "id" : 1868,
                                  "_type" : "ScreenVMFile",
                                  "src" : 2,
                                  "trackNumber" : 0,
                                  "attributes" : {
                                    "ident" : "Rec 01-28-21_002"
                                  },
                                  "parameters" : {
                                    "cursorScale" : {
                                      "type" : "double",
                                      "defaultValue" : 0.0,
                                      "interp" : "linr"
                                    },
                                    "cursorOpacity" : {
                                      "type" : "double",
                                      "defaultValue" : 0.0,
                                      "interp" : "linr"
                                    }
                                  },
                                  "effects" : [

                                  ],
                                  "start" : 9018,
                                  "duration" : 58,
                                  "mediaStart" : 9358,
                                  "mediaDuration" : 58,
                                  "scalar" : 1,
                                  "metadata" : {
                                    "AutoAppliedSmartFocus" : "False"
                                  },
                                  "animationTracks" : {

                                  }
                                },
                                {
                                  "id" : 1869,
                                  "_type" : "ScreenVMFile",
                                  "src" : 2,
                                  "trackNumber" : 0,
                                  "attributes" : {
                                    "ident" : "Rec 01-28-21_002"
                                  },
                                  "parameters" : {
                                    "cursorScale" : {
                                      "type" : "double",
                                      "defaultValue" : 0.0,
                                      "interp" : "linr"
                                    },
                                    "cursorOpacity" : {
                                      "type" : "double",
                                      "defaultValue" : 0.0,
                                      "interp" : "linr"
                                    }
                                  },
                                  "effects" : [

                                  ],
                                  "start" : 9076,
                                  "duration" : 3,
                                  "mediaStart" : 9537,
                                  "mediaDuration" : 3,
                                  "scalar" : 1,
                                  "metadata" : {
                                    "AutoAppliedSmartFocus" : "False"
                                  },
                                  "animationTracks" : {

                                  }
                                },
                                {
                                  "id" : 1870,
                                  "_type" : "ScreenVMFile",
                                  "src" : 2,
                                  "trackNumber" : 0,
                                  "attributes" : {
                                    "ident" : "Rec 01-28-21_002"
                                  },
                                  "parameters" : {
                                    "cursorScale" : {
                                      "type" : "double",
                                      "defaultValue" : 0.0,
                                      "interp" : "linr"
                                    },
                                    "cursorOpacity" : {
                                      "type" : "double",
                                      "defaultValue" : 0.0,
                                      "interp" : "linr"
                                    }
                                  },
                                  "effects" : [

                                  ],
                                  "start" : 9079,
                                  "duration" : 155,
                                  "mediaStart" : 9754,
                                  "mediaDuration" : 155,
                                  "scalar" : 1,
                                  "metadata" : {
                                    "AutoAppliedSmartFocus" : "False"
                                  },
                                  "animationTracks" : {

                                  }
                                },
                                {
                                  "id" : 1871,
                                  "_type" : "ScreenVMFile",
                                  "src" : 2,
                                  "trackNumber" : 0,
                                  "attributes" : {
                                    "ident" : "Rec 01-28-21_002"
                                  },
                                  "parameters" : {
                                    "cursorScale" : {
                                      "type" : "double",
                                      "defaultValue" : 0.0,
                                      "interp" : "linr"
                                    },
                                    "cursorOpacity" : {
                                      "type" : "double",
                                      "defaultValue" : 0.0,
                                      "interp" : "linr"
                                    }
                                  },
                                  "effects" : [

                                  ],
                                  "start" : 9234,
                                  "duration" : 140,
                                  "mediaStart" : 9929,
                                  "mediaDuration" : 140,
                                  "scalar" : 1,
                                  "metadata" : {
                                    "AutoAppliedSmartFocus" : "False"
                                  },
                                  "animationTracks" : {

                                  }
                                },
                                {
                                  "id" : 1872,
                                  "_type" : "ScreenVMFile",
                                  "src" : 2,
                                  "trackNumber" : 0,
                                  "attributes" : {
                                    "ident" : "Rec 01-28-21_002"
                                  },
                                  "parameters" : {
                                    "cursorScale" : {
                                      "type" : "double",
                                      "defaultValue" : 0.0,
                                      "interp" : "linr"
                                    },
                                    "cursorOpacity" : {
                                      "type" : "double",
                                      "defaultValue" : 0.0,
                                      "interp" : "linr"
                                    }
                                  },
                                  "effects" : [

                                  ],
                                  "start" : 9374,
                                  "duration" : 93,
                                  "mediaStart" : 10080,
                                  "mediaDuration" : 93,
                                  "scalar" : 1,
                                  "metadata" : {
                                    "AutoAppliedSmartFocus" : "False"
                                  },
                                  "animationTracks" : {

                                  }
                                },
                                {
                                  "id" : 1873,
                                  "_type" : "ScreenVMFile",
                                  "src" : 2,
                                  "trackNumber" : 0,
                                  "attributes" : {
                                    "ident" : "Rec 01-28-21_002"
                                  },
                                  "parameters" : {
                                    "cursorScale" : {
                                      "type" : "double",
                                      "defaultValue" : 0.0,
                                      "interp" : "linr"
                                    },
                                    "cursorOpacity" : {
                                      "type" : "double",
                                      "defaultValue" : 0.0,
                                      "interp" : "linr"
                                    }
                                  },
                                  "effects" : [

                                  ],
                                  "start" : 9467,
                                  "duration" : 41,
                                  "mediaStart" : 10216,
                                  "mediaDuration" : 41,
                                  "scalar" : 1,
                                  "metadata" : {
                                    "AutoAppliedSmartFocus" : "False"
                                  },
                                  "animationTracks" : {

                                  }
                                },
                                {
                                  "id" : 1874,
                                  "_type" : "ScreenVMFile",
                                  "src" : 2,
                                  "trackNumber" : 0,
                                  "attributes" : {
                                    "ident" : "Rec 01-28-21_002"
                                  },
                                  "parameters" : {
                                    "cursorScale" : {
                                      "type" : "double",
                                      "defaultValue" : 0.0,
                                      "interp" : "linr"
                                    },
                                    "cursorOpacity" : {
                                      "type" : "double",
                                      "defaultValue" : 0.0,
                                      "interp" : "linr"
                                    }
                                  },
                                  "effects" : [

                                  ],
                                  "start" : 9508,
                                  "duration" : 96,
                                  "mediaStart" : 10298,
                                  "mediaDuration" : 96,
                                  "scalar" : 1,
                                  "metadata" : {
                                    "AutoAppliedSmartFocus" : "False"
                                  },
                                  "animationTracks" : {

                                  }
                                },
                                {
                                  "id" : 1875,
                                  "_type" : "ScreenVMFile",
                                  "src" : 2,
                                  "trackNumber" : 0,
                                  "attributes" : {
                                    "ident" : "Rec 01-28-21_002"
                                  },
                                  "parameters" : {
                                    "cursorScale" : {
                                      "type" : "double",
                                      "defaultValue" : 0.0,
                                      "interp" : "linr"
                                    },
                                    "cursorOpacity" : {
                                      "type" : "double",
                                      "defaultValue" : 0.0,
                                      "interp" : "linr"
                                    }
                                  },
                                  "effects" : [

                                  ],
                                  "start" : 9604,
                                  "duration" : 86,
                                  "mediaStart" : 10407,
                                  "mediaDuration" : 86,
                                  "scalar" : 1,
                                  "metadata" : {
                                    "AutoAppliedSmartFocus" : "False"
                                  },
                                  "animationTracks" : {

                                  }
                                },
                                {
                                  "id" : 1876,
                                  "_type" : "ScreenVMFile",
                                  "src" : 2,
                                  "trackNumber" : 0,
                                  "attributes" : {
                                    "ident" : "Rec 01-28-21_002"
                                  },
                                  "parameters" : {
                                    "cursorScale" : {
                                      "type" : "double",
                                      "defaultValue" : 0.0,
                                      "interp" : "linr"
                                    },
                                    "cursorOpacity" : {
                                      "type" : "double",
                                      "defaultValue" : 0.0,
                                      "interp" : "linr"
                                    }
                                  },
                                  "effects" : [

                                  ],
                                  "start" : 9690,
                                  "duration" : 36,
                                  "mediaStart" : 10511,
                                  "mediaDuration" : 36,
                                  "scalar" : 1,
                                  "metadata" : {
                                    "AutoAppliedSmartFocus" : "False"
                                  },
                                  "animationTracks" : {

                                  }
                                },
                                {
                                  "id" : 1877,
                                  "_type" : "ScreenVMFile",
                                  "src" : 2,
                                  "trackNumber" : 0,
                                  "attributes" : {
                                    "ident" : "Rec 01-28-21_002"
                                  },
                                  "parameters" : {
                                    "cursorScale" : {
                                      "type" : "double",
                                      "defaultValue" : 0.0,
                                      "interp" : "linr"
                                    },
                                    "cursorOpacity" : {
                                      "type" : "double",
                                      "defaultValue" : 0.0,
                                      "interp" : "linr"
                                    }
                                  },
                                  "effects" : [

                                  ],
                                  "start" : 9726,
                                  "duration" : 39,
                                  "mediaStart" : 10619,
                                  "mediaDuration" : 39,
                                  "scalar" : 1,
                                  "metadata" : {
                                    "AutoAppliedSmartFocus" : "False"
                                  },
                                  "animationTracks" : {

                                  }
                                },
                                {
                                  "id" : 1878,
                                  "_type" : "ScreenVMFile",
                                  "src" : 2,
                                  "trackNumber" : 0,
                                  "attributes" : {
                                    "ident" : "Rec 01-28-21_002"
                                  },
                                  "parameters" : {
                                    "cursorScale" : {
                                      "type" : "double",
                                      "defaultValue" : 0.0,
                                      "interp" : "linr"
                                    },
                                    "cursorOpacity" : {
                                      "type" : "double",
                                      "defaultValue" : 0.0,
                                      "interp" : "linr"
                                    }
                                  },
                                  "effects" : [

                                  ],
                                  "start" : 9765,
                                  "duration" : 174,
                                  "mediaStart" : 10684,
                                  "mediaDuration" : 174,
                                  "scalar" : 1,
                                  "metadata" : {
                                    "AutoAppliedSmartFocus" : "False"
                                  },
                                  "animationTracks" : {

                                  }
                                },
                                {
                                  "id" : 1879,
                                  "_type" : "ScreenVMFile",
                                  "src" : 2,
                                  "trackNumber" : 0,
                                  "attributes" : {
                                    "ident" : "Rec 01-28-21_002"
                                  },
                                  "parameters" : {
                                    "cursorScale" : {
                                      "type" : "double",
                                      "defaultValue" : 0.0,
                                      "interp" : "linr"
                                    },
                                    "cursorOpacity" : {
                                      "type" : "double",
                                      "defaultValue" : 0.0,
                                      "interp" : "linr"
                                    }
                                  },
                                  "effects" : [

                                  ],
                                  "start" : 9939,
                                  "duration" : 93,
                                  "mediaStart" : 11099,
                                  "mediaDuration" : 93,
                                  "scalar" : 1,
                                  "metadata" : {
                                    "AutoAppliedSmartFocus" : "False"
                                  },
                                  "animationTracks" : {

                                  }
                                },
                                {
                                  "id" : 1880,
                                  "_type" : "ScreenVMFile",
                                  "src" : 2,
                                  "trackNumber" : 0,
                                  "attributes" : {
                                    "ident" : "Rec 01-28-21_002"
                                  },
                                  "parameters" : {
                                    "cursorScale" : {
                                      "type" : "double",
                                      "defaultValue" : 0.0,
                                      "interp" : "linr"
                                    },
                                    "cursorOpacity" : {
                                      "type" : "double",
                                      "defaultValue" : 0.0,
                                      "interp" : "linr"
                                    }
                                  },
                                  "effects" : [

                                  ],
                                  "start" : 10032,
                                  "duration" : 71,
                                  "mediaStart" : 11516,
                                  "mediaDuration" : 71,
                                  "scalar" : 1,
                                  "metadata" : {
                                    "AutoAppliedSmartFocus" : "False"
                                  },
                                  "animationTracks" : {

                                  }
                                },
                                {
                                  "id" : 1881,
                                  "_type" : "ScreenVMFile",
                                  "src" : 2,
                                  "trackNumber" : 0,
                                  "attributes" : {
                                    "ident" : "Rec 01-28-21_002"
                                  },
                                  "parameters" : {
                                    "cursorScale" : {
                                      "type" : "double",
                                      "defaultValue" : 0.0,
                                      "interp" : "linr"
                                    },
                                    "cursorOpacity" : {
                                      "type" : "double",
                                      "defaultValue" : 0.0,
                                      "interp" : "linr"
                                    }
                                  },
                                  "effects" : [

                                  ],
                                  "start" : 10103,
                                  "duration" : 42,
                                  "mediaStart" : 11644,
                                  "mediaDuration" : 42,
                                  "scalar" : 1,
                                  "metadata" : {
                                    "AutoAppliedSmartFocus" : "False"
                                  },
                                  "animationTracks" : {

                                  }
                                },
                                {
                                  "id" : 1882,
                                  "_type" : "ScreenVMFile",
                                  "src" : 2,
                                  "trackNumber" : 0,
                                  "attributes" : {
                                    "ident" : "Rec 01-28-21_002"
                                  },
                                  "parameters" : {
                                    "cursorScale" : {
                                      "type" : "double",
                                      "defaultValue" : 0.0,
                                      "interp" : "linr"
                                    },
                                    "cursorOpacity" : {
                                      "type" : "double",
                                      "defaultValue" : 0.0,
                                      "interp" : "linr"
                                    }
                                  },
                                  "effects" : [

                                  ],
                                  "start" : 10145,
                                  "duration" : 447,
                                  "mediaStart" : 11709,
                                  "mediaDuration" : 447,
                                  "scalar" : 1,
                                  "metadata" : {
                                    "AutoAppliedSmartFocus" : "False"
                                  },
                                  "animationTracks" : {

                                  }
                                }
                            ],
                            "effects" : [

                            ],
                            "start" : 0,
                            "duration" : 156,
                            "mediaStart" : 10031,
                            "mediaDuration" : 156,
                            "scalar" : 1,
                            "metadata" : {
                              "AutoAppliedSmartFocus" : "False",
                              "clipSpeedAttribute" : false
                            },
                            "animationTracks" : {

                            }
                          }
                        ],
                          "ident" : "",
                          "audioMuted" : false,
                          "videoHidden" : false,
                          "magnetic" : false,
                          "matte" : 0,
                          "metadata" : {
                            "IsLocked" : "False",
                            "WinTrackHeight" : "0"
                          }
                      },
                      {
                        "trackIndex" : 1,
                        "medias" : [
                          {
                            "id" : 1883,
                            "_type" : "StitchedMedia",
                            "minMediaStart" : 0,
                            "attributes" : {
                              "ident" : "Narration_3-3 Kubernetes-Deployment 24",
                              "gain" : 1.0,
                              "mixToMono" : false
                            },
                            "parameters" : {
                              "volume" : 1.0,
                              "cursorOpacity" : 1.0,
                              "cursorScale" : 1.0
                            },
                            "medias" : [
                                {
                                  "id" : 1884,
                                  "_type" : "AMFile",
                                  "src" : 27,
                                  "trackNumber" : 0,
                                  "attributes" : {
                                    "ident" : "Narration_3-3 Kubernetes-Deployment 24",
                                    "gain" : 1.0,
                                    "mixToMono" : false
                                  },
                                    "channelNumber" : "0,1",
                                  "effects" : [

                                  ],
                                  "start" : 0,
                                  "duration" : 72,
                                  "mediaStart" : 0,
                                  "mediaDuration" : 72,
                                  "scalar" : 1,
                                  "metadata" : {
                                    "clipSpeedAttribute" : false
                                  },
                                  "animationTracks" : {

                                  }
                                },
                                {
                                  "id" : 1885,
                                  "_type" : "AMFile",
                                  "src" : 27,
                                  "trackNumber" : 0,
                                  "attributes" : {
                                    "ident" : "Narration_3-3 Kubernetes-Deployment 24",
                                    "gain" : 1.0,
                                    "mixToMono" : false
                                  },
                                    "channelNumber" : "0,1",
                                  "effects" : [

                                  ],
                                  "start" : 72,
                                  "duration" : 42,
                                  "mediaStart" : 129,
                                  "mediaDuration" : 42,
                                  "scalar" : 1,
                                  "metadata" : {
                                    "clipSpeedAttribute" : false
                                  },
                                  "animationTracks" : {

                                  }
                                },
                                {
                                  "id" : 1886,
                                  "_type" : "AMFile",
                                  "src" : 27,
                                  "trackNumber" : 0,
                                  "attributes" : {
                                    "ident" : "Narration_3-3 Kubernetes-Deployment 24",
                                    "gain" : 1.0,
                                    "mixToMono" : false
                                  },
                                    "channelNumber" : "0,1",
                                  "effects" : [

                                  ],
                                  "start" : 114,
                                  "duration" : 61,
                                  "mediaStart" : 194,
                                  "mediaDuration" : 61,
                                  "scalar" : 1,
                                  "metadata" : {
                                    "clipSpeedAttribute" : false
                                  },
                                  "animationTracks" : {

                                  }
                                }
                            ],
                            "effects" : [

                            ],
                            "start" : 0,
                            "duration" : 156,
                            "mediaStart" : 0,
                            "mediaDuration" : 156,
                            "scalar" : 1,
                            "metadata" : {
                              "clipSpeedAttribute" : false
                            },
                            "animationTracks" : {

                            }
                          }
                        ],
                          "ident" : "",
                          "audioMuted" : false,
                          "videoHidden" : false,
                          "magnetic" : false,
                          "matte" : 0,
                          "metadata" : {
                            "IsLocked" : "False",
                            "WinTrackHeight" : "2.73433861718777e-312"
                          }
                      }
                    ],
                    "attributes" : {
                      "ident" : "Group 8",
                      "gain" : 1.0,
                      "mixToMono" : false
                    },
                    "effects" : [

                    ],
                    "start" : 10641,
                    "duration" : 156,
                    "mediaStart" : 0.0,
                    "mediaDuration" : 156.0,
                    "scalar" : 1,
                    "metadata" : {
                      "IsGroupExpanded" : "False"
                    },
                    "animationTracks" : {

                    }
                  },
                  {
                    "id" : 1887,
                    "_type" : "StitchedMedia",
                    "minMediaStart" : 0,
                    "attributes" : {
                      "ident" : "Rec 01-28-21_002",
                      "gain" : 1.0,
                      "mixToMono" : false
                    },
                    "parameters" : {
                      "volume" : 1.0,
                      "cursorOpacity" : 1.0,
                      "cursorScale" : 1.0
                    },
                    "medias" : [
                        {
                          "id" : 1888,
                          "_type" : "UnifiedMedia",
                          "video" : 
                              {
                                "id" : 1889,
                                "_type" : "ScreenVMFile",
                                "src" : 2,
                                "trackNumber" : 0,
                                "attributes" : {
                                  "ident" : "Rec 01-28-21_002"
                                },
                                "parameters" : {
                                  "cursorScale" : {
                                    "type" : "double",
                                    "defaultValue" : 0.0,
                                    "interp" : "linr"
                                  },
                                  "cursorOpacity" : {
                                    "type" : "double",
                                    "defaultValue" : 0.0,
                                    "interp" : "linr"
                                  }
                                },
                                "effects" : [

                                ],
                                "start" : 0,
                                "duration" : 6948,
                                "mediaStart" : 0,
                                "mediaDuration" : 6948,
                                "scalar" : 1,
                                "animationTracks" : {

                                }
                              },
                          "audio" : 
                              {
                                "id" : 1890,
                                "_type" : "AMFile",
                                "src" : 2,
                                "trackNumber" : 1,
                                "attributes" : {
                                  "ident" : "",
                                  "gain" : 1.0,
                                  "mixToMono" : false
                                },
                                  "channelNumber" : "0,1",
                                "effects" : [

                                ],
                                "start" : 0,
                                "duration" : 6948,
                                "mediaStart" : 0,
                                "mediaDuration" : 6948,
                                "scalar" : 1,
                                "animationTracks" : {

                                }
                              }
,
                          "start" : 0,
                          "duration" : 6948,
                          "mediaStart" : 0,
                          "mediaDuration" : 12151,
                          "scalar" : 1,
                          "metadata" : {
                            "AutoAppliedSmartFocus" : "False",
                            "clipSpeedAttribute" : false
                          }
                        },
                        {
                          "id" : 1891,
                          "_type" : "UnifiedMedia",
                          "video" : 
                              {
                                "id" : 1892,
                                "_type" : "ScreenVMFile",
                                "src" : 2,
                                "trackNumber" : 0,
                                "attributes" : {
                                  "ident" : "Rec 01-28-21_002"
                                },
                                "parameters" : {
                                  "cursorScale" : {
                                    "type" : "double",
                                    "defaultValue" : 0.0,
                                    "interp" : "linr"
                                  },
                                  "cursorOpacity" : {
                                    "type" : "double",
                                    "defaultValue" : 0.0,
                                    "interp" : "linr"
                                  }
                                },
                                "effects" : [

                                ],
                                "start" : 6948,
                                "duration" : 174,
                                "mediaStart" : 6966,
                                "mediaDuration" : 174,
                                "scalar" : 1,
                                "animationTracks" : {

                                }
                              },
                          "audio" : 
                              {
                                "id" : 1893,
                                "_type" : "AMFile",
                                "src" : 2,
                                "trackNumber" : 1,
                                "attributes" : {
                                  "ident" : "",
                                  "gain" : 1.0,
                                  "mixToMono" : false
                                },
                                  "channelNumber" : "0,1",
                                "effects" : [

                                ],
                                "start" : 6948,
                                "duration" : 174,
                                "mediaStart" : 6966,
                                "mediaDuration" : 174,
                                "scalar" : 1,
                                "animationTracks" : {

                                }
                              }
,
                          "start" : 6948,
                          "duration" : 174,
                          "mediaStart" : 0,
                          "mediaDuration" : 12151,
                          "scalar" : 1,
                          "metadata" : {
                            "AutoAppliedSmartFocus" : "False",
                            "clipSpeedAttribute" : false
                          }
                        },
                        {
                          "id" : 1894,
                          "_type" : "UnifiedMedia",
                          "video" : 
                              {
                                "id" : 1895,
                                "_type" : "ScreenVMFile",
                                "src" : 2,
                                "trackNumber" : 0,
                                "attributes" : {
                                  "ident" : "Rec 01-28-21_002"
                                },
                                "parameters" : {
                                  "cursorScale" : {
                                    "type" : "double",
                                    "defaultValue" : 0.0,
                                    "interp" : "linr"
                                  },
                                  "cursorOpacity" : {
                                    "type" : "double",
                                    "defaultValue" : 0.0,
                                    "interp" : "linr"
                                  }
                                },
                                "effects" : [

                                ],
                                "start" : 7122,
                                "duration" : 1797,
                                "mediaStart" : 7338,
                                "mediaDuration" : 1797,
                                "scalar" : 1,
                                "animationTracks" : {

                                }
                              },
                          "audio" : 
                              {
                                "id" : 1896,
                                "_type" : "AMFile",
                                "src" : 2,
                                "trackNumber" : 1,
                                "attributes" : {
                                  "ident" : "",
                                  "gain" : 1.0,
                                  "mixToMono" : false
                                },
                                  "channelNumber" : "0,1",
                                "effects" : [

                                ],
                                "start" : 7122,
                                "duration" : 1797,
                                "mediaStart" : 7338,
                                "mediaDuration" : 1797,
                                "scalar" : 1,
                                "animationTracks" : {

                                }
                              }
,
                          "start" : 7122,
                          "duration" : 1797,
                          "mediaStart" : 0,
                          "mediaDuration" : 12151,
                          "scalar" : 1,
                          "metadata" : {
                            "AutoAppliedSmartFocus" : "False",
                            "clipSpeedAttribute" : false
                          }
                        },
                        {
                          "id" : 1897,
                          "_type" : "UnifiedMedia",
                          "video" : 
                              {
                                "id" : 1898,
                                "_type" : "ScreenVMFile",
                                "src" : 2,
                                "trackNumber" : 0,
                                "attributes" : {
                                  "ident" : "Rec 01-28-21_002"
                                },
                                "parameters" : {
                                  "cursorScale" : {
                                    "type" : "double",
                                    "defaultValue" : 0.0,
                                    "interp" : "linr"
                                  },
                                  "cursorOpacity" : {
                                    "type" : "double",
                                    "defaultValue" : 0.0,
                                    "interp" : "linr"
                                  }
                                },
                                "effects" : [

                                ],
                                "start" : 8919,
                                "duration" : 19,
                                "mediaStart" : 9144,
                                "mediaDuration" : 19,
                                "scalar" : 1,
                                "animationTracks" : {

                                }
                              },
                          "audio" : 
                              {
                                "id" : 1899,
                                "_type" : "AMFile",
                                "src" : 2,
                                "trackNumber" : 1,
                                "attributes" : {
                                  "ident" : "",
                                  "gain" : 1.0,
                                  "mixToMono" : false
                                },
                                  "channelNumber" : "0,1",
                                "effects" : [

                                ],
                                "start" : 8919,
                                "duration" : 19,
                                "mediaStart" : 9144,
                                "mediaDuration" : 19,
                                "scalar" : 1,
                                "animationTracks" : {

                                }
                              }
,
                          "start" : 8919,
                          "duration" : 19,
                          "mediaStart" : 0,
                          "mediaDuration" : 12151,
                          "scalar" : 1,
                          "metadata" : {
                            "AutoAppliedSmartFocus" : "False",
                            "clipSpeedAttribute" : false
                          }
                        },
                        {
                          "id" : 1900,
                          "_type" : "UnifiedMedia",
                          "video" : 
                              {
                                "id" : 1901,
                                "_type" : "ScreenVMFile",
                                "src" : 2,
                                "trackNumber" : 0,
                                "attributes" : {
                                  "ident" : "Rec 01-28-21_002"
                                },
                                "parameters" : {
                                  "cursorScale" : {
                                    "type" : "double",
                                    "defaultValue" : 0.0,
                                    "interp" : "linr"
                                  },
                                  "cursorOpacity" : {
                                    "type" : "double",
                                    "defaultValue" : 0.0,
                                    "interp" : "linr"
                                  }
                                },
                                "effects" : [

                                ],
                                "start" : 8938,
                                "duration" : 80,
                                "mediaStart" : 9187,
                                "mediaDuration" : 80,
                                "scalar" : 1,
                                "animationTracks" : {

                                }
                              },
                          "audio" : 
                              {
                                "id" : 1902,
                                "_type" : "AMFile",
                                "src" : 2,
                                "trackNumber" : 1,
                                "attributes" : {
                                  "ident" : "",
                                  "gain" : 1.0,
                                  "mixToMono" : false
                                },
                                  "channelNumber" : "0,1",
                                "effects" : [

                                ],
                                "start" : 8938,
                                "duration" : 80,
                                "mediaStart" : 9187,
                                "mediaDuration" : 80,
                                "scalar" : 1,
                                "animationTracks" : {

                                }
                              }
,
                          "start" : 8938,
                          "duration" : 80,
                          "mediaStart" : 0,
                          "mediaDuration" : 12151,
                          "scalar" : 1,
                          "metadata" : {
                            "AutoAppliedSmartFocus" : "False",
                            "clipSpeedAttribute" : false
                          }
                        },
                        {
                          "id" : 1903,
                          "_type" : "UnifiedMedia",
                          "video" : 
                              {
                                "id" : 1904,
                                "_type" : "ScreenVMFile",
                                "src" : 2,
                                "trackNumber" : 0,
                                "attributes" : {
                                  "ident" : "Rec 01-28-21_002"
                                },
                                "parameters" : {
                                  "cursorScale" : {
                                    "type" : "double",
                                    "defaultValue" : 0.0,
                                    "interp" : "linr"
                                  },
                                  "cursorOpacity" : {
                                    "type" : "double",
                                    "defaultValue" : 0.0,
                                    "interp" : "linr"
                                  }
                                },
                                "effects" : [

                                ],
                                "start" : 9018,
                                "duration" : 58,
                                "mediaStart" : 9358,
                                "mediaDuration" : 58,
                                "scalar" : 1,
                                "animationTracks" : {

                                }
                              },
                          "audio" : 
                              {
                                "id" : 1905,
                                "_type" : "AMFile",
                                "src" : 2,
                                "trackNumber" : 1,
                                "attributes" : {
                                  "ident" : "",
                                  "gain" : 1.0,
                                  "mixToMono" : false
                                },
                                  "channelNumber" : "0,1",
                                "effects" : [

                                ],
                                "start" : 9018,
                                "duration" : 58,
                                "mediaStart" : 9358,
                                "mediaDuration" : 58,
                                "scalar" : 1,
                                "animationTracks" : {

                                }
                              }
,
                          "start" : 9018,
                          "duration" : 58,
                          "mediaStart" : 0,
                          "mediaDuration" : 12151,
                          "scalar" : 1,
                          "metadata" : {
                            "AutoAppliedSmartFocus" : "False",
                            "clipSpeedAttribute" : false
                          }
                        },
                        {
                          "id" : 1906,
                          "_type" : "UnifiedMedia",
                          "video" : 
                              {
                                "id" : 1907,
                                "_type" : "ScreenVMFile",
                                "src" : 2,
                                "trackNumber" : 0,
                                "attributes" : {
                                  "ident" : "Rec 01-28-21_002"
                                },
                                "parameters" : {
                                  "cursorScale" : {
                                    "type" : "double",
                                    "defaultValue" : 0.0,
                                    "interp" : "linr"
                                  },
                                  "cursorOpacity" : {
                                    "type" : "double",
                                    "defaultValue" : 0.0,
                                    "interp" : "linr"
                                  }
                                },
                                "effects" : [

                                ],
                                "start" : 9076,
                                "duration" : 3,
                                "mediaStart" : 9537,
                                "mediaDuration" : 3,
                                "scalar" : 1,
                                "animationTracks" : {

                                }
                              },
                          "audio" : 
                              {
                                "id" : 1908,
                                "_type" : "AMFile",
                                "src" : 2,
                                "trackNumber" : 1,
                                "attributes" : {
                                  "ident" : "",
                                  "gain" : 1.0,
                                  "mixToMono" : false
                                },
                                  "channelNumber" : "0,1",
                                "effects" : [

                                ],
                                "start" : 9076,
                                "duration" : 3,
                                "mediaStart" : 9537,
                                "mediaDuration" : 3,
                                "scalar" : 1,
                                "animationTracks" : {

                                }
                              }
,
                          "start" : 9076,
                          "duration" : 3,
                          "mediaStart" : 0,
                          "mediaDuration" : 12151,
                          "scalar" : 1,
                          "metadata" : {
                            "AutoAppliedSmartFocus" : "False",
                            "clipSpeedAttribute" : false
                          }
                        },
                        {
                          "id" : 1909,
                          "_type" : "UnifiedMedia",
                          "video" : 
                              {
                                "id" : 1910,
                                "_type" : "ScreenVMFile",
                                "src" : 2,
                                "trackNumber" : 0,
                                "attributes" : {
                                  "ident" : "Rec 01-28-21_002"
                                },
                                "parameters" : {
                                  "cursorScale" : {
                                    "type" : "double",
                                    "defaultValue" : 0.0,
                                    "interp" : "linr"
                                  },
                                  "cursorOpacity" : {
                                    "type" : "double",
                                    "defaultValue" : 0.0,
                                    "interp" : "linr"
                                  }
                                },
                                "effects" : [

                                ],
                                "start" : 9079,
                                "duration" : 155,
                                "mediaStart" : 9754,
                                "mediaDuration" : 155,
                                "scalar" : 1,
                                "animationTracks" : {

                                }
                              },
                          "audio" : 
                              {
                                "id" : 1911,
                                "_type" : "AMFile",
                                "src" : 2,
                                "trackNumber" : 1,
                                "attributes" : {
                                  "ident" : "",
                                  "gain" : 1.0,
                                  "mixToMono" : false
                                },
                                  "channelNumber" : "0,1",
                                "effects" : [

                                ],
                                "start" : 9079,
                                "duration" : 155,
                                "mediaStart" : 9754,
                                "mediaDuration" : 155,
                                "scalar" : 1,
                                "animationTracks" : {

                                }
                              }
,
                          "start" : 9079,
                          "duration" : 155,
                          "mediaStart" : 0,
                          "mediaDuration" : 12151,
                          "scalar" : 1,
                          "metadata" : {
                            "AutoAppliedSmartFocus" : "False",
                            "clipSpeedAttribute" : false
                          }
                        },
                        {
                          "id" : 1912,
                          "_type" : "UnifiedMedia",
                          "video" : 
                              {
                                "id" : 1913,
                                "_type" : "ScreenVMFile",
                                "src" : 2,
                                "trackNumber" : 0,
                                "attributes" : {
                                  "ident" : "Rec 01-28-21_002"
                                },
                                "parameters" : {
                                  "cursorScale" : {
                                    "type" : "double",
                                    "defaultValue" : 0.0,
                                    "interp" : "linr"
                                  },
                                  "cursorOpacity" : {
                                    "type" : "double",
                                    "defaultValue" : 0.0,
                                    "interp" : "linr"
                                  }
                                },
                                "effects" : [

                                ],
                                "start" : 9234,
                                "duration" : 140,
                                "mediaStart" : 9929,
                                "mediaDuration" : 140,
                                "scalar" : 1,
                                "animationTracks" : {

                                }
                              },
                          "audio" : 
                              {
                                "id" : 1914,
                                "_type" : "AMFile",
                                "src" : 2,
                                "trackNumber" : 1,
                                "attributes" : {
                                  "ident" : "",
                                  "gain" : 1.0,
                                  "mixToMono" : false
                                },
                                  "channelNumber" : "0,1",
                                "effects" : [

                                ],
                                "start" : 9234,
                                "duration" : 140,
                                "mediaStart" : 9929,
                                "mediaDuration" : 140,
                                "scalar" : 1,
                                "animationTracks" : {

                                }
                              }
,
                          "start" : 9234,
                          "duration" : 140,
                          "mediaStart" : 0,
                          "mediaDuration" : 12151,
                          "scalar" : 1,
                          "metadata" : {
                            "AutoAppliedSmartFocus" : "False",
                            "clipSpeedAttribute" : false
                          }
                        },
                        {
                          "id" : 1915,
                          "_type" : "UnifiedMedia",
                          "video" : 
                              {
                                "id" : 1916,
                                "_type" : "ScreenVMFile",
                                "src" : 2,
                                "trackNumber" : 0,
                                "attributes" : {
                                  "ident" : "Rec 01-28-21_002"
                                },
                                "parameters" : {
                                  "cursorScale" : {
                                    "type" : "double",
                                    "defaultValue" : 0.0,
                                    "interp" : "linr"
                                  },
                                  "cursorOpacity" : {
                                    "type" : "double",
                                    "defaultValue" : 0.0,
                                    "interp" : "linr"
                                  }
                                },
                                "effects" : [

                                ],
                                "start" : 9374,
                                "duration" : 93,
                                "mediaStart" : 10080,
                                "mediaDuration" : 93,
                                "scalar" : 1,
                                "animationTracks" : {

                                }
                              },
                          "audio" : 
                              {
                                "id" : 1917,
                                "_type" : "AMFile",
                                "src" : 2,
                                "trackNumber" : 1,
                                "attributes" : {
                                  "ident" : "",
                                  "gain" : 1.0,
                                  "mixToMono" : false
                                },
                                  "channelNumber" : "0,1",
                                "effects" : [

                                ],
                                "start" : 9374,
                                "duration" : 93,
                                "mediaStart" : 10080,
                                "mediaDuration" : 93,
                                "scalar" : 1,
                                "animationTracks" : {

                                }
                              }
,
                          "start" : 9374,
                          "duration" : 93,
                          "mediaStart" : 0,
                          "mediaDuration" : 12151,
                          "scalar" : 1,
                          "metadata" : {
                            "AutoAppliedSmartFocus" : "False",
                            "clipSpeedAttribute" : false
                          }
                        },
                        {
                          "id" : 1918,
                          "_type" : "UnifiedMedia",
                          "video" : 
                              {
                                "id" : 1919,
                                "_type" : "ScreenVMFile",
                                "src" : 2,
                                "trackNumber" : 0,
                                "attributes" : {
                                  "ident" : "Rec 01-28-21_002"
                                },
                                "parameters" : {
                                  "cursorScale" : {
                                    "type" : "double",
                                    "defaultValue" : 0.0,
                                    "interp" : "linr"
                                  },
                                  "cursorOpacity" : {
                                    "type" : "double",
                                    "defaultValue" : 0.0,
                                    "interp" : "linr"
                                  }
                                },
                                "effects" : [

                                ],
                                "start" : 9467,
                                "duration" : 41,
                                "mediaStart" : 10216,
                                "mediaDuration" : 41,
                                "scalar" : 1,
                                "animationTracks" : {

                                }
                              },
                          "audio" : 
                              {
                                "id" : 1920,
                                "_type" : "AMFile",
                                "src" : 2,
                                "trackNumber" : 1,
                                "attributes" : {
                                  "ident" : "",
                                  "gain" : 1.0,
                                  "mixToMono" : false
                                },
                                  "channelNumber" : "0,1",
                                "effects" : [

                                ],
                                "start" : 9467,
                                "duration" : 41,
                                "mediaStart" : 10216,
                                "mediaDuration" : 41,
                                "scalar" : 1,
                                "animationTracks" : {

                                }
                              }
,
                          "start" : 9467,
                          "duration" : 41,
                          "mediaStart" : 0,
                          "mediaDuration" : 12151,
                          "scalar" : 1,
                          "metadata" : {
                            "AutoAppliedSmartFocus" : "False",
                            "clipSpeedAttribute" : false
                          }
                        },
                        {
                          "id" : 1921,
                          "_type" : "UnifiedMedia",
                          "video" : 
                              {
                                "id" : 1922,
                                "_type" : "ScreenVMFile",
                                "src" : 2,
                                "trackNumber" : 0,
                                "attributes" : {
                                  "ident" : "Rec 01-28-21_002"
                                },
                                "parameters" : {
                                  "cursorScale" : {
                                    "type" : "double",
                                    "defaultValue" : 0.0,
                                    "interp" : "linr"
                                  },
                                  "cursorOpacity" : {
                                    "type" : "double",
                                    "defaultValue" : 0.0,
                                    "interp" : "linr"
                                  }
                                },
                                "effects" : [

                                ],
                                "start" : 9508,
                                "duration" : 96,
                                "mediaStart" : 10298,
                                "mediaDuration" : 96,
                                "scalar" : 1,
                                "animationTracks" : {

                                }
                              },
                          "audio" : 
                              {
                                "id" : 1923,
                                "_type" : "AMFile",
                                "src" : 2,
                                "trackNumber" : 1,
                                "attributes" : {
                                  "ident" : "",
                                  "gain" : 1.0,
                                  "mixToMono" : false
                                },
                                  "channelNumber" : "0,1",
                                "effects" : [

                                ],
                                "start" : 9508,
                                "duration" : 96,
                                "mediaStart" : 10298,
                                "mediaDuration" : 96,
                                "scalar" : 1,
                                "animationTracks" : {

                                }
                              }
,
                          "start" : 9508,
                          "duration" : 96,
                          "mediaStart" : 0,
                          "mediaDuration" : 12151,
                          "scalar" : 1,
                          "metadata" : {
                            "AutoAppliedSmartFocus" : "False",
                            "clipSpeedAttribute" : false
                          }
                        },
                        {
                          "id" : 1924,
                          "_type" : "UnifiedMedia",
                          "video" : 
                              {
                                "id" : 1925,
                                "_type" : "ScreenVMFile",
                                "src" : 2,
                                "trackNumber" : 0,
                                "attributes" : {
                                  "ident" : "Rec 01-28-21_002"
                                },
                                "parameters" : {
                                  "cursorScale" : {
                                    "type" : "double",
                                    "defaultValue" : 0.0,
                                    "interp" : "linr"
                                  },
                                  "cursorOpacity" : {
                                    "type" : "double",
                                    "defaultValue" : 0.0,
                                    "interp" : "linr"
                                  }
                                },
                                "effects" : [

                                ],
                                "start" : 9604,
                                "duration" : 86,
                                "mediaStart" : 10407,
                                "mediaDuration" : 86,
                                "scalar" : 1,
                                "animationTracks" : {

                                }
                              },
                          "audio" : 
                              {
                                "id" : 1926,
                                "_type" : "AMFile",
                                "src" : 2,
                                "trackNumber" : 1,
                                "attributes" : {
                                  "ident" : "",
                                  "gain" : 1.0,
                                  "mixToMono" : false
                                },
                                  "channelNumber" : "0,1",
                                "effects" : [

                                ],
                                "start" : 9604,
                                "duration" : 86,
                                "mediaStart" : 10407,
                                "mediaDuration" : 86,
                                "scalar" : 1,
                                "animationTracks" : {

                                }
                              }
,
                          "start" : 9604,
                          "duration" : 86,
                          "mediaStart" : 0,
                          "mediaDuration" : 12151,
                          "scalar" : 1,
                          "metadata" : {
                            "AutoAppliedSmartFocus" : "False",
                            "clipSpeedAttribute" : false
                          }
                        },
                        {
                          "id" : 1927,
                          "_type" : "UnifiedMedia",
                          "video" : 
                              {
                                "id" : 1928,
                                "_type" : "ScreenVMFile",
                                "src" : 2,
                                "trackNumber" : 0,
                                "attributes" : {
                                  "ident" : "Rec 01-28-21_002"
                                },
                                "parameters" : {
                                  "cursorScale" : {
                                    "type" : "double",
                                    "defaultValue" : 0.0,
                                    "interp" : "linr"
                                  },
                                  "cursorOpacity" : {
                                    "type" : "double",
                                    "defaultValue" : 0.0,
                                    "interp" : "linr"
                                  }
                                },
                                "effects" : [

                                ],
                                "start" : 9690,
                                "duration" : 36,
                                "mediaStart" : 10511,
                                "mediaDuration" : 36,
                                "scalar" : 1,
                                "animationTracks" : {

                                }
                              },
                          "audio" : 
                              {
                                "id" : 1929,
                                "_type" : "AMFile",
                                "src" : 2,
                                "trackNumber" : 1,
                                "attributes" : {
                                  "ident" : "",
                                  "gain" : 1.0,
                                  "mixToMono" : false
                                },
                                  "channelNumber" : "0,1",
                                "effects" : [

                                ],
                                "start" : 9690,
                                "duration" : 36,
                                "mediaStart" : 10511,
                                "mediaDuration" : 36,
                                "scalar" : 1,
                                "animationTracks" : {

                                }
                              }
,
                          "start" : 9690,
                          "duration" : 36,
                          "mediaStart" : 0,
                          "mediaDuration" : 12151,
                          "scalar" : 1,
                          "metadata" : {
                            "AutoAppliedSmartFocus" : "False",
                            "clipSpeedAttribute" : false
                          }
                        },
                        {
                          "id" : 1930,
                          "_type" : "UnifiedMedia",
                          "video" : 
                              {
                                "id" : 1931,
                                "_type" : "ScreenVMFile",
                                "src" : 2,
                                "trackNumber" : 0,
                                "attributes" : {
                                  "ident" : "Rec 01-28-21_002"
                                },
                                "parameters" : {
                                  "cursorScale" : {
                                    "type" : "double",
                                    "defaultValue" : 0.0,
                                    "interp" : "linr"
                                  },
                                  "cursorOpacity" : {
                                    "type" : "double",
                                    "defaultValue" : 0.0,
                                    "interp" : "linr"
                                  }
                                },
                                "effects" : [

                                ],
                                "start" : 9726,
                                "duration" : 39,
                                "mediaStart" : 10619,
                                "mediaDuration" : 39,
                                "scalar" : 1,
                                "animationTracks" : {

                                }
                              },
                          "audio" : 
                              {
                                "id" : 1932,
                                "_type" : "AMFile",
                                "src" : 2,
                                "trackNumber" : 1,
                                "attributes" : {
                                  "ident" : "",
                                  "gain" : 1.0,
                                  "mixToMono" : false
                                },
                                  "channelNumber" : "0,1",
                                "effects" : [

                                ],
                                "start" : 9726,
                                "duration" : 39,
                                "mediaStart" : 10619,
                                "mediaDuration" : 39,
                                "scalar" : 1,
                                "animationTracks" : {

                                }
                              }
,
                          "start" : 9726,
                          "duration" : 39,
                          "mediaStart" : 0,
                          "mediaDuration" : 12151,
                          "scalar" : 1,
                          "metadata" : {
                            "AutoAppliedSmartFocus" : "False",
                            "clipSpeedAttribute" : false
                          }
                        },
                        {
                          "id" : 1933,
                          "_type" : "UnifiedMedia",
                          "video" : 
                              {
                                "id" : 1934,
                                "_type" : "ScreenVMFile",
                                "src" : 2,
                                "trackNumber" : 0,
                                "attributes" : {
                                  "ident" : "Rec 01-28-21_002"
                                },
                                "parameters" : {
                                  "cursorScale" : {
                                    "type" : "double",
                                    "defaultValue" : 0.0,
                                    "interp" : "linr"
                                  },
                                  "cursorOpacity" : {
                                    "type" : "double",
                                    "defaultValue" : 0.0,
                                    "interp" : "linr"
                                  }
                                },
                                "effects" : [

                                ],
                                "start" : 9765,
                                "duration" : 174,
                                "mediaStart" : 10684,
                                "mediaDuration" : 174,
                                "scalar" : 1,
                                "animationTracks" : {

                                }
                              },
                          "audio" : 
                              {
                                "id" : 1935,
                                "_type" : "AMFile",
                                "src" : 2,
                                "trackNumber" : 1,
                                "attributes" : {
                                  "ident" : "",
                                  "gain" : 1.0,
                                  "mixToMono" : false
                                },
                                  "channelNumber" : "0,1",
                                "effects" : [

                                ],
                                "start" : 9765,
                                "duration" : 174,
                                "mediaStart" : 10684,
                                "mediaDuration" : 174,
                                "scalar" : 1,
                                "animationTracks" : {

                                }
                              }
,
                          "start" : 9765,
                          "duration" : 174,
                          "mediaStart" : 0,
                          "mediaDuration" : 12151,
                          "scalar" : 1,
                          "metadata" : {
                            "AutoAppliedSmartFocus" : "False",
                            "clipSpeedAttribute" : false
                          }
                        },
                        {
                          "id" : 1936,
                          "_type" : "UnifiedMedia",
                          "video" : 
                              {
                                "id" : 1937,
                                "_type" : "ScreenVMFile",
                                "src" : 2,
                                "trackNumber" : 0,
                                "attributes" : {
                                  "ident" : "Rec 01-28-21_002"
                                },
                                "parameters" : {
                                  "cursorScale" : {
                                    "type" : "double",
                                    "defaultValue" : 0.0,
                                    "interp" : "linr"
                                  },
                                  "cursorOpacity" : {
                                    "type" : "double",
                                    "defaultValue" : 0.0,
                                    "interp" : "linr"
                                  }
                                },
                                "effects" : [

                                ],
                                "start" : 9939,
                                "duration" : 93,
                                "mediaStart" : 11099,
                                "mediaDuration" : 93,
                                "scalar" : 1,
                                "animationTracks" : {

                                }
                              },
                          "audio" : 
                              {
                                "id" : 1938,
                                "_type" : "AMFile",
                                "src" : 2,
                                "trackNumber" : 1,
                                "attributes" : {
                                  "ident" : "",
                                  "gain" : 1.0,
                                  "mixToMono" : false
                                },
                                  "channelNumber" : "0,1",
                                "effects" : [

                                ],
                                "start" : 9939,
                                "duration" : 93,
                                "mediaStart" : 11099,
                                "mediaDuration" : 93,
                                "scalar" : 1,
                                "animationTracks" : {

                                }
                              }
,
                          "start" : 9939,
                          "duration" : 93,
                          "mediaStart" : 0,
                          "mediaDuration" : 12151,
                          "scalar" : 1,
                          "metadata" : {
                            "AutoAppliedSmartFocus" : "False",
                            "clipSpeedAttribute" : false
                          }
                        },
                        {
                          "id" : 1939,
                          "_type" : "UnifiedMedia",
                          "video" : 
                              {
                                "id" : 1940,
                                "_type" : "ScreenVMFile",
                                "src" : 2,
                                "trackNumber" : 0,
                                "attributes" : {
                                  "ident" : "Rec 01-28-21_002"
                                },
                                "parameters" : {
                                  "cursorScale" : {
                                    "type" : "double",
                                    "defaultValue" : 0.0,
                                    "interp" : "linr"
                                  },
                                  "cursorOpacity" : {
                                    "type" : "double",
                                    "defaultValue" : 0.0,
                                    "interp" : "linr"
                                  }
                                },
                                "effects" : [

                                ],
                                "start" : 10032,
                                "duration" : 635,
                                "mediaStart" : 11516,
                                "mediaDuration" : 635,
                                "scalar" : 1,
                                "animationTracks" : {

                                }
                              },
                          "audio" : 
                              {
                                "id" : 1941,
                                "_type" : "AMFile",
                                "src" : 2,
                                "trackNumber" : 1,
                                "attributes" : {
                                  "ident" : "",
                                  "gain" : 1.0,
                                  "mixToMono" : false
                                },
                                  "channelNumber" : "0,1",
                                "effects" : [

                                ],
                                "start" : 10032,
                                "duration" : 635,
                                "mediaStart" : 11516,
                                "mediaDuration" : 635,
                                "scalar" : 1,
                                "animationTracks" : {

                                }
                              }
,
                          "start" : 10032,
                          "duration" : 635,
                          "mediaStart" : 0,
                          "mediaDuration" : 12151,
                          "scalar" : 1,
                          "metadata" : {
                            "AutoAppliedSmartFocus" : "False",
                            "clipSpeedAttribute" : false
                          }
                        }
                    ],
                    "effects" : [

                    ],
                    "start" : 10797,
                    "duration" : 958,
                    "mediaStart" : 9073,
                    "mediaDuration" : 958,
                    "scalar" : 1,
                    "metadata" : {
                      "AutoAppliedSmartFocus" : "False",
                      "clipSpeedAttribute" : false
                    },
                    "animationTracks" : {

                    }
                  },
                  {
                    "id" : 1942,
                    "_type" : "StitchedMedia",
                    "minMediaStart" : 0,
                    "attributes" : {
                      "ident" : "Rec 01-28-21_003",
                      "gain" : 1.0,
                      "mixToMono" : false
                    },
                    "parameters" : {
                      "volume" : 1.0,
                      "cursorOpacity" : 1.0,
                      "cursorScale" : 1.0
                    },
                    "medias" : [
                        {
                          "id" : 1943,
                          "_type" : "UnifiedMedia",
                          "video" : 
                              {
                                "id" : 1944,
                                "_type" : "ScreenVMFile",
                                "src" : 3,
                                "trackNumber" : 0,
                                "attributes" : {
                                  "ident" : "Rec 01-28-21_003"
                                },
                                "parameters" : {
                                  "cursorScale" : {
                                    "type" : "double",
                                    "defaultValue" : 0.0,
                                    "interp" : "linr"
                                  },
                                  "cursorOpacity" : {
                                    "type" : "double",
                                    "defaultValue" : 0.0,
                                    "interp" : "linr"
                                  }
                                },
                                "effects" : [

                                ],
                                "start" : 0,
                                "duration" : 9,
                                "mediaStart" : 0,
                                "mediaDuration" : 9,
                                "scalar" : 1,
                                "animationTracks" : {

                                }
                              },
                          "audio" : 
                              {
                                "id" : 1945,
                                "_type" : "AMFile",
                                "src" : 3,
                                "trackNumber" : 1,
                                "attributes" : {
                                  "ident" : "",
                                  "gain" : 1.0,
                                  "mixToMono" : false
                                },
                                  "channelNumber" : "0,1",
                                "effects" : [

                                ],
                                "start" : 0,
                                "duration" : 9,
                                "mediaStart" : 0,
                                "mediaDuration" : 9,
                                "scalar" : 1,
                                "animationTracks" : {

                                }
                              }
,
                          "start" : 0,
                          "duration" : 9,
                          "mediaStart" : 0,
                          "mediaDuration" : 23566,
                          "scalar" : 1,
                          "metadata" : {
                            "AutoAppliedSmartFocus" : "False",
                            "clipSpeedAttribute" : false
                          }
                        },
                        {
                          "id" : 1946,
                          "_type" : "UnifiedMedia",
                          "video" : 
                              {
                                "id" : 1947,
                                "_type" : "ScreenVMFile",
                                "src" : 3,
                                "trackNumber" : 0,
                                "attributes" : {
                                  "ident" : "Rec 01-28-21_003"
                                },
                                "parameters" : {
                                  "cursorScale" : {
                                    "type" : "double",
                                    "defaultValue" : 0.0,
                                    "interp" : "linr"
                                  },
                                  "cursorOpacity" : {
                                    "type" : "double",
                                    "defaultValue" : 0.0,
                                    "interp" : "linr"
                                  }
                                },
                                "effects" : [

                                ],
                                "start" : 9,
                                "duration" : 47,
                                "mediaStart" : 1540,
                                "mediaDuration" : 47,
                                "scalar" : 1,
                                "animationTracks" : {

                                }
                              },
                          "audio" : 
                              {
                                "id" : 1948,
                                "_type" : "AMFile",
                                "src" : 3,
                                "trackNumber" : 1,
                                "attributes" : {
                                  "ident" : "",
                                  "gain" : 1.0,
                                  "mixToMono" : false
                                },
                                  "channelNumber" : "0,1",
                                "effects" : [

                                ],
                                "start" : 9,
                                "duration" : 47,
                                "mediaStart" : 1540,
                                "mediaDuration" : 47,
                                "scalar" : 1,
                                "animationTracks" : {

                                }
                              }
,
                          "start" : 9,
                          "duration" : 47,
                          "mediaStart" : 0,
                          "mediaDuration" : 23566,
                          "scalar" : 1,
                          "metadata" : {
                            "AutoAppliedSmartFocus" : "False",
                            "clipSpeedAttribute" : false
                          }
                        },
                        {
                          "id" : 1949,
                          "_type" : "UnifiedMedia",
                          "video" : 
                              {
                                "id" : 1950,
                                "_type" : "ScreenVMFile",
                                "src" : 3,
                                "trackNumber" : 0,
                                "attributes" : {
                                  "ident" : "Rec 01-28-21_003"
                                },
                                "parameters" : {
                                  "cursorScale" : {
                                    "type" : "double",
                                    "defaultValue" : 0.0,
                                    "interp" : "linr"
                                  },
                                  "cursorOpacity" : {
                                    "type" : "double",
                                    "defaultValue" : 0.0,
                                    "interp" : "linr"
                                  }
                                },
                                "effects" : [

                                ],
                                "start" : 56,
                                "duration" : 35,
                                "mediaStart" : 1641,
                                "mediaDuration" : 35,
                                "scalar" : 1,
                                "animationTracks" : {

                                }
                              },
                          "audio" : 
                              {
                                "id" : 1951,
                                "_type" : "AMFile",
                                "src" : 3,
                                "trackNumber" : 1,
                                "attributes" : {
                                  "ident" : "",
                                  "gain" : 1.0,
                                  "mixToMono" : false
                                },
                                  "channelNumber" : "0,1",
                                "effects" : [

                                ],
                                "start" : 56,
                                "duration" : 35,
                                "mediaStart" : 1641,
                                "mediaDuration" : 35,
                                "scalar" : 1,
                                "animationTracks" : {

                                }
                              }
,
                          "start" : 56,
                          "duration" : 35,
                          "mediaStart" : 0,
                          "mediaDuration" : 23566,
                          "scalar" : 1,
                          "metadata" : {
                            "AutoAppliedSmartFocus" : "False",
                            "clipSpeedAttribute" : false
                          }
                        },
                        {
                          "id" : 1952,
                          "_type" : "UnifiedMedia",
                          "video" : 
                              {
                                "id" : 1953,
                                "_type" : "ScreenVMFile",
                                "src" : 3,
                                "trackNumber" : 0,
                                "attributes" : {
                                  "ident" : "Rec 01-28-21_003"
                                },
                                "parameters" : {
                                  "cursorScale" : {
                                    "type" : "double",
                                    "defaultValue" : 0.0,
                                    "interp" : "linr"
                                  },
                                  "cursorOpacity" : {
                                    "type" : "double",
                                    "defaultValue" : 0.0,
                                    "interp" : "linr"
                                  }
                                },
                                "effects" : [

                                ],
                                "start" : 91,
                                "duration" : 73,
                                "mediaStart" : 1702,
                                "mediaDuration" : 73,
                                "scalar" : 1,
                                "animationTracks" : {

                                }
                              },
                          "audio" : 
                              {
                                "id" : 1954,
                                "_type" : "AMFile",
                                "src" : 3,
                                "trackNumber" : 1,
                                "attributes" : {
                                  "ident" : "",
                                  "gain" : 1.0,
                                  "mixToMono" : false
                                },
                                  "channelNumber" : "0,1",
                                "effects" : [

                                ],
                                "start" : 91,
                                "duration" : 73,
                                "mediaStart" : 1702,
                                "mediaDuration" : 73,
                                "scalar" : 1,
                                "animationTracks" : {

                                }
                              }
,
                          "start" : 91,
                          "duration" : 73,
                          "mediaStart" : 0,
                          "mediaDuration" : 23566,
                          "scalar" : 1,
                          "metadata" : {
                            "AutoAppliedSmartFocus" : "False",
                            "clipSpeedAttribute" : false
                          }
                        },
                        {
                          "id" : 1955,
                          "_type" : "UnifiedMedia",
                          "video" : 
                              {
                                "id" : 1956,
                                "_type" : "ScreenVMFile",
                                "src" : 3,
                                "trackNumber" : 0,
                                "attributes" : {
                                  "ident" : "Rec 01-28-21_003"
                                },
                                "parameters" : {
                                  "cursorScale" : {
                                    "type" : "double",
                                    "defaultValue" : 0.0,
                                    "interp" : "linr"
                                  },
                                  "cursorOpacity" : {
                                    "type" : "double",
                                    "defaultValue" : 0.0,
                                    "interp" : "linr"
                                  }
                                },
                                "effects" : [

                                ],
                                "start" : 164,
                                "duration" : 122,
                                "mediaStart" : 1849,
                                "mediaDuration" : 122,
                                "scalar" : 1,
                                "animationTracks" : {

                                }
                              },
                          "audio" : 
                              {
                                "id" : 1957,
                                "_type" : "AMFile",
                                "src" : 3,
                                "trackNumber" : 1,
                                "attributes" : {
                                  "ident" : "",
                                  "gain" : 1.0,
                                  "mixToMono" : false
                                },
                                  "channelNumber" : "0,1",
                                "effects" : [

                                ],
                                "start" : 164,
                                "duration" : 122,
                                "mediaStart" : 1849,
                                "mediaDuration" : 122,
                                "scalar" : 1,
                                "animationTracks" : {

                                }
                              }
,
                          "start" : 164,
                          "duration" : 122,
                          "mediaStart" : 0,
                          "mediaDuration" : 23566,
                          "scalar" : 1,
                          "metadata" : {
                            "AutoAppliedSmartFocus" : "False",
                            "clipSpeedAttribute" : false
                          }
                        },
                        {
                          "id" : 1958,
                          "_type" : "UnifiedMedia",
                          "video" : 
                              {
                                "id" : 1959,
                                "_type" : "ScreenVMFile",
                                "src" : 3,
                                "trackNumber" : 0,
                                "attributes" : {
                                  "ident" : "Rec 01-28-21_003"
                                },
                                "parameters" : {
                                  "cursorScale" : {
                                    "type" : "double",
                                    "defaultValue" : 0.0,
                                    "interp" : "linr"
                                  },
                                  "cursorOpacity" : {
                                    "type" : "double",
                                    "defaultValue" : 0.0,
                                    "interp" : "linr"
                                  }
                                },
                                "effects" : [

                                ],
                                "start" : 286,
                                "duration" : 38,
                                "mediaStart" : 2036,
                                "mediaDuration" : 38,
                                "scalar" : 1,
                                "animationTracks" : {

                                }
                              },
                          "audio" : 
                              {
                                "id" : 1960,
                                "_type" : "AMFile",
                                "src" : 3,
                                "trackNumber" : 1,
                                "attributes" : {
                                  "ident" : "",
                                  "gain" : 1.0,
                                  "mixToMono" : false
                                },
                                  "channelNumber" : "0,1",
                                "effects" : [

                                ],
                                "start" : 286,
                                "duration" : 38,
                                "mediaStart" : 2036,
                                "mediaDuration" : 38,
                                "scalar" : 1,
                                "animationTracks" : {

                                }
                              }
,
                          "start" : 286,
                          "duration" : 38,
                          "mediaStart" : 0,
                          "mediaDuration" : 23566,
                          "scalar" : 1,
                          "metadata" : {
                            "AutoAppliedSmartFocus" : "False",
                            "clipSpeedAttribute" : false
                          }
                        },
                        {
                          "id" : 1961,
                          "_type" : "UnifiedMedia",
                          "video" : 
                              {
                                "id" : 1962,
                                "_type" : "ScreenVMFile",
                                "src" : 3,
                                "trackNumber" : 0,
                                "attributes" : {
                                  "ident" : "Rec 01-28-21_003"
                                },
                                "parameters" : {
                                  "cursorScale" : {
                                    "type" : "double",
                                    "defaultValue" : 0.0,
                                    "interp" : "linr"
                                  },
                                  "cursorOpacity" : {
                                    "type" : "double",
                                    "defaultValue" : 0.0,
                                    "interp" : "linr"
                                  }
                                },
                                "effects" : [

                                ],
                                "start" : 324,
                                "duration" : 30,
                                "mediaStart" : 2087,
                                "mediaDuration" : 30,
                                "scalar" : 1,
                                "animationTracks" : {

                                }
                              },
                          "audio" : 
                              {
                                "id" : 1963,
                                "_type" : "AMFile",
                                "src" : 3,
                                "trackNumber" : 1,
                                "attributes" : {
                                  "ident" : "",
                                  "gain" : 1.0,
                                  "mixToMono" : false
                                },
                                  "channelNumber" : "0,1",
                                "effects" : [

                                ],
                                "start" : 324,
                                "duration" : 30,
                                "mediaStart" : 2087,
                                "mediaDuration" : 30,
                                "scalar" : 1,
                                "animationTracks" : {

                                }
                              }
,
                          "start" : 324,
                          "duration" : 30,
                          "mediaStart" : 0,
                          "mediaDuration" : 23566,
                          "scalar" : 1,
                          "metadata" : {
                            "AutoAppliedSmartFocus" : "False",
                            "clipSpeedAttribute" : false
                          }
                        },
                        {
                          "id" : 1964,
                          "_type" : "UnifiedMedia",
                          "video" : 
                              {
                                "id" : 1965,
                                "_type" : "ScreenVMFile",
                                "src" : 3,
                                "trackNumber" : 0,
                                "attributes" : {
                                  "ident" : "Rec 01-28-21_003"
                                },
                                "parameters" : {
                                  "cursorScale" : {
                                    "type" : "double",
                                    "defaultValue" : 0.0,
                                    "interp" : "linr"
                                  },
                                  "cursorOpacity" : {
                                    "type" : "double",
                                    "defaultValue" : 0.0,
                                    "interp" : "linr"
                                  }
                                },
                                "effects" : [

                                ],
                                "start" : 354,
                                "duration" : 92,
                                "mediaStart" : 2148,
                                "mediaDuration" : 92,
                                "scalar" : 1,
                                "animationTracks" : {

                                }
                              },
                          "audio" : 
                              {
                                "id" : 1966,
                                "_type" : "AMFile",
                                "src" : 3,
                                "trackNumber" : 1,
                                "attributes" : {
                                  "ident" : "",
                                  "gain" : 1.0,
                                  "mixToMono" : false
                                },
                                  "channelNumber" : "0,1",
                                "effects" : [

                                ],
                                "start" : 354,
                                "duration" : 92,
                                "mediaStart" : 2148,
                                "mediaDuration" : 92,
                                "scalar" : 1,
                                "animationTracks" : {

                                }
                              }
,
                          "start" : 354,
                          "duration" : 92,
                          "mediaStart" : 0,
                          "mediaDuration" : 23566,
                          "scalar" : 1,
                          "metadata" : {
                            "AutoAppliedSmartFocus" : "False",
                            "clipSpeedAttribute" : false
                          }
                        },
                        {
                          "id" : 1967,
                          "_type" : "UnifiedMedia",
                          "video" : 
                              {
                                "id" : 1968,
                                "_type" : "ScreenVMFile",
                                "src" : 3,
                                "trackNumber" : 0,
                                "attributes" : {
                                  "ident" : "Rec 01-28-21_003"
                                },
                                "parameters" : {
                                  "cursorScale" : {
                                    "type" : "double",
                                    "defaultValue" : 0.0,
                                    "interp" : "linr"
                                  },
                                  "cursorOpacity" : {
                                    "type" : "double",
                                    "defaultValue" : 0.0,
                                    "interp" : "linr"
                                  }
                                },
                                "effects" : [

                                ],
                                "start" : 446,
                                "duration" : 63,
                                "mediaStart" : 2290,
                                "mediaDuration" : 63,
                                "scalar" : 1,
                                "animationTracks" : {

                                }
                              },
                          "audio" : 
                              {
                                "id" : 1969,
                                "_type" : "AMFile",
                                "src" : 3,
                                "trackNumber" : 1,
                                "attributes" : {
                                  "ident" : "",
                                  "gain" : 1.0,
                                  "mixToMono" : false
                                },
                                  "channelNumber" : "0,1",
                                "effects" : [

                                ],
                                "start" : 446,
                                "duration" : 63,
                                "mediaStart" : 2290,
                                "mediaDuration" : 63,
                                "scalar" : 1,
                                "animationTracks" : {

                                }
                              }
,
                          "start" : 446,
                          "duration" : 63,
                          "mediaStart" : 0,
                          "mediaDuration" : 23566,
                          "scalar" : 1,
                          "metadata" : {
                            "AutoAppliedSmartFocus" : "False",
                            "clipSpeedAttribute" : false
                          }
                        },
                        {
                          "id" : 1970,
                          "_type" : "UnifiedMedia",
                          "video" : 
                              {
                                "id" : 1971,
                                "_type" : "ScreenVMFile",
                                "src" : 3,
                                "trackNumber" : 0,
                                "attributes" : {
                                  "ident" : "Rec 01-28-21_003"
                                },
                                "parameters" : {
                                  "cursorScale" : {
                                    "type" : "double",
                                    "defaultValue" : 0.0,
                                    "interp" : "linr"
                                  },
                                  "cursorOpacity" : {
                                    "type" : "double",
                                    "defaultValue" : 0.0,
                                    "interp" : "linr"
                                  }
                                },
                                "effects" : [

                                ],
                                "start" : 509,
                                "duration" : 27,
                                "mediaStart" : 2376,
                                "mediaDuration" : 27,
                                "scalar" : 1,
                                "animationTracks" : {

                                }
                              },
                          "audio" : 
                              {
                                "id" : 1972,
                                "_type" : "AMFile",
                                "src" : 3,
                                "trackNumber" : 1,
                                "attributes" : {
                                  "ident" : "",
                                  "gain" : 1.0,
                                  "mixToMono" : false
                                },
                                  "channelNumber" : "0,1",
                                "effects" : [

                                ],
                                "start" : 509,
                                "duration" : 27,
                                "mediaStart" : 2376,
                                "mediaDuration" : 27,
                                "scalar" : 1,
                                "animationTracks" : {

                                }
                              }
,
                          "start" : 509,
                          "duration" : 27,
                          "mediaStart" : 0,
                          "mediaDuration" : 23566,
                          "scalar" : 1,
                          "metadata" : {
                            "AutoAppliedSmartFocus" : "False",
                            "clipSpeedAttribute" : false
                          }
                        },
                        {
                          "id" : 1973,
                          "_type" : "UnifiedMedia",
                          "video" : 
                              {
                                "id" : 1974,
                                "_type" : "ScreenVMFile",
                                "src" : 3,
                                "trackNumber" : 0,
                                "attributes" : {
                                  "ident" : "Rec 01-28-21_003"
                                },
                                "parameters" : {
                                  "cursorScale" : {
                                    "type" : "double",
                                    "defaultValue" : 0.0,
                                    "interp" : "linr"
                                  },
                                  "cursorOpacity" : {
                                    "type" : "double",
                                    "defaultValue" : 0.0,
                                    "interp" : "linr"
                                  }
                                },
                                "effects" : [

                                ],
                                "start" : 536,
                                "duration" : 31,
                                "mediaStart" : 2426,
                                "mediaDuration" : 31,
                                "scalar" : 1,
                                "animationTracks" : {

                                }
                              },
                          "audio" : 
                              {
                                "id" : 1975,
                                "_type" : "AMFile",
                                "src" : 3,
                                "trackNumber" : 1,
                                "attributes" : {
                                  "ident" : "",
                                  "gain" : 1.0,
                                  "mixToMono" : false
                                },
                                  "channelNumber" : "0,1",
                                "effects" : [

                                ],
                                "start" : 536,
                                "duration" : 31,
                                "mediaStart" : 2426,
                                "mediaDuration" : 31,
                                "scalar" : 1,
                                "animationTracks" : {

                                }
                              }
,
                          "start" : 536,
                          "duration" : 31,
                          "mediaStart" : 0,
                          "mediaDuration" : 23566,
                          "scalar" : 1,
                          "metadata" : {
                            "AutoAppliedSmartFocus" : "False",
                            "clipSpeedAttribute" : false
                          }
                        },
                        {
                          "id" : 1976,
                          "_type" : "UnifiedMedia",
                          "video" : 
                              {
                                "id" : 1977,
                                "_type" : "ScreenVMFile",
                                "src" : 3,
                                "trackNumber" : 0,
                                "attributes" : {
                                  "ident" : "Rec 01-28-21_003"
                                },
                                "parameters" : {
                                  "cursorScale" : {
                                    "type" : "double",
                                    "defaultValue" : 0.0,
                                    "interp" : "linr"
                                  },
                                  "cursorOpacity" : {
                                    "type" : "double",
                                    "defaultValue" : 0.0,
                                    "interp" : "linr"
                                  }
                                },
                                "effects" : [

                                ],
                                "start" : 567,
                                "duration" : 25,
                                "mediaStart" : 2496,
                                "mediaDuration" : 25,
                                "scalar" : 1,
                                "animationTracks" : {

                                }
                              },
                          "audio" : 
                              {
                                "id" : 1978,
                                "_type" : "AMFile",
                                "src" : 3,
                                "trackNumber" : 1,
                                "attributes" : {
                                  "ident" : "",
                                  "gain" : 1.0,
                                  "mixToMono" : false
                                },
                                  "channelNumber" : "0,1",
                                "effects" : [

                                ],
                                "start" : 567,
                                "duration" : 25,
                                "mediaStart" : 2496,
                                "mediaDuration" : 25,
                                "scalar" : 1,
                                "animationTracks" : {

                                }
                              }
,
                          "start" : 567,
                          "duration" : 25,
                          "mediaStart" : 0,
                          "mediaDuration" : 23566,
                          "scalar" : 1,
                          "metadata" : {
                            "AutoAppliedSmartFocus" : "False",
                            "clipSpeedAttribute" : false
                          }
                        },
                        {
                          "id" : 1979,
                          "_type" : "UnifiedMedia",
                          "video" : 
                              {
                                "id" : 1980,
                                "_type" : "ScreenVMFile",
                                "src" : 3,
                                "trackNumber" : 0,
                                "attributes" : {
                                  "ident" : "Rec 01-28-21_003"
                                },
                                "parameters" : {
                                  "cursorScale" : {
                                    "type" : "double",
                                    "defaultValue" : 0.0,
                                    "interp" : "linr"
                                  },
                                  "cursorOpacity" : {
                                    "type" : "double",
                                    "defaultValue" : 0.0,
                                    "interp" : "linr"
                                  }
                                },
                                "effects" : [

                                ],
                                "start" : 592,
                                "duration" : 31,
                                "mediaStart" : 2611,
                                "mediaDuration" : 31,
                                "scalar" : 1,
                                "animationTracks" : {

                                }
                              },
                          "audio" : 
                              {
                                "id" : 1981,
                                "_type" : "AMFile",
                                "src" : 3,
                                "trackNumber" : 1,
                                "attributes" : {
                                  "ident" : "",
                                  "gain" : 1.0,
                                  "mixToMono" : false
                                },
                                  "channelNumber" : "0,1",
                                "effects" : [

                                ],
                                "start" : 592,
                                "duration" : 31,
                                "mediaStart" : 2611,
                                "mediaDuration" : 31,
                                "scalar" : 1,
                                "animationTracks" : {

                                }
                              }
,
                          "start" : 592,
                          "duration" : 31,
                          "mediaStart" : 0,
                          "mediaDuration" : 23566,
                          "scalar" : 1,
                          "metadata" : {
                            "AutoAppliedSmartFocus" : "False",
                            "clipSpeedAttribute" : false
                          }
                        },
                        {
                          "id" : 1982,
                          "_type" : "UnifiedMedia",
                          "video" : 
                              {
                                "id" : 1983,
                                "_type" : "ScreenVMFile",
                                "src" : 3,
                                "trackNumber" : 0,
                                "attributes" : {
                                  "ident" : "Rec 01-28-21_003"
                                },
                                "parameters" : {
                                  "cursorScale" : {
                                    "type" : "double",
                                    "defaultValue" : 0.0,
                                    "interp" : "linr"
                                  },
                                  "cursorOpacity" : {
                                    "type" : "double",
                                    "defaultValue" : 0.0,
                                    "interp" : "linr"
                                  }
                                },
                                "effects" : [

                                ],
                                "start" : 623,
                                "duration" : 20839,
                                "mediaStart" : 2727,
                                "mediaDuration" : 20839,
                                "scalar" : 1,
                                "animationTracks" : {

                                }
                              },
                          "audio" : 
                              {
                                "id" : 1984,
                                "_type" : "AMFile",
                                "src" : 3,
                                "trackNumber" : 1,
                                "attributes" : {
                                  "ident" : "",
                                  "gain" : 1.0,
                                  "mixToMono" : false
                                },
                                  "channelNumber" : "0,1",
                                "effects" : [

                                ],
                                "start" : 623,
                                "duration" : 20839,
                                "mediaStart" : 2727,
                                "mediaDuration" : 20839,
                                "scalar" : 1,
                                "animationTracks" : {

                                }
                              }
,
                          "start" : 623,
                          "duration" : 20839,
                          "mediaStart" : 0,
                          "mediaDuration" : 23566,
                          "scalar" : 1,
                          "metadata" : {
                            "AutoAppliedSmartFocus" : "False",
                            "clipSpeedAttribute" : false
                          }
                        }
                    ],
                    "effects" : [

                    ],
                    "start" : 11755,
                    "duration" : 742,
                    "mediaStart" : 0,
                    "mediaDuration" : 742,
                    "scalar" : 1,
                    "metadata" : {
                      "AutoAppliedSmartFocus" : "False",
                      "clipSpeedAttribute" : false
                    },
                    "animationTracks" : {

                    }
                  },
                  {
                    "id" : 1985,
                    "_type" : "StitchedMedia",
                    "minMediaStart" : 0,
                    "attributes" : {
                      "ident" : "Rec 01-28-21_003",
                      "gain" : 1.0,
                      "mixToMono" : false
                    },
                    "parameters" : {
                      "volume" : 1.0,
                      "cursorOpacity" : 1.0,
                      "cursorScale" : 1.0
                    },
                    "medias" : [
                        {
                          "id" : 1986,
                          "_type" : "UnifiedMedia",
                          "video" : 
                              {
                                "id" : 1987,
                                "_type" : "ScreenVMFile",
                                "src" : 3,
                                "trackNumber" : 0,
                                "attributes" : {
                                  "ident" : "Rec 01-28-21_003"
                                },
                                "parameters" : {
                                  "cursorScale" : {
                                    "type" : "double",
                                    "defaultValue" : 0.0,
                                    "interp" : "linr"
                                  },
                                  "cursorOpacity" : {
                                    "type" : "double",
                                    "defaultValue" : 0.0,
                                    "interp" : "linr"
                                  }
                                },
                                "effects" : [

                                ],
                                "start" : 0,
                                "duration" : 9,
                                "mediaStart" : 0,
                                "mediaDuration" : 9,
                                "scalar" : 1,
                                "animationTracks" : {

                                }
                              },
                          "audio" : 
                              {
                                "id" : 1988,
                                "_type" : "AMFile",
                                "src" : 3,
                                "trackNumber" : 1,
                                "attributes" : {
                                  "ident" : "",
                                  "gain" : 1.0,
                                  "mixToMono" : false
                                },
                                  "channelNumber" : "0,1",
                                "effects" : [

                                ],
                                "start" : 0,
                                "duration" : 9,
                                "mediaStart" : 0,
                                "mediaDuration" : 9,
                                "scalar" : 1,
                                "animationTracks" : {

                                }
                              }
,
                          "start" : 0,
                          "duration" : 9,
                          "mediaStart" : 0,
                          "mediaDuration" : 23566,
                          "scalar" : 1,
                          "metadata" : {
                            "AutoAppliedSmartFocus" : "False",
                            "clipSpeedAttribute" : false
                          }
                        },
                        {
                          "id" : 1989,
                          "_type" : "UnifiedMedia",
                          "video" : 
                              {
                                "id" : 1990,
                                "_type" : "ScreenVMFile",
                                "src" : 3,
                                "trackNumber" : 0,
                                "attributes" : {
                                  "ident" : "Rec 01-28-21_003"
                                },
                                "parameters" : {
                                  "cursorScale" : {
                                    "type" : "double",
                                    "defaultValue" : 0.0,
                                    "interp" : "linr"
                                  },
                                  "cursorOpacity" : {
                                    "type" : "double",
                                    "defaultValue" : 0.0,
                                    "interp" : "linr"
                                  }
                                },
                                "effects" : [

                                ],
                                "start" : 9,
                                "duration" : 47,
                                "mediaStart" : 1540,
                                "mediaDuration" : 47,
                                "scalar" : 1,
                                "animationTracks" : {

                                }
                              },
                          "audio" : 
                              {
                                "id" : 1991,
                                "_type" : "AMFile",
                                "src" : 3,
                                "trackNumber" : 1,
                                "attributes" : {
                                  "ident" : "",
                                  "gain" : 1.0,
                                  "mixToMono" : false
                                },
                                  "channelNumber" : "0,1",
                                "effects" : [

                                ],
                                "start" : 9,
                                "duration" : 47,
                                "mediaStart" : 1540,
                                "mediaDuration" : 47,
                                "scalar" : 1,
                                "animationTracks" : {

                                }
                              }
,
                          "start" : 9,
                          "duration" : 47,
                          "mediaStart" : 0,
                          "mediaDuration" : 23566,
                          "scalar" : 1,
                          "metadata" : {
                            "AutoAppliedSmartFocus" : "False",
                            "clipSpeedAttribute" : false
                          }
                        },
                        {
                          "id" : 1992,
                          "_type" : "UnifiedMedia",
                          "video" : 
                              {
                                "id" : 1993,
                                "_type" : "ScreenVMFile",
                                "src" : 3,
                                "trackNumber" : 0,
                                "attributes" : {
                                  "ident" : "Rec 01-28-21_003"
                                },
                                "parameters" : {
                                  "cursorScale" : {
                                    "type" : "double",
                                    "defaultValue" : 0.0,
                                    "interp" : "linr"
                                  },
                                  "cursorOpacity" : {
                                    "type" : "double",
                                    "defaultValue" : 0.0,
                                    "interp" : "linr"
                                  }
                                },
                                "effects" : [

                                ],
                                "start" : 56,
                                "duration" : 35,
                                "mediaStart" : 1641,
                                "mediaDuration" : 35,
                                "scalar" : 1,
                                "animationTracks" : {

                                }
                              },
                          "audio" : 
                              {
                                "id" : 1994,
                                "_type" : "AMFile",
                                "src" : 3,
                                "trackNumber" : 1,
                                "attributes" : {
                                  "ident" : "",
                                  "gain" : 1.0,
                                  "mixToMono" : false
                                },
                                  "channelNumber" : "0,1",
                                "effects" : [

                                ],
                                "start" : 56,
                                "duration" : 35,
                                "mediaStart" : 1641,
                                "mediaDuration" : 35,
                                "scalar" : 1,
                                "animationTracks" : {

                                }
                              }
,
                          "start" : 56,
                          "duration" : 35,
                          "mediaStart" : 0,
                          "mediaDuration" : 23566,
                          "scalar" : 1,
                          "metadata" : {
                            "AutoAppliedSmartFocus" : "False",
                            "clipSpeedAttribute" : false
                          }
                        },
                        {
                          "id" : 1995,
                          "_type" : "UnifiedMedia",
                          "video" : 
                              {
                                "id" : 1996,
                                "_type" : "ScreenVMFile",
                                "src" : 3,
                                "trackNumber" : 0,
                                "attributes" : {
                                  "ident" : "Rec 01-28-21_003"
                                },
                                "parameters" : {
                                  "cursorScale" : {
                                    "type" : "double",
                                    "defaultValue" : 0.0,
                                    "interp" : "linr"
                                  },
                                  "cursorOpacity" : {
                                    "type" : "double",
                                    "defaultValue" : 0.0,
                                    "interp" : "linr"
                                  }
                                },
                                "effects" : [

                                ],
                                "start" : 91,
                                "duration" : 73,
                                "mediaStart" : 1702,
                                "mediaDuration" : 73,
                                "scalar" : 1,
                                "animationTracks" : {

                                }
                              },
                          "audio" : 
                              {
                                "id" : 1997,
                                "_type" : "AMFile",
                                "src" : 3,
                                "trackNumber" : 1,
                                "attributes" : {
                                  "ident" : "",
                                  "gain" : 1.0,
                                  "mixToMono" : false
                                },
                                  "channelNumber" : "0,1",
                                "effects" : [

                                ],
                                "start" : 91,
                                "duration" : 73,
                                "mediaStart" : 1702,
                                "mediaDuration" : 73,
                                "scalar" : 1,
                                "animationTracks" : {

                                }
                              }
,
                          "start" : 91,
                          "duration" : 73,
                          "mediaStart" : 0,
                          "mediaDuration" : 23566,
                          "scalar" : 1,
                          "metadata" : {
                            "AutoAppliedSmartFocus" : "False",
                            "clipSpeedAttribute" : false
                          }
                        },
                        {
                          "id" : 1998,
                          "_type" : "UnifiedMedia",
                          "video" : 
                              {
                                "id" : 1999,
                                "_type" : "ScreenVMFile",
                                "src" : 3,
                                "trackNumber" : 0,
                                "attributes" : {
                                  "ident" : "Rec 01-28-21_003"
                                },
                                "parameters" : {
                                  "cursorScale" : {
                                    "type" : "double",
                                    "defaultValue" : 0.0,
                                    "interp" : "linr"
                                  },
                                  "cursorOpacity" : {
                                    "type" : "double",
                                    "defaultValue" : 0.0,
                                    "interp" : "linr"
                                  }
                                },
                                "effects" : [

                                ],
                                "start" : 164,
                                "duration" : 122,
                                "mediaStart" : 1849,
                                "mediaDuration" : 122,
                                "scalar" : 1,
                                "animationTracks" : {

                                }
                              },
                          "audio" : 
                              {
                                "id" : 2000,
                                "_type" : "AMFile",
                                "src" : 3,
                                "trackNumber" : 1,
                                "attributes" : {
                                  "ident" : "",
                                  "gain" : 1.0,
                                  "mixToMono" : false
                                },
                                  "channelNumber" : "0,1",
                                "effects" : [

                                ],
                                "start" : 164,
                                "duration" : 122,
                                "mediaStart" : 1849,
                                "mediaDuration" : 122,
                                "scalar" : 1,
                                "animationTracks" : {

                                }
                              }
,
                          "start" : 164,
                          "duration" : 122,
                          "mediaStart" : 0,
                          "mediaDuration" : 23566,
                          "scalar" : 1,
                          "metadata" : {
                            "AutoAppliedSmartFocus" : "False",
                            "clipSpeedAttribute" : false
                          }
                        },
                        {
                          "id" : 2001,
                          "_type" : "UnifiedMedia",
                          "video" : 
                              {
                                "id" : 2002,
                                "_type" : "ScreenVMFile",
                                "src" : 3,
                                "trackNumber" : 0,
                                "attributes" : {
                                  "ident" : "Rec 01-28-21_003"
                                },
                                "parameters" : {
                                  "cursorScale" : {
                                    "type" : "double",
                                    "defaultValue" : 0.0,
                                    "interp" : "linr"
                                  },
                                  "cursorOpacity" : {
                                    "type" : "double",
                                    "defaultValue" : 0.0,
                                    "interp" : "linr"
                                  }
                                },
                                "effects" : [

                                ],
                                "start" : 286,
                                "duration" : 38,
                                "mediaStart" : 2036,
                                "mediaDuration" : 38,
                                "scalar" : 1,
                                "animationTracks" : {

                                }
                              },
                          "audio" : 
                              {
                                "id" : 2003,
                                "_type" : "AMFile",
                                "src" : 3,
                                "trackNumber" : 1,
                                "attributes" : {
                                  "ident" : "",
                                  "gain" : 1.0,
                                  "mixToMono" : false
                                },
                                  "channelNumber" : "0,1",
                                "effects" : [

                                ],
                                "start" : 286,
                                "duration" : 38,
                                "mediaStart" : 2036,
                                "mediaDuration" : 38,
                                "scalar" : 1,
                                "animationTracks" : {

                                }
                              }
,
                          "start" : 286,
                          "duration" : 38,
                          "mediaStart" : 0,
                          "mediaDuration" : 23566,
                          "scalar" : 1,
                          "metadata" : {
                            "AutoAppliedSmartFocus" : "False",
                            "clipSpeedAttribute" : false
                          }
                        },
                        {
                          "id" : 2004,
                          "_type" : "UnifiedMedia",
                          "video" : 
                              {
                                "id" : 2005,
                                "_type" : "ScreenVMFile",
                                "src" : 3,
                                "trackNumber" : 0,
                                "attributes" : {
                                  "ident" : "Rec 01-28-21_003"
                                },
                                "parameters" : {
                                  "cursorScale" : {
                                    "type" : "double",
                                    "defaultValue" : 0.0,
                                    "interp" : "linr"
                                  },
                                  "cursorOpacity" : {
                                    "type" : "double",
                                    "defaultValue" : 0.0,
                                    "interp" : "linr"
                                  }
                                },
                                "effects" : [

                                ],
                                "start" : 324,
                                "duration" : 30,
                                "mediaStart" : 2087,
                                "mediaDuration" : 30,
                                "scalar" : 1,
                                "animationTracks" : {

                                }
                              },
                          "audio" : 
                              {
                                "id" : 2006,
                                "_type" : "AMFile",
                                "src" : 3,
                                "trackNumber" : 1,
                                "attributes" : {
                                  "ident" : "",
                                  "gain" : 1.0,
                                  "mixToMono" : false
                                },
                                  "channelNumber" : "0,1",
                                "effects" : [

                                ],
                                "start" : 324,
                                "duration" : 30,
                                "mediaStart" : 2087,
                                "mediaDuration" : 30,
                                "scalar" : 1,
                                "animationTracks" : {

                                }
                              }
,
                          "start" : 324,
                          "duration" : 30,
                          "mediaStart" : 0,
                          "mediaDuration" : 23566,
                          "scalar" : 1,
                          "metadata" : {
                            "AutoAppliedSmartFocus" : "False",
                            "clipSpeedAttribute" : false
                          }
                        },
                        {
                          "id" : 2007,
                          "_type" : "UnifiedMedia",
                          "video" : 
                              {
                                "id" : 2008,
                                "_type" : "ScreenVMFile",
                                "src" : 3,
                                "trackNumber" : 0,
                                "attributes" : {
                                  "ident" : "Rec 01-28-21_003"
                                },
                                "parameters" : {
                                  "cursorScale" : {
                                    "type" : "double",
                                    "defaultValue" : 0.0,
                                    "interp" : "linr"
                                  },
                                  "cursorOpacity" : {
                                    "type" : "double",
                                    "defaultValue" : 0.0,
                                    "interp" : "linr"
                                  }
                                },
                                "effects" : [

                                ],
                                "start" : 354,
                                "duration" : 92,
                                "mediaStart" : 2148,
                                "mediaDuration" : 92,
                                "scalar" : 1,
                                "animationTracks" : {

                                }
                              },
                          "audio" : 
                              {
                                "id" : 2009,
                                "_type" : "AMFile",
                                "src" : 3,
                                "trackNumber" : 1,
                                "attributes" : {
                                  "ident" : "",
                                  "gain" : 1.0,
                                  "mixToMono" : false
                                },
                                  "channelNumber" : "0,1",
                                "effects" : [

                                ],
                                "start" : 354,
                                "duration" : 92,
                                "mediaStart" : 2148,
                                "mediaDuration" : 92,
                                "scalar" : 1,
                                "animationTracks" : {

                                }
                              }
,
                          "start" : 354,
                          "duration" : 92,
                          "mediaStart" : 0,
                          "mediaDuration" : 23566,
                          "scalar" : 1,
                          "metadata" : {
                            "AutoAppliedSmartFocus" : "False",
                            "clipSpeedAttribute" : false
                          }
                        },
                        {
                          "id" : 2010,
                          "_type" : "UnifiedMedia",
                          "video" : 
                              {
                                "id" : 2011,
                                "_type" : "ScreenVMFile",
                                "src" : 3,
                                "trackNumber" : 0,
                                "attributes" : {
                                  "ident" : "Rec 01-28-21_003"
                                },
                                "parameters" : {
                                  "cursorScale" : {
                                    "type" : "double",
                                    "defaultValue" : 0.0,
                                    "interp" : "linr"
                                  },
                                  "cursorOpacity" : {
                                    "type" : "double",
                                    "defaultValue" : 0.0,
                                    "interp" : "linr"
                                  }
                                },
                                "effects" : [

                                ],
                                "start" : 446,
                                "duration" : 63,
                                "mediaStart" : 2290,
                                "mediaDuration" : 63,
                                "scalar" : 1,
                                "animationTracks" : {

                                }
                              },
                          "audio" : 
                              {
                                "id" : 2012,
                                "_type" : "AMFile",
                                "src" : 3,
                                "trackNumber" : 1,
                                "attributes" : {
                                  "ident" : "",
                                  "gain" : 1.0,
                                  "mixToMono" : false
                                },
                                  "channelNumber" : "0,1",
                                "effects" : [

                                ],
                                "start" : 446,
                                "duration" : 63,
                                "mediaStart" : 2290,
                                "mediaDuration" : 63,
                                "scalar" : 1,
                                "animationTracks" : {

                                }
                              }
,
                          "start" : 446,
                          "duration" : 63,
                          "mediaStart" : 0,
                          "mediaDuration" : 23566,
                          "scalar" : 1,
                          "metadata" : {
                            "AutoAppliedSmartFocus" : "False",
                            "clipSpeedAttribute" : false
                          }
                        },
                        {
                          "id" : 2013,
                          "_type" : "UnifiedMedia",
                          "video" : 
                              {
                                "id" : 2014,
                                "_type" : "ScreenVMFile",
                                "src" : 3,
                                "trackNumber" : 0,
                                "attributes" : {
                                  "ident" : "Rec 01-28-21_003"
                                },
                                "parameters" : {
                                  "cursorScale" : {
                                    "type" : "double",
                                    "defaultValue" : 0.0,
                                    "interp" : "linr"
                                  },
                                  "cursorOpacity" : {
                                    "type" : "double",
                                    "defaultValue" : 0.0,
                                    "interp" : "linr"
                                  }
                                },
                                "effects" : [

                                ],
                                "start" : 509,
                                "duration" : 27,
                                "mediaStart" : 2376,
                                "mediaDuration" : 27,
                                "scalar" : 1,
                                "animationTracks" : {

                                }
                              },
                          "audio" : 
                              {
                                "id" : 2015,
                                "_type" : "AMFile",
                                "src" : 3,
                                "trackNumber" : 1,
                                "attributes" : {
                                  "ident" : "",
                                  "gain" : 1.0,
                                  "mixToMono" : false
                                },
                                  "channelNumber" : "0,1",
                                "effects" : [

                                ],
                                "start" : 509,
                                "duration" : 27,
                                "mediaStart" : 2376,
                                "mediaDuration" : 27,
                                "scalar" : 1,
                                "animationTracks" : {

                                }
                              }
,
                          "start" : 509,
                          "duration" : 27,
                          "mediaStart" : 0,
                          "mediaDuration" : 23566,
                          "scalar" : 1,
                          "metadata" : {
                            "AutoAppliedSmartFocus" : "False",
                            "clipSpeedAttribute" : false
                          }
                        },
                        {
                          "id" : 2016,
                          "_type" : "UnifiedMedia",
                          "video" : 
                              {
                                "id" : 2017,
                                "_type" : "ScreenVMFile",
                                "src" : 3,
                                "trackNumber" : 0,
                                "attributes" : {
                                  "ident" : "Rec 01-28-21_003"
                                },
                                "parameters" : {
                                  "cursorScale" : {
                                    "type" : "double",
                                    "defaultValue" : 0.0,
                                    "interp" : "linr"
                                  },
                                  "cursorOpacity" : {
                                    "type" : "double",
                                    "defaultValue" : 0.0,
                                    "interp" : "linr"
                                  }
                                },
                                "effects" : [

                                ],
                                "start" : 536,
                                "duration" : 31,
                                "mediaStart" : 2426,
                                "mediaDuration" : 31,
                                "scalar" : 1,
                                "animationTracks" : {

                                }
                              },
                          "audio" : 
                              {
                                "id" : 2018,
                                "_type" : "AMFile",
                                "src" : 3,
                                "trackNumber" : 1,
                                "attributes" : {
                                  "ident" : "",
                                  "gain" : 1.0,
                                  "mixToMono" : false
                                },
                                  "channelNumber" : "0,1",
                                "effects" : [

                                ],
                                "start" : 536,
                                "duration" : 31,
                                "mediaStart" : 2426,
                                "mediaDuration" : 31,
                                "scalar" : 1,
                                "animationTracks" : {

                                }
                              }
,
                          "start" : 536,
                          "duration" : 31,
                          "mediaStart" : 0,
                          "mediaDuration" : 23566,
                          "scalar" : 1,
                          "metadata" : {
                            "AutoAppliedSmartFocus" : "False",
                            "clipSpeedAttribute" : false
                          }
                        },
                        {
                          "id" : 2019,
                          "_type" : "UnifiedMedia",
                          "video" : 
                              {
                                "id" : 2020,
                                "_type" : "ScreenVMFile",
                                "src" : 3,
                                "trackNumber" : 0,
                                "attributes" : {
                                  "ident" : "Rec 01-28-21_003"
                                },
                                "parameters" : {
                                  "cursorScale" : {
                                    "type" : "double",
                                    "defaultValue" : 0.0,
                                    "interp" : "linr"
                                  },
                                  "cursorOpacity" : {
                                    "type" : "double",
                                    "defaultValue" : 0.0,
                                    "interp" : "linr"
                                  }
                                },
                                "effects" : [

                                ],
                                "start" : 567,
                                "duration" : 25,
                                "mediaStart" : 2496,
                                "mediaDuration" : 25,
                                "scalar" : 1,
                                "animationTracks" : {

                                }
                              },
                          "audio" : 
                              {
                                "id" : 2021,
                                "_type" : "AMFile",
                                "src" : 3,
                                "trackNumber" : 1,
                                "attributes" : {
                                  "ident" : "",
                                  "gain" : 1.0,
                                  "mixToMono" : false
                                },
                                  "channelNumber" : "0,1",
                                "effects" : [

                                ],
                                "start" : 567,
                                "duration" : 25,
                                "mediaStart" : 2496,
                                "mediaDuration" : 25,
                                "scalar" : 1,
                                "animationTracks" : {

                                }
                              }
,
                          "start" : 567,
                          "duration" : 25,
                          "mediaStart" : 0,
                          "mediaDuration" : 23566,
                          "scalar" : 1,
                          "metadata" : {
                            "AutoAppliedSmartFocus" : "False",
                            "clipSpeedAttribute" : false
                          }
                        },
                        {
                          "id" : 2022,
                          "_type" : "UnifiedMedia",
                          "video" : 
                              {
                                "id" : 2023,
                                "_type" : "ScreenVMFile",
                                "src" : 3,
                                "trackNumber" : 0,
                                "attributes" : {
                                  "ident" : "Rec 01-28-21_003"
                                },
                                "parameters" : {
                                  "cursorScale" : {
                                    "type" : "double",
                                    "defaultValue" : 0.0,
                                    "interp" : "linr"
                                  },
                                  "cursorOpacity" : {
                                    "type" : "double",
                                    "defaultValue" : 0.0,
                                    "interp" : "linr"
                                  }
                                },
                                "effects" : [

                                ],
                                "start" : 592,
                                "duration" : 31,
                                "mediaStart" : 2611,
                                "mediaDuration" : 31,
                                "scalar" : 1,
                                "animationTracks" : {

                                }
                              },
                          "audio" : 
                              {
                                "id" : 2024,
                                "_type" : "AMFile",
                                "src" : 3,
                                "trackNumber" : 1,
                                "attributes" : {
                                  "ident" : "",
                                  "gain" : 1.0,
                                  "mixToMono" : false
                                },
                                  "channelNumber" : "0,1",
                                "effects" : [

                                ],
                                "start" : 592,
                                "duration" : 31,
                                "mediaStart" : 2611,
                                "mediaDuration" : 31,
                                "scalar" : 1,
                                "animationTracks" : {

                                }
                              }
,
                          "start" : 592,
                          "duration" : 31,
                          "mediaStart" : 0,
                          "mediaDuration" : 23566,
                          "scalar" : 1,
                          "metadata" : {
                            "AutoAppliedSmartFocus" : "False",
                            "clipSpeedAttribute" : false
                          }
                        },
                        {
                          "id" : 2025,
                          "_type" : "UnifiedMedia",
                          "video" : 
                              {
                                "id" : 2026,
                                "_type" : "ScreenVMFile",
                                "src" : 3,
                                "trackNumber" : 0,
                                "attributes" : {
                                  "ident" : "Rec 01-28-21_003"
                                },
                                "parameters" : {
                                  "cursorScale" : {
                                    "type" : "double",
                                    "defaultValue" : 0.0,
                                    "interp" : "linr"
                                  },
                                  "cursorOpacity" : {
                                    "type" : "double",
                                    "defaultValue" : 0.0,
                                    "interp" : "linr"
                                  }
                                },
                                "effects" : [

                                ],
                                "start" : 623,
                                "duration" : 731,
                                "mediaStart" : 2727,
                                "mediaDuration" : 731,
                                "scalar" : 1,
                                "animationTracks" : {

                                }
                              },
                          "audio" : 
                              {
                                "id" : 2027,
                                "_type" : "AMFile",
                                "src" : 3,
                                "trackNumber" : 1,
                                "attributes" : {
                                  "ident" : "",
                                  "gain" : 1.0,
                                  "mixToMono" : false
                                },
                                  "channelNumber" : "0,1",
                                "effects" : [

                                ],
                                "start" : 623,
                                "duration" : 731,
                                "mediaStart" : 2727,
                                "mediaDuration" : 731,
                                "scalar" : 1,
                                "animationTracks" : {

                                }
                              }
,
                          "start" : 623,
                          "duration" : 731,
                          "mediaStart" : 0,
                          "mediaDuration" : 23566,
                          "scalar" : 1,
                          "metadata" : {
                            "AutoAppliedSmartFocus" : "False",
                            "clipSpeedAttribute" : false
                          }
                        },
                        {
                          "id" : 2028,
                          "_type" : "UnifiedMedia",
                          "video" : 
                              {
                                "id" : 2029,
                                "_type" : "ScreenVMFile",
                                "src" : 3,
                                "trackNumber" : 0,
                                "attributes" : {
                                  "ident" : "Rec 01-28-21_003"
                                },
                                "parameters" : {
                                  "cursorScale" : {
                                    "type" : "double",
                                    "defaultValue" : 0.0,
                                    "interp" : "linr"
                                  },
                                  "cursorOpacity" : {
                                    "type" : "double",
                                    "defaultValue" : 0.0,
                                    "interp" : "linr"
                                  }
                                },
                                "effects" : [

                                ],
                                "start" : 1354,
                                "duration" : 293,
                                "mediaStart" : 3532,
                                "mediaDuration" : 293,
                                "scalar" : 1,
                                "animationTracks" : {

                                }
                              },
                          "audio" : 
                              {
                                "id" : 2030,
                                "_type" : "AMFile",
                                "src" : 3,
                                "trackNumber" : 1,
                                "attributes" : {
                                  "ident" : "",
                                  "gain" : 1.0,
                                  "mixToMono" : false
                                },
                                  "channelNumber" : "0,1",
                                "effects" : [

                                ],
                                "start" : 1354,
                                "duration" : 293,
                                "mediaStart" : 3532,
                                "mediaDuration" : 293,
                                "scalar" : 1,
                                "animationTracks" : {

                                }
                              }
,
                          "start" : 1354,
                          "duration" : 293,
                          "mediaStart" : 0,
                          "mediaDuration" : 23566,
                          "scalar" : 1,
                          "metadata" : {
                            "AutoAppliedSmartFocus" : "False",
                            "clipSpeedAttribute" : false
                          }
                        },
                        {
                          "id" : 2031,
                          "_type" : "UnifiedMedia",
                          "video" : 
                              {
                                "id" : 2032,
                                "_type" : "ScreenVMFile",
                                "src" : 3,
                                "trackNumber" : 0,
                                "attributes" : {
                                  "ident" : "Rec 01-28-21_003"
                                },
                                "parameters" : {
                                  "cursorScale" : {
                                    "type" : "double",
                                    "defaultValue" : 0.0,
                                    "interp" : "linr"
                                  },
                                  "cursorOpacity" : {
                                    "type" : "double",
                                    "defaultValue" : 0.0,
                                    "interp" : "linr"
                                  }
                                },
                                "effects" : [

                                ],
                                "start" : 1647,
                                "duration" : 194,
                                "mediaStart" : 3916,
                                "mediaDuration" : 194,
                                "scalar" : 1,
                                "animationTracks" : {

                                }
                              },
                          "audio" : 
                              {
                                "id" : 2033,
                                "_type" : "AMFile",
                                "src" : 3,
                                "trackNumber" : 1,
                                "attributes" : {
                                  "ident" : "",
                                  "gain" : 1.0,
                                  "mixToMono" : false
                                },
                                  "channelNumber" : "0,1",
                                "effects" : [

                                ],
                                "start" : 1647,
                                "duration" : 194,
                                "mediaStart" : 3916,
                                "mediaDuration" : 194,
                                "scalar" : 1,
                                "animationTracks" : {

                                }
                              }
,
                          "start" : 1647,
                          "duration" : 194,
                          "mediaStart" : 0,
                          "mediaDuration" : 23566,
                          "scalar" : 1,
                          "metadata" : {
                            "AutoAppliedSmartFocus" : "False",
                            "clipSpeedAttribute" : false
                          }
                        },
                        {
                          "id" : 2034,
                          "_type" : "UnifiedMedia",
                          "video" : 
                              {
                                "id" : 2035,
                                "_type" : "ScreenVMFile",
                                "src" : 3,
                                "trackNumber" : 0,
                                "attributes" : {
                                  "ident" : "Rec 01-28-21_003"
                                },
                                "parameters" : {
                                  "cursorScale" : {
                                    "type" : "double",
                                    "defaultValue" : 0.0,
                                    "interp" : "linr"
                                  },
                                  "cursorOpacity" : {
                                    "type" : "double",
                                    "defaultValue" : 0.0,
                                    "interp" : "linr"
                                  }
                                },
                                "effects" : [

                                ],
                                "start" : 1841,
                                "duration" : 37,
                                "mediaStart" : 4201,
                                "mediaDuration" : 37,
                                "scalar" : 1,
                                "animationTracks" : {

                                }
                              },
                          "audio" : 
                              {
                                "id" : 2036,
                                "_type" : "AMFile",
                                "src" : 3,
                                "trackNumber" : 1,
                                "attributes" : {
                                  "ident" : "",
                                  "gain" : 1.0,
                                  "mixToMono" : false
                                },
                                  "channelNumber" : "0,1",
                                "effects" : [

                                ],
                                "start" : 1841,
                                "duration" : 37,
                                "mediaStart" : 4201,
                                "mediaDuration" : 37,
                                "scalar" : 1,
                                "animationTracks" : {

                                }
                              }
,
                          "start" : 1841,
                          "duration" : 37,
                          "mediaStart" : 0,
                          "mediaDuration" : 23566,
                          "scalar" : 1,
                          "metadata" : {
                            "AutoAppliedSmartFocus" : "False",
                            "clipSpeedAttribute" : false
                          }
                        },
                        {
                          "id" : 2037,
                          "_type" : "UnifiedMedia",
                          "video" : 
                              {
                                "id" : 2038,
                                "_type" : "ScreenVMFile",
                                "src" : 3,
                                "trackNumber" : 0,
                                "attributes" : {
                                  "ident" : "Rec 01-28-21_003"
                                },
                                "parameters" : {
                                  "cursorScale" : {
                                    "type" : "double",
                                    "defaultValue" : 0.0,
                                    "interp" : "linr"
                                  },
                                  "cursorOpacity" : {
                                    "type" : "double",
                                    "defaultValue" : 0.0,
                                    "interp" : "linr"
                                  }
                                },
                                "effects" : [

                                ],
                                "start" : 1878,
                                "duration" : 37,
                                "mediaStart" : 4247,
                                "mediaDuration" : 37,
                                "scalar" : 1,
                                "animationTracks" : {

                                }
                              },
                          "audio" : 
                              {
                                "id" : 2039,
                                "_type" : "AMFile",
                                "src" : 3,
                                "trackNumber" : 1,
                                "attributes" : {
                                  "ident" : "",
                                  "gain" : 1.0,
                                  "mixToMono" : false
                                },
                                  "channelNumber" : "0,1",
                                "effects" : [

                                ],
                                "start" : 1878,
                                "duration" : 37,
                                "mediaStart" : 4247,
                                "mediaDuration" : 37,
                                "scalar" : 1,
                                "animationTracks" : {

                                }
                              }
,
                          "start" : 1878,
                          "duration" : 37,
                          "mediaStart" : 0,
                          "mediaDuration" : 23566,
                          "scalar" : 1,
                          "metadata" : {
                            "AutoAppliedSmartFocus" : "False",
                            "clipSpeedAttribute" : false
                          }
                        },
                        {
                          "id" : 2040,
                          "_type" : "UnifiedMedia",
                          "video" : 
                              {
                                "id" : 2041,
                                "_type" : "ScreenVMFile",
                                "src" : 3,
                                "trackNumber" : 0,
                                "attributes" : {
                                  "ident" : "Rec 01-28-21_003"
                                },
                                "parameters" : {
                                  "cursorScale" : {
                                    "type" : "double",
                                    "defaultValue" : 0.0,
                                    "interp" : "linr"
                                  },
                                  "cursorOpacity" : {
                                    "type" : "double",
                                    "defaultValue" : 0.0,
                                    "interp" : "linr"
                                  }
                                },
                                "effects" : [

                                ],
                                "start" : 1915,
                                "duration" : 22,
                                "mediaStart" : 4384,
                                "mediaDuration" : 22,
                                "scalar" : 1,
                                "animationTracks" : {

                                }
                              },
                          "audio" : 
                              {
                                "id" : 2042,
                                "_type" : "AMFile",
                                "src" : 3,
                                "trackNumber" : 1,
                                "attributes" : {
                                  "ident" : "",
                                  "gain" : 1.0,
                                  "mixToMono" : false
                                },
                                  "channelNumber" : "0,1",
                                "effects" : [

                                ],
                                "start" : 1915,
                                "duration" : 22,
                                "mediaStart" : 4384,
                                "mediaDuration" : 22,
                                "scalar" : 1,
                                "animationTracks" : {

                                }
                              }
,
                          "start" : 1915,
                          "duration" : 22,
                          "mediaStart" : 0,
                          "mediaDuration" : 23566,
                          "scalar" : 1,
                          "metadata" : {
                            "AutoAppliedSmartFocus" : "False",
                            "clipSpeedAttribute" : false
                          }
                        },
                        {
                          "id" : 2043,
                          "_type" : "UnifiedMedia",
                          "video" : 
                              {
                                "id" : 2044,
                                "_type" : "ScreenVMFile",
                                "src" : 3,
                                "trackNumber" : 0,
                                "attributes" : {
                                  "ident" : "Rec 01-28-21_003"
                                },
                                "parameters" : {
                                  "cursorScale" : {
                                    "type" : "double",
                                    "defaultValue" : 0.0,
                                    "interp" : "linr"
                                  },
                                  "cursorOpacity" : {
                                    "type" : "double",
                                    "defaultValue" : 0.0,
                                    "interp" : "linr"
                                  }
                                },
                                "effects" : [

                                ],
                                "start" : 1937,
                                "duration" : 34,
                                "mediaStart" : 4420,
                                "mediaDuration" : 34,
                                "scalar" : 1,
                                "animationTracks" : {

                                }
                              },
                          "audio" : 
                              {
                                "id" : 2045,
                                "_type" : "AMFile",
                                "src" : 3,
                                "trackNumber" : 1,
                                "attributes" : {
                                  "ident" : "",
                                  "gain" : 1.0,
                                  "mixToMono" : false
                                },
                                  "channelNumber" : "0,1",
                                "effects" : [

                                ],
                                "start" : 1937,
                                "duration" : 34,
                                "mediaStart" : 4420,
                                "mediaDuration" : 34,
                                "scalar" : 1,
                                "animationTracks" : {

                                }
                              }
,
                          "start" : 1937,
                          "duration" : 34,
                          "mediaStart" : 0,
                          "mediaDuration" : 23566,
                          "scalar" : 1,
                          "metadata" : {
                            "AutoAppliedSmartFocus" : "False",
                            "clipSpeedAttribute" : false
                          }
                        },
                        {
                          "id" : 2046,
                          "_type" : "UnifiedMedia",
                          "video" : 
                              {
                                "id" : 2047,
                                "_type" : "ScreenVMFile",
                                "src" : 3,
                                "trackNumber" : 0,
                                "attributes" : {
                                  "ident" : "Rec 01-28-21_003"
                                },
                                "parameters" : {
                                  "cursorScale" : {
                                    "type" : "double",
                                    "defaultValue" : 0.0,
                                    "interp" : "linr"
                                  },
                                  "cursorOpacity" : {
                                    "type" : "double",
                                    "defaultValue" : 0.0,
                                    "interp" : "linr"
                                  }
                                },
                                "effects" : [

                                ],
                                "start" : 1971,
                                "duration" : 39,
                                "mediaStart" : 4925,
                                "mediaDuration" : 39,
                                "scalar" : 1,
                                "animationTracks" : {

                                }
                              },
                          "audio" : 
                              {
                                "id" : 2048,
                                "_type" : "AMFile",
                                "src" : 3,
                                "trackNumber" : 1,
                                "attributes" : {
                                  "ident" : "",
                                  "gain" : 1.0,
                                  "mixToMono" : false
                                },
                                  "channelNumber" : "0,1",
                                "effects" : [

                                ],
                                "start" : 1971,
                                "duration" : 39,
                                "mediaStart" : 4925,
                                "mediaDuration" : 39,
                                "scalar" : 1,
                                "animationTracks" : {

                                }
                              }
,
                          "start" : 1971,
                          "duration" : 39,
                          "mediaStart" : 0,
                          "mediaDuration" : 23566,
                          "scalar" : 1,
                          "metadata" : {
                            "AutoAppliedSmartFocus" : "False",
                            "clipSpeedAttribute" : false
                          }
                        },
                        {
                          "id" : 2049,
                          "_type" : "UnifiedMedia",
                          "video" : 
                              {
                                "id" : 2050,
                                "_type" : "ScreenVMFile",
                                "src" : 3,
                                "trackNumber" : 0,
                                "attributes" : {
                                  "ident" : "Rec 01-28-21_003"
                                },
                                "parameters" : {
                                  "cursorScale" : {
                                    "type" : "double",
                                    "defaultValue" : 0.0,
                                    "interp" : "linr"
                                  },
                                  "cursorOpacity" : {
                                    "type" : "double",
                                    "defaultValue" : 0.0,
                                    "interp" : "linr"
                                  }
                                },
                                "effects" : [

                                ],
                                "start" : 2010,
                                "duration" : 18460,
                                "mediaStart" : 5106,
                                "mediaDuration" : 18460,
                                "scalar" : 1,
                                "animationTracks" : {

                                }
                              },
                          "audio" : 
                              {
                                "id" : 2051,
                                "_type" : "AMFile",
                                "src" : 3,
                                "trackNumber" : 1,
                                "attributes" : {
                                  "ident" : "",
                                  "gain" : 1.0,
                                  "mixToMono" : false
                                },
                                  "channelNumber" : "0,1",
                                "effects" : [

                                ],
                                "start" : 2010,
                                "duration" : 18460,
                                "mediaStart" : 5106,
                                "mediaDuration" : 18460,
                                "scalar" : 1,
                                "animationTracks" : {

                                }
                              }
,
                          "start" : 2010,
                          "duration" : 18460,
                          "mediaStart" : 0,
                          "mediaDuration" : 23566,
                          "scalar" : 1,
                          "metadata" : {
                            "AutoAppliedSmartFocus" : "False",
                            "clipSpeedAttribute" : false
                          }
                        }
                    ],
                    "effects" : [

                    ],
                    "start" : 12497,
                    "duration" : 691,
                    "mediaStart" : 1305,
                    "mediaDuration" : 691,
                    "scalar" : 1,
                    "metadata" : {
                      "AutoAppliedSmartFocus" : "False",
                      "clipSpeedAttribute" : false
                    },
                    "animationTracks" : {

                    }
                  },
                  {
                    "id" : 2052,
                    "_type" : "StitchedMedia",
                    "minMediaStart" : 0,
                    "attributes" : {
                      "ident" : "Rec 01-28-21_003",
                      "gain" : 1.0,
                      "mixToMono" : false
                    },
                    "parameters" : {
                      "volume" : 1.0,
                      "cursorOpacity" : 1.0,
                      "cursorScale" : 1.0
                    },
                    "medias" : [
                        {
                          "id" : 2053,
                          "_type" : "UnifiedMedia",
                          "video" : 
                              {
                                "id" : 2054,
                                "_type" : "ScreenVMFile",
                                "src" : 3,
                                "trackNumber" : 0,
                                "attributes" : {
                                  "ident" : "Rec 01-28-21_003"
                                },
                                "parameters" : {
                                  "cursorScale" : {
                                    "type" : "double",
                                    "defaultValue" : 0.0,
                                    "interp" : "linr"
                                  },
                                  "cursorOpacity" : {
                                    "type" : "double",
                                    "defaultValue" : 0.0,
                                    "interp" : "linr"
                                  }
                                },
                                "effects" : [

                                ],
                                "start" : 0,
                                "duration" : 9,
                                "mediaStart" : 0,
                                "mediaDuration" : 9,
                                "scalar" : 1,
                                "animationTracks" : {

                                }
                              },
                          "audio" : 
                              {
                                "id" : 2055,
                                "_type" : "AMFile",
                                "src" : 3,
                                "trackNumber" : 1,
                                "attributes" : {
                                  "ident" : "",
                                  "gain" : 1.0,
                                  "mixToMono" : false
                                },
                                  "channelNumber" : "0,1",
                                "effects" : [

                                ],
                                "start" : 0,
                                "duration" : 9,
                                "mediaStart" : 0,
                                "mediaDuration" : 9,
                                "scalar" : 1,
                                "animationTracks" : {

                                }
                              }
,
                          "start" : 0,
                          "duration" : 9,
                          "mediaStart" : 0,
                          "mediaDuration" : 23566,
                          "scalar" : 1,
                          "metadata" : {
                            "AutoAppliedSmartFocus" : "False",
                            "clipSpeedAttribute" : false
                          }
                        },
                        {
                          "id" : 2056,
                          "_type" : "UnifiedMedia",
                          "video" : 
                              {
                                "id" : 2057,
                                "_type" : "ScreenVMFile",
                                "src" : 3,
                                "trackNumber" : 0,
                                "attributes" : {
                                  "ident" : "Rec 01-28-21_003"
                                },
                                "parameters" : {
                                  "cursorScale" : {
                                    "type" : "double",
                                    "defaultValue" : 0.0,
                                    "interp" : "linr"
                                  },
                                  "cursorOpacity" : {
                                    "type" : "double",
                                    "defaultValue" : 0.0,
                                    "interp" : "linr"
                                  }
                                },
                                "effects" : [

                                ],
                                "start" : 9,
                                "duration" : 47,
                                "mediaStart" : 1540,
                                "mediaDuration" : 47,
                                "scalar" : 1,
                                "animationTracks" : {

                                }
                              },
                          "audio" : 
                              {
                                "id" : 2058,
                                "_type" : "AMFile",
                                "src" : 3,
                                "trackNumber" : 1,
                                "attributes" : {
                                  "ident" : "",
                                  "gain" : 1.0,
                                  "mixToMono" : false
                                },
                                  "channelNumber" : "0,1",
                                "effects" : [

                                ],
                                "start" : 9,
                                "duration" : 47,
                                "mediaStart" : 1540,
                                "mediaDuration" : 47,
                                "scalar" : 1,
                                "animationTracks" : {

                                }
                              }
,
                          "start" : 9,
                          "duration" : 47,
                          "mediaStart" : 0,
                          "mediaDuration" : 23566,
                          "scalar" : 1,
                          "metadata" : {
                            "AutoAppliedSmartFocus" : "False",
                            "clipSpeedAttribute" : false
                          }
                        },
                        {
                          "id" : 2059,
                          "_type" : "UnifiedMedia",
                          "video" : 
                              {
                                "id" : 2060,
                                "_type" : "ScreenVMFile",
                                "src" : 3,
                                "trackNumber" : 0,
                                "attributes" : {
                                  "ident" : "Rec 01-28-21_003"
                                },
                                "parameters" : {
                                  "cursorScale" : {
                                    "type" : "double",
                                    "defaultValue" : 0.0,
                                    "interp" : "linr"
                                  },
                                  "cursorOpacity" : {
                                    "type" : "double",
                                    "defaultValue" : 0.0,
                                    "interp" : "linr"
                                  }
                                },
                                "effects" : [

                                ],
                                "start" : 56,
                                "duration" : 35,
                                "mediaStart" : 1641,
                                "mediaDuration" : 35,
                                "scalar" : 1,
                                "animationTracks" : {

                                }
                              },
                          "audio" : 
                              {
                                "id" : 2061,
                                "_type" : "AMFile",
                                "src" : 3,
                                "trackNumber" : 1,
                                "attributes" : {
                                  "ident" : "",
                                  "gain" : 1.0,
                                  "mixToMono" : false
                                },
                                  "channelNumber" : "0,1",
                                "effects" : [

                                ],
                                "start" : 56,
                                "duration" : 35,
                                "mediaStart" : 1641,
                                "mediaDuration" : 35,
                                "scalar" : 1,
                                "animationTracks" : {

                                }
                              }
,
                          "start" : 56,
                          "duration" : 35,
                          "mediaStart" : 0,
                          "mediaDuration" : 23566,
                          "scalar" : 1,
                          "metadata" : {
                            "AutoAppliedSmartFocus" : "False",
                            "clipSpeedAttribute" : false
                          }
                        },
                        {
                          "id" : 2062,
                          "_type" : "UnifiedMedia",
                          "video" : 
                              {
                                "id" : 2063,
                                "_type" : "ScreenVMFile",
                                "src" : 3,
                                "trackNumber" : 0,
                                "attributes" : {
                                  "ident" : "Rec 01-28-21_003"
                                },
                                "parameters" : {
                                  "cursorScale" : {
                                    "type" : "double",
                                    "defaultValue" : 0.0,
                                    "interp" : "linr"
                                  },
                                  "cursorOpacity" : {
                                    "type" : "double",
                                    "defaultValue" : 0.0,
                                    "interp" : "linr"
                                  }
                                },
                                "effects" : [

                                ],
                                "start" : 91,
                                "duration" : 73,
                                "mediaStart" : 1702,
                                "mediaDuration" : 73,
                                "scalar" : 1,
                                "animationTracks" : {

                                }
                              },
                          "audio" : 
                              {
                                "id" : 2064,
                                "_type" : "AMFile",
                                "src" : 3,
                                "trackNumber" : 1,
                                "attributes" : {
                                  "ident" : "",
                                  "gain" : 1.0,
                                  "mixToMono" : false
                                },
                                  "channelNumber" : "0,1",
                                "effects" : [

                                ],
                                "start" : 91,
                                "duration" : 73,
                                "mediaStart" : 1702,
                                "mediaDuration" : 73,
                                "scalar" : 1,
                                "animationTracks" : {

                                }
                              }
,
                          "start" : 91,
                          "duration" : 73,
                          "mediaStart" : 0,
                          "mediaDuration" : 23566,
                          "scalar" : 1,
                          "metadata" : {
                            "AutoAppliedSmartFocus" : "False",
                            "clipSpeedAttribute" : false
                          }
                        },
                        {
                          "id" : 2065,
                          "_type" : "UnifiedMedia",
                          "video" : 
                              {
                                "id" : 2066,
                                "_type" : "ScreenVMFile",
                                "src" : 3,
                                "trackNumber" : 0,
                                "attributes" : {
                                  "ident" : "Rec 01-28-21_003"
                                },
                                "parameters" : {
                                  "cursorScale" : {
                                    "type" : "double",
                                    "defaultValue" : 0.0,
                                    "interp" : "linr"
                                  },
                                  "cursorOpacity" : {
                                    "type" : "double",
                                    "defaultValue" : 0.0,
                                    "interp" : "linr"
                                  }
                                },
                                "effects" : [

                                ],
                                "start" : 164,
                                "duration" : 122,
                                "mediaStart" : 1849,
                                "mediaDuration" : 122,
                                "scalar" : 1,
                                "animationTracks" : {

                                }
                              },
                          "audio" : 
                              {
                                "id" : 2067,
                                "_type" : "AMFile",
                                "src" : 3,
                                "trackNumber" : 1,
                                "attributes" : {
                                  "ident" : "",
                                  "gain" : 1.0,
                                  "mixToMono" : false
                                },
                                  "channelNumber" : "0,1",
                                "effects" : [

                                ],
                                "start" : 164,
                                "duration" : 122,
                                "mediaStart" : 1849,
                                "mediaDuration" : 122,
                                "scalar" : 1,
                                "animationTracks" : {

                                }
                              }
,
                          "start" : 164,
                          "duration" : 122,
                          "mediaStart" : 0,
                          "mediaDuration" : 23566,
                          "scalar" : 1,
                          "metadata" : {
                            "AutoAppliedSmartFocus" : "False",
                            "clipSpeedAttribute" : false
                          }
                        },
                        {
                          "id" : 2068,
                          "_type" : "UnifiedMedia",
                          "video" : 
                              {
                                "id" : 2069,
                                "_type" : "ScreenVMFile",
                                "src" : 3,
                                "trackNumber" : 0,
                                "attributes" : {
                                  "ident" : "Rec 01-28-21_003"
                                },
                                "parameters" : {
                                  "cursorScale" : {
                                    "type" : "double",
                                    "defaultValue" : 0.0,
                                    "interp" : "linr"
                                  },
                                  "cursorOpacity" : {
                                    "type" : "double",
                                    "defaultValue" : 0.0,
                                    "interp" : "linr"
                                  }
                                },
                                "effects" : [

                                ],
                                "start" : 286,
                                "duration" : 38,
                                "mediaStart" : 2036,
                                "mediaDuration" : 38,
                                "scalar" : 1,
                                "animationTracks" : {

                                }
                              },
                          "audio" : 
                              {
                                "id" : 2070,
                                "_type" : "AMFile",
                                "src" : 3,
                                "trackNumber" : 1,
                                "attributes" : {
                                  "ident" : "",
                                  "gain" : 1.0,
                                  "mixToMono" : false
                                },
                                  "channelNumber" : "0,1",
                                "effects" : [

                                ],
                                "start" : 286,
                                "duration" : 38,
                                "mediaStart" : 2036,
                                "mediaDuration" : 38,
                                "scalar" : 1,
                                "animationTracks" : {

                                }
                              }
,
                          "start" : 286,
                          "duration" : 38,
                          "mediaStart" : 0,
                          "mediaDuration" : 23566,
                          "scalar" : 1,
                          "metadata" : {
                            "AutoAppliedSmartFocus" : "False",
                            "clipSpeedAttribute" : false
                          }
                        },
                        {
                          "id" : 2071,
                          "_type" : "UnifiedMedia",
                          "video" : 
                              {
                                "id" : 2072,
                                "_type" : "ScreenVMFile",
                                "src" : 3,
                                "trackNumber" : 0,
                                "attributes" : {
                                  "ident" : "Rec 01-28-21_003"
                                },
                                "parameters" : {
                                  "cursorScale" : {
                                    "type" : "double",
                                    "defaultValue" : 0.0,
                                    "interp" : "linr"
                                  },
                                  "cursorOpacity" : {
                                    "type" : "double",
                                    "defaultValue" : 0.0,
                                    "interp" : "linr"
                                  }
                                },
                                "effects" : [

                                ],
                                "start" : 324,
                                "duration" : 30,
                                "mediaStart" : 2087,
                                "mediaDuration" : 30,
                                "scalar" : 1,
                                "animationTracks" : {

                                }
                              },
                          "audio" : 
                              {
                                "id" : 2073,
                                "_type" : "AMFile",
                                "src" : 3,
                                "trackNumber" : 1,
                                "attributes" : {
                                  "ident" : "",
                                  "gain" : 1.0,
                                  "mixToMono" : false
                                },
                                  "channelNumber" : "0,1",
                                "effects" : [

                                ],
                                "start" : 324,
                                "duration" : 30,
                                "mediaStart" : 2087,
                                "mediaDuration" : 30,
                                "scalar" : 1,
                                "animationTracks" : {

                                }
                              }
,
                          "start" : 324,
                          "duration" : 30,
                          "mediaStart" : 0,
                          "mediaDuration" : 23566,
                          "scalar" : 1,
                          "metadata" : {
                            "AutoAppliedSmartFocus" : "False",
                            "clipSpeedAttribute" : false
                          }
                        },
                        {
                          "id" : 2074,
                          "_type" : "UnifiedMedia",
                          "video" : 
                              {
                                "id" : 2075,
                                "_type" : "ScreenVMFile",
                                "src" : 3,
                                "trackNumber" : 0,
                                "attributes" : {
                                  "ident" : "Rec 01-28-21_003"
                                },
                                "parameters" : {
                                  "cursorScale" : {
                                    "type" : "double",
                                    "defaultValue" : 0.0,
                                    "interp" : "linr"
                                  },
                                  "cursorOpacity" : {
                                    "type" : "double",
                                    "defaultValue" : 0.0,
                                    "interp" : "linr"
                                  }
                                },
                                "effects" : [

                                ],
                                "start" : 354,
                                "duration" : 92,
                                "mediaStart" : 2148,
                                "mediaDuration" : 92,
                                "scalar" : 1,
                                "animationTracks" : {

                                }
                              },
                          "audio" : 
                              {
                                "id" : 2076,
                                "_type" : "AMFile",
                                "src" : 3,
                                "trackNumber" : 1,
                                "attributes" : {
                                  "ident" : "",
                                  "gain" : 1.0,
                                  "mixToMono" : false
                                },
                                  "channelNumber" : "0,1",
                                "effects" : [

                                ],
                                "start" : 354,
                                "duration" : 92,
                                "mediaStart" : 2148,
                                "mediaDuration" : 92,
                                "scalar" : 1,
                                "animationTracks" : {

                                }
                              }
,
                          "start" : 354,
                          "duration" : 92,
                          "mediaStart" : 0,
                          "mediaDuration" : 23566,
                          "scalar" : 1,
                          "metadata" : {
                            "AutoAppliedSmartFocus" : "False",
                            "clipSpeedAttribute" : false
                          }
                        },
                        {
                          "id" : 2077,
                          "_type" : "UnifiedMedia",
                          "video" : 
                              {
                                "id" : 2078,
                                "_type" : "ScreenVMFile",
                                "src" : 3,
                                "trackNumber" : 0,
                                "attributes" : {
                                  "ident" : "Rec 01-28-21_003"
                                },
                                "parameters" : {
                                  "cursorScale" : {
                                    "type" : "double",
                                    "defaultValue" : 0.0,
                                    "interp" : "linr"
                                  },
                                  "cursorOpacity" : {
                                    "type" : "double",
                                    "defaultValue" : 0.0,
                                    "interp" : "linr"
                                  }
                                },
                                "effects" : [

                                ],
                                "start" : 446,
                                "duration" : 63,
                                "mediaStart" : 2290,
                                "mediaDuration" : 63,
                                "scalar" : 1,
                                "animationTracks" : {

                                }
                              },
                          "audio" : 
                              {
                                "id" : 2079,
                                "_type" : "AMFile",
                                "src" : 3,
                                "trackNumber" : 1,
                                "attributes" : {
                                  "ident" : "",
                                  "gain" : 1.0,
                                  "mixToMono" : false
                                },
                                  "channelNumber" : "0,1",
                                "effects" : [

                                ],
                                "start" : 446,
                                "duration" : 63,
                                "mediaStart" : 2290,
                                "mediaDuration" : 63,
                                "scalar" : 1,
                                "animationTracks" : {

                                }
                              }
,
                          "start" : 446,
                          "duration" : 63,
                          "mediaStart" : 0,
                          "mediaDuration" : 23566,
                          "scalar" : 1,
                          "metadata" : {
                            "AutoAppliedSmartFocus" : "False",
                            "clipSpeedAttribute" : false
                          }
                        },
                        {
                          "id" : 2080,
                          "_type" : "UnifiedMedia",
                          "video" : 
                              {
                                "id" : 2081,
                                "_type" : "ScreenVMFile",
                                "src" : 3,
                                "trackNumber" : 0,
                                "attributes" : {
                                  "ident" : "Rec 01-28-21_003"
                                },
                                "parameters" : {
                                  "cursorScale" : {
                                    "type" : "double",
                                    "defaultValue" : 0.0,
                                    "interp" : "linr"
                                  },
                                  "cursorOpacity" : {
                                    "type" : "double",
                                    "defaultValue" : 0.0,
                                    "interp" : "linr"
                                  }
                                },
                                "effects" : [

                                ],
                                "start" : 509,
                                "duration" : 27,
                                "mediaStart" : 2376,
                                "mediaDuration" : 27,
                                "scalar" : 1,
                                "animationTracks" : {

                                }
                              },
                          "audio" : 
                              {
                                "id" : 2082,
                                "_type" : "AMFile",
                                "src" : 3,
                                "trackNumber" : 1,
                                "attributes" : {
                                  "ident" : "",
                                  "gain" : 1.0,
                                  "mixToMono" : false
                                },
                                  "channelNumber" : "0,1",
                                "effects" : [

                                ],
                                "start" : 509,
                                "duration" : 27,
                                "mediaStart" : 2376,
                                "mediaDuration" : 27,
                                "scalar" : 1,
                                "animationTracks" : {

                                }
                              }
,
                          "start" : 509,
                          "duration" : 27,
                          "mediaStart" : 0,
                          "mediaDuration" : 23566,
                          "scalar" : 1,
                          "metadata" : {
                            "AutoAppliedSmartFocus" : "False",
                            "clipSpeedAttribute" : false
                          }
                        },
                        {
                          "id" : 2083,
                          "_type" : "UnifiedMedia",
                          "video" : 
                              {
                                "id" : 2084,
                                "_type" : "ScreenVMFile",
                                "src" : 3,
                                "trackNumber" : 0,
                                "attributes" : {
                                  "ident" : "Rec 01-28-21_003"
                                },
                                "parameters" : {
                                  "cursorScale" : {
                                    "type" : "double",
                                    "defaultValue" : 0.0,
                                    "interp" : "linr"
                                  },
                                  "cursorOpacity" : {
                                    "type" : "double",
                                    "defaultValue" : 0.0,
                                    "interp" : "linr"
                                  }
                                },
                                "effects" : [

                                ],
                                "start" : 536,
                                "duration" : 31,
                                "mediaStart" : 2426,
                                "mediaDuration" : 31,
                                "scalar" : 1,
                                "animationTracks" : {

                                }
                              },
                          "audio" : 
                              {
                                "id" : 2085,
                                "_type" : "AMFile",
                                "src" : 3,
                                "trackNumber" : 1,
                                "attributes" : {
                                  "ident" : "",
                                  "gain" : 1.0,
                                  "mixToMono" : false
                                },
                                  "channelNumber" : "0,1",
                                "effects" : [

                                ],
                                "start" : 536,
                                "duration" : 31,
                                "mediaStart" : 2426,
                                "mediaDuration" : 31,
                                "scalar" : 1,
                                "animationTracks" : {

                                }
                              }
,
                          "start" : 536,
                          "duration" : 31,
                          "mediaStart" : 0,
                          "mediaDuration" : 23566,
                          "scalar" : 1,
                          "metadata" : {
                            "AutoAppliedSmartFocus" : "False",
                            "clipSpeedAttribute" : false
                          }
                        },
                        {
                          "id" : 2086,
                          "_type" : "UnifiedMedia",
                          "video" : 
                              {
                                "id" : 2087,
                                "_type" : "ScreenVMFile",
                                "src" : 3,
                                "trackNumber" : 0,
                                "attributes" : {
                                  "ident" : "Rec 01-28-21_003"
                                },
                                "parameters" : {
                                  "cursorScale" : {
                                    "type" : "double",
                                    "defaultValue" : 0.0,
                                    "interp" : "linr"
                                  },
                                  "cursorOpacity" : {
                                    "type" : "double",
                                    "defaultValue" : 0.0,
                                    "interp" : "linr"
                                  }
                                },
                                "effects" : [

                                ],
                                "start" : 567,
                                "duration" : 25,
                                "mediaStart" : 2496,
                                "mediaDuration" : 25,
                                "scalar" : 1,
                                "animationTracks" : {

                                }
                              },
                          "audio" : 
                              {
                                "id" : 2088,
                                "_type" : "AMFile",
                                "src" : 3,
                                "trackNumber" : 1,
                                "attributes" : {
                                  "ident" : "",
                                  "gain" : 1.0,
                                  "mixToMono" : false
                                },
                                  "channelNumber" : "0,1",
                                "effects" : [

                                ],
                                "start" : 567,
                                "duration" : 25,
                                "mediaStart" : 2496,
                                "mediaDuration" : 25,
                                "scalar" : 1,
                                "animationTracks" : {

                                }
                              }
,
                          "start" : 567,
                          "duration" : 25,
                          "mediaStart" : 0,
                          "mediaDuration" : 23566,
                          "scalar" : 1,
                          "metadata" : {
                            "AutoAppliedSmartFocus" : "False",
                            "clipSpeedAttribute" : false
                          }
                        },
                        {
                          "id" : 2089,
                          "_type" : "UnifiedMedia",
                          "video" : 
                              {
                                "id" : 2090,
                                "_type" : "ScreenVMFile",
                                "src" : 3,
                                "trackNumber" : 0,
                                "attributes" : {
                                  "ident" : "Rec 01-28-21_003"
                                },
                                "parameters" : {
                                  "cursorScale" : {
                                    "type" : "double",
                                    "defaultValue" : 0.0,
                                    "interp" : "linr"
                                  },
                                  "cursorOpacity" : {
                                    "type" : "double",
                                    "defaultValue" : 0.0,
                                    "interp" : "linr"
                                  }
                                },
                                "effects" : [

                                ],
                                "start" : 592,
                                "duration" : 31,
                                "mediaStart" : 2611,
                                "mediaDuration" : 31,
                                "scalar" : 1,
                                "animationTracks" : {

                                }
                              },
                          "audio" : 
                              {
                                "id" : 2091,
                                "_type" : "AMFile",
                                "src" : 3,
                                "trackNumber" : 1,
                                "attributes" : {
                                  "ident" : "",
                                  "gain" : 1.0,
                                  "mixToMono" : false
                                },
                                  "channelNumber" : "0,1",
                                "effects" : [

                                ],
                                "start" : 592,
                                "duration" : 31,
                                "mediaStart" : 2611,
                                "mediaDuration" : 31,
                                "scalar" : 1,
                                "animationTracks" : {

                                }
                              }
,
                          "start" : 592,
                          "duration" : 31,
                          "mediaStart" : 0,
                          "mediaDuration" : 23566,
                          "scalar" : 1,
                          "metadata" : {
                            "AutoAppliedSmartFocus" : "False",
                            "clipSpeedAttribute" : false
                          }
                        },
                        {
                          "id" : 2092,
                          "_type" : "UnifiedMedia",
                          "video" : 
                              {
                                "id" : 2093,
                                "_type" : "ScreenVMFile",
                                "src" : 3,
                                "trackNumber" : 0,
                                "attributes" : {
                                  "ident" : "Rec 01-28-21_003"
                                },
                                "parameters" : {
                                  "cursorScale" : {
                                    "type" : "double",
                                    "defaultValue" : 0.0,
                                    "interp" : "linr"
                                  },
                                  "cursorOpacity" : {
                                    "type" : "double",
                                    "defaultValue" : 0.0,
                                    "interp" : "linr"
                                  }
                                },
                                "effects" : [

                                ],
                                "start" : 623,
                                "duration" : 731,
                                "mediaStart" : 2727,
                                "mediaDuration" : 731,
                                "scalar" : 1,
                                "animationTracks" : {

                                }
                              },
                          "audio" : 
                              {
                                "id" : 2094,
                                "_type" : "AMFile",
                                "src" : 3,
                                "trackNumber" : 1,
                                "attributes" : {
                                  "ident" : "",
                                  "gain" : 1.0,
                                  "mixToMono" : false
                                },
                                  "channelNumber" : "0,1",
                                "effects" : [

                                ],
                                "start" : 623,
                                "duration" : 731,
                                "mediaStart" : 2727,
                                "mediaDuration" : 731,
                                "scalar" : 1,
                                "animationTracks" : {

                                }
                              }
,
                          "start" : 623,
                          "duration" : 731,
                          "mediaStart" : 0,
                          "mediaDuration" : 23566,
                          "scalar" : 1,
                          "metadata" : {
                            "AutoAppliedSmartFocus" : "False",
                            "clipSpeedAttribute" : false
                          }
                        },
                        {
                          "id" : 2095,
                          "_type" : "UnifiedMedia",
                          "video" : 
                              {
                                "id" : 2096,
                                "_type" : "ScreenVMFile",
                                "src" : 3,
                                "trackNumber" : 0,
                                "attributes" : {
                                  "ident" : "Rec 01-28-21_003"
                                },
                                "parameters" : {
                                  "cursorScale" : {
                                    "type" : "double",
                                    "defaultValue" : 0.0,
                                    "interp" : "linr"
                                  },
                                  "cursorOpacity" : {
                                    "type" : "double",
                                    "defaultValue" : 0.0,
                                    "interp" : "linr"
                                  }
                                },
                                "effects" : [

                                ],
                                "start" : 1354,
                                "duration" : 293,
                                "mediaStart" : 3532,
                                "mediaDuration" : 293,
                                "scalar" : 1,
                                "animationTracks" : {

                                }
                              },
                          "audio" : 
                              {
                                "id" : 2097,
                                "_type" : "AMFile",
                                "src" : 3,
                                "trackNumber" : 1,
                                "attributes" : {
                                  "ident" : "",
                                  "gain" : 1.0,
                                  "mixToMono" : false
                                },
                                  "channelNumber" : "0,1",
                                "effects" : [

                                ],
                                "start" : 1354,
                                "duration" : 293,
                                "mediaStart" : 3532,
                                "mediaDuration" : 293,
                                "scalar" : 1,
                                "animationTracks" : {

                                }
                              }
,
                          "start" : 1354,
                          "duration" : 293,
                          "mediaStart" : 0,
                          "mediaDuration" : 23566,
                          "scalar" : 1,
                          "metadata" : {
                            "AutoAppliedSmartFocus" : "False",
                            "clipSpeedAttribute" : false
                          }
                        },
                        {
                          "id" : 2098,
                          "_type" : "UnifiedMedia",
                          "video" : 
                              {
                                "id" : 2099,
                                "_type" : "ScreenVMFile",
                                "src" : 3,
                                "trackNumber" : 0,
                                "attributes" : {
                                  "ident" : "Rec 01-28-21_003"
                                },
                                "parameters" : {
                                  "cursorScale" : {
                                    "type" : "double",
                                    "defaultValue" : 0.0,
                                    "interp" : "linr"
                                  },
                                  "cursorOpacity" : {
                                    "type" : "double",
                                    "defaultValue" : 0.0,
                                    "interp" : "linr"
                                  }
                                },
                                "effects" : [

                                ],
                                "start" : 1647,
                                "duration" : 194,
                                "mediaStart" : 3916,
                                "mediaDuration" : 194,
                                "scalar" : 1,
                                "animationTracks" : {

                                }
                              },
                          "audio" : 
                              {
                                "id" : 2100,
                                "_type" : "AMFile",
                                "src" : 3,
                                "trackNumber" : 1,
                                "attributes" : {
                                  "ident" : "",
                                  "gain" : 1.0,
                                  "mixToMono" : false
                                },
                                  "channelNumber" : "0,1",
                                "effects" : [

                                ],
                                "start" : 1647,
                                "duration" : 194,
                                "mediaStart" : 3916,
                                "mediaDuration" : 194,
                                "scalar" : 1,
                                "animationTracks" : {

                                }
                              }
,
                          "start" : 1647,
                          "duration" : 194,
                          "mediaStart" : 0,
                          "mediaDuration" : 23566,
                          "scalar" : 1,
                          "metadata" : {
                            "AutoAppliedSmartFocus" : "False",
                            "clipSpeedAttribute" : false
                          }
                        },
                        {
                          "id" : 2101,
                          "_type" : "UnifiedMedia",
                          "video" : 
                              {
                                "id" : 2102,
                                "_type" : "ScreenVMFile",
                                "src" : 3,
                                "trackNumber" : 0,
                                "attributes" : {
                                  "ident" : "Rec 01-28-21_003"
                                },
                                "parameters" : {
                                  "cursorScale" : {
                                    "type" : "double",
                                    "defaultValue" : 0.0,
                                    "interp" : "linr"
                                  },
                                  "cursorOpacity" : {
                                    "type" : "double",
                                    "defaultValue" : 0.0,
                                    "interp" : "linr"
                                  }
                                },
                                "effects" : [

                                ],
                                "start" : 1841,
                                "duration" : 37,
                                "mediaStart" : 4201,
                                "mediaDuration" : 37,
                                "scalar" : 1,
                                "animationTracks" : {

                                }
                              },
                          "audio" : 
                              {
                                "id" : 2103,
                                "_type" : "AMFile",
                                "src" : 3,
                                "trackNumber" : 1,
                                "attributes" : {
                                  "ident" : "",
                                  "gain" : 1.0,
                                  "mixToMono" : false
                                },
                                  "channelNumber" : "0,1",
                                "effects" : [

                                ],
                                "start" : 1841,
                                "duration" : 37,
                                "mediaStart" : 4201,
                                "mediaDuration" : 37,
                                "scalar" : 1,
                                "animationTracks" : {

                                }
                              }
,
                          "start" : 1841,
                          "duration" : 37,
                          "mediaStart" : 0,
                          "mediaDuration" : 23566,
                          "scalar" : 1,
                          "metadata" : {
                            "AutoAppliedSmartFocus" : "False",
                            "clipSpeedAttribute" : false
                          }
                        },
                        {
                          "id" : 2104,
                          "_type" : "UnifiedMedia",
                          "video" : 
                              {
                                "id" : 2105,
                                "_type" : "ScreenVMFile",
                                "src" : 3,
                                "trackNumber" : 0,
                                "attributes" : {
                                  "ident" : "Rec 01-28-21_003"
                                },
                                "parameters" : {
                                  "cursorScale" : {
                                    "type" : "double",
                                    "defaultValue" : 0.0,
                                    "interp" : "linr"
                                  },
                                  "cursorOpacity" : {
                                    "type" : "double",
                                    "defaultValue" : 0.0,
                                    "interp" : "linr"
                                  }
                                },
                                "effects" : [

                                ],
                                "start" : 1878,
                                "duration" : 37,
                                "mediaStart" : 4247,
                                "mediaDuration" : 37,
                                "scalar" : 1,
                                "animationTracks" : {

                                }
                              },
                          "audio" : 
                              {
                                "id" : 2106,
                                "_type" : "AMFile",
                                "src" : 3,
                                "trackNumber" : 1,
                                "attributes" : {
                                  "ident" : "",
                                  "gain" : 1.0,
                                  "mixToMono" : false
                                },
                                  "channelNumber" : "0,1",
                                "effects" : [

                                ],
                                "start" : 1878,
                                "duration" : 37,
                                "mediaStart" : 4247,
                                "mediaDuration" : 37,
                                "scalar" : 1,
                                "animationTracks" : {

                                }
                              }
,
                          "start" : 1878,
                          "duration" : 37,
                          "mediaStart" : 0,
                          "mediaDuration" : 23566,
                          "scalar" : 1,
                          "metadata" : {
                            "AutoAppliedSmartFocus" : "False",
                            "clipSpeedAttribute" : false
                          }
                        },
                        {
                          "id" : 2107,
                          "_type" : "UnifiedMedia",
                          "video" : 
                              {
                                "id" : 2108,
                                "_type" : "ScreenVMFile",
                                "src" : 3,
                                "trackNumber" : 0,
                                "attributes" : {
                                  "ident" : "Rec 01-28-21_003"
                                },
                                "parameters" : {
                                  "cursorScale" : {
                                    "type" : "double",
                                    "defaultValue" : 0.0,
                                    "interp" : "linr"
                                  },
                                  "cursorOpacity" : {
                                    "type" : "double",
                                    "defaultValue" : 0.0,
                                    "interp" : "linr"
                                  }
                                },
                                "effects" : [

                                ],
                                "start" : 1915,
                                "duration" : 22,
                                "mediaStart" : 4384,
                                "mediaDuration" : 22,
                                "scalar" : 1,
                                "animationTracks" : {

                                }
                              },
                          "audio" : 
                              {
                                "id" : 2109,
                                "_type" : "AMFile",
                                "src" : 3,
                                "trackNumber" : 1,
                                "attributes" : {
                                  "ident" : "",
                                  "gain" : 1.0,
                                  "mixToMono" : false
                                },
                                  "channelNumber" : "0,1",
                                "effects" : [

                                ],
                                "start" : 1915,
                                "duration" : 22,
                                "mediaStart" : 4384,
                                "mediaDuration" : 22,
                                "scalar" : 1,
                                "animationTracks" : {

                                }
                              }
,
                          "start" : 1915,
                          "duration" : 22,
                          "mediaStart" : 0,
                          "mediaDuration" : 23566,
                          "scalar" : 1,
                          "metadata" : {
                            "AutoAppliedSmartFocus" : "False",
                            "clipSpeedAttribute" : false
                          }
                        },
                        {
                          "id" : 2110,
                          "_type" : "UnifiedMedia",
                          "video" : 
                              {
                                "id" : 2111,
                                "_type" : "ScreenVMFile",
                                "src" : 3,
                                "trackNumber" : 0,
                                "attributes" : {
                                  "ident" : "Rec 01-28-21_003"
                                },
                                "parameters" : {
                                  "cursorScale" : {
                                    "type" : "double",
                                    "defaultValue" : 0.0,
                                    "interp" : "linr"
                                  },
                                  "cursorOpacity" : {
                                    "type" : "double",
                                    "defaultValue" : 0.0,
                                    "interp" : "linr"
                                  }
                                },
                                "effects" : [

                                ],
                                "start" : 1937,
                                "duration" : 34,
                                "mediaStart" : 4420,
                                "mediaDuration" : 34,
                                "scalar" : 1,
                                "animationTracks" : {

                                }
                              },
                          "audio" : 
                              {
                                "id" : 2112,
                                "_type" : "AMFile",
                                "src" : 3,
                                "trackNumber" : 1,
                                "attributes" : {
                                  "ident" : "",
                                  "gain" : 1.0,
                                  "mixToMono" : false
                                },
                                  "channelNumber" : "0,1",
                                "effects" : [

                                ],
                                "start" : 1937,
                                "duration" : 34,
                                "mediaStart" : 4420,
                                "mediaDuration" : 34,
                                "scalar" : 1,
                                "animationTracks" : {

                                }
                              }
,
                          "start" : 1937,
                          "duration" : 34,
                          "mediaStart" : 0,
                          "mediaDuration" : 23566,
                          "scalar" : 1,
                          "metadata" : {
                            "AutoAppliedSmartFocus" : "False",
                            "clipSpeedAttribute" : false
                          }
                        },
                        {
                          "id" : 2113,
                          "_type" : "UnifiedMedia",
                          "video" : 
                              {
                                "id" : 2114,
                                "_type" : "ScreenVMFile",
                                "src" : 3,
                                "trackNumber" : 0,
                                "attributes" : {
                                  "ident" : "Rec 01-28-21_003"
                                },
                                "parameters" : {
                                  "cursorScale" : {
                                    "type" : "double",
                                    "defaultValue" : 0.0,
                                    "interp" : "linr"
                                  },
                                  "cursorOpacity" : {
                                    "type" : "double",
                                    "defaultValue" : 0.0,
                                    "interp" : "linr"
                                  }
                                },
                                "effects" : [

                                ],
                                "start" : 1971,
                                "duration" : 39,
                                "mediaStart" : 4925,
                                "mediaDuration" : 39,
                                "scalar" : 1,
                                "animationTracks" : {

                                }
                              },
                          "audio" : 
                              {
                                "id" : 2115,
                                "_type" : "AMFile",
                                "src" : 3,
                                "trackNumber" : 1,
                                "attributes" : {
                                  "ident" : "",
                                  "gain" : 1.0,
                                  "mixToMono" : false
                                },
                                  "channelNumber" : "0,1",
                                "effects" : [

                                ],
                                "start" : 1971,
                                "duration" : 39,
                                "mediaStart" : 4925,
                                "mediaDuration" : 39,
                                "scalar" : 1,
                                "animationTracks" : {

                                }
                              }
,
                          "start" : 1971,
                          "duration" : 39,
                          "mediaStart" : 0,
                          "mediaDuration" : 23566,
                          "scalar" : 1,
                          "metadata" : {
                            "AutoAppliedSmartFocus" : "False",
                            "clipSpeedAttribute" : false
                          }
                        },
                        {
                          "id" : 2116,
                          "_type" : "UnifiedMedia",
                          "video" : 
                              {
                                "id" : 2117,
                                "_type" : "ScreenVMFile",
                                "src" : 3,
                                "trackNumber" : 0,
                                "attributes" : {
                                  "ident" : "Rec 01-28-21_003"
                                },
                                "parameters" : {
                                  "cursorScale" : {
                                    "type" : "double",
                                    "defaultValue" : 0.0,
                                    "interp" : "linr"
                                  },
                                  "cursorOpacity" : {
                                    "type" : "double",
                                    "defaultValue" : 0.0,
                                    "interp" : "linr"
                                  }
                                },
                                "effects" : [

                                ],
                                "start" : 2010,
                                "duration" : 1866,
                                "mediaStart" : 5106,
                                "mediaDuration" : 1866,
                                "scalar" : 1,
                                "animationTracks" : {

                                }
                              },
                          "audio" : 
                              {
                                "id" : 2118,
                                "_type" : "AMFile",
                                "src" : 3,
                                "trackNumber" : 1,
                                "attributes" : {
                                  "ident" : "",
                                  "gain" : 1.0,
                                  "mixToMono" : false
                                },
                                  "channelNumber" : "0,1",
                                "effects" : [

                                ],
                                "start" : 2010,
                                "duration" : 1866,
                                "mediaStart" : 5106,
                                "mediaDuration" : 1866,
                                "scalar" : 1,
                                "animationTracks" : {

                                }
                              }
,
                          "start" : 2010,
                          "duration" : 1866,
                          "mediaStart" : 0,
                          "mediaDuration" : 23566,
                          "scalar" : 1,
                          "metadata" : {
                            "AutoAppliedSmartFocus" : "False",
                            "clipSpeedAttribute" : false
                          }
                        },
                        {
                          "id" : 2119,
                          "_type" : "UnifiedMedia",
                          "video" : 
                              {
                                "id" : 2120,
                                "_type" : "ScreenVMFile",
                                "src" : 3,
                                "trackNumber" : 0,
                                "attributes" : {
                                  "ident" : "Rec 01-28-21_003"
                                },
                                "parameters" : {
                                  "cursorScale" : {
                                    "type" : "double",
                                    "defaultValue" : 0.0,
                                    "interp" : "linr"
                                  },
                                  "cursorOpacity" : {
                                    "type" : "double",
                                    "defaultValue" : 0.0,
                                    "interp" : "linr"
                                  }
                                },
                                "effects" : [

                                ],
                                "start" : 3876,
                                "duration" : 160,
                                "mediaStart" : 7099,
                                "mediaDuration" : 160,
                                "scalar" : 1,
                                "animationTracks" : {

                                }
                              },
                          "audio" : 
                              {
                                "id" : 2121,
                                "_type" : "AMFile",
                                "src" : 3,
                                "trackNumber" : 1,
                                "attributes" : {
                                  "ident" : "",
                                  "gain" : 1.0,
                                  "mixToMono" : false
                                },
                                  "channelNumber" : "0,1",
                                "effects" : [

                                ],
                                "start" : 3876,
                                "duration" : 160,
                                "mediaStart" : 7099,
                                "mediaDuration" : 160,
                                "scalar" : 1,
                                "animationTracks" : {

                                }
                              }
,
                          "start" : 3876,
                          "duration" : 160,
                          "mediaStart" : 0,
                          "mediaDuration" : 23566,
                          "scalar" : 1,
                          "metadata" : {
                            "AutoAppliedSmartFocus" : "False",
                            "clipSpeedAttribute" : false
                          }
                        },
                        {
                          "id" : 2122,
                          "_type" : "UnifiedMedia",
                          "video" : 
                              {
                                "id" : 2123,
                                "_type" : "ScreenVMFile",
                                "src" : 3,
                                "trackNumber" : 0,
                                "attributes" : {
                                  "ident" : "Rec 01-28-21_003"
                                },
                                "parameters" : {
                                  "cursorScale" : {
                                    "type" : "double",
                                    "defaultValue" : 0.0,
                                    "interp" : "linr"
                                  },
                                  "cursorOpacity" : {
                                    "type" : "double",
                                    "defaultValue" : 0.0,
                                    "interp" : "linr"
                                  }
                                },
                                "effects" : [

                                ],
                                "start" : 4036,
                                "duration" : 275,
                                "mediaStart" : 7439,
                                "mediaDuration" : 275,
                                "scalar" : 1,
                                "animationTracks" : {

                                }
                              },
                          "audio" : 
                              {
                                "id" : 2124,
                                "_type" : "AMFile",
                                "src" : 3,
                                "trackNumber" : 1,
                                "attributes" : {
                                  "ident" : "",
                                  "gain" : 1.0,
                                  "mixToMono" : false
                                },
                                  "channelNumber" : "0,1",
                                "effects" : [

                                ],
                                "start" : 4036,
                                "duration" : 275,
                                "mediaStart" : 7439,
                                "mediaDuration" : 275,
                                "scalar" : 1,
                                "animationTracks" : {

                                }
                              }
,
                          "start" : 4036,
                          "duration" : 275,
                          "mediaStart" : 0,
                          "mediaDuration" : 23566,
                          "scalar" : 1,
                          "metadata" : {
                            "AutoAppliedSmartFocus" : "False",
                            "clipSpeedAttribute" : false
                          }
                        },
                        {
                          "id" : 2125,
                          "_type" : "UnifiedMedia",
                          "video" : 
                              {
                                "id" : 2126,
                                "_type" : "ScreenVMFile",
                                "src" : 3,
                                "trackNumber" : 0,
                                "attributes" : {
                                  "ident" : "Rec 01-28-21_003"
                                },
                                "parameters" : {
                                  "cursorScale" : {
                                    "type" : "double",
                                    "defaultValue" : 0.0,
                                    "interp" : "linr"
                                  },
                                  "cursorOpacity" : {
                                    "type" : "double",
                                    "defaultValue" : 0.0,
                                    "interp" : "linr"
                                  }
                                },
                                "effects" : [

                                ],
                                "start" : 4311,
                                "duration" : 3,
                                "mediaStart" : 7841,
                                "mediaDuration" : 3,
                                "scalar" : 1,
                                "animationTracks" : {

                                }
                              },
                          "audio" : 
                              {
                                "id" : 2127,
                                "_type" : "AMFile",
                                "src" : 3,
                                "trackNumber" : 1,
                                "attributes" : {
                                  "ident" : "",
                                  "gain" : 1.0,
                                  "mixToMono" : false
                                },
                                  "channelNumber" : "0,1",
                                "effects" : [

                                ],
                                "start" : 4311,
                                "duration" : 3,
                                "mediaStart" : 7841,
                                "mediaDuration" : 3,
                                "scalar" : 1,
                                "animationTracks" : {

                                }
                              }
,
                          "start" : 4311,
                          "duration" : 3,
                          "mediaStart" : 0,
                          "mediaDuration" : 23566,
                          "scalar" : 1,
                          "metadata" : {
                            "AutoAppliedSmartFocus" : "False",
                            "clipSpeedAttribute" : false
                          }
                        },
                        {
                          "id" : 2128,
                          "_type" : "UnifiedMedia",
                          "video" : 
                              {
                                "id" : 2129,
                                "_type" : "ScreenVMFile",
                                "src" : 3,
                                "trackNumber" : 0,
                                "attributes" : {
                                  "ident" : "Rec 01-28-21_003"
                                },
                                "parameters" : {
                                  "cursorScale" : {
                                    "type" : "double",
                                    "defaultValue" : 0.0,
                                    "interp" : "linr"
                                  },
                                  "cursorOpacity" : {
                                    "type" : "double",
                                    "defaultValue" : 0.0,
                                    "interp" : "linr"
                                  }
                                },
                                "effects" : [

                                ],
                                "start" : 4314,
                                "duration" : 73,
                                "mediaStart" : 8276,
                                "mediaDuration" : 73,
                                "scalar" : 1,
                                "animationTracks" : {

                                }
                              },
                          "audio" : 
                              {
                                "id" : 2130,
                                "_type" : "AMFile",
                                "src" : 3,
                                "trackNumber" : 1,
                                "attributes" : {
                                  "ident" : "",
                                  "gain" : 1.0,
                                  "mixToMono" : false
                                },
                                  "channelNumber" : "0,1",
                                "effects" : [

                                ],
                                "start" : 4314,
                                "duration" : 73,
                                "mediaStart" : 8276,
                                "mediaDuration" : 73,
                                "scalar" : 1,
                                "animationTracks" : {

                                }
                              }
,
                          "start" : 4314,
                          "duration" : 73,
                          "mediaStart" : 0,
                          "mediaDuration" : 23566,
                          "scalar" : 1,
                          "metadata" : {
                            "AutoAppliedSmartFocus" : "False",
                            "clipSpeedAttribute" : false
                          }
                        },
                        {
                          "id" : 2131,
                          "_type" : "UnifiedMedia",
                          "video" : 
                              {
                                "id" : 2132,
                                "_type" : "ScreenVMFile",
                                "src" : 3,
                                "trackNumber" : 0,
                                "attributes" : {
                                  "ident" : "Rec 01-28-21_003"
                                },
                                "parameters" : {
                                  "cursorScale" : {
                                    "type" : "double",
                                    "defaultValue" : 0.0,
                                    "interp" : "linr"
                                  },
                                  "cursorOpacity" : {
                                    "type" : "double",
                                    "defaultValue" : 0.0,
                                    "interp" : "linr"
                                  }
                                },
                                "effects" : [

                                ],
                                "start" : 4387,
                                "duration" : 15135,
                                "mediaStart" : 8431,
                                "mediaDuration" : 15135,
                                "scalar" : 1,
                                "animationTracks" : {

                                }
                              },
                          "audio" : 
                              {
                                "id" : 2133,
                                "_type" : "AMFile",
                                "src" : 3,
                                "trackNumber" : 1,
                                "attributes" : {
                                  "ident" : "",
                                  "gain" : 1.0,
                                  "mixToMono" : false
                                },
                                  "channelNumber" : "0,1",
                                "effects" : [

                                ],
                                "start" : 4387,
                                "duration" : 15135,
                                "mediaStart" : 8431,
                                "mediaDuration" : 15135,
                                "scalar" : 1,
                                "animationTracks" : {

                                }
                              }
,
                          "start" : 4387,
                          "duration" : 15135,
                          "mediaStart" : 0,
                          "mediaDuration" : 23566,
                          "scalar" : 1,
                          "metadata" : {
                            "AutoAppliedSmartFocus" : "False",
                            "clipSpeedAttribute" : false
                          }
                        }
                    ],
                    "effects" : [

                    ],
                    "start" : 13188,
                    "duration" : 977,
                    "mediaStart" : 3328,
                    "mediaDuration" : 977,
                    "scalar" : 1,
                    "metadata" : {
                      "AutoAppliedSmartFocus" : "False",
                      "clipSpeedAttribute" : false
                    },
                    "animationTracks" : {

                    }
                  },
                  {
                    "id" : 2134,
                    "_type" : "Group",
                    "parameters" : {
                      "volume" : 1.0
                    },
                    "tracks" : [
                      {
                        "trackIndex" : 0,
                        "medias" : [
                          {
                            "id" : 2135,
                            "_type" : "StitchedMedia",
                            "minMediaStart" : 0,
                            "attributes" : {
                              "ident" : "Rec 01-28-21_003",
                              "gain" : 1.0,
                              "mixToMono" : false
                            },
                            "parameters" : {
                              "cursorOpacity" : 1.0,
                              "cursorScale" : 1.0
                            },
                            "medias" : [
                                {
                                  "id" : 2136,
                                  "_type" : "ScreenVMFile",
                                  "src" : 3,
                                  "trackNumber" : 0,
                                  "attributes" : {
                                    "ident" : "Rec 01-28-21_003"
                                  },
                                  "parameters" : {
                                    "cursorScale" : {
                                      "type" : "double",
                                      "defaultValue" : 0.0,
                                      "interp" : "linr"
                                    },
                                    "cursorOpacity" : {
                                      "type" : "double",
                                      "defaultValue" : 0.0,
                                      "interp" : "linr"
                                    }
                                  },
                                  "effects" : [

                                  ],
                                  "start" : 0,
                                  "duration" : 9,
                                  "mediaStart" : 0,
                                  "mediaDuration" : 9,
                                  "scalar" : 1,
                                  "metadata" : {
                                    "AutoAppliedSmartFocus" : "False"
                                  },
                                  "animationTracks" : {

                                  }
                                },
                                {
                                  "id" : 2137,
                                  "_type" : "ScreenVMFile",
                                  "src" : 3,
                                  "trackNumber" : 0,
                                  "attributes" : {
                                    "ident" : "Rec 01-28-21_003"
                                  },
                                  "parameters" : {
                                    "cursorScale" : {
                                      "type" : "double",
                                      "defaultValue" : 0.0,
                                      "interp" : "linr"
                                    },
                                    "cursorOpacity" : {
                                      "type" : "double",
                                      "defaultValue" : 0.0,
                                      "interp" : "linr"
                                    }
                                  },
                                  "effects" : [

                                  ],
                                  "start" : 9,
                                  "duration" : 47,
                                  "mediaStart" : 1540,
                                  "mediaDuration" : 47,
                                  "scalar" : 1,
                                  "metadata" : {
                                    "AutoAppliedSmartFocus" : "False"
                                  },
                                  "animationTracks" : {

                                  }
                                },
                                {
                                  "id" : 2138,
                                  "_type" : "ScreenVMFile",
                                  "src" : 3,
                                  "trackNumber" : 0,
                                  "attributes" : {
                                    "ident" : "Rec 01-28-21_003"
                                  },
                                  "parameters" : {
                                    "cursorScale" : {
                                      "type" : "double",
                                      "defaultValue" : 0.0,
                                      "interp" : "linr"
                                    },
                                    "cursorOpacity" : {
                                      "type" : "double",
                                      "defaultValue" : 0.0,
                                      "interp" : "linr"
                                    }
                                  },
                                  "effects" : [

                                  ],
                                  "start" : 56,
                                  "duration" : 35,
                                  "mediaStart" : 1641,
                                  "mediaDuration" : 35,
                                  "scalar" : 1,
                                  "metadata" : {
                                    "AutoAppliedSmartFocus" : "False"
                                  },
                                  "animationTracks" : {

                                  }
                                },
                                {
                                  "id" : 2139,
                                  "_type" : "ScreenVMFile",
                                  "src" : 3,
                                  "trackNumber" : 0,
                                  "attributes" : {
                                    "ident" : "Rec 01-28-21_003"
                                  },
                                  "parameters" : {
                                    "cursorScale" : {
                                      "type" : "double",
                                      "defaultValue" : 0.0,
                                      "interp" : "linr"
                                    },
                                    "cursorOpacity" : {
                                      "type" : "double",
                                      "defaultValue" : 0.0,
                                      "interp" : "linr"
                                    }
                                  },
                                  "effects" : [

                                  ],
                                  "start" : 91,
                                  "duration" : 73,
                                  "mediaStart" : 1702,
                                  "mediaDuration" : 73,
                                  "scalar" : 1,
                                  "metadata" : {
                                    "AutoAppliedSmartFocus" : "False"
                                  },
                                  "animationTracks" : {

                                  }
                                },
                                {
                                  "id" : 2140,
                                  "_type" : "ScreenVMFile",
                                  "src" : 3,
                                  "trackNumber" : 0,
                                  "attributes" : {
                                    "ident" : "Rec 01-28-21_003"
                                  },
                                  "parameters" : {
                                    "cursorScale" : {
                                      "type" : "double",
                                      "defaultValue" : 0.0,
                                      "interp" : "linr"
                                    },
                                    "cursorOpacity" : {
                                      "type" : "double",
                                      "defaultValue" : 0.0,
                                      "interp" : "linr"
                                    }
                                  },
                                  "effects" : [

                                  ],
                                  "start" : 164,
                                  "duration" : 122,
                                  "mediaStart" : 1849,
                                  "mediaDuration" : 122,
                                  "scalar" : 1,
                                  "metadata" : {
                                    "AutoAppliedSmartFocus" : "False"
                                  },
                                  "animationTracks" : {

                                  }
                                },
                                {
                                  "id" : 2141,
                                  "_type" : "ScreenVMFile",
                                  "src" : 3,
                                  "trackNumber" : 0,
                                  "attributes" : {
                                    "ident" : "Rec 01-28-21_003"
                                  },
                                  "parameters" : {
                                    "cursorScale" : {
                                      "type" : "double",
                                      "defaultValue" : 0.0,
                                      "interp" : "linr"
                                    },
                                    "cursorOpacity" : {
                                      "type" : "double",
                                      "defaultValue" : 0.0,
                                      "interp" : "linr"
                                    }
                                  },
                                  "effects" : [

                                  ],
                                  "start" : 286,
                                  "duration" : 38,
                                  "mediaStart" : 2036,
                                  "mediaDuration" : 38,
                                  "scalar" : 1,
                                  "metadata" : {
                                    "AutoAppliedSmartFocus" : "False"
                                  },
                                  "animationTracks" : {

                                  }
                                },
                                {
                                  "id" : 2142,
                                  "_type" : "ScreenVMFile",
                                  "src" : 3,
                                  "trackNumber" : 0,
                                  "attributes" : {
                                    "ident" : "Rec 01-28-21_003"
                                  },
                                  "parameters" : {
                                    "cursorScale" : {
                                      "type" : "double",
                                      "defaultValue" : 0.0,
                                      "interp" : "linr"
                                    },
                                    "cursorOpacity" : {
                                      "type" : "double",
                                      "defaultValue" : 0.0,
                                      "interp" : "linr"
                                    }
                                  },
                                  "effects" : [

                                  ],
                                  "start" : 324,
                                  "duration" : 30,
                                  "mediaStart" : 2087,
                                  "mediaDuration" : 30,
                                  "scalar" : 1,
                                  "metadata" : {
                                    "AutoAppliedSmartFocus" : "False"
                                  },
                                  "animationTracks" : {

                                  }
                                },
                                {
                                  "id" : 2143,
                                  "_type" : "ScreenVMFile",
                                  "src" : 3,
                                  "trackNumber" : 0,
                                  "attributes" : {
                                    "ident" : "Rec 01-28-21_003"
                                  },
                                  "parameters" : {
                                    "cursorScale" : {
                                      "type" : "double",
                                      "defaultValue" : 0.0,
                                      "interp" : "linr"
                                    },
                                    "cursorOpacity" : {
                                      "type" : "double",
                                      "defaultValue" : 0.0,
                                      "interp" : "linr"
                                    }
                                  },
                                  "effects" : [

                                  ],
                                  "start" : 354,
                                  "duration" : 92,
                                  "mediaStart" : 2148,
                                  "mediaDuration" : 92,
                                  "scalar" : 1,
                                  "metadata" : {
                                    "AutoAppliedSmartFocus" : "False"
                                  },
                                  "animationTracks" : {

                                  }
                                },
                                {
                                  "id" : 2144,
                                  "_type" : "ScreenVMFile",
                                  "src" : 3,
                                  "trackNumber" : 0,
                                  "attributes" : {
                                    "ident" : "Rec 01-28-21_003"
                                  },
                                  "parameters" : {
                                    "cursorScale" : {
                                      "type" : "double",
                                      "defaultValue" : 0.0,
                                      "interp" : "linr"
                                    },
                                    "cursorOpacity" : {
                                      "type" : "double",
                                      "defaultValue" : 0.0,
                                      "interp" : "linr"
                                    }
                                  },
                                  "effects" : [

                                  ],
                                  "start" : 446,
                                  "duration" : 63,
                                  "mediaStart" : 2290,
                                  "mediaDuration" : 63,
                                  "scalar" : 1,
                                  "metadata" : {
                                    "AutoAppliedSmartFocus" : "False"
                                  },
                                  "animationTracks" : {

                                  }
                                },
                                {
                                  "id" : 2145,
                                  "_type" : "ScreenVMFile",
                                  "src" : 3,
                                  "trackNumber" : 0,
                                  "attributes" : {
                                    "ident" : "Rec 01-28-21_003"
                                  },
                                  "parameters" : {
                                    "cursorScale" : {
                                      "type" : "double",
                                      "defaultValue" : 0.0,
                                      "interp" : "linr"
                                    },
                                    "cursorOpacity" : {
                                      "type" : "double",
                                      "defaultValue" : 0.0,
                                      "interp" : "linr"
                                    }
                                  },
                                  "effects" : [

                                  ],
                                  "start" : 509,
                                  "duration" : 27,
                                  "mediaStart" : 2376,
                                  "mediaDuration" : 27,
                                  "scalar" : 1,
                                  "metadata" : {
                                    "AutoAppliedSmartFocus" : "False"
                                  },
                                  "animationTracks" : {

                                  }
                                },
                                {
                                  "id" : 2146,
                                  "_type" : "ScreenVMFile",
                                  "src" : 3,
                                  "trackNumber" : 0,
                                  "attributes" : {
                                    "ident" : "Rec 01-28-21_003"
                                  },
                                  "parameters" : {
                                    "cursorScale" : {
                                      "type" : "double",
                                      "defaultValue" : 0.0,
                                      "interp" : "linr"
                                    },
                                    "cursorOpacity" : {
                                      "type" : "double",
                                      "defaultValue" : 0.0,
                                      "interp" : "linr"
                                    }
                                  },
                                  "effects" : [

                                  ],
                                  "start" : 536,
                                  "duration" : 31,
                                  "mediaStart" : 2426,
                                  "mediaDuration" : 31,
                                  "scalar" : 1,
                                  "metadata" : {
                                    "AutoAppliedSmartFocus" : "False"
                                  },
                                  "animationTracks" : {

                                  }
                                },
                                {
                                  "id" : 2147,
                                  "_type" : "ScreenVMFile",
                                  "src" : 3,
                                  "trackNumber" : 0,
                                  "attributes" : {
                                    "ident" : "Rec 01-28-21_003"
                                  },
                                  "parameters" : {
                                    "cursorScale" : {
                                      "type" : "double",
                                      "defaultValue" : 0.0,
                                      "interp" : "linr"
                                    },
                                    "cursorOpacity" : {
                                      "type" : "double",
                                      "defaultValue" : 0.0,
                                      "interp" : "linr"
                                    }
                                  },
                                  "effects" : [

                                  ],
                                  "start" : 567,
                                  "duration" : 25,
                                  "mediaStart" : 2496,
                                  "mediaDuration" : 25,
                                  "scalar" : 1,
                                  "metadata" : {
                                    "AutoAppliedSmartFocus" : "False"
                                  },
                                  "animationTracks" : {

                                  }
                                },
                                {
                                  "id" : 2148,
                                  "_type" : "ScreenVMFile",
                                  "src" : 3,
                                  "trackNumber" : 0,
                                  "attributes" : {
                                    "ident" : "Rec 01-28-21_003"
                                  },
                                  "parameters" : {
                                    "cursorScale" : {
                                      "type" : "double",
                                      "defaultValue" : 0.0,
                                      "interp" : "linr"
                                    },
                                    "cursorOpacity" : {
                                      "type" : "double",
                                      "defaultValue" : 0.0,
                                      "interp" : "linr"
                                    }
                                  },
                                  "effects" : [

                                  ],
                                  "start" : 592,
                                  "duration" : 31,
                                  "mediaStart" : 2611,
                                  "mediaDuration" : 31,
                                  "scalar" : 1,
                                  "metadata" : {
                                    "AutoAppliedSmartFocus" : "False"
                                  },
                                  "animationTracks" : {

                                  }
                                },
                                {
                                  "id" : 2149,
                                  "_type" : "ScreenVMFile",
                                  "src" : 3,
                                  "trackNumber" : 0,
                                  "attributes" : {
                                    "ident" : "Rec 01-28-21_003"
                                  },
                                  "parameters" : {
                                    "cursorScale" : {
                                      "type" : "double",
                                      "defaultValue" : 0.0,
                                      "interp" : "linr"
                                    },
                                    "cursorOpacity" : {
                                      "type" : "double",
                                      "defaultValue" : 0.0,
                                      "interp" : "linr"
                                    }
                                  },
                                  "effects" : [

                                  ],
                                  "start" : 623,
                                  "duration" : 731,
                                  "mediaStart" : 2727,
                                  "mediaDuration" : 731,
                                  "scalar" : 1,
                                  "metadata" : {
                                    "AutoAppliedSmartFocus" : "False"
                                  },
                                  "animationTracks" : {

                                  }
                                },
                                {
                                  "id" : 2150,
                                  "_type" : "ScreenVMFile",
                                  "src" : 3,
                                  "trackNumber" : 0,
                                  "attributes" : {
                                    "ident" : "Rec 01-28-21_003"
                                  },
                                  "parameters" : {
                                    "cursorScale" : {
                                      "type" : "double",
                                      "defaultValue" : 0.0,
                                      "interp" : "linr"
                                    },
                                    "cursorOpacity" : {
                                      "type" : "double",
                                      "defaultValue" : 0.0,
                                      "interp" : "linr"
                                    }
                                  },
                                  "effects" : [

                                  ],
                                  "start" : 1354,
                                  "duration" : 293,
                                  "mediaStart" : 3532,
                                  "mediaDuration" : 293,
                                  "scalar" : 1,
                                  "metadata" : {
                                    "AutoAppliedSmartFocus" : "False"
                                  },
                                  "animationTracks" : {

                                  }
                                },
                                {
                                  "id" : 2151,
                                  "_type" : "ScreenVMFile",
                                  "src" : 3,
                                  "trackNumber" : 0,
                                  "attributes" : {
                                    "ident" : "Rec 01-28-21_003"
                                  },
                                  "parameters" : {
                                    "cursorScale" : {
                                      "type" : "double",
                                      "defaultValue" : 0.0,
                                      "interp" : "linr"
                                    },
                                    "cursorOpacity" : {
                                      "type" : "double",
                                      "defaultValue" : 0.0,
                                      "interp" : "linr"
                                    }
                                  },
                                  "effects" : [

                                  ],
                                  "start" : 1647,
                                  "duration" : 194,
                                  "mediaStart" : 3916,
                                  "mediaDuration" : 194,
                                  "scalar" : 1,
                                  "metadata" : {
                                    "AutoAppliedSmartFocus" : "False"
                                  },
                                  "animationTracks" : {

                                  }
                                },
                                {
                                  "id" : 2152,
                                  "_type" : "ScreenVMFile",
                                  "src" : 3,
                                  "trackNumber" : 0,
                                  "attributes" : {
                                    "ident" : "Rec 01-28-21_003"
                                  },
                                  "parameters" : {
                                    "cursorScale" : {
                                      "type" : "double",
                                      "defaultValue" : 0.0,
                                      "interp" : "linr"
                                    },
                                    "cursorOpacity" : {
                                      "type" : "double",
                                      "defaultValue" : 0.0,
                                      "interp" : "linr"
                                    }
                                  },
                                  "effects" : [

                                  ],
                                  "start" : 1841,
                                  "duration" : 37,
                                  "mediaStart" : 4201,
                                  "mediaDuration" : 37,
                                  "scalar" : 1,
                                  "metadata" : {
                                    "AutoAppliedSmartFocus" : "False"
                                  },
                                  "animationTracks" : {

                                  }
                                },
                                {
                                  "id" : 2153,
                                  "_type" : "ScreenVMFile",
                                  "src" : 3,
                                  "trackNumber" : 0,
                                  "attributes" : {
                                    "ident" : "Rec 01-28-21_003"
                                  },
                                  "parameters" : {
                                    "cursorScale" : {
                                      "type" : "double",
                                      "defaultValue" : 0.0,
                                      "interp" : "linr"
                                    },
                                    "cursorOpacity" : {
                                      "type" : "double",
                                      "defaultValue" : 0.0,
                                      "interp" : "linr"
                                    }
                                  },
                                  "effects" : [

                                  ],
                                  "start" : 1878,
                                  "duration" : 37,
                                  "mediaStart" : 4247,
                                  "mediaDuration" : 37,
                                  "scalar" : 1,
                                  "metadata" : {
                                    "AutoAppliedSmartFocus" : "False"
                                  },
                                  "animationTracks" : {

                                  }
                                },
                                {
                                  "id" : 2154,
                                  "_type" : "ScreenVMFile",
                                  "src" : 3,
                                  "trackNumber" : 0,
                                  "attributes" : {
                                    "ident" : "Rec 01-28-21_003"
                                  },
                                  "parameters" : {
                                    "cursorScale" : {
                                      "type" : "double",
                                      "defaultValue" : 0.0,
                                      "interp" : "linr"
                                    },
                                    "cursorOpacity" : {
                                      "type" : "double",
                                      "defaultValue" : 0.0,
                                      "interp" : "linr"
                                    }
                                  },
                                  "effects" : [

                                  ],
                                  "start" : 1915,
                                  "duration" : 22,
                                  "mediaStart" : 4384,
                                  "mediaDuration" : 22,
                                  "scalar" : 1,
                                  "metadata" : {
                                    "AutoAppliedSmartFocus" : "False"
                                  },
                                  "animationTracks" : {

                                  }
                                },
                                {
                                  "id" : 2155,
                                  "_type" : "ScreenVMFile",
                                  "src" : 3,
                                  "trackNumber" : 0,
                                  "attributes" : {
                                    "ident" : "Rec 01-28-21_003"
                                  },
                                  "parameters" : {
                                    "cursorScale" : {
                                      "type" : "double",
                                      "defaultValue" : 0.0,
                                      "interp" : "linr"
                                    },
                                    "cursorOpacity" : {
                                      "type" : "double",
                                      "defaultValue" : 0.0,
                                      "interp" : "linr"
                                    }
                                  },
                                  "effects" : [

                                  ],
                                  "start" : 1937,
                                  "duration" : 34,
                                  "mediaStart" : 4420,
                                  "mediaDuration" : 34,
                                  "scalar" : 1,
                                  "metadata" : {
                                    "AutoAppliedSmartFocus" : "False"
                                  },
                                  "animationTracks" : {

                                  }
                                },
                                {
                                  "id" : 2156,
                                  "_type" : "ScreenVMFile",
                                  "src" : 3,
                                  "trackNumber" : 0,
                                  "attributes" : {
                                    "ident" : "Rec 01-28-21_003"
                                  },
                                  "parameters" : {
                                    "cursorScale" : {
                                      "type" : "double",
                                      "defaultValue" : 0.0,
                                      "interp" : "linr"
                                    },
                                    "cursorOpacity" : {
                                      "type" : "double",
                                      "defaultValue" : 0.0,
                                      "interp" : "linr"
                                    }
                                  },
                                  "effects" : [

                                  ],
                                  "start" : 1971,
                                  "duration" : 39,
                                  "mediaStart" : 4925,
                                  "mediaDuration" : 39,
                                  "scalar" : 1,
                                  "metadata" : {
                                    "AutoAppliedSmartFocus" : "False"
                                  },
                                  "animationTracks" : {

                                  }
                                },
                                {
                                  "id" : 2157,
                                  "_type" : "ScreenVMFile",
                                  "src" : 3,
                                  "trackNumber" : 0,
                                  "attributes" : {
                                    "ident" : "Rec 01-28-21_003"
                                  },
                                  "parameters" : {
                                    "cursorScale" : {
                                      "type" : "double",
                                      "defaultValue" : 0.0,
                                      "interp" : "linr"
                                    },
                                    "cursorOpacity" : {
                                      "type" : "double",
                                      "defaultValue" : 0.0,
                                      "interp" : "linr"
                                    }
                                  },
                                  "effects" : [

                                  ],
                                  "start" : 2010,
                                  "duration" : 1866,
                                  "mediaStart" : 5106,
                                  "mediaDuration" : 1866,
                                  "scalar" : 1,
                                  "metadata" : {
                                    "AutoAppliedSmartFocus" : "False"
                                  },
                                  "animationTracks" : {

                                  }
                                },
                                {
                                  "id" : 2158,
                                  "_type" : "ScreenVMFile",
                                  "src" : 3,
                                  "trackNumber" : 0,
                                  "attributes" : {
                                    "ident" : "Rec 01-28-21_003"
                                  },
                                  "parameters" : {
                                    "cursorScale" : {
                                      "type" : "double",
                                      "defaultValue" : 0.0,
                                      "interp" : "linr"
                                    },
                                    "cursorOpacity" : {
                                      "type" : "double",
                                      "defaultValue" : 0.0,
                                      "interp" : "linr"
                                    }
                                  },
                                  "effects" : [

                                  ],
                                  "start" : 3876,
                                  "duration" : 160,
                                  "mediaStart" : 7099,
                                  "mediaDuration" : 160,
                                  "scalar" : 1,
                                  "metadata" : {
                                    "AutoAppliedSmartFocus" : "False"
                                  },
                                  "animationTracks" : {

                                  }
                                },
                                {
                                  "id" : 2159,
                                  "_type" : "ScreenVMFile",
                                  "src" : 3,
                                  "trackNumber" : 0,
                                  "attributes" : {
                                    "ident" : "Rec 01-28-21_003"
                                  },
                                  "parameters" : {
                                    "cursorScale" : {
                                      "type" : "double",
                                      "defaultValue" : 0.0,
                                      "interp" : "linr"
                                    },
                                    "cursorOpacity" : {
                                      "type" : "double",
                                      "defaultValue" : 0.0,
                                      "interp" : "linr"
                                    }
                                  },
                                  "effects" : [

                                  ],
                                  "start" : 4036,
                                  "duration" : 275,
                                  "mediaStart" : 7439,
                                  "mediaDuration" : 275,
                                  "scalar" : 1,
                                  "metadata" : {
                                    "AutoAppliedSmartFocus" : "False"
                                  },
                                  "animationTracks" : {

                                  }
                                },
                                {
                                  "id" : 2160,
                                  "_type" : "ScreenVMFile",
                                  "src" : 3,
                                  "trackNumber" : 0,
                                  "attributes" : {
                                    "ident" : "Rec 01-28-21_003"
                                  },
                                  "parameters" : {
                                    "cursorScale" : {
                                      "type" : "double",
                                      "defaultValue" : 0.0,
                                      "interp" : "linr"
                                    },
                                    "cursorOpacity" : {
                                      "type" : "double",
                                      "defaultValue" : 0.0,
                                      "interp" : "linr"
                                    }
                                  },
                                  "effects" : [

                                  ],
                                  "start" : 4311,
                                  "duration" : 3,
                                  "mediaStart" : 7841,
                                  "mediaDuration" : 3,
                                  "scalar" : 1,
                                  "metadata" : {
                                    "AutoAppliedSmartFocus" : "False"
                                  },
                                  "animationTracks" : {

                                  }
                                },
                                {
                                  "id" : 2161,
                                  "_type" : "ScreenVMFile",
                                  "src" : 3,
                                  "trackNumber" : 0,
                                  "attributes" : {
                                    "ident" : "Rec 01-28-21_003"
                                  },
                                  "parameters" : {
                                    "cursorScale" : {
                                      "type" : "double",
                                      "defaultValue" : 0.0,
                                      "interp" : "linr"
                                    },
                                    "cursorOpacity" : {
                                      "type" : "double",
                                      "defaultValue" : 0.0,
                                      "interp" : "linr"
                                    }
                                  },
                                  "effects" : [

                                  ],
                                  "start" : 4314,
                                  "duration" : 73,
                                  "mediaStart" : 8276,
                                  "mediaDuration" : 73,
                                  "scalar" : 1,
                                  "metadata" : {
                                    "AutoAppliedSmartFocus" : "False"
                                  },
                                  "animationTracks" : {

                                  }
                                },
                                {
                                  "id" : 2162,
                                  "_type" : "ScreenVMFile",
                                  "src" : 3,
                                  "trackNumber" : 0,
                                  "attributes" : {
                                    "ident" : "Rec 01-28-21_003"
                                  },
                                  "parameters" : {
                                    "cursorScale" : {
                                      "type" : "double",
                                      "defaultValue" : 0.0,
                                      "interp" : "linr"
                                    },
                                    "cursorOpacity" : {
                                      "type" : "double",
                                      "defaultValue" : 0.0,
                                      "interp" : "linr"
                                    }
                                  },
                                  "effects" : [

                                  ],
                                  "start" : 4387,
                                  "duration" : 15135,
                                  "mediaStart" : 8431,
                                  "mediaDuration" : 15135,
                                  "scalar" : 1,
                                  "metadata" : {
                                    "AutoAppliedSmartFocus" : "False"
                                  },
                                  "animationTracks" : {

                                  }
                                }
                            ],
                            "effects" : [

                            ],
                            "start" : 0,
                            "duration" : 87,
                            "mediaStart" : 4305,
                            "mediaDuration" : 87,
                            "scalar" : 1,
                            "metadata" : {
                              "AutoAppliedSmartFocus" : "False",
                              "clipSpeedAttribute" : false
                            },
                            "animationTracks" : {

                            }
                          }
                        ],
                          "ident" : "",
                          "audioMuted" : false,
                          "videoHidden" : false,
                          "magnetic" : false,
                          "matte" : 0,
                          "metadata" : {
                            "IsLocked" : "False",
                            "WinTrackHeight" : "0"
                          }
                      },
                      {
                        "trackIndex" : 1,
                        "medias" : [
                          {
                            "id" : 2163,
                            "_type" : "AMFile",
                            "src" : 29,
                            "trackNumber" : 0,
                            "attributes" : {
                              "ident" : "Narration_3-3 Kubernetes-Deployment 26",
                              "gain" : 1.0,
                              "mixToMono" : false
                            },
                              "channelNumber" : "0,1",
                            "effects" : [

                            ],
                            "start" : 0,
                            "duration" : 61,
                            "mediaStart" : 26,
                            "mediaDuration" : 61,
                            "scalar" : 1,
                            "metadata" : {
                              "clipSpeedAttribute" : false
                            },
                            "animationTracks" : {

                            }
                          }
                        ],
                          "ident" : "",
                          "audioMuted" : false,
                          "videoHidden" : false,
                          "magnetic" : false,
                          "matte" : 0,
                          "metadata" : {
                            "IsLocked" : "False",
                            "WinTrackHeight" : "2.73433861244474e-312"
                          }
                      }
                    ],
                    "attributes" : {
                      "ident" : "Group 10",
                      "gain" : 1.0,
                      "mixToMono" : false
                    },
                    "effects" : [

                    ],
                    "start" : 14165,
                    "duration" : 87,
                    "mediaStart" : 0.0,
                    "mediaDuration" : 87.0,
                    "scalar" : 1,
                    "metadata" : {
                      "IsGroupExpanded" : "False"
                    },
                    "animationTracks" : {

                    }
                  },
                  {
                    "id" : 2164,
                    "_type" : "StitchedMedia",
                    "minMediaStart" : 0,
                    "attributes" : {
                      "ident" : "Rec 01-28-21_003",
                      "gain" : 1.0,
                      "mixToMono" : false
                    },
                    "parameters" : {
                      "volume" : 1.0,
                      "cursorOpacity" : 1.0,
                      "cursorScale" : 1.0
                    },
                    "medias" : [
                        {
                          "id" : 2165,
                          "_type" : "UnifiedMedia",
                          "video" : 
                              {
                                "id" : 2166,
                                "_type" : "ScreenVMFile",
                                "src" : 3,
                                "trackNumber" : 0,
                                "attributes" : {
                                  "ident" : "Rec 01-28-21_003"
                                },
                                "parameters" : {
                                  "cursorScale" : {
                                    "type" : "double",
                                    "defaultValue" : 0.0,
                                    "interp" : "linr"
                                  },
                                  "cursorOpacity" : {
                                    "type" : "double",
                                    "defaultValue" : 0.0,
                                    "interp" : "linr"
                                  }
                                },
                                "effects" : [

                                ],
                                "start" : 0,
                                "duration" : 9,
                                "mediaStart" : 0,
                                "mediaDuration" : 9,
                                "scalar" : 1,
                                "animationTracks" : {

                                }
                              },
                          "audio" : 
                              {
                                "id" : 2167,
                                "_type" : "AMFile",
                                "src" : 3,
                                "trackNumber" : 1,
                                "attributes" : {
                                  "ident" : "",
                                  "gain" : 1.0,
                                  "mixToMono" : false
                                },
                                  "channelNumber" : "0,1",
                                "effects" : [

                                ],
                                "start" : 0,
                                "duration" : 9,
                                "mediaStart" : 0,
                                "mediaDuration" : 9,
                                "scalar" : 1,
                                "animationTracks" : {

                                }
                              }
,
                          "start" : 0,
                          "duration" : 9,
                          "mediaStart" : 0,
                          "mediaDuration" : 23566,
                          "scalar" : 1,
                          "metadata" : {
                            "AutoAppliedSmartFocus" : "False",
                            "clipSpeedAttribute" : false
                          }
                        },
                        {
                          "id" : 2168,
                          "_type" : "UnifiedMedia",
                          "video" : 
                              {
                                "id" : 2169,
                                "_type" : "ScreenVMFile",
                                "src" : 3,
                                "trackNumber" : 0,
                                "attributes" : {
                                  "ident" : "Rec 01-28-21_003"
                                },
                                "parameters" : {
                                  "cursorScale" : {
                                    "type" : "double",
                                    "defaultValue" : 0.0,
                                    "interp" : "linr"
                                  },
                                  "cursorOpacity" : {
                                    "type" : "double",
                                    "defaultValue" : 0.0,
                                    "interp" : "linr"
                                  }
                                },
                                "effects" : [

                                ],
                                "start" : 9,
                                "duration" : 47,
                                "mediaStart" : 1540,
                                "mediaDuration" : 47,
                                "scalar" : 1,
                                "animationTracks" : {

                                }
                              },
                          "audio" : 
                              {
                                "id" : 2170,
                                "_type" : "AMFile",
                                "src" : 3,
                                "trackNumber" : 1,
                                "attributes" : {
                                  "ident" : "",
                                  "gain" : 1.0,
                                  "mixToMono" : false
                                },
                                  "channelNumber" : "0,1",
                                "effects" : [

                                ],
                                "start" : 9,
                                "duration" : 47,
                                "mediaStart" : 1540,
                                "mediaDuration" : 47,
                                "scalar" : 1,
                                "animationTracks" : {

                                }
                              }
,
                          "start" : 9,
                          "duration" : 47,
                          "mediaStart" : 0,
                          "mediaDuration" : 23566,
                          "scalar" : 1,
                          "metadata" : {
                            "AutoAppliedSmartFocus" : "False",
                            "clipSpeedAttribute" : false
                          }
                        },
                        {
                          "id" : 2171,
                          "_type" : "UnifiedMedia",
                          "video" : 
                              {
                                "id" : 2172,
                                "_type" : "ScreenVMFile",
                                "src" : 3,
                                "trackNumber" : 0,
                                "attributes" : {
                                  "ident" : "Rec 01-28-21_003"
                                },
                                "parameters" : {
                                  "cursorScale" : {
                                    "type" : "double",
                                    "defaultValue" : 0.0,
                                    "interp" : "linr"
                                  },
                                  "cursorOpacity" : {
                                    "type" : "double",
                                    "defaultValue" : 0.0,
                                    "interp" : "linr"
                                  }
                                },
                                "effects" : [

                                ],
                                "start" : 56,
                                "duration" : 35,
                                "mediaStart" : 1641,
                                "mediaDuration" : 35,
                                "scalar" : 1,
                                "animationTracks" : {

                                }
                              },
                          "audio" : 
                              {
                                "id" : 2173,
                                "_type" : "AMFile",
                                "src" : 3,
                                "trackNumber" : 1,
                                "attributes" : {
                                  "ident" : "",
                                  "gain" : 1.0,
                                  "mixToMono" : false
                                },
                                  "channelNumber" : "0,1",
                                "effects" : [

                                ],
                                "start" : 56,
                                "duration" : 35,
                                "mediaStart" : 1641,
                                "mediaDuration" : 35,
                                "scalar" : 1,
                                "animationTracks" : {

                                }
                              }
,
                          "start" : 56,
                          "duration" : 35,
                          "mediaStart" : 0,
                          "mediaDuration" : 23566,
                          "scalar" : 1,
                          "metadata" : {
                            "AutoAppliedSmartFocus" : "False",
                            "clipSpeedAttribute" : false
                          }
                        },
                        {
                          "id" : 2174,
                          "_type" : "UnifiedMedia",
                          "video" : 
                              {
                                "id" : 2175,
                                "_type" : "ScreenVMFile",
                                "src" : 3,
                                "trackNumber" : 0,
                                "attributes" : {
                                  "ident" : "Rec 01-28-21_003"
                                },
                                "parameters" : {
                                  "cursorScale" : {
                                    "type" : "double",
                                    "defaultValue" : 0.0,
                                    "interp" : "linr"
                                  },
                                  "cursorOpacity" : {
                                    "type" : "double",
                                    "defaultValue" : 0.0,
                                    "interp" : "linr"
                                  }
                                },
                                "effects" : [

                                ],
                                "start" : 91,
                                "duration" : 73,
                                "mediaStart" : 1702,
                                "mediaDuration" : 73,
                                "scalar" : 1,
                                "animationTracks" : {

                                }
                              },
                          "audio" : 
                              {
                                "id" : 2176,
                                "_type" : "AMFile",
                                "src" : 3,
                                "trackNumber" : 1,
                                "attributes" : {
                                  "ident" : "",
                                  "gain" : 1.0,
                                  "mixToMono" : false
                                },
                                  "channelNumber" : "0,1",
                                "effects" : [

                                ],
                                "start" : 91,
                                "duration" : 73,
                                "mediaStart" : 1702,
                                "mediaDuration" : 73,
                                "scalar" : 1,
                                "animationTracks" : {

                                }
                              }
,
                          "start" : 91,
                          "duration" : 73,
                          "mediaStart" : 0,
                          "mediaDuration" : 23566,
                          "scalar" : 1,
                          "metadata" : {
                            "AutoAppliedSmartFocus" : "False",
                            "clipSpeedAttribute" : false
                          }
                        },
                        {
                          "id" : 2177,
                          "_type" : "UnifiedMedia",
                          "video" : 
                              {
                                "id" : 2178,
                                "_type" : "ScreenVMFile",
                                "src" : 3,
                                "trackNumber" : 0,
                                "attributes" : {
                                  "ident" : "Rec 01-28-21_003"
                                },
                                "parameters" : {
                                  "cursorScale" : {
                                    "type" : "double",
                                    "defaultValue" : 0.0,
                                    "interp" : "linr"
                                  },
                                  "cursorOpacity" : {
                                    "type" : "double",
                                    "defaultValue" : 0.0,
                                    "interp" : "linr"
                                  }
                                },
                                "effects" : [

                                ],
                                "start" : 164,
                                "duration" : 122,
                                "mediaStart" : 1849,
                                "mediaDuration" : 122,
                                "scalar" : 1,
                                "animationTracks" : {

                                }
                              },
                          "audio" : 
                              {
                                "id" : 2179,
                                "_type" : "AMFile",
                                "src" : 3,
                                "trackNumber" : 1,
                                "attributes" : {
                                  "ident" : "",
                                  "gain" : 1.0,
                                  "mixToMono" : false
                                },
                                  "channelNumber" : "0,1",
                                "effects" : [

                                ],
                                "start" : 164,
                                "duration" : 122,
                                "mediaStart" : 1849,
                                "mediaDuration" : 122,
                                "scalar" : 1,
                                "animationTracks" : {

                                }
                              }
,
                          "start" : 164,
                          "duration" : 122,
                          "mediaStart" : 0,
                          "mediaDuration" : 23566,
                          "scalar" : 1,
                          "metadata" : {
                            "AutoAppliedSmartFocus" : "False",
                            "clipSpeedAttribute" : false
                          }
                        },
                        {
                          "id" : 2180,
                          "_type" : "UnifiedMedia",
                          "video" : 
                              {
                                "id" : 2181,
                                "_type" : "ScreenVMFile",
                                "src" : 3,
                                "trackNumber" : 0,
                                "attributes" : {
                                  "ident" : "Rec 01-28-21_003"
                                },
                                "parameters" : {
                                  "cursorScale" : {
                                    "type" : "double",
                                    "defaultValue" : 0.0,
                                    "interp" : "linr"
                                  },
                                  "cursorOpacity" : {
                                    "type" : "double",
                                    "defaultValue" : 0.0,
                                    "interp" : "linr"
                                  }
                                },
                                "effects" : [

                                ],
                                "start" : 286,
                                "duration" : 38,
                                "mediaStart" : 2036,
                                "mediaDuration" : 38,
                                "scalar" : 1,
                                "animationTracks" : {

                                }
                              },
                          "audio" : 
                              {
                                "id" : 2182,
                                "_type" : "AMFile",
                                "src" : 3,
                                "trackNumber" : 1,
                                "attributes" : {
                                  "ident" : "",
                                  "gain" : 1.0,
                                  "mixToMono" : false
                                },
                                  "channelNumber" : "0,1",
                                "effects" : [

                                ],
                                "start" : 286,
                                "duration" : 38,
                                "mediaStart" : 2036,
                                "mediaDuration" : 38,
                                "scalar" : 1,
                                "animationTracks" : {

                                }
                              }
,
                          "start" : 286,
                          "duration" : 38,
                          "mediaStart" : 0,
                          "mediaDuration" : 23566,
                          "scalar" : 1,
                          "metadata" : {
                            "AutoAppliedSmartFocus" : "False",
                            "clipSpeedAttribute" : false
                          }
                        },
                        {
                          "id" : 2183,
                          "_type" : "UnifiedMedia",
                          "video" : 
                              {
                                "id" : 2184,
                                "_type" : "ScreenVMFile",
                                "src" : 3,
                                "trackNumber" : 0,
                                "attributes" : {
                                  "ident" : "Rec 01-28-21_003"
                                },
                                "parameters" : {
                                  "cursorScale" : {
                                    "type" : "double",
                                    "defaultValue" : 0.0,
                                    "interp" : "linr"
                                  },
                                  "cursorOpacity" : {
                                    "type" : "double",
                                    "defaultValue" : 0.0,
                                    "interp" : "linr"
                                  }
                                },
                                "effects" : [

                                ],
                                "start" : 324,
                                "duration" : 30,
                                "mediaStart" : 2087,
                                "mediaDuration" : 30,
                                "scalar" : 1,
                                "animationTracks" : {

                                }
                              },
                          "audio" : 
                              {
                                "id" : 2185,
                                "_type" : "AMFile",
                                "src" : 3,
                                "trackNumber" : 1,
                                "attributes" : {
                                  "ident" : "",
                                  "gain" : 1.0,
                                  "mixToMono" : false
                                },
                                  "channelNumber" : "0,1",
                                "effects" : [

                                ],
                                "start" : 324,
                                "duration" : 30,
                                "mediaStart" : 2087,
                                "mediaDuration" : 30,
                                "scalar" : 1,
                                "animationTracks" : {

                                }
                              }
,
                          "start" : 324,
                          "duration" : 30,
                          "mediaStart" : 0,
                          "mediaDuration" : 23566,
                          "scalar" : 1,
                          "metadata" : {
                            "AutoAppliedSmartFocus" : "False",
                            "clipSpeedAttribute" : false
                          }
                        },
                        {
                          "id" : 2186,
                          "_type" : "UnifiedMedia",
                          "video" : 
                              {
                                "id" : 2187,
                                "_type" : "ScreenVMFile",
                                "src" : 3,
                                "trackNumber" : 0,
                                "attributes" : {
                                  "ident" : "Rec 01-28-21_003"
                                },
                                "parameters" : {
                                  "cursorScale" : {
                                    "type" : "double",
                                    "defaultValue" : 0.0,
                                    "interp" : "linr"
                                  },
                                  "cursorOpacity" : {
                                    "type" : "double",
                                    "defaultValue" : 0.0,
                                    "interp" : "linr"
                                  }
                                },
                                "effects" : [

                                ],
                                "start" : 354,
                                "duration" : 92,
                                "mediaStart" : 2148,
                                "mediaDuration" : 92,
                                "scalar" : 1,
                                "animationTracks" : {

                                }
                              },
                          "audio" : 
                              {
                                "id" : 2188,
                                "_type" : "AMFile",
                                "src" : 3,
                                "trackNumber" : 1,
                                "attributes" : {
                                  "ident" : "",
                                  "gain" : 1.0,
                                  "mixToMono" : false
                                },
                                  "channelNumber" : "0,1",
                                "effects" : [

                                ],
                                "start" : 354,
                                "duration" : 92,
                                "mediaStart" : 2148,
                                "mediaDuration" : 92,
                                "scalar" : 1,
                                "animationTracks" : {

                                }
                              }
,
                          "start" : 354,
                          "duration" : 92,
                          "mediaStart" : 0,
                          "mediaDuration" : 23566,
                          "scalar" : 1,
                          "metadata" : {
                            "AutoAppliedSmartFocus" : "False",
                            "clipSpeedAttribute" : false
                          }
                        },
                        {
                          "id" : 2189,
                          "_type" : "UnifiedMedia",
                          "video" : 
                              {
                                "id" : 2190,
                                "_type" : "ScreenVMFile",
                                "src" : 3,
                                "trackNumber" : 0,
                                "attributes" : {
                                  "ident" : "Rec 01-28-21_003"
                                },
                                "parameters" : {
                                  "cursorScale" : {
                                    "type" : "double",
                                    "defaultValue" : 0.0,
                                    "interp" : "linr"
                                  },
                                  "cursorOpacity" : {
                                    "type" : "double",
                                    "defaultValue" : 0.0,
                                    "interp" : "linr"
                                  }
                                },
                                "effects" : [

                                ],
                                "start" : 446,
                                "duration" : 63,
                                "mediaStart" : 2290,
                                "mediaDuration" : 63,
                                "scalar" : 1,
                                "animationTracks" : {

                                }
                              },
                          "audio" : 
                              {
                                "id" : 2191,
                                "_type" : "AMFile",
                                "src" : 3,
                                "trackNumber" : 1,
                                "attributes" : {
                                  "ident" : "",
                                  "gain" : 1.0,
                                  "mixToMono" : false
                                },
                                  "channelNumber" : "0,1",
                                "effects" : [

                                ],
                                "start" : 446,
                                "duration" : 63,
                                "mediaStart" : 2290,
                                "mediaDuration" : 63,
                                "scalar" : 1,
                                "animationTracks" : {

                                }
                              }
,
                          "start" : 446,
                          "duration" : 63,
                          "mediaStart" : 0,
                          "mediaDuration" : 23566,
                          "scalar" : 1,
                          "metadata" : {
                            "AutoAppliedSmartFocus" : "False",
                            "clipSpeedAttribute" : false
                          }
                        },
                        {
                          "id" : 2192,
                          "_type" : "UnifiedMedia",
                          "video" : 
                              {
                                "id" : 2193,
                                "_type" : "ScreenVMFile",
                                "src" : 3,
                                "trackNumber" : 0,
                                "attributes" : {
                                  "ident" : "Rec 01-28-21_003"
                                },
                                "parameters" : {
                                  "cursorScale" : {
                                    "type" : "double",
                                    "defaultValue" : 0.0,
                                    "interp" : "linr"
                                  },
                                  "cursorOpacity" : {
                                    "type" : "double",
                                    "defaultValue" : 0.0,
                                    "interp" : "linr"
                                  }
                                },
                                "effects" : [

                                ],
                                "start" : 509,
                                "duration" : 27,
                                "mediaStart" : 2376,
                                "mediaDuration" : 27,
                                "scalar" : 1,
                                "animationTracks" : {

                                }
                              },
                          "audio" : 
                              {
                                "id" : 2194,
                                "_type" : "AMFile",
                                "src" : 3,
                                "trackNumber" : 1,
                                "attributes" : {
                                  "ident" : "",
                                  "gain" : 1.0,
                                  "mixToMono" : false
                                },
                                  "channelNumber" : "0,1",
                                "effects" : [

                                ],
                                "start" : 509,
                                "duration" : 27,
                                "mediaStart" : 2376,
                                "mediaDuration" : 27,
                                "scalar" : 1,
                                "animationTracks" : {

                                }
                              }
,
                          "start" : 509,
                          "duration" : 27,
                          "mediaStart" : 0,
                          "mediaDuration" : 23566,
                          "scalar" : 1,
                          "metadata" : {
                            "AutoAppliedSmartFocus" : "False",
                            "clipSpeedAttribute" : false
                          }
                        },
                        {
                          "id" : 2195,
                          "_type" : "UnifiedMedia",
                          "video" : 
                              {
                                "id" : 2196,
                                "_type" : "ScreenVMFile",
                                "src" : 3,
                                "trackNumber" : 0,
                                "attributes" : {
                                  "ident" : "Rec 01-28-21_003"
                                },
                                "parameters" : {
                                  "cursorScale" : {
                                    "type" : "double",
                                    "defaultValue" : 0.0,
                                    "interp" : "linr"
                                  },
                                  "cursorOpacity" : {
                                    "type" : "double",
                                    "defaultValue" : 0.0,
                                    "interp" : "linr"
                                  }
                                },
                                "effects" : [

                                ],
                                "start" : 536,
                                "duration" : 31,
                                "mediaStart" : 2426,
                                "mediaDuration" : 31,
                                "scalar" : 1,
                                "animationTracks" : {

                                }
                              },
                          "audio" : 
                              {
                                "id" : 2197,
                                "_type" : "AMFile",
                                "src" : 3,
                                "trackNumber" : 1,
                                "attributes" : {
                                  "ident" : "",
                                  "gain" : 1.0,
                                  "mixToMono" : false
                                },
                                  "channelNumber" : "0,1",
                                "effects" : [

                                ],
                                "start" : 536,
                                "duration" : 31,
                                "mediaStart" : 2426,
                                "mediaDuration" : 31,
                                "scalar" : 1,
                                "animationTracks" : {

                                }
                              }
,
                          "start" : 536,
                          "duration" : 31,
                          "mediaStart" : 0,
                          "mediaDuration" : 23566,
                          "scalar" : 1,
                          "metadata" : {
                            "AutoAppliedSmartFocus" : "False",
                            "clipSpeedAttribute" : false
                          }
                        },
                        {
                          "id" : 2198,
                          "_type" : "UnifiedMedia",
                          "video" : 
                              {
                                "id" : 2199,
                                "_type" : "ScreenVMFile",
                                "src" : 3,
                                "trackNumber" : 0,
                                "attributes" : {
                                  "ident" : "Rec 01-28-21_003"
                                },
                                "parameters" : {
                                  "cursorScale" : {
                                    "type" : "double",
                                    "defaultValue" : 0.0,
                                    "interp" : "linr"
                                  },
                                  "cursorOpacity" : {
                                    "type" : "double",
                                    "defaultValue" : 0.0,
                                    "interp" : "linr"
                                  }
                                },
                                "effects" : [

                                ],
                                "start" : 567,
                                "duration" : 25,
                                "mediaStart" : 2496,
                                "mediaDuration" : 25,
                                "scalar" : 1,
                                "animationTracks" : {

                                }
                              },
                          "audio" : 
                              {
                                "id" : 2200,
                                "_type" : "AMFile",
                                "src" : 3,
                                "trackNumber" : 1,
                                "attributes" : {
                                  "ident" : "",
                                  "gain" : 1.0,
                                  "mixToMono" : false
                                },
                                  "channelNumber" : "0,1",
                                "effects" : [

                                ],
                                "start" : 567,
                                "duration" : 25,
                                "mediaStart" : 2496,
                                "mediaDuration" : 25,
                                "scalar" : 1,
                                "animationTracks" : {

                                }
                              }
,
                          "start" : 567,
                          "duration" : 25,
                          "mediaStart" : 0,
                          "mediaDuration" : 23566,
                          "scalar" : 1,
                          "metadata" : {
                            "AutoAppliedSmartFocus" : "False",
                            "clipSpeedAttribute" : false
                          }
                        },
                        {
                          "id" : 2201,
                          "_type" : "UnifiedMedia",
                          "video" : 
                              {
                                "id" : 2202,
                                "_type" : "ScreenVMFile",
                                "src" : 3,
                                "trackNumber" : 0,
                                "attributes" : {
                                  "ident" : "Rec 01-28-21_003"
                                },
                                "parameters" : {
                                  "cursorScale" : {
                                    "type" : "double",
                                    "defaultValue" : 0.0,
                                    "interp" : "linr"
                                  },
                                  "cursorOpacity" : {
                                    "type" : "double",
                                    "defaultValue" : 0.0,
                                    "interp" : "linr"
                                  }
                                },
                                "effects" : [

                                ],
                                "start" : 592,
                                "duration" : 31,
                                "mediaStart" : 2611,
                                "mediaDuration" : 31,
                                "scalar" : 1,
                                "animationTracks" : {

                                }
                              },
                          "audio" : 
                              {
                                "id" : 2203,
                                "_type" : "AMFile",
                                "src" : 3,
                                "trackNumber" : 1,
                                "attributes" : {
                                  "ident" : "",
                                  "gain" : 1.0,
                                  "mixToMono" : false
                                },
                                  "channelNumber" : "0,1",
                                "effects" : [

                                ],
                                "start" : 592,
                                "duration" : 31,
                                "mediaStart" : 2611,
                                "mediaDuration" : 31,
                                "scalar" : 1,
                                "animationTracks" : {

                                }
                              }
,
                          "start" : 592,
                          "duration" : 31,
                          "mediaStart" : 0,
                          "mediaDuration" : 23566,
                          "scalar" : 1,
                          "metadata" : {
                            "AutoAppliedSmartFocus" : "False",
                            "clipSpeedAttribute" : false
                          }
                        },
                        {
                          "id" : 2204,
                          "_type" : "UnifiedMedia",
                          "video" : 
                              {
                                "id" : 2205,
                                "_type" : "ScreenVMFile",
                                "src" : 3,
                                "trackNumber" : 0,
                                "attributes" : {
                                  "ident" : "Rec 01-28-21_003"
                                },
                                "parameters" : {
                                  "cursorScale" : {
                                    "type" : "double",
                                    "defaultValue" : 0.0,
                                    "interp" : "linr"
                                  },
                                  "cursorOpacity" : {
                                    "type" : "double",
                                    "defaultValue" : 0.0,
                                    "interp" : "linr"
                                  }
                                },
                                "effects" : [

                                ],
                                "start" : 623,
                                "duration" : 731,
                                "mediaStart" : 2727,
                                "mediaDuration" : 731,
                                "scalar" : 1,
                                "animationTracks" : {

                                }
                              },
                          "audio" : 
                              {
                                "id" : 2206,
                                "_type" : "AMFile",
                                "src" : 3,
                                "trackNumber" : 1,
                                "attributes" : {
                                  "ident" : "",
                                  "gain" : 1.0,
                                  "mixToMono" : false
                                },
                                  "channelNumber" : "0,1",
                                "effects" : [

                                ],
                                "start" : 623,
                                "duration" : 731,
                                "mediaStart" : 2727,
                                "mediaDuration" : 731,
                                "scalar" : 1,
                                "animationTracks" : {

                                }
                              }
,
                          "start" : 623,
                          "duration" : 731,
                          "mediaStart" : 0,
                          "mediaDuration" : 23566,
                          "scalar" : 1,
                          "metadata" : {
                            "AutoAppliedSmartFocus" : "False",
                            "clipSpeedAttribute" : false
                          }
                        },
                        {
                          "id" : 2207,
                          "_type" : "UnifiedMedia",
                          "video" : 
                              {
                                "id" : 2208,
                                "_type" : "ScreenVMFile",
                                "src" : 3,
                                "trackNumber" : 0,
                                "attributes" : {
                                  "ident" : "Rec 01-28-21_003"
                                },
                                "parameters" : {
                                  "cursorScale" : {
                                    "type" : "double",
                                    "defaultValue" : 0.0,
                                    "interp" : "linr"
                                  },
                                  "cursorOpacity" : {
                                    "type" : "double",
                                    "defaultValue" : 0.0,
                                    "interp" : "linr"
                                  }
                                },
                                "effects" : [

                                ],
                                "start" : 1354,
                                "duration" : 293,
                                "mediaStart" : 3532,
                                "mediaDuration" : 293,
                                "scalar" : 1,
                                "animationTracks" : {

                                }
                              },
                          "audio" : 
                              {
                                "id" : 2209,
                                "_type" : "AMFile",
                                "src" : 3,
                                "trackNumber" : 1,
                                "attributes" : {
                                  "ident" : "",
                                  "gain" : 1.0,
                                  "mixToMono" : false
                                },
                                  "channelNumber" : "0,1",
                                "effects" : [

                                ],
                                "start" : 1354,
                                "duration" : 293,
                                "mediaStart" : 3532,
                                "mediaDuration" : 293,
                                "scalar" : 1,
                                "animationTracks" : {

                                }
                              }
,
                          "start" : 1354,
                          "duration" : 293,
                          "mediaStart" : 0,
                          "mediaDuration" : 23566,
                          "scalar" : 1,
                          "metadata" : {
                            "AutoAppliedSmartFocus" : "False",
                            "clipSpeedAttribute" : false
                          }
                        },
                        {
                          "id" : 2210,
                          "_type" : "UnifiedMedia",
                          "video" : 
                              {
                                "id" : 2211,
                                "_type" : "ScreenVMFile",
                                "src" : 3,
                                "trackNumber" : 0,
                                "attributes" : {
                                  "ident" : "Rec 01-28-21_003"
                                },
                                "parameters" : {
                                  "cursorScale" : {
                                    "type" : "double",
                                    "defaultValue" : 0.0,
                                    "interp" : "linr"
                                  },
                                  "cursorOpacity" : {
                                    "type" : "double",
                                    "defaultValue" : 0.0,
                                    "interp" : "linr"
                                  }
                                },
                                "effects" : [

                                ],
                                "start" : 1647,
                                "duration" : 194,
                                "mediaStart" : 3916,
                                "mediaDuration" : 194,
                                "scalar" : 1,
                                "animationTracks" : {

                                }
                              },
                          "audio" : 
                              {
                                "id" : 2212,
                                "_type" : "AMFile",
                                "src" : 3,
                                "trackNumber" : 1,
                                "attributes" : {
                                  "ident" : "",
                                  "gain" : 1.0,
                                  "mixToMono" : false
                                },
                                  "channelNumber" : "0,1",
                                "effects" : [

                                ],
                                "start" : 1647,
                                "duration" : 194,
                                "mediaStart" : 3916,
                                "mediaDuration" : 194,
                                "scalar" : 1,
                                "animationTracks" : {

                                }
                              }
,
                          "start" : 1647,
                          "duration" : 194,
                          "mediaStart" : 0,
                          "mediaDuration" : 23566,
                          "scalar" : 1,
                          "metadata" : {
                            "AutoAppliedSmartFocus" : "False",
                            "clipSpeedAttribute" : false
                          }
                        },
                        {
                          "id" : 2213,
                          "_type" : "UnifiedMedia",
                          "video" : 
                              {
                                "id" : 2214,
                                "_type" : "ScreenVMFile",
                                "src" : 3,
                                "trackNumber" : 0,
                                "attributes" : {
                                  "ident" : "Rec 01-28-21_003"
                                },
                                "parameters" : {
                                  "cursorScale" : {
                                    "type" : "double",
                                    "defaultValue" : 0.0,
                                    "interp" : "linr"
                                  },
                                  "cursorOpacity" : {
                                    "type" : "double",
                                    "defaultValue" : 0.0,
                                    "interp" : "linr"
                                  }
                                },
                                "effects" : [

                                ],
                                "start" : 1841,
                                "duration" : 37,
                                "mediaStart" : 4201,
                                "mediaDuration" : 37,
                                "scalar" : 1,
                                "animationTracks" : {

                                }
                              },
                          "audio" : 
                              {
                                "id" : 2215,
                                "_type" : "AMFile",
                                "src" : 3,
                                "trackNumber" : 1,
                                "attributes" : {
                                  "ident" : "",
                                  "gain" : 1.0,
                                  "mixToMono" : false
                                },
                                  "channelNumber" : "0,1",
                                "effects" : [

                                ],
                                "start" : 1841,
                                "duration" : 37,
                                "mediaStart" : 4201,
                                "mediaDuration" : 37,
                                "scalar" : 1,
                                "animationTracks" : {

                                }
                              }
,
                          "start" : 1841,
                          "duration" : 37,
                          "mediaStart" : 0,
                          "mediaDuration" : 23566,
                          "scalar" : 1,
                          "metadata" : {
                            "AutoAppliedSmartFocus" : "False",
                            "clipSpeedAttribute" : false
                          }
                        },
                        {
                          "id" : 2216,
                          "_type" : "UnifiedMedia",
                          "video" : 
                              {
                                "id" : 2217,
                                "_type" : "ScreenVMFile",
                                "src" : 3,
                                "trackNumber" : 0,
                                "attributes" : {
                                  "ident" : "Rec 01-28-21_003"
                                },
                                "parameters" : {
                                  "cursorScale" : {
                                    "type" : "double",
                                    "defaultValue" : 0.0,
                                    "interp" : "linr"
                                  },
                                  "cursorOpacity" : {
                                    "type" : "double",
                                    "defaultValue" : 0.0,
                                    "interp" : "linr"
                                  }
                                },
                                "effects" : [

                                ],
                                "start" : 1878,
                                "duration" : 37,
                                "mediaStart" : 4247,
                                "mediaDuration" : 37,
                                "scalar" : 1,
                                "animationTracks" : {

                                }
                              },
                          "audio" : 
                              {
                                "id" : 2218,
                                "_type" : "AMFile",
                                "src" : 3,
                                "trackNumber" : 1,
                                "attributes" : {
                                  "ident" : "",
                                  "gain" : 1.0,
                                  "mixToMono" : false
                                },
                                  "channelNumber" : "0,1",
                                "effects" : [

                                ],
                                "start" : 1878,
                                "duration" : 37,
                                "mediaStart" : 4247,
                                "mediaDuration" : 37,
                                "scalar" : 1,
                                "animationTracks" : {

                                }
                              }
,
                          "start" : 1878,
                          "duration" : 37,
                          "mediaStart" : 0,
                          "mediaDuration" : 23566,
                          "scalar" : 1,
                          "metadata" : {
                            "AutoAppliedSmartFocus" : "False",
                            "clipSpeedAttribute" : false
                          }
                        },
                        {
                          "id" : 2219,
                          "_type" : "UnifiedMedia",
                          "video" : 
                              {
                                "id" : 2220,
                                "_type" : "ScreenVMFile",
                                "src" : 3,
                                "trackNumber" : 0,
                                "attributes" : {
                                  "ident" : "Rec 01-28-21_003"
                                },
                                "parameters" : {
                                  "cursorScale" : {
                                    "type" : "double",
                                    "defaultValue" : 0.0,
                                    "interp" : "linr"
                                  },
                                  "cursorOpacity" : {
                                    "type" : "double",
                                    "defaultValue" : 0.0,
                                    "interp" : "linr"
                                  }
                                },
                                "effects" : [

                                ],
                                "start" : 1915,
                                "duration" : 22,
                                "mediaStart" : 4384,
                                "mediaDuration" : 22,
                                "scalar" : 1,
                                "animationTracks" : {

                                }
                              },
                          "audio" : 
                              {
                                "id" : 2221,
                                "_type" : "AMFile",
                                "src" : 3,
                                "trackNumber" : 1,
                                "attributes" : {
                                  "ident" : "",
                                  "gain" : 1.0,
                                  "mixToMono" : false
                                },
                                  "channelNumber" : "0,1",
                                "effects" : [

                                ],
                                "start" : 1915,
                                "duration" : 22,
                                "mediaStart" : 4384,
                                "mediaDuration" : 22,
                                "scalar" : 1,
                                "animationTracks" : {

                                }
                              }
,
                          "start" : 1915,
                          "duration" : 22,
                          "mediaStart" : 0,
                          "mediaDuration" : 23566,
                          "scalar" : 1,
                          "metadata" : {
                            "AutoAppliedSmartFocus" : "False",
                            "clipSpeedAttribute" : false
                          }
                        },
                        {
                          "id" : 2222,
                          "_type" : "UnifiedMedia",
                          "video" : 
                              {
                                "id" : 2223,
                                "_type" : "ScreenVMFile",
                                "src" : 3,
                                "trackNumber" : 0,
                                "attributes" : {
                                  "ident" : "Rec 01-28-21_003"
                                },
                                "parameters" : {
                                  "cursorScale" : {
                                    "type" : "double",
                                    "defaultValue" : 0.0,
                                    "interp" : "linr"
                                  },
                                  "cursorOpacity" : {
                                    "type" : "double",
                                    "defaultValue" : 0.0,
                                    "interp" : "linr"
                                  }
                                },
                                "effects" : [

                                ],
                                "start" : 1937,
                                "duration" : 34,
                                "mediaStart" : 4420,
                                "mediaDuration" : 34,
                                "scalar" : 1,
                                "animationTracks" : {

                                }
                              },
                          "audio" : 
                              {
                                "id" : 2224,
                                "_type" : "AMFile",
                                "src" : 3,
                                "trackNumber" : 1,
                                "attributes" : {
                                  "ident" : "",
                                  "gain" : 1.0,
                                  "mixToMono" : false
                                },
                                  "channelNumber" : "0,1",
                                "effects" : [

                                ],
                                "start" : 1937,
                                "duration" : 34,
                                "mediaStart" : 4420,
                                "mediaDuration" : 34,
                                "scalar" : 1,
                                "animationTracks" : {

                                }
                              }
,
                          "start" : 1937,
                          "duration" : 34,
                          "mediaStart" : 0,
                          "mediaDuration" : 23566,
                          "scalar" : 1,
                          "metadata" : {
                            "AutoAppliedSmartFocus" : "False",
                            "clipSpeedAttribute" : false
                          }
                        },
                        {
                          "id" : 2225,
                          "_type" : "UnifiedMedia",
                          "video" : 
                              {
                                "id" : 2226,
                                "_type" : "ScreenVMFile",
                                "src" : 3,
                                "trackNumber" : 0,
                                "attributes" : {
                                  "ident" : "Rec 01-28-21_003"
                                },
                                "parameters" : {
                                  "cursorScale" : {
                                    "type" : "double",
                                    "defaultValue" : 0.0,
                                    "interp" : "linr"
                                  },
                                  "cursorOpacity" : {
                                    "type" : "double",
                                    "defaultValue" : 0.0,
                                    "interp" : "linr"
                                  }
                                },
                                "effects" : [

                                ],
                                "start" : 1971,
                                "duration" : 39,
                                "mediaStart" : 4925,
                                "mediaDuration" : 39,
                                "scalar" : 1,
                                "animationTracks" : {

                                }
                              },
                          "audio" : 
                              {
                                "id" : 2227,
                                "_type" : "AMFile",
                                "src" : 3,
                                "trackNumber" : 1,
                                "attributes" : {
                                  "ident" : "",
                                  "gain" : 1.0,
                                  "mixToMono" : false
                                },
                                  "channelNumber" : "0,1",
                                "effects" : [

                                ],
                                "start" : 1971,
                                "duration" : 39,
                                "mediaStart" : 4925,
                                "mediaDuration" : 39,
                                "scalar" : 1,
                                "animationTracks" : {

                                }
                              }
,
                          "start" : 1971,
                          "duration" : 39,
                          "mediaStart" : 0,
                          "mediaDuration" : 23566,
                          "scalar" : 1,
                          "metadata" : {
                            "AutoAppliedSmartFocus" : "False",
                            "clipSpeedAttribute" : false
                          }
                        },
                        {
                          "id" : 2228,
                          "_type" : "UnifiedMedia",
                          "video" : 
                              {
                                "id" : 2229,
                                "_type" : "ScreenVMFile",
                                "src" : 3,
                                "trackNumber" : 0,
                                "attributes" : {
                                  "ident" : "Rec 01-28-21_003"
                                },
                                "parameters" : {
                                  "cursorScale" : {
                                    "type" : "double",
                                    "defaultValue" : 0.0,
                                    "interp" : "linr"
                                  },
                                  "cursorOpacity" : {
                                    "type" : "double",
                                    "defaultValue" : 0.0,
                                    "interp" : "linr"
                                  }
                                },
                                "effects" : [

                                ],
                                "start" : 2010,
                                "duration" : 1866,
                                "mediaStart" : 5106,
                                "mediaDuration" : 1866,
                                "scalar" : 1,
                                "animationTracks" : {

                                }
                              },
                          "audio" : 
                              {
                                "id" : 2230,
                                "_type" : "AMFile",
                                "src" : 3,
                                "trackNumber" : 1,
                                "attributes" : {
                                  "ident" : "",
                                  "gain" : 1.0,
                                  "mixToMono" : false
                                },
                                  "channelNumber" : "0,1",
                                "effects" : [

                                ],
                                "start" : 2010,
                                "duration" : 1866,
                                "mediaStart" : 5106,
                                "mediaDuration" : 1866,
                                "scalar" : 1,
                                "animationTracks" : {

                                }
                              }
,
                          "start" : 2010,
                          "duration" : 1866,
                          "mediaStart" : 0,
                          "mediaDuration" : 23566,
                          "scalar" : 1,
                          "metadata" : {
                            "AutoAppliedSmartFocus" : "False",
                            "clipSpeedAttribute" : false
                          }
                        },
                        {
                          "id" : 2231,
                          "_type" : "UnifiedMedia",
                          "video" : 
                              {
                                "id" : 2232,
                                "_type" : "ScreenVMFile",
                                "src" : 3,
                                "trackNumber" : 0,
                                "attributes" : {
                                  "ident" : "Rec 01-28-21_003"
                                },
                                "parameters" : {
                                  "cursorScale" : {
                                    "type" : "double",
                                    "defaultValue" : 0.0,
                                    "interp" : "linr"
                                  },
                                  "cursorOpacity" : {
                                    "type" : "double",
                                    "defaultValue" : 0.0,
                                    "interp" : "linr"
                                  }
                                },
                                "effects" : [

                                ],
                                "start" : 3876,
                                "duration" : 160,
                                "mediaStart" : 7099,
                                "mediaDuration" : 160,
                                "scalar" : 1,
                                "animationTracks" : {

                                }
                              },
                          "audio" : 
                              {
                                "id" : 2233,
                                "_type" : "AMFile",
                                "src" : 3,
                                "trackNumber" : 1,
                                "attributes" : {
                                  "ident" : "",
                                  "gain" : 1.0,
                                  "mixToMono" : false
                                },
                                  "channelNumber" : "0,1",
                                "effects" : [

                                ],
                                "start" : 3876,
                                "duration" : 160,
                                "mediaStart" : 7099,
                                "mediaDuration" : 160,
                                "scalar" : 1,
                                "animationTracks" : {

                                }
                              }
,
                          "start" : 3876,
                          "duration" : 160,
                          "mediaStart" : 0,
                          "mediaDuration" : 23566,
                          "scalar" : 1,
                          "metadata" : {
                            "AutoAppliedSmartFocus" : "False",
                            "clipSpeedAttribute" : false
                          }
                        },
                        {
                          "id" : 2234,
                          "_type" : "UnifiedMedia",
                          "video" : 
                              {
                                "id" : 2235,
                                "_type" : "ScreenVMFile",
                                "src" : 3,
                                "trackNumber" : 0,
                                "attributes" : {
                                  "ident" : "Rec 01-28-21_003"
                                },
                                "parameters" : {
                                  "cursorScale" : {
                                    "type" : "double",
                                    "defaultValue" : 0.0,
                                    "interp" : "linr"
                                  },
                                  "cursorOpacity" : {
                                    "type" : "double",
                                    "defaultValue" : 0.0,
                                    "interp" : "linr"
                                  }
                                },
                                "effects" : [

                                ],
                                "start" : 4036,
                                "duration" : 275,
                                "mediaStart" : 7439,
                                "mediaDuration" : 275,
                                "scalar" : 1,
                                "animationTracks" : {

                                }
                              },
                          "audio" : 
                              {
                                "id" : 2236,
                                "_type" : "AMFile",
                                "src" : 3,
                                "trackNumber" : 1,
                                "attributes" : {
                                  "ident" : "",
                                  "gain" : 1.0,
                                  "mixToMono" : false
                                },
                                  "channelNumber" : "0,1",
                                "effects" : [

                                ],
                                "start" : 4036,
                                "duration" : 275,
                                "mediaStart" : 7439,
                                "mediaDuration" : 275,
                                "scalar" : 1,
                                "animationTracks" : {

                                }
                              }
,
                          "start" : 4036,
                          "duration" : 275,
                          "mediaStart" : 0,
                          "mediaDuration" : 23566,
                          "scalar" : 1,
                          "metadata" : {
                            "AutoAppliedSmartFocus" : "False",
                            "clipSpeedAttribute" : false
                          }
                        },
                        {
                          "id" : 2237,
                          "_type" : "UnifiedMedia",
                          "video" : 
                              {
                                "id" : 2238,
                                "_type" : "ScreenVMFile",
                                "src" : 3,
                                "trackNumber" : 0,
                                "attributes" : {
                                  "ident" : "Rec 01-28-21_003"
                                },
                                "parameters" : {
                                  "cursorScale" : {
                                    "type" : "double",
                                    "defaultValue" : 0.0,
                                    "interp" : "linr"
                                  },
                                  "cursorOpacity" : {
                                    "type" : "double",
                                    "defaultValue" : 0.0,
                                    "interp" : "linr"
                                  }
                                },
                                "effects" : [

                                ],
                                "start" : 4311,
                                "duration" : 3,
                                "mediaStart" : 7841,
                                "mediaDuration" : 3,
                                "scalar" : 1,
                                "animationTracks" : {

                                }
                              },
                          "audio" : 
                              {
                                "id" : 2239,
                                "_type" : "AMFile",
                                "src" : 3,
                                "trackNumber" : 1,
                                "attributes" : {
                                  "ident" : "",
                                  "gain" : 1.0,
                                  "mixToMono" : false
                                },
                                  "channelNumber" : "0,1",
                                "effects" : [

                                ],
                                "start" : 4311,
                                "duration" : 3,
                                "mediaStart" : 7841,
                                "mediaDuration" : 3,
                                "scalar" : 1,
                                "animationTracks" : {

                                }
                              }
,
                          "start" : 4311,
                          "duration" : 3,
                          "mediaStart" : 0,
                          "mediaDuration" : 23566,
                          "scalar" : 1,
                          "metadata" : {
                            "AutoAppliedSmartFocus" : "False",
                            "clipSpeedAttribute" : false
                          }
                        },
                        {
                          "id" : 2240,
                          "_type" : "UnifiedMedia",
                          "video" : 
                              {
                                "id" : 2241,
                                "_type" : "ScreenVMFile",
                                "src" : 3,
                                "trackNumber" : 0,
                                "attributes" : {
                                  "ident" : "Rec 01-28-21_003"
                                },
                                "parameters" : {
                                  "cursorScale" : {
                                    "type" : "double",
                                    "defaultValue" : 0.0,
                                    "interp" : "linr"
                                  },
                                  "cursorOpacity" : {
                                    "type" : "double",
                                    "defaultValue" : 0.0,
                                    "interp" : "linr"
                                  }
                                },
                                "effects" : [

                                ],
                                "start" : 4314,
                                "duration" : 73,
                                "mediaStart" : 8276,
                                "mediaDuration" : 73,
                                "scalar" : 1,
                                "animationTracks" : {

                                }
                              },
                          "audio" : 
                              {
                                "id" : 2242,
                                "_type" : "AMFile",
                                "src" : 3,
                                "trackNumber" : 1,
                                "attributes" : {
                                  "ident" : "",
                                  "gain" : 1.0,
                                  "mixToMono" : false
                                },
                                  "channelNumber" : "0,1",
                                "effects" : [

                                ],
                                "start" : 4314,
                                "duration" : 73,
                                "mediaStart" : 8276,
                                "mediaDuration" : 73,
                                "scalar" : 1,
                                "animationTracks" : {

                                }
                              }
,
                          "start" : 4314,
                          "duration" : 73,
                          "mediaStart" : 0,
                          "mediaDuration" : 23566,
                          "scalar" : 1,
                          "metadata" : {
                            "AutoAppliedSmartFocus" : "False",
                            "clipSpeedAttribute" : false
                          }
                        },
                        {
                          "id" : 2243,
                          "_type" : "UnifiedMedia",
                          "video" : 
                              {
                                "id" : 2244,
                                "_type" : "ScreenVMFile",
                                "src" : 3,
                                "trackNumber" : 0,
                                "attributes" : {
                                  "ident" : "Rec 01-28-21_003"
                                },
                                "parameters" : {
                                  "cursorScale" : {
                                    "type" : "double",
                                    "defaultValue" : 0.0,
                                    "interp" : "linr"
                                  },
                                  "cursorOpacity" : {
                                    "type" : "double",
                                    "defaultValue" : 0.0,
                                    "interp" : "linr"
                                  }
                                },
                                "effects" : [

                                ],
                                "start" : 4387,
                                "duration" : 15135,
                                "mediaStart" : 8431,
                                "mediaDuration" : 15135,
                                "scalar" : 1,
                                "animationTracks" : {

                                }
                              },
                          "audio" : 
                              {
                                "id" : 2245,
                                "_type" : "AMFile",
                                "src" : 3,
                                "trackNumber" : 1,
                                "attributes" : {
                                  "ident" : "",
                                  "gain" : 1.0,
                                  "mixToMono" : false
                                },
                                  "channelNumber" : "0,1",
                                "effects" : [

                                ],
                                "start" : 4387,
                                "duration" : 15135,
                                "mediaStart" : 8431,
                                "mediaDuration" : 15135,
                                "scalar" : 1,
                                "animationTracks" : {

                                }
                              }
,
                          "start" : 4387,
                          "duration" : 15135,
                          "mediaStart" : 0,
                          "mediaDuration" : 23566,
                          "scalar" : 1,
                          "metadata" : {
                            "AutoAppliedSmartFocus" : "False",
                            "clipSpeedAttribute" : false
                          }
                        }
                    ],
                    "effects" : [

                    ],
                    "start" : 14252,
                    "duration" : 58,
                    "mediaStart" : 4392,
                    "mediaDuration" : 58,
                    "scalar" : 1,
                    "metadata" : {
                      "AutoAppliedSmartFocus" : "False",
                      "clipSpeedAttribute" : false
                    },
                    "animationTracks" : {

                    }
                  },
                  {
                    "id" : 2246,
                    "_type" : "StitchedMedia",
                    "minMediaStart" : 0,
                    "attributes" : {
                      "ident" : "Rec 01-28-21_003",
                      "gain" : 1.0,
                      "mixToMono" : false
                    },
                    "parameters" : {
                      "volume" : 1.0,
                      "cursorOpacity" : 1.0,
                      "cursorScale" : 1.0
                    },
                    "medias" : [
                        {
                          "id" : 2247,
                          "_type" : "UnifiedMedia",
                          "video" : 
                              {
                                "id" : 2248,
                                "_type" : "ScreenVMFile",
                                "src" : 3,
                                "trackNumber" : 0,
                                "attributes" : {
                                  "ident" : "Rec 01-28-21_003"
                                },
                                "parameters" : {
                                  "cursorScale" : {
                                    "type" : "double",
                                    "defaultValue" : 0.0,
                                    "interp" : "linr"
                                  },
                                  "cursorOpacity" : {
                                    "type" : "double",
                                    "defaultValue" : 0.0,
                                    "interp" : "linr"
                                  }
                                },
                                "effects" : [

                                ],
                                "start" : 0,
                                "duration" : 9,
                                "mediaStart" : 0,
                                "mediaDuration" : 9,
                                "scalar" : 1,
                                "animationTracks" : {

                                }
                              },
                          "audio" : 
                              {
                                "id" : 2249,
                                "_type" : "AMFile",
                                "src" : 3,
                                "trackNumber" : 1,
                                "attributes" : {
                                  "ident" : "",
                                  "gain" : 1.0,
                                  "mixToMono" : false
                                },
                                  "channelNumber" : "0,1",
                                "effects" : [

                                ],
                                "start" : 0,
                                "duration" : 9,
                                "mediaStart" : 0,
                                "mediaDuration" : 9,
                                "scalar" : 1,
                                "animationTracks" : {

                                }
                              }
,
                          "start" : 0,
                          "duration" : 9,
                          "mediaStart" : 0,
                          "mediaDuration" : 23566,
                          "scalar" : 1,
                          "metadata" : {
                            "AutoAppliedSmartFocus" : "False",
                            "clipSpeedAttribute" : false
                          }
                        },
                        {
                          "id" : 2250,
                          "_type" : "UnifiedMedia",
                          "video" : 
                              {
                                "id" : 2251,
                                "_type" : "ScreenVMFile",
                                "src" : 3,
                                "trackNumber" : 0,
                                "attributes" : {
                                  "ident" : "Rec 01-28-21_003"
                                },
                                "parameters" : {
                                  "cursorScale" : {
                                    "type" : "double",
                                    "defaultValue" : 0.0,
                                    "interp" : "linr"
                                  },
                                  "cursorOpacity" : {
                                    "type" : "double",
                                    "defaultValue" : 0.0,
                                    "interp" : "linr"
                                  }
                                },
                                "effects" : [

                                ],
                                "start" : 9,
                                "duration" : 47,
                                "mediaStart" : 1540,
                                "mediaDuration" : 47,
                                "scalar" : 1,
                                "animationTracks" : {

                                }
                              },
                          "audio" : 
                              {
                                "id" : 2252,
                                "_type" : "AMFile",
                                "src" : 3,
                                "trackNumber" : 1,
                                "attributes" : {
                                  "ident" : "",
                                  "gain" : 1.0,
                                  "mixToMono" : false
                                },
                                  "channelNumber" : "0,1",
                                "effects" : [

                                ],
                                "start" : 9,
                                "duration" : 47,
                                "mediaStart" : 1540,
                                "mediaDuration" : 47,
                                "scalar" : 1,
                                "animationTracks" : {

                                }
                              }
,
                          "start" : 9,
                          "duration" : 47,
                          "mediaStart" : 0,
                          "mediaDuration" : 23566,
                          "scalar" : 1,
                          "metadata" : {
                            "AutoAppliedSmartFocus" : "False",
                            "clipSpeedAttribute" : false
                          }
                        },
                        {
                          "id" : 2253,
                          "_type" : "UnifiedMedia",
                          "video" : 
                              {
                                "id" : 2254,
                                "_type" : "ScreenVMFile",
                                "src" : 3,
                                "trackNumber" : 0,
                                "attributes" : {
                                  "ident" : "Rec 01-28-21_003"
                                },
                                "parameters" : {
                                  "cursorScale" : {
                                    "type" : "double",
                                    "defaultValue" : 0.0,
                                    "interp" : "linr"
                                  },
                                  "cursorOpacity" : {
                                    "type" : "double",
                                    "defaultValue" : 0.0,
                                    "interp" : "linr"
                                  }
                                },
                                "effects" : [

                                ],
                                "start" : 56,
                                "duration" : 35,
                                "mediaStart" : 1641,
                                "mediaDuration" : 35,
                                "scalar" : 1,
                                "animationTracks" : {

                                }
                              },
                          "audio" : 
                              {
                                "id" : 2255,
                                "_type" : "AMFile",
                                "src" : 3,
                                "trackNumber" : 1,
                                "attributes" : {
                                  "ident" : "",
                                  "gain" : 1.0,
                                  "mixToMono" : false
                                },
                                  "channelNumber" : "0,1",
                                "effects" : [

                                ],
                                "start" : 56,
                                "duration" : 35,
                                "mediaStart" : 1641,
                                "mediaDuration" : 35,
                                "scalar" : 1,
                                "animationTracks" : {

                                }
                              }
,
                          "start" : 56,
                          "duration" : 35,
                          "mediaStart" : 0,
                          "mediaDuration" : 23566,
                          "scalar" : 1,
                          "metadata" : {
                            "AutoAppliedSmartFocus" : "False",
                            "clipSpeedAttribute" : false
                          }
                        },
                        {
                          "id" : 2256,
                          "_type" : "UnifiedMedia",
                          "video" : 
                              {
                                "id" : 2257,
                                "_type" : "ScreenVMFile",
                                "src" : 3,
                                "trackNumber" : 0,
                                "attributes" : {
                                  "ident" : "Rec 01-28-21_003"
                                },
                                "parameters" : {
                                  "cursorScale" : {
                                    "type" : "double",
                                    "defaultValue" : 0.0,
                                    "interp" : "linr"
                                  },
                                  "cursorOpacity" : {
                                    "type" : "double",
                                    "defaultValue" : 0.0,
                                    "interp" : "linr"
                                  }
                                },
                                "effects" : [

                                ],
                                "start" : 91,
                                "duration" : 73,
                                "mediaStart" : 1702,
                                "mediaDuration" : 73,
                                "scalar" : 1,
                                "animationTracks" : {

                                }
                              },
                          "audio" : 
                              {
                                "id" : 2258,
                                "_type" : "AMFile",
                                "src" : 3,
                                "trackNumber" : 1,
                                "attributes" : {
                                  "ident" : "",
                                  "gain" : 1.0,
                                  "mixToMono" : false
                                },
                                  "channelNumber" : "0,1",
                                "effects" : [

                                ],
                                "start" : 91,
                                "duration" : 73,
                                "mediaStart" : 1702,
                                "mediaDuration" : 73,
                                "scalar" : 1,
                                "animationTracks" : {

                                }
                              }
,
                          "start" : 91,
                          "duration" : 73,
                          "mediaStart" : 0,
                          "mediaDuration" : 23566,
                          "scalar" : 1,
                          "metadata" : {
                            "AutoAppliedSmartFocus" : "False",
                            "clipSpeedAttribute" : false
                          }
                        },
                        {
                          "id" : 2259,
                          "_type" : "UnifiedMedia",
                          "video" : 
                              {
                                "id" : 2260,
                                "_type" : "ScreenVMFile",
                                "src" : 3,
                                "trackNumber" : 0,
                                "attributes" : {
                                  "ident" : "Rec 01-28-21_003"
                                },
                                "parameters" : {
                                  "cursorScale" : {
                                    "type" : "double",
                                    "defaultValue" : 0.0,
                                    "interp" : "linr"
                                  },
                                  "cursorOpacity" : {
                                    "type" : "double",
                                    "defaultValue" : 0.0,
                                    "interp" : "linr"
                                  }
                                },
                                "effects" : [

                                ],
                                "start" : 164,
                                "duration" : 122,
                                "mediaStart" : 1849,
                                "mediaDuration" : 122,
                                "scalar" : 1,
                                "animationTracks" : {

                                }
                              },
                          "audio" : 
                              {
                                "id" : 2261,
                                "_type" : "AMFile",
                                "src" : 3,
                                "trackNumber" : 1,
                                "attributes" : {
                                  "ident" : "",
                                  "gain" : 1.0,
                                  "mixToMono" : false
                                },
                                  "channelNumber" : "0,1",
                                "effects" : [

                                ],
                                "start" : 164,
                                "duration" : 122,
                                "mediaStart" : 1849,
                                "mediaDuration" : 122,
                                "scalar" : 1,
                                "animationTracks" : {

                                }
                              }
,
                          "start" : 164,
                          "duration" : 122,
                          "mediaStart" : 0,
                          "mediaDuration" : 23566,
                          "scalar" : 1,
                          "metadata" : {
                            "AutoAppliedSmartFocus" : "False",
                            "clipSpeedAttribute" : false
                          }
                        },
                        {
                          "id" : 2262,
                          "_type" : "UnifiedMedia",
                          "video" : 
                              {
                                "id" : 2263,
                                "_type" : "ScreenVMFile",
                                "src" : 3,
                                "trackNumber" : 0,
                                "attributes" : {
                                  "ident" : "Rec 01-28-21_003"
                                },
                                "parameters" : {
                                  "cursorScale" : {
                                    "type" : "double",
                                    "defaultValue" : 0.0,
                                    "interp" : "linr"
                                  },
                                  "cursorOpacity" : {
                                    "type" : "double",
                                    "defaultValue" : 0.0,
                                    "interp" : "linr"
                                  }
                                },
                                "effects" : [

                                ],
                                "start" : 286,
                                "duration" : 38,
                                "mediaStart" : 2036,
                                "mediaDuration" : 38,
                                "scalar" : 1,
                                "animationTracks" : {

                                }
                              },
                          "audio" : 
                              {
                                "id" : 2264,
                                "_type" : "AMFile",
                                "src" : 3,
                                "trackNumber" : 1,
                                "attributes" : {
                                  "ident" : "",
                                  "gain" : 1.0,
                                  "mixToMono" : false
                                },
                                  "channelNumber" : "0,1",
                                "effects" : [

                                ],
                                "start" : 286,
                                "duration" : 38,
                                "mediaStart" : 2036,
                                "mediaDuration" : 38,
                                "scalar" : 1,
                                "animationTracks" : {

                                }
                              }
,
                          "start" : 286,
                          "duration" : 38,
                          "mediaStart" : 0,
                          "mediaDuration" : 23566,
                          "scalar" : 1,
                          "metadata" : {
                            "AutoAppliedSmartFocus" : "False",
                            "clipSpeedAttribute" : false
                          }
                        },
                        {
                          "id" : 2265,
                          "_type" : "UnifiedMedia",
                          "video" : 
                              {
                                "id" : 2266,
                                "_type" : "ScreenVMFile",
                                "src" : 3,
                                "trackNumber" : 0,
                                "attributes" : {
                                  "ident" : "Rec 01-28-21_003"
                                },
                                "parameters" : {
                                  "cursorScale" : {
                                    "type" : "double",
                                    "defaultValue" : 0.0,
                                    "interp" : "linr"
                                  },
                                  "cursorOpacity" : {
                                    "type" : "double",
                                    "defaultValue" : 0.0,
                                    "interp" : "linr"
                                  }
                                },
                                "effects" : [

                                ],
                                "start" : 324,
                                "duration" : 30,
                                "mediaStart" : 2087,
                                "mediaDuration" : 30,
                                "scalar" : 1,
                                "animationTracks" : {

                                }
                              },
                          "audio" : 
                              {
                                "id" : 2267,
                                "_type" : "AMFile",
                                "src" : 3,
                                "trackNumber" : 1,
                                "attributes" : {
                                  "ident" : "",
                                  "gain" : 1.0,
                                  "mixToMono" : false
                                },
                                  "channelNumber" : "0,1",
                                "effects" : [

                                ],
                                "start" : 324,
                                "duration" : 30,
                                "mediaStart" : 2087,
                                "mediaDuration" : 30,
                                "scalar" : 1,
                                "animationTracks" : {

                                }
                              }
,
                          "start" : 324,
                          "duration" : 30,
                          "mediaStart" : 0,
                          "mediaDuration" : 23566,
                          "scalar" : 1,
                          "metadata" : {
                            "AutoAppliedSmartFocus" : "False",
                            "clipSpeedAttribute" : false
                          }
                        },
                        {
                          "id" : 2268,
                          "_type" : "UnifiedMedia",
                          "video" : 
                              {
                                "id" : 2269,
                                "_type" : "ScreenVMFile",
                                "src" : 3,
                                "trackNumber" : 0,
                                "attributes" : {
                                  "ident" : "Rec 01-28-21_003"
                                },
                                "parameters" : {
                                  "cursorScale" : {
                                    "type" : "double",
                                    "defaultValue" : 0.0,
                                    "interp" : "linr"
                                  },
                                  "cursorOpacity" : {
                                    "type" : "double",
                                    "defaultValue" : 0.0,
                                    "interp" : "linr"
                                  }
                                },
                                "effects" : [

                                ],
                                "start" : 354,
                                "duration" : 92,
                                "mediaStart" : 2148,
                                "mediaDuration" : 92,
                                "scalar" : 1,
                                "animationTracks" : {

                                }
                              },
                          "audio" : 
                              {
                                "id" : 2270,
                                "_type" : "AMFile",
                                "src" : 3,
                                "trackNumber" : 1,
                                "attributes" : {
                                  "ident" : "",
                                  "gain" : 1.0,
                                  "mixToMono" : false
                                },
                                  "channelNumber" : "0,1",
                                "effects" : [

                                ],
                                "start" : 354,
                                "duration" : 92,
                                "mediaStart" : 2148,
                                "mediaDuration" : 92,
                                "scalar" : 1,
                                "animationTracks" : {

                                }
                              }
,
                          "start" : 354,
                          "duration" : 92,
                          "mediaStart" : 0,
                          "mediaDuration" : 23566,
                          "scalar" : 1,
                          "metadata" : {
                            "AutoAppliedSmartFocus" : "False",
                            "clipSpeedAttribute" : false
                          }
                        },
                        {
                          "id" : 2271,
                          "_type" : "UnifiedMedia",
                          "video" : 
                              {
                                "id" : 2272,
                                "_type" : "ScreenVMFile",
                                "src" : 3,
                                "trackNumber" : 0,
                                "attributes" : {
                                  "ident" : "Rec 01-28-21_003"
                                },
                                "parameters" : {
                                  "cursorScale" : {
                                    "type" : "double",
                                    "defaultValue" : 0.0,
                                    "interp" : "linr"
                                  },
                                  "cursorOpacity" : {
                                    "type" : "double",
                                    "defaultValue" : 0.0,
                                    "interp" : "linr"
                                  }
                                },
                                "effects" : [

                                ],
                                "start" : 446,
                                "duration" : 63,
                                "mediaStart" : 2290,
                                "mediaDuration" : 63,
                                "scalar" : 1,
                                "animationTracks" : {

                                }
                              },
                          "audio" : 
                              {
                                "id" : 2273,
                                "_type" : "AMFile",
                                "src" : 3,
                                "trackNumber" : 1,
                                "attributes" : {
                                  "ident" : "",
                                  "gain" : 1.0,
                                  "mixToMono" : false
                                },
                                  "channelNumber" : "0,1",
                                "effects" : [

                                ],
                                "start" : 446,
                                "duration" : 63,
                                "mediaStart" : 2290,
                                "mediaDuration" : 63,
                                "scalar" : 1,
                                "animationTracks" : {

                                }
                              }
,
                          "start" : 446,
                          "duration" : 63,
                          "mediaStart" : 0,
                          "mediaDuration" : 23566,
                          "scalar" : 1,
                          "metadata" : {
                            "AutoAppliedSmartFocus" : "False",
                            "clipSpeedAttribute" : false
                          }
                        },
                        {
                          "id" : 2274,
                          "_type" : "UnifiedMedia",
                          "video" : 
                              {
                                "id" : 2275,
                                "_type" : "ScreenVMFile",
                                "src" : 3,
                                "trackNumber" : 0,
                                "attributes" : {
                                  "ident" : "Rec 01-28-21_003"
                                },
                                "parameters" : {
                                  "cursorScale" : {
                                    "type" : "double",
                                    "defaultValue" : 0.0,
                                    "interp" : "linr"
                                  },
                                  "cursorOpacity" : {
                                    "type" : "double",
                                    "defaultValue" : 0.0,
                                    "interp" : "linr"
                                  }
                                },
                                "effects" : [

                                ],
                                "start" : 509,
                                "duration" : 27,
                                "mediaStart" : 2376,
                                "mediaDuration" : 27,
                                "scalar" : 1,
                                "animationTracks" : {

                                }
                              },
                          "audio" : 
                              {
                                "id" : 2276,
                                "_type" : "AMFile",
                                "src" : 3,
                                "trackNumber" : 1,
                                "attributes" : {
                                  "ident" : "",
                                  "gain" : 1.0,
                                  "mixToMono" : false
                                },
                                  "channelNumber" : "0,1",
                                "effects" : [

                                ],
                                "start" : 509,
                                "duration" : 27,
                                "mediaStart" : 2376,
                                "mediaDuration" : 27,
                                "scalar" : 1,
                                "animationTracks" : {

                                }
                              }
,
                          "start" : 509,
                          "duration" : 27,
                          "mediaStart" : 0,
                          "mediaDuration" : 23566,
                          "scalar" : 1,
                          "metadata" : {
                            "AutoAppliedSmartFocus" : "False",
                            "clipSpeedAttribute" : false
                          }
                        },
                        {
                          "id" : 2277,
                          "_type" : "UnifiedMedia",
                          "video" : 
                              {
                                "id" : 2278,
                                "_type" : "ScreenVMFile",
                                "src" : 3,
                                "trackNumber" : 0,
                                "attributes" : {
                                  "ident" : "Rec 01-28-21_003"
                                },
                                "parameters" : {
                                  "cursorScale" : {
                                    "type" : "double",
                                    "defaultValue" : 0.0,
                                    "interp" : "linr"
                                  },
                                  "cursorOpacity" : {
                                    "type" : "double",
                                    "defaultValue" : 0.0,
                                    "interp" : "linr"
                                  }
                                },
                                "effects" : [

                                ],
                                "start" : 536,
                                "duration" : 31,
                                "mediaStart" : 2426,
                                "mediaDuration" : 31,
                                "scalar" : 1,
                                "animationTracks" : {

                                }
                              },
                          "audio" : 
                              {
                                "id" : 2279,
                                "_type" : "AMFile",
                                "src" : 3,
                                "trackNumber" : 1,
                                "attributes" : {
                                  "ident" : "",
                                  "gain" : 1.0,
                                  "mixToMono" : false
                                },
                                  "channelNumber" : "0,1",
                                "effects" : [

                                ],
                                "start" : 536,
                                "duration" : 31,
                                "mediaStart" : 2426,
                                "mediaDuration" : 31,
                                "scalar" : 1,
                                "animationTracks" : {

                                }
                              }
,
                          "start" : 536,
                          "duration" : 31,
                          "mediaStart" : 0,
                          "mediaDuration" : 23566,
                          "scalar" : 1,
                          "metadata" : {
                            "AutoAppliedSmartFocus" : "False",
                            "clipSpeedAttribute" : false
                          }
                        },
                        {
                          "id" : 2280,
                          "_type" : "UnifiedMedia",
                          "video" : 
                              {
                                "id" : 2281,
                                "_type" : "ScreenVMFile",
                                "src" : 3,
                                "trackNumber" : 0,
                                "attributes" : {
                                  "ident" : "Rec 01-28-21_003"
                                },
                                "parameters" : {
                                  "cursorScale" : {
                                    "type" : "double",
                                    "defaultValue" : 0.0,
                                    "interp" : "linr"
                                  },
                                  "cursorOpacity" : {
                                    "type" : "double",
                                    "defaultValue" : 0.0,
                                    "interp" : "linr"
                                  }
                                },
                                "effects" : [

                                ],
                                "start" : 567,
                                "duration" : 25,
                                "mediaStart" : 2496,
                                "mediaDuration" : 25,
                                "scalar" : 1,
                                "animationTracks" : {

                                }
                              },
                          "audio" : 
                              {
                                "id" : 2282,
                                "_type" : "AMFile",
                                "src" : 3,
                                "trackNumber" : 1,
                                "attributes" : {
                                  "ident" : "",
                                  "gain" : 1.0,
                                  "mixToMono" : false
                                },
                                  "channelNumber" : "0,1",
                                "effects" : [

                                ],
                                "start" : 567,
                                "duration" : 25,
                                "mediaStart" : 2496,
                                "mediaDuration" : 25,
                                "scalar" : 1,
                                "animationTracks" : {

                                }
                              }
,
                          "start" : 567,
                          "duration" : 25,
                          "mediaStart" : 0,
                          "mediaDuration" : 23566,
                          "scalar" : 1,
                          "metadata" : {
                            "AutoAppliedSmartFocus" : "False",
                            "clipSpeedAttribute" : false
                          }
                        },
                        {
                          "id" : 2283,
                          "_type" : "UnifiedMedia",
                          "video" : 
                              {
                                "id" : 2284,
                                "_type" : "ScreenVMFile",
                                "src" : 3,
                                "trackNumber" : 0,
                                "attributes" : {
                                  "ident" : "Rec 01-28-21_003"
                                },
                                "parameters" : {
                                  "cursorScale" : {
                                    "type" : "double",
                                    "defaultValue" : 0.0,
                                    "interp" : "linr"
                                  },
                                  "cursorOpacity" : {
                                    "type" : "double",
                                    "defaultValue" : 0.0,
                                    "interp" : "linr"
                                  }
                                },
                                "effects" : [

                                ],
                                "start" : 592,
                                "duration" : 31,
                                "mediaStart" : 2611,
                                "mediaDuration" : 31,
                                "scalar" : 1,
                                "animationTracks" : {

                                }
                              },
                          "audio" : 
                              {
                                "id" : 2285,
                                "_type" : "AMFile",
                                "src" : 3,
                                "trackNumber" : 1,
                                "attributes" : {
                                  "ident" : "",
                                  "gain" : 1.0,
                                  "mixToMono" : false
                                },
                                  "channelNumber" : "0,1",
                                "effects" : [

                                ],
                                "start" : 592,
                                "duration" : 31,
                                "mediaStart" : 2611,
                                "mediaDuration" : 31,
                                "scalar" : 1,
                                "animationTracks" : {

                                }
                              }
,
                          "start" : 592,
                          "duration" : 31,
                          "mediaStart" : 0,
                          "mediaDuration" : 23566,
                          "scalar" : 1,
                          "metadata" : {
                            "AutoAppliedSmartFocus" : "False",
                            "clipSpeedAttribute" : false
                          }
                        },
                        {
                          "id" : 2286,
                          "_type" : "UnifiedMedia",
                          "video" : 
                              {
                                "id" : 2287,
                                "_type" : "ScreenVMFile",
                                "src" : 3,
                                "trackNumber" : 0,
                                "attributes" : {
                                  "ident" : "Rec 01-28-21_003"
                                },
                                "parameters" : {
                                  "cursorScale" : {
                                    "type" : "double",
                                    "defaultValue" : 0.0,
                                    "interp" : "linr"
                                  },
                                  "cursorOpacity" : {
                                    "type" : "double",
                                    "defaultValue" : 0.0,
                                    "interp" : "linr"
                                  }
                                },
                                "effects" : [

                                ],
                                "start" : 623,
                                "duration" : 731,
                                "mediaStart" : 2727,
                                "mediaDuration" : 731,
                                "scalar" : 1,
                                "animationTracks" : {

                                }
                              },
                          "audio" : 
                              {
                                "id" : 2288,
                                "_type" : "AMFile",
                                "src" : 3,
                                "trackNumber" : 1,
                                "attributes" : {
                                  "ident" : "",
                                  "gain" : 1.0,
                                  "mixToMono" : false
                                },
                                  "channelNumber" : "0,1",
                                "effects" : [

                                ],
                                "start" : 623,
                                "duration" : 731,
                                "mediaStart" : 2727,
                                "mediaDuration" : 731,
                                "scalar" : 1,
                                "animationTracks" : {

                                }
                              }
,
                          "start" : 623,
                          "duration" : 731,
                          "mediaStart" : 0,
                          "mediaDuration" : 23566,
                          "scalar" : 1,
                          "metadata" : {
                            "AutoAppliedSmartFocus" : "False",
                            "clipSpeedAttribute" : false
                          }
                        },
                        {
                          "id" : 2289,
                          "_type" : "UnifiedMedia",
                          "video" : 
                              {
                                "id" : 2290,
                                "_type" : "ScreenVMFile",
                                "src" : 3,
                                "trackNumber" : 0,
                                "attributes" : {
                                  "ident" : "Rec 01-28-21_003"
                                },
                                "parameters" : {
                                  "cursorScale" : {
                                    "type" : "double",
                                    "defaultValue" : 0.0,
                                    "interp" : "linr"
                                  },
                                  "cursorOpacity" : {
                                    "type" : "double",
                                    "defaultValue" : 0.0,
                                    "interp" : "linr"
                                  }
                                },
                                "effects" : [

                                ],
                                "start" : 1354,
                                "duration" : 293,
                                "mediaStart" : 3532,
                                "mediaDuration" : 293,
                                "scalar" : 1,
                                "animationTracks" : {

                                }
                              },
                          "audio" : 
                              {
                                "id" : 2291,
                                "_type" : "AMFile",
                                "src" : 3,
                                "trackNumber" : 1,
                                "attributes" : {
                                  "ident" : "",
                                  "gain" : 1.0,
                                  "mixToMono" : false
                                },
                                  "channelNumber" : "0,1",
                                "effects" : [

                                ],
                                "start" : 1354,
                                "duration" : 293,
                                "mediaStart" : 3532,
                                "mediaDuration" : 293,
                                "scalar" : 1,
                                "animationTracks" : {

                                }
                              }
,
                          "start" : 1354,
                          "duration" : 293,
                          "mediaStart" : 0,
                          "mediaDuration" : 23566,
                          "scalar" : 1,
                          "metadata" : {
                            "AutoAppliedSmartFocus" : "False",
                            "clipSpeedAttribute" : false
                          }
                        },
                        {
                          "id" : 2292,
                          "_type" : "UnifiedMedia",
                          "video" : 
                              {
                                "id" : 2293,
                                "_type" : "ScreenVMFile",
                                "src" : 3,
                                "trackNumber" : 0,
                                "attributes" : {
                                  "ident" : "Rec 01-28-21_003"
                                },
                                "parameters" : {
                                  "cursorScale" : {
                                    "type" : "double",
                                    "defaultValue" : 0.0,
                                    "interp" : "linr"
                                  },
                                  "cursorOpacity" : {
                                    "type" : "double",
                                    "defaultValue" : 0.0,
                                    "interp" : "linr"
                                  }
                                },
                                "effects" : [

                                ],
                                "start" : 1647,
                                "duration" : 194,
                                "mediaStart" : 3916,
                                "mediaDuration" : 194,
                                "scalar" : 1,
                                "animationTracks" : {

                                }
                              },
                          "audio" : 
                              {
                                "id" : 2294,
                                "_type" : "AMFile",
                                "src" : 3,
                                "trackNumber" : 1,
                                "attributes" : {
                                  "ident" : "",
                                  "gain" : 1.0,
                                  "mixToMono" : false
                                },
                                  "channelNumber" : "0,1",
                                "effects" : [

                                ],
                                "start" : 1647,
                                "duration" : 194,
                                "mediaStart" : 3916,
                                "mediaDuration" : 194,
                                "scalar" : 1,
                                "animationTracks" : {

                                }
                              }
,
                          "start" : 1647,
                          "duration" : 194,
                          "mediaStart" : 0,
                          "mediaDuration" : 23566,
                          "scalar" : 1,
                          "metadata" : {
                            "AutoAppliedSmartFocus" : "False",
                            "clipSpeedAttribute" : false
                          }
                        },
                        {
                          "id" : 2295,
                          "_type" : "UnifiedMedia",
                          "video" : 
                              {
                                "id" : 2296,
                                "_type" : "ScreenVMFile",
                                "src" : 3,
                                "trackNumber" : 0,
                                "attributes" : {
                                  "ident" : "Rec 01-28-21_003"
                                },
                                "parameters" : {
                                  "cursorScale" : {
                                    "type" : "double",
                                    "defaultValue" : 0.0,
                                    "interp" : "linr"
                                  },
                                  "cursorOpacity" : {
                                    "type" : "double",
                                    "defaultValue" : 0.0,
                                    "interp" : "linr"
                                  }
                                },
                                "effects" : [

                                ],
                                "start" : 1841,
                                "duration" : 37,
                                "mediaStart" : 4201,
                                "mediaDuration" : 37,
                                "scalar" : 1,
                                "animationTracks" : {

                                }
                              },
                          "audio" : 
                              {
                                "id" : 2297,
                                "_type" : "AMFile",
                                "src" : 3,
                                "trackNumber" : 1,
                                "attributes" : {
                                  "ident" : "",
                                  "gain" : 1.0,
                                  "mixToMono" : false
                                },
                                  "channelNumber" : "0,1",
                                "effects" : [

                                ],
                                "start" : 1841,
                                "duration" : 37,
                                "mediaStart" : 4201,
                                "mediaDuration" : 37,
                                "scalar" : 1,
                                "animationTracks" : {

                                }
                              }
,
                          "start" : 1841,
                          "duration" : 37,
                          "mediaStart" : 0,
                          "mediaDuration" : 23566,
                          "scalar" : 1,
                          "metadata" : {
                            "AutoAppliedSmartFocus" : "False",
                            "clipSpeedAttribute" : false
                          }
                        },
                        {
                          "id" : 2298,
                          "_type" : "UnifiedMedia",
                          "video" : 
                              {
                                "id" : 2299,
                                "_type" : "ScreenVMFile",
                                "src" : 3,
                                "trackNumber" : 0,
                                "attributes" : {
                                  "ident" : "Rec 01-28-21_003"
                                },
                                "parameters" : {
                                  "cursorScale" : {
                                    "type" : "double",
                                    "defaultValue" : 0.0,
                                    "interp" : "linr"
                                  },
                                  "cursorOpacity" : {
                                    "type" : "double",
                                    "defaultValue" : 0.0,
                                    "interp" : "linr"
                                  }
                                },
                                "effects" : [

                                ],
                                "start" : 1878,
                                "duration" : 37,
                                "mediaStart" : 4247,
                                "mediaDuration" : 37,
                                "scalar" : 1,
                                "animationTracks" : {

                                }
                              },
                          "audio" : 
                              {
                                "id" : 2300,
                                "_type" : "AMFile",
                                "src" : 3,
                                "trackNumber" : 1,
                                "attributes" : {
                                  "ident" : "",
                                  "gain" : 1.0,
                                  "mixToMono" : false
                                },
                                  "channelNumber" : "0,1",
                                "effects" : [

                                ],
                                "start" : 1878,
                                "duration" : 37,
                                "mediaStart" : 4247,
                                "mediaDuration" : 37,
                                "scalar" : 1,
                                "animationTracks" : {

                                }
                              }
,
                          "start" : 1878,
                          "duration" : 37,
                          "mediaStart" : 0,
                          "mediaDuration" : 23566,
                          "scalar" : 1,
                          "metadata" : {
                            "AutoAppliedSmartFocus" : "False",
                            "clipSpeedAttribute" : false
                          }
                        },
                        {
                          "id" : 2301,
                          "_type" : "UnifiedMedia",
                          "video" : 
                              {
                                "id" : 2302,
                                "_type" : "ScreenVMFile",
                                "src" : 3,
                                "trackNumber" : 0,
                                "attributes" : {
                                  "ident" : "Rec 01-28-21_003"
                                },
                                "parameters" : {
                                  "cursorScale" : {
                                    "type" : "double",
                                    "defaultValue" : 0.0,
                                    "interp" : "linr"
                                  },
                                  "cursorOpacity" : {
                                    "type" : "double",
                                    "defaultValue" : 0.0,
                                    "interp" : "linr"
                                  }
                                },
                                "effects" : [

                                ],
                                "start" : 1915,
                                "duration" : 22,
                                "mediaStart" : 4384,
                                "mediaDuration" : 22,
                                "scalar" : 1,
                                "animationTracks" : {

                                }
                              },
                          "audio" : 
                              {
                                "id" : 2303,
                                "_type" : "AMFile",
                                "src" : 3,
                                "trackNumber" : 1,
                                "attributes" : {
                                  "ident" : "",
                                  "gain" : 1.0,
                                  "mixToMono" : false
                                },
                                  "channelNumber" : "0,1",
                                "effects" : [

                                ],
                                "start" : 1915,
                                "duration" : 22,
                                "mediaStart" : 4384,
                                "mediaDuration" : 22,
                                "scalar" : 1,
                                "animationTracks" : {

                                }
                              }
,
                          "start" : 1915,
                          "duration" : 22,
                          "mediaStart" : 0,
                          "mediaDuration" : 23566,
                          "scalar" : 1,
                          "metadata" : {
                            "AutoAppliedSmartFocus" : "False",
                            "clipSpeedAttribute" : false
                          }
                        },
                        {
                          "id" : 2304,
                          "_type" : "UnifiedMedia",
                          "video" : 
                              {
                                "id" : 2305,
                                "_type" : "ScreenVMFile",
                                "src" : 3,
                                "trackNumber" : 0,
                                "attributes" : {
                                  "ident" : "Rec 01-28-21_003"
                                },
                                "parameters" : {
                                  "cursorScale" : {
                                    "type" : "double",
                                    "defaultValue" : 0.0,
                                    "interp" : "linr"
                                  },
                                  "cursorOpacity" : {
                                    "type" : "double",
                                    "defaultValue" : 0.0,
                                    "interp" : "linr"
                                  }
                                },
                                "effects" : [

                                ],
                                "start" : 1937,
                                "duration" : 34,
                                "mediaStart" : 4420,
                                "mediaDuration" : 34,
                                "scalar" : 1,
                                "animationTracks" : {

                                }
                              },
                          "audio" : 
                              {
                                "id" : 2306,
                                "_type" : "AMFile",
                                "src" : 3,
                                "trackNumber" : 1,
                                "attributes" : {
                                  "ident" : "",
                                  "gain" : 1.0,
                                  "mixToMono" : false
                                },
                                  "channelNumber" : "0,1",
                                "effects" : [

                                ],
                                "start" : 1937,
                                "duration" : 34,
                                "mediaStart" : 4420,
                                "mediaDuration" : 34,
                                "scalar" : 1,
                                "animationTracks" : {

                                }
                              }
,
                          "start" : 1937,
                          "duration" : 34,
                          "mediaStart" : 0,
                          "mediaDuration" : 23566,
                          "scalar" : 1,
                          "metadata" : {
                            "AutoAppliedSmartFocus" : "False",
                            "clipSpeedAttribute" : false
                          }
                        },
                        {
                          "id" : 2307,
                          "_type" : "UnifiedMedia",
                          "video" : 
                              {
                                "id" : 2308,
                                "_type" : "ScreenVMFile",
                                "src" : 3,
                                "trackNumber" : 0,
                                "attributes" : {
                                  "ident" : "Rec 01-28-21_003"
                                },
                                "parameters" : {
                                  "cursorScale" : {
                                    "type" : "double",
                                    "defaultValue" : 0.0,
                                    "interp" : "linr"
                                  },
                                  "cursorOpacity" : {
                                    "type" : "double",
                                    "defaultValue" : 0.0,
                                    "interp" : "linr"
                                  }
                                },
                                "effects" : [

                                ],
                                "start" : 1971,
                                "duration" : 39,
                                "mediaStart" : 4925,
                                "mediaDuration" : 39,
                                "scalar" : 1,
                                "animationTracks" : {

                                }
                              },
                          "audio" : 
                              {
                                "id" : 2309,
                                "_type" : "AMFile",
                                "src" : 3,
                                "trackNumber" : 1,
                                "attributes" : {
                                  "ident" : "",
                                  "gain" : 1.0,
                                  "mixToMono" : false
                                },
                                  "channelNumber" : "0,1",
                                "effects" : [

                                ],
                                "start" : 1971,
                                "duration" : 39,
                                "mediaStart" : 4925,
                                "mediaDuration" : 39,
                                "scalar" : 1,
                                "animationTracks" : {

                                }
                              }
,
                          "start" : 1971,
                          "duration" : 39,
                          "mediaStart" : 0,
                          "mediaDuration" : 23566,
                          "scalar" : 1,
                          "metadata" : {
                            "AutoAppliedSmartFocus" : "False",
                            "clipSpeedAttribute" : false
                          }
                        },
                        {
                          "id" : 2310,
                          "_type" : "UnifiedMedia",
                          "video" : 
                              {
                                "id" : 2311,
                                "_type" : "ScreenVMFile",
                                "src" : 3,
                                "trackNumber" : 0,
                                "attributes" : {
                                  "ident" : "Rec 01-28-21_003"
                                },
                                "parameters" : {
                                  "cursorScale" : {
                                    "type" : "double",
                                    "defaultValue" : 0.0,
                                    "interp" : "linr"
                                  },
                                  "cursorOpacity" : {
                                    "type" : "double",
                                    "defaultValue" : 0.0,
                                    "interp" : "linr"
                                  }
                                },
                                "effects" : [

                                ],
                                "start" : 2010,
                                "duration" : 1866,
                                "mediaStart" : 5106,
                                "mediaDuration" : 1866,
                                "scalar" : 1,
                                "animationTracks" : {

                                }
                              },
                          "audio" : 
                              {
                                "id" : 2312,
                                "_type" : "AMFile",
                                "src" : 3,
                                "trackNumber" : 1,
                                "attributes" : {
                                  "ident" : "",
                                  "gain" : 1.0,
                                  "mixToMono" : false
                                },
                                  "channelNumber" : "0,1",
                                "effects" : [

                                ],
                                "start" : 2010,
                                "duration" : 1866,
                                "mediaStart" : 5106,
                                "mediaDuration" : 1866,
                                "scalar" : 1,
                                "animationTracks" : {

                                }
                              }
,
                          "start" : 2010,
                          "duration" : 1866,
                          "mediaStart" : 0,
                          "mediaDuration" : 23566,
                          "scalar" : 1,
                          "metadata" : {
                            "AutoAppliedSmartFocus" : "False",
                            "clipSpeedAttribute" : false
                          }
                        },
                        {
                          "id" : 2313,
                          "_type" : "UnifiedMedia",
                          "video" : 
                              {
                                "id" : 2314,
                                "_type" : "ScreenVMFile",
                                "src" : 3,
                                "trackNumber" : 0,
                                "attributes" : {
                                  "ident" : "Rec 01-28-21_003"
                                },
                                "parameters" : {
                                  "cursorScale" : {
                                    "type" : "double",
                                    "defaultValue" : 0.0,
                                    "interp" : "linr"
                                  },
                                  "cursorOpacity" : {
                                    "type" : "double",
                                    "defaultValue" : 0.0,
                                    "interp" : "linr"
                                  }
                                },
                                "effects" : [

                                ],
                                "start" : 3876,
                                "duration" : 160,
                                "mediaStart" : 7099,
                                "mediaDuration" : 160,
                                "scalar" : 1,
                                "animationTracks" : {

                                }
                              },
                          "audio" : 
                              {
                                "id" : 2315,
                                "_type" : "AMFile",
                                "src" : 3,
                                "trackNumber" : 1,
                                "attributes" : {
                                  "ident" : "",
                                  "gain" : 1.0,
                                  "mixToMono" : false
                                },
                                  "channelNumber" : "0,1",
                                "effects" : [

                                ],
                                "start" : 3876,
                                "duration" : 160,
                                "mediaStart" : 7099,
                                "mediaDuration" : 160,
                                "scalar" : 1,
                                "animationTracks" : {

                                }
                              }
,
                          "start" : 3876,
                          "duration" : 160,
                          "mediaStart" : 0,
                          "mediaDuration" : 23566,
                          "scalar" : 1,
                          "metadata" : {
                            "AutoAppliedSmartFocus" : "False",
                            "clipSpeedAttribute" : false
                          }
                        },
                        {
                          "id" : 2316,
                          "_type" : "UnifiedMedia",
                          "video" : 
                              {
                                "id" : 2317,
                                "_type" : "ScreenVMFile",
                                "src" : 3,
                                "trackNumber" : 0,
                                "attributes" : {
                                  "ident" : "Rec 01-28-21_003"
                                },
                                "parameters" : {
                                  "cursorScale" : {
                                    "type" : "double",
                                    "defaultValue" : 0.0,
                                    "interp" : "linr"
                                  },
                                  "cursorOpacity" : {
                                    "type" : "double",
                                    "defaultValue" : 0.0,
                                    "interp" : "linr"
                                  }
                                },
                                "effects" : [

                                ],
                                "start" : 4036,
                                "duration" : 275,
                                "mediaStart" : 7439,
                                "mediaDuration" : 275,
                                "scalar" : 1,
                                "animationTracks" : {

                                }
                              },
                          "audio" : 
                              {
                                "id" : 2318,
                                "_type" : "AMFile",
                                "src" : 3,
                                "trackNumber" : 1,
                                "attributes" : {
                                  "ident" : "",
                                  "gain" : 1.0,
                                  "mixToMono" : false
                                },
                                  "channelNumber" : "0,1",
                                "effects" : [

                                ],
                                "start" : 4036,
                                "duration" : 275,
                                "mediaStart" : 7439,
                                "mediaDuration" : 275,
                                "scalar" : 1,
                                "animationTracks" : {

                                }
                              }
,
                          "start" : 4036,
                          "duration" : 275,
                          "mediaStart" : 0,
                          "mediaDuration" : 23566,
                          "scalar" : 1,
                          "metadata" : {
                            "AutoAppliedSmartFocus" : "False",
                            "clipSpeedAttribute" : false
                          }
                        },
                        {
                          "id" : 2319,
                          "_type" : "UnifiedMedia",
                          "video" : 
                              {
                                "id" : 2320,
                                "_type" : "ScreenVMFile",
                                "src" : 3,
                                "trackNumber" : 0,
                                "attributes" : {
                                  "ident" : "Rec 01-28-21_003"
                                },
                                "parameters" : {
                                  "cursorScale" : {
                                    "type" : "double",
                                    "defaultValue" : 0.0,
                                    "interp" : "linr"
                                  },
                                  "cursorOpacity" : {
                                    "type" : "double",
                                    "defaultValue" : 0.0,
                                    "interp" : "linr"
                                  }
                                },
                                "effects" : [

                                ],
                                "start" : 4311,
                                "duration" : 3,
                                "mediaStart" : 7841,
                                "mediaDuration" : 3,
                                "scalar" : 1,
                                "animationTracks" : {

                                }
                              },
                          "audio" : 
                              {
                                "id" : 2321,
                                "_type" : "AMFile",
                                "src" : 3,
                                "trackNumber" : 1,
                                "attributes" : {
                                  "ident" : "",
                                  "gain" : 1.0,
                                  "mixToMono" : false
                                },
                                  "channelNumber" : "0,1",
                                "effects" : [

                                ],
                                "start" : 4311,
                                "duration" : 3,
                                "mediaStart" : 7841,
                                "mediaDuration" : 3,
                                "scalar" : 1,
                                "animationTracks" : {

                                }
                              }
,
                          "start" : 4311,
                          "duration" : 3,
                          "mediaStart" : 0,
                          "mediaDuration" : 23566,
                          "scalar" : 1,
                          "metadata" : {
                            "AutoAppliedSmartFocus" : "False",
                            "clipSpeedAttribute" : false
                          }
                        },
                        {
                          "id" : 2322,
                          "_type" : "UnifiedMedia",
                          "video" : 
                              {
                                "id" : 2323,
                                "_type" : "ScreenVMFile",
                                "src" : 3,
                                "trackNumber" : 0,
                                "attributes" : {
                                  "ident" : "Rec 01-28-21_003"
                                },
                                "parameters" : {
                                  "cursorScale" : {
                                    "type" : "double",
                                    "defaultValue" : 0.0,
                                    "interp" : "linr"
                                  },
                                  "cursorOpacity" : {
                                    "type" : "double",
                                    "defaultValue" : 0.0,
                                    "interp" : "linr"
                                  }
                                },
                                "effects" : [

                                ],
                                "start" : 4314,
                                "duration" : 73,
                                "mediaStart" : 8276,
                                "mediaDuration" : 73,
                                "scalar" : 1,
                                "animationTracks" : {

                                }
                              },
                          "audio" : 
                              {
                                "id" : 2324,
                                "_type" : "AMFile",
                                "src" : 3,
                                "trackNumber" : 1,
                                "attributes" : {
                                  "ident" : "",
                                  "gain" : 1.0,
                                  "mixToMono" : false
                                },
                                  "channelNumber" : "0,1",
                                "effects" : [

                                ],
                                "start" : 4314,
                                "duration" : 73,
                                "mediaStart" : 8276,
                                "mediaDuration" : 73,
                                "scalar" : 1,
                                "animationTracks" : {

                                }
                              }
,
                          "start" : 4314,
                          "duration" : 73,
                          "mediaStart" : 0,
                          "mediaDuration" : 23566,
                          "scalar" : 1,
                          "metadata" : {
                            "AutoAppliedSmartFocus" : "False",
                            "clipSpeedAttribute" : false
                          }
                        },
                        {
                          "id" : 2325,
                          "_type" : "UnifiedMedia",
                          "video" : 
                              {
                                "id" : 2326,
                                "_type" : "ScreenVMFile",
                                "src" : 3,
                                "trackNumber" : 0,
                                "attributes" : {
                                  "ident" : "Rec 01-28-21_003"
                                },
                                "parameters" : {
                                  "cursorScale" : {
                                    "type" : "double",
                                    "defaultValue" : 0.0,
                                    "interp" : "linr"
                                  },
                                  "cursorOpacity" : {
                                    "type" : "double",
                                    "defaultValue" : 0.0,
                                    "interp" : "linr"
                                  }
                                },
                                "effects" : [

                                ],
                                "start" : 4387,
                                "duration" : 982,
                                "mediaStart" : 8431,
                                "mediaDuration" : 982,
                                "scalar" : 1,
                                "animationTracks" : {

                                }
                              },
                          "audio" : 
                              {
                                "id" : 2327,
                                "_type" : "AMFile",
                                "src" : 3,
                                "trackNumber" : 1,
                                "attributes" : {
                                  "ident" : "",
                                  "gain" : 1.0,
                                  "mixToMono" : false
                                },
                                  "channelNumber" : "0,1",
                                "effects" : [

                                ],
                                "start" : 4387,
                                "duration" : 982,
                                "mediaStart" : 8431,
                                "mediaDuration" : 982,
                                "scalar" : 1,
                                "animationTracks" : {

                                }
                              }
,
                          "start" : 4387,
                          "duration" : 982,
                          "mediaStart" : 0,
                          "mediaDuration" : 23566,
                          "scalar" : 1,
                          "metadata" : {
                            "AutoAppliedSmartFocus" : "False",
                            "clipSpeedAttribute" : false
                          }
                        },
                        {
                          "id" : 2328,
                          "_type" : "UnifiedMedia",
                          "video" : 
                              {
                                "id" : 2329,
                                "_type" : "ScreenVMFile",
                                "src" : 3,
                                "trackNumber" : 0,
                                "attributes" : {
                                  "ident" : "Rec 01-28-21_003"
                                },
                                "parameters" : {
                                  "cursorScale" : {
                                    "type" : "double",
                                    "defaultValue" : 0.0,
                                    "interp" : "linr"
                                  },
                                  "cursorOpacity" : {
                                    "type" : "double",
                                    "defaultValue" : 0.0,
                                    "interp" : "linr"
                                  }
                                },
                                "effects" : [

                                ],
                                "start" : 5369,
                                "duration" : 14097,
                                "mediaStart" : 9469,
                                "mediaDuration" : 14097,
                                "scalar" : 1,
                                "animationTracks" : {

                                }
                              },
                          "audio" : 
                              {
                                "id" : 2330,
                                "_type" : "AMFile",
                                "src" : 3,
                                "trackNumber" : 1,
                                "attributes" : {
                                  "ident" : "",
                                  "gain" : 1.0,
                                  "mixToMono" : false
                                },
                                  "channelNumber" : "0,1",
                                "effects" : [

                                ],
                                "start" : 5369,
                                "duration" : 14097,
                                "mediaStart" : 9469,
                                "mediaDuration" : 14097,
                                "scalar" : 1,
                                "animationTracks" : {

                                }
                              }
,
                          "start" : 5369,
                          "duration" : 14097,
                          "mediaStart" : 0,
                          "mediaDuration" : 23566,
                          "scalar" : 1,
                          "metadata" : {
                            "AutoAppliedSmartFocus" : "False",
                            "clipSpeedAttribute" : false
                          }
                        }
                    ],
                    "effects" : [

                    ],
                    "start" : 14310,
                    "duration" : 181,
                    "mediaStart" : 5242,
                    "mediaDuration" : 181,
                    "scalar" : 1,
                    "metadata" : {
                      "AutoAppliedSmartFocus" : "False",
                      "clipSpeedAttribute" : false
                    },
                    "animationTracks" : {

                    }
                  },
                  {
                    "id" : 2331,
                    "_type" : "StitchedMedia",
                    "minMediaStart" : 0,
                    "attributes" : {
                      "ident" : "Rec 01-28-21_003",
                      "gain" : 0.3,
                      "mixToMono" : false
                    },
                    "parameters" : {
                      "volume" : 1.0,
                      "cursorOpacity" : 1.0,
                      "cursorScale" : 1.0
                    },
                    "medias" : [
                        {
                          "id" : 2332,
                          "_type" : "UnifiedMedia",
                          "video" : 
                              {
                                "id" : 2333,
                                "_type" : "ScreenVMFile",
                                "src" : 3,
                                "trackNumber" : 0,
                                "attributes" : {
                                  "ident" : "Rec 01-28-21_003"
                                },
                                "parameters" : {
                                  "cursorScale" : {
                                    "type" : "double",
                                    "defaultValue" : 0.0,
                                    "interp" : "linr"
                                  },
                                  "cursorOpacity" : {
                                    "type" : "double",
                                    "defaultValue" : 0.0,
                                    "interp" : "linr"
                                  }
                                },
                                "effects" : [

                                ],
                                "start" : 0,
                                "duration" : 9,
                                "mediaStart" : 0,
                                "mediaDuration" : 9,
                                "scalar" : 1,
                                "animationTracks" : {

                                }
                              },
                          "audio" : 
                              {
                                "id" : 2334,
                                "_type" : "AMFile",
                                "src" : 3,
                                "trackNumber" : 1,
                                "attributes" : {
                                  "ident" : "",
                                  "gain" : 1.0,
                                  "mixToMono" : false
                                },
                                  "channelNumber" : "0,1",
                                "effects" : [

                                ],
                                "start" : 0,
                                "duration" : 9,
                                "mediaStart" : 0,
                                "mediaDuration" : 9,
                                "scalar" : 1,
                                "animationTracks" : {

                                }
                              }
,
                          "start" : 0,
                          "duration" : 9,
                          "mediaStart" : 0,
                          "mediaDuration" : 23566,
                          "scalar" : 1,
                          "metadata" : {
                            "AutoAppliedSmartFocus" : "False",
                            "clipSpeedAttribute" : false
                          }
                        },
                        {
                          "id" : 2335,
                          "_type" : "UnifiedMedia",
                          "video" : 
                              {
                                "id" : 2336,
                                "_type" : "ScreenVMFile",
                                "src" : 3,
                                "trackNumber" : 0,
                                "attributes" : {
                                  "ident" : "Rec 01-28-21_003"
                                },
                                "parameters" : {
                                  "cursorScale" : {
                                    "type" : "double",
                                    "defaultValue" : 0.0,
                                    "interp" : "linr"
                                  },
                                  "cursorOpacity" : {
                                    "type" : "double",
                                    "defaultValue" : 0.0,
                                    "interp" : "linr"
                                  }
                                },
                                "effects" : [

                                ],
                                "start" : 9,
                                "duration" : 47,
                                "mediaStart" : 1540,
                                "mediaDuration" : 47,
                                "scalar" : 1,
                                "animationTracks" : {

                                }
                              },
                          "audio" : 
                              {
                                "id" : 2337,
                                "_type" : "AMFile",
                                "src" : 3,
                                "trackNumber" : 1,
                                "attributes" : {
                                  "ident" : "",
                                  "gain" : 1.0,
                                  "mixToMono" : false
                                },
                                  "channelNumber" : "0,1",
                                "effects" : [

                                ],
                                "start" : 9,
                                "duration" : 47,
                                "mediaStart" : 1540,
                                "mediaDuration" : 47,
                                "scalar" : 1,
                                "animationTracks" : {

                                }
                              }
,
                          "start" : 9,
                          "duration" : 47,
                          "mediaStart" : 0,
                          "mediaDuration" : 23566,
                          "scalar" : 1,
                          "metadata" : {
                            "AutoAppliedSmartFocus" : "False",
                            "clipSpeedAttribute" : false
                          }
                        },
                        {
                          "id" : 2338,
                          "_type" : "UnifiedMedia",
                          "video" : 
                              {
                                "id" : 2339,
                                "_type" : "ScreenVMFile",
                                "src" : 3,
                                "trackNumber" : 0,
                                "attributes" : {
                                  "ident" : "Rec 01-28-21_003"
                                },
                                "parameters" : {
                                  "cursorScale" : {
                                    "type" : "double",
                                    "defaultValue" : 0.0,
                                    "interp" : "linr"
                                  },
                                  "cursorOpacity" : {
                                    "type" : "double",
                                    "defaultValue" : 0.0,
                                    "interp" : "linr"
                                  }
                                },
                                "effects" : [

                                ],
                                "start" : 56,
                                "duration" : 35,
                                "mediaStart" : 1641,
                                "mediaDuration" : 35,
                                "scalar" : 1,
                                "animationTracks" : {

                                }
                              },
                          "audio" : 
                              {
                                "id" : 2340,
                                "_type" : "AMFile",
                                "src" : 3,
                                "trackNumber" : 1,
                                "attributes" : {
                                  "ident" : "",
                                  "gain" : 1.0,
                                  "mixToMono" : false
                                },
                                  "channelNumber" : "0,1",
                                "effects" : [

                                ],
                                "start" : 56,
                                "duration" : 35,
                                "mediaStart" : 1641,
                                "mediaDuration" : 35,
                                "scalar" : 1,
                                "animationTracks" : {

                                }
                              }
,
                          "start" : 56,
                          "duration" : 35,
                          "mediaStart" : 0,
                          "mediaDuration" : 23566,
                          "scalar" : 1,
                          "metadata" : {
                            "AutoAppliedSmartFocus" : "False",
                            "clipSpeedAttribute" : false
                          }
                        },
                        {
                          "id" : 2341,
                          "_type" : "UnifiedMedia",
                          "video" : 
                              {
                                "id" : 2342,
                                "_type" : "ScreenVMFile",
                                "src" : 3,
                                "trackNumber" : 0,
                                "attributes" : {
                                  "ident" : "Rec 01-28-21_003"
                                },
                                "parameters" : {
                                  "cursorScale" : {
                                    "type" : "double",
                                    "defaultValue" : 0.0,
                                    "interp" : "linr"
                                  },
                                  "cursorOpacity" : {
                                    "type" : "double",
                                    "defaultValue" : 0.0,
                                    "interp" : "linr"
                                  }
                                },
                                "effects" : [

                                ],
                                "start" : 91,
                                "duration" : 73,
                                "mediaStart" : 1702,
                                "mediaDuration" : 73,
                                "scalar" : 1,
                                "animationTracks" : {

                                }
                              },
                          "audio" : 
                              {
                                "id" : 2343,
                                "_type" : "AMFile",
                                "src" : 3,
                                "trackNumber" : 1,
                                "attributes" : {
                                  "ident" : "",
                                  "gain" : 1.0,
                                  "mixToMono" : false
                                },
                                  "channelNumber" : "0,1",
                                "effects" : [

                                ],
                                "start" : 91,
                                "duration" : 73,
                                "mediaStart" : 1702,
                                "mediaDuration" : 73,
                                "scalar" : 1,
                                "animationTracks" : {

                                }
                              }
,
                          "start" : 91,
                          "duration" : 73,
                          "mediaStart" : 0,
                          "mediaDuration" : 23566,
                          "scalar" : 1,
                          "metadata" : {
                            "AutoAppliedSmartFocus" : "False",
                            "clipSpeedAttribute" : false
                          }
                        },
                        {
                          "id" : 2344,
                          "_type" : "UnifiedMedia",
                          "video" : 
                              {
                                "id" : 2345,
                                "_type" : "ScreenVMFile",
                                "src" : 3,
                                "trackNumber" : 0,
                                "attributes" : {
                                  "ident" : "Rec 01-28-21_003"
                                },
                                "parameters" : {
                                  "cursorScale" : {
                                    "type" : "double",
                                    "defaultValue" : 0.0,
                                    "interp" : "linr"
                                  },
                                  "cursorOpacity" : {
                                    "type" : "double",
                                    "defaultValue" : 0.0,
                                    "interp" : "linr"
                                  }
                                },
                                "effects" : [

                                ],
                                "start" : 164,
                                "duration" : 122,
                                "mediaStart" : 1849,
                                "mediaDuration" : 122,
                                "scalar" : 1,
                                "animationTracks" : {

                                }
                              },
                          "audio" : 
                              {
                                "id" : 2346,
                                "_type" : "AMFile",
                                "src" : 3,
                                "trackNumber" : 1,
                                "attributes" : {
                                  "ident" : "",
                                  "gain" : 1.0,
                                  "mixToMono" : false
                                },
                                  "channelNumber" : "0,1",
                                "effects" : [

                                ],
                                "start" : 164,
                                "duration" : 122,
                                "mediaStart" : 1849,
                                "mediaDuration" : 122,
                                "scalar" : 1,
                                "animationTracks" : {

                                }
                              }
,
                          "start" : 164,
                          "duration" : 122,
                          "mediaStart" : 0,
                          "mediaDuration" : 23566,
                          "scalar" : 1,
                          "metadata" : {
                            "AutoAppliedSmartFocus" : "False",
                            "clipSpeedAttribute" : false
                          }
                        },
                        {
                          "id" : 2347,
                          "_type" : "UnifiedMedia",
                          "video" : 
                              {
                                "id" : 2348,
                                "_type" : "ScreenVMFile",
                                "src" : 3,
                                "trackNumber" : 0,
                                "attributes" : {
                                  "ident" : "Rec 01-28-21_003"
                                },
                                "parameters" : {
                                  "cursorScale" : {
                                    "type" : "double",
                                    "defaultValue" : 0.0,
                                    "interp" : "linr"
                                  },
                                  "cursorOpacity" : {
                                    "type" : "double",
                                    "defaultValue" : 0.0,
                                    "interp" : "linr"
                                  }
                                },
                                "effects" : [

                                ],
                                "start" : 286,
                                "duration" : 38,
                                "mediaStart" : 2036,
                                "mediaDuration" : 38,
                                "scalar" : 1,
                                "animationTracks" : {

                                }
                              },
                          "audio" : 
                              {
                                "id" : 2349,
                                "_type" : "AMFile",
                                "src" : 3,
                                "trackNumber" : 1,
                                "attributes" : {
                                  "ident" : "",
                                  "gain" : 1.0,
                                  "mixToMono" : false
                                },
                                  "channelNumber" : "0,1",
                                "effects" : [

                                ],
                                "start" : 286,
                                "duration" : 38,
                                "mediaStart" : 2036,
                                "mediaDuration" : 38,
                                "scalar" : 1,
                                "animationTracks" : {

                                }
                              }
,
                          "start" : 286,
                          "duration" : 38,
                          "mediaStart" : 0,
                          "mediaDuration" : 23566,
                          "scalar" : 1,
                          "metadata" : {
                            "AutoAppliedSmartFocus" : "False",
                            "clipSpeedAttribute" : false
                          }
                        },
                        {
                          "id" : 2350,
                          "_type" : "UnifiedMedia",
                          "video" : 
                              {
                                "id" : 2351,
                                "_type" : "ScreenVMFile",
                                "src" : 3,
                                "trackNumber" : 0,
                                "attributes" : {
                                  "ident" : "Rec 01-28-21_003"
                                },
                                "parameters" : {
                                  "cursorScale" : {
                                    "type" : "double",
                                    "defaultValue" : 0.0,
                                    "interp" : "linr"
                                  },
                                  "cursorOpacity" : {
                                    "type" : "double",
                                    "defaultValue" : 0.0,
                                    "interp" : "linr"
                                  }
                                },
                                "effects" : [

                                ],
                                "start" : 324,
                                "duration" : 30,
                                "mediaStart" : 2087,
                                "mediaDuration" : 30,
                                "scalar" : 1,
                                "animationTracks" : {

                                }
                              },
                          "audio" : 
                              {
                                "id" : 2352,
                                "_type" : "AMFile",
                                "src" : 3,
                                "trackNumber" : 1,
                                "attributes" : {
                                  "ident" : "",
                                  "gain" : 1.0,
                                  "mixToMono" : false
                                },
                                  "channelNumber" : "0,1",
                                "effects" : [

                                ],
                                "start" : 324,
                                "duration" : 30,
                                "mediaStart" : 2087,
                                "mediaDuration" : 30,
                                "scalar" : 1,
                                "animationTracks" : {

                                }
                              }
,
                          "start" : 324,
                          "duration" : 30,
                          "mediaStart" : 0,
                          "mediaDuration" : 23566,
                          "scalar" : 1,
                          "metadata" : {
                            "AutoAppliedSmartFocus" : "False",
                            "clipSpeedAttribute" : false
                          }
                        },
                        {
                          "id" : 2353,
                          "_type" : "UnifiedMedia",
                          "video" : 
                              {
                                "id" : 2354,
                                "_type" : "ScreenVMFile",
                                "src" : 3,
                                "trackNumber" : 0,
                                "attributes" : {
                                  "ident" : "Rec 01-28-21_003"
                                },
                                "parameters" : {
                                  "cursorScale" : {
                                    "type" : "double",
                                    "defaultValue" : 0.0,
                                    "interp" : "linr"
                                  },
                                  "cursorOpacity" : {
                                    "type" : "double",
                                    "defaultValue" : 0.0,
                                    "interp" : "linr"
                                  }
                                },
                                "effects" : [

                                ],
                                "start" : 354,
                                "duration" : 92,
                                "mediaStart" : 2148,
                                "mediaDuration" : 92,
                                "scalar" : 1,
                                "animationTracks" : {

                                }
                              },
                          "audio" : 
                              {
                                "id" : 2355,
                                "_type" : "AMFile",
                                "src" : 3,
                                "trackNumber" : 1,
                                "attributes" : {
                                  "ident" : "",
                                  "gain" : 1.0,
                                  "mixToMono" : false
                                },
                                  "channelNumber" : "0,1",
                                "effects" : [

                                ],
                                "start" : 354,
                                "duration" : 92,
                                "mediaStart" : 2148,
                                "mediaDuration" : 92,
                                "scalar" : 1,
                                "animationTracks" : {

                                }
                              }
,
                          "start" : 354,
                          "duration" : 92,
                          "mediaStart" : 0,
                          "mediaDuration" : 23566,
                          "scalar" : 1,
                          "metadata" : {
                            "AutoAppliedSmartFocus" : "False",
                            "clipSpeedAttribute" : false
                          }
                        },
                        {
                          "id" : 2356,
                          "_type" : "UnifiedMedia",
                          "video" : 
                              {
                                "id" : 2357,
                                "_type" : "ScreenVMFile",
                                "src" : 3,
                                "trackNumber" : 0,
                                "attributes" : {
                                  "ident" : "Rec 01-28-21_003"
                                },
                                "parameters" : {
                                  "cursorScale" : {
                                    "type" : "double",
                                    "defaultValue" : 0.0,
                                    "interp" : "linr"
                                  },
                                  "cursorOpacity" : {
                                    "type" : "double",
                                    "defaultValue" : 0.0,
                                    "interp" : "linr"
                                  }
                                },
                                "effects" : [

                                ],
                                "start" : 446,
                                "duration" : 63,
                                "mediaStart" : 2290,
                                "mediaDuration" : 63,
                                "scalar" : 1,
                                "animationTracks" : {

                                }
                              },
                          "audio" : 
                              {
                                "id" : 2358,
                                "_type" : "AMFile",
                                "src" : 3,
                                "trackNumber" : 1,
                                "attributes" : {
                                  "ident" : "",
                                  "gain" : 1.0,
                                  "mixToMono" : false
                                },
                                  "channelNumber" : "0,1",
                                "effects" : [

                                ],
                                "start" : 446,
                                "duration" : 63,
                                "mediaStart" : 2290,
                                "mediaDuration" : 63,
                                "scalar" : 1,
                                "animationTracks" : {

                                }
                              }
,
                          "start" : 446,
                          "duration" : 63,
                          "mediaStart" : 0,
                          "mediaDuration" : 23566,
                          "scalar" : 1,
                          "metadata" : {
                            "AutoAppliedSmartFocus" : "False",
                            "clipSpeedAttribute" : false
                          }
                        },
                        {
                          "id" : 2359,
                          "_type" : "UnifiedMedia",
                          "video" : 
                              {
                                "id" : 2360,
                                "_type" : "ScreenVMFile",
                                "src" : 3,
                                "trackNumber" : 0,
                                "attributes" : {
                                  "ident" : "Rec 01-28-21_003"
                                },
                                "parameters" : {
                                  "cursorScale" : {
                                    "type" : "double",
                                    "defaultValue" : 0.0,
                                    "interp" : "linr"
                                  },
                                  "cursorOpacity" : {
                                    "type" : "double",
                                    "defaultValue" : 0.0,
                                    "interp" : "linr"
                                  }
                                },
                                "effects" : [

                                ],
                                "start" : 509,
                                "duration" : 27,
                                "mediaStart" : 2376,
                                "mediaDuration" : 27,
                                "scalar" : 1,
                                "animationTracks" : {

                                }
                              },
                          "audio" : 
                              {
                                "id" : 2361,
                                "_type" : "AMFile",
                                "src" : 3,
                                "trackNumber" : 1,
                                "attributes" : {
                                  "ident" : "",
                                  "gain" : 1.0,
                                  "mixToMono" : false
                                },
                                  "channelNumber" : "0,1",
                                "effects" : [

                                ],
                                "start" : 509,
                                "duration" : 27,
                                "mediaStart" : 2376,
                                "mediaDuration" : 27,
                                "scalar" : 1,
                                "animationTracks" : {

                                }
                              }
,
                          "start" : 509,
                          "duration" : 27,
                          "mediaStart" : 0,
                          "mediaDuration" : 23566,
                          "scalar" : 1,
                          "metadata" : {
                            "AutoAppliedSmartFocus" : "False",
                            "clipSpeedAttribute" : false
                          }
                        },
                        {
                          "id" : 2362,
                          "_type" : "UnifiedMedia",
                          "video" : 
                              {
                                "id" : 2363,
                                "_type" : "ScreenVMFile",
                                "src" : 3,
                                "trackNumber" : 0,
                                "attributes" : {
                                  "ident" : "Rec 01-28-21_003"
                                },
                                "parameters" : {
                                  "cursorScale" : {
                                    "type" : "double",
                                    "defaultValue" : 0.0,
                                    "interp" : "linr"
                                  },
                                  "cursorOpacity" : {
                                    "type" : "double",
                                    "defaultValue" : 0.0,
                                    "interp" : "linr"
                                  }
                                },
                                "effects" : [

                                ],
                                "start" : 536,
                                "duration" : 31,
                                "mediaStart" : 2426,
                                "mediaDuration" : 31,
                                "scalar" : 1,
                                "animationTracks" : {

                                }
                              },
                          "audio" : 
                              {
                                "id" : 2364,
                                "_type" : "AMFile",
                                "src" : 3,
                                "trackNumber" : 1,
                                "attributes" : {
                                  "ident" : "",
                                  "gain" : 1.0,
                                  "mixToMono" : false
                                },
                                  "channelNumber" : "0,1",
                                "effects" : [

                                ],
                                "start" : 536,
                                "duration" : 31,
                                "mediaStart" : 2426,
                                "mediaDuration" : 31,
                                "scalar" : 1,
                                "animationTracks" : {

                                }
                              }
,
                          "start" : 536,
                          "duration" : 31,
                          "mediaStart" : 0,
                          "mediaDuration" : 23566,
                          "scalar" : 1,
                          "metadata" : {
                            "AutoAppliedSmartFocus" : "False",
                            "clipSpeedAttribute" : false
                          }
                        },
                        {
                          "id" : 2365,
                          "_type" : "UnifiedMedia",
                          "video" : 
                              {
                                "id" : 2366,
                                "_type" : "ScreenVMFile",
                                "src" : 3,
                                "trackNumber" : 0,
                                "attributes" : {
                                  "ident" : "Rec 01-28-21_003"
                                },
                                "parameters" : {
                                  "cursorScale" : {
                                    "type" : "double",
                                    "defaultValue" : 0.0,
                                    "interp" : "linr"
                                  },
                                  "cursorOpacity" : {
                                    "type" : "double",
                                    "defaultValue" : 0.0,
                                    "interp" : "linr"
                                  }
                                },
                                "effects" : [

                                ],
                                "start" : 567,
                                "duration" : 25,
                                "mediaStart" : 2496,
                                "mediaDuration" : 25,
                                "scalar" : 1,
                                "animationTracks" : {

                                }
                              },
                          "audio" : 
                              {
                                "id" : 2367,
                                "_type" : "AMFile",
                                "src" : 3,
                                "trackNumber" : 1,
                                "attributes" : {
                                  "ident" : "",
                                  "gain" : 1.0,
                                  "mixToMono" : false
                                },
                                  "channelNumber" : "0,1",
                                "effects" : [

                                ],
                                "start" : 567,
                                "duration" : 25,
                                "mediaStart" : 2496,
                                "mediaDuration" : 25,
                                "scalar" : 1,
                                "animationTracks" : {

                                }
                              }
,
                          "start" : 567,
                          "duration" : 25,
                          "mediaStart" : 0,
                          "mediaDuration" : 23566,
                          "scalar" : 1,
                          "metadata" : {
                            "AutoAppliedSmartFocus" : "False",
                            "clipSpeedAttribute" : false
                          }
                        },
                        {
                          "id" : 2368,
                          "_type" : "UnifiedMedia",
                          "video" : 
                              {
                                "id" : 2369,
                                "_type" : "ScreenVMFile",
                                "src" : 3,
                                "trackNumber" : 0,
                                "attributes" : {
                                  "ident" : "Rec 01-28-21_003"
                                },
                                "parameters" : {
                                  "cursorScale" : {
                                    "type" : "double",
                                    "defaultValue" : 0.0,
                                    "interp" : "linr"
                                  },
                                  "cursorOpacity" : {
                                    "type" : "double",
                                    "defaultValue" : 0.0,
                                    "interp" : "linr"
                                  }
                                },
                                "effects" : [

                                ],
                                "start" : 592,
                                "duration" : 31,
                                "mediaStart" : 2611,
                                "mediaDuration" : 31,
                                "scalar" : 1,
                                "animationTracks" : {

                                }
                              },
                          "audio" : 
                              {
                                "id" : 2370,
                                "_type" : "AMFile",
                                "src" : 3,
                                "trackNumber" : 1,
                                "attributes" : {
                                  "ident" : "",
                                  "gain" : 1.0,
                                  "mixToMono" : false
                                },
                                  "channelNumber" : "0,1",
                                "effects" : [

                                ],
                                "start" : 592,
                                "duration" : 31,
                                "mediaStart" : 2611,
                                "mediaDuration" : 31,
                                "scalar" : 1,
                                "animationTracks" : {

                                }
                              }
,
                          "start" : 592,
                          "duration" : 31,
                          "mediaStart" : 0,
                          "mediaDuration" : 23566,
                          "scalar" : 1,
                          "metadata" : {
                            "AutoAppliedSmartFocus" : "False",
                            "clipSpeedAttribute" : false
                          }
                        },
                        {
                          "id" : 2371,
                          "_type" : "UnifiedMedia",
                          "video" : 
                              {
                                "id" : 2372,
                                "_type" : "ScreenVMFile",
                                "src" : 3,
                                "trackNumber" : 0,
                                "attributes" : {
                                  "ident" : "Rec 01-28-21_003"
                                },
                                "parameters" : {
                                  "cursorScale" : {
                                    "type" : "double",
                                    "defaultValue" : 0.0,
                                    "interp" : "linr"
                                  },
                                  "cursorOpacity" : {
                                    "type" : "double",
                                    "defaultValue" : 0.0,
                                    "interp" : "linr"
                                  }
                                },
                                "effects" : [

                                ],
                                "start" : 623,
                                "duration" : 731,
                                "mediaStart" : 2727,
                                "mediaDuration" : 731,
                                "scalar" : 1,
                                "animationTracks" : {

                                }
                              },
                          "audio" : 
                              {
                                "id" : 2373,
                                "_type" : "AMFile",
                                "src" : 3,
                                "trackNumber" : 1,
                                "attributes" : {
                                  "ident" : "",
                                  "gain" : 1.0,
                                  "mixToMono" : false
                                },
                                  "channelNumber" : "0,1",
                                "effects" : [

                                ],
                                "start" : 623,
                                "duration" : 731,
                                "mediaStart" : 2727,
                                "mediaDuration" : 731,
                                "scalar" : 1,
                                "animationTracks" : {

                                }
                              }
,
                          "start" : 623,
                          "duration" : 731,
                          "mediaStart" : 0,
                          "mediaDuration" : 23566,
                          "scalar" : 1,
                          "metadata" : {
                            "AutoAppliedSmartFocus" : "False",
                            "clipSpeedAttribute" : false
                          }
                        },
                        {
                          "id" : 2374,
                          "_type" : "UnifiedMedia",
                          "video" : 
                              {
                                "id" : 2375,
                                "_type" : "ScreenVMFile",
                                "src" : 3,
                                "trackNumber" : 0,
                                "attributes" : {
                                  "ident" : "Rec 01-28-21_003"
                                },
                                "parameters" : {
                                  "cursorScale" : {
                                    "type" : "double",
                                    "defaultValue" : 0.0,
                                    "interp" : "linr"
                                  },
                                  "cursorOpacity" : {
                                    "type" : "double",
                                    "defaultValue" : 0.0,
                                    "interp" : "linr"
                                  }
                                },
                                "effects" : [

                                ],
                                "start" : 1354,
                                "duration" : 293,
                                "mediaStart" : 3532,
                                "mediaDuration" : 293,
                                "scalar" : 1,
                                "animationTracks" : {

                                }
                              },
                          "audio" : 
                              {
                                "id" : 2376,
                                "_type" : "AMFile",
                                "src" : 3,
                                "trackNumber" : 1,
                                "attributes" : {
                                  "ident" : "",
                                  "gain" : 1.0,
                                  "mixToMono" : false
                                },
                                  "channelNumber" : "0,1",
                                "effects" : [

                                ],
                                "start" : 1354,
                                "duration" : 293,
                                "mediaStart" : 3532,
                                "mediaDuration" : 293,
                                "scalar" : 1,
                                "animationTracks" : {

                                }
                              }
,
                          "start" : 1354,
                          "duration" : 293,
                          "mediaStart" : 0,
                          "mediaDuration" : 23566,
                          "scalar" : 1,
                          "metadata" : {
                            "AutoAppliedSmartFocus" : "False",
                            "clipSpeedAttribute" : false
                          }
                        },
                        {
                          "id" : 2377,
                          "_type" : "UnifiedMedia",
                          "video" : 
                              {
                                "id" : 2378,
                                "_type" : "ScreenVMFile",
                                "src" : 3,
                                "trackNumber" : 0,
                                "attributes" : {
                                  "ident" : "Rec 01-28-21_003"
                                },
                                "parameters" : {
                                  "cursorScale" : {
                                    "type" : "double",
                                    "defaultValue" : 0.0,
                                    "interp" : "linr"
                                  },
                                  "cursorOpacity" : {
                                    "type" : "double",
                                    "defaultValue" : 0.0,
                                    "interp" : "linr"
                                  }
                                },
                                "effects" : [

                                ],
                                "start" : 1647,
                                "duration" : 194,
                                "mediaStart" : 3916,
                                "mediaDuration" : 194,
                                "scalar" : 1,
                                "animationTracks" : {

                                }
                              },
                          "audio" : 
                              {
                                "id" : 2379,
                                "_type" : "AMFile",
                                "src" : 3,
                                "trackNumber" : 1,
                                "attributes" : {
                                  "ident" : "",
                                  "gain" : 1.0,
                                  "mixToMono" : false
                                },
                                  "channelNumber" : "0,1",
                                "effects" : [

                                ],
                                "start" : 1647,
                                "duration" : 194,
                                "mediaStart" : 3916,
                                "mediaDuration" : 194,
                                "scalar" : 1,
                                "animationTracks" : {

                                }
                              }
,
                          "start" : 1647,
                          "duration" : 194,
                          "mediaStart" : 0,
                          "mediaDuration" : 23566,
                          "scalar" : 1,
                          "metadata" : {
                            "AutoAppliedSmartFocus" : "False",
                            "clipSpeedAttribute" : false
                          }
                        },
                        {
                          "id" : 2380,
                          "_type" : "UnifiedMedia",
                          "video" : 
                              {
                                "id" : 2381,
                                "_type" : "ScreenVMFile",
                                "src" : 3,
                                "trackNumber" : 0,
                                "attributes" : {
                                  "ident" : "Rec 01-28-21_003"
                                },
                                "parameters" : {
                                  "cursorScale" : {
                                    "type" : "double",
                                    "defaultValue" : 0.0,
                                    "interp" : "linr"
                                  },
                                  "cursorOpacity" : {
                                    "type" : "double",
                                    "defaultValue" : 0.0,
                                    "interp" : "linr"
                                  }
                                },
                                "effects" : [

                                ],
                                "start" : 1841,
                                "duration" : 37,
                                "mediaStart" : 4201,
                                "mediaDuration" : 37,
                                "scalar" : 1,
                                "animationTracks" : {

                                }
                              },
                          "audio" : 
                              {
                                "id" : 2382,
                                "_type" : "AMFile",
                                "src" : 3,
                                "trackNumber" : 1,
                                "attributes" : {
                                  "ident" : "",
                                  "gain" : 1.0,
                                  "mixToMono" : false
                                },
                                  "channelNumber" : "0,1",
                                "effects" : [

                                ],
                                "start" : 1841,
                                "duration" : 37,
                                "mediaStart" : 4201,
                                "mediaDuration" : 37,
                                "scalar" : 1,
                                "animationTracks" : {

                                }
                              }
,
                          "start" : 1841,
                          "duration" : 37,
                          "mediaStart" : 0,
                          "mediaDuration" : 23566,
                          "scalar" : 1,
                          "metadata" : {
                            "AutoAppliedSmartFocus" : "False",
                            "clipSpeedAttribute" : false
                          }
                        },
                        {
                          "id" : 2383,
                          "_type" : "UnifiedMedia",
                          "video" : 
                              {
                                "id" : 2384,
                                "_type" : "ScreenVMFile",
                                "src" : 3,
                                "trackNumber" : 0,
                                "attributes" : {
                                  "ident" : "Rec 01-28-21_003"
                                },
                                "parameters" : {
                                  "cursorScale" : {
                                    "type" : "double",
                                    "defaultValue" : 0.0,
                                    "interp" : "linr"
                                  },
                                  "cursorOpacity" : {
                                    "type" : "double",
                                    "defaultValue" : 0.0,
                                    "interp" : "linr"
                                  }
                                },
                                "effects" : [

                                ],
                                "start" : 1878,
                                "duration" : 37,
                                "mediaStart" : 4247,
                                "mediaDuration" : 37,
                                "scalar" : 1,
                                "animationTracks" : {

                                }
                              },
                          "audio" : 
                              {
                                "id" : 2385,
                                "_type" : "AMFile",
                                "src" : 3,
                                "trackNumber" : 1,
                                "attributes" : {
                                  "ident" : "",
                                  "gain" : 1.0,
                                  "mixToMono" : false
                                },
                                  "channelNumber" : "0,1",
                                "effects" : [

                                ],
                                "start" : 1878,
                                "duration" : 37,
                                "mediaStart" : 4247,
                                "mediaDuration" : 37,
                                "scalar" : 1,
                                "animationTracks" : {

                                }
                              }
,
                          "start" : 1878,
                          "duration" : 37,
                          "mediaStart" : 0,
                          "mediaDuration" : 23566,
                          "scalar" : 1,
                          "metadata" : {
                            "AutoAppliedSmartFocus" : "False",
                            "clipSpeedAttribute" : false
                          }
                        },
                        {
                          "id" : 2386,
                          "_type" : "UnifiedMedia",
                          "video" : 
                              {
                                "id" : 2387,
                                "_type" : "ScreenVMFile",
                                "src" : 3,
                                "trackNumber" : 0,
                                "attributes" : {
                                  "ident" : "Rec 01-28-21_003"
                                },
                                "parameters" : {
                                  "cursorScale" : {
                                    "type" : "double",
                                    "defaultValue" : 0.0,
                                    "interp" : "linr"
                                  },
                                  "cursorOpacity" : {
                                    "type" : "double",
                                    "defaultValue" : 0.0,
                                    "interp" : "linr"
                                  }
                                },
                                "effects" : [

                                ],
                                "start" : 1915,
                                "duration" : 22,
                                "mediaStart" : 4384,
                                "mediaDuration" : 22,
                                "scalar" : 1,
                                "animationTracks" : {

                                }
                              },
                          "audio" : 
                              {
                                "id" : 2388,
                                "_type" : "AMFile",
                                "src" : 3,
                                "trackNumber" : 1,
                                "attributes" : {
                                  "ident" : "",
                                  "gain" : 1.0,
                                  "mixToMono" : false
                                },
                                  "channelNumber" : "0,1",
                                "effects" : [

                                ],
                                "start" : 1915,
                                "duration" : 22,
                                "mediaStart" : 4384,
                                "mediaDuration" : 22,
                                "scalar" : 1,
                                "animationTracks" : {

                                }
                              }
,
                          "start" : 1915,
                          "duration" : 22,
                          "mediaStart" : 0,
                          "mediaDuration" : 23566,
                          "scalar" : 1,
                          "metadata" : {
                            "AutoAppliedSmartFocus" : "False",
                            "clipSpeedAttribute" : false
                          }
                        },
                        {
                          "id" : 2389,
                          "_type" : "UnifiedMedia",
                          "video" : 
                              {
                                "id" : 2390,
                                "_type" : "ScreenVMFile",
                                "src" : 3,
                                "trackNumber" : 0,
                                "attributes" : {
                                  "ident" : "Rec 01-28-21_003"
                                },
                                "parameters" : {
                                  "cursorScale" : {
                                    "type" : "double",
                                    "defaultValue" : 0.0,
                                    "interp" : "linr"
                                  },
                                  "cursorOpacity" : {
                                    "type" : "double",
                                    "defaultValue" : 0.0,
                                    "interp" : "linr"
                                  }
                                },
                                "effects" : [

                                ],
                                "start" : 1937,
                                "duration" : 34,
                                "mediaStart" : 4420,
                                "mediaDuration" : 34,
                                "scalar" : 1,
                                "animationTracks" : {

                                }
                              },
                          "audio" : 
                              {
                                "id" : 2391,
                                "_type" : "AMFile",
                                "src" : 3,
                                "trackNumber" : 1,
                                "attributes" : {
                                  "ident" : "",
                                  "gain" : 1.0,
                                  "mixToMono" : false
                                },
                                  "channelNumber" : "0,1",
                                "effects" : [

                                ],
                                "start" : 1937,
                                "duration" : 34,
                                "mediaStart" : 4420,
                                "mediaDuration" : 34,
                                "scalar" : 1,
                                "animationTracks" : {

                                }
                              }
,
                          "start" : 1937,
                          "duration" : 34,
                          "mediaStart" : 0,
                          "mediaDuration" : 23566,
                          "scalar" : 1,
                          "metadata" : {
                            "AutoAppliedSmartFocus" : "False",
                            "clipSpeedAttribute" : false
                          }
                        },
                        {
                          "id" : 2392,
                          "_type" : "UnifiedMedia",
                          "video" : 
                              {
                                "id" : 2393,
                                "_type" : "ScreenVMFile",
                                "src" : 3,
                                "trackNumber" : 0,
                                "attributes" : {
                                  "ident" : "Rec 01-28-21_003"
                                },
                                "parameters" : {
                                  "cursorScale" : {
                                    "type" : "double",
                                    "defaultValue" : 0.0,
                                    "interp" : "linr"
                                  },
                                  "cursorOpacity" : {
                                    "type" : "double",
                                    "defaultValue" : 0.0,
                                    "interp" : "linr"
                                  }
                                },
                                "effects" : [

                                ],
                                "start" : 1971,
                                "duration" : 39,
                                "mediaStart" : 4925,
                                "mediaDuration" : 39,
                                "scalar" : 1,
                                "animationTracks" : {

                                }
                              },
                          "audio" : 
                              {
                                "id" : 2394,
                                "_type" : "AMFile",
                                "src" : 3,
                                "trackNumber" : 1,
                                "attributes" : {
                                  "ident" : "",
                                  "gain" : 1.0,
                                  "mixToMono" : false
                                },
                                  "channelNumber" : "0,1",
                                "effects" : [

                                ],
                                "start" : 1971,
                                "duration" : 39,
                                "mediaStart" : 4925,
                                "mediaDuration" : 39,
                                "scalar" : 1,
                                "animationTracks" : {

                                }
                              }
,
                          "start" : 1971,
                          "duration" : 39,
                          "mediaStart" : 0,
                          "mediaDuration" : 23566,
                          "scalar" : 1,
                          "metadata" : {
                            "AutoAppliedSmartFocus" : "False",
                            "clipSpeedAttribute" : false
                          }
                        },
                        {
                          "id" : 2395,
                          "_type" : "UnifiedMedia",
                          "video" : 
                              {
                                "id" : 2396,
                                "_type" : "ScreenVMFile",
                                "src" : 3,
                                "trackNumber" : 0,
                                "attributes" : {
                                  "ident" : "Rec 01-28-21_003"
                                },
                                "parameters" : {
                                  "cursorScale" : {
                                    "type" : "double",
                                    "defaultValue" : 0.0,
                                    "interp" : "linr"
                                  },
                                  "cursorOpacity" : {
                                    "type" : "double",
                                    "defaultValue" : 0.0,
                                    "interp" : "linr"
                                  }
                                },
                                "effects" : [

                                ],
                                "start" : 2010,
                                "duration" : 1866,
                                "mediaStart" : 5106,
                                "mediaDuration" : 1866,
                                "scalar" : 1,
                                "animationTracks" : {

                                }
                              },
                          "audio" : 
                              {
                                "id" : 2397,
                                "_type" : "AMFile",
                                "src" : 3,
                                "trackNumber" : 1,
                                "attributes" : {
                                  "ident" : "",
                                  "gain" : 1.0,
                                  "mixToMono" : false
                                },
                                  "channelNumber" : "0,1",
                                "effects" : [

                                ],
                                "start" : 2010,
                                "duration" : 1866,
                                "mediaStart" : 5106,
                                "mediaDuration" : 1866,
                                "scalar" : 1,
                                "animationTracks" : {

                                }
                              }
,
                          "start" : 2010,
                          "duration" : 1866,
                          "mediaStart" : 0,
                          "mediaDuration" : 23566,
                          "scalar" : 1,
                          "metadata" : {
                            "AutoAppliedSmartFocus" : "False",
                            "clipSpeedAttribute" : false
                          }
                        },
                        {
                          "id" : 2398,
                          "_type" : "UnifiedMedia",
                          "video" : 
                              {
                                "id" : 2399,
                                "_type" : "ScreenVMFile",
                                "src" : 3,
                                "trackNumber" : 0,
                                "attributes" : {
                                  "ident" : "Rec 01-28-21_003"
                                },
                                "parameters" : {
                                  "cursorScale" : {
                                    "type" : "double",
                                    "defaultValue" : 0.0,
                                    "interp" : "linr"
                                  },
                                  "cursorOpacity" : {
                                    "type" : "double",
                                    "defaultValue" : 0.0,
                                    "interp" : "linr"
                                  }
                                },
                                "effects" : [

                                ],
                                "start" : 3876,
                                "duration" : 160,
                                "mediaStart" : 7099,
                                "mediaDuration" : 160,
                                "scalar" : 1,
                                "animationTracks" : {

                                }
                              },
                          "audio" : 
                              {
                                "id" : 2400,
                                "_type" : "AMFile",
                                "src" : 3,
                                "trackNumber" : 1,
                                "attributes" : {
                                  "ident" : "",
                                  "gain" : 1.0,
                                  "mixToMono" : false
                                },
                                  "channelNumber" : "0,1",
                                "effects" : [

                                ],
                                "start" : 3876,
                                "duration" : 160,
                                "mediaStart" : 7099,
                                "mediaDuration" : 160,
                                "scalar" : 1,
                                "animationTracks" : {

                                }
                              }
,
                          "start" : 3876,
                          "duration" : 160,
                          "mediaStart" : 0,
                          "mediaDuration" : 23566,
                          "scalar" : 1,
                          "metadata" : {
                            "AutoAppliedSmartFocus" : "False",
                            "clipSpeedAttribute" : false
                          }
                        },
                        {
                          "id" : 2401,
                          "_type" : "UnifiedMedia",
                          "video" : 
                              {
                                "id" : 2402,
                                "_type" : "ScreenVMFile",
                                "src" : 3,
                                "trackNumber" : 0,
                                "attributes" : {
                                  "ident" : "Rec 01-28-21_003"
                                },
                                "parameters" : {
                                  "cursorScale" : {
                                    "type" : "double",
                                    "defaultValue" : 0.0,
                                    "interp" : "linr"
                                  },
                                  "cursorOpacity" : {
                                    "type" : "double",
                                    "defaultValue" : 0.0,
                                    "interp" : "linr"
                                  }
                                },
                                "effects" : [

                                ],
                                "start" : 4036,
                                "duration" : 275,
                                "mediaStart" : 7439,
                                "mediaDuration" : 275,
                                "scalar" : 1,
                                "animationTracks" : {

                                }
                              },
                          "audio" : 
                              {
                                "id" : 2403,
                                "_type" : "AMFile",
                                "src" : 3,
                                "trackNumber" : 1,
                                "attributes" : {
                                  "ident" : "",
                                  "gain" : 1.0,
                                  "mixToMono" : false
                                },
                                  "channelNumber" : "0,1",
                                "effects" : [

                                ],
                                "start" : 4036,
                                "duration" : 275,
                                "mediaStart" : 7439,
                                "mediaDuration" : 275,
                                "scalar" : 1,
                                "animationTracks" : {

                                }
                              }
,
                          "start" : 4036,
                          "duration" : 275,
                          "mediaStart" : 0,
                          "mediaDuration" : 23566,
                          "scalar" : 1,
                          "metadata" : {
                            "AutoAppliedSmartFocus" : "False",
                            "clipSpeedAttribute" : false
                          }
                        },
                        {
                          "id" : 2404,
                          "_type" : "UnifiedMedia",
                          "video" : 
                              {
                                "id" : 2405,
                                "_type" : "ScreenVMFile",
                                "src" : 3,
                                "trackNumber" : 0,
                                "attributes" : {
                                  "ident" : "Rec 01-28-21_003"
                                },
                                "parameters" : {
                                  "cursorScale" : {
                                    "type" : "double",
                                    "defaultValue" : 0.0,
                                    "interp" : "linr"
                                  },
                                  "cursorOpacity" : {
                                    "type" : "double",
                                    "defaultValue" : 0.0,
                                    "interp" : "linr"
                                  }
                                },
                                "effects" : [

                                ],
                                "start" : 4311,
                                "duration" : 3,
                                "mediaStart" : 7841,
                                "mediaDuration" : 3,
                                "scalar" : 1,
                                "animationTracks" : {

                                }
                              },
                          "audio" : 
                              {
                                "id" : 2406,
                                "_type" : "AMFile",
                                "src" : 3,
                                "trackNumber" : 1,
                                "attributes" : {
                                  "ident" : "",
                                  "gain" : 1.0,
                                  "mixToMono" : false
                                },
                                  "channelNumber" : "0,1",
                                "effects" : [

                                ],
                                "start" : 4311,
                                "duration" : 3,
                                "mediaStart" : 7841,
                                "mediaDuration" : 3,
                                "scalar" : 1,
                                "animationTracks" : {

                                }
                              }
,
                          "start" : 4311,
                          "duration" : 3,
                          "mediaStart" : 0,
                          "mediaDuration" : 23566,
                          "scalar" : 1,
                          "metadata" : {
                            "AutoAppliedSmartFocus" : "False",
                            "clipSpeedAttribute" : false
                          }
                        },
                        {
                          "id" : 2407,
                          "_type" : "UnifiedMedia",
                          "video" : 
                              {
                                "id" : 2408,
                                "_type" : "ScreenVMFile",
                                "src" : 3,
                                "trackNumber" : 0,
                                "attributes" : {
                                  "ident" : "Rec 01-28-21_003"
                                },
                                "parameters" : {
                                  "cursorScale" : {
                                    "type" : "double",
                                    "defaultValue" : 0.0,
                                    "interp" : "linr"
                                  },
                                  "cursorOpacity" : {
                                    "type" : "double",
                                    "defaultValue" : 0.0,
                                    "interp" : "linr"
                                  }
                                },
                                "effects" : [

                                ],
                                "start" : 4314,
                                "duration" : 73,
                                "mediaStart" : 8276,
                                "mediaDuration" : 73,
                                "scalar" : 1,
                                "animationTracks" : {

                                }
                              },
                          "audio" : 
                              {
                                "id" : 2409,
                                "_type" : "AMFile",
                                "src" : 3,
                                "trackNumber" : 1,
                                "attributes" : {
                                  "ident" : "",
                                  "gain" : 1.0,
                                  "mixToMono" : false
                                },
                                  "channelNumber" : "0,1",
                                "effects" : [

                                ],
                                "start" : 4314,
                                "duration" : 73,
                                "mediaStart" : 8276,
                                "mediaDuration" : 73,
                                "scalar" : 1,
                                "animationTracks" : {

                                }
                              }
,
                          "start" : 4314,
                          "duration" : 73,
                          "mediaStart" : 0,
                          "mediaDuration" : 23566,
                          "scalar" : 1,
                          "metadata" : {
                            "AutoAppliedSmartFocus" : "False",
                            "clipSpeedAttribute" : false
                          }
                        },
                        {
                          "id" : 2410,
                          "_type" : "UnifiedMedia",
                          "video" : 
                              {
                                "id" : 2411,
                                "_type" : "ScreenVMFile",
                                "src" : 3,
                                "trackNumber" : 0,
                                "attributes" : {
                                  "ident" : "Rec 01-28-21_003"
                                },
                                "parameters" : {
                                  "cursorScale" : {
                                    "type" : "double",
                                    "defaultValue" : 0.0,
                                    "interp" : "linr"
                                  },
                                  "cursorOpacity" : {
                                    "type" : "double",
                                    "defaultValue" : 0.0,
                                    "interp" : "linr"
                                  }
                                },
                                "effects" : [

                                ],
                                "start" : 4387,
                                "duration" : 982,
                                "mediaStart" : 8431,
                                "mediaDuration" : 982,
                                "scalar" : 1,
                                "animationTracks" : {

                                }
                              },
                          "audio" : 
                              {
                                "id" : 2412,
                                "_type" : "AMFile",
                                "src" : 3,
                                "trackNumber" : 1,
                                "attributes" : {
                                  "ident" : "",
                                  "gain" : 1.0,
                                  "mixToMono" : false
                                },
                                  "channelNumber" : "0,1",
                                "effects" : [

                                ],
                                "start" : 4387,
                                "duration" : 982,
                                "mediaStart" : 8431,
                                "mediaDuration" : 982,
                                "scalar" : 1,
                                "animationTracks" : {

                                }
                              }
,
                          "start" : 4387,
                          "duration" : 982,
                          "mediaStart" : 0,
                          "mediaDuration" : 23566,
                          "scalar" : 1,
                          "metadata" : {
                            "AutoAppliedSmartFocus" : "False",
                            "clipSpeedAttribute" : false
                          }
                        },
                        {
                          "id" : 2413,
                          "_type" : "UnifiedMedia",
                          "video" : 
                              {
                                "id" : 2414,
                                "_type" : "ScreenVMFile",
                                "src" : 3,
                                "trackNumber" : 0,
                                "attributes" : {
                                  "ident" : "Rec 01-28-21_003"
                                },
                                "parameters" : {
                                  "cursorScale" : {
                                    "type" : "double",
                                    "defaultValue" : 0.0,
                                    "interp" : "linr"
                                  },
                                  "cursorOpacity" : {
                                    "type" : "double",
                                    "defaultValue" : 0.0,
                                    "interp" : "linr"
                                  }
                                },
                                "effects" : [

                                ],
                                "start" : 5369,
                                "duration" : 14097,
                                "mediaStart" : 9469,
                                "mediaDuration" : 14097,
                                "scalar" : 1,
                                "animationTracks" : {

                                }
                              },
                          "audio" : 
                              {
                                "id" : 2415,
                                "_type" : "AMFile",
                                "src" : 3,
                                "trackNumber" : 1,
                                "attributes" : {
                                  "ident" : "",
                                  "gain" : 1.0,
                                  "mixToMono" : false
                                },
                                  "channelNumber" : "0,1",
                                "effects" : [

                                ],
                                "start" : 5369,
                                "duration" : 14097,
                                "mediaStart" : 9469,
                                "mediaDuration" : 14097,
                                "scalar" : 1,
                                "animationTracks" : {

                                }
                              }
,
                          "start" : 5369,
                          "duration" : 14097,
                          "mediaStart" : 0,
                          "mediaDuration" : 23566,
                          "scalar" : 1,
                          "metadata" : {
                            "AutoAppliedSmartFocus" : "False",
                            "clipSpeedAttribute" : false
                          }
                        }
                    ],
                    "effects" : [

                    ],
                    "start" : 14491,
                    "duration" : 108,
                    "mediaStart" : 5423,
                    "mediaDuration" : 323,
                    "scalar" : "108/323",
                    "metadata" : {
                      "AutoAppliedSmartFocus" : "False",
                      "clipSpeedAttribute" : true
                    },
                    "animationTracks" : {

                    }
                  },
                  {
                    "id" : 2416,
                    "_type" : "StitchedMedia",
                    "minMediaStart" : 0,
                    "attributes" : {
                      "ident" : "Rec 01-28-21_003",
                      "gain" : 1.0,
                      "mixToMono" : false
                    },
                    "parameters" : {
                      "volume" : 1.0,
                      "cursorOpacity" : 1.0,
                      "cursorScale" : 1.0
                    },
                    "medias" : [
                        {
                          "id" : 2417,
                          "_type" : "UnifiedMedia",
                          "video" : 
                              {
                                "id" : 2418,
                                "_type" : "ScreenVMFile",
                                "src" : 3,
                                "trackNumber" : 0,
                                "attributes" : {
                                  "ident" : "Rec 01-28-21_003"
                                },
                                "parameters" : {
                                  "cursorScale" : {
                                    "type" : "double",
                                    "defaultValue" : 0.0,
                                    "interp" : "linr"
                                  },
                                  "cursorOpacity" : {
                                    "type" : "double",
                                    "defaultValue" : 0.0,
                                    "interp" : "linr"
                                  }
                                },
                                "effects" : [

                                ],
                                "start" : 0,
                                "duration" : 9,
                                "mediaStart" : 0,
                                "mediaDuration" : 9,
                                "scalar" : 1,
                                "animationTracks" : {

                                }
                              },
                          "audio" : 
                              {
                                "id" : 2419,
                                "_type" : "AMFile",
                                "src" : 3,
                                "trackNumber" : 1,
                                "attributes" : {
                                  "ident" : "",
                                  "gain" : 1.0,
                                  "mixToMono" : false
                                },
                                  "channelNumber" : "0,1",
                                "effects" : [

                                ],
                                "start" : 0,
                                "duration" : 9,
                                "mediaStart" : 0,
                                "mediaDuration" : 9,
                                "scalar" : 1,
                                "animationTracks" : {

                                }
                              }
,
                          "start" : 0,
                          "duration" : 9,
                          "mediaStart" : 0,
                          "mediaDuration" : 23566,
                          "scalar" : 1,
                          "metadata" : {
                            "AutoAppliedSmartFocus" : "False",
                            "clipSpeedAttribute" : false
                          }
                        },
                        {
                          "id" : 2420,
                          "_type" : "UnifiedMedia",
                          "video" : 
                              {
                                "id" : 2421,
                                "_type" : "ScreenVMFile",
                                "src" : 3,
                                "trackNumber" : 0,
                                "attributes" : {
                                  "ident" : "Rec 01-28-21_003"
                                },
                                "parameters" : {
                                  "cursorScale" : {
                                    "type" : "double",
                                    "defaultValue" : 0.0,
                                    "interp" : "linr"
                                  },
                                  "cursorOpacity" : {
                                    "type" : "double",
                                    "defaultValue" : 0.0,
                                    "interp" : "linr"
                                  }
                                },
                                "effects" : [

                                ],
                                "start" : 9,
                                "duration" : 47,
                                "mediaStart" : 1540,
                                "mediaDuration" : 47,
                                "scalar" : 1,
                                "animationTracks" : {

                                }
                              },
                          "audio" : 
                              {
                                "id" : 2422,
                                "_type" : "AMFile",
                                "src" : 3,
                                "trackNumber" : 1,
                                "attributes" : {
                                  "ident" : "",
                                  "gain" : 1.0,
                                  "mixToMono" : false
                                },
                                  "channelNumber" : "0,1",
                                "effects" : [

                                ],
                                "start" : 9,
                                "duration" : 47,
                                "mediaStart" : 1540,
                                "mediaDuration" : 47,
                                "scalar" : 1,
                                "animationTracks" : {

                                }
                              }
,
                          "start" : 9,
                          "duration" : 47,
                          "mediaStart" : 0,
                          "mediaDuration" : 23566,
                          "scalar" : 1,
                          "metadata" : {
                            "AutoAppliedSmartFocus" : "False",
                            "clipSpeedAttribute" : false
                          }
                        },
                        {
                          "id" : 2423,
                          "_type" : "UnifiedMedia",
                          "video" : 
                              {
                                "id" : 2424,
                                "_type" : "ScreenVMFile",
                                "src" : 3,
                                "trackNumber" : 0,
                                "attributes" : {
                                  "ident" : "Rec 01-28-21_003"
                                },
                                "parameters" : {
                                  "cursorScale" : {
                                    "type" : "double",
                                    "defaultValue" : 0.0,
                                    "interp" : "linr"
                                  },
                                  "cursorOpacity" : {
                                    "type" : "double",
                                    "defaultValue" : 0.0,
                                    "interp" : "linr"
                                  }
                                },
                                "effects" : [

                                ],
                                "start" : 56,
                                "duration" : 35,
                                "mediaStart" : 1641,
                                "mediaDuration" : 35,
                                "scalar" : 1,
                                "animationTracks" : {

                                }
                              },
                          "audio" : 
                              {
                                "id" : 2425,
                                "_type" : "AMFile",
                                "src" : 3,
                                "trackNumber" : 1,
                                "attributes" : {
                                  "ident" : "",
                                  "gain" : 1.0,
                                  "mixToMono" : false
                                },
                                  "channelNumber" : "0,1",
                                "effects" : [

                                ],
                                "start" : 56,
                                "duration" : 35,
                                "mediaStart" : 1641,
                                "mediaDuration" : 35,
                                "scalar" : 1,
                                "animationTracks" : {

                                }
                              }
,
                          "start" : 56,
                          "duration" : 35,
                          "mediaStart" : 0,
                          "mediaDuration" : 23566,
                          "scalar" : 1,
                          "metadata" : {
                            "AutoAppliedSmartFocus" : "False",
                            "clipSpeedAttribute" : false
                          }
                        },
                        {
                          "id" : 2426,
                          "_type" : "UnifiedMedia",
                          "video" : 
                              {
                                "id" : 2427,
                                "_type" : "ScreenVMFile",
                                "src" : 3,
                                "trackNumber" : 0,
                                "attributes" : {
                                  "ident" : "Rec 01-28-21_003"
                                },
                                "parameters" : {
                                  "cursorScale" : {
                                    "type" : "double",
                                    "defaultValue" : 0.0,
                                    "interp" : "linr"
                                  },
                                  "cursorOpacity" : {
                                    "type" : "double",
                                    "defaultValue" : 0.0,
                                    "interp" : "linr"
                                  }
                                },
                                "effects" : [

                                ],
                                "start" : 91,
                                "duration" : 73,
                                "mediaStart" : 1702,
                                "mediaDuration" : 73,
                                "scalar" : 1,
                                "animationTracks" : {

                                }
                              },
                          "audio" : 
                              {
                                "id" : 2428,
                                "_type" : "AMFile",
                                "src" : 3,
                                "trackNumber" : 1,
                                "attributes" : {
                                  "ident" : "",
                                  "gain" : 1.0,
                                  "mixToMono" : false
                                },
                                  "channelNumber" : "0,1",
                                "effects" : [

                                ],
                                "start" : 91,
                                "duration" : 73,
                                "mediaStart" : 1702,
                                "mediaDuration" : 73,
                                "scalar" : 1,
                                "animationTracks" : {

                                }
                              }
,
                          "start" : 91,
                          "duration" : 73,
                          "mediaStart" : 0,
                          "mediaDuration" : 23566,
                          "scalar" : 1,
                          "metadata" : {
                            "AutoAppliedSmartFocus" : "False",
                            "clipSpeedAttribute" : false
                          }
                        },
                        {
                          "id" : 2429,
                          "_type" : "UnifiedMedia",
                          "video" : 
                              {
                                "id" : 2430,
                                "_type" : "ScreenVMFile",
                                "src" : 3,
                                "trackNumber" : 0,
                                "attributes" : {
                                  "ident" : "Rec 01-28-21_003"
                                },
                                "parameters" : {
                                  "cursorScale" : {
                                    "type" : "double",
                                    "defaultValue" : 0.0,
                                    "interp" : "linr"
                                  },
                                  "cursorOpacity" : {
                                    "type" : "double",
                                    "defaultValue" : 0.0,
                                    "interp" : "linr"
                                  }
                                },
                                "effects" : [

                                ],
                                "start" : 164,
                                "duration" : 122,
                                "mediaStart" : 1849,
                                "mediaDuration" : 122,
                                "scalar" : 1,
                                "animationTracks" : {

                                }
                              },
                          "audio" : 
                              {
                                "id" : 2431,
                                "_type" : "AMFile",
                                "src" : 3,
                                "trackNumber" : 1,
                                "attributes" : {
                                  "ident" : "",
                                  "gain" : 1.0,
                                  "mixToMono" : false
                                },
                                  "channelNumber" : "0,1",
                                "effects" : [

                                ],
                                "start" : 164,
                                "duration" : 122,
                                "mediaStart" : 1849,
                                "mediaDuration" : 122,
                                "scalar" : 1,
                                "animationTracks" : {

                                }
                              }
,
                          "start" : 164,
                          "duration" : 122,
                          "mediaStart" : 0,
                          "mediaDuration" : 23566,
                          "scalar" : 1,
                          "metadata" : {
                            "AutoAppliedSmartFocus" : "False",
                            "clipSpeedAttribute" : false
                          }
                        },
                        {
                          "id" : 2432,
                          "_type" : "UnifiedMedia",
                          "video" : 
                              {
                                "id" : 2433,
                                "_type" : "ScreenVMFile",
                                "src" : 3,
                                "trackNumber" : 0,
                                "attributes" : {
                                  "ident" : "Rec 01-28-21_003"
                                },
                                "parameters" : {
                                  "cursorScale" : {
                                    "type" : "double",
                                    "defaultValue" : 0.0,
                                    "interp" : "linr"
                                  },
                                  "cursorOpacity" : {
                                    "type" : "double",
                                    "defaultValue" : 0.0,
                                    "interp" : "linr"
                                  }
                                },
                                "effects" : [

                                ],
                                "start" : 286,
                                "duration" : 38,
                                "mediaStart" : 2036,
                                "mediaDuration" : 38,
                                "scalar" : 1,
                                "animationTracks" : {

                                }
                              },
                          "audio" : 
                              {
                                "id" : 2434,
                                "_type" : "AMFile",
                                "src" : 3,
                                "trackNumber" : 1,
                                "attributes" : {
                                  "ident" : "",
                                  "gain" : 1.0,
                                  "mixToMono" : false
                                },
                                  "channelNumber" : "0,1",
                                "effects" : [

                                ],
                                "start" : 286,
                                "duration" : 38,
                                "mediaStart" : 2036,
                                "mediaDuration" : 38,
                                "scalar" : 1,
                                "animationTracks" : {

                                }
                              }
,
                          "start" : 286,
                          "duration" : 38,
                          "mediaStart" : 0,
                          "mediaDuration" : 23566,
                          "scalar" : 1,
                          "metadata" : {
                            "AutoAppliedSmartFocus" : "False",
                            "clipSpeedAttribute" : false
                          }
                        },
                        {
                          "id" : 2435,
                          "_type" : "UnifiedMedia",
                          "video" : 
                              {
                                "id" : 2436,
                                "_type" : "ScreenVMFile",
                                "src" : 3,
                                "trackNumber" : 0,
                                "attributes" : {
                                  "ident" : "Rec 01-28-21_003"
                                },
                                "parameters" : {
                                  "cursorScale" : {
                                    "type" : "double",
                                    "defaultValue" : 0.0,
                                    "interp" : "linr"
                                  },
                                  "cursorOpacity" : {
                                    "type" : "double",
                                    "defaultValue" : 0.0,
                                    "interp" : "linr"
                                  }
                                },
                                "effects" : [

                                ],
                                "start" : 324,
                                "duration" : 30,
                                "mediaStart" : 2087,
                                "mediaDuration" : 30,
                                "scalar" : 1,
                                "animationTracks" : {

                                }
                              },
                          "audio" : 
                              {
                                "id" : 2437,
                                "_type" : "AMFile",
                                "src" : 3,
                                "trackNumber" : 1,
                                "attributes" : {
                                  "ident" : "",
                                  "gain" : 1.0,
                                  "mixToMono" : false
                                },
                                  "channelNumber" : "0,1",
                                "effects" : [

                                ],
                                "start" : 324,
                                "duration" : 30,
                                "mediaStart" : 2087,
                                "mediaDuration" : 30,
                                "scalar" : 1,
                                "animationTracks" : {

                                }
                              }
,
                          "start" : 324,
                          "duration" : 30,
                          "mediaStart" : 0,
                          "mediaDuration" : 23566,
                          "scalar" : 1,
                          "metadata" : {
                            "AutoAppliedSmartFocus" : "False",
                            "clipSpeedAttribute" : false
                          }
                        },
                        {
                          "id" : 2438,
                          "_type" : "UnifiedMedia",
                          "video" : 
                              {
                                "id" : 2439,
                                "_type" : "ScreenVMFile",
                                "src" : 3,
                                "trackNumber" : 0,
                                "attributes" : {
                                  "ident" : "Rec 01-28-21_003"
                                },
                                "parameters" : {
                                  "cursorScale" : {
                                    "type" : "double",
                                    "defaultValue" : 0.0,
                                    "interp" : "linr"
                                  },
                                  "cursorOpacity" : {
                                    "type" : "double",
                                    "defaultValue" : 0.0,
                                    "interp" : "linr"
                                  }
                                },
                                "effects" : [

                                ],
                                "start" : 354,
                                "duration" : 92,
                                "mediaStart" : 2148,
                                "mediaDuration" : 92,
                                "scalar" : 1,
                                "animationTracks" : {

                                }
                              },
                          "audio" : 
                              {
                                "id" : 2440,
                                "_type" : "AMFile",
                                "src" : 3,
                                "trackNumber" : 1,
                                "attributes" : {
                                  "ident" : "",
                                  "gain" : 1.0,
                                  "mixToMono" : false
                                },
                                  "channelNumber" : "0,1",
                                "effects" : [

                                ],
                                "start" : 354,
                                "duration" : 92,
                                "mediaStart" : 2148,
                                "mediaDuration" : 92,
                                "scalar" : 1,
                                "animationTracks" : {

                                }
                              }
,
                          "start" : 354,
                          "duration" : 92,
                          "mediaStart" : 0,
                          "mediaDuration" : 23566,
                          "scalar" : 1,
                          "metadata" : {
                            "AutoAppliedSmartFocus" : "False",
                            "clipSpeedAttribute" : false
                          }
                        },
                        {
                          "id" : 2441,
                          "_type" : "UnifiedMedia",
                          "video" : 
                              {
                                "id" : 2442,
                                "_type" : "ScreenVMFile",
                                "src" : 3,
                                "trackNumber" : 0,
                                "attributes" : {
                                  "ident" : "Rec 01-28-21_003"
                                },
                                "parameters" : {
                                  "cursorScale" : {
                                    "type" : "double",
                                    "defaultValue" : 0.0,
                                    "interp" : "linr"
                                  },
                                  "cursorOpacity" : {
                                    "type" : "double",
                                    "defaultValue" : 0.0,
                                    "interp" : "linr"
                                  }
                                },
                                "effects" : [

                                ],
                                "start" : 446,
                                "duration" : 63,
                                "mediaStart" : 2290,
                                "mediaDuration" : 63,
                                "scalar" : 1,
                                "animationTracks" : {

                                }
                              },
                          "audio" : 
                              {
                                "id" : 2443,
                                "_type" : "AMFile",
                                "src" : 3,
                                "trackNumber" : 1,
                                "attributes" : {
                                  "ident" : "",
                                  "gain" : 1.0,
                                  "mixToMono" : false
                                },
                                  "channelNumber" : "0,1",
                                "effects" : [

                                ],
                                "start" : 446,
                                "duration" : 63,
                                "mediaStart" : 2290,
                                "mediaDuration" : 63,
                                "scalar" : 1,
                                "animationTracks" : {

                                }
                              }
,
                          "start" : 446,
                          "duration" : 63,
                          "mediaStart" : 0,
                          "mediaDuration" : 23566,
                          "scalar" : 1,
                          "metadata" : {
                            "AutoAppliedSmartFocus" : "False",
                            "clipSpeedAttribute" : false
                          }
                        },
                        {
                          "id" : 2444,
                          "_type" : "UnifiedMedia",
                          "video" : 
                              {
                                "id" : 2445,
                                "_type" : "ScreenVMFile",
                                "src" : 3,
                                "trackNumber" : 0,
                                "attributes" : {
                                  "ident" : "Rec 01-28-21_003"
                                },
                                "parameters" : {
                                  "cursorScale" : {
                                    "type" : "double",
                                    "defaultValue" : 0.0,
                                    "interp" : "linr"
                                  },
                                  "cursorOpacity" : {
                                    "type" : "double",
                                    "defaultValue" : 0.0,
                                    "interp" : "linr"
                                  }
                                },
                                "effects" : [

                                ],
                                "start" : 509,
                                "duration" : 27,
                                "mediaStart" : 2376,
                                "mediaDuration" : 27,
                                "scalar" : 1,
                                "animationTracks" : {

                                }
                              },
                          "audio" : 
                              {
                                "id" : 2446,
                                "_type" : "AMFile",
                                "src" : 3,
                                "trackNumber" : 1,
                                "attributes" : {
                                  "ident" : "",
                                  "gain" : 1.0,
                                  "mixToMono" : false
                                },
                                  "channelNumber" : "0,1",
                                "effects" : [

                                ],
                                "start" : 509,
                                "duration" : 27,
                                "mediaStart" : 2376,
                                "mediaDuration" : 27,
                                "scalar" : 1,
                                "animationTracks" : {

                                }
                              }
,
                          "start" : 509,
                          "duration" : 27,
                          "mediaStart" : 0,
                          "mediaDuration" : 23566,
                          "scalar" : 1,
                          "metadata" : {
                            "AutoAppliedSmartFocus" : "False",
                            "clipSpeedAttribute" : false
                          }
                        },
                        {
                          "id" : 2447,
                          "_type" : "UnifiedMedia",
                          "video" : 
                              {
                                "id" : 2448,
                                "_type" : "ScreenVMFile",
                                "src" : 3,
                                "trackNumber" : 0,
                                "attributes" : {
                                  "ident" : "Rec 01-28-21_003"
                                },
                                "parameters" : {
                                  "cursorScale" : {
                                    "type" : "double",
                                    "defaultValue" : 0.0,
                                    "interp" : "linr"
                                  },
                                  "cursorOpacity" : {
                                    "type" : "double",
                                    "defaultValue" : 0.0,
                                    "interp" : "linr"
                                  }
                                },
                                "effects" : [

                                ],
                                "start" : 536,
                                "duration" : 31,
                                "mediaStart" : 2426,
                                "mediaDuration" : 31,
                                "scalar" : 1,
                                "animationTracks" : {

                                }
                              },
                          "audio" : 
                              {
                                "id" : 2449,
                                "_type" : "AMFile",
                                "src" : 3,
                                "trackNumber" : 1,
                                "attributes" : {
                                  "ident" : "",
                                  "gain" : 1.0,
                                  "mixToMono" : false
                                },
                                  "channelNumber" : "0,1",
                                "effects" : [

                                ],
                                "start" : 536,
                                "duration" : 31,
                                "mediaStart" : 2426,
                                "mediaDuration" : 31,
                                "scalar" : 1,
                                "animationTracks" : {

                                }
                              }
,
                          "start" : 536,
                          "duration" : 31,
                          "mediaStart" : 0,
                          "mediaDuration" : 23566,
                          "scalar" : 1,
                          "metadata" : {
                            "AutoAppliedSmartFocus" : "False",
                            "clipSpeedAttribute" : false
                          }
                        },
                        {
                          "id" : 2450,
                          "_type" : "UnifiedMedia",
                          "video" : 
                              {
                                "id" : 2451,
                                "_type" : "ScreenVMFile",
                                "src" : 3,
                                "trackNumber" : 0,
                                "attributes" : {
                                  "ident" : "Rec 01-28-21_003"
                                },
                                "parameters" : {
                                  "cursorScale" : {
                                    "type" : "double",
                                    "defaultValue" : 0.0,
                                    "interp" : "linr"
                                  },
                                  "cursorOpacity" : {
                                    "type" : "double",
                                    "defaultValue" : 0.0,
                                    "interp" : "linr"
                                  }
                                },
                                "effects" : [

                                ],
                                "start" : 567,
                                "duration" : 25,
                                "mediaStart" : 2496,
                                "mediaDuration" : 25,
                                "scalar" : 1,
                                "animationTracks" : {

                                }
                              },
                          "audio" : 
                              {
                                "id" : 2452,
                                "_type" : "AMFile",
                                "src" : 3,
                                "trackNumber" : 1,
                                "attributes" : {
                                  "ident" : "",
                                  "gain" : 1.0,
                                  "mixToMono" : false
                                },
                                  "channelNumber" : "0,1",
                                "effects" : [

                                ],
                                "start" : 567,
                                "duration" : 25,
                                "mediaStart" : 2496,
                                "mediaDuration" : 25,
                                "scalar" : 1,
                                "animationTracks" : {

                                }
                              }
,
                          "start" : 567,
                          "duration" : 25,
                          "mediaStart" : 0,
                          "mediaDuration" : 23566,
                          "scalar" : 1,
                          "metadata" : {
                            "AutoAppliedSmartFocus" : "False",
                            "clipSpeedAttribute" : false
                          }
                        },
                        {
                          "id" : 2453,
                          "_type" : "UnifiedMedia",
                          "video" : 
                              {
                                "id" : 2454,
                                "_type" : "ScreenVMFile",
                                "src" : 3,
                                "trackNumber" : 0,
                                "attributes" : {
                                  "ident" : "Rec 01-28-21_003"
                                },
                                "parameters" : {
                                  "cursorScale" : {
                                    "type" : "double",
                                    "defaultValue" : 0.0,
                                    "interp" : "linr"
                                  },
                                  "cursorOpacity" : {
                                    "type" : "double",
                                    "defaultValue" : 0.0,
                                    "interp" : "linr"
                                  }
                                },
                                "effects" : [

                                ],
                                "start" : 592,
                                "duration" : 31,
                                "mediaStart" : 2611,
                                "mediaDuration" : 31,
                                "scalar" : 1,
                                "animationTracks" : {

                                }
                              },
                          "audio" : 
                              {
                                "id" : 2455,
                                "_type" : "AMFile",
                                "src" : 3,
                                "trackNumber" : 1,
                                "attributes" : {
                                  "ident" : "",
                                  "gain" : 1.0,
                                  "mixToMono" : false
                                },
                                  "channelNumber" : "0,1",
                                "effects" : [

                                ],
                                "start" : 592,
                                "duration" : 31,
                                "mediaStart" : 2611,
                                "mediaDuration" : 31,
                                "scalar" : 1,
                                "animationTracks" : {

                                }
                              }
,
                          "start" : 592,
                          "duration" : 31,
                          "mediaStart" : 0,
                          "mediaDuration" : 23566,
                          "scalar" : 1,
                          "metadata" : {
                            "AutoAppliedSmartFocus" : "False",
                            "clipSpeedAttribute" : false
                          }
                        },
                        {
                          "id" : 2456,
                          "_type" : "UnifiedMedia",
                          "video" : 
                              {
                                "id" : 2457,
                                "_type" : "ScreenVMFile",
                                "src" : 3,
                                "trackNumber" : 0,
                                "attributes" : {
                                  "ident" : "Rec 01-28-21_003"
                                },
                                "parameters" : {
                                  "cursorScale" : {
                                    "type" : "double",
                                    "defaultValue" : 0.0,
                                    "interp" : "linr"
                                  },
                                  "cursorOpacity" : {
                                    "type" : "double",
                                    "defaultValue" : 0.0,
                                    "interp" : "linr"
                                  }
                                },
                                "effects" : [

                                ],
                                "start" : 623,
                                "duration" : 731,
                                "mediaStart" : 2727,
                                "mediaDuration" : 731,
                                "scalar" : 1,
                                "animationTracks" : {

                                }
                              },
                          "audio" : 
                              {
                                "id" : 2458,
                                "_type" : "AMFile",
                                "src" : 3,
                                "trackNumber" : 1,
                                "attributes" : {
                                  "ident" : "",
                                  "gain" : 1.0,
                                  "mixToMono" : false
                                },
                                  "channelNumber" : "0,1",
                                "effects" : [

                                ],
                                "start" : 623,
                                "duration" : 731,
                                "mediaStart" : 2727,
                                "mediaDuration" : 731,
                                "scalar" : 1,
                                "animationTracks" : {

                                }
                              }
,
                          "start" : 623,
                          "duration" : 731,
                          "mediaStart" : 0,
                          "mediaDuration" : 23566,
                          "scalar" : 1,
                          "metadata" : {
                            "AutoAppliedSmartFocus" : "False",
                            "clipSpeedAttribute" : false
                          }
                        },
                        {
                          "id" : 2459,
                          "_type" : "UnifiedMedia",
                          "video" : 
                              {
                                "id" : 2460,
                                "_type" : "ScreenVMFile",
                                "src" : 3,
                                "trackNumber" : 0,
                                "attributes" : {
                                  "ident" : "Rec 01-28-21_003"
                                },
                                "parameters" : {
                                  "cursorScale" : {
                                    "type" : "double",
                                    "defaultValue" : 0.0,
                                    "interp" : "linr"
                                  },
                                  "cursorOpacity" : {
                                    "type" : "double",
                                    "defaultValue" : 0.0,
                                    "interp" : "linr"
                                  }
                                },
                                "effects" : [

                                ],
                                "start" : 1354,
                                "duration" : 293,
                                "mediaStart" : 3532,
                                "mediaDuration" : 293,
                                "scalar" : 1,
                                "animationTracks" : {

                                }
                              },
                          "audio" : 
                              {
                                "id" : 2461,
                                "_type" : "AMFile",
                                "src" : 3,
                                "trackNumber" : 1,
                                "attributes" : {
                                  "ident" : "",
                                  "gain" : 1.0,
                                  "mixToMono" : false
                                },
                                  "channelNumber" : "0,1",
                                "effects" : [

                                ],
                                "start" : 1354,
                                "duration" : 293,
                                "mediaStart" : 3532,
                                "mediaDuration" : 293,
                                "scalar" : 1,
                                "animationTracks" : {

                                }
                              }
,
                          "start" : 1354,
                          "duration" : 293,
                          "mediaStart" : 0,
                          "mediaDuration" : 23566,
                          "scalar" : 1,
                          "metadata" : {
                            "AutoAppliedSmartFocus" : "False",
                            "clipSpeedAttribute" : false
                          }
                        },
                        {
                          "id" : 2462,
                          "_type" : "UnifiedMedia",
                          "video" : 
                              {
                                "id" : 2463,
                                "_type" : "ScreenVMFile",
                                "src" : 3,
                                "trackNumber" : 0,
                                "attributes" : {
                                  "ident" : "Rec 01-28-21_003"
                                },
                                "parameters" : {
                                  "cursorScale" : {
                                    "type" : "double",
                                    "defaultValue" : 0.0,
                                    "interp" : "linr"
                                  },
                                  "cursorOpacity" : {
                                    "type" : "double",
                                    "defaultValue" : 0.0,
                                    "interp" : "linr"
                                  }
                                },
                                "effects" : [

                                ],
                                "start" : 1647,
                                "duration" : 194,
                                "mediaStart" : 3916,
                                "mediaDuration" : 194,
                                "scalar" : 1,
                                "animationTracks" : {

                                }
                              },
                          "audio" : 
                              {
                                "id" : 2464,
                                "_type" : "AMFile",
                                "src" : 3,
                                "trackNumber" : 1,
                                "attributes" : {
                                  "ident" : "",
                                  "gain" : 1.0,
                                  "mixToMono" : false
                                },
                                  "channelNumber" : "0,1",
                                "effects" : [

                                ],
                                "start" : 1647,
                                "duration" : 194,
                                "mediaStart" : 3916,
                                "mediaDuration" : 194,
                                "scalar" : 1,
                                "animationTracks" : {

                                }
                              }
,
                          "start" : 1647,
                          "duration" : 194,
                          "mediaStart" : 0,
                          "mediaDuration" : 23566,
                          "scalar" : 1,
                          "metadata" : {
                            "AutoAppliedSmartFocus" : "False",
                            "clipSpeedAttribute" : false
                          }
                        },
                        {
                          "id" : 2465,
                          "_type" : "UnifiedMedia",
                          "video" : 
                              {
                                "id" : 2466,
                                "_type" : "ScreenVMFile",
                                "src" : 3,
                                "trackNumber" : 0,
                                "attributes" : {
                                  "ident" : "Rec 01-28-21_003"
                                },
                                "parameters" : {
                                  "cursorScale" : {
                                    "type" : "double",
                                    "defaultValue" : 0.0,
                                    "interp" : "linr"
                                  },
                                  "cursorOpacity" : {
                                    "type" : "double",
                                    "defaultValue" : 0.0,
                                    "interp" : "linr"
                                  }
                                },
                                "effects" : [

                                ],
                                "start" : 1841,
                                "duration" : 37,
                                "mediaStart" : 4201,
                                "mediaDuration" : 37,
                                "scalar" : 1,
                                "animationTracks" : {

                                }
                              },
                          "audio" : 
                              {
                                "id" : 2467,
                                "_type" : "AMFile",
                                "src" : 3,
                                "trackNumber" : 1,
                                "attributes" : {
                                  "ident" : "",
                                  "gain" : 1.0,
                                  "mixToMono" : false
                                },
                                  "channelNumber" : "0,1",
                                "effects" : [

                                ],
                                "start" : 1841,
                                "duration" : 37,
                                "mediaStart" : 4201,
                                "mediaDuration" : 37,
                                "scalar" : 1,
                                "animationTracks" : {

                                }
                              }
,
                          "start" : 1841,
                          "duration" : 37,
                          "mediaStart" : 0,
                          "mediaDuration" : 23566,
                          "scalar" : 1,
                          "metadata" : {
                            "AutoAppliedSmartFocus" : "False",
                            "clipSpeedAttribute" : false
                          }
                        },
                        {
                          "id" : 2468,
                          "_type" : "UnifiedMedia",
                          "video" : 
                              {
                                "id" : 2469,
                                "_type" : "ScreenVMFile",
                                "src" : 3,
                                "trackNumber" : 0,
                                "attributes" : {
                                  "ident" : "Rec 01-28-21_003"
                                },
                                "parameters" : {
                                  "cursorScale" : {
                                    "type" : "double",
                                    "defaultValue" : 0.0,
                                    "interp" : "linr"
                                  },
                                  "cursorOpacity" : {
                                    "type" : "double",
                                    "defaultValue" : 0.0,
                                    "interp" : "linr"
                                  }
                                },
                                "effects" : [

                                ],
                                "start" : 1878,
                                "duration" : 37,
                                "mediaStart" : 4247,
                                "mediaDuration" : 37,
                                "scalar" : 1,
                                "animationTracks" : {

                                }
                              },
                          "audio" : 
                              {
                                "id" : 2470,
                                "_type" : "AMFile",
                                "src" : 3,
                                "trackNumber" : 1,
                                "attributes" : {
                                  "ident" : "",
                                  "gain" : 1.0,
                                  "mixToMono" : false
                                },
                                  "channelNumber" : "0,1",
                                "effects" : [

                                ],
                                "start" : 1878,
                                "duration" : 37,
                                "mediaStart" : 4247,
                                "mediaDuration" : 37,
                                "scalar" : 1,
                                "animationTracks" : {

                                }
                              }
,
                          "start" : 1878,
                          "duration" : 37,
                          "mediaStart" : 0,
                          "mediaDuration" : 23566,
                          "scalar" : 1,
                          "metadata" : {
                            "AutoAppliedSmartFocus" : "False",
                            "clipSpeedAttribute" : false
                          }
                        },
                        {
                          "id" : 2471,
                          "_type" : "UnifiedMedia",
                          "video" : 
                              {
                                "id" : 2472,
                                "_type" : "ScreenVMFile",
                                "src" : 3,
                                "trackNumber" : 0,
                                "attributes" : {
                                  "ident" : "Rec 01-28-21_003"
                                },
                                "parameters" : {
                                  "cursorScale" : {
                                    "type" : "double",
                                    "defaultValue" : 0.0,
                                    "interp" : "linr"
                                  },
                                  "cursorOpacity" : {
                                    "type" : "double",
                                    "defaultValue" : 0.0,
                                    "interp" : "linr"
                                  }
                                },
                                "effects" : [

                                ],
                                "start" : 1915,
                                "duration" : 22,
                                "mediaStart" : 4384,
                                "mediaDuration" : 22,
                                "scalar" : 1,
                                "animationTracks" : {

                                }
                              },
                          "audio" : 
                              {
                                "id" : 2473,
                                "_type" : "AMFile",
                                "src" : 3,
                                "trackNumber" : 1,
                                "attributes" : {
                                  "ident" : "",
                                  "gain" : 1.0,
                                  "mixToMono" : false
                                },
                                  "channelNumber" : "0,1",
                                "effects" : [

                                ],
                                "start" : 1915,
                                "duration" : 22,
                                "mediaStart" : 4384,
                                "mediaDuration" : 22,
                                "scalar" : 1,
                                "animationTracks" : {

                                }
                              }
,
                          "start" : 1915,
                          "duration" : 22,
                          "mediaStart" : 0,
                          "mediaDuration" : 23566,
                          "scalar" : 1,
                          "metadata" : {
                            "AutoAppliedSmartFocus" : "False",
                            "clipSpeedAttribute" : false
                          }
                        },
                        {
                          "id" : 2474,
                          "_type" : "UnifiedMedia",
                          "video" : 
                              {
                                "id" : 2475,
                                "_type" : "ScreenVMFile",
                                "src" : 3,
                                "trackNumber" : 0,
                                "attributes" : {
                                  "ident" : "Rec 01-28-21_003"
                                },
                                "parameters" : {
                                  "cursorScale" : {
                                    "type" : "double",
                                    "defaultValue" : 0.0,
                                    "interp" : "linr"
                                  },
                                  "cursorOpacity" : {
                                    "type" : "double",
                                    "defaultValue" : 0.0,
                                    "interp" : "linr"
                                  }
                                },
                                "effects" : [

                                ],
                                "start" : 1937,
                                "duration" : 34,
                                "mediaStart" : 4420,
                                "mediaDuration" : 34,
                                "scalar" : 1,
                                "animationTracks" : {

                                }
                              },
                          "audio" : 
                              {
                                "id" : 2476,
                                "_type" : "AMFile",
                                "src" : 3,
                                "trackNumber" : 1,
                                "attributes" : {
                                  "ident" : "",
                                  "gain" : 1.0,
                                  "mixToMono" : false
                                },
                                  "channelNumber" : "0,1",
                                "effects" : [

                                ],
                                "start" : 1937,
                                "duration" : 34,
                                "mediaStart" : 4420,
                                "mediaDuration" : 34,
                                "scalar" : 1,
                                "animationTracks" : {

                                }
                              }
,
                          "start" : 1937,
                          "duration" : 34,
                          "mediaStart" : 0,
                          "mediaDuration" : 23566,
                          "scalar" : 1,
                          "metadata" : {
                            "AutoAppliedSmartFocus" : "False",
                            "clipSpeedAttribute" : false
                          }
                        },
                        {
                          "id" : 2477,
                          "_type" : "UnifiedMedia",
                          "video" : 
                              {
                                "id" : 2478,
                                "_type" : "ScreenVMFile",
                                "src" : 3,
                                "trackNumber" : 0,
                                "attributes" : {
                                  "ident" : "Rec 01-28-21_003"
                                },
                                "parameters" : {
                                  "cursorScale" : {
                                    "type" : "double",
                                    "defaultValue" : 0.0,
                                    "interp" : "linr"
                                  },
                                  "cursorOpacity" : {
                                    "type" : "double",
                                    "defaultValue" : 0.0,
                                    "interp" : "linr"
                                  }
                                },
                                "effects" : [

                                ],
                                "start" : 1971,
                                "duration" : 39,
                                "mediaStart" : 4925,
                                "mediaDuration" : 39,
                                "scalar" : 1,
                                "animationTracks" : {

                                }
                              },
                          "audio" : 
                              {
                                "id" : 2479,
                                "_type" : "AMFile",
                                "src" : 3,
                                "trackNumber" : 1,
                                "attributes" : {
                                  "ident" : "",
                                  "gain" : 1.0,
                                  "mixToMono" : false
                                },
                                  "channelNumber" : "0,1",
                                "effects" : [

                                ],
                                "start" : 1971,
                                "duration" : 39,
                                "mediaStart" : 4925,
                                "mediaDuration" : 39,
                                "scalar" : 1,
                                "animationTracks" : {

                                }
                              }
,
                          "start" : 1971,
                          "duration" : 39,
                          "mediaStart" : 0,
                          "mediaDuration" : 23566,
                          "scalar" : 1,
                          "metadata" : {
                            "AutoAppliedSmartFocus" : "False",
                            "clipSpeedAttribute" : false
                          }
                        },
                        {
                          "id" : 2480,
                          "_type" : "UnifiedMedia",
                          "video" : 
                              {
                                "id" : 2481,
                                "_type" : "ScreenVMFile",
                                "src" : 3,
                                "trackNumber" : 0,
                                "attributes" : {
                                  "ident" : "Rec 01-28-21_003"
                                },
                                "parameters" : {
                                  "cursorScale" : {
                                    "type" : "double",
                                    "defaultValue" : 0.0,
                                    "interp" : "linr"
                                  },
                                  "cursorOpacity" : {
                                    "type" : "double",
                                    "defaultValue" : 0.0,
                                    "interp" : "linr"
                                  }
                                },
                                "effects" : [

                                ],
                                "start" : 2010,
                                "duration" : 1866,
                                "mediaStart" : 5106,
                                "mediaDuration" : 1866,
                                "scalar" : 1,
                                "animationTracks" : {

                                }
                              },
                          "audio" : 
                              {
                                "id" : 2482,
                                "_type" : "AMFile",
                                "src" : 3,
                                "trackNumber" : 1,
                                "attributes" : {
                                  "ident" : "",
                                  "gain" : 1.0,
                                  "mixToMono" : false
                                },
                                  "channelNumber" : "0,1",
                                "effects" : [

                                ],
                                "start" : 2010,
                                "duration" : 1866,
                                "mediaStart" : 5106,
                                "mediaDuration" : 1866,
                                "scalar" : 1,
                                "animationTracks" : {

                                }
                              }
,
                          "start" : 2010,
                          "duration" : 1866,
                          "mediaStart" : 0,
                          "mediaDuration" : 23566,
                          "scalar" : 1,
                          "metadata" : {
                            "AutoAppliedSmartFocus" : "False",
                            "clipSpeedAttribute" : false
                          }
                        },
                        {
                          "id" : 2483,
                          "_type" : "UnifiedMedia",
                          "video" : 
                              {
                                "id" : 2484,
                                "_type" : "ScreenVMFile",
                                "src" : 3,
                                "trackNumber" : 0,
                                "attributes" : {
                                  "ident" : "Rec 01-28-21_003"
                                },
                                "parameters" : {
                                  "cursorScale" : {
                                    "type" : "double",
                                    "defaultValue" : 0.0,
                                    "interp" : "linr"
                                  },
                                  "cursorOpacity" : {
                                    "type" : "double",
                                    "defaultValue" : 0.0,
                                    "interp" : "linr"
                                  }
                                },
                                "effects" : [

                                ],
                                "start" : 3876,
                                "duration" : 160,
                                "mediaStart" : 7099,
                                "mediaDuration" : 160,
                                "scalar" : 1,
                                "animationTracks" : {

                                }
                              },
                          "audio" : 
                              {
                                "id" : 2485,
                                "_type" : "AMFile",
                                "src" : 3,
                                "trackNumber" : 1,
                                "attributes" : {
                                  "ident" : "",
                                  "gain" : 1.0,
                                  "mixToMono" : false
                                },
                                  "channelNumber" : "0,1",
                                "effects" : [

                                ],
                                "start" : 3876,
                                "duration" : 160,
                                "mediaStart" : 7099,
                                "mediaDuration" : 160,
                                "scalar" : 1,
                                "animationTracks" : {

                                }
                              }
,
                          "start" : 3876,
                          "duration" : 160,
                          "mediaStart" : 0,
                          "mediaDuration" : 23566,
                          "scalar" : 1,
                          "metadata" : {
                            "AutoAppliedSmartFocus" : "False",
                            "clipSpeedAttribute" : false
                          }
                        },
                        {
                          "id" : 2486,
                          "_type" : "UnifiedMedia",
                          "video" : 
                              {
                                "id" : 2487,
                                "_type" : "ScreenVMFile",
                                "src" : 3,
                                "trackNumber" : 0,
                                "attributes" : {
                                  "ident" : "Rec 01-28-21_003"
                                },
                                "parameters" : {
                                  "cursorScale" : {
                                    "type" : "double",
                                    "defaultValue" : 0.0,
                                    "interp" : "linr"
                                  },
                                  "cursorOpacity" : {
                                    "type" : "double",
                                    "defaultValue" : 0.0,
                                    "interp" : "linr"
                                  }
                                },
                                "effects" : [

                                ],
                                "start" : 4036,
                                "duration" : 275,
                                "mediaStart" : 7439,
                                "mediaDuration" : 275,
                                "scalar" : 1,
                                "animationTracks" : {

                                }
                              },
                          "audio" : 
                              {
                                "id" : 2488,
                                "_type" : "AMFile",
                                "src" : 3,
                                "trackNumber" : 1,
                                "attributes" : {
                                  "ident" : "",
                                  "gain" : 1.0,
                                  "mixToMono" : false
                                },
                                  "channelNumber" : "0,1",
                                "effects" : [

                                ],
                                "start" : 4036,
                                "duration" : 275,
                                "mediaStart" : 7439,
                                "mediaDuration" : 275,
                                "scalar" : 1,
                                "animationTracks" : {

                                }
                              }
,
                          "start" : 4036,
                          "duration" : 275,
                          "mediaStart" : 0,
                          "mediaDuration" : 23566,
                          "scalar" : 1,
                          "metadata" : {
                            "AutoAppliedSmartFocus" : "False",
                            "clipSpeedAttribute" : false
                          }
                        },
                        {
                          "id" : 2489,
                          "_type" : "UnifiedMedia",
                          "video" : 
                              {
                                "id" : 2490,
                                "_type" : "ScreenVMFile",
                                "src" : 3,
                                "trackNumber" : 0,
                                "attributes" : {
                                  "ident" : "Rec 01-28-21_003"
                                },
                                "parameters" : {
                                  "cursorScale" : {
                                    "type" : "double",
                                    "defaultValue" : 0.0,
                                    "interp" : "linr"
                                  },
                                  "cursorOpacity" : {
                                    "type" : "double",
                                    "defaultValue" : 0.0,
                                    "interp" : "linr"
                                  }
                                },
                                "effects" : [

                                ],
                                "start" : 4311,
                                "duration" : 3,
                                "mediaStart" : 7841,
                                "mediaDuration" : 3,
                                "scalar" : 1,
                                "animationTracks" : {

                                }
                              },
                          "audio" : 
                              {
                                "id" : 2491,
                                "_type" : "AMFile",
                                "src" : 3,
                                "trackNumber" : 1,
                                "attributes" : {
                                  "ident" : "",
                                  "gain" : 1.0,
                                  "mixToMono" : false
                                },
                                  "channelNumber" : "0,1",
                                "effects" : [

                                ],
                                "start" : 4311,
                                "duration" : 3,
                                "mediaStart" : 7841,
                                "mediaDuration" : 3,
                                "scalar" : 1,
                                "animationTracks" : {

                                }
                              }
,
                          "start" : 4311,
                          "duration" : 3,
                          "mediaStart" : 0,
                          "mediaDuration" : 23566,
                          "scalar" : 1,
                          "metadata" : {
                            "AutoAppliedSmartFocus" : "False",
                            "clipSpeedAttribute" : false
                          }
                        },
                        {
                          "id" : 2492,
                          "_type" : "UnifiedMedia",
                          "video" : 
                              {
                                "id" : 2493,
                                "_type" : "ScreenVMFile",
                                "src" : 3,
                                "trackNumber" : 0,
                                "attributes" : {
                                  "ident" : "Rec 01-28-21_003"
                                },
                                "parameters" : {
                                  "cursorScale" : {
                                    "type" : "double",
                                    "defaultValue" : 0.0,
                                    "interp" : "linr"
                                  },
                                  "cursorOpacity" : {
                                    "type" : "double",
                                    "defaultValue" : 0.0,
                                    "interp" : "linr"
                                  }
                                },
                                "effects" : [

                                ],
                                "start" : 4314,
                                "duration" : 73,
                                "mediaStart" : 8276,
                                "mediaDuration" : 73,
                                "scalar" : 1,
                                "animationTracks" : {

                                }
                              },
                          "audio" : 
                              {
                                "id" : 2494,
                                "_type" : "AMFile",
                                "src" : 3,
                                "trackNumber" : 1,
                                "attributes" : {
                                  "ident" : "",
                                  "gain" : 1.0,
                                  "mixToMono" : false
                                },
                                  "channelNumber" : "0,1",
                                "effects" : [

                                ],
                                "start" : 4314,
                                "duration" : 73,
                                "mediaStart" : 8276,
                                "mediaDuration" : 73,
                                "scalar" : 1,
                                "animationTracks" : {

                                }
                              }
,
                          "start" : 4314,
                          "duration" : 73,
                          "mediaStart" : 0,
                          "mediaDuration" : 23566,
                          "scalar" : 1,
                          "metadata" : {
                            "AutoAppliedSmartFocus" : "False",
                            "clipSpeedAttribute" : false
                          }
                        },
                        {
                          "id" : 2495,
                          "_type" : "UnifiedMedia",
                          "video" : 
                              {
                                "id" : 2496,
                                "_type" : "ScreenVMFile",
                                "src" : 3,
                                "trackNumber" : 0,
                                "attributes" : {
                                  "ident" : "Rec 01-28-21_003"
                                },
                                "parameters" : {
                                  "cursorScale" : {
                                    "type" : "double",
                                    "defaultValue" : 0.0,
                                    "interp" : "linr"
                                  },
                                  "cursorOpacity" : {
                                    "type" : "double",
                                    "defaultValue" : 0.0,
                                    "interp" : "linr"
                                  }
                                },
                                "effects" : [

                                ],
                                "start" : 4387,
                                "duration" : 982,
                                "mediaStart" : 8431,
                                "mediaDuration" : 982,
                                "scalar" : 1,
                                "animationTracks" : {

                                }
                              },
                          "audio" : 
                              {
                                "id" : 2497,
                                "_type" : "AMFile",
                                "src" : 3,
                                "trackNumber" : 1,
                                "attributes" : {
                                  "ident" : "",
                                  "gain" : 1.0,
                                  "mixToMono" : false
                                },
                                  "channelNumber" : "0,1",
                                "effects" : [

                                ],
                                "start" : 4387,
                                "duration" : 982,
                                "mediaStart" : 8431,
                                "mediaDuration" : 982,
                                "scalar" : 1,
                                "animationTracks" : {

                                }
                              }
,
                          "start" : 4387,
                          "duration" : 982,
                          "mediaStart" : 0,
                          "mediaDuration" : 23566,
                          "scalar" : 1,
                          "metadata" : {
                            "AutoAppliedSmartFocus" : "False",
                            "clipSpeedAttribute" : false
                          }
                        },
                        {
                          "id" : 2498,
                          "_type" : "UnifiedMedia",
                          "video" : 
                              {
                                "id" : 2499,
                                "_type" : "ScreenVMFile",
                                "src" : 3,
                                "trackNumber" : 0,
                                "attributes" : {
                                  "ident" : "Rec 01-28-21_003"
                                },
                                "parameters" : {
                                  "cursorScale" : {
                                    "type" : "double",
                                    "defaultValue" : 0.0,
                                    "interp" : "linr"
                                  },
                                  "cursorOpacity" : {
                                    "type" : "double",
                                    "defaultValue" : 0.0,
                                    "interp" : "linr"
                                  }
                                },
                                "effects" : [

                                ],
                                "start" : 5369,
                                "duration" : 473,
                                "mediaStart" : 9469,
                                "mediaDuration" : 473,
                                "scalar" : 1,
                                "animationTracks" : {

                                }
                              },
                          "audio" : 
                              {
                                "id" : 2500,
                                "_type" : "AMFile",
                                "src" : 3,
                                "trackNumber" : 1,
                                "attributes" : {
                                  "ident" : "",
                                  "gain" : 1.0,
                                  "mixToMono" : false
                                },
                                  "channelNumber" : "0,1",
                                "effects" : [

                                ],
                                "start" : 5369,
                                "duration" : 473,
                                "mediaStart" : 9469,
                                "mediaDuration" : 473,
                                "scalar" : 1,
                                "animationTracks" : {

                                }
                              }
,
                          "start" : 5369,
                          "duration" : 473,
                          "mediaStart" : 0,
                          "mediaDuration" : 23566,
                          "scalar" : 1,
                          "metadata" : {
                            "AutoAppliedSmartFocus" : "False",
                            "clipSpeedAttribute" : false
                          }
                        },
                        {
                          "id" : 2501,
                          "_type" : "UnifiedMedia",
                          "video" : 
                              {
                                "id" : 2502,
                                "_type" : "ScreenVMFile",
                                "src" : 3,
                                "trackNumber" : 0,
                                "attributes" : {
                                  "ident" : "Rec 01-28-21_003"
                                },
                                "parameters" : {
                                  "cursorScale" : {
                                    "type" : "double",
                                    "defaultValue" : 0.0,
                                    "interp" : "linr"
                                  },
                                  "cursorOpacity" : {
                                    "type" : "double",
                                    "defaultValue" : 0.0,
                                    "interp" : "linr"
                                  }
                                },
                                "effects" : [

                                ],
                                "start" : 5842,
                                "duration" : 166,
                                "mediaStart" : 10778,
                                "mediaDuration" : 166,
                                "scalar" : 1,
                                "animationTracks" : {

                                }
                              },
                          "audio" : 
                              {
                                "id" : 2503,
                                "_type" : "AMFile",
                                "src" : 3,
                                "trackNumber" : 1,
                                "attributes" : {
                                  "ident" : "",
                                  "gain" : 1.0,
                                  "mixToMono" : false
                                },
                                  "channelNumber" : "0,1",
                                "effects" : [

                                ],
                                "start" : 5842,
                                "duration" : 166,
                                "mediaStart" : 10778,
                                "mediaDuration" : 166,
                                "scalar" : 1,
                                "animationTracks" : {

                                }
                              }
,
                          "start" : 5842,
                          "duration" : 166,
                          "mediaStart" : 0,
                          "mediaDuration" : 23566,
                          "scalar" : 1,
                          "metadata" : {
                            "AutoAppliedSmartFocus" : "False",
                            "clipSpeedAttribute" : false
                          }
                        },
                        {
                          "id" : 2504,
                          "_type" : "UnifiedMedia",
                          "video" : 
                              {
                                "id" : 2505,
                                "_type" : "ScreenVMFile",
                                "src" : 3,
                                "trackNumber" : 0,
                                "attributes" : {
                                  "ident" : "Rec 01-28-21_003"
                                },
                                "parameters" : {
                                  "cursorScale" : {
                                    "type" : "double",
                                    "defaultValue" : 0.0,
                                    "interp" : "linr"
                                  },
                                  "cursorOpacity" : {
                                    "type" : "double",
                                    "defaultValue" : 0.0,
                                    "interp" : "linr"
                                  }
                                },
                                "effects" : [

                                ],
                                "start" : 6008,
                                "duration" : 125,
                                "mediaStart" : 11423,
                                "mediaDuration" : 125,
                                "scalar" : 1,
                                "animationTracks" : {

                                }
                              },
                          "audio" : 
                              {
                                "id" : 2506,
                                "_type" : "AMFile",
                                "src" : 3,
                                "trackNumber" : 1,
                                "attributes" : {
                                  "ident" : "",
                                  "gain" : 1.0,
                                  "mixToMono" : false
                                },
                                  "channelNumber" : "0,1",
                                "effects" : [

                                ],
                                "start" : 6008,
                                "duration" : 125,
                                "mediaStart" : 11423,
                                "mediaDuration" : 125,
                                "scalar" : 1,
                                "animationTracks" : {

                                }
                              }
,
                          "start" : 6008,
                          "duration" : 125,
                          "mediaStart" : 0,
                          "mediaDuration" : 23566,
                          "scalar" : 1,
                          "metadata" : {
                            "AutoAppliedSmartFocus" : "False",
                            "clipSpeedAttribute" : false
                          }
                        },
                        {
                          "id" : 2507,
                          "_type" : "UnifiedMedia",
                          "video" : 
                              {
                                "id" : 2508,
                                "_type" : "ScreenVMFile",
                                "src" : 3,
                                "trackNumber" : 0,
                                "attributes" : {
                                  "ident" : "Rec 01-28-21_003"
                                },
                                "parameters" : {
                                  "cursorScale" : {
                                    "type" : "double",
                                    "defaultValue" : 0.0,
                                    "interp" : "linr"
                                  },
                                  "cursorOpacity" : {
                                    "type" : "double",
                                    "defaultValue" : 0.0,
                                    "interp" : "linr"
                                  }
                                },
                                "effects" : [

                                ],
                                "start" : 6133,
                                "duration" : 42,
                                "mediaStart" : 11583,
                                "mediaDuration" : 42,
                                "scalar" : 1,
                                "animationTracks" : {

                                }
                              },
                          "audio" : 
                              {
                                "id" : 2509,
                                "_type" : "AMFile",
                                "src" : 3,
                                "trackNumber" : 1,
                                "attributes" : {
                                  "ident" : "",
                                  "gain" : 1.0,
                                  "mixToMono" : false
                                },
                                  "channelNumber" : "0,1",
                                "effects" : [

                                ],
                                "start" : 6133,
                                "duration" : 42,
                                "mediaStart" : 11583,
                                "mediaDuration" : 42,
                                "scalar" : 1,
                                "animationTracks" : {

                                }
                              }
,
                          "start" : 6133,
                          "duration" : 42,
                          "mediaStart" : 0,
                          "mediaDuration" : 23566,
                          "scalar" : 1,
                          "metadata" : {
                            "AutoAppliedSmartFocus" : "False",
                            "clipSpeedAttribute" : false
                          }
                        },
                        {
                          "id" : 2510,
                          "_type" : "UnifiedMedia",
                          "video" : 
                              {
                                "id" : 2511,
                                "_type" : "ScreenVMFile",
                                "src" : 3,
                                "trackNumber" : 0,
                                "attributes" : {
                                  "ident" : "Rec 01-28-21_003"
                                },
                                "parameters" : {
                                  "cursorScale" : {
                                    "type" : "double",
                                    "defaultValue" : 0.0,
                                    "interp" : "linr"
                                  },
                                  "cursorOpacity" : {
                                    "type" : "double",
                                    "defaultValue" : 0.0,
                                    "interp" : "linr"
                                  }
                                },
                                "effects" : [

                                ],
                                "start" : 6175,
                                "duration" : 82,
                                "mediaStart" : 11656,
                                "mediaDuration" : 82,
                                "scalar" : 1,
                                "animationTracks" : {

                                }
                              },
                          "audio" : 
                              {
                                "id" : 2512,
                                "_type" : "AMFile",
                                "src" : 3,
                                "trackNumber" : 1,
                                "attributes" : {
                                  "ident" : "",
                                  "gain" : 1.0,
                                  "mixToMono" : false
                                },
                                  "channelNumber" : "0,1",
                                "effects" : [

                                ],
                                "start" : 6175,
                                "duration" : 82,
                                "mediaStart" : 11656,
                                "mediaDuration" : 82,
                                "scalar" : 1,
                                "animationTracks" : {

                                }
                              }
,
                          "start" : 6175,
                          "duration" : 82,
                          "mediaStart" : 0,
                          "mediaDuration" : 23566,
                          "scalar" : 1,
                          "metadata" : {
                            "AutoAppliedSmartFocus" : "False",
                            "clipSpeedAttribute" : false
                          }
                        },
                        {
                          "id" : 2513,
                          "_type" : "UnifiedMedia",
                          "video" : 
                              {
                                "id" : 2514,
                                "_type" : "ScreenVMFile",
                                "src" : 3,
                                "trackNumber" : 0,
                                "attributes" : {
                                  "ident" : "Rec 01-28-21_003"
                                },
                                "parameters" : {
                                  "cursorScale" : {
                                    "type" : "double",
                                    "defaultValue" : 0.0,
                                    "interp" : "linr"
                                  },
                                  "cursorOpacity" : {
                                    "type" : "double",
                                    "defaultValue" : 0.0,
                                    "interp" : "linr"
                                  }
                                },
                                "effects" : [

                                ],
                                "start" : 6257,
                                "duration" : 63,
                                "mediaStart" : 11866,
                                "mediaDuration" : 63,
                                "scalar" : 1,
                                "animationTracks" : {

                                }
                              },
                          "audio" : 
                              {
                                "id" : 2515,
                                "_type" : "AMFile",
                                "src" : 3,
                                "trackNumber" : 1,
                                "attributes" : {
                                  "ident" : "",
                                  "gain" : 1.0,
                                  "mixToMono" : false
                                },
                                  "channelNumber" : "0,1",
                                "effects" : [

                                ],
                                "start" : 6257,
                                "duration" : 63,
                                "mediaStart" : 11866,
                                "mediaDuration" : 63,
                                "scalar" : 1,
                                "animationTracks" : {

                                }
                              }
,
                          "start" : 6257,
                          "duration" : 63,
                          "mediaStart" : 0,
                          "mediaDuration" : 23566,
                          "scalar" : 1,
                          "metadata" : {
                            "AutoAppliedSmartFocus" : "False",
                            "clipSpeedAttribute" : false
                          }
                        },
                        {
                          "id" : 2516,
                          "_type" : "UnifiedMedia",
                          "video" : 
                              {
                                "id" : 2517,
                                "_type" : "ScreenVMFile",
                                "src" : 3,
                                "trackNumber" : 0,
                                "attributes" : {
                                  "ident" : "Rec 01-28-21_003"
                                },
                                "parameters" : {
                                  "cursorScale" : {
                                    "type" : "double",
                                    "defaultValue" : 0.0,
                                    "interp" : "linr"
                                  },
                                  "cursorOpacity" : {
                                    "type" : "double",
                                    "defaultValue" : 0.0,
                                    "interp" : "linr"
                                  }
                                },
                                "effects" : [

                                ],
                                "start" : 6320,
                                "duration" : 111,
                                "mediaStart" : 11962,
                                "mediaDuration" : 111,
                                "scalar" : 1,
                                "animationTracks" : {

                                }
                              },
                          "audio" : 
                              {
                                "id" : 2518,
                                "_type" : "AMFile",
                                "src" : 3,
                                "trackNumber" : 1,
                                "attributes" : {
                                  "ident" : "",
                                  "gain" : 1.0,
                                  "mixToMono" : false
                                },
                                  "channelNumber" : "0,1",
                                "effects" : [

                                ],
                                "start" : 6320,
                                "duration" : 111,
                                "mediaStart" : 11962,
                                "mediaDuration" : 111,
                                "scalar" : 1,
                                "animationTracks" : {

                                }
                              }
,
                          "start" : 6320,
                          "duration" : 111,
                          "mediaStart" : 0,
                          "mediaDuration" : 23566,
                          "scalar" : 1,
                          "metadata" : {
                            "AutoAppliedSmartFocus" : "False",
                            "clipSpeedAttribute" : false
                          }
                        },
                        {
                          "id" : 2519,
                          "_type" : "UnifiedMedia",
                          "video" : 
                              {
                                "id" : 2520,
                                "_type" : "ScreenVMFile",
                                "src" : 3,
                                "trackNumber" : 0,
                                "attributes" : {
                                  "ident" : "Rec 01-28-21_003"
                                },
                                "parameters" : {
                                  "cursorScale" : {
                                    "type" : "double",
                                    "defaultValue" : 0.0,
                                    "interp" : "linr"
                                  },
                                  "cursorOpacity" : {
                                    "type" : "double",
                                    "defaultValue" : 0.0,
                                    "interp" : "linr"
                                  }
                                },
                                "effects" : [

                                ],
                                "start" : 6431,
                                "duration" : 11224,
                                "mediaStart" : 12342,
                                "mediaDuration" : 11224,
                                "scalar" : 1,
                                "animationTracks" : {

                                }
                              },
                          "audio" : 
                              {
                                "id" : 2521,
                                "_type" : "AMFile",
                                "src" : 3,
                                "trackNumber" : 1,
                                "attributes" : {
                                  "ident" : "",
                                  "gain" : 1.0,
                                  "mixToMono" : false
                                },
                                  "channelNumber" : "0,1",
                                "effects" : [

                                ],
                                "start" : 6431,
                                "duration" : 11224,
                                "mediaStart" : 12342,
                                "mediaDuration" : 11224,
                                "scalar" : 1,
                                "animationTracks" : {

                                }
                              }
,
                          "start" : 6431,
                          "duration" : 11224,
                          "mediaStart" : 0,
                          "mediaDuration" : 23566,
                          "scalar" : 1,
                          "metadata" : {
                            "AutoAppliedSmartFocus" : "False",
                            "clipSpeedAttribute" : false
                          }
                        }
                    ],
                    "effects" : [

                    ],
                    "start" : 14599,
                    "duration" : 806,
                    "mediaStart" : 5795,
                    "mediaDuration" : 806,
                    "scalar" : 1,
                    "metadata" : {
                      "AutoAppliedSmartFocus" : "False",
                      "clipSpeedAttribute" : false
                    },
                    "animationTracks" : {

                    }
                  },
                  {
                    "id" : 2522,
                    "_type" : "StitchedMedia",
                    "minMediaStart" : 0,
                    "attributes" : {
                      "ident" : "Rec 01-28-21_003",
                      "gain" : 1.0,
                      "mixToMono" : false
                    },
                    "parameters" : {
                      "volume" : 1.0,
                      "cursorOpacity" : 1.0,
                      "cursorScale" : 1.0
                    },
                    "medias" : [
                        {
                          "id" : 2523,
                          "_type" : "UnifiedMedia",
                          "video" : 
                              {
                                "id" : 2524,
                                "_type" : "ScreenVMFile",
                                "src" : 3,
                                "trackNumber" : 0,
                                "attributes" : {
                                  "ident" : "Rec 01-28-21_003"
                                },
                                "parameters" : {
                                  "cursorScale" : {
                                    "type" : "double",
                                    "defaultValue" : 0.0,
                                    "interp" : "linr"
                                  },
                                  "cursorOpacity" : {
                                    "type" : "double",
                                    "defaultValue" : 0.0,
                                    "interp" : "linr"
                                  }
                                },
                                "effects" : [

                                ],
                                "start" : 0,
                                "duration" : 9,
                                "mediaStart" : 0,
                                "mediaDuration" : 9,
                                "scalar" : 1,
                                "animationTracks" : {

                                }
                              },
                          "audio" : 
                              {
                                "id" : 2525,
                                "_type" : "AMFile",
                                "src" : 3,
                                "trackNumber" : 1,
                                "attributes" : {
                                  "ident" : "",
                                  "gain" : 1.0,
                                  "mixToMono" : false
                                },
                                  "channelNumber" : "0,1",
                                "effects" : [

                                ],
                                "start" : 0,
                                "duration" : 9,
                                "mediaStart" : 0,
                                "mediaDuration" : 9,
                                "scalar" : 1,
                                "animationTracks" : {

                                }
                              }
,
                          "start" : 0,
                          "duration" : 9,
                          "mediaStart" : 0,
                          "mediaDuration" : 23566,
                          "scalar" : 1,
                          "metadata" : {
                            "AutoAppliedSmartFocus" : "False",
                            "clipSpeedAttribute" : false
                          }
                        },
                        {
                          "id" : 2526,
                          "_type" : "UnifiedMedia",
                          "video" : 
                              {
                                "id" : 2527,
                                "_type" : "ScreenVMFile",
                                "src" : 3,
                                "trackNumber" : 0,
                                "attributes" : {
                                  "ident" : "Rec 01-28-21_003"
                                },
                                "parameters" : {
                                  "cursorScale" : {
                                    "type" : "double",
                                    "defaultValue" : 0.0,
                                    "interp" : "linr"
                                  },
                                  "cursorOpacity" : {
                                    "type" : "double",
                                    "defaultValue" : 0.0,
                                    "interp" : "linr"
                                  }
                                },
                                "effects" : [

                                ],
                                "start" : 9,
                                "duration" : 47,
                                "mediaStart" : 1540,
                                "mediaDuration" : 47,
                                "scalar" : 1,
                                "animationTracks" : {

                                }
                              },
                          "audio" : 
                              {
                                "id" : 2528,
                                "_type" : "AMFile",
                                "src" : 3,
                                "trackNumber" : 1,
                                "attributes" : {
                                  "ident" : "",
                                  "gain" : 1.0,
                                  "mixToMono" : false
                                },
                                  "channelNumber" : "0,1",
                                "effects" : [

                                ],
                                "start" : 9,
                                "duration" : 47,
                                "mediaStart" : 1540,
                                "mediaDuration" : 47,
                                "scalar" : 1,
                                "animationTracks" : {

                                }
                              }
,
                          "start" : 9,
                          "duration" : 47,
                          "mediaStart" : 0,
                          "mediaDuration" : 23566,
                          "scalar" : 1,
                          "metadata" : {
                            "AutoAppliedSmartFocus" : "False",
                            "clipSpeedAttribute" : false
                          }
                        },
                        {
                          "id" : 2529,
                          "_type" : "UnifiedMedia",
                          "video" : 
                              {
                                "id" : 2530,
                                "_type" : "ScreenVMFile",
                                "src" : 3,
                                "trackNumber" : 0,
                                "attributes" : {
                                  "ident" : "Rec 01-28-21_003"
                                },
                                "parameters" : {
                                  "cursorScale" : {
                                    "type" : "double",
                                    "defaultValue" : 0.0,
                                    "interp" : "linr"
                                  },
                                  "cursorOpacity" : {
                                    "type" : "double",
                                    "defaultValue" : 0.0,
                                    "interp" : "linr"
                                  }
                                },
                                "effects" : [

                                ],
                                "start" : 56,
                                "duration" : 35,
                                "mediaStart" : 1641,
                                "mediaDuration" : 35,
                                "scalar" : 1,
                                "animationTracks" : {

                                }
                              },
                          "audio" : 
                              {
                                "id" : 2531,
                                "_type" : "AMFile",
                                "src" : 3,
                                "trackNumber" : 1,
                                "attributes" : {
                                  "ident" : "",
                                  "gain" : 1.0,
                                  "mixToMono" : false
                                },
                                  "channelNumber" : "0,1",
                                "effects" : [

                                ],
                                "start" : 56,
                                "duration" : 35,
                                "mediaStart" : 1641,
                                "mediaDuration" : 35,
                                "scalar" : 1,
                                "animationTracks" : {

                                }
                              }
,
                          "start" : 56,
                          "duration" : 35,
                          "mediaStart" : 0,
                          "mediaDuration" : 23566,
                          "scalar" : 1,
                          "metadata" : {
                            "AutoAppliedSmartFocus" : "False",
                            "clipSpeedAttribute" : false
                          }
                        },
                        {
                          "id" : 2532,
                          "_type" : "UnifiedMedia",
                          "video" : 
                              {
                                "id" : 2533,
                                "_type" : "ScreenVMFile",
                                "src" : 3,
                                "trackNumber" : 0,
                                "attributes" : {
                                  "ident" : "Rec 01-28-21_003"
                                },
                                "parameters" : {
                                  "cursorScale" : {
                                    "type" : "double",
                                    "defaultValue" : 0.0,
                                    "interp" : "linr"
                                  },
                                  "cursorOpacity" : {
                                    "type" : "double",
                                    "defaultValue" : 0.0,
                                    "interp" : "linr"
                                  }
                                },
                                "effects" : [

                                ],
                                "start" : 91,
                                "duration" : 73,
                                "mediaStart" : 1702,
                                "mediaDuration" : 73,
                                "scalar" : 1,
                                "animationTracks" : {

                                }
                              },
                          "audio" : 
                              {
                                "id" : 2534,
                                "_type" : "AMFile",
                                "src" : 3,
                                "trackNumber" : 1,
                                "attributes" : {
                                  "ident" : "",
                                  "gain" : 1.0,
                                  "mixToMono" : false
                                },
                                  "channelNumber" : "0,1",
                                "effects" : [

                                ],
                                "start" : 91,
                                "duration" : 73,
                                "mediaStart" : 1702,
                                "mediaDuration" : 73,
                                "scalar" : 1,
                                "animationTracks" : {

                                }
                              }
,
                          "start" : 91,
                          "duration" : 73,
                          "mediaStart" : 0,
                          "mediaDuration" : 23566,
                          "scalar" : 1,
                          "metadata" : {
                            "AutoAppliedSmartFocus" : "False",
                            "clipSpeedAttribute" : false
                          }
                        },
                        {
                          "id" : 2535,
                          "_type" : "UnifiedMedia",
                          "video" : 
                              {
                                "id" : 2536,
                                "_type" : "ScreenVMFile",
                                "src" : 3,
                                "trackNumber" : 0,
                                "attributes" : {
                                  "ident" : "Rec 01-28-21_003"
                                },
                                "parameters" : {
                                  "cursorScale" : {
                                    "type" : "double",
                                    "defaultValue" : 0.0,
                                    "interp" : "linr"
                                  },
                                  "cursorOpacity" : {
                                    "type" : "double",
                                    "defaultValue" : 0.0,
                                    "interp" : "linr"
                                  }
                                },
                                "effects" : [

                                ],
                                "start" : 164,
                                "duration" : 122,
                                "mediaStart" : 1849,
                                "mediaDuration" : 122,
                                "scalar" : 1,
                                "animationTracks" : {

                                }
                              },
                          "audio" : 
                              {
                                "id" : 2537,
                                "_type" : "AMFile",
                                "src" : 3,
                                "trackNumber" : 1,
                                "attributes" : {
                                  "ident" : "",
                                  "gain" : 1.0,
                                  "mixToMono" : false
                                },
                                  "channelNumber" : "0,1",
                                "effects" : [

                                ],
                                "start" : 164,
                                "duration" : 122,
                                "mediaStart" : 1849,
                                "mediaDuration" : 122,
                                "scalar" : 1,
                                "animationTracks" : {

                                }
                              }
,
                          "start" : 164,
                          "duration" : 122,
                          "mediaStart" : 0,
                          "mediaDuration" : 23566,
                          "scalar" : 1,
                          "metadata" : {
                            "AutoAppliedSmartFocus" : "False",
                            "clipSpeedAttribute" : false
                          }
                        },
                        {
                          "id" : 2538,
                          "_type" : "UnifiedMedia",
                          "video" : 
                              {
                                "id" : 2539,
                                "_type" : "ScreenVMFile",
                                "src" : 3,
                                "trackNumber" : 0,
                                "attributes" : {
                                  "ident" : "Rec 01-28-21_003"
                                },
                                "parameters" : {
                                  "cursorScale" : {
                                    "type" : "double",
                                    "defaultValue" : 0.0,
                                    "interp" : "linr"
                                  },
                                  "cursorOpacity" : {
                                    "type" : "double",
                                    "defaultValue" : 0.0,
                                    "interp" : "linr"
                                  }
                                },
                                "effects" : [

                                ],
                                "start" : 286,
                                "duration" : 38,
                                "mediaStart" : 2036,
                                "mediaDuration" : 38,
                                "scalar" : 1,
                                "animationTracks" : {

                                }
                              },
                          "audio" : 
                              {
                                "id" : 2540,
                                "_type" : "AMFile",
                                "src" : 3,
                                "trackNumber" : 1,
                                "attributes" : {
                                  "ident" : "",
                                  "gain" : 1.0,
                                  "mixToMono" : false
                                },
                                  "channelNumber" : "0,1",
                                "effects" : [

                                ],
                                "start" : 286,
                                "duration" : 38,
                                "mediaStart" : 2036,
                                "mediaDuration" : 38,
                                "scalar" : 1,
                                "animationTracks" : {

                                }
                              }
,
                          "start" : 286,
                          "duration" : 38,
                          "mediaStart" : 0,
                          "mediaDuration" : 23566,
                          "scalar" : 1,
                          "metadata" : {
                            "AutoAppliedSmartFocus" : "False",
                            "clipSpeedAttribute" : false
                          }
                        },
                        {
                          "id" : 2541,
                          "_type" : "UnifiedMedia",
                          "video" : 
                              {
                                "id" : 2542,
                                "_type" : "ScreenVMFile",
                                "src" : 3,
                                "trackNumber" : 0,
                                "attributes" : {
                                  "ident" : "Rec 01-28-21_003"
                                },
                                "parameters" : {
                                  "cursorScale" : {
                                    "type" : "double",
                                    "defaultValue" : 0.0,
                                    "interp" : "linr"
                                  },
                                  "cursorOpacity" : {
                                    "type" : "double",
                                    "defaultValue" : 0.0,
                                    "interp" : "linr"
                                  }
                                },
                                "effects" : [

                                ],
                                "start" : 324,
                                "duration" : 30,
                                "mediaStart" : 2087,
                                "mediaDuration" : 30,
                                "scalar" : 1,
                                "animationTracks" : {

                                }
                              },
                          "audio" : 
                              {
                                "id" : 2543,
                                "_type" : "AMFile",
                                "src" : 3,
                                "trackNumber" : 1,
                                "attributes" : {
                                  "ident" : "",
                                  "gain" : 1.0,
                                  "mixToMono" : false
                                },
                                  "channelNumber" : "0,1",
                                "effects" : [

                                ],
                                "start" : 324,
                                "duration" : 30,
                                "mediaStart" : 2087,
                                "mediaDuration" : 30,
                                "scalar" : 1,
                                "animationTracks" : {

                                }
                              }
,
                          "start" : 324,
                          "duration" : 30,
                          "mediaStart" : 0,
                          "mediaDuration" : 23566,
                          "scalar" : 1,
                          "metadata" : {
                            "AutoAppliedSmartFocus" : "False",
                            "clipSpeedAttribute" : false
                          }
                        },
                        {
                          "id" : 2544,
                          "_type" : "UnifiedMedia",
                          "video" : 
                              {
                                "id" : 2545,
                                "_type" : "ScreenVMFile",
                                "src" : 3,
                                "trackNumber" : 0,
                                "attributes" : {
                                  "ident" : "Rec 01-28-21_003"
                                },
                                "parameters" : {
                                  "cursorScale" : {
                                    "type" : "double",
                                    "defaultValue" : 0.0,
                                    "interp" : "linr"
                                  },
                                  "cursorOpacity" : {
                                    "type" : "double",
                                    "defaultValue" : 0.0,
                                    "interp" : "linr"
                                  }
                                },
                                "effects" : [

                                ],
                                "start" : 354,
                                "duration" : 92,
                                "mediaStart" : 2148,
                                "mediaDuration" : 92,
                                "scalar" : 1,
                                "animationTracks" : {

                                }
                              },
                          "audio" : 
                              {
                                "id" : 2546,
                                "_type" : "AMFile",
                                "src" : 3,
                                "trackNumber" : 1,
                                "attributes" : {
                                  "ident" : "",
                                  "gain" : 1.0,
                                  "mixToMono" : false
                                },
                                  "channelNumber" : "0,1",
                                "effects" : [

                                ],
                                "start" : 354,
                                "duration" : 92,
                                "mediaStart" : 2148,
                                "mediaDuration" : 92,
                                "scalar" : 1,
                                "animationTracks" : {

                                }
                              }
,
                          "start" : 354,
                          "duration" : 92,
                          "mediaStart" : 0,
                          "mediaDuration" : 23566,
                          "scalar" : 1,
                          "metadata" : {
                            "AutoAppliedSmartFocus" : "False",
                            "clipSpeedAttribute" : false
                          }
                        },
                        {
                          "id" : 2547,
                          "_type" : "UnifiedMedia",
                          "video" : 
                              {
                                "id" : 2548,
                                "_type" : "ScreenVMFile",
                                "src" : 3,
                                "trackNumber" : 0,
                                "attributes" : {
                                  "ident" : "Rec 01-28-21_003"
                                },
                                "parameters" : {
                                  "cursorScale" : {
                                    "type" : "double",
                                    "defaultValue" : 0.0,
                                    "interp" : "linr"
                                  },
                                  "cursorOpacity" : {
                                    "type" : "double",
                                    "defaultValue" : 0.0,
                                    "interp" : "linr"
                                  }
                                },
                                "effects" : [

                                ],
                                "start" : 446,
                                "duration" : 63,
                                "mediaStart" : 2290,
                                "mediaDuration" : 63,
                                "scalar" : 1,
                                "animationTracks" : {

                                }
                              },
                          "audio" : 
                              {
                                "id" : 2549,
                                "_type" : "AMFile",
                                "src" : 3,
                                "trackNumber" : 1,
                                "attributes" : {
                                  "ident" : "",
                                  "gain" : 1.0,
                                  "mixToMono" : false
                                },
                                  "channelNumber" : "0,1",
                                "effects" : [

                                ],
                                "start" : 446,
                                "duration" : 63,
                                "mediaStart" : 2290,
                                "mediaDuration" : 63,
                                "scalar" : 1,
                                "animationTracks" : {

                                }
                              }
,
                          "start" : 446,
                          "duration" : 63,
                          "mediaStart" : 0,
                          "mediaDuration" : 23566,
                          "scalar" : 1,
                          "metadata" : {
                            "AutoAppliedSmartFocus" : "False",
                            "clipSpeedAttribute" : false
                          }
                        },
                        {
                          "id" : 2550,
                          "_type" : "UnifiedMedia",
                          "video" : 
                              {
                                "id" : 2551,
                                "_type" : "ScreenVMFile",
                                "src" : 3,
                                "trackNumber" : 0,
                                "attributes" : {
                                  "ident" : "Rec 01-28-21_003"
                                },
                                "parameters" : {
                                  "cursorScale" : {
                                    "type" : "double",
                                    "defaultValue" : 0.0,
                                    "interp" : "linr"
                                  },
                                  "cursorOpacity" : {
                                    "type" : "double",
                                    "defaultValue" : 0.0,
                                    "interp" : "linr"
                                  }
                                },
                                "effects" : [

                                ],
                                "start" : 509,
                                "duration" : 27,
                                "mediaStart" : 2376,
                                "mediaDuration" : 27,
                                "scalar" : 1,
                                "animationTracks" : {

                                }
                              },
                          "audio" : 
                              {
                                "id" : 2552,
                                "_type" : "AMFile",
                                "src" : 3,
                                "trackNumber" : 1,
                                "attributes" : {
                                  "ident" : "",
                                  "gain" : 1.0,
                                  "mixToMono" : false
                                },
                                  "channelNumber" : "0,1",
                                "effects" : [

                                ],
                                "start" : 509,
                                "duration" : 27,
                                "mediaStart" : 2376,
                                "mediaDuration" : 27,
                                "scalar" : 1,
                                "animationTracks" : {

                                }
                              }
,
                          "start" : 509,
                          "duration" : 27,
                          "mediaStart" : 0,
                          "mediaDuration" : 23566,
                          "scalar" : 1,
                          "metadata" : {
                            "AutoAppliedSmartFocus" : "False",
                            "clipSpeedAttribute" : false
                          }
                        },
                        {
                          "id" : 2553,
                          "_type" : "UnifiedMedia",
                          "video" : 
                              {
                                "id" : 2554,
                                "_type" : "ScreenVMFile",
                                "src" : 3,
                                "trackNumber" : 0,
                                "attributes" : {
                                  "ident" : "Rec 01-28-21_003"
                                },
                                "parameters" : {
                                  "cursorScale" : {
                                    "type" : "double",
                                    "defaultValue" : 0.0,
                                    "interp" : "linr"
                                  },
                                  "cursorOpacity" : {
                                    "type" : "double",
                                    "defaultValue" : 0.0,
                                    "interp" : "linr"
                                  }
                                },
                                "effects" : [

                                ],
                                "start" : 536,
                                "duration" : 31,
                                "mediaStart" : 2426,
                                "mediaDuration" : 31,
                                "scalar" : 1,
                                "animationTracks" : {

                                }
                              },
                          "audio" : 
                              {
                                "id" : 2555,
                                "_type" : "AMFile",
                                "src" : 3,
                                "trackNumber" : 1,
                                "attributes" : {
                                  "ident" : "",
                                  "gain" : 1.0,
                                  "mixToMono" : false
                                },
                                  "channelNumber" : "0,1",
                                "effects" : [

                                ],
                                "start" : 536,
                                "duration" : 31,
                                "mediaStart" : 2426,
                                "mediaDuration" : 31,
                                "scalar" : 1,
                                "animationTracks" : {

                                }
                              }
,
                          "start" : 536,
                          "duration" : 31,
                          "mediaStart" : 0,
                          "mediaDuration" : 23566,
                          "scalar" : 1,
                          "metadata" : {
                            "AutoAppliedSmartFocus" : "False",
                            "clipSpeedAttribute" : false
                          }
                        },
                        {
                          "id" : 2556,
                          "_type" : "UnifiedMedia",
                          "video" : 
                              {
                                "id" : 2557,
                                "_type" : "ScreenVMFile",
                                "src" : 3,
                                "trackNumber" : 0,
                                "attributes" : {
                                  "ident" : "Rec 01-28-21_003"
                                },
                                "parameters" : {
                                  "cursorScale" : {
                                    "type" : "double",
                                    "defaultValue" : 0.0,
                                    "interp" : "linr"
                                  },
                                  "cursorOpacity" : {
                                    "type" : "double",
                                    "defaultValue" : 0.0,
                                    "interp" : "linr"
                                  }
                                },
                                "effects" : [

                                ],
                                "start" : 567,
                                "duration" : 25,
                                "mediaStart" : 2496,
                                "mediaDuration" : 25,
                                "scalar" : 1,
                                "animationTracks" : {

                                }
                              },
                          "audio" : 
                              {
                                "id" : 2558,
                                "_type" : "AMFile",
                                "src" : 3,
                                "trackNumber" : 1,
                                "attributes" : {
                                  "ident" : "",
                                  "gain" : 1.0,
                                  "mixToMono" : false
                                },
                                  "channelNumber" : "0,1",
                                "effects" : [

                                ],
                                "start" : 567,
                                "duration" : 25,
                                "mediaStart" : 2496,
                                "mediaDuration" : 25,
                                "scalar" : 1,
                                "animationTracks" : {

                                }
                              }
,
                          "start" : 567,
                          "duration" : 25,
                          "mediaStart" : 0,
                          "mediaDuration" : 23566,
                          "scalar" : 1,
                          "metadata" : {
                            "AutoAppliedSmartFocus" : "False",
                            "clipSpeedAttribute" : false
                          }
                        },
                        {
                          "id" : 2559,
                          "_type" : "UnifiedMedia",
                          "video" : 
                              {
                                "id" : 2560,
                                "_type" : "ScreenVMFile",
                                "src" : 3,
                                "trackNumber" : 0,
                                "attributes" : {
                                  "ident" : "Rec 01-28-21_003"
                                },
                                "parameters" : {
                                  "cursorScale" : {
                                    "type" : "double",
                                    "defaultValue" : 0.0,
                                    "interp" : "linr"
                                  },
                                  "cursorOpacity" : {
                                    "type" : "double",
                                    "defaultValue" : 0.0,
                                    "interp" : "linr"
                                  }
                                },
                                "effects" : [

                                ],
                                "start" : 592,
                                "duration" : 31,
                                "mediaStart" : 2611,
                                "mediaDuration" : 31,
                                "scalar" : 1,
                                "animationTracks" : {

                                }
                              },
                          "audio" : 
                              {
                                "id" : 2561,
                                "_type" : "AMFile",
                                "src" : 3,
                                "trackNumber" : 1,
                                "attributes" : {
                                  "ident" : "",
                                  "gain" : 1.0,
                                  "mixToMono" : false
                                },
                                  "channelNumber" : "0,1",
                                "effects" : [

                                ],
                                "start" : 592,
                                "duration" : 31,
                                "mediaStart" : 2611,
                                "mediaDuration" : 31,
                                "scalar" : 1,
                                "animationTracks" : {

                                }
                              }
,
                          "start" : 592,
                          "duration" : 31,
                          "mediaStart" : 0,
                          "mediaDuration" : 23566,
                          "scalar" : 1,
                          "metadata" : {
                            "AutoAppliedSmartFocus" : "False",
                            "clipSpeedAttribute" : false
                          }
                        },
                        {
                          "id" : 2562,
                          "_type" : "UnifiedMedia",
                          "video" : 
                              {
                                "id" : 2563,
                                "_type" : "ScreenVMFile",
                                "src" : 3,
                                "trackNumber" : 0,
                                "attributes" : {
                                  "ident" : "Rec 01-28-21_003"
                                },
                                "parameters" : {
                                  "cursorScale" : {
                                    "type" : "double",
                                    "defaultValue" : 0.0,
                                    "interp" : "linr"
                                  },
                                  "cursorOpacity" : {
                                    "type" : "double",
                                    "defaultValue" : 0.0,
                                    "interp" : "linr"
                                  }
                                },
                                "effects" : [

                                ],
                                "start" : 623,
                                "duration" : 731,
                                "mediaStart" : 2727,
                                "mediaDuration" : 731,
                                "scalar" : 1,
                                "animationTracks" : {

                                }
                              },
                          "audio" : 
                              {
                                "id" : 2564,
                                "_type" : "AMFile",
                                "src" : 3,
                                "trackNumber" : 1,
                                "attributes" : {
                                  "ident" : "",
                                  "gain" : 1.0,
                                  "mixToMono" : false
                                },
                                  "channelNumber" : "0,1",
                                "effects" : [

                                ],
                                "start" : 623,
                                "duration" : 731,
                                "mediaStart" : 2727,
                                "mediaDuration" : 731,
                                "scalar" : 1,
                                "animationTracks" : {

                                }
                              }
,
                          "start" : 623,
                          "duration" : 731,
                          "mediaStart" : 0,
                          "mediaDuration" : 23566,
                          "scalar" : 1,
                          "metadata" : {
                            "AutoAppliedSmartFocus" : "False",
                            "clipSpeedAttribute" : false
                          }
                        },
                        {
                          "id" : 2565,
                          "_type" : "UnifiedMedia",
                          "video" : 
                              {
                                "id" : 2566,
                                "_type" : "ScreenVMFile",
                                "src" : 3,
                                "trackNumber" : 0,
                                "attributes" : {
                                  "ident" : "Rec 01-28-21_003"
                                },
                                "parameters" : {
                                  "cursorScale" : {
                                    "type" : "double",
                                    "defaultValue" : 0.0,
                                    "interp" : "linr"
                                  },
                                  "cursorOpacity" : {
                                    "type" : "double",
                                    "defaultValue" : 0.0,
                                    "interp" : "linr"
                                  }
                                },
                                "effects" : [

                                ],
                                "start" : 1354,
                                "duration" : 293,
                                "mediaStart" : 3532,
                                "mediaDuration" : 293,
                                "scalar" : 1,
                                "animationTracks" : {

                                }
                              },
                          "audio" : 
                              {
                                "id" : 2567,
                                "_type" : "AMFile",
                                "src" : 3,
                                "trackNumber" : 1,
                                "attributes" : {
                                  "ident" : "",
                                  "gain" : 1.0,
                                  "mixToMono" : false
                                },
                                  "channelNumber" : "0,1",
                                "effects" : [

                                ],
                                "start" : 1354,
                                "duration" : 293,
                                "mediaStart" : 3532,
                                "mediaDuration" : 293,
                                "scalar" : 1,
                                "animationTracks" : {

                                }
                              }
,
                          "start" : 1354,
                          "duration" : 293,
                          "mediaStart" : 0,
                          "mediaDuration" : 23566,
                          "scalar" : 1,
                          "metadata" : {
                            "AutoAppliedSmartFocus" : "False",
                            "clipSpeedAttribute" : false
                          }
                        },
                        {
                          "id" : 2568,
                          "_type" : "UnifiedMedia",
                          "video" : 
                              {
                                "id" : 2569,
                                "_type" : "ScreenVMFile",
                                "src" : 3,
                                "trackNumber" : 0,
                                "attributes" : {
                                  "ident" : "Rec 01-28-21_003"
                                },
                                "parameters" : {
                                  "cursorScale" : {
                                    "type" : "double",
                                    "defaultValue" : 0.0,
                                    "interp" : "linr"
                                  },
                                  "cursorOpacity" : {
                                    "type" : "double",
                                    "defaultValue" : 0.0,
                                    "interp" : "linr"
                                  }
                                },
                                "effects" : [

                                ],
                                "start" : 1647,
                                "duration" : 194,
                                "mediaStart" : 3916,
                                "mediaDuration" : 194,
                                "scalar" : 1,
                                "animationTracks" : {

                                }
                              },
                          "audio" : 
                              {
                                "id" : 2570,
                                "_type" : "AMFile",
                                "src" : 3,
                                "trackNumber" : 1,
                                "attributes" : {
                                  "ident" : "",
                                  "gain" : 1.0,
                                  "mixToMono" : false
                                },
                                  "channelNumber" : "0,1",
                                "effects" : [

                                ],
                                "start" : 1647,
                                "duration" : 194,
                                "mediaStart" : 3916,
                                "mediaDuration" : 194,
                                "scalar" : 1,
                                "animationTracks" : {

                                }
                              }
,
                          "start" : 1647,
                          "duration" : 194,
                          "mediaStart" : 0,
                          "mediaDuration" : 23566,
                          "scalar" : 1,
                          "metadata" : {
                            "AutoAppliedSmartFocus" : "False",
                            "clipSpeedAttribute" : false
                          }
                        },
                        {
                          "id" : 2571,
                          "_type" : "UnifiedMedia",
                          "video" : 
                              {
                                "id" : 2572,
                                "_type" : "ScreenVMFile",
                                "src" : 3,
                                "trackNumber" : 0,
                                "attributes" : {
                                  "ident" : "Rec 01-28-21_003"
                                },
                                "parameters" : {
                                  "cursorScale" : {
                                    "type" : "double",
                                    "defaultValue" : 0.0,
                                    "interp" : "linr"
                                  },
                                  "cursorOpacity" : {
                                    "type" : "double",
                                    "defaultValue" : 0.0,
                                    "interp" : "linr"
                                  }
                                },
                                "effects" : [

                                ],
                                "start" : 1841,
                                "duration" : 37,
                                "mediaStart" : 4201,
                                "mediaDuration" : 37,
                                "scalar" : 1,
                                "animationTracks" : {

                                }
                              },
                          "audio" : 
                              {
                                "id" : 2573,
                                "_type" : "AMFile",
                                "src" : 3,
                                "trackNumber" : 1,
                                "attributes" : {
                                  "ident" : "",
                                  "gain" : 1.0,
                                  "mixToMono" : false
                                },
                                  "channelNumber" : "0,1",
                                "effects" : [

                                ],
                                "start" : 1841,
                                "duration" : 37,
                                "mediaStart" : 4201,
                                "mediaDuration" : 37,
                                "scalar" : 1,
                                "animationTracks" : {

                                }
                              }
,
                          "start" : 1841,
                          "duration" : 37,
                          "mediaStart" : 0,
                          "mediaDuration" : 23566,
                          "scalar" : 1,
                          "metadata" : {
                            "AutoAppliedSmartFocus" : "False",
                            "clipSpeedAttribute" : false
                          }
                        },
                        {
                          "id" : 2574,
                          "_type" : "UnifiedMedia",
                          "video" : 
                              {
                                "id" : 2575,
                                "_type" : "ScreenVMFile",
                                "src" : 3,
                                "trackNumber" : 0,
                                "attributes" : {
                                  "ident" : "Rec 01-28-21_003"
                                },
                                "parameters" : {
                                  "cursorScale" : {
                                    "type" : "double",
                                    "defaultValue" : 0.0,
                                    "interp" : "linr"
                                  },
                                  "cursorOpacity" : {
                                    "type" : "double",
                                    "defaultValue" : 0.0,
                                    "interp" : "linr"
                                  }
                                },
                                "effects" : [

                                ],
                                "start" : 1878,
                                "duration" : 37,
                                "mediaStart" : 4247,
                                "mediaDuration" : 37,
                                "scalar" : 1,
                                "animationTracks" : {

                                }
                              },
                          "audio" : 
                              {
                                "id" : 2576,
                                "_type" : "AMFile",
                                "src" : 3,
                                "trackNumber" : 1,
                                "attributes" : {
                                  "ident" : "",
                                  "gain" : 1.0,
                                  "mixToMono" : false
                                },
                                  "channelNumber" : "0,1",
                                "effects" : [

                                ],
                                "start" : 1878,
                                "duration" : 37,
                                "mediaStart" : 4247,
                                "mediaDuration" : 37,
                                "scalar" : 1,
                                "animationTracks" : {

                                }
                              }
,
                          "start" : 1878,
                          "duration" : 37,
                          "mediaStart" : 0,
                          "mediaDuration" : 23566,
                          "scalar" : 1,
                          "metadata" : {
                            "AutoAppliedSmartFocus" : "False",
                            "clipSpeedAttribute" : false
                          }
                        },
                        {
                          "id" : 2577,
                          "_type" : "UnifiedMedia",
                          "video" : 
                              {
                                "id" : 2578,
                                "_type" : "ScreenVMFile",
                                "src" : 3,
                                "trackNumber" : 0,
                                "attributes" : {
                                  "ident" : "Rec 01-28-21_003"
                                },
                                "parameters" : {
                                  "cursorScale" : {
                                    "type" : "double",
                                    "defaultValue" : 0.0,
                                    "interp" : "linr"
                                  },
                                  "cursorOpacity" : {
                                    "type" : "double",
                                    "defaultValue" : 0.0,
                                    "interp" : "linr"
                                  }
                                },
                                "effects" : [

                                ],
                                "start" : 1915,
                                "duration" : 22,
                                "mediaStart" : 4384,
                                "mediaDuration" : 22,
                                "scalar" : 1,
                                "animationTracks" : {

                                }
                              },
                          "audio" : 
                              {
                                "id" : 2579,
                                "_type" : "AMFile",
                                "src" : 3,
                                "trackNumber" : 1,
                                "attributes" : {
                                  "ident" : "",
                                  "gain" : 1.0,
                                  "mixToMono" : false
                                },
                                  "channelNumber" : "0,1",
                                "effects" : [

                                ],
                                "start" : 1915,
                                "duration" : 22,
                                "mediaStart" : 4384,
                                "mediaDuration" : 22,
                                "scalar" : 1,
                                "animationTracks" : {

                                }
                              }
,
                          "start" : 1915,
                          "duration" : 22,
                          "mediaStart" : 0,
                          "mediaDuration" : 23566,
                          "scalar" : 1,
                          "metadata" : {
                            "AutoAppliedSmartFocus" : "False",
                            "clipSpeedAttribute" : false
                          }
                        },
                        {
                          "id" : 2580,
                          "_type" : "UnifiedMedia",
                          "video" : 
                              {
                                "id" : 2581,
                                "_type" : "ScreenVMFile",
                                "src" : 3,
                                "trackNumber" : 0,
                                "attributes" : {
                                  "ident" : "Rec 01-28-21_003"
                                },
                                "parameters" : {
                                  "cursorScale" : {
                                    "type" : "double",
                                    "defaultValue" : 0.0,
                                    "interp" : "linr"
                                  },
                                  "cursorOpacity" : {
                                    "type" : "double",
                                    "defaultValue" : 0.0,
                                    "interp" : "linr"
                                  }
                                },
                                "effects" : [

                                ],
                                "start" : 1937,
                                "duration" : 34,
                                "mediaStart" : 4420,
                                "mediaDuration" : 34,
                                "scalar" : 1,
                                "animationTracks" : {

                                }
                              },
                          "audio" : 
                              {
                                "id" : 2582,
                                "_type" : "AMFile",
                                "src" : 3,
                                "trackNumber" : 1,
                                "attributes" : {
                                  "ident" : "",
                                  "gain" : 1.0,
                                  "mixToMono" : false
                                },
                                  "channelNumber" : "0,1",
                                "effects" : [

                                ],
                                "start" : 1937,
                                "duration" : 34,
                                "mediaStart" : 4420,
                                "mediaDuration" : 34,
                                "scalar" : 1,
                                "animationTracks" : {

                                }
                              }
,
                          "start" : 1937,
                          "duration" : 34,
                          "mediaStart" : 0,
                          "mediaDuration" : 23566,
                          "scalar" : 1,
                          "metadata" : {
                            "AutoAppliedSmartFocus" : "False",
                            "clipSpeedAttribute" : false
                          }
                        },
                        {
                          "id" : 2583,
                          "_type" : "UnifiedMedia",
                          "video" : 
                              {
                                "id" : 2584,
                                "_type" : "ScreenVMFile",
                                "src" : 3,
                                "trackNumber" : 0,
                                "attributes" : {
                                  "ident" : "Rec 01-28-21_003"
                                },
                                "parameters" : {
                                  "cursorScale" : {
                                    "type" : "double",
                                    "defaultValue" : 0.0,
                                    "interp" : "linr"
                                  },
                                  "cursorOpacity" : {
                                    "type" : "double",
                                    "defaultValue" : 0.0,
                                    "interp" : "linr"
                                  }
                                },
                                "effects" : [

                                ],
                                "start" : 1971,
                                "duration" : 39,
                                "mediaStart" : 4925,
                                "mediaDuration" : 39,
                                "scalar" : 1,
                                "animationTracks" : {

                                }
                              },
                          "audio" : 
                              {
                                "id" : 2585,
                                "_type" : "AMFile",
                                "src" : 3,
                                "trackNumber" : 1,
                                "attributes" : {
                                  "ident" : "",
                                  "gain" : 1.0,
                                  "mixToMono" : false
                                },
                                  "channelNumber" : "0,1",
                                "effects" : [

                                ],
                                "start" : 1971,
                                "duration" : 39,
                                "mediaStart" : 4925,
                                "mediaDuration" : 39,
                                "scalar" : 1,
                                "animationTracks" : {

                                }
                              }
,
                          "start" : 1971,
                          "duration" : 39,
                          "mediaStart" : 0,
                          "mediaDuration" : 23566,
                          "scalar" : 1,
                          "metadata" : {
                            "AutoAppliedSmartFocus" : "False",
                            "clipSpeedAttribute" : false
                          }
                        },
                        {
                          "id" : 2586,
                          "_type" : "UnifiedMedia",
                          "video" : 
                              {
                                "id" : 2587,
                                "_type" : "ScreenVMFile",
                                "src" : 3,
                                "trackNumber" : 0,
                                "attributes" : {
                                  "ident" : "Rec 01-28-21_003"
                                },
                                "parameters" : {
                                  "cursorScale" : {
                                    "type" : "double",
                                    "defaultValue" : 0.0,
                                    "interp" : "linr"
                                  },
                                  "cursorOpacity" : {
                                    "type" : "double",
                                    "defaultValue" : 0.0,
                                    "interp" : "linr"
                                  }
                                },
                                "effects" : [

                                ],
                                "start" : 2010,
                                "duration" : 1866,
                                "mediaStart" : 5106,
                                "mediaDuration" : 1866,
                                "scalar" : 1,
                                "animationTracks" : {

                                }
                              },
                          "audio" : 
                              {
                                "id" : 2588,
                                "_type" : "AMFile",
                                "src" : 3,
                                "trackNumber" : 1,
                                "attributes" : {
                                  "ident" : "",
                                  "gain" : 1.0,
                                  "mixToMono" : false
                                },
                                  "channelNumber" : "0,1",
                                "effects" : [

                                ],
                                "start" : 2010,
                                "duration" : 1866,
                                "mediaStart" : 5106,
                                "mediaDuration" : 1866,
                                "scalar" : 1,
                                "animationTracks" : {

                                }
                              }
,
                          "start" : 2010,
                          "duration" : 1866,
                          "mediaStart" : 0,
                          "mediaDuration" : 23566,
                          "scalar" : 1,
                          "metadata" : {
                            "AutoAppliedSmartFocus" : "False",
                            "clipSpeedAttribute" : false
                          }
                        },
                        {
                          "id" : 2589,
                          "_type" : "UnifiedMedia",
                          "video" : 
                              {
                                "id" : 2590,
                                "_type" : "ScreenVMFile",
                                "src" : 3,
                                "trackNumber" : 0,
                                "attributes" : {
                                  "ident" : "Rec 01-28-21_003"
                                },
                                "parameters" : {
                                  "cursorScale" : {
                                    "type" : "double",
                                    "defaultValue" : 0.0,
                                    "interp" : "linr"
                                  },
                                  "cursorOpacity" : {
                                    "type" : "double",
                                    "defaultValue" : 0.0,
                                    "interp" : "linr"
                                  }
                                },
                                "effects" : [

                                ],
                                "start" : 3876,
                                "duration" : 160,
                                "mediaStart" : 7099,
                                "mediaDuration" : 160,
                                "scalar" : 1,
                                "animationTracks" : {

                                }
                              },
                          "audio" : 
                              {
                                "id" : 2591,
                                "_type" : "AMFile",
                                "src" : 3,
                                "trackNumber" : 1,
                                "attributes" : {
                                  "ident" : "",
                                  "gain" : 1.0,
                                  "mixToMono" : false
                                },
                                  "channelNumber" : "0,1",
                                "effects" : [

                                ],
                                "start" : 3876,
                                "duration" : 160,
                                "mediaStart" : 7099,
                                "mediaDuration" : 160,
                                "scalar" : 1,
                                "animationTracks" : {

                                }
                              }
,
                          "start" : 3876,
                          "duration" : 160,
                          "mediaStart" : 0,
                          "mediaDuration" : 23566,
                          "scalar" : 1,
                          "metadata" : {
                            "AutoAppliedSmartFocus" : "False",
                            "clipSpeedAttribute" : false
                          }
                        },
                        {
                          "id" : 2592,
                          "_type" : "UnifiedMedia",
                          "video" : 
                              {
                                "id" : 2593,
                                "_type" : "ScreenVMFile",
                                "src" : 3,
                                "trackNumber" : 0,
                                "attributes" : {
                                  "ident" : "Rec 01-28-21_003"
                                },
                                "parameters" : {
                                  "cursorScale" : {
                                    "type" : "double",
                                    "defaultValue" : 0.0,
                                    "interp" : "linr"
                                  },
                                  "cursorOpacity" : {
                                    "type" : "double",
                                    "defaultValue" : 0.0,
                                    "interp" : "linr"
                                  }
                                },
                                "effects" : [

                                ],
                                "start" : 4036,
                                "duration" : 275,
                                "mediaStart" : 7439,
                                "mediaDuration" : 275,
                                "scalar" : 1,
                                "animationTracks" : {

                                }
                              },
                          "audio" : 
                              {
                                "id" : 2594,
                                "_type" : "AMFile",
                                "src" : 3,
                                "trackNumber" : 1,
                                "attributes" : {
                                  "ident" : "",
                                  "gain" : 1.0,
                                  "mixToMono" : false
                                },
                                  "channelNumber" : "0,1",
                                "effects" : [

                                ],
                                "start" : 4036,
                                "duration" : 275,
                                "mediaStart" : 7439,
                                "mediaDuration" : 275,
                                "scalar" : 1,
                                "animationTracks" : {

                                }
                              }
,
                          "start" : 4036,
                          "duration" : 275,
                          "mediaStart" : 0,
                          "mediaDuration" : 23566,
                          "scalar" : 1,
                          "metadata" : {
                            "AutoAppliedSmartFocus" : "False",
                            "clipSpeedAttribute" : false
                          }
                        },
                        {
                          "id" : 2595,
                          "_type" : "UnifiedMedia",
                          "video" : 
                              {
                                "id" : 2596,
                                "_type" : "ScreenVMFile",
                                "src" : 3,
                                "trackNumber" : 0,
                                "attributes" : {
                                  "ident" : "Rec 01-28-21_003"
                                },
                                "parameters" : {
                                  "cursorScale" : {
                                    "type" : "double",
                                    "defaultValue" : 0.0,
                                    "interp" : "linr"
                                  },
                                  "cursorOpacity" : {
                                    "type" : "double",
                                    "defaultValue" : 0.0,
                                    "interp" : "linr"
                                  }
                                },
                                "effects" : [

                                ],
                                "start" : 4311,
                                "duration" : 3,
                                "mediaStart" : 7841,
                                "mediaDuration" : 3,
                                "scalar" : 1,
                                "animationTracks" : {

                                }
                              },
                          "audio" : 
                              {
                                "id" : 2597,
                                "_type" : "AMFile",
                                "src" : 3,
                                "trackNumber" : 1,
                                "attributes" : {
                                  "ident" : "",
                                  "gain" : 1.0,
                                  "mixToMono" : false
                                },
                                  "channelNumber" : "0,1",
                                "effects" : [

                                ],
                                "start" : 4311,
                                "duration" : 3,
                                "mediaStart" : 7841,
                                "mediaDuration" : 3,
                                "scalar" : 1,
                                "animationTracks" : {

                                }
                              }
,
                          "start" : 4311,
                          "duration" : 3,
                          "mediaStart" : 0,
                          "mediaDuration" : 23566,
                          "scalar" : 1,
                          "metadata" : {
                            "AutoAppliedSmartFocus" : "False",
                            "clipSpeedAttribute" : false
                          }
                        },
                        {
                          "id" : 2598,
                          "_type" : "UnifiedMedia",
                          "video" : 
                              {
                                "id" : 2599,
                                "_type" : "ScreenVMFile",
                                "src" : 3,
                                "trackNumber" : 0,
                                "attributes" : {
                                  "ident" : "Rec 01-28-21_003"
                                },
                                "parameters" : {
                                  "cursorScale" : {
                                    "type" : "double",
                                    "defaultValue" : 0.0,
                                    "interp" : "linr"
                                  },
                                  "cursorOpacity" : {
                                    "type" : "double",
                                    "defaultValue" : 0.0,
                                    "interp" : "linr"
                                  }
                                },
                                "effects" : [

                                ],
                                "start" : 4314,
                                "duration" : 73,
                                "mediaStart" : 8276,
                                "mediaDuration" : 73,
                                "scalar" : 1,
                                "animationTracks" : {

                                }
                              },
                          "audio" : 
                              {
                                "id" : 2600,
                                "_type" : "AMFile",
                                "src" : 3,
                                "trackNumber" : 1,
                                "attributes" : {
                                  "ident" : "",
                                  "gain" : 1.0,
                                  "mixToMono" : false
                                },
                                  "channelNumber" : "0,1",
                                "effects" : [

                                ],
                                "start" : 4314,
                                "duration" : 73,
                                "mediaStart" : 8276,
                                "mediaDuration" : 73,
                                "scalar" : 1,
                                "animationTracks" : {

                                }
                              }
,
                          "start" : 4314,
                          "duration" : 73,
                          "mediaStart" : 0,
                          "mediaDuration" : 23566,
                          "scalar" : 1,
                          "metadata" : {
                            "AutoAppliedSmartFocus" : "False",
                            "clipSpeedAttribute" : false
                          }
                        },
                        {
                          "id" : 2601,
                          "_type" : "UnifiedMedia",
                          "video" : 
                              {
                                "id" : 2602,
                                "_type" : "ScreenVMFile",
                                "src" : 3,
                                "trackNumber" : 0,
                                "attributes" : {
                                  "ident" : "Rec 01-28-21_003"
                                },
                                "parameters" : {
                                  "cursorScale" : {
                                    "type" : "double",
                                    "defaultValue" : 0.0,
                                    "interp" : "linr"
                                  },
                                  "cursorOpacity" : {
                                    "type" : "double",
                                    "defaultValue" : 0.0,
                                    "interp" : "linr"
                                  }
                                },
                                "effects" : [

                                ],
                                "start" : 4387,
                                "duration" : 982,
                                "mediaStart" : 8431,
                                "mediaDuration" : 982,
                                "scalar" : 1,
                                "animationTracks" : {

                                }
                              },
                          "audio" : 
                              {
                                "id" : 2603,
                                "_type" : "AMFile",
                                "src" : 3,
                                "trackNumber" : 1,
                                "attributes" : {
                                  "ident" : "",
                                  "gain" : 1.0,
                                  "mixToMono" : false
                                },
                                  "channelNumber" : "0,1",
                                "effects" : [

                                ],
                                "start" : 4387,
                                "duration" : 982,
                                "mediaStart" : 8431,
                                "mediaDuration" : 982,
                                "scalar" : 1,
                                "animationTracks" : {

                                }
                              }
,
                          "start" : 4387,
                          "duration" : 982,
                          "mediaStart" : 0,
                          "mediaDuration" : 23566,
                          "scalar" : 1,
                          "metadata" : {
                            "AutoAppliedSmartFocus" : "False",
                            "clipSpeedAttribute" : false
                          }
                        },
                        {
                          "id" : 2604,
                          "_type" : "UnifiedMedia",
                          "video" : 
                              {
                                "id" : 2605,
                                "_type" : "ScreenVMFile",
                                "src" : 3,
                                "trackNumber" : 0,
                                "attributes" : {
                                  "ident" : "Rec 01-28-21_003"
                                },
                                "parameters" : {
                                  "cursorScale" : {
                                    "type" : "double",
                                    "defaultValue" : 0.0,
                                    "interp" : "linr"
                                  },
                                  "cursorOpacity" : {
                                    "type" : "double",
                                    "defaultValue" : 0.0,
                                    "interp" : "linr"
                                  }
                                },
                                "effects" : [

                                ],
                                "start" : 5369,
                                "duration" : 473,
                                "mediaStart" : 9469,
                                "mediaDuration" : 473,
                                "scalar" : 1,
                                "animationTracks" : {

                                }
                              },
                          "audio" : 
                              {
                                "id" : 2606,
                                "_type" : "AMFile",
                                "src" : 3,
                                "trackNumber" : 1,
                                "attributes" : {
                                  "ident" : "",
                                  "gain" : 1.0,
                                  "mixToMono" : false
                                },
                                  "channelNumber" : "0,1",
                                "effects" : [

                                ],
                                "start" : 5369,
                                "duration" : 473,
                                "mediaStart" : 9469,
                                "mediaDuration" : 473,
                                "scalar" : 1,
                                "animationTracks" : {

                                }
                              }
,
                          "start" : 5369,
                          "duration" : 473,
                          "mediaStart" : 0,
                          "mediaDuration" : 23566,
                          "scalar" : 1,
                          "metadata" : {
                            "AutoAppliedSmartFocus" : "False",
                            "clipSpeedAttribute" : false
                          }
                        },
                        {
                          "id" : 2607,
                          "_type" : "UnifiedMedia",
                          "video" : 
                              {
                                "id" : 2608,
                                "_type" : "ScreenVMFile",
                                "src" : 3,
                                "trackNumber" : 0,
                                "attributes" : {
                                  "ident" : "Rec 01-28-21_003"
                                },
                                "parameters" : {
                                  "cursorScale" : {
                                    "type" : "double",
                                    "defaultValue" : 0.0,
                                    "interp" : "linr"
                                  },
                                  "cursorOpacity" : {
                                    "type" : "double",
                                    "defaultValue" : 0.0,
                                    "interp" : "linr"
                                  }
                                },
                                "effects" : [

                                ],
                                "start" : 5842,
                                "duration" : 166,
                                "mediaStart" : 10778,
                                "mediaDuration" : 166,
                                "scalar" : 1,
                                "animationTracks" : {

                                }
                              },
                          "audio" : 
                              {
                                "id" : 2609,
                                "_type" : "AMFile",
                                "src" : 3,
                                "trackNumber" : 1,
                                "attributes" : {
                                  "ident" : "",
                                  "gain" : 1.0,
                                  "mixToMono" : false
                                },
                                  "channelNumber" : "0,1",
                                "effects" : [

                                ],
                                "start" : 5842,
                                "duration" : 166,
                                "mediaStart" : 10778,
                                "mediaDuration" : 166,
                                "scalar" : 1,
                                "animationTracks" : {

                                }
                              }
,
                          "start" : 5842,
                          "duration" : 166,
                          "mediaStart" : 0,
                          "mediaDuration" : 23566,
                          "scalar" : 1,
                          "metadata" : {
                            "AutoAppliedSmartFocus" : "False",
                            "clipSpeedAttribute" : false
                          }
                        },
                        {
                          "id" : 2610,
                          "_type" : "UnifiedMedia",
                          "video" : 
                              {
                                "id" : 2611,
                                "_type" : "ScreenVMFile",
                                "src" : 3,
                                "trackNumber" : 0,
                                "attributes" : {
                                  "ident" : "Rec 01-28-21_003"
                                },
                                "parameters" : {
                                  "cursorScale" : {
                                    "type" : "double",
                                    "defaultValue" : 0.0,
                                    "interp" : "linr"
                                  },
                                  "cursorOpacity" : {
                                    "type" : "double",
                                    "defaultValue" : 0.0,
                                    "interp" : "linr"
                                  }
                                },
                                "effects" : [

                                ],
                                "start" : 6008,
                                "duration" : 125,
                                "mediaStart" : 11423,
                                "mediaDuration" : 125,
                                "scalar" : 1,
                                "animationTracks" : {

                                }
                              },
                          "audio" : 
                              {
                                "id" : 2612,
                                "_type" : "AMFile",
                                "src" : 3,
                                "trackNumber" : 1,
                                "attributes" : {
                                  "ident" : "",
                                  "gain" : 1.0,
                                  "mixToMono" : false
                                },
                                  "channelNumber" : "0,1",
                                "effects" : [

                                ],
                                "start" : 6008,
                                "duration" : 125,
                                "mediaStart" : 11423,
                                "mediaDuration" : 125,
                                "scalar" : 1,
                                "animationTracks" : {

                                }
                              }
,
                          "start" : 6008,
                          "duration" : 125,
                          "mediaStart" : 0,
                          "mediaDuration" : 23566,
                          "scalar" : 1,
                          "metadata" : {
                            "AutoAppliedSmartFocus" : "False",
                            "clipSpeedAttribute" : false
                          }
                        },
                        {
                          "id" : 2613,
                          "_type" : "UnifiedMedia",
                          "video" : 
                              {
                                "id" : 2614,
                                "_type" : "ScreenVMFile",
                                "src" : 3,
                                "trackNumber" : 0,
                                "attributes" : {
                                  "ident" : "Rec 01-28-21_003"
                                },
                                "parameters" : {
                                  "cursorScale" : {
                                    "type" : "double",
                                    "defaultValue" : 0.0,
                                    "interp" : "linr"
                                  },
                                  "cursorOpacity" : {
                                    "type" : "double",
                                    "defaultValue" : 0.0,
                                    "interp" : "linr"
                                  }
                                },
                                "effects" : [

                                ],
                                "start" : 6133,
                                "duration" : 42,
                                "mediaStart" : 11583,
                                "mediaDuration" : 42,
                                "scalar" : 1,
                                "animationTracks" : {

                                }
                              },
                          "audio" : 
                              {
                                "id" : 2615,
                                "_type" : "AMFile",
                                "src" : 3,
                                "trackNumber" : 1,
                                "attributes" : {
                                  "ident" : "",
                                  "gain" : 1.0,
                                  "mixToMono" : false
                                },
                                  "channelNumber" : "0,1",
                                "effects" : [

                                ],
                                "start" : 6133,
                                "duration" : 42,
                                "mediaStart" : 11583,
                                "mediaDuration" : 42,
                                "scalar" : 1,
                                "animationTracks" : {

                                }
                              }
,
                          "start" : 6133,
                          "duration" : 42,
                          "mediaStart" : 0,
                          "mediaDuration" : 23566,
                          "scalar" : 1,
                          "metadata" : {
                            "AutoAppliedSmartFocus" : "False",
                            "clipSpeedAttribute" : false
                          }
                        },
                        {
                          "id" : 2616,
                          "_type" : "UnifiedMedia",
                          "video" : 
                              {
                                "id" : 2617,
                                "_type" : "ScreenVMFile",
                                "src" : 3,
                                "trackNumber" : 0,
                                "attributes" : {
                                  "ident" : "Rec 01-28-21_003"
                                },
                                "parameters" : {
                                  "cursorScale" : {
                                    "type" : "double",
                                    "defaultValue" : 0.0,
                                    "interp" : "linr"
                                  },
                                  "cursorOpacity" : {
                                    "type" : "double",
                                    "defaultValue" : 0.0,
                                    "interp" : "linr"
                                  }
                                },
                                "effects" : [

                                ],
                                "start" : 6175,
                                "duration" : 82,
                                "mediaStart" : 11656,
                                "mediaDuration" : 82,
                                "scalar" : 1,
                                "animationTracks" : {

                                }
                              },
                          "audio" : 
                              {
                                "id" : 2618,
                                "_type" : "AMFile",
                                "src" : 3,
                                "trackNumber" : 1,
                                "attributes" : {
                                  "ident" : "",
                                  "gain" : 1.0,
                                  "mixToMono" : false
                                },
                                  "channelNumber" : "0,1",
                                "effects" : [

                                ],
                                "start" : 6175,
                                "duration" : 82,
                                "mediaStart" : 11656,
                                "mediaDuration" : 82,
                                "scalar" : 1,
                                "animationTracks" : {

                                }
                              }
,
                          "start" : 6175,
                          "duration" : 82,
                          "mediaStart" : 0,
                          "mediaDuration" : 23566,
                          "scalar" : 1,
                          "metadata" : {
                            "AutoAppliedSmartFocus" : "False",
                            "clipSpeedAttribute" : false
                          }
                        },
                        {
                          "id" : 2619,
                          "_type" : "UnifiedMedia",
                          "video" : 
                              {
                                "id" : 2620,
                                "_type" : "ScreenVMFile",
                                "src" : 3,
                                "trackNumber" : 0,
                                "attributes" : {
                                  "ident" : "Rec 01-28-21_003"
                                },
                                "parameters" : {
                                  "cursorScale" : {
                                    "type" : "double",
                                    "defaultValue" : 0.0,
                                    "interp" : "linr"
                                  },
                                  "cursorOpacity" : {
                                    "type" : "double",
                                    "defaultValue" : 0.0,
                                    "interp" : "linr"
                                  }
                                },
                                "effects" : [

                                ],
                                "start" : 6257,
                                "duration" : 63,
                                "mediaStart" : 11866,
                                "mediaDuration" : 63,
                                "scalar" : 1,
                                "animationTracks" : {

                                }
                              },
                          "audio" : 
                              {
                                "id" : 2621,
                                "_type" : "AMFile",
                                "src" : 3,
                                "trackNumber" : 1,
                                "attributes" : {
                                  "ident" : "",
                                  "gain" : 1.0,
                                  "mixToMono" : false
                                },
                                  "channelNumber" : "0,1",
                                "effects" : [

                                ],
                                "start" : 6257,
                                "duration" : 63,
                                "mediaStart" : 11866,
                                "mediaDuration" : 63,
                                "scalar" : 1,
                                "animationTracks" : {

                                }
                              }
,
                          "start" : 6257,
                          "duration" : 63,
                          "mediaStart" : 0,
                          "mediaDuration" : 23566,
                          "scalar" : 1,
                          "metadata" : {
                            "AutoAppliedSmartFocus" : "False",
                            "clipSpeedAttribute" : false
                          }
                        },
                        {
                          "id" : 2622,
                          "_type" : "UnifiedMedia",
                          "video" : 
                              {
                                "id" : 2623,
                                "_type" : "ScreenVMFile",
                                "src" : 3,
                                "trackNumber" : 0,
                                "attributes" : {
                                  "ident" : "Rec 01-28-21_003"
                                },
                                "parameters" : {
                                  "cursorScale" : {
                                    "type" : "double",
                                    "defaultValue" : 0.0,
                                    "interp" : "linr"
                                  },
                                  "cursorOpacity" : {
                                    "type" : "double",
                                    "defaultValue" : 0.0,
                                    "interp" : "linr"
                                  }
                                },
                                "effects" : [

                                ],
                                "start" : 6320,
                                "duration" : 111,
                                "mediaStart" : 11962,
                                "mediaDuration" : 111,
                                "scalar" : 1,
                                "animationTracks" : {

                                }
                              },
                          "audio" : 
                              {
                                "id" : 2624,
                                "_type" : "AMFile",
                                "src" : 3,
                                "trackNumber" : 1,
                                "attributes" : {
                                  "ident" : "",
                                  "gain" : 1.0,
                                  "mixToMono" : false
                                },
                                  "channelNumber" : "0,1",
                                "effects" : [

                                ],
                                "start" : 6320,
                                "duration" : 111,
                                "mediaStart" : 11962,
                                "mediaDuration" : 111,
                                "scalar" : 1,
                                "animationTracks" : {

                                }
                              }
,
                          "start" : 6320,
                          "duration" : 111,
                          "mediaStart" : 0,
                          "mediaDuration" : 23566,
                          "scalar" : 1,
                          "metadata" : {
                            "AutoAppliedSmartFocus" : "False",
                            "clipSpeedAttribute" : false
                          }
                        },
                        {
                          "id" : 2625,
                          "_type" : "UnifiedMedia",
                          "video" : 
                              {
                                "id" : 2626,
                                "_type" : "ScreenVMFile",
                                "src" : 3,
                                "trackNumber" : 0,
                                "attributes" : {
                                  "ident" : "Rec 01-28-21_003"
                                },
                                "parameters" : {
                                  "cursorScale" : {
                                    "type" : "double",
                                    "defaultValue" : 0.0,
                                    "interp" : "linr"
                                  },
                                  "cursorOpacity" : {
                                    "type" : "double",
                                    "defaultValue" : 0.0,
                                    "interp" : "linr"
                                  }
                                },
                                "effects" : [

                                ],
                                "start" : 6431,
                                "duration" : 1088,
                                "mediaStart" : 12342,
                                "mediaDuration" : 1088,
                                "scalar" : 1,
                                "animationTracks" : {

                                }
                              },
                          "audio" : 
                              {
                                "id" : 2627,
                                "_type" : "AMFile",
                                "src" : 3,
                                "trackNumber" : 1,
                                "attributes" : {
                                  "ident" : "",
                                  "gain" : 1.0,
                                  "mixToMono" : false
                                },
                                  "channelNumber" : "0,1",
                                "effects" : [

                                ],
                                "start" : 6431,
                                "duration" : 1088,
                                "mediaStart" : 12342,
                                "mediaDuration" : 1088,
                                "scalar" : 1,
                                "animationTracks" : {

                                }
                              }
,
                          "start" : 6431,
                          "duration" : 1088,
                          "mediaStart" : 0,
                          "mediaDuration" : 23566,
                          "scalar" : 1,
                          "metadata" : {
                            "AutoAppliedSmartFocus" : "False",
                            "clipSpeedAttribute" : false
                          }
                        },
                        {
                          "id" : 2628,
                          "_type" : "UnifiedMedia",
                          "video" : 
                              {
                                "id" : 2629,
                                "_type" : "ScreenVMFile",
                                "src" : 3,
                                "trackNumber" : 0,
                                "attributes" : {
                                  "ident" : "Rec 01-28-21_003"
                                },
                                "parameters" : {
                                  "cursorScale" : {
                                    "type" : "double",
                                    "defaultValue" : 0.0,
                                    "interp" : "linr"
                                  },
                                  "cursorOpacity" : {
                                    "type" : "double",
                                    "defaultValue" : 0.0,
                                    "interp" : "linr"
                                  }
                                },
                                "effects" : [

                                ],
                                "start" : 7519,
                                "duration" : 9861,
                                "mediaStart" : 13705,
                                "mediaDuration" : 9861,
                                "scalar" : 1,
                                "animationTracks" : {

                                }
                              },
                          "audio" : 
                              {
                                "id" : 2630,
                                "_type" : "AMFile",
                                "src" : 3,
                                "trackNumber" : 1,
                                "attributes" : {
                                  "ident" : "",
                                  "gain" : 1.0,
                                  "mixToMono" : false
                                },
                                  "channelNumber" : "0,1",
                                "effects" : [

                                ],
                                "start" : 7519,
                                "duration" : 9861,
                                "mediaStart" : 13705,
                                "mediaDuration" : 9861,
                                "scalar" : 1,
                                "animationTracks" : {

                                }
                              }
,
                          "start" : 7519,
                          "duration" : 9861,
                          "mediaStart" : 0,
                          "mediaDuration" : 23566,
                          "scalar" : 1,
                          "metadata" : {
                            "AutoAppliedSmartFocus" : "False",
                            "clipSpeedAttribute" : false
                          }
                        }
                    ],
                    "effects" : [

                    ],
                    "start" : 15405,
                    "duration" : 213,
                    "mediaStart" : 7349,
                    "mediaDuration" : 213,
                    "scalar" : 1,
                    "metadata" : {
                      "AutoAppliedSmartFocus" : "False",
                      "clipSpeedAttribute" : false
                    },
                    "animationTracks" : {

                    }
                  },
                  {
                    "id" : 2631,
                    "_type" : "StitchedMedia",
                    "minMediaStart" : 0,
                    "attributes" : {
                      "ident" : "Rec 01-28-21_003",
                      "gain" : 1.0,
                      "mixToMono" : false
                    },
                    "parameters" : {
                      "volume" : 1.0,
                      "cursorOpacity" : 1.0,
                      "cursorScale" : 1.0
                    },
                    "medias" : [
                        {
                          "id" : 2632,
                          "_type" : "UnifiedMedia",
                          "video" : 
                              {
                                "id" : 2633,
                                "_type" : "ScreenVMFile",
                                "src" : 3,
                                "trackNumber" : 0,
                                "attributes" : {
                                  "ident" : "Rec 01-28-21_003"
                                },
                                "parameters" : {
                                  "cursorScale" : {
                                    "type" : "double",
                                    "defaultValue" : 0.0,
                                    "interp" : "linr"
                                  },
                                  "cursorOpacity" : {
                                    "type" : "double",
                                    "defaultValue" : 0.0,
                                    "interp" : "linr"
                                  }
                                },
                                "effects" : [

                                ],
                                "start" : 0,
                                "duration" : 9,
                                "mediaStart" : 0,
                                "mediaDuration" : 9,
                                "scalar" : 1,
                                "animationTracks" : {

                                }
                              },
                          "audio" : 
                              {
                                "id" : 2634,
                                "_type" : "AMFile",
                                "src" : 3,
                                "trackNumber" : 1,
                                "attributes" : {
                                  "ident" : "",
                                  "gain" : 1.0,
                                  "mixToMono" : false
                                },
                                  "channelNumber" : "0,1",
                                "effects" : [

                                ],
                                "start" : 0,
                                "duration" : 9,
                                "mediaStart" : 0,
                                "mediaDuration" : 9,
                                "scalar" : 1,
                                "animationTracks" : {

                                }
                              }
,
                          "start" : 0,
                          "duration" : 9,
                          "mediaStart" : 0,
                          "mediaDuration" : 23566,
                          "scalar" : 1,
                          "metadata" : {
                            "AutoAppliedSmartFocus" : "False",
                            "clipSpeedAttribute" : false
                          }
                        },
                        {
                          "id" : 2635,
                          "_type" : "UnifiedMedia",
                          "video" : 
                              {
                                "id" : 2636,
                                "_type" : "ScreenVMFile",
                                "src" : 3,
                                "trackNumber" : 0,
                                "attributes" : {
                                  "ident" : "Rec 01-28-21_003"
                                },
                                "parameters" : {
                                  "cursorScale" : {
                                    "type" : "double",
                                    "defaultValue" : 0.0,
                                    "interp" : "linr"
                                  },
                                  "cursorOpacity" : {
                                    "type" : "double",
                                    "defaultValue" : 0.0,
                                    "interp" : "linr"
                                  }
                                },
                                "effects" : [

                                ],
                                "start" : 9,
                                "duration" : 47,
                                "mediaStart" : 1540,
                                "mediaDuration" : 47,
                                "scalar" : 1,
                                "animationTracks" : {

                                }
                              },
                          "audio" : 
                              {
                                "id" : 2637,
                                "_type" : "AMFile",
                                "src" : 3,
                                "trackNumber" : 1,
                                "attributes" : {
                                  "ident" : "",
                                  "gain" : 1.0,
                                  "mixToMono" : false
                                },
                                  "channelNumber" : "0,1",
                                "effects" : [

                                ],
                                "start" : 9,
                                "duration" : 47,
                                "mediaStart" : 1540,
                                "mediaDuration" : 47,
                                "scalar" : 1,
                                "animationTracks" : {

                                }
                              }
,
                          "start" : 9,
                          "duration" : 47,
                          "mediaStart" : 0,
                          "mediaDuration" : 23566,
                          "scalar" : 1,
                          "metadata" : {
                            "AutoAppliedSmartFocus" : "False",
                            "clipSpeedAttribute" : false
                          }
                        },
                        {
                          "id" : 2638,
                          "_type" : "UnifiedMedia",
                          "video" : 
                              {
                                "id" : 2639,
                                "_type" : "ScreenVMFile",
                                "src" : 3,
                                "trackNumber" : 0,
                                "attributes" : {
                                  "ident" : "Rec 01-28-21_003"
                                },
                                "parameters" : {
                                  "cursorScale" : {
                                    "type" : "double",
                                    "defaultValue" : 0.0,
                                    "interp" : "linr"
                                  },
                                  "cursorOpacity" : {
                                    "type" : "double",
                                    "defaultValue" : 0.0,
                                    "interp" : "linr"
                                  }
                                },
                                "effects" : [

                                ],
                                "start" : 56,
                                "duration" : 35,
                                "mediaStart" : 1641,
                                "mediaDuration" : 35,
                                "scalar" : 1,
                                "animationTracks" : {

                                }
                              },
                          "audio" : 
                              {
                                "id" : 2640,
                                "_type" : "AMFile",
                                "src" : 3,
                                "trackNumber" : 1,
                                "attributes" : {
                                  "ident" : "",
                                  "gain" : 1.0,
                                  "mixToMono" : false
                                },
                                  "channelNumber" : "0,1",
                                "effects" : [

                                ],
                                "start" : 56,
                                "duration" : 35,
                                "mediaStart" : 1641,
                                "mediaDuration" : 35,
                                "scalar" : 1,
                                "animationTracks" : {

                                }
                              }
,
                          "start" : 56,
                          "duration" : 35,
                          "mediaStart" : 0,
                          "mediaDuration" : 23566,
                          "scalar" : 1,
                          "metadata" : {
                            "AutoAppliedSmartFocus" : "False",
                            "clipSpeedAttribute" : false
                          }
                        },
                        {
                          "id" : 2641,
                          "_type" : "UnifiedMedia",
                          "video" : 
                              {
                                "id" : 2642,
                                "_type" : "ScreenVMFile",
                                "src" : 3,
                                "trackNumber" : 0,
                                "attributes" : {
                                  "ident" : "Rec 01-28-21_003"
                                },
                                "parameters" : {
                                  "cursorScale" : {
                                    "type" : "double",
                                    "defaultValue" : 0.0,
                                    "interp" : "linr"
                                  },
                                  "cursorOpacity" : {
                                    "type" : "double",
                                    "defaultValue" : 0.0,
                                    "interp" : "linr"
                                  }
                                },
                                "effects" : [

                                ],
                                "start" : 91,
                                "duration" : 73,
                                "mediaStart" : 1702,
                                "mediaDuration" : 73,
                                "scalar" : 1,
                                "animationTracks" : {

                                }
                              },
                          "audio" : 
                              {
                                "id" : 2643,
                                "_type" : "AMFile",
                                "src" : 3,
                                "trackNumber" : 1,
                                "attributes" : {
                                  "ident" : "",
                                  "gain" : 1.0,
                                  "mixToMono" : false
                                },
                                  "channelNumber" : "0,1",
                                "effects" : [

                                ],
                                "start" : 91,
                                "duration" : 73,
                                "mediaStart" : 1702,
                                "mediaDuration" : 73,
                                "scalar" : 1,
                                "animationTracks" : {

                                }
                              }
,
                          "start" : 91,
                          "duration" : 73,
                          "mediaStart" : 0,
                          "mediaDuration" : 23566,
                          "scalar" : 1,
                          "metadata" : {
                            "AutoAppliedSmartFocus" : "False",
                            "clipSpeedAttribute" : false
                          }
                        },
                        {
                          "id" : 2644,
                          "_type" : "UnifiedMedia",
                          "video" : 
                              {
                                "id" : 2645,
                                "_type" : "ScreenVMFile",
                                "src" : 3,
                                "trackNumber" : 0,
                                "attributes" : {
                                  "ident" : "Rec 01-28-21_003"
                                },
                                "parameters" : {
                                  "cursorScale" : {
                                    "type" : "double",
                                    "defaultValue" : 0.0,
                                    "interp" : "linr"
                                  },
                                  "cursorOpacity" : {
                                    "type" : "double",
                                    "defaultValue" : 0.0,
                                    "interp" : "linr"
                                  }
                                },
                                "effects" : [

                                ],
                                "start" : 164,
                                "duration" : 122,
                                "mediaStart" : 1849,
                                "mediaDuration" : 122,
                                "scalar" : 1,
                                "animationTracks" : {

                                }
                              },
                          "audio" : 
                              {
                                "id" : 2646,
                                "_type" : "AMFile",
                                "src" : 3,
                                "trackNumber" : 1,
                                "attributes" : {
                                  "ident" : "",
                                  "gain" : 1.0,
                                  "mixToMono" : false
                                },
                                  "channelNumber" : "0,1",
                                "effects" : [

                                ],
                                "start" : 164,
                                "duration" : 122,
                                "mediaStart" : 1849,
                                "mediaDuration" : 122,
                                "scalar" : 1,
                                "animationTracks" : {

                                }
                              }
,
                          "start" : 164,
                          "duration" : 122,
                          "mediaStart" : 0,
                          "mediaDuration" : 23566,
                          "scalar" : 1,
                          "metadata" : {
                            "AutoAppliedSmartFocus" : "False",
                            "clipSpeedAttribute" : false
                          }
                        },
                        {
                          "id" : 2647,
                          "_type" : "UnifiedMedia",
                          "video" : 
                              {
                                "id" : 2648,
                                "_type" : "ScreenVMFile",
                                "src" : 3,
                                "trackNumber" : 0,
                                "attributes" : {
                                  "ident" : "Rec 01-28-21_003"
                                },
                                "parameters" : {
                                  "cursorScale" : {
                                    "type" : "double",
                                    "defaultValue" : 0.0,
                                    "interp" : "linr"
                                  },
                                  "cursorOpacity" : {
                                    "type" : "double",
                                    "defaultValue" : 0.0,
                                    "interp" : "linr"
                                  }
                                },
                                "effects" : [

                                ],
                                "start" : 286,
                                "duration" : 38,
                                "mediaStart" : 2036,
                                "mediaDuration" : 38,
                                "scalar" : 1,
                                "animationTracks" : {

                                }
                              },
                          "audio" : 
                              {
                                "id" : 2649,
                                "_type" : "AMFile",
                                "src" : 3,
                                "trackNumber" : 1,
                                "attributes" : {
                                  "ident" : "",
                                  "gain" : 1.0,
                                  "mixToMono" : false
                                },
                                  "channelNumber" : "0,1",
                                "effects" : [

                                ],
                                "start" : 286,
                                "duration" : 38,
                                "mediaStart" : 2036,
                                "mediaDuration" : 38,
                                "scalar" : 1,
                                "animationTracks" : {

                                }
                              }
,
                          "start" : 286,
                          "duration" : 38,
                          "mediaStart" : 0,
                          "mediaDuration" : 23566,
                          "scalar" : 1,
                          "metadata" : {
                            "AutoAppliedSmartFocus" : "False",
                            "clipSpeedAttribute" : false
                          }
                        },
                        {
                          "id" : 2650,
                          "_type" : "UnifiedMedia",
                          "video" : 
                              {
                                "id" : 2651,
                                "_type" : "ScreenVMFile",
                                "src" : 3,
                                "trackNumber" : 0,
                                "attributes" : {
                                  "ident" : "Rec 01-28-21_003"
                                },
                                "parameters" : {
                                  "cursorScale" : {
                                    "type" : "double",
                                    "defaultValue" : 0.0,
                                    "interp" : "linr"
                                  },
                                  "cursorOpacity" : {
                                    "type" : "double",
                                    "defaultValue" : 0.0,
                                    "interp" : "linr"
                                  }
                                },
                                "effects" : [

                                ],
                                "start" : 324,
                                "duration" : 30,
                                "mediaStart" : 2087,
                                "mediaDuration" : 30,
                                "scalar" : 1,
                                "animationTracks" : {

                                }
                              },
                          "audio" : 
                              {
                                "id" : 2652,
                                "_type" : "AMFile",
                                "src" : 3,
                                "trackNumber" : 1,
                                "attributes" : {
                                  "ident" : "",
                                  "gain" : 1.0,
                                  "mixToMono" : false
                                },
                                  "channelNumber" : "0,1",
                                "effects" : [

                                ],
                                "start" : 324,
                                "duration" : 30,
                                "mediaStart" : 2087,
                                "mediaDuration" : 30,
                                "scalar" : 1,
                                "animationTracks" : {

                                }
                              }
,
                          "start" : 324,
                          "duration" : 30,
                          "mediaStart" : 0,
                          "mediaDuration" : 23566,
                          "scalar" : 1,
                          "metadata" : {
                            "AutoAppliedSmartFocus" : "False",
                            "clipSpeedAttribute" : false
                          }
                        },
                        {
                          "id" : 2653,
                          "_type" : "UnifiedMedia",
                          "video" : 
                              {
                                "id" : 2654,
                                "_type" : "ScreenVMFile",
                                "src" : 3,
                                "trackNumber" : 0,
                                "attributes" : {
                                  "ident" : "Rec 01-28-21_003"
                                },
                                "parameters" : {
                                  "cursorScale" : {
                                    "type" : "double",
                                    "defaultValue" : 0.0,
                                    "interp" : "linr"
                                  },
                                  "cursorOpacity" : {
                                    "type" : "double",
                                    "defaultValue" : 0.0,
                                    "interp" : "linr"
                                  }
                                },
                                "effects" : [

                                ],
                                "start" : 354,
                                "duration" : 92,
                                "mediaStart" : 2148,
                                "mediaDuration" : 92,
                                "scalar" : 1,
                                "animationTracks" : {

                                }
                              },
                          "audio" : 
                              {
                                "id" : 2655,
                                "_type" : "AMFile",
                                "src" : 3,
                                "trackNumber" : 1,
                                "attributes" : {
                                  "ident" : "",
                                  "gain" : 1.0,
                                  "mixToMono" : false
                                },
                                  "channelNumber" : "0,1",
                                "effects" : [

                                ],
                                "start" : 354,
                                "duration" : 92,
                                "mediaStart" : 2148,
                                "mediaDuration" : 92,
                                "scalar" : 1,
                                "animationTracks" : {

                                }
                              }
,
                          "start" : 354,
                          "duration" : 92,
                          "mediaStart" : 0,
                          "mediaDuration" : 23566,
                          "scalar" : 1,
                          "metadata" : {
                            "AutoAppliedSmartFocus" : "False",
                            "clipSpeedAttribute" : false
                          }
                        },
                        {
                          "id" : 2656,
                          "_type" : "UnifiedMedia",
                          "video" : 
                              {
                                "id" : 2657,
                                "_type" : "ScreenVMFile",
                                "src" : 3,
                                "trackNumber" : 0,
                                "attributes" : {
                                  "ident" : "Rec 01-28-21_003"
                                },
                                "parameters" : {
                                  "cursorScale" : {
                                    "type" : "double",
                                    "defaultValue" : 0.0,
                                    "interp" : "linr"
                                  },
                                  "cursorOpacity" : {
                                    "type" : "double",
                                    "defaultValue" : 0.0,
                                    "interp" : "linr"
                                  }
                                },
                                "effects" : [

                                ],
                                "start" : 446,
                                "duration" : 63,
                                "mediaStart" : 2290,
                                "mediaDuration" : 63,
                                "scalar" : 1,
                                "animationTracks" : {

                                }
                              },
                          "audio" : 
                              {
                                "id" : 2658,
                                "_type" : "AMFile",
                                "src" : 3,
                                "trackNumber" : 1,
                                "attributes" : {
                                  "ident" : "",
                                  "gain" : 1.0,
                                  "mixToMono" : false
                                },
                                  "channelNumber" : "0,1",
                                "effects" : [

                                ],
                                "start" : 446,
                                "duration" : 63,
                                "mediaStart" : 2290,
                                "mediaDuration" : 63,
                                "scalar" : 1,
                                "animationTracks" : {

                                }
                              }
,
                          "start" : 446,
                          "duration" : 63,
                          "mediaStart" : 0,
                          "mediaDuration" : 23566,
                          "scalar" : 1,
                          "metadata" : {
                            "AutoAppliedSmartFocus" : "False",
                            "clipSpeedAttribute" : false
                          }
                        },
                        {
                          "id" : 2659,
                          "_type" : "UnifiedMedia",
                          "video" : 
                              {
                                "id" : 2660,
                                "_type" : "ScreenVMFile",
                                "src" : 3,
                                "trackNumber" : 0,
                                "attributes" : {
                                  "ident" : "Rec 01-28-21_003"
                                },
                                "parameters" : {
                                  "cursorScale" : {
                                    "type" : "double",
                                    "defaultValue" : 0.0,
                                    "interp" : "linr"
                                  },
                                  "cursorOpacity" : {
                                    "type" : "double",
                                    "defaultValue" : 0.0,
                                    "interp" : "linr"
                                  }
                                },
                                "effects" : [

                                ],
                                "start" : 509,
                                "duration" : 27,
                                "mediaStart" : 2376,
                                "mediaDuration" : 27,
                                "scalar" : 1,
                                "animationTracks" : {

                                }
                              },
                          "audio" : 
                              {
                                "id" : 2661,
                                "_type" : "AMFile",
                                "src" : 3,
                                "trackNumber" : 1,
                                "attributes" : {
                                  "ident" : "",
                                  "gain" : 1.0,
                                  "mixToMono" : false
                                },
                                  "channelNumber" : "0,1",
                                "effects" : [

                                ],
                                "start" : 509,
                                "duration" : 27,
                                "mediaStart" : 2376,
                                "mediaDuration" : 27,
                                "scalar" : 1,
                                "animationTracks" : {

                                }
                              }
,
                          "start" : 509,
                          "duration" : 27,
                          "mediaStart" : 0,
                          "mediaDuration" : 23566,
                          "scalar" : 1,
                          "metadata" : {
                            "AutoAppliedSmartFocus" : "False",
                            "clipSpeedAttribute" : false
                          }
                        },
                        {
                          "id" : 2662,
                          "_type" : "UnifiedMedia",
                          "video" : 
                              {
                                "id" : 2663,
                                "_type" : "ScreenVMFile",
                                "src" : 3,
                                "trackNumber" : 0,
                                "attributes" : {
                                  "ident" : "Rec 01-28-21_003"
                                },
                                "parameters" : {
                                  "cursorScale" : {
                                    "type" : "double",
                                    "defaultValue" : 0.0,
                                    "interp" : "linr"
                                  },
                                  "cursorOpacity" : {
                                    "type" : "double",
                                    "defaultValue" : 0.0,
                                    "interp" : "linr"
                                  }
                                },
                                "effects" : [

                                ],
                                "start" : 536,
                                "duration" : 31,
                                "mediaStart" : 2426,
                                "mediaDuration" : 31,
                                "scalar" : 1,
                                "animationTracks" : {

                                }
                              },
                          "audio" : 
                              {
                                "id" : 2664,
                                "_type" : "AMFile",
                                "src" : 3,
                                "trackNumber" : 1,
                                "attributes" : {
                                  "ident" : "",
                                  "gain" : 1.0,
                                  "mixToMono" : false
                                },
                                  "channelNumber" : "0,1",
                                "effects" : [

                                ],
                                "start" : 536,
                                "duration" : 31,
                                "mediaStart" : 2426,
                                "mediaDuration" : 31,
                                "scalar" : 1,
                                "animationTracks" : {

                                }
                              }
,
                          "start" : 536,
                          "duration" : 31,
                          "mediaStart" : 0,
                          "mediaDuration" : 23566,
                          "scalar" : 1,
                          "metadata" : {
                            "AutoAppliedSmartFocus" : "False",
                            "clipSpeedAttribute" : false
                          }
                        },
                        {
                          "id" : 2665,
                          "_type" : "UnifiedMedia",
                          "video" : 
                              {
                                "id" : 2666,
                                "_type" : "ScreenVMFile",
                                "src" : 3,
                                "trackNumber" : 0,
                                "attributes" : {
                                  "ident" : "Rec 01-28-21_003"
                                },
                                "parameters" : {
                                  "cursorScale" : {
                                    "type" : "double",
                                    "defaultValue" : 0.0,
                                    "interp" : "linr"
                                  },
                                  "cursorOpacity" : {
                                    "type" : "double",
                                    "defaultValue" : 0.0,
                                    "interp" : "linr"
                                  }
                                },
                                "effects" : [

                                ],
                                "start" : 567,
                                "duration" : 25,
                                "mediaStart" : 2496,
                                "mediaDuration" : 25,
                                "scalar" : 1,
                                "animationTracks" : {

                                }
                              },
                          "audio" : 
                              {
                                "id" : 2667,
                                "_type" : "AMFile",
                                "src" : 3,
                                "trackNumber" : 1,
                                "attributes" : {
                                  "ident" : "",
                                  "gain" : 1.0,
                                  "mixToMono" : false
                                },
                                  "channelNumber" : "0,1",
                                "effects" : [

                                ],
                                "start" : 567,
                                "duration" : 25,
                                "mediaStart" : 2496,
                                "mediaDuration" : 25,
                                "scalar" : 1,
                                "animationTracks" : {

                                }
                              }
,
                          "start" : 567,
                          "duration" : 25,
                          "mediaStart" : 0,
                          "mediaDuration" : 23566,
                          "scalar" : 1,
                          "metadata" : {
                            "AutoAppliedSmartFocus" : "False",
                            "clipSpeedAttribute" : false
                          }
                        },
                        {
                          "id" : 2668,
                          "_type" : "UnifiedMedia",
                          "video" : 
                              {
                                "id" : 2669,
                                "_type" : "ScreenVMFile",
                                "src" : 3,
                                "trackNumber" : 0,
                                "attributes" : {
                                  "ident" : "Rec 01-28-21_003"
                                },
                                "parameters" : {
                                  "cursorScale" : {
                                    "type" : "double",
                                    "defaultValue" : 0.0,
                                    "interp" : "linr"
                                  },
                                  "cursorOpacity" : {
                                    "type" : "double",
                                    "defaultValue" : 0.0,
                                    "interp" : "linr"
                                  }
                                },
                                "effects" : [

                                ],
                                "start" : 592,
                                "duration" : 31,
                                "mediaStart" : 2611,
                                "mediaDuration" : 31,
                                "scalar" : 1,
                                "animationTracks" : {

                                }
                              },
                          "audio" : 
                              {
                                "id" : 2670,
                                "_type" : "AMFile",
                                "src" : 3,
                                "trackNumber" : 1,
                                "attributes" : {
                                  "ident" : "",
                                  "gain" : 1.0,
                                  "mixToMono" : false
                                },
                                  "channelNumber" : "0,1",
                                "effects" : [

                                ],
                                "start" : 592,
                                "duration" : 31,
                                "mediaStart" : 2611,
                                "mediaDuration" : 31,
                                "scalar" : 1,
                                "animationTracks" : {

                                }
                              }
,
                          "start" : 592,
                          "duration" : 31,
                          "mediaStart" : 0,
                          "mediaDuration" : 23566,
                          "scalar" : 1,
                          "metadata" : {
                            "AutoAppliedSmartFocus" : "False",
                            "clipSpeedAttribute" : false
                          }
                        },
                        {
                          "id" : 2671,
                          "_type" : "UnifiedMedia",
                          "video" : 
                              {
                                "id" : 2672,
                                "_type" : "ScreenVMFile",
                                "src" : 3,
                                "trackNumber" : 0,
                                "attributes" : {
                                  "ident" : "Rec 01-28-21_003"
                                },
                                "parameters" : {
                                  "cursorScale" : {
                                    "type" : "double",
                                    "defaultValue" : 0.0,
                                    "interp" : "linr"
                                  },
                                  "cursorOpacity" : {
                                    "type" : "double",
                                    "defaultValue" : 0.0,
                                    "interp" : "linr"
                                  }
                                },
                                "effects" : [

                                ],
                                "start" : 623,
                                "duration" : 731,
                                "mediaStart" : 2727,
                                "mediaDuration" : 731,
                                "scalar" : 1,
                                "animationTracks" : {

                                }
                              },
                          "audio" : 
                              {
                                "id" : 2673,
                                "_type" : "AMFile",
                                "src" : 3,
                                "trackNumber" : 1,
                                "attributes" : {
                                  "ident" : "",
                                  "gain" : 1.0,
                                  "mixToMono" : false
                                },
                                  "channelNumber" : "0,1",
                                "effects" : [

                                ],
                                "start" : 623,
                                "duration" : 731,
                                "mediaStart" : 2727,
                                "mediaDuration" : 731,
                                "scalar" : 1,
                                "animationTracks" : {

                                }
                              }
,
                          "start" : 623,
                          "duration" : 731,
                          "mediaStart" : 0,
                          "mediaDuration" : 23566,
                          "scalar" : 1,
                          "metadata" : {
                            "AutoAppliedSmartFocus" : "False",
                            "clipSpeedAttribute" : false
                          }
                        },
                        {
                          "id" : 2674,
                          "_type" : "UnifiedMedia",
                          "video" : 
                              {
                                "id" : 2675,
                                "_type" : "ScreenVMFile",
                                "src" : 3,
                                "trackNumber" : 0,
                                "attributes" : {
                                  "ident" : "Rec 01-28-21_003"
                                },
                                "parameters" : {
                                  "cursorScale" : {
                                    "type" : "double",
                                    "defaultValue" : 0.0,
                                    "interp" : "linr"
                                  },
                                  "cursorOpacity" : {
                                    "type" : "double",
                                    "defaultValue" : 0.0,
                                    "interp" : "linr"
                                  }
                                },
                                "effects" : [

                                ],
                                "start" : 1354,
                                "duration" : 293,
                                "mediaStart" : 3532,
                                "mediaDuration" : 293,
                                "scalar" : 1,
                                "animationTracks" : {

                                }
                              },
                          "audio" : 
                              {
                                "id" : 2676,
                                "_type" : "AMFile",
                                "src" : 3,
                                "trackNumber" : 1,
                                "attributes" : {
                                  "ident" : "",
                                  "gain" : 1.0,
                                  "mixToMono" : false
                                },
                                  "channelNumber" : "0,1",
                                "effects" : [

                                ],
                                "start" : 1354,
                                "duration" : 293,
                                "mediaStart" : 3532,
                                "mediaDuration" : 293,
                                "scalar" : 1,
                                "animationTracks" : {

                                }
                              }
,
                          "start" : 1354,
                          "duration" : 293,
                          "mediaStart" : 0,
                          "mediaDuration" : 23566,
                          "scalar" : 1,
                          "metadata" : {
                            "AutoAppliedSmartFocus" : "False",
                            "clipSpeedAttribute" : false
                          }
                        },
                        {
                          "id" : 2677,
                          "_type" : "UnifiedMedia",
                          "video" : 
                              {
                                "id" : 2678,
                                "_type" : "ScreenVMFile",
                                "src" : 3,
                                "trackNumber" : 0,
                                "attributes" : {
                                  "ident" : "Rec 01-28-21_003"
                                },
                                "parameters" : {
                                  "cursorScale" : {
                                    "type" : "double",
                                    "defaultValue" : 0.0,
                                    "interp" : "linr"
                                  },
                                  "cursorOpacity" : {
                                    "type" : "double",
                                    "defaultValue" : 0.0,
                                    "interp" : "linr"
                                  }
                                },
                                "effects" : [

                                ],
                                "start" : 1647,
                                "duration" : 194,
                                "mediaStart" : 3916,
                                "mediaDuration" : 194,
                                "scalar" : 1,
                                "animationTracks" : {

                                }
                              },
                          "audio" : 
                              {
                                "id" : 2679,
                                "_type" : "AMFile",
                                "src" : 3,
                                "trackNumber" : 1,
                                "attributes" : {
                                  "ident" : "",
                                  "gain" : 1.0,
                                  "mixToMono" : false
                                },
                                  "channelNumber" : "0,1",
                                "effects" : [

                                ],
                                "start" : 1647,
                                "duration" : 194,
                                "mediaStart" : 3916,
                                "mediaDuration" : 194,
                                "scalar" : 1,
                                "animationTracks" : {

                                }
                              }
,
                          "start" : 1647,
                          "duration" : 194,
                          "mediaStart" : 0,
                          "mediaDuration" : 23566,
                          "scalar" : 1,
                          "metadata" : {
                            "AutoAppliedSmartFocus" : "False",
                            "clipSpeedAttribute" : false
                          }
                        },
                        {
                          "id" : 2680,
                          "_type" : "UnifiedMedia",
                          "video" : 
                              {
                                "id" : 2681,
                                "_type" : "ScreenVMFile",
                                "src" : 3,
                                "trackNumber" : 0,
                                "attributes" : {
                                  "ident" : "Rec 01-28-21_003"
                                },
                                "parameters" : {
                                  "cursorScale" : {
                                    "type" : "double",
                                    "defaultValue" : 0.0,
                                    "interp" : "linr"
                                  },
                                  "cursorOpacity" : {
                                    "type" : "double",
                                    "defaultValue" : 0.0,
                                    "interp" : "linr"
                                  }
                                },
                                "effects" : [

                                ],
                                "start" : 1841,
                                "duration" : 37,
                                "mediaStart" : 4201,
                                "mediaDuration" : 37,
                                "scalar" : 1,
                                "animationTracks" : {

                                }
                              },
                          "audio" : 
                              {
                                "id" : 2682,
                                "_type" : "AMFile",
                                "src" : 3,
                                "trackNumber" : 1,
                                "attributes" : {
                                  "ident" : "",
                                  "gain" : 1.0,
                                  "mixToMono" : false
                                },
                                  "channelNumber" : "0,1",
                                "effects" : [

                                ],
                                "start" : 1841,
                                "duration" : 37,
                                "mediaStart" : 4201,
                                "mediaDuration" : 37,
                                "scalar" : 1,
                                "animationTracks" : {

                                }
                              }
,
                          "start" : 1841,
                          "duration" : 37,
                          "mediaStart" : 0,
                          "mediaDuration" : 23566,
                          "scalar" : 1,
                          "metadata" : {
                            "AutoAppliedSmartFocus" : "False",
                            "clipSpeedAttribute" : false
                          }
                        },
                        {
                          "id" : 2683,
                          "_type" : "UnifiedMedia",
                          "video" : 
                              {
                                "id" : 2684,
                                "_type" : "ScreenVMFile",
                                "src" : 3,
                                "trackNumber" : 0,
                                "attributes" : {
                                  "ident" : "Rec 01-28-21_003"
                                },
                                "parameters" : {
                                  "cursorScale" : {
                                    "type" : "double",
                                    "defaultValue" : 0.0,
                                    "interp" : "linr"
                                  },
                                  "cursorOpacity" : {
                                    "type" : "double",
                                    "defaultValue" : 0.0,
                                    "interp" : "linr"
                                  }
                                },
                                "effects" : [

                                ],
                                "start" : 1878,
                                "duration" : 37,
                                "mediaStart" : 4247,
                                "mediaDuration" : 37,
                                "scalar" : 1,
                                "animationTracks" : {

                                }
                              },
                          "audio" : 
                              {
                                "id" : 2685,
                                "_type" : "AMFile",
                                "src" : 3,
                                "trackNumber" : 1,
                                "attributes" : {
                                  "ident" : "",
                                  "gain" : 1.0,
                                  "mixToMono" : false
                                },
                                  "channelNumber" : "0,1",
                                "effects" : [

                                ],
                                "start" : 1878,
                                "duration" : 37,
                                "mediaStart" : 4247,
                                "mediaDuration" : 37,
                                "scalar" : 1,
                                "animationTracks" : {

                                }
                              }
,
                          "start" : 1878,
                          "duration" : 37,
                          "mediaStart" : 0,
                          "mediaDuration" : 23566,
                          "scalar" : 1,
                          "metadata" : {
                            "AutoAppliedSmartFocus" : "False",
                            "clipSpeedAttribute" : false
                          }
                        },
                        {
                          "id" : 2686,
                          "_type" : "UnifiedMedia",
                          "video" : 
                              {
                                "id" : 2687,
                                "_type" : "ScreenVMFile",
                                "src" : 3,
                                "trackNumber" : 0,
                                "attributes" : {
                                  "ident" : "Rec 01-28-21_003"
                                },
                                "parameters" : {
                                  "cursorScale" : {
                                    "type" : "double",
                                    "defaultValue" : 0.0,
                                    "interp" : "linr"
                                  },
                                  "cursorOpacity" : {
                                    "type" : "double",
                                    "defaultValue" : 0.0,
                                    "interp" : "linr"
                                  }
                                },
                                "effects" : [

                                ],
                                "start" : 1915,
                                "duration" : 22,
                                "mediaStart" : 4384,
                                "mediaDuration" : 22,
                                "scalar" : 1,
                                "animationTracks" : {

                                }
                              },
                          "audio" : 
                              {
                                "id" : 2688,
                                "_type" : "AMFile",
                                "src" : 3,
                                "trackNumber" : 1,
                                "attributes" : {
                                  "ident" : "",
                                  "gain" : 1.0,
                                  "mixToMono" : false
                                },
                                  "channelNumber" : "0,1",
                                "effects" : [

                                ],
                                "start" : 1915,
                                "duration" : 22,
                                "mediaStart" : 4384,
                                "mediaDuration" : 22,
                                "scalar" : 1,
                                "animationTracks" : {

                                }
                              }
,
                          "start" : 1915,
                          "duration" : 22,
                          "mediaStart" : 0,
                          "mediaDuration" : 23566,
                          "scalar" : 1,
                          "metadata" : {
                            "AutoAppliedSmartFocus" : "False",
                            "clipSpeedAttribute" : false
                          }
                        },
                        {
                          "id" : 2689,
                          "_type" : "UnifiedMedia",
                          "video" : 
                              {
                                "id" : 2690,
                                "_type" : "ScreenVMFile",
                                "src" : 3,
                                "trackNumber" : 0,
                                "attributes" : {
                                  "ident" : "Rec 01-28-21_003"
                                },
                                "parameters" : {
                                  "cursorScale" : {
                                    "type" : "double",
                                    "defaultValue" : 0.0,
                                    "interp" : "linr"
                                  },
                                  "cursorOpacity" : {
                                    "type" : "double",
                                    "defaultValue" : 0.0,
                                    "interp" : "linr"
                                  }
                                },
                                "effects" : [

                                ],
                                "start" : 1937,
                                "duration" : 34,
                                "mediaStart" : 4420,
                                "mediaDuration" : 34,
                                "scalar" : 1,
                                "animationTracks" : {

                                }
                              },
                          "audio" : 
                              {
                                "id" : 2691,
                                "_type" : "AMFile",
                                "src" : 3,
                                "trackNumber" : 1,
                                "attributes" : {
                                  "ident" : "",
                                  "gain" : 1.0,
                                  "mixToMono" : false
                                },
                                  "channelNumber" : "0,1",
                                "effects" : [

                                ],
                                "start" : 1937,
                                "duration" : 34,
                                "mediaStart" : 4420,
                                "mediaDuration" : 34,
                                "scalar" : 1,
                                "animationTracks" : {

                                }
                              }
,
                          "start" : 1937,
                          "duration" : 34,
                          "mediaStart" : 0,
                          "mediaDuration" : 23566,
                          "scalar" : 1,
                          "metadata" : {
                            "AutoAppliedSmartFocus" : "False",
                            "clipSpeedAttribute" : false
                          }
                        },
                        {
                          "id" : 2692,
                          "_type" : "UnifiedMedia",
                          "video" : 
                              {
                                "id" : 2693,
                                "_type" : "ScreenVMFile",
                                "src" : 3,
                                "trackNumber" : 0,
                                "attributes" : {
                                  "ident" : "Rec 01-28-21_003"
                                },
                                "parameters" : {
                                  "cursorScale" : {
                                    "type" : "double",
                                    "defaultValue" : 0.0,
                                    "interp" : "linr"
                                  },
                                  "cursorOpacity" : {
                                    "type" : "double",
                                    "defaultValue" : 0.0,
                                    "interp" : "linr"
                                  }
                                },
                                "effects" : [

                                ],
                                "start" : 1971,
                                "duration" : 39,
                                "mediaStart" : 4925,
                                "mediaDuration" : 39,
                                "scalar" : 1,
                                "animationTracks" : {

                                }
                              },
                          "audio" : 
                              {
                                "id" : 2694,
                                "_type" : "AMFile",
                                "src" : 3,
                                "trackNumber" : 1,
                                "attributes" : {
                                  "ident" : "",
                                  "gain" : 1.0,
                                  "mixToMono" : false
                                },
                                  "channelNumber" : "0,1",
                                "effects" : [

                                ],
                                "start" : 1971,
                                "duration" : 39,
                                "mediaStart" : 4925,
                                "mediaDuration" : 39,
                                "scalar" : 1,
                                "animationTracks" : {

                                }
                              }
,
                          "start" : 1971,
                          "duration" : 39,
                          "mediaStart" : 0,
                          "mediaDuration" : 23566,
                          "scalar" : 1,
                          "metadata" : {
                            "AutoAppliedSmartFocus" : "False",
                            "clipSpeedAttribute" : false
                          }
                        },
                        {
                          "id" : 2695,
                          "_type" : "UnifiedMedia",
                          "video" : 
                              {
                                "id" : 2696,
                                "_type" : "ScreenVMFile",
                                "src" : 3,
                                "trackNumber" : 0,
                                "attributes" : {
                                  "ident" : "Rec 01-28-21_003"
                                },
                                "parameters" : {
                                  "cursorScale" : {
                                    "type" : "double",
                                    "defaultValue" : 0.0,
                                    "interp" : "linr"
                                  },
                                  "cursorOpacity" : {
                                    "type" : "double",
                                    "defaultValue" : 0.0,
                                    "interp" : "linr"
                                  }
                                },
                                "effects" : [

                                ],
                                "start" : 2010,
                                "duration" : 1866,
                                "mediaStart" : 5106,
                                "mediaDuration" : 1866,
                                "scalar" : 1,
                                "animationTracks" : {

                                }
                              },
                          "audio" : 
                              {
                                "id" : 2697,
                                "_type" : "AMFile",
                                "src" : 3,
                                "trackNumber" : 1,
                                "attributes" : {
                                  "ident" : "",
                                  "gain" : 1.0,
                                  "mixToMono" : false
                                },
                                  "channelNumber" : "0,1",
                                "effects" : [

                                ],
                                "start" : 2010,
                                "duration" : 1866,
                                "mediaStart" : 5106,
                                "mediaDuration" : 1866,
                                "scalar" : 1,
                                "animationTracks" : {

                                }
                              }
,
                          "start" : 2010,
                          "duration" : 1866,
                          "mediaStart" : 0,
                          "mediaDuration" : 23566,
                          "scalar" : 1,
                          "metadata" : {
                            "AutoAppliedSmartFocus" : "False",
                            "clipSpeedAttribute" : false
                          }
                        },
                        {
                          "id" : 2698,
                          "_type" : "UnifiedMedia",
                          "video" : 
                              {
                                "id" : 2699,
                                "_type" : "ScreenVMFile",
                                "src" : 3,
                                "trackNumber" : 0,
                                "attributes" : {
                                  "ident" : "Rec 01-28-21_003"
                                },
                                "parameters" : {
                                  "cursorScale" : {
                                    "type" : "double",
                                    "defaultValue" : 0.0,
                                    "interp" : "linr"
                                  },
                                  "cursorOpacity" : {
                                    "type" : "double",
                                    "defaultValue" : 0.0,
                                    "interp" : "linr"
                                  }
                                },
                                "effects" : [

                                ],
                                "start" : 3876,
                                "duration" : 160,
                                "mediaStart" : 7099,
                                "mediaDuration" : 160,
                                "scalar" : 1,
                                "animationTracks" : {

                                }
                              },
                          "audio" : 
                              {
                                "id" : 2700,
                                "_type" : "AMFile",
                                "src" : 3,
                                "trackNumber" : 1,
                                "attributes" : {
                                  "ident" : "",
                                  "gain" : 1.0,
                                  "mixToMono" : false
                                },
                                  "channelNumber" : "0,1",
                                "effects" : [

                                ],
                                "start" : 3876,
                                "duration" : 160,
                                "mediaStart" : 7099,
                                "mediaDuration" : 160,
                                "scalar" : 1,
                                "animationTracks" : {

                                }
                              }
,
                          "start" : 3876,
                          "duration" : 160,
                          "mediaStart" : 0,
                          "mediaDuration" : 23566,
                          "scalar" : 1,
                          "metadata" : {
                            "AutoAppliedSmartFocus" : "False",
                            "clipSpeedAttribute" : false
                          }
                        },
                        {
                          "id" : 2701,
                          "_type" : "UnifiedMedia",
                          "video" : 
                              {
                                "id" : 2702,
                                "_type" : "ScreenVMFile",
                                "src" : 3,
                                "trackNumber" : 0,
                                "attributes" : {
                                  "ident" : "Rec 01-28-21_003"
                                },
                                "parameters" : {
                                  "cursorScale" : {
                                    "type" : "double",
                                    "defaultValue" : 0.0,
                                    "interp" : "linr"
                                  },
                                  "cursorOpacity" : {
                                    "type" : "double",
                                    "defaultValue" : 0.0,
                                    "interp" : "linr"
                                  }
                                },
                                "effects" : [

                                ],
                                "start" : 4036,
                                "duration" : 275,
                                "mediaStart" : 7439,
                                "mediaDuration" : 275,
                                "scalar" : 1,
                                "animationTracks" : {

                                }
                              },
                          "audio" : 
                              {
                                "id" : 2703,
                                "_type" : "AMFile",
                                "src" : 3,
                                "trackNumber" : 1,
                                "attributes" : {
                                  "ident" : "",
                                  "gain" : 1.0,
                                  "mixToMono" : false
                                },
                                  "channelNumber" : "0,1",
                                "effects" : [

                                ],
                                "start" : 4036,
                                "duration" : 275,
                                "mediaStart" : 7439,
                                "mediaDuration" : 275,
                                "scalar" : 1,
                                "animationTracks" : {

                                }
                              }
,
                          "start" : 4036,
                          "duration" : 275,
                          "mediaStart" : 0,
                          "mediaDuration" : 23566,
                          "scalar" : 1,
                          "metadata" : {
                            "AutoAppliedSmartFocus" : "False",
                            "clipSpeedAttribute" : false
                          }
                        },
                        {
                          "id" : 2704,
                          "_type" : "UnifiedMedia",
                          "video" : 
                              {
                                "id" : 2705,
                                "_type" : "ScreenVMFile",
                                "src" : 3,
                                "trackNumber" : 0,
                                "attributes" : {
                                  "ident" : "Rec 01-28-21_003"
                                },
                                "parameters" : {
                                  "cursorScale" : {
                                    "type" : "double",
                                    "defaultValue" : 0.0,
                                    "interp" : "linr"
                                  },
                                  "cursorOpacity" : {
                                    "type" : "double",
                                    "defaultValue" : 0.0,
                                    "interp" : "linr"
                                  }
                                },
                                "effects" : [

                                ],
                                "start" : 4311,
                                "duration" : 3,
                                "mediaStart" : 7841,
                                "mediaDuration" : 3,
                                "scalar" : 1,
                                "animationTracks" : {

                                }
                              },
                          "audio" : 
                              {
                                "id" : 2706,
                                "_type" : "AMFile",
                                "src" : 3,
                                "trackNumber" : 1,
                                "attributes" : {
                                  "ident" : "",
                                  "gain" : 1.0,
                                  "mixToMono" : false
                                },
                                  "channelNumber" : "0,1",
                                "effects" : [

                                ],
                                "start" : 4311,
                                "duration" : 3,
                                "mediaStart" : 7841,
                                "mediaDuration" : 3,
                                "scalar" : 1,
                                "animationTracks" : {

                                }
                              }
,
                          "start" : 4311,
                          "duration" : 3,
                          "mediaStart" : 0,
                          "mediaDuration" : 23566,
                          "scalar" : 1,
                          "metadata" : {
                            "AutoAppliedSmartFocus" : "False",
                            "clipSpeedAttribute" : false
                          }
                        },
                        {
                          "id" : 2707,
                          "_type" : "UnifiedMedia",
                          "video" : 
                              {
                                "id" : 2708,
                                "_type" : "ScreenVMFile",
                                "src" : 3,
                                "trackNumber" : 0,
                                "attributes" : {
                                  "ident" : "Rec 01-28-21_003"
                                },
                                "parameters" : {
                                  "cursorScale" : {
                                    "type" : "double",
                                    "defaultValue" : 0.0,
                                    "interp" : "linr"
                                  },
                                  "cursorOpacity" : {
                                    "type" : "double",
                                    "defaultValue" : 0.0,
                                    "interp" : "linr"
                                  }
                                },
                                "effects" : [

                                ],
                                "start" : 4314,
                                "duration" : 73,
                                "mediaStart" : 8276,
                                "mediaDuration" : 73,
                                "scalar" : 1,
                                "animationTracks" : {

                                }
                              },
                          "audio" : 
                              {
                                "id" : 2709,
                                "_type" : "AMFile",
                                "src" : 3,
                                "trackNumber" : 1,
                                "attributes" : {
                                  "ident" : "",
                                  "gain" : 1.0,
                                  "mixToMono" : false
                                },
                                  "channelNumber" : "0,1",
                                "effects" : [

                                ],
                                "start" : 4314,
                                "duration" : 73,
                                "mediaStart" : 8276,
                                "mediaDuration" : 73,
                                "scalar" : 1,
                                "animationTracks" : {

                                }
                              }
,
                          "start" : 4314,
                          "duration" : 73,
                          "mediaStart" : 0,
                          "mediaDuration" : 23566,
                          "scalar" : 1,
                          "metadata" : {
                            "AutoAppliedSmartFocus" : "False",
                            "clipSpeedAttribute" : false
                          }
                        },
                        {
                          "id" : 2710,
                          "_type" : "UnifiedMedia",
                          "video" : 
                              {
                                "id" : 2711,
                                "_type" : "ScreenVMFile",
                                "src" : 3,
                                "trackNumber" : 0,
                                "attributes" : {
                                  "ident" : "Rec 01-28-21_003"
                                },
                                "parameters" : {
                                  "cursorScale" : {
                                    "type" : "double",
                                    "defaultValue" : 0.0,
                                    "interp" : "linr"
                                  },
                                  "cursorOpacity" : {
                                    "type" : "double",
                                    "defaultValue" : 0.0,
                                    "interp" : "linr"
                                  }
                                },
                                "effects" : [

                                ],
                                "start" : 4387,
                                "duration" : 982,
                                "mediaStart" : 8431,
                                "mediaDuration" : 982,
                                "scalar" : 1,
                                "animationTracks" : {

                                }
                              },
                          "audio" : 
                              {
                                "id" : 2712,
                                "_type" : "AMFile",
                                "src" : 3,
                                "trackNumber" : 1,
                                "attributes" : {
                                  "ident" : "",
                                  "gain" : 1.0,
                                  "mixToMono" : false
                                },
                                  "channelNumber" : "0,1",
                                "effects" : [

                                ],
                                "start" : 4387,
                                "duration" : 982,
                                "mediaStart" : 8431,
                                "mediaDuration" : 982,
                                "scalar" : 1,
                                "animationTracks" : {

                                }
                              }
,
                          "start" : 4387,
                          "duration" : 982,
                          "mediaStart" : 0,
                          "mediaDuration" : 23566,
                          "scalar" : 1,
                          "metadata" : {
                            "AutoAppliedSmartFocus" : "False",
                            "clipSpeedAttribute" : false
                          }
                        },
                        {
                          "id" : 2713,
                          "_type" : "UnifiedMedia",
                          "video" : 
                              {
                                "id" : 2714,
                                "_type" : "ScreenVMFile",
                                "src" : 3,
                                "trackNumber" : 0,
                                "attributes" : {
                                  "ident" : "Rec 01-28-21_003"
                                },
                                "parameters" : {
                                  "cursorScale" : {
                                    "type" : "double",
                                    "defaultValue" : 0.0,
                                    "interp" : "linr"
                                  },
                                  "cursorOpacity" : {
                                    "type" : "double",
                                    "defaultValue" : 0.0,
                                    "interp" : "linr"
                                  }
                                },
                                "effects" : [

                                ],
                                "start" : 5369,
                                "duration" : 473,
                                "mediaStart" : 9469,
                                "mediaDuration" : 473,
                                "scalar" : 1,
                                "animationTracks" : {

                                }
                              },
                          "audio" : 
                              {
                                "id" : 2715,
                                "_type" : "AMFile",
                                "src" : 3,
                                "trackNumber" : 1,
                                "attributes" : {
                                  "ident" : "",
                                  "gain" : 1.0,
                                  "mixToMono" : false
                                },
                                  "channelNumber" : "0,1",
                                "effects" : [

                                ],
                                "start" : 5369,
                                "duration" : 473,
                                "mediaStart" : 9469,
                                "mediaDuration" : 473,
                                "scalar" : 1,
                                "animationTracks" : {

                                }
                              }
,
                          "start" : 5369,
                          "duration" : 473,
                          "mediaStart" : 0,
                          "mediaDuration" : 23566,
                          "scalar" : 1,
                          "metadata" : {
                            "AutoAppliedSmartFocus" : "False",
                            "clipSpeedAttribute" : false
                          }
                        },
                        {
                          "id" : 2716,
                          "_type" : "UnifiedMedia",
                          "video" : 
                              {
                                "id" : 2717,
                                "_type" : "ScreenVMFile",
                                "src" : 3,
                                "trackNumber" : 0,
                                "attributes" : {
                                  "ident" : "Rec 01-28-21_003"
                                },
                                "parameters" : {
                                  "cursorScale" : {
                                    "type" : "double",
                                    "defaultValue" : 0.0,
                                    "interp" : "linr"
                                  },
                                  "cursorOpacity" : {
                                    "type" : "double",
                                    "defaultValue" : 0.0,
                                    "interp" : "linr"
                                  }
                                },
                                "effects" : [

                                ],
                                "start" : 5842,
                                "duration" : 166,
                                "mediaStart" : 10778,
                                "mediaDuration" : 166,
                                "scalar" : 1,
                                "animationTracks" : {

                                }
                              },
                          "audio" : 
                              {
                                "id" : 2718,
                                "_type" : "AMFile",
                                "src" : 3,
                                "trackNumber" : 1,
                                "attributes" : {
                                  "ident" : "",
                                  "gain" : 1.0,
                                  "mixToMono" : false
                                },
                                  "channelNumber" : "0,1",
                                "effects" : [

                                ],
                                "start" : 5842,
                                "duration" : 166,
                                "mediaStart" : 10778,
                                "mediaDuration" : 166,
                                "scalar" : 1,
                                "animationTracks" : {

                                }
                              }
,
                          "start" : 5842,
                          "duration" : 166,
                          "mediaStart" : 0,
                          "mediaDuration" : 23566,
                          "scalar" : 1,
                          "metadata" : {
                            "AutoAppliedSmartFocus" : "False",
                            "clipSpeedAttribute" : false
                          }
                        },
                        {
                          "id" : 2719,
                          "_type" : "UnifiedMedia",
                          "video" : 
                              {
                                "id" : 2720,
                                "_type" : "ScreenVMFile",
                                "src" : 3,
                                "trackNumber" : 0,
                                "attributes" : {
                                  "ident" : "Rec 01-28-21_003"
                                },
                                "parameters" : {
                                  "cursorScale" : {
                                    "type" : "double",
                                    "defaultValue" : 0.0,
                                    "interp" : "linr"
                                  },
                                  "cursorOpacity" : {
                                    "type" : "double",
                                    "defaultValue" : 0.0,
                                    "interp" : "linr"
                                  }
                                },
                                "effects" : [

                                ],
                                "start" : 6008,
                                "duration" : 125,
                                "mediaStart" : 11423,
                                "mediaDuration" : 125,
                                "scalar" : 1,
                                "animationTracks" : {

                                }
                              },
                          "audio" : 
                              {
                                "id" : 2721,
                                "_type" : "AMFile",
                                "src" : 3,
                                "trackNumber" : 1,
                                "attributes" : {
                                  "ident" : "",
                                  "gain" : 1.0,
                                  "mixToMono" : false
                                },
                                  "channelNumber" : "0,1",
                                "effects" : [

                                ],
                                "start" : 6008,
                                "duration" : 125,
                                "mediaStart" : 11423,
                                "mediaDuration" : 125,
                                "scalar" : 1,
                                "animationTracks" : {

                                }
                              }
,
                          "start" : 6008,
                          "duration" : 125,
                          "mediaStart" : 0,
                          "mediaDuration" : 23566,
                          "scalar" : 1,
                          "metadata" : {
                            "AutoAppliedSmartFocus" : "False",
                            "clipSpeedAttribute" : false
                          }
                        },
                        {
                          "id" : 2722,
                          "_type" : "UnifiedMedia",
                          "video" : 
                              {
                                "id" : 2723,
                                "_type" : "ScreenVMFile",
                                "src" : 3,
                                "trackNumber" : 0,
                                "attributes" : {
                                  "ident" : "Rec 01-28-21_003"
                                },
                                "parameters" : {
                                  "cursorScale" : {
                                    "type" : "double",
                                    "defaultValue" : 0.0,
                                    "interp" : "linr"
                                  },
                                  "cursorOpacity" : {
                                    "type" : "double",
                                    "defaultValue" : 0.0,
                                    "interp" : "linr"
                                  }
                                },
                                "effects" : [

                                ],
                                "start" : 6133,
                                "duration" : 42,
                                "mediaStart" : 11583,
                                "mediaDuration" : 42,
                                "scalar" : 1,
                                "animationTracks" : {

                                }
                              },
                          "audio" : 
                              {
                                "id" : 2724,
                                "_type" : "AMFile",
                                "src" : 3,
                                "trackNumber" : 1,
                                "attributes" : {
                                  "ident" : "",
                                  "gain" : 1.0,
                                  "mixToMono" : false
                                },
                                  "channelNumber" : "0,1",
                                "effects" : [

                                ],
                                "start" : 6133,
                                "duration" : 42,
                                "mediaStart" : 11583,
                                "mediaDuration" : 42,
                                "scalar" : 1,
                                "animationTracks" : {

                                }
                              }
,
                          "start" : 6133,
                          "duration" : 42,
                          "mediaStart" : 0,
                          "mediaDuration" : 23566,
                          "scalar" : 1,
                          "metadata" : {
                            "AutoAppliedSmartFocus" : "False",
                            "clipSpeedAttribute" : false
                          }
                        },
                        {
                          "id" : 2725,
                          "_type" : "UnifiedMedia",
                          "video" : 
                              {
                                "id" : 2726,
                                "_type" : "ScreenVMFile",
                                "src" : 3,
                                "trackNumber" : 0,
                                "attributes" : {
                                  "ident" : "Rec 01-28-21_003"
                                },
                                "parameters" : {
                                  "cursorScale" : {
                                    "type" : "double",
                                    "defaultValue" : 0.0,
                                    "interp" : "linr"
                                  },
                                  "cursorOpacity" : {
                                    "type" : "double",
                                    "defaultValue" : 0.0,
                                    "interp" : "linr"
                                  }
                                },
                                "effects" : [

                                ],
                                "start" : 6175,
                                "duration" : 82,
                                "mediaStart" : 11656,
                                "mediaDuration" : 82,
                                "scalar" : 1,
                                "animationTracks" : {

                                }
                              },
                          "audio" : 
                              {
                                "id" : 2727,
                                "_type" : "AMFile",
                                "src" : 3,
                                "trackNumber" : 1,
                                "attributes" : {
                                  "ident" : "",
                                  "gain" : 1.0,
                                  "mixToMono" : false
                                },
                                  "channelNumber" : "0,1",
                                "effects" : [

                                ],
                                "start" : 6175,
                                "duration" : 82,
                                "mediaStart" : 11656,
                                "mediaDuration" : 82,
                                "scalar" : 1,
                                "animationTracks" : {

                                }
                              }
,
                          "start" : 6175,
                          "duration" : 82,
                          "mediaStart" : 0,
                          "mediaDuration" : 23566,
                          "scalar" : 1,
                          "metadata" : {
                            "AutoAppliedSmartFocus" : "False",
                            "clipSpeedAttribute" : false
                          }
                        },
                        {
                          "id" : 2728,
                          "_type" : "UnifiedMedia",
                          "video" : 
                              {
                                "id" : 2729,
                                "_type" : "ScreenVMFile",
                                "src" : 3,
                                "trackNumber" : 0,
                                "attributes" : {
                                  "ident" : "Rec 01-28-21_003"
                                },
                                "parameters" : {
                                  "cursorScale" : {
                                    "type" : "double",
                                    "defaultValue" : 0.0,
                                    "interp" : "linr"
                                  },
                                  "cursorOpacity" : {
                                    "type" : "double",
                                    "defaultValue" : 0.0,
                                    "interp" : "linr"
                                  }
                                },
                                "effects" : [

                                ],
                                "start" : 6257,
                                "duration" : 63,
                                "mediaStart" : 11866,
                                "mediaDuration" : 63,
                                "scalar" : 1,
                                "animationTracks" : {

                                }
                              },
                          "audio" : 
                              {
                                "id" : 2730,
                                "_type" : "AMFile",
                                "src" : 3,
                                "trackNumber" : 1,
                                "attributes" : {
                                  "ident" : "",
                                  "gain" : 1.0,
                                  "mixToMono" : false
                                },
                                  "channelNumber" : "0,1",
                                "effects" : [

                                ],
                                "start" : 6257,
                                "duration" : 63,
                                "mediaStart" : 11866,
                                "mediaDuration" : 63,
                                "scalar" : 1,
                                "animationTracks" : {

                                }
                              }
,
                          "start" : 6257,
                          "duration" : 63,
                          "mediaStart" : 0,
                          "mediaDuration" : 23566,
                          "scalar" : 1,
                          "metadata" : {
                            "AutoAppliedSmartFocus" : "False",
                            "clipSpeedAttribute" : false
                          }
                        },
                        {
                          "id" : 2731,
                          "_type" : "UnifiedMedia",
                          "video" : 
                              {
                                "id" : 2732,
                                "_type" : "ScreenVMFile",
                                "src" : 3,
                                "trackNumber" : 0,
                                "attributes" : {
                                  "ident" : "Rec 01-28-21_003"
                                },
                                "parameters" : {
                                  "cursorScale" : {
                                    "type" : "double",
                                    "defaultValue" : 0.0,
                                    "interp" : "linr"
                                  },
                                  "cursorOpacity" : {
                                    "type" : "double",
                                    "defaultValue" : 0.0,
                                    "interp" : "linr"
                                  }
                                },
                                "effects" : [

                                ],
                                "start" : 6320,
                                "duration" : 111,
                                "mediaStart" : 11962,
                                "mediaDuration" : 111,
                                "scalar" : 1,
                                "animationTracks" : {

                                }
                              },
                          "audio" : 
                              {
                                "id" : 2733,
                                "_type" : "AMFile",
                                "src" : 3,
                                "trackNumber" : 1,
                                "attributes" : {
                                  "ident" : "",
                                  "gain" : 1.0,
                                  "mixToMono" : false
                                },
                                  "channelNumber" : "0,1",
                                "effects" : [

                                ],
                                "start" : 6320,
                                "duration" : 111,
                                "mediaStart" : 11962,
                                "mediaDuration" : 111,
                                "scalar" : 1,
                                "animationTracks" : {

                                }
                              }
,
                          "start" : 6320,
                          "duration" : 111,
                          "mediaStart" : 0,
                          "mediaDuration" : 23566,
                          "scalar" : 1,
                          "metadata" : {
                            "AutoAppliedSmartFocus" : "False",
                            "clipSpeedAttribute" : false
                          }
                        },
                        {
                          "id" : 2734,
                          "_type" : "UnifiedMedia",
                          "video" : 
                              {
                                "id" : 2735,
                                "_type" : "ScreenVMFile",
                                "src" : 3,
                                "trackNumber" : 0,
                                "attributes" : {
                                  "ident" : "Rec 01-28-21_003"
                                },
                                "parameters" : {
                                  "cursorScale" : {
                                    "type" : "double",
                                    "defaultValue" : 0.0,
                                    "interp" : "linr"
                                  },
                                  "cursorOpacity" : {
                                    "type" : "double",
                                    "defaultValue" : 0.0,
                                    "interp" : "linr"
                                  }
                                },
                                "effects" : [

                                ],
                                "start" : 6431,
                                "duration" : 1088,
                                "mediaStart" : 12342,
                                "mediaDuration" : 1088,
                                "scalar" : 1,
                                "animationTracks" : {

                                }
                              },
                          "audio" : 
                              {
                                "id" : 2736,
                                "_type" : "AMFile",
                                "src" : 3,
                                "trackNumber" : 1,
                                "attributes" : {
                                  "ident" : "",
                                  "gain" : 1.0,
                                  "mixToMono" : false
                                },
                                  "channelNumber" : "0,1",
                                "effects" : [

                                ],
                                "start" : 6431,
                                "duration" : 1088,
                                "mediaStart" : 12342,
                                "mediaDuration" : 1088,
                                "scalar" : 1,
                                "animationTracks" : {

                                }
                              }
,
                          "start" : 6431,
                          "duration" : 1088,
                          "mediaStart" : 0,
                          "mediaDuration" : 23566,
                          "scalar" : 1,
                          "metadata" : {
                            "AutoAppliedSmartFocus" : "False",
                            "clipSpeedAttribute" : false
                          }
                        },
                        {
                          "id" : 2737,
                          "_type" : "UnifiedMedia",
                          "video" : 
                              {
                                "id" : 2738,
                                "_type" : "ScreenVMFile",
                                "src" : 3,
                                "trackNumber" : 0,
                                "attributes" : {
                                  "ident" : "Rec 01-28-21_003"
                                },
                                "parameters" : {
                                  "cursorScale" : {
                                    "type" : "double",
                                    "defaultValue" : 0.0,
                                    "interp" : "linr"
                                  },
                                  "cursorOpacity" : {
                                    "type" : "double",
                                    "defaultValue" : 0.0,
                                    "interp" : "linr"
                                  }
                                },
                                "effects" : [

                                ],
                                "start" : 7519,
                                "duration" : 43,
                                "mediaStart" : 13705,
                                "mediaDuration" : 43,
                                "scalar" : 1,
                                "animationTracks" : {

                                }
                              },
                          "audio" : 
                              {
                                "id" : 2739,
                                "_type" : "AMFile",
                                "src" : 3,
                                "trackNumber" : 1,
                                "attributes" : {
                                  "ident" : "",
                                  "gain" : 1.0,
                                  "mixToMono" : false
                                },
                                  "channelNumber" : "0,1",
                                "effects" : [

                                ],
                                "start" : 7519,
                                "duration" : 43,
                                "mediaStart" : 13705,
                                "mediaDuration" : 43,
                                "scalar" : 1,
                                "animationTracks" : {

                                }
                              }
,
                          "start" : 7519,
                          "duration" : 43,
                          "mediaStart" : 0,
                          "mediaDuration" : 23566,
                          "scalar" : 1,
                          "metadata" : {
                            "AutoAppliedSmartFocus" : "False",
                            "clipSpeedAttribute" : false
                          }
                        },
                        {
                          "id" : 2740,
                          "_type" : "UnifiedMedia",
                          "video" : 
                              {
                                "id" : 2741,
                                "_type" : "ScreenVMFile",
                                "src" : 3,
                                "trackNumber" : 0,
                                "attributes" : {
                                  "ident" : "Rec 01-28-21_003"
                                },
                                "parameters" : {
                                  "cursorScale" : {
                                    "type" : "double",
                                    "defaultValue" : 0.0,
                                    "interp" : "linr"
                                  },
                                  "cursorOpacity" : {
                                    "type" : "double",
                                    "defaultValue" : 0.0,
                                    "interp" : "linr"
                                  }
                                },
                                "effects" : [

                                ],
                                "start" : 7562,
                                "duration" : 2393,
                                "mediaStart" : 13855,
                                "mediaDuration" : 2393,
                                "scalar" : 1,
                                "animationTracks" : {

                                }
                              },
                          "audio" : 
                              {
                                "id" : 2742,
                                "_type" : "AMFile",
                                "src" : 3,
                                "trackNumber" : 1,
                                "attributes" : {
                                  "ident" : "",
                                  "gain" : 1.0,
                                  "mixToMono" : false
                                },
                                  "channelNumber" : "0,1",
                                "effects" : [

                                ],
                                "start" : 7562,
                                "duration" : 2393,
                                "mediaStart" : 13855,
                                "mediaDuration" : 2393,
                                "scalar" : 1,
                                "animationTracks" : {

                                }
                              }
,
                          "start" : 7562,
                          "duration" : 2393,
                          "mediaStart" : 0,
                          "mediaDuration" : 23566,
                          "scalar" : 1,
                          "metadata" : {
                            "AutoAppliedSmartFocus" : "False",
                            "clipSpeedAttribute" : false
                          }
                        },
                        {
                          "id" : 2743,
                          "_type" : "UnifiedMedia",
                          "video" : 
                              {
                                "id" : 2744,
                                "_type" : "ScreenVMFile",
                                "src" : 3,
                                "trackNumber" : 0,
                                "attributes" : {
                                  "ident" : "Rec 01-28-21_003"
                                },
                                "parameters" : {
                                  "cursorScale" : {
                                    "type" : "double",
                                    "defaultValue" : 0.0,
                                    "interp" : "linr"
                                  },
                                  "cursorOpacity" : {
                                    "type" : "double",
                                    "defaultValue" : 0.0,
                                    "interp" : "linr"
                                  }
                                },
                                "effects" : [

                                ],
                                "start" : 9955,
                                "duration" : 27,
                                "mediaStart" : 16276,
                                "mediaDuration" : 27,
                                "scalar" : 1,
                                "animationTracks" : {

                                }
                              },
                          "audio" : 
                              {
                                "id" : 2745,
                                "_type" : "AMFile",
                                "src" : 3,
                                "trackNumber" : 1,
                                "attributes" : {
                                  "ident" : "",
                                  "gain" : 1.0,
                                  "mixToMono" : false
                                },
                                  "channelNumber" : "0,1",
                                "effects" : [

                                ],
                                "start" : 9955,
                                "duration" : 27,
                                "mediaStart" : 16276,
                                "mediaDuration" : 27,
                                "scalar" : 1,
                                "animationTracks" : {

                                }
                              }
,
                          "start" : 9955,
                          "duration" : 27,
                          "mediaStart" : 0,
                          "mediaDuration" : 23566,
                          "scalar" : 1,
                          "metadata" : {
                            "AutoAppliedSmartFocus" : "False",
                            "clipSpeedAttribute" : false
                          }
                        },
                        {
                          "id" : 2746,
                          "_type" : "UnifiedMedia",
                          "video" : 
                              {
                                "id" : 2747,
                                "_type" : "ScreenVMFile",
                                "src" : 3,
                                "trackNumber" : 0,
                                "attributes" : {
                                  "ident" : "Rec 01-28-21_003"
                                },
                                "parameters" : {
                                  "cursorScale" : {
                                    "type" : "double",
                                    "defaultValue" : 0.0,
                                    "interp" : "linr"
                                  },
                                  "cursorOpacity" : {
                                    "type" : "double",
                                    "defaultValue" : 0.0,
                                    "interp" : "linr"
                                  }
                                },
                                "effects" : [

                                ],
                                "start" : 9982,
                                "duration" : 91,
                                "mediaStart" : 16313,
                                "mediaDuration" : 91,
                                "scalar" : 1,
                                "animationTracks" : {

                                }
                              },
                          "audio" : 
                              {
                                "id" : 2748,
                                "_type" : "AMFile",
                                "src" : 3,
                                "trackNumber" : 1,
                                "attributes" : {
                                  "ident" : "",
                                  "gain" : 1.0,
                                  "mixToMono" : false
                                },
                                  "channelNumber" : "0,1",
                                "effects" : [

                                ],
                                "start" : 9982,
                                "duration" : 91,
                                "mediaStart" : 16313,
                                "mediaDuration" : 91,
                                "scalar" : 1,
                                "animationTracks" : {

                                }
                              }
,
                          "start" : 9982,
                          "duration" : 91,
                          "mediaStart" : 0,
                          "mediaDuration" : 23566,
                          "scalar" : 1,
                          "metadata" : {
                            "AutoAppliedSmartFocus" : "False",
                            "clipSpeedAttribute" : false
                          }
                        },
                        {
                          "id" : 2749,
                          "_type" : "UnifiedMedia",
                          "video" : 
                              {
                                "id" : 2750,
                                "_type" : "ScreenVMFile",
                                "src" : 3,
                                "trackNumber" : 0,
                                "attributes" : {
                                  "ident" : "Rec 01-28-21_003"
                                },
                                "parameters" : {
                                  "cursorScale" : {
                                    "type" : "double",
                                    "defaultValue" : 0.0,
                                    "interp" : "linr"
                                  },
                                  "cursorOpacity" : {
                                    "type" : "double",
                                    "defaultValue" : 0.0,
                                    "interp" : "linr"
                                  }
                                },
                                "effects" : [

                                ],
                                "start" : 10073,
                                "duration" : 148,
                                "mediaStart" : 16552,
                                "mediaDuration" : 148,
                                "scalar" : 1,
                                "animationTracks" : {

                                }
                              },
                          "audio" : 
                              {
                                "id" : 2751,
                                "_type" : "AMFile",
                                "src" : 3,
                                "trackNumber" : 1,
                                "attributes" : {
                                  "ident" : "",
                                  "gain" : 1.0,
                                  "mixToMono" : false
                                },
                                  "channelNumber" : "0,1",
                                "effects" : [

                                ],
                                "start" : 10073,
                                "duration" : 148,
                                "mediaStart" : 16552,
                                "mediaDuration" : 148,
                                "scalar" : 1,
                                "animationTracks" : {

                                }
                              }
,
                          "start" : 10073,
                          "duration" : 148,
                          "mediaStart" : 0,
                          "mediaDuration" : 23566,
                          "scalar" : 1,
                          "metadata" : {
                            "AutoAppliedSmartFocus" : "False",
                            "clipSpeedAttribute" : false
                          }
                        },
                        {
                          "id" : 2752,
                          "_type" : "UnifiedMedia",
                          "video" : 
                              {
                                "id" : 2753,
                                "_type" : "ScreenVMFile",
                                "src" : 3,
                                "trackNumber" : 0,
                                "attributes" : {
                                  "ident" : "Rec 01-28-21_003"
                                },
                                "parameters" : {
                                  "cursorScale" : {
                                    "type" : "double",
                                    "defaultValue" : 0.0,
                                    "interp" : "linr"
                                  },
                                  "cursorOpacity" : {
                                    "type" : "double",
                                    "defaultValue" : 0.0,
                                    "interp" : "linr"
                                  }
                                },
                                "effects" : [

                                ],
                                "start" : 10221,
                                "duration" : 300,
                                "mediaStart" : 16815,
                                "mediaDuration" : 300,
                                "scalar" : 1,
                                "animationTracks" : {

                                }
                              },
                          "audio" : 
                              {
                                "id" : 2754,
                                "_type" : "AMFile",
                                "src" : 3,
                                "trackNumber" : 1,
                                "attributes" : {
                                  "ident" : "",
                                  "gain" : 1.0,
                                  "mixToMono" : false
                                },
                                  "channelNumber" : "0,1",
                                "effects" : [

                                ],
                                "start" : 10221,
                                "duration" : 300,
                                "mediaStart" : 16815,
                                "mediaDuration" : 300,
                                "scalar" : 1,
                                "animationTracks" : {

                                }
                              }
,
                          "start" : 10221,
                          "duration" : 300,
                          "mediaStart" : 0,
                          "mediaDuration" : 23566,
                          "scalar" : 1,
                          "metadata" : {
                            "AutoAppliedSmartFocus" : "False",
                            "clipSpeedAttribute" : false
                          }
                        },
                        {
                          "id" : 2755,
                          "_type" : "UnifiedMedia",
                          "video" : 
                              {
                                "id" : 2756,
                                "_type" : "ScreenVMFile",
                                "src" : 3,
                                "trackNumber" : 0,
                                "attributes" : {
                                  "ident" : "Rec 01-28-21_003"
                                },
                                "parameters" : {
                                  "cursorScale" : {
                                    "type" : "double",
                                    "defaultValue" : 0.0,
                                    "interp" : "linr"
                                  },
                                  "cursorOpacity" : {
                                    "type" : "double",
                                    "defaultValue" : 0.0,
                                    "interp" : "linr"
                                  }
                                },
                                "effects" : [

                                ],
                                "start" : 10521,
                                "duration" : 58,
                                "mediaStart" : 17161,
                                "mediaDuration" : 58,
                                "scalar" : 1,
                                "animationTracks" : {

                                }
                              },
                          "audio" : 
                              {
                                "id" : 2757,
                                "_type" : "AMFile",
                                "src" : 3,
                                "trackNumber" : 1,
                                "attributes" : {
                                  "ident" : "",
                                  "gain" : 1.0,
                                  "mixToMono" : false
                                },
                                  "channelNumber" : "0,1",
                                "effects" : [

                                ],
                                "start" : 10521,
                                "duration" : 58,
                                "mediaStart" : 17161,
                                "mediaDuration" : 58,
                                "scalar" : 1,
                                "animationTracks" : {

                                }
                              }
,
                          "start" : 10521,
                          "duration" : 58,
                          "mediaStart" : 0,
                          "mediaDuration" : 23566,
                          "scalar" : 1,
                          "metadata" : {
                            "AutoAppliedSmartFocus" : "False",
                            "clipSpeedAttribute" : false
                          }
                        },
                        {
                          "id" : 2758,
                          "_type" : "UnifiedMedia",
                          "video" : 
                              {
                                "id" : 2759,
                                "_type" : "ScreenVMFile",
                                "src" : 3,
                                "trackNumber" : 0,
                                "attributes" : {
                                  "ident" : "Rec 01-28-21_003"
                                },
                                "parameters" : {
                                  "cursorScale" : {
                                    "type" : "double",
                                    "defaultValue" : 0.0,
                                    "interp" : "linr"
                                  },
                                  "cursorOpacity" : {
                                    "type" : "double",
                                    "defaultValue" : 0.0,
                                    "interp" : "linr"
                                  }
                                },
                                "effects" : [

                                ],
                                "start" : 10579,
                                "duration" : 108,
                                "mediaStart" : 17234,
                                "mediaDuration" : 108,
                                "scalar" : 1,
                                "animationTracks" : {

                                }
                              },
                          "audio" : 
                              {
                                "id" : 2760,
                                "_type" : "AMFile",
                                "src" : 3,
                                "trackNumber" : 1,
                                "attributes" : {
                                  "ident" : "",
                                  "gain" : 1.0,
                                  "mixToMono" : false
                                },
                                  "channelNumber" : "0,1",
                                "effects" : [

                                ],
                                "start" : 10579,
                                "duration" : 108,
                                "mediaStart" : 17234,
                                "mediaDuration" : 108,
                                "scalar" : 1,
                                "animationTracks" : {

                                }
                              }
,
                          "start" : 10579,
                          "duration" : 108,
                          "mediaStart" : 0,
                          "mediaDuration" : 23566,
                          "scalar" : 1,
                          "metadata" : {
                            "AutoAppliedSmartFocus" : "False",
                            "clipSpeedAttribute" : false
                          }
                        },
                        {
                          "id" : 2761,
                          "_type" : "UnifiedMedia",
                          "video" : 
                              {
                                "id" : 2762,
                                "_type" : "ScreenVMFile",
                                "src" : 3,
                                "trackNumber" : 0,
                                "attributes" : {
                                  "ident" : "Rec 01-28-21_003"
                                },
                                "parameters" : {
                                  "cursorScale" : {
                                    "type" : "double",
                                    "defaultValue" : 0.0,
                                    "interp" : "linr"
                                  },
                                  "cursorOpacity" : {
                                    "type" : "double",
                                    "defaultValue" : 0.0,
                                    "interp" : "linr"
                                  }
                                },
                                "effects" : [

                                ],
                                "start" : 10687,
                                "duration" : 33,
                                "mediaStart" : 17579,
                                "mediaDuration" : 33,
                                "scalar" : 1,
                                "animationTracks" : {

                                }
                              },
                          "audio" : 
                              {
                                "id" : 2763,
                                "_type" : "AMFile",
                                "src" : 3,
                                "trackNumber" : 1,
                                "attributes" : {
                                  "ident" : "",
                                  "gain" : 1.0,
                                  "mixToMono" : false
                                },
                                  "channelNumber" : "0,1",
                                "effects" : [

                                ],
                                "start" : 10687,
                                "duration" : 33,
                                "mediaStart" : 17579,
                                "mediaDuration" : 33,
                                "scalar" : 1,
                                "animationTracks" : {

                                }
                              }
,
                          "start" : 10687,
                          "duration" : 33,
                          "mediaStart" : 0,
                          "mediaDuration" : 23566,
                          "scalar" : 1,
                          "metadata" : {
                            "AutoAppliedSmartFocus" : "False",
                            "clipSpeedAttribute" : false
                          }
                        },
                        {
                          "id" : 2764,
                          "_type" : "UnifiedMedia",
                          "video" : 
                              {
                                "id" : 2765,
                                "_type" : "ScreenVMFile",
                                "src" : 3,
                                "trackNumber" : 0,
                                "attributes" : {
                                  "ident" : "Rec 01-28-21_003"
                                },
                                "parameters" : {
                                  "cursorScale" : {
                                    "type" : "double",
                                    "defaultValue" : 0.0,
                                    "interp" : "linr"
                                  },
                                  "cursorOpacity" : {
                                    "type" : "double",
                                    "defaultValue" : 0.0,
                                    "interp" : "linr"
                                  }
                                },
                                "effects" : [

                                ],
                                "start" : 10720,
                                "duration" : 5923,
                                "mediaStart" : 17643,
                                "mediaDuration" : 5923,
                                "scalar" : 1,
                                "animationTracks" : {

                                }
                              },
                          "audio" : 
                              {
                                "id" : 2766,
                                "_type" : "AMFile",
                                "src" : 3,
                                "trackNumber" : 1,
                                "attributes" : {
                                  "ident" : "",
                                  "gain" : 1.0,
                                  "mixToMono" : false
                                },
                                  "channelNumber" : "0,1",
                                "effects" : [

                                ],
                                "start" : 10720,
                                "duration" : 5923,
                                "mediaStart" : 17643,
                                "mediaDuration" : 5923,
                                "scalar" : 1,
                                "animationTracks" : {

                                }
                              }
,
                          "start" : 10720,
                          "duration" : 5923,
                          "mediaStart" : 0,
                          "mediaDuration" : 23566,
                          "scalar" : 1,
                          "metadata" : {
                            "AutoAppliedSmartFocus" : "False",
                            "clipSpeedAttribute" : false
                          }
                        }
                    ],
                    "effects" : [

                    ],
                    "start" : 15618,
                    "duration" : 765,
                    "mediaStart" : 9923,
                    "mediaDuration" : 765,
                    "scalar" : 1,
                    "metadata" : {
                      "AutoAppliedSmartFocus" : "False",
                      "clipSpeedAttribute" : false
                    },
                    "animationTracks" : {

                    }
                  },
                  {
                    "id" : 2767,
                    "_type" : "StitchedMedia",
                    "minMediaStart" : 0,
                    "attributes" : {
                      "ident" : "Rec 01-28-21_003",
                      "gain" : 1.0,
                      "mixToMono" : false
                    },
                    "parameters" : {
                      "volume" : 1.0,
                      "cursorOpacity" : 1.0,
                      "cursorScale" : 1.0
                    },
                    "medias" : [
                        {
                          "id" : 2768,
                          "_type" : "UnifiedMedia",
                          "video" : 
                              {
                                "id" : 2769,
                                "_type" : "ScreenVMFile",
                                "src" : 3,
                                "trackNumber" : 0,
                                "attributes" : {
                                  "ident" : "Rec 01-28-21_003"
                                },
                                "parameters" : {
                                  "cursorScale" : {
                                    "type" : "double",
                                    "defaultValue" : 0.0,
                                    "interp" : "linr"
                                  },
                                  "cursorOpacity" : {
                                    "type" : "double",
                                    "defaultValue" : 0.0,
                                    "interp" : "linr"
                                  }
                                },
                                "effects" : [

                                ],
                                "start" : 0,
                                "duration" : 9,
                                "mediaStart" : 0,
                                "mediaDuration" : 9,
                                "scalar" : 1,
                                "animationTracks" : {

                                }
                              },
                          "audio" : 
                              {
                                "id" : 2770,
                                "_type" : "AMFile",
                                "src" : 3,
                                "trackNumber" : 1,
                                "attributes" : {
                                  "ident" : "",
                                  "gain" : 1.0,
                                  "mixToMono" : false
                                },
                                  "channelNumber" : "0,1",
                                "effects" : [

                                ],
                                "start" : 0,
                                "duration" : 9,
                                "mediaStart" : 0,
                                "mediaDuration" : 9,
                                "scalar" : 1,
                                "animationTracks" : {

                                }
                              }
,
                          "start" : 0,
                          "duration" : 9,
                          "mediaStart" : 0,
                          "mediaDuration" : 23566,
                          "scalar" : 1,
                          "metadata" : {
                            "AutoAppliedSmartFocus" : "False",
                            "clipSpeedAttribute" : false
                          }
                        },
                        {
                          "id" : 2771,
                          "_type" : "UnifiedMedia",
                          "video" : 
                              {
                                "id" : 2772,
                                "_type" : "ScreenVMFile",
                                "src" : 3,
                                "trackNumber" : 0,
                                "attributes" : {
                                  "ident" : "Rec 01-28-21_003"
                                },
                                "parameters" : {
                                  "cursorScale" : {
                                    "type" : "double",
                                    "defaultValue" : 0.0,
                                    "interp" : "linr"
                                  },
                                  "cursorOpacity" : {
                                    "type" : "double",
                                    "defaultValue" : 0.0,
                                    "interp" : "linr"
                                  }
                                },
                                "effects" : [

                                ],
                                "start" : 9,
                                "duration" : 47,
                                "mediaStart" : 1540,
                                "mediaDuration" : 47,
                                "scalar" : 1,
                                "animationTracks" : {

                                }
                              },
                          "audio" : 
                              {
                                "id" : 2773,
                                "_type" : "AMFile",
                                "src" : 3,
                                "trackNumber" : 1,
                                "attributes" : {
                                  "ident" : "",
                                  "gain" : 1.0,
                                  "mixToMono" : false
                                },
                                  "channelNumber" : "0,1",
                                "effects" : [

                                ],
                                "start" : 9,
                                "duration" : 47,
                                "mediaStart" : 1540,
                                "mediaDuration" : 47,
                                "scalar" : 1,
                                "animationTracks" : {

                                }
                              }
,
                          "start" : 9,
                          "duration" : 47,
                          "mediaStart" : 0,
                          "mediaDuration" : 23566,
                          "scalar" : 1,
                          "metadata" : {
                            "AutoAppliedSmartFocus" : "False",
                            "clipSpeedAttribute" : false
                          }
                        },
                        {
                          "id" : 2774,
                          "_type" : "UnifiedMedia",
                          "video" : 
                              {
                                "id" : 2775,
                                "_type" : "ScreenVMFile",
                                "src" : 3,
                                "trackNumber" : 0,
                                "attributes" : {
                                  "ident" : "Rec 01-28-21_003"
                                },
                                "parameters" : {
                                  "cursorScale" : {
                                    "type" : "double",
                                    "defaultValue" : 0.0,
                                    "interp" : "linr"
                                  },
                                  "cursorOpacity" : {
                                    "type" : "double",
                                    "defaultValue" : 0.0,
                                    "interp" : "linr"
                                  }
                                },
                                "effects" : [

                                ],
                                "start" : 56,
                                "duration" : 35,
                                "mediaStart" : 1641,
                                "mediaDuration" : 35,
                                "scalar" : 1,
                                "animationTracks" : {

                                }
                              },
                          "audio" : 
                              {
                                "id" : 2776,
                                "_type" : "AMFile",
                                "src" : 3,
                                "trackNumber" : 1,
                                "attributes" : {
                                  "ident" : "",
                                  "gain" : 1.0,
                                  "mixToMono" : false
                                },
                                  "channelNumber" : "0,1",
                                "effects" : [

                                ],
                                "start" : 56,
                                "duration" : 35,
                                "mediaStart" : 1641,
                                "mediaDuration" : 35,
                                "scalar" : 1,
                                "animationTracks" : {

                                }
                              }
,
                          "start" : 56,
                          "duration" : 35,
                          "mediaStart" : 0,
                          "mediaDuration" : 23566,
                          "scalar" : 1,
                          "metadata" : {
                            "AutoAppliedSmartFocus" : "False",
                            "clipSpeedAttribute" : false
                          }
                        },
                        {
                          "id" : 2777,
                          "_type" : "UnifiedMedia",
                          "video" : 
                              {
                                "id" : 2778,
                                "_type" : "ScreenVMFile",
                                "src" : 3,
                                "trackNumber" : 0,
                                "attributes" : {
                                  "ident" : "Rec 01-28-21_003"
                                },
                                "parameters" : {
                                  "cursorScale" : {
                                    "type" : "double",
                                    "defaultValue" : 0.0,
                                    "interp" : "linr"
                                  },
                                  "cursorOpacity" : {
                                    "type" : "double",
                                    "defaultValue" : 0.0,
                                    "interp" : "linr"
                                  }
                                },
                                "effects" : [

                                ],
                                "start" : 91,
                                "duration" : 73,
                                "mediaStart" : 1702,
                                "mediaDuration" : 73,
                                "scalar" : 1,
                                "animationTracks" : {

                                }
                              },
                          "audio" : 
                              {
                                "id" : 2779,
                                "_type" : "AMFile",
                                "src" : 3,
                                "trackNumber" : 1,
                                "attributes" : {
                                  "ident" : "",
                                  "gain" : 1.0,
                                  "mixToMono" : false
                                },
                                  "channelNumber" : "0,1",
                                "effects" : [

                                ],
                                "start" : 91,
                                "duration" : 73,
                                "mediaStart" : 1702,
                                "mediaDuration" : 73,
                                "scalar" : 1,
                                "animationTracks" : {

                                }
                              }
,
                          "start" : 91,
                          "duration" : 73,
                          "mediaStart" : 0,
                          "mediaDuration" : 23566,
                          "scalar" : 1,
                          "metadata" : {
                            "AutoAppliedSmartFocus" : "False",
                            "clipSpeedAttribute" : false
                          }
                        },
                        {
                          "id" : 2780,
                          "_type" : "UnifiedMedia",
                          "video" : 
                              {
                                "id" : 2781,
                                "_type" : "ScreenVMFile",
                                "src" : 3,
                                "trackNumber" : 0,
                                "attributes" : {
                                  "ident" : "Rec 01-28-21_003"
                                },
                                "parameters" : {
                                  "cursorScale" : {
                                    "type" : "double",
                                    "defaultValue" : 0.0,
                                    "interp" : "linr"
                                  },
                                  "cursorOpacity" : {
                                    "type" : "double",
                                    "defaultValue" : 0.0,
                                    "interp" : "linr"
                                  }
                                },
                                "effects" : [

                                ],
                                "start" : 164,
                                "duration" : 122,
                                "mediaStart" : 1849,
                                "mediaDuration" : 122,
                                "scalar" : 1,
                                "animationTracks" : {

                                }
                              },
                          "audio" : 
                              {
                                "id" : 2782,
                                "_type" : "AMFile",
                                "src" : 3,
                                "trackNumber" : 1,
                                "attributes" : {
                                  "ident" : "",
                                  "gain" : 1.0,
                                  "mixToMono" : false
                                },
                                  "channelNumber" : "0,1",
                                "effects" : [

                                ],
                                "start" : 164,
                                "duration" : 122,
                                "mediaStart" : 1849,
                                "mediaDuration" : 122,
                                "scalar" : 1,
                                "animationTracks" : {

                                }
                              }
,
                          "start" : 164,
                          "duration" : 122,
                          "mediaStart" : 0,
                          "mediaDuration" : 23566,
                          "scalar" : 1,
                          "metadata" : {
                            "AutoAppliedSmartFocus" : "False",
                            "clipSpeedAttribute" : false
                          }
                        },
                        {
                          "id" : 2783,
                          "_type" : "UnifiedMedia",
                          "video" : 
                              {
                                "id" : 2784,
                                "_type" : "ScreenVMFile",
                                "src" : 3,
                                "trackNumber" : 0,
                                "attributes" : {
                                  "ident" : "Rec 01-28-21_003"
                                },
                                "parameters" : {
                                  "cursorScale" : {
                                    "type" : "double",
                                    "defaultValue" : 0.0,
                                    "interp" : "linr"
                                  },
                                  "cursorOpacity" : {
                                    "type" : "double",
                                    "defaultValue" : 0.0,
                                    "interp" : "linr"
                                  }
                                },
                                "effects" : [

                                ],
                                "start" : 286,
                                "duration" : 38,
                                "mediaStart" : 2036,
                                "mediaDuration" : 38,
                                "scalar" : 1,
                                "animationTracks" : {

                                }
                              },
                          "audio" : 
                              {
                                "id" : 2785,
                                "_type" : "AMFile",
                                "src" : 3,
                                "trackNumber" : 1,
                                "attributes" : {
                                  "ident" : "",
                                  "gain" : 1.0,
                                  "mixToMono" : false
                                },
                                  "channelNumber" : "0,1",
                                "effects" : [

                                ],
                                "start" : 286,
                                "duration" : 38,
                                "mediaStart" : 2036,
                                "mediaDuration" : 38,
                                "scalar" : 1,
                                "animationTracks" : {

                                }
                              }
,
                          "start" : 286,
                          "duration" : 38,
                          "mediaStart" : 0,
                          "mediaDuration" : 23566,
                          "scalar" : 1,
                          "metadata" : {
                            "AutoAppliedSmartFocus" : "False",
                            "clipSpeedAttribute" : false
                          }
                        },
                        {
                          "id" : 2786,
                          "_type" : "UnifiedMedia",
                          "video" : 
                              {
                                "id" : 2787,
                                "_type" : "ScreenVMFile",
                                "src" : 3,
                                "trackNumber" : 0,
                                "attributes" : {
                                  "ident" : "Rec 01-28-21_003"
                                },
                                "parameters" : {
                                  "cursorScale" : {
                                    "type" : "double",
                                    "defaultValue" : 0.0,
                                    "interp" : "linr"
                                  },
                                  "cursorOpacity" : {
                                    "type" : "double",
                                    "defaultValue" : 0.0,
                                    "interp" : "linr"
                                  }
                                },
                                "effects" : [

                                ],
                                "start" : 324,
                                "duration" : 30,
                                "mediaStart" : 2087,
                                "mediaDuration" : 30,
                                "scalar" : 1,
                                "animationTracks" : {

                                }
                              },
                          "audio" : 
                              {
                                "id" : 2788,
                                "_type" : "AMFile",
                                "src" : 3,
                                "trackNumber" : 1,
                                "attributes" : {
                                  "ident" : "",
                                  "gain" : 1.0,
                                  "mixToMono" : false
                                },
                                  "channelNumber" : "0,1",
                                "effects" : [

                                ],
                                "start" : 324,
                                "duration" : 30,
                                "mediaStart" : 2087,
                                "mediaDuration" : 30,
                                "scalar" : 1,
                                "animationTracks" : {

                                }
                              }
,
                          "start" : 324,
                          "duration" : 30,
                          "mediaStart" : 0,
                          "mediaDuration" : 23566,
                          "scalar" : 1,
                          "metadata" : {
                            "AutoAppliedSmartFocus" : "False",
                            "clipSpeedAttribute" : false
                          }
                        },
                        {
                          "id" : 2789,
                          "_type" : "UnifiedMedia",
                          "video" : 
                              {
                                "id" : 2790,
                                "_type" : "ScreenVMFile",
                                "src" : 3,
                                "trackNumber" : 0,
                                "attributes" : {
                                  "ident" : "Rec 01-28-21_003"
                                },
                                "parameters" : {
                                  "cursorScale" : {
                                    "type" : "double",
                                    "defaultValue" : 0.0,
                                    "interp" : "linr"
                                  },
                                  "cursorOpacity" : {
                                    "type" : "double",
                                    "defaultValue" : 0.0,
                                    "interp" : "linr"
                                  }
                                },
                                "effects" : [

                                ],
                                "start" : 354,
                                "duration" : 92,
                                "mediaStart" : 2148,
                                "mediaDuration" : 92,
                                "scalar" : 1,
                                "animationTracks" : {

                                }
                              },
                          "audio" : 
                              {
                                "id" : 2791,
                                "_type" : "AMFile",
                                "src" : 3,
                                "trackNumber" : 1,
                                "attributes" : {
                                  "ident" : "",
                                  "gain" : 1.0,
                                  "mixToMono" : false
                                },
                                  "channelNumber" : "0,1",
                                "effects" : [

                                ],
                                "start" : 354,
                                "duration" : 92,
                                "mediaStart" : 2148,
                                "mediaDuration" : 92,
                                "scalar" : 1,
                                "animationTracks" : {

                                }
                              }
,
                          "start" : 354,
                          "duration" : 92,
                          "mediaStart" : 0,
                          "mediaDuration" : 23566,
                          "scalar" : 1,
                          "metadata" : {
                            "AutoAppliedSmartFocus" : "False",
                            "clipSpeedAttribute" : false
                          }
                        },
                        {
                          "id" : 2792,
                          "_type" : "UnifiedMedia",
                          "video" : 
                              {
                                "id" : 2793,
                                "_type" : "ScreenVMFile",
                                "src" : 3,
                                "trackNumber" : 0,
                                "attributes" : {
                                  "ident" : "Rec 01-28-21_003"
                                },
                                "parameters" : {
                                  "cursorScale" : {
                                    "type" : "double",
                                    "defaultValue" : 0.0,
                                    "interp" : "linr"
                                  },
                                  "cursorOpacity" : {
                                    "type" : "double",
                                    "defaultValue" : 0.0,
                                    "interp" : "linr"
                                  }
                                },
                                "effects" : [

                                ],
                                "start" : 446,
                                "duration" : 63,
                                "mediaStart" : 2290,
                                "mediaDuration" : 63,
                                "scalar" : 1,
                                "animationTracks" : {

                                }
                              },
                          "audio" : 
                              {
                                "id" : 2794,
                                "_type" : "AMFile",
                                "src" : 3,
                                "trackNumber" : 1,
                                "attributes" : {
                                  "ident" : "",
                                  "gain" : 1.0,
                                  "mixToMono" : false
                                },
                                  "channelNumber" : "0,1",
                                "effects" : [

                                ],
                                "start" : 446,
                                "duration" : 63,
                                "mediaStart" : 2290,
                                "mediaDuration" : 63,
                                "scalar" : 1,
                                "animationTracks" : {

                                }
                              }
,
                          "start" : 446,
                          "duration" : 63,
                          "mediaStart" : 0,
                          "mediaDuration" : 23566,
                          "scalar" : 1,
                          "metadata" : {
                            "AutoAppliedSmartFocus" : "False",
                            "clipSpeedAttribute" : false
                          }
                        },
                        {
                          "id" : 2795,
                          "_type" : "UnifiedMedia",
                          "video" : 
                              {
                                "id" : 2796,
                                "_type" : "ScreenVMFile",
                                "src" : 3,
                                "trackNumber" : 0,
                                "attributes" : {
                                  "ident" : "Rec 01-28-21_003"
                                },
                                "parameters" : {
                                  "cursorScale" : {
                                    "type" : "double",
                                    "defaultValue" : 0.0,
                                    "interp" : "linr"
                                  },
                                  "cursorOpacity" : {
                                    "type" : "double",
                                    "defaultValue" : 0.0,
                                    "interp" : "linr"
                                  }
                                },
                                "effects" : [

                                ],
                                "start" : 509,
                                "duration" : 27,
                                "mediaStart" : 2376,
                                "mediaDuration" : 27,
                                "scalar" : 1,
                                "animationTracks" : {

                                }
                              },
                          "audio" : 
                              {
                                "id" : 2797,
                                "_type" : "AMFile",
                                "src" : 3,
                                "trackNumber" : 1,
                                "attributes" : {
                                  "ident" : "",
                                  "gain" : 1.0,
                                  "mixToMono" : false
                                },
                                  "channelNumber" : "0,1",
                                "effects" : [

                                ],
                                "start" : 509,
                                "duration" : 27,
                                "mediaStart" : 2376,
                                "mediaDuration" : 27,
                                "scalar" : 1,
                                "animationTracks" : {

                                }
                              }
,
                          "start" : 509,
                          "duration" : 27,
                          "mediaStart" : 0,
                          "mediaDuration" : 23566,
                          "scalar" : 1,
                          "metadata" : {
                            "AutoAppliedSmartFocus" : "False",
                            "clipSpeedAttribute" : false
                          }
                        },
                        {
                          "id" : 2798,
                          "_type" : "UnifiedMedia",
                          "video" : 
                              {
                                "id" : 2799,
                                "_type" : "ScreenVMFile",
                                "src" : 3,
                                "trackNumber" : 0,
                                "attributes" : {
                                  "ident" : "Rec 01-28-21_003"
                                },
                                "parameters" : {
                                  "cursorScale" : {
                                    "type" : "double",
                                    "defaultValue" : 0.0,
                                    "interp" : "linr"
                                  },
                                  "cursorOpacity" : {
                                    "type" : "double",
                                    "defaultValue" : 0.0,
                                    "interp" : "linr"
                                  }
                                },
                                "effects" : [

                                ],
                                "start" : 536,
                                "duration" : 31,
                                "mediaStart" : 2426,
                                "mediaDuration" : 31,
                                "scalar" : 1,
                                "animationTracks" : {

                                }
                              },
                          "audio" : 
                              {
                                "id" : 2800,
                                "_type" : "AMFile",
                                "src" : 3,
                                "trackNumber" : 1,
                                "attributes" : {
                                  "ident" : "",
                                  "gain" : 1.0,
                                  "mixToMono" : false
                                },
                                  "channelNumber" : "0,1",
                                "effects" : [

                                ],
                                "start" : 536,
                                "duration" : 31,
                                "mediaStart" : 2426,
                                "mediaDuration" : 31,
                                "scalar" : 1,
                                "animationTracks" : {

                                }
                              }
,
                          "start" : 536,
                          "duration" : 31,
                          "mediaStart" : 0,
                          "mediaDuration" : 23566,
                          "scalar" : 1,
                          "metadata" : {
                            "AutoAppliedSmartFocus" : "False",
                            "clipSpeedAttribute" : false
                          }
                        },
                        {
                          "id" : 2801,
                          "_type" : "UnifiedMedia",
                          "video" : 
                              {
                                "id" : 2802,
                                "_type" : "ScreenVMFile",
                                "src" : 3,
                                "trackNumber" : 0,
                                "attributes" : {
                                  "ident" : "Rec 01-28-21_003"
                                },
                                "parameters" : {
                                  "cursorScale" : {
                                    "type" : "double",
                                    "defaultValue" : 0.0,
                                    "interp" : "linr"
                                  },
                                  "cursorOpacity" : {
                                    "type" : "double",
                                    "defaultValue" : 0.0,
                                    "interp" : "linr"
                                  }
                                },
                                "effects" : [

                                ],
                                "start" : 567,
                                "duration" : 25,
                                "mediaStart" : 2496,
                                "mediaDuration" : 25,
                                "scalar" : 1,
                                "animationTracks" : {

                                }
                              },
                          "audio" : 
                              {
                                "id" : 2803,
                                "_type" : "AMFile",
                                "src" : 3,
                                "trackNumber" : 1,
                                "attributes" : {
                                  "ident" : "",
                                  "gain" : 1.0,
                                  "mixToMono" : false
                                },
                                  "channelNumber" : "0,1",
                                "effects" : [

                                ],
                                "start" : 567,
                                "duration" : 25,
                                "mediaStart" : 2496,
                                "mediaDuration" : 25,
                                "scalar" : 1,
                                "animationTracks" : {

                                }
                              }
,
                          "start" : 567,
                          "duration" : 25,
                          "mediaStart" : 0,
                          "mediaDuration" : 23566,
                          "scalar" : 1,
                          "metadata" : {
                            "AutoAppliedSmartFocus" : "False",
                            "clipSpeedAttribute" : false
                          }
                        },
                        {
                          "id" : 2804,
                          "_type" : "UnifiedMedia",
                          "video" : 
                              {
                                "id" : 2805,
                                "_type" : "ScreenVMFile",
                                "src" : 3,
                                "trackNumber" : 0,
                                "attributes" : {
                                  "ident" : "Rec 01-28-21_003"
                                },
                                "parameters" : {
                                  "cursorScale" : {
                                    "type" : "double",
                                    "defaultValue" : 0.0,
                                    "interp" : "linr"
                                  },
                                  "cursorOpacity" : {
                                    "type" : "double",
                                    "defaultValue" : 0.0,
                                    "interp" : "linr"
                                  }
                                },
                                "effects" : [

                                ],
                                "start" : 592,
                                "duration" : 31,
                                "mediaStart" : 2611,
                                "mediaDuration" : 31,
                                "scalar" : 1,
                                "animationTracks" : {

                                }
                              },
                          "audio" : 
                              {
                                "id" : 2806,
                                "_type" : "AMFile",
                                "src" : 3,
                                "trackNumber" : 1,
                                "attributes" : {
                                  "ident" : "",
                                  "gain" : 1.0,
                                  "mixToMono" : false
                                },
                                  "channelNumber" : "0,1",
                                "effects" : [

                                ],
                                "start" : 592,
                                "duration" : 31,
                                "mediaStart" : 2611,
                                "mediaDuration" : 31,
                                "scalar" : 1,
                                "animationTracks" : {

                                }
                              }
,
                          "start" : 592,
                          "duration" : 31,
                          "mediaStart" : 0,
                          "mediaDuration" : 23566,
                          "scalar" : 1,
                          "metadata" : {
                            "AutoAppliedSmartFocus" : "False",
                            "clipSpeedAttribute" : false
                          }
                        },
                        {
                          "id" : 2807,
                          "_type" : "UnifiedMedia",
                          "video" : 
                              {
                                "id" : 2808,
                                "_type" : "ScreenVMFile",
                                "src" : 3,
                                "trackNumber" : 0,
                                "attributes" : {
                                  "ident" : "Rec 01-28-21_003"
                                },
                                "parameters" : {
                                  "cursorScale" : {
                                    "type" : "double",
                                    "defaultValue" : 0.0,
                                    "interp" : "linr"
                                  },
                                  "cursorOpacity" : {
                                    "type" : "double",
                                    "defaultValue" : 0.0,
                                    "interp" : "linr"
                                  }
                                },
                                "effects" : [

                                ],
                                "start" : 623,
                                "duration" : 731,
                                "mediaStart" : 2727,
                                "mediaDuration" : 731,
                                "scalar" : 1,
                                "animationTracks" : {

                                }
                              },
                          "audio" : 
                              {
                                "id" : 2809,
                                "_type" : "AMFile",
                                "src" : 3,
                                "trackNumber" : 1,
                                "attributes" : {
                                  "ident" : "",
                                  "gain" : 1.0,
                                  "mixToMono" : false
                                },
                                  "channelNumber" : "0,1",
                                "effects" : [

                                ],
                                "start" : 623,
                                "duration" : 731,
                                "mediaStart" : 2727,
                                "mediaDuration" : 731,
                                "scalar" : 1,
                                "animationTracks" : {

                                }
                              }
,
                          "start" : 623,
                          "duration" : 731,
                          "mediaStart" : 0,
                          "mediaDuration" : 23566,
                          "scalar" : 1,
                          "metadata" : {
                            "AutoAppliedSmartFocus" : "False",
                            "clipSpeedAttribute" : false
                          }
                        },
                        {
                          "id" : 2810,
                          "_type" : "UnifiedMedia",
                          "video" : 
                              {
                                "id" : 2811,
                                "_type" : "ScreenVMFile",
                                "src" : 3,
                                "trackNumber" : 0,
                                "attributes" : {
                                  "ident" : "Rec 01-28-21_003"
                                },
                                "parameters" : {
                                  "cursorScale" : {
                                    "type" : "double",
                                    "defaultValue" : 0.0,
                                    "interp" : "linr"
                                  },
                                  "cursorOpacity" : {
                                    "type" : "double",
                                    "defaultValue" : 0.0,
                                    "interp" : "linr"
                                  }
                                },
                                "effects" : [

                                ],
                                "start" : 1354,
                                "duration" : 293,
                                "mediaStart" : 3532,
                                "mediaDuration" : 293,
                                "scalar" : 1,
                                "animationTracks" : {

                                }
                              },
                          "audio" : 
                              {
                                "id" : 2812,
                                "_type" : "AMFile",
                                "src" : 3,
                                "trackNumber" : 1,
                                "attributes" : {
                                  "ident" : "",
                                  "gain" : 1.0,
                                  "mixToMono" : false
                                },
                                  "channelNumber" : "0,1",
                                "effects" : [

                                ],
                                "start" : 1354,
                                "duration" : 293,
                                "mediaStart" : 3532,
                                "mediaDuration" : 293,
                                "scalar" : 1,
                                "animationTracks" : {

                                }
                              }
,
                          "start" : 1354,
                          "duration" : 293,
                          "mediaStart" : 0,
                          "mediaDuration" : 23566,
                          "scalar" : 1,
                          "metadata" : {
                            "AutoAppliedSmartFocus" : "False",
                            "clipSpeedAttribute" : false
                          }
                        },
                        {
                          "id" : 2813,
                          "_type" : "UnifiedMedia",
                          "video" : 
                              {
                                "id" : 2814,
                                "_type" : "ScreenVMFile",
                                "src" : 3,
                                "trackNumber" : 0,
                                "attributes" : {
                                  "ident" : "Rec 01-28-21_003"
                                },
                                "parameters" : {
                                  "cursorScale" : {
                                    "type" : "double",
                                    "defaultValue" : 0.0,
                                    "interp" : "linr"
                                  },
                                  "cursorOpacity" : {
                                    "type" : "double",
                                    "defaultValue" : 0.0,
                                    "interp" : "linr"
                                  }
                                },
                                "effects" : [

                                ],
                                "start" : 1647,
                                "duration" : 194,
                                "mediaStart" : 3916,
                                "mediaDuration" : 194,
                                "scalar" : 1,
                                "animationTracks" : {

                                }
                              },
                          "audio" : 
                              {
                                "id" : 2815,
                                "_type" : "AMFile",
                                "src" : 3,
                                "trackNumber" : 1,
                                "attributes" : {
                                  "ident" : "",
                                  "gain" : 1.0,
                                  "mixToMono" : false
                                },
                                  "channelNumber" : "0,1",
                                "effects" : [

                                ],
                                "start" : 1647,
                                "duration" : 194,
                                "mediaStart" : 3916,
                                "mediaDuration" : 194,
                                "scalar" : 1,
                                "animationTracks" : {

                                }
                              }
,
                          "start" : 1647,
                          "duration" : 194,
                          "mediaStart" : 0,
                          "mediaDuration" : 23566,
                          "scalar" : 1,
                          "metadata" : {
                            "AutoAppliedSmartFocus" : "False",
                            "clipSpeedAttribute" : false
                          }
                        },
                        {
                          "id" : 2816,
                          "_type" : "UnifiedMedia",
                          "video" : 
                              {
                                "id" : 2817,
                                "_type" : "ScreenVMFile",
                                "src" : 3,
                                "trackNumber" : 0,
                                "attributes" : {
                                  "ident" : "Rec 01-28-21_003"
                                },
                                "parameters" : {
                                  "cursorScale" : {
                                    "type" : "double",
                                    "defaultValue" : 0.0,
                                    "interp" : "linr"
                                  },
                                  "cursorOpacity" : {
                                    "type" : "double",
                                    "defaultValue" : 0.0,
                                    "interp" : "linr"
                                  }
                                },
                                "effects" : [

                                ],
                                "start" : 1841,
                                "duration" : 37,
                                "mediaStart" : 4201,
                                "mediaDuration" : 37,
                                "scalar" : 1,
                                "animationTracks" : {

                                }
                              },
                          "audio" : 
                              {
                                "id" : 2818,
                                "_type" : "AMFile",
                                "src" : 3,
                                "trackNumber" : 1,
                                "attributes" : {
                                  "ident" : "",
                                  "gain" : 1.0,
                                  "mixToMono" : false
                                },
                                  "channelNumber" : "0,1",
                                "effects" : [

                                ],
                                "start" : 1841,
                                "duration" : 37,
                                "mediaStart" : 4201,
                                "mediaDuration" : 37,
                                "scalar" : 1,
                                "animationTracks" : {

                                }
                              }
,
                          "start" : 1841,
                          "duration" : 37,
                          "mediaStart" : 0,
                          "mediaDuration" : 23566,
                          "scalar" : 1,
                          "metadata" : {
                            "AutoAppliedSmartFocus" : "False",
                            "clipSpeedAttribute" : false
                          }
                        },
                        {
                          "id" : 2819,
                          "_type" : "UnifiedMedia",
                          "video" : 
                              {
                                "id" : 2820,
                                "_type" : "ScreenVMFile",
                                "src" : 3,
                                "trackNumber" : 0,
                                "attributes" : {
                                  "ident" : "Rec 01-28-21_003"
                                },
                                "parameters" : {
                                  "cursorScale" : {
                                    "type" : "double",
                                    "defaultValue" : 0.0,
                                    "interp" : "linr"
                                  },
                                  "cursorOpacity" : {
                                    "type" : "double",
                                    "defaultValue" : 0.0,
                                    "interp" : "linr"
                                  }
                                },
                                "effects" : [

                                ],
                                "start" : 1878,
                                "duration" : 37,
                                "mediaStart" : 4247,
                                "mediaDuration" : 37,
                                "scalar" : 1,
                                "animationTracks" : {

                                }
                              },
                          "audio" : 
                              {
                                "id" : 2821,
                                "_type" : "AMFile",
                                "src" : 3,
                                "trackNumber" : 1,
                                "attributes" : {
                                  "ident" : "",
                                  "gain" : 1.0,
                                  "mixToMono" : false
                                },
                                  "channelNumber" : "0,1",
                                "effects" : [

                                ],
                                "start" : 1878,
                                "duration" : 37,
                                "mediaStart" : 4247,
                                "mediaDuration" : 37,
                                "scalar" : 1,
                                "animationTracks" : {

                                }
                              }
,
                          "start" : 1878,
                          "duration" : 37,
                          "mediaStart" : 0,
                          "mediaDuration" : 23566,
                          "scalar" : 1,
                          "metadata" : {
                            "AutoAppliedSmartFocus" : "False",
                            "clipSpeedAttribute" : false
                          }
                        },
                        {
                          "id" : 2822,
                          "_type" : "UnifiedMedia",
                          "video" : 
                              {
                                "id" : 2823,
                                "_type" : "ScreenVMFile",
                                "src" : 3,
                                "trackNumber" : 0,
                                "attributes" : {
                                  "ident" : "Rec 01-28-21_003"
                                },
                                "parameters" : {
                                  "cursorScale" : {
                                    "type" : "double",
                                    "defaultValue" : 0.0,
                                    "interp" : "linr"
                                  },
                                  "cursorOpacity" : {
                                    "type" : "double",
                                    "defaultValue" : 0.0,
                                    "interp" : "linr"
                                  }
                                },
                                "effects" : [

                                ],
                                "start" : 1915,
                                "duration" : 22,
                                "mediaStart" : 4384,
                                "mediaDuration" : 22,
                                "scalar" : 1,
                                "animationTracks" : {

                                }
                              },
                          "audio" : 
                              {
                                "id" : 2824,
                                "_type" : "AMFile",
                                "src" : 3,
                                "trackNumber" : 1,
                                "attributes" : {
                                  "ident" : "",
                                  "gain" : 1.0,
                                  "mixToMono" : false
                                },
                                  "channelNumber" : "0,1",
                                "effects" : [

                                ],
                                "start" : 1915,
                                "duration" : 22,
                                "mediaStart" : 4384,
                                "mediaDuration" : 22,
                                "scalar" : 1,
                                "animationTracks" : {

                                }
                              }
,
                          "start" : 1915,
                          "duration" : 22,
                          "mediaStart" : 0,
                          "mediaDuration" : 23566,
                          "scalar" : 1,
                          "metadata" : {
                            "AutoAppliedSmartFocus" : "False",
                            "clipSpeedAttribute" : false
                          }
                        },
                        {
                          "id" : 2825,
                          "_type" : "UnifiedMedia",
                          "video" : 
                              {
                                "id" : 2826,
                                "_type" : "ScreenVMFile",
                                "src" : 3,
                                "trackNumber" : 0,
                                "attributes" : {
                                  "ident" : "Rec 01-28-21_003"
                                },
                                "parameters" : {
                                  "cursorScale" : {
                                    "type" : "double",
                                    "defaultValue" : 0.0,
                                    "interp" : "linr"
                                  },
                                  "cursorOpacity" : {
                                    "type" : "double",
                                    "defaultValue" : 0.0,
                                    "interp" : "linr"
                                  }
                                },
                                "effects" : [

                                ],
                                "start" : 1937,
                                "duration" : 34,
                                "mediaStart" : 4420,
                                "mediaDuration" : 34,
                                "scalar" : 1,
                                "animationTracks" : {

                                }
                              },
                          "audio" : 
                              {
                                "id" : 2827,
                                "_type" : "AMFile",
                                "src" : 3,
                                "trackNumber" : 1,
                                "attributes" : {
                                  "ident" : "",
                                  "gain" : 1.0,
                                  "mixToMono" : false
                                },
                                  "channelNumber" : "0,1",
                                "effects" : [

                                ],
                                "start" : 1937,
                                "duration" : 34,
                                "mediaStart" : 4420,
                                "mediaDuration" : 34,
                                "scalar" : 1,
                                "animationTracks" : {

                                }
                              }
,
                          "start" : 1937,
                          "duration" : 34,
                          "mediaStart" : 0,
                          "mediaDuration" : 23566,
                          "scalar" : 1,
                          "metadata" : {
                            "AutoAppliedSmartFocus" : "False",
                            "clipSpeedAttribute" : false
                          }
                        },
                        {
                          "id" : 2828,
                          "_type" : "UnifiedMedia",
                          "video" : 
                              {
                                "id" : 2829,
                                "_type" : "ScreenVMFile",
                                "src" : 3,
                                "trackNumber" : 0,
                                "attributes" : {
                                  "ident" : "Rec 01-28-21_003"
                                },
                                "parameters" : {
                                  "cursorScale" : {
                                    "type" : "double",
                                    "defaultValue" : 0.0,
                                    "interp" : "linr"
                                  },
                                  "cursorOpacity" : {
                                    "type" : "double",
                                    "defaultValue" : 0.0,
                                    "interp" : "linr"
                                  }
                                },
                                "effects" : [

                                ],
                                "start" : 1971,
                                "duration" : 39,
                                "mediaStart" : 4925,
                                "mediaDuration" : 39,
                                "scalar" : 1,
                                "animationTracks" : {

                                }
                              },
                          "audio" : 
                              {
                                "id" : 2830,
                                "_type" : "AMFile",
                                "src" : 3,
                                "trackNumber" : 1,
                                "attributes" : {
                                  "ident" : "",
                                  "gain" : 1.0,
                                  "mixToMono" : false
                                },
                                  "channelNumber" : "0,1",
                                "effects" : [

                                ],
                                "start" : 1971,
                                "duration" : 39,
                                "mediaStart" : 4925,
                                "mediaDuration" : 39,
                                "scalar" : 1,
                                "animationTracks" : {

                                }
                              }
,
                          "start" : 1971,
                          "duration" : 39,
                          "mediaStart" : 0,
                          "mediaDuration" : 23566,
                          "scalar" : 1,
                          "metadata" : {
                            "AutoAppliedSmartFocus" : "False",
                            "clipSpeedAttribute" : false
                          }
                        },
                        {
                          "id" : 2831,
                          "_type" : "UnifiedMedia",
                          "video" : 
                              {
                                "id" : 2832,
                                "_type" : "ScreenVMFile",
                                "src" : 3,
                                "trackNumber" : 0,
                                "attributes" : {
                                  "ident" : "Rec 01-28-21_003"
                                },
                                "parameters" : {
                                  "cursorScale" : {
                                    "type" : "double",
                                    "defaultValue" : 0.0,
                                    "interp" : "linr"
                                  },
                                  "cursorOpacity" : {
                                    "type" : "double",
                                    "defaultValue" : 0.0,
                                    "interp" : "linr"
                                  }
                                },
                                "effects" : [

                                ],
                                "start" : 2010,
                                "duration" : 1866,
                                "mediaStart" : 5106,
                                "mediaDuration" : 1866,
                                "scalar" : 1,
                                "animationTracks" : {

                                }
                              },
                          "audio" : 
                              {
                                "id" : 2833,
                                "_type" : "AMFile",
                                "src" : 3,
                                "trackNumber" : 1,
                                "attributes" : {
                                  "ident" : "",
                                  "gain" : 1.0,
                                  "mixToMono" : false
                                },
                                  "channelNumber" : "0,1",
                                "effects" : [

                                ],
                                "start" : 2010,
                                "duration" : 1866,
                                "mediaStart" : 5106,
                                "mediaDuration" : 1866,
                                "scalar" : 1,
                                "animationTracks" : {

                                }
                              }
,
                          "start" : 2010,
                          "duration" : 1866,
                          "mediaStart" : 0,
                          "mediaDuration" : 23566,
                          "scalar" : 1,
                          "metadata" : {
                            "AutoAppliedSmartFocus" : "False",
                            "clipSpeedAttribute" : false
                          }
                        },
                        {
                          "id" : 2834,
                          "_type" : "UnifiedMedia",
                          "video" : 
                              {
                                "id" : 2835,
                                "_type" : "ScreenVMFile",
                                "src" : 3,
                                "trackNumber" : 0,
                                "attributes" : {
                                  "ident" : "Rec 01-28-21_003"
                                },
                                "parameters" : {
                                  "cursorScale" : {
                                    "type" : "double",
                                    "defaultValue" : 0.0,
                                    "interp" : "linr"
                                  },
                                  "cursorOpacity" : {
                                    "type" : "double",
                                    "defaultValue" : 0.0,
                                    "interp" : "linr"
                                  }
                                },
                                "effects" : [

                                ],
                                "start" : 3876,
                                "duration" : 160,
                                "mediaStart" : 7099,
                                "mediaDuration" : 160,
                                "scalar" : 1,
                                "animationTracks" : {

                                }
                              },
                          "audio" : 
                              {
                                "id" : 2836,
                                "_type" : "AMFile",
                                "src" : 3,
                                "trackNumber" : 1,
                                "attributes" : {
                                  "ident" : "",
                                  "gain" : 1.0,
                                  "mixToMono" : false
                                },
                                  "channelNumber" : "0,1",
                                "effects" : [

                                ],
                                "start" : 3876,
                                "duration" : 160,
                                "mediaStart" : 7099,
                                "mediaDuration" : 160,
                                "scalar" : 1,
                                "animationTracks" : {

                                }
                              }
,
                          "start" : 3876,
                          "duration" : 160,
                          "mediaStart" : 0,
                          "mediaDuration" : 23566,
                          "scalar" : 1,
                          "metadata" : {
                            "AutoAppliedSmartFocus" : "False",
                            "clipSpeedAttribute" : false
                          }
                        },
                        {
                          "id" : 2837,
                          "_type" : "UnifiedMedia",
                          "video" : 
                              {
                                "id" : 2838,
                                "_type" : "ScreenVMFile",
                                "src" : 3,
                                "trackNumber" : 0,
                                "attributes" : {
                                  "ident" : "Rec 01-28-21_003"
                                },
                                "parameters" : {
                                  "cursorScale" : {
                                    "type" : "double",
                                    "defaultValue" : 0.0,
                                    "interp" : "linr"
                                  },
                                  "cursorOpacity" : {
                                    "type" : "double",
                                    "defaultValue" : 0.0,
                                    "interp" : "linr"
                                  }
                                },
                                "effects" : [

                                ],
                                "start" : 4036,
                                "duration" : 275,
                                "mediaStart" : 7439,
                                "mediaDuration" : 275,
                                "scalar" : 1,
                                "animationTracks" : {

                                }
                              },
                          "audio" : 
                              {
                                "id" : 2839,
                                "_type" : "AMFile",
                                "src" : 3,
                                "trackNumber" : 1,
                                "attributes" : {
                                  "ident" : "",
                                  "gain" : 1.0,
                                  "mixToMono" : false
                                },
                                  "channelNumber" : "0,1",
                                "effects" : [

                                ],
                                "start" : 4036,
                                "duration" : 275,
                                "mediaStart" : 7439,
                                "mediaDuration" : 275,
                                "scalar" : 1,
                                "animationTracks" : {

                                }
                              }
,
                          "start" : 4036,
                          "duration" : 275,
                          "mediaStart" : 0,
                          "mediaDuration" : 23566,
                          "scalar" : 1,
                          "metadata" : {
                            "AutoAppliedSmartFocus" : "False",
                            "clipSpeedAttribute" : false
                          }
                        },
                        {
                          "id" : 2840,
                          "_type" : "UnifiedMedia",
                          "video" : 
                              {
                                "id" : 2841,
                                "_type" : "ScreenVMFile",
                                "src" : 3,
                                "trackNumber" : 0,
                                "attributes" : {
                                  "ident" : "Rec 01-28-21_003"
                                },
                                "parameters" : {
                                  "cursorScale" : {
                                    "type" : "double",
                                    "defaultValue" : 0.0,
                                    "interp" : "linr"
                                  },
                                  "cursorOpacity" : {
                                    "type" : "double",
                                    "defaultValue" : 0.0,
                                    "interp" : "linr"
                                  }
                                },
                                "effects" : [

                                ],
                                "start" : 4311,
                                "duration" : 3,
                                "mediaStart" : 7841,
                                "mediaDuration" : 3,
                                "scalar" : 1,
                                "animationTracks" : {

                                }
                              },
                          "audio" : 
                              {
                                "id" : 2842,
                                "_type" : "AMFile",
                                "src" : 3,
                                "trackNumber" : 1,
                                "attributes" : {
                                  "ident" : "",
                                  "gain" : 1.0,
                                  "mixToMono" : false
                                },
                                  "channelNumber" : "0,1",
                                "effects" : [

                                ],
                                "start" : 4311,
                                "duration" : 3,
                                "mediaStart" : 7841,
                                "mediaDuration" : 3,
                                "scalar" : 1,
                                "animationTracks" : {

                                }
                              }
,
                          "start" : 4311,
                          "duration" : 3,
                          "mediaStart" : 0,
                          "mediaDuration" : 23566,
                          "scalar" : 1,
                          "metadata" : {
                            "AutoAppliedSmartFocus" : "False",
                            "clipSpeedAttribute" : false
                          }
                        },
                        {
                          "id" : 2843,
                          "_type" : "UnifiedMedia",
                          "video" : 
                              {
                                "id" : 2844,
                                "_type" : "ScreenVMFile",
                                "src" : 3,
                                "trackNumber" : 0,
                                "attributes" : {
                                  "ident" : "Rec 01-28-21_003"
                                },
                                "parameters" : {
                                  "cursorScale" : {
                                    "type" : "double",
                                    "defaultValue" : 0.0,
                                    "interp" : "linr"
                                  },
                                  "cursorOpacity" : {
                                    "type" : "double",
                                    "defaultValue" : 0.0,
                                    "interp" : "linr"
                                  }
                                },
                                "effects" : [

                                ],
                                "start" : 4314,
                                "duration" : 73,
                                "mediaStart" : 8276,
                                "mediaDuration" : 73,
                                "scalar" : 1,
                                "animationTracks" : {

                                }
                              },
                          "audio" : 
                              {
                                "id" : 2845,
                                "_type" : "AMFile",
                                "src" : 3,
                                "trackNumber" : 1,
                                "attributes" : {
                                  "ident" : "",
                                  "gain" : 1.0,
                                  "mixToMono" : false
                                },
                                  "channelNumber" : "0,1",
                                "effects" : [

                                ],
                                "start" : 4314,
                                "duration" : 73,
                                "mediaStart" : 8276,
                                "mediaDuration" : 73,
                                "scalar" : 1,
                                "animationTracks" : {

                                }
                              }
,
                          "start" : 4314,
                          "duration" : 73,
                          "mediaStart" : 0,
                          "mediaDuration" : 23566,
                          "scalar" : 1,
                          "metadata" : {
                            "AutoAppliedSmartFocus" : "False",
                            "clipSpeedAttribute" : false
                          }
                        },
                        {
                          "id" : 2846,
                          "_type" : "UnifiedMedia",
                          "video" : 
                              {
                                "id" : 2847,
                                "_type" : "ScreenVMFile",
                                "src" : 3,
                                "trackNumber" : 0,
                                "attributes" : {
                                  "ident" : "Rec 01-28-21_003"
                                },
                                "parameters" : {
                                  "cursorScale" : {
                                    "type" : "double",
                                    "defaultValue" : 0.0,
                                    "interp" : "linr"
                                  },
                                  "cursorOpacity" : {
                                    "type" : "double",
                                    "defaultValue" : 0.0,
                                    "interp" : "linr"
                                  }
                                },
                                "effects" : [

                                ],
                                "start" : 4387,
                                "duration" : 982,
                                "mediaStart" : 8431,
                                "mediaDuration" : 982,
                                "scalar" : 1,
                                "animationTracks" : {

                                }
                              },
                          "audio" : 
                              {
                                "id" : 2848,
                                "_type" : "AMFile",
                                "src" : 3,
                                "trackNumber" : 1,
                                "attributes" : {
                                  "ident" : "",
                                  "gain" : 1.0,
                                  "mixToMono" : false
                                },
                                  "channelNumber" : "0,1",
                                "effects" : [

                                ],
                                "start" : 4387,
                                "duration" : 982,
                                "mediaStart" : 8431,
                                "mediaDuration" : 982,
                                "scalar" : 1,
                                "animationTracks" : {

                                }
                              }
,
                          "start" : 4387,
                          "duration" : 982,
                          "mediaStart" : 0,
                          "mediaDuration" : 23566,
                          "scalar" : 1,
                          "metadata" : {
                            "AutoAppliedSmartFocus" : "False",
                            "clipSpeedAttribute" : false
                          }
                        },
                        {
                          "id" : 2849,
                          "_type" : "UnifiedMedia",
                          "video" : 
                              {
                                "id" : 2850,
                                "_type" : "ScreenVMFile",
                                "src" : 3,
                                "trackNumber" : 0,
                                "attributes" : {
                                  "ident" : "Rec 01-28-21_003"
                                },
                                "parameters" : {
                                  "cursorScale" : {
                                    "type" : "double",
                                    "defaultValue" : 0.0,
                                    "interp" : "linr"
                                  },
                                  "cursorOpacity" : {
                                    "type" : "double",
                                    "defaultValue" : 0.0,
                                    "interp" : "linr"
                                  }
                                },
                                "effects" : [

                                ],
                                "start" : 5369,
                                "duration" : 473,
                                "mediaStart" : 9469,
                                "mediaDuration" : 473,
                                "scalar" : 1,
                                "animationTracks" : {

                                }
                              },
                          "audio" : 
                              {
                                "id" : 2851,
                                "_type" : "AMFile",
                                "src" : 3,
                                "trackNumber" : 1,
                                "attributes" : {
                                  "ident" : "",
                                  "gain" : 1.0,
                                  "mixToMono" : false
                                },
                                  "channelNumber" : "0,1",
                                "effects" : [

                                ],
                                "start" : 5369,
                                "duration" : 473,
                                "mediaStart" : 9469,
                                "mediaDuration" : 473,
                                "scalar" : 1,
                                "animationTracks" : {

                                }
                              }
,
                          "start" : 5369,
                          "duration" : 473,
                          "mediaStart" : 0,
                          "mediaDuration" : 23566,
                          "scalar" : 1,
                          "metadata" : {
                            "AutoAppliedSmartFocus" : "False",
                            "clipSpeedAttribute" : false
                          }
                        },
                        {
                          "id" : 2852,
                          "_type" : "UnifiedMedia",
                          "video" : 
                              {
                                "id" : 2853,
                                "_type" : "ScreenVMFile",
                                "src" : 3,
                                "trackNumber" : 0,
                                "attributes" : {
                                  "ident" : "Rec 01-28-21_003"
                                },
                                "parameters" : {
                                  "cursorScale" : {
                                    "type" : "double",
                                    "defaultValue" : 0.0,
                                    "interp" : "linr"
                                  },
                                  "cursorOpacity" : {
                                    "type" : "double",
                                    "defaultValue" : 0.0,
                                    "interp" : "linr"
                                  }
                                },
                                "effects" : [

                                ],
                                "start" : 5842,
                                "duration" : 166,
                                "mediaStart" : 10778,
                                "mediaDuration" : 166,
                                "scalar" : 1,
                                "animationTracks" : {

                                }
                              },
                          "audio" : 
                              {
                                "id" : 2854,
                                "_type" : "AMFile",
                                "src" : 3,
                                "trackNumber" : 1,
                                "attributes" : {
                                  "ident" : "",
                                  "gain" : 1.0,
                                  "mixToMono" : false
                                },
                                  "channelNumber" : "0,1",
                                "effects" : [

                                ],
                                "start" : 5842,
                                "duration" : 166,
                                "mediaStart" : 10778,
                                "mediaDuration" : 166,
                                "scalar" : 1,
                                "animationTracks" : {

                                }
                              }
,
                          "start" : 5842,
                          "duration" : 166,
                          "mediaStart" : 0,
                          "mediaDuration" : 23566,
                          "scalar" : 1,
                          "metadata" : {
                            "AutoAppliedSmartFocus" : "False",
                            "clipSpeedAttribute" : false
                          }
                        },
                        {
                          "id" : 2855,
                          "_type" : "UnifiedMedia",
                          "video" : 
                              {
                                "id" : 2856,
                                "_type" : "ScreenVMFile",
                                "src" : 3,
                                "trackNumber" : 0,
                                "attributes" : {
                                  "ident" : "Rec 01-28-21_003"
                                },
                                "parameters" : {
                                  "cursorScale" : {
                                    "type" : "double",
                                    "defaultValue" : 0.0,
                                    "interp" : "linr"
                                  },
                                  "cursorOpacity" : {
                                    "type" : "double",
                                    "defaultValue" : 0.0,
                                    "interp" : "linr"
                                  }
                                },
                                "effects" : [

                                ],
                                "start" : 6008,
                                "duration" : 125,
                                "mediaStart" : 11423,
                                "mediaDuration" : 125,
                                "scalar" : 1,
                                "animationTracks" : {

                                }
                              },
                          "audio" : 
                              {
                                "id" : 2857,
                                "_type" : "AMFile",
                                "src" : 3,
                                "trackNumber" : 1,
                                "attributes" : {
                                  "ident" : "",
                                  "gain" : 1.0,
                                  "mixToMono" : false
                                },
                                  "channelNumber" : "0,1",
                                "effects" : [

                                ],
                                "start" : 6008,
                                "duration" : 125,
                                "mediaStart" : 11423,
                                "mediaDuration" : 125,
                                "scalar" : 1,
                                "animationTracks" : {

                                }
                              }
,
                          "start" : 6008,
                          "duration" : 125,
                          "mediaStart" : 0,
                          "mediaDuration" : 23566,
                          "scalar" : 1,
                          "metadata" : {
                            "AutoAppliedSmartFocus" : "False",
                            "clipSpeedAttribute" : false
                          }
                        },
                        {
                          "id" : 2858,
                          "_type" : "UnifiedMedia",
                          "video" : 
                              {
                                "id" : 2859,
                                "_type" : "ScreenVMFile",
                                "src" : 3,
                                "trackNumber" : 0,
                                "attributes" : {
                                  "ident" : "Rec 01-28-21_003"
                                },
                                "parameters" : {
                                  "cursorScale" : {
                                    "type" : "double",
                                    "defaultValue" : 0.0,
                                    "interp" : "linr"
                                  },
                                  "cursorOpacity" : {
                                    "type" : "double",
                                    "defaultValue" : 0.0,
                                    "interp" : "linr"
                                  }
                                },
                                "effects" : [

                                ],
                                "start" : 6133,
                                "duration" : 42,
                                "mediaStart" : 11583,
                                "mediaDuration" : 42,
                                "scalar" : 1,
                                "animationTracks" : {

                                }
                              },
                          "audio" : 
                              {
                                "id" : 2860,
                                "_type" : "AMFile",
                                "src" : 3,
                                "trackNumber" : 1,
                                "attributes" : {
                                  "ident" : "",
                                  "gain" : 1.0,
                                  "mixToMono" : false
                                },
                                  "channelNumber" : "0,1",
                                "effects" : [

                                ],
                                "start" : 6133,
                                "duration" : 42,
                                "mediaStart" : 11583,
                                "mediaDuration" : 42,
                                "scalar" : 1,
                                "animationTracks" : {

                                }
                              }
,
                          "start" : 6133,
                          "duration" : 42,
                          "mediaStart" : 0,
                          "mediaDuration" : 23566,
                          "scalar" : 1,
                          "metadata" : {
                            "AutoAppliedSmartFocus" : "False",
                            "clipSpeedAttribute" : false
                          }
                        },
                        {
                          "id" : 2861,
                          "_type" : "UnifiedMedia",
                          "video" : 
                              {
                                "id" : 2862,
                                "_type" : "ScreenVMFile",
                                "src" : 3,
                                "trackNumber" : 0,
                                "attributes" : {
                                  "ident" : "Rec 01-28-21_003"
                                },
                                "parameters" : {
                                  "cursorScale" : {
                                    "type" : "double",
                                    "defaultValue" : 0.0,
                                    "interp" : "linr"
                                  },
                                  "cursorOpacity" : {
                                    "type" : "double",
                                    "defaultValue" : 0.0,
                                    "interp" : "linr"
                                  }
                                },
                                "effects" : [

                                ],
                                "start" : 6175,
                                "duration" : 82,
                                "mediaStart" : 11656,
                                "mediaDuration" : 82,
                                "scalar" : 1,
                                "animationTracks" : {

                                }
                              },
                          "audio" : 
                              {
                                "id" : 2863,
                                "_type" : "AMFile",
                                "src" : 3,
                                "trackNumber" : 1,
                                "attributes" : {
                                  "ident" : "",
                                  "gain" : 1.0,
                                  "mixToMono" : false
                                },
                                  "channelNumber" : "0,1",
                                "effects" : [

                                ],
                                "start" : 6175,
                                "duration" : 82,
                                "mediaStart" : 11656,
                                "mediaDuration" : 82,
                                "scalar" : 1,
                                "animationTracks" : {

                                }
                              }
,
                          "start" : 6175,
                          "duration" : 82,
                          "mediaStart" : 0,
                          "mediaDuration" : 23566,
                          "scalar" : 1,
                          "metadata" : {
                            "AutoAppliedSmartFocus" : "False",
                            "clipSpeedAttribute" : false
                          }
                        },
                        {
                          "id" : 2864,
                          "_type" : "UnifiedMedia",
                          "video" : 
                              {
                                "id" : 2865,
                                "_type" : "ScreenVMFile",
                                "src" : 3,
                                "trackNumber" : 0,
                                "attributes" : {
                                  "ident" : "Rec 01-28-21_003"
                                },
                                "parameters" : {
                                  "cursorScale" : {
                                    "type" : "double",
                                    "defaultValue" : 0.0,
                                    "interp" : "linr"
                                  },
                                  "cursorOpacity" : {
                                    "type" : "double",
                                    "defaultValue" : 0.0,
                                    "interp" : "linr"
                                  }
                                },
                                "effects" : [

                                ],
                                "start" : 6257,
                                "duration" : 63,
                                "mediaStart" : 11866,
                                "mediaDuration" : 63,
                                "scalar" : 1,
                                "animationTracks" : {

                                }
                              },
                          "audio" : 
                              {
                                "id" : 2866,
                                "_type" : "AMFile",
                                "src" : 3,
                                "trackNumber" : 1,
                                "attributes" : {
                                  "ident" : "",
                                  "gain" : 1.0,
                                  "mixToMono" : false
                                },
                                  "channelNumber" : "0,1",
                                "effects" : [

                                ],
                                "start" : 6257,
                                "duration" : 63,
                                "mediaStart" : 11866,
                                "mediaDuration" : 63,
                                "scalar" : 1,
                                "animationTracks" : {

                                }
                              }
,
                          "start" : 6257,
                          "duration" : 63,
                          "mediaStart" : 0,
                          "mediaDuration" : 23566,
                          "scalar" : 1,
                          "metadata" : {
                            "AutoAppliedSmartFocus" : "False",
                            "clipSpeedAttribute" : false
                          }
                        },
                        {
                          "id" : 2867,
                          "_type" : "UnifiedMedia",
                          "video" : 
                              {
                                "id" : 2868,
                                "_type" : "ScreenVMFile",
                                "src" : 3,
                                "trackNumber" : 0,
                                "attributes" : {
                                  "ident" : "Rec 01-28-21_003"
                                },
                                "parameters" : {
                                  "cursorScale" : {
                                    "type" : "double",
                                    "defaultValue" : 0.0,
                                    "interp" : "linr"
                                  },
                                  "cursorOpacity" : {
                                    "type" : "double",
                                    "defaultValue" : 0.0,
                                    "interp" : "linr"
                                  }
                                },
                                "effects" : [

                                ],
                                "start" : 6320,
                                "duration" : 111,
                                "mediaStart" : 11962,
                                "mediaDuration" : 111,
                                "scalar" : 1,
                                "animationTracks" : {

                                }
                              },
                          "audio" : 
                              {
                                "id" : 2869,
                                "_type" : "AMFile",
                                "src" : 3,
                                "trackNumber" : 1,
                                "attributes" : {
                                  "ident" : "",
                                  "gain" : 1.0,
                                  "mixToMono" : false
                                },
                                  "channelNumber" : "0,1",
                                "effects" : [

                                ],
                                "start" : 6320,
                                "duration" : 111,
                                "mediaStart" : 11962,
                                "mediaDuration" : 111,
                                "scalar" : 1,
                                "animationTracks" : {

                                }
                              }
,
                          "start" : 6320,
                          "duration" : 111,
                          "mediaStart" : 0,
                          "mediaDuration" : 23566,
                          "scalar" : 1,
                          "metadata" : {
                            "AutoAppliedSmartFocus" : "False",
                            "clipSpeedAttribute" : false
                          }
                        },
                        {
                          "id" : 2870,
                          "_type" : "UnifiedMedia",
                          "video" : 
                              {
                                "id" : 2871,
                                "_type" : "ScreenVMFile",
                                "src" : 3,
                                "trackNumber" : 0,
                                "attributes" : {
                                  "ident" : "Rec 01-28-21_003"
                                },
                                "parameters" : {
                                  "cursorScale" : {
                                    "type" : "double",
                                    "defaultValue" : 0.0,
                                    "interp" : "linr"
                                  },
                                  "cursorOpacity" : {
                                    "type" : "double",
                                    "defaultValue" : 0.0,
                                    "interp" : "linr"
                                  }
                                },
                                "effects" : [

                                ],
                                "start" : 6431,
                                "duration" : 1088,
                                "mediaStart" : 12342,
                                "mediaDuration" : 1088,
                                "scalar" : 1,
                                "animationTracks" : {

                                }
                              },
                          "audio" : 
                              {
                                "id" : 2872,
                                "_type" : "AMFile",
                                "src" : 3,
                                "trackNumber" : 1,
                                "attributes" : {
                                  "ident" : "",
                                  "gain" : 1.0,
                                  "mixToMono" : false
                                },
                                  "channelNumber" : "0,1",
                                "effects" : [

                                ],
                                "start" : 6431,
                                "duration" : 1088,
                                "mediaStart" : 12342,
                                "mediaDuration" : 1088,
                                "scalar" : 1,
                                "animationTracks" : {

                                }
                              }
,
                          "start" : 6431,
                          "duration" : 1088,
                          "mediaStart" : 0,
                          "mediaDuration" : 23566,
                          "scalar" : 1,
                          "metadata" : {
                            "AutoAppliedSmartFocus" : "False",
                            "clipSpeedAttribute" : false
                          }
                        },
                        {
                          "id" : 2873,
                          "_type" : "UnifiedMedia",
                          "video" : 
                              {
                                "id" : 2874,
                                "_type" : "ScreenVMFile",
                                "src" : 3,
                                "trackNumber" : 0,
                                "attributes" : {
                                  "ident" : "Rec 01-28-21_003"
                                },
                                "parameters" : {
                                  "cursorScale" : {
                                    "type" : "double",
                                    "defaultValue" : 0.0,
                                    "interp" : "linr"
                                  },
                                  "cursorOpacity" : {
                                    "type" : "double",
                                    "defaultValue" : 0.0,
                                    "interp" : "linr"
                                  }
                                },
                                "effects" : [

                                ],
                                "start" : 7519,
                                "duration" : 43,
                                "mediaStart" : 13705,
                                "mediaDuration" : 43,
                                "scalar" : 1,
                                "animationTracks" : {

                                }
                              },
                          "audio" : 
                              {
                                "id" : 2875,
                                "_type" : "AMFile",
                                "src" : 3,
                                "trackNumber" : 1,
                                "attributes" : {
                                  "ident" : "",
                                  "gain" : 1.0,
                                  "mixToMono" : false
                                },
                                  "channelNumber" : "0,1",
                                "effects" : [

                                ],
                                "start" : 7519,
                                "duration" : 43,
                                "mediaStart" : 13705,
                                "mediaDuration" : 43,
                                "scalar" : 1,
                                "animationTracks" : {

                                }
                              }
,
                          "start" : 7519,
                          "duration" : 43,
                          "mediaStart" : 0,
                          "mediaDuration" : 23566,
                          "scalar" : 1,
                          "metadata" : {
                            "AutoAppliedSmartFocus" : "False",
                            "clipSpeedAttribute" : false
                          }
                        },
                        {
                          "id" : 2876,
                          "_type" : "UnifiedMedia",
                          "video" : 
                              {
                                "id" : 2877,
                                "_type" : "ScreenVMFile",
                                "src" : 3,
                                "trackNumber" : 0,
                                "attributes" : {
                                  "ident" : "Rec 01-28-21_003"
                                },
                                "parameters" : {
                                  "cursorScale" : {
                                    "type" : "double",
                                    "defaultValue" : 0.0,
                                    "interp" : "linr"
                                  },
                                  "cursorOpacity" : {
                                    "type" : "double",
                                    "defaultValue" : 0.0,
                                    "interp" : "linr"
                                  }
                                },
                                "effects" : [

                                ],
                                "start" : 7562,
                                "duration" : 2393,
                                "mediaStart" : 13855,
                                "mediaDuration" : 2393,
                                "scalar" : 1,
                                "animationTracks" : {

                                }
                              },
                          "audio" : 
                              {
                                "id" : 2878,
                                "_type" : "AMFile",
                                "src" : 3,
                                "trackNumber" : 1,
                                "attributes" : {
                                  "ident" : "",
                                  "gain" : 1.0,
                                  "mixToMono" : false
                                },
                                  "channelNumber" : "0,1",
                                "effects" : [

                                ],
                                "start" : 7562,
                                "duration" : 2393,
                                "mediaStart" : 13855,
                                "mediaDuration" : 2393,
                                "scalar" : 1,
                                "animationTracks" : {

                                }
                              }
,
                          "start" : 7562,
                          "duration" : 2393,
                          "mediaStart" : 0,
                          "mediaDuration" : 23566,
                          "scalar" : 1,
                          "metadata" : {
                            "AutoAppliedSmartFocus" : "False",
                            "clipSpeedAttribute" : false
                          }
                        },
                        {
                          "id" : 2879,
                          "_type" : "UnifiedMedia",
                          "video" : 
                              {
                                "id" : 2880,
                                "_type" : "ScreenVMFile",
                                "src" : 3,
                                "trackNumber" : 0,
                                "attributes" : {
                                  "ident" : "Rec 01-28-21_003"
                                },
                                "parameters" : {
                                  "cursorScale" : {
                                    "type" : "double",
                                    "defaultValue" : 0.0,
                                    "interp" : "linr"
                                  },
                                  "cursorOpacity" : {
                                    "type" : "double",
                                    "defaultValue" : 0.0,
                                    "interp" : "linr"
                                  }
                                },
                                "effects" : [

                                ],
                                "start" : 9955,
                                "duration" : 27,
                                "mediaStart" : 16276,
                                "mediaDuration" : 27,
                                "scalar" : 1,
                                "animationTracks" : {

                                }
                              },
                          "audio" : 
                              {
                                "id" : 2881,
                                "_type" : "AMFile",
                                "src" : 3,
                                "trackNumber" : 1,
                                "attributes" : {
                                  "ident" : "",
                                  "gain" : 1.0,
                                  "mixToMono" : false
                                },
                                  "channelNumber" : "0,1",
                                "effects" : [

                                ],
                                "start" : 9955,
                                "duration" : 27,
                                "mediaStart" : 16276,
                                "mediaDuration" : 27,
                                "scalar" : 1,
                                "animationTracks" : {

                                }
                              }
,
                          "start" : 9955,
                          "duration" : 27,
                          "mediaStart" : 0,
                          "mediaDuration" : 23566,
                          "scalar" : 1,
                          "metadata" : {
                            "AutoAppliedSmartFocus" : "False",
                            "clipSpeedAttribute" : false
                          }
                        },
                        {
                          "id" : 2882,
                          "_type" : "UnifiedMedia",
                          "video" : 
                              {
                                "id" : 2883,
                                "_type" : "ScreenVMFile",
                                "src" : 3,
                                "trackNumber" : 0,
                                "attributes" : {
                                  "ident" : "Rec 01-28-21_003"
                                },
                                "parameters" : {
                                  "cursorScale" : {
                                    "type" : "double",
                                    "defaultValue" : 0.0,
                                    "interp" : "linr"
                                  },
                                  "cursorOpacity" : {
                                    "type" : "double",
                                    "defaultValue" : 0.0,
                                    "interp" : "linr"
                                  }
                                },
                                "effects" : [

                                ],
                                "start" : 9982,
                                "duration" : 91,
                                "mediaStart" : 16313,
                                "mediaDuration" : 91,
                                "scalar" : 1,
                                "animationTracks" : {

                                }
                              },
                          "audio" : 
                              {
                                "id" : 2884,
                                "_type" : "AMFile",
                                "src" : 3,
                                "trackNumber" : 1,
                                "attributes" : {
                                  "ident" : "",
                                  "gain" : 1.0,
                                  "mixToMono" : false
                                },
                                  "channelNumber" : "0,1",
                                "effects" : [

                                ],
                                "start" : 9982,
                                "duration" : 91,
                                "mediaStart" : 16313,
                                "mediaDuration" : 91,
                                "scalar" : 1,
                                "animationTracks" : {

                                }
                              }
,
                          "start" : 9982,
                          "duration" : 91,
                          "mediaStart" : 0,
                          "mediaDuration" : 23566,
                          "scalar" : 1,
                          "metadata" : {
                            "AutoAppliedSmartFocus" : "False",
                            "clipSpeedAttribute" : false
                          }
                        },
                        {
                          "id" : 2885,
                          "_type" : "UnifiedMedia",
                          "video" : 
                              {
                                "id" : 2886,
                                "_type" : "ScreenVMFile",
                                "src" : 3,
                                "trackNumber" : 0,
                                "attributes" : {
                                  "ident" : "Rec 01-28-21_003"
                                },
                                "parameters" : {
                                  "cursorScale" : {
                                    "type" : "double",
                                    "defaultValue" : 0.0,
                                    "interp" : "linr"
                                  },
                                  "cursorOpacity" : {
                                    "type" : "double",
                                    "defaultValue" : 0.0,
                                    "interp" : "linr"
                                  }
                                },
                                "effects" : [

                                ],
                                "start" : 10073,
                                "duration" : 148,
                                "mediaStart" : 16552,
                                "mediaDuration" : 148,
                                "scalar" : 1,
                                "animationTracks" : {

                                }
                              },
                          "audio" : 
                              {
                                "id" : 2887,
                                "_type" : "AMFile",
                                "src" : 3,
                                "trackNumber" : 1,
                                "attributes" : {
                                  "ident" : "",
                                  "gain" : 1.0,
                                  "mixToMono" : false
                                },
                                  "channelNumber" : "0,1",
                                "effects" : [

                                ],
                                "start" : 10073,
                                "duration" : 148,
                                "mediaStart" : 16552,
                                "mediaDuration" : 148,
                                "scalar" : 1,
                                "animationTracks" : {

                                }
                              }
,
                          "start" : 10073,
                          "duration" : 148,
                          "mediaStart" : 0,
                          "mediaDuration" : 23566,
                          "scalar" : 1,
                          "metadata" : {
                            "AutoAppliedSmartFocus" : "False",
                            "clipSpeedAttribute" : false
                          }
                        },
                        {
                          "id" : 2888,
                          "_type" : "UnifiedMedia",
                          "video" : 
                              {
                                "id" : 2889,
                                "_type" : "ScreenVMFile",
                                "src" : 3,
                                "trackNumber" : 0,
                                "attributes" : {
                                  "ident" : "Rec 01-28-21_003"
                                },
                                "parameters" : {
                                  "cursorScale" : {
                                    "type" : "double",
                                    "defaultValue" : 0.0,
                                    "interp" : "linr"
                                  },
                                  "cursorOpacity" : {
                                    "type" : "double",
                                    "defaultValue" : 0.0,
                                    "interp" : "linr"
                                  }
                                },
                                "effects" : [

                                ],
                                "start" : 10221,
                                "duration" : 300,
                                "mediaStart" : 16815,
                                "mediaDuration" : 300,
                                "scalar" : 1,
                                "animationTracks" : {

                                }
                              },
                          "audio" : 
                              {
                                "id" : 2890,
                                "_type" : "AMFile",
                                "src" : 3,
                                "trackNumber" : 1,
                                "attributes" : {
                                  "ident" : "",
                                  "gain" : 1.0,
                                  "mixToMono" : false
                                },
                                  "channelNumber" : "0,1",
                                "effects" : [

                                ],
                                "start" : 10221,
                                "duration" : 300,
                                "mediaStart" : 16815,
                                "mediaDuration" : 300,
                                "scalar" : 1,
                                "animationTracks" : {

                                }
                              }
,
                          "start" : 10221,
                          "duration" : 300,
                          "mediaStart" : 0,
                          "mediaDuration" : 23566,
                          "scalar" : 1,
                          "metadata" : {
                            "AutoAppliedSmartFocus" : "False",
                            "clipSpeedAttribute" : false
                          }
                        },
                        {
                          "id" : 2891,
                          "_type" : "UnifiedMedia",
                          "video" : 
                              {
                                "id" : 2892,
                                "_type" : "ScreenVMFile",
                                "src" : 3,
                                "trackNumber" : 0,
                                "attributes" : {
                                  "ident" : "Rec 01-28-21_003"
                                },
                                "parameters" : {
                                  "cursorScale" : {
                                    "type" : "double",
                                    "defaultValue" : 0.0,
                                    "interp" : "linr"
                                  },
                                  "cursorOpacity" : {
                                    "type" : "double",
                                    "defaultValue" : 0.0,
                                    "interp" : "linr"
                                  }
                                },
                                "effects" : [

                                ],
                                "start" : 10521,
                                "duration" : 58,
                                "mediaStart" : 17161,
                                "mediaDuration" : 58,
                                "scalar" : 1,
                                "animationTracks" : {

                                }
                              },
                          "audio" : 
                              {
                                "id" : 2893,
                                "_type" : "AMFile",
                                "src" : 3,
                                "trackNumber" : 1,
                                "attributes" : {
                                  "ident" : "",
                                  "gain" : 1.0,
                                  "mixToMono" : false
                                },
                                  "channelNumber" : "0,1",
                                "effects" : [

                                ],
                                "start" : 10521,
                                "duration" : 58,
                                "mediaStart" : 17161,
                                "mediaDuration" : 58,
                                "scalar" : 1,
                                "animationTracks" : {

                                }
                              }
,
                          "start" : 10521,
                          "duration" : 58,
                          "mediaStart" : 0,
                          "mediaDuration" : 23566,
                          "scalar" : 1,
                          "metadata" : {
                            "AutoAppliedSmartFocus" : "False",
                            "clipSpeedAttribute" : false
                          }
                        },
                        {
                          "id" : 2894,
                          "_type" : "UnifiedMedia",
                          "video" : 
                              {
                                "id" : 2895,
                                "_type" : "ScreenVMFile",
                                "src" : 3,
                                "trackNumber" : 0,
                                "attributes" : {
                                  "ident" : "Rec 01-28-21_003"
                                },
                                "parameters" : {
                                  "cursorScale" : {
                                    "type" : "double",
                                    "defaultValue" : 0.0,
                                    "interp" : "linr"
                                  },
                                  "cursorOpacity" : {
                                    "type" : "double",
                                    "defaultValue" : 0.0,
                                    "interp" : "linr"
                                  }
                                },
                                "effects" : [

                                ],
                                "start" : 10579,
                                "duration" : 108,
                                "mediaStart" : 17234,
                                "mediaDuration" : 108,
                                "scalar" : 1,
                                "animationTracks" : {

                                }
                              },
                          "audio" : 
                              {
                                "id" : 2896,
                                "_type" : "AMFile",
                                "src" : 3,
                                "trackNumber" : 1,
                                "attributes" : {
                                  "ident" : "",
                                  "gain" : 1.0,
                                  "mixToMono" : false
                                },
                                  "channelNumber" : "0,1",
                                "effects" : [

                                ],
                                "start" : 10579,
                                "duration" : 108,
                                "mediaStart" : 17234,
                                "mediaDuration" : 108,
                                "scalar" : 1,
                                "animationTracks" : {

                                }
                              }
,
                          "start" : 10579,
                          "duration" : 108,
                          "mediaStart" : 0,
                          "mediaDuration" : 23566,
                          "scalar" : 1,
                          "metadata" : {
                            "AutoAppliedSmartFocus" : "False",
                            "clipSpeedAttribute" : false
                          }
                        },
                        {
                          "id" : 2897,
                          "_type" : "UnifiedMedia",
                          "video" : 
                              {
                                "id" : 2898,
                                "_type" : "ScreenVMFile",
                                "src" : 3,
                                "trackNumber" : 0,
                                "attributes" : {
                                  "ident" : "Rec 01-28-21_003"
                                },
                                "parameters" : {
                                  "cursorScale" : {
                                    "type" : "double",
                                    "defaultValue" : 0.0,
                                    "interp" : "linr"
                                  },
                                  "cursorOpacity" : {
                                    "type" : "double",
                                    "defaultValue" : 0.0,
                                    "interp" : "linr"
                                  }
                                },
                                "effects" : [

                                ],
                                "start" : 10687,
                                "duration" : 33,
                                "mediaStart" : 17579,
                                "mediaDuration" : 33,
                                "scalar" : 1,
                                "animationTracks" : {

                                }
                              },
                          "audio" : 
                              {
                                "id" : 2899,
                                "_type" : "AMFile",
                                "src" : 3,
                                "trackNumber" : 1,
                                "attributes" : {
                                  "ident" : "",
                                  "gain" : 1.0,
                                  "mixToMono" : false
                                },
                                  "channelNumber" : "0,1",
                                "effects" : [

                                ],
                                "start" : 10687,
                                "duration" : 33,
                                "mediaStart" : 17579,
                                "mediaDuration" : 33,
                                "scalar" : 1,
                                "animationTracks" : {

                                }
                              }
,
                          "start" : 10687,
                          "duration" : 33,
                          "mediaStart" : 0,
                          "mediaDuration" : 23566,
                          "scalar" : 1,
                          "metadata" : {
                            "AutoAppliedSmartFocus" : "False",
                            "clipSpeedAttribute" : false
                          }
                        },
                        {
                          "id" : 2900,
                          "_type" : "UnifiedMedia",
                          "video" : 
                              {
                                "id" : 2901,
                                "_type" : "ScreenVMFile",
                                "src" : 3,
                                "trackNumber" : 0,
                                "attributes" : {
                                  "ident" : "Rec 01-28-21_003"
                                },
                                "parameters" : {
                                  "cursorScale" : {
                                    "type" : "double",
                                    "defaultValue" : 0.0,
                                    "interp" : "linr"
                                  },
                                  "cursorOpacity" : {
                                    "type" : "double",
                                    "defaultValue" : 0.0,
                                    "interp" : "linr"
                                  }
                                },
                                "effects" : [

                                ],
                                "start" : 10720,
                                "duration" : 152,
                                "mediaStart" : 17643,
                                "mediaDuration" : 152,
                                "scalar" : 1,
                                "animationTracks" : {

                                }
                              },
                          "audio" : 
                              {
                                "id" : 2902,
                                "_type" : "AMFile",
                                "src" : 3,
                                "trackNumber" : 1,
                                "attributes" : {
                                  "ident" : "",
                                  "gain" : 1.0,
                                  "mixToMono" : false
                                },
                                  "channelNumber" : "0,1",
                                "effects" : [

                                ],
                                "start" : 10720,
                                "duration" : 152,
                                "mediaStart" : 17643,
                                "mediaDuration" : 152,
                                "scalar" : 1,
                                "animationTracks" : {

                                }
                              }
,
                          "start" : 10720,
                          "duration" : 152,
                          "mediaStart" : 0,
                          "mediaDuration" : 23566,
                          "scalar" : 1,
                          "metadata" : {
                            "AutoAppliedSmartFocus" : "False",
                            "clipSpeedAttribute" : false
                          }
                        },
                        {
                          "id" : 2903,
                          "_type" : "UnifiedMedia",
                          "video" : 
                              {
                                "id" : 2904,
                                "_type" : "ScreenVMFile",
                                "src" : 3,
                                "trackNumber" : 0,
                                "attributes" : {
                                  "ident" : "Rec 01-28-21_003"
                                },
                                "parameters" : {
                                  "cursorScale" : {
                                    "type" : "double",
                                    "defaultValue" : 0.0,
                                    "interp" : "linr"
                                  },
                                  "cursorOpacity" : {
                                    "type" : "double",
                                    "defaultValue" : 0.0,
                                    "interp" : "linr"
                                  }
                                },
                                "effects" : [

                                ],
                                "start" : 10872,
                                "duration" : 110,
                                "mediaStart" : 17925,
                                "mediaDuration" : 110,
                                "scalar" : 1,
                                "animationTracks" : {

                                }
                              },
                          "audio" : 
                              {
                                "id" : 2905,
                                "_type" : "AMFile",
                                "src" : 3,
                                "trackNumber" : 1,
                                "attributes" : {
                                  "ident" : "",
                                  "gain" : 1.0,
                                  "mixToMono" : false
                                },
                                  "channelNumber" : "0,1",
                                "effects" : [

                                ],
                                "start" : 10872,
                                "duration" : 110,
                                "mediaStart" : 17925,
                                "mediaDuration" : 110,
                                "scalar" : 1,
                                "animationTracks" : {

                                }
                              }
,
                          "start" : 10872,
                          "duration" : 110,
                          "mediaStart" : 0,
                          "mediaDuration" : 23566,
                          "scalar" : 1,
                          "metadata" : {
                            "AutoAppliedSmartFocus" : "False",
                            "clipSpeedAttribute" : false
                          }
                        },
                        {
                          "id" : 2906,
                          "_type" : "UnifiedMedia",
                          "video" : 
                              {
                                "id" : 2907,
                                "_type" : "ScreenVMFile",
                                "src" : 3,
                                "trackNumber" : 0,
                                "attributes" : {
                                  "ident" : "Rec 01-28-21_003"
                                },
                                "parameters" : {
                                  "cursorScale" : {
                                    "type" : "double",
                                    "defaultValue" : 0.0,
                                    "interp" : "linr"
                                  },
                                  "cursorOpacity" : {
                                    "type" : "double",
                                    "defaultValue" : 0.0,
                                    "interp" : "linr"
                                  }
                                },
                                "effects" : [

                                ],
                                "start" : 10982,
                                "duration" : 46,
                                "mediaStart" : 18081,
                                "mediaDuration" : 46,
                                "scalar" : 1,
                                "animationTracks" : {

                                }
                              },
                          "audio" : 
                              {
                                "id" : 2908,
                                "_type" : "AMFile",
                                "src" : 3,
                                "trackNumber" : 1,
                                "attributes" : {
                                  "ident" : "",
                                  "gain" : 1.0,
                                  "mixToMono" : false
                                },
                                  "channelNumber" : "0,1",
                                "effects" : [

                                ],
                                "start" : 10982,
                                "duration" : 46,
                                "mediaStart" : 18081,
                                "mediaDuration" : 46,
                                "scalar" : 1,
                                "animationTracks" : {

                                }
                              }
,
                          "start" : 10982,
                          "duration" : 46,
                          "mediaStart" : 0,
                          "mediaDuration" : 23566,
                          "scalar" : 1,
                          "metadata" : {
                            "AutoAppliedSmartFocus" : "False",
                            "clipSpeedAttribute" : false
                          }
                        },
                        {
                          "id" : 2909,
                          "_type" : "UnifiedMedia",
                          "video" : 
                              {
                                "id" : 2910,
                                "_type" : "ScreenVMFile",
                                "src" : 3,
                                "trackNumber" : 0,
                                "attributes" : {
                                  "ident" : "Rec 01-28-21_003"
                                },
                                "parameters" : {
                                  "cursorScale" : {
                                    "type" : "double",
                                    "defaultValue" : 0.0,
                                    "interp" : "linr"
                                  },
                                  "cursorOpacity" : {
                                    "type" : "double",
                                    "defaultValue" : 0.0,
                                    "interp" : "linr"
                                  }
                                },
                                "effects" : [

                                ],
                                "start" : 11028,
                                "duration" : 90,
                                "mediaStart" : 18506,
                                "mediaDuration" : 90,
                                "scalar" : 1,
                                "animationTracks" : {

                                }
                              },
                          "audio" : 
                              {
                                "id" : 2911,
                                "_type" : "AMFile",
                                "src" : 3,
                                "trackNumber" : 1,
                                "attributes" : {
                                  "ident" : "",
                                  "gain" : 1.0,
                                  "mixToMono" : false
                                },
                                  "channelNumber" : "0,1",
                                "effects" : [

                                ],
                                "start" : 11028,
                                "duration" : 90,
                                "mediaStart" : 18506,
                                "mediaDuration" : 90,
                                "scalar" : 1,
                                "animationTracks" : {

                                }
                              }
,
                          "start" : 11028,
                          "duration" : 90,
                          "mediaStart" : 0,
                          "mediaDuration" : 23566,
                          "scalar" : 1,
                          "metadata" : {
                            "AutoAppliedSmartFocus" : "False",
                            "clipSpeedAttribute" : false
                          }
                        },
                        {
                          "id" : 2912,
                          "_type" : "UnifiedMedia",
                          "video" : 
                              {
                                "id" : 2913,
                                "_type" : "ScreenVMFile",
                                "src" : 3,
                                "trackNumber" : 0,
                                "attributes" : {
                                  "ident" : "Rec 01-28-21_003"
                                },
                                "parameters" : {
                                  "cursorScale" : {
                                    "type" : "double",
                                    "defaultValue" : 0.0,
                                    "interp" : "linr"
                                  },
                                  "cursorOpacity" : {
                                    "type" : "double",
                                    "defaultValue" : 0.0,
                                    "interp" : "linr"
                                  }
                                },
                                "effects" : [

                                ],
                                "start" : 11118,
                                "duration" : 159,
                                "mediaStart" : 18712,
                                "mediaDuration" : 159,
                                "scalar" : 1,
                                "animationTracks" : {

                                }
                              },
                          "audio" : 
                              {
                                "id" : 2914,
                                "_type" : "AMFile",
                                "src" : 3,
                                "trackNumber" : 1,
                                "attributes" : {
                                  "ident" : "",
                                  "gain" : 1.0,
                                  "mixToMono" : false
                                },
                                  "channelNumber" : "0,1",
                                "effects" : [

                                ],
                                "start" : 11118,
                                "duration" : 159,
                                "mediaStart" : 18712,
                                "mediaDuration" : 159,
                                "scalar" : 1,
                                "animationTracks" : {

                                }
                              }
,
                          "start" : 11118,
                          "duration" : 159,
                          "mediaStart" : 0,
                          "mediaDuration" : 23566,
                          "scalar" : 1,
                          "metadata" : {
                            "AutoAppliedSmartFocus" : "False",
                            "clipSpeedAttribute" : false
                          }
                        },
                        {
                          "id" : 2915,
                          "_type" : "UnifiedMedia",
                          "video" : 
                              {
                                "id" : 2916,
                                "_type" : "ScreenVMFile",
                                "src" : 3,
                                "trackNumber" : 0,
                                "attributes" : {
                                  "ident" : "Rec 01-28-21_003"
                                },
                                "parameters" : {
                                  "cursorScale" : {
                                    "type" : "double",
                                    "defaultValue" : 0.0,
                                    "interp" : "linr"
                                  },
                                  "cursorOpacity" : {
                                    "type" : "double",
                                    "defaultValue" : 0.0,
                                    "interp" : "linr"
                                  }
                                },
                                "effects" : [

                                ],
                                "start" : 11277,
                                "duration" : 30,
                                "mediaStart" : 18885,
                                "mediaDuration" : 30,
                                "scalar" : 1,
                                "animationTracks" : {

                                }
                              },
                          "audio" : 
                              {
                                "id" : 2917,
                                "_type" : "AMFile",
                                "src" : 3,
                                "trackNumber" : 1,
                                "attributes" : {
                                  "ident" : "",
                                  "gain" : 1.0,
                                  "mixToMono" : false
                                },
                                  "channelNumber" : "0,1",
                                "effects" : [

                                ],
                                "start" : 11277,
                                "duration" : 30,
                                "mediaStart" : 18885,
                                "mediaDuration" : 30,
                                "scalar" : 1,
                                "animationTracks" : {

                                }
                              }
,
                          "start" : 11277,
                          "duration" : 30,
                          "mediaStart" : 0,
                          "mediaDuration" : 23566,
                          "scalar" : 1,
                          "metadata" : {
                            "AutoAppliedSmartFocus" : "False",
                            "clipSpeedAttribute" : false
                          }
                        },
                        {
                          "id" : 2918,
                          "_type" : "UnifiedMedia",
                          "video" : 
                              {
                                "id" : 2919,
                                "_type" : "ScreenVMFile",
                                "src" : 3,
                                "trackNumber" : 0,
                                "attributes" : {
                                  "ident" : "Rec 01-28-21_003"
                                },
                                "parameters" : {
                                  "cursorScale" : {
                                    "type" : "double",
                                    "defaultValue" : 0.0,
                                    "interp" : "linr"
                                  },
                                  "cursorOpacity" : {
                                    "type" : "double",
                                    "defaultValue" : 0.0,
                                    "interp" : "linr"
                                  }
                                },
                                "effects" : [

                                ],
                                "start" : 11307,
                                "duration" : 4634,
                                "mediaStart" : 18932,
                                "mediaDuration" : 4634,
                                "scalar" : 1,
                                "animationTracks" : {

                                }
                              },
                          "audio" : 
                              {
                                "id" : 2920,
                                "_type" : "AMFile",
                                "src" : 3,
                                "trackNumber" : 1,
                                "attributes" : {
                                  "ident" : "",
                                  "gain" : 1.0,
                                  "mixToMono" : false
                                },
                                  "channelNumber" : "0,1",
                                "effects" : [

                                ],
                                "start" : 11307,
                                "duration" : 4634,
                                "mediaStart" : 18932,
                                "mediaDuration" : 4634,
                                "scalar" : 1,
                                "animationTracks" : {

                                }
                              }
,
                          "start" : 11307,
                          "duration" : 4634,
                          "mediaStart" : 0,
                          "mediaDuration" : 23566,
                          "scalar" : 1,
                          "metadata" : {
                            "AutoAppliedSmartFocus" : "False",
                            "clipSpeedAttribute" : false
                          }
                        }
                    ],
                    "effects" : [
                        {
                          "effectName" : "CursorHilight",
                          "category" : "categoryCursorEffects",
                          "parameters" : {
                            "blur" : 0.1,
                            "color-alpha" : 0.591666666666667,
                            "color-blue" : 0.0,
                            "color-green" : 1.0,
                            "color-red" : 1.0,
                            "radius" : 23.3333333333333
                          }
                        }
                    ],
                    "start" : 16383,
                    "duration" : 1299,
                    "mediaStart" : 10688,
                    "mediaDuration" : 1299,
                    "scalar" : 1,
                    "metadata" : {
                      "AutoAppliedSmartFocus" : "False",
                      "clipSpeedAttribute" : false
                    },
                    "animationTracks" : {

                    }
                  },
                  {
                    "id" : 2921,
                    "_type" : "StitchedMedia",
                    "minMediaStart" : 0,
                    "attributes" : {
                      "ident" : "Rec 01-28-21_003",
                      "gain" : 1.0,
                      "mixToMono" : false
                    },
                    "parameters" : {
                      "volume" : 1.0,
                      "cursorOpacity" : 1.0,
                      "cursorScale" : 1.0
                    },
                    "medias" : [
                        {
                          "id" : 2922,
                          "_type" : "UnifiedMedia",
                          "video" : 
                              {
                                "id" : 2923,
                                "_type" : "ScreenVMFile",
                                "src" : 3,
                                "trackNumber" : 0,
                                "attributes" : {
                                  "ident" : "Rec 01-28-21_003"
                                },
                                "parameters" : {
                                  "cursorScale" : {
                                    "type" : "double",
                                    "defaultValue" : 0.0,
                                    "interp" : "linr"
                                  },
                                  "cursorOpacity" : {
                                    "type" : "double",
                                    "defaultValue" : 0.0,
                                    "interp" : "linr"
                                  }
                                },
                                "effects" : [

                                ],
                                "start" : 0,
                                "duration" : 20277,
                                "mediaStart" : 0,
                                "mediaDuration" : 20277,
                                "scalar" : 1,
                                "animationTracks" : {

                                }
                              },
                          "audio" : 
                              {
                                "id" : 2924,
                                "_type" : "AMFile",
                                "src" : 3,
                                "trackNumber" : 1,
                                "attributes" : {
                                  "ident" : "",
                                  "gain" : 1.0,
                                  "mixToMono" : false
                                },
                                  "channelNumber" : "0,1",
                                "effects" : [

                                ],
                                "start" : 0,
                                "duration" : 20277,
                                "mediaStart" : 0,
                                "mediaDuration" : 20277,
                                "scalar" : 1,
                                "animationTracks" : {

                                }
                              }
,
                          "start" : 0,
                          "duration" : 20277,
                          "mediaStart" : 0,
                          "mediaDuration" : 23566,
                          "scalar" : 1,
                          "metadata" : {
                            "AutoAppliedSmartFocus" : "False",
                            "clipSpeedAttribute" : false
                          }
                        },
                        {
                          "id" : 2925,
                          "_type" : "UnifiedMedia",
                          "video" : 
                              {
                                "id" : 2926,
                                "_type" : "ScreenVMFile",
                                "src" : 3,
                                "trackNumber" : 0,
                                "attributes" : {
                                  "ident" : "Rec 01-28-21_003"
                                },
                                "parameters" : {
                                  "cursorScale" : {
                                    "type" : "double",
                                    "defaultValue" : 0.0,
                                    "interp" : "linr"
                                  },
                                  "cursorOpacity" : {
                                    "type" : "double",
                                    "defaultValue" : 0.0,
                                    "interp" : "linr"
                                  }
                                },
                                "effects" : [

                                ],
                                "start" : 20277,
                                "duration" : 50,
                                "mediaStart" : 20343,
                                "mediaDuration" : 50,
                                "scalar" : 1,
                                "animationTracks" : {

                                }
                              },
                          "audio" : 
                              {
                                "id" : 2927,
                                "_type" : "AMFile",
                                "src" : 3,
                                "trackNumber" : 1,
                                "attributes" : {
                                  "ident" : "",
                                  "gain" : 1.0,
                                  "mixToMono" : false
                                },
                                  "channelNumber" : "0,1",
                                "effects" : [

                                ],
                                "start" : 20277,
                                "duration" : 50,
                                "mediaStart" : 20343,
                                "mediaDuration" : 50,
                                "scalar" : 1,
                                "animationTracks" : {

                                }
                              }
,
                          "start" : 20277,
                          "duration" : 50,
                          "mediaStart" : 0,
                          "mediaDuration" : 23566,
                          "scalar" : 1,
                          "metadata" : {
                            "AutoAppliedSmartFocus" : "False",
                            "clipSpeedAttribute" : false
                          }
                        },
                        {
                          "id" : 2928,
                          "_type" : "UnifiedMedia",
                          "video" : 
                              {
                                "id" : 2929,
                                "_type" : "ScreenVMFile",
                                "src" : 3,
                                "trackNumber" : 0,
                                "attributes" : {
                                  "ident" : "Rec 01-28-21_003"
                                },
                                "parameters" : {
                                  "cursorScale" : {
                                    "type" : "double",
                                    "defaultValue" : 0.0,
                                    "interp" : "linr"
                                  },
                                  "cursorOpacity" : {
                                    "type" : "double",
                                    "defaultValue" : 0.0,
                                    "interp" : "linr"
                                  }
                                },
                                "effects" : [

                                ],
                                "start" : 20327,
                                "duration" : 206,
                                "mediaStart" : 20431,
                                "mediaDuration" : 206,
                                "scalar" : 1,
                                "animationTracks" : {

                                }
                              },
                          "audio" : 
                              {
                                "id" : 2930,
                                "_type" : "AMFile",
                                "src" : 3,
                                "trackNumber" : 1,
                                "attributes" : {
                                  "ident" : "",
                                  "gain" : 1.0,
                                  "mixToMono" : false
                                },
                                  "channelNumber" : "0,1",
                                "effects" : [

                                ],
                                "start" : 20327,
                                "duration" : 206,
                                "mediaStart" : 20431,
                                "mediaDuration" : 206,
                                "scalar" : 1,
                                "animationTracks" : {

                                }
                              }
,
                          "start" : 20327,
                          "duration" : 206,
                          "mediaStart" : 0,
                          "mediaDuration" : 23566,
                          "scalar" : 1,
                          "metadata" : {
                            "AutoAppliedSmartFocus" : "False",
                            "clipSpeedAttribute" : false
                          }
                        },
                        {
                          "id" : 2931,
                          "_type" : "UnifiedMedia",
                          "video" : 
                              {
                                "id" : 2932,
                                "_type" : "ScreenVMFile",
                                "src" : 3,
                                "trackNumber" : 0,
                                "attributes" : {
                                  "ident" : "Rec 01-28-21_003"
                                },
                                "parameters" : {
                                  "cursorScale" : {
                                    "type" : "double",
                                    "defaultValue" : 0.0,
                                    "interp" : "linr"
                                  },
                                  "cursorOpacity" : {
                                    "type" : "double",
                                    "defaultValue" : 0.0,
                                    "interp" : "linr"
                                  }
                                },
                                "effects" : [

                                ],
                                "start" : 20533,
                                "duration" : 67,
                                "mediaStart" : 20653,
                                "mediaDuration" : 67,
                                "scalar" : 1,
                                "animationTracks" : {

                                }
                              },
                          "audio" : 
                              {
                                "id" : 2933,
                                "_type" : "AMFile",
                                "src" : 3,
                                "trackNumber" : 1,
                                "attributes" : {
                                  "ident" : "",
                                  "gain" : 1.0,
                                  "mixToMono" : false
                                },
                                  "channelNumber" : "0,1",
                                "effects" : [

                                ],
                                "start" : 20533,
                                "duration" : 67,
                                "mediaStart" : 20653,
                                "mediaDuration" : 67,
                                "scalar" : 1,
                                "animationTracks" : {

                                }
                              }
,
                          "start" : 20533,
                          "duration" : 67,
                          "mediaStart" : 0,
                          "mediaDuration" : 23566,
                          "scalar" : 1,
                          "metadata" : {
                            "AutoAppliedSmartFocus" : "False",
                            "clipSpeedAttribute" : false
                          }
                        },
                        {
                          "id" : 2934,
                          "_type" : "UnifiedMedia",
                          "video" : 
                              {
                                "id" : 2935,
                                "_type" : "ScreenVMFile",
                                "src" : 3,
                                "trackNumber" : 0,
                                "attributes" : {
                                  "ident" : "Rec 01-28-21_003"
                                },
                                "parameters" : {
                                  "cursorScale" : {
                                    "type" : "double",
                                    "defaultValue" : 0.0,
                                    "interp" : "linr"
                                  },
                                  "cursorOpacity" : {
                                    "type" : "double",
                                    "defaultValue" : 0.0,
                                    "interp" : "linr"
                                  }
                                },
                                "effects" : [

                                ],
                                "start" : 20600,
                                "duration" : 30,
                                "mediaStart" : 20766,
                                "mediaDuration" : 30,
                                "scalar" : 1,
                                "animationTracks" : {

                                }
                              },
                          "audio" : 
                              {
                                "id" : 2936,
                                "_type" : "AMFile",
                                "src" : 3,
                                "trackNumber" : 1,
                                "attributes" : {
                                  "ident" : "",
                                  "gain" : 1.0,
                                  "mixToMono" : false
                                },
                                  "channelNumber" : "0,1",
                                "effects" : [

                                ],
                                "start" : 20600,
                                "duration" : 30,
                                "mediaStart" : 20766,
                                "mediaDuration" : 30,
                                "scalar" : 1,
                                "animationTracks" : {

                                }
                              }
,
                          "start" : 20600,
                          "duration" : 30,
                          "mediaStart" : 0,
                          "mediaDuration" : 23566,
                          "scalar" : 1,
                          "metadata" : {
                            "AutoAppliedSmartFocus" : "False",
                            "clipSpeedAttribute" : false
                          }
                        },
                        {
                          "id" : 2937,
                          "_type" : "UnifiedMedia",
                          "video" : 
                              {
                                "id" : 2938,
                                "_type" : "ScreenVMFile",
                                "src" : 3,
                                "trackNumber" : 0,
                                "attributes" : {
                                  "ident" : "Rec 01-28-21_003"
                                },
                                "parameters" : {
                                  "cursorScale" : {
                                    "type" : "double",
                                    "defaultValue" : 0.0,
                                    "interp" : "linr"
                                  },
                                  "cursorOpacity" : {
                                    "type" : "double",
                                    "defaultValue" : 0.0,
                                    "interp" : "linr"
                                  }
                                },
                                "effects" : [

                                ],
                                "start" : 20630,
                                "duration" : 2738,
                                "mediaStart" : 20828,
                                "mediaDuration" : 2738,
                                "scalar" : 1,
                                "animationTracks" : {

                                }
                              },
                          "audio" : 
                              {
                                "id" : 2939,
                                "_type" : "AMFile",
                                "src" : 3,
                                "trackNumber" : 1,
                                "attributes" : {
                                  "ident" : "",
                                  "gain" : 1.0,
                                  "mixToMono" : false
                                },
                                  "channelNumber" : "0,1",
                                "effects" : [

                                ],
                                "start" : 20630,
                                "duration" : 2738,
                                "mediaStart" : 20828,
                                "mediaDuration" : 2738,
                                "scalar" : 1,
                                "animationTracks" : {

                                }
                              }
,
                          "start" : 20630,
                          "duration" : 2738,
                          "mediaStart" : 0,
                          "mediaDuration" : 23566,
                          "scalar" : 1,
                          "metadata" : {
                            "AutoAppliedSmartFocus" : "False",
                            "clipSpeedAttribute" : false
                          }
                        }
                    ],
                    "effects" : [

                    ],
                    "start" : 17682,
                    "duration" : 624,
                    "mediaStart" : 20079,
                    "mediaDuration" : 624,
                    "scalar" : 1,
                    "metadata" : {
                      "AutoAppliedSmartFocus" : "False",
                      "clipSpeedAttribute" : false
                    },
                    "animationTracks" : {

                    }
                  },
                  {
                    "id" : 2940,
                    "_type" : "StitchedMedia",
                    "minMediaStart" : 0,
                    "attributes" : {
                      "ident" : "Rec 01-28-21_003",
                      "gain" : 1.0,
                      "mixToMono" : false
                    },
                    "parameters" : {
                      "volume" : 1.0,
                      "cursorOpacity" : 1.0,
                      "cursorScale" : 1.0
                    },
                    "medias" : [
                        {
                          "id" : 2941,
                          "_type" : "UnifiedMedia",
                          "video" : 
                              {
                                "id" : 2942,
                                "_type" : "ScreenVMFile",
                                "src" : 3,
                                "trackNumber" : 0,
                                "attributes" : {
                                  "ident" : "Rec 01-28-21_003"
                                },
                                "parameters" : {
                                  "cursorScale" : {
                                    "type" : "double",
                                    "defaultValue" : 0.0,
                                    "interp" : "linr"
                                  },
                                  "cursorOpacity" : {
                                    "type" : "double",
                                    "defaultValue" : 0.0,
                                    "interp" : "linr"
                                  }
                                },
                                "effects" : [

                                ],
                                "start" : 0,
                                "duration" : 20277,
                                "mediaStart" : 0,
                                "mediaDuration" : 20277,
                                "scalar" : 1,
                                "animationTracks" : {

                                }
                              },
                          "audio" : 
                              {
                                "id" : 2943,
                                "_type" : "AMFile",
                                "src" : 3,
                                "trackNumber" : 1,
                                "attributes" : {
                                  "ident" : "",
                                  "gain" : 1.0,
                                  "mixToMono" : false
                                },
                                  "channelNumber" : "0,1",
                                "effects" : [

                                ],
                                "start" : 0,
                                "duration" : 20277,
                                "mediaStart" : 0,
                                "mediaDuration" : 20277,
                                "scalar" : 1,
                                "animationTracks" : {

                                }
                              }
,
                          "start" : 0,
                          "duration" : 20277,
                          "mediaStart" : 0,
                          "mediaDuration" : 23566,
                          "scalar" : 1,
                          "metadata" : {
                            "AutoAppliedSmartFocus" : "False",
                            "clipSpeedAttribute" : false
                          }
                        },
                        {
                          "id" : 2944,
                          "_type" : "UnifiedMedia",
                          "video" : 
                              {
                                "id" : 2945,
                                "_type" : "ScreenVMFile",
                                "src" : 3,
                                "trackNumber" : 0,
                                "attributes" : {
                                  "ident" : "Rec 01-28-21_003"
                                },
                                "parameters" : {
                                  "cursorScale" : {
                                    "type" : "double",
                                    "defaultValue" : 0.0,
                                    "interp" : "linr"
                                  },
                                  "cursorOpacity" : {
                                    "type" : "double",
                                    "defaultValue" : 0.0,
                                    "interp" : "linr"
                                  }
                                },
                                "effects" : [

                                ],
                                "start" : 20277,
                                "duration" : 50,
                                "mediaStart" : 20343,
                                "mediaDuration" : 50,
                                "scalar" : 1,
                                "animationTracks" : {

                                }
                              },
                          "audio" : 
                              {
                                "id" : 2946,
                                "_type" : "AMFile",
                                "src" : 3,
                                "trackNumber" : 1,
                                "attributes" : {
                                  "ident" : "",
                                  "gain" : 1.0,
                                  "mixToMono" : false
                                },
                                  "channelNumber" : "0,1",
                                "effects" : [

                                ],
                                "start" : 20277,
                                "duration" : 50,
                                "mediaStart" : 20343,
                                "mediaDuration" : 50,
                                "scalar" : 1,
                                "animationTracks" : {

                                }
                              }
,
                          "start" : 20277,
                          "duration" : 50,
                          "mediaStart" : 0,
                          "mediaDuration" : 23566,
                          "scalar" : 1,
                          "metadata" : {
                            "AutoAppliedSmartFocus" : "False",
                            "clipSpeedAttribute" : false
                          }
                        },
                        {
                          "id" : 2947,
                          "_type" : "UnifiedMedia",
                          "video" : 
                              {
                                "id" : 2948,
                                "_type" : "ScreenVMFile",
                                "src" : 3,
                                "trackNumber" : 0,
                                "attributes" : {
                                  "ident" : "Rec 01-28-21_003"
                                },
                                "parameters" : {
                                  "cursorScale" : {
                                    "type" : "double",
                                    "defaultValue" : 0.0,
                                    "interp" : "linr"
                                  },
                                  "cursorOpacity" : {
                                    "type" : "double",
                                    "defaultValue" : 0.0,
                                    "interp" : "linr"
                                  }
                                },
                                "effects" : [

                                ],
                                "start" : 20327,
                                "duration" : 206,
                                "mediaStart" : 20431,
                                "mediaDuration" : 206,
                                "scalar" : 1,
                                "animationTracks" : {

                                }
                              },
                          "audio" : 
                              {
                                "id" : 2949,
                                "_type" : "AMFile",
                                "src" : 3,
                                "trackNumber" : 1,
                                "attributes" : {
                                  "ident" : "",
                                  "gain" : 1.0,
                                  "mixToMono" : false
                                },
                                  "channelNumber" : "0,1",
                                "effects" : [

                                ],
                                "start" : 20327,
                                "duration" : 206,
                                "mediaStart" : 20431,
                                "mediaDuration" : 206,
                                "scalar" : 1,
                                "animationTracks" : {

                                }
                              }
,
                          "start" : 20327,
                          "duration" : 206,
                          "mediaStart" : 0,
                          "mediaDuration" : 23566,
                          "scalar" : 1,
                          "metadata" : {
                            "AutoAppliedSmartFocus" : "False",
                            "clipSpeedAttribute" : false
                          }
                        },
                        {
                          "id" : 2950,
                          "_type" : "UnifiedMedia",
                          "video" : 
                              {
                                "id" : 2951,
                                "_type" : "ScreenVMFile",
                                "src" : 3,
                                "trackNumber" : 0,
                                "attributes" : {
                                  "ident" : "Rec 01-28-21_003"
                                },
                                "parameters" : {
                                  "cursorScale" : {
                                    "type" : "double",
                                    "defaultValue" : 0.0,
                                    "interp" : "linr"
                                  },
                                  "cursorOpacity" : {
                                    "type" : "double",
                                    "defaultValue" : 0.0,
                                    "interp" : "linr"
                                  }
                                },
                                "effects" : [

                                ],
                                "start" : 20533,
                                "duration" : 67,
                                "mediaStart" : 20653,
                                "mediaDuration" : 67,
                                "scalar" : 1,
                                "animationTracks" : {

                                }
                              },
                          "audio" : 
                              {
                                "id" : 2952,
                                "_type" : "AMFile",
                                "src" : 3,
                                "trackNumber" : 1,
                                "attributes" : {
                                  "ident" : "",
                                  "gain" : 1.0,
                                  "mixToMono" : false
                                },
                                  "channelNumber" : "0,1",
                                "effects" : [

                                ],
                                "start" : 20533,
                                "duration" : 67,
                                "mediaStart" : 20653,
                                "mediaDuration" : 67,
                                "scalar" : 1,
                                "animationTracks" : {

                                }
                              }
,
                          "start" : 20533,
                          "duration" : 67,
                          "mediaStart" : 0,
                          "mediaDuration" : 23566,
                          "scalar" : 1,
                          "metadata" : {
                            "AutoAppliedSmartFocus" : "False",
                            "clipSpeedAttribute" : false
                          }
                        },
                        {
                          "id" : 2953,
                          "_type" : "UnifiedMedia",
                          "video" : 
                              {
                                "id" : 2954,
                                "_type" : "ScreenVMFile",
                                "src" : 3,
                                "trackNumber" : 0,
                                "attributes" : {
                                  "ident" : "Rec 01-28-21_003"
                                },
                                "parameters" : {
                                  "cursorScale" : {
                                    "type" : "double",
                                    "defaultValue" : 0.0,
                                    "interp" : "linr"
                                  },
                                  "cursorOpacity" : {
                                    "type" : "double",
                                    "defaultValue" : 0.0,
                                    "interp" : "linr"
                                  }
                                },
                                "effects" : [

                                ],
                                "start" : 20600,
                                "duration" : 30,
                                "mediaStart" : 20766,
                                "mediaDuration" : 30,
                                "scalar" : 1,
                                "animationTracks" : {

                                }
                              },
                          "audio" : 
                              {
                                "id" : 2955,
                                "_type" : "AMFile",
                                "src" : 3,
                                "trackNumber" : 1,
                                "attributes" : {
                                  "ident" : "",
                                  "gain" : 1.0,
                                  "mixToMono" : false
                                },
                                  "channelNumber" : "0,1",
                                "effects" : [

                                ],
                                "start" : 20600,
                                "duration" : 30,
                                "mediaStart" : 20766,
                                "mediaDuration" : 30,
                                "scalar" : 1,
                                "animationTracks" : {

                                }
                              }
,
                          "start" : 20600,
                          "duration" : 30,
                          "mediaStart" : 0,
                          "mediaDuration" : 23566,
                          "scalar" : 1,
                          "metadata" : {
                            "AutoAppliedSmartFocus" : "False",
                            "clipSpeedAttribute" : false
                          }
                        },
                        {
                          "id" : 2956,
                          "_type" : "UnifiedMedia",
                          "video" : 
                              {
                                "id" : 2957,
                                "_type" : "ScreenVMFile",
                                "src" : 3,
                                "trackNumber" : 0,
                                "attributes" : {
                                  "ident" : "Rec 01-28-21_003"
                                },
                                "parameters" : {
                                  "cursorScale" : {
                                    "type" : "double",
                                    "defaultValue" : 0.0,
                                    "interp" : "linr"
                                  },
                                  "cursorOpacity" : {
                                    "type" : "double",
                                    "defaultValue" : 0.0,
                                    "interp" : "linr"
                                  }
                                },
                                "effects" : [

                                ],
                                "start" : 20630,
                                "duration" : 498,
                                "mediaStart" : 20828,
                                "mediaDuration" : 498,
                                "scalar" : 1,
                                "animationTracks" : {

                                }
                              },
                          "audio" : 
                              {
                                "id" : 2958,
                                "_type" : "AMFile",
                                "src" : 3,
                                "trackNumber" : 1,
                                "attributes" : {
                                  "ident" : "",
                                  "gain" : 1.0,
                                  "mixToMono" : false
                                },
                                  "channelNumber" : "0,1",
                                "effects" : [

                                ],
                                "start" : 20630,
                                "duration" : 498,
                                "mediaStart" : 20828,
                                "mediaDuration" : 498,
                                "scalar" : 1,
                                "animationTracks" : {

                                }
                              }
,
                          "start" : 20630,
                          "duration" : 498,
                          "mediaStart" : 0,
                          "mediaDuration" : 23566,
                          "scalar" : 1,
                          "metadata" : {
                            "AutoAppliedSmartFocus" : "False",
                            "clipSpeedAttribute" : false
                          }
                        },
                        {
                          "id" : 2959,
                          "_type" : "UnifiedMedia",
                          "video" : 
                              {
                                "id" : 2960,
                                "_type" : "ScreenVMFile",
                                "src" : 3,
                                "trackNumber" : 0,
                                "attributes" : {
                                  "ident" : "Rec 01-28-21_003"
                                },
                                "parameters" : {
                                  "cursorScale" : {
                                    "type" : "double",
                                    "defaultValue" : 0.0,
                                    "interp" : "linr"
                                  },
                                  "cursorOpacity" : {
                                    "type" : "double",
                                    "defaultValue" : 0.0,
                                    "interp" : "linr"
                                  }
                                },
                                "effects" : [

                                ],
                                "start" : 21128,
                                "duration" : 121,
                                "mediaStart" : 21452,
                                "mediaDuration" : 121,
                                "scalar" : 1,
                                "animationTracks" : {

                                }
                              },
                          "audio" : 
                              {
                                "id" : 2961,
                                "_type" : "AMFile",
                                "src" : 3,
                                "trackNumber" : 1,
                                "attributes" : {
                                  "ident" : "",
                                  "gain" : 1.0,
                                  "mixToMono" : false
                                },
                                  "channelNumber" : "0,1",
                                "effects" : [

                                ],
                                "start" : 21128,
                                "duration" : 121,
                                "mediaStart" : 21452,
                                "mediaDuration" : 121,
                                "scalar" : 1,
                                "animationTracks" : {

                                }
                              }
,
                          "start" : 21128,
                          "duration" : 121,
                          "mediaStart" : 0,
                          "mediaDuration" : 23566,
                          "scalar" : 1,
                          "metadata" : {
                            "AutoAppliedSmartFocus" : "False",
                            "clipSpeedAttribute" : false
                          }
                        },
                        {
                          "id" : 2962,
                          "_type" : "UnifiedMedia",
                          "video" : 
                              {
                                "id" : 2963,
                                "_type" : "ScreenVMFile",
                                "src" : 3,
                                "trackNumber" : 0,
                                "attributes" : {
                                  "ident" : "Rec 01-28-21_003"
                                },
                                "parameters" : {
                                  "cursorScale" : {
                                    "type" : "double",
                                    "defaultValue" : 0.0,
                                    "interp" : "linr"
                                  },
                                  "cursorOpacity" : {
                                    "type" : "double",
                                    "defaultValue" : 0.0,
                                    "interp" : "linr"
                                  }
                                },
                                "effects" : [

                                ],
                                "start" : 21249,
                                "duration" : 74,
                                "mediaStart" : 21595,
                                "mediaDuration" : 74,
                                "scalar" : 1,
                                "animationTracks" : {

                                }
                              },
                          "audio" : 
                              {
                                "id" : 2964,
                                "_type" : "AMFile",
                                "src" : 3,
                                "trackNumber" : 1,
                                "attributes" : {
                                  "ident" : "",
                                  "gain" : 1.0,
                                  "mixToMono" : false
                                },
                                  "channelNumber" : "0,1",
                                "effects" : [

                                ],
                                "start" : 21249,
                                "duration" : 74,
                                "mediaStart" : 21595,
                                "mediaDuration" : 74,
                                "scalar" : 1,
                                "animationTracks" : {

                                }
                              }
,
                          "start" : 21249,
                          "duration" : 74,
                          "mediaStart" : 0,
                          "mediaDuration" : 23566,
                          "scalar" : 1,
                          "metadata" : {
                            "AutoAppliedSmartFocus" : "False",
                            "clipSpeedAttribute" : false
                          }
                        },
                        {
                          "id" : 2965,
                          "_type" : "UnifiedMedia",
                          "video" : 
                              {
                                "id" : 2966,
                                "_type" : "ScreenVMFile",
                                "src" : 3,
                                "trackNumber" : 0,
                                "attributes" : {
                                  "ident" : "Rec 01-28-21_003"
                                },
                                "parameters" : {
                                  "cursorScale" : {
                                    "type" : "double",
                                    "defaultValue" : 0.0,
                                    "interp" : "linr"
                                  },
                                  "cursorOpacity" : {
                                    "type" : "double",
                                    "defaultValue" : 0.0,
                                    "interp" : "linr"
                                  }
                                },
                                "effects" : [

                                ],
                                "start" : 21323,
                                "duration" : 1811,
                                "mediaStart" : 21755,
                                "mediaDuration" : 1811,
                                "scalar" : 1,
                                "animationTracks" : {

                                }
                              },
                          "audio" : 
                              {
                                "id" : 2967,
                                "_type" : "AMFile",
                                "src" : 3,
                                "trackNumber" : 1,
                                "attributes" : {
                                  "ident" : "",
                                  "gain" : 1.0,
                                  "mixToMono" : false
                                },
                                  "channelNumber" : "0,1",
                                "effects" : [

                                ],
                                "start" : 21323,
                                "duration" : 1811,
                                "mediaStart" : 21755,
                                "mediaDuration" : 1811,
                                "scalar" : 1,
                                "animationTracks" : {

                                }
                              }
,
                          "start" : 21323,
                          "duration" : 1811,
                          "mediaStart" : 0,
                          "mediaDuration" : 23566,
                          "scalar" : 1,
                          "metadata" : {
                            "AutoAppliedSmartFocus" : "False",
                            "clipSpeedAttribute" : false
                          }
                        }
                    ],
                    "effects" : [

                    ],
                    "start" : 18306,
                    "duration" : 491,
                    "mediaStart" : 20978,
                    "mediaDuration" : 491,
                    "scalar" : 1,
                    "metadata" : {
                      "AutoAppliedSmartFocus" : "False",
                      "clipSpeedAttribute" : false
                    },
                    "animationTracks" : {

                    }
                  },
                  {
                    "id" : 2968,
                    "_type" : "StitchedMedia",
                    "minMediaStart" : 0,
                    "attributes" : {
                      "ident" : "Rec 01-28-21_003",
                      "gain" : 1.0,
                      "mixToMono" : false
                    },
                    "parameters" : {
                      "volume" : 1.0,
                      "cursorOpacity" : 1.0,
                      "cursorScale" : 1.0
                    },
                    "medias" : [
                        {
                          "id" : 2969,
                          "_type" : "UnifiedMedia",
                          "video" : 
                              {
                                "id" : 2970,
                                "_type" : "ScreenVMFile",
                                "src" : 3,
                                "trackNumber" : 0,
                                "attributes" : {
                                  "ident" : "Rec 01-28-21_003"
                                },
                                "parameters" : {
                                  "cursorScale" : {
                                    "type" : "double",
                                    "defaultValue" : 0.0,
                                    "interp" : "linr"
                                  },
                                  "cursorOpacity" : {
                                    "type" : "double",
                                    "defaultValue" : 0.0,
                                    "interp" : "linr"
                                  }
                                },
                                "effects" : [

                                ],
                                "start" : 0,
                                "duration" : 20277,
                                "mediaStart" : 0,
                                "mediaDuration" : 20277,
                                "scalar" : 1,
                                "animationTracks" : {

                                }
                              },
                          "audio" : 
                              {
                                "id" : 2971,
                                "_type" : "AMFile",
                                "src" : 3,
                                "trackNumber" : 1,
                                "attributes" : {
                                  "ident" : "",
                                  "gain" : 1.0,
                                  "mixToMono" : false
                                },
                                  "channelNumber" : "0,1",
                                "effects" : [

                                ],
                                "start" : 0,
                                "duration" : 20277,
                                "mediaStart" : 0,
                                "mediaDuration" : 20277,
                                "scalar" : 1,
                                "animationTracks" : {

                                }
                              }
,
                          "start" : 0,
                          "duration" : 20277,
                          "mediaStart" : 0,
                          "mediaDuration" : 23566,
                          "scalar" : 1,
                          "metadata" : {
                            "AutoAppliedSmartFocus" : "False",
                            "clipSpeedAttribute" : false
                          }
                        },
                        {
                          "id" : 2972,
                          "_type" : "UnifiedMedia",
                          "video" : 
                              {
                                "id" : 2973,
                                "_type" : "ScreenVMFile",
                                "src" : 3,
                                "trackNumber" : 0,
                                "attributes" : {
                                  "ident" : "Rec 01-28-21_003"
                                },
                                "parameters" : {
                                  "cursorScale" : {
                                    "type" : "double",
                                    "defaultValue" : 0.0,
                                    "interp" : "linr"
                                  },
                                  "cursorOpacity" : {
                                    "type" : "double",
                                    "defaultValue" : 0.0,
                                    "interp" : "linr"
                                  }
                                },
                                "effects" : [

                                ],
                                "start" : 20277,
                                "duration" : 50,
                                "mediaStart" : 20343,
                                "mediaDuration" : 50,
                                "scalar" : 1,
                                "animationTracks" : {

                                }
                              },
                          "audio" : 
                              {
                                "id" : 2974,
                                "_type" : "AMFile",
                                "src" : 3,
                                "trackNumber" : 1,
                                "attributes" : {
                                  "ident" : "",
                                  "gain" : 1.0,
                                  "mixToMono" : false
                                },
                                  "channelNumber" : "0,1",
                                "effects" : [

                                ],
                                "start" : 20277,
                                "duration" : 50,
                                "mediaStart" : 20343,
                                "mediaDuration" : 50,
                                "scalar" : 1,
                                "animationTracks" : {

                                }
                              }
,
                          "start" : 20277,
                          "duration" : 50,
                          "mediaStart" : 0,
                          "mediaDuration" : 23566,
                          "scalar" : 1,
                          "metadata" : {
                            "AutoAppliedSmartFocus" : "False",
                            "clipSpeedAttribute" : false
                          }
                        },
                        {
                          "id" : 2975,
                          "_type" : "UnifiedMedia",
                          "video" : 
                              {
                                "id" : 2976,
                                "_type" : "ScreenVMFile",
                                "src" : 3,
                                "trackNumber" : 0,
                                "attributes" : {
                                  "ident" : "Rec 01-28-21_003"
                                },
                                "parameters" : {
                                  "cursorScale" : {
                                    "type" : "double",
                                    "defaultValue" : 0.0,
                                    "interp" : "linr"
                                  },
                                  "cursorOpacity" : {
                                    "type" : "double",
                                    "defaultValue" : 0.0,
                                    "interp" : "linr"
                                  }
                                },
                                "effects" : [

                                ],
                                "start" : 20327,
                                "duration" : 206,
                                "mediaStart" : 20431,
                                "mediaDuration" : 206,
                                "scalar" : 1,
                                "animationTracks" : {

                                }
                              },
                          "audio" : 
                              {
                                "id" : 2977,
                                "_type" : "AMFile",
                                "src" : 3,
                                "trackNumber" : 1,
                                "attributes" : {
                                  "ident" : "",
                                  "gain" : 1.0,
                                  "mixToMono" : false
                                },
                                  "channelNumber" : "0,1",
                                "effects" : [

                                ],
                                "start" : 20327,
                                "duration" : 206,
                                "mediaStart" : 20431,
                                "mediaDuration" : 206,
                                "scalar" : 1,
                                "animationTracks" : {

                                }
                              }
,
                          "start" : 20327,
                          "duration" : 206,
                          "mediaStart" : 0,
                          "mediaDuration" : 23566,
                          "scalar" : 1,
                          "metadata" : {
                            "AutoAppliedSmartFocus" : "False",
                            "clipSpeedAttribute" : false
                          }
                        },
                        {
                          "id" : 2978,
                          "_type" : "UnifiedMedia",
                          "video" : 
                              {
                                "id" : 2979,
                                "_type" : "ScreenVMFile",
                                "src" : 3,
                                "trackNumber" : 0,
                                "attributes" : {
                                  "ident" : "Rec 01-28-21_003"
                                },
                                "parameters" : {
                                  "cursorScale" : {
                                    "type" : "double",
                                    "defaultValue" : 0.0,
                                    "interp" : "linr"
                                  },
                                  "cursorOpacity" : {
                                    "type" : "double",
                                    "defaultValue" : 0.0,
                                    "interp" : "linr"
                                  }
                                },
                                "effects" : [

                                ],
                                "start" : 20533,
                                "duration" : 67,
                                "mediaStart" : 20653,
                                "mediaDuration" : 67,
                                "scalar" : 1,
                                "animationTracks" : {

                                }
                              },
                          "audio" : 
                              {
                                "id" : 2980,
                                "_type" : "AMFile",
                                "src" : 3,
                                "trackNumber" : 1,
                                "attributes" : {
                                  "ident" : "",
                                  "gain" : 1.0,
                                  "mixToMono" : false
                                },
                                  "channelNumber" : "0,1",
                                "effects" : [

                                ],
                                "start" : 20533,
                                "duration" : 67,
                                "mediaStart" : 20653,
                                "mediaDuration" : 67,
                                "scalar" : 1,
                                "animationTracks" : {

                                }
                              }
,
                          "start" : 20533,
                          "duration" : 67,
                          "mediaStart" : 0,
                          "mediaDuration" : 23566,
                          "scalar" : 1,
                          "metadata" : {
                            "AutoAppliedSmartFocus" : "False",
                            "clipSpeedAttribute" : false
                          }
                        },
                        {
                          "id" : 2981,
                          "_type" : "UnifiedMedia",
                          "video" : 
                              {
                                "id" : 2982,
                                "_type" : "ScreenVMFile",
                                "src" : 3,
                                "trackNumber" : 0,
                                "attributes" : {
                                  "ident" : "Rec 01-28-21_003"
                                },
                                "parameters" : {
                                  "cursorScale" : {
                                    "type" : "double",
                                    "defaultValue" : 0.0,
                                    "interp" : "linr"
                                  },
                                  "cursorOpacity" : {
                                    "type" : "double",
                                    "defaultValue" : 0.0,
                                    "interp" : "linr"
                                  }
                                },
                                "effects" : [

                                ],
                                "start" : 20600,
                                "duration" : 30,
                                "mediaStart" : 20766,
                                "mediaDuration" : 30,
                                "scalar" : 1,
                                "animationTracks" : {

                                }
                              },
                          "audio" : 
                              {
                                "id" : 2983,
                                "_type" : "AMFile",
                                "src" : 3,
                                "trackNumber" : 1,
                                "attributes" : {
                                  "ident" : "",
                                  "gain" : 1.0,
                                  "mixToMono" : false
                                },
                                  "channelNumber" : "0,1",
                                "effects" : [

                                ],
                                "start" : 20600,
                                "duration" : 30,
                                "mediaStart" : 20766,
                                "mediaDuration" : 30,
                                "scalar" : 1,
                                "animationTracks" : {

                                }
                              }
,
                          "start" : 20600,
                          "duration" : 30,
                          "mediaStart" : 0,
                          "mediaDuration" : 23566,
                          "scalar" : 1,
                          "metadata" : {
                            "AutoAppliedSmartFocus" : "False",
                            "clipSpeedAttribute" : false
                          }
                        },
                        {
                          "id" : 2984,
                          "_type" : "UnifiedMedia",
                          "video" : 
                              {
                                "id" : 2985,
                                "_type" : "ScreenVMFile",
                                "src" : 3,
                                "trackNumber" : 0,
                                "attributes" : {
                                  "ident" : "Rec 01-28-21_003"
                                },
                                "parameters" : {
                                  "cursorScale" : {
                                    "type" : "double",
                                    "defaultValue" : 0.0,
                                    "interp" : "linr"
                                  },
                                  "cursorOpacity" : {
                                    "type" : "double",
                                    "defaultValue" : 0.0,
                                    "interp" : "linr"
                                  }
                                },
                                "effects" : [

                                ],
                                "start" : 20630,
                                "duration" : 498,
                                "mediaStart" : 20828,
                                "mediaDuration" : 498,
                                "scalar" : 1,
                                "animationTracks" : {

                                }
                              },
                          "audio" : 
                              {
                                "id" : 2986,
                                "_type" : "AMFile",
                                "src" : 3,
                                "trackNumber" : 1,
                                "attributes" : {
                                  "ident" : "",
                                  "gain" : 1.0,
                                  "mixToMono" : false
                                },
                                  "channelNumber" : "0,1",
                                "effects" : [

                                ],
                                "start" : 20630,
                                "duration" : 498,
                                "mediaStart" : 20828,
                                "mediaDuration" : 498,
                                "scalar" : 1,
                                "animationTracks" : {

                                }
                              }
,
                          "start" : 20630,
                          "duration" : 498,
                          "mediaStart" : 0,
                          "mediaDuration" : 23566,
                          "scalar" : 1,
                          "metadata" : {
                            "AutoAppliedSmartFocus" : "False",
                            "clipSpeedAttribute" : false
                          }
                        },
                        {
                          "id" : 2987,
                          "_type" : "UnifiedMedia",
                          "video" : 
                              {
                                "id" : 2988,
                                "_type" : "ScreenVMFile",
                                "src" : 3,
                                "trackNumber" : 0,
                                "attributes" : {
                                  "ident" : "Rec 01-28-21_003"
                                },
                                "parameters" : {
                                  "cursorScale" : {
                                    "type" : "double",
                                    "defaultValue" : 0.0,
                                    "interp" : "linr"
                                  },
                                  "cursorOpacity" : {
                                    "type" : "double",
                                    "defaultValue" : 0.0,
                                    "interp" : "linr"
                                  }
                                },
                                "effects" : [

                                ],
                                "start" : 21128,
                                "duration" : 121,
                                "mediaStart" : 21452,
                                "mediaDuration" : 121,
                                "scalar" : 1,
                                "animationTracks" : {

                                }
                              },
                          "audio" : 
                              {
                                "id" : 2989,
                                "_type" : "AMFile",
                                "src" : 3,
                                "trackNumber" : 1,
                                "attributes" : {
                                  "ident" : "",
                                  "gain" : 1.0,
                                  "mixToMono" : false
                                },
                                  "channelNumber" : "0,1",
                                "effects" : [

                                ],
                                "start" : 21128,
                                "duration" : 121,
                                "mediaStart" : 21452,
                                "mediaDuration" : 121,
                                "scalar" : 1,
                                "animationTracks" : {

                                }
                              }
,
                          "start" : 21128,
                          "duration" : 121,
                          "mediaStart" : 0,
                          "mediaDuration" : 23566,
                          "scalar" : 1,
                          "metadata" : {
                            "AutoAppliedSmartFocus" : "False",
                            "clipSpeedAttribute" : false
                          }
                        },
                        {
                          "id" : 2990,
                          "_type" : "UnifiedMedia",
                          "video" : 
                              {
                                "id" : 2991,
                                "_type" : "ScreenVMFile",
                                "src" : 3,
                                "trackNumber" : 0,
                                "attributes" : {
                                  "ident" : "Rec 01-28-21_003"
                                },
                                "parameters" : {
                                  "cursorScale" : {
                                    "type" : "double",
                                    "defaultValue" : 0.0,
                                    "interp" : "linr"
                                  },
                                  "cursorOpacity" : {
                                    "type" : "double",
                                    "defaultValue" : 0.0,
                                    "interp" : "linr"
                                  }
                                },
                                "effects" : [

                                ],
                                "start" : 21249,
                                "duration" : 74,
                                "mediaStart" : 21595,
                                "mediaDuration" : 74,
                                "scalar" : 1,
                                "animationTracks" : {

                                }
                              },
                          "audio" : 
                              {
                                "id" : 2992,
                                "_type" : "AMFile",
                                "src" : 3,
                                "trackNumber" : 1,
                                "attributes" : {
                                  "ident" : "",
                                  "gain" : 1.0,
                                  "mixToMono" : false
                                },
                                  "channelNumber" : "0,1",
                                "effects" : [

                                ],
                                "start" : 21249,
                                "duration" : 74,
                                "mediaStart" : 21595,
                                "mediaDuration" : 74,
                                "scalar" : 1,
                                "animationTracks" : {

                                }
                              }
,
                          "start" : 21249,
                          "duration" : 74,
                          "mediaStart" : 0,
                          "mediaDuration" : 23566,
                          "scalar" : 1,
                          "metadata" : {
                            "AutoAppliedSmartFocus" : "False",
                            "clipSpeedAttribute" : false
                          }
                        },
                        {
                          "id" : 2993,
                          "_type" : "UnifiedMedia",
                          "video" : 
                              {
                                "id" : 2994,
                                "_type" : "ScreenVMFile",
                                "src" : 3,
                                "trackNumber" : 0,
                                "attributes" : {
                                  "ident" : "Rec 01-28-21_003"
                                },
                                "parameters" : {
                                  "cursorScale" : {
                                    "type" : "double",
                                    "defaultValue" : 0.0,
                                    "interp" : "linr"
                                  },
                                  "cursorOpacity" : {
                                    "type" : "double",
                                    "defaultValue" : 0.0,
                                    "interp" : "linr"
                                  }
                                },
                                "effects" : [

                                ],
                                "start" : 21323,
                                "duration" : 268,
                                "mediaStart" : 21755,
                                "mediaDuration" : 268,
                                "scalar" : 1,
                                "animationTracks" : {

                                }
                              },
                          "audio" : 
                              {
                                "id" : 2995,
                                "_type" : "AMFile",
                                "src" : 3,
                                "trackNumber" : 1,
                                "attributes" : {
                                  "ident" : "",
                                  "gain" : 1.0,
                                  "mixToMono" : false
                                },
                                  "channelNumber" : "0,1",
                                "effects" : [

                                ],
                                "start" : 21323,
                                "duration" : 268,
                                "mediaStart" : 21755,
                                "mediaDuration" : 268,
                                "scalar" : 1,
                                "animationTracks" : {

                                }
                              }
,
                          "start" : 21323,
                          "duration" : 268,
                          "mediaStart" : 0,
                          "mediaDuration" : 23566,
                          "scalar" : 1,
                          "metadata" : {
                            "AutoAppliedSmartFocus" : "False",
                            "clipSpeedAttribute" : false
                          }
                        },
                        {
                          "id" : 2996,
                          "_type" : "UnifiedMedia",
                          "video" : 
                              {
                                "id" : 2997,
                                "_type" : "ScreenVMFile",
                                "src" : 3,
                                "trackNumber" : 0,
                                "attributes" : {
                                  "ident" : "Rec 01-28-21_003"
                                },
                                "parameters" : {
                                  "cursorScale" : {
                                    "type" : "double",
                                    "defaultValue" : 0.0,
                                    "interp" : "linr"
                                  },
                                  "cursorOpacity" : {
                                    "type" : "double",
                                    "defaultValue" : 0.0,
                                    "interp" : "linr"
                                  }
                                },
                                "effects" : [

                                ],
                                "start" : 21591,
                                "duration" : 1435,
                                "mediaStart" : 22131,
                                "mediaDuration" : 1435,
                                "scalar" : 1,
                                "animationTracks" : {

                                }
                              },
                          "audio" : 
                              {
                                "id" : 2998,
                                "_type" : "AMFile",
                                "src" : 3,
                                "trackNumber" : 1,
                                "attributes" : {
                                  "ident" : "",
                                  "gain" : 1.0,
                                  "mixToMono" : false
                                },
                                  "channelNumber" : "0,1",
                                "effects" : [

                                ],
                                "start" : 21591,
                                "duration" : 1435,
                                "mediaStart" : 22131,
                                "mediaDuration" : 1435,
                                "scalar" : 1,
                                "animationTracks" : {

                                }
                              }
,
                          "start" : 21591,
                          "duration" : 1435,
                          "mediaStart" : 0,
                          "mediaDuration" : 23566,
                          "scalar" : 1,
                          "metadata" : {
                            "AutoAppliedSmartFocus" : "False",
                            "clipSpeedAttribute" : false
                          }
                        }
                    ],
                    "effects" : [

                    ],
                    "start" : 18797,
                    "duration" : 303,
                    "mediaStart" : 21469,
                    "mediaDuration" : 303,
                    "scalar" : 1,
                    "metadata" : {
                      "AutoAppliedSmartFocus" : "False",
                      "clipSpeedAttribute" : false
                    },
                    "animationTracks" : {

                    }
                  },
                  {
                    "id" : 2999,
                    "_type" : "Group",
                    "parameters" : {
                      "volume" : 1.0
                    },
                    "tracks" : [
                      {
                        "trackIndex" : 0,
                        "medias" : [
                          {
                            "id" : 3000,
                            "_type" : "StitchedMedia",
                            "minMediaStart" : 0,
                            "attributes" : {
                              "ident" : "Rec 01-28-21_003",
                              "gain" : 1.0,
                              "mixToMono" : false
                            },
                            "parameters" : {
                              "cursorOpacity" : 1.0,
                              "cursorScale" : 1.0
                            },
                            "medias" : [
                                {
                                  "id" : 3001,
                                  "_type" : "ScreenVMFile",
                                  "src" : 3,
                                  "trackNumber" : 0,
                                  "attributes" : {
                                    "ident" : "Rec 01-28-21_003"
                                  },
                                  "parameters" : {
                                    "cursorScale" : {
                                      "type" : "double",
                                      "defaultValue" : 0.0,
                                      "interp" : "linr"
                                    },
                                    "cursorOpacity" : {
                                      "type" : "double",
                                      "defaultValue" : 0.0,
                                      "interp" : "linr"
                                    }
                                  },
                                  "effects" : [

                                  ],
                                  "start" : 0,
                                  "duration" : 20277,
                                  "mediaStart" : 0,
                                  "mediaDuration" : 20277,
                                  "scalar" : 1,
                                  "metadata" : {
                                    "AutoAppliedSmartFocus" : "False"
                                  },
                                  "animationTracks" : {

                                  }
                                },
                                {
                                  "id" : 3002,
                                  "_type" : "ScreenVMFile",
                                  "src" : 3,
                                  "trackNumber" : 0,
                                  "attributes" : {
                                    "ident" : "Rec 01-28-21_003"
                                  },
                                  "parameters" : {
                                    "cursorScale" : {
                                      "type" : "double",
                                      "defaultValue" : 0.0,
                                      "interp" : "linr"
                                    },
                                    "cursorOpacity" : {
                                      "type" : "double",
                                      "defaultValue" : 0.0,
                                      "interp" : "linr"
                                    }
                                  },
                                  "effects" : [

                                  ],
                                  "start" : 20277,
                                  "duration" : 50,
                                  "mediaStart" : 20343,
                                  "mediaDuration" : 50,
                                  "scalar" : 1,
                                  "metadata" : {
                                    "AutoAppliedSmartFocus" : "False"
                                  },
                                  "animationTracks" : {

                                  }
                                },
                                {
                                  "id" : 3003,
                                  "_type" : "ScreenVMFile",
                                  "src" : 3,
                                  "trackNumber" : 0,
                                  "attributes" : {
                                    "ident" : "Rec 01-28-21_003"
                                  },
                                  "parameters" : {
                                    "cursorScale" : {
                                      "type" : "double",
                                      "defaultValue" : 0.0,
                                      "interp" : "linr"
                                    },
                                    "cursorOpacity" : {
                                      "type" : "double",
                                      "defaultValue" : 0.0,
                                      "interp" : "linr"
                                    }
                                  },
                                  "effects" : [

                                  ],
                                  "start" : 20327,
                                  "duration" : 206,
                                  "mediaStart" : 20431,
                                  "mediaDuration" : 206,
                                  "scalar" : 1,
                                  "metadata" : {
                                    "AutoAppliedSmartFocus" : "False"
                                  },
                                  "animationTracks" : {

                                  }
                                },
                                {
                                  "id" : 3004,
                                  "_type" : "ScreenVMFile",
                                  "src" : 3,
                                  "trackNumber" : 0,
                                  "attributes" : {
                                    "ident" : "Rec 01-28-21_003"
                                  },
                                  "parameters" : {
                                    "cursorScale" : {
                                      "type" : "double",
                                      "defaultValue" : 0.0,
                                      "interp" : "linr"
                                    },
                                    "cursorOpacity" : {
                                      "type" : "double",
                                      "defaultValue" : 0.0,
                                      "interp" : "linr"
                                    }
                                  },
                                  "effects" : [

                                  ],
                                  "start" : 20533,
                                  "duration" : 67,
                                  "mediaStart" : 20653,
                                  "mediaDuration" : 67,
                                  "scalar" : 1,
                                  "metadata" : {
                                    "AutoAppliedSmartFocus" : "False"
                                  },
                                  "animationTracks" : {

                                  }
                                },
                                {
                                  "id" : 3005,
                                  "_type" : "ScreenVMFile",
                                  "src" : 3,
                                  "trackNumber" : 0,
                                  "attributes" : {
                                    "ident" : "Rec 01-28-21_003"
                                  },
                                  "parameters" : {
                                    "cursorScale" : {
                                      "type" : "double",
                                      "defaultValue" : 0.0,
                                      "interp" : "linr"
                                    },
                                    "cursorOpacity" : {
                                      "type" : "double",
                                      "defaultValue" : 0.0,
                                      "interp" : "linr"
                                    }
                                  },
                                  "effects" : [

                                  ],
                                  "start" : 20600,
                                  "duration" : 30,
                                  "mediaStart" : 20766,
                                  "mediaDuration" : 30,
                                  "scalar" : 1,
                                  "metadata" : {
                                    "AutoAppliedSmartFocus" : "False"
                                  },
                                  "animationTracks" : {

                                  }
                                },
                                {
                                  "id" : 3006,
                                  "_type" : "ScreenVMFile",
                                  "src" : 3,
                                  "trackNumber" : 0,
                                  "attributes" : {
                                    "ident" : "Rec 01-28-21_003"
                                  },
                                  "parameters" : {
                                    "cursorScale" : {
                                      "type" : "double",
                                      "defaultValue" : 0.0,
                                      "interp" : "linr"
                                    },
                                    "cursorOpacity" : {
                                      "type" : "double",
                                      "defaultValue" : 0.0,
                                      "interp" : "linr"
                                    }
                                  },
                                  "effects" : [

                                  ],
                                  "start" : 20630,
                                  "duration" : 498,
                                  "mediaStart" : 20828,
                                  "mediaDuration" : 498,
                                  "scalar" : 1,
                                  "metadata" : {
                                    "AutoAppliedSmartFocus" : "False"
                                  },
                                  "animationTracks" : {

                                  }
                                },
                                {
                                  "id" : 3007,
                                  "_type" : "ScreenVMFile",
                                  "src" : 3,
                                  "trackNumber" : 0,
                                  "attributes" : {
                                    "ident" : "Rec 01-28-21_003"
                                  },
                                  "parameters" : {
                                    "cursorScale" : {
                                      "type" : "double",
                                      "defaultValue" : 0.0,
                                      "interp" : "linr"
                                    },
                                    "cursorOpacity" : {
                                      "type" : "double",
                                      "defaultValue" : 0.0,
                                      "interp" : "linr"
                                    }
                                  },
                                  "effects" : [

                                  ],
                                  "start" : 21128,
                                  "duration" : 121,
                                  "mediaStart" : 21452,
                                  "mediaDuration" : 121,
                                  "scalar" : 1,
                                  "metadata" : {
                                    "AutoAppliedSmartFocus" : "False"
                                  },
                                  "animationTracks" : {

                                  }
                                },
                                {
                                  "id" : 3008,
                                  "_type" : "ScreenVMFile",
                                  "src" : 3,
                                  "trackNumber" : 0,
                                  "attributes" : {
                                    "ident" : "Rec 01-28-21_003"
                                  },
                                  "parameters" : {
                                    "cursorScale" : {
                                      "type" : "double",
                                      "defaultValue" : 0.0,
                                      "interp" : "linr"
                                    },
                                    "cursorOpacity" : {
                                      "type" : "double",
                                      "defaultValue" : 0.0,
                                      "interp" : "linr"
                                    }
                                  },
                                  "effects" : [

                                  ],
                                  "start" : 21249,
                                  "duration" : 74,
                                  "mediaStart" : 21595,
                                  "mediaDuration" : 74,
                                  "scalar" : 1,
                                  "metadata" : {
                                    "AutoAppliedSmartFocus" : "False"
                                  },
                                  "animationTracks" : {

                                  }
                                },
                                {
                                  "id" : 3009,
                                  "_type" : "ScreenVMFile",
                                  "src" : 3,
                                  "trackNumber" : 0,
                                  "attributes" : {
                                    "ident" : "Rec 01-28-21_003"
                                  },
                                  "parameters" : {
                                    "cursorScale" : {
                                      "type" : "double",
                                      "defaultValue" : 0.0,
                                      "interp" : "linr"
                                    },
                                    "cursorOpacity" : {
                                      "type" : "double",
                                      "defaultValue" : 0.0,
                                      "interp" : "linr"
                                    }
                                  },
                                  "effects" : [

                                  ],
                                  "start" : 21323,
                                  "duration" : 268,
                                  "mediaStart" : 21755,
                                  "mediaDuration" : 268,
                                  "scalar" : 1,
                                  "metadata" : {
                                    "AutoAppliedSmartFocus" : "False"
                                  },
                                  "animationTracks" : {

                                  }
                                },
                                {
                                  "id" : 3010,
                                  "_type" : "ScreenVMFile",
                                  "src" : 3,
                                  "trackNumber" : 0,
                                  "attributes" : {
                                    "ident" : "Rec 01-28-21_003"
                                  },
                                  "parameters" : {
                                    "cursorScale" : {
                                      "type" : "double",
                                      "defaultValue" : 0.0,
                                      "interp" : "linr"
                                    },
                                    "cursorOpacity" : {
                                      "type" : "double",
                                      "defaultValue" : 0.0,
                                      "interp" : "linr"
                                    }
                                  },
                                  "effects" : [

                                  ],
                                  "start" : 21591,
                                  "duration" : 1190,
                                  "mediaStart" : 22131,
                                  "mediaDuration" : 1190,
                                  "scalar" : 1,
                                  "metadata" : {
                                    "AutoAppliedSmartFocus" : "False"
                                  },
                                  "animationTracks" : {

                                  }
                                },
                                {
                                  "id" : 3011,
                                  "_type" : "ScreenVMFile",
                                  "src" : 3,
                                  "trackNumber" : 0,
                                  "attributes" : {
                                    "ident" : "Rec 01-28-21_003"
                                  },
                                  "parameters" : {
                                    "cursorScale" : {
                                      "type" : "double",
                                      "defaultValue" : 0.0,
                                      "interp" : "linr"
                                    },
                                    "cursorOpacity" : {
                                      "type" : "double",
                                      "defaultValue" : 0.0,
                                      "interp" : "linr"
                                    }
                                  },
                                  "effects" : [

                                  ],
                                  "start" : 22781,
                                  "duration" : 166,
                                  "mediaStart" : 23400,
                                  "mediaDuration" : 166,
                                  "scalar" : 1,
                                  "metadata" : {
                                    "AutoAppliedSmartFocus" : "False"
                                  },
                                  "animationTracks" : {

                                  }
                                }
                            ],
                            "effects" : [

                            ],
                            "start" : 0,
                            "duration" : 150,
                            "mediaStart" : 22521,
                            "mediaDuration" : 150,
                            "scalar" : 1,
                            "metadata" : {
                              "AutoAppliedSmartFocus" : "False",
                              "clipSpeedAttribute" : false
                            },
                            "animationTracks" : {

                            }
                          }
                        ],
                          "ident" : "",
                          "audioMuted" : false,
                          "videoHidden" : false,
                          "magnetic" : false,
                          "matte" : 0,
                          "metadata" : {
                            "IsLocked" : "False",
                            "WinTrackHeight" : "0"
                          }
                      },
                      {
                        "trackIndex" : 1,
                        "medias" : [
                          {
                            "id" : 3012,
                            "_type" : "AMFile",
                            "src" : 28,
                            "trackNumber" : 0,
                            "attributes" : {
                              "ident" : "Narration_3-3 Kubernetes-Deployment 25",
                              "gain" : 1.0,
                              "mixToMono" : false
                            },
                              "channelNumber" : "0,1",
                            "effects" : [

                            ],
                            "start" : 0,
                            "duration" : 150,
                            "mediaStart" : 0,
                            "mediaDuration" : 150,
                            "scalar" : 1,
                            "metadata" : {
                              "clipSpeedAttribute" : false
                            },
                            "animationTracks" : {

                            }
                          }
                        ],
                          "ident" : "",
                          "audioMuted" : false,
                          "videoHidden" : false,
                          "magnetic" : false,
                          "matte" : 0,
                          "metadata" : {
                            "IsLocked" : "False",
                            "WinTrackHeight" : "2.73433861197043e-312"
                          }
                      }
                    ],
                    "attributes" : {
                      "ident" : "Group 9",
                      "gain" : 1.0,
                      "mixToMono" : false
                    },
                    "effects" : [

                    ],
                    "start" : 19100,
                    "duration" : 150,
                    "mediaStart" : 0.0,
                    "mediaDuration" : 150.0,
                    "scalar" : 1,
                    "metadata" : {
                      "IsGroupExpanded" : "False"
                    },
                    "animationTracks" : {

                    }
                  },
                  {
                    "id" : 3013,
                    "_type" : "StitchedMedia",
                    "minMediaStart" : 0,
                    "attributes" : {
                      "ident" : "Rec 01-28-21_003",
                      "gain" : 1.0,
                      "mixToMono" : false
                    },
                    "parameters" : {
                      "volume" : 1.0,
                      "cursorOpacity" : 1.0,
                      "cursorScale" : 1.0
                    },
                    "medias" : [
                        {
                          "id" : 3014,
                          "_type" : "UnifiedMedia",
                          "video" : 
                              {
                                "id" : 3015,
                                "_type" : "ScreenVMFile",
                                "src" : 3,
                                "trackNumber" : 0,
                                "attributes" : {
                                  "ident" : "Rec 01-28-21_003"
                                },
                                "parameters" : {
                                  "cursorScale" : {
                                    "type" : "double",
                                    "defaultValue" : 0.0,
                                    "interp" : "linr"
                                  },
                                  "cursorOpacity" : {
                                    "type" : "double",
                                    "defaultValue" : 0.0,
                                    "interp" : "linr"
                                  }
                                },
                                "effects" : [

                                ],
                                "start" : 0,
                                "duration" : 20277,
                                "mediaStart" : 0,
                                "mediaDuration" : 20277,
                                "scalar" : 1,
                                "animationTracks" : {

                                }
                              },
                          "audio" : 
                              {
                                "id" : 3016,
                                "_type" : "AMFile",
                                "src" : 3,
                                "trackNumber" : 1,
                                "attributes" : {
                                  "ident" : "",
                                  "gain" : 1.0,
                                  "mixToMono" : false
                                },
                                  "channelNumber" : "0,1",
                                "effects" : [

                                ],
                                "start" : 0,
                                "duration" : 20277,
                                "mediaStart" : 0,
                                "mediaDuration" : 20277,
                                "scalar" : 1,
                                "animationTracks" : {

                                }
                              }
,
                          "start" : 0,
                          "duration" : 20277,
                          "mediaStart" : 0,
                          "mediaDuration" : 23566,
                          "scalar" : 1,
                          "metadata" : {
                            "AutoAppliedSmartFocus" : "False",
                            "clipSpeedAttribute" : false
                          }
                        },
                        {
                          "id" : 3017,
                          "_type" : "UnifiedMedia",
                          "video" : 
                              {
                                "id" : 3018,
                                "_type" : "ScreenVMFile",
                                "src" : 3,
                                "trackNumber" : 0,
                                "attributes" : {
                                  "ident" : "Rec 01-28-21_003"
                                },
                                "parameters" : {
                                  "cursorScale" : {
                                    "type" : "double",
                                    "defaultValue" : 0.0,
                                    "interp" : "linr"
                                  },
                                  "cursorOpacity" : {
                                    "type" : "double",
                                    "defaultValue" : 0.0,
                                    "interp" : "linr"
                                  }
                                },
                                "effects" : [

                                ],
                                "start" : 20277,
                                "duration" : 50,
                                "mediaStart" : 20343,
                                "mediaDuration" : 50,
                                "scalar" : 1,
                                "animationTracks" : {

                                }
                              },
                          "audio" : 
                              {
                                "id" : 3019,
                                "_type" : "AMFile",
                                "src" : 3,
                                "trackNumber" : 1,
                                "attributes" : {
                                  "ident" : "",
                                  "gain" : 1.0,
                                  "mixToMono" : false
                                },
                                  "channelNumber" : "0,1",
                                "effects" : [

                                ],
                                "start" : 20277,
                                "duration" : 50,
                                "mediaStart" : 20343,
                                "mediaDuration" : 50,
                                "scalar" : 1,
                                "animationTracks" : {

                                }
                              }
,
                          "start" : 20277,
                          "duration" : 50,
                          "mediaStart" : 0,
                          "mediaDuration" : 23566,
                          "scalar" : 1,
                          "metadata" : {
                            "AutoAppliedSmartFocus" : "False",
                            "clipSpeedAttribute" : false
                          }
                        },
                        {
                          "id" : 3020,
                          "_type" : "UnifiedMedia",
                          "video" : 
                              {
                                "id" : 3021,
                                "_type" : "ScreenVMFile",
                                "src" : 3,
                                "trackNumber" : 0,
                                "attributes" : {
                                  "ident" : "Rec 01-28-21_003"
                                },
                                "parameters" : {
                                  "cursorScale" : {
                                    "type" : "double",
                                    "defaultValue" : 0.0,
                                    "interp" : "linr"
                                  },
                                  "cursorOpacity" : {
                                    "type" : "double",
                                    "defaultValue" : 0.0,
                                    "interp" : "linr"
                                  }
                                },
                                "effects" : [

                                ],
                                "start" : 20327,
                                "duration" : 206,
                                "mediaStart" : 20431,
                                "mediaDuration" : 206,
                                "scalar" : 1,
                                "animationTracks" : {

                                }
                              },
                          "audio" : 
                              {
                                "id" : 3022,
                                "_type" : "AMFile",
                                "src" : 3,
                                "trackNumber" : 1,
                                "attributes" : {
                                  "ident" : "",
                                  "gain" : 1.0,
                                  "mixToMono" : false
                                },
                                  "channelNumber" : "0,1",
                                "effects" : [

                                ],
                                "start" : 20327,
                                "duration" : 206,
                                "mediaStart" : 20431,
                                "mediaDuration" : 206,
                                "scalar" : 1,
                                "animationTracks" : {

                                }
                              }
,
                          "start" : 20327,
                          "duration" : 206,
                          "mediaStart" : 0,
                          "mediaDuration" : 23566,
                          "scalar" : 1,
                          "metadata" : {
                            "AutoAppliedSmartFocus" : "False",
                            "clipSpeedAttribute" : false
                          }
                        },
                        {
                          "id" : 3023,
                          "_type" : "UnifiedMedia",
                          "video" : 
                              {
                                "id" : 3024,
                                "_type" : "ScreenVMFile",
                                "src" : 3,
                                "trackNumber" : 0,
                                "attributes" : {
                                  "ident" : "Rec 01-28-21_003"
                                },
                                "parameters" : {
                                  "cursorScale" : {
                                    "type" : "double",
                                    "defaultValue" : 0.0,
                                    "interp" : "linr"
                                  },
                                  "cursorOpacity" : {
                                    "type" : "double",
                                    "defaultValue" : 0.0,
                                    "interp" : "linr"
                                  }
                                },
                                "effects" : [

                                ],
                                "start" : 20533,
                                "duration" : 67,
                                "mediaStart" : 20653,
                                "mediaDuration" : 67,
                                "scalar" : 1,
                                "animationTracks" : {

                                }
                              },
                          "audio" : 
                              {
                                "id" : 3025,
                                "_type" : "AMFile",
                                "src" : 3,
                                "trackNumber" : 1,
                                "attributes" : {
                                  "ident" : "",
                                  "gain" : 1.0,
                                  "mixToMono" : false
                                },
                                  "channelNumber" : "0,1",
                                "effects" : [

                                ],
                                "start" : 20533,
                                "duration" : 67,
                                "mediaStart" : 20653,
                                "mediaDuration" : 67,
                                "scalar" : 1,
                                "animationTracks" : {

                                }
                              }
,
                          "start" : 20533,
                          "duration" : 67,
                          "mediaStart" : 0,
                          "mediaDuration" : 23566,
                          "scalar" : 1,
                          "metadata" : {
                            "AutoAppliedSmartFocus" : "False",
                            "clipSpeedAttribute" : false
                          }
                        },
                        {
                          "id" : 3026,
                          "_type" : "UnifiedMedia",
                          "video" : 
                              {
                                "id" : 3027,
                                "_type" : "ScreenVMFile",
                                "src" : 3,
                                "trackNumber" : 0,
                                "attributes" : {
                                  "ident" : "Rec 01-28-21_003"
                                },
                                "parameters" : {
                                  "cursorScale" : {
                                    "type" : "double",
                                    "defaultValue" : 0.0,
                                    "interp" : "linr"
                                  },
                                  "cursorOpacity" : {
                                    "type" : "double",
                                    "defaultValue" : 0.0,
                                    "interp" : "linr"
                                  }
                                },
                                "effects" : [

                                ],
                                "start" : 20600,
                                "duration" : 30,
                                "mediaStart" : 20766,
                                "mediaDuration" : 30,
                                "scalar" : 1,
                                "animationTracks" : {

                                }
                              },
                          "audio" : 
                              {
                                "id" : 3028,
                                "_type" : "AMFile",
                                "src" : 3,
                                "trackNumber" : 1,
                                "attributes" : {
                                  "ident" : "",
                                  "gain" : 1.0,
                                  "mixToMono" : false
                                },
                                  "channelNumber" : "0,1",
                                "effects" : [

                                ],
                                "start" : 20600,
                                "duration" : 30,
                                "mediaStart" : 20766,
                                "mediaDuration" : 30,
                                "scalar" : 1,
                                "animationTracks" : {

                                }
                              }
,
                          "start" : 20600,
                          "duration" : 30,
                          "mediaStart" : 0,
                          "mediaDuration" : 23566,
                          "scalar" : 1,
                          "metadata" : {
                            "AutoAppliedSmartFocus" : "False",
                            "clipSpeedAttribute" : false
                          }
                        },
                        {
                          "id" : 3029,
                          "_type" : "UnifiedMedia",
                          "video" : 
                              {
                                "id" : 3030,
                                "_type" : "ScreenVMFile",
                                "src" : 3,
                                "trackNumber" : 0,
                                "attributes" : {
                                  "ident" : "Rec 01-28-21_003"
                                },
                                "parameters" : {
                                  "cursorScale" : {
                                    "type" : "double",
                                    "defaultValue" : 0.0,
                                    "interp" : "linr"
                                  },
                                  "cursorOpacity" : {
                                    "type" : "double",
                                    "defaultValue" : 0.0,
                                    "interp" : "linr"
                                  }
                                },
                                "effects" : [

                                ],
                                "start" : 20630,
                                "duration" : 498,
                                "mediaStart" : 20828,
                                "mediaDuration" : 498,
                                "scalar" : 1,
                                "animationTracks" : {

                                }
                              },
                          "audio" : 
                              {
                                "id" : 3031,
                                "_type" : "AMFile",
                                "src" : 3,
                                "trackNumber" : 1,
                                "attributes" : {
                                  "ident" : "",
                                  "gain" : 1.0,
                                  "mixToMono" : false
                                },
                                  "channelNumber" : "0,1",
                                "effects" : [

                                ],
                                "start" : 20630,
                                "duration" : 498,
                                "mediaStart" : 20828,
                                "mediaDuration" : 498,
                                "scalar" : 1,
                                "animationTracks" : {

                                }
                              }
,
                          "start" : 20630,
                          "duration" : 498,
                          "mediaStart" : 0,
                          "mediaDuration" : 23566,
                          "scalar" : 1,
                          "metadata" : {
                            "AutoAppliedSmartFocus" : "False",
                            "clipSpeedAttribute" : false
                          }
                        },
                        {
                          "id" : 3032,
                          "_type" : "UnifiedMedia",
                          "video" : 
                              {
                                "id" : 3033,
                                "_type" : "ScreenVMFile",
                                "src" : 3,
                                "trackNumber" : 0,
                                "attributes" : {
                                  "ident" : "Rec 01-28-21_003"
                                },
                                "parameters" : {
                                  "cursorScale" : {
                                    "type" : "double",
                                    "defaultValue" : 0.0,
                                    "interp" : "linr"
                                  },
                                  "cursorOpacity" : {
                                    "type" : "double",
                                    "defaultValue" : 0.0,
                                    "interp" : "linr"
                                  }
                                },
                                "effects" : [

                                ],
                                "start" : 21128,
                                "duration" : 121,
                                "mediaStart" : 21452,
                                "mediaDuration" : 121,
                                "scalar" : 1,
                                "animationTracks" : {

                                }
                              },
                          "audio" : 
                              {
                                "id" : 3034,
                                "_type" : "AMFile",
                                "src" : 3,
                                "trackNumber" : 1,
                                "attributes" : {
                                  "ident" : "",
                                  "gain" : 1.0,
                                  "mixToMono" : false
                                },
                                  "channelNumber" : "0,1",
                                "effects" : [

                                ],
                                "start" : 21128,
                                "duration" : 121,
                                "mediaStart" : 21452,
                                "mediaDuration" : 121,
                                "scalar" : 1,
                                "animationTracks" : {

                                }
                              }
,
                          "start" : 21128,
                          "duration" : 121,
                          "mediaStart" : 0,
                          "mediaDuration" : 23566,
                          "scalar" : 1,
                          "metadata" : {
                            "AutoAppliedSmartFocus" : "False",
                            "clipSpeedAttribute" : false
                          }
                        },
                        {
                          "id" : 3035,
                          "_type" : "UnifiedMedia",
                          "video" : 
                              {
                                "id" : 3036,
                                "_type" : "ScreenVMFile",
                                "src" : 3,
                                "trackNumber" : 0,
                                "attributes" : {
                                  "ident" : "Rec 01-28-21_003"
                                },
                                "parameters" : {
                                  "cursorScale" : {
                                    "type" : "double",
                                    "defaultValue" : 0.0,
                                    "interp" : "linr"
                                  },
                                  "cursorOpacity" : {
                                    "type" : "double",
                                    "defaultValue" : 0.0,
                                    "interp" : "linr"
                                  }
                                },
                                "effects" : [

                                ],
                                "start" : 21249,
                                "duration" : 74,
                                "mediaStart" : 21595,
                                "mediaDuration" : 74,
                                "scalar" : 1,
                                "animationTracks" : {

                                }
                              },
                          "audio" : 
                              {
                                "id" : 3037,
                                "_type" : "AMFile",
                                "src" : 3,
                                "trackNumber" : 1,
                                "attributes" : {
                                  "ident" : "",
                                  "gain" : 1.0,
                                  "mixToMono" : false
                                },
                                  "channelNumber" : "0,1",
                                "effects" : [

                                ],
                                "start" : 21249,
                                "duration" : 74,
                                "mediaStart" : 21595,
                                "mediaDuration" : 74,
                                "scalar" : 1,
                                "animationTracks" : {

                                }
                              }
,
                          "start" : 21249,
                          "duration" : 74,
                          "mediaStart" : 0,
                          "mediaDuration" : 23566,
                          "scalar" : 1,
                          "metadata" : {
                            "AutoAppliedSmartFocus" : "False",
                            "clipSpeedAttribute" : false
                          }
                        },
                        {
                          "id" : 3038,
                          "_type" : "UnifiedMedia",
                          "video" : 
                              {
                                "id" : 3039,
                                "_type" : "ScreenVMFile",
                                "src" : 3,
                                "trackNumber" : 0,
                                "attributes" : {
                                  "ident" : "Rec 01-28-21_003"
                                },
                                "parameters" : {
                                  "cursorScale" : {
                                    "type" : "double",
                                    "defaultValue" : 0.0,
                                    "interp" : "linr"
                                  },
                                  "cursorOpacity" : {
                                    "type" : "double",
                                    "defaultValue" : 0.0,
                                    "interp" : "linr"
                                  }
                                },
                                "effects" : [

                                ],
                                "start" : 21323,
                                "duration" : 268,
                                "mediaStart" : 21755,
                                "mediaDuration" : 268,
                                "scalar" : 1,
                                "animationTracks" : {

                                }
                              },
                          "audio" : 
                              {
                                "id" : 3040,
                                "_type" : "AMFile",
                                "src" : 3,
                                "trackNumber" : 1,
                                "attributes" : {
                                  "ident" : "",
                                  "gain" : 1.0,
                                  "mixToMono" : false
                                },
                                  "channelNumber" : "0,1",
                                "effects" : [

                                ],
                                "start" : 21323,
                                "duration" : 268,
                                "mediaStart" : 21755,
                                "mediaDuration" : 268,
                                "scalar" : 1,
                                "animationTracks" : {

                                }
                              }
,
                          "start" : 21323,
                          "duration" : 268,
                          "mediaStart" : 0,
                          "mediaDuration" : 23566,
                          "scalar" : 1,
                          "metadata" : {
                            "AutoAppliedSmartFocus" : "False",
                            "clipSpeedAttribute" : false
                          }
                        },
                        {
                          "id" : 3041,
                          "_type" : "UnifiedMedia",
                          "video" : 
                              {
                                "id" : 3042,
                                "_type" : "ScreenVMFile",
                                "src" : 3,
                                "trackNumber" : 0,
                                "attributes" : {
                                  "ident" : "Rec 01-28-21_003"
                                },
                                "parameters" : {
                                  "cursorScale" : {
                                    "type" : "double",
                                    "defaultValue" : 0.0,
                                    "interp" : "linr"
                                  },
                                  "cursorOpacity" : {
                                    "type" : "double",
                                    "defaultValue" : 0.0,
                                    "interp" : "linr"
                                  }
                                },
                                "effects" : [

                                ],
                                "start" : 21591,
                                "duration" : 1190,
                                "mediaStart" : 22131,
                                "mediaDuration" : 1190,
                                "scalar" : 1,
                                "animationTracks" : {

                                }
                              },
                          "audio" : 
                              {
                                "id" : 3043,
                                "_type" : "AMFile",
                                "src" : 3,
                                "trackNumber" : 1,
                                "attributes" : {
                                  "ident" : "",
                                  "gain" : 1.0,
                                  "mixToMono" : false
                                },
                                  "channelNumber" : "0,1",
                                "effects" : [

                                ],
                                "start" : 21591,
                                "duration" : 1190,
                                "mediaStart" : 22131,
                                "mediaDuration" : 1190,
                                "scalar" : 1,
                                "animationTracks" : {

                                }
                              }
,
                          "start" : 21591,
                          "duration" : 1190,
                          "mediaStart" : 0,
                          "mediaDuration" : 23566,
                          "scalar" : 1,
                          "metadata" : {
                            "AutoAppliedSmartFocus" : "False",
                            "clipSpeedAttribute" : false
                          }
                        },
                        {
                          "id" : 3044,
                          "_type" : "UnifiedMedia",
                          "video" : 
                              {
                                "id" : 3045,
                                "_type" : "ScreenVMFile",
                                "src" : 3,
                                "trackNumber" : 0,
                                "attributes" : {
                                  "ident" : "Rec 01-28-21_003"
                                },
                                "parameters" : {
                                  "cursorScale" : {
                                    "type" : "double",
                                    "defaultValue" : 0.0,
                                    "interp" : "linr"
                                  },
                                  "cursorOpacity" : {
                                    "type" : "double",
                                    "defaultValue" : 0.0,
                                    "interp" : "linr"
                                  }
                                },
                                "effects" : [

                                ],
                                "start" : 22781,
                                "duration" : 166,
                                "mediaStart" : 23400,
                                "mediaDuration" : 166,
                                "scalar" : 1,
                                "animationTracks" : {

                                }
                              },
                          "audio" : 
                              {
                                "id" : 3046,
                                "_type" : "AMFile",
                                "src" : 3,
                                "trackNumber" : 1,
                                "attributes" : {
                                  "ident" : "",
                                  "gain" : 1.0,
                                  "mixToMono" : false
                                },
                                  "channelNumber" : "0,1",
                                "effects" : [

                                ],
                                "start" : 22781,
                                "duration" : 166,
                                "mediaStart" : 23400,
                                "mediaDuration" : 166,
                                "scalar" : 1,
                                "animationTracks" : {

                                }
                              }
,
                          "start" : 22781,
                          "duration" : 166,
                          "mediaStart" : 0,
                          "mediaDuration" : 23566,
                          "scalar" : 1,
                          "metadata" : {
                            "AutoAppliedSmartFocus" : "False",
                            "clipSpeedAttribute" : false
                          }
                        }
                    ],
                    "effects" : [

                    ],
                    "start" : 19250,
                    "duration" : 313,
                    "mediaStart" : 22634,
                    "mediaDuration" : 313,
                    "scalar" : 1,
                    "metadata" : {
                      "AutoAppliedSmartFocus" : "False",
                      "clipSpeedAttribute" : false
                    },
                    "animationTracks" : {

                    }
                  }
                ]
              },
              {
                "trackIndex" : 1,
                "medias" : [
                  {
                    "id" : 3047,
                    "_type" : "Group",
                    "parameters" : {
                      "volume" : 1.0
                    },
                    "tracks" : [
                      {
                        "trackIndex" : 0,
                        "medias" : [
                          {
                            "id" : 3048,
                            "_type" : "Callout",
                            "def" : {
                              "kind" : "remix",
                              "shape" : "text",
                              "style" : "basic",
                              "height" : 250.0,
                              "line-spacing" : 0.0,
                              "width" : 998.63013698628,
                              "word-wrap" : 1.0,
                              "horizontal-alignment" : "center",
                              "resize-behavior" : "resizeText",
                              "text" : "Kubernetes Deployment",
                              "vertical-alignment" : "center",
                              "font" : {
                                "color-blue" : 1.0,
                                "color-green" : 1.0,
                                "color-red" : 1.0,
                                "size" : 96.0,
                                "tracking" : 0.0,
                                "name" : "Montserrat",
                                "weight" : "Regular"
                              },
                              "textAttributes" : {
                                "type" : "textAttributeList",
                                "keyframes" : [
                                  {
                                    "endTime" : 0,
                                    "time" : 0,
                                    "value" : [{"name":"fontName","rangeEnd":21,"rangeStart":0,"value":"Montserrat","valueType":"string"},{"name":"fontWeight","rangeEnd":21,"rangeStart":0,"value":700,"valueType":"int"},{"name":"underline","rangeEnd":21,"rangeStart":0,"value":0,"valueType":"int"},{"name":"fontItalic","rangeEnd":21,"rangeStart":0,"value":0,"valueType":"int"},{"name":"kerning","rangeEnd":21,"rangeStart":0,"value":0,"valueType":"double"},{"name":"fgColor","rangeEnd":21,"rangeStart":0,"value":"(50,108,229,255)","valueType":"color"},{"name":"fontSize","rangeEnd":21,"rangeStart":0,"value":96,"valueType":"double"},{"name":"strikethrough","rangeEnd":21,"rangeStart":0,"value":0,"valueType":"int"}],
                                    "duration" : 0
                                  }
                                ]
                              }
                            },
                            "attributes" : {
                              "autoRotateText" : true
                            },
                            "parameters" : {
                              "translation0" : -22.4178082191042,
                              "translation1" : 1.319122588261e-11
                            },
                            "effects" : [
                                {
                                  "_type" : "GenericBehaviorEffect",
                                  "effectName" : "pulsating",
                                  "start" : -102,
                                  "duration" : 200                                ,
                                  "in" : {
                                    "attributes" : {
                                      "name" : "grow",
                                      "type" : 1,
                                      "characterOrder" : 6,
                                      "offsetBetweenCharacters" : 1,
                                      "suggestedDurationPerCharacter" : 18,
                                      "overlapProportion" : "3/4",
                                      "movement" : 30,
                                      "springDamping" : 5.0,
                                      "springStiffness" : 50.0,
                                      "bounceBounciness" : 0.45
                                    }
                                  
                                  },
                                  "center" : {
                                    "attributes" : {
                                      "name" : "pulsate",
                                      "type" : 1,
                                      "characterOrder" : 6,
                                      "offsetBetweenCharacters" : "21/10",
                                      "secondsPerLoop" : 1,
                                      "numberOfLoops" : -1,
                                      "delayBetweenLoops" : 0,
                                      "offsetBetweenCharacters" : "21/10"
                                    },
                                    "parameters" : {
                                      "movement" : {
                                        "type" : "int",
                                        "valueBounds" : {
                                          "minValue" : 0,
                                          "maxValue" : 31,
                                          "defaultValue" : 27
                                        },
                                        "uiHints" : {
                                          "userInterfaceType" : 4,
                                          "unitType" : 0
                                        },
                                        "keyframes" : [
                                          {
                                            "endTime" : 0,
                                            "time" : 0,
                                            "value" : 27,
                                            "duration" : 0
                                          }
                                        ]
                                      },
                                      "scale" : {
                                        "type" : "double",
                                        "defaultValue" : 1.08,
                                        "valueBounds" : {
                                          "minValue" : 0.01,
                                          "maxValue" : 2.0,
                                          "defaultValue" : 1.08
                                        },
                                        "uiHints" : {
                                          "userInterfaceType" : 1,
                                          "unitType" : 1
                                        }
                                      }
                                    }
                                  
                                  },
                                  "out" : {
                                    "attributes" : {
                                      "name" : "shrink",
                                      "type" : 1,
                                      "characterOrder" : 6,
                                      "offsetBetweenCharacters" : 1,
                                      "suggestedDurationPerCharacter" : "29/2",
                                      "overlapProportion" : "1/10",
                                      "movement" : 11,
                                      "springDamping" : 5.0,
                                      "springStiffness" : 50.0,
                                      "bounceBounciness" : 0.45
                                    }
                                  
                                  }
                                }
                            ],
                            "start" : 0,
                            "duration" : 103,
                            "mediaStart" : -102,
                            "mediaDuration" : 103,
                            "scalar" : 1,
                            "metadata" : {
                              "clipSpeedAttribute" : false,
                              "default-HAlign" : "center",
                              "default-LineSpace" : 0.0,
                              "default-VAlign" : "center",
                              "default-text-attributes" : "[{\"name\":\"fontItalic\",\"rangeEnd\":21,\"rangeStart\":0,\"value\":0,\"valueType\":\"int\"},{\"name\":\"fontName\",\"rangeEnd\":21,\"rangeStart\":0,\"value\":\"Montserrat\",\"valueType\":\"string\"},{\"name\":\"fontWeight\",\"rangeEnd\":21,\"rangeStart\":0,\"value\":700,\"valueType\":\"int\"},{\"name\":\"kerning\",\"rangeEnd\":21,\"rangeStart\":0,\"value\":0,\"valueType\":\"double\"},{\"name\":\"fgColor\",\"rangeEnd\":21,\"rangeStart\":0,\"value\":\"(50,108,229,255)\",\"valueType\":\"color\"},{\"name\":\"underline\",\"rangeEnd\":21,\"rangeStart\":0,\"value\":0,\"valueType\":\"int\"},{\"name\":\"fontSize\",\"rangeEnd\":21,\"rangeStart\":0,\"value\":96,\"valueType\":\"double\"},{\"name\":\"strikethrough\",\"rangeEnd\":21,\"rangeStart\":0,\"value\":0,\"valueType\":\"int\"}]"
                            },
                            "animationTracks" : {

                            }
                          },
                          {
                            "id" : 3049,
                            "_type" : "Callout",
                            "def" : {
                              "kind" : "remix",
                              "shape" : "text",
                              "style" : "basic",
                              "height" : 250.0,
                              "line-spacing" : 0.0,
                              "width" : 998.63013698628,
                              "word-wrap" : 1.0,
                              "horizontal-alignment" : "center",
                              "resize-behavior" : "resizeText",
                              "text" : "Kubernetes Deployment",
                              "vertical-alignment" : "center",
                              "font" : {
                                "color-blue" : 1.0,
                                "color-green" : 1.0,
                                "color-red" : 1.0,
                                "size" : 96.0,
                                "tracking" : 0.0,
                                "name" : "Montserrat",
                                "weight" : "Regular"
                              },
                              "textAttributes" : {
                                "type" : "textAttributeList",
                                "keyframes" : [
                                  {
                                    "endTime" : 0,
                                    "time" : 0,
                                    "value" : [{"name":"underline","rangeEnd":21,"rangeStart":0,"value":0,"valueType":"int"},{"name":"fontName","rangeEnd":21,"rangeStart":0,"value":"Montserrat","valueType":"string"},{"name":"fontWeight","rangeEnd":21,"rangeStart":0,"value":700,"valueType":"int"},{"name":"kerning","rangeEnd":21,"rangeStart":0,"value":0,"valueType":"double"},{"name":"fontItalic","rangeEnd":21,"rangeStart":0,"value":0,"valueType":"int"},{"name":"strikethrough","rangeEnd":21,"rangeStart":0,"value":0,"valueType":"int"},{"name":"fgColor","rangeEnd":21,"rangeStart":0,"value":"(50,108,229,255)","valueType":"color"},{"name":"fontSize","rangeEnd":21,"rangeStart":0,"value":96,"valueType":"double"}],
                                    "duration" : 0
                                  }
                                ]
                              }
                            },
                            "attributes" : {
                              "autoRotateText" : true
                            },
                            "parameters" : {
                              "translation0" : -22.4,
                              "translation1" : 4.13429290734252e-11
                            },
                            "effects" : [
                                {
                                  "_type" : "GenericBehaviorEffect",
                                  "effectName" : "pulsating",
                                  "start" : -102,
                                  "duration" : 200                                ,
                                  "in" : {
                                    "attributes" : {
                                      "name" : "grow",
                                      "type" : 1,
                                      "characterOrder" : 6,
                                      "offsetBetweenCharacters" : 1,
                                      "suggestedDurationPerCharacter" : 18,
                                      "overlapProportion" : "3/4",
                                      "movement" : 30,
                                      "springDamping" : 5.0,
                                      "springStiffness" : 50.0,
                                      "bounceBounciness" : 0.45
                                    }
                                  
                                  },
                                  "center" : {
                                    "attributes" : {
                                      "name" : "pulsate",
                                      "type" : 1,
                                      "characterOrder" : 6,
                                      "offsetBetweenCharacters" : "21/10",
                                      "secondsPerLoop" : 1,
                                      "numberOfLoops" : -1,
                                      "delayBetweenLoops" : 0,
                                      "offsetBetweenCharacters" : "21/10"
                                    },
                                    "parameters" : {
                                      "movement" : {
                                        "type" : "int",
                                        "valueBounds" : {
                                          "minValue" : 0,
                                          "maxValue" : 31,
                                          "defaultValue" : 27
                                        },
                                        "uiHints" : {
                                          "userInterfaceType" : 4,
                                          "unitType" : 0
                                        },
                                        "keyframes" : [
                                          {
                                            "endTime" : 0,
                                            "time" : 0,
                                            "value" : 27,
                                            "duration" : 0
                                          }
                                        ]
                                      },
                                      "scale" : {
                                        "type" : "double",
                                        "defaultValue" : 1.08,
                                        "valueBounds" : {
                                          "minValue" : 0.01,
                                          "maxValue" : 2.0,
                                          "defaultValue" : 1.08
                                        },
                                        "uiHints" : {
                                          "userInterfaceType" : 1,
                                          "unitType" : 1
                                        }
                                      }
                                    }
                                  
                                  },
                                  "out" : {
                                    "attributes" : {
                                      "name" : "shrink",
                                      "type" : 1,
                                      "characterOrder" : 6,
                                      "offsetBetweenCharacters" : 1,
                                      "suggestedDurationPerCharacter" : "29/2",
                                      "overlapProportion" : "1/10",
                                      "movement" : 11,
                                      "springDamping" : 5.0,
                                      "springStiffness" : 50.0,
                                      "bounceBounciness" : 0.45
                                    }
                                  
                                  }
                                }
                            ],
                            "start" : 103,
                            "duration" : 97,
                            "mediaStart" : 1,
                            "mediaDuration" : 97,
                            "scalar" : 1,
                            "metadata" : {
                              "clipSpeedAttribute" : false,
                              "default-HAlign" : "center",
                              "default-LineSpace" : 0.0,
                              "default-VAlign" : "center",
                              "default-text-attributes" : "[{\"name\":\"strikethrough\",\"rangeEnd\":21,\"rangeStart\":0,\"value\":0,\"valueType\":\"int\"},{\"name\":\"fontName\",\"rangeEnd\":21,\"rangeStart\":0,\"value\":\"Montserrat\",\"valueType\":\"string\"},{\"name\":\"fontSize\",\"rangeEnd\":21,\"rangeStart\":0,\"value\":96,\"valueType\":\"double\"},{\"name\":\"fontWeight\",\"rangeEnd\":21,\"rangeStart\":0,\"value\":700,\"valueType\":\"int\"},{\"name\":\"fgColor\",\"rangeEnd\":21,\"rangeStart\":0,\"value\":\"(50,108,229,255)\",\"valueType\":\"color\"},{\"name\":\"underline\",\"rangeEnd\":21,\"rangeStart\":0,\"value\":0,\"valueType\":\"int\"},{\"name\":\"kerning\",\"rangeEnd\":21,\"rangeStart\":0,\"value\":0,\"valueType\":\"double\"},{\"name\":\"fontItalic\",\"rangeEnd\":21,\"rangeStart\":0,\"value\":0,\"valueType\":\"int\"}]",
                              "default-translation0" : -74.4178082188969
                            },
                            "animationTracks" : {

                            }
                          }
                        ],
                          "ident" : "",
                          "audioMuted" : false,
                          "videoHidden" : false,
                          "magnetic" : false,
                          "matte" : 0,
                          "metadata" : {
                            "IsLocked" : "False",
                            "WinTrackHeight" : "0"
                          }
                      },
                      {
                        "trackIndex" : 1,
                        "medias" : [
                          {
                            "id" : 3050,
                            "_type" : "Group",
                            "parameters" : {
                              "translation0" : 0.559750733332294,
                              "translation1" : -34.4850472193567,
                              "volume" : 1.0
                            },
                            "tracks" : [
                              {
                                "trackIndex" : 0,
                                "medias" : [
                                  {
                                    "id" : 3051,
                                    "_type" : "Group",
                                    "parameters" : {
                                      "translation0" : 4.44089209850063e-16,
                                      "translation1" : -34.4850472193565,
                                      "volume" : 1.0
                                    },
                                    "tracks" : [
                                      {
                                        "trackIndex" : 0,
                                        "medias" : [
                                          {
                                            "id" : 3052,
                                            "_type" : "Group",
                                            "parameters" : {
                                              "translation0" : 0.55975073333218,
                                              "translation1" : -289.15133998951,
                                              "volume" : 1.0
                                            },
                                            "tracks" : [
                                              {
                                                "trackIndex" : 0,
                                                "medias" : [
                                                  {
                                                    "id" : 3053,
                                                    "_type" : "IMFile",
                                                    "src" : 31,
                                                    "trackNumber" : 0,
                                                    "trimStartSum" : 0,
                                                    "attributes" : {
                                                      "ident" : "wave1"
                                                    },
                                                    "parameters" : {
                                                      "translation0" : -2.11950146613311,
                                                      "translation1" : 8.96940103546206,
                                                      "scale0" : 1.02884111169424,
                                                      "scale1" : 1.02884111169424
                                                    },
                                                    "effects" : [

                                                    ],
                                                    "start" : 0,
                                                    "duration" : 6,
                                                    "mediaStart" : 0,
                                                    "mediaDuration" : 1,
                                                    "scalar" : 1,
                                                    "metadata" : {
                                                      "clipSpeedAttribute" : false
                                                    },
                                                    "animationTracks" : {

                                                    }
                                                  },
                                                  {
                                                    "id" : 3054,
                                                    "_type" : "IMFile",
                                                    "src" : 32,
                                                    "trackNumber" : 0,
                                                    "trimStartSum" : 0,
                                                    "attributes" : {
                                                      "ident" : "wave2"
                                                    },
                                                    "parameters" : {
                                                      "translation0" : 0.880498533167186,
                                                      "translation1" : -88.087642172052,
                                                      "scale0" : 1.03068101042332,
                                                      "scale1" : 1.03068101042332
                                                    },
                                                    "effects" : [

                                                    ],
                                                    "start" : 6,
                                                    "duration" : 6,
                                                    "mediaStart" : 0,
                                                    "mediaDuration" : 1,
                                                    "scalar" : 1,
                                                    "metadata" : {
                                                      "clipSpeedAttribute" : false
                                                    },
                                                    "animationTracks" : {

                                                    }
                                                  },
                                                  {
                                                    "id" : 3055,
                                                    "_type" : "IMFile",
                                                    "src" : 33,
                                                    "trackNumber" : 0,
                                                    "trimStartSum" : 0,
                                                    "attributes" : {
                                                      "ident" : "wave3"
                                                    },
                                                    "parameters" : {
                                                      "translation0" : -1.11950146655987,
                                                      "translation1" : 8.12143442823202,
                                                      "scale0" : 1.00893326326855,
                                                      "scale1" : 1.00893326326855
                                                    },
                                                    "effects" : [

                                                    ],
                                                    "start" : 12,
                                                    "duration" : 7,
                                                    "mediaStart" : 0,
                                                    "mediaDuration" : 1,
                                                    "scalar" : 1,
                                                    "metadata" : {
                                                      "clipSpeedAttribute" : false
                                                    },
                                                    "animationTracks" : {

                                                    }
                                                  },
                                                  {
                                                    "id" : 3056,
                                                    "_type" : "IMFile",
                                                    "src" : 31,
                                                    "trackNumber" : 0,
                                                    "trimStartSum" : 0,
                                                    "attributes" : {
                                                      "ident" : "wave1"
                                                    },
                                                    "parameters" : {
                                                      "translation0" : -2.11950146613311,
                                                      "translation1" : 8.96940103546206,
                                                      "scale0" : 1.02884111169424,
                                                      "scale1" : 1.02884111169424
                                                    },
                                                    "effects" : [

                                                    ],
                                                    "start" : 19,
                                                    "duration" : 6,
                                                    "mediaStart" : 0,
                                                    "mediaDuration" : 1,
                                                    "scalar" : 1,
                                                    "metadata" : {
                                                      "clipSpeedAttribute" : false
                                                    },
                                                    "animationTracks" : {

                                                    }
                                                  },
                                                  {
                                                    "id" : 3057,
                                                    "_type" : "IMFile",
                                                    "src" : 32,
                                                    "trackNumber" : 0,
                                                    "trimStartSum" : 0,
                                                    "attributes" : {
                                                      "ident" : "wave2"
                                                    },
                                                    "parameters" : {
                                                      "translation0" : 0.880498533167186,
                                                      "translation1" : -88.087642172052,
                                                      "scale0" : 1.03068101042332,
                                                      "scale1" : 1.03068101042332
                                                    },
                                                    "effects" : [

                                                    ],
                                                    "start" : 25,
                                                    "duration" : 6,
                                                    "mediaStart" : 0,
                                                    "mediaDuration" : 1,
                                                    "scalar" : 1,
                                                    "metadata" : {
                                                      "clipSpeedAttribute" : false
                                                    },
                                                    "animationTracks" : {

                                                    }
                                                  },
                                                  {
                                                    "id" : 3058,
                                                    "_type" : "IMFile",
                                                    "src" : 33,
                                                    "trackNumber" : 0,
                                                    "trimStartSum" : 0,
                                                    "attributes" : {
                                                      "ident" : "wave3"
                                                    },
                                                    "parameters" : {
                                                      "translation0" : -1.11950146655987,
                                                      "translation1" : 8.12143442823202,
                                                      "scale0" : 1.00893326326855,
                                                      "scale1" : 1.00893326326855
                                                    },
                                                    "effects" : [

                                                    ],
                                                    "start" : 31,
                                                    "duration" : 7,
                                                    "mediaStart" : 0,
                                                    "mediaDuration" : 1,
                                                    "scalar" : 1,
                                                    "metadata" : {
                                                      "clipSpeedAttribute" : false
                                                    },
                                                    "animationTracks" : {

                                                    }
                                                  },
                                                  {
                                                    "id" : 3059,
                                                    "_type" : "IMFile",
                                                    "src" : 31,
                                                    "trackNumber" : 0,
                                                    "trimStartSum" : 0,
                                                    "attributes" : {
                                                      "ident" : "wave1"
                                                    },
                                                    "parameters" : {
                                                      "translation0" : -2.11950146613311,
                                                      "translation1" : 8.96940103546206,
                                                      "scale0" : 1.02884111169424,
                                                      "scale1" : 1.02884111169424
                                                    },
                                                    "effects" : [

                                                    ],
                                                    "start" : 38,
                                                    "duration" : 6,
                                                    "mediaStart" : 0,
                                                    "mediaDuration" : 1,
                                                    "scalar" : 1,
                                                    "metadata" : {
                                                      "clipSpeedAttribute" : false
                                                    },
                                                    "animationTracks" : {

                                                    }
                                                  },
                                                  {
                                                    "id" : 3060,
                                                    "_type" : "IMFile",
                                                    "src" : 32,
                                                    "trackNumber" : 0,
                                                    "trimStartSum" : 0,
                                                    "attributes" : {
                                                      "ident" : "wave2"
                                                    },
                                                    "parameters" : {
                                                      "translation0" : 0.880498533167186,
                                                      "translation1" : -88.087642172052,
                                                      "scale0" : 1.03068101042332,
                                                      "scale1" : 1.03068101042332
                                                    },
                                                    "effects" : [

                                                    ],
                                                    "start" : 44,
                                                    "duration" : 6,
                                                    "mediaStart" : 0,
                                                    "mediaDuration" : 1,
                                                    "scalar" : 1,
                                                    "metadata" : {
                                                      "clipSpeedAttribute" : false
                                                    },
                                                    "animationTracks" : {

                                                    }
                                                  },
                                                  {
                                                    "id" : 3061,
                                                    "_type" : "IMFile",
                                                    "src" : 33,
                                                    "trackNumber" : 0,
                                                    "trimStartSum" : 0,
                                                    "attributes" : {
                                                      "ident" : "wave3"
                                                    },
                                                    "parameters" : {
                                                      "translation0" : -1.11950146655987,
                                                      "translation1" : 8.12143442823202,
                                                      "scale0" : 1.00893326326855,
                                                      "scale1" : 1.00893326326855
                                                    },
                                                    "effects" : [

                                                    ],
                                                    "start" : 50,
                                                    "duration" : 7,
                                                    "mediaStart" : 0,
                                                    "mediaDuration" : 1,
                                                    "scalar" : 1,
                                                    "metadata" : {
                                                      "clipSpeedAttribute" : false
                                                    },
                                                    "animationTracks" : {

                                                    }
                                                  },
                                                  {
                                                    "id" : 3062,
                                                    "_type" : "IMFile",
                                                    "src" : 31,
                                                    "trackNumber" : 0,
                                                    "trimStartSum" : 0,
                                                    "attributes" : {
                                                      "ident" : "wave1"
                                                    },
                                                    "parameters" : {
                                                      "translation0" : -2.11950146613311,
                                                      "translation1" : 8.96940103546206,
                                                      "scale0" : 1.02884111169424,
                                                      "scale1" : 1.02884111169424
                                                    },
                                                    "effects" : [

                                                    ],
                                                    "start" : 57,
                                                    "duration" : 6,
                                                    "mediaStart" : 0,
                                                    "mediaDuration" : 1,
                                                    "scalar" : 1,
                                                    "metadata" : {
                                                      "clipSpeedAttribute" : false
                                                    },
                                                    "animationTracks" : {

                                                    }
                                                  },
                                                  {
                                                    "id" : 3063,
                                                    "_type" : "IMFile",
                                                    "src" : 32,
                                                    "trackNumber" : 0,
                                                    "trimStartSum" : 0,
                                                    "attributes" : {
                                                      "ident" : "wave2"
                                                    },
                                                    "parameters" : {
                                                      "translation0" : 0.880498533167186,
                                                      "translation1" : -88.087642172052,
                                                      "scale0" : 1.03068101042332,
                                                      "scale1" : 1.03068101042332
                                                    },
                                                    "effects" : [

                                                    ],
                                                    "start" : 63,
                                                    "duration" : 6,
                                                    "mediaStart" : 0,
                                                    "mediaDuration" : 1,
                                                    "scalar" : 1,
                                                    "metadata" : {
                                                      "clipSpeedAttribute" : false
                                                    },
                                                    "animationTracks" : {

                                                    }
                                                  },
                                                  {
                                                    "id" : 3064,
                                                    "_type" : "IMFile",
                                                    "src" : 33,
                                                    "trackNumber" : 0,
                                                    "trimStartSum" : 0,
                                                    "attributes" : {
                                                      "ident" : "wave3"
                                                    },
                                                    "parameters" : {
                                                      "translation0" : -1.11950146655987,
                                                      "translation1" : 8.12143442823202,
                                                      "scale0" : 1.00893326326855,
                                                      "scale1" : 1.00893326326855
                                                    },
                                                    "effects" : [

                                                    ],
                                                    "start" : 69,
                                                    "duration" : 7,
                                                    "mediaStart" : 0,
                                                    "mediaDuration" : 1,
                                                    "scalar" : 1,
                                                    "metadata" : {
                                                      "clipSpeedAttribute" : false
                                                    },
                                                    "animationTracks" : {

                                                    }
                                                  },
                                                  {
                                                    "id" : 3065,
                                                    "_type" : "IMFile",
                                                    "src" : 31,
                                                    "trackNumber" : 0,
                                                    "trimStartSum" : 0,
                                                    "attributes" : {
                                                      "ident" : "wave1"
                                                    },
                                                    "parameters" : {
                                                      "translation0" : -2.11950146613311,
                                                      "translation1" : 8.96940103546206,
                                                      "scale0" : 1.02884111169424,
                                                      "scale1" : 1.02884111169424
                                                    },
                                                    "effects" : [

                                                    ],
                                                    "start" : 76,
                                                    "duration" : 6,
                                                    "mediaStart" : 0,
                                                    "mediaDuration" : 1,
                                                    "scalar" : 1,
                                                    "metadata" : {
                                                      "clipSpeedAttribute" : false
                                                    },
                                                    "animationTracks" : {

                                                    }
                                                  },
                                                  {
                                                    "id" : 3066,
                                                    "_type" : "IMFile",
                                                    "src" : 32,
                                                    "trackNumber" : 0,
                                                    "trimStartSum" : 0,
                                                    "attributes" : {
                                                      "ident" : "wave2"
                                                    },
                                                    "parameters" : {
                                                      "translation0" : 0.880498533167186,
                                                      "translation1" : -88.087642172052,
                                                      "scale0" : 1.03068101042332,
                                                      "scale1" : 1.03068101042332
                                                    },
                                                    "effects" : [

                                                    ],
                                                    "start" : 82,
                                                    "duration" : 6,
                                                    "mediaStart" : 0,
                                                    "mediaDuration" : 1,
                                                    "scalar" : 1,
                                                    "metadata" : {
                                                      "clipSpeedAttribute" : false
                                                    },
                                                    "animationTracks" : {

                                                    }
                                                  },
                                                  {
                                                    "id" : 3067,
                                                    "_type" : "IMFile",
                                                    "src" : 33,
                                                    "trackNumber" : 0,
                                                    "trimStartSum" : 0,
                                                    "attributes" : {
                                                      "ident" : "wave3"
                                                    },
                                                    "parameters" : {
                                                      "translation0" : -1.11950146655987,
                                                      "translation1" : 8.12143442823202,
                                                      "scale0" : 1.00893326326855,
                                                      "scale1" : 1.00893326326855
                                                    },
                                                    "effects" : [

                                                    ],
                                                    "start" : 88,
                                                    "duration" : 7,
                                                    "mediaStart" : 0,
                                                    "mediaDuration" : 1,
                                                    "scalar" : 1,
                                                    "metadata" : {
                                                      "clipSpeedAttribute" : false
                                                    },
                                                    "animationTracks" : {

                                                    }
                                                  },
                                                  {
                                                    "id" : 3068,
                                                    "_type" : "IMFile",
                                                    "src" : 31,
                                                    "trackNumber" : 0,
                                                    "trimStartSum" : 0,
                                                    "attributes" : {
                                                      "ident" : "wave1"
                                                    },
                                                    "parameters" : {
                                                      "translation0" : -2.11950146613311,
                                                      "translation1" : 8.96940103546206,
                                                      "scale0" : 1.02884111169424,
                                                      "scale1" : 1.02884111169424
                                                    },
                                                    "effects" : [

                                                    ],
                                                    "start" : 95,
                                                    "duration" : 6,
                                                    "mediaStart" : 0,
                                                    "mediaDuration" : 1,
                                                    "scalar" : 1,
                                                    "metadata" : {
                                                      "clipSpeedAttribute" : false
                                                    },
                                                    "animationTracks" : {

                                                    }
                                                  },
                                                  {
                                                    "id" : 3069,
                                                    "_type" : "IMFile",
                                                    "src" : 32,
                                                    "trackNumber" : 0,
                                                    "trimStartSum" : 0,
                                                    "attributes" : {
                                                      "ident" : "wave2"
                                                    },
                                                    "parameters" : {
                                                      "translation0" : 0.880498533167186,
                                                      "translation1" : -88.087642172052,
                                                      "scale0" : 1.03068101042332,
                                                      "scale1" : 1.03068101042332
                                                    },
                                                    "effects" : [

                                                    ],
                                                    "start" : 101,
                                                    "duration" : 6,
                                                    "mediaStart" : 0,
                                                    "mediaDuration" : 1,
                                                    "scalar" : 1,
                                                    "metadata" : {
                                                      "clipSpeedAttribute" : false
                                                    },
                                                    "animationTracks" : {

                                                    }
                                                  },
                                                  {
                                                    "id" : 3070,
                                                    "_type" : "IMFile",
                                                    "src" : 33,
                                                    "trackNumber" : 0,
                                                    "trimStartSum" : 0,
                                                    "attributes" : {
                                                      "ident" : "wave3"
                                                    },
                                                    "parameters" : {
                                                      "translation0" : -1.11950146655987,
                                                      "translation1" : 8.12143442823202,
                                                      "scale0" : 1.00893326326855,
                                                      "scale1" : 1.00893326326855
                                                    },
                                                    "effects" : [

                                                    ],
                                                    "start" : 107,
                                                    "duration" : 7,
                                                    "mediaStart" : 0,
                                                    "mediaDuration" : 1,
                                                    "scalar" : 1,
                                                    "metadata" : {
                                                      "clipSpeedAttribute" : false
                                                    },
                                                    "animationTracks" : {

                                                    }
                                                  },
                                                  {
                                                    "id" : 3071,
                                                    "_type" : "IMFile",
                                                    "src" : 31,
                                                    "trackNumber" : 0,
                                                    "trimStartSum" : 0,
                                                    "attributes" : {
                                                      "ident" : "wave1"
                                                    },
                                                    "parameters" : {
                                                      "translation0" : -2.11950146613311,
                                                      "translation1" : 8.96940103546206,
                                                      "scale0" : 1.02884111169424,
                                                      "scale1" : 1.02884111169424
                                                    },
                                                    "effects" : [

                                                    ],
                                                    "start" : 114,
                                                    "duration" : 6,
                                                    "mediaStart" : 0,
                                                    "mediaDuration" : 1,
                                                    "scalar" : 1,
                                                    "metadata" : {
                                                      "clipSpeedAttribute" : false
                                                    },
                                                    "animationTracks" : {

                                                    }
                                                  },
                                                  {
                                                    "id" : 3072,
                                                    "_type" : "IMFile",
                                                    "src" : 32,
                                                    "trackNumber" : 0,
                                                    "trimStartSum" : 0,
                                                    "attributes" : {
                                                      "ident" : "wave2"
                                                    },
                                                    "parameters" : {
                                                      "translation0" : 0.880498533167186,
                                                      "translation1" : -88.087642172052,
                                                      "scale0" : 1.03068101042332,
                                                      "scale1" : 1.03068101042332
                                                    },
                                                    "effects" : [

                                                    ],
                                                    "start" : 120,
                                                    "duration" : 6,
                                                    "mediaStart" : 0,
                                                    "mediaDuration" : 1,
                                                    "scalar" : 1,
                                                    "metadata" : {
                                                      "clipSpeedAttribute" : false
                                                    },
                                                    "animationTracks" : {

                                                    }
                                                  },
                                                  {
                                                    "id" : 3073,
                                                    "_type" : "IMFile",
                                                    "src" : 33,
                                                    "trackNumber" : 0,
                                                    "trimStartSum" : 0,
                                                    "attributes" : {
                                                      "ident" : "wave3"
                                                    },
                                                    "parameters" : {
                                                      "translation0" : -1.11950146655987,
                                                      "translation1" : 8.12143442823202,
                                                      "scale0" : 1.00893326326855,
                                                      "scale1" : 1.00893326326855
                                                    },
                                                    "effects" : [

                                                    ],
                                                    "start" : 126,
                                                    "duration" : 7,
                                                    "mediaStart" : 0,
                                                    "mediaDuration" : 1,
                                                    "scalar" : 1,
                                                    "metadata" : {
                                                      "clipSpeedAttribute" : false
                                                    },
                                                    "animationTracks" : {

                                                    }
                                                  },
                                                  {
                                                    "id" : 3074,
                                                    "_type" : "IMFile",
                                                    "src" : 31,
                                                    "trackNumber" : 0,
                                                    "trimStartSum" : 0,
                                                    "attributes" : {
                                                      "ident" : "wave1"
                                                    },
                                                    "parameters" : {
                                                      "translation0" : -2.11950146613311,
                                                      "translation1" : 8.96940103546206,
                                                      "scale0" : 1.02884111169424,
                                                      "scale1" : 1.02884111169424
                                                    },
                                                    "effects" : [

                                                    ],
                                                    "start" : 133,
                                                    "duration" : 6,
                                                    "mediaStart" : 0,
                                                    "mediaDuration" : 1,
                                                    "scalar" : 1,
                                                    "metadata" : {
                                                      "clipSpeedAttribute" : false
                                                    },
                                                    "animationTracks" : {

                                                    }
                                                  },
                                                  {
                                                    "id" : 3075,
                                                    "_type" : "IMFile",
                                                    "src" : 32,
                                                    "trackNumber" : 0,
                                                    "trimStartSum" : 0,
                                                    "attributes" : {
                                                      "ident" : "wave2"
                                                    },
                                                    "parameters" : {
                                                      "translation0" : 0.880498533167186,
                                                      "translation1" : -88.087642172052,
                                                      "scale0" : 1.03068101042332,
                                                      "scale1" : 1.03068101042332
                                                    },
                                                    "effects" : [

                                                    ],
                                                    "start" : 139,
                                                    "duration" : 6,
                                                    "mediaStart" : 0,
                                                    "mediaDuration" : 1,
                                                    "scalar" : 1,
                                                    "metadata" : {
                                                      "clipSpeedAttribute" : false
                                                    },
                                                    "animationTracks" : {

                                                    }
                                                  },
                                                  {
                                                    "id" : 3076,
                                                    "_type" : "IMFile",
                                                    "src" : 33,
                                                    "trackNumber" : 0,
                                                    "trimStartSum" : 0,
                                                    "attributes" : {
                                                      "ident" : "wave3"
                                                    },
                                                    "parameters" : {
                                                      "translation0" : -1.11950146655987,
                                                      "translation1" : 8.12143442823202,
                                                      "scale0" : 1.00893326326855,
                                                      "scale1" : 1.00893326326855
                                                    },
                                                    "effects" : [

                                                    ],
                                                    "start" : 145,
                                                    "duration" : 7,
                                                    "mediaStart" : 0,
                                                    "mediaDuration" : 1,
                                                    "scalar" : 1,
                                                    "metadata" : {
                                                      "clipSpeedAttribute" : false
                                                    },
                                                    "animationTracks" : {

                                                    }
                                                  },
                                                  {
                                                    "id" : 3077,
                                                    "_type" : "IMFile",
                                                    "src" : 31,
                                                    "trackNumber" : 0,
                                                    "trimStartSum" : 0,
                                                    "attributes" : {
                                                      "ident" : "wave1"
                                                    },
                                                    "parameters" : {
                                                      "translation0" : -2.11950146613311,
                                                      "translation1" : 8.96940103546206,
                                                      "scale0" : 1.02884111169424,
                                                      "scale1" : 1.02884111169424
                                                    },
                                                    "effects" : [

                                                    ],
                                                    "start" : 152,
                                                    "duration" : 6,
                                                    "mediaStart" : 0,
                                                    "mediaDuration" : 1,
                                                    "scalar" : 1,
                                                    "metadata" : {
                                                      "clipSpeedAttribute" : false
                                                    },
                                                    "animationTracks" : {

                                                    }
                                                  },
                                                  {
                                                    "id" : 3078,
                                                    "_type" : "IMFile",
                                                    "src" : 32,
                                                    "trackNumber" : 0,
                                                    "trimStartSum" : 0,
                                                    "attributes" : {
                                                      "ident" : "wave2"
                                                    },
                                                    "parameters" : {
                                                      "translation0" : 0.880498533167186,
                                                      "translation1" : -88.087642172052,
                                                      "scale0" : 1.03068101042332,
                                                      "scale1" : 1.03068101042332
                                                    },
                                                    "effects" : [

                                                    ],
                                                    "start" : 158,
                                                    "duration" : 6,
                                                    "mediaStart" : 0,
                                                    "mediaDuration" : 1,
                                                    "scalar" : 1,
                                                    "metadata" : {
                                                      "clipSpeedAttribute" : false
                                                    },
                                                    "animationTracks" : {

                                                    }
                                                  },
                                                  {
                                                    "id" : 3079,
                                                    "_type" : "IMFile",
                                                    "src" : 33,
                                                    "trackNumber" : 0,
                                                    "trimStartSum" : 0,
                                                    "attributes" : {
                                                      "ident" : "wave3"
                                                    },
                                                    "parameters" : {
                                                      "translation0" : -1.11950146655987,
                                                      "translation1" : 8.12143442823202,
                                                      "scale0" : 1.00893326326855,
                                                      "scale1" : 1.00893326326855
                                                    },
                                                    "effects" : [

                                                    ],
                                                    "start" : 164,
                                                    "duration" : 7,
                                                    "mediaStart" : 0,
                                                    "mediaDuration" : 1,
                                                    "scalar" : 1,
                                                    "metadata" : {
                                                      "clipSpeedAttribute" : false
                                                    },
                                                    "animationTracks" : {

                                                    }
                                                  },
                                                  {
                                                    "id" : 3080,
                                                    "_type" : "IMFile",
                                                    "src" : 31,
                                                    "trackNumber" : 0,
                                                    "trimStartSum" : 0,
                                                    "attributes" : {
                                                      "ident" : "wave1"
                                                    },
                                                    "parameters" : {
                                                      "translation0" : -2.11950146613311,
                                                      "translation1" : 8.96940103546206,
                                                      "scale0" : 1.02884111169424,
                                                      "scale1" : 1.02884111169424
                                                    },
                                                    "effects" : [

                                                    ],
                                                    "start" : 171,
                                                    "duration" : 6,
                                                    "mediaStart" : 0,
                                                    "mediaDuration" : 1,
                                                    "scalar" : 1,
                                                    "metadata" : {
                                                      "clipSpeedAttribute" : false
                                                    },
                                                    "animationTracks" : {

                                                    }
                                                  },
                                                  {
                                                    "id" : 3081,
                                                    "_type" : "IMFile",
                                                    "src" : 32,
                                                    "trackNumber" : 0,
                                                    "trimStartSum" : 0,
                                                    "attributes" : {
                                                      "ident" : "wave2"
                                                    },
                                                    "parameters" : {
                                                      "translation0" : 0.880498533167186,
                                                      "translation1" : -88.087642172052,
                                                      "scale0" : 1.03068101042332,
                                                      "scale1" : 1.03068101042332
                                                    },
                                                    "effects" : [

                                                    ],
                                                    "start" : 177,
                                                    "duration" : 6,
                                                    "mediaStart" : 0,
                                                    "mediaDuration" : 1,
                                                    "scalar" : 1,
                                                    "metadata" : {
                                                      "clipSpeedAttribute" : false
                                                    },
                                                    "animationTracks" : {

                                                    }
                                                  },
                                                  {
                                                    "id" : 3082,
                                                    "_type" : "IMFile",
                                                    "src" : 33,
                                                    "trackNumber" : 0,
                                                    "trimStartSum" : 0,
                                                    "attributes" : {
                                                      "ident" : "wave3"
                                                    },
                                                    "parameters" : {
                                                      "translation0" : -1.11950146655987,
                                                      "translation1" : 8.12143442823202,
                                                      "scale0" : 1.00893326326855,
                                                      "scale1" : 1.00893326326855
                                                    },
                                                    "effects" : [

                                                    ],
                                                    "start" : 183,
                                                    "duration" : 7,
                                                    "mediaStart" : 0,
                                                    "mediaDuration" : 1,
                                                    "scalar" : 1,
                                                    "metadata" : {
                                                      "clipSpeedAttribute" : false
                                                    },
                                                    "animationTracks" : {

                                                    }
                                                  },
                                                  {
                                                    "id" : 3083,
                                                    "_type" : "IMFile",
                                                    "src" : 31,
                                                    "trackNumber" : 0,
                                                    "trimStartSum" : 0,
                                                    "attributes" : {
                                                      "ident" : "wave1"
                                                    },
                                                    "parameters" : {
                                                      "translation0" : -2.11950146613311,
                                                      "translation1" : 8.96940103546206,
                                                      "scale0" : 1.02884111169424,
                                                      "scale1" : 1.02884111169424
                                                    },
                                                    "effects" : [

                                                    ],
                                                    "start" : 190,
                                                    "duration" : 6,
                                                    "mediaStart" : 0,
                                                    "mediaDuration" : 1,
                                                    "scalar" : 1,
                                                    "metadata" : {
                                                      "clipSpeedAttribute" : false
                                                    },
                                                    "animationTracks" : {

                                                    }
                                                  },
                                                  {
                                                    "id" : 3084,
                                                    "_type" : "IMFile",
                                                    "src" : 32,
                                                    "trackNumber" : 0,
                                                    "trimStartSum" : 0,
                                                    "attributes" : {
                                                      "ident" : "wave2"
                                                    },
                                                    "parameters" : {
                                                      "translation0" : 0.880498533167186,
                                                      "translation1" : -88.087642172052,
                                                      "scale0" : 1.03068101042332,
                                                      "scale1" : 1.03068101042332
                                                    },
                                                    "effects" : [

                                                    ],
                                                    "start" : 196,
                                                    "duration" : 4,
                                                    "mediaStart" : 0,
                                                    "mediaDuration" : 1,
                                                    "scalar" : 1,
                                                    "metadata" : {
                                                      "clipSpeedAttribute" : false
                                                    },
                                                    "animationTracks" : {

                                                    }
                                                  }
                                                ],
                                                  "ident" : "",
                                                  "audioMuted" : false,
                                                  "videoHidden" : false,
                                                  "magnetic" : false,
                                                  "matte" : 0,
                                                  "metadata" : {
                                                    "IsLocked" : "False",
                                                    "WinTrackHeight" : "0"
                                                  }
                                              },
                                              {
                                                "trackIndex" : 1,
                                                "medias" : [
                                                  {
                                                    "id" : 3085,
                                                    "_type" : "IMFile",
                                                    "src" : 34,
                                                    "trackNumber" : 0,
                                                    "trimStartSum" : 0,
                                                    "attributes" : {
                                                      "ident" : "control-plane-128"
                                                    },
                                                    "parameters" : {
                                                      "translation0" : -785.119501466663,
                                                      "translation1" : 199.818754449228
                                                    },
                                                    "effects" : [

                                                    ],
                                                    "start" : 0,
                                                    "duration" : 19,
                                                    "mediaStart" : 0,
                                                    "mediaDuration" : 1,
                                                    "scalar" : 1,
                                                    "metadata" : {
                                                      "clipSpeedAttribute" : false
                                                    },
                                                    "animationTracks" : {

                                                    }
                                                  },
                                                  {
                                                    "id" : 3086,
                                                    "_type" : "IMFile",
                                                    "src" : 35,
                                                    "trackNumber" : 0,
                                                    "trimStartSum" : 0,
                                                    "attributes" : {
                                                      "ident" : "etcd-128"
                                                    },
                                                    "parameters" : {
                                                      "translation0" : -655.119501466745,
                                                      "translation1" : 120.373795393553
                                                    },
                                                    "effects" : [

                                                    ],
                                                    "start" : 19,
                                                    "duration" : 22,
                                                    "mediaStart" : 0,
                                                    "mediaDuration" : 1,
                                                    "scalar" : 1,
                                                    "metadata" : {
                                                      "clipSpeedAttribute" : false
                                                    },
                                                    "animationTracks" : {

                                                    }
                                                  },
                                                  {
                                                    "id" : 3087,
                                                    "_type" : "IMFile",
                                                    "src" : 36,
                                                    "trackNumber" : 0,
                                                    "trimStartSum" : 0,
                                                    "attributes" : {
                                                      "ident" : "node-128"
                                                    },
                                                    "parameters" : {
                                                      "translation0" : -315.119501466444,
                                                      "translation1" : 135.818754449343
                                                    },
                                                    "effects" : [

                                                    ],
                                                    "start" : 41,
                                                    "duration" : 18,
                                                    "mediaStart" : 0,
                                                    "mediaDuration" : 1,
                                                    "scalar" : 1,
                                                    "metadata" : {
                                                      "clipSpeedAttribute" : false
                                                    },
                                                    "animationTracks" : {

                                                    }
                                                  },
                                                  {
                                                    "id" : 3088,
                                                    "_type" : "IMFile",
                                                    "src" : 37,
                                                    "trackNumber" : 0,
                                                    "trimStartSum" : 0,
                                                    "attributes" : {
                                                      "ident" : "ns-128"
                                                    },
                                                    "parameters" : {
                                                      "translation0" : -345.11950146672,
                                                      "translation1" : 158.121434428201
                                                    },
                                                    "effects" : [

                                                    ],
                                                    "start" : 59,
                                                    "duration" : 23,
                                                    "mediaStart" : 0,
                                                    "mediaDuration" : 1,
                                                    "scalar" : 1,
                                                    "metadata" : {
                                                      "clipSpeedAttribute" : false
                                                    },
                                                    "animationTracks" : {

                                                    }
                                                  },
                                                  {
                                                    "id" : 3089,
                                                    "_type" : "IMFile",
                                                    "src" : 38,
                                                    "trackNumber" : 0,
                                                    "trimStartSum" : 0,
                                                    "attributes" : {
                                                      "ident" : "pod-128"
                                                    },
                                                    "parameters" : {
                                                      "translation0" : -91.1195014666742,
                                                      "translation1" : 100.121434428219
                                                    },
                                                    "effects" : [

                                                    ],
                                                    "start" : 82,
                                                    "duration" : 16,
                                                    "mediaStart" : 0,
                                                    "mediaDuration" : 1,
                                                    "scalar" : 1,
                                                    "metadata" : {
                                                      "clipSpeedAttribute" : false
                                                    },
                                                    "animationTracks" : {

                                                    }
                                                  },
                                                  {
                                                    "id" : 3090,
                                                    "_type" : "IMFile",
                                                    "src" : 39,
                                                    "trackNumber" : 0,
                                                    "trimStartSum" : 0,
                                                    "attributes" : {
                                                      "ident" : "secret-128"
                                                    },
                                                    "parameters" : {
                                                      "translation0" : -1.11950146666447,
                                                      "translation1" : 140.121434428194
                                                    },
                                                    "effects" : [

                                                    ],
                                                    "start" : 98,
                                                    "duration" : 17,
                                                    "mediaStart" : 0,
                                                    "mediaDuration" : 1,
                                                    "scalar" : 1,
                                                    "metadata" : {
                                                      "clipSpeedAttribute" : false
                                                    },
                                                    "animationTracks" : {

                                                    }
                                                  },
                                                  {
                                                    "id" : 3091,
                                                    "_type" : "IMFile",
                                                    "src" : 40,
                                                    "trackNumber" : 0,
                                                    "trimStartSum" : 0,
                                                    "attributes" : {
                                                      "ident" : "svc-128"
                                                    },
                                                    "parameters" : {
                                                      "translation0" : 258.880498533338,
                                                      "translation1" : 112.121434428216
                                                    },
                                                    "effects" : [

                                                    ],
                                                    "start" : 115,
                                                    "duration" : 14,
                                                    "mediaStart" : 0,
                                                    "mediaDuration" : 1,
                                                    "scalar" : 1,
                                                    "metadata" : {
                                                      "clipSpeedAttribute" : false
                                                    },
                                                    "animationTracks" : {

                                                    }
                                                  },
                                                  {
                                                    "id" : 3092,
                                                    "_type" : "IMFile",
                                                    "src" : 40,
                                                    "trackNumber" : 0,
                                                    "trimStartSum" : 0,
                                                    "attributes" : {
                                                      "ident" : "svc-128"
                                                    },
                                                    "parameters" : {
                                                      "translation0" : 346.880498533407,
                                                      "translation1" : 120.121434428205
                                                    },
                                                    "effects" : [

                                                    ],
                                                    "start" : 129,
                                                    "duration" : 14,
                                                    "mediaStart" : 0,
                                                    "mediaDuration" : 1,
                                                    "scalar" : 1,
                                                    "metadata" : {
                                                      "clipSpeedAttribute" : false
                                                    },
                                                    "animationTracks" : {

                                                    }
                                                  },
                                                  {
                                                    "id" : 3093,
                                                    "_type" : "IMFile",
                                                    "src" : 41,
                                                    "trackNumber" : 0,
                                                    "trimStartSum" : 0,
                                                    "attributes" : {
                                                      "ident" : "rs-128"
                                                    },
                                                    "parameters" : {
                                                      "translation0" : 480.880498533387,
                                                      "translation1" : 158.1214344282
                                                    },
                                                    "effects" : [

                                                    ],
                                                    "start" : 143,
                                                    "duration" : 13,
                                                    "mediaStart" : 0,
                                                    "mediaDuration" : 1,
                                                    "scalar" : 1,
                                                    "metadata" : {
                                                      "clipSpeedAttribute" : false
                                                    },
                                                    "animationTracks" : {

                                                    }
                                                  },
                                                  {
                                                    "id" : 3094,
                                                    "_type" : "IMFile",
                                                    "src" : 42,
                                                    "trackNumber" : 0,
                                                    "trimStartSum" : 0,
                                                    "attributes" : {
                                                      "ident" : "vol-128"
                                                    },
                                                    "parameters" : {
                                                      "translation0" : 560.880498533409,
                                                      "translation1" : 136.121434428193
                                                    },
                                                    "effects" : [

                                                    ],
                                                    "start" : 156,
                                                    "duration" : 14,
                                                    "mediaStart" : 0,
                                                    "mediaDuration" : 1,
                                                    "scalar" : 1,
                                                    "metadata" : {
                                                      "clipSpeedAttribute" : false
                                                    },
                                                    "animationTracks" : {

                                                    }
                                                  },
                                                  {
                                                    "id" : 3095,
                                                    "_type" : "IMFile",
                                                    "src" : 43,
                                                    "trackNumber" : 0,
                                                    "trimStartSum" : 0,
                                                    "attributes" : {
                                                      "ident" : "deploy-128"
                                                    },
                                                    "parameters" : {
                                                      "translation0" : 716.880498533367,
                                                      "translation1" : 84.1214344281821
                                                    },
                                                    "effects" : [

                                                    ],
                                                    "start" : 170,
                                                    "duration" : 13,
                                                    "mediaStart" : 0,
                                                    "mediaDuration" : 1,
                                                    "scalar" : 1,
                                                    "metadata" : {
                                                      "clipSpeedAttribute" : false
                                                    },
                                                    "animationTracks" : {

                                                    }
                                                  },
                                                  {
                                                    "id" : 3096,
                                                    "_type" : "IMFile",
                                                    "src" : 44,
                                                    "trackNumber" : 0,
                                                    "trimStartSum" : 0,
                                                    "attributes" : {
                                                      "ident" : "cronjob-128"
                                                    },
                                                    "parameters" : {
                                                      "translation0" : 870.880498533812,
                                                      "translation1" : 135.81875444932
                                                    },
                                                    "effects" : [

                                                    ],
                                                    "start" : 183,
                                                    "duration" : 17,
                                                    "mediaStart" : 0,
                                                    "mediaDuration" : 1,
                                                    "scalar" : 1,
                                                    "metadata" : {
                                                      "clipSpeedAttribute" : false
                                                    },
                                                    "animationTracks" : {

                                                    }
                                                  }
                                                ],
                                                  "ident" : "",
                                                  "audioMuted" : false,
                                                  "videoHidden" : false,
                                                  "magnetic" : false,
                                                  "matte" : 0,
                                                  "metadata" : {
                                                    "IsLocked" : "False",
                                                    "WinTrackHeight" : "3.6077993365582e-314"
                                                  }
                                              }
                                            ],
                                            "attributes" : {
                                              "ident" : "Group 1",
                                              "gain" : 1.0,
                                              "mixToMono" : false
                                            },
                                            "effects" : [

                                            ],
                                            "start" : 0,
                                            "duration" : 200,
                                            "mediaStart" : 0.0,
                                            "mediaDuration" : 200.0,
                                            "scalar" : 1,
                                            "metadata" : {
                                              "IsGroupExpanded" : "False"
                                            },
                                            "animationTracks" : {

                                            }
                                          }
                                        ],
                                          "ident" : "",
                                          "audioMuted" : false,
                                          "videoHidden" : false,
                                          "magnetic" : false,
                                          "matte" : 0,
                                          "metadata" : {
                                            "IsLocked" : "False",
                                            "WinTrackHeight" : "0"
                                          }
                                      },
                                      {
                                        "trackIndex" : 1,
                                        "medias" : [
                                          {
                                            "id" : 3097,
                                            "_type" : "IMFile",
                                            "src" : 45,
                                            "trackNumber" : 0,
                                            "trimStartSum" : 0,
                                            "attributes" : {
                                              "ident" : "k8sfavicon"
                                            },
                                            "parameters" : {
                                              "translation0" : -822.559750733209,
                                              "translation1" : 466.970094438544,
                                              "scale0" : 0.335937500000757,
                                              "scale1" : 0.335937500000757
                                            },
                                            "effects" : [

                                            ],
                                            "start" : 0,
                                            "duration" : 200,
                                            "mediaStart" : 0,
                                            "mediaDuration" : 1,
                                            "scalar" : 1,
                                            "metadata" : {
                                              "clipSpeedAttribute" : false
                                            },
                                            "animationTracks" : {

                                            }
                                          }
                                        ],
                                          "ident" : "",
                                          "audioMuted" : false,
                                          "videoHidden" : false,
                                          "magnetic" : false,
                                          "matte" : 0,
                                          "metadata" : {
                                            "IsLocked" : "False",
                                            "WinTrackHeight" : "3.6077993365582e-314"
                                          }
                                      }
                                    ],
                                    "attributes" : {
                                      "ident" : "Group 2",
                                      "gain" : 1.0,
                                      "mixToMono" : false
                                    },
                                    "effects" : [

                                    ],
                                    "start" : 0,
                                    "duration" : 200,
                                    "mediaStart" : 0.0,
                                    "mediaDuration" : 200.0,
                                    "scalar" : 1,
                                    "metadata" : {
                                      "IsGroupExpanded" : "False"
                                    },
                                    "animationTracks" : {

                                    }
                                  }
                                ],
                                  "ident" : "",
                                  "audioMuted" : false,
                                  "videoHidden" : false,
                                  "magnetic" : false,
                                  "matte" : 0,
                                  "metadata" : {
                                    "IsLocked" : "False",
                                    "WinTrackHeight" : "0"
                                  }
                              },
                              {
                                "trackIndex" : 1,
                                "medias" : [
                                  {
                                    "id" : 3098,
                                    "_type" : "AMFile",
                                    "src" : 46,
                                    "trackNumber" : 0,
                                    "attributes" : {
                                      "ident" : "wave",
                                      "gain" : 1.0,
                                      "mixToMono" : false
                                    },
                                      "channelNumber" : "0,1",
                                    "parameters" : {
                                      "volume" : {
                                        "type" : "double",
                                        "keyframes" : [
                                          {
                                            "endTime" : -1,
                                            "time" : -1,
                                            "value" : 1.0,
                                            "duration" : 0
                                          },
                                          {
                                            "endTime" : 0,
                                            "time" : 0,
                                            "value" : 0.0,
                                            "duration" : 0
                                          },
                                          {
                                            "endTime" : 51,
                                            "time" : 51,
                                            "value" : 0.5,
                                            "duration" : 0
                                          }
                                        ]
                                      }
                                    },
                                    "effects" : [

                                    ],
                                    "start" : 0,
                                    "duration" : 103,
                                    "mediaStart" : 0,
                                    "mediaDuration" : 103,
                                    "scalar" : 1,
                                    "metadata" : {
                                      "clipSpeedAttribute" : false
                                    },
                                    "animationTracks" : {

                                    }
                                  },
                                  {
                                    "id" : 3099,
                                    "_type" : "AMFile",
                                    "src" : 46,
                                    "trackNumber" : 0,
                                    "attributes" : {
                                      "ident" : "wave",
                                      "gain" : 1.0,
                                      "mixToMono" : false
                                    },
                                      "channelNumber" : "0,1",
                                    "parameters" : {
                                      "volume" : {
                                        "type" : "double",
                                        "keyframes" : [
                                          {
                                            "endTime" : 0,
                                            "time" : 0,
                                            "value" : 0.823930776854464,
                                            "duration" : 0
                                          },
                                          {
                                            "endTime" : 115,
                                            "time" : 115,
                                            "value" : 0.400853853777541,
                                            "duration" : 0
                                          },
                                          {
                                            "endTime" : 200,
                                            "time" : 200,
                                            "value" : 0.0,
                                            "duration" : 0
                                          },
                                          {
                                            "endTime" : 201,
                                            "time" : 201,
                                            "value" : 1.0,
                                            "duration" : 0
                                          }
                                        ]
                                      }
                                    },
                                    "effects" : [

                                    ],
                                    "start" : 103,
                                    "duration" : 97,
                                    "mediaStart" : 103,
                                    "mediaDuration" : 97,
                                    "scalar" : 1,
                                    "metadata" : {
                                      "clipSpeedAttribute" : false
                                    },
                                    "animationTracks" : {

                                    }
                                  }
                                ],
                                  "ident" : "",
                                  "audioMuted" : false,
                                  "videoHidden" : false,
                                  "magnetic" : false,
                                  "matte" : 0,
                                  "metadata" : {
                                    "IsLocked" : "False",
                                    "WinTrackHeight" : "2.26715762571713e-312"
                                  }
                              }
                            ],
                            "attributes" : {
                              "ident" : "Group 1",
                              "gain" : 1.0,
                              "mixToMono" : false
                            },
                            "effects" : [

                            ],
                            "start" : 0,
                            "duration" : 200,
                            "mediaStart" : 0.0,
                            "mediaDuration" : 200.0,
                            "scalar" : 1,
                            "metadata" : {
                              "IsGroupExpanded" : "False"
                            },
                            "animationTracks" : {

                            }
                          }
                        ],
                          "ident" : "",
                          "audioMuted" : false,
                          "videoHidden" : false,
                          "magnetic" : false,
                          "matte" : 0,
                          "metadata" : {
                            "IsLocked" : "False",
                            "WinTrackHeight" : "2.73418318563755e-312"
                          }
                      }
                    ],
                    "attributes" : {
                      "ident" : "start",
                      "gain" : 1.0,
                      "mixToMono" : false
                    },
                    "effects" : [

                    ],
                    "start" : 0,
                    "duration" : 200,
                    "mediaStart" : 0.0,
                    "mediaDuration" : 200.0,
                    "scalar" : 1,
                    "metadata" : {
                      "IsGroupExpanded" : "False"
                    },
                    "animationTracks" : {

                    }
                  },
                  {
                    "id" : 3100,
                    "_type" : "Group",
                    "parameters" : {
                      "volume" : 1.0
                    },
                    "tracks" : [
                      {
                        "trackIndex" : 0,
                        "medias" : [
                          {
                            "id" : 3101,
                            "_type" : "Callout",
                            "def" : {
                              "kind" : "remix",
                              "shape" : "text",
                              "style" : "basic",
                              "height" : 294.0,
                              "line-spacing" : 0.0,
                              "width" : 1174.38904109587,
                              "word-wrap" : 1.0,
                              "horizontal-alignment" : "center",
                              "resize-behavior" : "resizeText",
                              "text" : "Thanks",
                              "vertical-alignment" : "center",
                              "font" : {
                                "color-blue" : 1.0,
                                "color-green" : 1.0,
                                "color-red" : 1.0,
                                "size" : 96.0,
                                "tracking" : 0.0,
                                "name" : "Montserrat",
                                "weight" : "Regular"
                              },
                              "textAttributes" : {
                                "type" : "textAttributeList",
                                "keyframes" : [
                                  {
                                    "endTime" : 0,
                                    "time" : 0,
                                    "value" : [{"name":"fontWeight","rangeEnd":6,"rangeStart":0,"value":700,"valueType":"int"},{"name":"fontName","rangeEnd":6,"rangeStart":0,"value":"Montserrat","valueType":"string"},{"name":"fontItalic","rangeEnd":6,"rangeStart":0,"value":0,"valueType":"int"},{"name":"kerning","rangeEnd":6,"rangeStart":0,"value":0,"valueType":"double"},{"name":"strikethrough","rangeEnd":6,"rangeStart":0,"value":0,"valueType":"int"},{"name":"fgColor","rangeEnd":6,"rangeStart":0,"value":"(50,108,229,255)","valueType":"color"},{"name":"underline","rangeEnd":6,"rangeStart":0,"value":0,"valueType":"int"},{"name":"fontSize","rangeEnd":6,"rangeStart":0,"value":240,"valueType":"double"}],
                                    "duration" : 0
                                  }
                                ]
                              }
                            },
                            "attributes" : {
                              "autoRotateText" : true
                            },
                            "parameters" : {
                              "translation0" : -22.4178082191042,
                              "translation1" : 1.319122588261e-11
                            },
                            "effects" : [
                                {
                                  "_type" : "GenericBehaviorEffect",
                                  "effectName" : "pulsating",
                                  "start" : -102,
                                  "duration" : 200                                ,
                                  "in" : {
                                    "attributes" : {
                                      "name" : "grow",
                                      "type" : 1,
                                      "characterOrder" : 6,
                                      "offsetBetweenCharacters" : 1,
                                      "suggestedDurationPerCharacter" : 18,
                                      "overlapProportion" : "3/4",
                                      "movement" : 30,
                                      "springDamping" : 5.0,
                                      "springStiffness" : 50.0,
                                      "bounceBounciness" : 0.45
                                    }
                                  
                                  },
                                  "center" : {
                                    "attributes" : {
                                      "name" : "pulsate",
                                      "type" : 1,
                                      "characterOrder" : 6,
                                      "offsetBetweenCharacters" : "21/10",
                                      "secondsPerLoop" : 1,
                                      "numberOfLoops" : -1,
                                      "delayBetweenLoops" : 0,
                                      "offsetBetweenCharacters" : "21/10"
                                    },
                                    "parameters" : {
                                      "movement" : {
                                        "type" : "int",
                                        "valueBounds" : {
                                          "minValue" : 0,
                                          "maxValue" : 31,
                                          "defaultValue" : 27
                                        },
                                        "uiHints" : {
                                          "userInterfaceType" : 4,
                                          "unitType" : 0
                                        },
                                        "keyframes" : [
                                          {
                                            "endTime" : 0,
                                            "time" : 0,
                                            "value" : 27,
                                            "duration" : 0
                                          }
                                        ]
                                      },
                                      "scale" : {
                                        "type" : "double",
                                        "defaultValue" : 1.08,
                                        "valueBounds" : {
                                          "minValue" : 0.01,
                                          "maxValue" : 2.0,
                                          "defaultValue" : 1.08
                                        },
                                        "uiHints" : {
                                          "userInterfaceType" : 1,
                                          "unitType" : 1
                                        }
                                      }
                                    }
                                  
                                  },
                                  "out" : {
                                    "attributes" : {
                                      "name" : "shrink",
                                      "type" : 1,
                                      "characterOrder" : 6,
                                      "offsetBetweenCharacters" : 1,
                                      "suggestedDurationPerCharacter" : "29/2",
                                      "overlapProportion" : "1/10",
                                      "movement" : 11,
                                      "springDamping" : 5.0,
                                      "springStiffness" : 50.0,
                                      "bounceBounciness" : 0.45
                                    }
                                  
                                  }
                                }
                            ],
                            "start" : 0,
                            "duration" : 103,
                            "mediaStart" : -102,
                            "mediaDuration" : 103,
                            "scalar" : 1,
                            "metadata" : {
                              "clipSpeedAttribute" : false
                            },
                            "animationTracks" : {

                            }
                          },
                          {
                            "id" : 3102,
                            "_type" : "Callout",
                            "def" : {
                              "kind" : "remix",
                              "shape" : "text",
                              "style" : "basic",
                              "height" : 294.0,
                              "line-spacing" : 0.0,
                              "width" : 1174.38904109587,
                              "word-wrap" : 1.0,
                              "horizontal-alignment" : "center",
                              "resize-behavior" : "resizeText",
                              "text" : "Thanks",
                              "vertical-alignment" : "center",
                              "font" : {
                                "color-blue" : 1.0,
                                "color-green" : 1.0,
                                "color-red" : 1.0,
                                "size" : 96.0,
                                "tracking" : 0.0,
                                "name" : "Montserrat",
                                "weight" : "Regular"
                              },
                              "textAttributes" : {
                                "type" : "textAttributeList",
                                "keyframes" : [
                                  {
                                    "endTime" : 0,
                                    "time" : 0,
                                    "value" : [{"name":"fontName","rangeEnd":6,"rangeStart":0,"value":"Montserrat","valueType":"string"},{"name":"kerning","rangeEnd":6,"rangeStart":0,"value":0,"valueType":"double"},{"name":"strikethrough","rangeEnd":6,"rangeStart":0,"value":0,"valueType":"int"},{"name":"fontSize","rangeEnd":6,"rangeStart":0,"value":240,"valueType":"double"},{"name":"fontItalic","rangeEnd":6,"rangeStart":0,"value":0,"valueType":"int"},{"name":"fontWeight","rangeEnd":6,"rangeStart":0,"value":700,"valueType":"int"},{"name":"fgColor","rangeEnd":6,"rangeStart":0,"value":"(50,108,229,255)","valueType":"color"},{"name":"underline","rangeEnd":6,"rangeStart":0,"value":0,"valueType":"int"}],
                                    "duration" : 0
                                  }
                                ]
                              }
                            },
                            "attributes" : {
                              "autoRotateText" : true
                            },
                            "parameters" : {
                              "translation0" : -74.4178082188969,
                              "translation1" : 4.13429290734252e-11
                            },
                            "effects" : [
                                {
                                  "_type" : "GenericBehaviorEffect",
                                  "effectName" : "pulsating",
                                  "start" : -102,
                                  "duration" : 200                                ,
                                  "in" : {
                                    "attributes" : {
                                      "name" : "grow",
                                      "type" : 1,
                                      "characterOrder" : 6,
                                      "offsetBetweenCharacters" : 1,
                                      "suggestedDurationPerCharacter" : 18,
                                      "overlapProportion" : "3/4",
                                      "movement" : 30,
                                      "springDamping" : 5.0,
                                      "springStiffness" : 50.0,
                                      "bounceBounciness" : 0.45
                                    }
                                  
                                  },
                                  "center" : {
                                    "attributes" : {
                                      "name" : "pulsate",
                                      "type" : 1,
                                      "characterOrder" : 6,
                                      "offsetBetweenCharacters" : "21/10",
                                      "secondsPerLoop" : 1,
                                      "numberOfLoops" : -1,
                                      "delayBetweenLoops" : 0,
                                      "offsetBetweenCharacters" : "21/10"
                                    },
                                    "parameters" : {
                                      "movement" : {
                                        "type" : "int",
                                        "valueBounds" : {
                                          "minValue" : 0,
                                          "maxValue" : 31,
                                          "defaultValue" : 27
                                        },
                                        "uiHints" : {
                                          "userInterfaceType" : 4,
                                          "unitType" : 0
                                        },
                                        "keyframes" : [
                                          {
                                            "endTime" : 0,
                                            "time" : 0,
                                            "value" : 27,
                                            "duration" : 0
                                          }
                                        ]
                                      },
                                      "scale" : {
                                        "type" : "double",
                                        "defaultValue" : 1.08,
                                        "valueBounds" : {
                                          "minValue" : 0.01,
                                          "maxValue" : 2.0,
                                          "defaultValue" : 1.08
                                        },
                                        "uiHints" : {
                                          "userInterfaceType" : 1,
                                          "unitType" : 1
                                        }
                                      }
                                    }
                                  
                                  },
                                  "out" : {
                                    "attributes" : {
                                      "name" : "shrink",
                                      "type" : 1,
                                      "characterOrder" : 6,
                                      "offsetBetweenCharacters" : 1,
                                      "suggestedDurationPerCharacter" : "29/2",
                                      "overlapProportion" : "1/10",
                                      "movement" : 11,
                                      "springDamping" : 5.0,
                                      "springStiffness" : 50.0,
                                      "bounceBounciness" : 0.45
                                    }
                                  
                                  }
                                }
                            ],
                            "start" : 103,
                            "duration" : 97,
                            "mediaStart" : 1,
                            "mediaDuration" : 97,
                            "scalar" : 1,
                            "metadata" : {
                              "clipSpeedAttribute" : false
                            },
                            "animationTracks" : {

                            }
                          }
                        ],
                          "ident" : "",
                          "audioMuted" : false,
                          "videoHidden" : false,
                          "magnetic" : false,
                          "matte" : 0,
                          "metadata" : {
                            "IsLocked" : "False",
                            "WinTrackHeight" : "0"
                          }
                      },
                      {
                        "trackIndex" : 1,
                        "medias" : [
                          {
                            "id" : 3103,
                            "_type" : "Group",
                            "parameters" : {
                              "translation0" : 0.559750733332294,
                              "translation1" : -34.4850472193567,
                              "volume" : 1.0
                            },
                            "tracks" : [
                              {
                                "trackIndex" : 0,
                                "medias" : [
                                  {
                                    "id" : 3104,
                                    "_type" : "Group",
                                    "parameters" : {
                                      "translation0" : 4.44089209850063e-16,
                                      "translation1" : -34.4850472193565,
                                      "volume" : 1.0
                                    },
                                    "tracks" : [
                                      {
                                        "trackIndex" : 0,
                                        "medias" : [
                                          {
                                            "id" : 3105,
                                            "_type" : "Group",
                                            "parameters" : {
                                              "translation0" : 0.55975073333218,
                                              "translation1" : -289.15133998951,
                                              "volume" : 1.0
                                            },
                                            "tracks" : [
                                              {
                                                "trackIndex" : 0,
                                                "medias" : [
                                                  {
                                                    "id" : 3106,
                                                    "_type" : "IMFile",
                                                    "src" : 47,
                                                    "trackNumber" : 0,
                                                    "trimStartSum" : 0,
                                                    "attributes" : {
                                                      "ident" : "wave1"
                                                    },
                                                    "parameters" : {
                                                      "translation0" : -2.11950146613311,
                                                      "translation1" : 8.96940103546206,
                                                      "scale0" : 1.02884111169424,
                                                      "scale1" : 1.02884111169424
                                                    },
                                                    "effects" : [

                                                    ],
                                                    "start" : 0,
                                                    "duration" : 6,
                                                    "mediaStart" : 0,
                                                    "mediaDuration" : 1,
                                                    "scalar" : 1,
                                                    "metadata" : {
                                                      "clipSpeedAttribute" : false
                                                    },
                                                    "animationTracks" : {

                                                    }
                                                  },
                                                  {
                                                    "id" : 3107,
                                                    "_type" : "IMFile",
                                                    "src" : 48,
                                                    "trackNumber" : 0,
                                                    "trimStartSum" : 0,
                                                    "attributes" : {
                                                      "ident" : "wave2"
                                                    },
                                                    "parameters" : {
                                                      "translation0" : 0.880498533167186,
                                                      "translation1" : -88.087642172052,
                                                      "scale0" : 1.03068101042332,
                                                      "scale1" : 1.03068101042332
                                                    },
                                                    "effects" : [

                                                    ],
                                                    "start" : 6,
                                                    "duration" : 6,
                                                    "mediaStart" : 0,
                                                    "mediaDuration" : 1,
                                                    "scalar" : 1,
                                                    "metadata" : {
                                                      "clipSpeedAttribute" : false
                                                    },
                                                    "animationTracks" : {

                                                    }
                                                  },
                                                  {
                                                    "id" : 3108,
                                                    "_type" : "IMFile",
                                                    "src" : 49,
                                                    "trackNumber" : 0,
                                                    "trimStartSum" : 0,
                                                    "attributes" : {
                                                      "ident" : "wave3"
                                                    },
                                                    "parameters" : {
                                                      "translation0" : -1.11950146655987,
                                                      "translation1" : 8.12143442823202,
                                                      "scale0" : 1.00893326326855,
                                                      "scale1" : 1.00893326326855
                                                    },
                                                    "effects" : [

                                                    ],
                                                    "start" : 12,
                                                    "duration" : 7,
                                                    "mediaStart" : 0,
                                                    "mediaDuration" : 1,
                                                    "scalar" : 1,
                                                    "metadata" : {
                                                      "clipSpeedAttribute" : false
                                                    },
                                                    "animationTracks" : {

                                                    }
                                                  },
                                                  {
                                                    "id" : 3109,
                                                    "_type" : "IMFile",
                                                    "src" : 47,
                                                    "trackNumber" : 0,
                                                    "trimStartSum" : 0,
                                                    "attributes" : {
                                                      "ident" : "wave1"
                                                    },
                                                    "parameters" : {
                                                      "translation0" : -2.11950146613311,
                                                      "translation1" : 8.96940103546206,
                                                      "scale0" : 1.02884111169424,
                                                      "scale1" : 1.02884111169424
                                                    },
                                                    "effects" : [

                                                    ],
                                                    "start" : 19,
                                                    "duration" : 6,
                                                    "mediaStart" : 0,
                                                    "mediaDuration" : 1,
                                                    "scalar" : 1,
                                                    "metadata" : {
                                                      "clipSpeedAttribute" : false
                                                    },
                                                    "animationTracks" : {

                                                    }
                                                  },
                                                  {
                                                    "id" : 3110,
                                                    "_type" : "IMFile",
                                                    "src" : 48,
                                                    "trackNumber" : 0,
                                                    "trimStartSum" : 0,
                                                    "attributes" : {
                                                      "ident" : "wave2"
                                                    },
                                                    "parameters" : {
                                                      "translation0" : 0.880498533167186,
                                                      "translation1" : -88.087642172052,
                                                      "scale0" : 1.03068101042332,
                                                      "scale1" : 1.03068101042332
                                                    },
                                                    "effects" : [

                                                    ],
                                                    "start" : 25,
                                                    "duration" : 6,
                                                    "mediaStart" : 0,
                                                    "mediaDuration" : 1,
                                                    "scalar" : 1,
                                                    "metadata" : {
                                                      "clipSpeedAttribute" : false
                                                    },
                                                    "animationTracks" : {

                                                    }
                                                  },
                                                  {
                                                    "id" : 3111,
                                                    "_type" : "IMFile",
                                                    "src" : 49,
                                                    "trackNumber" : 0,
                                                    "trimStartSum" : 0,
                                                    "attributes" : {
                                                      "ident" : "wave3"
                                                    },
                                                    "parameters" : {
                                                      "translation0" : -1.11950146655987,
                                                      "translation1" : 8.12143442823202,
                                                      "scale0" : 1.00893326326855,
                                                      "scale1" : 1.00893326326855
                                                    },
                                                    "effects" : [

                                                    ],
                                                    "start" : 31,
                                                    "duration" : 7,
                                                    "mediaStart" : 0,
                                                    "mediaDuration" : 1,
                                                    "scalar" : 1,
                                                    "metadata" : {
                                                      "clipSpeedAttribute" : false
                                                    },
                                                    "animationTracks" : {

                                                    }
                                                  },
                                                  {
                                                    "id" : 3112,
                                                    "_type" : "IMFile",
                                                    "src" : 47,
                                                    "trackNumber" : 0,
                                                    "trimStartSum" : 0,
                                                    "attributes" : {
                                                      "ident" : "wave1"
                                                    },
                                                    "parameters" : {
                                                      "translation0" : -2.11950146613311,
                                                      "translation1" : 8.96940103546206,
                                                      "scale0" : 1.02884111169424,
                                                      "scale1" : 1.02884111169424
                                                    },
                                                    "effects" : [

                                                    ],
                                                    "start" : 38,
                                                    "duration" : 6,
                                                    "mediaStart" : 0,
                                                    "mediaDuration" : 1,
                                                    "scalar" : 1,
                                                    "metadata" : {
                                                      "clipSpeedAttribute" : false
                                                    },
                                                    "animationTracks" : {

                                                    }
                                                  },
                                                  {
                                                    "id" : 3113,
                                                    "_type" : "IMFile",
                                                    "src" : 48,
                                                    "trackNumber" : 0,
                                                    "trimStartSum" : 0,
                                                    "attributes" : {
                                                      "ident" : "wave2"
                                                    },
                                                    "parameters" : {
                                                      "translation0" : 0.880498533167186,
                                                      "translation1" : -88.087642172052,
                                                      "scale0" : 1.03068101042332,
                                                      "scale1" : 1.03068101042332
                                                    },
                                                    "effects" : [

                                                    ],
                                                    "start" : 44,
                                                    "duration" : 6,
                                                    "mediaStart" : 0,
                                                    "mediaDuration" : 1,
                                                    "scalar" : 1,
                                                    "metadata" : {
                                                      "clipSpeedAttribute" : false
                                                    },
                                                    "animationTracks" : {

                                                    }
                                                  },
                                                  {
                                                    "id" : 3114,
                                                    "_type" : "IMFile",
                                                    "src" : 49,
                                                    "trackNumber" : 0,
                                                    "trimStartSum" : 0,
                                                    "attributes" : {
                                                      "ident" : "wave3"
                                                    },
                                                    "parameters" : {
                                                      "translation0" : -1.11950146655987,
                                                      "translation1" : 8.12143442823202,
                                                      "scale0" : 1.00893326326855,
                                                      "scale1" : 1.00893326326855
                                                    },
                                                    "effects" : [

                                                    ],
                                                    "start" : 50,
                                                    "duration" : 7,
                                                    "mediaStart" : 0,
                                                    "mediaDuration" : 1,
                                                    "scalar" : 1,
                                                    "metadata" : {
                                                      "clipSpeedAttribute" : false
                                                    },
                                                    "animationTracks" : {

                                                    }
                                                  },
                                                  {
                                                    "id" : 3115,
                                                    "_type" : "IMFile",
                                                    "src" : 47,
                                                    "trackNumber" : 0,
                                                    "trimStartSum" : 0,
                                                    "attributes" : {
                                                      "ident" : "wave1"
                                                    },
                                                    "parameters" : {
                                                      "translation0" : -2.11950146613311,
                                                      "translation1" : 8.96940103546206,
                                                      "scale0" : 1.02884111169424,
                                                      "scale1" : 1.02884111169424
                                                    },
                                                    "effects" : [

                                                    ],
                                                    "start" : 57,
                                                    "duration" : 6,
                                                    "mediaStart" : 0,
                                                    "mediaDuration" : 1,
                                                    "scalar" : 1,
                                                    "metadata" : {
                                                      "clipSpeedAttribute" : false
                                                    },
                                                    "animationTracks" : {

                                                    }
                                                  },
                                                  {
                                                    "id" : 3116,
                                                    "_type" : "IMFile",
                                                    "src" : 48,
                                                    "trackNumber" : 0,
                                                    "trimStartSum" : 0,
                                                    "attributes" : {
                                                      "ident" : "wave2"
                                                    },
                                                    "parameters" : {
                                                      "translation0" : 0.880498533167186,
                                                      "translation1" : -88.087642172052,
                                                      "scale0" : 1.03068101042332,
                                                      "scale1" : 1.03068101042332
                                                    },
                                                    "effects" : [

                                                    ],
                                                    "start" : 63,
                                                    "duration" : 6,
                                                    "mediaStart" : 0,
                                                    "mediaDuration" : 1,
                                                    "scalar" : 1,
                                                    "metadata" : {
                                                      "clipSpeedAttribute" : false
                                                    },
                                                    "animationTracks" : {

                                                    }
                                                  },
                                                  {
                                                    "id" : 3117,
                                                    "_type" : "IMFile",
                                                    "src" : 49,
                                                    "trackNumber" : 0,
                                                    "trimStartSum" : 0,
                                                    "attributes" : {
                                                      "ident" : "wave3"
                                                    },
                                                    "parameters" : {
                                                      "translation0" : -1.11950146655987,
                                                      "translation1" : 8.12143442823202,
                                                      "scale0" : 1.00893326326855,
                                                      "scale1" : 1.00893326326855
                                                    },
                                                    "effects" : [

                                                    ],
                                                    "start" : 69,
                                                    "duration" : 7,
                                                    "mediaStart" : 0,
                                                    "mediaDuration" : 1,
                                                    "scalar" : 1,
                                                    "metadata" : {
                                                      "clipSpeedAttribute" : false
                                                    },
                                                    "animationTracks" : {

                                                    }
                                                  },
                                                  {
                                                    "id" : 3118,
                                                    "_type" : "IMFile",
                                                    "src" : 47,
                                                    "trackNumber" : 0,
                                                    "trimStartSum" : 0,
                                                    "attributes" : {
                                                      "ident" : "wave1"
                                                    },
                                                    "parameters" : {
                                                      "translation0" : -2.11950146613311,
                                                      "translation1" : 8.96940103546206,
                                                      "scale0" : 1.02884111169424,
                                                      "scale1" : 1.02884111169424
                                                    },
                                                    "effects" : [

                                                    ],
                                                    "start" : 76,
                                                    "duration" : 6,
                                                    "mediaStart" : 0,
                                                    "mediaDuration" : 1,
                                                    "scalar" : 1,
                                                    "metadata" : {
                                                      "clipSpeedAttribute" : false
                                                    },
                                                    "animationTracks" : {

                                                    }
                                                  },
                                                  {
                                                    "id" : 3119,
                                                    "_type" : "IMFile",
                                                    "src" : 48,
                                                    "trackNumber" : 0,
                                                    "trimStartSum" : 0,
                                                    "attributes" : {
                                                      "ident" : "wave2"
                                                    },
                                                    "parameters" : {
                                                      "translation0" : 0.880498533167186,
                                                      "translation1" : -88.087642172052,
                                                      "scale0" : 1.03068101042332,
                                                      "scale1" : 1.03068101042332
                                                    },
                                                    "effects" : [

                                                    ],
                                                    "start" : 82,
                                                    "duration" : 6,
                                                    "mediaStart" : 0,
                                                    "mediaDuration" : 1,
                                                    "scalar" : 1,
                                                    "metadata" : {
                                                      "clipSpeedAttribute" : false
                                                    },
                                                    "animationTracks" : {

                                                    }
                                                  },
                                                  {
                                                    "id" : 3120,
                                                    "_type" : "IMFile",
                                                    "src" : 49,
                                                    "trackNumber" : 0,
                                                    "trimStartSum" : 0,
                                                    "attributes" : {
                                                      "ident" : "wave3"
                                                    },
                                                    "parameters" : {
                                                      "translation0" : -1.11950146655987,
                                                      "translation1" : 8.12143442823202,
                                                      "scale0" : 1.00893326326855,
                                                      "scale1" : 1.00893326326855
                                                    },
                                                    "effects" : [

                                                    ],
                                                    "start" : 88,
                                                    "duration" : 7,
                                                    "mediaStart" : 0,
                                                    "mediaDuration" : 1,
                                                    "scalar" : 1,
                                                    "metadata" : {
                                                      "clipSpeedAttribute" : false
                                                    },
                                                    "animationTracks" : {

                                                    }
                                                  },
                                                  {
                                                    "id" : 3121,
                                                    "_type" : "IMFile",
                                                    "src" : 47,
                                                    "trackNumber" : 0,
                                                    "trimStartSum" : 0,
                                                    "attributes" : {
                                                      "ident" : "wave1"
                                                    },
                                                    "parameters" : {
                                                      "translation0" : -2.11950146613311,
                                                      "translation1" : 8.96940103546206,
                                                      "scale0" : 1.02884111169424,
                                                      "scale1" : 1.02884111169424
                                                    },
                                                    "effects" : [

                                                    ],
                                                    "start" : 95,
                                                    "duration" : 6,
                                                    "mediaStart" : 0,
                                                    "mediaDuration" : 1,
                                                    "scalar" : 1,
                                                    "metadata" : {
                                                      "clipSpeedAttribute" : false
                                                    },
                                                    "animationTracks" : {

                                                    }
                                                  },
                                                  {
                                                    "id" : 3122,
                                                    "_type" : "IMFile",
                                                    "src" : 48,
                                                    "trackNumber" : 0,
                                                    "trimStartSum" : 0,
                                                    "attributes" : {
                                                      "ident" : "wave2"
                                                    },
                                                    "parameters" : {
                                                      "translation0" : 0.880498533167186,
                                                      "translation1" : -88.087642172052,
                                                      "scale0" : 1.03068101042332,
                                                      "scale1" : 1.03068101042332
                                                    },
                                                    "effects" : [

                                                    ],
                                                    "start" : 101,
                                                    "duration" : 6,
                                                    "mediaStart" : 0,
                                                    "mediaDuration" : 1,
                                                    "scalar" : 1,
                                                    "metadata" : {
                                                      "clipSpeedAttribute" : false
                                                    },
                                                    "animationTracks" : {

                                                    }
                                                  },
                                                  {
                                                    "id" : 3123,
                                                    "_type" : "IMFile",
                                                    "src" : 49,
                                                    "trackNumber" : 0,
                                                    "trimStartSum" : 0,
                                                    "attributes" : {
                                                      "ident" : "wave3"
                                                    },
                                                    "parameters" : {
                                                      "translation0" : -1.11950146655987,
                                                      "translation1" : 8.12143442823202,
                                                      "scale0" : 1.00893326326855,
                                                      "scale1" : 1.00893326326855
                                                    },
                                                    "effects" : [

                                                    ],
                                                    "start" : 107,
                                                    "duration" : 7,
                                                    "mediaStart" : 0,
                                                    "mediaDuration" : 1,
                                                    "scalar" : 1,
                                                    "metadata" : {
                                                      "clipSpeedAttribute" : false
                                                    },
                                                    "animationTracks" : {

                                                    }
                                                  },
                                                  {
                                                    "id" : 3124,
                                                    "_type" : "IMFile",
                                                    "src" : 47,
                                                    "trackNumber" : 0,
                                                    "trimStartSum" : 0,
                                                    "attributes" : {
                                                      "ident" : "wave1"
                                                    },
                                                    "parameters" : {
                                                      "translation0" : -2.11950146613311,
                                                      "translation1" : 8.96940103546206,
                                                      "scale0" : 1.02884111169424,
                                                      "scale1" : 1.02884111169424
                                                    },
                                                    "effects" : [

                                                    ],
                                                    "start" : 114,
                                                    "duration" : 6,
                                                    "mediaStart" : 0,
                                                    "mediaDuration" : 1,
                                                    "scalar" : 1,
                                                    "metadata" : {
                                                      "clipSpeedAttribute" : false
                                                    },
                                                    "animationTracks" : {

                                                    }
                                                  },
                                                  {
                                                    "id" : 3125,
                                                    "_type" : "IMFile",
                                                    "src" : 48,
                                                    "trackNumber" : 0,
                                                    "trimStartSum" : 0,
                                                    "attributes" : {
                                                      "ident" : "wave2"
                                                    },
                                                    "parameters" : {
                                                      "translation0" : 0.880498533167186,
                                                      "translation1" : -88.087642172052,
                                                      "scale0" : 1.03068101042332,
                                                      "scale1" : 1.03068101042332
                                                    },
                                                    "effects" : [

                                                    ],
                                                    "start" : 120,
                                                    "duration" : 6,
                                                    "mediaStart" : 0,
                                                    "mediaDuration" : 1,
                                                    "scalar" : 1,
                                                    "metadata" : {
                                                      "clipSpeedAttribute" : false
                                                    },
                                                    "animationTracks" : {

                                                    }
                                                  },
                                                  {
                                                    "id" : 3126,
                                                    "_type" : "IMFile",
                                                    "src" : 49,
                                                    "trackNumber" : 0,
                                                    "trimStartSum" : 0,
                                                    "attributes" : {
                                                      "ident" : "wave3"
                                                    },
                                                    "parameters" : {
                                                      "translation0" : -1.11950146655987,
                                                      "translation1" : 8.12143442823202,
                                                      "scale0" : 1.00893326326855,
                                                      "scale1" : 1.00893326326855
                                                    },
                                                    "effects" : [

                                                    ],
                                                    "start" : 126,
                                                    "duration" : 7,
                                                    "mediaStart" : 0,
                                                    "mediaDuration" : 1,
                                                    "scalar" : 1,
                                                    "metadata" : {
                                                      "clipSpeedAttribute" : false
                                                    },
                                                    "animationTracks" : {

                                                    }
                                                  },
                                                  {
                                                    "id" : 3127,
                                                    "_type" : "IMFile",
                                                    "src" : 47,
                                                    "trackNumber" : 0,
                                                    "trimStartSum" : 0,
                                                    "attributes" : {
                                                      "ident" : "wave1"
                                                    },
                                                    "parameters" : {
                                                      "translation0" : -2.11950146613311,
                                                      "translation1" : 8.96940103546206,
                                                      "scale0" : 1.02884111169424,
                                                      "scale1" : 1.02884111169424
                                                    },
                                                    "effects" : [

                                                    ],
                                                    "start" : 133,
                                                    "duration" : 6,
                                                    "mediaStart" : 0,
                                                    "mediaDuration" : 1,
                                                    "scalar" : 1,
                                                    "metadata" : {
                                                      "clipSpeedAttribute" : false
                                                    },
                                                    "animationTracks" : {

                                                    }
                                                  },
                                                  {
                                                    "id" : 3128,
                                                    "_type" : "IMFile",
                                                    "src" : 48,
                                                    "trackNumber" : 0,
                                                    "trimStartSum" : 0,
                                                    "attributes" : {
                                                      "ident" : "wave2"
                                                    },
                                                    "parameters" : {
                                                      "translation0" : 0.880498533167186,
                                                      "translation1" : -88.087642172052,
                                                      "scale0" : 1.03068101042332,
                                                      "scale1" : 1.03068101042332
                                                    },
                                                    "effects" : [

                                                    ],
                                                    "start" : 139,
                                                    "duration" : 6,
                                                    "mediaStart" : 0,
                                                    "mediaDuration" : 1,
                                                    "scalar" : 1,
                                                    "metadata" : {
                                                      "clipSpeedAttribute" : false
                                                    },
                                                    "animationTracks" : {

                                                    }
                                                  },
                                                  {
                                                    "id" : 3129,
                                                    "_type" : "IMFile",
                                                    "src" : 49,
                                                    "trackNumber" : 0,
                                                    "trimStartSum" : 0,
                                                    "attributes" : {
                                                      "ident" : "wave3"
                                                    },
                                                    "parameters" : {
                                                      "translation0" : -1.11950146655987,
                                                      "translation1" : 8.12143442823202,
                                                      "scale0" : 1.00893326326855,
                                                      "scale1" : 1.00893326326855
                                                    },
                                                    "effects" : [

                                                    ],
                                                    "start" : 145,
                                                    "duration" : 7,
                                                    "mediaStart" : 0,
                                                    "mediaDuration" : 1,
                                                    "scalar" : 1,
                                                    "metadata" : {
                                                      "clipSpeedAttribute" : false
                                                    },
                                                    "animationTracks" : {

                                                    }
                                                  },
                                                  {
                                                    "id" : 3130,
                                                    "_type" : "IMFile",
                                                    "src" : 47,
                                                    "trackNumber" : 0,
                                                    "trimStartSum" : 0,
                                                    "attributes" : {
                                                      "ident" : "wave1"
                                                    },
                                                    "parameters" : {
                                                      "translation0" : -2.11950146613311,
                                                      "translation1" : 8.96940103546206,
                                                      "scale0" : 1.02884111169424,
                                                      "scale1" : 1.02884111169424
                                                    },
                                                    "effects" : [

                                                    ],
                                                    "start" : 152,
                                                    "duration" : 6,
                                                    "mediaStart" : 0,
                                                    "mediaDuration" : 1,
                                                    "scalar" : 1,
                                                    "metadata" : {
                                                      "clipSpeedAttribute" : false
                                                    },
                                                    "animationTracks" : {

                                                    }
                                                  },
                                                  {
                                                    "id" : 3131,
                                                    "_type" : "IMFile",
                                                    "src" : 48,
                                                    "trackNumber" : 0,
                                                    "trimStartSum" : 0,
                                                    "attributes" : {
                                                      "ident" : "wave2"
                                                    },
                                                    "parameters" : {
                                                      "translation0" : 0.880498533167186,
                                                      "translation1" : -88.087642172052,
                                                      "scale0" : 1.03068101042332,
                                                      "scale1" : 1.03068101042332
                                                    },
                                                    "effects" : [

                                                    ],
                                                    "start" : 158,
                                                    "duration" : 6,
                                                    "mediaStart" : 0,
                                                    "mediaDuration" : 1,
                                                    "scalar" : 1,
                                                    "metadata" : {
                                                      "clipSpeedAttribute" : false
                                                    },
                                                    "animationTracks" : {

                                                    }
                                                  },
                                                  {
                                                    "id" : 3132,
                                                    "_type" : "IMFile",
                                                    "src" : 49,
                                                    "trackNumber" : 0,
                                                    "trimStartSum" : 0,
                                                    "attributes" : {
                                                      "ident" : "wave3"
                                                    },
                                                    "parameters" : {
                                                      "translation0" : -1.11950146655987,
                                                      "translation1" : 8.12143442823202,
                                                      "scale0" : 1.00893326326855,
                                                      "scale1" : 1.00893326326855
                                                    },
                                                    "effects" : [

                                                    ],
                                                    "start" : 164,
                                                    "duration" : 7,
                                                    "mediaStart" : 0,
                                                    "mediaDuration" : 1,
                                                    "scalar" : 1,
                                                    "metadata" : {
                                                      "clipSpeedAttribute" : false
                                                    },
                                                    "animationTracks" : {

                                                    }
                                                  },
                                                  {
                                                    "id" : 3133,
                                                    "_type" : "IMFile",
                                                    "src" : 47,
                                                    "trackNumber" : 0,
                                                    "trimStartSum" : 0,
                                                    "attributes" : {
                                                      "ident" : "wave1"
                                                    },
                                                    "parameters" : {
                                                      "translation0" : -2.11950146613311,
                                                      "translation1" : 8.96940103546206,
                                                      "scale0" : 1.02884111169424,
                                                      "scale1" : 1.02884111169424
                                                    },
                                                    "effects" : [

                                                    ],
                                                    "start" : 171,
                                                    "duration" : 6,
                                                    "mediaStart" : 0,
                                                    "mediaDuration" : 1,
                                                    "scalar" : 1,
                                                    "metadata" : {
                                                      "clipSpeedAttribute" : false
                                                    },
                                                    "animationTracks" : {

                                                    }
                                                  },
                                                  {
                                                    "id" : 3134,
                                                    "_type" : "IMFile",
                                                    "src" : 48,
                                                    "trackNumber" : 0,
                                                    "trimStartSum" : 0,
                                                    "attributes" : {
                                                      "ident" : "wave2"
                                                    },
                                                    "parameters" : {
                                                      "translation0" : 0.880498533167186,
                                                      "translation1" : -88.087642172052,
                                                      "scale0" : 1.03068101042332,
                                                      "scale1" : 1.03068101042332
                                                    },
                                                    "effects" : [

                                                    ],
                                                    "start" : 177,
                                                    "duration" : 6,
                                                    "mediaStart" : 0,
                                                    "mediaDuration" : 1,
                                                    "scalar" : 1,
                                                    "metadata" : {
                                                      "clipSpeedAttribute" : false
                                                    },
                                                    "animationTracks" : {

                                                    }
                                                  },
                                                  {
                                                    "id" : 3135,
                                                    "_type" : "IMFile",
                                                    "src" : 49,
                                                    "trackNumber" : 0,
                                                    "trimStartSum" : 0,
                                                    "attributes" : {
                                                      "ident" : "wave3"
                                                    },
                                                    "parameters" : {
                                                      "translation0" : -1.11950146655987,
                                                      "translation1" : 8.12143442823202,
                                                      "scale0" : 1.00893326326855,
                                                      "scale1" : 1.00893326326855
                                                    },
                                                    "effects" : [

                                                    ],
                                                    "start" : 183,
                                                    "duration" : 7,
                                                    "mediaStart" : 0,
                                                    "mediaDuration" : 1,
                                                    "scalar" : 1,
                                                    "metadata" : {
                                                      "clipSpeedAttribute" : false
                                                    },
                                                    "animationTracks" : {

                                                    }
                                                  },
                                                  {
                                                    "id" : 3136,
                                                    "_type" : "IMFile",
                                                    "src" : 47,
                                                    "trackNumber" : 0,
                                                    "trimStartSum" : 0,
                                                    "attributes" : {
                                                      "ident" : "wave1"
                                                    },
                                                    "parameters" : {
                                                      "translation0" : -2.11950146613311,
                                                      "translation1" : 8.96940103546206,
                                                      "scale0" : 1.02884111169424,
                                                      "scale1" : 1.02884111169424
                                                    },
                                                    "effects" : [

                                                    ],
                                                    "start" : 190,
                                                    "duration" : 6,
                                                    "mediaStart" : 0,
                                                    "mediaDuration" : 1,
                                                    "scalar" : 1,
                                                    "metadata" : {
                                                      "clipSpeedAttribute" : false
                                                    },
                                                    "animationTracks" : {

                                                    }
                                                  },
                                                  {
                                                    "id" : 3137,
                                                    "_type" : "IMFile",
                                                    "src" : 48,
                                                    "trackNumber" : 0,
                                                    "trimStartSum" : 0,
                                                    "attributes" : {
                                                      "ident" : "wave2"
                                                    },
                                                    "parameters" : {
                                                      "translation0" : 0.880498533167186,
                                                      "translation1" : -88.087642172052,
                                                      "scale0" : 1.03068101042332,
                                                      "scale1" : 1.03068101042332
                                                    },
                                                    "effects" : [

                                                    ],
                                                    "start" : 196,
                                                    "duration" : 4,
                                                    "mediaStart" : 0,
                                                    "mediaDuration" : 1,
                                                    "scalar" : 1,
                                                    "metadata" : {
                                                      "clipSpeedAttribute" : false
                                                    },
                                                    "animationTracks" : {

                                                    }
                                                  }
                                                ],
                                                  "ident" : "",
                                                  "audioMuted" : false,
                                                  "videoHidden" : false,
                                                  "magnetic" : false,
                                                  "matte" : 0,
                                                  "metadata" : {
                                                    "IsLocked" : "False",
                                                    "WinTrackHeight" : "0"
                                                  }
                                              },
                                              {
                                                "trackIndex" : 1,
                                                "medias" : [
                                                  {
                                                    "id" : 3138,
                                                    "_type" : "IMFile",
                                                    "src" : 50,
                                                    "trackNumber" : 0,
                                                    "trimStartSum" : 0,
                                                    "attributes" : {
                                                      "ident" : "control-plane-128"
                                                    },
                                                    "parameters" : {
                                                      "translation0" : -785.119501466663,
                                                      "translation1" : 199.818754449228
                                                    },
                                                    "effects" : [

                                                    ],
                                                    "start" : 0,
                                                    "duration" : 19,
                                                    "mediaStart" : 0,
                                                    "mediaDuration" : 1,
                                                    "scalar" : 1,
                                                    "metadata" : {
                                                      "clipSpeedAttribute" : false
                                                    },
                                                    "animationTracks" : {

                                                    }
                                                  },
                                                  {
                                                    "id" : 3139,
                                                    "_type" : "IMFile",
                                                    "src" : 51,
                                                    "trackNumber" : 0,
                                                    "trimStartSum" : 0,
                                                    "attributes" : {
                                                      "ident" : "etcd-128"
                                                    },
                                                    "parameters" : {
                                                      "translation0" : -655.119501466745,
                                                      "translation1" : 120.373795393553
                                                    },
                                                    "effects" : [

                                                    ],
                                                    "start" : 19,
                                                    "duration" : 22,
                                                    "mediaStart" : 0,
                                                    "mediaDuration" : 1,
                                                    "scalar" : 1,
                                                    "metadata" : {
                                                      "clipSpeedAttribute" : false
                                                    },
                                                    "animationTracks" : {

                                                    }
                                                  },
                                                  {
                                                    "id" : 3140,
                                                    "_type" : "IMFile",
                                                    "src" : 52,
                                                    "trackNumber" : 0,
                                                    "trimStartSum" : 0,
                                                    "attributes" : {
                                                      "ident" : "node-128"
                                                    },
                                                    "parameters" : {
                                                      "translation0" : -315.119501466444,
                                                      "translation1" : 135.818754449343
                                                    },
                                                    "effects" : [

                                                    ],
                                                    "start" : 41,
                                                    "duration" : 18,
                                                    "mediaStart" : 0,
                                                    "mediaDuration" : 1,
                                                    "scalar" : 1,
                                                    "metadata" : {
                                                      "clipSpeedAttribute" : false
                                                    },
                                                    "animationTracks" : {

                                                    }
                                                  },
                                                  {
                                                    "id" : 3141,
                                                    "_type" : "IMFile",
                                                    "src" : 53,
                                                    "trackNumber" : 0,
                                                    "trimStartSum" : 0,
                                                    "attributes" : {
                                                      "ident" : "ns-128"
                                                    },
                                                    "parameters" : {
                                                      "translation0" : -345.11950146672,
                                                      "translation1" : 158.121434428201
                                                    },
                                                    "effects" : [

                                                    ],
                                                    "start" : 59,
                                                    "duration" : 23,
                                                    "mediaStart" : 0,
                                                    "mediaDuration" : 1,
                                                    "scalar" : 1,
                                                    "metadata" : {
                                                      "clipSpeedAttribute" : false
                                                    },
                                                    "animationTracks" : {

                                                    }
                                                  },
                                                  {
                                                    "id" : 3142,
                                                    "_type" : "IMFile",
                                                    "src" : 54,
                                                    "trackNumber" : 0,
                                                    "trimStartSum" : 0,
                                                    "attributes" : {
                                                      "ident" : "pod-128"
                                                    },
                                                    "parameters" : {
                                                      "translation0" : -91.1195014666742,
                                                      "translation1" : 100.121434428219
                                                    },
                                                    "effects" : [

                                                    ],
                                                    "start" : 82,
                                                    "duration" : 16,
                                                    "mediaStart" : 0,
                                                    "mediaDuration" : 1,
                                                    "scalar" : 1,
                                                    "metadata" : {
                                                      "clipSpeedAttribute" : false
                                                    },
                                                    "animationTracks" : {

                                                    }
                                                  },
                                                  {
                                                    "id" : 3143,
                                                    "_type" : "IMFile",
                                                    "src" : 55,
                                                    "trackNumber" : 0,
                                                    "trimStartSum" : 0,
                                                    "attributes" : {
                                                      "ident" : "secret-128"
                                                    },
                                                    "parameters" : {
                                                      "translation0" : -1.11950146666447,
                                                      "translation1" : 140.121434428194
                                                    },
                                                    "effects" : [

                                                    ],
                                                    "start" : 98,
                                                    "duration" : 17,
                                                    "mediaStart" : 0,
                                                    "mediaDuration" : 1,
                                                    "scalar" : 1,
                                                    "metadata" : {
                                                      "clipSpeedAttribute" : false
                                                    },
                                                    "animationTracks" : {

                                                    }
                                                  },
                                                  {
                                                    "id" : 3144,
                                                    "_type" : "IMFile",
                                                    "src" : 56,
                                                    "trackNumber" : 0,
                                                    "trimStartSum" : 0,
                                                    "attributes" : {
                                                      "ident" : "svc-128"
                                                    },
                                                    "parameters" : {
                                                      "translation0" : 258.880498533338,
                                                      "translation1" : 112.121434428216
                                                    },
                                                    "effects" : [

                                                    ],
                                                    "start" : 115,
                                                    "duration" : 14,
                                                    "mediaStart" : 0,
                                                    "mediaDuration" : 1,
                                                    "scalar" : 1,
                                                    "metadata" : {
                                                      "clipSpeedAttribute" : false
                                                    },
                                                    "animationTracks" : {

                                                    }
                                                  },
                                                  {
                                                    "id" : 3145,
                                                    "_type" : "IMFile",
                                                    "src" : 56,
                                                    "trackNumber" : 0,
                                                    "trimStartSum" : 0,
                                                    "attributes" : {
                                                      "ident" : "svc-128"
                                                    },
                                                    "parameters" : {
                                                      "translation0" : 346.880498533407,
                                                      "translation1" : 120.121434428205
                                                    },
                                                    "effects" : [

                                                    ],
                                                    "start" : 129,
                                                    "duration" : 14,
                                                    "mediaStart" : 0,
                                                    "mediaDuration" : 1,
                                                    "scalar" : 1,
                                                    "metadata" : {
                                                      "clipSpeedAttribute" : false
                                                    },
                                                    "animationTracks" : {

                                                    }
                                                  },
                                                  {
                                                    "id" : 3146,
                                                    "_type" : "IMFile",
                                                    "src" : 57,
                                                    "trackNumber" : 0,
                                                    "trimStartSum" : 0,
                                                    "attributes" : {
                                                      "ident" : "rs-128"
                                                    },
                                                    "parameters" : {
                                                      "translation0" : 480.880498533387,
                                                      "translation1" : 158.1214344282
                                                    },
                                                    "effects" : [

                                                    ],
                                                    "start" : 143,
                                                    "duration" : 13,
                                                    "mediaStart" : 0,
                                                    "mediaDuration" : 1,
                                                    "scalar" : 1,
                                                    "metadata" : {
                                                      "clipSpeedAttribute" : false
                                                    },
                                                    "animationTracks" : {

                                                    }
                                                  },
                                                  {
                                                    "id" : 3147,
                                                    "_type" : "IMFile",
                                                    "src" : 58,
                                                    "trackNumber" : 0,
                                                    "trimStartSum" : 0,
                                                    "attributes" : {
                                                      "ident" : "vol-128"
                                                    },
                                                    "parameters" : {
                                                      "translation0" : 560.880498533409,
                                                      "translation1" : 136.121434428193
                                                    },
                                                    "effects" : [

                                                    ],
                                                    "start" : 156,
                                                    "duration" : 14,
                                                    "mediaStart" : 0,
                                                    "mediaDuration" : 1,
                                                    "scalar" : 1,
                                                    "metadata" : {
                                                      "clipSpeedAttribute" : false
                                                    },
                                                    "animationTracks" : {

                                                    }
                                                  },
                                                  {
                                                    "id" : 3148,
                                                    "_type" : "IMFile",
                                                    "src" : 59,
                                                    "trackNumber" : 0,
                                                    "trimStartSum" : 0,
                                                    "attributes" : {
                                                      "ident" : "deploy-128"
                                                    },
                                                    "parameters" : {
                                                      "translation0" : 716.880498533367,
                                                      "translation1" : 84.1214344281821
                                                    },
                                                    "effects" : [

                                                    ],
                                                    "start" : 170,
                                                    "duration" : 13,
                                                    "mediaStart" : 0,
                                                    "mediaDuration" : 1,
                                                    "scalar" : 1,
                                                    "metadata" : {
                                                      "clipSpeedAttribute" : false
                                                    },
                                                    "animationTracks" : {

                                                    }
                                                  },
                                                  {
                                                    "id" : 3149,
                                                    "_type" : "IMFile",
                                                    "src" : 60,
                                                    "trackNumber" : 0,
                                                    "trimStartSum" : 0,
                                                    "attributes" : {
                                                      "ident" : "cronjob-128"
                                                    },
                                                    "parameters" : {
                                                      "translation0" : 870.880498533812,
                                                      "translation1" : 135.81875444932
                                                    },
                                                    "effects" : [

                                                    ],
                                                    "start" : 183,
                                                    "duration" : 17,
                                                    "mediaStart" : 0,
                                                    "mediaDuration" : 1,
                                                    "scalar" : 1,
                                                    "metadata" : {
                                                      "clipSpeedAttribute" : false
                                                    },
                                                    "animationTracks" : {

                                                    }
                                                  }
                                                ],
                                                  "ident" : "",
                                                  "audioMuted" : false,
                                                  "videoHidden" : false,
                                                  "magnetic" : false,
                                                  "matte" : 0,
                                                  "metadata" : {
                                                    "IsLocked" : "False",
                                                    "WinTrackHeight" : "3.6077993365582e-314"
                                                  }
                                              }
                                            ],
                                            "attributes" : {
                                              "ident" : "Group 1",
                                              "gain" : 1.0,
                                              "mixToMono" : false
                                            },
                                            "effects" : [

                                            ],
                                            "start" : 0,
                                            "duration" : 200,
                                            "mediaStart" : 0.0,
                                            "mediaDuration" : 200.0,
                                            "scalar" : 1,
                                            "metadata" : {
                                              "IsGroupExpanded" : "False"
                                            },
                                            "animationTracks" : {

                                            }
                                          }
                                        ],
                                          "ident" : "",
                                          "audioMuted" : false,
                                          "videoHidden" : false,
                                          "magnetic" : false,
                                          "matte" : 0,
                                          "metadata" : {
                                            "IsLocked" : "False",
                                            "WinTrackHeight" : "0"
                                          }
                                      },
                                      {
                                        "trackIndex" : 1,
                                        "medias" : [
                                          {
                                            "id" : 3150,
                                            "_type" : "IMFile",
                                            "src" : 61,
                                            "trackNumber" : 0,
                                            "trimStartSum" : 0,
                                            "attributes" : {
                                              "ident" : "k8sfavicon"
                                            },
                                            "parameters" : {
                                              "translation0" : -822.559750733209,
                                              "translation1" : 466.970094438544,
                                              "scale0" : 0.335937500000757,
                                              "scale1" : 0.335937500000757
                                            },
                                            "effects" : [

                                            ],
                                            "start" : 0,
                                            "duration" : 200,
                                            "mediaStart" : 0,
                                            "mediaDuration" : 1,
                                            "scalar" : 1,
                                            "metadata" : {
                                              "clipSpeedAttribute" : false
                                            },
                                            "animationTracks" : {

                                            }
                                          }
                                        ],
                                          "ident" : "",
                                          "audioMuted" : false,
                                          "videoHidden" : false,
                                          "magnetic" : false,
                                          "matte" : 0,
                                          "metadata" : {
                                            "IsLocked" : "False",
                                            "WinTrackHeight" : "3.6077993365582e-314"
                                          }
                                      }
                                    ],
                                    "attributes" : {
                                      "ident" : "Group 2",
                                      "gain" : 1.0,
                                      "mixToMono" : false
                                    },
                                    "effects" : [

                                    ],
                                    "start" : 0,
                                    "duration" : 200,
                                    "mediaStart" : 0.0,
                                    "mediaDuration" : 200.0,
                                    "scalar" : 1,
                                    "metadata" : {
                                      "IsGroupExpanded" : "False"
                                    },
                                    "animationTracks" : {

                                    }
                                  }
                                ],
                                  "ident" : "",
                                  "audioMuted" : false,
                                  "videoHidden" : false,
                                  "magnetic" : false,
                                  "matte" : 0,
                                  "metadata" : {
                                    "IsLocked" : "False",
                                    "WinTrackHeight" : "0"
                                  }
                              },
                              {
                                "trackIndex" : 1,
                                "medias" : [
                                  {
                                    "id" : 3151,
                                    "_type" : "AMFile",
                                    "src" : 62,
                                    "trackNumber" : 0,
                                    "attributes" : {
                                      "ident" : "wave",
                                      "gain" : 1.0,
                                      "mixToMono" : false
                                    },
                                      "channelNumber" : "0,1",
                                    "parameters" : {
                                      "volume" : {
                                        "type" : "double",
                                        "keyframes" : [
                                          {
                                            "endTime" : -1,
                                            "time" : -1,
                                            "value" : 1.0,
                                            "duration" : 0
                                          },
                                          {
                                            "endTime" : 0,
                                            "time" : 0,
                                            "value" : 0.0,
                                            "duration" : 0
                                          },
                                          {
                                            "endTime" : 82,
                                            "time" : 82,
                                            "value" : 0.384615384615384,
                                            "duration" : 0
                                          }
                                        ]
                                      }
                                    },
                                    "effects" : [

                                    ],
                                    "start" : 0,
                                    "duration" : 103,
                                    "mediaStart" : 0,
                                    "mediaDuration" : 103,
                                    "scalar" : 1,
                                    "metadata" : {
                                      "clipSpeedAttribute" : false
                                    },
                                    "animationTracks" : {

                                    }
                                  },
                                  {
                                    "id" : 3152,
                                    "_type" : "AMFile",
                                    "src" : 62,
                                    "trackNumber" : 0,
                                    "attributes" : {
                                      "ident" : "wave",
                                      "gain" : 1.0,
                                      "mixToMono" : false
                                    },
                                      "channelNumber" : "0,1",
                                    "parameters" : {
                                      "volume" : {
                                        "type" : "double",
                                        "keyframes" : [
                                          {
                                            "endTime" : 0,
                                            "time" : 0,
                                            "value" : 0.770507364975449,
                                            "duration" : 0
                                          },
                                          {
                                            "endTime" : 134,
                                            "time" : 134,
                                            "value" : 0.232045826513911,
                                            "duration" : 0
                                          },
                                          {
                                            "endTime" : 200,
                                            "time" : 200,
                                            "value" : 0.0,
                                            "duration" : 0
                                          },
                                          {
                                            "endTime" : 201,
                                            "time" : 201,
                                            "value" : 1.0,
                                            "duration" : 0
                                          }
                                        ]
                                      }
                                    },
                                    "effects" : [

                                    ],
                                    "start" : 103,
                                    "duration" : 97,
                                    "mediaStart" : 103,
                                    "mediaDuration" : 97,
                                    "scalar" : 1,
                                    "metadata" : {
                                      "clipSpeedAttribute" : false
                                    },
                                    "animationTracks" : {

                                    }
                                  }
                                ],
                                  "ident" : "",
                                  "audioMuted" : false,
                                  "videoHidden" : false,
                                  "magnetic" : false,
                                  "matte" : 0,
                                  "metadata" : {
                                    "IsLocked" : "False",
                                    "WinTrackHeight" : "2.26715762571713e-312"
                                  }
                              }
                            ],
                            "attributes" : {
                              "ident" : "Group 1",
                              "gain" : 1.0,
                              "mixToMono" : false
                            },
                            "effects" : [

                            ],
                            "start" : 0,
                            "duration" : 200,
                            "mediaStart" : 0.0,
                            "mediaDuration" : 200.0,
                            "scalar" : 1,
                            "metadata" : {
                              "IsGroupExpanded" : "False"
                            },
                            "animationTracks" : {

                            }
                          }
                        ],
                          "ident" : "",
                          "audioMuted" : false,
                          "videoHidden" : false,
                          "magnetic" : false,
                          "matte" : 0,
                          "metadata" : {
                            "IsLocked" : "False",
                            "WinTrackHeight" : "2.73418318437274e-312"
                          }
                      }
                    ],
                    "attributes" : {
                      "ident" : "end",
                      "gain" : 1.0,
                      "mixToMono" : false
                    },
                    "effects" : [

                    ],
                    "start" : 19422,
                    "duration" : 200,
                    "mediaStart" : 0.0,
                    "mediaDuration" : 200.0,
                    "scalar" : 1,
                    "metadata" : {
                      "IsGroupExpanded" : "False"
                    },
                    "animationTracks" : {

                    }
                  }
                ]
              },
              {
                "trackIndex" : 2,
                "medias" : [
                ]
              },
              {
                "trackIndex" : 3,
                "medias" : [
                ]
              },
              {
                "trackIndex" : 4,
                "medias" : [
                ]
              }
            ]
          }
        }
      ]
    },
    "trackAttributes" : [
      {
        "ident" : "",
        "audioMuted" : false,
        "videoHidden" : false,
        "magnetic" : false,
        "matte" : 0,
        "metadata" : {
          "IsLocked" : "False",
          "WinTrackHeight" : "56"
        }
      },
      {
        "ident" : "",
        "audioMuted" : false,
        "videoHidden" : false,
        "magnetic" : false,
        "matte" : 0,
        "metadata" : {
          "IsLocked" : "False",
          "WinTrackHeight" : "56"
        }
      },
      {
        "ident" : "",
        "audioMuted" : false,
        "videoHidden" : false,
        "magnetic" : false,
        "matte" : 0,
        "metadata" : {
          "IsLocked" : "False",
          "WinTrackHeight" : "56"
        }
      },
      {
        "ident" : "",
        "audioMuted" : false,
        "videoHidden" : false,
        "magnetic" : false,
        "matte" : 0,
        "metadata" : {
          "IsLocked" : "False",
          "WinTrackHeight" : "56"
        }
      },
      {
        "ident" : "",
        "audioMuted" : false,
        "videoHidden" : false,
        "magnetic" : false,
        "matte" : 0,
        "metadata" : {
          "IsLocked" : "False",
          "WinTrackHeight" : "56"
        }
      }
    ],
    "captionAttributes" : {
      "enabled" : true,
      "fontName" : "Arial",
      "fontSize" : 64,
      "backgroundColor" : [ 0, 0, 0, 191],
      "foregroundColor" : [ 255, 255, 255, 255],
      "lang" : "en",
      "alignment" : 0,
      "defaultFontSize" : true,
      "opacity" : 0.5,
      "backgroundEnabled" : true,
      "backgroundOnlyAroundText" : true
    },
    "backgroundColor" : [ 30, 30, 30, 255]
  },
  "metadata" : {
    "AutoSaveFile" : "C:\\Users\\lianduan\\AppData\\Local\\TechSmith\\Camtasia Studio\\19.0\\Auto-Saves\\3-3 Kubernetes-Deployment48710dc0.autosave.tscproj",
    "CanvasZoom" : 50,
    "Date" : "2021-01-28 03:37:51 PM",
    "IsAutoSave" : "0",
    "Language" : "ENU",
    "ProfileName" : "MP4 only (up to 1080p)",
    "ProjectDimensionsChanged" : "1",
    "Title" : "3-3 Kubernetes-Deployment",
    "audioNarrationNotes" : "",
    "calloutStyle" : "Basic",
    "canvasDetached" : "False",
    "canvasPositionHeight" : "0",
    "canvasPositionLeft" : "0",
    "canvasPositionTop" : "0",
    "canvasPositionWidth" : "0"
  }
}
